%TF.GenerationSoftware,KiCad,Pcbnew,9.0.1*%
%TF.CreationDate,2026-03-03T23:02:17+01:00*%
%TF.ProjectId,top_cover,746f705f-636f-4766-9572-2e6b69636164,rev?*%
%TF.SameCoordinates,Original*%
%TF.FileFunction,Legend,Top*%
%TF.FilePolarity,Positive*%
%FSLAX46Y46*%
G04 Gerber Fmt 4.6, Leading zero omitted, Abs format (unit mm)*
G04 Created by KiCad (PCBNEW 9.0.1) date 2026-03-03 23:02:17*
%MOMM*%
%LPD*%
G01*
G04 APERTURE LIST*
%ADD10C,0.200000*%
%ADD11C,0.100000*%
%ADD12C,0.150000*%
%ADD13C,0.300000*%
G04 APERTURE END LIST*
D10*
X58550625Y-48115145D02*
X58455387Y-48210384D01*
X58455387Y-48210384D02*
X58169673Y-48305622D01*
X58169673Y-48305622D02*
X57979197Y-48305622D01*
X57979197Y-48305622D02*
X57693482Y-48210384D01*
X57693482Y-48210384D02*
X57503006Y-48019907D01*
X57503006Y-48019907D02*
X57407768Y-47829431D01*
X57407768Y-47829431D02*
X57312530Y-47448479D01*
X57312530Y-47448479D02*
X57312530Y-47162764D01*
X57312530Y-47162764D02*
X57407768Y-46781812D01*
X57407768Y-46781812D02*
X57503006Y-46591336D01*
X57503006Y-46591336D02*
X57693482Y-46400860D01*
X57693482Y-46400860D02*
X57979197Y-46305622D01*
X57979197Y-46305622D02*
X58169673Y-46305622D01*
X58169673Y-46305622D02*
X58455387Y-46400860D01*
X58455387Y-46400860D02*
X58550625Y-46496098D01*
X60169673Y-48210384D02*
X59979197Y-48305622D01*
X59979197Y-48305622D02*
X59598244Y-48305622D01*
X59598244Y-48305622D02*
X59407768Y-48210384D01*
X59407768Y-48210384D02*
X59312530Y-48019907D01*
X59312530Y-48019907D02*
X59312530Y-47258003D01*
X59312530Y-47258003D02*
X59407768Y-47067526D01*
X59407768Y-47067526D02*
X59598244Y-46972288D01*
X59598244Y-46972288D02*
X59979197Y-46972288D01*
X59979197Y-46972288D02*
X60169673Y-47067526D01*
X60169673Y-47067526D02*
X60264911Y-47258003D01*
X60264911Y-47258003D02*
X60264911Y-47448479D01*
X60264911Y-47448479D02*
X59312530Y-47638955D01*
X60836340Y-46972288D02*
X61598244Y-46972288D01*
X61122054Y-46305622D02*
X61122054Y-48019907D01*
X61122054Y-48019907D02*
X61217292Y-48210384D01*
X61217292Y-48210384D02*
X61407768Y-48305622D01*
X61407768Y-48305622D02*
X61598244Y-48305622D01*
X61979197Y-46972288D02*
X62741101Y-46972288D01*
X62264911Y-46305622D02*
X62264911Y-48019907D01*
X62264911Y-48019907D02*
X62360149Y-48210384D01*
X62360149Y-48210384D02*
X62550625Y-48305622D01*
X62550625Y-48305622D02*
X62741101Y-48305622D01*
X64169673Y-48210384D02*
X63979197Y-48305622D01*
X63979197Y-48305622D02*
X63598244Y-48305622D01*
X63598244Y-48305622D02*
X63407768Y-48210384D01*
X63407768Y-48210384D02*
X63312530Y-48019907D01*
X63312530Y-48019907D02*
X63312530Y-47258003D01*
X63312530Y-47258003D02*
X63407768Y-47067526D01*
X63407768Y-47067526D02*
X63598244Y-46972288D01*
X63598244Y-46972288D02*
X63979197Y-46972288D01*
X63979197Y-46972288D02*
X64169673Y-47067526D01*
X64169673Y-47067526D02*
X64264911Y-47258003D01*
X64264911Y-47258003D02*
X64264911Y-47448479D01*
X64264911Y-47448479D02*
X63312530Y-47638955D01*
X67503007Y-48210384D02*
X67312531Y-48305622D01*
X67312531Y-48305622D02*
X66931578Y-48305622D01*
X66931578Y-48305622D02*
X66741102Y-48210384D01*
X66741102Y-48210384D02*
X66645864Y-48115145D01*
X66645864Y-48115145D02*
X66550626Y-47924669D01*
X66550626Y-47924669D02*
X66550626Y-47353241D01*
X66550626Y-47353241D02*
X66645864Y-47162764D01*
X66645864Y-47162764D02*
X66741102Y-47067526D01*
X66741102Y-47067526D02*
X66931578Y-46972288D01*
X66931578Y-46972288D02*
X67312531Y-46972288D01*
X67312531Y-46972288D02*
X67503007Y-47067526D01*
X69217293Y-48305622D02*
X69217293Y-47258003D01*
X69217293Y-47258003D02*
X69122055Y-47067526D01*
X69122055Y-47067526D02*
X68931579Y-46972288D01*
X68931579Y-46972288D02*
X68550626Y-46972288D01*
X68550626Y-46972288D02*
X68360150Y-47067526D01*
X69217293Y-48210384D02*
X69026817Y-48305622D01*
X69026817Y-48305622D02*
X68550626Y-48305622D01*
X68550626Y-48305622D02*
X68360150Y-48210384D01*
X68360150Y-48210384D02*
X68264912Y-48019907D01*
X68264912Y-48019907D02*
X68264912Y-47829431D01*
X68264912Y-47829431D02*
X68360150Y-47638955D01*
X68360150Y-47638955D02*
X68550626Y-47543717D01*
X68550626Y-47543717D02*
X69026817Y-47543717D01*
X69026817Y-47543717D02*
X69217293Y-47448479D01*
X70169674Y-48305622D02*
X70169674Y-46972288D01*
X70169674Y-47353241D02*
X70264912Y-47162764D01*
X70264912Y-47162764D02*
X70360150Y-47067526D01*
X70360150Y-47067526D02*
X70550626Y-46972288D01*
X70550626Y-46972288D02*
X70741103Y-46972288D01*
X71122055Y-46972288D02*
X71883959Y-46972288D01*
X71407769Y-46305622D02*
X71407769Y-48019907D01*
X71407769Y-48019907D02*
X71503007Y-48210384D01*
X71503007Y-48210384D02*
X71693483Y-48305622D01*
X71693483Y-48305622D02*
X71883959Y-48305622D01*
X72836340Y-48305622D02*
X72645864Y-48210384D01*
X72645864Y-48210384D02*
X72550626Y-48115145D01*
X72550626Y-48115145D02*
X72455388Y-47924669D01*
X72455388Y-47924669D02*
X72455388Y-47353241D01*
X72455388Y-47353241D02*
X72550626Y-47162764D01*
X72550626Y-47162764D02*
X72645864Y-47067526D01*
X72645864Y-47067526D02*
X72836340Y-46972288D01*
X72836340Y-46972288D02*
X73122055Y-46972288D01*
X73122055Y-46972288D02*
X73312531Y-47067526D01*
X73312531Y-47067526D02*
X73407769Y-47162764D01*
X73407769Y-47162764D02*
X73503007Y-47353241D01*
X73503007Y-47353241D02*
X73503007Y-47924669D01*
X73503007Y-47924669D02*
X73407769Y-48115145D01*
X73407769Y-48115145D02*
X73312531Y-48210384D01*
X73312531Y-48210384D02*
X73122055Y-48305622D01*
X73122055Y-48305622D02*
X72836340Y-48305622D01*
X75217293Y-46972288D02*
X75217293Y-48305622D01*
X74360150Y-46972288D02*
X74360150Y-48019907D01*
X74360150Y-48019907D02*
X74455388Y-48210384D01*
X74455388Y-48210384D02*
X74645864Y-48305622D01*
X74645864Y-48305622D02*
X74931579Y-48305622D01*
X74931579Y-48305622D02*
X75122055Y-48210384D01*
X75122055Y-48210384D02*
X75217293Y-48115145D01*
X77026817Y-48210384D02*
X76836341Y-48305622D01*
X76836341Y-48305622D02*
X76455388Y-48305622D01*
X76455388Y-48305622D02*
X76264912Y-48210384D01*
X76264912Y-48210384D02*
X76169674Y-48115145D01*
X76169674Y-48115145D02*
X76074436Y-47924669D01*
X76074436Y-47924669D02*
X76074436Y-47353241D01*
X76074436Y-47353241D02*
X76169674Y-47162764D01*
X76169674Y-47162764D02*
X76264912Y-47067526D01*
X76264912Y-47067526D02*
X76455388Y-46972288D01*
X76455388Y-46972288D02*
X76836341Y-46972288D01*
X76836341Y-46972288D02*
X77026817Y-47067526D01*
X77883960Y-48305622D02*
X77883960Y-46305622D01*
X78741103Y-48305622D02*
X78741103Y-47258003D01*
X78741103Y-47258003D02*
X78645865Y-47067526D01*
X78645865Y-47067526D02*
X78455389Y-46972288D01*
X78455389Y-46972288D02*
X78169674Y-46972288D01*
X78169674Y-46972288D02*
X77979198Y-47067526D01*
X77979198Y-47067526D02*
X77883960Y-47162764D01*
X80455389Y-48210384D02*
X80264913Y-48305622D01*
X80264913Y-48305622D02*
X79883960Y-48305622D01*
X79883960Y-48305622D02*
X79693484Y-48210384D01*
X79693484Y-48210384D02*
X79598246Y-48019907D01*
X79598246Y-48019907D02*
X79598246Y-47258003D01*
X79598246Y-47258003D02*
X79693484Y-47067526D01*
X79693484Y-47067526D02*
X79883960Y-46972288D01*
X79883960Y-46972288D02*
X80264913Y-46972288D01*
X80264913Y-46972288D02*
X80455389Y-47067526D01*
X80455389Y-47067526D02*
X80550627Y-47258003D01*
X80550627Y-47258003D02*
X80550627Y-47448479D01*
X80550627Y-47448479D02*
X79598246Y-47638955D01*
X83693485Y-48210384D02*
X83503009Y-48305622D01*
X83503009Y-48305622D02*
X83122056Y-48305622D01*
X83122056Y-48305622D02*
X82931580Y-48210384D01*
X82931580Y-48210384D02*
X82836342Y-48019907D01*
X82836342Y-48019907D02*
X82836342Y-47258003D01*
X82836342Y-47258003D02*
X82931580Y-47067526D01*
X82931580Y-47067526D02*
X83122056Y-46972288D01*
X83122056Y-46972288D02*
X83503009Y-46972288D01*
X83503009Y-46972288D02*
X83693485Y-47067526D01*
X83693485Y-47067526D02*
X83788723Y-47258003D01*
X83788723Y-47258003D02*
X83788723Y-47448479D01*
X83788723Y-47448479D02*
X82836342Y-47638955D01*
X84550628Y-48210384D02*
X84741104Y-48305622D01*
X84741104Y-48305622D02*
X85122056Y-48305622D01*
X85122056Y-48305622D02*
X85312533Y-48210384D01*
X85312533Y-48210384D02*
X85407771Y-48019907D01*
X85407771Y-48019907D02*
X85407771Y-47924669D01*
X85407771Y-47924669D02*
X85312533Y-47734193D01*
X85312533Y-47734193D02*
X85122056Y-47638955D01*
X85122056Y-47638955D02*
X84836342Y-47638955D01*
X84836342Y-47638955D02*
X84645866Y-47543717D01*
X84645866Y-47543717D02*
X84550628Y-47353241D01*
X84550628Y-47353241D02*
X84550628Y-47258003D01*
X84550628Y-47258003D02*
X84645866Y-47067526D01*
X84645866Y-47067526D02*
X84836342Y-46972288D01*
X84836342Y-46972288D02*
X85122056Y-46972288D01*
X85122056Y-46972288D02*
X85312533Y-47067526D01*
X85979200Y-46972288D02*
X86741104Y-46972288D01*
X86264914Y-46305622D02*
X86264914Y-48019907D01*
X86264914Y-48019907D02*
X86360152Y-48210384D01*
X86360152Y-48210384D02*
X86550628Y-48305622D01*
X86550628Y-48305622D02*
X86741104Y-48305622D01*
X89217295Y-48305622D02*
X89026819Y-48210384D01*
X89026819Y-48210384D02*
X88931581Y-48019907D01*
X88931581Y-48019907D02*
X88931581Y-46305622D01*
X90836343Y-48305622D02*
X90836343Y-47258003D01*
X90836343Y-47258003D02*
X90741105Y-47067526D01*
X90741105Y-47067526D02*
X90550629Y-46972288D01*
X90550629Y-46972288D02*
X90169676Y-46972288D01*
X90169676Y-46972288D02*
X89979200Y-47067526D01*
X90836343Y-48210384D02*
X90645867Y-48305622D01*
X90645867Y-48305622D02*
X90169676Y-48305622D01*
X90169676Y-48305622D02*
X89979200Y-48210384D01*
X89979200Y-48210384D02*
X89883962Y-48019907D01*
X89883962Y-48019907D02*
X89883962Y-47829431D01*
X89883962Y-47829431D02*
X89979200Y-47638955D01*
X89979200Y-47638955D02*
X90169676Y-47543717D01*
X90169676Y-47543717D02*
X90645867Y-47543717D01*
X90645867Y-47543717D02*
X90836343Y-47448479D01*
X93312534Y-46972288D02*
X93312534Y-48972288D01*
X93312534Y-47067526D02*
X93503010Y-46972288D01*
X93503010Y-46972288D02*
X93883963Y-46972288D01*
X93883963Y-46972288D02*
X94074439Y-47067526D01*
X94074439Y-47067526D02*
X94169677Y-47162764D01*
X94169677Y-47162764D02*
X94264915Y-47353241D01*
X94264915Y-47353241D02*
X94264915Y-47924669D01*
X94264915Y-47924669D02*
X94169677Y-48115145D01*
X94169677Y-48115145D02*
X94074439Y-48210384D01*
X94074439Y-48210384D02*
X93883963Y-48305622D01*
X93883963Y-48305622D02*
X93503010Y-48305622D01*
X93503010Y-48305622D02*
X93312534Y-48210384D01*
X95122058Y-48305622D02*
X95122058Y-46972288D01*
X95122058Y-47353241D02*
X95217296Y-47162764D01*
X95217296Y-47162764D02*
X95312534Y-47067526D01*
X95312534Y-47067526D02*
X95503010Y-46972288D01*
X95503010Y-46972288D02*
X95693487Y-46972288D01*
X96645867Y-48305622D02*
X96455391Y-48210384D01*
X96455391Y-48210384D02*
X96360153Y-48115145D01*
X96360153Y-48115145D02*
X96264915Y-47924669D01*
X96264915Y-47924669D02*
X96264915Y-47353241D01*
X96264915Y-47353241D02*
X96360153Y-47162764D01*
X96360153Y-47162764D02*
X96455391Y-47067526D01*
X96455391Y-47067526D02*
X96645867Y-46972288D01*
X96645867Y-46972288D02*
X96931582Y-46972288D01*
X96931582Y-46972288D02*
X97122058Y-47067526D01*
X97122058Y-47067526D02*
X97217296Y-47162764D01*
X97217296Y-47162764D02*
X97312534Y-47353241D01*
X97312534Y-47353241D02*
X97312534Y-47924669D01*
X97312534Y-47924669D02*
X97217296Y-48115145D01*
X97217296Y-48115145D02*
X97122058Y-48210384D01*
X97122058Y-48210384D02*
X96931582Y-48305622D01*
X96931582Y-48305622D02*
X96645867Y-48305622D01*
X98169677Y-46972288D02*
X98169677Y-48972288D01*
X98169677Y-47067526D02*
X98360153Y-46972288D01*
X98360153Y-46972288D02*
X98741106Y-46972288D01*
X98741106Y-46972288D02*
X98931582Y-47067526D01*
X98931582Y-47067526D02*
X99026820Y-47162764D01*
X99026820Y-47162764D02*
X99122058Y-47353241D01*
X99122058Y-47353241D02*
X99122058Y-47924669D01*
X99122058Y-47924669D02*
X99026820Y-48115145D01*
X99026820Y-48115145D02*
X98931582Y-48210384D01*
X98931582Y-48210384D02*
X98741106Y-48305622D01*
X98741106Y-48305622D02*
X98360153Y-48305622D01*
X98360153Y-48305622D02*
X98169677Y-48210384D01*
X99979201Y-48305622D02*
X99979201Y-46972288D01*
X99979201Y-47353241D02*
X100074439Y-47162764D01*
X100074439Y-47162764D02*
X100169677Y-47067526D01*
X100169677Y-47067526D02*
X100360153Y-46972288D01*
X100360153Y-46972288D02*
X100550630Y-46972288D01*
X101217296Y-48305622D02*
X101217296Y-46972288D01*
X101217296Y-46305622D02*
X101122058Y-46400860D01*
X101122058Y-46400860D02*
X101217296Y-46496098D01*
X101217296Y-46496098D02*
X101312534Y-46400860D01*
X101312534Y-46400860D02*
X101217296Y-46305622D01*
X101217296Y-46305622D02*
X101217296Y-46496098D01*
X102931582Y-48210384D02*
X102741106Y-48305622D01*
X102741106Y-48305622D02*
X102360153Y-48305622D01*
X102360153Y-48305622D02*
X102169677Y-48210384D01*
X102169677Y-48210384D02*
X102074439Y-48019907D01*
X102074439Y-48019907D02*
X102074439Y-47258003D01*
X102074439Y-47258003D02*
X102169677Y-47067526D01*
X102169677Y-47067526D02*
X102360153Y-46972288D01*
X102360153Y-46972288D02*
X102741106Y-46972288D01*
X102741106Y-46972288D02*
X102931582Y-47067526D01*
X102931582Y-47067526D02*
X103026820Y-47258003D01*
X103026820Y-47258003D02*
X103026820Y-47448479D01*
X103026820Y-47448479D02*
X102074439Y-47638955D01*
X102741106Y-46210384D02*
X102455391Y-46496098D01*
X103598249Y-46972288D02*
X104360153Y-46972288D01*
X103883963Y-46305622D02*
X103883963Y-48019907D01*
X103883963Y-48019907D02*
X103979201Y-48210384D01*
X103979201Y-48210384D02*
X104169677Y-48305622D01*
X104169677Y-48305622D02*
X104360153Y-48305622D01*
X105788725Y-48210384D02*
X105598249Y-48305622D01*
X105598249Y-48305622D02*
X105217296Y-48305622D01*
X105217296Y-48305622D02*
X105026820Y-48210384D01*
X105026820Y-48210384D02*
X104931582Y-48019907D01*
X104931582Y-48019907D02*
X104931582Y-47258003D01*
X104931582Y-47258003D02*
X105026820Y-47067526D01*
X105026820Y-47067526D02*
X105217296Y-46972288D01*
X105217296Y-46972288D02*
X105598249Y-46972288D01*
X105598249Y-46972288D02*
X105788725Y-47067526D01*
X105788725Y-47067526D02*
X105883963Y-47258003D01*
X105883963Y-47258003D02*
X105883963Y-47448479D01*
X105883963Y-47448479D02*
X104931582Y-47638955D01*
X105598249Y-46210384D02*
X105312534Y-46496098D01*
X108264916Y-48305622D02*
X108264916Y-46972288D01*
X108264916Y-46305622D02*
X108169678Y-46400860D01*
X108169678Y-46400860D02*
X108264916Y-46496098D01*
X108264916Y-46496098D02*
X108360154Y-46400860D01*
X108360154Y-46400860D02*
X108264916Y-46305622D01*
X108264916Y-46305622D02*
X108264916Y-46496098D01*
X109217297Y-46972288D02*
X109217297Y-48305622D01*
X109217297Y-47162764D02*
X109312535Y-47067526D01*
X109312535Y-47067526D02*
X109503011Y-46972288D01*
X109503011Y-46972288D02*
X109788726Y-46972288D01*
X109788726Y-46972288D02*
X109979202Y-47067526D01*
X109979202Y-47067526D02*
X110074440Y-47258003D01*
X110074440Y-47258003D02*
X110074440Y-48305622D01*
X110931583Y-48210384D02*
X111122059Y-48305622D01*
X111122059Y-48305622D02*
X111503011Y-48305622D01*
X111503011Y-48305622D02*
X111693488Y-48210384D01*
X111693488Y-48210384D02*
X111788726Y-48019907D01*
X111788726Y-48019907D02*
X111788726Y-47924669D01*
X111788726Y-47924669D02*
X111693488Y-47734193D01*
X111693488Y-47734193D02*
X111503011Y-47638955D01*
X111503011Y-47638955D02*
X111217297Y-47638955D01*
X111217297Y-47638955D02*
X111026821Y-47543717D01*
X111026821Y-47543717D02*
X110931583Y-47353241D01*
X110931583Y-47353241D02*
X110931583Y-47258003D01*
X110931583Y-47258003D02*
X111026821Y-47067526D01*
X111026821Y-47067526D02*
X111217297Y-46972288D01*
X111217297Y-46972288D02*
X111503011Y-46972288D01*
X111503011Y-46972288D02*
X111693488Y-47067526D01*
X113503012Y-48305622D02*
X113503012Y-47258003D01*
X113503012Y-47258003D02*
X113407774Y-47067526D01*
X113407774Y-47067526D02*
X113217298Y-46972288D01*
X113217298Y-46972288D02*
X112836345Y-46972288D01*
X112836345Y-46972288D02*
X112645869Y-47067526D01*
X113503012Y-48210384D02*
X113312536Y-48305622D01*
X113312536Y-48305622D02*
X112836345Y-48305622D01*
X112836345Y-48305622D02*
X112645869Y-48210384D01*
X112645869Y-48210384D02*
X112550631Y-48019907D01*
X112550631Y-48019907D02*
X112550631Y-47829431D01*
X112550631Y-47829431D02*
X112645869Y-47638955D01*
X112645869Y-47638955D02*
X112836345Y-47543717D01*
X112836345Y-47543717D02*
X113312536Y-47543717D01*
X113312536Y-47543717D02*
X113503012Y-47448479D01*
X114455393Y-48305622D02*
X114455393Y-46972288D01*
X114455393Y-46305622D02*
X114360155Y-46400860D01*
X114360155Y-46400860D02*
X114455393Y-46496098D01*
X114455393Y-46496098D02*
X114550631Y-46400860D01*
X114550631Y-46400860D02*
X114455393Y-46305622D01*
X114455393Y-46305622D02*
X114455393Y-46496098D01*
X115312536Y-48210384D02*
X115503012Y-48305622D01*
X115503012Y-48305622D02*
X115883964Y-48305622D01*
X115883964Y-48305622D02*
X116074441Y-48210384D01*
X116074441Y-48210384D02*
X116169679Y-48019907D01*
X116169679Y-48019907D02*
X116169679Y-47924669D01*
X116169679Y-47924669D02*
X116074441Y-47734193D01*
X116074441Y-47734193D02*
X115883964Y-47638955D01*
X115883964Y-47638955D02*
X115598250Y-47638955D01*
X115598250Y-47638955D02*
X115407774Y-47543717D01*
X115407774Y-47543717D02*
X115312536Y-47353241D01*
X115312536Y-47353241D02*
X115312536Y-47258003D01*
X115312536Y-47258003D02*
X115407774Y-47067526D01*
X115407774Y-47067526D02*
X115598250Y-46972288D01*
X115598250Y-46972288D02*
X115883964Y-46972288D01*
X115883964Y-46972288D02*
X116074441Y-47067526D01*
X117026822Y-48305622D02*
X117026822Y-46972288D01*
X117026822Y-46305622D02*
X116931584Y-46400860D01*
X116931584Y-46400860D02*
X117026822Y-46496098D01*
X117026822Y-46496098D02*
X117122060Y-46400860D01*
X117122060Y-46400860D02*
X117026822Y-46305622D01*
X117026822Y-46305622D02*
X117026822Y-46496098D01*
X117883965Y-48210384D02*
X118074441Y-48305622D01*
X118074441Y-48305622D02*
X118455393Y-48305622D01*
X118455393Y-48305622D02*
X118645870Y-48210384D01*
X118645870Y-48210384D02*
X118741108Y-48019907D01*
X118741108Y-48019907D02*
X118741108Y-47924669D01*
X118741108Y-47924669D02*
X118645870Y-47734193D01*
X118645870Y-47734193D02*
X118455393Y-47638955D01*
X118455393Y-47638955D02*
X118169679Y-47638955D01*
X118169679Y-47638955D02*
X117979203Y-47543717D01*
X117979203Y-47543717D02*
X117883965Y-47353241D01*
X117883965Y-47353241D02*
X117883965Y-47258003D01*
X117883965Y-47258003D02*
X117979203Y-47067526D01*
X117979203Y-47067526D02*
X118169679Y-46972288D01*
X118169679Y-46972288D02*
X118455393Y-46972288D01*
X118455393Y-46972288D02*
X118645870Y-47067526D01*
X119503013Y-48210384D02*
X119693489Y-48305622D01*
X119693489Y-48305622D02*
X120074441Y-48305622D01*
X120074441Y-48305622D02*
X120264918Y-48210384D01*
X120264918Y-48210384D02*
X120360156Y-48019907D01*
X120360156Y-48019907D02*
X120360156Y-47924669D01*
X120360156Y-47924669D02*
X120264918Y-47734193D01*
X120264918Y-47734193D02*
X120074441Y-47638955D01*
X120074441Y-47638955D02*
X119788727Y-47638955D01*
X119788727Y-47638955D02*
X119598251Y-47543717D01*
X119598251Y-47543717D02*
X119503013Y-47353241D01*
X119503013Y-47353241D02*
X119503013Y-47258003D01*
X119503013Y-47258003D02*
X119598251Y-47067526D01*
X119598251Y-47067526D02*
X119788727Y-46972288D01*
X119788727Y-46972288D02*
X120074441Y-46972288D01*
X120074441Y-46972288D02*
X120264918Y-47067526D01*
X122074442Y-48305622D02*
X122074442Y-47258003D01*
X122074442Y-47258003D02*
X121979204Y-47067526D01*
X121979204Y-47067526D02*
X121788728Y-46972288D01*
X121788728Y-46972288D02*
X121407775Y-46972288D01*
X121407775Y-46972288D02*
X121217299Y-47067526D01*
X122074442Y-48210384D02*
X121883966Y-48305622D01*
X121883966Y-48305622D02*
X121407775Y-48305622D01*
X121407775Y-48305622D02*
X121217299Y-48210384D01*
X121217299Y-48210384D02*
X121122061Y-48019907D01*
X121122061Y-48019907D02*
X121122061Y-47829431D01*
X121122061Y-47829431D02*
X121217299Y-47638955D01*
X121217299Y-47638955D02*
X121407775Y-47543717D01*
X121407775Y-47543717D02*
X121883966Y-47543717D01*
X121883966Y-47543717D02*
X122074442Y-47448479D01*
X123026823Y-48305622D02*
X123026823Y-46305622D01*
X123026823Y-47067526D02*
X123217299Y-46972288D01*
X123217299Y-46972288D02*
X123598252Y-46972288D01*
X123598252Y-46972288D02*
X123788728Y-47067526D01*
X123788728Y-47067526D02*
X123883966Y-47162764D01*
X123883966Y-47162764D02*
X123979204Y-47353241D01*
X123979204Y-47353241D02*
X123979204Y-47924669D01*
X123979204Y-47924669D02*
X123883966Y-48115145D01*
X123883966Y-48115145D02*
X123788728Y-48210384D01*
X123788728Y-48210384D02*
X123598252Y-48305622D01*
X123598252Y-48305622D02*
X123217299Y-48305622D01*
X123217299Y-48305622D02*
X123026823Y-48210384D01*
X125122061Y-48305622D02*
X124931585Y-48210384D01*
X124931585Y-48210384D02*
X124836347Y-48019907D01*
X124836347Y-48019907D02*
X124836347Y-46305622D01*
X126645871Y-48210384D02*
X126455395Y-48305622D01*
X126455395Y-48305622D02*
X126074442Y-48305622D01*
X126074442Y-48305622D02*
X125883966Y-48210384D01*
X125883966Y-48210384D02*
X125788728Y-48019907D01*
X125788728Y-48019907D02*
X125788728Y-47258003D01*
X125788728Y-47258003D02*
X125883966Y-47067526D01*
X125883966Y-47067526D02*
X126074442Y-46972288D01*
X126074442Y-46972288D02*
X126455395Y-46972288D01*
X126455395Y-46972288D02*
X126645871Y-47067526D01*
X126645871Y-47067526D02*
X126741109Y-47258003D01*
X126741109Y-47258003D02*
X126741109Y-47448479D01*
X126741109Y-47448479D02*
X125788728Y-47638955D01*
X129979205Y-48305622D02*
X129979205Y-46305622D01*
X129979205Y-48210384D02*
X129788729Y-48305622D01*
X129788729Y-48305622D02*
X129407776Y-48305622D01*
X129407776Y-48305622D02*
X129217300Y-48210384D01*
X129217300Y-48210384D02*
X129122062Y-48115145D01*
X129122062Y-48115145D02*
X129026824Y-47924669D01*
X129026824Y-47924669D02*
X129026824Y-47353241D01*
X129026824Y-47353241D02*
X129122062Y-47162764D01*
X129122062Y-47162764D02*
X129217300Y-47067526D01*
X129217300Y-47067526D02*
X129407776Y-46972288D01*
X129407776Y-46972288D02*
X129788729Y-46972288D01*
X129788729Y-46972288D02*
X129979205Y-47067526D01*
X131693491Y-48210384D02*
X131503015Y-48305622D01*
X131503015Y-48305622D02*
X131122062Y-48305622D01*
X131122062Y-48305622D02*
X130931586Y-48210384D01*
X130931586Y-48210384D02*
X130836348Y-48019907D01*
X130836348Y-48019907D02*
X130836348Y-47258003D01*
X130836348Y-47258003D02*
X130931586Y-47067526D01*
X130931586Y-47067526D02*
X131122062Y-46972288D01*
X131122062Y-46972288D02*
X131503015Y-46972288D01*
X131503015Y-46972288D02*
X131693491Y-47067526D01*
X131693491Y-47067526D02*
X131788729Y-47258003D01*
X131788729Y-47258003D02*
X131788729Y-47448479D01*
X131788729Y-47448479D02*
X130836348Y-47638955D01*
X134074444Y-48210384D02*
X134264920Y-48305622D01*
X134264920Y-48305622D02*
X134645872Y-48305622D01*
X134645872Y-48305622D02*
X134836349Y-48210384D01*
X134836349Y-48210384D02*
X134931587Y-48019907D01*
X134931587Y-48019907D02*
X134931587Y-47924669D01*
X134931587Y-47924669D02*
X134836349Y-47734193D01*
X134836349Y-47734193D02*
X134645872Y-47638955D01*
X134645872Y-47638955D02*
X134360158Y-47638955D01*
X134360158Y-47638955D02*
X134169682Y-47543717D01*
X134169682Y-47543717D02*
X134074444Y-47353241D01*
X134074444Y-47353241D02*
X134074444Y-47258003D01*
X134074444Y-47258003D02*
X134169682Y-47067526D01*
X134169682Y-47067526D02*
X134360158Y-46972288D01*
X134360158Y-46972288D02*
X134645872Y-46972288D01*
X134645872Y-46972288D02*
X134836349Y-47067526D01*
X136074444Y-48305622D02*
X135883968Y-48210384D01*
X135883968Y-48210384D02*
X135788730Y-48115145D01*
X135788730Y-48115145D02*
X135693492Y-47924669D01*
X135693492Y-47924669D02*
X135693492Y-47353241D01*
X135693492Y-47353241D02*
X135788730Y-47162764D01*
X135788730Y-47162764D02*
X135883968Y-47067526D01*
X135883968Y-47067526D02*
X136074444Y-46972288D01*
X136074444Y-46972288D02*
X136360159Y-46972288D01*
X136360159Y-46972288D02*
X136550635Y-47067526D01*
X136550635Y-47067526D02*
X136645873Y-47162764D01*
X136645873Y-47162764D02*
X136741111Y-47353241D01*
X136741111Y-47353241D02*
X136741111Y-47924669D01*
X136741111Y-47924669D02*
X136645873Y-48115145D01*
X136645873Y-48115145D02*
X136550635Y-48210384D01*
X136550635Y-48210384D02*
X136360159Y-48305622D01*
X136360159Y-48305622D02*
X136074444Y-48305622D01*
X137598254Y-46972288D02*
X137598254Y-48305622D01*
X137598254Y-47162764D02*
X137693492Y-47067526D01*
X137693492Y-47067526D02*
X137883968Y-46972288D01*
X137883968Y-46972288D02*
X138169683Y-46972288D01*
X138169683Y-46972288D02*
X138360159Y-47067526D01*
X138360159Y-47067526D02*
X138455397Y-47258003D01*
X138455397Y-47258003D02*
X138455397Y-48305622D01*
X141788731Y-46972288D02*
X141788731Y-48305622D01*
X140931588Y-46972288D02*
X140931588Y-48019907D01*
X140931588Y-48019907D02*
X141026826Y-48210384D01*
X141026826Y-48210384D02*
X141217302Y-48305622D01*
X141217302Y-48305622D02*
X141503017Y-48305622D01*
X141503017Y-48305622D02*
X141693493Y-48210384D01*
X141693493Y-48210384D02*
X141788731Y-48115145D01*
X142455398Y-46972288D02*
X143217302Y-46972288D01*
X142741112Y-46305622D02*
X142741112Y-48019907D01*
X142741112Y-48019907D02*
X142836350Y-48210384D01*
X142836350Y-48210384D02*
X143026826Y-48305622D01*
X143026826Y-48305622D02*
X143217302Y-48305622D01*
X143883969Y-48305622D02*
X143883969Y-46972288D01*
X143883969Y-46305622D02*
X143788731Y-46400860D01*
X143788731Y-46400860D02*
X143883969Y-46496098D01*
X143883969Y-46496098D02*
X143979207Y-46400860D01*
X143979207Y-46400860D02*
X143883969Y-46305622D01*
X143883969Y-46305622D02*
X143883969Y-46496098D01*
X145122064Y-48305622D02*
X144931588Y-48210384D01*
X144931588Y-48210384D02*
X144836350Y-48019907D01*
X144836350Y-48019907D02*
X144836350Y-46305622D01*
X145883969Y-48305622D02*
X145883969Y-46972288D01*
X145883969Y-46305622D02*
X145788731Y-46400860D01*
X145788731Y-46400860D02*
X145883969Y-46496098D01*
X145883969Y-46496098D02*
X145979207Y-46400860D01*
X145979207Y-46400860D02*
X145883969Y-46305622D01*
X145883969Y-46305622D02*
X145883969Y-46496098D01*
X146741112Y-48210384D02*
X146931588Y-48305622D01*
X146931588Y-48305622D02*
X147312540Y-48305622D01*
X147312540Y-48305622D02*
X147503017Y-48210384D01*
X147503017Y-48210384D02*
X147598255Y-48019907D01*
X147598255Y-48019907D02*
X147598255Y-47924669D01*
X147598255Y-47924669D02*
X147503017Y-47734193D01*
X147503017Y-47734193D02*
X147312540Y-47638955D01*
X147312540Y-47638955D02*
X147026826Y-47638955D01*
X147026826Y-47638955D02*
X146836350Y-47543717D01*
X146836350Y-47543717D02*
X146741112Y-47353241D01*
X146741112Y-47353241D02*
X146741112Y-47258003D01*
X146741112Y-47258003D02*
X146836350Y-47067526D01*
X146836350Y-47067526D02*
X147026826Y-46972288D01*
X147026826Y-46972288D02*
X147312540Y-46972288D01*
X147312540Y-46972288D02*
X147503017Y-47067526D01*
X149312541Y-48305622D02*
X149312541Y-47258003D01*
X149312541Y-47258003D02*
X149217303Y-47067526D01*
X149217303Y-47067526D02*
X149026827Y-46972288D01*
X149026827Y-46972288D02*
X148645874Y-46972288D01*
X148645874Y-46972288D02*
X148455398Y-47067526D01*
X149312541Y-48210384D02*
X149122065Y-48305622D01*
X149122065Y-48305622D02*
X148645874Y-48305622D01*
X148645874Y-48305622D02*
X148455398Y-48210384D01*
X148455398Y-48210384D02*
X148360160Y-48019907D01*
X148360160Y-48019907D02*
X148360160Y-47829431D01*
X148360160Y-47829431D02*
X148455398Y-47638955D01*
X148455398Y-47638955D02*
X148645874Y-47543717D01*
X148645874Y-47543717D02*
X149122065Y-47543717D01*
X149122065Y-47543717D02*
X149312541Y-47448479D01*
X149979208Y-46972288D02*
X150741112Y-46972288D01*
X150264922Y-46305622D02*
X150264922Y-48019907D01*
X150264922Y-48019907D02*
X150360160Y-48210384D01*
X150360160Y-48210384D02*
X150550636Y-48305622D01*
X150550636Y-48305622D02*
X150741112Y-48305622D01*
X152169684Y-48210384D02*
X151979208Y-48305622D01*
X151979208Y-48305622D02*
X151598255Y-48305622D01*
X151598255Y-48305622D02*
X151407779Y-48210384D01*
X151407779Y-48210384D02*
X151312541Y-48019907D01*
X151312541Y-48019907D02*
X151312541Y-47258003D01*
X151312541Y-47258003D02*
X151407779Y-47067526D01*
X151407779Y-47067526D02*
X151598255Y-46972288D01*
X151598255Y-46972288D02*
X151979208Y-46972288D01*
X151979208Y-46972288D02*
X152169684Y-47067526D01*
X152169684Y-47067526D02*
X152264922Y-47258003D01*
X152264922Y-47258003D02*
X152264922Y-47448479D01*
X152264922Y-47448479D02*
X151312541Y-47638955D01*
X153979208Y-46972288D02*
X153979208Y-48305622D01*
X153122065Y-46972288D02*
X153122065Y-48019907D01*
X153122065Y-48019907D02*
X153217303Y-48210384D01*
X153217303Y-48210384D02*
X153407779Y-48305622D01*
X153407779Y-48305622D02*
X153693494Y-48305622D01*
X153693494Y-48305622D02*
X153883970Y-48210384D01*
X153883970Y-48210384D02*
X153979208Y-48115145D01*
X154931589Y-48305622D02*
X154931589Y-46972288D01*
X154931589Y-47353241D02*
X155026827Y-47162764D01*
X155026827Y-47162764D02*
X155122065Y-47067526D01*
X155122065Y-47067526D02*
X155312541Y-46972288D01*
X155312541Y-46972288D02*
X155503018Y-46972288D01*
X156169684Y-48115145D02*
X156264922Y-48210384D01*
X156264922Y-48210384D02*
X156169684Y-48305622D01*
X156169684Y-48305622D02*
X156074446Y-48210384D01*
X156074446Y-48210384D02*
X156169684Y-48115145D01*
X156169684Y-48115145D02*
X156169684Y-48305622D01*
X57407768Y-51525510D02*
X57407768Y-49525510D01*
X57407768Y-49525510D02*
X58169673Y-49525510D01*
X58169673Y-49525510D02*
X58360149Y-49620748D01*
X58360149Y-49620748D02*
X58455387Y-49715986D01*
X58455387Y-49715986D02*
X58550625Y-49906462D01*
X58550625Y-49906462D02*
X58550625Y-50192176D01*
X58550625Y-50192176D02*
X58455387Y-50382652D01*
X58455387Y-50382652D02*
X58360149Y-50477891D01*
X58360149Y-50477891D02*
X58169673Y-50573129D01*
X58169673Y-50573129D02*
X57407768Y-50573129D01*
X59693482Y-51525510D02*
X59503006Y-51430272D01*
X59503006Y-51430272D02*
X59407768Y-51335033D01*
X59407768Y-51335033D02*
X59312530Y-51144557D01*
X59312530Y-51144557D02*
X59312530Y-50573129D01*
X59312530Y-50573129D02*
X59407768Y-50382652D01*
X59407768Y-50382652D02*
X59503006Y-50287414D01*
X59503006Y-50287414D02*
X59693482Y-50192176D01*
X59693482Y-50192176D02*
X59979197Y-50192176D01*
X59979197Y-50192176D02*
X60169673Y-50287414D01*
X60169673Y-50287414D02*
X60264911Y-50382652D01*
X60264911Y-50382652D02*
X60360149Y-50573129D01*
X60360149Y-50573129D02*
X60360149Y-51144557D01*
X60360149Y-51144557D02*
X60264911Y-51335033D01*
X60264911Y-51335033D02*
X60169673Y-51430272D01*
X60169673Y-51430272D02*
X59979197Y-51525510D01*
X59979197Y-51525510D02*
X59693482Y-51525510D01*
X62074435Y-50192176D02*
X62074435Y-51525510D01*
X61217292Y-50192176D02*
X61217292Y-51239795D01*
X61217292Y-51239795D02*
X61312530Y-51430272D01*
X61312530Y-51430272D02*
X61503006Y-51525510D01*
X61503006Y-51525510D02*
X61788721Y-51525510D01*
X61788721Y-51525510D02*
X61979197Y-51430272D01*
X61979197Y-51430272D02*
X62074435Y-51335033D01*
X63026816Y-51525510D02*
X63026816Y-50192176D01*
X63026816Y-50573129D02*
X63122054Y-50382652D01*
X63122054Y-50382652D02*
X63217292Y-50287414D01*
X63217292Y-50287414D02*
X63407768Y-50192176D01*
X63407768Y-50192176D02*
X63598245Y-50192176D01*
X66645864Y-51525510D02*
X66645864Y-49525510D01*
X66645864Y-51430272D02*
X66455388Y-51525510D01*
X66455388Y-51525510D02*
X66074435Y-51525510D01*
X66074435Y-51525510D02*
X65883959Y-51430272D01*
X65883959Y-51430272D02*
X65788721Y-51335033D01*
X65788721Y-51335033D02*
X65693483Y-51144557D01*
X65693483Y-51144557D02*
X65693483Y-50573129D01*
X65693483Y-50573129D02*
X65788721Y-50382652D01*
X65788721Y-50382652D02*
X65883959Y-50287414D01*
X65883959Y-50287414D02*
X66074435Y-50192176D01*
X66074435Y-50192176D02*
X66455388Y-50192176D01*
X66455388Y-50192176D02*
X66645864Y-50287414D01*
X68360150Y-51430272D02*
X68169674Y-51525510D01*
X68169674Y-51525510D02*
X67788721Y-51525510D01*
X67788721Y-51525510D02*
X67598245Y-51430272D01*
X67598245Y-51430272D02*
X67503007Y-51239795D01*
X67503007Y-51239795D02*
X67503007Y-50477891D01*
X67503007Y-50477891D02*
X67598245Y-50287414D01*
X67598245Y-50287414D02*
X67788721Y-50192176D01*
X67788721Y-50192176D02*
X68169674Y-50192176D01*
X68169674Y-50192176D02*
X68360150Y-50287414D01*
X68360150Y-50287414D02*
X68455388Y-50477891D01*
X68455388Y-50477891D02*
X68455388Y-50668367D01*
X68455388Y-50668367D02*
X67503007Y-50858843D01*
X69217293Y-51430272D02*
X69407769Y-51525510D01*
X69407769Y-51525510D02*
X69788721Y-51525510D01*
X69788721Y-51525510D02*
X69979198Y-51430272D01*
X69979198Y-51430272D02*
X70074436Y-51239795D01*
X70074436Y-51239795D02*
X70074436Y-51144557D01*
X70074436Y-51144557D02*
X69979198Y-50954081D01*
X69979198Y-50954081D02*
X69788721Y-50858843D01*
X69788721Y-50858843D02*
X69503007Y-50858843D01*
X69503007Y-50858843D02*
X69312531Y-50763605D01*
X69312531Y-50763605D02*
X69217293Y-50573129D01*
X69217293Y-50573129D02*
X69217293Y-50477891D01*
X69217293Y-50477891D02*
X69312531Y-50287414D01*
X69312531Y-50287414D02*
X69503007Y-50192176D01*
X69503007Y-50192176D02*
X69788721Y-50192176D01*
X69788721Y-50192176D02*
X69979198Y-50287414D01*
X72455389Y-51525510D02*
X72455389Y-50192176D01*
X72455389Y-50573129D02*
X72550627Y-50382652D01*
X72550627Y-50382652D02*
X72645865Y-50287414D01*
X72645865Y-50287414D02*
X72836341Y-50192176D01*
X72836341Y-50192176D02*
X73026818Y-50192176D01*
X74550627Y-51525510D02*
X74550627Y-50477891D01*
X74550627Y-50477891D02*
X74455389Y-50287414D01*
X74455389Y-50287414D02*
X74264913Y-50192176D01*
X74264913Y-50192176D02*
X73883960Y-50192176D01*
X73883960Y-50192176D02*
X73693484Y-50287414D01*
X74550627Y-51430272D02*
X74360151Y-51525510D01*
X74360151Y-51525510D02*
X73883960Y-51525510D01*
X73883960Y-51525510D02*
X73693484Y-51430272D01*
X73693484Y-51430272D02*
X73598246Y-51239795D01*
X73598246Y-51239795D02*
X73598246Y-51049319D01*
X73598246Y-51049319D02*
X73693484Y-50858843D01*
X73693484Y-50858843D02*
X73883960Y-50763605D01*
X73883960Y-50763605D02*
X74360151Y-50763605D01*
X74360151Y-50763605D02*
X74550627Y-50668367D01*
X75503008Y-51525510D02*
X75503008Y-50192176D01*
X75503008Y-49525510D02*
X75407770Y-49620748D01*
X75407770Y-49620748D02*
X75503008Y-49715986D01*
X75503008Y-49715986D02*
X75598246Y-49620748D01*
X75598246Y-49620748D02*
X75503008Y-49525510D01*
X75503008Y-49525510D02*
X75503008Y-49715986D01*
X76360151Y-51430272D02*
X76550627Y-51525510D01*
X76550627Y-51525510D02*
X76931579Y-51525510D01*
X76931579Y-51525510D02*
X77122056Y-51430272D01*
X77122056Y-51430272D02*
X77217294Y-51239795D01*
X77217294Y-51239795D02*
X77217294Y-51144557D01*
X77217294Y-51144557D02*
X77122056Y-50954081D01*
X77122056Y-50954081D02*
X76931579Y-50858843D01*
X76931579Y-50858843D02*
X76645865Y-50858843D01*
X76645865Y-50858843D02*
X76455389Y-50763605D01*
X76455389Y-50763605D02*
X76360151Y-50573129D01*
X76360151Y-50573129D02*
X76360151Y-50477891D01*
X76360151Y-50477891D02*
X76455389Y-50287414D01*
X76455389Y-50287414D02*
X76645865Y-50192176D01*
X76645865Y-50192176D02*
X76931579Y-50192176D01*
X76931579Y-50192176D02*
X77122056Y-50287414D01*
X78360151Y-51525510D02*
X78169675Y-51430272D01*
X78169675Y-51430272D02*
X78074437Y-51335033D01*
X78074437Y-51335033D02*
X77979199Y-51144557D01*
X77979199Y-51144557D02*
X77979199Y-50573129D01*
X77979199Y-50573129D02*
X78074437Y-50382652D01*
X78074437Y-50382652D02*
X78169675Y-50287414D01*
X78169675Y-50287414D02*
X78360151Y-50192176D01*
X78360151Y-50192176D02*
X78645866Y-50192176D01*
X78645866Y-50192176D02*
X78836342Y-50287414D01*
X78836342Y-50287414D02*
X78931580Y-50382652D01*
X78931580Y-50382652D02*
X79026818Y-50573129D01*
X79026818Y-50573129D02*
X79026818Y-51144557D01*
X79026818Y-51144557D02*
X78931580Y-51335033D01*
X78931580Y-51335033D02*
X78836342Y-51430272D01*
X78836342Y-51430272D02*
X78645866Y-51525510D01*
X78645866Y-51525510D02*
X78360151Y-51525510D01*
X79883961Y-50192176D02*
X79883961Y-51525510D01*
X79883961Y-50382652D02*
X79979199Y-50287414D01*
X79979199Y-50287414D02*
X80169675Y-50192176D01*
X80169675Y-50192176D02*
X80455390Y-50192176D01*
X80455390Y-50192176D02*
X80645866Y-50287414D01*
X80645866Y-50287414D02*
X80741104Y-50477891D01*
X80741104Y-50477891D02*
X80741104Y-51525510D01*
X81598247Y-51430272D02*
X81788723Y-51525510D01*
X81788723Y-51525510D02*
X82169675Y-51525510D01*
X82169675Y-51525510D02*
X82360152Y-51430272D01*
X82360152Y-51430272D02*
X82455390Y-51239795D01*
X82455390Y-51239795D02*
X82455390Y-51144557D01*
X82455390Y-51144557D02*
X82360152Y-50954081D01*
X82360152Y-50954081D02*
X82169675Y-50858843D01*
X82169675Y-50858843D02*
X81883961Y-50858843D01*
X81883961Y-50858843D02*
X81693485Y-50763605D01*
X81693485Y-50763605D02*
X81598247Y-50573129D01*
X81598247Y-50573129D02*
X81598247Y-50477891D01*
X81598247Y-50477891D02*
X81693485Y-50287414D01*
X81693485Y-50287414D02*
X81883961Y-50192176D01*
X81883961Y-50192176D02*
X82169675Y-50192176D01*
X82169675Y-50192176D02*
X82360152Y-50287414D01*
X85598248Y-51430272D02*
X85407772Y-51525510D01*
X85407772Y-51525510D02*
X85026819Y-51525510D01*
X85026819Y-51525510D02*
X84836343Y-51430272D01*
X84836343Y-51430272D02*
X84741105Y-51239795D01*
X84741105Y-51239795D02*
X84741105Y-50477891D01*
X84741105Y-50477891D02*
X84836343Y-50287414D01*
X84836343Y-50287414D02*
X85026819Y-50192176D01*
X85026819Y-50192176D02*
X85407772Y-50192176D01*
X85407772Y-50192176D02*
X85598248Y-50287414D01*
X85598248Y-50287414D02*
X85693486Y-50477891D01*
X85693486Y-50477891D02*
X85693486Y-50668367D01*
X85693486Y-50668367D02*
X84741105Y-50858843D01*
X85407772Y-49430272D02*
X85122057Y-49715986D01*
X86360153Y-50192176D02*
X86836343Y-51525510D01*
X86836343Y-51525510D02*
X87312534Y-50192176D01*
X88074439Y-51525510D02*
X88074439Y-50192176D01*
X88074439Y-49525510D02*
X87979201Y-49620748D01*
X87979201Y-49620748D02*
X88074439Y-49715986D01*
X88074439Y-49715986D02*
X88169677Y-49620748D01*
X88169677Y-49620748D02*
X88074439Y-49525510D01*
X88074439Y-49525510D02*
X88074439Y-49715986D01*
X89883963Y-51525510D02*
X89883963Y-49525510D01*
X89883963Y-51430272D02*
X89693487Y-51525510D01*
X89693487Y-51525510D02*
X89312534Y-51525510D01*
X89312534Y-51525510D02*
X89122058Y-51430272D01*
X89122058Y-51430272D02*
X89026820Y-51335033D01*
X89026820Y-51335033D02*
X88931582Y-51144557D01*
X88931582Y-51144557D02*
X88931582Y-50573129D01*
X88931582Y-50573129D02*
X89026820Y-50382652D01*
X89026820Y-50382652D02*
X89122058Y-50287414D01*
X89122058Y-50287414D02*
X89312534Y-50192176D01*
X89312534Y-50192176D02*
X89693487Y-50192176D01*
X89693487Y-50192176D02*
X89883963Y-50287414D01*
X91598249Y-51430272D02*
X91407773Y-51525510D01*
X91407773Y-51525510D02*
X91026820Y-51525510D01*
X91026820Y-51525510D02*
X90836344Y-51430272D01*
X90836344Y-51430272D02*
X90741106Y-51239795D01*
X90741106Y-51239795D02*
X90741106Y-50477891D01*
X90741106Y-50477891D02*
X90836344Y-50287414D01*
X90836344Y-50287414D02*
X91026820Y-50192176D01*
X91026820Y-50192176D02*
X91407773Y-50192176D01*
X91407773Y-50192176D02*
X91598249Y-50287414D01*
X91598249Y-50287414D02*
X91693487Y-50477891D01*
X91693487Y-50477891D02*
X91693487Y-50668367D01*
X91693487Y-50668367D02*
X90741106Y-50858843D01*
X92550630Y-50192176D02*
X92550630Y-51525510D01*
X92550630Y-50382652D02*
X92645868Y-50287414D01*
X92645868Y-50287414D02*
X92836344Y-50192176D01*
X92836344Y-50192176D02*
X93122059Y-50192176D01*
X93122059Y-50192176D02*
X93312535Y-50287414D01*
X93312535Y-50287414D02*
X93407773Y-50477891D01*
X93407773Y-50477891D02*
X93407773Y-51525510D01*
X94074440Y-50192176D02*
X94836344Y-50192176D01*
X94360154Y-49525510D02*
X94360154Y-51239795D01*
X94360154Y-51239795D02*
X94455392Y-51430272D01*
X94455392Y-51430272D02*
X94645868Y-51525510D01*
X94645868Y-51525510D02*
X94836344Y-51525510D01*
X96264916Y-51430272D02*
X96074440Y-51525510D01*
X96074440Y-51525510D02*
X95693487Y-51525510D01*
X95693487Y-51525510D02*
X95503011Y-51430272D01*
X95503011Y-51430272D02*
X95407773Y-51239795D01*
X95407773Y-51239795D02*
X95407773Y-50477891D01*
X95407773Y-50477891D02*
X95503011Y-50287414D01*
X95503011Y-50287414D02*
X95693487Y-50192176D01*
X95693487Y-50192176D02*
X96074440Y-50192176D01*
X96074440Y-50192176D02*
X96264916Y-50287414D01*
X96264916Y-50287414D02*
X96360154Y-50477891D01*
X96360154Y-50477891D02*
X96360154Y-50668367D01*
X96360154Y-50668367D02*
X95407773Y-50858843D01*
X97122059Y-51430272D02*
X97312535Y-51525510D01*
X97312535Y-51525510D02*
X97693487Y-51525510D01*
X97693487Y-51525510D02*
X97883964Y-51430272D01*
X97883964Y-51430272D02*
X97979202Y-51239795D01*
X97979202Y-51239795D02*
X97979202Y-51144557D01*
X97979202Y-51144557D02*
X97883964Y-50954081D01*
X97883964Y-50954081D02*
X97693487Y-50858843D01*
X97693487Y-50858843D02*
X97407773Y-50858843D01*
X97407773Y-50858843D02*
X97217297Y-50763605D01*
X97217297Y-50763605D02*
X97122059Y-50573129D01*
X97122059Y-50573129D02*
X97122059Y-50477891D01*
X97122059Y-50477891D02*
X97217297Y-50287414D01*
X97217297Y-50287414D02*
X97407773Y-50192176D01*
X97407773Y-50192176D02*
X97693487Y-50192176D01*
X97693487Y-50192176D02*
X97883964Y-50287414D01*
X101217298Y-51525510D02*
X101217298Y-49525510D01*
X101217298Y-51430272D02*
X101026822Y-51525510D01*
X101026822Y-51525510D02*
X100645869Y-51525510D01*
X100645869Y-51525510D02*
X100455393Y-51430272D01*
X100455393Y-51430272D02*
X100360155Y-51335033D01*
X100360155Y-51335033D02*
X100264917Y-51144557D01*
X100264917Y-51144557D02*
X100264917Y-50573129D01*
X100264917Y-50573129D02*
X100360155Y-50382652D01*
X100360155Y-50382652D02*
X100455393Y-50287414D01*
X100455393Y-50287414D02*
X100645869Y-50192176D01*
X100645869Y-50192176D02*
X101026822Y-50192176D01*
X101026822Y-50192176D02*
X101217298Y-50287414D01*
X102264917Y-49525510D02*
X102074441Y-49906462D01*
X103979203Y-51525510D02*
X103979203Y-50477891D01*
X103979203Y-50477891D02*
X103883965Y-50287414D01*
X103883965Y-50287414D02*
X103693489Y-50192176D01*
X103693489Y-50192176D02*
X103312536Y-50192176D01*
X103312536Y-50192176D02*
X103122060Y-50287414D01*
X103979203Y-51430272D02*
X103788727Y-51525510D01*
X103788727Y-51525510D02*
X103312536Y-51525510D01*
X103312536Y-51525510D02*
X103122060Y-51430272D01*
X103122060Y-51430272D02*
X103026822Y-51239795D01*
X103026822Y-51239795D02*
X103026822Y-51049319D01*
X103026822Y-51049319D02*
X103122060Y-50858843D01*
X103122060Y-50858843D02*
X103312536Y-50763605D01*
X103312536Y-50763605D02*
X103788727Y-50763605D01*
X103788727Y-50763605D02*
X103979203Y-50668367D01*
X104931584Y-50192176D02*
X104931584Y-51525510D01*
X104931584Y-50382652D02*
X105026822Y-50287414D01*
X105026822Y-50287414D02*
X105217298Y-50192176D01*
X105217298Y-50192176D02*
X105503013Y-50192176D01*
X105503013Y-50192176D02*
X105693489Y-50287414D01*
X105693489Y-50287414D02*
X105788727Y-50477891D01*
X105788727Y-50477891D02*
X105788727Y-51525510D01*
X107026822Y-51525510D02*
X106836346Y-51430272D01*
X106836346Y-51430272D02*
X106741108Y-51335033D01*
X106741108Y-51335033D02*
X106645870Y-51144557D01*
X106645870Y-51144557D02*
X106645870Y-50573129D01*
X106645870Y-50573129D02*
X106741108Y-50382652D01*
X106741108Y-50382652D02*
X106836346Y-50287414D01*
X106836346Y-50287414D02*
X107026822Y-50192176D01*
X107026822Y-50192176D02*
X107312537Y-50192176D01*
X107312537Y-50192176D02*
X107503013Y-50287414D01*
X107503013Y-50287414D02*
X107598251Y-50382652D01*
X107598251Y-50382652D02*
X107693489Y-50573129D01*
X107693489Y-50573129D02*
X107693489Y-51144557D01*
X107693489Y-51144557D02*
X107598251Y-51335033D01*
X107598251Y-51335033D02*
X107503013Y-51430272D01*
X107503013Y-51430272D02*
X107312537Y-51525510D01*
X107312537Y-51525510D02*
X107026822Y-51525510D01*
X108550632Y-50192176D02*
X108550632Y-51525510D01*
X108550632Y-50382652D02*
X108645870Y-50287414D01*
X108645870Y-50287414D02*
X108836346Y-50192176D01*
X108836346Y-50192176D02*
X109122061Y-50192176D01*
X109122061Y-50192176D02*
X109312537Y-50287414D01*
X109312537Y-50287414D02*
X109407775Y-50477891D01*
X109407775Y-50477891D02*
X109407775Y-51525510D01*
X110169680Y-50192176D02*
X110645870Y-51525510D01*
X111122061Y-50192176D02*
X110645870Y-51525510D01*
X110645870Y-51525510D02*
X110455394Y-52001700D01*
X110455394Y-52001700D02*
X110360156Y-52096938D01*
X110360156Y-52096938D02*
X110169680Y-52192176D01*
X111883966Y-51525510D02*
X111883966Y-50192176D01*
X111883966Y-50382652D02*
X111979204Y-50287414D01*
X111979204Y-50287414D02*
X112169680Y-50192176D01*
X112169680Y-50192176D02*
X112455395Y-50192176D01*
X112455395Y-50192176D02*
X112645871Y-50287414D01*
X112645871Y-50287414D02*
X112741109Y-50477891D01*
X112741109Y-50477891D02*
X112741109Y-51525510D01*
X112741109Y-50477891D02*
X112836347Y-50287414D01*
X112836347Y-50287414D02*
X113026823Y-50192176D01*
X113026823Y-50192176D02*
X113312537Y-50192176D01*
X113312537Y-50192176D02*
X113503014Y-50287414D01*
X113503014Y-50287414D02*
X113598252Y-50477891D01*
X113598252Y-50477891D02*
X113598252Y-51525510D01*
X114550633Y-51525510D02*
X114550633Y-50192176D01*
X114550633Y-49525510D02*
X114455395Y-49620748D01*
X114455395Y-49620748D02*
X114550633Y-49715986D01*
X114550633Y-49715986D02*
X114645871Y-49620748D01*
X114645871Y-49620748D02*
X114550633Y-49525510D01*
X114550633Y-49525510D02*
X114550633Y-49715986D01*
X115407776Y-51430272D02*
X115598252Y-51525510D01*
X115598252Y-51525510D02*
X115979204Y-51525510D01*
X115979204Y-51525510D02*
X116169681Y-51430272D01*
X116169681Y-51430272D02*
X116264919Y-51239795D01*
X116264919Y-51239795D02*
X116264919Y-51144557D01*
X116264919Y-51144557D02*
X116169681Y-50954081D01*
X116169681Y-50954081D02*
X115979204Y-50858843D01*
X115979204Y-50858843D02*
X115693490Y-50858843D01*
X115693490Y-50858843D02*
X115503014Y-50763605D01*
X115503014Y-50763605D02*
X115407776Y-50573129D01*
X115407776Y-50573129D02*
X115407776Y-50477891D01*
X115407776Y-50477891D02*
X115503014Y-50287414D01*
X115503014Y-50287414D02*
X115693490Y-50192176D01*
X115693490Y-50192176D02*
X115979204Y-50192176D01*
X115979204Y-50192176D02*
X116169681Y-50287414D01*
X117979205Y-51525510D02*
X117979205Y-50477891D01*
X117979205Y-50477891D02*
X117883967Y-50287414D01*
X117883967Y-50287414D02*
X117693491Y-50192176D01*
X117693491Y-50192176D02*
X117312538Y-50192176D01*
X117312538Y-50192176D02*
X117122062Y-50287414D01*
X117979205Y-51430272D02*
X117788729Y-51525510D01*
X117788729Y-51525510D02*
X117312538Y-51525510D01*
X117312538Y-51525510D02*
X117122062Y-51430272D01*
X117122062Y-51430272D02*
X117026824Y-51239795D01*
X117026824Y-51239795D02*
X117026824Y-51049319D01*
X117026824Y-51049319D02*
X117122062Y-50858843D01*
X117122062Y-50858843D02*
X117312538Y-50763605D01*
X117312538Y-50763605D02*
X117788729Y-50763605D01*
X117788729Y-50763605D02*
X117979205Y-50668367D01*
X118645872Y-50192176D02*
X119407776Y-50192176D01*
X118931586Y-49525510D02*
X118931586Y-51239795D01*
X118931586Y-51239795D02*
X119026824Y-51430272D01*
X119026824Y-51430272D02*
X119217300Y-51525510D01*
X119217300Y-51525510D02*
X119407776Y-51525510D01*
X120074443Y-51525510D02*
X120074443Y-50192176D01*
X120074443Y-49525510D02*
X119979205Y-49620748D01*
X119979205Y-49620748D02*
X120074443Y-49715986D01*
X120074443Y-49715986D02*
X120169681Y-49620748D01*
X120169681Y-49620748D02*
X120074443Y-49525510D01*
X120074443Y-49525510D02*
X120074443Y-49715986D01*
X121312538Y-51525510D02*
X121122062Y-51430272D01*
X121122062Y-51430272D02*
X121026824Y-51335033D01*
X121026824Y-51335033D02*
X120931586Y-51144557D01*
X120931586Y-51144557D02*
X120931586Y-50573129D01*
X120931586Y-50573129D02*
X121026824Y-50382652D01*
X121026824Y-50382652D02*
X121122062Y-50287414D01*
X121122062Y-50287414D02*
X121312538Y-50192176D01*
X121312538Y-50192176D02*
X121598253Y-50192176D01*
X121598253Y-50192176D02*
X121788729Y-50287414D01*
X121788729Y-50287414D02*
X121883967Y-50382652D01*
X121883967Y-50382652D02*
X121979205Y-50573129D01*
X121979205Y-50573129D02*
X121979205Y-51144557D01*
X121979205Y-51144557D02*
X121883967Y-51335033D01*
X121883967Y-51335033D02*
X121788729Y-51430272D01*
X121788729Y-51430272D02*
X121598253Y-51525510D01*
X121598253Y-51525510D02*
X121312538Y-51525510D01*
X122836348Y-50192176D02*
X122836348Y-51525510D01*
X122836348Y-50382652D02*
X122931586Y-50287414D01*
X122931586Y-50287414D02*
X123122062Y-50192176D01*
X123122062Y-50192176D02*
X123407777Y-50192176D01*
X123407777Y-50192176D02*
X123598253Y-50287414D01*
X123598253Y-50287414D02*
X123693491Y-50477891D01*
X123693491Y-50477891D02*
X123693491Y-51525510D01*
X124741110Y-51430272D02*
X124741110Y-51525510D01*
X124741110Y-51525510D02*
X124645872Y-51715986D01*
X124645872Y-51715986D02*
X124550634Y-51811224D01*
X127407777Y-51525510D02*
X127217301Y-51430272D01*
X127217301Y-51430272D02*
X127122063Y-51239795D01*
X127122063Y-51239795D02*
X127122063Y-49525510D01*
X129026825Y-51525510D02*
X129026825Y-50477891D01*
X129026825Y-50477891D02*
X128931587Y-50287414D01*
X128931587Y-50287414D02*
X128741111Y-50192176D01*
X128741111Y-50192176D02*
X128360158Y-50192176D01*
X128360158Y-50192176D02*
X128169682Y-50287414D01*
X129026825Y-51430272D02*
X128836349Y-51525510D01*
X128836349Y-51525510D02*
X128360158Y-51525510D01*
X128360158Y-51525510D02*
X128169682Y-51430272D01*
X128169682Y-51430272D02*
X128074444Y-51239795D01*
X128074444Y-51239795D02*
X128074444Y-51049319D01*
X128074444Y-51049319D02*
X128169682Y-50858843D01*
X128169682Y-50858843D02*
X128360158Y-50763605D01*
X128360158Y-50763605D02*
X128836349Y-50763605D01*
X128836349Y-50763605D02*
X129026825Y-50668367D01*
X131503016Y-51525510D02*
X131503016Y-50192176D01*
X131503016Y-50573129D02*
X131598254Y-50382652D01*
X131598254Y-50382652D02*
X131693492Y-50287414D01*
X131693492Y-50287414D02*
X131883968Y-50192176D01*
X131883968Y-50192176D02*
X132074445Y-50192176D01*
X133503016Y-51430272D02*
X133312540Y-51525510D01*
X133312540Y-51525510D02*
X132931587Y-51525510D01*
X132931587Y-51525510D02*
X132741111Y-51430272D01*
X132741111Y-51430272D02*
X132645873Y-51239795D01*
X132645873Y-51239795D02*
X132645873Y-50477891D01*
X132645873Y-50477891D02*
X132741111Y-50287414D01*
X132741111Y-50287414D02*
X132931587Y-50192176D01*
X132931587Y-50192176D02*
X133312540Y-50192176D01*
X133312540Y-50192176D02*
X133503016Y-50287414D01*
X133503016Y-50287414D02*
X133598254Y-50477891D01*
X133598254Y-50477891D02*
X133598254Y-50668367D01*
X133598254Y-50668367D02*
X132645873Y-50858843D01*
X134741111Y-51525510D02*
X134550635Y-51430272D01*
X134550635Y-51430272D02*
X134455397Y-51239795D01*
X134455397Y-51239795D02*
X134455397Y-49525510D01*
X136360159Y-51525510D02*
X136360159Y-50477891D01*
X136360159Y-50477891D02*
X136264921Y-50287414D01*
X136264921Y-50287414D02*
X136074445Y-50192176D01*
X136074445Y-50192176D02*
X135693492Y-50192176D01*
X135693492Y-50192176D02*
X135503016Y-50287414D01*
X136360159Y-51430272D02*
X136169683Y-51525510D01*
X136169683Y-51525510D02*
X135693492Y-51525510D01*
X135693492Y-51525510D02*
X135503016Y-51430272D01*
X135503016Y-51430272D02*
X135407778Y-51239795D01*
X135407778Y-51239795D02*
X135407778Y-51049319D01*
X135407778Y-51049319D02*
X135503016Y-50858843D01*
X135503016Y-50858843D02*
X135693492Y-50763605D01*
X135693492Y-50763605D02*
X136169683Y-50763605D01*
X136169683Y-50763605D02*
X136360159Y-50668367D01*
X137026826Y-50192176D02*
X137788730Y-50192176D01*
X137312540Y-49525510D02*
X137312540Y-51239795D01*
X137312540Y-51239795D02*
X137407778Y-51430272D01*
X137407778Y-51430272D02*
X137598254Y-51525510D01*
X137598254Y-51525510D02*
X137788730Y-51525510D01*
X138455397Y-51525510D02*
X138455397Y-50192176D01*
X138455397Y-49525510D02*
X138360159Y-49620748D01*
X138360159Y-49620748D02*
X138455397Y-49715986D01*
X138455397Y-49715986D02*
X138550635Y-49620748D01*
X138550635Y-49620748D02*
X138455397Y-49525510D01*
X138455397Y-49525510D02*
X138455397Y-49715986D01*
X139693492Y-51525510D02*
X139503016Y-51430272D01*
X139503016Y-51430272D02*
X139407778Y-51335033D01*
X139407778Y-51335033D02*
X139312540Y-51144557D01*
X139312540Y-51144557D02*
X139312540Y-50573129D01*
X139312540Y-50573129D02*
X139407778Y-50382652D01*
X139407778Y-50382652D02*
X139503016Y-50287414D01*
X139503016Y-50287414D02*
X139693492Y-50192176D01*
X139693492Y-50192176D02*
X139979207Y-50192176D01*
X139979207Y-50192176D02*
X140169683Y-50287414D01*
X140169683Y-50287414D02*
X140264921Y-50382652D01*
X140264921Y-50382652D02*
X140360159Y-50573129D01*
X140360159Y-50573129D02*
X140360159Y-51144557D01*
X140360159Y-51144557D02*
X140264921Y-51335033D01*
X140264921Y-51335033D02*
X140169683Y-51430272D01*
X140169683Y-51430272D02*
X139979207Y-51525510D01*
X139979207Y-51525510D02*
X139693492Y-51525510D01*
X141217302Y-50192176D02*
X141217302Y-51525510D01*
X141217302Y-50382652D02*
X141312540Y-50287414D01*
X141312540Y-50287414D02*
X141503016Y-50192176D01*
X141503016Y-50192176D02*
X141788731Y-50192176D01*
X141788731Y-50192176D02*
X141979207Y-50287414D01*
X141979207Y-50287414D02*
X142074445Y-50477891D01*
X142074445Y-50477891D02*
X142074445Y-51525510D01*
X145312541Y-51430272D02*
X145122065Y-51525510D01*
X145122065Y-51525510D02*
X144741112Y-51525510D01*
X144741112Y-51525510D02*
X144550636Y-51430272D01*
X144550636Y-51430272D02*
X144455398Y-51239795D01*
X144455398Y-51239795D02*
X144455398Y-50477891D01*
X144455398Y-50477891D02*
X144550636Y-50287414D01*
X144550636Y-50287414D02*
X144741112Y-50192176D01*
X144741112Y-50192176D02*
X145122065Y-50192176D01*
X145122065Y-50192176D02*
X145312541Y-50287414D01*
X145312541Y-50287414D02*
X145407779Y-50477891D01*
X145407779Y-50477891D02*
X145407779Y-50668367D01*
X145407779Y-50668367D02*
X144455398Y-50858843D01*
X146264922Y-50192176D02*
X146264922Y-51525510D01*
X146264922Y-50382652D02*
X146360160Y-50287414D01*
X146360160Y-50287414D02*
X146550636Y-50192176D01*
X146550636Y-50192176D02*
X146836351Y-50192176D01*
X146836351Y-50192176D02*
X147026827Y-50287414D01*
X147026827Y-50287414D02*
X147122065Y-50477891D01*
X147122065Y-50477891D02*
X147122065Y-51525510D01*
X147788732Y-50192176D02*
X148550636Y-50192176D01*
X148074446Y-49525510D02*
X148074446Y-51239795D01*
X148074446Y-51239795D02*
X148169684Y-51430272D01*
X148169684Y-51430272D02*
X148360160Y-51525510D01*
X148360160Y-51525510D02*
X148550636Y-51525510D01*
X149217303Y-51525510D02*
X149217303Y-50192176D01*
X149217303Y-50573129D02*
X149312541Y-50382652D01*
X149312541Y-50382652D02*
X149407779Y-50287414D01*
X149407779Y-50287414D02*
X149598255Y-50192176D01*
X149598255Y-50192176D02*
X149788732Y-50192176D01*
X151217303Y-51430272D02*
X151026827Y-51525510D01*
X151026827Y-51525510D02*
X150645874Y-51525510D01*
X150645874Y-51525510D02*
X150455398Y-51430272D01*
X150455398Y-51430272D02*
X150360160Y-51239795D01*
X150360160Y-51239795D02*
X150360160Y-50477891D01*
X150360160Y-50477891D02*
X150455398Y-50287414D01*
X150455398Y-50287414D02*
X150645874Y-50192176D01*
X150645874Y-50192176D02*
X151026827Y-50192176D01*
X151026827Y-50192176D02*
X151217303Y-50287414D01*
X151217303Y-50287414D02*
X151312541Y-50477891D01*
X151312541Y-50477891D02*
X151312541Y-50668367D01*
X151312541Y-50668367D02*
X150360160Y-50858843D01*
X57693482Y-54745398D02*
X57503006Y-54650160D01*
X57503006Y-54650160D02*
X57407768Y-54459683D01*
X57407768Y-54459683D02*
X57407768Y-52745398D01*
X59217292Y-54650160D02*
X59026816Y-54745398D01*
X59026816Y-54745398D02*
X58645863Y-54745398D01*
X58645863Y-54745398D02*
X58455387Y-54650160D01*
X58455387Y-54650160D02*
X58360149Y-54459683D01*
X58360149Y-54459683D02*
X58360149Y-53697779D01*
X58360149Y-53697779D02*
X58455387Y-53507302D01*
X58455387Y-53507302D02*
X58645863Y-53412064D01*
X58645863Y-53412064D02*
X59026816Y-53412064D01*
X59026816Y-53412064D02*
X59217292Y-53507302D01*
X59217292Y-53507302D02*
X59312530Y-53697779D01*
X59312530Y-53697779D02*
X59312530Y-53888255D01*
X59312530Y-53888255D02*
X58360149Y-54078731D01*
X61693483Y-53412064D02*
X61693483Y-54745398D01*
X61693483Y-53602540D02*
X61788721Y-53507302D01*
X61788721Y-53507302D02*
X61979197Y-53412064D01*
X61979197Y-53412064D02*
X62264912Y-53412064D01*
X62264912Y-53412064D02*
X62455388Y-53507302D01*
X62455388Y-53507302D02*
X62550626Y-53697779D01*
X62550626Y-53697779D02*
X62550626Y-54745398D01*
X64360150Y-53412064D02*
X64360150Y-54745398D01*
X63503007Y-53412064D02*
X63503007Y-54459683D01*
X63503007Y-54459683D02*
X63598245Y-54650160D01*
X63598245Y-54650160D02*
X63788721Y-54745398D01*
X63788721Y-54745398D02*
X64074436Y-54745398D01*
X64074436Y-54745398D02*
X64264912Y-54650160D01*
X64264912Y-54650160D02*
X64360150Y-54554921D01*
X65312531Y-54745398D02*
X65312531Y-53412064D01*
X65312531Y-53602540D02*
X65407769Y-53507302D01*
X65407769Y-53507302D02*
X65598245Y-53412064D01*
X65598245Y-53412064D02*
X65883960Y-53412064D01*
X65883960Y-53412064D02*
X66074436Y-53507302D01*
X66074436Y-53507302D02*
X66169674Y-53697779D01*
X66169674Y-53697779D02*
X66169674Y-54745398D01*
X66169674Y-53697779D02*
X66264912Y-53507302D01*
X66264912Y-53507302D02*
X66455388Y-53412064D01*
X66455388Y-53412064D02*
X66741102Y-53412064D01*
X66741102Y-53412064D02*
X66931579Y-53507302D01*
X66931579Y-53507302D02*
X67026817Y-53697779D01*
X67026817Y-53697779D02*
X67026817Y-54745398D01*
X68741103Y-54650160D02*
X68550627Y-54745398D01*
X68550627Y-54745398D02*
X68169674Y-54745398D01*
X68169674Y-54745398D02*
X67979198Y-54650160D01*
X67979198Y-54650160D02*
X67883960Y-54459683D01*
X67883960Y-54459683D02*
X67883960Y-53697779D01*
X67883960Y-53697779D02*
X67979198Y-53507302D01*
X67979198Y-53507302D02*
X68169674Y-53412064D01*
X68169674Y-53412064D02*
X68550627Y-53412064D01*
X68550627Y-53412064D02*
X68741103Y-53507302D01*
X68741103Y-53507302D02*
X68836341Y-53697779D01*
X68836341Y-53697779D02*
X68836341Y-53888255D01*
X68836341Y-53888255D02*
X67883960Y-54078731D01*
X68550627Y-52650160D02*
X68264912Y-52935874D01*
X69693484Y-54745398D02*
X69693484Y-53412064D01*
X69693484Y-53793017D02*
X69788722Y-53602540D01*
X69788722Y-53602540D02*
X69883960Y-53507302D01*
X69883960Y-53507302D02*
X70074436Y-53412064D01*
X70074436Y-53412064D02*
X70264913Y-53412064D01*
X71217293Y-54745398D02*
X71026817Y-54650160D01*
X71026817Y-54650160D02*
X70931579Y-54554921D01*
X70931579Y-54554921D02*
X70836341Y-54364445D01*
X70836341Y-54364445D02*
X70836341Y-53793017D01*
X70836341Y-53793017D02*
X70931579Y-53602540D01*
X70931579Y-53602540D02*
X71026817Y-53507302D01*
X71026817Y-53507302D02*
X71217293Y-53412064D01*
X71217293Y-53412064D02*
X71503008Y-53412064D01*
X71503008Y-53412064D02*
X71693484Y-53507302D01*
X71693484Y-53507302D02*
X71788722Y-53602540D01*
X71788722Y-53602540D02*
X71883960Y-53793017D01*
X71883960Y-53793017D02*
X71883960Y-54364445D01*
X71883960Y-54364445D02*
X71788722Y-54554921D01*
X71788722Y-54554921D02*
X71693484Y-54650160D01*
X71693484Y-54650160D02*
X71503008Y-54745398D01*
X71503008Y-54745398D02*
X71217293Y-54745398D01*
X75122056Y-54745398D02*
X75122056Y-52745398D01*
X75122056Y-54650160D02*
X74931580Y-54745398D01*
X74931580Y-54745398D02*
X74550627Y-54745398D01*
X74550627Y-54745398D02*
X74360151Y-54650160D01*
X74360151Y-54650160D02*
X74264913Y-54554921D01*
X74264913Y-54554921D02*
X74169675Y-54364445D01*
X74169675Y-54364445D02*
X74169675Y-53793017D01*
X74169675Y-53793017D02*
X74264913Y-53602540D01*
X74264913Y-53602540D02*
X74360151Y-53507302D01*
X74360151Y-53507302D02*
X74550627Y-53412064D01*
X74550627Y-53412064D02*
X74931580Y-53412064D01*
X74931580Y-53412064D02*
X75122056Y-53507302D01*
X76836342Y-54650160D02*
X76645866Y-54745398D01*
X76645866Y-54745398D02*
X76264913Y-54745398D01*
X76264913Y-54745398D02*
X76074437Y-54650160D01*
X76074437Y-54650160D02*
X75979199Y-54459683D01*
X75979199Y-54459683D02*
X75979199Y-53697779D01*
X75979199Y-53697779D02*
X76074437Y-53507302D01*
X76074437Y-53507302D02*
X76264913Y-53412064D01*
X76264913Y-53412064D02*
X76645866Y-53412064D01*
X76645866Y-53412064D02*
X76836342Y-53507302D01*
X76836342Y-53507302D02*
X76931580Y-53697779D01*
X76931580Y-53697779D02*
X76931580Y-53888255D01*
X76931580Y-53888255D02*
X75979199Y-54078731D01*
X80169676Y-54650160D02*
X79979200Y-54745398D01*
X79979200Y-54745398D02*
X79598247Y-54745398D01*
X79598247Y-54745398D02*
X79407771Y-54650160D01*
X79407771Y-54650160D02*
X79312533Y-54554921D01*
X79312533Y-54554921D02*
X79217295Y-54364445D01*
X79217295Y-54364445D02*
X79217295Y-53793017D01*
X79217295Y-53793017D02*
X79312533Y-53602540D01*
X79312533Y-53602540D02*
X79407771Y-53507302D01*
X79407771Y-53507302D02*
X79598247Y-53412064D01*
X79598247Y-53412064D02*
X79979200Y-53412064D01*
X79979200Y-53412064D02*
X80169676Y-53507302D01*
X81883962Y-54745398D02*
X81883962Y-53697779D01*
X81883962Y-53697779D02*
X81788724Y-53507302D01*
X81788724Y-53507302D02*
X81598248Y-53412064D01*
X81598248Y-53412064D02*
X81217295Y-53412064D01*
X81217295Y-53412064D02*
X81026819Y-53507302D01*
X81883962Y-54650160D02*
X81693486Y-54745398D01*
X81693486Y-54745398D02*
X81217295Y-54745398D01*
X81217295Y-54745398D02*
X81026819Y-54650160D01*
X81026819Y-54650160D02*
X80931581Y-54459683D01*
X80931581Y-54459683D02*
X80931581Y-54269207D01*
X80931581Y-54269207D02*
X81026819Y-54078731D01*
X81026819Y-54078731D02*
X81217295Y-53983493D01*
X81217295Y-53983493D02*
X81693486Y-53983493D01*
X81693486Y-53983493D02*
X81883962Y-53888255D01*
X82836343Y-54745398D02*
X82836343Y-53412064D01*
X82836343Y-53793017D02*
X82931581Y-53602540D01*
X82931581Y-53602540D02*
X83026819Y-53507302D01*
X83026819Y-53507302D02*
X83217295Y-53412064D01*
X83217295Y-53412064D02*
X83407772Y-53412064D01*
X83788724Y-53412064D02*
X84550628Y-53412064D01*
X84074438Y-52745398D02*
X84074438Y-54459683D01*
X84074438Y-54459683D02*
X84169676Y-54650160D01*
X84169676Y-54650160D02*
X84360152Y-54745398D01*
X84360152Y-54745398D02*
X84550628Y-54745398D01*
X85503009Y-54745398D02*
X85312533Y-54650160D01*
X85312533Y-54650160D02*
X85217295Y-54554921D01*
X85217295Y-54554921D02*
X85122057Y-54364445D01*
X85122057Y-54364445D02*
X85122057Y-53793017D01*
X85122057Y-53793017D02*
X85217295Y-53602540D01*
X85217295Y-53602540D02*
X85312533Y-53507302D01*
X85312533Y-53507302D02*
X85503009Y-53412064D01*
X85503009Y-53412064D02*
X85788724Y-53412064D01*
X85788724Y-53412064D02*
X85979200Y-53507302D01*
X85979200Y-53507302D02*
X86074438Y-53602540D01*
X86074438Y-53602540D02*
X86169676Y-53793017D01*
X86169676Y-53793017D02*
X86169676Y-54364445D01*
X86169676Y-54364445D02*
X86074438Y-54554921D01*
X86074438Y-54554921D02*
X85979200Y-54650160D01*
X85979200Y-54650160D02*
X85788724Y-54745398D01*
X85788724Y-54745398D02*
X85503009Y-54745398D01*
X87883962Y-53412064D02*
X87883962Y-54745398D01*
X87026819Y-53412064D02*
X87026819Y-54459683D01*
X87026819Y-54459683D02*
X87122057Y-54650160D01*
X87122057Y-54650160D02*
X87312533Y-54745398D01*
X87312533Y-54745398D02*
X87598248Y-54745398D01*
X87598248Y-54745398D02*
X87788724Y-54650160D01*
X87788724Y-54650160D02*
X87883962Y-54554921D01*
X89693486Y-54650160D02*
X89503010Y-54745398D01*
X89503010Y-54745398D02*
X89122057Y-54745398D01*
X89122057Y-54745398D02*
X88931581Y-54650160D01*
X88931581Y-54650160D02*
X88836343Y-54554921D01*
X88836343Y-54554921D02*
X88741105Y-54364445D01*
X88741105Y-54364445D02*
X88741105Y-53793017D01*
X88741105Y-53793017D02*
X88836343Y-53602540D01*
X88836343Y-53602540D02*
X88931581Y-53507302D01*
X88931581Y-53507302D02*
X89122057Y-53412064D01*
X89122057Y-53412064D02*
X89503010Y-53412064D01*
X89503010Y-53412064D02*
X89693486Y-53507302D01*
X90550629Y-54745398D02*
X90550629Y-52745398D01*
X91407772Y-54745398D02*
X91407772Y-53697779D01*
X91407772Y-53697779D02*
X91312534Y-53507302D01*
X91312534Y-53507302D02*
X91122058Y-53412064D01*
X91122058Y-53412064D02*
X90836343Y-53412064D01*
X90836343Y-53412064D02*
X90645867Y-53507302D01*
X90645867Y-53507302D02*
X90550629Y-53602540D01*
X93122058Y-54650160D02*
X92931582Y-54745398D01*
X92931582Y-54745398D02*
X92550629Y-54745398D01*
X92550629Y-54745398D02*
X92360153Y-54650160D01*
X92360153Y-54650160D02*
X92264915Y-54459683D01*
X92264915Y-54459683D02*
X92264915Y-53697779D01*
X92264915Y-53697779D02*
X92360153Y-53507302D01*
X92360153Y-53507302D02*
X92550629Y-53412064D01*
X92550629Y-53412064D02*
X92931582Y-53412064D01*
X92931582Y-53412064D02*
X93122058Y-53507302D01*
X93122058Y-53507302D02*
X93217296Y-53697779D01*
X93217296Y-53697779D02*
X93217296Y-53888255D01*
X93217296Y-53888255D02*
X92264915Y-54078731D01*
X96169678Y-55507302D02*
X96074439Y-55412064D01*
X96074439Y-55412064D02*
X95883963Y-55126350D01*
X95883963Y-55126350D02*
X95788725Y-54935874D01*
X95788725Y-54935874D02*
X95693487Y-54650160D01*
X95693487Y-54650160D02*
X95598249Y-54173969D01*
X95598249Y-54173969D02*
X95598249Y-53793017D01*
X95598249Y-53793017D02*
X95693487Y-53316826D01*
X95693487Y-53316826D02*
X95788725Y-53031112D01*
X95788725Y-53031112D02*
X95883963Y-52840636D01*
X95883963Y-52840636D02*
X96074439Y-52554921D01*
X96074439Y-52554921D02*
X96169678Y-52459683D01*
X97788725Y-54745398D02*
X97788725Y-53697779D01*
X97788725Y-53697779D02*
X97693487Y-53507302D01*
X97693487Y-53507302D02*
X97503011Y-53412064D01*
X97503011Y-53412064D02*
X97122058Y-53412064D01*
X97122058Y-53412064D02*
X96931582Y-53507302D01*
X97788725Y-54650160D02*
X97598249Y-54745398D01*
X97598249Y-54745398D02*
X97122058Y-54745398D01*
X97122058Y-54745398D02*
X96931582Y-54650160D01*
X96931582Y-54650160D02*
X96836344Y-54459683D01*
X96836344Y-54459683D02*
X96836344Y-54269207D01*
X96836344Y-54269207D02*
X96931582Y-54078731D01*
X96931582Y-54078731D02*
X97122058Y-53983493D01*
X97122058Y-53983493D02*
X97598249Y-53983493D01*
X97598249Y-53983493D02*
X97788725Y-53888255D01*
X98455392Y-53412064D02*
X99217296Y-53412064D01*
X98741106Y-54745398D02*
X98741106Y-53031112D01*
X98741106Y-53031112D02*
X98836344Y-52840636D01*
X98836344Y-52840636D02*
X99026820Y-52745398D01*
X99026820Y-52745398D02*
X99217296Y-52745398D01*
X99598249Y-53412064D02*
X100360153Y-53412064D01*
X99883963Y-54745398D02*
X99883963Y-53031112D01*
X99883963Y-53031112D02*
X99979201Y-52840636D01*
X99979201Y-52840636D02*
X100169677Y-52745398D01*
X100169677Y-52745398D02*
X100360153Y-52745398D01*
X101026820Y-54745398D02*
X101026820Y-53412064D01*
X101026820Y-52745398D02*
X100931582Y-52840636D01*
X100931582Y-52840636D02*
X101026820Y-52935874D01*
X101026820Y-52935874D02*
X101122058Y-52840636D01*
X101122058Y-52840636D02*
X101026820Y-52745398D01*
X101026820Y-52745398D02*
X101026820Y-52935874D01*
X102836344Y-54650160D02*
X102645868Y-54745398D01*
X102645868Y-54745398D02*
X102264915Y-54745398D01*
X102264915Y-54745398D02*
X102074439Y-54650160D01*
X102074439Y-54650160D02*
X101979201Y-54554921D01*
X101979201Y-54554921D02*
X101883963Y-54364445D01*
X101883963Y-54364445D02*
X101883963Y-53793017D01*
X101883963Y-53793017D02*
X101979201Y-53602540D01*
X101979201Y-53602540D02*
X102074439Y-53507302D01*
X102074439Y-53507302D02*
X102264915Y-53412064D01*
X102264915Y-53412064D02*
X102645868Y-53412064D01*
X102645868Y-53412064D02*
X102836344Y-53507302D01*
X103693487Y-54745398D02*
X103693487Y-52745398D01*
X104550630Y-54745398D02*
X104550630Y-53697779D01*
X104550630Y-53697779D02*
X104455392Y-53507302D01*
X104455392Y-53507302D02*
X104264916Y-53412064D01*
X104264916Y-53412064D02*
X103979201Y-53412064D01*
X103979201Y-53412064D02*
X103788725Y-53507302D01*
X103788725Y-53507302D02*
X103693487Y-53602540D01*
X106264916Y-54650160D02*
X106074440Y-54745398D01*
X106074440Y-54745398D02*
X105693487Y-54745398D01*
X105693487Y-54745398D02*
X105503011Y-54650160D01*
X105503011Y-54650160D02*
X105407773Y-54459683D01*
X105407773Y-54459683D02*
X105407773Y-53697779D01*
X105407773Y-53697779D02*
X105503011Y-53507302D01*
X105503011Y-53507302D02*
X105693487Y-53412064D01*
X105693487Y-53412064D02*
X106074440Y-53412064D01*
X106074440Y-53412064D02*
X106264916Y-53507302D01*
X106264916Y-53507302D02*
X106360154Y-53697779D01*
X106360154Y-53697779D02*
X106360154Y-53888255D01*
X106360154Y-53888255D02*
X105407773Y-54078731D01*
X106074440Y-52650160D02*
X105788725Y-52935874D01*
X108645869Y-54650160D02*
X108836345Y-54745398D01*
X108836345Y-54745398D02*
X109217297Y-54745398D01*
X109217297Y-54745398D02*
X109407774Y-54650160D01*
X109407774Y-54650160D02*
X109503012Y-54459683D01*
X109503012Y-54459683D02*
X109503012Y-54364445D01*
X109503012Y-54364445D02*
X109407774Y-54173969D01*
X109407774Y-54173969D02*
X109217297Y-54078731D01*
X109217297Y-54078731D02*
X108931583Y-54078731D01*
X108931583Y-54078731D02*
X108741107Y-53983493D01*
X108741107Y-53983493D02*
X108645869Y-53793017D01*
X108645869Y-53793017D02*
X108645869Y-53697779D01*
X108645869Y-53697779D02*
X108741107Y-53507302D01*
X108741107Y-53507302D02*
X108931583Y-53412064D01*
X108931583Y-53412064D02*
X109217297Y-53412064D01*
X109217297Y-53412064D02*
X109407774Y-53507302D01*
X111217298Y-53412064D02*
X111217298Y-54745398D01*
X110360155Y-53412064D02*
X110360155Y-54459683D01*
X110360155Y-54459683D02*
X110455393Y-54650160D01*
X110455393Y-54650160D02*
X110645869Y-54745398D01*
X110645869Y-54745398D02*
X110931584Y-54745398D01*
X110931584Y-54745398D02*
X111122060Y-54650160D01*
X111122060Y-54650160D02*
X111217298Y-54554921D01*
X112169679Y-54745398D02*
X112169679Y-53412064D01*
X112169679Y-53793017D02*
X112264917Y-53602540D01*
X112264917Y-53602540D02*
X112360155Y-53507302D01*
X112360155Y-53507302D02*
X112550631Y-53412064D01*
X112550631Y-53412064D02*
X112741108Y-53412064D01*
X115217298Y-54745398D02*
X115026822Y-54650160D01*
X115026822Y-54650160D02*
X114931584Y-54459683D01*
X114931584Y-54459683D02*
X114931584Y-52745398D01*
X116836346Y-54745398D02*
X116836346Y-53697779D01*
X116836346Y-53697779D02*
X116741108Y-53507302D01*
X116741108Y-53507302D02*
X116550632Y-53412064D01*
X116550632Y-53412064D02*
X116169679Y-53412064D01*
X116169679Y-53412064D02*
X115979203Y-53507302D01*
X116836346Y-54650160D02*
X116645870Y-54745398D01*
X116645870Y-54745398D02*
X116169679Y-54745398D01*
X116169679Y-54745398D02*
X115979203Y-54650160D01*
X115979203Y-54650160D02*
X115883965Y-54459683D01*
X115883965Y-54459683D02*
X115883965Y-54269207D01*
X115883965Y-54269207D02*
X115979203Y-54078731D01*
X115979203Y-54078731D02*
X116169679Y-53983493D01*
X116169679Y-53983493D02*
X116645870Y-53983493D01*
X116645870Y-53983493D02*
X116836346Y-53888255D01*
X119026823Y-53412064D02*
X119788727Y-53412064D01*
X119312537Y-54745398D02*
X119312537Y-53031112D01*
X119312537Y-53031112D02*
X119407775Y-52840636D01*
X119407775Y-52840636D02*
X119598251Y-52745398D01*
X119598251Y-52745398D02*
X119788727Y-52745398D01*
X121312537Y-54745398D02*
X121312537Y-53697779D01*
X121312537Y-53697779D02*
X121217299Y-53507302D01*
X121217299Y-53507302D02*
X121026823Y-53412064D01*
X121026823Y-53412064D02*
X120645870Y-53412064D01*
X120645870Y-53412064D02*
X120455394Y-53507302D01*
X121312537Y-54650160D02*
X121122061Y-54745398D01*
X121122061Y-54745398D02*
X120645870Y-54745398D01*
X120645870Y-54745398D02*
X120455394Y-54650160D01*
X120455394Y-54650160D02*
X120360156Y-54459683D01*
X120360156Y-54459683D02*
X120360156Y-54269207D01*
X120360156Y-54269207D02*
X120455394Y-54078731D01*
X120455394Y-54078731D02*
X120645870Y-53983493D01*
X120645870Y-53983493D02*
X121122061Y-53983493D01*
X121122061Y-53983493D02*
X121312537Y-53888255D01*
X123122061Y-54650160D02*
X122931585Y-54745398D01*
X122931585Y-54745398D02*
X122550632Y-54745398D01*
X122550632Y-54745398D02*
X122360156Y-54650160D01*
X122360156Y-54650160D02*
X122264918Y-54554921D01*
X122264918Y-54554921D02*
X122169680Y-54364445D01*
X122169680Y-54364445D02*
X122169680Y-53793017D01*
X122169680Y-53793017D02*
X122264918Y-53602540D01*
X122264918Y-53602540D02*
X122360156Y-53507302D01*
X122360156Y-53507302D02*
X122550632Y-53412064D01*
X122550632Y-53412064D02*
X122931585Y-53412064D01*
X122931585Y-53412064D02*
X123122061Y-53507302D01*
X124741109Y-54650160D02*
X124550633Y-54745398D01*
X124550633Y-54745398D02*
X124169680Y-54745398D01*
X124169680Y-54745398D02*
X123979204Y-54650160D01*
X123979204Y-54650160D02*
X123883966Y-54459683D01*
X123883966Y-54459683D02*
X123883966Y-53697779D01*
X123883966Y-53697779D02*
X123979204Y-53507302D01*
X123979204Y-53507302D02*
X124169680Y-53412064D01*
X124169680Y-53412064D02*
X124550633Y-53412064D01*
X124550633Y-53412064D02*
X124741109Y-53507302D01*
X124741109Y-53507302D02*
X124836347Y-53697779D01*
X124836347Y-53697779D02*
X124836347Y-53888255D01*
X124836347Y-53888255D02*
X123883966Y-54078731D01*
X128074443Y-54745398D02*
X128074443Y-53697779D01*
X128074443Y-53697779D02*
X127979205Y-53507302D01*
X127979205Y-53507302D02*
X127788729Y-53412064D01*
X127788729Y-53412064D02*
X127407776Y-53412064D01*
X127407776Y-53412064D02*
X127217300Y-53507302D01*
X128074443Y-54650160D02*
X127883967Y-54745398D01*
X127883967Y-54745398D02*
X127407776Y-54745398D01*
X127407776Y-54745398D02*
X127217300Y-54650160D01*
X127217300Y-54650160D02*
X127122062Y-54459683D01*
X127122062Y-54459683D02*
X127122062Y-54269207D01*
X127122062Y-54269207D02*
X127217300Y-54078731D01*
X127217300Y-54078731D02*
X127407776Y-53983493D01*
X127407776Y-53983493D02*
X127883967Y-53983493D01*
X127883967Y-53983493D02*
X128074443Y-53888255D01*
X128836348Y-53412064D02*
X129312538Y-54745398D01*
X129312538Y-54745398D02*
X129788729Y-53412064D01*
X131407777Y-54745398D02*
X131407777Y-53697779D01*
X131407777Y-53697779D02*
X131312539Y-53507302D01*
X131312539Y-53507302D02*
X131122063Y-53412064D01*
X131122063Y-53412064D02*
X130741110Y-53412064D01*
X130741110Y-53412064D02*
X130550634Y-53507302D01*
X131407777Y-54650160D02*
X131217301Y-54745398D01*
X131217301Y-54745398D02*
X130741110Y-54745398D01*
X130741110Y-54745398D02*
X130550634Y-54650160D01*
X130550634Y-54650160D02*
X130455396Y-54459683D01*
X130455396Y-54459683D02*
X130455396Y-54269207D01*
X130455396Y-54269207D02*
X130550634Y-54078731D01*
X130550634Y-54078731D02*
X130741110Y-53983493D01*
X130741110Y-53983493D02*
X131217301Y-53983493D01*
X131217301Y-53983493D02*
X131407777Y-53888255D01*
X132360158Y-53412064D02*
X132360158Y-54745398D01*
X132360158Y-53602540D02*
X132455396Y-53507302D01*
X132455396Y-53507302D02*
X132645872Y-53412064D01*
X132645872Y-53412064D02*
X132931587Y-53412064D01*
X132931587Y-53412064D02*
X133122063Y-53507302D01*
X133122063Y-53507302D02*
X133217301Y-53697779D01*
X133217301Y-53697779D02*
X133217301Y-54745398D01*
X133883968Y-53412064D02*
X134645872Y-53412064D01*
X134169682Y-52745398D02*
X134169682Y-54459683D01*
X134169682Y-54459683D02*
X134264920Y-54650160D01*
X134264920Y-54650160D02*
X134455396Y-54745398D01*
X134455396Y-54745398D02*
X134645872Y-54745398D01*
X135122063Y-55507302D02*
X135217301Y-55412064D01*
X135217301Y-55412064D02*
X135407777Y-55126350D01*
X135407777Y-55126350D02*
X135503015Y-54935874D01*
X135503015Y-54935874D02*
X135598253Y-54650160D01*
X135598253Y-54650160D02*
X135693491Y-54173969D01*
X135693491Y-54173969D02*
X135693491Y-53793017D01*
X135693491Y-53793017D02*
X135598253Y-53316826D01*
X135598253Y-53316826D02*
X135503015Y-53031112D01*
X135503015Y-53031112D02*
X135407777Y-52840636D01*
X135407777Y-52840636D02*
X135217301Y-52554921D01*
X135217301Y-52554921D02*
X135122063Y-52459683D01*
X138931587Y-54650160D02*
X138741111Y-54745398D01*
X138741111Y-54745398D02*
X138360158Y-54745398D01*
X138360158Y-54745398D02*
X138169682Y-54650160D01*
X138169682Y-54650160D02*
X138074444Y-54459683D01*
X138074444Y-54459683D02*
X138074444Y-53697779D01*
X138074444Y-53697779D02*
X138169682Y-53507302D01*
X138169682Y-53507302D02*
X138360158Y-53412064D01*
X138360158Y-53412064D02*
X138741111Y-53412064D01*
X138741111Y-53412064D02*
X138931587Y-53507302D01*
X138931587Y-53507302D02*
X139026825Y-53697779D01*
X139026825Y-53697779D02*
X139026825Y-53888255D01*
X139026825Y-53888255D02*
X138074444Y-54078731D01*
X139598254Y-53412064D02*
X140360158Y-53412064D01*
X139883968Y-52745398D02*
X139883968Y-54459683D01*
X139883968Y-54459683D02*
X139979206Y-54650160D01*
X139979206Y-54650160D02*
X140169682Y-54745398D01*
X140169682Y-54745398D02*
X140360158Y-54745398D01*
X142455397Y-54650160D02*
X142645873Y-54745398D01*
X142645873Y-54745398D02*
X143026825Y-54745398D01*
X143026825Y-54745398D02*
X143217302Y-54650160D01*
X143217302Y-54650160D02*
X143312540Y-54459683D01*
X143312540Y-54459683D02*
X143312540Y-54364445D01*
X143312540Y-54364445D02*
X143217302Y-54173969D01*
X143217302Y-54173969D02*
X143026825Y-54078731D01*
X143026825Y-54078731D02*
X142741111Y-54078731D01*
X142741111Y-54078731D02*
X142550635Y-53983493D01*
X142550635Y-53983493D02*
X142455397Y-53793017D01*
X142455397Y-53793017D02*
X142455397Y-53697779D01*
X142455397Y-53697779D02*
X142550635Y-53507302D01*
X142550635Y-53507302D02*
X142741111Y-53412064D01*
X142741111Y-53412064D02*
X143026825Y-53412064D01*
X143026825Y-53412064D02*
X143217302Y-53507302D01*
X144455397Y-54745398D02*
X144264921Y-54650160D01*
X144264921Y-54650160D02*
X144169683Y-54554921D01*
X144169683Y-54554921D02*
X144074445Y-54364445D01*
X144074445Y-54364445D02*
X144074445Y-53793017D01*
X144074445Y-53793017D02*
X144169683Y-53602540D01*
X144169683Y-53602540D02*
X144264921Y-53507302D01*
X144264921Y-53507302D02*
X144455397Y-53412064D01*
X144455397Y-53412064D02*
X144741112Y-53412064D01*
X144741112Y-53412064D02*
X144931588Y-53507302D01*
X144931588Y-53507302D02*
X145026826Y-53602540D01*
X145026826Y-53602540D02*
X145122064Y-53793017D01*
X145122064Y-53793017D02*
X145122064Y-54364445D01*
X145122064Y-54364445D02*
X145026826Y-54554921D01*
X145026826Y-54554921D02*
X144931588Y-54650160D01*
X144931588Y-54650160D02*
X144741112Y-54745398D01*
X144741112Y-54745398D02*
X144455397Y-54745398D01*
X145979207Y-53412064D02*
X145979207Y-54745398D01*
X145979207Y-53602540D02*
X146074445Y-53507302D01*
X146074445Y-53507302D02*
X146264921Y-53412064D01*
X146264921Y-53412064D02*
X146550636Y-53412064D01*
X146550636Y-53412064D02*
X146741112Y-53507302D01*
X146741112Y-53507302D02*
X146836350Y-53697779D01*
X146836350Y-53697779D02*
X146836350Y-54745398D01*
X149312541Y-53412064D02*
X149312541Y-55412064D01*
X149312541Y-53507302D02*
X149503017Y-53412064D01*
X149503017Y-53412064D02*
X149883970Y-53412064D01*
X149883970Y-53412064D02*
X150074446Y-53507302D01*
X150074446Y-53507302D02*
X150169684Y-53602540D01*
X150169684Y-53602540D02*
X150264922Y-53793017D01*
X150264922Y-53793017D02*
X150264922Y-54364445D01*
X150264922Y-54364445D02*
X150169684Y-54554921D01*
X150169684Y-54554921D02*
X150074446Y-54650160D01*
X150074446Y-54650160D02*
X149883970Y-54745398D01*
X149883970Y-54745398D02*
X149503017Y-54745398D01*
X149503017Y-54745398D02*
X149312541Y-54650160D01*
X151122065Y-54745398D02*
X151122065Y-53412064D01*
X151122065Y-53793017D02*
X151217303Y-53602540D01*
X151217303Y-53602540D02*
X151312541Y-53507302D01*
X151312541Y-53507302D02*
X151503017Y-53412064D01*
X151503017Y-53412064D02*
X151693494Y-53412064D01*
X152645874Y-54745398D02*
X152455398Y-54650160D01*
X152455398Y-54650160D02*
X152360160Y-54554921D01*
X152360160Y-54554921D02*
X152264922Y-54364445D01*
X152264922Y-54364445D02*
X152264922Y-53793017D01*
X152264922Y-53793017D02*
X152360160Y-53602540D01*
X152360160Y-53602540D02*
X152455398Y-53507302D01*
X152455398Y-53507302D02*
X152645874Y-53412064D01*
X152645874Y-53412064D02*
X152931589Y-53412064D01*
X152931589Y-53412064D02*
X153122065Y-53507302D01*
X153122065Y-53507302D02*
X153217303Y-53602540D01*
X153217303Y-53602540D02*
X153312541Y-53793017D01*
X153312541Y-53793017D02*
X153312541Y-54364445D01*
X153312541Y-54364445D02*
X153217303Y-54554921D01*
X153217303Y-54554921D02*
X153122065Y-54650160D01*
X153122065Y-54650160D02*
X152931589Y-54745398D01*
X152931589Y-54745398D02*
X152645874Y-54745398D01*
X154169684Y-53412064D02*
X154169684Y-55412064D01*
X154169684Y-53507302D02*
X154360160Y-53412064D01*
X154360160Y-53412064D02*
X154741113Y-53412064D01*
X154741113Y-53412064D02*
X154931589Y-53507302D01*
X154931589Y-53507302D02*
X155026827Y-53602540D01*
X155026827Y-53602540D02*
X155122065Y-53793017D01*
X155122065Y-53793017D02*
X155122065Y-54364445D01*
X155122065Y-54364445D02*
X155026827Y-54554921D01*
X155026827Y-54554921D02*
X154931589Y-54650160D01*
X154931589Y-54650160D02*
X154741113Y-54745398D01*
X154741113Y-54745398D02*
X154360160Y-54745398D01*
X154360160Y-54745398D02*
X154169684Y-54650160D01*
X155979208Y-54745398D02*
X155979208Y-53412064D01*
X155979208Y-53793017D02*
X156074446Y-53602540D01*
X156074446Y-53602540D02*
X156169684Y-53507302D01*
X156169684Y-53507302D02*
X156360160Y-53412064D01*
X156360160Y-53412064D02*
X156550637Y-53412064D01*
X157217303Y-54745398D02*
X157217303Y-53412064D01*
X157217303Y-52745398D02*
X157122065Y-52840636D01*
X157122065Y-52840636D02*
X157217303Y-52935874D01*
X157217303Y-52935874D02*
X157312541Y-52840636D01*
X157312541Y-52840636D02*
X157217303Y-52745398D01*
X157217303Y-52745398D02*
X157217303Y-52935874D01*
X158931589Y-54650160D02*
X158741113Y-54745398D01*
X158741113Y-54745398D02*
X158360160Y-54745398D01*
X158360160Y-54745398D02*
X158169684Y-54650160D01*
X158169684Y-54650160D02*
X158074446Y-54459683D01*
X158074446Y-54459683D02*
X158074446Y-53697779D01*
X158074446Y-53697779D02*
X158169684Y-53507302D01*
X158169684Y-53507302D02*
X158360160Y-53412064D01*
X158360160Y-53412064D02*
X158741113Y-53412064D01*
X158741113Y-53412064D02*
X158931589Y-53507302D01*
X158931589Y-53507302D02*
X159026827Y-53697779D01*
X159026827Y-53697779D02*
X159026827Y-53888255D01*
X159026827Y-53888255D02*
X158074446Y-54078731D01*
X158741113Y-52650160D02*
X158455398Y-52935874D01*
X159598256Y-53412064D02*
X160360160Y-53412064D01*
X159883970Y-52745398D02*
X159883970Y-54459683D01*
X159883970Y-54459683D02*
X159979208Y-54650160D01*
X159979208Y-54650160D02*
X160169684Y-54745398D01*
X160169684Y-54745398D02*
X160360160Y-54745398D01*
X161883970Y-54745398D02*
X161883970Y-53697779D01*
X161883970Y-53697779D02*
X161788732Y-53507302D01*
X161788732Y-53507302D02*
X161598256Y-53412064D01*
X161598256Y-53412064D02*
X161217303Y-53412064D01*
X161217303Y-53412064D02*
X161026827Y-53507302D01*
X161883970Y-54650160D02*
X161693494Y-54745398D01*
X161693494Y-54745398D02*
X161217303Y-54745398D01*
X161217303Y-54745398D02*
X161026827Y-54650160D01*
X161026827Y-54650160D02*
X160931589Y-54459683D01*
X160931589Y-54459683D02*
X160931589Y-54269207D01*
X160931589Y-54269207D02*
X161026827Y-54078731D01*
X161026827Y-54078731D02*
X161217303Y-53983493D01*
X161217303Y-53983493D02*
X161693494Y-53983493D01*
X161693494Y-53983493D02*
X161883970Y-53888255D01*
X162836351Y-54745398D02*
X162836351Y-53412064D01*
X162836351Y-52745398D02*
X162741113Y-52840636D01*
X162741113Y-52840636D02*
X162836351Y-52935874D01*
X162836351Y-52935874D02*
X162931589Y-52840636D01*
X162931589Y-52840636D02*
X162836351Y-52745398D01*
X162836351Y-52745398D02*
X162836351Y-52935874D01*
X163788732Y-54745398D02*
X163788732Y-53412064D01*
X163788732Y-53793017D02*
X163883970Y-53602540D01*
X163883970Y-53602540D02*
X163979208Y-53507302D01*
X163979208Y-53507302D02*
X164169684Y-53412064D01*
X164169684Y-53412064D02*
X164360161Y-53412064D01*
X165788732Y-54650160D02*
X165598256Y-54745398D01*
X165598256Y-54745398D02*
X165217303Y-54745398D01*
X165217303Y-54745398D02*
X165026827Y-54650160D01*
X165026827Y-54650160D02*
X164931589Y-54459683D01*
X164931589Y-54459683D02*
X164931589Y-53697779D01*
X164931589Y-53697779D02*
X165026827Y-53507302D01*
X165026827Y-53507302D02*
X165217303Y-53412064D01*
X165217303Y-53412064D02*
X165598256Y-53412064D01*
X165598256Y-53412064D02*
X165788732Y-53507302D01*
X165788732Y-53507302D02*
X165883970Y-53697779D01*
X165883970Y-53697779D02*
X165883970Y-53888255D01*
X165883970Y-53888255D02*
X164931589Y-54078731D01*
X58169673Y-57870048D02*
X57979197Y-57965286D01*
X57979197Y-57965286D02*
X57598244Y-57965286D01*
X57598244Y-57965286D02*
X57407768Y-57870048D01*
X57407768Y-57870048D02*
X57312530Y-57679571D01*
X57312530Y-57679571D02*
X57312530Y-56917667D01*
X57312530Y-56917667D02*
X57407768Y-56727190D01*
X57407768Y-56727190D02*
X57598244Y-56631952D01*
X57598244Y-56631952D02*
X57979197Y-56631952D01*
X57979197Y-56631952D02*
X58169673Y-56727190D01*
X58169673Y-56727190D02*
X58264911Y-56917667D01*
X58264911Y-56917667D02*
X58264911Y-57108143D01*
X58264911Y-57108143D02*
X57312530Y-57298619D01*
X59026816Y-57870048D02*
X59217292Y-57965286D01*
X59217292Y-57965286D02*
X59598244Y-57965286D01*
X59598244Y-57965286D02*
X59788721Y-57870048D01*
X59788721Y-57870048D02*
X59883959Y-57679571D01*
X59883959Y-57679571D02*
X59883959Y-57584333D01*
X59883959Y-57584333D02*
X59788721Y-57393857D01*
X59788721Y-57393857D02*
X59598244Y-57298619D01*
X59598244Y-57298619D02*
X59312530Y-57298619D01*
X59312530Y-57298619D02*
X59122054Y-57203381D01*
X59122054Y-57203381D02*
X59026816Y-57012905D01*
X59026816Y-57012905D02*
X59026816Y-56917667D01*
X59026816Y-56917667D02*
X59122054Y-56727190D01*
X59122054Y-56727190D02*
X59312530Y-56631952D01*
X59312530Y-56631952D02*
X59598244Y-56631952D01*
X59598244Y-56631952D02*
X59788721Y-56727190D01*
X60455388Y-56631952D02*
X61217292Y-56631952D01*
X60741102Y-55965286D02*
X60741102Y-57679571D01*
X60741102Y-57679571D02*
X60836340Y-57870048D01*
X60836340Y-57870048D02*
X61026816Y-57965286D01*
X61026816Y-57965286D02*
X61217292Y-57965286D01*
X64264912Y-57870048D02*
X64074436Y-57965286D01*
X64074436Y-57965286D02*
X63693483Y-57965286D01*
X63693483Y-57965286D02*
X63503007Y-57870048D01*
X63503007Y-57870048D02*
X63407769Y-57774809D01*
X63407769Y-57774809D02*
X63312531Y-57584333D01*
X63312531Y-57584333D02*
X63312531Y-57012905D01*
X63312531Y-57012905D02*
X63407769Y-56822428D01*
X63407769Y-56822428D02*
X63503007Y-56727190D01*
X63503007Y-56727190D02*
X63693483Y-56631952D01*
X63693483Y-56631952D02*
X64074436Y-56631952D01*
X64074436Y-56631952D02*
X64264912Y-56727190D01*
X65407769Y-57965286D02*
X65217293Y-57870048D01*
X65217293Y-57870048D02*
X65122055Y-57774809D01*
X65122055Y-57774809D02*
X65026817Y-57584333D01*
X65026817Y-57584333D02*
X65026817Y-57012905D01*
X65026817Y-57012905D02*
X65122055Y-56822428D01*
X65122055Y-56822428D02*
X65217293Y-56727190D01*
X65217293Y-56727190D02*
X65407769Y-56631952D01*
X65407769Y-56631952D02*
X65693484Y-56631952D01*
X65693484Y-56631952D02*
X65883960Y-56727190D01*
X65883960Y-56727190D02*
X65979198Y-56822428D01*
X65979198Y-56822428D02*
X66074436Y-57012905D01*
X66074436Y-57012905D02*
X66074436Y-57584333D01*
X66074436Y-57584333D02*
X65979198Y-57774809D01*
X65979198Y-57774809D02*
X65883960Y-57870048D01*
X65883960Y-57870048D02*
X65693484Y-57965286D01*
X65693484Y-57965286D02*
X65407769Y-57965286D01*
X66931579Y-56631952D02*
X66931579Y-57965286D01*
X66931579Y-56822428D02*
X67026817Y-56727190D01*
X67026817Y-56727190D02*
X67217293Y-56631952D01*
X67217293Y-56631952D02*
X67503008Y-56631952D01*
X67503008Y-56631952D02*
X67693484Y-56727190D01*
X67693484Y-56727190D02*
X67788722Y-56917667D01*
X67788722Y-56917667D02*
X67788722Y-57965286D01*
X68645865Y-57870048D02*
X68836341Y-57965286D01*
X68836341Y-57965286D02*
X69217293Y-57965286D01*
X69217293Y-57965286D02*
X69407770Y-57870048D01*
X69407770Y-57870048D02*
X69503008Y-57679571D01*
X69503008Y-57679571D02*
X69503008Y-57584333D01*
X69503008Y-57584333D02*
X69407770Y-57393857D01*
X69407770Y-57393857D02*
X69217293Y-57298619D01*
X69217293Y-57298619D02*
X68931579Y-57298619D01*
X68931579Y-57298619D02*
X68741103Y-57203381D01*
X68741103Y-57203381D02*
X68645865Y-57012905D01*
X68645865Y-57012905D02*
X68645865Y-56917667D01*
X68645865Y-56917667D02*
X68741103Y-56727190D01*
X68741103Y-56727190D02*
X68931579Y-56631952D01*
X68931579Y-56631952D02*
X69217293Y-56631952D01*
X69217293Y-56631952D02*
X69407770Y-56727190D01*
X71122056Y-57870048D02*
X70931580Y-57965286D01*
X70931580Y-57965286D02*
X70550627Y-57965286D01*
X70550627Y-57965286D02*
X70360151Y-57870048D01*
X70360151Y-57870048D02*
X70264913Y-57679571D01*
X70264913Y-57679571D02*
X70264913Y-56917667D01*
X70264913Y-56917667D02*
X70360151Y-56727190D01*
X70360151Y-56727190D02*
X70550627Y-56631952D01*
X70550627Y-56631952D02*
X70931580Y-56631952D01*
X70931580Y-56631952D02*
X71122056Y-56727190D01*
X71122056Y-56727190D02*
X71217294Y-56917667D01*
X71217294Y-56917667D02*
X71217294Y-57108143D01*
X71217294Y-57108143D02*
X70264913Y-57298619D01*
X72074437Y-57965286D02*
X72074437Y-56631952D01*
X72074437Y-57012905D02*
X72169675Y-56822428D01*
X72169675Y-56822428D02*
X72264913Y-56727190D01*
X72264913Y-56727190D02*
X72455389Y-56631952D01*
X72455389Y-56631952D02*
X72645866Y-56631952D01*
X73122056Y-56631952D02*
X73598246Y-57965286D01*
X73598246Y-57965286D02*
X74074437Y-56631952D01*
X75598247Y-57870048D02*
X75407771Y-57965286D01*
X75407771Y-57965286D02*
X75026818Y-57965286D01*
X75026818Y-57965286D02*
X74836342Y-57870048D01*
X74836342Y-57870048D02*
X74741104Y-57679571D01*
X74741104Y-57679571D02*
X74741104Y-56917667D01*
X74741104Y-56917667D02*
X74836342Y-56727190D01*
X74836342Y-56727190D02*
X75026818Y-56631952D01*
X75026818Y-56631952D02*
X75407771Y-56631952D01*
X75407771Y-56631952D02*
X75598247Y-56727190D01*
X75598247Y-56727190D02*
X75693485Y-56917667D01*
X75693485Y-56917667D02*
X75693485Y-57108143D01*
X75693485Y-57108143D02*
X74741104Y-57298619D01*
X75407771Y-55870048D02*
X75122056Y-56155762D01*
X78074438Y-56631952D02*
X78074438Y-58631952D01*
X78074438Y-56727190D02*
X78264914Y-56631952D01*
X78264914Y-56631952D02*
X78645867Y-56631952D01*
X78645867Y-56631952D02*
X78836343Y-56727190D01*
X78836343Y-56727190D02*
X78931581Y-56822428D01*
X78931581Y-56822428D02*
X79026819Y-57012905D01*
X79026819Y-57012905D02*
X79026819Y-57584333D01*
X79026819Y-57584333D02*
X78931581Y-57774809D01*
X78931581Y-57774809D02*
X78836343Y-57870048D01*
X78836343Y-57870048D02*
X78645867Y-57965286D01*
X78645867Y-57965286D02*
X78264914Y-57965286D01*
X78264914Y-57965286D02*
X78074438Y-57870048D01*
X80741105Y-57965286D02*
X80741105Y-56917667D01*
X80741105Y-56917667D02*
X80645867Y-56727190D01*
X80645867Y-56727190D02*
X80455391Y-56631952D01*
X80455391Y-56631952D02*
X80074438Y-56631952D01*
X80074438Y-56631952D02*
X79883962Y-56727190D01*
X80741105Y-57870048D02*
X80550629Y-57965286D01*
X80550629Y-57965286D02*
X80074438Y-57965286D01*
X80074438Y-57965286D02*
X79883962Y-57870048D01*
X79883962Y-57870048D02*
X79788724Y-57679571D01*
X79788724Y-57679571D02*
X79788724Y-57489095D01*
X79788724Y-57489095D02*
X79883962Y-57298619D01*
X79883962Y-57298619D02*
X80074438Y-57203381D01*
X80074438Y-57203381D02*
X80550629Y-57203381D01*
X80550629Y-57203381D02*
X80741105Y-57108143D01*
X81693486Y-57965286D02*
X81693486Y-56631952D01*
X81693486Y-57012905D02*
X81788724Y-56822428D01*
X81788724Y-56822428D02*
X81883962Y-56727190D01*
X81883962Y-56727190D02*
X82074438Y-56631952D01*
X82074438Y-56631952D02*
X82264915Y-56631952D01*
X85312534Y-57965286D02*
X85312534Y-55965286D01*
X85312534Y-57870048D02*
X85122058Y-57965286D01*
X85122058Y-57965286D02*
X84741105Y-57965286D01*
X84741105Y-57965286D02*
X84550629Y-57870048D01*
X84550629Y-57870048D02*
X84455391Y-57774809D01*
X84455391Y-57774809D02*
X84360153Y-57584333D01*
X84360153Y-57584333D02*
X84360153Y-57012905D01*
X84360153Y-57012905D02*
X84455391Y-56822428D01*
X84455391Y-56822428D02*
X84550629Y-56727190D01*
X84550629Y-56727190D02*
X84741105Y-56631952D01*
X84741105Y-56631952D02*
X85122058Y-56631952D01*
X85122058Y-56631952D02*
X85312534Y-56727190D01*
X87026820Y-57870048D02*
X86836344Y-57965286D01*
X86836344Y-57965286D02*
X86455391Y-57965286D01*
X86455391Y-57965286D02*
X86264915Y-57870048D01*
X86264915Y-57870048D02*
X86169677Y-57679571D01*
X86169677Y-57679571D02*
X86169677Y-56917667D01*
X86169677Y-56917667D02*
X86264915Y-56727190D01*
X86264915Y-56727190D02*
X86455391Y-56631952D01*
X86455391Y-56631952D02*
X86836344Y-56631952D01*
X86836344Y-56631952D02*
X87026820Y-56727190D01*
X87026820Y-56727190D02*
X87122058Y-56917667D01*
X87122058Y-56917667D02*
X87122058Y-57108143D01*
X87122058Y-57108143D02*
X86169677Y-57298619D01*
X87883963Y-57870048D02*
X88074439Y-57965286D01*
X88074439Y-57965286D02*
X88455391Y-57965286D01*
X88455391Y-57965286D02*
X88645868Y-57870048D01*
X88645868Y-57870048D02*
X88741106Y-57679571D01*
X88741106Y-57679571D02*
X88741106Y-57584333D01*
X88741106Y-57584333D02*
X88645868Y-57393857D01*
X88645868Y-57393857D02*
X88455391Y-57298619D01*
X88455391Y-57298619D02*
X88169677Y-57298619D01*
X88169677Y-57298619D02*
X87979201Y-57203381D01*
X87979201Y-57203381D02*
X87883963Y-57012905D01*
X87883963Y-57012905D02*
X87883963Y-56917667D01*
X87883963Y-56917667D02*
X87979201Y-56727190D01*
X87979201Y-56727190D02*
X88169677Y-56631952D01*
X88169677Y-56631952D02*
X88455391Y-56631952D01*
X88455391Y-56631952D02*
X88645868Y-56727190D01*
X90836345Y-56631952D02*
X91598249Y-56631952D01*
X91122059Y-55965286D02*
X91122059Y-57679571D01*
X91122059Y-57679571D02*
X91217297Y-57870048D01*
X91217297Y-57870048D02*
X91407773Y-57965286D01*
X91407773Y-57965286D02*
X91598249Y-57965286D01*
X92264916Y-57965286D02*
X92264916Y-56631952D01*
X92264916Y-55965286D02*
X92169678Y-56060524D01*
X92169678Y-56060524D02*
X92264916Y-56155762D01*
X92264916Y-56155762D02*
X92360154Y-56060524D01*
X92360154Y-56060524D02*
X92264916Y-55965286D01*
X92264916Y-55965286D02*
X92264916Y-56155762D01*
X93979202Y-57870048D02*
X93788726Y-57965286D01*
X93788726Y-57965286D02*
X93407773Y-57965286D01*
X93407773Y-57965286D02*
X93217297Y-57870048D01*
X93217297Y-57870048D02*
X93122059Y-57679571D01*
X93122059Y-57679571D02*
X93122059Y-56917667D01*
X93122059Y-56917667D02*
X93217297Y-56727190D01*
X93217297Y-56727190D02*
X93407773Y-56631952D01*
X93407773Y-56631952D02*
X93788726Y-56631952D01*
X93788726Y-56631952D02*
X93979202Y-56727190D01*
X93979202Y-56727190D02*
X94074440Y-56917667D01*
X94074440Y-56917667D02*
X94074440Y-57108143D01*
X94074440Y-57108143D02*
X93122059Y-57298619D01*
X94931583Y-57965286D02*
X94931583Y-56631952D01*
X94931583Y-57012905D02*
X95026821Y-56822428D01*
X95026821Y-56822428D02*
X95122059Y-56727190D01*
X95122059Y-56727190D02*
X95312535Y-56631952D01*
X95312535Y-56631952D02*
X95503012Y-56631952D01*
X96074440Y-57870048D02*
X96264916Y-57965286D01*
X96264916Y-57965286D02*
X96645868Y-57965286D01*
X96645868Y-57965286D02*
X96836345Y-57870048D01*
X96836345Y-57870048D02*
X96931583Y-57679571D01*
X96931583Y-57679571D02*
X96931583Y-57584333D01*
X96931583Y-57584333D02*
X96836345Y-57393857D01*
X96836345Y-57393857D02*
X96645868Y-57298619D01*
X96645868Y-57298619D02*
X96360154Y-57298619D01*
X96360154Y-57298619D02*
X96169678Y-57203381D01*
X96169678Y-57203381D02*
X96074440Y-57012905D01*
X96074440Y-57012905D02*
X96074440Y-56917667D01*
X96074440Y-56917667D02*
X96169678Y-56727190D01*
X96169678Y-56727190D02*
X96360154Y-56631952D01*
X96360154Y-56631952D02*
X96645868Y-56631952D01*
X96645868Y-56631952D02*
X96836345Y-56727190D01*
X100169679Y-57965286D02*
X100169679Y-55965286D01*
X100169679Y-57870048D02*
X99979203Y-57965286D01*
X99979203Y-57965286D02*
X99598250Y-57965286D01*
X99598250Y-57965286D02*
X99407774Y-57870048D01*
X99407774Y-57870048D02*
X99312536Y-57774809D01*
X99312536Y-57774809D02*
X99217298Y-57584333D01*
X99217298Y-57584333D02*
X99217298Y-57012905D01*
X99217298Y-57012905D02*
X99312536Y-56822428D01*
X99312536Y-56822428D02*
X99407774Y-56727190D01*
X99407774Y-56727190D02*
X99598250Y-56631952D01*
X99598250Y-56631952D02*
X99979203Y-56631952D01*
X99979203Y-56631952D02*
X100169679Y-56727190D01*
X101883965Y-57870048D02*
X101693489Y-57965286D01*
X101693489Y-57965286D02*
X101312536Y-57965286D01*
X101312536Y-57965286D02*
X101122060Y-57870048D01*
X101122060Y-57870048D02*
X101026822Y-57679571D01*
X101026822Y-57679571D02*
X101026822Y-56917667D01*
X101026822Y-56917667D02*
X101122060Y-56727190D01*
X101122060Y-56727190D02*
X101312536Y-56631952D01*
X101312536Y-56631952D02*
X101693489Y-56631952D01*
X101693489Y-56631952D02*
X101883965Y-56727190D01*
X101883965Y-56727190D02*
X101979203Y-56917667D01*
X101979203Y-56917667D02*
X101979203Y-57108143D01*
X101979203Y-57108143D02*
X101026822Y-57298619D01*
X105217299Y-57870048D02*
X105026823Y-57965286D01*
X105026823Y-57965286D02*
X104645870Y-57965286D01*
X104645870Y-57965286D02*
X104455394Y-57870048D01*
X104455394Y-57870048D02*
X104360156Y-57774809D01*
X104360156Y-57774809D02*
X104264918Y-57584333D01*
X104264918Y-57584333D02*
X104264918Y-57012905D01*
X104264918Y-57012905D02*
X104360156Y-56822428D01*
X104360156Y-56822428D02*
X104455394Y-56727190D01*
X104455394Y-56727190D02*
X104645870Y-56631952D01*
X104645870Y-56631952D02*
X105026823Y-56631952D01*
X105026823Y-56631952D02*
X105217299Y-56727190D01*
X106360156Y-57965286D02*
X106169680Y-57870048D01*
X106169680Y-57870048D02*
X106074442Y-57774809D01*
X106074442Y-57774809D02*
X105979204Y-57584333D01*
X105979204Y-57584333D02*
X105979204Y-57012905D01*
X105979204Y-57012905D02*
X106074442Y-56822428D01*
X106074442Y-56822428D02*
X106169680Y-56727190D01*
X106169680Y-56727190D02*
X106360156Y-56631952D01*
X106360156Y-56631952D02*
X106645871Y-56631952D01*
X106645871Y-56631952D02*
X106836347Y-56727190D01*
X106836347Y-56727190D02*
X106931585Y-56822428D01*
X106931585Y-56822428D02*
X107026823Y-57012905D01*
X107026823Y-57012905D02*
X107026823Y-57584333D01*
X107026823Y-57584333D02*
X106931585Y-57774809D01*
X106931585Y-57774809D02*
X106836347Y-57870048D01*
X106836347Y-57870048D02*
X106645871Y-57965286D01*
X106645871Y-57965286D02*
X106360156Y-57965286D01*
X107883966Y-56631952D02*
X107883966Y-57965286D01*
X107883966Y-56822428D02*
X107979204Y-56727190D01*
X107979204Y-56727190D02*
X108169680Y-56631952D01*
X108169680Y-56631952D02*
X108455395Y-56631952D01*
X108455395Y-56631952D02*
X108645871Y-56727190D01*
X108645871Y-56727190D02*
X108741109Y-56917667D01*
X108741109Y-56917667D02*
X108741109Y-57965286D01*
X109407776Y-56631952D02*
X110169680Y-56631952D01*
X109693490Y-57965286D02*
X109693490Y-56251000D01*
X109693490Y-56251000D02*
X109788728Y-56060524D01*
X109788728Y-56060524D02*
X109979204Y-55965286D01*
X109979204Y-55965286D02*
X110169680Y-55965286D01*
X110836347Y-57965286D02*
X110836347Y-56631952D01*
X110836347Y-55965286D02*
X110741109Y-56060524D01*
X110741109Y-56060524D02*
X110836347Y-56155762D01*
X110836347Y-56155762D02*
X110931585Y-56060524D01*
X110931585Y-56060524D02*
X110836347Y-55965286D01*
X110836347Y-55965286D02*
X110836347Y-56155762D01*
X112645871Y-57965286D02*
X112645871Y-56917667D01*
X112645871Y-56917667D02*
X112550633Y-56727190D01*
X112550633Y-56727190D02*
X112360157Y-56631952D01*
X112360157Y-56631952D02*
X111979204Y-56631952D01*
X111979204Y-56631952D02*
X111788728Y-56727190D01*
X112645871Y-57870048D02*
X112455395Y-57965286D01*
X112455395Y-57965286D02*
X111979204Y-57965286D01*
X111979204Y-57965286D02*
X111788728Y-57870048D01*
X111788728Y-57870048D02*
X111693490Y-57679571D01*
X111693490Y-57679571D02*
X111693490Y-57489095D01*
X111693490Y-57489095D02*
X111788728Y-57298619D01*
X111788728Y-57298619D02*
X111979204Y-57203381D01*
X111979204Y-57203381D02*
X112455395Y-57203381D01*
X112455395Y-57203381D02*
X112645871Y-57108143D01*
X113598252Y-56631952D02*
X113598252Y-57965286D01*
X113598252Y-56822428D02*
X113693490Y-56727190D01*
X113693490Y-56727190D02*
X113883966Y-56631952D01*
X113883966Y-56631952D02*
X114169681Y-56631952D01*
X114169681Y-56631952D02*
X114360157Y-56727190D01*
X114360157Y-56727190D02*
X114455395Y-56917667D01*
X114455395Y-56917667D02*
X114455395Y-57965286D01*
X116264919Y-57870048D02*
X116074443Y-57965286D01*
X116074443Y-57965286D02*
X115693490Y-57965286D01*
X115693490Y-57965286D02*
X115503014Y-57870048D01*
X115503014Y-57870048D02*
X115407776Y-57774809D01*
X115407776Y-57774809D02*
X115312538Y-57584333D01*
X115312538Y-57584333D02*
X115312538Y-57012905D01*
X115312538Y-57012905D02*
X115407776Y-56822428D01*
X115407776Y-56822428D02*
X115503014Y-56727190D01*
X115503014Y-56727190D02*
X115693490Y-56631952D01*
X115693490Y-56631952D02*
X116074443Y-56631952D01*
X116074443Y-56631952D02*
X116264919Y-56727190D01*
X117883967Y-57870048D02*
X117693491Y-57965286D01*
X117693491Y-57965286D02*
X117312538Y-57965286D01*
X117312538Y-57965286D02*
X117122062Y-57870048D01*
X117122062Y-57870048D02*
X117026824Y-57679571D01*
X117026824Y-57679571D02*
X117026824Y-56917667D01*
X117026824Y-56917667D02*
X117122062Y-56727190D01*
X117122062Y-56727190D02*
X117312538Y-56631952D01*
X117312538Y-56631952D02*
X117693491Y-56631952D01*
X117693491Y-56631952D02*
X117883967Y-56727190D01*
X117883967Y-56727190D02*
X117979205Y-56917667D01*
X117979205Y-56917667D02*
X117979205Y-57108143D01*
X117979205Y-57108143D02*
X117026824Y-57298619D01*
X118836348Y-57774809D02*
X118931586Y-57870048D01*
X118931586Y-57870048D02*
X118836348Y-57965286D01*
X118836348Y-57965286D02*
X118741110Y-57870048D01*
X118741110Y-57870048D02*
X118836348Y-57774809D01*
X118836348Y-57774809D02*
X118836348Y-57965286D01*
X57312530Y-64309824D02*
X57598244Y-64405062D01*
X57598244Y-64405062D02*
X58074435Y-64405062D01*
X58074435Y-64405062D02*
X58264911Y-64309824D01*
X58264911Y-64309824D02*
X58360149Y-64214585D01*
X58360149Y-64214585D02*
X58455387Y-64024109D01*
X58455387Y-64024109D02*
X58455387Y-63833633D01*
X58455387Y-63833633D02*
X58360149Y-63643157D01*
X58360149Y-63643157D02*
X58264911Y-63547919D01*
X58264911Y-63547919D02*
X58074435Y-63452681D01*
X58074435Y-63452681D02*
X57693482Y-63357443D01*
X57693482Y-63357443D02*
X57503006Y-63262204D01*
X57503006Y-63262204D02*
X57407768Y-63166966D01*
X57407768Y-63166966D02*
X57312530Y-62976490D01*
X57312530Y-62976490D02*
X57312530Y-62786014D01*
X57312530Y-62786014D02*
X57407768Y-62595538D01*
X57407768Y-62595538D02*
X57503006Y-62500300D01*
X57503006Y-62500300D02*
X57693482Y-62405062D01*
X57693482Y-62405062D02*
X58169673Y-62405062D01*
X58169673Y-62405062D02*
X58455387Y-62500300D01*
X59312530Y-64405062D02*
X59312530Y-63071728D01*
X59312530Y-62405062D02*
X59217292Y-62500300D01*
X59217292Y-62500300D02*
X59312530Y-62595538D01*
X59312530Y-62595538D02*
X59407768Y-62500300D01*
X59407768Y-62500300D02*
X59312530Y-62405062D01*
X59312530Y-62405062D02*
X59312530Y-62595538D01*
X62074435Y-64405062D02*
X61883959Y-64309824D01*
X61883959Y-64309824D02*
X61788721Y-64119347D01*
X61788721Y-64119347D02*
X61788721Y-62405062D01*
X63693483Y-64405062D02*
X63693483Y-63357443D01*
X63693483Y-63357443D02*
X63598245Y-63166966D01*
X63598245Y-63166966D02*
X63407769Y-63071728D01*
X63407769Y-63071728D02*
X63026816Y-63071728D01*
X63026816Y-63071728D02*
X62836340Y-63166966D01*
X63693483Y-64309824D02*
X63503007Y-64405062D01*
X63503007Y-64405062D02*
X63026816Y-64405062D01*
X63026816Y-64405062D02*
X62836340Y-64309824D01*
X62836340Y-64309824D02*
X62741102Y-64119347D01*
X62741102Y-64119347D02*
X62741102Y-63928871D01*
X62741102Y-63928871D02*
X62836340Y-63738395D01*
X62836340Y-63738395D02*
X63026816Y-63643157D01*
X63026816Y-63643157D02*
X63503007Y-63643157D01*
X63503007Y-63643157D02*
X63693483Y-63547919D01*
X67026817Y-64309824D02*
X66836341Y-64405062D01*
X66836341Y-64405062D02*
X66455388Y-64405062D01*
X66455388Y-64405062D02*
X66264912Y-64309824D01*
X66264912Y-64309824D02*
X66169674Y-64214585D01*
X66169674Y-64214585D02*
X66074436Y-64024109D01*
X66074436Y-64024109D02*
X66074436Y-63452681D01*
X66074436Y-63452681D02*
X66169674Y-63262204D01*
X66169674Y-63262204D02*
X66264912Y-63166966D01*
X66264912Y-63166966D02*
X66455388Y-63071728D01*
X66455388Y-63071728D02*
X66836341Y-63071728D01*
X66836341Y-63071728D02*
X67026817Y-63166966D01*
X68741103Y-64405062D02*
X68741103Y-63357443D01*
X68741103Y-63357443D02*
X68645865Y-63166966D01*
X68645865Y-63166966D02*
X68455389Y-63071728D01*
X68455389Y-63071728D02*
X68074436Y-63071728D01*
X68074436Y-63071728D02*
X67883960Y-63166966D01*
X68741103Y-64309824D02*
X68550627Y-64405062D01*
X68550627Y-64405062D02*
X68074436Y-64405062D01*
X68074436Y-64405062D02*
X67883960Y-64309824D01*
X67883960Y-64309824D02*
X67788722Y-64119347D01*
X67788722Y-64119347D02*
X67788722Y-63928871D01*
X67788722Y-63928871D02*
X67883960Y-63738395D01*
X67883960Y-63738395D02*
X68074436Y-63643157D01*
X68074436Y-63643157D02*
X68550627Y-63643157D01*
X68550627Y-63643157D02*
X68741103Y-63547919D01*
X69693484Y-64405062D02*
X69693484Y-63071728D01*
X69693484Y-63452681D02*
X69788722Y-63262204D01*
X69788722Y-63262204D02*
X69883960Y-63166966D01*
X69883960Y-63166966D02*
X70074436Y-63071728D01*
X70074436Y-63071728D02*
X70264913Y-63071728D01*
X70645865Y-63071728D02*
X71407769Y-63071728D01*
X70931579Y-62405062D02*
X70931579Y-64119347D01*
X70931579Y-64119347D02*
X71026817Y-64309824D01*
X71026817Y-64309824D02*
X71217293Y-64405062D01*
X71217293Y-64405062D02*
X71407769Y-64405062D01*
X72360150Y-64405062D02*
X72169674Y-64309824D01*
X72169674Y-64309824D02*
X72074436Y-64214585D01*
X72074436Y-64214585D02*
X71979198Y-64024109D01*
X71979198Y-64024109D02*
X71979198Y-63452681D01*
X71979198Y-63452681D02*
X72074436Y-63262204D01*
X72074436Y-63262204D02*
X72169674Y-63166966D01*
X72169674Y-63166966D02*
X72360150Y-63071728D01*
X72360150Y-63071728D02*
X72645865Y-63071728D01*
X72645865Y-63071728D02*
X72836341Y-63166966D01*
X72836341Y-63166966D02*
X72931579Y-63262204D01*
X72931579Y-63262204D02*
X73026817Y-63452681D01*
X73026817Y-63452681D02*
X73026817Y-64024109D01*
X73026817Y-64024109D02*
X72931579Y-64214585D01*
X72931579Y-64214585D02*
X72836341Y-64309824D01*
X72836341Y-64309824D02*
X72645865Y-64405062D01*
X72645865Y-64405062D02*
X72360150Y-64405062D01*
X74741103Y-63071728D02*
X74741103Y-64405062D01*
X73883960Y-63071728D02*
X73883960Y-64119347D01*
X73883960Y-64119347D02*
X73979198Y-64309824D01*
X73979198Y-64309824D02*
X74169674Y-64405062D01*
X74169674Y-64405062D02*
X74455389Y-64405062D01*
X74455389Y-64405062D02*
X74645865Y-64309824D01*
X74645865Y-64309824D02*
X74741103Y-64214585D01*
X76550627Y-64309824D02*
X76360151Y-64405062D01*
X76360151Y-64405062D02*
X75979198Y-64405062D01*
X75979198Y-64405062D02*
X75788722Y-64309824D01*
X75788722Y-64309824D02*
X75693484Y-64214585D01*
X75693484Y-64214585D02*
X75598246Y-64024109D01*
X75598246Y-64024109D02*
X75598246Y-63452681D01*
X75598246Y-63452681D02*
X75693484Y-63262204D01*
X75693484Y-63262204D02*
X75788722Y-63166966D01*
X75788722Y-63166966D02*
X75979198Y-63071728D01*
X75979198Y-63071728D02*
X76360151Y-63071728D01*
X76360151Y-63071728D02*
X76550627Y-63166966D01*
X77407770Y-64405062D02*
X77407770Y-62405062D01*
X78264913Y-64405062D02*
X78264913Y-63357443D01*
X78264913Y-63357443D02*
X78169675Y-63166966D01*
X78169675Y-63166966D02*
X77979199Y-63071728D01*
X77979199Y-63071728D02*
X77693484Y-63071728D01*
X77693484Y-63071728D02*
X77503008Y-63166966D01*
X77503008Y-63166966D02*
X77407770Y-63262204D01*
X79979199Y-64309824D02*
X79788723Y-64405062D01*
X79788723Y-64405062D02*
X79407770Y-64405062D01*
X79407770Y-64405062D02*
X79217294Y-64309824D01*
X79217294Y-64309824D02*
X79122056Y-64119347D01*
X79122056Y-64119347D02*
X79122056Y-63357443D01*
X79122056Y-63357443D02*
X79217294Y-63166966D01*
X79217294Y-63166966D02*
X79407770Y-63071728D01*
X79407770Y-63071728D02*
X79788723Y-63071728D01*
X79788723Y-63071728D02*
X79979199Y-63166966D01*
X79979199Y-63166966D02*
X80074437Y-63357443D01*
X80074437Y-63357443D02*
X80074437Y-63547919D01*
X80074437Y-63547919D02*
X79122056Y-63738395D01*
X83217295Y-64309824D02*
X83026819Y-64405062D01*
X83026819Y-64405062D02*
X82645866Y-64405062D01*
X82645866Y-64405062D02*
X82455390Y-64309824D01*
X82455390Y-64309824D02*
X82360152Y-64119347D01*
X82360152Y-64119347D02*
X82360152Y-63357443D01*
X82360152Y-63357443D02*
X82455390Y-63166966D01*
X82455390Y-63166966D02*
X82645866Y-63071728D01*
X82645866Y-63071728D02*
X83026819Y-63071728D01*
X83026819Y-63071728D02*
X83217295Y-63166966D01*
X83217295Y-63166966D02*
X83312533Y-63357443D01*
X83312533Y-63357443D02*
X83312533Y-63547919D01*
X83312533Y-63547919D02*
X82360152Y-63738395D01*
X84074438Y-64309824D02*
X84264914Y-64405062D01*
X84264914Y-64405062D02*
X84645866Y-64405062D01*
X84645866Y-64405062D02*
X84836343Y-64309824D01*
X84836343Y-64309824D02*
X84931581Y-64119347D01*
X84931581Y-64119347D02*
X84931581Y-64024109D01*
X84931581Y-64024109D02*
X84836343Y-63833633D01*
X84836343Y-63833633D02*
X84645866Y-63738395D01*
X84645866Y-63738395D02*
X84360152Y-63738395D01*
X84360152Y-63738395D02*
X84169676Y-63643157D01*
X84169676Y-63643157D02*
X84074438Y-63452681D01*
X84074438Y-63452681D02*
X84074438Y-63357443D01*
X84074438Y-63357443D02*
X84169676Y-63166966D01*
X84169676Y-63166966D02*
X84360152Y-63071728D01*
X84360152Y-63071728D02*
X84645866Y-63071728D01*
X84645866Y-63071728D02*
X84836343Y-63166966D01*
X85503010Y-63071728D02*
X86264914Y-63071728D01*
X85788724Y-62405062D02*
X85788724Y-64119347D01*
X85788724Y-64119347D02*
X85883962Y-64309824D01*
X85883962Y-64309824D02*
X86074438Y-64405062D01*
X86074438Y-64405062D02*
X86264914Y-64405062D01*
X89312534Y-64405062D02*
X89312534Y-62405062D01*
X89312534Y-64309824D02*
X89122058Y-64405062D01*
X89122058Y-64405062D02*
X88741105Y-64405062D01*
X88741105Y-64405062D02*
X88550629Y-64309824D01*
X88550629Y-64309824D02*
X88455391Y-64214585D01*
X88455391Y-64214585D02*
X88360153Y-64024109D01*
X88360153Y-64024109D02*
X88360153Y-63452681D01*
X88360153Y-63452681D02*
X88455391Y-63262204D01*
X88455391Y-63262204D02*
X88550629Y-63166966D01*
X88550629Y-63166966D02*
X88741105Y-63071728D01*
X88741105Y-63071728D02*
X89122058Y-63071728D01*
X89122058Y-63071728D02*
X89312534Y-63166966D01*
X91122058Y-64405062D02*
X91122058Y-63357443D01*
X91122058Y-63357443D02*
X91026820Y-63166966D01*
X91026820Y-63166966D02*
X90836344Y-63071728D01*
X90836344Y-63071728D02*
X90455391Y-63071728D01*
X90455391Y-63071728D02*
X90264915Y-63166966D01*
X91122058Y-64309824D02*
X90931582Y-64405062D01*
X90931582Y-64405062D02*
X90455391Y-64405062D01*
X90455391Y-64405062D02*
X90264915Y-64309824D01*
X90264915Y-64309824D02*
X90169677Y-64119347D01*
X90169677Y-64119347D02*
X90169677Y-63928871D01*
X90169677Y-63928871D02*
X90264915Y-63738395D01*
X90264915Y-63738395D02*
X90455391Y-63643157D01*
X90455391Y-63643157D02*
X90931582Y-63643157D01*
X90931582Y-63643157D02*
X91122058Y-63547919D01*
X92074439Y-63071728D02*
X92074439Y-64405062D01*
X92074439Y-63262204D02*
X92169677Y-63166966D01*
X92169677Y-63166966D02*
X92360153Y-63071728D01*
X92360153Y-63071728D02*
X92645868Y-63071728D01*
X92645868Y-63071728D02*
X92836344Y-63166966D01*
X92836344Y-63166966D02*
X92931582Y-63357443D01*
X92931582Y-63357443D02*
X92931582Y-64405062D01*
X93788725Y-64309824D02*
X93979201Y-64405062D01*
X93979201Y-64405062D02*
X94360153Y-64405062D01*
X94360153Y-64405062D02*
X94550630Y-64309824D01*
X94550630Y-64309824D02*
X94645868Y-64119347D01*
X94645868Y-64119347D02*
X94645868Y-64024109D01*
X94645868Y-64024109D02*
X94550630Y-63833633D01*
X94550630Y-63833633D02*
X94360153Y-63738395D01*
X94360153Y-63738395D02*
X94074439Y-63738395D01*
X94074439Y-63738395D02*
X93883963Y-63643157D01*
X93883963Y-63643157D02*
X93788725Y-63452681D01*
X93788725Y-63452681D02*
X93788725Y-63357443D01*
X93788725Y-63357443D02*
X93883963Y-63166966D01*
X93883963Y-63166966D02*
X94074439Y-63071728D01*
X94074439Y-63071728D02*
X94360153Y-63071728D01*
X94360153Y-63071728D02*
X94550630Y-63166966D01*
X97883964Y-63071728D02*
X97883964Y-64405062D01*
X97026821Y-63071728D02*
X97026821Y-64119347D01*
X97026821Y-64119347D02*
X97122059Y-64309824D01*
X97122059Y-64309824D02*
X97312535Y-64405062D01*
X97312535Y-64405062D02*
X97598250Y-64405062D01*
X97598250Y-64405062D02*
X97788726Y-64309824D01*
X97788726Y-64309824D02*
X97883964Y-64214585D01*
X98836345Y-63071728D02*
X98836345Y-64405062D01*
X98836345Y-63262204D02*
X98931583Y-63166966D01*
X98931583Y-63166966D02*
X99122059Y-63071728D01*
X99122059Y-63071728D02*
X99407774Y-63071728D01*
X99407774Y-63071728D02*
X99598250Y-63166966D01*
X99598250Y-63166966D02*
X99693488Y-63357443D01*
X99693488Y-63357443D02*
X99693488Y-64405062D01*
X101407774Y-64309824D02*
X101217298Y-64405062D01*
X101217298Y-64405062D02*
X100836345Y-64405062D01*
X100836345Y-64405062D02*
X100645869Y-64309824D01*
X100645869Y-64309824D02*
X100550631Y-64119347D01*
X100550631Y-64119347D02*
X100550631Y-63357443D01*
X100550631Y-63357443D02*
X100645869Y-63166966D01*
X100645869Y-63166966D02*
X100836345Y-63071728D01*
X100836345Y-63071728D02*
X101217298Y-63071728D01*
X101217298Y-63071728D02*
X101407774Y-63166966D01*
X101407774Y-63166966D02*
X101503012Y-63357443D01*
X101503012Y-63357443D02*
X101503012Y-63547919D01*
X101503012Y-63547919D02*
X100550631Y-63738395D01*
X104169679Y-64405062D02*
X103979203Y-64309824D01*
X103979203Y-64309824D02*
X103883965Y-64119347D01*
X103883965Y-64119347D02*
X103883965Y-62405062D01*
X104931584Y-64405062D02*
X104931584Y-63071728D01*
X104931584Y-62405062D02*
X104836346Y-62500300D01*
X104836346Y-62500300D02*
X104931584Y-62595538D01*
X104931584Y-62595538D02*
X105026822Y-62500300D01*
X105026822Y-62500300D02*
X104931584Y-62405062D01*
X104931584Y-62405062D02*
X104931584Y-62595538D01*
X105883965Y-64405062D02*
X105883965Y-62405062D01*
X105883965Y-63166966D02*
X106074441Y-63071728D01*
X106074441Y-63071728D02*
X106455394Y-63071728D01*
X106455394Y-63071728D02*
X106645870Y-63166966D01*
X106645870Y-63166966D02*
X106741108Y-63262204D01*
X106741108Y-63262204D02*
X106836346Y-63452681D01*
X106836346Y-63452681D02*
X106836346Y-64024109D01*
X106836346Y-64024109D02*
X106741108Y-64214585D01*
X106741108Y-64214585D02*
X106645870Y-64309824D01*
X106645870Y-64309824D02*
X106455394Y-64405062D01*
X106455394Y-64405062D02*
X106074441Y-64405062D01*
X106074441Y-64405062D02*
X105883965Y-64309824D01*
X107693489Y-64405062D02*
X107693489Y-63071728D01*
X107693489Y-63452681D02*
X107788727Y-63262204D01*
X107788727Y-63262204D02*
X107883965Y-63166966D01*
X107883965Y-63166966D02*
X108074441Y-63071728D01*
X108074441Y-63071728D02*
X108264918Y-63071728D01*
X109788727Y-64405062D02*
X109788727Y-63357443D01*
X109788727Y-63357443D02*
X109693489Y-63166966D01*
X109693489Y-63166966D02*
X109503013Y-63071728D01*
X109503013Y-63071728D02*
X109122060Y-63071728D01*
X109122060Y-63071728D02*
X108931584Y-63166966D01*
X109788727Y-64309824D02*
X109598251Y-64405062D01*
X109598251Y-64405062D02*
X109122060Y-64405062D01*
X109122060Y-64405062D02*
X108931584Y-64309824D01*
X108931584Y-64309824D02*
X108836346Y-64119347D01*
X108836346Y-64119347D02*
X108836346Y-63928871D01*
X108836346Y-63928871D02*
X108931584Y-63738395D01*
X108931584Y-63738395D02*
X109122060Y-63643157D01*
X109122060Y-63643157D02*
X109598251Y-63643157D01*
X109598251Y-63643157D02*
X109788727Y-63547919D01*
X110741108Y-64405062D02*
X110741108Y-63071728D01*
X110741108Y-62405062D02*
X110645870Y-62500300D01*
X110645870Y-62500300D02*
X110741108Y-62595538D01*
X110741108Y-62595538D02*
X110836346Y-62500300D01*
X110836346Y-62500300D02*
X110741108Y-62405062D01*
X110741108Y-62405062D02*
X110741108Y-62595538D01*
X111693489Y-64405062D02*
X111693489Y-63071728D01*
X111693489Y-63452681D02*
X111788727Y-63262204D01*
X111788727Y-63262204D02*
X111883965Y-63166966D01*
X111883965Y-63166966D02*
X112074441Y-63071728D01*
X112074441Y-63071728D02*
X112264918Y-63071728D01*
X112931584Y-64405062D02*
X112931584Y-63071728D01*
X112931584Y-62405062D02*
X112836346Y-62500300D01*
X112836346Y-62500300D02*
X112931584Y-62595538D01*
X112931584Y-62595538D02*
X113026822Y-62500300D01*
X113026822Y-62500300D02*
X112931584Y-62405062D01*
X112931584Y-62405062D02*
X112931584Y-62595538D01*
X114645870Y-64309824D02*
X114455394Y-64405062D01*
X114455394Y-64405062D02*
X114074441Y-64405062D01*
X114074441Y-64405062D02*
X113883965Y-64309824D01*
X113883965Y-64309824D02*
X113788727Y-64119347D01*
X113788727Y-64119347D02*
X113788727Y-63357443D01*
X113788727Y-63357443D02*
X113883965Y-63166966D01*
X113883965Y-63166966D02*
X114074441Y-63071728D01*
X114074441Y-63071728D02*
X114455394Y-63071728D01*
X114455394Y-63071728D02*
X114645870Y-63166966D01*
X114645870Y-63166966D02*
X114741108Y-63357443D01*
X114741108Y-63357443D02*
X114741108Y-63547919D01*
X114741108Y-63547919D02*
X113788727Y-63738395D01*
X117979204Y-64405062D02*
X117979204Y-63357443D01*
X117979204Y-63357443D02*
X117883966Y-63166966D01*
X117883966Y-63166966D02*
X117693490Y-63071728D01*
X117693490Y-63071728D02*
X117312537Y-63071728D01*
X117312537Y-63071728D02*
X117122061Y-63166966D01*
X117979204Y-64309824D02*
X117788728Y-64405062D01*
X117788728Y-64405062D02*
X117312537Y-64405062D01*
X117312537Y-64405062D02*
X117122061Y-64309824D01*
X117122061Y-64309824D02*
X117026823Y-64119347D01*
X117026823Y-64119347D02*
X117026823Y-63928871D01*
X117026823Y-63928871D02*
X117122061Y-63738395D01*
X117122061Y-63738395D02*
X117312537Y-63643157D01*
X117312537Y-63643157D02*
X117788728Y-63643157D01*
X117788728Y-63643157D02*
X117979204Y-63547919D01*
X119788728Y-63071728D02*
X119788728Y-64405062D01*
X118931585Y-63071728D02*
X118931585Y-64119347D01*
X118931585Y-64119347D02*
X119026823Y-64309824D01*
X119026823Y-64309824D02*
X119217299Y-64405062D01*
X119217299Y-64405062D02*
X119503014Y-64405062D01*
X119503014Y-64405062D02*
X119693490Y-64309824D01*
X119693490Y-64309824D02*
X119788728Y-64214585D01*
X120455395Y-63071728D02*
X121217299Y-63071728D01*
X120741109Y-62405062D02*
X120741109Y-64119347D01*
X120741109Y-64119347D02*
X120836347Y-64309824D01*
X120836347Y-64309824D02*
X121026823Y-64405062D01*
X121026823Y-64405062D02*
X121217299Y-64405062D01*
X122169680Y-64405062D02*
X121979204Y-64309824D01*
X121979204Y-64309824D02*
X121883966Y-64214585D01*
X121883966Y-64214585D02*
X121788728Y-64024109D01*
X121788728Y-64024109D02*
X121788728Y-63452681D01*
X121788728Y-63452681D02*
X121883966Y-63262204D01*
X121883966Y-63262204D02*
X121979204Y-63166966D01*
X121979204Y-63166966D02*
X122169680Y-63071728D01*
X122169680Y-63071728D02*
X122455395Y-63071728D01*
X122455395Y-63071728D02*
X122645871Y-63166966D01*
X122645871Y-63166966D02*
X122741109Y-63262204D01*
X122741109Y-63262204D02*
X122836347Y-63452681D01*
X122836347Y-63452681D02*
X122836347Y-64024109D01*
X122836347Y-64024109D02*
X122741109Y-64214585D01*
X122741109Y-64214585D02*
X122645871Y-64309824D01*
X122645871Y-64309824D02*
X122455395Y-64405062D01*
X122455395Y-64405062D02*
X122169680Y-64405062D01*
X123693490Y-64405062D02*
X123693490Y-63071728D01*
X123693490Y-63262204D02*
X123788728Y-63166966D01*
X123788728Y-63166966D02*
X123979204Y-63071728D01*
X123979204Y-63071728D02*
X124264919Y-63071728D01*
X124264919Y-63071728D02*
X124455395Y-63166966D01*
X124455395Y-63166966D02*
X124550633Y-63357443D01*
X124550633Y-63357443D02*
X124550633Y-64405062D01*
X124550633Y-63357443D02*
X124645871Y-63166966D01*
X124645871Y-63166966D02*
X124836347Y-63071728D01*
X124836347Y-63071728D02*
X125122061Y-63071728D01*
X125122061Y-63071728D02*
X125312538Y-63166966D01*
X125312538Y-63166966D02*
X125407776Y-63357443D01*
X125407776Y-63357443D02*
X125407776Y-64405062D01*
X127217300Y-64405062D02*
X127217300Y-63357443D01*
X127217300Y-63357443D02*
X127122062Y-63166966D01*
X127122062Y-63166966D02*
X126931586Y-63071728D01*
X126931586Y-63071728D02*
X126550633Y-63071728D01*
X126550633Y-63071728D02*
X126360157Y-63166966D01*
X127217300Y-64309824D02*
X127026824Y-64405062D01*
X127026824Y-64405062D02*
X126550633Y-64405062D01*
X126550633Y-64405062D02*
X126360157Y-64309824D01*
X126360157Y-64309824D02*
X126264919Y-64119347D01*
X126264919Y-64119347D02*
X126264919Y-63928871D01*
X126264919Y-63928871D02*
X126360157Y-63738395D01*
X126360157Y-63738395D02*
X126550633Y-63643157D01*
X126550633Y-63643157D02*
X127026824Y-63643157D01*
X127026824Y-63643157D02*
X127217300Y-63547919D01*
X127883967Y-63071728D02*
X128645871Y-63071728D01*
X128169681Y-62405062D02*
X128169681Y-64119347D01*
X128169681Y-64119347D02*
X128264919Y-64309824D01*
X128264919Y-64309824D02*
X128455395Y-64405062D01*
X128455395Y-64405062D02*
X128645871Y-64405062D01*
X129312538Y-64405062D02*
X129312538Y-63071728D01*
X129312538Y-62405062D02*
X129217300Y-62500300D01*
X129217300Y-62500300D02*
X129312538Y-62595538D01*
X129312538Y-62595538D02*
X129407776Y-62500300D01*
X129407776Y-62500300D02*
X129312538Y-62405062D01*
X129312538Y-62405062D02*
X129312538Y-62595538D01*
X131122062Y-63071728D02*
X131122062Y-65071728D01*
X131122062Y-64309824D02*
X130931586Y-64405062D01*
X130931586Y-64405062D02*
X130550633Y-64405062D01*
X130550633Y-64405062D02*
X130360157Y-64309824D01*
X130360157Y-64309824D02*
X130264919Y-64214585D01*
X130264919Y-64214585D02*
X130169681Y-64024109D01*
X130169681Y-64024109D02*
X130169681Y-63452681D01*
X130169681Y-63452681D02*
X130264919Y-63262204D01*
X130264919Y-63262204D02*
X130360157Y-63166966D01*
X130360157Y-63166966D02*
X130550633Y-63071728D01*
X130550633Y-63071728D02*
X130931586Y-63071728D01*
X130931586Y-63071728D02*
X131122062Y-63166966D01*
X132931586Y-63071728D02*
X132931586Y-64405062D01*
X132074443Y-63071728D02*
X132074443Y-64119347D01*
X132074443Y-64119347D02*
X132169681Y-64309824D01*
X132169681Y-64309824D02*
X132360157Y-64405062D01*
X132360157Y-64405062D02*
X132645872Y-64405062D01*
X132645872Y-64405062D02*
X132836348Y-64309824D01*
X132836348Y-64309824D02*
X132931586Y-64214585D01*
X134645872Y-64309824D02*
X134455396Y-64405062D01*
X134455396Y-64405062D02*
X134074443Y-64405062D01*
X134074443Y-64405062D02*
X133883967Y-64309824D01*
X133883967Y-64309824D02*
X133788729Y-64119347D01*
X133788729Y-64119347D02*
X133788729Y-63357443D01*
X133788729Y-63357443D02*
X133883967Y-63166966D01*
X133883967Y-63166966D02*
X134074443Y-63071728D01*
X134074443Y-63071728D02*
X134455396Y-63071728D01*
X134455396Y-63071728D02*
X134645872Y-63166966D01*
X134645872Y-63166966D02*
X134741110Y-63357443D01*
X134741110Y-63357443D02*
X134741110Y-63547919D01*
X134741110Y-63547919D02*
X133788729Y-63738395D01*
X135693491Y-64309824D02*
X135693491Y-64405062D01*
X135693491Y-64405062D02*
X135598253Y-64595538D01*
X135598253Y-64595538D02*
X135503015Y-64690776D01*
X138931587Y-64309824D02*
X138741111Y-64405062D01*
X138741111Y-64405062D02*
X138360158Y-64405062D01*
X138360158Y-64405062D02*
X138169682Y-64309824D01*
X138169682Y-64309824D02*
X138074444Y-64214585D01*
X138074444Y-64214585D02*
X137979206Y-64024109D01*
X137979206Y-64024109D02*
X137979206Y-63452681D01*
X137979206Y-63452681D02*
X138074444Y-63262204D01*
X138074444Y-63262204D02*
X138169682Y-63166966D01*
X138169682Y-63166966D02*
X138360158Y-63071728D01*
X138360158Y-63071728D02*
X138741111Y-63071728D01*
X138741111Y-63071728D02*
X138931587Y-63166966D01*
X140550635Y-64309824D02*
X140360159Y-64405062D01*
X140360159Y-64405062D02*
X139979206Y-64405062D01*
X139979206Y-64405062D02*
X139788730Y-64309824D01*
X139788730Y-64309824D02*
X139693492Y-64119347D01*
X139693492Y-64119347D02*
X139693492Y-63357443D01*
X139693492Y-63357443D02*
X139788730Y-63166966D01*
X139788730Y-63166966D02*
X139979206Y-63071728D01*
X139979206Y-63071728D02*
X140360159Y-63071728D01*
X140360159Y-63071728D02*
X140550635Y-63166966D01*
X140550635Y-63166966D02*
X140645873Y-63357443D01*
X140645873Y-63357443D02*
X140645873Y-63547919D01*
X140645873Y-63547919D02*
X139693492Y-63738395D01*
X141407778Y-64309824D02*
X141598254Y-64405062D01*
X141598254Y-64405062D02*
X141979206Y-64405062D01*
X141979206Y-64405062D02*
X142169683Y-64309824D01*
X142169683Y-64309824D02*
X142264921Y-64119347D01*
X142264921Y-64119347D02*
X142264921Y-64024109D01*
X142264921Y-64024109D02*
X142169683Y-63833633D01*
X142169683Y-63833633D02*
X141979206Y-63738395D01*
X141979206Y-63738395D02*
X141693492Y-63738395D01*
X141693492Y-63738395D02*
X141503016Y-63643157D01*
X141503016Y-63643157D02*
X141407778Y-63452681D01*
X141407778Y-63452681D02*
X141407778Y-63357443D01*
X141407778Y-63357443D02*
X141503016Y-63166966D01*
X141503016Y-63166966D02*
X141693492Y-63071728D01*
X141693492Y-63071728D02*
X141979206Y-63071728D01*
X141979206Y-63071728D02*
X142169683Y-63166966D01*
X144360160Y-63071728D02*
X145122064Y-63071728D01*
X144645874Y-62405062D02*
X144645874Y-64119347D01*
X144645874Y-64119347D02*
X144741112Y-64309824D01*
X144741112Y-64309824D02*
X144931588Y-64405062D01*
X144931588Y-64405062D02*
X145122064Y-64405062D01*
X145788731Y-64405062D02*
X145788731Y-63071728D01*
X145788731Y-62405062D02*
X145693493Y-62500300D01*
X145693493Y-62500300D02*
X145788731Y-62595538D01*
X145788731Y-62595538D02*
X145883969Y-62500300D01*
X145883969Y-62500300D02*
X145788731Y-62405062D01*
X145788731Y-62405062D02*
X145788731Y-62595538D01*
X147503017Y-64309824D02*
X147312541Y-64405062D01*
X147312541Y-64405062D02*
X146931588Y-64405062D01*
X146931588Y-64405062D02*
X146741112Y-64309824D01*
X146741112Y-64309824D02*
X146645874Y-64119347D01*
X146645874Y-64119347D02*
X146645874Y-63357443D01*
X146645874Y-63357443D02*
X146741112Y-63166966D01*
X146741112Y-63166966D02*
X146931588Y-63071728D01*
X146931588Y-63071728D02*
X147312541Y-63071728D01*
X147312541Y-63071728D02*
X147503017Y-63166966D01*
X147503017Y-63166966D02*
X147598255Y-63357443D01*
X147598255Y-63357443D02*
X147598255Y-63547919D01*
X147598255Y-63547919D02*
X146645874Y-63738395D01*
X148455398Y-64405062D02*
X148455398Y-63071728D01*
X148455398Y-63452681D02*
X148550636Y-63262204D01*
X148550636Y-63262204D02*
X148645874Y-63166966D01*
X148645874Y-63166966D02*
X148836350Y-63071728D01*
X148836350Y-63071728D02*
X149026827Y-63071728D01*
X149598255Y-64309824D02*
X149788731Y-64405062D01*
X149788731Y-64405062D02*
X150169683Y-64405062D01*
X150169683Y-64405062D02*
X150360160Y-64309824D01*
X150360160Y-64309824D02*
X150455398Y-64119347D01*
X150455398Y-64119347D02*
X150455398Y-64024109D01*
X150455398Y-64024109D02*
X150360160Y-63833633D01*
X150360160Y-63833633D02*
X150169683Y-63738395D01*
X150169683Y-63738395D02*
X149883969Y-63738395D01*
X149883969Y-63738395D02*
X149693493Y-63643157D01*
X149693493Y-63643157D02*
X149598255Y-63452681D01*
X149598255Y-63452681D02*
X149598255Y-63357443D01*
X149598255Y-63357443D02*
X149693493Y-63166966D01*
X149693493Y-63166966D02*
X149883969Y-63071728D01*
X149883969Y-63071728D02*
X150169683Y-63071728D01*
X150169683Y-63071728D02*
X150360160Y-63166966D01*
X58264911Y-67624950D02*
X58264911Y-65624950D01*
X58264911Y-67529712D02*
X58074435Y-67624950D01*
X58074435Y-67624950D02*
X57693482Y-67624950D01*
X57693482Y-67624950D02*
X57503006Y-67529712D01*
X57503006Y-67529712D02*
X57407768Y-67434473D01*
X57407768Y-67434473D02*
X57312530Y-67243997D01*
X57312530Y-67243997D02*
X57312530Y-66672569D01*
X57312530Y-66672569D02*
X57407768Y-66482092D01*
X57407768Y-66482092D02*
X57503006Y-66386854D01*
X57503006Y-66386854D02*
X57693482Y-66291616D01*
X57693482Y-66291616D02*
X58074435Y-66291616D01*
X58074435Y-66291616D02*
X58264911Y-66386854D01*
X59979197Y-67529712D02*
X59788721Y-67624950D01*
X59788721Y-67624950D02*
X59407768Y-67624950D01*
X59407768Y-67624950D02*
X59217292Y-67529712D01*
X59217292Y-67529712D02*
X59122054Y-67339235D01*
X59122054Y-67339235D02*
X59122054Y-66577331D01*
X59122054Y-66577331D02*
X59217292Y-66386854D01*
X59217292Y-66386854D02*
X59407768Y-66291616D01*
X59407768Y-66291616D02*
X59788721Y-66291616D01*
X59788721Y-66291616D02*
X59979197Y-66386854D01*
X59979197Y-66386854D02*
X60074435Y-66577331D01*
X60074435Y-66577331D02*
X60074435Y-66767807D01*
X60074435Y-66767807D02*
X59122054Y-66958283D01*
X63312531Y-67529712D02*
X63122055Y-67624950D01*
X63122055Y-67624950D02*
X62741102Y-67624950D01*
X62741102Y-67624950D02*
X62550626Y-67529712D01*
X62550626Y-67529712D02*
X62455388Y-67434473D01*
X62455388Y-67434473D02*
X62360150Y-67243997D01*
X62360150Y-67243997D02*
X62360150Y-66672569D01*
X62360150Y-66672569D02*
X62455388Y-66482092D01*
X62455388Y-66482092D02*
X62550626Y-66386854D01*
X62550626Y-66386854D02*
X62741102Y-66291616D01*
X62741102Y-66291616D02*
X63122055Y-66291616D01*
X63122055Y-66291616D02*
X63312531Y-66386854D01*
X64455388Y-67624950D02*
X64264912Y-67529712D01*
X64264912Y-67529712D02*
X64169674Y-67434473D01*
X64169674Y-67434473D02*
X64074436Y-67243997D01*
X64074436Y-67243997D02*
X64074436Y-66672569D01*
X64074436Y-66672569D02*
X64169674Y-66482092D01*
X64169674Y-66482092D02*
X64264912Y-66386854D01*
X64264912Y-66386854D02*
X64455388Y-66291616D01*
X64455388Y-66291616D02*
X64741103Y-66291616D01*
X64741103Y-66291616D02*
X64931579Y-66386854D01*
X64931579Y-66386854D02*
X65026817Y-66482092D01*
X65026817Y-66482092D02*
X65122055Y-66672569D01*
X65122055Y-66672569D02*
X65122055Y-67243997D01*
X65122055Y-67243997D02*
X65026817Y-67434473D01*
X65026817Y-67434473D02*
X64931579Y-67529712D01*
X64931579Y-67529712D02*
X64741103Y-67624950D01*
X64741103Y-67624950D02*
X64455388Y-67624950D01*
X65979198Y-66291616D02*
X65979198Y-67624950D01*
X65979198Y-66482092D02*
X66074436Y-66386854D01*
X66074436Y-66386854D02*
X66264912Y-66291616D01*
X66264912Y-66291616D02*
X66550627Y-66291616D01*
X66550627Y-66291616D02*
X66741103Y-66386854D01*
X66741103Y-66386854D02*
X66836341Y-66577331D01*
X66836341Y-66577331D02*
X66836341Y-67624950D01*
X67503008Y-66291616D02*
X68264912Y-66291616D01*
X67788722Y-67624950D02*
X67788722Y-65910664D01*
X67788722Y-65910664D02*
X67883960Y-65720188D01*
X67883960Y-65720188D02*
X68074436Y-65624950D01*
X68074436Y-65624950D02*
X68264912Y-65624950D01*
X68931579Y-67624950D02*
X68931579Y-66291616D01*
X68931579Y-65624950D02*
X68836341Y-65720188D01*
X68836341Y-65720188D02*
X68931579Y-65815426D01*
X68931579Y-65815426D02*
X69026817Y-65720188D01*
X69026817Y-65720188D02*
X68931579Y-65624950D01*
X68931579Y-65624950D02*
X68931579Y-65815426D01*
X70741103Y-67624950D02*
X70741103Y-66577331D01*
X70741103Y-66577331D02*
X70645865Y-66386854D01*
X70645865Y-66386854D02*
X70455389Y-66291616D01*
X70455389Y-66291616D02*
X70074436Y-66291616D01*
X70074436Y-66291616D02*
X69883960Y-66386854D01*
X70741103Y-67529712D02*
X70550627Y-67624950D01*
X70550627Y-67624950D02*
X70074436Y-67624950D01*
X70074436Y-67624950D02*
X69883960Y-67529712D01*
X69883960Y-67529712D02*
X69788722Y-67339235D01*
X69788722Y-67339235D02*
X69788722Y-67148759D01*
X69788722Y-67148759D02*
X69883960Y-66958283D01*
X69883960Y-66958283D02*
X70074436Y-66863045D01*
X70074436Y-66863045D02*
X70550627Y-66863045D01*
X70550627Y-66863045D02*
X70741103Y-66767807D01*
X71693484Y-66291616D02*
X71693484Y-67624950D01*
X71693484Y-66482092D02*
X71788722Y-66386854D01*
X71788722Y-66386854D02*
X71979198Y-66291616D01*
X71979198Y-66291616D02*
X72264913Y-66291616D01*
X72264913Y-66291616D02*
X72455389Y-66386854D01*
X72455389Y-66386854D02*
X72550627Y-66577331D01*
X72550627Y-66577331D02*
X72550627Y-67624950D01*
X74360151Y-67529712D02*
X74169675Y-67624950D01*
X74169675Y-67624950D02*
X73788722Y-67624950D01*
X73788722Y-67624950D02*
X73598246Y-67529712D01*
X73598246Y-67529712D02*
X73503008Y-67434473D01*
X73503008Y-67434473D02*
X73407770Y-67243997D01*
X73407770Y-67243997D02*
X73407770Y-66672569D01*
X73407770Y-66672569D02*
X73503008Y-66482092D01*
X73503008Y-66482092D02*
X73598246Y-66386854D01*
X73598246Y-66386854D02*
X73788722Y-66291616D01*
X73788722Y-66291616D02*
X74169675Y-66291616D01*
X74169675Y-66291616D02*
X74360151Y-66386854D01*
X75979199Y-67529712D02*
X75788723Y-67624950D01*
X75788723Y-67624950D02*
X75407770Y-67624950D01*
X75407770Y-67624950D02*
X75217294Y-67529712D01*
X75217294Y-67529712D02*
X75122056Y-67339235D01*
X75122056Y-67339235D02*
X75122056Y-66577331D01*
X75122056Y-66577331D02*
X75217294Y-66386854D01*
X75217294Y-66386854D02*
X75407770Y-66291616D01*
X75407770Y-66291616D02*
X75788723Y-66291616D01*
X75788723Y-66291616D02*
X75979199Y-66386854D01*
X75979199Y-66386854D02*
X76074437Y-66577331D01*
X76074437Y-66577331D02*
X76074437Y-66767807D01*
X76074437Y-66767807D02*
X75122056Y-66958283D01*
X78360152Y-67529712D02*
X78550628Y-67624950D01*
X78550628Y-67624950D02*
X78931580Y-67624950D01*
X78931580Y-67624950D02*
X79122057Y-67529712D01*
X79122057Y-67529712D02*
X79217295Y-67339235D01*
X79217295Y-67339235D02*
X79217295Y-67243997D01*
X79217295Y-67243997D02*
X79122057Y-67053521D01*
X79122057Y-67053521D02*
X78931580Y-66958283D01*
X78931580Y-66958283D02*
X78645866Y-66958283D01*
X78645866Y-66958283D02*
X78455390Y-66863045D01*
X78455390Y-66863045D02*
X78360152Y-66672569D01*
X78360152Y-66672569D02*
X78360152Y-66577331D01*
X78360152Y-66577331D02*
X78455390Y-66386854D01*
X78455390Y-66386854D02*
X78645866Y-66291616D01*
X78645866Y-66291616D02*
X78931580Y-66291616D01*
X78931580Y-66291616D02*
X79122057Y-66386854D01*
X80360152Y-67624950D02*
X80169676Y-67529712D01*
X80169676Y-67529712D02*
X80074438Y-67434473D01*
X80074438Y-67434473D02*
X79979200Y-67243997D01*
X79979200Y-67243997D02*
X79979200Y-66672569D01*
X79979200Y-66672569D02*
X80074438Y-66482092D01*
X80074438Y-66482092D02*
X80169676Y-66386854D01*
X80169676Y-66386854D02*
X80360152Y-66291616D01*
X80360152Y-66291616D02*
X80645867Y-66291616D01*
X80645867Y-66291616D02*
X80836343Y-66386854D01*
X80836343Y-66386854D02*
X80931581Y-66482092D01*
X80931581Y-66482092D02*
X81026819Y-66672569D01*
X81026819Y-66672569D02*
X81026819Y-67243997D01*
X81026819Y-67243997D02*
X80931581Y-67434473D01*
X80931581Y-67434473D02*
X80836343Y-67529712D01*
X80836343Y-67529712D02*
X80645867Y-67624950D01*
X80645867Y-67624950D02*
X80360152Y-67624950D01*
X81883962Y-66291616D02*
X81883962Y-67624950D01*
X81883962Y-66482092D02*
X81979200Y-66386854D01*
X81979200Y-66386854D02*
X82169676Y-66291616D01*
X82169676Y-66291616D02*
X82455391Y-66291616D01*
X82455391Y-66291616D02*
X82645867Y-66386854D01*
X82645867Y-66386854D02*
X82741105Y-66577331D01*
X82741105Y-66577331D02*
X82741105Y-67624950D01*
X83407772Y-66291616D02*
X84169676Y-66291616D01*
X83693486Y-65624950D02*
X83693486Y-67339235D01*
X83693486Y-67339235D02*
X83788724Y-67529712D01*
X83788724Y-67529712D02*
X83979200Y-67624950D01*
X83979200Y-67624950D02*
X84169676Y-67624950D01*
X87217296Y-67624950D02*
X87217296Y-66577331D01*
X87217296Y-66577331D02*
X87122058Y-66386854D01*
X87122058Y-66386854D02*
X86931582Y-66291616D01*
X86931582Y-66291616D02*
X86550629Y-66291616D01*
X86550629Y-66291616D02*
X86360153Y-66386854D01*
X87217296Y-67529712D02*
X87026820Y-67624950D01*
X87026820Y-67624950D02*
X86550629Y-67624950D01*
X86550629Y-67624950D02*
X86360153Y-67529712D01*
X86360153Y-67529712D02*
X86264915Y-67339235D01*
X86264915Y-67339235D02*
X86264915Y-67148759D01*
X86264915Y-67148759D02*
X86360153Y-66958283D01*
X86360153Y-66958283D02*
X86550629Y-66863045D01*
X86550629Y-66863045D02*
X87026820Y-66863045D01*
X87026820Y-66863045D02*
X87217296Y-66767807D01*
X87883963Y-66291616D02*
X88645867Y-66291616D01*
X88169677Y-67624950D02*
X88169677Y-65910664D01*
X88169677Y-65910664D02*
X88264915Y-65720188D01*
X88264915Y-65720188D02*
X88455391Y-65624950D01*
X88455391Y-65624950D02*
X88645867Y-65624950D01*
X89026820Y-66291616D02*
X89788724Y-66291616D01*
X89312534Y-67624950D02*
X89312534Y-65910664D01*
X89312534Y-65910664D02*
X89407772Y-65720188D01*
X89407772Y-65720188D02*
X89598248Y-65624950D01*
X89598248Y-65624950D02*
X89788724Y-65624950D01*
X90455391Y-67624950D02*
X90455391Y-66291616D01*
X90455391Y-65624950D02*
X90360153Y-65720188D01*
X90360153Y-65720188D02*
X90455391Y-65815426D01*
X90455391Y-65815426D02*
X90550629Y-65720188D01*
X90550629Y-65720188D02*
X90455391Y-65624950D01*
X90455391Y-65624950D02*
X90455391Y-65815426D01*
X92264915Y-67529712D02*
X92074439Y-67624950D01*
X92074439Y-67624950D02*
X91693486Y-67624950D01*
X91693486Y-67624950D02*
X91503010Y-67529712D01*
X91503010Y-67529712D02*
X91407772Y-67434473D01*
X91407772Y-67434473D02*
X91312534Y-67243997D01*
X91312534Y-67243997D02*
X91312534Y-66672569D01*
X91312534Y-66672569D02*
X91407772Y-66482092D01*
X91407772Y-66482092D02*
X91503010Y-66386854D01*
X91503010Y-66386854D02*
X91693486Y-66291616D01*
X91693486Y-66291616D02*
X92074439Y-66291616D01*
X92074439Y-66291616D02*
X92264915Y-66386854D01*
X93122058Y-67624950D02*
X93122058Y-65624950D01*
X93979201Y-67624950D02*
X93979201Y-66577331D01*
X93979201Y-66577331D02*
X93883963Y-66386854D01*
X93883963Y-66386854D02*
X93693487Y-66291616D01*
X93693487Y-66291616D02*
X93407772Y-66291616D01*
X93407772Y-66291616D02*
X93217296Y-66386854D01*
X93217296Y-66386854D02*
X93122058Y-66482092D01*
X95693487Y-67529712D02*
X95503011Y-67624950D01*
X95503011Y-67624950D02*
X95122058Y-67624950D01*
X95122058Y-67624950D02*
X94931582Y-67529712D01*
X94931582Y-67529712D02*
X94836344Y-67339235D01*
X94836344Y-67339235D02*
X94836344Y-66577331D01*
X94836344Y-66577331D02*
X94931582Y-66386854D01*
X94931582Y-66386854D02*
X95122058Y-66291616D01*
X95122058Y-66291616D02*
X95503011Y-66291616D01*
X95503011Y-66291616D02*
X95693487Y-66386854D01*
X95693487Y-66386854D02*
X95788725Y-66577331D01*
X95788725Y-66577331D02*
X95788725Y-66767807D01*
X95788725Y-66767807D02*
X94836344Y-66958283D01*
X95503011Y-65529712D02*
X95217296Y-65815426D01*
X96550630Y-67529712D02*
X96741106Y-67624950D01*
X96741106Y-67624950D02*
X97122058Y-67624950D01*
X97122058Y-67624950D02*
X97312535Y-67529712D01*
X97312535Y-67529712D02*
X97407773Y-67339235D01*
X97407773Y-67339235D02*
X97407773Y-67243997D01*
X97407773Y-67243997D02*
X97312535Y-67053521D01*
X97312535Y-67053521D02*
X97122058Y-66958283D01*
X97122058Y-66958283D02*
X96836344Y-66958283D01*
X96836344Y-66958283D02*
X96645868Y-66863045D01*
X96645868Y-66863045D02*
X96550630Y-66672569D01*
X96550630Y-66672569D02*
X96550630Y-66577331D01*
X96550630Y-66577331D02*
X96645868Y-66386854D01*
X96645868Y-66386854D02*
X96836344Y-66291616D01*
X96836344Y-66291616D02*
X97122058Y-66291616D01*
X97122058Y-66291616D02*
X97312535Y-66386854D01*
X99693488Y-67529712D02*
X99883964Y-67624950D01*
X99883964Y-67624950D02*
X100264916Y-67624950D01*
X100264916Y-67624950D02*
X100455393Y-67529712D01*
X100455393Y-67529712D02*
X100550631Y-67339235D01*
X100550631Y-67339235D02*
X100550631Y-67243997D01*
X100550631Y-67243997D02*
X100455393Y-67053521D01*
X100455393Y-67053521D02*
X100264916Y-66958283D01*
X100264916Y-66958283D02*
X99979202Y-66958283D01*
X99979202Y-66958283D02*
X99788726Y-66863045D01*
X99788726Y-66863045D02*
X99693488Y-66672569D01*
X99693488Y-66672569D02*
X99693488Y-66577331D01*
X99693488Y-66577331D02*
X99788726Y-66386854D01*
X99788726Y-66386854D02*
X99979202Y-66291616D01*
X99979202Y-66291616D02*
X100264916Y-66291616D01*
X100264916Y-66291616D02*
X100455393Y-66386854D01*
X102264917Y-66291616D02*
X102264917Y-67624950D01*
X101407774Y-66291616D02*
X101407774Y-67339235D01*
X101407774Y-67339235D02*
X101503012Y-67529712D01*
X101503012Y-67529712D02*
X101693488Y-67624950D01*
X101693488Y-67624950D02*
X101979203Y-67624950D01*
X101979203Y-67624950D02*
X102169679Y-67529712D01*
X102169679Y-67529712D02*
X102264917Y-67434473D01*
X103217298Y-67624950D02*
X103217298Y-66291616D01*
X103217298Y-66672569D02*
X103312536Y-66482092D01*
X103312536Y-66482092D02*
X103407774Y-66386854D01*
X103407774Y-66386854D02*
X103598250Y-66291616D01*
X103598250Y-66291616D02*
X103788727Y-66291616D01*
X106264917Y-67624950D02*
X106074441Y-67529712D01*
X106074441Y-67529712D02*
X105979203Y-67339235D01*
X105979203Y-67339235D02*
X105979203Y-65624950D01*
X107883965Y-67624950D02*
X107883965Y-66577331D01*
X107883965Y-66577331D02*
X107788727Y-66386854D01*
X107788727Y-66386854D02*
X107598251Y-66291616D01*
X107598251Y-66291616D02*
X107217298Y-66291616D01*
X107217298Y-66291616D02*
X107026822Y-66386854D01*
X107883965Y-67529712D02*
X107693489Y-67624950D01*
X107693489Y-67624950D02*
X107217298Y-67624950D01*
X107217298Y-67624950D02*
X107026822Y-67529712D01*
X107026822Y-67529712D02*
X106931584Y-67339235D01*
X106931584Y-67339235D02*
X106931584Y-67148759D01*
X106931584Y-67148759D02*
X107026822Y-66958283D01*
X107026822Y-66958283D02*
X107217298Y-66863045D01*
X107217298Y-66863045D02*
X107693489Y-66863045D01*
X107693489Y-66863045D02*
X107883965Y-66767807D01*
X110360156Y-67624950D02*
X110360156Y-66291616D01*
X110360156Y-66482092D02*
X110455394Y-66386854D01*
X110455394Y-66386854D02*
X110645870Y-66291616D01*
X110645870Y-66291616D02*
X110931585Y-66291616D01*
X110931585Y-66291616D02*
X111122061Y-66386854D01*
X111122061Y-66386854D02*
X111217299Y-66577331D01*
X111217299Y-66577331D02*
X111217299Y-67624950D01*
X111217299Y-66577331D02*
X111312537Y-66386854D01*
X111312537Y-66386854D02*
X111503013Y-66291616D01*
X111503013Y-66291616D02*
X111788727Y-66291616D01*
X111788727Y-66291616D02*
X111979204Y-66386854D01*
X111979204Y-66386854D02*
X112074442Y-66577331D01*
X112074442Y-66577331D02*
X112074442Y-67624950D01*
X113883966Y-67624950D02*
X113883966Y-66577331D01*
X113883966Y-66577331D02*
X113788728Y-66386854D01*
X113788728Y-66386854D02*
X113598252Y-66291616D01*
X113598252Y-66291616D02*
X113217299Y-66291616D01*
X113217299Y-66291616D02*
X113026823Y-66386854D01*
X113883966Y-67529712D02*
X113693490Y-67624950D01*
X113693490Y-67624950D02*
X113217299Y-67624950D01*
X113217299Y-67624950D02*
X113026823Y-67529712D01*
X113026823Y-67529712D02*
X112931585Y-67339235D01*
X112931585Y-67339235D02*
X112931585Y-67148759D01*
X112931585Y-67148759D02*
X113026823Y-66958283D01*
X113026823Y-66958283D02*
X113217299Y-66863045D01*
X113217299Y-66863045D02*
X113693490Y-66863045D01*
X113693490Y-66863045D02*
X113883966Y-66767807D01*
X115693490Y-67529712D02*
X115503014Y-67624950D01*
X115503014Y-67624950D02*
X115122061Y-67624950D01*
X115122061Y-67624950D02*
X114931585Y-67529712D01*
X114931585Y-67529712D02*
X114836347Y-67434473D01*
X114836347Y-67434473D02*
X114741109Y-67243997D01*
X114741109Y-67243997D02*
X114741109Y-66672569D01*
X114741109Y-66672569D02*
X114836347Y-66482092D01*
X114836347Y-66482092D02*
X114931585Y-66386854D01*
X114931585Y-66386854D02*
X115122061Y-66291616D01*
X115122061Y-66291616D02*
X115503014Y-66291616D01*
X115503014Y-66291616D02*
X115693490Y-66386854D01*
X116550633Y-67624950D02*
X116550633Y-65624950D01*
X117407776Y-67624950D02*
X117407776Y-66577331D01*
X117407776Y-66577331D02*
X117312538Y-66386854D01*
X117312538Y-66386854D02*
X117122062Y-66291616D01*
X117122062Y-66291616D02*
X116836347Y-66291616D01*
X116836347Y-66291616D02*
X116645871Y-66386854D01*
X116645871Y-66386854D02*
X116550633Y-66482092D01*
X118360157Y-67624950D02*
X118360157Y-66291616D01*
X118360157Y-65624950D02*
X118264919Y-65720188D01*
X118264919Y-65720188D02*
X118360157Y-65815426D01*
X118360157Y-65815426D02*
X118455395Y-65720188D01*
X118455395Y-65720188D02*
X118360157Y-65624950D01*
X118360157Y-65624950D02*
X118360157Y-65815426D01*
X119312538Y-66291616D02*
X119312538Y-67624950D01*
X119312538Y-66482092D02*
X119407776Y-66386854D01*
X119407776Y-66386854D02*
X119598252Y-66291616D01*
X119598252Y-66291616D02*
X119883967Y-66291616D01*
X119883967Y-66291616D02*
X120074443Y-66386854D01*
X120074443Y-66386854D02*
X120169681Y-66577331D01*
X120169681Y-66577331D02*
X120169681Y-67624950D01*
X121883967Y-67529712D02*
X121693491Y-67624950D01*
X121693491Y-67624950D02*
X121312538Y-67624950D01*
X121312538Y-67624950D02*
X121122062Y-67529712D01*
X121122062Y-67529712D02*
X121026824Y-67339235D01*
X121026824Y-67339235D02*
X121026824Y-66577331D01*
X121026824Y-66577331D02*
X121122062Y-66386854D01*
X121122062Y-66386854D02*
X121312538Y-66291616D01*
X121312538Y-66291616D02*
X121693491Y-66291616D01*
X121693491Y-66291616D02*
X121883967Y-66386854D01*
X121883967Y-66386854D02*
X121979205Y-66577331D01*
X121979205Y-66577331D02*
X121979205Y-66767807D01*
X121979205Y-66767807D02*
X121026824Y-66958283D01*
X124645872Y-67624950D02*
X124455396Y-67529712D01*
X124455396Y-67529712D02*
X124360158Y-67434473D01*
X124360158Y-67434473D02*
X124264920Y-67243997D01*
X124264920Y-67243997D02*
X124264920Y-66672569D01*
X124264920Y-66672569D02*
X124360158Y-66482092D01*
X124360158Y-66482092D02*
X124455396Y-66386854D01*
X124455396Y-66386854D02*
X124645872Y-66291616D01*
X124645872Y-66291616D02*
X124931587Y-66291616D01*
X124931587Y-66291616D02*
X125122063Y-66386854D01*
X125122063Y-66386854D02*
X125217301Y-66482092D01*
X125217301Y-66482092D02*
X125312539Y-66672569D01*
X125312539Y-66672569D02*
X125312539Y-67243997D01*
X125312539Y-67243997D02*
X125217301Y-67434473D01*
X125217301Y-67434473D02*
X125122063Y-67529712D01*
X125122063Y-67529712D02*
X124931587Y-67624950D01*
X124931587Y-67624950D02*
X124645872Y-67624950D01*
X127026825Y-66291616D02*
X127026825Y-67624950D01*
X126169682Y-66291616D02*
X126169682Y-67339235D01*
X126169682Y-67339235D02*
X126264920Y-67529712D01*
X126264920Y-67529712D02*
X126455396Y-67624950D01*
X126455396Y-67624950D02*
X126741111Y-67624950D01*
X126741111Y-67624950D02*
X126931587Y-67529712D01*
X126931587Y-67529712D02*
X127026825Y-67434473D01*
X129407778Y-67529712D02*
X129598254Y-67624950D01*
X129598254Y-67624950D02*
X129979206Y-67624950D01*
X129979206Y-67624950D02*
X130169683Y-67529712D01*
X130169683Y-67529712D02*
X130264921Y-67339235D01*
X130264921Y-67339235D02*
X130264921Y-67243997D01*
X130264921Y-67243997D02*
X130169683Y-67053521D01*
X130169683Y-67053521D02*
X129979206Y-66958283D01*
X129979206Y-66958283D02*
X129693492Y-66958283D01*
X129693492Y-66958283D02*
X129503016Y-66863045D01*
X129503016Y-66863045D02*
X129407778Y-66672569D01*
X129407778Y-66672569D02*
X129407778Y-66577331D01*
X129407778Y-66577331D02*
X129503016Y-66386854D01*
X129503016Y-66386854D02*
X129693492Y-66291616D01*
X129693492Y-66291616D02*
X129979206Y-66291616D01*
X129979206Y-66291616D02*
X130169683Y-66386854D01*
X131979207Y-66291616D02*
X131979207Y-67624950D01*
X131122064Y-66291616D02*
X131122064Y-67339235D01*
X131122064Y-67339235D02*
X131217302Y-67529712D01*
X131217302Y-67529712D02*
X131407778Y-67624950D01*
X131407778Y-67624950D02*
X131693493Y-67624950D01*
X131693493Y-67624950D02*
X131883969Y-67529712D01*
X131883969Y-67529712D02*
X131979207Y-67434473D01*
X132931588Y-67624950D02*
X132931588Y-66291616D01*
X132931588Y-66672569D02*
X133026826Y-66482092D01*
X133026826Y-66482092D02*
X133122064Y-66386854D01*
X133122064Y-66386854D02*
X133312540Y-66291616D01*
X133312540Y-66291616D02*
X133503017Y-66291616D01*
X136550636Y-66291616D02*
X136550636Y-67624950D01*
X135693493Y-66291616D02*
X135693493Y-67339235D01*
X135693493Y-67339235D02*
X135788731Y-67529712D01*
X135788731Y-67529712D02*
X135979207Y-67624950D01*
X135979207Y-67624950D02*
X136264922Y-67624950D01*
X136264922Y-67624950D02*
X136455398Y-67529712D01*
X136455398Y-67529712D02*
X136550636Y-67434473D01*
X137503017Y-66291616D02*
X137503017Y-67624950D01*
X137503017Y-66482092D02*
X137598255Y-66386854D01*
X137598255Y-66386854D02*
X137788731Y-66291616D01*
X137788731Y-66291616D02*
X138074446Y-66291616D01*
X138074446Y-66291616D02*
X138264922Y-66386854D01*
X138264922Y-66386854D02*
X138360160Y-66577331D01*
X138360160Y-66577331D02*
X138360160Y-67624950D01*
X140836351Y-67624950D02*
X140836351Y-66291616D01*
X140836351Y-66482092D02*
X140931589Y-66386854D01*
X140931589Y-66386854D02*
X141122065Y-66291616D01*
X141122065Y-66291616D02*
X141407780Y-66291616D01*
X141407780Y-66291616D02*
X141598256Y-66386854D01*
X141598256Y-66386854D02*
X141693494Y-66577331D01*
X141693494Y-66577331D02*
X141693494Y-67624950D01*
X141693494Y-66577331D02*
X141788732Y-66386854D01*
X141788732Y-66386854D02*
X141979208Y-66291616D01*
X141979208Y-66291616D02*
X142264922Y-66291616D01*
X142264922Y-66291616D02*
X142455399Y-66386854D01*
X142455399Y-66386854D02*
X142550637Y-66577331D01*
X142550637Y-66577331D02*
X142550637Y-67624950D01*
X144360161Y-66291616D02*
X144360161Y-67624950D01*
X143503018Y-66291616D02*
X143503018Y-67339235D01*
X143503018Y-67339235D02*
X143598256Y-67529712D01*
X143598256Y-67529712D02*
X143788732Y-67624950D01*
X143788732Y-67624950D02*
X144074447Y-67624950D01*
X144074447Y-67624950D02*
X144264923Y-67529712D01*
X144264923Y-67529712D02*
X144360161Y-67434473D01*
X145312542Y-67624950D02*
X145312542Y-66291616D01*
X145312542Y-66672569D02*
X145407780Y-66482092D01*
X145407780Y-66482092D02*
X145503018Y-66386854D01*
X145503018Y-66386854D02*
X145693494Y-66291616D01*
X145693494Y-66291616D02*
X145883971Y-66291616D01*
X148931590Y-67624950D02*
X148931590Y-65624950D01*
X148931590Y-67529712D02*
X148741114Y-67624950D01*
X148741114Y-67624950D02*
X148360161Y-67624950D01*
X148360161Y-67624950D02*
X148169685Y-67529712D01*
X148169685Y-67529712D02*
X148074447Y-67434473D01*
X148074447Y-67434473D02*
X147979209Y-67243997D01*
X147979209Y-67243997D02*
X147979209Y-66672569D01*
X147979209Y-66672569D02*
X148074447Y-66482092D01*
X148074447Y-66482092D02*
X148169685Y-66386854D01*
X148169685Y-66386854D02*
X148360161Y-66291616D01*
X148360161Y-66291616D02*
X148741114Y-66291616D01*
X148741114Y-66291616D02*
X148931590Y-66386854D01*
X150645876Y-67529712D02*
X150455400Y-67624950D01*
X150455400Y-67624950D02*
X150074447Y-67624950D01*
X150074447Y-67624950D02*
X149883971Y-67529712D01*
X149883971Y-67529712D02*
X149788733Y-67339235D01*
X149788733Y-67339235D02*
X149788733Y-66577331D01*
X149788733Y-66577331D02*
X149883971Y-66386854D01*
X149883971Y-66386854D02*
X150074447Y-66291616D01*
X150074447Y-66291616D02*
X150455400Y-66291616D01*
X150455400Y-66291616D02*
X150645876Y-66386854D01*
X150645876Y-66386854D02*
X150741114Y-66577331D01*
X150741114Y-66577331D02*
X150741114Y-66767807D01*
X150741114Y-66767807D02*
X149788733Y-66958283D01*
X152836353Y-66291616D02*
X153598257Y-66291616D01*
X153122067Y-67624950D02*
X153122067Y-65910664D01*
X153122067Y-65910664D02*
X153217305Y-65720188D01*
X153217305Y-65720188D02*
X153407781Y-65624950D01*
X153407781Y-65624950D02*
X153598257Y-65624950D01*
X155122067Y-67624950D02*
X155122067Y-66577331D01*
X155122067Y-66577331D02*
X155026829Y-66386854D01*
X155026829Y-66386854D02*
X154836353Y-66291616D01*
X154836353Y-66291616D02*
X154455400Y-66291616D01*
X154455400Y-66291616D02*
X154264924Y-66386854D01*
X155122067Y-67529712D02*
X154931591Y-67624950D01*
X154931591Y-67624950D02*
X154455400Y-67624950D01*
X154455400Y-67624950D02*
X154264924Y-67529712D01*
X154264924Y-67529712D02*
X154169686Y-67339235D01*
X154169686Y-67339235D02*
X154169686Y-67148759D01*
X154169686Y-67148759D02*
X154264924Y-66958283D01*
X154264924Y-66958283D02*
X154455400Y-66863045D01*
X154455400Y-66863045D02*
X154931591Y-66863045D01*
X154931591Y-66863045D02*
X155122067Y-66767807D01*
X156931591Y-67529712D02*
X156741115Y-67624950D01*
X156741115Y-67624950D02*
X156360162Y-67624950D01*
X156360162Y-67624950D02*
X156169686Y-67529712D01*
X156169686Y-67529712D02*
X156074448Y-67434473D01*
X156074448Y-67434473D02*
X155979210Y-67243997D01*
X155979210Y-67243997D02*
X155979210Y-66672569D01*
X155979210Y-66672569D02*
X156074448Y-66482092D01*
X156074448Y-66482092D02*
X156169686Y-66386854D01*
X156169686Y-66386854D02*
X156360162Y-66291616D01*
X156360162Y-66291616D02*
X156741115Y-66291616D01*
X156741115Y-66291616D02*
X156931591Y-66386854D01*
X156550638Y-67720188D02*
X156741115Y-67815426D01*
X156741115Y-67815426D02*
X156836353Y-68005902D01*
X156836353Y-68005902D02*
X156741115Y-68196378D01*
X156741115Y-68196378D02*
X156550638Y-68291616D01*
X156550638Y-68291616D02*
X156264924Y-68291616D01*
X158074448Y-67624950D02*
X157883972Y-67529712D01*
X157883972Y-67529712D02*
X157788734Y-67434473D01*
X157788734Y-67434473D02*
X157693496Y-67243997D01*
X157693496Y-67243997D02*
X157693496Y-66672569D01*
X157693496Y-66672569D02*
X157788734Y-66482092D01*
X157788734Y-66482092D02*
X157883972Y-66386854D01*
X157883972Y-66386854D02*
X158074448Y-66291616D01*
X158074448Y-66291616D02*
X158360163Y-66291616D01*
X158360163Y-66291616D02*
X158550639Y-66386854D01*
X158550639Y-66386854D02*
X158645877Y-66482092D01*
X158645877Y-66482092D02*
X158741115Y-66672569D01*
X158741115Y-66672569D02*
X158741115Y-67243997D01*
X158741115Y-67243997D02*
X158645877Y-67434473D01*
X158645877Y-67434473D02*
X158550639Y-67529712D01*
X158550639Y-67529712D02*
X158360163Y-67624950D01*
X158360163Y-67624950D02*
X158074448Y-67624950D01*
X159598258Y-66291616D02*
X159598258Y-67624950D01*
X159598258Y-66482092D02*
X159693496Y-66386854D01*
X159693496Y-66386854D02*
X159883972Y-66291616D01*
X159883972Y-66291616D02*
X160169687Y-66291616D01*
X160169687Y-66291616D02*
X160360163Y-66386854D01*
X160360163Y-66386854D02*
X160455401Y-66577331D01*
X160455401Y-66577331D02*
X160455401Y-67624950D01*
X57407768Y-70844838D02*
X57407768Y-68844838D01*
X57407768Y-69606742D02*
X57598244Y-69511504D01*
X57598244Y-69511504D02*
X57979197Y-69511504D01*
X57979197Y-69511504D02*
X58169673Y-69606742D01*
X58169673Y-69606742D02*
X58264911Y-69701980D01*
X58264911Y-69701980D02*
X58360149Y-69892457D01*
X58360149Y-69892457D02*
X58360149Y-70463885D01*
X58360149Y-70463885D02*
X58264911Y-70654361D01*
X58264911Y-70654361D02*
X58169673Y-70749600D01*
X58169673Y-70749600D02*
X57979197Y-70844838D01*
X57979197Y-70844838D02*
X57598244Y-70844838D01*
X57598244Y-70844838D02*
X57407768Y-70749600D01*
X59217292Y-70844838D02*
X59217292Y-69511504D01*
X59217292Y-68844838D02*
X59122054Y-68940076D01*
X59122054Y-68940076D02*
X59217292Y-69035314D01*
X59217292Y-69035314D02*
X59312530Y-68940076D01*
X59312530Y-68940076D02*
X59217292Y-68844838D01*
X59217292Y-68844838D02*
X59217292Y-69035314D01*
X60931578Y-70749600D02*
X60741102Y-70844838D01*
X60741102Y-70844838D02*
X60360149Y-70844838D01*
X60360149Y-70844838D02*
X60169673Y-70749600D01*
X60169673Y-70749600D02*
X60074435Y-70559123D01*
X60074435Y-70559123D02*
X60074435Y-69797219D01*
X60074435Y-69797219D02*
X60169673Y-69606742D01*
X60169673Y-69606742D02*
X60360149Y-69511504D01*
X60360149Y-69511504D02*
X60741102Y-69511504D01*
X60741102Y-69511504D02*
X60931578Y-69606742D01*
X60931578Y-69606742D02*
X61026816Y-69797219D01*
X61026816Y-69797219D02*
X61026816Y-69987695D01*
X61026816Y-69987695D02*
X60074435Y-70178171D01*
X61883959Y-69511504D02*
X61883959Y-70844838D01*
X61883959Y-69701980D02*
X61979197Y-69606742D01*
X61979197Y-69606742D02*
X62169673Y-69511504D01*
X62169673Y-69511504D02*
X62455388Y-69511504D01*
X62455388Y-69511504D02*
X62645864Y-69606742D01*
X62645864Y-69606742D02*
X62741102Y-69797219D01*
X62741102Y-69797219D02*
X62741102Y-70844838D01*
X65026817Y-69511504D02*
X65503007Y-70844838D01*
X65503007Y-70844838D02*
X65979198Y-69511504D01*
X66741103Y-70844838D02*
X66741103Y-69511504D01*
X66741103Y-68844838D02*
X66645865Y-68940076D01*
X66645865Y-68940076D02*
X66741103Y-69035314D01*
X66741103Y-69035314D02*
X66836341Y-68940076D01*
X66836341Y-68940076D02*
X66741103Y-68844838D01*
X66741103Y-68844838D02*
X66741103Y-69035314D01*
X67598246Y-70749600D02*
X67788722Y-70844838D01*
X67788722Y-70844838D02*
X68169674Y-70844838D01*
X68169674Y-70844838D02*
X68360151Y-70749600D01*
X68360151Y-70749600D02*
X68455389Y-70559123D01*
X68455389Y-70559123D02*
X68455389Y-70463885D01*
X68455389Y-70463885D02*
X68360151Y-70273409D01*
X68360151Y-70273409D02*
X68169674Y-70178171D01*
X68169674Y-70178171D02*
X67883960Y-70178171D01*
X67883960Y-70178171D02*
X67693484Y-70082933D01*
X67693484Y-70082933D02*
X67598246Y-69892457D01*
X67598246Y-69892457D02*
X67598246Y-69797219D01*
X67598246Y-69797219D02*
X67693484Y-69606742D01*
X67693484Y-69606742D02*
X67883960Y-69511504D01*
X67883960Y-69511504D02*
X68169674Y-69511504D01*
X68169674Y-69511504D02*
X68360151Y-69606742D01*
X69312532Y-70844838D02*
X69312532Y-69511504D01*
X69312532Y-68844838D02*
X69217294Y-68940076D01*
X69217294Y-68940076D02*
X69312532Y-69035314D01*
X69312532Y-69035314D02*
X69407770Y-68940076D01*
X69407770Y-68940076D02*
X69312532Y-68844838D01*
X69312532Y-68844838D02*
X69312532Y-69035314D01*
X70264913Y-70844838D02*
X70264913Y-68844838D01*
X70264913Y-69606742D02*
X70455389Y-69511504D01*
X70455389Y-69511504D02*
X70836342Y-69511504D01*
X70836342Y-69511504D02*
X71026818Y-69606742D01*
X71026818Y-69606742D02*
X71122056Y-69701980D01*
X71122056Y-69701980D02*
X71217294Y-69892457D01*
X71217294Y-69892457D02*
X71217294Y-70463885D01*
X71217294Y-70463885D02*
X71122056Y-70654361D01*
X71122056Y-70654361D02*
X71026818Y-70749600D01*
X71026818Y-70749600D02*
X70836342Y-70844838D01*
X70836342Y-70844838D02*
X70455389Y-70844838D01*
X70455389Y-70844838D02*
X70264913Y-70749600D01*
X72360151Y-70844838D02*
X72169675Y-70749600D01*
X72169675Y-70749600D02*
X72074437Y-70559123D01*
X72074437Y-70559123D02*
X72074437Y-68844838D01*
X73883961Y-70749600D02*
X73693485Y-70844838D01*
X73693485Y-70844838D02*
X73312532Y-70844838D01*
X73312532Y-70844838D02*
X73122056Y-70749600D01*
X73122056Y-70749600D02*
X73026818Y-70559123D01*
X73026818Y-70559123D02*
X73026818Y-69797219D01*
X73026818Y-69797219D02*
X73122056Y-69606742D01*
X73122056Y-69606742D02*
X73312532Y-69511504D01*
X73312532Y-69511504D02*
X73693485Y-69511504D01*
X73693485Y-69511504D02*
X73883961Y-69606742D01*
X73883961Y-69606742D02*
X73979199Y-69797219D01*
X73979199Y-69797219D02*
X73979199Y-69987695D01*
X73979199Y-69987695D02*
X73026818Y-70178171D01*
X74836342Y-70654361D02*
X74931580Y-70749600D01*
X74931580Y-70749600D02*
X74836342Y-70844838D01*
X74836342Y-70844838D02*
X74741104Y-70749600D01*
X74741104Y-70749600D02*
X74836342Y-70654361D01*
X74836342Y-70654361D02*
X74836342Y-70844838D01*
D11*
G36*
X135981734Y-119934787D02*
G01*
X136179570Y-120125907D01*
X136251622Y-120392131D01*
X136183234Y-120652250D01*
X136099981Y-120760863D01*
X135984787Y-120843370D01*
X135725889Y-120911147D01*
X135465771Y-120843370D01*
X135270987Y-120652250D01*
X135199546Y-120392131D01*
X135270987Y-120125907D01*
X135465771Y-119934787D01*
X135725889Y-119866399D01*
X135981734Y-119934787D01*
G37*
G36*
X136037143Y-114765965D02*
G01*
X136199824Y-114914944D01*
X136258339Y-115173272D01*
X135949511Y-118314036D01*
X135796055Y-119239768D01*
X135732606Y-119360816D01*
X135674184Y-119242004D01*
X135523889Y-118309250D01*
X135206263Y-115111601D01*
X135349031Y-114878312D01*
X135521237Y-114751103D01*
X135732606Y-114708600D01*
X136037143Y-114765965D01*
G37*
G36*
X141259211Y-122038328D02*
G01*
X141259211Y-122100000D01*
X130199284Y-122100000D01*
X130144330Y-122038328D01*
X130083269Y-122038328D01*
X130438238Y-121396580D01*
X131135345Y-121396580D01*
X131135345Y-121512595D01*
X140268196Y-121512595D01*
X140268196Y-121450924D01*
X136242505Y-114146431D01*
X135670935Y-113191852D01*
X131135345Y-121396580D01*
X130438238Y-121396580D01*
X135049902Y-113059168D01*
X135732606Y-111907745D01*
X135780233Y-111907745D01*
X141259211Y-122038328D01*
G37*
D12*
X130155826Y-125322914D02*
X130655826Y-125322914D01*
X130870112Y-126108628D02*
X130155826Y-126108628D01*
X130155826Y-126108628D02*
X130155826Y-124608628D01*
X130155826Y-124608628D02*
X130870112Y-124608628D01*
X131370112Y-126108628D02*
X132155827Y-125108628D01*
X131370112Y-125108628D02*
X132155827Y-126108628D01*
X132727255Y-125108628D02*
X132727255Y-126608628D01*
X132727255Y-125180057D02*
X132870113Y-125108628D01*
X132870113Y-125108628D02*
X133155827Y-125108628D01*
X133155827Y-125108628D02*
X133298684Y-125180057D01*
X133298684Y-125180057D02*
X133370113Y-125251485D01*
X133370113Y-125251485D02*
X133441541Y-125394342D01*
X133441541Y-125394342D02*
X133441541Y-125822914D01*
X133441541Y-125822914D02*
X133370113Y-125965771D01*
X133370113Y-125965771D02*
X133298684Y-126037200D01*
X133298684Y-126037200D02*
X133155827Y-126108628D01*
X133155827Y-126108628D02*
X132870113Y-126108628D01*
X132870113Y-126108628D02*
X132727255Y-126037200D01*
X134298684Y-126108628D02*
X134155827Y-126037200D01*
X134155827Y-126037200D02*
X134084398Y-125894342D01*
X134084398Y-125894342D02*
X134084398Y-124608628D01*
X135512970Y-126108628D02*
X135512970Y-125322914D01*
X135512970Y-125322914D02*
X135441541Y-125180057D01*
X135441541Y-125180057D02*
X135298684Y-125108628D01*
X135298684Y-125108628D02*
X135012970Y-125108628D01*
X135012970Y-125108628D02*
X134870112Y-125180057D01*
X135512970Y-126037200D02*
X135370112Y-126108628D01*
X135370112Y-126108628D02*
X135012970Y-126108628D01*
X135012970Y-126108628D02*
X134870112Y-126037200D01*
X134870112Y-126037200D02*
X134798684Y-125894342D01*
X134798684Y-125894342D02*
X134798684Y-125751485D01*
X134798684Y-125751485D02*
X134870112Y-125608628D01*
X134870112Y-125608628D02*
X135012970Y-125537200D01*
X135012970Y-125537200D02*
X135370112Y-125537200D01*
X135370112Y-125537200D02*
X135512970Y-125465771D01*
X136227255Y-125108628D02*
X136227255Y-126108628D01*
X136227255Y-125251485D02*
X136298684Y-125180057D01*
X136298684Y-125180057D02*
X136441541Y-125108628D01*
X136441541Y-125108628D02*
X136655827Y-125108628D01*
X136655827Y-125108628D02*
X136798684Y-125180057D01*
X136798684Y-125180057D02*
X136870113Y-125322914D01*
X136870113Y-125322914D02*
X136870113Y-126108628D01*
X138227256Y-126108628D02*
X138227256Y-125322914D01*
X138227256Y-125322914D02*
X138155827Y-125180057D01*
X138155827Y-125180057D02*
X138012970Y-125108628D01*
X138012970Y-125108628D02*
X137727256Y-125108628D01*
X137727256Y-125108628D02*
X137584398Y-125180057D01*
X138227256Y-126037200D02*
X138084398Y-126108628D01*
X138084398Y-126108628D02*
X137727256Y-126108628D01*
X137727256Y-126108628D02*
X137584398Y-126037200D01*
X137584398Y-126037200D02*
X137512970Y-125894342D01*
X137512970Y-125894342D02*
X137512970Y-125751485D01*
X137512970Y-125751485D02*
X137584398Y-125608628D01*
X137584398Y-125608628D02*
X137727256Y-125537200D01*
X137727256Y-125537200D02*
X138084398Y-125537200D01*
X138084398Y-125537200D02*
X138227256Y-125465771D01*
X138727256Y-125108628D02*
X139298684Y-125108628D01*
X138941541Y-124608628D02*
X138941541Y-125894342D01*
X138941541Y-125894342D02*
X139012970Y-126037200D01*
X139012970Y-126037200D02*
X139155827Y-126108628D01*
X139155827Y-126108628D02*
X139298684Y-126108628D01*
X139798684Y-126108628D02*
X139798684Y-125108628D01*
X139798684Y-124608628D02*
X139727256Y-124680057D01*
X139727256Y-124680057D02*
X139798684Y-124751485D01*
X139798684Y-124751485D02*
X139870113Y-124680057D01*
X139870113Y-124680057D02*
X139798684Y-124608628D01*
X139798684Y-124608628D02*
X139798684Y-124751485D01*
X140727256Y-126108628D02*
X140584399Y-126037200D01*
X140584399Y-126037200D02*
X140512970Y-125965771D01*
X140512970Y-125965771D02*
X140441542Y-125822914D01*
X140441542Y-125822914D02*
X140441542Y-125394342D01*
X140441542Y-125394342D02*
X140512970Y-125251485D01*
X140512970Y-125251485D02*
X140584399Y-125180057D01*
X140584399Y-125180057D02*
X140727256Y-125108628D01*
X140727256Y-125108628D02*
X140941542Y-125108628D01*
X140941542Y-125108628D02*
X141084399Y-125180057D01*
X141084399Y-125180057D02*
X141155828Y-125251485D01*
X141155828Y-125251485D02*
X141227256Y-125394342D01*
X141227256Y-125394342D02*
X141227256Y-125822914D01*
X141227256Y-125822914D02*
X141155828Y-125965771D01*
X141155828Y-125965771D02*
X141084399Y-126037200D01*
X141084399Y-126037200D02*
X140941542Y-126108628D01*
X140941542Y-126108628D02*
X140727256Y-126108628D01*
X141870113Y-125108628D02*
X141870113Y-126108628D01*
X141870113Y-125251485D02*
X141941542Y-125180057D01*
X141941542Y-125180057D02*
X142084399Y-125108628D01*
X142084399Y-125108628D02*
X142298685Y-125108628D01*
X142298685Y-125108628D02*
X142441542Y-125180057D01*
X142441542Y-125180057D02*
X142512971Y-125322914D01*
X142512971Y-125322914D02*
X142512971Y-126108628D01*
X143155828Y-126037200D02*
X143298685Y-126108628D01*
X143298685Y-126108628D02*
X143584399Y-126108628D01*
X143584399Y-126108628D02*
X143727256Y-126037200D01*
X143727256Y-126037200D02*
X143798685Y-125894342D01*
X143798685Y-125894342D02*
X143798685Y-125822914D01*
X143798685Y-125822914D02*
X143727256Y-125680057D01*
X143727256Y-125680057D02*
X143584399Y-125608628D01*
X143584399Y-125608628D02*
X143370114Y-125608628D01*
X143370114Y-125608628D02*
X143227256Y-125537200D01*
X143227256Y-125537200D02*
X143155828Y-125394342D01*
X143155828Y-125394342D02*
X143155828Y-125322914D01*
X143155828Y-125322914D02*
X143227256Y-125180057D01*
X143227256Y-125180057D02*
X143370114Y-125108628D01*
X143370114Y-125108628D02*
X143584399Y-125108628D01*
X143584399Y-125108628D02*
X143727256Y-125180057D01*
X146227257Y-125108628D02*
X146227257Y-126108628D01*
X145584399Y-125108628D02*
X145584399Y-125894342D01*
X145584399Y-125894342D02*
X145655828Y-126037200D01*
X145655828Y-126037200D02*
X145798685Y-126108628D01*
X145798685Y-126108628D02*
X146012971Y-126108628D01*
X146012971Y-126108628D02*
X146155828Y-126037200D01*
X146155828Y-126037200D02*
X146227257Y-125965771D01*
X146941542Y-125108628D02*
X146941542Y-126108628D01*
X146941542Y-125251485D02*
X147012971Y-125180057D01*
X147012971Y-125180057D02*
X147155828Y-125108628D01*
X147155828Y-125108628D02*
X147370114Y-125108628D01*
X147370114Y-125108628D02*
X147512971Y-125180057D01*
X147512971Y-125180057D02*
X147584400Y-125322914D01*
X147584400Y-125322914D02*
X147584400Y-126108628D01*
X148941543Y-126108628D02*
X148941543Y-124608628D01*
X148941543Y-126037200D02*
X148798685Y-126108628D01*
X148798685Y-126108628D02*
X148512971Y-126108628D01*
X148512971Y-126108628D02*
X148370114Y-126037200D01*
X148370114Y-126037200D02*
X148298685Y-125965771D01*
X148298685Y-125965771D02*
X148227257Y-125822914D01*
X148227257Y-125822914D02*
X148227257Y-125394342D01*
X148227257Y-125394342D02*
X148298685Y-125251485D01*
X148298685Y-125251485D02*
X148370114Y-125180057D01*
X148370114Y-125180057D02*
X148512971Y-125108628D01*
X148512971Y-125108628D02*
X148798685Y-125108628D01*
X148798685Y-125108628D02*
X148941543Y-125180057D01*
X150227257Y-126037200D02*
X150084400Y-126108628D01*
X150084400Y-126108628D02*
X149798686Y-126108628D01*
X149798686Y-126108628D02*
X149655828Y-126037200D01*
X149655828Y-126037200D02*
X149584400Y-125894342D01*
X149584400Y-125894342D02*
X149584400Y-125322914D01*
X149584400Y-125322914D02*
X149655828Y-125180057D01*
X149655828Y-125180057D02*
X149798686Y-125108628D01*
X149798686Y-125108628D02*
X150084400Y-125108628D01*
X150084400Y-125108628D02*
X150227257Y-125180057D01*
X150227257Y-125180057D02*
X150298686Y-125322914D01*
X150298686Y-125322914D02*
X150298686Y-125465771D01*
X150298686Y-125465771D02*
X149584400Y-125608628D01*
X150941542Y-126108628D02*
X150941542Y-125108628D01*
X150941542Y-125394342D02*
X151012971Y-125251485D01*
X151012971Y-125251485D02*
X151084400Y-125180057D01*
X151084400Y-125180057D02*
X151227257Y-125108628D01*
X151227257Y-125108628D02*
X151370114Y-125108628D01*
X152798685Y-125108628D02*
X153370113Y-125108628D01*
X153012970Y-124608628D02*
X153012970Y-125894342D01*
X153012970Y-125894342D02*
X153084399Y-126037200D01*
X153084399Y-126037200D02*
X153227256Y-126108628D01*
X153227256Y-126108628D02*
X153370113Y-126108628D01*
X153870113Y-126108628D02*
X153870113Y-124608628D01*
X154512971Y-126108628D02*
X154512971Y-125322914D01*
X154512971Y-125322914D02*
X154441542Y-125180057D01*
X154441542Y-125180057D02*
X154298685Y-125108628D01*
X154298685Y-125108628D02*
X154084399Y-125108628D01*
X154084399Y-125108628D02*
X153941542Y-125180057D01*
X153941542Y-125180057D02*
X153870113Y-125251485D01*
X155227256Y-126108628D02*
X155227256Y-125108628D01*
X155227256Y-124608628D02*
X155155828Y-124680057D01*
X155155828Y-124680057D02*
X155227256Y-124751485D01*
X155227256Y-124751485D02*
X155298685Y-124680057D01*
X155298685Y-124680057D02*
X155227256Y-124608628D01*
X155227256Y-124608628D02*
X155227256Y-124751485D01*
X155870114Y-126037200D02*
X156012971Y-126108628D01*
X156012971Y-126108628D02*
X156298685Y-126108628D01*
X156298685Y-126108628D02*
X156441542Y-126037200D01*
X156441542Y-126037200D02*
X156512971Y-125894342D01*
X156512971Y-125894342D02*
X156512971Y-125822914D01*
X156512971Y-125822914D02*
X156441542Y-125680057D01*
X156441542Y-125680057D02*
X156298685Y-125608628D01*
X156298685Y-125608628D02*
X156084400Y-125608628D01*
X156084400Y-125608628D02*
X155941542Y-125537200D01*
X155941542Y-125537200D02*
X155870114Y-125394342D01*
X155870114Y-125394342D02*
X155870114Y-125322914D01*
X155870114Y-125322914D02*
X155941542Y-125180057D01*
X155941542Y-125180057D02*
X156084400Y-125108628D01*
X156084400Y-125108628D02*
X156298685Y-125108628D01*
X156298685Y-125108628D02*
X156441542Y-125180057D01*
X158941543Y-126037200D02*
X158798685Y-126108628D01*
X158798685Y-126108628D02*
X158512971Y-126108628D01*
X158512971Y-126108628D02*
X158370114Y-126037200D01*
X158370114Y-126037200D02*
X158298685Y-125965771D01*
X158298685Y-125965771D02*
X158227257Y-125822914D01*
X158227257Y-125822914D02*
X158227257Y-125394342D01*
X158227257Y-125394342D02*
X158298685Y-125251485D01*
X158298685Y-125251485D02*
X158370114Y-125180057D01*
X158370114Y-125180057D02*
X158512971Y-125108628D01*
X158512971Y-125108628D02*
X158798685Y-125108628D01*
X158798685Y-125108628D02*
X158941543Y-125180057D01*
X159798685Y-126108628D02*
X159655828Y-126037200D01*
X159655828Y-126037200D02*
X159584399Y-125965771D01*
X159584399Y-125965771D02*
X159512971Y-125822914D01*
X159512971Y-125822914D02*
X159512971Y-125394342D01*
X159512971Y-125394342D02*
X159584399Y-125251485D01*
X159584399Y-125251485D02*
X159655828Y-125180057D01*
X159655828Y-125180057D02*
X159798685Y-125108628D01*
X159798685Y-125108628D02*
X160012971Y-125108628D01*
X160012971Y-125108628D02*
X160155828Y-125180057D01*
X160155828Y-125180057D02*
X160227257Y-125251485D01*
X160227257Y-125251485D02*
X160298685Y-125394342D01*
X160298685Y-125394342D02*
X160298685Y-125822914D01*
X160298685Y-125822914D02*
X160227257Y-125965771D01*
X160227257Y-125965771D02*
X160155828Y-126037200D01*
X160155828Y-126037200D02*
X160012971Y-126108628D01*
X160012971Y-126108628D02*
X159798685Y-126108628D01*
X160798685Y-125108628D02*
X161155828Y-126108628D01*
X161155828Y-126108628D02*
X161512971Y-125108628D01*
X162655828Y-126037200D02*
X162512971Y-126108628D01*
X162512971Y-126108628D02*
X162227257Y-126108628D01*
X162227257Y-126108628D02*
X162084399Y-126037200D01*
X162084399Y-126037200D02*
X162012971Y-125894342D01*
X162012971Y-125894342D02*
X162012971Y-125322914D01*
X162012971Y-125322914D02*
X162084399Y-125180057D01*
X162084399Y-125180057D02*
X162227257Y-125108628D01*
X162227257Y-125108628D02*
X162512971Y-125108628D01*
X162512971Y-125108628D02*
X162655828Y-125180057D01*
X162655828Y-125180057D02*
X162727257Y-125322914D01*
X162727257Y-125322914D02*
X162727257Y-125465771D01*
X162727257Y-125465771D02*
X162012971Y-125608628D01*
X163370113Y-126108628D02*
X163370113Y-125108628D01*
X163370113Y-125394342D02*
X163441542Y-125251485D01*
X163441542Y-125251485D02*
X163512971Y-125180057D01*
X163512971Y-125180057D02*
X163655828Y-125108628D01*
X163655828Y-125108628D02*
X163798685Y-125108628D01*
D13*
X144483082Y-113487425D02*
X146197368Y-113487425D01*
X145340225Y-116487425D02*
X145340225Y-113487425D01*
X147197367Y-116487425D02*
X147197367Y-113487425D01*
X148483082Y-116487425D02*
X148483082Y-114915996D01*
X148483082Y-114915996D02*
X148340224Y-114630282D01*
X148340224Y-114630282D02*
X148054510Y-114487425D01*
X148054510Y-114487425D02*
X147625939Y-114487425D01*
X147625939Y-114487425D02*
X147340224Y-114630282D01*
X147340224Y-114630282D02*
X147197367Y-114773139D01*
X149911653Y-116487425D02*
X149911653Y-114487425D01*
X149911653Y-113487425D02*
X149768796Y-113630282D01*
X149768796Y-113630282D02*
X149911653Y-113773139D01*
X149911653Y-113773139D02*
X150054510Y-113630282D01*
X150054510Y-113630282D02*
X149911653Y-113487425D01*
X149911653Y-113487425D02*
X149911653Y-113773139D01*
X151197367Y-116344568D02*
X151483081Y-116487425D01*
X151483081Y-116487425D02*
X152054510Y-116487425D01*
X152054510Y-116487425D02*
X152340224Y-116344568D01*
X152340224Y-116344568D02*
X152483081Y-116058853D01*
X152483081Y-116058853D02*
X152483081Y-115915996D01*
X152483081Y-115915996D02*
X152340224Y-115630282D01*
X152340224Y-115630282D02*
X152054510Y-115487425D01*
X152054510Y-115487425D02*
X151625939Y-115487425D01*
X151625939Y-115487425D02*
X151340224Y-115344568D01*
X151340224Y-115344568D02*
X151197367Y-115058853D01*
X151197367Y-115058853D02*
X151197367Y-114915996D01*
X151197367Y-114915996D02*
X151340224Y-114630282D01*
X151340224Y-114630282D02*
X151625939Y-114487425D01*
X151625939Y-114487425D02*
X152054510Y-114487425D01*
X152054510Y-114487425D02*
X152340224Y-114630282D01*
X156054509Y-116487425D02*
X156054509Y-114487425D01*
X156054509Y-113487425D02*
X155911652Y-113630282D01*
X155911652Y-113630282D02*
X156054509Y-113773139D01*
X156054509Y-113773139D02*
X156197366Y-113630282D01*
X156197366Y-113630282D02*
X156054509Y-113487425D01*
X156054509Y-113487425D02*
X156054509Y-113773139D01*
X157340223Y-116344568D02*
X157625937Y-116487425D01*
X157625937Y-116487425D02*
X158197366Y-116487425D01*
X158197366Y-116487425D02*
X158483080Y-116344568D01*
X158483080Y-116344568D02*
X158625937Y-116058853D01*
X158625937Y-116058853D02*
X158625937Y-115915996D01*
X158625937Y-115915996D02*
X158483080Y-115630282D01*
X158483080Y-115630282D02*
X158197366Y-115487425D01*
X158197366Y-115487425D02*
X157768795Y-115487425D01*
X157768795Y-115487425D02*
X157483080Y-115344568D01*
X157483080Y-115344568D02*
X157340223Y-115058853D01*
X157340223Y-115058853D02*
X157340223Y-114915996D01*
X157340223Y-114915996D02*
X157483080Y-114630282D01*
X157483080Y-114630282D02*
X157768795Y-114487425D01*
X157768795Y-114487425D02*
X158197366Y-114487425D01*
X158197366Y-114487425D02*
X158483080Y-114630282D01*
X144911653Y-119317257D02*
X144911653Y-121317257D01*
X144911653Y-119602971D02*
X145054510Y-119460114D01*
X145054510Y-119460114D02*
X145340225Y-119317257D01*
X145340225Y-119317257D02*
X145768796Y-119317257D01*
X145768796Y-119317257D02*
X146054510Y-119460114D01*
X146054510Y-119460114D02*
X146197368Y-119745828D01*
X146197368Y-119745828D02*
X146197368Y-121317257D01*
X148054511Y-121317257D02*
X147768796Y-121174400D01*
X147768796Y-121174400D02*
X147625939Y-121031542D01*
X147625939Y-121031542D02*
X147483082Y-120745828D01*
X147483082Y-120745828D02*
X147483082Y-119888685D01*
X147483082Y-119888685D02*
X147625939Y-119602971D01*
X147625939Y-119602971D02*
X147768796Y-119460114D01*
X147768796Y-119460114D02*
X148054511Y-119317257D01*
X148054511Y-119317257D02*
X148483082Y-119317257D01*
X148483082Y-119317257D02*
X148768796Y-119460114D01*
X148768796Y-119460114D02*
X148911654Y-119602971D01*
X148911654Y-119602971D02*
X149054511Y-119888685D01*
X149054511Y-119888685D02*
X149054511Y-120745828D01*
X149054511Y-120745828D02*
X148911654Y-121031542D01*
X148911654Y-121031542D02*
X148768796Y-121174400D01*
X148768796Y-121174400D02*
X148483082Y-121317257D01*
X148483082Y-121317257D02*
X148054511Y-121317257D01*
X149911654Y-119317257D02*
X151054511Y-119317257D01*
X150340225Y-118317257D02*
X150340225Y-120888685D01*
X150340225Y-120888685D02*
X150483082Y-121174400D01*
X150483082Y-121174400D02*
X150768797Y-121317257D01*
X150768797Y-121317257D02*
X151054511Y-121317257D01*
X154340225Y-118317257D02*
X154340225Y-120745828D01*
X154340225Y-120745828D02*
X154483082Y-121031542D01*
X154483082Y-121031542D02*
X154625940Y-121174400D01*
X154625940Y-121174400D02*
X154911654Y-121317257D01*
X154911654Y-121317257D02*
X155483082Y-121317257D01*
X155483082Y-121317257D02*
X155768797Y-121174400D01*
X155768797Y-121174400D02*
X155911654Y-121031542D01*
X155911654Y-121031542D02*
X156054511Y-120745828D01*
X156054511Y-120745828D02*
X156054511Y-118317257D01*
X157340225Y-121174400D02*
X157768797Y-121317257D01*
X157768797Y-121317257D02*
X158483082Y-121317257D01*
X158483082Y-121317257D02*
X158768797Y-121174400D01*
X158768797Y-121174400D02*
X158911654Y-121031542D01*
X158911654Y-121031542D02*
X159054511Y-120745828D01*
X159054511Y-120745828D02*
X159054511Y-120460114D01*
X159054511Y-120460114D02*
X158911654Y-120174400D01*
X158911654Y-120174400D02*
X158768797Y-120031542D01*
X158768797Y-120031542D02*
X158483082Y-119888685D01*
X158483082Y-119888685D02*
X157911654Y-119745828D01*
X157911654Y-119745828D02*
X157625939Y-119602971D01*
X157625939Y-119602971D02*
X157483082Y-119460114D01*
X157483082Y-119460114D02*
X157340225Y-119174400D01*
X157340225Y-119174400D02*
X157340225Y-118888685D01*
X157340225Y-118888685D02*
X157483082Y-118602971D01*
X157483082Y-118602971D02*
X157625939Y-118460114D01*
X157625939Y-118460114D02*
X157911654Y-118317257D01*
X157911654Y-118317257D02*
X158625939Y-118317257D01*
X158625939Y-118317257D02*
X159054511Y-118460114D01*
X161340225Y-119745828D02*
X161768797Y-119888685D01*
X161768797Y-119888685D02*
X161911654Y-120031542D01*
X161911654Y-120031542D02*
X162054511Y-120317257D01*
X162054511Y-120317257D02*
X162054511Y-120745828D01*
X162054511Y-120745828D02*
X161911654Y-121031542D01*
X161911654Y-121031542D02*
X161768797Y-121174400D01*
X161768797Y-121174400D02*
X161483082Y-121317257D01*
X161483082Y-121317257D02*
X160340225Y-121317257D01*
X160340225Y-121317257D02*
X160340225Y-118317257D01*
X160340225Y-118317257D02*
X161340225Y-118317257D01*
X161340225Y-118317257D02*
X161625940Y-118460114D01*
X161625940Y-118460114D02*
X161768797Y-118602971D01*
X161768797Y-118602971D02*
X161911654Y-118888685D01*
X161911654Y-118888685D02*
X161911654Y-119174400D01*
X161911654Y-119174400D02*
X161768797Y-119460114D01*
X161768797Y-119460114D02*
X161625940Y-119602971D01*
X161625940Y-119602971D02*
X161340225Y-119745828D01*
X161340225Y-119745828D02*
X160340225Y-119745828D01*
M02*
