%TF.GenerationSoftware,KiCad,Pcbnew,9.0.1*%
%TF.CreationDate,2026-03-03T23:02:17+01:00*%
%TF.ProjectId,top_cover,746f705f-636f-4766-9572-2e6b69636164,rev?*%
%TF.SameCoordinates,Original*%
%TF.FileFunction,Profile,NP*%
%FSLAX46Y46*%
G04 Gerber Fmt 4.6, Leading zero omitted, Abs format (unit mm)*
G04 Created by KiCad (PCBNEW 9.0.1) date 2026-03-03 23:02:17*
%MOMM*%
%LPD*%
G01*
G04 APERTURE LIST*
%TA.AperFunction,Profile*%
%ADD10C,0.050000*%
%TD*%
%ADD11C,0.050000*%
G04 APERTURE END LIST*
D10*
X136300000Y-34100000D02*
X136300000Y-35750000D01*
X50950000Y-118000000D02*
X50950000Y-116000000D01*
X63921320Y-38750000D02*
G75*
G02*
X60921300Y-35750000I-20J3000000D01*
G01*
X169300000Y-55600000D02*
X169300000Y-43700000D01*
X89800000Y-35750000D02*
X91421320Y-35750000D01*
X131678680Y-134850000D02*
G75*
G02*
X134678700Y-137850000I20J-3000000D01*
G01*
X91600000Y-137850000D02*
X89800000Y-137850000D01*
X104000000Y-35750000D02*
X105800000Y-35750000D01*
X124100000Y-137850000D02*
G75*
G02*
X127100000Y-134850000I3000000J0D01*
G01*
X59300000Y-139500000D02*
X49300000Y-139500000D01*
X167350000Y-106300000D02*
X167350000Y-115700000D01*
X126921320Y-38750000D02*
X131500000Y-38750000D01*
X134500000Y-35750000D02*
G75*
G02*
X131500000Y-38750000I-3000000J0D01*
G01*
X49300000Y-104000000D02*
X50950000Y-104000000D01*
X122300000Y-139500000D02*
X122300000Y-137850000D01*
X59300000Y-139500000D02*
X59300000Y-137850000D01*
X167650000Y-55600000D02*
X167650000Y-57600000D01*
D11*
X169300000Y-43700000D02*
X169299960Y-43690949D01*
X169299840Y-43681879D01*
X169299639Y-43672792D01*
X169299359Y-43663686D01*
X169298997Y-43654561D01*
X169298555Y-43645417D01*
X169298031Y-43636253D01*
X169297427Y-43627070D01*
X169296740Y-43617865D01*
X169295972Y-43608641D01*
X169295122Y-43599395D01*
X169294189Y-43590127D01*
X169293174Y-43580838D01*
X169292076Y-43571526D01*
X169290894Y-43562192D01*
X169289629Y-43552835D01*
X169288280Y-43543455D01*
X169286847Y-43534051D01*
X169285329Y-43524623D01*
X169283726Y-43515171D01*
X169282038Y-43505693D01*
X169280264Y-43496191D01*
X169278404Y-43486663D01*
X169276457Y-43477110D01*
X169274423Y-43467530D01*
X169272301Y-43457923D01*
X169270092Y-43448290D01*
X169267794Y-43438629D01*
X169265407Y-43428941D01*
X169262931Y-43419225D01*
X169260365Y-43409480D01*
X169257709Y-43399707D01*
X169254962Y-43389905D01*
X169252123Y-43380073D01*
X169249193Y-43370211D01*
X169246170Y-43360319D01*
X169243054Y-43350397D01*
X169239844Y-43340444D01*
X169236541Y-43330460D01*
X169233142Y-43320444D01*
X169229648Y-43310397D01*
X169226058Y-43300317D01*
X169222372Y-43290205D01*
X169218588Y-43280060D01*
X169214706Y-43269881D01*
X169210726Y-43259670D01*
X169206647Y-43249424D01*
X169202468Y-43239144D01*
X169198188Y-43228829D01*
X169193807Y-43218480D01*
X169189324Y-43208095D01*
X169184739Y-43197675D01*
X169180051Y-43187219D01*
X169175258Y-43176727D01*
X169170361Y-43166198D01*
X169165358Y-43155632D01*
X169160249Y-43145030D01*
X169155033Y-43134390D01*
X169149709Y-43123712D01*
X169144277Y-43112995D01*
X169138736Y-43102241D01*
X169133084Y-43091448D01*
X169127322Y-43080615D01*
X169121448Y-43069744D01*
X169115461Y-43058832D01*
X169109362Y-43047881D01*
X169103148Y-43036889D01*
X169096819Y-43025857D01*
X169090374Y-43014784D01*
X169083813Y-43003670D01*
X169077134Y-42992514D01*
X169070337Y-42981317D01*
X169063420Y-42970077D01*
X169056384Y-42958796D01*
X169049226Y-42947471D01*
X169041947Y-42936103D01*
X169034545Y-42924693D01*
X169027018Y-42913239D01*
X169019368Y-42901740D01*
X169011592Y-42890198D01*
X169003689Y-42878612D01*
X168995659Y-42866981D01*
X168987500Y-42855304D01*
X168979212Y-42843583D01*
X168970794Y-42831816D01*
X168962245Y-42820004D01*
X168953563Y-42808145D01*
X168944749Y-42796240D01*
X168935800Y-42784289D01*
X168926716Y-42772290D01*
X168917495Y-42760245D01*
X168908138Y-42748152D01*
X168898642Y-42736011D01*
X168889007Y-42723823D01*
X168879232Y-42711586D01*
X168869316Y-42699301D01*
X168859258Y-42686967D01*
X168849056Y-42674584D01*
X168838710Y-42662152D01*
X168828218Y-42649670D01*
X168817580Y-42637139D01*
X168806794Y-42624558D01*
X168795860Y-42611926D01*
X168784776Y-42599244D01*
X168773542Y-42586511D01*
X168762155Y-42573728D01*
X168750616Y-42560893D01*
X168738922Y-42548006D01*
X168727074Y-42535068D01*
X168715069Y-42522078D01*
X168702907Y-42509035D01*
X168690586Y-42495940D01*
X168678106Y-42482793D01*
X168665465Y-42469592D01*
X168652663Y-42456339D01*
X168639697Y-42443031D01*
X168626567Y-42429671D01*
X168613272Y-42416256D01*
X168599810Y-42402787D01*
X168586181Y-42389264D01*
X168572383Y-42375686D01*
X168558415Y-42362054D01*
X168544276Y-42348366D01*
X168529965Y-42334623D01*
X168515480Y-42320825D01*
X168500821Y-42306970D01*
X168485985Y-42293060D01*
X168470973Y-42279094D01*
X168455782Y-42265071D01*
X168440412Y-42250992D01*
X168424862Y-42236856D01*
X168409129Y-42222663D01*
X168393213Y-42208412D01*
X168377113Y-42194104D01*
X168360828Y-42179738D01*
X168344355Y-42165315D01*
X168327695Y-42150833D01*
X168310845Y-42136293D01*
X168293805Y-42121694D01*
X168276573Y-42107036D01*
X168259148Y-42092320D01*
X168241529Y-42077544D01*
X168223714Y-42062708D01*
X168205702Y-42047814D01*
X168187492Y-42032859D01*
X168169083Y-42017844D01*
X168150473Y-42002769D01*
X168131662Y-41987633D01*
X168112647Y-41972437D01*
X168093427Y-41957180D01*
X168074002Y-41941862D01*
X168054369Y-41926482D01*
X168034529Y-41911041D01*
X168014478Y-41895538D01*
X167994217Y-41879974D01*
X167973743Y-41864347D01*
X167953055Y-41848658D01*
X167932153Y-41832907D01*
X167911034Y-41817093D01*
X167889697Y-41801216D01*
X167868142Y-41785275D01*
X167846366Y-41769272D01*
X167824369Y-41753205D01*
X167802148Y-41737075D01*
X167779704Y-41720880D01*
X167757033Y-41704622D01*
X167734136Y-41688299D01*
X167711010Y-41671912D01*
X167687654Y-41655460D01*
X167664067Y-41638944D01*
X167640248Y-41622362D01*
X167616195Y-41605716D01*
X167591907Y-41589004D01*
X167567382Y-41572226D01*
X167542619Y-41555383D01*
X167517617Y-41538473D01*
X167492374Y-41521498D01*
X167466888Y-41504456D01*
X167441160Y-41487348D01*
X167415186Y-41470173D01*
X167388966Y-41452932D01*
X167362498Y-41435623D01*
X167335781Y-41418247D01*
X167308814Y-41400804D01*
X167281595Y-41383293D01*
X167254122Y-41365714D01*
X167226394Y-41348068D01*
X167198411Y-41330353D01*
X167170170Y-41312571D01*
X167141669Y-41294719D01*
X167112908Y-41276800D01*
X167083886Y-41258811D01*
X167054600Y-41240753D01*
X167025049Y-41222627D01*
X166995232Y-41204431D01*
X166965148Y-41186165D01*
X166934794Y-41167830D01*
X166904170Y-41149425D01*
X166873274Y-41130950D01*
X166842104Y-41112405D01*
X166810660Y-41093790D01*
X166778939Y-41075104D01*
X166746941Y-41056347D01*
X166714663Y-41037520D01*
X166682105Y-41018622D01*
X166649264Y-40999652D01*
X166616140Y-40980612D01*
X166582731Y-40961499D01*
X166549035Y-40942316D01*
X166515052Y-40923060D01*
X166480778Y-40903732D01*
X166446214Y-40884333D01*
X166411358Y-40864861D01*
X166376207Y-40845317D01*
X166340761Y-40825700D01*
X166305019Y-40806010D01*
X166268977Y-40786247D01*
X166232637Y-40766412D01*
X166195994Y-40746503D01*
X166159049Y-40726521D01*
X166121800Y-40706465D01*
X166084245Y-40686336D01*
X166046382Y-40666132D01*
X166008211Y-40645855D01*
X165969729Y-40625504D01*
X165930936Y-40605078D01*
X165891829Y-40584578D01*
X165852408Y-40564004D01*
X165812670Y-40543354D01*
X165772614Y-40522630D01*
X165732239Y-40501831D01*
X165691544Y-40480957D01*
X165650526Y-40460007D01*
X165609184Y-40438982D01*
X165567516Y-40417882D01*
X165525522Y-40396705D01*
X165483200Y-40375453D01*
X165440548Y-40354125D01*
X165397564Y-40332720D01*
X165354247Y-40311239D01*
X165310596Y-40289682D01*
X165266609Y-40268049D01*
X165222284Y-40246338D01*
X165177621Y-40224551D01*
X165132617Y-40202687D01*
X165087271Y-40180745D01*
X165041581Y-40158726D01*
X164995546Y-40136630D01*
X164949164Y-40114457D01*
X164902435Y-40092206D01*
X164855355Y-40069877D01*
X164807925Y-40047470D01*
X164760142Y-40024985D01*
X164712004Y-40002422D01*
X164663511Y-39979780D01*
X164614660Y-39957060D01*
X164565450Y-39934262D01*
X164515880Y-39911385D01*
X164465948Y-39888429D01*
X164415653Y-39865394D01*
X164364993Y-39842280D01*
X164313966Y-39819086D01*
X164262571Y-39795814D01*
X164210806Y-39772462D01*
X164158670Y-39749031D01*
X164106162Y-39725519D01*
X164053279Y-39701929D01*
X164000021Y-39678258D01*
X163946385Y-39654507D01*
X163892371Y-39630676D01*
X163837976Y-39606765D01*
X163783199Y-39582773D01*
X163728039Y-39558701D01*
X163672494Y-39534548D01*
X163616562Y-39510315D01*
X163560242Y-39486000D01*
X163503533Y-39461605D01*
X163446432Y-39437129D01*
X163388939Y-39412571D01*
X163331052Y-39387933D01*
X163272769Y-39363212D01*
X163214089Y-39338411D01*
X163155010Y-39313528D01*
X163095530Y-39288563D01*
X163035649Y-39263516D01*
X162975364Y-39238388D01*
X162914675Y-39213177D01*
X162853579Y-39187884D01*
X162792075Y-39162509D01*
X162730161Y-39137052D01*
X162667836Y-39111512D01*
X162605099Y-39085890D01*
X162541948Y-39060186D01*
X162478381Y-39034398D01*
X162414396Y-39008528D01*
X162349993Y-38982575D01*
X162285170Y-38956538D01*
X162219925Y-38930419D01*
X162154257Y-38904217D01*
X162088164Y-38877931D01*
X162021644Y-38851562D01*
X161954697Y-38825109D01*
X161887320Y-38798573D01*
X161819513Y-38771954D01*
X161751273Y-38745250D01*
X161682599Y-38718463D01*
X161613489Y-38691592D01*
X161543943Y-38664637D01*
X161473958Y-38637598D01*
X161403533Y-38610475D01*
X161332666Y-38583267D01*
X161261357Y-38555975D01*
X161189603Y-38528599D01*
X161117402Y-38501139D01*
X161044754Y-38473594D01*
X160971658Y-38445964D01*
X160898110Y-38418249D01*
X160824111Y-38390450D01*
X160749657Y-38362566D01*
X160674749Y-38334597D01*
X160599384Y-38306543D01*
X160523561Y-38278404D01*
X160447279Y-38250180D01*
X160370535Y-38221871D01*
X160293329Y-38193476D01*
X160215658Y-38164996D01*
X160137522Y-38136431D01*
X160058920Y-38107780D01*
X159979848Y-38079044D01*
X159900306Y-38050222D01*
X159820293Y-38021314D01*
X159739807Y-37992321D01*
X159658847Y-37963242D01*
X159577410Y-37934077D01*
X159495497Y-37904826D01*
X159413104Y-37875489D01*
X159330231Y-37846067D01*
X159246876Y-37816558D01*
X159200000Y-37800000D01*
X169300000Y-129900000D02*
X169299960Y-129909051D01*
X169299840Y-129918121D01*
X169299639Y-129927208D01*
X169299359Y-129936314D01*
X169298997Y-129945439D01*
X169298555Y-129954583D01*
X169298031Y-129963747D01*
X169297427Y-129972930D01*
X169296740Y-129982135D01*
X169295972Y-129991359D01*
X169295122Y-130000605D01*
X169294189Y-130009873D01*
X169293174Y-130019162D01*
X169292076Y-130028474D01*
X169290894Y-130037808D01*
X169289629Y-130047165D01*
X169288280Y-130056545D01*
X169286847Y-130065949D01*
X169285329Y-130075377D01*
X169283726Y-130084829D01*
X169282038Y-130094307D01*
X169280264Y-130103809D01*
X169278404Y-130113337D01*
X169276457Y-130122890D01*
X169274423Y-130132470D01*
X169272301Y-130142077D01*
X169270092Y-130151710D01*
X169267794Y-130161371D01*
X169265407Y-130171059D01*
X169262931Y-130180775D01*
X169260365Y-130190520D01*
X169257709Y-130200293D01*
X169254962Y-130210095D01*
X169252123Y-130219927D01*
X169249193Y-130229789D01*
X169246170Y-130239681D01*
X169243054Y-130249603D01*
X169239844Y-130259556D01*
X169236541Y-130269540D01*
X169233142Y-130279556D01*
X169229648Y-130289603D01*
X169226058Y-130299683D01*
X169222372Y-130309795D01*
X169218588Y-130319940D01*
X169214706Y-130330119D01*
X169210726Y-130340330D01*
X169206647Y-130350576D01*
X169202468Y-130360856D01*
X169198188Y-130371171D01*
X169193807Y-130381520D01*
X169189324Y-130391905D01*
X169184739Y-130402325D01*
X169180051Y-130412781D01*
X169175258Y-130423273D01*
X169170361Y-130433802D01*
X169165358Y-130444368D01*
X169160249Y-130454970D01*
X169155033Y-130465610D01*
X169149709Y-130476288D01*
X169144277Y-130487005D01*
X169138736Y-130497759D01*
X169133084Y-130508552D01*
X169127322Y-130519385D01*
X169121448Y-130530256D01*
X169115461Y-130541168D01*
X169109362Y-130552119D01*
X169103148Y-130563111D01*
X169096819Y-130574143D01*
X169090374Y-130585216D01*
X169083813Y-130596330D01*
X169077134Y-130607486D01*
X169070337Y-130618683D01*
X169063420Y-130629923D01*
X169056384Y-130641204D01*
X169049226Y-130652529D01*
X169041947Y-130663897D01*
X169034545Y-130675307D01*
X169027018Y-130686761D01*
X169019368Y-130698260D01*
X169011592Y-130709802D01*
X169003689Y-130721388D01*
X168995659Y-130733019D01*
X168987500Y-130744696D01*
X168979212Y-130756417D01*
X168970794Y-130768184D01*
X168962245Y-130779996D01*
X168953563Y-130791855D01*
X168944749Y-130803760D01*
X168935800Y-130815711D01*
X168926716Y-130827710D01*
X168917495Y-130839755D01*
X168908138Y-130851848D01*
X168898642Y-130863989D01*
X168889007Y-130876177D01*
X168879232Y-130888414D01*
X168869316Y-130900699D01*
X168859258Y-130913033D01*
X168849056Y-130925416D01*
X168838710Y-130937848D01*
X168828218Y-130950330D01*
X168817580Y-130962861D01*
X168806794Y-130975442D01*
X168795860Y-130988074D01*
X168784776Y-131000756D01*
X168773542Y-131013489D01*
X168762155Y-131026272D01*
X168750616Y-131039107D01*
X168738922Y-131051994D01*
X168727074Y-131064932D01*
X168715069Y-131077922D01*
X168702907Y-131090965D01*
X168690586Y-131104060D01*
X168678106Y-131117207D01*
X168665465Y-131130408D01*
X168652663Y-131143661D01*
X168639697Y-131156969D01*
X168626567Y-131170329D01*
X168613272Y-131183744D01*
X168599810Y-131197213D01*
X168586181Y-131210736D01*
X168572383Y-131224314D01*
X168558415Y-131237946D01*
X168544276Y-131251634D01*
X168529965Y-131265377D01*
X168515480Y-131279175D01*
X168500821Y-131293030D01*
X168485985Y-131306940D01*
X168470973Y-131320906D01*
X168455782Y-131334929D01*
X168440412Y-131349008D01*
X168424862Y-131363144D01*
X168409129Y-131377337D01*
X168393213Y-131391588D01*
X168377113Y-131405896D01*
X168360828Y-131420262D01*
X168344355Y-131434685D01*
X168327695Y-131449167D01*
X168310845Y-131463707D01*
X168293805Y-131478306D01*
X168276573Y-131492964D01*
X168259148Y-131507680D01*
X168241529Y-131522456D01*
X168223714Y-131537292D01*
X168205702Y-131552186D01*
X168187492Y-131567141D01*
X168169083Y-131582156D01*
X168150473Y-131597231D01*
X168131662Y-131612367D01*
X168112647Y-131627563D01*
X168093427Y-131642820D01*
X168074002Y-131658138D01*
X168054369Y-131673518D01*
X168034529Y-131688959D01*
X168014478Y-131704462D01*
X167994217Y-131720026D01*
X167973743Y-131735653D01*
X167953055Y-131751342D01*
X167932153Y-131767093D01*
X167911034Y-131782907D01*
X167889697Y-131798784D01*
X167868142Y-131814725D01*
X167846366Y-131830728D01*
X167824369Y-131846795D01*
X167802148Y-131862925D01*
X167779704Y-131879120D01*
X167757033Y-131895378D01*
X167734136Y-131911701D01*
X167711010Y-131928088D01*
X167687654Y-131944540D01*
X167664067Y-131961056D01*
X167640248Y-131977638D01*
X167616195Y-131994284D01*
X167591907Y-132010996D01*
X167567382Y-132027774D01*
X167542619Y-132044617D01*
X167517617Y-132061527D01*
X167492374Y-132078502D01*
X167466888Y-132095544D01*
X167441160Y-132112652D01*
X167415186Y-132129827D01*
X167388966Y-132147068D01*
X167362498Y-132164377D01*
X167335781Y-132181753D01*
X167308814Y-132199196D01*
X167281595Y-132216707D01*
X167254122Y-132234286D01*
X167226394Y-132251932D01*
X167198411Y-132269647D01*
X167170170Y-132287429D01*
X167141669Y-132305281D01*
X167112908Y-132323200D01*
X167083886Y-132341189D01*
X167054600Y-132359247D01*
X167025049Y-132377373D01*
X166995232Y-132395569D01*
X166965148Y-132413835D01*
X166934794Y-132432170D01*
X166904170Y-132450575D01*
X166873274Y-132469050D01*
X166842104Y-132487595D01*
X166810660Y-132506210D01*
X166778939Y-132524896D01*
X166746941Y-132543653D01*
X166714663Y-132562480D01*
X166682105Y-132581378D01*
X166649264Y-132600348D01*
X166616140Y-132619388D01*
X166582731Y-132638501D01*
X166549035Y-132657684D01*
X166515052Y-132676940D01*
X166480778Y-132696268D01*
X166446214Y-132715667D01*
X166411358Y-132735139D01*
X166376207Y-132754683D01*
X166340761Y-132774300D01*
X166305019Y-132793990D01*
X166268977Y-132813753D01*
X166232637Y-132833588D01*
X166195994Y-132853497D01*
X166159049Y-132873479D01*
X166121800Y-132893535D01*
X166084245Y-132913664D01*
X166046382Y-132933868D01*
X166008211Y-132954145D01*
X165969729Y-132974496D01*
X165930936Y-132994922D01*
X165891829Y-133015422D01*
X165852408Y-133035996D01*
X165812670Y-133056646D01*
X165772614Y-133077370D01*
X165732239Y-133098169D01*
X165691544Y-133119043D01*
X165650526Y-133139993D01*
X165609184Y-133161018D01*
X165567516Y-133182118D01*
X165525522Y-133203295D01*
X165483200Y-133224547D01*
X165440548Y-133245875D01*
X165397564Y-133267280D01*
X165354247Y-133288761D01*
X165310596Y-133310318D01*
X165266609Y-133331951D01*
X165222284Y-133353662D01*
X165177621Y-133375449D01*
X165132617Y-133397313D01*
X165087271Y-133419255D01*
X165041581Y-133441274D01*
X164995546Y-133463370D01*
X164949164Y-133485543D01*
X164902435Y-133507794D01*
X164855355Y-133530123D01*
X164807925Y-133552530D01*
X164760142Y-133575015D01*
X164712004Y-133597578D01*
X164663511Y-133620220D01*
X164614660Y-133642940D01*
X164565450Y-133665738D01*
X164515880Y-133688615D01*
X164465948Y-133711571D01*
X164415653Y-133734606D01*
X164364993Y-133757720D01*
X164313966Y-133780914D01*
X164262571Y-133804186D01*
X164210806Y-133827538D01*
X164158670Y-133850969D01*
X164106162Y-133874481D01*
X164053279Y-133898071D01*
X164000021Y-133921742D01*
X163946385Y-133945493D01*
X163892371Y-133969324D01*
X163837976Y-133993235D01*
X163783199Y-134017227D01*
X163728039Y-134041299D01*
X163672494Y-134065452D01*
X163616562Y-134089685D01*
X163560242Y-134114000D01*
X163503533Y-134138395D01*
X163446432Y-134162871D01*
X163388939Y-134187429D01*
X163331052Y-134212067D01*
X163272769Y-134236788D01*
X163214089Y-134261589D01*
X163155010Y-134286472D01*
X163095530Y-134311437D01*
X163035649Y-134336484D01*
X162975364Y-134361612D01*
X162914675Y-134386823D01*
X162853579Y-134412116D01*
X162792075Y-134437491D01*
X162730161Y-134462948D01*
X162667836Y-134488488D01*
X162605099Y-134514110D01*
X162541948Y-134539814D01*
X162478381Y-134565602D01*
X162414396Y-134591472D01*
X162349993Y-134617425D01*
X162285170Y-134643462D01*
X162219925Y-134669581D01*
X162154257Y-134695783D01*
X162088164Y-134722069D01*
X162021644Y-134748438D01*
X161954697Y-134774891D01*
X161887320Y-134801427D01*
X161819513Y-134828046D01*
X161751273Y-134854750D01*
X161682599Y-134881537D01*
X161613489Y-134908408D01*
X161543943Y-134935363D01*
X161473958Y-134962402D01*
X161403533Y-134989525D01*
X161332666Y-135016733D01*
X161261357Y-135044025D01*
X161189603Y-135071401D01*
X161117402Y-135098861D01*
X161044754Y-135126406D01*
X160971658Y-135154036D01*
X160898110Y-135181751D01*
X160824111Y-135209550D01*
X160749657Y-135237434D01*
X160674749Y-135265403D01*
X160599384Y-135293457D01*
X160523561Y-135321596D01*
X160447279Y-135349820D01*
X160370535Y-135378129D01*
X160293329Y-135406524D01*
X160215658Y-135435004D01*
X160137522Y-135463569D01*
X160058920Y-135492220D01*
X159979848Y-135520956D01*
X159900306Y-135549778D01*
X159820293Y-135578686D01*
X159739807Y-135607679D01*
X159658847Y-135636758D01*
X159577410Y-135665923D01*
X159495497Y-135695174D01*
X159413104Y-135724511D01*
X159330231Y-135753933D01*
X159246876Y-135783442D01*
X159200000Y-135800000D01*
D10*
X169300000Y-118000000D02*
X169300000Y-129900000D01*
X122300000Y-139500000D02*
X105800000Y-139500000D01*
X167650000Y-118000000D02*
X169300000Y-118000000D01*
X122300000Y-35750000D02*
X122300000Y-34100000D01*
X49300000Y-55600000D02*
X50950000Y-55600000D01*
X91600000Y-137850000D02*
G75*
G02*
X94600000Y-134850000I3000000J0D01*
G01*
X146300000Y-139500000D02*
X136300000Y-139500000D01*
X167650000Y-118000000D02*
X167650000Y-116000000D01*
X49300000Y-118000000D02*
X49300000Y-139500000D01*
X50950000Y-67600000D02*
X51250000Y-67300000D01*
X71500000Y-35750000D02*
G75*
G02*
X68500000Y-38750000I-3000000J0D01*
G01*
X105800000Y-34100000D02*
X105800000Y-35750000D01*
X59300000Y-34100000D02*
X49300000Y-34100000D01*
X167650000Y-106000000D02*
X167350000Y-106300000D01*
X89800000Y-34100000D02*
X73300000Y-34100000D01*
X101178680Y-134850000D02*
X94600000Y-134850000D01*
X89800000Y-139500000D02*
X73300000Y-139500000D01*
X59300000Y-35750000D02*
X59300000Y-34100000D01*
X50950000Y-57600000D02*
X51250000Y-57900000D01*
X167650000Y-69600000D02*
X167650000Y-67600000D01*
X169300000Y-55600000D02*
X167650000Y-55600000D01*
X167650000Y-69600000D02*
X169300000Y-69600000D01*
X59300000Y-35750000D02*
X60921320Y-35750000D01*
X169300000Y-104000000D02*
X169300000Y-69600000D01*
X61100000Y-137850000D02*
G75*
G02*
X64100000Y-134850000I3000000J0D01*
G01*
X167350000Y-57900000D02*
X167350000Y-67300000D01*
X122300000Y-35750000D02*
X123921320Y-35750000D01*
X50950000Y-118000000D02*
X49300000Y-118000000D01*
X89800000Y-139500000D02*
X89800000Y-137850000D01*
X61100000Y-137850000D02*
X59300000Y-137850000D01*
X63921320Y-38750000D02*
X68500000Y-38750000D01*
X104000000Y-35750000D02*
G75*
G02*
X101000000Y-38750000I-3000000J0D01*
G01*
X105800000Y-137850000D02*
X105800000Y-139500000D01*
X105800000Y-137850000D02*
X104178680Y-137850000D01*
X167650000Y-104000000D02*
X167650000Y-106000000D01*
X68678700Y-134850000D02*
X64100000Y-134850000D01*
X101178680Y-134850000D02*
G75*
G02*
X104178700Y-137850000I20J-3000000D01*
G01*
X122300000Y-34100000D02*
X105800000Y-34100000D01*
X131678700Y-134850000D02*
X127100000Y-134850000D01*
X89800000Y-35750000D02*
X89800000Y-34100000D01*
X49300000Y-104000000D02*
X49300000Y-69600000D01*
X49300000Y-55600000D02*
X49300000Y-34100000D01*
D11*
X146300000Y-139500000D02*
X146323121Y-139498823D01*
X146346299Y-139497722D01*
X146369550Y-139496697D01*
X146392892Y-139495748D01*
X146416343Y-139494873D01*
X146439926Y-139494073D01*
X146463663Y-139493346D01*
X146487581Y-139492694D01*
X146511710Y-139492114D01*
X146536082Y-139491608D01*
X146560734Y-139491175D01*
X146585711Y-139490815D01*
X146611063Y-139490529D01*
X146636847Y-139490317D01*
X146663135Y-139490179D01*
X146690011Y-139490117D01*
X146717579Y-139490132D01*
X146745970Y-139490225D01*
X146775351Y-139490400D01*
X146805948Y-139490660D01*
X146838068Y-139491011D01*
X146872166Y-139491461D01*
X146908950Y-139492022D01*
X146949667Y-139492718D01*
X146996928Y-139493600D01*
X147062988Y-139494902D01*
X147128720Y-139496199D01*
X147161664Y-139496821D01*
X147194690Y-139497410D01*
X147227821Y-139497957D01*
X147261079Y-139498450D01*
X147294485Y-139498878D01*
X147311252Y-139499064D01*
X147328064Y-139499231D01*
X147344924Y-139499375D01*
X147361836Y-139499497D01*
X147378802Y-139499595D01*
X147395824Y-139499667D01*
X147412906Y-139499711D01*
X147430051Y-139499728D01*
X147447261Y-139499715D01*
X147464539Y-139499671D01*
X147481888Y-139499595D01*
X147499310Y-139499484D01*
X147516809Y-139499339D01*
X147534387Y-139499157D01*
X147552047Y-139498938D01*
X147569791Y-139498679D01*
X147587623Y-139498380D01*
X147605546Y-139498039D01*
X147623562Y-139497655D01*
X147641673Y-139497226D01*
X147659884Y-139496752D01*
X147678196Y-139496230D01*
X147696612Y-139495659D01*
X147715136Y-139495039D01*
X147733769Y-139494367D01*
X147752515Y-139493643D01*
X147771377Y-139492864D01*
X147790356Y-139492030D01*
X147809457Y-139491140D01*
X147828682Y-139490191D01*
X147848034Y-139489183D01*
X147867515Y-139488114D01*
X147887128Y-139486983D01*
X147906876Y-139485789D01*
X147926762Y-139484530D01*
X147946789Y-139483204D01*
X147966959Y-139481811D01*
X147987276Y-139480349D01*
X148007741Y-139478817D01*
X148028358Y-139477214D01*
X148049130Y-139475537D01*
X148070059Y-139473786D01*
X148091149Y-139471959D01*
X148112401Y-139470056D01*
X148133820Y-139468074D01*
X148155406Y-139466012D01*
X148177165Y-139463869D01*
X148199097Y-139461644D01*
X148221206Y-139459335D01*
X148243495Y-139456941D01*
X148265967Y-139454461D01*
X148288624Y-139451893D01*
X148311469Y-139449235D01*
X148334505Y-139446487D01*
X148357734Y-139443647D01*
X148381160Y-139440714D01*
X148404786Y-139437686D01*
X148428613Y-139434563D01*
X148452646Y-139431342D01*
X148476886Y-139428022D01*
X148501336Y-139424603D01*
X148526000Y-139421082D01*
X148550880Y-139417458D01*
X148575979Y-139413730D01*
X148601299Y-139409897D01*
X148626844Y-139405957D01*
X148652616Y-139401909D01*
X148678618Y-139397752D01*
X148704853Y-139393484D01*
X148731324Y-139389103D01*
X148758033Y-139384610D01*
X148784983Y-139380001D01*
X148812177Y-139375276D01*
X148839618Y-139370433D01*
X148867308Y-139365472D01*
X148895251Y-139360390D01*
X148923449Y-139355187D01*
X148951905Y-139349860D01*
X148980622Y-139344410D01*
X149009602Y-139338833D01*
X149038849Y-139333130D01*
X149068364Y-139327298D01*
X149098152Y-139321337D01*
X149128214Y-139315244D01*
X149158554Y-139309019D01*
X149189174Y-139302660D01*
X149220077Y-139296166D01*
X149251267Y-139289535D01*
X149282744Y-139282767D01*
X149314514Y-139275859D01*
X149346577Y-139268811D01*
X149378938Y-139261621D01*
X149411598Y-139254288D01*
X149444561Y-139246810D01*
X149477830Y-139239186D01*
X149511407Y-139231414D01*
X149545295Y-139223494D01*
X149579496Y-139215425D01*
X149614015Y-139207203D01*
X149648852Y-139198829D01*
X149684012Y-139190301D01*
X149719497Y-139181617D01*
X149755310Y-139172777D01*
X149791453Y-139163778D01*
X149827929Y-139154620D01*
X149864742Y-139145301D01*
X149901894Y-139135820D01*
X149939387Y-139126176D01*
X149977225Y-139116366D01*
X150015411Y-139106391D01*
X150053946Y-139096247D01*
X150092835Y-139085935D01*
X150132079Y-139075452D01*
X150171681Y-139064798D01*
X150211645Y-139053970D01*
X150251973Y-139042969D01*
X150292668Y-139031791D01*
X150333733Y-139020437D01*
X150375170Y-139008904D01*
X150416983Y-138997191D01*
X150459173Y-138985297D01*
X150501744Y-138973221D01*
X150544699Y-138960961D01*
X150588041Y-138948516D01*
X150631771Y-138935884D01*
X150675894Y-138923064D01*
X150720411Y-138910055D01*
X150765327Y-138896855D01*
X150810642Y-138883464D01*
X150856361Y-138869879D01*
X150902486Y-138856100D01*
X150949019Y-138842124D01*
X150995964Y-138827951D01*
X151043324Y-138813580D01*
X151091100Y-138799008D01*
X151139297Y-138784235D01*
X151187916Y-138769259D01*
X151236961Y-138754079D01*
X151286434Y-138738694D01*
X151336339Y-138723102D01*
X151386677Y-138707301D01*
X151437452Y-138691291D01*
X151488667Y-138675070D01*
X151540323Y-138658637D01*
X151592425Y-138641991D01*
X151644975Y-138625129D01*
X151697976Y-138608051D01*
X151751430Y-138590756D01*
X151805340Y-138573241D01*
X151859710Y-138555507D01*
X151914541Y-138537550D01*
X151969837Y-138519370D01*
X152025600Y-138500967D01*
X152081834Y-138482337D01*
X152138540Y-138463480D01*
X152195723Y-138444395D01*
X152253384Y-138425080D01*
X152311526Y-138405533D01*
X152370153Y-138385754D01*
X152429267Y-138365742D01*
X152488870Y-138345494D01*
X152548966Y-138325010D01*
X152609557Y-138304287D01*
X152670647Y-138283325D01*
X152732238Y-138262123D01*
X152794332Y-138240679D01*
X152856933Y-138218991D01*
X152920043Y-138197059D01*
X152983666Y-138174881D01*
X153047803Y-138152455D01*
X153112458Y-138129781D01*
X153177633Y-138106856D01*
X153243332Y-138083680D01*
X153309557Y-138060251D01*
X153376311Y-138036568D01*
X153443597Y-138012630D01*
X153511417Y-137988434D01*
X153579774Y-137963981D01*
X153648671Y-137939268D01*
X153718112Y-137914294D01*
X153788098Y-137889058D01*
X153858632Y-137863558D01*
X153929718Y-137837793D01*
X154001357Y-137811762D01*
X154073554Y-137785463D01*
X154146310Y-137758895D01*
X154219628Y-137732057D01*
X154293512Y-137704947D01*
X154367964Y-137677564D01*
X154442986Y-137649906D01*
X154518583Y-137621973D01*
X154594755Y-137593762D01*
X154671507Y-137565273D01*
X154748840Y-137536505D01*
X154826759Y-137507455D01*
X154905265Y-137478122D01*
X154984361Y-137448506D01*
X155064051Y-137418604D01*
X155144336Y-137388416D01*
X155225220Y-137357939D01*
X155306706Y-137327174D01*
X155388796Y-137296118D01*
X155471493Y-137264769D01*
X155554800Y-137233128D01*
X155638720Y-137201191D01*
X155723255Y-137168959D01*
X155808408Y-137136429D01*
X155894183Y-137103601D01*
X155980581Y-137070472D01*
X156067606Y-137037042D01*
X156155261Y-137003309D01*
X156243547Y-136969271D01*
X156332469Y-136934929D01*
X156422029Y-136900279D01*
X156512229Y-136865321D01*
X156603073Y-136830053D01*
X156694563Y-136794475D01*
X156786702Y-136758584D01*
X156879492Y-136722380D01*
X156972938Y-136685860D01*
X157067040Y-136649025D01*
X157161803Y-136611871D01*
X157257229Y-136574399D01*
X157353321Y-136536606D01*
X157450081Y-136498491D01*
X157547512Y-136460053D01*
X157645618Y-136421291D01*
X157744401Y-136382203D01*
X157843863Y-136342787D01*
X157944008Y-136303043D01*
X158044838Y-136262970D01*
X158146356Y-136222565D01*
X158248566Y-136181827D01*
X158351468Y-136140756D01*
X158455068Y-136099349D01*
X158559367Y-136057606D01*
X158664367Y-136015524D01*
X158770073Y-135973103D01*
X158876486Y-135930342D01*
X158983610Y-135887239D01*
X159091447Y-135843792D01*
X159200000Y-135800000D01*
D10*
X134500000Y-35750000D02*
X136300000Y-35750000D01*
X146300000Y-34100000D02*
X136300000Y-34100000D01*
X71500000Y-35750000D02*
X73300000Y-35750000D01*
X73300000Y-137850000D02*
X71678680Y-137850000D01*
X68678680Y-134850000D02*
G75*
G02*
X71678700Y-137850000I20J-3000000D01*
G01*
X50950000Y-106000000D02*
X51250000Y-106300000D01*
X50950000Y-104000000D02*
X50950000Y-106000000D01*
X136300000Y-137850000D02*
X136300000Y-139500000D01*
X167650000Y-116000000D02*
X167350000Y-115700000D01*
X126921320Y-38750000D02*
G75*
G02*
X123921300Y-35750000I-20J3000000D01*
G01*
X167650000Y-67600000D02*
X167350000Y-67300000D01*
D11*
X146300000Y-34100000D02*
X146323121Y-34101177D01*
X146346299Y-34102278D01*
X146369550Y-34103303D01*
X146392892Y-34104252D01*
X146416343Y-34105127D01*
X146439926Y-34105927D01*
X146463663Y-34106654D01*
X146487581Y-34107306D01*
X146511710Y-34107886D01*
X146536082Y-34108392D01*
X146560734Y-34108825D01*
X146585711Y-34109185D01*
X146611063Y-34109471D01*
X146636847Y-34109683D01*
X146663135Y-34109821D01*
X146690011Y-34109883D01*
X146717579Y-34109868D01*
X146745970Y-34109775D01*
X146775351Y-34109600D01*
X146805948Y-34109340D01*
X146838068Y-34108989D01*
X146872166Y-34108539D01*
X146908950Y-34107978D01*
X146949667Y-34107282D01*
X146996928Y-34106400D01*
X147062988Y-34105098D01*
X147128720Y-34103801D01*
X147161664Y-34103179D01*
X147194690Y-34102590D01*
X147227821Y-34102043D01*
X147261079Y-34101550D01*
X147294485Y-34101122D01*
X147311252Y-34100936D01*
X147328064Y-34100769D01*
X147344924Y-34100625D01*
X147361836Y-34100503D01*
X147378802Y-34100405D01*
X147395824Y-34100333D01*
X147412906Y-34100289D01*
X147430051Y-34100272D01*
X147447261Y-34100285D01*
X147464539Y-34100329D01*
X147481888Y-34100405D01*
X147499310Y-34100516D01*
X147516809Y-34100661D01*
X147534387Y-34100843D01*
X147552047Y-34101062D01*
X147569791Y-34101321D01*
X147587623Y-34101620D01*
X147605546Y-34101961D01*
X147623562Y-34102345D01*
X147641673Y-34102774D01*
X147659884Y-34103248D01*
X147678196Y-34103770D01*
X147696612Y-34104341D01*
X147715136Y-34104961D01*
X147733769Y-34105633D01*
X147752515Y-34106357D01*
X147771377Y-34107136D01*
X147790356Y-34107970D01*
X147809457Y-34108860D01*
X147828682Y-34109809D01*
X147848034Y-34110817D01*
X147867515Y-34111886D01*
X147887128Y-34113017D01*
X147906876Y-34114211D01*
X147926762Y-34115470D01*
X147946789Y-34116796D01*
X147966959Y-34118189D01*
X147987276Y-34119651D01*
X148007741Y-34121183D01*
X148028358Y-34122786D01*
X148049130Y-34124463D01*
X148070059Y-34126214D01*
X148091149Y-34128041D01*
X148112401Y-34129944D01*
X148133820Y-34131926D01*
X148155406Y-34133988D01*
X148177165Y-34136131D01*
X148199097Y-34138356D01*
X148221206Y-34140665D01*
X148243495Y-34143059D01*
X148265967Y-34145539D01*
X148288624Y-34148107D01*
X148311469Y-34150765D01*
X148334505Y-34153513D01*
X148357734Y-34156353D01*
X148381160Y-34159286D01*
X148404786Y-34162314D01*
X148428613Y-34165437D01*
X148452646Y-34168658D01*
X148476886Y-34171978D01*
X148501336Y-34175397D01*
X148526000Y-34178918D01*
X148550880Y-34182542D01*
X148575979Y-34186270D01*
X148601299Y-34190103D01*
X148626844Y-34194043D01*
X148652616Y-34198091D01*
X148678618Y-34202248D01*
X148704853Y-34206516D01*
X148731324Y-34210897D01*
X148758033Y-34215390D01*
X148784983Y-34219999D01*
X148812177Y-34224724D01*
X148839618Y-34229567D01*
X148867308Y-34234528D01*
X148895251Y-34239610D01*
X148923449Y-34244813D01*
X148951905Y-34250140D01*
X148980622Y-34255590D01*
X149009602Y-34261167D01*
X149038849Y-34266870D01*
X149068364Y-34272702D01*
X149098152Y-34278663D01*
X149128214Y-34284756D01*
X149158554Y-34290981D01*
X149189174Y-34297340D01*
X149220077Y-34303834D01*
X149251267Y-34310465D01*
X149282744Y-34317233D01*
X149314514Y-34324141D01*
X149346577Y-34331189D01*
X149378938Y-34338379D01*
X149411598Y-34345712D01*
X149444561Y-34353190D01*
X149477830Y-34360814D01*
X149511407Y-34368586D01*
X149545295Y-34376506D01*
X149579496Y-34384575D01*
X149614015Y-34392797D01*
X149648852Y-34401171D01*
X149684012Y-34409699D01*
X149719497Y-34418383D01*
X149755310Y-34427223D01*
X149791453Y-34436222D01*
X149827929Y-34445380D01*
X149864742Y-34454699D01*
X149901894Y-34464180D01*
X149939387Y-34473824D01*
X149977225Y-34483634D01*
X150015411Y-34493609D01*
X150053946Y-34503753D01*
X150092835Y-34514065D01*
X150132079Y-34524548D01*
X150171681Y-34535202D01*
X150211645Y-34546030D01*
X150251973Y-34557031D01*
X150292668Y-34568209D01*
X150333733Y-34579563D01*
X150375170Y-34591096D01*
X150416983Y-34602809D01*
X150459173Y-34614703D01*
X150501744Y-34626779D01*
X150544699Y-34639039D01*
X150588041Y-34651484D01*
X150631771Y-34664116D01*
X150675894Y-34676936D01*
X150720411Y-34689945D01*
X150765327Y-34703145D01*
X150810642Y-34716536D01*
X150856361Y-34730121D01*
X150902486Y-34743900D01*
X150949019Y-34757876D01*
X150995964Y-34772049D01*
X151043324Y-34786420D01*
X151091100Y-34800992D01*
X151139297Y-34815765D01*
X151187916Y-34830741D01*
X151236961Y-34845921D01*
X151286434Y-34861306D01*
X151336339Y-34876898D01*
X151386677Y-34892699D01*
X151437452Y-34908709D01*
X151488667Y-34924930D01*
X151540323Y-34941363D01*
X151592425Y-34958009D01*
X151644975Y-34974871D01*
X151697976Y-34991949D01*
X151751430Y-35009244D01*
X151805340Y-35026759D01*
X151859710Y-35044493D01*
X151914541Y-35062450D01*
X151969837Y-35080630D01*
X152025600Y-35099033D01*
X152081834Y-35117663D01*
X152138540Y-35136520D01*
X152195723Y-35155605D01*
X152253384Y-35174920D01*
X152311526Y-35194467D01*
X152370153Y-35214246D01*
X152429267Y-35234258D01*
X152488870Y-35254506D01*
X152548966Y-35274990D01*
X152609557Y-35295713D01*
X152670647Y-35316675D01*
X152732238Y-35337877D01*
X152794332Y-35359321D01*
X152856933Y-35381009D01*
X152920043Y-35402941D01*
X152983666Y-35425119D01*
X153047803Y-35447545D01*
X153112458Y-35470219D01*
X153177633Y-35493144D01*
X153243332Y-35516320D01*
X153309557Y-35539749D01*
X153376311Y-35563432D01*
X153443597Y-35587370D01*
X153511417Y-35611566D01*
X153579774Y-35636019D01*
X153648671Y-35660732D01*
X153718112Y-35685706D01*
X153788098Y-35710942D01*
X153858632Y-35736442D01*
X153929718Y-35762207D01*
X154001357Y-35788238D01*
X154073554Y-35814537D01*
X154146310Y-35841105D01*
X154219628Y-35867943D01*
X154293512Y-35895053D01*
X154367964Y-35922436D01*
X154442986Y-35950094D01*
X154518583Y-35978027D01*
X154594755Y-36006238D01*
X154671507Y-36034727D01*
X154748840Y-36063495D01*
X154826759Y-36092545D01*
X154905265Y-36121878D01*
X154984361Y-36151494D01*
X155064051Y-36181396D01*
X155144336Y-36211584D01*
X155225220Y-36242061D01*
X155306706Y-36272826D01*
X155388796Y-36303882D01*
X155471493Y-36335231D01*
X155554800Y-36366872D01*
X155638720Y-36398809D01*
X155723255Y-36431041D01*
X155808408Y-36463571D01*
X155894183Y-36496399D01*
X155980581Y-36529528D01*
X156067606Y-36562958D01*
X156155261Y-36596691D01*
X156243547Y-36630729D01*
X156332469Y-36665071D01*
X156422029Y-36699721D01*
X156512229Y-36734679D01*
X156603073Y-36769947D01*
X156694563Y-36805525D01*
X156786702Y-36841416D01*
X156879492Y-36877620D01*
X156972938Y-36914140D01*
X157067040Y-36950975D01*
X157161803Y-36988129D01*
X157257229Y-37025601D01*
X157353321Y-37063394D01*
X157450081Y-37101509D01*
X157547512Y-37139947D01*
X157645618Y-37178709D01*
X157744401Y-37217797D01*
X157843863Y-37257213D01*
X157944008Y-37296957D01*
X158044838Y-37337030D01*
X158146356Y-37377435D01*
X158248566Y-37418173D01*
X158351468Y-37459244D01*
X158455068Y-37500651D01*
X158559367Y-37542394D01*
X158664367Y-37584476D01*
X158770073Y-37626897D01*
X158876486Y-37669658D01*
X158983610Y-37712761D01*
X159091447Y-37756208D01*
X159200000Y-37800000D01*
D10*
X51250000Y-106300000D02*
X51250000Y-115700000D01*
X51250000Y-57900000D02*
X51250000Y-67300000D01*
X136300000Y-137850000D02*
X134678680Y-137850000D01*
X94421320Y-38750000D02*
G75*
G02*
X91421300Y-35750000I-20J3000000D01*
G01*
X50950000Y-55600000D02*
X50950000Y-57600000D01*
X169300000Y-104000000D02*
X167650000Y-104000000D01*
X50950000Y-69600000D02*
X50950000Y-67600000D01*
X50950000Y-116000000D02*
X51250000Y-115700000D01*
X94421320Y-38750000D02*
X101000000Y-38750000D01*
X50950000Y-69600000D02*
X49300000Y-69600000D01*
X167650000Y-57600000D02*
X167350000Y-57900000D01*
X124100000Y-137850000D02*
X122300000Y-137850000D01*
X73300000Y-34100000D02*
X73300000Y-35750000D01*
X73300000Y-137850000D02*
X73300000Y-139500000D01*
M02*
