%TF.GenerationSoftware,KiCad,Pcbnew,9.0.1*%
%TF.CreationDate,2026-03-03T23:02:16+01:00*%
%TF.ProjectId,top_cover,746f705f-636f-4766-9572-2e6b69636164,rev?*%
%TF.SameCoordinates,Original*%
%TF.FileFunction,Copper,L1,Top*%
%TF.FilePolarity,Positive*%
%FSLAX46Y46*%
G04 Gerber Fmt 4.6, Leading zero omitted, Abs format (unit mm)*
G04 Created by KiCad (PCBNEW 9.0.1) date 2026-03-03 23:02:16*
%MOMM*%
%LPD*%
G01*
G04 APERTURE LIST*
%TA.AperFunction,NonConductor*%
%ADD10C,0.000000*%
%TD*%
%TA.AperFunction,ComponentPad*%
%ADD11C,4.500000*%
%TD*%
G04 APERTURE END LIST*
D10*
%TA.AperFunction,NonConductor*%
G36*
X114563648Y-87011266D02*
G01*
X114608633Y-87014199D01*
X114653726Y-87019354D01*
X114699562Y-87028234D01*
X114744400Y-87039291D01*
X114788193Y-87052459D01*
X114830895Y-87067674D01*
X114872461Y-87084871D01*
X114912843Y-87103985D01*
X114951996Y-87124951D01*
X114989875Y-87147705D01*
X115026431Y-87172182D01*
X115061621Y-87198317D01*
X115095396Y-87226045D01*
X115127712Y-87255302D01*
X115158523Y-87286022D01*
X115187781Y-87318142D01*
X115215441Y-87351595D01*
X115241457Y-87386318D01*
X115265782Y-87422246D01*
X115288371Y-87459313D01*
X115309178Y-87497456D01*
X115328156Y-87536609D01*
X115345259Y-87576707D01*
X115360441Y-87617686D01*
X115373656Y-87659481D01*
X115384858Y-87702028D01*
X115394000Y-87745260D01*
X115401038Y-87789115D01*
X115405923Y-87833526D01*
X115408611Y-87878429D01*
X115409055Y-87923759D01*
X115407209Y-87969452D01*
X115403027Y-88015443D01*
X115396463Y-88061667D01*
X113139688Y-101614866D01*
X112652078Y-102274672D01*
X109652628Y-103772810D01*
X113895181Y-102921744D01*
X118217386Y-94283659D01*
X118219339Y-94283667D01*
X118241175Y-94242615D01*
X118264802Y-94203157D01*
X118290145Y-94165318D01*
X118317129Y-94129122D01*
X118345677Y-94094592D01*
X118375714Y-94061755D01*
X118407164Y-94030634D01*
X118439950Y-94001254D01*
X118473997Y-93973639D01*
X118509229Y-93947813D01*
X118545570Y-93923802D01*
X118582945Y-93901630D01*
X118621277Y-93881321D01*
X118660490Y-93862900D01*
X118700509Y-93846391D01*
X118741258Y-93831819D01*
X118782661Y-93819208D01*
X118824642Y-93808582D01*
X118867125Y-93799967D01*
X118910035Y-93793387D01*
X118953295Y-93788865D01*
X118996829Y-93786428D01*
X119040562Y-93786098D01*
X119084418Y-93787901D01*
X119128321Y-93791861D01*
X119172195Y-93798003D01*
X119215964Y-93806351D01*
X119259552Y-93816930D01*
X119302884Y-93829764D01*
X119345884Y-93844877D01*
X119388475Y-93862294D01*
X119430582Y-93882040D01*
X119471642Y-93903599D01*
X119511125Y-93926985D01*
X119549006Y-93952122D01*
X119585259Y-93978930D01*
X119619858Y-94007333D01*
X119652778Y-94037252D01*
X119683994Y-94068611D01*
X119713479Y-94101332D01*
X119741208Y-94135337D01*
X119767155Y-94170548D01*
X119791295Y-94206887D01*
X119813602Y-94244278D01*
X119834051Y-94282642D01*
X119852615Y-94321902D01*
X119869270Y-94361981D01*
X119883989Y-94402800D01*
X119896747Y-94444282D01*
X119907519Y-94486349D01*
X119916278Y-94528924D01*
X119922999Y-94571929D01*
X119927657Y-94615286D01*
X119930225Y-94658918D01*
X119930679Y-94702747D01*
X119928992Y-94746696D01*
X119925139Y-94790687D01*
X119919095Y-94834642D01*
X119910833Y-94878484D01*
X119900328Y-94922135D01*
X119887555Y-94965517D01*
X119872487Y-95008553D01*
X119855100Y-95051165D01*
X119835367Y-95093275D01*
X115315470Y-104129812D01*
X114684366Y-104607947D01*
X107729227Y-106000860D01*
X107718668Y-106179350D01*
X112467996Y-107365103D01*
X113057718Y-107836844D01*
X115314432Y-112353537D01*
X115334170Y-112395930D01*
X115351562Y-112438790D01*
X115366635Y-112482040D01*
X115379414Y-112525606D01*
X115389926Y-112569413D01*
X115398198Y-112613385D01*
X115404255Y-112657446D01*
X115408124Y-112701522D01*
X115409831Y-112745538D01*
X115409402Y-112789417D01*
X115406863Y-112833085D01*
X115402242Y-112876467D01*
X115395564Y-112919486D01*
X115386855Y-112962068D01*
X115376142Y-113004138D01*
X115363451Y-113045620D01*
X115348808Y-113086439D01*
X115332239Y-113126519D01*
X115313772Y-113165786D01*
X115293431Y-113204164D01*
X115271244Y-113241578D01*
X115247237Y-113277952D01*
X115221435Y-113313211D01*
X115193866Y-113347280D01*
X115164554Y-113380084D01*
X115133528Y-113411547D01*
X115100813Y-113441594D01*
X115066435Y-113470149D01*
X115030420Y-113497138D01*
X114992795Y-113522486D01*
X114953587Y-113546116D01*
X114912821Y-113567953D01*
X114507974Y-113663633D01*
X114476940Y-113663103D01*
X114446007Y-113661515D01*
X114415202Y-113658880D01*
X114384553Y-113655205D01*
X114354086Y-113650498D01*
X114323827Y-113644767D01*
X114293805Y-113638020D01*
X114264045Y-113630267D01*
X114234574Y-113621514D01*
X114205419Y-113611770D01*
X114176608Y-113601043D01*
X114148167Y-113589342D01*
X114120122Y-113576674D01*
X114092501Y-113563047D01*
X114065330Y-113548471D01*
X114038637Y-113532952D01*
X114012448Y-113516500D01*
X113986789Y-113499122D01*
X113961688Y-113480826D01*
X113937172Y-113461621D01*
X113913268Y-113441515D01*
X113890001Y-113420515D01*
X113867400Y-113398631D01*
X113845490Y-113375870D01*
X113824299Y-113352240D01*
X113803854Y-113327750D01*
X113784182Y-113302408D01*
X113765308Y-113276222D01*
X113747261Y-113249199D01*
X113730066Y-113221349D01*
X113713751Y-113192680D01*
X113698343Y-113163199D01*
X111626505Y-109016264D01*
X108053324Y-108126974D01*
X110491739Y-109746222D01*
X110867838Y-110281721D01*
X113124613Y-119318243D01*
X113134763Y-119363382D01*
X113142527Y-119408507D01*
X113147944Y-119453549D01*
X113151055Y-119498438D01*
X113151902Y-119543105D01*
X113150524Y-119587481D01*
X113146964Y-119631496D01*
X113141261Y-119675080D01*
X113133457Y-119718165D01*
X113123592Y-119760681D01*
X113111708Y-119802558D01*
X113097845Y-119843728D01*
X113082044Y-119884120D01*
X113064347Y-119923665D01*
X113044793Y-119962294D01*
X113023424Y-119999937D01*
X113000280Y-120036526D01*
X112975404Y-120071990D01*
X112948834Y-120106260D01*
X112920613Y-120139267D01*
X112890781Y-120170941D01*
X112859378Y-120201213D01*
X112826447Y-120230014D01*
X112792027Y-120257274D01*
X112756160Y-120282923D01*
X112718887Y-120306893D01*
X112680247Y-120329114D01*
X112640283Y-120349516D01*
X112599035Y-120368030D01*
X112556544Y-120384587D01*
X112512851Y-120399117D01*
X112467996Y-120411551D01*
X112248209Y-120439962D01*
X112210384Y-120439164D01*
X112172823Y-120436783D01*
X112135565Y-120432847D01*
X112098654Y-120427380D01*
X112062128Y-120420406D01*
X112026030Y-120411952D01*
X111990401Y-120402043D01*
X111955280Y-120390702D01*
X111920710Y-120377957D01*
X111886731Y-120363831D01*
X111853384Y-120348349D01*
X111820710Y-120331538D01*
X111788750Y-120313421D01*
X111757545Y-120294025D01*
X111727137Y-120273374D01*
X111697565Y-120251493D01*
X111668871Y-120228407D01*
X111641096Y-120204142D01*
X111614282Y-120178722D01*
X111588468Y-120152174D01*
X111563696Y-120124521D01*
X111540006Y-120095789D01*
X111517441Y-120066003D01*
X111496040Y-120035188D01*
X111475845Y-120003370D01*
X111456897Y-119970573D01*
X111439236Y-119936822D01*
X111422904Y-119902143D01*
X111407942Y-119866560D01*
X111394391Y-119830100D01*
X111382290Y-119792786D01*
X111371683Y-119754645D01*
X109197855Y-111059179D01*
X107020731Y-109605681D01*
X106863246Y-109952576D01*
X106692358Y-110283825D01*
X106508637Y-110598499D01*
X106312652Y-110895667D01*
X106104974Y-111174401D01*
X105886171Y-111433773D01*
X105656815Y-111672852D01*
X105417475Y-111890709D01*
X105168720Y-112086416D01*
X105040990Y-112175673D01*
X104911121Y-112259043D01*
X104779183Y-112336412D01*
X104645247Y-112407662D01*
X104509386Y-112472677D01*
X104371670Y-112531342D01*
X104232169Y-112583540D01*
X104090957Y-112629155D01*
X103948103Y-112668071D01*
X103803679Y-112700172D01*
X103657757Y-112725342D01*
X103510407Y-112743464D01*
X103361701Y-112754422D01*
X103211710Y-112758101D01*
X103062012Y-112754422D01*
X102913582Y-112743464D01*
X102766490Y-112725342D01*
X102620808Y-112700172D01*
X102476608Y-112668071D01*
X102333962Y-112629155D01*
X102192942Y-112583540D01*
X102053619Y-112531342D01*
X101916066Y-112472677D01*
X101780354Y-112407662D01*
X101646555Y-112336412D01*
X101514740Y-112259043D01*
X101257354Y-112086416D01*
X101008768Y-111890709D01*
X100769558Y-111672852D01*
X100540297Y-111433773D01*
X100321562Y-111174401D01*
X100113926Y-110895667D01*
X99917963Y-110598499D01*
X99734249Y-110283825D01*
X99563357Y-109952576D01*
X99405863Y-109605681D01*
X97228800Y-111059179D01*
X95054910Y-119754637D01*
X95044586Y-119792779D01*
X95032752Y-119830092D01*
X95019449Y-119866553D01*
X95004718Y-119902135D01*
X94988599Y-119936814D01*
X94971135Y-119970565D01*
X94952365Y-120003362D01*
X94932330Y-120035181D01*
X94911071Y-120065995D01*
X94888630Y-120095781D01*
X94840363Y-120152166D01*
X94787854Y-120204134D01*
X94731432Y-120251485D01*
X94671422Y-120294017D01*
X94608153Y-120331530D01*
X94541950Y-120363823D01*
X94473141Y-120390695D01*
X94402054Y-120411945D01*
X94329013Y-120427372D01*
X94291864Y-120432839D01*
X94254348Y-120436776D01*
X94216508Y-120439156D01*
X94178385Y-120439955D01*
X93958353Y-120411543D01*
X93913772Y-120399117D01*
X93870318Y-120384593D01*
X93828033Y-120368042D01*
X93786960Y-120349533D01*
X93747141Y-120329135D01*
X93708618Y-120306917D01*
X93671436Y-120282950D01*
X93635635Y-120257303D01*
X93601259Y-120230044D01*
X93568350Y-120201244D01*
X93536951Y-120170972D01*
X93507104Y-120139298D01*
X93478853Y-120106290D01*
X93452238Y-120072019D01*
X93427304Y-120036554D01*
X93404093Y-119999964D01*
X93382646Y-119962319D01*
X93363008Y-119923687D01*
X93345220Y-119884140D01*
X93329325Y-119843745D01*
X93315365Y-119802574D01*
X93303384Y-119760694D01*
X93293423Y-119718175D01*
X93285526Y-119675088D01*
X93279735Y-119631501D01*
X93276092Y-119587483D01*
X93274640Y-119543105D01*
X93275422Y-119498436D01*
X93278480Y-119453545D01*
X93283856Y-119408502D01*
X93291595Y-119363375D01*
X93301737Y-119318235D01*
X95561685Y-110281714D01*
X95937784Y-109746214D01*
X98373026Y-108126967D01*
X94803018Y-109016256D01*
X92728006Y-113163191D01*
X92696852Y-113221361D01*
X92662106Y-113276247D01*
X92623989Y-113327785D01*
X92582720Y-113375911D01*
X92538518Y-113420558D01*
X92491603Y-113461664D01*
X92442194Y-113499162D01*
X92390512Y-113532988D01*
X92336776Y-113563077D01*
X92281205Y-113589364D01*
X92224019Y-113611785D01*
X92165437Y-113630275D01*
X92105680Y-113644769D01*
X92044966Y-113655202D01*
X91983516Y-113661509D01*
X91921549Y-113663626D01*
X91516702Y-113567946D01*
X91475653Y-113546108D01*
X91436179Y-113522478D01*
X91398305Y-113497131D01*
X91362058Y-113470142D01*
X91327463Y-113441586D01*
X91294546Y-113411539D01*
X91263333Y-113380076D01*
X91233848Y-113347273D01*
X91206119Y-113313203D01*
X91180171Y-113277944D01*
X91156029Y-113241570D01*
X91133719Y-113204157D01*
X91113268Y-113165779D01*
X91094700Y-113126512D01*
X91078041Y-113086431D01*
X91063318Y-113045612D01*
X91050556Y-113004130D01*
X91039780Y-112962061D01*
X91031016Y-112919478D01*
X91024291Y-112876459D01*
X91019629Y-112833078D01*
X91017057Y-112789410D01*
X91016600Y-112745530D01*
X91018284Y-112701515D01*
X91022134Y-112657439D01*
X91028177Y-112613377D01*
X91036439Y-112569405D01*
X91046944Y-112525599D01*
X91059718Y-112482032D01*
X91074788Y-112438782D01*
X91092179Y-112395922D01*
X91111917Y-112353529D01*
X93371805Y-107836836D01*
X93958353Y-107365095D01*
X98707681Y-106179342D01*
X98697122Y-106000853D01*
X91742044Y-104607939D01*
X91110941Y-104129805D01*
X86594278Y-95093268D01*
X86574545Y-95051157D01*
X86557158Y-95008547D01*
X86542089Y-94965512D01*
X86529313Y-94922133D01*
X86518804Y-94878485D01*
X86510535Y-94834646D01*
X86504480Y-94790695D01*
X86500613Y-94746708D01*
X86498907Y-94702763D01*
X86499337Y-94658938D01*
X86501876Y-94615310D01*
X86506498Y-94571957D01*
X86513176Y-94528956D01*
X86521885Y-94486386D01*
X86532599Y-94444322D01*
X86545290Y-94402844D01*
X86559933Y-94362028D01*
X86576501Y-94321952D01*
X86594969Y-94282694D01*
X86615310Y-94244331D01*
X86637497Y-94206941D01*
X86661505Y-94170601D01*
X86687308Y-94135389D01*
X86714879Y-94101382D01*
X86744191Y-94068659D01*
X86775220Y-94037296D01*
X86807938Y-94007371D01*
X86842319Y-93978962D01*
X86878337Y-93952146D01*
X86915965Y-93927000D01*
X86955179Y-93903604D01*
X86995950Y-93882033D01*
X87038340Y-93862287D01*
X87081197Y-93844870D01*
X87124446Y-93829757D01*
X87168010Y-93816924D01*
X87211815Y-93806347D01*
X87255786Y-93798000D01*
X87299847Y-93791859D01*
X87343923Y-93787900D01*
X87387939Y-93786098D01*
X87431819Y-93786429D01*
X87475487Y-93788868D01*
X87518870Y-93793391D01*
X87561890Y-93799973D01*
X87604474Y-93808589D01*
X87646545Y-93819216D01*
X87688028Y-93831828D01*
X87728848Y-93846402D01*
X87768930Y-93862911D01*
X87808199Y-93881333D01*
X87846578Y-93901643D01*
X87883993Y-93923815D01*
X87920368Y-93947826D01*
X87955628Y-93973651D01*
X87989698Y-94001265D01*
X88022502Y-94030645D01*
X88053966Y-94061764D01*
X88084013Y-94094600D01*
X88112568Y-94129127D01*
X88139557Y-94165321D01*
X88164903Y-94203157D01*
X88188531Y-94242612D01*
X88210367Y-94283659D01*
X92529398Y-102921744D01*
X96771951Y-103772810D01*
X93772501Y-102274672D01*
X93284891Y-101614866D01*
X91028116Y-88061667D01*
X91021840Y-88015443D01*
X91017927Y-87969452D01*
X91016332Y-87923760D01*
X91017007Y-87878429D01*
X91019907Y-87833527D01*
X91024986Y-87789116D01*
X91032198Y-87745262D01*
X91041496Y-87702030D01*
X91052835Y-87659484D01*
X91066168Y-87617689D01*
X91081449Y-87576711D01*
X91098632Y-87536613D01*
X91117672Y-87497461D01*
X91138521Y-87459318D01*
X91161134Y-87422251D01*
X91185465Y-87386324D01*
X91211467Y-87351601D01*
X91239095Y-87318148D01*
X91268302Y-87286029D01*
X91299042Y-87255308D01*
X91331269Y-87226052D01*
X91364937Y-87198324D01*
X91400001Y-87172188D01*
X91436413Y-87147711D01*
X91474127Y-87124957D01*
X91513098Y-87103990D01*
X91553280Y-87084876D01*
X91594626Y-87067678D01*
X91637090Y-87052462D01*
X91680626Y-87039293D01*
X91725189Y-87028236D01*
X91770731Y-87019354D01*
X91816113Y-87014764D01*
X91861369Y-87012325D01*
X91906429Y-87012000D01*
X91951224Y-87013756D01*
X91995682Y-87017556D01*
X92039734Y-87023367D01*
X92083311Y-87031152D01*
X92126341Y-87040878D01*
X92168755Y-87052508D01*
X92210482Y-87066008D01*
X92251454Y-87081344D01*
X92291599Y-87098479D01*
X92330847Y-87117379D01*
X92369129Y-87138009D01*
X92406375Y-87160333D01*
X92442514Y-87184318D01*
X92477477Y-87209927D01*
X92511193Y-87237126D01*
X92543592Y-87265880D01*
X92574604Y-87296154D01*
X92604160Y-87327912D01*
X92632189Y-87361120D01*
X92658621Y-87395743D01*
X92683386Y-87431746D01*
X92706414Y-87469093D01*
X92727634Y-87507750D01*
X92746978Y-87547682D01*
X92764375Y-87588853D01*
X92779754Y-87631229D01*
X92793047Y-87674774D01*
X92804182Y-87719454D01*
X92813089Y-87765234D01*
X94993326Y-100862616D01*
X97737772Y-102236426D01*
X97589744Y-101952990D01*
X97449439Y-101662239D01*
X97317110Y-101364399D01*
X97193009Y-101059700D01*
X97077388Y-100748372D01*
X96970498Y-100430641D01*
X96872592Y-100106738D01*
X96783922Y-99776891D01*
X96704740Y-99441328D01*
X96635297Y-99100279D01*
X96575847Y-98753972D01*
X96526641Y-98402636D01*
X96487930Y-98046499D01*
X96459968Y-97685791D01*
X96443006Y-97320740D01*
X96437296Y-96951574D01*
X96445422Y-96505488D01*
X96469551Y-96065228D01*
X96509304Y-95631280D01*
X96564303Y-95204128D01*
X96634171Y-94784258D01*
X96718530Y-94372155D01*
X96817003Y-93968303D01*
X96929212Y-93573188D01*
X97054780Y-93187295D01*
X97193328Y-92811108D01*
X97344480Y-92445112D01*
X97507858Y-92089794D01*
X97683083Y-91745637D01*
X97869779Y-91413126D01*
X98067567Y-91092748D01*
X98276071Y-90784986D01*
X98494913Y-90490325D01*
X98723714Y-90209252D01*
X98962098Y-89942250D01*
X99209687Y-89689804D01*
X99466102Y-89452401D01*
X99730967Y-89230524D01*
X100003905Y-89024659D01*
X100284536Y-88835290D01*
X100572484Y-88662904D01*
X100867372Y-88507984D01*
X101168820Y-88371015D01*
X101476453Y-88252484D01*
X101789892Y-88152874D01*
X102108760Y-88072671D01*
X102432678Y-88012360D01*
X102761270Y-87972426D01*
X103663309Y-87972426D01*
X103991910Y-88012361D01*
X104315856Y-88072673D01*
X104634767Y-88152876D01*
X104948265Y-88252486D01*
X105255971Y-88371019D01*
X105557506Y-88507987D01*
X105852491Y-88662908D01*
X106140548Y-88835295D01*
X106421298Y-89024663D01*
X106694362Y-89230529D01*
X107215916Y-89689810D01*
X107702181Y-90209257D01*
X108150125Y-90784991D01*
X108556719Y-91413132D01*
X108918933Y-92089799D01*
X109233735Y-92811112D01*
X109498096Y-93573192D01*
X109708985Y-94372159D01*
X109863372Y-95204131D01*
X109958227Y-96065230D01*
X109990518Y-96951574D01*
X109984771Y-97320740D01*
X109967705Y-97685791D01*
X109939580Y-98046499D01*
X109900659Y-98402635D01*
X109851204Y-98753970D01*
X109791477Y-99100277D01*
X109721739Y-99441326D01*
X109642252Y-99776888D01*
X109553278Y-100106735D01*
X109455078Y-100430638D01*
X109347915Y-100748368D01*
X109232050Y-101059697D01*
X109107745Y-101364396D01*
X108975261Y-101662236D01*
X108834862Y-101952989D01*
X108686807Y-102236426D01*
X111431253Y-100862616D01*
X113614664Y-87765234D01*
X113623566Y-87719424D01*
X113634694Y-87674681D01*
X113647979Y-87631044D01*
X113663349Y-87588550D01*
X113680734Y-87547239D01*
X113700064Y-87507149D01*
X113721267Y-87468318D01*
X113744273Y-87430786D01*
X113769012Y-87394589D01*
X113795412Y-87359767D01*
X113823404Y-87326358D01*
X113852916Y-87294402D01*
X113883878Y-87263935D01*
X113916220Y-87234997D01*
X113949870Y-87207626D01*
X113984758Y-87181860D01*
X114020814Y-87157739D01*
X114057967Y-87135300D01*
X114096146Y-87114582D01*
X114135280Y-87095623D01*
X114175300Y-87078462D01*
X114216133Y-87063138D01*
X114257711Y-87049688D01*
X114299962Y-87038152D01*
X114342815Y-87028567D01*
X114386200Y-87020973D01*
X114430047Y-87015407D01*
X114474284Y-87011908D01*
X114518841Y-87010515D01*
X114563648Y-87011266D01*
G37*
%TD.AperFunction*%
%TA.AperFunction,NonConductor*%
G36*
X129875864Y-95098303D02*
G01*
X129650491Y-95158507D01*
X129685330Y-95179418D01*
X129718415Y-95200830D01*
X129749746Y-95222743D01*
X129779324Y-95245157D01*
X129807147Y-95268071D01*
X129833218Y-95291487D01*
X129857534Y-95315403D01*
X129880097Y-95339820D01*
X129900907Y-95364738D01*
X129919963Y-95390156D01*
X129937265Y-95416076D01*
X129952814Y-95442496D01*
X129966610Y-95469416D01*
X129978652Y-95496838D01*
X129988941Y-95524760D01*
X129997476Y-95553183D01*
X130173944Y-96214140D01*
X130184246Y-96256297D01*
X130192560Y-96298203D01*
X130198887Y-96339858D01*
X130203226Y-96381264D01*
X130205578Y-96422419D01*
X130205942Y-96463323D01*
X130204319Y-96503977D01*
X130200709Y-96544381D01*
X130195112Y-96584535D01*
X130187527Y-96624437D01*
X130177955Y-96664090D01*
X130166396Y-96703492D01*
X130152850Y-96742643D01*
X130137317Y-96781544D01*
X130119797Y-96820195D01*
X130100290Y-96858595D01*
X130079095Y-96896032D01*
X130056508Y-96931790D01*
X130032530Y-96965869D01*
X130007160Y-96998269D01*
X129980399Y-97028991D01*
X129952246Y-97058034D01*
X129922700Y-97085399D01*
X129891763Y-97111085D01*
X129859435Y-97135093D01*
X129825714Y-97157422D01*
X129790601Y-97178073D01*
X129754096Y-97197046D01*
X129716199Y-97214340D01*
X129676910Y-97229957D01*
X129636229Y-97243895D01*
X129594156Y-97256155D01*
X126608194Y-98053488D01*
X126430628Y-97388640D01*
X129288294Y-96625540D01*
X129306489Y-96620321D01*
X129324141Y-96614531D01*
X129341250Y-96608171D01*
X129357816Y-96601239D01*
X129373840Y-96593737D01*
X129389321Y-96585665D01*
X129404258Y-96577021D01*
X129418653Y-96567806D01*
X129432505Y-96558021D01*
X129445814Y-96547664D01*
X129458581Y-96536737D01*
X129470804Y-96525238D01*
X129482484Y-96513168D01*
X129493622Y-96500527D01*
X129504217Y-96487315D01*
X129514269Y-96473532D01*
X129524174Y-96459630D01*
X129533098Y-96445340D01*
X129541039Y-96430661D01*
X129547998Y-96415593D01*
X129553975Y-96400137D01*
X129558970Y-96384291D01*
X129562982Y-96368057D01*
X129566011Y-96351434D01*
X129568058Y-96334422D01*
X129569123Y-96317021D01*
X129569206Y-96299232D01*
X129568305Y-96281053D01*
X129566423Y-96262486D01*
X129563558Y-96243530D01*
X129559710Y-96224185D01*
X129554880Y-96204451D01*
X129403269Y-95636809D01*
X129399442Y-95622647D01*
X129395133Y-95608965D01*
X129390342Y-95595761D01*
X129385068Y-95583035D01*
X129379312Y-95570788D01*
X129373074Y-95559020D01*
X129366354Y-95547729D01*
X129359151Y-95536918D01*
X129351466Y-95526585D01*
X129343299Y-95516730D01*
X129334649Y-95507354D01*
X129325517Y-95498456D01*
X129315903Y-95490037D01*
X129305806Y-95482097D01*
X129295227Y-95474635D01*
X129284166Y-95467651D01*
X129272622Y-95461147D01*
X129260596Y-95455120D01*
X129248088Y-95449573D01*
X129235097Y-95444503D01*
X129221624Y-95439913D01*
X129207669Y-95435801D01*
X129193231Y-95432167D01*
X129178311Y-95429012D01*
X129162908Y-95426336D01*
X129147023Y-95424138D01*
X129130655Y-95422419D01*
X129113806Y-95421179D01*
X129096473Y-95420417D01*
X129078659Y-95420134D01*
X129060361Y-95420329D01*
X129041582Y-95421003D01*
X129021276Y-95422466D01*
X129001310Y-95424226D01*
X128981684Y-95426285D01*
X128962398Y-95428641D01*
X128943452Y-95431296D01*
X128924846Y-95434248D01*
X128906579Y-95437498D01*
X128888651Y-95441046D01*
X126108743Y-96183333D01*
X125931192Y-95518507D01*
X129717050Y-94503439D01*
X129875864Y-95098303D01*
G37*
%TD.AperFunction*%
%TA.AperFunction,NonConductor*%
G36*
X108378883Y-131298693D02*
G01*
X108401680Y-131300037D01*
X108423893Y-131302433D01*
X108445520Y-131305881D01*
X108466562Y-131310381D01*
X108487018Y-131315933D01*
X108506890Y-131322536D01*
X108526176Y-131330192D01*
X108544876Y-131338900D01*
X108562992Y-131348660D01*
X108580522Y-131359472D01*
X108597489Y-131371764D01*
X108613715Y-131384980D01*
X108629201Y-131399119D01*
X108643947Y-131414181D01*
X108657952Y-131430166D01*
X108671218Y-131447075D01*
X108683743Y-131464907D01*
X108695528Y-131483662D01*
X108706572Y-131503340D01*
X108716877Y-131523942D01*
X108726441Y-131545466D01*
X108735264Y-131567914D01*
X108743348Y-131591285D01*
X108750690Y-131615580D01*
X108757293Y-131640797D01*
X108763155Y-131666937D01*
X108768123Y-131693246D01*
X108772040Y-131718970D01*
X108774905Y-131744108D01*
X108776717Y-131768661D01*
X108777478Y-131792628D01*
X108777186Y-131816011D01*
X108775843Y-131838808D01*
X108773447Y-131861019D01*
X108769999Y-131882646D01*
X108765499Y-131903687D01*
X108759947Y-131924143D01*
X108753342Y-131944013D01*
X108745685Y-131963299D01*
X108736977Y-131981999D01*
X108727215Y-132000115D01*
X108716402Y-132017645D01*
X108704588Y-132034513D01*
X108691820Y-132050647D01*
X108678098Y-132066047D01*
X108663422Y-132080713D01*
X108647791Y-132094646D01*
X108631207Y-132107844D01*
X108613668Y-132120309D01*
X108595176Y-132132040D01*
X108575729Y-132143037D01*
X108555328Y-132153300D01*
X108533973Y-132162830D01*
X108511665Y-132171625D01*
X108488402Y-132179687D01*
X108464185Y-132187015D01*
X108439014Y-132193609D01*
X108412889Y-132199469D01*
X108360037Y-132208582D01*
X108334615Y-132211583D01*
X108309861Y-132213547D01*
X108285775Y-132214475D01*
X108262359Y-132214365D01*
X108239611Y-132213219D01*
X108217531Y-132211036D01*
X108196121Y-132207816D01*
X108175379Y-132203559D01*
X108155306Y-132198265D01*
X108135901Y-132191934D01*
X108117166Y-132184567D01*
X108099099Y-132176162D01*
X108081700Y-132166721D01*
X108064971Y-132156242D01*
X108048910Y-132144727D01*
X108033518Y-132132175D01*
X108018794Y-132118586D01*
X108004739Y-132103960D01*
X107991353Y-132088298D01*
X107978636Y-132071598D01*
X107966587Y-132053861D01*
X107955207Y-132035088D01*
X107944495Y-132015278D01*
X107934453Y-131994430D01*
X107925079Y-131972546D01*
X107916373Y-131949625D01*
X107908337Y-131925667D01*
X107900969Y-131900671D01*
X107888239Y-131847571D01*
X107878794Y-131793291D01*
X107873456Y-131741792D01*
X107872326Y-131717085D01*
X107872223Y-131693073D01*
X107873146Y-131669757D01*
X107875095Y-131647135D01*
X107878071Y-131625209D01*
X107882073Y-131603977D01*
X107887102Y-131583441D01*
X107893157Y-131563599D01*
X107900239Y-131544453D01*
X107908347Y-131526002D01*
X107917481Y-131508246D01*
X107927642Y-131491184D01*
X107938829Y-131474818D01*
X107951042Y-131459147D01*
X107964282Y-131444171D01*
X107978549Y-131429889D01*
X107993842Y-131416303D01*
X108010161Y-131403412D01*
X108027506Y-131391215D01*
X108045879Y-131379714D01*
X108065277Y-131368907D01*
X108085702Y-131358796D01*
X108107153Y-131349379D01*
X108129631Y-131340657D01*
X108153135Y-131332631D01*
X108177666Y-131325299D01*
X108229807Y-131312719D01*
X108256116Y-131307752D01*
X108281840Y-131303837D01*
X108306978Y-131300973D01*
X108331532Y-131299161D01*
X108355500Y-131298401D01*
X108378883Y-131298693D01*
G37*
%TD.AperFunction*%
%TA.AperFunction,NonConductor*%
G36*
X104057918Y-127633611D02*
G01*
X104103980Y-127636960D01*
X104148760Y-127642335D01*
X104192258Y-127649737D01*
X104234474Y-127659166D01*
X104275407Y-127670621D01*
X104315058Y-127684103D01*
X104353428Y-127699612D01*
X104390515Y-127717147D01*
X104426321Y-127736709D01*
X104460845Y-127758298D01*
X104494087Y-127781913D01*
X104526047Y-127807556D01*
X104556725Y-127835224D01*
X104586122Y-127864920D01*
X104614517Y-127896189D01*
X104641191Y-127928620D01*
X104666144Y-127962211D01*
X104689376Y-127996964D01*
X104710887Y-128032878D01*
X104730677Y-128069953D01*
X104748746Y-128108190D01*
X104765095Y-128147587D01*
X104779722Y-128188145D01*
X104792629Y-128229865D01*
X104803816Y-128272745D01*
X104813282Y-128316786D01*
X104821027Y-128361988D01*
X104827052Y-128408352D01*
X104831356Y-128455876D01*
X104833940Y-128504561D01*
X104142198Y-128528677D01*
X104142265Y-128511373D01*
X104141695Y-128494720D01*
X104140488Y-128478719D01*
X104138644Y-128463369D01*
X104136164Y-128448670D01*
X104133047Y-128434622D01*
X104129293Y-128421226D01*
X104124902Y-128408481D01*
X104119873Y-128396387D01*
X104114208Y-128384945D01*
X104107906Y-128374154D01*
X104100966Y-128364014D01*
X104093390Y-128354526D01*
X104085175Y-128345689D01*
X104076324Y-128337504D01*
X104066835Y-128329970D01*
X104056348Y-128323508D01*
X104045500Y-128317500D01*
X104034292Y-128311946D01*
X104022722Y-128306844D01*
X104010792Y-128302195D01*
X103998501Y-128297999D01*
X103985849Y-128294257D01*
X103972836Y-128290967D01*
X103959463Y-128288131D01*
X103945728Y-128285747D01*
X103931632Y-128283816D01*
X103917175Y-128282339D01*
X103902358Y-128281314D01*
X103887179Y-128280743D01*
X103871639Y-128280624D01*
X103855737Y-128280958D01*
X102910623Y-128313894D01*
X102891829Y-128314844D01*
X102873652Y-128316363D01*
X102856093Y-128318450D01*
X102839151Y-128321105D01*
X102822827Y-128324328D01*
X102807121Y-128328119D01*
X102792031Y-128332479D01*
X102777560Y-128337408D01*
X102763706Y-128342904D01*
X102750469Y-128348969D01*
X102737850Y-128355602D01*
X102725848Y-128362804D01*
X102714464Y-128370574D01*
X102703698Y-128378912D01*
X102693549Y-128387818D01*
X102684017Y-128397293D01*
X102675103Y-128407336D01*
X102666806Y-128417948D01*
X102659127Y-128429127D01*
X102652065Y-128440876D01*
X102645621Y-128453192D01*
X102639794Y-128466077D01*
X102634585Y-128479530D01*
X102629993Y-128493551D01*
X102626019Y-128508141D01*
X102622662Y-128523298D01*
X102619923Y-128539025D01*
X102617801Y-128555319D01*
X102616297Y-128572182D01*
X102615409Y-128589613D01*
X102615140Y-128607613D01*
X102615488Y-128626181D01*
X102649973Y-129615530D01*
X102652487Y-129653476D01*
X102654608Y-129671499D01*
X102657305Y-129688888D01*
X102660577Y-129705644D01*
X102664425Y-129721766D01*
X102668849Y-129737255D01*
X102673848Y-129752110D01*
X102679423Y-129766331D01*
X102685574Y-129779919D01*
X102692301Y-129792874D01*
X102699603Y-129805195D01*
X102707481Y-129816882D01*
X102715935Y-129827936D01*
X102724965Y-129838357D01*
X102734570Y-129848144D01*
X102744751Y-129857297D01*
X102755508Y-129865817D01*
X102766841Y-129873703D01*
X102778749Y-129880956D01*
X102791234Y-129887576D01*
X102804293Y-129893561D01*
X102817929Y-129898914D01*
X102832141Y-129903633D01*
X102846928Y-129907718D01*
X102862291Y-129911170D01*
X102878230Y-129913988D01*
X102894745Y-129916173D01*
X102911835Y-129917724D01*
X102929502Y-129918642D01*
X102947744Y-129918926D01*
X102966562Y-129918577D01*
X103992105Y-129882834D01*
X104037402Y-129882292D01*
X104081797Y-129883859D01*
X104125291Y-129887534D01*
X104167882Y-129893316D01*
X104209572Y-129901206D01*
X104250361Y-129911204D01*
X104290247Y-129923310D01*
X104329232Y-129937523D01*
X104367315Y-129953844D01*
X104404497Y-129972273D01*
X104440777Y-129992809D01*
X104476155Y-130015453D01*
X104510632Y-130040204D01*
X104544207Y-130067063D01*
X104576880Y-130096030D01*
X104608652Y-130127104D01*
X104639043Y-130159673D01*
X104667578Y-130193125D01*
X104694255Y-130227460D01*
X104719076Y-130262677D01*
X104742040Y-130298778D01*
X104763147Y-130335760D01*
X104782398Y-130373626D01*
X104799791Y-130412374D01*
X104815328Y-130452004D01*
X104829008Y-130492517D01*
X104840831Y-130533913D01*
X104850797Y-130576190D01*
X104858907Y-130619351D01*
X104865160Y-130663393D01*
X104869556Y-130708318D01*
X104872095Y-130754126D01*
X104911356Y-131880224D01*
X104912038Y-131925091D01*
X104910932Y-131969202D01*
X104908039Y-132012558D01*
X104903357Y-132055158D01*
X104896887Y-132097003D01*
X104888629Y-132138092D01*
X104878584Y-132178426D01*
X104866750Y-132218004D01*
X104853129Y-132256827D01*
X104837720Y-132294894D01*
X104820524Y-132332205D01*
X104801540Y-132368760D01*
X104780768Y-132404559D01*
X104758208Y-132439603D01*
X104733862Y-132473890D01*
X104707727Y-132507422D01*
X104680143Y-132539588D01*
X104651451Y-132569780D01*
X104621653Y-132597998D01*
X104590747Y-132624242D01*
X104558735Y-132648511D01*
X104525615Y-132670806D01*
X104491388Y-132691126D01*
X104456054Y-132709471D01*
X104419614Y-132725841D01*
X104382066Y-132740237D01*
X104343411Y-132752657D01*
X104303649Y-132763103D01*
X104262780Y-132771573D01*
X104220804Y-132778068D01*
X104177721Y-132782587D01*
X104133531Y-132785132D01*
X102886789Y-132828589D01*
X102841101Y-132829223D01*
X102796541Y-132827898D01*
X102753108Y-132824615D01*
X102710803Y-132819374D01*
X102669625Y-132812174D01*
X102629574Y-132803016D01*
X102590651Y-132791899D01*
X102552854Y-132778824D01*
X102516185Y-132763791D01*
X102480643Y-132746800D01*
X102446229Y-132727850D01*
X102412941Y-132706943D01*
X102380781Y-132684078D01*
X102349748Y-132659255D01*
X102319842Y-132632474D01*
X102291063Y-132603735D01*
X102264164Y-132573435D01*
X102238893Y-132542008D01*
X102215250Y-132509455D01*
X102193235Y-132475776D01*
X102172848Y-132440970D01*
X102154089Y-132405038D01*
X102136959Y-132367980D01*
X102121457Y-132329796D01*
X102107583Y-132290485D01*
X102095337Y-132250048D01*
X102084719Y-132208485D01*
X102075730Y-132165795D01*
X102068369Y-132121978D01*
X102062636Y-132077036D01*
X102058531Y-132030966D01*
X102056055Y-131983770D01*
X102747804Y-131959631D01*
X102748073Y-131973495D01*
X102748900Y-131986898D01*
X102750285Y-131999842D01*
X102752228Y-132012327D01*
X102754729Y-132024351D01*
X102757787Y-132035916D01*
X102761404Y-132047021D01*
X102765579Y-132057666D01*
X102770311Y-132067852D01*
X102775602Y-132077577D01*
X102781450Y-132086843D01*
X102787857Y-132095649D01*
X102794821Y-132103995D01*
X102802343Y-132111881D01*
X102810424Y-132119308D01*
X102819062Y-132126274D01*
X102828258Y-132132781D01*
X102838012Y-132138828D01*
X102848325Y-132144415D01*
X102859195Y-132149542D01*
X102870623Y-132154209D01*
X102882609Y-132158416D01*
X102895153Y-132162164D01*
X102908255Y-132165451D01*
X102921915Y-132168278D01*
X102936133Y-132170646D01*
X102950909Y-132172554D01*
X102966243Y-132174001D01*
X102982135Y-132174989D01*
X102998585Y-132175517D01*
X103015593Y-132175584D01*
X103033159Y-132175192D01*
X103897791Y-132145056D01*
X103916584Y-132144089D01*
X103934760Y-132142523D01*
X103952316Y-132140357D01*
X103969254Y-132137592D01*
X103985573Y-132134226D01*
X104001274Y-132130261D01*
X104016356Y-132125696D01*
X104030820Y-132120532D01*
X104044665Y-132114767D01*
X104057891Y-132108404D01*
X104070499Y-132101440D01*
X104082488Y-132093877D01*
X104093859Y-132085714D01*
X104104611Y-132076951D01*
X104114744Y-132067589D01*
X104124259Y-132057627D01*
X104133155Y-132047065D01*
X104141433Y-132035904D01*
X104149092Y-132024143D01*
X104156132Y-132011783D01*
X104162554Y-131998822D01*
X104168357Y-131985263D01*
X104173542Y-131971103D01*
X104178108Y-131956344D01*
X104182056Y-131940986D01*
X104185385Y-131925027D01*
X104188095Y-131908470D01*
X104190187Y-131891312D01*
X104191661Y-131873555D01*
X104192515Y-131855199D01*
X104192752Y-131836242D01*
X104192369Y-131816687D01*
X104157884Y-130827337D01*
X104156937Y-130808790D01*
X104155414Y-130790852D01*
X104153315Y-130773524D01*
X104150639Y-130756807D01*
X104147387Y-130740699D01*
X104143558Y-130725201D01*
X104139153Y-130710314D01*
X104134172Y-130696036D01*
X104128615Y-130682368D01*
X104122481Y-130669311D01*
X104115771Y-130656863D01*
X104108484Y-130645025D01*
X104100621Y-130633797D01*
X104092182Y-130623179D01*
X104083167Y-130613171D01*
X104073575Y-130603773D01*
X104063407Y-130594985D01*
X104052662Y-130586807D01*
X104041341Y-130579239D01*
X104029444Y-130572280D01*
X104016970Y-130565932D01*
X104003921Y-130560194D01*
X103990294Y-130555065D01*
X103976092Y-130550546D01*
X103961313Y-130546637D01*
X103945957Y-130543339D01*
X103930026Y-130540650D01*
X103913518Y-130538570D01*
X103896433Y-130537101D01*
X103878773Y-130536242D01*
X103860536Y-130535992D01*
X103841722Y-130536352D01*
X102775942Y-130573507D01*
X102731214Y-130574061D01*
X102687515Y-130572564D01*
X102644846Y-130569019D01*
X102603206Y-130563424D01*
X102562596Y-130555780D01*
X102523015Y-130546086D01*
X102484463Y-130534343D01*
X102446941Y-130520551D01*
X102410449Y-130504709D01*
X102374985Y-130486819D01*
X102340552Y-130466878D01*
X102307147Y-130444889D01*
X102274772Y-130420850D01*
X102243427Y-130394763D01*
X102213111Y-130366626D01*
X102183824Y-130336439D01*
X102155416Y-130304824D01*
X102128740Y-130272361D01*
X102103796Y-130239051D01*
X102080583Y-130204895D01*
X102059102Y-130169892D01*
X102039354Y-130134042D01*
X102021337Y-130097345D01*
X102005052Y-130059801D01*
X101990500Y-130021411D01*
X101977679Y-129982173D01*
X101966590Y-129942089D01*
X101957233Y-129901157D01*
X101949609Y-129859379D01*
X101943716Y-129816754D01*
X101939556Y-129773283D01*
X101937128Y-129728964D01*
X101897875Y-128602881D01*
X101897222Y-128557006D01*
X101898483Y-128511883D01*
X101901657Y-128467511D01*
X101906744Y-128423890D01*
X101913744Y-128381020D01*
X101922658Y-128338901D01*
X101933485Y-128297533D01*
X101946226Y-128256917D01*
X101960880Y-128217052D01*
X101977447Y-128177938D01*
X101995927Y-128139576D01*
X102016321Y-128101965D01*
X102038628Y-128065106D01*
X102062848Y-128028998D01*
X102088982Y-127993641D01*
X102117029Y-127959036D01*
X102146577Y-127926309D01*
X102177169Y-127895591D01*
X102208807Y-127866881D01*
X102241491Y-127840180D01*
X102275219Y-127815488D01*
X102309992Y-127792805D01*
X102345811Y-127772130D01*
X102382675Y-127753464D01*
X102420584Y-127736806D01*
X102459538Y-127722157D01*
X102499537Y-127709517D01*
X102540582Y-127698885D01*
X102582672Y-127690262D01*
X102625806Y-127683647D01*
X102669986Y-127679041D01*
X102715212Y-127676443D01*
X103961946Y-127632994D01*
X104010573Y-127632289D01*
X104057918Y-127633611D01*
G37*
%TD.AperFunction*%
%TA.AperFunction,NonConductor*%
G36*
X122468164Y-124058996D02*
G01*
X122497075Y-124093874D01*
X122523545Y-124129592D01*
X122547575Y-124166149D01*
X122569164Y-124203546D01*
X122588313Y-124241782D01*
X122605022Y-124280857D01*
X122619290Y-124320772D01*
X122631118Y-124361526D01*
X122640505Y-124403119D01*
X122647452Y-124445550D01*
X122651959Y-124488821D01*
X122654025Y-124532931D01*
X122653651Y-124577879D01*
X122650837Y-124623666D01*
X122645583Y-124670292D01*
X122637888Y-124717756D01*
X122628165Y-124765098D01*
X122616822Y-124811351D01*
X122603859Y-124856514D01*
X122589275Y-124900589D01*
X122573070Y-124943574D01*
X122555245Y-124985471D01*
X122535800Y-125026278D01*
X122514734Y-125065996D01*
X122492048Y-125104626D01*
X122467741Y-125142166D01*
X122441814Y-125178618D01*
X122414267Y-125213980D01*
X122385099Y-125248254D01*
X122354311Y-125281439D01*
X122321903Y-125313535D01*
X122287874Y-125344542D01*
X121500215Y-126033255D01*
X121465694Y-126062168D01*
X121430289Y-126089306D01*
X121394000Y-126114670D01*
X121356827Y-126138258D01*
X121318770Y-126160072D01*
X121279829Y-126180111D01*
X121240004Y-126198376D01*
X121199295Y-126214865D01*
X121157702Y-126229579D01*
X121115225Y-126242519D01*
X121071865Y-126253683D01*
X121027621Y-126263073D01*
X120982493Y-126270687D01*
X120936481Y-126276527D01*
X120889585Y-126280591D01*
X120841806Y-126282881D01*
X120794172Y-126283186D01*
X120747711Y-126281297D01*
X120702421Y-126277214D01*
X120658303Y-126270937D01*
X120615357Y-126262466D01*
X120573583Y-126251801D01*
X120532981Y-126238943D01*
X120493551Y-126223889D01*
X120455293Y-126206642D01*
X120418207Y-126187201D01*
X120382292Y-126165565D01*
X120347550Y-126141736D01*
X120313980Y-126115711D01*
X120281581Y-126087493D01*
X120250355Y-126057080D01*
X120220300Y-126024473D01*
X118815699Y-124418074D01*
X119783258Y-124418074D01*
X120681223Y-125445059D01*
X120693279Y-125458344D01*
X120705605Y-125470935D01*
X120718200Y-125482830D01*
X120731064Y-125494031D01*
X120744198Y-125504537D01*
X120757601Y-125514348D01*
X120771273Y-125523463D01*
X120785214Y-125531884D01*
X120799425Y-125539610D01*
X120813904Y-125546641D01*
X120828653Y-125552977D01*
X120843671Y-125558618D01*
X120858958Y-125563564D01*
X120874515Y-125567815D01*
X120890340Y-125571371D01*
X120906435Y-125574232D01*
X120922239Y-125576595D01*
X120937952Y-125577994D01*
X120953575Y-125578429D01*
X120969105Y-125577899D01*
X120984545Y-125576405D01*
X120999893Y-125573946D01*
X121015150Y-125570523D01*
X121030316Y-125566136D01*
X121045391Y-125560785D01*
X121060374Y-125554470D01*
X121075266Y-125547190D01*
X121090066Y-125538946D01*
X121104776Y-125529738D01*
X121119393Y-125519566D01*
X121133920Y-125508429D01*
X121148355Y-125496328D01*
X121833017Y-124897680D01*
X121847278Y-124884689D01*
X121860525Y-124871540D01*
X121872757Y-124858233D01*
X121883975Y-124844770D01*
X121894178Y-124831150D01*
X121903367Y-124817372D01*
X121911542Y-124803438D01*
X121918702Y-124789346D01*
X121924848Y-124775097D01*
X121929979Y-124760691D01*
X121934096Y-124746128D01*
X121937199Y-124731408D01*
X121939288Y-124716531D01*
X121940363Y-124701497D01*
X121940424Y-124686306D01*
X121939470Y-124670958D01*
X121937681Y-124655587D01*
X121935239Y-124640328D01*
X121932143Y-124625182D01*
X121928393Y-124610147D01*
X121923990Y-124595224D01*
X121918934Y-124580414D01*
X121913223Y-124565715D01*
X121906859Y-124551129D01*
X121899841Y-124536654D01*
X121892170Y-124522292D01*
X121883845Y-124508042D01*
X121874866Y-124493904D01*
X121865234Y-124479878D01*
X121854948Y-124465965D01*
X121844008Y-124452164D01*
X121832414Y-124438475D01*
X120934435Y-123411490D01*
X119783258Y-124418074D01*
X118815699Y-124418074D01*
X117385996Y-122782965D01*
X117934320Y-122303518D01*
X119375322Y-123951529D01*
X120526514Y-122944960D01*
X119085520Y-121296934D01*
X119633837Y-120817480D01*
X122468164Y-124058996D01*
G37*
%TD.AperFunction*%
%TA.AperFunction,NonConductor*%
G36*
X130734583Y-100224562D02*
G01*
X131500566Y-100160940D01*
X131560861Y-100886816D01*
X130794878Y-100950445D01*
X130840845Y-101503882D01*
X130235269Y-101554182D01*
X130189295Y-101000746D01*
X127835214Y-101196318D01*
X127816982Y-101198147D01*
X127799380Y-101200555D01*
X127782411Y-101203541D01*
X127766073Y-101207106D01*
X127750367Y-101211249D01*
X127735293Y-101215971D01*
X127720850Y-101221271D01*
X127707039Y-101227150D01*
X127693860Y-101233607D01*
X127681313Y-101240643D01*
X127669397Y-101248257D01*
X127658113Y-101256450D01*
X127647460Y-101265221D01*
X127637440Y-101274571D01*
X127628051Y-101284499D01*
X127619294Y-101295006D01*
X127611169Y-101306091D01*
X127603675Y-101317755D01*
X127596813Y-101329997D01*
X127590583Y-101342818D01*
X127584984Y-101356218D01*
X127580017Y-101370195D01*
X127575682Y-101384752D01*
X127571979Y-101399887D01*
X127568908Y-101415600D01*
X127566468Y-101431892D01*
X127564660Y-101448762D01*
X127563483Y-101466211D01*
X127562939Y-101484239D01*
X127563026Y-101502845D01*
X127563745Y-101522029D01*
X127565096Y-101541792D01*
X127567088Y-101561785D01*
X127569691Y-101581160D01*
X127572905Y-101599916D01*
X127576730Y-101618053D01*
X127581167Y-101635572D01*
X127586214Y-101652472D01*
X127591873Y-101668754D01*
X127598142Y-101684417D01*
X127605023Y-101699461D01*
X127612514Y-101713887D01*
X127620617Y-101727694D01*
X127629331Y-101740883D01*
X127638656Y-101753453D01*
X127648592Y-101765404D01*
X127659139Y-101776737D01*
X127670297Y-101787451D01*
X127682067Y-101797546D01*
X127694447Y-101807023D01*
X127707439Y-101815882D01*
X127721041Y-101824121D01*
X127735255Y-101831742D01*
X127750080Y-101838745D01*
X127765516Y-101845129D01*
X127781563Y-101850894D01*
X127798221Y-101856041D01*
X127815490Y-101860569D01*
X127833371Y-101864478D01*
X127851862Y-101867769D01*
X127870965Y-101870441D01*
X127890679Y-101872495D01*
X127931940Y-101874746D01*
X127944269Y-102023131D01*
X127218393Y-102083418D01*
X127186478Y-102052408D01*
X127156386Y-102020552D01*
X127128116Y-101987851D01*
X127101669Y-101954305D01*
X127077044Y-101919913D01*
X127054242Y-101884675D01*
X127033263Y-101848593D01*
X127014106Y-101811665D01*
X126996771Y-101773891D01*
X126981259Y-101735273D01*
X126967570Y-101695809D01*
X126955703Y-101655501D01*
X126945659Y-101614347D01*
X126937437Y-101572348D01*
X126931038Y-101529504D01*
X126926462Y-101485815D01*
X126921681Y-101404709D01*
X126921079Y-101326821D01*
X126924656Y-101252151D01*
X126932413Y-101180698D01*
X126944348Y-101112464D01*
X126960463Y-101047447D01*
X126980757Y-100985648D01*
X127005231Y-100927067D01*
X127033883Y-100871704D01*
X127066715Y-100819558D01*
X127103725Y-100770630D01*
X127144915Y-100724920D01*
X127190284Y-100682427D01*
X127239832Y-100643152D01*
X127293559Y-100607095D01*
X127351465Y-100574255D01*
X127371067Y-100564314D01*
X127391183Y-100554866D01*
X127411813Y-100545911D01*
X127432957Y-100537450D01*
X127454615Y-100529482D01*
X127476787Y-100522007D01*
X127499474Y-100515026D01*
X127522674Y-100508538D01*
X127546389Y-100502544D01*
X127570618Y-100497043D01*
X127595360Y-100492036D01*
X127620617Y-100487522D01*
X127646388Y-100483502D01*
X127672673Y-100479975D01*
X127699472Y-100476941D01*
X127726785Y-100474402D01*
X130129007Y-100274862D01*
X130104692Y-99982107D01*
X130710268Y-99931799D01*
X130734583Y-100224562D01*
G37*
%TD.AperFunction*%
%TA.AperFunction,NonConductor*%
G36*
X81108454Y-90753325D02*
G01*
X80836847Y-91323767D01*
X80666086Y-91242468D01*
X80672616Y-91282046D01*
X80677607Y-91321415D01*
X80681061Y-91360574D01*
X80682978Y-91399525D01*
X80683356Y-91438267D01*
X80682197Y-91476799D01*
X80679500Y-91515123D01*
X80675266Y-91553237D01*
X80669494Y-91591142D01*
X80662184Y-91628838D01*
X80653337Y-91666325D01*
X80642952Y-91703603D01*
X80631030Y-91740672D01*
X80617570Y-91777531D01*
X80602573Y-91814181D01*
X80586038Y-91850622D01*
X80464929Y-92104956D01*
X80436429Y-92161779D01*
X80406290Y-92215975D01*
X80374512Y-92267545D01*
X80341095Y-92316489D01*
X80306038Y-92362806D01*
X80269342Y-92406497D01*
X80231007Y-92447562D01*
X80191032Y-92486000D01*
X80149418Y-92521812D01*
X80106164Y-92554998D01*
X80061270Y-92585558D01*
X80014737Y-92613492D01*
X79966563Y-92638799D01*
X79916750Y-92661481D01*
X79865297Y-92681536D01*
X79812204Y-92698965D01*
X79757937Y-92714152D01*
X79703391Y-92726559D01*
X79648566Y-92736186D01*
X79593462Y-92743034D01*
X79538078Y-92747101D01*
X79482416Y-92748389D01*
X79426475Y-92746896D01*
X79370254Y-92742624D01*
X79313755Y-92735573D01*
X79256976Y-92725741D01*
X79199918Y-92713129D01*
X79142581Y-92697738D01*
X79084965Y-92679567D01*
X79027069Y-92658615D01*
X78968894Y-92634885D01*
X78910440Y-92608374D01*
X77529749Y-91951033D01*
X77437396Y-91904609D01*
X77351093Y-91856157D01*
X77270840Y-91805674D01*
X77196637Y-91753163D01*
X77128483Y-91698622D01*
X77066380Y-91642052D01*
X77010327Y-91583452D01*
X76960323Y-91522823D01*
X76937590Y-91491748D01*
X76916369Y-91460165D01*
X76896661Y-91428075D01*
X76878465Y-91395478D01*
X76861782Y-91362373D01*
X76846611Y-91328761D01*
X76832953Y-91294641D01*
X76820806Y-91260014D01*
X76810173Y-91224880D01*
X76801052Y-91189238D01*
X76793443Y-91153090D01*
X76787347Y-91116433D01*
X76782763Y-91079270D01*
X76779691Y-91041599D01*
X76778132Y-91003421D01*
X76778085Y-90964735D01*
X76779137Y-90937590D01*
X76781082Y-90910174D01*
X76783923Y-90882488D01*
X76784741Y-90876363D01*
X77433400Y-90876363D01*
X77433766Y-90896214D01*
X77435133Y-90915757D01*
X77437500Y-90934993D01*
X77440867Y-90953921D01*
X77445234Y-90972541D01*
X77450601Y-90990853D01*
X77456969Y-91008858D01*
X77464337Y-91026555D01*
X77472705Y-91043944D01*
X77482073Y-91061026D01*
X77492441Y-91077800D01*
X77503810Y-91094266D01*
X77516178Y-91110424D01*
X77529547Y-91126275D01*
X77543916Y-91141818D01*
X77559285Y-91157053D01*
X77575654Y-91171981D01*
X77611393Y-91200912D01*
X77651132Y-91228613D01*
X77676941Y-91245062D01*
X77703303Y-91261223D01*
X77730220Y-91277095D01*
X77757690Y-91292679D01*
X77785715Y-91307974D01*
X77814294Y-91322982D01*
X77843428Y-91337701D01*
X77873117Y-91352133D01*
X79195688Y-91981787D01*
X79264370Y-92012330D01*
X79327844Y-92038303D01*
X79386112Y-92059708D01*
X79413293Y-92068697D01*
X79439173Y-92076544D01*
X79463750Y-92083248D01*
X79487026Y-92088811D01*
X79509000Y-92093230D01*
X79529672Y-92096508D01*
X79549043Y-92098644D01*
X79567112Y-92099637D01*
X79583879Y-92099488D01*
X79599344Y-92098196D01*
X79627444Y-92093595D01*
X79654736Y-92087180D01*
X79681218Y-92078952D01*
X79706893Y-92068911D01*
X79731758Y-92057056D01*
X79755816Y-92043389D01*
X79779064Y-92027908D01*
X79801504Y-92010614D01*
X79823135Y-91991506D01*
X79843958Y-91970586D01*
X79863972Y-91947852D01*
X79883178Y-91923304D01*
X79901574Y-91896944D01*
X79919163Y-91868770D01*
X79935942Y-91838783D01*
X79951914Y-91806982D01*
X80100687Y-91494513D01*
X80111827Y-91469505D01*
X80121461Y-91444443D01*
X80129588Y-91419325D01*
X80136210Y-91394151D01*
X80141325Y-91368922D01*
X80144934Y-91343638D01*
X80147037Y-91318299D01*
X80147634Y-91292904D01*
X80146725Y-91267454D01*
X80144311Y-91241949D01*
X80140390Y-91216388D01*
X80134963Y-91190773D01*
X80128031Y-91165102D01*
X80119593Y-91139376D01*
X80109649Y-91113595D01*
X80098200Y-91087759D01*
X80094120Y-91079882D01*
X80089834Y-91072290D01*
X80085342Y-91064982D01*
X80080645Y-91057959D01*
X80075741Y-91051221D01*
X80070632Y-91044767D01*
X80065316Y-91038599D01*
X80059795Y-91032715D01*
X80054068Y-91027116D01*
X80048135Y-91021802D01*
X80041997Y-91016773D01*
X80035653Y-91012029D01*
X80029103Y-91007569D01*
X80022347Y-91003395D01*
X80015386Y-90999506D01*
X80008219Y-90995901D01*
X80008141Y-90995917D01*
X80008068Y-90995932D01*
X80007998Y-90995946D01*
X80007963Y-90995954D01*
X80007929Y-90995962D01*
X78071298Y-90073958D01*
X78058077Y-90068129D01*
X78044746Y-90063188D01*
X78031305Y-90059136D01*
X78017754Y-90055972D01*
X78004093Y-90053697D01*
X77990323Y-90052309D01*
X77976442Y-90051811D01*
X77962452Y-90052200D01*
X77948351Y-90053479D01*
X77934141Y-90055646D01*
X77919820Y-90058701D01*
X77905390Y-90062645D01*
X77890849Y-90067478D01*
X77876199Y-90073199D01*
X77861438Y-90079810D01*
X77846567Y-90087309D01*
X77831924Y-90095402D01*
X77817834Y-90103792D01*
X77804299Y-90112480D01*
X77791318Y-90121466D01*
X77778890Y-90130750D01*
X77767017Y-90140332D01*
X77755697Y-90150212D01*
X77744932Y-90160390D01*
X77734720Y-90170866D01*
X77725063Y-90181641D01*
X77715959Y-90192714D01*
X77707410Y-90204085D01*
X77699414Y-90215754D01*
X77691972Y-90227722D01*
X77685085Y-90239989D01*
X77678751Y-90252554D01*
X77495386Y-90637694D01*
X77475113Y-90683857D01*
X77458842Y-90728790D01*
X77446572Y-90772492D01*
X77441937Y-90793882D01*
X77438302Y-90814964D01*
X77435668Y-90835738D01*
X77434034Y-90856204D01*
X77433400Y-90876363D01*
X76784741Y-90876363D01*
X76787658Y-90854530D01*
X76792289Y-90826302D01*
X76797814Y-90797803D01*
X76804233Y-90769034D01*
X76811548Y-90739993D01*
X76819757Y-90710682D01*
X76828861Y-90681101D01*
X76838860Y-90651249D01*
X76849754Y-90621126D01*
X76861543Y-90590733D01*
X76874226Y-90560069D01*
X76887804Y-90529135D01*
X76902277Y-90497931D01*
X77092569Y-90098257D01*
X77105899Y-90071351D01*
X77119947Y-90045133D01*
X77134711Y-90019605D01*
X77150192Y-89994767D01*
X77166390Y-89970618D01*
X77183305Y-89947158D01*
X77200936Y-89924387D01*
X77219284Y-89902306D01*
X77238348Y-89880914D01*
X77258129Y-89860211D01*
X77278626Y-89840198D01*
X77299839Y-89820874D01*
X77321769Y-89802239D01*
X77344415Y-89784294D01*
X77367777Y-89767038D01*
X77391855Y-89750471D01*
X76203714Y-89184820D01*
X76501261Y-88559874D01*
X81108454Y-90753325D01*
G37*
%TD.AperFunction*%
%TA.AperFunction,NonConductor*%
G36*
X108523737Y-130984945D02*
G01*
X107845880Y-131124914D01*
X107054971Y-127294165D01*
X107732843Y-127154204D01*
X108523737Y-130984945D01*
G37*
%TD.AperFunction*%
%TA.AperFunction,NonConductor*%
G36*
X86376032Y-121400145D02*
G01*
X83367990Y-124718664D01*
X84250543Y-125518652D01*
X83939737Y-125861532D01*
X83932219Y-125869481D01*
X83924521Y-125876926D01*
X83916641Y-125883868D01*
X83908580Y-125890307D01*
X83900339Y-125896243D01*
X83891916Y-125901676D01*
X83883312Y-125906606D01*
X83874527Y-125911033D01*
X83865561Y-125914957D01*
X83856413Y-125918377D01*
X83847085Y-125921295D01*
X83837575Y-125923709D01*
X83827884Y-125925620D01*
X83818012Y-125927029D01*
X83807958Y-125927934D01*
X83797724Y-125928335D01*
X83787116Y-125927933D01*
X83776689Y-125927099D01*
X83766441Y-125925833D01*
X83756373Y-125924136D01*
X83746485Y-125922006D01*
X83736776Y-125919444D01*
X83727248Y-125916450D01*
X83717899Y-125913025D01*
X83708730Y-125909168D01*
X83699740Y-125904879D01*
X83690931Y-125900158D01*
X83682301Y-125895005D01*
X83673850Y-125889421D01*
X83665579Y-125883405D01*
X83657488Y-125876957D01*
X83649576Y-125870077D01*
X81645914Y-124053900D01*
X81637775Y-124046256D01*
X81630127Y-124038527D01*
X81622970Y-124030713D01*
X81616304Y-124022813D01*
X81610129Y-124014828D01*
X81604445Y-124006758D01*
X81599252Y-123998602D01*
X81594550Y-123990361D01*
X81590339Y-123982035D01*
X81586619Y-123973623D01*
X81583390Y-123965126D01*
X81580652Y-123956544D01*
X81578405Y-123947876D01*
X81576649Y-123939123D01*
X81575384Y-123930285D01*
X81574610Y-123921361D01*
X81574326Y-123912352D01*
X81574534Y-123903258D01*
X81575233Y-123894078D01*
X81576423Y-123884813D01*
X81578105Y-123875463D01*
X81580277Y-123866028D01*
X81582940Y-123856507D01*
X81586094Y-123846901D01*
X81589739Y-123837210D01*
X81593876Y-123827433D01*
X81598503Y-123817571D01*
X81603622Y-123807623D01*
X81609232Y-123797591D01*
X81615332Y-123787473D01*
X81621924Y-123777270D01*
X81629007Y-123766981D01*
X81939798Y-123424101D01*
X82822366Y-124224089D01*
X85830393Y-120905569D01*
X86376032Y-121400145D01*
G37*
%TD.AperFunction*%
%TA.AperFunction,NonConductor*%
G36*
X78351969Y-99321653D02*
G01*
X78420681Y-99326871D01*
X78494453Y-99331982D01*
X78573281Y-99336987D01*
X78657160Y-99341887D01*
X78706835Y-99345395D01*
X78769458Y-99351068D01*
X78845029Y-99358906D01*
X78933548Y-99368910D01*
X79149431Y-99395415D01*
X79417108Y-99430586D01*
X79453182Y-99436075D01*
X79488008Y-99442671D01*
X79521587Y-99450374D01*
X79553920Y-99459185D01*
X79585005Y-99469103D01*
X79614843Y-99480128D01*
X79643434Y-99492261D01*
X79670778Y-99505500D01*
X79696875Y-99519847D01*
X79721725Y-99535301D01*
X79745327Y-99551863D01*
X79767683Y-99569532D01*
X79788792Y-99588307D01*
X79808653Y-99608191D01*
X79827267Y-99629181D01*
X79844635Y-99651279D01*
X79860755Y-99674483D01*
X79875628Y-99698796D01*
X79889254Y-99724215D01*
X79901633Y-99750742D01*
X79912765Y-99778375D01*
X79922650Y-99807116D01*
X79931287Y-99836965D01*
X79938678Y-99867920D01*
X79944821Y-99899983D01*
X79949717Y-99933153D01*
X79953367Y-99967430D01*
X79955769Y-100002814D01*
X79956924Y-100039306D01*
X79956831Y-100076905D01*
X79955492Y-100115611D01*
X79952905Y-100155424D01*
X79879541Y-101078077D01*
X79876015Y-101113386D01*
X79871083Y-101148111D01*
X79864747Y-101182250D01*
X79857005Y-101215806D01*
X79847858Y-101248776D01*
X79837306Y-101281162D01*
X79825349Y-101312964D01*
X79811987Y-101344181D01*
X79797219Y-101374814D01*
X79781047Y-101404862D01*
X79763469Y-101434325D01*
X79744487Y-101463204D01*
X79724099Y-101491498D01*
X79702306Y-101519208D01*
X79679108Y-101546333D01*
X79654505Y-101572874D01*
X79628875Y-101598701D01*
X79602666Y-101622684D01*
X79575879Y-101644822D01*
X79548512Y-101665115D01*
X79520567Y-101683565D01*
X79492043Y-101700170D01*
X79462940Y-101714931D01*
X79433258Y-101727848D01*
X79402997Y-101738921D01*
X79372157Y-101748150D01*
X79340739Y-101755534D01*
X79308742Y-101761075D01*
X79276166Y-101764772D01*
X79243012Y-101766625D01*
X79209278Y-101766634D01*
X79174967Y-101764799D01*
X78958338Y-101747526D01*
X79006815Y-101137770D01*
X79032994Y-101139162D01*
X79058373Y-101139102D01*
X79082953Y-101137590D01*
X79106733Y-101134626D01*
X79129714Y-101130209D01*
X79151895Y-101124340D01*
X79173277Y-101117019D01*
X79193859Y-101108246D01*
X79213641Y-101098021D01*
X79232625Y-101086343D01*
X79250808Y-101073213D01*
X79268193Y-101058632D01*
X79284778Y-101042598D01*
X79300563Y-101025112D01*
X79315550Y-101006174D01*
X79329736Y-100985785D01*
X79334170Y-100979041D01*
X79338325Y-100972213D01*
X79342204Y-100965299D01*
X79345805Y-100958299D01*
X79349128Y-100951214D01*
X79352175Y-100944044D01*
X79354944Y-100936789D01*
X79357437Y-100929448D01*
X79359652Y-100922022D01*
X79361591Y-100914511D01*
X79363252Y-100906915D01*
X79364637Y-100899234D01*
X79365746Y-100891468D01*
X79366577Y-100883616D01*
X79367132Y-100875680D01*
X79367410Y-100867659D01*
X79398981Y-100470526D01*
X79400386Y-100438419D01*
X79400414Y-100407370D01*
X79399063Y-100377378D01*
X79396334Y-100348445D01*
X79392228Y-100320569D01*
X79386744Y-100293750D01*
X79379881Y-100267990D01*
X79371641Y-100243287D01*
X79362023Y-100219642D01*
X79351027Y-100197055D01*
X79338652Y-100175526D01*
X79324900Y-100155054D01*
X79309770Y-100135640D01*
X79293262Y-100117284D01*
X79275377Y-100099986D01*
X79256113Y-100083746D01*
X79249385Y-100078339D01*
X79242441Y-100073261D01*
X79235282Y-100068513D01*
X79227908Y-100064095D01*
X79220318Y-100060006D01*
X79212513Y-100056247D01*
X79204491Y-100052817D01*
X79196254Y-100049716D01*
X79187802Y-100046945D01*
X79179133Y-100044503D01*
X79170248Y-100042391D01*
X79161148Y-100040609D01*
X79151831Y-100039155D01*
X79142298Y-100038031D01*
X79132549Y-100037237D01*
X79122583Y-100036772D01*
X77979364Y-99946104D01*
X78005225Y-99977444D01*
X78029265Y-100008671D01*
X78051486Y-100039784D01*
X78071887Y-100070784D01*
X78090468Y-100101670D01*
X78107228Y-100132443D01*
X78122169Y-100163102D01*
X78135290Y-100193648D01*
X78146591Y-100224081D01*
X78156072Y-100254401D01*
X78163733Y-100284608D01*
X78169574Y-100314701D01*
X78173595Y-100344681D01*
X78175796Y-100374548D01*
X78176177Y-100404302D01*
X78174738Y-100433943D01*
X78123697Y-101075789D01*
X78119335Y-101118964D01*
X78113183Y-101161241D01*
X78105241Y-101202618D01*
X78095511Y-101243096D01*
X78083991Y-101282676D01*
X78070681Y-101321356D01*
X78055582Y-101359137D01*
X78038694Y-101396019D01*
X78020017Y-101432002D01*
X77999550Y-101467085D01*
X77977295Y-101501269D01*
X77953250Y-101534554D01*
X77927416Y-101566939D01*
X77899794Y-101598424D01*
X77870382Y-101629011D01*
X77839182Y-101658697D01*
X77806708Y-101686913D01*
X77773483Y-101713082D01*
X77739505Y-101737204D01*
X77704776Y-101759279D01*
X77669295Y-101779307D01*
X77633063Y-101797288D01*
X77596078Y-101813222D01*
X77558342Y-101827109D01*
X77519853Y-101838949D01*
X77480613Y-101848743D01*
X77440621Y-101856489D01*
X77399877Y-101862188D01*
X77358380Y-101865840D01*
X77316132Y-101867445D01*
X77273132Y-101867004D01*
X77229379Y-101864515D01*
X74148508Y-101619536D01*
X74203058Y-100933561D01*
X77151544Y-101168013D01*
X77170455Y-101169190D01*
X77189072Y-101169681D01*
X77207397Y-101169485D01*
X77225428Y-101168602D01*
X77243166Y-101167033D01*
X77260612Y-101164777D01*
X77277764Y-101161834D01*
X77294624Y-101158205D01*
X77311191Y-101153889D01*
X77327465Y-101148887D01*
X77343447Y-101143198D01*
X77359137Y-101136822D01*
X77374533Y-101129759D01*
X77389638Y-101122010D01*
X77404450Y-101113575D01*
X77418970Y-101104452D01*
X77432502Y-101094126D01*
X77445266Y-101083139D01*
X77457263Y-101071493D01*
X77468492Y-101059186D01*
X77478953Y-101046219D01*
X77488647Y-101032593D01*
X77497573Y-101018305D01*
X77505731Y-101003358D01*
X77513122Y-100987750D01*
X77519746Y-100971482D01*
X77525602Y-100954554D01*
X77530691Y-100936965D01*
X77535013Y-100918716D01*
X77538567Y-100899807D01*
X77541355Y-100880237D01*
X77543375Y-100860006D01*
X77589945Y-100274328D01*
X77591082Y-100259454D01*
X77591605Y-100244878D01*
X77591512Y-100230600D01*
X77590805Y-100216619D01*
X77589483Y-100202937D01*
X77587546Y-100189553D01*
X77584994Y-100176467D01*
X77581827Y-100163678D01*
X77578045Y-100151188D01*
X77573649Y-100138996D01*
X77568637Y-100127101D01*
X77563011Y-100115505D01*
X77556769Y-100104207D01*
X77549913Y-100093206D01*
X77542441Y-100082504D01*
X77534355Y-100072100D01*
X77525654Y-100061993D01*
X77516337Y-100052185D01*
X77506406Y-100042675D01*
X77495859Y-100033462D01*
X77484698Y-100024548D01*
X77472922Y-100015932D01*
X77460530Y-100007613D01*
X77447524Y-99999593D01*
X77433902Y-99991871D01*
X77419665Y-99984446D01*
X77389347Y-99970491D01*
X77356568Y-99957728D01*
X77321329Y-99946158D01*
X77301709Y-99940815D01*
X77282296Y-99935993D01*
X77263091Y-99931691D01*
X77244093Y-99927909D01*
X77225302Y-99924648D01*
X77206719Y-99921909D01*
X77188344Y-99919692D01*
X77170175Y-99917997D01*
X74342035Y-99693121D01*
X74396585Y-99007147D01*
X78351969Y-99321653D01*
G37*
%TD.AperFunction*%
%TA.AperFunction,NonConductor*%
G36*
X127845915Y-104462779D02*
G01*
X127889612Y-104466086D01*
X130965341Y-104768774D01*
X130897943Y-105453604D01*
X127954378Y-105163923D01*
X127935493Y-105162398D01*
X127916889Y-105161563D01*
X127898564Y-105161419D01*
X127880519Y-105161965D01*
X127862753Y-105163203D01*
X127845268Y-105165131D01*
X127828062Y-105167750D01*
X127811135Y-105171060D01*
X127794488Y-105175060D01*
X127778121Y-105179752D01*
X127762033Y-105185135D01*
X127746225Y-105191208D01*
X127730696Y-105197972D01*
X127715446Y-105205427D01*
X127700476Y-105213573D01*
X127685785Y-105222410D01*
X127672062Y-105232481D01*
X127659094Y-105243226D01*
X127646881Y-105254645D01*
X127635423Y-105266739D01*
X127624720Y-105279507D01*
X127614772Y-105292950D01*
X127605579Y-105307068D01*
X127597141Y-105321859D01*
X127589458Y-105337326D01*
X127582531Y-105353467D01*
X127576359Y-105370282D01*
X127570941Y-105387772D01*
X127566280Y-105405936D01*
X127562373Y-105424775D01*
X127559221Y-105444288D01*
X127556825Y-105464476D01*
X127499277Y-106049177D01*
X127497859Y-106064028D01*
X127497062Y-106078592D01*
X127496885Y-106092870D01*
X127497329Y-106106861D01*
X127498393Y-106120566D01*
X127500077Y-106133984D01*
X127502382Y-106147116D01*
X127505308Y-106159962D01*
X127508854Y-106172521D01*
X127513021Y-106184794D01*
X127517808Y-106196780D01*
X127523216Y-106208479D01*
X127529244Y-106219893D01*
X127535893Y-106231020D01*
X127543162Y-106241860D01*
X127551052Y-106252414D01*
X127559562Y-106262681D01*
X127568693Y-106272662D01*
X127578444Y-106282357D01*
X127588816Y-106291765D01*
X127599809Y-106300887D01*
X127611422Y-106309722D01*
X127623655Y-106318271D01*
X127636509Y-106326534D01*
X127649984Y-106334510D01*
X127664079Y-106342199D01*
X127694131Y-106356719D01*
X127726666Y-106370094D01*
X127761682Y-106382322D01*
X127781209Y-106388036D01*
X127800537Y-106393224D01*
X127819665Y-106397887D01*
X127838592Y-106402024D01*
X127857319Y-106405636D01*
X127875844Y-106408723D01*
X127894166Y-106411284D01*
X127912287Y-106413321D01*
X130735712Y-106691183D01*
X130668321Y-107376013D01*
X126719522Y-106987410D01*
X126650915Y-106980907D01*
X126577253Y-106974412D01*
X126498538Y-106967927D01*
X126414774Y-106961455D01*
X126365166Y-106957015D01*
X126302656Y-106950168D01*
X126227241Y-106940913D01*
X126138922Y-106929251D01*
X125923572Y-106898704D01*
X125656603Y-106858526D01*
X125620639Y-106852361D01*
X125585943Y-106845112D01*
X125552514Y-106836780D01*
X125520353Y-106827364D01*
X125489460Y-106816864D01*
X125459834Y-106805281D01*
X125431476Y-106792614D01*
X125404385Y-106778864D01*
X125378562Y-106764030D01*
X125354007Y-106748112D01*
X125330719Y-106731111D01*
X125308698Y-106713026D01*
X125287946Y-106693858D01*
X125268461Y-106673606D01*
X125250243Y-106652270D01*
X125233293Y-106629851D01*
X125217611Y-106606348D01*
X125203196Y-106581761D01*
X125190049Y-106556091D01*
X125178170Y-106529337D01*
X125167558Y-106501500D01*
X125158214Y-106472579D01*
X125150138Y-106442574D01*
X125143329Y-106411486D01*
X125137787Y-106379314D01*
X125133514Y-106346058D01*
X125130508Y-106311719D01*
X125128769Y-106276297D01*
X125128299Y-106239790D01*
X125129096Y-106202201D01*
X125131160Y-106163527D01*
X125134493Y-106123770D01*
X125225145Y-105202650D01*
X125229339Y-105167412D01*
X125234927Y-105132785D01*
X125241907Y-105098769D01*
X125250281Y-105065365D01*
X125260047Y-105032571D01*
X125271207Y-105000389D01*
X125283760Y-104968818D01*
X125297706Y-104937858D01*
X125313046Y-104907508D01*
X125329778Y-104877770D01*
X125347904Y-104848642D01*
X125367422Y-104820125D01*
X125388334Y-104792219D01*
X125410639Y-104764924D01*
X125434337Y-104738239D01*
X125459429Y-104712164D01*
X125485536Y-104686824D01*
X125512188Y-104663338D01*
X125539384Y-104641706D01*
X125567124Y-104621928D01*
X125595409Y-104604004D01*
X125624238Y-104587934D01*
X125653611Y-104573718D01*
X125683529Y-104561357D01*
X125713990Y-104550849D01*
X125744996Y-104542196D01*
X125776546Y-104535397D01*
X125808639Y-104530453D01*
X125841277Y-104527363D01*
X125874458Y-104526127D01*
X125908184Y-104526746D01*
X125942453Y-104529219D01*
X126158716Y-104550505D01*
X126098802Y-105159247D01*
X126072657Y-105157369D01*
X126047282Y-105156957D01*
X126022680Y-105158011D01*
X125998850Y-105160531D01*
X125975791Y-105164517D01*
X125953505Y-105169969D01*
X125931990Y-105176887D01*
X125911247Y-105185271D01*
X125891276Y-105195121D01*
X125872077Y-105206437D01*
X125853650Y-105219219D01*
X125835995Y-105233468D01*
X125819112Y-105249182D01*
X125803001Y-105266362D01*
X125787663Y-105285008D01*
X125773096Y-105305121D01*
X125768539Y-105311779D01*
X125764257Y-105318528D01*
X125760251Y-105325367D01*
X125756520Y-105332297D01*
X125753065Y-105339318D01*
X125749886Y-105346428D01*
X125746982Y-105353629D01*
X125744353Y-105360921D01*
X125742000Y-105368303D01*
X125739922Y-105375775D01*
X125738120Y-105383338D01*
X125736593Y-105390991D01*
X125735342Y-105398734D01*
X125734366Y-105406568D01*
X125733665Y-105414492D01*
X125733240Y-105422506D01*
X125694223Y-105818983D01*
X125692219Y-105851056D01*
X125691612Y-105882098D01*
X125692402Y-105912108D01*
X125694589Y-105941087D01*
X125698173Y-105969035D01*
X125703153Y-105995951D01*
X125709531Y-106021836D01*
X125717305Y-106046689D01*
X125726476Y-106070511D01*
X125737044Y-106093301D01*
X125749008Y-106115060D01*
X125762370Y-106135787D01*
X125777128Y-106155483D01*
X125793282Y-106174147D01*
X125810834Y-106191779D01*
X125829782Y-106208380D01*
X125836410Y-106213913D01*
X125843260Y-106219121D01*
X125850331Y-106224003D01*
X125857623Y-106228559D01*
X125865137Y-106232789D01*
X125872872Y-106236694D01*
X125880828Y-106240273D01*
X125889006Y-106243526D01*
X125897406Y-106246453D01*
X125906027Y-106249055D01*
X125914869Y-106251331D01*
X125923933Y-106253281D01*
X125933219Y-106254906D01*
X125942726Y-106256205D01*
X125952454Y-106257178D01*
X125962404Y-106257826D01*
X127103769Y-106370131D01*
X127078500Y-106338310D01*
X127055048Y-106306636D01*
X127033414Y-106275110D01*
X127013598Y-106243732D01*
X126995600Y-106212501D01*
X126979420Y-106181418D01*
X126965057Y-106150482D01*
X126952512Y-106119693D01*
X126941786Y-106089052D01*
X126932877Y-106058558D01*
X126925785Y-106028212D01*
X126920512Y-105998013D01*
X126917056Y-105967961D01*
X126915419Y-105938057D01*
X126915599Y-105908300D01*
X126917597Y-105878691D01*
X126980661Y-105237921D01*
X126985834Y-105194835D01*
X126992779Y-105152682D01*
X127001496Y-105111461D01*
X127011985Y-105071172D01*
X127024246Y-105031816D01*
X127038279Y-104993392D01*
X127054084Y-104955901D01*
X127071661Y-104919342D01*
X127091010Y-104883716D01*
X127112131Y-104849022D01*
X127135024Y-104815261D01*
X127159689Y-104782432D01*
X127186126Y-104750536D01*
X127214336Y-104719573D01*
X127244317Y-104689542D01*
X127276071Y-104660444D01*
X127309067Y-104632843D01*
X127342775Y-104607302D01*
X127377198Y-104583821D01*
X127412333Y-104562402D01*
X127448182Y-104543042D01*
X127484745Y-104525743D01*
X127522021Y-104510505D01*
X127560011Y-104497327D01*
X127598714Y-104486210D01*
X127638130Y-104477153D01*
X127678260Y-104470157D01*
X127719104Y-104465221D01*
X127760660Y-104462347D01*
X127802931Y-104461532D01*
X127845915Y-104462779D01*
G37*
%TD.AperFunction*%
%TA.AperFunction,NonConductor*%
G36*
X108070499Y-74810311D02*
G01*
X108080297Y-74810788D01*
X108090090Y-74811684D01*
X108099878Y-74812999D01*
X108109661Y-74814733D01*
X108119440Y-74816885D01*
X108553575Y-74922003D01*
X108590448Y-76569530D01*
X108618555Y-78022398D01*
X110024187Y-75278082D01*
X110423128Y-75374678D01*
X110439860Y-75379244D01*
X110455837Y-75384662D01*
X110471057Y-75390933D01*
X110485521Y-75398057D01*
X110499229Y-75406032D01*
X110512181Y-75414860D01*
X110524377Y-75424540D01*
X110535817Y-75435073D01*
X110546501Y-75446458D01*
X110556428Y-75458695D01*
X110565600Y-75471785D01*
X110574015Y-75485727D01*
X110581674Y-75500521D01*
X110588577Y-75516167D01*
X110594724Y-75532666D01*
X110600115Y-75550017D01*
X110601773Y-75555613D01*
X110603240Y-75561194D01*
X110604516Y-75566761D01*
X110605600Y-75572314D01*
X110606494Y-75577852D01*
X110607196Y-75583376D01*
X110607707Y-75588885D01*
X110608026Y-75594380D01*
X110608154Y-75599861D01*
X110608091Y-75605327D01*
X110607837Y-75610779D01*
X110607391Y-75616217D01*
X110606754Y-75621640D01*
X110605925Y-75627049D01*
X110604905Y-75632443D01*
X110603693Y-75637823D01*
X110602120Y-75643658D01*
X110600005Y-75650396D01*
X110597347Y-75658038D01*
X110594147Y-75666583D01*
X110586120Y-75686383D01*
X110575924Y-75709796D01*
X110563558Y-75736821D01*
X110549023Y-75767459D01*
X110532318Y-75801707D01*
X110513445Y-75839567D01*
X110473115Y-75921669D01*
X110427119Y-76012231D01*
X110375454Y-76111255D01*
X110318117Y-76218741D01*
X110257849Y-76334054D01*
X110193479Y-76455620D01*
X110125006Y-76583437D01*
X110052431Y-76717505D01*
X109900517Y-76994364D01*
X109743265Y-77276144D01*
X109432214Y-77842596D01*
X109262206Y-78147163D01*
X109060388Y-78506140D01*
X108883630Y-78821491D01*
X108825966Y-78926051D01*
X108788782Y-78995199D01*
X108022173Y-78809614D01*
X107932482Y-77212447D01*
X107873831Y-76049262D01*
X107846215Y-75320061D01*
X107844046Y-75118206D01*
X107849634Y-75024847D01*
X107854514Y-75005761D01*
X107859683Y-74987619D01*
X107865141Y-74970420D01*
X107870888Y-74954165D01*
X107876925Y-74938854D01*
X107883251Y-74924486D01*
X107889866Y-74911062D01*
X107896770Y-74898581D01*
X107903964Y-74887043D01*
X107911446Y-74876449D01*
X107919218Y-74866798D01*
X107927279Y-74858091D01*
X107935628Y-74850327D01*
X107944267Y-74843506D01*
X107953195Y-74837628D01*
X107962412Y-74832693D01*
X107972261Y-74828565D01*
X107982106Y-74824856D01*
X107991946Y-74821565D01*
X108001782Y-74818693D01*
X108011613Y-74816239D01*
X108021439Y-74814205D01*
X108031261Y-74812588D01*
X108041077Y-74811391D01*
X108050889Y-74810612D01*
X108060697Y-74810252D01*
X108070499Y-74810311D01*
G37*
%TD.AperFunction*%
%TA.AperFunction,NonConductor*%
G36*
X118853388Y-79497748D02*
G01*
X118640627Y-79795813D01*
X118658215Y-79783914D01*
X118676137Y-79772794D01*
X118694391Y-79762454D01*
X118712978Y-79752892D01*
X118731898Y-79744108D01*
X118751150Y-79736104D01*
X118770736Y-79728879D01*
X118790654Y-79722432D01*
X118810905Y-79716765D01*
X118831489Y-79711876D01*
X118852406Y-79707765D01*
X118873656Y-79704434D01*
X118895239Y-79701882D01*
X118917154Y-79700108D01*
X118939403Y-79699113D01*
X118961984Y-79698897D01*
X118984559Y-79699448D01*
X119006786Y-79700755D01*
X119028667Y-79702819D01*
X119050200Y-79705638D01*
X119071386Y-79709214D01*
X119092225Y-79713546D01*
X119112717Y-79718635D01*
X119132862Y-79724479D01*
X119152660Y-79731079D01*
X119172110Y-79738436D01*
X119191214Y-79746548D01*
X119209971Y-79755417D01*
X119228380Y-79765042D01*
X119246443Y-79775423D01*
X119264158Y-79786560D01*
X119281526Y-79798452D01*
X119828501Y-80188910D01*
X119473100Y-80686712D01*
X119144632Y-80447294D01*
X119093340Y-80412438D01*
X119042637Y-80381518D01*
X118992525Y-80354533D01*
X118943001Y-80331485D01*
X118894068Y-80312372D01*
X118845724Y-80297196D01*
X118797970Y-80285955D01*
X118750806Y-80278650D01*
X118704231Y-80275282D01*
X118658246Y-80275849D01*
X118612850Y-80280353D01*
X118568044Y-80288793D01*
X118523828Y-80301169D01*
X118480201Y-80317481D01*
X118437164Y-80337729D01*
X118394716Y-80361914D01*
X118380416Y-80371037D01*
X118366285Y-80380628D01*
X118352323Y-80390688D01*
X118338528Y-80401216D01*
X118324903Y-80412211D01*
X118311445Y-80423675D01*
X118298156Y-80435607D01*
X118285036Y-80448008D01*
X118272084Y-80460876D01*
X118259300Y-80474213D01*
X118246685Y-80488017D01*
X118234238Y-80502290D01*
X118221960Y-80517031D01*
X118209850Y-80532240D01*
X118197909Y-80547917D01*
X118186136Y-80564062D01*
X116631334Y-82742163D01*
X116071253Y-82342344D01*
X118139498Y-79438078D01*
X118122349Y-79425197D01*
X118114422Y-79418742D01*
X118106928Y-79412276D01*
X118099866Y-79405800D01*
X118093236Y-79399314D01*
X118087038Y-79392818D01*
X118081272Y-79386312D01*
X118075938Y-79379796D01*
X118071036Y-79373269D01*
X118066567Y-79366732D01*
X118062529Y-79360186D01*
X118058924Y-79353629D01*
X118055751Y-79347061D01*
X118053010Y-79340484D01*
X118050701Y-79333897D01*
X118048824Y-79327299D01*
X118047380Y-79320691D01*
X118046367Y-79314074D01*
X118045787Y-79307446D01*
X118045639Y-79300807D01*
X118045923Y-79294159D01*
X118046639Y-79287501D01*
X118047787Y-79280832D01*
X118049368Y-79274153D01*
X118051381Y-79267464D01*
X118053826Y-79260765D01*
X118056703Y-79254056D01*
X118060013Y-79247337D01*
X118063754Y-79240607D01*
X118067928Y-79233867D01*
X118072534Y-79227118D01*
X118208147Y-79037153D01*
X118853388Y-79497748D01*
G37*
%TD.AperFunction*%
%TA.AperFunction,NonConductor*%
G36*
X103390413Y-74263868D02*
G01*
X103909219Y-74281988D01*
X103953189Y-74284451D01*
X103996622Y-74288750D01*
X104039520Y-74294888D01*
X104081882Y-74302862D01*
X104123708Y-74312675D01*
X104164998Y-74324325D01*
X104205753Y-74337812D01*
X104245971Y-74353137D01*
X104285654Y-74370300D01*
X104324801Y-74389300D01*
X104363412Y-74410138D01*
X104401486Y-74432813D01*
X104439025Y-74457326D01*
X104476028Y-74483677D01*
X104512495Y-74511865D01*
X104548425Y-74541891D01*
X104582439Y-74573232D01*
X104614158Y-74605406D01*
X104643583Y-74638411D01*
X104670714Y-74672249D01*
X104695551Y-74706919D01*
X104718093Y-74742422D01*
X104738342Y-74778756D01*
X104756296Y-74815923D01*
X104771956Y-74853922D01*
X104785322Y-74892753D01*
X104796393Y-74932415D01*
X104805171Y-74972910D01*
X104811654Y-75014237D01*
X104815843Y-75056396D01*
X104817738Y-75099387D01*
X104817339Y-75143210D01*
X104738374Y-77403479D01*
X104736235Y-77446265D01*
X104731832Y-77488123D01*
X104725165Y-77529053D01*
X104716233Y-77569054D01*
X104705038Y-77608128D01*
X104691578Y-77646273D01*
X104675854Y-77683490D01*
X104657866Y-77719778D01*
X104637614Y-77755138D01*
X104615098Y-77789570D01*
X104590318Y-77823073D01*
X104563274Y-77855648D01*
X104533967Y-77887294D01*
X104502395Y-77918011D01*
X104468559Y-77947800D01*
X104432459Y-77976660D01*
X104394958Y-78004606D01*
X104356958Y-78030647D01*
X104318459Y-78054783D01*
X104279459Y-78077013D01*
X104239960Y-78097338D01*
X104199962Y-78115758D01*
X104159463Y-78132272D01*
X104118465Y-78146881D01*
X104076967Y-78159585D01*
X104034969Y-78170383D01*
X103992472Y-78179277D01*
X103949474Y-78186265D01*
X103905977Y-78191348D01*
X103861980Y-78194526D01*
X103817483Y-78195798D01*
X103772485Y-78195166D01*
X103253687Y-78177031D01*
X103208238Y-78174517D01*
X103163389Y-78170167D01*
X103119138Y-78163982D01*
X103075487Y-78155962D01*
X103032434Y-78146107D01*
X102989980Y-78134416D01*
X102948125Y-78120890D01*
X102906869Y-78105529D01*
X102866212Y-78088332D01*
X102826153Y-78069301D01*
X102786694Y-78048434D01*
X102747834Y-78025732D01*
X102709573Y-78001194D01*
X102671910Y-77974822D01*
X102634847Y-77946614D01*
X102598383Y-77916571D01*
X102563396Y-77885212D01*
X102530765Y-77853055D01*
X102500489Y-77820098D01*
X102472569Y-77786343D01*
X102447006Y-77751789D01*
X102423797Y-77716437D01*
X102402945Y-77680285D01*
X102384449Y-77643335D01*
X102368308Y-77605587D01*
X102354524Y-77567040D01*
X102343095Y-77527694D01*
X102334022Y-77487550D01*
X102327305Y-77446608D01*
X102322944Y-77404867D01*
X102320940Y-77362328D01*
X102321291Y-77318991D01*
X102324426Y-77229251D01*
X103013296Y-77229251D01*
X103013542Y-77247867D01*
X103014398Y-77266159D01*
X103015862Y-77284126D01*
X103017935Y-77301768D01*
X103020617Y-77319085D01*
X103023908Y-77336078D01*
X103027808Y-77352746D01*
X103032317Y-77369089D01*
X103037436Y-77385108D01*
X103043163Y-77400801D01*
X103049500Y-77416170D01*
X103056446Y-77431213D01*
X103064002Y-77445932D01*
X103072167Y-77460325D01*
X103080942Y-77474394D01*
X103085583Y-77480998D01*
X103090413Y-77487403D01*
X103095430Y-77493611D01*
X103100634Y-77499621D01*
X103106027Y-77505433D01*
X103111607Y-77511047D01*
X103117375Y-77516463D01*
X103123331Y-77521681D01*
X103129475Y-77526701D01*
X103135806Y-77531523D01*
X103142325Y-77536148D01*
X103149032Y-77540574D01*
X103155927Y-77544803D01*
X103163009Y-77548833D01*
X103170280Y-77552666D01*
X103177738Y-77556300D01*
X103193218Y-77562976D01*
X103209448Y-77568860D01*
X103226431Y-77573952D01*
X103244164Y-77578252D01*
X103262649Y-77581761D01*
X103281885Y-77584478D01*
X103301872Y-77586404D01*
X103322611Y-77587538D01*
X103704675Y-77600882D01*
X103724988Y-77601178D01*
X103744700Y-77600636D01*
X103763813Y-77599257D01*
X103782325Y-77597039D01*
X103800238Y-77593984D01*
X103817551Y-77590091D01*
X103834264Y-77585359D01*
X103850377Y-77579790D01*
X103865890Y-77573383D01*
X103880804Y-77566138D01*
X103895117Y-77558055D01*
X103908831Y-77549134D01*
X103921945Y-77539376D01*
X103934460Y-77528779D01*
X103946374Y-77517344D01*
X103957689Y-77505072D01*
X103968884Y-77491703D01*
X103979400Y-77477964D01*
X103989236Y-77463855D01*
X103998394Y-77449376D01*
X104006872Y-77434527D01*
X104014672Y-77419307D01*
X104021792Y-77403717D01*
X104028233Y-77387757D01*
X104033995Y-77371427D01*
X104039078Y-77354727D01*
X104043481Y-77337656D01*
X104047205Y-77320215D01*
X104050250Y-77302404D01*
X104052615Y-77284222D01*
X104054301Y-77265670D01*
X104055307Y-77246748D01*
X104055306Y-77246747D01*
X104055304Y-77246746D01*
X104055303Y-77246745D01*
X104055302Y-77246744D01*
X104055300Y-77246743D01*
X104055299Y-77246742D01*
X104055298Y-77246742D01*
X104055297Y-77246741D01*
X104055296Y-77246741D01*
X104055295Y-77246741D01*
X104055294Y-77246741D01*
X104055293Y-77246741D01*
X104055292Y-77246740D01*
X104124994Y-75251944D01*
X104125309Y-75233018D01*
X104124919Y-75214445D01*
X104123825Y-75196225D01*
X104122027Y-75178357D01*
X104119525Y-75160842D01*
X104116318Y-75143680D01*
X104112407Y-75126870D01*
X104107792Y-75110413D01*
X104102472Y-75094308D01*
X104096448Y-75078557D01*
X104089720Y-75063159D01*
X104082287Y-75048113D01*
X104074150Y-75033420D01*
X104065308Y-75019081D01*
X104055762Y-75005094D01*
X104045511Y-74991461D01*
X104035100Y-74977931D01*
X104024030Y-74965227D01*
X104012303Y-74953351D01*
X103999918Y-74942300D01*
X103986874Y-74932076D01*
X103973172Y-74922679D01*
X103958813Y-74914108D01*
X103943795Y-74906364D01*
X103928119Y-74899446D01*
X103911785Y-74893355D01*
X103894793Y-74888090D01*
X103877142Y-74883652D01*
X103858834Y-74880041D01*
X103839867Y-74877256D01*
X103820242Y-74875298D01*
X103799959Y-74874167D01*
X103417886Y-74860808D01*
X103397119Y-74860503D01*
X103377044Y-74861073D01*
X103357662Y-74862516D01*
X103338972Y-74864833D01*
X103320976Y-74868024D01*
X103303673Y-74872089D01*
X103287063Y-74877027D01*
X103271146Y-74882839D01*
X103255921Y-74889525D01*
X103241390Y-74897085D01*
X103227552Y-74905519D01*
X103214407Y-74914827D01*
X103201954Y-74925009D01*
X103190195Y-74936065D01*
X103179129Y-74947995D01*
X103168756Y-74960798D01*
X103159040Y-74973729D01*
X103149908Y-74987059D01*
X103141360Y-75000787D01*
X103133395Y-75014913D01*
X103126015Y-75029438D01*
X103119218Y-75044362D01*
X103113005Y-75059684D01*
X103107376Y-75075405D01*
X103102331Y-75091525D01*
X103097869Y-75108043D01*
X103093991Y-75124959D01*
X103090698Y-75142274D01*
X103087988Y-75159988D01*
X103085861Y-75178101D01*
X103084319Y-75196611D01*
X103083360Y-75215521D01*
X103013658Y-77210310D01*
X103013296Y-77229251D01*
X102324426Y-77229251D01*
X102400263Y-75058775D01*
X102402957Y-75015033D01*
X102407944Y-74972282D01*
X102415225Y-74930524D01*
X102424799Y-74889759D01*
X102436665Y-74849985D01*
X102450825Y-74811204D01*
X102467278Y-74773416D01*
X102486024Y-74736619D01*
X102507063Y-74700815D01*
X102530394Y-74666003D01*
X102556019Y-74632184D01*
X102583937Y-74599357D01*
X102614148Y-74567522D01*
X102646652Y-74536680D01*
X102681448Y-74506830D01*
X102718538Y-74477972D01*
X102757009Y-74450546D01*
X102795950Y-74424992D01*
X102835360Y-74401312D01*
X102875240Y-74379504D01*
X102915590Y-74359569D01*
X102956409Y-74341506D01*
X102997697Y-74325316D01*
X103039455Y-74310999D01*
X103081683Y-74298554D01*
X103124379Y-74287982D01*
X103167545Y-74279282D01*
X103211180Y-74272455D01*
X103255285Y-74267500D01*
X103299859Y-74264417D01*
X103344901Y-74263207D01*
X103390413Y-74263868D01*
G37*
%TD.AperFunction*%
%TA.AperFunction,NonConductor*%
G36*
X81023613Y-84607618D02*
G01*
X81063907Y-84610865D01*
X81103839Y-84616004D01*
X81143411Y-84623035D01*
X81182623Y-84631958D01*
X81221473Y-84642773D01*
X81259963Y-84655480D01*
X81298093Y-84670079D01*
X81335861Y-84686570D01*
X81373270Y-84704953D01*
X81410317Y-84725228D01*
X81447004Y-84747396D01*
X81483330Y-84771455D01*
X81519296Y-84797407D01*
X83976953Y-86644697D01*
X83573160Y-87181906D01*
X83447672Y-87087614D01*
X83447737Y-87121598D01*
X83446784Y-87154738D01*
X83444812Y-87187034D01*
X83441821Y-87218487D01*
X83437812Y-87249097D01*
X83432784Y-87278864D01*
X83426737Y-87307787D01*
X83419672Y-87335866D01*
X83411588Y-87363102D01*
X83402486Y-87389495D01*
X83392365Y-87415045D01*
X83381226Y-87439751D01*
X83369068Y-87463613D01*
X83355893Y-87486633D01*
X83341699Y-87508809D01*
X83326486Y-87530142D01*
X82929956Y-88057707D01*
X82901872Y-88093526D01*
X82872626Y-88127803D01*
X82842219Y-88160539D01*
X82810649Y-88191734D01*
X82777917Y-88221387D01*
X82744024Y-88249499D01*
X82708969Y-88276069D01*
X82672752Y-88301097D01*
X82635374Y-88324584D01*
X82596833Y-88346529D01*
X82557131Y-88366932D01*
X82516267Y-88385794D01*
X82474242Y-88403113D01*
X82431055Y-88418891D01*
X82386706Y-88433128D01*
X82341196Y-88445822D01*
X82295467Y-88456562D01*
X82250457Y-88464931D01*
X82206166Y-88470931D01*
X82162594Y-88474561D01*
X82119742Y-88475821D01*
X82077608Y-88474710D01*
X82036194Y-88471230D01*
X81995498Y-88465380D01*
X81955523Y-88457160D01*
X81916266Y-88446569D01*
X81877730Y-88433609D01*
X81839912Y-88418279D01*
X81802815Y-88400579D01*
X81766437Y-88380508D01*
X81730779Y-88358068D01*
X81695841Y-88333258D01*
X81084635Y-87873854D01*
X81050315Y-87846603D01*
X81018122Y-87818040D01*
X80988055Y-87788165D01*
X80960115Y-87756977D01*
X80934300Y-87724477D01*
X80910612Y-87690665D01*
X80889051Y-87655542D01*
X80869615Y-87619105D01*
X80852306Y-87581357D01*
X80837124Y-87542297D01*
X80824068Y-87501925D01*
X80813139Y-87460241D01*
X80804337Y-87417245D01*
X80797661Y-87372937D01*
X80793112Y-87327318D01*
X80790689Y-87280386D01*
X80790235Y-87233141D01*
X80791585Y-87186583D01*
X80794738Y-87140713D01*
X80798335Y-87107926D01*
X81432729Y-87107926D01*
X81432835Y-87124032D01*
X81434054Y-87140071D01*
X81436387Y-87156042D01*
X81439832Y-87171945D01*
X81444391Y-87187780D01*
X81449417Y-87203156D01*
X81455106Y-87218280D01*
X81461458Y-87233154D01*
X81468472Y-87247776D01*
X81476149Y-87262147D01*
X81484488Y-87276267D01*
X81493490Y-87290136D01*
X81503155Y-87303754D01*
X81513481Y-87317121D01*
X81524471Y-87330236D01*
X81536123Y-87343100D01*
X81548437Y-87355714D01*
X81561414Y-87368076D01*
X81575053Y-87380186D01*
X81589355Y-87392046D01*
X81604318Y-87403654D01*
X82003214Y-87703474D01*
X82018538Y-87714613D01*
X82033945Y-87725067D01*
X82049433Y-87734837D01*
X82065003Y-87743921D01*
X82080655Y-87752321D01*
X82096389Y-87760036D01*
X82112205Y-87767066D01*
X82128103Y-87773411D01*
X82144083Y-87779071D01*
X82160144Y-87784046D01*
X82176288Y-87788335D01*
X82192513Y-87791940D01*
X82208821Y-87794859D01*
X82225210Y-87797093D01*
X82241681Y-87798642D01*
X82258234Y-87799505D01*
X82274323Y-87799191D01*
X82290194Y-87797807D01*
X82305845Y-87795353D01*
X82321276Y-87791829D01*
X82336489Y-87787236D01*
X82351482Y-87781573D01*
X82366257Y-87774841D01*
X82380811Y-87767038D01*
X82395147Y-87758167D01*
X82409264Y-87748225D01*
X82423161Y-87737214D01*
X82436839Y-87725133D01*
X82450298Y-87711983D01*
X82463537Y-87697762D01*
X82476558Y-87682473D01*
X82489359Y-87666113D01*
X82900400Y-87119253D01*
X82912278Y-87102774D01*
X82923125Y-87086306D01*
X82932940Y-87069849D01*
X82941725Y-87053404D01*
X82949477Y-87036970D01*
X82956198Y-87020548D01*
X82961888Y-87004137D01*
X82966547Y-86987738D01*
X82970174Y-86971350D01*
X82972769Y-86954973D01*
X82974334Y-86938608D01*
X82974867Y-86922255D01*
X82974368Y-86905913D01*
X82972838Y-86889582D01*
X82970277Y-86873263D01*
X82966684Y-86856955D01*
X82962130Y-86840119D01*
X82956883Y-86823628D01*
X82950944Y-86807484D01*
X82944314Y-86791684D01*
X82936992Y-86776230D01*
X82928977Y-86761122D01*
X82920271Y-86746358D01*
X82910873Y-86731940D01*
X82900783Y-86717868D01*
X82890002Y-86704140D01*
X82878528Y-86690757D01*
X82866363Y-86677720D01*
X82853506Y-86665027D01*
X82839957Y-86652680D01*
X82825717Y-86640677D01*
X82810785Y-86629019D01*
X82411890Y-86329207D01*
X82396547Y-86318111D01*
X82381091Y-86307794D01*
X82365522Y-86298257D01*
X82349840Y-86289500D01*
X82334045Y-86281522D01*
X82318137Y-86274324D01*
X82302116Y-86267905D01*
X82285982Y-86262265D01*
X82269735Y-86257405D01*
X82253375Y-86253325D01*
X82236902Y-86250024D01*
X82220316Y-86247503D01*
X82203617Y-86245762D01*
X82186805Y-86244800D01*
X82169879Y-86244617D01*
X82152841Y-86245215D01*
X82135786Y-86246003D01*
X82119031Y-86247804D01*
X82102578Y-86250619D01*
X82086425Y-86254446D01*
X82070574Y-86259287D01*
X82055024Y-86265141D01*
X82039774Y-86272008D01*
X82024826Y-86279888D01*
X82010178Y-86288782D01*
X81995832Y-86298689D01*
X81981786Y-86309610D01*
X81968041Y-86321544D01*
X81954598Y-86334491D01*
X81941454Y-86348453D01*
X81928612Y-86363427D01*
X81916071Y-86379416D01*
X81505029Y-86926275D01*
X81492892Y-86943129D01*
X81481867Y-86959914D01*
X81471955Y-86976631D01*
X81463156Y-86993281D01*
X81455470Y-87009862D01*
X81448897Y-87026376D01*
X81443437Y-87042822D01*
X81439090Y-87059199D01*
X81435857Y-87075509D01*
X81433736Y-87091752D01*
X81432729Y-87107926D01*
X80798335Y-87107926D01*
X80799695Y-87095530D01*
X80806456Y-87051034D01*
X80815021Y-87007226D01*
X80825389Y-86964105D01*
X80837560Y-86921672D01*
X80851536Y-86879926D01*
X80867314Y-86838868D01*
X80884896Y-86798497D01*
X80904282Y-86758813D01*
X80925471Y-86719817D01*
X80948463Y-86681509D01*
X80973258Y-86643888D01*
X80999857Y-86606955D01*
X81468927Y-85982885D01*
X81481244Y-85967074D01*
X81494020Y-85951804D01*
X81507255Y-85937075D01*
X81520949Y-85922887D01*
X81535101Y-85909240D01*
X81549712Y-85896133D01*
X81564782Y-85883568D01*
X81580311Y-85871544D01*
X81596298Y-85860061D01*
X81612743Y-85849118D01*
X81629648Y-85838717D01*
X81647011Y-85828856D01*
X81664832Y-85819536D01*
X81683112Y-85810757D01*
X81701851Y-85802518D01*
X81721048Y-85794821D01*
X81183908Y-85391066D01*
X81150421Y-85367489D01*
X81133895Y-85357059D01*
X81117515Y-85347535D01*
X81101279Y-85338916D01*
X81085189Y-85331202D01*
X81069244Y-85324394D01*
X81053443Y-85318492D01*
X81037789Y-85313495D01*
X81022279Y-85309403D01*
X81006914Y-85306217D01*
X80991695Y-85303936D01*
X80976621Y-85302561D01*
X80961692Y-85302091D01*
X80946908Y-85302527D01*
X80932270Y-85303868D01*
X80917777Y-85306115D01*
X80903429Y-85309267D01*
X80889226Y-85313325D01*
X80875169Y-85318289D01*
X80861256Y-85324157D01*
X80847490Y-85330932D01*
X80833868Y-85338611D01*
X80820392Y-85347197D01*
X80807061Y-85356687D01*
X80793875Y-85367084D01*
X80780835Y-85378385D01*
X80767940Y-85390593D01*
X80755190Y-85403705D01*
X80742586Y-85417724D01*
X80730127Y-85432648D01*
X80717813Y-85448477D01*
X80277750Y-86033941D01*
X80269047Y-86046024D01*
X80261067Y-86058138D01*
X80253810Y-86070284D01*
X80247275Y-86082461D01*
X80241462Y-86094671D01*
X80236372Y-86106912D01*
X80232005Y-86119186D01*
X80228361Y-86131491D01*
X80225439Y-86143828D01*
X80223240Y-86156196D01*
X80221764Y-86168597D01*
X80221011Y-86181029D01*
X80220981Y-86193494D01*
X80221674Y-86205990D01*
X80223090Y-86218518D01*
X80225229Y-86231077D01*
X80227874Y-86242875D01*
X80231084Y-86254503D01*
X80234858Y-86265960D01*
X80239197Y-86277247D01*
X80244100Y-86288364D01*
X80249567Y-86299310D01*
X80255599Y-86310086D01*
X80262195Y-86320691D01*
X80269356Y-86331126D01*
X80277082Y-86341391D01*
X80285372Y-86351486D01*
X80294226Y-86361410D01*
X80303645Y-86371164D01*
X80313629Y-86380748D01*
X80324178Y-86390161D01*
X80335291Y-86399405D01*
X79919412Y-86952704D01*
X79884298Y-86923970D01*
X79850925Y-86894383D01*
X79819295Y-86863942D01*
X79789408Y-86832648D01*
X79761263Y-86800501D01*
X79734860Y-86767500D01*
X79710200Y-86733645D01*
X79687282Y-86698938D01*
X79666107Y-86663376D01*
X79646675Y-86626962D01*
X79628985Y-86589694D01*
X79613038Y-86551573D01*
X79598833Y-86512598D01*
X79586371Y-86472770D01*
X79575652Y-86432089D01*
X79566675Y-86390555D01*
X79559654Y-86348798D01*
X79554802Y-86307452D01*
X79552120Y-86266517D01*
X79551606Y-86225994D01*
X79553261Y-86185882D01*
X79557086Y-86146181D01*
X79563079Y-86106891D01*
X79571241Y-86068012D01*
X79581572Y-86029545D01*
X79594073Y-85991488D01*
X79608742Y-85953843D01*
X79625581Y-85916608D01*
X79644588Y-85879785D01*
X79665764Y-85843372D01*
X79689110Y-85807371D01*
X79714624Y-85771780D01*
X80360208Y-84912878D01*
X80386687Y-84879273D01*
X80414138Y-84847619D01*
X80442563Y-84817915D01*
X80471959Y-84790160D01*
X80502329Y-84764356D01*
X80533670Y-84740503D01*
X80565985Y-84718599D01*
X80599272Y-84698646D01*
X80633531Y-84680643D01*
X80668762Y-84664590D01*
X80704966Y-84650487D01*
X80742142Y-84638335D01*
X80780290Y-84628133D01*
X80819411Y-84619881D01*
X80859503Y-84613579D01*
X80900568Y-84609228D01*
X80941944Y-84606800D01*
X80982959Y-84606263D01*
X81023613Y-84607618D01*
G37*
%TD.AperFunction*%
%TA.AperFunction,NonConductor*%
G36*
X117633199Y-127712608D02*
G01*
X117653741Y-127714487D01*
X117674088Y-127717553D01*
X117694238Y-127721808D01*
X117714361Y-127727644D01*
X117734098Y-127734600D01*
X117753451Y-127742675D01*
X117772419Y-127751868D01*
X117791002Y-127762181D01*
X117809200Y-127773612D01*
X117827013Y-127786163D01*
X117844441Y-127799832D01*
X117861485Y-127814621D01*
X117878143Y-127830528D01*
X117894417Y-127847554D01*
X117910305Y-127865700D01*
X117925809Y-127884964D01*
X117940928Y-127905346D01*
X117955662Y-127926848D01*
X117970011Y-127949469D01*
X117983574Y-127972555D01*
X117995950Y-127995446D01*
X118007138Y-128018141D01*
X118017138Y-128040640D01*
X118025949Y-128062943D01*
X118033573Y-128085051D01*
X118040009Y-128106962D01*
X118045257Y-128128678D01*
X118049318Y-128150199D01*
X118052190Y-128171524D01*
X118053875Y-128192653D01*
X118054371Y-128213586D01*
X118053680Y-128234324D01*
X118051802Y-128254866D01*
X118048735Y-128275212D01*
X118044481Y-128295363D01*
X118039063Y-128315231D01*
X118032498Y-128334731D01*
X118024787Y-128353863D01*
X118015930Y-128372626D01*
X118005926Y-128391020D01*
X117994776Y-128409046D01*
X117982480Y-128426704D01*
X117969038Y-128443993D01*
X117954449Y-128460913D01*
X117938715Y-128477465D01*
X117921834Y-128493648D01*
X117903807Y-128509463D01*
X117884634Y-128524909D01*
X117864314Y-128539987D01*
X117842849Y-128554696D01*
X117820238Y-128569037D01*
X117820246Y-128569021D01*
X117773581Y-128595457D01*
X117750667Y-128606871D01*
X117728033Y-128617084D01*
X117705677Y-128626095D01*
X117683600Y-128633904D01*
X117661803Y-128640511D01*
X117640284Y-128645916D01*
X117619045Y-128650119D01*
X117598085Y-128653120D01*
X117577403Y-128654920D01*
X117557001Y-128655517D01*
X117536878Y-128654912D01*
X117517034Y-128653106D01*
X117497469Y-128650098D01*
X117478183Y-128645887D01*
X117459176Y-128640475D01*
X117440448Y-128633861D01*
X117421999Y-128626045D01*
X117403829Y-128617028D01*
X117385938Y-128606808D01*
X117368327Y-128595386D01*
X117350994Y-128582763D01*
X117333941Y-128568938D01*
X117317166Y-128553910D01*
X117300671Y-128537681D01*
X117284455Y-128520250D01*
X117268517Y-128501618D01*
X117252859Y-128481783D01*
X117237480Y-128460746D01*
X117207559Y-128415068D01*
X117180336Y-128367171D01*
X117168526Y-128343684D01*
X117157916Y-128320504D01*
X117148507Y-128297632D01*
X117140299Y-128275067D01*
X117133292Y-128252809D01*
X117127485Y-128230859D01*
X117122879Y-128209217D01*
X117119474Y-128187881D01*
X117117270Y-128166853D01*
X117116266Y-128146133D01*
X117116463Y-128125720D01*
X117117861Y-128105614D01*
X117120459Y-128085816D01*
X117124259Y-128066325D01*
X117129259Y-128047142D01*
X117135460Y-128028266D01*
X117142861Y-128009697D01*
X117151464Y-127991436D01*
X117161267Y-127973482D01*
X117172271Y-127955836D01*
X117184475Y-127938497D01*
X117197881Y-127921465D01*
X117212487Y-127904741D01*
X117228294Y-127888324D01*
X117245302Y-127872215D01*
X117263510Y-127856413D01*
X117282920Y-127840918D01*
X117303530Y-127825731D01*
X117348352Y-127796278D01*
X117371437Y-127782714D01*
X117394327Y-127770339D01*
X117417020Y-127759151D01*
X117439519Y-127749151D01*
X117461821Y-127740339D01*
X117483928Y-127732715D01*
X117505840Y-127726279D01*
X117527555Y-127721031D01*
X117549075Y-127716971D01*
X117570400Y-127714099D01*
X117591529Y-127712414D01*
X117612462Y-127711917D01*
X117633199Y-127712608D01*
G37*
%TD.AperFunction*%
%TA.AperFunction,NonConductor*%
G36*
X123156225Y-117123215D02*
G01*
X123197883Y-117126696D01*
X123239377Y-117132246D01*
X123280708Y-117139866D01*
X123321874Y-117149555D01*
X123362877Y-117161314D01*
X123403715Y-117175143D01*
X123444390Y-117191041D01*
X123484900Y-117209009D01*
X123525247Y-117229046D01*
X123565429Y-117251153D01*
X123605447Y-117275330D01*
X123645302Y-117301577D01*
X123684992Y-117329893D01*
X123272867Y-117885992D01*
X123259377Y-117875152D01*
X123246000Y-117865218D01*
X123232734Y-117856188D01*
X123219581Y-117848063D01*
X123206539Y-117840844D01*
X123193609Y-117834529D01*
X123180791Y-117829120D01*
X123168086Y-117824616D01*
X123155492Y-117821016D01*
X123143011Y-117818322D01*
X123130641Y-117816532D01*
X123118384Y-117815647D01*
X123106238Y-117815668D01*
X123094205Y-117816593D01*
X123082284Y-117818423D01*
X123070474Y-117821158D01*
X123058892Y-117825331D01*
X123047437Y-117830069D01*
X123036112Y-117835373D01*
X123024916Y-117841241D01*
X123013848Y-117847674D01*
X123002909Y-117854673D01*
X122992099Y-117862236D01*
X122981418Y-117870365D01*
X122970866Y-117879059D01*
X122960443Y-117888319D01*
X122950149Y-117898143D01*
X122939984Y-117908533D01*
X122929948Y-117919489D01*
X122920041Y-117931009D01*
X122910263Y-117943096D01*
X122900614Y-117955748D01*
X122337564Y-118715544D01*
X122316462Y-118746002D01*
X122307154Y-118761037D01*
X122298676Y-118775944D01*
X122291027Y-118790721D01*
X122284207Y-118805370D01*
X122278217Y-118819889D01*
X122273056Y-118834280D01*
X122268724Y-118848541D01*
X122265221Y-118862674D01*
X122262547Y-118876677D01*
X122260703Y-118890552D01*
X122259688Y-118904297D01*
X122259502Y-118917914D01*
X122260146Y-118931402D01*
X122261618Y-118944760D01*
X122263920Y-118957990D01*
X122267052Y-118971091D01*
X122271012Y-118984063D01*
X122275802Y-118996906D01*
X122281421Y-119009620D01*
X122287870Y-119022205D01*
X122295147Y-119034661D01*
X122303254Y-119046989D01*
X122312191Y-119059187D01*
X122321956Y-119071257D01*
X122332551Y-119083197D01*
X122343976Y-119095009D01*
X122356229Y-119106692D01*
X122369312Y-119118245D01*
X122383225Y-119129670D01*
X122397966Y-119140967D01*
X123193323Y-119730368D01*
X123224572Y-119752038D01*
X123239991Y-119761606D01*
X123255274Y-119770329D01*
X123270420Y-119778207D01*
X123285429Y-119785240D01*
X123300301Y-119791429D01*
X123315036Y-119796772D01*
X123329634Y-119801270D01*
X123344096Y-119804924D01*
X123358421Y-119807732D01*
X123372608Y-119809696D01*
X123386659Y-119810815D01*
X123400573Y-119811088D01*
X123414350Y-119810517D01*
X123427991Y-119809101D01*
X123441494Y-119806840D01*
X123454860Y-119803734D01*
X123468090Y-119799783D01*
X123481183Y-119794987D01*
X123494138Y-119789347D01*
X123506957Y-119782861D01*
X123519639Y-119775530D01*
X123532184Y-119767354D01*
X123544591Y-119758334D01*
X123556862Y-119748468D01*
X123568996Y-119737757D01*
X123580993Y-119726202D01*
X123592853Y-119713801D01*
X123604576Y-119700556D01*
X123616162Y-119686465D01*
X123627611Y-119671530D01*
X124238580Y-118847067D01*
X124266379Y-118811299D01*
X124295265Y-118777550D01*
X124325237Y-118745819D01*
X124356296Y-118716107D01*
X124388442Y-118688413D01*
X124421674Y-118662737D01*
X124455993Y-118639080D01*
X124491399Y-118617441D01*
X124527891Y-118597821D01*
X124565470Y-118580219D01*
X124604136Y-118564636D01*
X124643889Y-118551071D01*
X124684729Y-118539525D01*
X124726655Y-118529997D01*
X124769668Y-118522488D01*
X124813768Y-118516997D01*
X124858178Y-118513514D01*
X124902122Y-118512035D01*
X124945600Y-118512557D01*
X124988611Y-118515082D01*
X125031156Y-118519610D01*
X125073234Y-118526139D01*
X125114846Y-118534671D01*
X125155991Y-118545205D01*
X125196670Y-118557742D01*
X125236883Y-118572280D01*
X125276629Y-118588821D01*
X125315909Y-118607364D01*
X125354722Y-118627910D01*
X125393069Y-118650457D01*
X125430949Y-118675007D01*
X125468363Y-118701559D01*
X126373659Y-119372435D01*
X126409180Y-119399854D01*
X126442996Y-119428200D01*
X126475107Y-119457475D01*
X126505512Y-119487677D01*
X126534213Y-119518807D01*
X126561208Y-119550865D01*
X126586499Y-119583850D01*
X126610084Y-119617764D01*
X126631965Y-119652605D01*
X126652140Y-119688374D01*
X126670611Y-119725071D01*
X126687376Y-119762696D01*
X126702437Y-119801249D01*
X126715793Y-119840730D01*
X126727444Y-119881139D01*
X126737390Y-119922476D01*
X126745368Y-119964093D01*
X126751111Y-120005347D01*
X126754620Y-120046235D01*
X126755894Y-120086760D01*
X126754934Y-120126920D01*
X126751739Y-120166716D01*
X126746310Y-120206147D01*
X126738646Y-120245215D01*
X126728748Y-120283917D01*
X126716616Y-120322255D01*
X126702249Y-120360229D01*
X126685648Y-120397838D01*
X126666813Y-120435083D01*
X126645744Y-120471963D01*
X126622440Y-120508479D01*
X126596903Y-120544630D01*
X125854143Y-121546919D01*
X125826175Y-121583050D01*
X125797378Y-121617079D01*
X125767751Y-121649007D01*
X125737294Y-121678833D01*
X125706009Y-121706558D01*
X125673893Y-121732181D01*
X125640948Y-121755701D01*
X125607174Y-121777121D01*
X125572570Y-121796438D01*
X125537136Y-121813654D01*
X125500873Y-121828768D01*
X125463781Y-121841780D01*
X125425859Y-121852690D01*
X125387107Y-121861498D01*
X125347526Y-121868204D01*
X125307115Y-121872809D01*
X125266656Y-121874971D01*
X125226329Y-121875158D01*
X125186136Y-121873370D01*
X125146075Y-121869607D01*
X125106149Y-121863869D01*
X125066355Y-121856156D01*
X125026694Y-121846468D01*
X124987167Y-121834805D01*
X124947773Y-121821166D01*
X124908512Y-121805553D01*
X124869385Y-121787965D01*
X124830390Y-121768402D01*
X124791529Y-121746864D01*
X124752801Y-121723351D01*
X124714206Y-121697863D01*
X124675745Y-121670401D01*
X125087854Y-121114294D01*
X125098865Y-121122722D01*
X125109863Y-121130428D01*
X125120849Y-121137410D01*
X125131824Y-121143669D01*
X125142786Y-121149205D01*
X125153737Y-121154018D01*
X125164675Y-121158108D01*
X125175602Y-121161475D01*
X125186516Y-121164119D01*
X125197419Y-121166040D01*
X125208309Y-121167238D01*
X125219188Y-121167713D01*
X125230055Y-121167465D01*
X125240909Y-121166494D01*
X125251752Y-121164800D01*
X125262583Y-121162383D01*
X125273401Y-121159243D01*
X125284208Y-121155380D01*
X125295003Y-121150794D01*
X125305785Y-121145485D01*
X125316556Y-121139453D01*
X125327315Y-121132697D01*
X125338062Y-121125219D01*
X125348797Y-121117018D01*
X125359519Y-121108094D01*
X125370230Y-121098447D01*
X125380929Y-121088077D01*
X125391616Y-121076984D01*
X125402291Y-121065168D01*
X125412954Y-121052628D01*
X125434244Y-121025381D01*
X125949381Y-120330244D01*
X125960333Y-120314941D01*
X125970431Y-120299749D01*
X125979675Y-120284667D01*
X125988064Y-120269695D01*
X125995599Y-120254833D01*
X126002280Y-120240081D01*
X126008106Y-120225440D01*
X126013078Y-120210909D01*
X126017195Y-120196488D01*
X126020458Y-120182178D01*
X126022866Y-120167978D01*
X126024420Y-120153888D01*
X126025120Y-120139908D01*
X126024965Y-120126038D01*
X126023956Y-120112279D01*
X126022092Y-120098630D01*
X126019373Y-120085091D01*
X126015800Y-120071663D01*
X126011373Y-120058344D01*
X126006091Y-120045136D01*
X125999955Y-120032038D01*
X125992964Y-120019050D01*
X125985118Y-120006172D01*
X125976418Y-119993405D01*
X125966864Y-119980748D01*
X125956455Y-119968200D01*
X125945191Y-119955764D01*
X125933073Y-119943437D01*
X125920100Y-119931220D01*
X125906273Y-119919114D01*
X125876055Y-119895231D01*
X125080690Y-119305830D01*
X125065593Y-119295015D01*
X125050614Y-119285030D01*
X125035753Y-119275876D01*
X125021010Y-119267554D01*
X125006384Y-119260062D01*
X124991877Y-119253401D01*
X124977488Y-119247571D01*
X124963217Y-119242571D01*
X124949065Y-119238403D01*
X124935030Y-119235066D01*
X124921113Y-119232559D01*
X124907314Y-119230883D01*
X124893633Y-119230039D01*
X124880070Y-119230025D01*
X124866625Y-119230842D01*
X124853298Y-119232490D01*
X124840089Y-119234968D01*
X124826998Y-119238278D01*
X124814025Y-119242419D01*
X124801170Y-119247390D01*
X124788433Y-119253192D01*
X124775813Y-119259826D01*
X124763312Y-119267290D01*
X124750929Y-119275584D01*
X124738663Y-119284710D01*
X124726516Y-119294667D01*
X124714486Y-119305454D01*
X124702574Y-119317073D01*
X124690781Y-119329522D01*
X124679105Y-119342802D01*
X124667547Y-119356913D01*
X124656107Y-119371855D01*
X124021181Y-120228651D01*
X123993745Y-120263984D01*
X123965348Y-120297234D01*
X123935990Y-120328403D01*
X123905670Y-120357489D01*
X123874389Y-120384493D01*
X123842146Y-120409415D01*
X123808942Y-120432255D01*
X123774777Y-120453014D01*
X123739651Y-120471690D01*
X123703563Y-120488284D01*
X123666513Y-120502796D01*
X123628502Y-120515226D01*
X123589530Y-120525574D01*
X123549596Y-120533840D01*
X123508701Y-120540024D01*
X123466844Y-120544127D01*
X123424414Y-120546649D01*
X123382400Y-120547289D01*
X123340803Y-120546046D01*
X123299623Y-120542922D01*
X123258860Y-120537915D01*
X123218514Y-120531026D01*
X123178585Y-120522254D01*
X123139073Y-120511600D01*
X123099978Y-120499063D01*
X123061300Y-120484644D01*
X123023038Y-120468342D01*
X122985194Y-120450158D01*
X122947766Y-120430091D01*
X122910755Y-120408142D01*
X122874161Y-120384310D01*
X122837984Y-120358595D01*
X121932695Y-119687719D01*
X121896403Y-119659652D01*
X121861891Y-119630555D01*
X121829158Y-119600430D01*
X121798206Y-119569276D01*
X121769033Y-119537093D01*
X121741640Y-119503880D01*
X121716027Y-119469639D01*
X121692194Y-119434369D01*
X121670140Y-119398070D01*
X121649867Y-119360742D01*
X121631374Y-119322385D01*
X121614660Y-119282999D01*
X121599727Y-119242584D01*
X121586573Y-119201139D01*
X121575200Y-119158666D01*
X121565607Y-119115164D01*
X121558418Y-119071667D01*
X121553451Y-119028603D01*
X121550706Y-118985972D01*
X121550183Y-118943775D01*
X121551882Y-118902011D01*
X121555804Y-118860680D01*
X121561947Y-118819783D01*
X121570312Y-118779319D01*
X121580900Y-118739289D01*
X121593709Y-118699692D01*
X121608741Y-118660529D01*
X121625995Y-118621799D01*
X121645471Y-118583504D01*
X121667170Y-118545642D01*
X121691090Y-118508214D01*
X121717233Y-118471220D01*
X122459985Y-117468931D01*
X122489730Y-117430458D01*
X122520261Y-117394249D01*
X122551578Y-117360306D01*
X122583682Y-117328629D01*
X122616572Y-117299217D01*
X122650249Y-117272071D01*
X122684712Y-117247189D01*
X122719961Y-117224573D01*
X122755997Y-117204222D01*
X122792819Y-117186137D01*
X122830428Y-117170316D01*
X122868823Y-117156761D01*
X122908004Y-117145470D01*
X122947972Y-117136445D01*
X122988727Y-117129685D01*
X123030267Y-117125189D01*
X123072417Y-117122461D01*
X123114403Y-117121803D01*
X123156225Y-117123215D01*
G37*
%TD.AperFunction*%
%TA.AperFunction,NonConductor*%
G36*
X78100000Y-104900000D02*
G01*
X75176782Y-105350828D01*
X75158127Y-105354054D01*
X75139951Y-105357905D01*
X75122253Y-105362383D01*
X75105034Y-105367486D01*
X75088293Y-105373216D01*
X75072030Y-105379571D01*
X75056246Y-105386552D01*
X75040941Y-105394159D01*
X75026114Y-105402392D01*
X75011766Y-105411251D01*
X74997896Y-105420736D01*
X74984504Y-105430846D01*
X74971592Y-105441582D01*
X74959157Y-105452944D01*
X74947201Y-105464932D01*
X74935724Y-105477545D01*
X74924378Y-105490298D01*
X74913967Y-105503544D01*
X74904490Y-105517282D01*
X74895948Y-105531512D01*
X74888341Y-105546235D01*
X74881668Y-105561451D01*
X74875931Y-105577159D01*
X74871128Y-105593359D01*
X74867260Y-105610052D01*
X74864328Y-105627237D01*
X74862330Y-105644915D01*
X74861268Y-105663085D01*
X74861141Y-105681748D01*
X74861950Y-105700903D01*
X74863693Y-105720550D01*
X74866373Y-105740690D01*
X74949747Y-106281607D01*
X74951908Y-106293858D01*
X74954563Y-106305756D01*
X74957713Y-106317298D01*
X74961357Y-106328486D01*
X74965495Y-106339319D01*
X74970127Y-106349798D01*
X74975254Y-106359922D01*
X74980875Y-106369692D01*
X74986990Y-106379107D01*
X74993599Y-106388168D01*
X75000702Y-106396874D01*
X75008300Y-106405225D01*
X75016392Y-106413222D01*
X75024978Y-106420864D01*
X75034058Y-106428151D01*
X75043632Y-106435084D01*
X75053701Y-106441663D01*
X75064264Y-106447887D01*
X75075321Y-106453756D01*
X75086872Y-106459271D01*
X75098917Y-106464431D01*
X75111457Y-106469237D01*
X75124491Y-106473688D01*
X75138019Y-106477785D01*
X75152041Y-106481527D01*
X75166557Y-106484914D01*
X75181567Y-106487947D01*
X75197072Y-106490625D01*
X75213071Y-106492949D01*
X75229564Y-106494918D01*
X75264032Y-106497793D01*
X75282323Y-106498792D01*
X75300164Y-106499351D01*
X75317553Y-106499469D01*
X75334491Y-106499148D01*
X75350978Y-106498385D01*
X75367014Y-106497182D01*
X75382598Y-106495538D01*
X75397730Y-106493452D01*
X78277216Y-106049368D01*
X78382700Y-106733450D01*
X75395822Y-107194098D01*
X75371559Y-107198679D01*
X75359872Y-107201533D01*
X75348481Y-107204764D01*
X75337387Y-107208370D01*
X75326589Y-107212352D01*
X75316088Y-107216710D01*
X75305884Y-107221444D01*
X75295976Y-107226554D01*
X75286364Y-107232040D01*
X75277049Y-107237902D01*
X75268031Y-107244139D01*
X75259309Y-107250753D01*
X75250883Y-107257742D01*
X75242754Y-107265107D01*
X75234922Y-107272848D01*
X75227386Y-107280965D01*
X75220147Y-107289458D01*
X75213205Y-107298327D01*
X75206559Y-107307571D01*
X75200209Y-107317191D01*
X75194157Y-107327188D01*
X75188400Y-107337560D01*
X75182941Y-107348307D01*
X75172911Y-107370931D01*
X75164068Y-107395057D01*
X75156412Y-107420687D01*
X75149942Y-107447821D01*
X75148212Y-107455721D01*
X75146699Y-107463587D01*
X75145405Y-107471420D01*
X75144329Y-107479219D01*
X75143471Y-107486985D01*
X75142831Y-107494718D01*
X75142409Y-107502417D01*
X75142206Y-107510083D01*
X75142221Y-107517716D01*
X75142453Y-107525315D01*
X75142904Y-107532881D01*
X75143574Y-107540414D01*
X75144461Y-107547913D01*
X75145566Y-107555379D01*
X75146890Y-107562812D01*
X75148432Y-107570212D01*
X75237940Y-108150885D01*
X75240750Y-108165482D01*
X75244584Y-108179445D01*
X75249442Y-108192773D01*
X75255322Y-108205465D01*
X75262227Y-108217523D01*
X75270155Y-108228945D01*
X75279106Y-108239733D01*
X75289081Y-108249885D01*
X75300079Y-108259402D01*
X75312100Y-108268284D01*
X75325146Y-108276532D01*
X75339214Y-108284144D01*
X75354306Y-108291121D01*
X75370422Y-108297463D01*
X75387561Y-108303170D01*
X75405723Y-108308242D01*
X75424909Y-108312679D01*
X75445119Y-108316481D01*
X75466352Y-108319648D01*
X75488608Y-108322180D01*
X75511888Y-108324076D01*
X75536192Y-108325338D01*
X75561519Y-108325965D01*
X75587869Y-108325957D01*
X75615243Y-108325314D01*
X75643641Y-108324035D01*
X75673062Y-108322122D01*
X75703506Y-108319574D01*
X75734974Y-108316390D01*
X75767466Y-108312572D01*
X75800981Y-108308119D01*
X75835520Y-108303030D01*
X78559900Y-107882864D01*
X78665369Y-108566946D01*
X74791605Y-109164381D01*
X74697733Y-108555884D01*
X74936365Y-108519102D01*
X74904052Y-108501390D01*
X74873512Y-108482799D01*
X74844744Y-108463330D01*
X74817750Y-108442984D01*
X74792528Y-108421759D01*
X74769080Y-108399656D01*
X74747404Y-108376675D01*
X74727501Y-108352817D01*
X74709371Y-108328080D01*
X74693014Y-108302466D01*
X74678429Y-108275974D01*
X74665618Y-108248604D01*
X74654580Y-108220356D01*
X74645315Y-108191230D01*
X74637823Y-108161227D01*
X74632105Y-108130346D01*
X74521677Y-107414457D01*
X74516410Y-107373105D01*
X74513496Y-107332567D01*
X74512934Y-107292843D01*
X74514725Y-107253933D01*
X74518868Y-107215837D01*
X74525364Y-107178555D01*
X74534213Y-107142087D01*
X74545414Y-107106434D01*
X74558968Y-107071595D01*
X74574874Y-107037570D01*
X74593133Y-107004358D01*
X74613745Y-106971962D01*
X74636710Y-106940379D01*
X74662027Y-106909610D01*
X74689698Y-106879656D01*
X74719721Y-106850515D01*
X74719949Y-106850477D01*
X74682716Y-106832855D01*
X74647518Y-106813995D01*
X74614357Y-106793900D01*
X74583233Y-106772567D01*
X74554144Y-106749998D01*
X74527092Y-106726193D01*
X74502077Y-106701151D01*
X74479097Y-106674873D01*
X74458154Y-106647357D01*
X74439247Y-106618606D01*
X74422377Y-106588617D01*
X74407543Y-106557392D01*
X74394745Y-106524931D01*
X74383984Y-106491233D01*
X74375259Y-106456298D01*
X74368570Y-106420126D01*
X74251993Y-105664473D01*
X74246298Y-105621451D01*
X74242551Y-105578893D01*
X74240752Y-105536797D01*
X74240901Y-105495165D01*
X74242998Y-105453996D01*
X74247043Y-105413289D01*
X74253036Y-105373046D01*
X74260977Y-105333266D01*
X74270865Y-105293950D01*
X74282702Y-105255096D01*
X74296487Y-105216706D01*
X74312220Y-105178779D01*
X74329901Y-105141316D01*
X74349530Y-105104316D01*
X74371107Y-105067779D01*
X74394632Y-105031706D01*
X74419735Y-104996771D01*
X74446042Y-104963655D01*
X74473551Y-104932357D01*
X74502264Y-104902878D01*
X74532179Y-104875218D01*
X74563297Y-104849376D01*
X74595618Y-104825352D01*
X74629143Y-104803147D01*
X74663870Y-104782761D01*
X74699799Y-104764193D01*
X74736932Y-104747443D01*
X74775268Y-104732512D01*
X74814806Y-104719399D01*
X74855547Y-104708104D01*
X74897491Y-104698628D01*
X74940637Y-104690970D01*
X77995111Y-104219900D01*
X78100000Y-104900000D01*
G37*
%TD.AperFunction*%
%TA.AperFunction,NonConductor*%
G36*
X122149087Y-82465220D02*
G01*
X122189362Y-82467679D01*
X122228938Y-82472306D01*
X122267817Y-82479103D01*
X122305998Y-82488068D01*
X122343481Y-82499202D01*
X122380267Y-82512506D01*
X122416355Y-82527978D01*
X122451745Y-82545619D01*
X122486438Y-82565429D01*
X122520434Y-82587408D01*
X122553731Y-82611556D01*
X122586331Y-82637872D01*
X122618234Y-82666358D01*
X122649439Y-82697012D01*
X123361948Y-83429892D01*
X123391995Y-83462332D01*
X123419720Y-83495450D01*
X123445123Y-83529247D01*
X123468204Y-83563722D01*
X123488963Y-83598876D01*
X123507400Y-83634708D01*
X123523516Y-83671219D01*
X123537309Y-83708408D01*
X123548781Y-83746277D01*
X123557932Y-83784823D01*
X123564760Y-83824049D01*
X123569268Y-83863953D01*
X123571453Y-83904535D01*
X123571317Y-83945797D01*
X123568860Y-83987737D01*
X123564081Y-84030356D01*
X123557299Y-84072971D01*
X123548837Y-84114896D01*
X123538695Y-84156130D01*
X123526873Y-84196673D01*
X123513372Y-84236525D01*
X123498190Y-84275686D01*
X123481329Y-84314156D01*
X123462787Y-84351936D01*
X123442566Y-84389024D01*
X123420665Y-84425422D01*
X123397084Y-84461129D01*
X123371822Y-84496145D01*
X123344881Y-84530470D01*
X123316260Y-84564105D01*
X123285958Y-84597048D01*
X123253977Y-84629301D01*
X122878885Y-84993963D01*
X122846891Y-85023995D01*
X122814387Y-85052374D01*
X122781372Y-85079101D01*
X122747846Y-85104175D01*
X122713810Y-85127597D01*
X122679264Y-85149367D01*
X122644207Y-85169484D01*
X122608640Y-85187948D01*
X122572563Y-85204760D01*
X122535975Y-85219919D01*
X122498878Y-85233426D01*
X122461269Y-85245280D01*
X122423151Y-85255481D01*
X122384522Y-85264029D01*
X122345383Y-85270925D01*
X122305734Y-85276167D01*
X122266474Y-85279125D01*
X122227779Y-85279867D01*
X122189648Y-85278395D01*
X122152082Y-85274707D01*
X122115081Y-85268804D01*
X122078644Y-85260686D01*
X122042772Y-85250353D01*
X122007464Y-85237805D01*
X121972722Y-85223041D01*
X121938544Y-85206063D01*
X121904931Y-85186870D01*
X121871883Y-85165463D01*
X121839400Y-85141840D01*
X121807481Y-85116003D01*
X121776128Y-85087951D01*
X121745340Y-85057684D01*
X120926241Y-84215155D01*
X120403993Y-84722883D01*
X120390013Y-84736919D01*
X120376928Y-84750973D01*
X120364737Y-84765045D01*
X120353441Y-84779135D01*
X120343039Y-84793244D01*
X120333533Y-84807370D01*
X120324920Y-84821514D01*
X120317203Y-84835677D01*
X120310380Y-84849857D01*
X120304452Y-84864056D01*
X120299418Y-84878272D01*
X120295279Y-84892507D01*
X120292035Y-84906760D01*
X120289685Y-84921031D01*
X120288230Y-84935320D01*
X120287670Y-84949627D01*
X120288004Y-84963952D01*
X120289233Y-84978296D01*
X120291357Y-84992657D01*
X120294375Y-85007037D01*
X120298288Y-85021434D01*
X120303096Y-85035850D01*
X120308798Y-85050284D01*
X120315395Y-85064736D01*
X120322886Y-85079206D01*
X120331272Y-85093695D01*
X120340553Y-85108201D01*
X120350729Y-85122726D01*
X120361799Y-85137269D01*
X120373764Y-85151829D01*
X120386623Y-85166408D01*
X120400377Y-85181006D01*
X120826761Y-85619589D01*
X120838744Y-85631485D01*
X120850848Y-85642650D01*
X120863074Y-85653083D01*
X120875421Y-85662784D01*
X120887890Y-85671754D01*
X120900480Y-85679991D01*
X120913192Y-85687497D01*
X120926025Y-85694270D01*
X120938980Y-85700312D01*
X120952056Y-85705621D01*
X120965253Y-85710199D01*
X120978572Y-85714045D01*
X120992012Y-85717158D01*
X121005573Y-85719539D01*
X121019256Y-85721188D01*
X121033060Y-85722105D01*
X121047566Y-85722256D01*
X121061928Y-85721583D01*
X121076146Y-85720084D01*
X121090220Y-85717761D01*
X121104150Y-85714612D01*
X121117936Y-85710639D01*
X121131577Y-85705841D01*
X121145075Y-85700218D01*
X121158428Y-85693771D01*
X121171637Y-85686498D01*
X121184702Y-85678400D01*
X121197623Y-85669478D01*
X121210400Y-85659731D01*
X121223032Y-85649159D01*
X121235521Y-85637762D01*
X121247865Y-85625540D01*
X121730249Y-86121374D01*
X121674601Y-86170939D01*
X121618686Y-86215901D01*
X121562503Y-86256260D01*
X121506052Y-86292016D01*
X121449334Y-86323169D01*
X121392348Y-86349720D01*
X121335095Y-86371668D01*
X121277573Y-86389013D01*
X121219785Y-86401756D01*
X121161728Y-86409896D01*
X121103404Y-86413433D01*
X121044813Y-86412368D01*
X120985954Y-86406700D01*
X120926827Y-86396430D01*
X120867433Y-86381557D01*
X120807771Y-86362082D01*
X120788037Y-86354373D01*
X120768467Y-86346021D01*
X120749063Y-86337025D01*
X120729823Y-86327386D01*
X120710747Y-86317104D01*
X120691837Y-86306179D01*
X120673091Y-86294610D01*
X120654509Y-86282398D01*
X120636093Y-86269543D01*
X120617840Y-86256045D01*
X120599753Y-86241904D01*
X120581830Y-86227119D01*
X120564071Y-86211692D01*
X120546477Y-86195621D01*
X120529047Y-86178907D01*
X120511781Y-86161551D01*
X119846964Y-85477728D01*
X119816817Y-85445277D01*
X119788792Y-85412122D01*
X119762890Y-85378262D01*
X119739110Y-85343699D01*
X119717452Y-85308433D01*
X119697916Y-85272462D01*
X119680503Y-85235787D01*
X119665211Y-85198409D01*
X119652042Y-85160327D01*
X119640995Y-85121542D01*
X119632070Y-85082052D01*
X119625266Y-85041859D01*
X119620585Y-85000963D01*
X119618025Y-84959363D01*
X119617588Y-84917059D01*
X119619272Y-84874052D01*
X119622605Y-84830712D01*
X119627817Y-84788131D01*
X119634909Y-84746311D01*
X119643880Y-84705250D01*
X119654730Y-84664950D01*
X119667459Y-84625410D01*
X119682068Y-84586630D01*
X119698556Y-84548611D01*
X119716923Y-84511351D01*
X119737169Y-84474852D01*
X119759295Y-84439113D01*
X119783300Y-84404133D01*
X119809184Y-84369914D01*
X119836947Y-84336456D01*
X119866590Y-84303757D01*
X119898111Y-84271818D01*
X120383861Y-83799566D01*
X121353166Y-83799566D01*
X121967500Y-84431448D01*
X121980931Y-84444789D01*
X121994571Y-84457398D01*
X122008422Y-84469277D01*
X122022483Y-84480426D01*
X122036754Y-84490844D01*
X122051235Y-84500531D01*
X122065926Y-84509487D01*
X122080828Y-84517713D01*
X122095941Y-84525208D01*
X122111263Y-84531972D01*
X122126797Y-84538005D01*
X122142540Y-84543308D01*
X122158494Y-84547880D01*
X122174659Y-84551721D01*
X122191034Y-84554831D01*
X122207620Y-84557211D01*
X122224942Y-84558727D01*
X122242101Y-84559217D01*
X122259096Y-84558682D01*
X122275927Y-84557122D01*
X122292595Y-84554536D01*
X122309099Y-84550924D01*
X122325440Y-84546287D01*
X122341617Y-84540625D01*
X122357631Y-84533936D01*
X122373481Y-84526222D01*
X122389167Y-84517482D01*
X122404690Y-84507717D01*
X122420049Y-84496925D01*
X122435244Y-84485108D01*
X122450275Y-84472264D01*
X122465143Y-84458395D01*
X122762338Y-84169470D01*
X122776930Y-84154688D01*
X122790411Y-84139802D01*
X122802783Y-84124812D01*
X122814044Y-84109717D01*
X122824196Y-84094519D01*
X122833237Y-84079216D01*
X122841169Y-84063810D01*
X122847991Y-84048299D01*
X122853702Y-84032684D01*
X122858304Y-84016965D01*
X122861796Y-84001142D01*
X122864178Y-83985214D01*
X122865449Y-83969182D01*
X122865611Y-83953046D01*
X122864662Y-83936806D01*
X122862604Y-83920462D01*
X122859994Y-83904494D01*
X122856693Y-83888673D01*
X122852700Y-83872997D01*
X122848017Y-83857468D01*
X122842642Y-83842084D01*
X122836576Y-83826846D01*
X122829819Y-83811754D01*
X122822370Y-83796808D01*
X122814230Y-83782008D01*
X122805399Y-83767354D01*
X122795877Y-83752846D01*
X122785663Y-83738484D01*
X122774758Y-83724267D01*
X122763161Y-83710197D01*
X122750873Y-83696272D01*
X122737894Y-83682493D01*
X122350778Y-83284292D01*
X122336561Y-83270144D01*
X122322315Y-83256912D01*
X122308039Y-83244596D01*
X122293734Y-83233198D01*
X122279399Y-83222716D01*
X122265034Y-83213150D01*
X122250640Y-83204502D01*
X122236217Y-83196770D01*
X122221764Y-83189954D01*
X122207281Y-83184056D01*
X122192769Y-83179073D01*
X122178227Y-83175008D01*
X122163656Y-83171859D01*
X122149055Y-83169627D01*
X122134425Y-83168312D01*
X122119765Y-83167914D01*
X122105076Y-83168432D01*
X122090356Y-83169866D01*
X122075608Y-83172218D01*
X122060830Y-83175486D01*
X122046022Y-83179671D01*
X122031184Y-83184772D01*
X122016317Y-83190791D01*
X122001421Y-83197726D01*
X121986494Y-83205577D01*
X121971539Y-83214346D01*
X121956553Y-83224031D01*
X121941538Y-83234633D01*
X121926493Y-83246151D01*
X121911419Y-83258587D01*
X121896315Y-83271939D01*
X121881181Y-83286207D01*
X121353166Y-83799566D01*
X120383861Y-83799566D01*
X121473512Y-82740194D01*
X121505922Y-82709870D01*
X121538951Y-82681311D01*
X121572600Y-82654517D01*
X121606869Y-82629487D01*
X121641758Y-82606223D01*
X121677267Y-82584724D01*
X121713395Y-82564989D01*
X121750144Y-82547020D01*
X121787512Y-82530816D01*
X121825500Y-82516377D01*
X121864108Y-82503703D01*
X121903336Y-82492794D01*
X121943184Y-82483650D01*
X121983652Y-82476272D01*
X122024739Y-82470658D01*
X122066446Y-82466810D01*
X122108116Y-82464931D01*
X122149087Y-82465220D01*
G37*
%TD.AperFunction*%
%TA.AperFunction,NonConductor*%
G36*
X126030428Y-86826010D02*
G01*
X122833727Y-89080153D01*
X122434854Y-88514486D01*
X125631548Y-86260344D01*
X126030428Y-86826010D01*
G37*
%TD.AperFunction*%
%TA.AperFunction,NonConductor*%
G36*
X93627883Y-125963796D02*
G01*
X93637376Y-125964355D01*
X93646883Y-125965381D01*
X93656402Y-125966874D01*
X93665934Y-125968835D01*
X93675479Y-125971263D01*
X93685037Y-125974157D01*
X94029260Y-126086805D01*
X94074796Y-126372175D01*
X94138757Y-126738729D01*
X94221143Y-127186465D01*
X94321954Y-127715384D01*
X94528322Y-128802317D01*
X94707407Y-129785040D01*
X95735033Y-126645048D01*
X96438761Y-126875364D01*
X94899187Y-131579611D01*
X94895864Y-131589022D01*
X94892141Y-131598137D01*
X94888017Y-131606956D01*
X94883493Y-131615480D01*
X94878569Y-131623707D01*
X94873245Y-131631639D01*
X94867521Y-131639276D01*
X94861397Y-131646616D01*
X94854874Y-131653661D01*
X94847950Y-131660410D01*
X94840626Y-131666863D01*
X94832903Y-131673020D01*
X94824780Y-131678882D01*
X94816257Y-131684448D01*
X94807335Y-131689718D01*
X94798013Y-131694693D01*
X94788493Y-131699271D01*
X94778971Y-131703351D01*
X94769445Y-131706934D01*
X94759917Y-131710019D01*
X94750385Y-131712608D01*
X94740852Y-131714699D01*
X94731316Y-131716292D01*
X94721777Y-131717388D01*
X94712235Y-131717987D01*
X94702692Y-131718089D01*
X94693145Y-131717693D01*
X94683597Y-131716801D01*
X94674046Y-131715411D01*
X94664493Y-131713523D01*
X94654937Y-131711139D01*
X94645380Y-131708258D01*
X94247614Y-131578085D01*
X94247655Y-131577051D01*
X94247504Y-131574894D01*
X94246626Y-131567210D01*
X94244979Y-131555033D01*
X94242563Y-131538363D01*
X94235421Y-131491542D01*
X94225199Y-131426748D01*
X94163202Y-131033880D01*
X94074854Y-130475706D01*
X94021570Y-130156572D01*
X93969522Y-129827253D01*
X93861536Y-129161001D01*
X93762827Y-128557058D01*
X93720756Y-128304033D01*
X93686502Y-128091704D01*
X93658569Y-127931194D01*
X93649267Y-127875492D01*
X93643076Y-127836157D01*
X92595438Y-131037329D01*
X91891702Y-130807028D01*
X93432489Y-126098974D01*
X93435813Y-126089562D01*
X93439537Y-126080446D01*
X93443661Y-126071626D01*
X93448185Y-126063102D01*
X93453108Y-126054875D01*
X93458431Y-126046943D01*
X93464155Y-126039307D01*
X93470278Y-126031966D01*
X93476800Y-126024922D01*
X93483723Y-126018173D01*
X93491045Y-126011721D01*
X93498768Y-126005564D01*
X93506890Y-125999702D01*
X93515412Y-125994137D01*
X93524333Y-125988867D01*
X93533655Y-125983893D01*
X93543020Y-125979782D01*
X93552397Y-125976137D01*
X93561788Y-125972960D01*
X93571192Y-125970250D01*
X93580608Y-125968007D01*
X93590037Y-125966230D01*
X93599479Y-125964921D01*
X93608934Y-125964079D01*
X93618402Y-125963704D01*
X93627883Y-125963796D01*
G37*
%TD.AperFunction*%
%TA.AperFunction,NonConductor*%
G36*
X90597513Y-124440901D02*
G01*
X90637246Y-124465072D01*
X90675557Y-124490563D01*
X90712448Y-124517373D01*
X90747917Y-124545501D01*
X90781964Y-124574949D01*
X90814591Y-124605716D01*
X90845796Y-124637802D01*
X90875580Y-124671208D01*
X90903942Y-124705932D01*
X90930883Y-124741975D01*
X90956402Y-124779338D01*
X90980500Y-124818020D01*
X91003177Y-124858020D01*
X91024432Y-124899340D01*
X91044265Y-124941979D01*
X91062677Y-124985937D01*
X91079530Y-125030643D01*
X91093812Y-125075017D01*
X91105521Y-125119060D01*
X91114659Y-125162773D01*
X91121225Y-125206154D01*
X91125220Y-125249205D01*
X91126643Y-125291924D01*
X91125494Y-125334313D01*
X91121773Y-125376370D01*
X91115481Y-125418097D01*
X91106617Y-125459492D01*
X91095181Y-125500557D01*
X91081174Y-125541290D01*
X91064595Y-125581693D01*
X91045444Y-125621764D01*
X91023721Y-125661505D01*
X89282404Y-128656996D01*
X89258613Y-128695549D01*
X89233246Y-128732059D01*
X89206304Y-128766525D01*
X89177785Y-128798947D01*
X89147690Y-128829327D01*
X89116019Y-128857662D01*
X89082772Y-128883954D01*
X89047949Y-128908203D01*
X89011549Y-128930409D01*
X88973574Y-128950571D01*
X88934023Y-128968690D01*
X88892895Y-128984766D01*
X88850192Y-128998799D01*
X88805912Y-129010789D01*
X88760057Y-129020735D01*
X88712625Y-129028639D01*
X88664662Y-129034575D01*
X88617212Y-129038628D01*
X88570276Y-129040798D01*
X88523852Y-129041084D01*
X88477941Y-129039487D01*
X88432544Y-129036006D01*
X88387660Y-129030642D01*
X88343288Y-129023395D01*
X88299430Y-129014264D01*
X88256085Y-129003249D01*
X88213252Y-128990351D01*
X88170933Y-128975569D01*
X88129126Y-128958903D01*
X88087833Y-128940354D01*
X88047052Y-128919921D01*
X88006784Y-128897604D01*
X86503824Y-128023916D01*
X86823374Y-127474226D01*
X88284586Y-128323645D01*
X88301458Y-128332999D01*
X88318155Y-128341342D01*
X88334676Y-128348674D01*
X88351021Y-128354994D01*
X88367191Y-128360302D01*
X88383184Y-128364599D01*
X88399002Y-128367884D01*
X88414644Y-128370158D01*
X88430110Y-128371421D01*
X88445400Y-128371673D01*
X88460514Y-128370913D01*
X88475452Y-128369143D01*
X88490213Y-128366361D01*
X88504799Y-128362568D01*
X88519208Y-128357764D01*
X88533441Y-128351950D01*
X88547431Y-128345335D01*
X88561106Y-128338138D01*
X88574465Y-128330357D01*
X88587509Y-128321993D01*
X88600237Y-128313046D01*
X88612650Y-128303516D01*
X88624748Y-128293402D01*
X88636530Y-128282705D01*
X88647996Y-128271425D01*
X88659147Y-128259562D01*
X88669983Y-128247115D01*
X88680504Y-128234085D01*
X88690709Y-128220471D01*
X88700598Y-128206275D01*
X88710172Y-128191494D01*
X88719431Y-128176130D01*
X89344370Y-127101095D01*
X87764871Y-126182913D01*
X88076334Y-125647131D01*
X89655832Y-126565313D01*
X90327280Y-125410254D01*
X90336049Y-125394605D01*
X90344156Y-125378972D01*
X90351599Y-125363353D01*
X90358379Y-125347749D01*
X90364496Y-125332159D01*
X90369951Y-125316584D01*
X90374742Y-125301023D01*
X90378870Y-125285477D01*
X90382335Y-125269945D01*
X90385137Y-125254428D01*
X90387276Y-125238925D01*
X90388752Y-125223437D01*
X90389565Y-125207963D01*
X90389714Y-125192503D01*
X90389201Y-125177058D01*
X90388025Y-125161627D01*
X90386037Y-125146380D01*
X90383083Y-125131480D01*
X90379163Y-125116928D01*
X90374277Y-125102723D01*
X90368425Y-125088866D01*
X90361607Y-125075356D01*
X90353822Y-125062194D01*
X90345072Y-125049379D01*
X90335354Y-125036913D01*
X90324671Y-125024793D01*
X90313021Y-125013022D01*
X90300405Y-125001598D01*
X90286822Y-124990522D01*
X90272273Y-124979793D01*
X90256757Y-124969412D01*
X90240274Y-124959379D01*
X88779062Y-124109953D01*
X89094553Y-123567213D01*
X90597513Y-124440901D01*
G37*
%TD.AperFunction*%
%TA.AperFunction,NonConductor*%
G36*
X98283945Y-74570221D02*
G01*
X98325208Y-74573816D01*
X98365681Y-74579492D01*
X98405364Y-74587250D01*
X98444257Y-74597090D01*
X98482360Y-74609012D01*
X98519673Y-74623016D01*
X98556196Y-74639102D01*
X98591930Y-74657269D01*
X98626873Y-74677519D01*
X98661027Y-74699851D01*
X98694391Y-74724264D01*
X98726586Y-74750396D01*
X98757227Y-74777881D01*
X98786315Y-74806718D01*
X98813849Y-74836907D01*
X98839829Y-74868449D01*
X98864256Y-74901343D01*
X98887129Y-74935589D01*
X98908448Y-74971188D01*
X98928214Y-75008139D01*
X98946426Y-75046442D01*
X98963084Y-75086098D01*
X98978189Y-75127106D01*
X98991740Y-75169467D01*
X99003738Y-75213180D01*
X99014182Y-75258245D01*
X99023073Y-75304663D01*
X98341013Y-75422209D01*
X98338871Y-75408508D01*
X98336238Y-75395338D01*
X98333115Y-75382699D01*
X98329501Y-75370591D01*
X98325396Y-75359015D01*
X98320801Y-75347970D01*
X98315715Y-75337456D01*
X98310139Y-75327474D01*
X98304072Y-75318022D01*
X98297514Y-75309102D01*
X98290466Y-75300713D01*
X98282927Y-75292855D01*
X98274898Y-75285529D01*
X98266378Y-75278734D01*
X98257367Y-75272470D01*
X98247865Y-75266737D01*
X98237873Y-75261536D01*
X98227391Y-75256866D01*
X98216417Y-75252727D01*
X98204953Y-75249119D01*
X98192998Y-75246043D01*
X98180553Y-75243497D01*
X98167616Y-75241484D01*
X98154189Y-75240001D01*
X98140272Y-75239050D01*
X98125863Y-75238630D01*
X98110964Y-75238741D01*
X98095574Y-75239384D01*
X98079694Y-75240558D01*
X98063323Y-75242263D01*
X98046461Y-75244499D01*
X98029108Y-75247267D01*
X97533388Y-75332701D01*
X97512556Y-75337005D01*
X97492605Y-75342073D01*
X97473535Y-75347908D01*
X97455348Y-75354507D01*
X97438042Y-75361872D01*
X97421617Y-75370002D01*
X97406074Y-75378898D01*
X97391413Y-75388558D01*
X97377633Y-75398984D01*
X97364734Y-75410176D01*
X97352718Y-75422132D01*
X97341582Y-75434854D01*
X97331329Y-75448341D01*
X97321957Y-75462594D01*
X97313466Y-75477612D01*
X97305857Y-75493395D01*
X97299130Y-75509943D01*
X97293284Y-75527257D01*
X97288320Y-75545336D01*
X97284238Y-75564181D01*
X97281037Y-75583791D01*
X97278717Y-75604166D01*
X97277279Y-75625307D01*
X97276723Y-75647212D01*
X97277048Y-75669884D01*
X97278255Y-75693320D01*
X97280344Y-75717522D01*
X97283314Y-75742489D01*
X97287166Y-75768222D01*
X97291899Y-75794720D01*
X97297514Y-75821983D01*
X97304010Y-75850012D01*
X97317470Y-75907412D01*
X97329421Y-75962013D01*
X97339863Y-76013813D01*
X97348795Y-76062811D01*
X97352242Y-76081059D01*
X97356178Y-76098625D01*
X97360602Y-76115509D01*
X97365515Y-76131710D01*
X97370916Y-76147229D01*
X97376806Y-76162066D01*
X97383185Y-76176220D01*
X97390052Y-76189692D01*
X97397408Y-76202481D01*
X97405252Y-76214588D01*
X97413585Y-76226013D01*
X97422407Y-76236755D01*
X97431717Y-76246816D01*
X97441515Y-76256193D01*
X97451803Y-76264889D01*
X97462579Y-76272902D01*
X97473843Y-76280232D01*
X97485596Y-76286881D01*
X97497838Y-76292847D01*
X97510568Y-76298130D01*
X97523787Y-76302731D01*
X97537494Y-76306650D01*
X97551690Y-76309887D01*
X97566374Y-76312441D01*
X97581548Y-76314313D01*
X97597209Y-76315502D01*
X97613360Y-76316009D01*
X97629999Y-76315834D01*
X97647126Y-76314977D01*
X97664742Y-76313437D01*
X97682847Y-76311214D01*
X97701441Y-76308310D01*
X98395456Y-76188765D01*
X98439701Y-76182166D01*
X98483203Y-76177737D01*
X98525962Y-76175477D01*
X98567978Y-76175386D01*
X98609252Y-76177465D01*
X98649783Y-76181713D01*
X98689571Y-76188130D01*
X98728616Y-76196716D01*
X98766918Y-76207472D01*
X98804477Y-76220397D01*
X98841293Y-76235491D01*
X98877366Y-76252754D01*
X98912697Y-76272186D01*
X98947284Y-76293787D01*
X98981129Y-76317557D01*
X99014230Y-76343496D01*
X99046658Y-76370976D01*
X99077483Y-76399528D01*
X99106706Y-76429155D01*
X99134328Y-76459855D01*
X99160348Y-76491629D01*
X99184766Y-76524477D01*
X99207583Y-76558398D01*
X99228798Y-76593393D01*
X99248411Y-76629462D01*
X99266423Y-76666604D01*
X99282833Y-76704820D01*
X99297641Y-76744109D01*
X99310848Y-76784472D01*
X99322454Y-76825908D01*
X99332458Y-76868418D01*
X99340860Y-76912001D01*
X99432420Y-77443411D01*
X99439279Y-77488773D01*
X99444141Y-77533651D01*
X99447004Y-77578044D01*
X99447870Y-77621952D01*
X99446738Y-77665375D01*
X99443608Y-77708313D01*
X99438481Y-77750766D01*
X99431355Y-77792734D01*
X99422232Y-77834217D01*
X99411111Y-77875214D01*
X99397992Y-77915725D01*
X99382876Y-77955752D01*
X99365761Y-77995292D01*
X99346649Y-78034347D01*
X99325539Y-78072915D01*
X99302431Y-78110998D01*
X99277586Y-78147419D01*
X99251433Y-78181992D01*
X99223973Y-78214717D01*
X99195206Y-78245594D01*
X99165131Y-78274623D01*
X99133748Y-78301804D01*
X99101058Y-78327137D01*
X99067061Y-78350621D01*
X99031757Y-78372257D01*
X98995145Y-78392045D01*
X98957225Y-78409984D01*
X98917998Y-78426075D01*
X98877464Y-78440317D01*
X98835623Y-78452711D01*
X98792474Y-78463256D01*
X98748018Y-78471953D01*
X97875559Y-78622328D01*
X97827476Y-78629611D01*
X97780390Y-78634713D01*
X97734299Y-78637632D01*
X97689205Y-78638370D01*
X97645106Y-78636925D01*
X97602003Y-78633299D01*
X97559896Y-78627491D01*
X97518784Y-78619500D01*
X97478669Y-78609328D01*
X97439550Y-78596974D01*
X97401426Y-78582438D01*
X97364298Y-78565719D01*
X97328167Y-78546819D01*
X97293031Y-78525737D01*
X97258892Y-78502472D01*
X97225748Y-78477026D01*
X97193381Y-78449887D01*
X97162563Y-78421365D01*
X97133292Y-78391459D01*
X97105569Y-78360169D01*
X97079395Y-78327497D01*
X97054769Y-78293440D01*
X97031690Y-78258001D01*
X97010160Y-78221178D01*
X96990178Y-78182972D01*
X96971745Y-78143383D01*
X96954859Y-78102410D01*
X96939522Y-78060054D01*
X96925733Y-78016315D01*
X96913492Y-77971193D01*
X96902800Y-77924687D01*
X96893656Y-77876799D01*
X97575754Y-77759237D01*
X97578026Y-77776394D01*
X97580841Y-77792818D01*
X97584200Y-77808510D01*
X97588102Y-77823470D01*
X97592548Y-77837699D01*
X97597538Y-77851195D01*
X97603072Y-77863959D01*
X97609149Y-77875992D01*
X97615770Y-77887293D01*
X97622934Y-77897861D01*
X97630642Y-77907698D01*
X97638894Y-77916803D01*
X97647690Y-77925177D01*
X97657029Y-77932818D01*
X97666912Y-77939728D01*
X97677339Y-77945906D01*
X97688599Y-77950891D01*
X97700155Y-77955378D01*
X97712008Y-77959366D01*
X97724158Y-77962856D01*
X97736606Y-77965848D01*
X97749350Y-77968341D01*
X97762391Y-77970336D01*
X97775729Y-77971833D01*
X97789364Y-77972832D01*
X97803296Y-77973332D01*
X97817525Y-77973334D01*
X97832050Y-77972838D01*
X97846873Y-77971844D01*
X97861992Y-77970352D01*
X97877408Y-77968361D01*
X97893121Y-77965872D01*
X98468149Y-77866743D01*
X98486642Y-77863257D01*
X98504445Y-77859291D01*
X98521561Y-77854846D01*
X98537987Y-77849922D01*
X98553725Y-77844518D01*
X98568774Y-77838635D01*
X98583134Y-77832272D01*
X98596806Y-77825430D01*
X98609789Y-77818108D01*
X98622083Y-77810307D01*
X98633689Y-77802027D01*
X98644605Y-77793267D01*
X98654833Y-77784028D01*
X98664373Y-77774309D01*
X98673223Y-77764111D01*
X98681385Y-77753433D01*
X98688858Y-77742276D01*
X98695642Y-77730640D01*
X98701738Y-77718524D01*
X98707144Y-77705929D01*
X98711862Y-77692854D01*
X98715892Y-77679299D01*
X98719232Y-77665266D01*
X98721884Y-77650752D01*
X98723847Y-77635760D01*
X98725121Y-77620288D01*
X98725706Y-77604336D01*
X98725603Y-77587905D01*
X98724811Y-77570994D01*
X98723330Y-77553604D01*
X98721160Y-77535735D01*
X98718302Y-77517386D01*
X98649973Y-77120810D01*
X98646399Y-77101830D01*
X98642340Y-77083555D01*
X98637797Y-77065987D01*
X98632770Y-77049123D01*
X98627258Y-77032965D01*
X98621262Y-77017513D01*
X98614781Y-77002766D01*
X98607815Y-76988725D01*
X98600365Y-76975390D01*
X98592431Y-76962759D01*
X98584012Y-76950835D01*
X98575108Y-76939616D01*
X98565720Y-76929102D01*
X98555847Y-76919295D01*
X98545490Y-76910192D01*
X98534649Y-76901796D01*
X98523322Y-76894104D01*
X98511512Y-76887119D01*
X98499216Y-76880839D01*
X98486436Y-76875264D01*
X98473172Y-76870396D01*
X98459423Y-76866232D01*
X98445190Y-76862775D01*
X98430471Y-76860023D01*
X98415269Y-76857976D01*
X98399582Y-76856636D01*
X98383410Y-76856000D01*
X98366753Y-76856071D01*
X98349612Y-76856847D01*
X98331987Y-76858329D01*
X98313877Y-76860516D01*
X98295282Y-76863409D01*
X97640909Y-76976111D01*
X97596127Y-76982916D01*
X97552001Y-76987789D01*
X97508531Y-76990732D01*
X97465718Y-76991743D01*
X97423560Y-76990823D01*
X97382058Y-76987972D01*
X97341213Y-76983190D01*
X97301023Y-76976477D01*
X97261490Y-76967832D01*
X97222613Y-76957256D01*
X97184393Y-76944749D01*
X97146829Y-76930311D01*
X97109921Y-76913942D01*
X97073670Y-76895641D01*
X97038075Y-76875410D01*
X97003137Y-76853247D01*
X96969366Y-76829441D01*
X96937278Y-76804294D01*
X96906872Y-76777804D01*
X96878149Y-76749972D01*
X96851110Y-76720797D01*
X96825753Y-76690280D01*
X96802078Y-76658421D01*
X96780087Y-76625219D01*
X96759779Y-76590674D01*
X96741154Y-76554786D01*
X96724211Y-76517556D01*
X96708952Y-76478983D01*
X96695375Y-76439067D01*
X96683481Y-76397809D01*
X96673271Y-76355207D01*
X96664743Y-76311262D01*
X96564974Y-75732260D01*
X96558223Y-75687897D01*
X96553346Y-75644041D01*
X96550344Y-75600692D01*
X96549215Y-75557850D01*
X96549960Y-75515515D01*
X96552579Y-75473687D01*
X96557072Y-75432365D01*
X96563438Y-75391550D01*
X96571679Y-75351242D01*
X96581793Y-75311441D01*
X96593781Y-75272146D01*
X96607642Y-75233358D01*
X96623377Y-75195077D01*
X96640986Y-75157302D01*
X96660469Y-75120034D01*
X96681825Y-75083273D01*
X96704802Y-75047666D01*
X96729142Y-75013865D01*
X96754847Y-74981872D01*
X96781916Y-74951686D01*
X96810348Y-74923306D01*
X96840145Y-74896734D01*
X96871306Y-74871968D01*
X96903830Y-74849010D01*
X96937719Y-74827858D01*
X96972972Y-74808513D01*
X97009589Y-74790974D01*
X97047570Y-74775243D01*
X97086916Y-74761318D01*
X97127625Y-74749200D01*
X97169699Y-74738888D01*
X97213136Y-74730383D01*
X98065782Y-74583479D01*
X98110995Y-74576664D01*
X98155417Y-74571930D01*
X98199050Y-74569279D01*
X98241893Y-74568709D01*
X98283945Y-74570221D01*
G37*
%TD.AperFunction*%
%TA.AperFunction,NonConductor*%
G36*
X127140824Y-89648563D02*
G01*
X127192719Y-89653320D01*
X127244099Y-89660955D01*
X127294964Y-89671469D01*
X127345315Y-89684861D01*
X127395151Y-89701132D01*
X127444717Y-89720318D01*
X127492915Y-89741997D01*
X127539743Y-89766167D01*
X127585203Y-89792830D01*
X127629293Y-89821986D01*
X127672014Y-89853633D01*
X127713366Y-89887773D01*
X127753348Y-89924404D01*
X127791961Y-89963528D01*
X127829205Y-90005144D01*
X127865080Y-90049252D01*
X127899585Y-90095852D01*
X127932721Y-90144944D01*
X127964488Y-90196529D01*
X127994885Y-90250605D01*
X128023912Y-90307173D01*
X128147951Y-90560248D01*
X128164898Y-90596494D01*
X128180311Y-90632968D01*
X128194190Y-90669669D01*
X128206534Y-90706596D01*
X128217344Y-90743751D01*
X128226620Y-90781132D01*
X128234362Y-90818741D01*
X128240569Y-90856576D01*
X128245241Y-90894639D01*
X128248380Y-90932928D01*
X128249983Y-90971445D01*
X128250052Y-91010188D01*
X128248586Y-91049159D01*
X128245585Y-91088356D01*
X128241050Y-91127781D01*
X128234979Y-91167433D01*
X128404810Y-91084211D01*
X128682932Y-91651495D01*
X124500452Y-93706442D01*
X124457889Y-93726471D01*
X124415114Y-93744923D01*
X124372127Y-93761798D01*
X124328926Y-93777098D01*
X124285513Y-93790820D01*
X124241888Y-93802967D01*
X124198049Y-93813537D01*
X124153998Y-93822530D01*
X124109734Y-93829947D01*
X124065258Y-93835787D01*
X124020569Y-93840051D01*
X123975667Y-93842738D01*
X123930552Y-93843849D01*
X123885225Y-93843383D01*
X123839685Y-93841340D01*
X123793932Y-93837721D01*
X123749321Y-93831965D01*
X123706302Y-93823958D01*
X123664877Y-93813699D01*
X123625044Y-93801190D01*
X123586803Y-93786429D01*
X123550154Y-93769417D01*
X123515099Y-93750154D01*
X123481635Y-93728640D01*
X123449763Y-93704874D01*
X123419484Y-93678857D01*
X123390797Y-93650589D01*
X123363702Y-93620069D01*
X123338199Y-93587298D01*
X123314288Y-93552276D01*
X123291969Y-93515002D01*
X123271242Y-93475477D01*
X122881525Y-92680540D01*
X122866557Y-92648366D01*
X122853094Y-92615978D01*
X122841139Y-92583378D01*
X122830689Y-92550564D01*
X122821745Y-92517537D01*
X122814308Y-92484297D01*
X122808376Y-92450844D01*
X122803951Y-92417177D01*
X122801032Y-92383298D01*
X122799619Y-92349205D01*
X122799712Y-92314899D01*
X122801312Y-92280380D01*
X122804417Y-92245648D01*
X122809029Y-92210703D01*
X122815147Y-92175545D01*
X122822771Y-92140173D01*
X122831647Y-92104886D01*
X122841960Y-92070889D01*
X122853712Y-92038184D01*
X122866902Y-92006770D01*
X122881530Y-91976647D01*
X122897596Y-91947815D01*
X122915100Y-91920274D01*
X122934042Y-91894024D01*
X122954422Y-91869065D01*
X122976240Y-91845396D01*
X122999496Y-91823018D01*
X123024190Y-91801931D01*
X123050322Y-91782135D01*
X123077892Y-91763629D01*
X123106900Y-91746414D01*
X123137346Y-91730490D01*
X123368585Y-91617087D01*
X123637842Y-92166319D01*
X123623474Y-92173181D01*
X123609721Y-92180514D01*
X123596582Y-92188315D01*
X123584059Y-92196587D01*
X123572151Y-92205328D01*
X123560858Y-92214539D01*
X123550181Y-92224219D01*
X123540118Y-92234369D01*
X123530671Y-92244989D01*
X123521838Y-92256078D01*
X123513622Y-92267637D01*
X123506020Y-92279665D01*
X123499034Y-92292162D01*
X123492663Y-92305130D01*
X123486907Y-92318566D01*
X123481767Y-92332472D01*
X123477520Y-92347055D01*
X123474003Y-92361629D01*
X123471218Y-92376195D01*
X123469163Y-92390753D01*
X123467840Y-92405302D01*
X123467248Y-92419843D01*
X123467388Y-92434375D01*
X123468259Y-92448899D01*
X123469861Y-92463415D01*
X123472194Y-92477923D01*
X123475258Y-92492422D01*
X123479054Y-92506913D01*
X123483581Y-92521396D01*
X123488840Y-92535870D01*
X123494829Y-92550337D01*
X123501550Y-92564795D01*
X123659204Y-92886381D01*
X123674371Y-92914712D01*
X123690184Y-92941431D01*
X123706642Y-92966538D01*
X123723746Y-92990033D01*
X123741495Y-93011916D01*
X123759889Y-93032188D01*
X123778928Y-93050847D01*
X123798613Y-93067895D01*
X123818943Y-93083331D01*
X123839919Y-93097155D01*
X123861539Y-93109366D01*
X123883805Y-93119966D01*
X123906716Y-93128954D01*
X123930272Y-93136330D01*
X123954472Y-93142094D01*
X123979318Y-93146246D01*
X123987864Y-93147460D01*
X123996426Y-93148279D01*
X124005005Y-93148704D01*
X124013601Y-93148735D01*
X124022213Y-93148372D01*
X124030843Y-93147614D01*
X124039489Y-93146463D01*
X124048152Y-93144917D01*
X124056832Y-93142976D01*
X124065528Y-93140642D01*
X124074242Y-93137913D01*
X124082973Y-93134790D01*
X124091721Y-93131272D01*
X124100486Y-93127360D01*
X124109267Y-93123054D01*
X124118067Y-93118353D01*
X125046701Y-92663099D01*
X125010590Y-92643688D01*
X124976195Y-92624276D01*
X124943515Y-92604864D01*
X124912551Y-92585450D01*
X124883302Y-92566035D01*
X124855768Y-92546620D01*
X124829950Y-92527204D01*
X124805848Y-92507787D01*
X124783461Y-92488369D01*
X124762789Y-92468950D01*
X124743833Y-92449531D01*
X124726592Y-92430111D01*
X124711067Y-92410690D01*
X124697257Y-92391268D01*
X124685163Y-92371846D01*
X124674783Y-92352423D01*
X124479929Y-91954962D01*
X124452514Y-91896186D01*
X124428285Y-91838195D01*
X124407241Y-91780988D01*
X124389384Y-91724564D01*
X124374712Y-91668925D01*
X124363226Y-91614069D01*
X124359840Y-91592007D01*
X125013332Y-91592007D01*
X125015270Y-91621956D01*
X125019328Y-91652232D01*
X125025507Y-91682832D01*
X125033807Y-91713759D01*
X125044227Y-91745011D01*
X125056767Y-91776589D01*
X125071428Y-91808493D01*
X125223772Y-92119246D01*
X125227115Y-92125760D01*
X125230722Y-92132207D01*
X125234593Y-92138585D01*
X125238729Y-92144895D01*
X125247792Y-92157311D01*
X125257912Y-92169454D01*
X125269089Y-92181324D01*
X125281323Y-92192921D01*
X125294613Y-92204245D01*
X125308961Y-92215297D01*
X125324365Y-92226076D01*
X125340825Y-92236582D01*
X125358342Y-92246815D01*
X125376916Y-92256775D01*
X125396547Y-92266463D01*
X125417234Y-92275878D01*
X125438978Y-92285020D01*
X125461778Y-92293890D01*
X125485452Y-92302362D01*
X125508472Y-92309859D01*
X125530839Y-92316381D01*
X125552553Y-92321928D01*
X125573614Y-92326500D01*
X125594022Y-92330097D01*
X125613777Y-92332719D01*
X125632879Y-92334366D01*
X125651328Y-92335038D01*
X125669124Y-92334735D01*
X125686267Y-92333456D01*
X125702757Y-92331203D01*
X125718593Y-92327974D01*
X125733777Y-92323770D01*
X125748308Y-92318591D01*
X125762186Y-92312437D01*
X125762178Y-92312491D01*
X127579691Y-91421461D01*
X127589765Y-91415943D01*
X127599431Y-91410022D01*
X127608689Y-91403696D01*
X127617539Y-91396965D01*
X127625980Y-91389831D01*
X127634014Y-91382293D01*
X127641640Y-91374351D01*
X127648857Y-91366004D01*
X127655666Y-91357254D01*
X127662067Y-91348099D01*
X127668060Y-91338540D01*
X127673645Y-91328578D01*
X127678821Y-91318211D01*
X127683590Y-91307440D01*
X127687950Y-91296265D01*
X127691902Y-91284685D01*
X127695446Y-91272702D01*
X127698581Y-91260314D01*
X127701309Y-91247523D01*
X127703628Y-91234327D01*
X127705539Y-91220727D01*
X127707042Y-91206723D01*
X127708137Y-91192315D01*
X127708823Y-91177503D01*
X127709101Y-91162286D01*
X127708971Y-91146665D01*
X127708433Y-91130641D01*
X127707486Y-91114212D01*
X127706131Y-91097379D01*
X127704368Y-91080142D01*
X127699617Y-91044455D01*
X127696870Y-91025978D01*
X127693722Y-91008400D01*
X127690173Y-90991721D01*
X127686223Y-90975940D01*
X127681872Y-90961058D01*
X127677120Y-90947074D01*
X127671967Y-90933990D01*
X127669241Y-90927785D01*
X127666414Y-90921805D01*
X127514063Y-90611059D01*
X127502497Y-90588271D01*
X127490608Y-90566429D01*
X127478395Y-90545534D01*
X127465859Y-90525586D01*
X127452998Y-90506584D01*
X127439814Y-90488528D01*
X127426306Y-90471419D01*
X127412474Y-90455257D01*
X127398318Y-90440041D01*
X127383839Y-90425772D01*
X127369035Y-90412449D01*
X127353908Y-90400073D01*
X127338457Y-90388644D01*
X127322683Y-90378161D01*
X127306584Y-90368625D01*
X127290162Y-90360035D01*
X127273416Y-90352392D01*
X127256346Y-90345696D01*
X127238953Y-90339946D01*
X127221235Y-90335142D01*
X127203194Y-90331286D01*
X127184830Y-90328376D01*
X127166141Y-90326412D01*
X127147129Y-90325395D01*
X127127793Y-90325325D01*
X127108133Y-90326202D01*
X127088150Y-90328025D01*
X127067843Y-90330794D01*
X127047212Y-90334511D01*
X127026257Y-90339174D01*
X127004979Y-90344783D01*
X126983377Y-90351339D01*
X126956114Y-90360622D01*
X126928385Y-90370657D01*
X126900192Y-90381444D01*
X126871534Y-90392984D01*
X126842411Y-90405275D01*
X126812823Y-90418319D01*
X126782770Y-90432114D01*
X126752252Y-90446661D01*
X125440607Y-91089697D01*
X125375868Y-91122627D01*
X125345757Y-91138878D01*
X125317151Y-91154986D01*
X125290051Y-91170950D01*
X125264456Y-91186772D01*
X125240367Y-91202450D01*
X125217783Y-91217985D01*
X125196705Y-91233378D01*
X125177132Y-91248627D01*
X125159065Y-91263733D01*
X125142504Y-91278696D01*
X125127449Y-91293516D01*
X125113899Y-91308193D01*
X125101856Y-91322727D01*
X125091318Y-91337118D01*
X125074171Y-91364136D01*
X125059144Y-91391480D01*
X125046238Y-91419149D01*
X125035452Y-91447145D01*
X125026787Y-91475465D01*
X125020243Y-91504112D01*
X125015819Y-91533085D01*
X125013515Y-91562383D01*
X125013332Y-91592007D01*
X124359840Y-91592007D01*
X124354926Y-91559998D01*
X124349811Y-91506711D01*
X124347882Y-91454208D01*
X124349139Y-91402490D01*
X124353580Y-91351555D01*
X124361208Y-91301405D01*
X124372020Y-91252039D01*
X124386018Y-91203458D01*
X124403202Y-91155661D01*
X124423570Y-91108648D01*
X124446766Y-91062542D01*
X124472428Y-91017468D01*
X124500557Y-90973426D01*
X124531152Y-90930415D01*
X124564214Y-90888436D01*
X124599741Y-90847489D01*
X124637736Y-90807574D01*
X124678197Y-90768690D01*
X124721124Y-90730838D01*
X124766518Y-90694018D01*
X124814378Y-90658230D01*
X124864705Y-90623473D01*
X124917498Y-90589748D01*
X124972758Y-90557055D01*
X125030484Y-90525394D01*
X125090677Y-90494764D01*
X126536012Y-89786200D01*
X126593569Y-89759296D01*
X126650611Y-89735271D01*
X126707138Y-89714123D01*
X126763151Y-89695854D01*
X126818648Y-89680464D01*
X126873631Y-89667951D01*
X126928099Y-89658317D01*
X126982053Y-89651561D01*
X127035491Y-89647683D01*
X127088415Y-89646684D01*
X127140824Y-89648563D01*
G37*
%TD.AperFunction*%
%TA.AperFunction,NonConductor*%
G36*
X83713098Y-81552015D02*
G01*
X84123026Y-81177389D01*
X84532953Y-81625952D01*
X84123010Y-82000570D01*
X85716562Y-83744345D01*
X85729154Y-83757657D01*
X85741817Y-83770115D01*
X85754552Y-83781720D01*
X85767359Y-83792472D01*
X85780237Y-83802370D01*
X85793188Y-83811414D01*
X85806210Y-83819605D01*
X85819304Y-83826943D01*
X85832470Y-83833427D01*
X85845708Y-83839057D01*
X85859017Y-83843834D01*
X85872398Y-83847758D01*
X85885851Y-83850828D01*
X85899376Y-83853045D01*
X85912973Y-83854408D01*
X85926641Y-83854918D01*
X85940381Y-83854574D01*
X85954193Y-83853377D01*
X85968077Y-83851326D01*
X85982033Y-83848422D01*
X85996060Y-83844664D01*
X86010159Y-83840053D01*
X86024330Y-83834588D01*
X86038573Y-83828270D01*
X86052888Y-83821098D01*
X86067274Y-83813073D01*
X86081732Y-83804195D01*
X86096262Y-83794463D01*
X86110864Y-83783877D01*
X86125537Y-83772438D01*
X86140283Y-83760146D01*
X86155100Y-83747000D01*
X86169707Y-83733203D01*
X86183451Y-83719300D01*
X86196332Y-83705292D01*
X86208350Y-83691178D01*
X86219505Y-83676959D01*
X86229797Y-83662635D01*
X86239226Y-83648204D01*
X86247791Y-83633669D01*
X86255493Y-83619027D01*
X86262333Y-83604280D01*
X86268309Y-83589428D01*
X86273422Y-83574470D01*
X86277671Y-83559406D01*
X86281058Y-83544237D01*
X86283581Y-83528963D01*
X86285242Y-83513582D01*
X86286039Y-83498096D01*
X86285973Y-83482505D01*
X86285044Y-83466808D01*
X86283252Y-83451005D01*
X86280597Y-83435097D01*
X86277078Y-83419083D01*
X86272697Y-83402964D01*
X86267452Y-83386738D01*
X86261344Y-83370408D01*
X86254373Y-83353971D01*
X86246539Y-83337429D01*
X86237842Y-83320781D01*
X86228281Y-83304028D01*
X86217858Y-83287169D01*
X86206571Y-83270204D01*
X86194422Y-83253134D01*
X86304331Y-83152693D01*
X86795694Y-83690374D01*
X86790657Y-83734588D01*
X86783837Y-83777875D01*
X86775233Y-83820236D01*
X86764846Y-83861671D01*
X86752676Y-83902181D01*
X86738723Y-83941764D01*
X86722987Y-83980422D01*
X86705467Y-84018153D01*
X86686164Y-84054959D01*
X86665078Y-84090839D01*
X86642208Y-84125794D01*
X86617555Y-84159822D01*
X86591118Y-84192925D01*
X86562898Y-84225102D01*
X86532895Y-84256354D01*
X86501108Y-84286680D01*
X86439835Y-84340033D01*
X86378555Y-84388112D01*
X86317268Y-84430916D01*
X86255973Y-84468446D01*
X86194670Y-84500701D01*
X86133361Y-84527682D01*
X86072044Y-84549388D01*
X86010719Y-84565820D01*
X85949387Y-84576977D01*
X85918719Y-84580578D01*
X85888048Y-84582861D01*
X85857376Y-84583824D01*
X85826702Y-84583470D01*
X85796026Y-84581796D01*
X85765348Y-84578804D01*
X85703987Y-84568864D01*
X85642619Y-84553650D01*
X85581244Y-84533162D01*
X85519861Y-84507399D01*
X85500012Y-84497959D01*
X85480240Y-84487811D01*
X85460544Y-84476955D01*
X85440925Y-84465390D01*
X85421383Y-84453117D01*
X85401917Y-84440135D01*
X85382527Y-84426444D01*
X85363214Y-84412045D01*
X85343978Y-84396937D01*
X85324818Y-84381120D01*
X85305735Y-84364595D01*
X85286728Y-84347361D01*
X85267797Y-84329418D01*
X85248944Y-84310767D01*
X85230166Y-84291407D01*
X85211466Y-84271338D01*
X83585336Y-82491942D01*
X83368479Y-82690115D01*
X82958566Y-82241552D01*
X83175409Y-82043379D01*
X82656900Y-81475996D01*
X83194574Y-80984633D01*
X83713098Y-81552015D01*
G37*
%TD.AperFunction*%
%TA.AperFunction,NonConductor*%
G36*
X113947670Y-76736423D02*
G01*
X113987005Y-76740481D01*
X114026450Y-76746814D01*
X114066005Y-76755423D01*
X114105670Y-76766307D01*
X114145446Y-76779467D01*
X114185332Y-76794902D01*
X114225328Y-76812613D01*
X115150156Y-77247908D01*
X115189695Y-77267698D01*
X115227300Y-77288942D01*
X115262971Y-77311637D01*
X115296707Y-77335785D01*
X115328509Y-77361386D01*
X115358377Y-77388439D01*
X115386310Y-77416944D01*
X115412308Y-77446902D01*
X115436373Y-77478313D01*
X115458502Y-77511175D01*
X115478697Y-77545491D01*
X115496958Y-77581258D01*
X115513284Y-77618478D01*
X115527675Y-77657150D01*
X115540131Y-77697275D01*
X115550653Y-77738852D01*
X115559304Y-77781126D01*
X115566139Y-77823345D01*
X115571157Y-77865509D01*
X115574360Y-77907617D01*
X115575746Y-77949671D01*
X115575317Y-77991669D01*
X115573072Y-78033612D01*
X115569010Y-78075500D01*
X115563133Y-78117332D01*
X115555440Y-78159109D01*
X115545931Y-78200830D01*
X115534606Y-78242496D01*
X115521465Y-78284107D01*
X115506508Y-78325662D01*
X115489736Y-78367162D01*
X115471147Y-78408606D01*
X115248354Y-78881941D01*
X115228972Y-78921309D01*
X115208531Y-78959309D01*
X115187031Y-78995943D01*
X115164472Y-79031209D01*
X115140855Y-79065108D01*
X115116178Y-79097640D01*
X115090443Y-79128805D01*
X115063648Y-79158602D01*
X115035794Y-79187032D01*
X115006881Y-79214095D01*
X114976909Y-79239791D01*
X114945878Y-79264119D01*
X114913787Y-79287081D01*
X114880637Y-79308675D01*
X114846428Y-79328902D01*
X114811159Y-79347761D01*
X114775452Y-79364348D01*
X114739494Y-79378661D01*
X114703285Y-79390703D01*
X114666825Y-79400471D01*
X114630114Y-79407967D01*
X114593151Y-79413191D01*
X114555938Y-79416141D01*
X114518473Y-79416820D01*
X114480758Y-79415225D01*
X114442792Y-79411358D01*
X114404574Y-79405218D01*
X114366106Y-79396806D01*
X114327387Y-79386121D01*
X114288418Y-79373163D01*
X114249197Y-79357933D01*
X114209726Y-79340429D01*
X113146539Y-78840017D01*
X112836351Y-79499060D01*
X112820901Y-79534875D01*
X112814442Y-79552336D01*
X112808826Y-79569499D01*
X112804055Y-79586364D01*
X112800127Y-79602931D01*
X112797043Y-79619200D01*
X112794802Y-79635172D01*
X112793406Y-79650846D01*
X112792853Y-79666222D01*
X112793144Y-79681300D01*
X112794279Y-79696080D01*
X112796258Y-79710562D01*
X112799080Y-79724747D01*
X112802746Y-79738634D01*
X112807256Y-79752223D01*
X112812610Y-79765514D01*
X112818808Y-79778508D01*
X112825850Y-79791204D01*
X112833735Y-79803602D01*
X112842465Y-79815702D01*
X112852038Y-79827504D01*
X112862455Y-79839009D01*
X112873715Y-79850216D01*
X112885820Y-79861125D01*
X112898769Y-79871736D01*
X112912561Y-79882050D01*
X112927197Y-79892066D01*
X112942677Y-79901784D01*
X112959001Y-79911204D01*
X112994180Y-79929152D01*
X113547617Y-80189650D01*
X113563020Y-80196573D01*
X113578280Y-80202768D01*
X113593395Y-80208235D01*
X113608367Y-80212974D01*
X113623195Y-80216984D01*
X113637879Y-80220267D01*
X113652419Y-80222822D01*
X113666816Y-80224648D01*
X113681068Y-80225745D01*
X113695176Y-80226115D01*
X113709139Y-80225756D01*
X113722959Y-80224669D01*
X113736635Y-80222853D01*
X113750166Y-80220308D01*
X113763553Y-80217035D01*
X113776796Y-80213034D01*
X113790412Y-80208016D01*
X113803605Y-80202284D01*
X113816375Y-80195838D01*
X113828722Y-80188678D01*
X113840646Y-80180803D01*
X113852146Y-80172215D01*
X113863224Y-80162912D01*
X113873878Y-80152895D01*
X113884109Y-80142164D01*
X113893917Y-80130719D01*
X113903302Y-80118559D01*
X113912263Y-80105685D01*
X113920800Y-80092097D01*
X113928914Y-80077795D01*
X113936605Y-80062779D01*
X113943872Y-80047049D01*
X114570123Y-80341787D01*
X114535476Y-80407761D01*
X114498956Y-80469518D01*
X114460564Y-80527059D01*
X114420300Y-80580382D01*
X114378164Y-80629489D01*
X114334155Y-80674378D01*
X114311449Y-80695241D01*
X114288274Y-80715051D01*
X114264632Y-80733805D01*
X114240521Y-80751506D01*
X114215943Y-80768152D01*
X114190896Y-80783744D01*
X114165381Y-80798282D01*
X114139398Y-80811766D01*
X114112947Y-80824195D01*
X114086028Y-80835570D01*
X114058641Y-80845891D01*
X114030786Y-80855157D01*
X114002463Y-80863369D01*
X113973671Y-80870527D01*
X113944412Y-80876630D01*
X113914684Y-80881679D01*
X113884489Y-80885674D01*
X113853825Y-80888615D01*
X113791094Y-80891333D01*
X113769906Y-80891057D01*
X113748647Y-80890122D01*
X113727316Y-80888528D01*
X113705914Y-80886273D01*
X113684439Y-80883359D01*
X113662893Y-80879786D01*
X113641275Y-80875553D01*
X113619585Y-80870661D01*
X113597823Y-80865109D01*
X113575989Y-80858898D01*
X113554084Y-80852027D01*
X113532106Y-80844497D01*
X113510056Y-80836308D01*
X113487935Y-80827459D01*
X113465741Y-80817951D01*
X113443475Y-80807783D01*
X112580545Y-80401625D01*
X112540907Y-80381856D01*
X112503007Y-80360682D01*
X112466847Y-80338103D01*
X112432425Y-80314118D01*
X112399743Y-80288727D01*
X112368799Y-80261931D01*
X112339593Y-80233730D01*
X112312127Y-80204124D01*
X112286399Y-80173112D01*
X112262410Y-80140694D01*
X112240159Y-80106871D01*
X112219648Y-80071643D01*
X112200874Y-80035010D01*
X112183839Y-79996971D01*
X112168543Y-79957527D01*
X112154985Y-79916678D01*
X112142855Y-79874936D01*
X112132751Y-79833244D01*
X112124674Y-79791603D01*
X112118624Y-79750012D01*
X112114600Y-79708470D01*
X112112603Y-79666979D01*
X112112632Y-79625538D01*
X112114688Y-79584148D01*
X112118770Y-79542807D01*
X112124878Y-79501516D01*
X112133013Y-79460276D01*
X112143174Y-79419086D01*
X112155361Y-79377946D01*
X112169575Y-79336856D01*
X112185814Y-79295817D01*
X112204080Y-79254828D01*
X112652979Y-78301108D01*
X113400163Y-78301108D01*
X114197550Y-78676428D01*
X114214817Y-78684193D01*
X114232024Y-78691198D01*
X114249169Y-78697446D01*
X114266255Y-78702934D01*
X114283280Y-78707664D01*
X114300244Y-78711636D01*
X114317147Y-78714849D01*
X114333991Y-78717303D01*
X114350774Y-78718999D01*
X114367497Y-78719937D01*
X114384159Y-78720117D01*
X114400761Y-78719537D01*
X114417303Y-78718200D01*
X114433785Y-78716105D01*
X114450208Y-78713251D01*
X114466570Y-78709639D01*
X114483314Y-78704959D01*
X114499545Y-78699377D01*
X114515263Y-78692894D01*
X114530466Y-78685508D01*
X114545156Y-78677220D01*
X114559333Y-78668030D01*
X114572995Y-78657938D01*
X114586144Y-78646944D01*
X114598780Y-78635048D01*
X114610901Y-78622251D01*
X114622509Y-78608551D01*
X114633604Y-78593950D01*
X114644185Y-78578446D01*
X114654252Y-78562041D01*
X114663805Y-78544734D01*
X114672846Y-78526526D01*
X114849359Y-78151495D01*
X114857819Y-78132526D01*
X114865203Y-78113849D01*
X114871511Y-78095465D01*
X114876742Y-78077374D01*
X114880898Y-78059576D01*
X114883977Y-78042071D01*
X114885980Y-78024859D01*
X114886907Y-78007939D01*
X114886758Y-77991313D01*
X114885533Y-77974979D01*
X114883232Y-77958938D01*
X114879855Y-77943189D01*
X114875402Y-77927734D01*
X114869872Y-77912571D01*
X114863267Y-77897701D01*
X114855585Y-77883124D01*
X114847522Y-77869094D01*
X114838864Y-77855445D01*
X114829611Y-77842176D01*
X114819762Y-77829287D01*
X114809317Y-77816779D01*
X114798277Y-77804650D01*
X114786642Y-77792901D01*
X114774411Y-77781532D01*
X114761584Y-77770544D01*
X114748162Y-77759935D01*
X114734145Y-77749706D01*
X114719531Y-77739857D01*
X114704323Y-77730388D01*
X114688518Y-77721299D01*
X114672118Y-77712590D01*
X114655123Y-77704260D01*
X114152666Y-77467802D01*
X114116390Y-77452188D01*
X114098694Y-77445684D01*
X114081293Y-77440048D01*
X114064187Y-77435280D01*
X114047376Y-77431381D01*
X114030860Y-77428350D01*
X114014639Y-77426187D01*
X113998712Y-77424893D01*
X113983080Y-77424467D01*
X113967743Y-77424910D01*
X113952701Y-77426220D01*
X113937954Y-77428400D01*
X113923502Y-77431447D01*
X113909344Y-77435363D01*
X113895482Y-77440148D01*
X113881914Y-77445800D01*
X113868641Y-77452321D01*
X113855663Y-77459711D01*
X113842980Y-77467968D01*
X113830591Y-77477095D01*
X113818498Y-77487089D01*
X113806699Y-77497952D01*
X113795195Y-77509683D01*
X113783986Y-77522283D01*
X113773072Y-77535751D01*
X113762452Y-77550087D01*
X113752128Y-77565292D01*
X113742098Y-77581365D01*
X113732363Y-77598306D01*
X113713777Y-77634794D01*
X113400163Y-78301108D01*
X112652979Y-78301108D01*
X113139795Y-77266829D01*
X113159461Y-77227039D01*
X113180329Y-77188684D01*
X113202398Y-77151763D01*
X113225668Y-77116276D01*
X113250139Y-77082223D01*
X113275811Y-77049604D01*
X113302685Y-77018419D01*
X113330760Y-76988668D01*
X113360036Y-76960351D01*
X113390514Y-76933468D01*
X113422193Y-76908018D01*
X113455074Y-76884003D01*
X113489156Y-76861422D01*
X113524440Y-76840275D01*
X113560925Y-76820562D01*
X113598612Y-76802282D01*
X113636956Y-76785865D01*
X113675410Y-76771722D01*
X113713974Y-76759854D01*
X113752648Y-76750261D01*
X113791432Y-76742943D01*
X113830326Y-76737900D01*
X113869331Y-76735133D01*
X113908445Y-76734640D01*
X113947670Y-76736423D01*
G37*
%TD.AperFunction*%
%TA.AperFunction,NonConductor*%
G36*
X99061667Y-127374822D02*
G01*
X99088719Y-127376175D01*
X99116506Y-127378617D01*
X99145029Y-127382147D01*
X99173444Y-127386646D01*
X99200914Y-127391997D01*
X99227439Y-127398198D01*
X99253018Y-127405250D01*
X99277652Y-127413153D01*
X99301341Y-127421907D01*
X99324084Y-127431511D01*
X99345882Y-127441967D01*
X99366735Y-127453274D01*
X99386642Y-127465431D01*
X99405604Y-127478440D01*
X99423620Y-127492300D01*
X99440691Y-127507011D01*
X99456816Y-127522573D01*
X99471996Y-127538986D01*
X99486231Y-127556250D01*
X99498892Y-127574684D01*
X99510479Y-127593761D01*
X99520990Y-127613481D01*
X99530426Y-127633843D01*
X99538787Y-127654848D01*
X99546072Y-127676496D01*
X99552282Y-127698786D01*
X99557417Y-127721718D01*
X99561476Y-127745293D01*
X99564460Y-127769510D01*
X99566368Y-127794370D01*
X99567201Y-127819872D01*
X99566959Y-127846017D01*
X99565641Y-127872804D01*
X99563247Y-127900233D01*
X99559778Y-127928305D01*
X99555278Y-127956721D01*
X99549928Y-127984192D01*
X99543727Y-128010718D01*
X99536675Y-128036298D01*
X99528772Y-128060933D01*
X99520018Y-128084622D01*
X99510413Y-128107366D01*
X99499958Y-128129165D01*
X99488651Y-128150018D01*
X99476493Y-128169925D01*
X99463485Y-128188887D01*
X99449625Y-128206904D01*
X99434914Y-128223975D01*
X99419352Y-128240100D01*
X99402939Y-128255280D01*
X99385675Y-128269514D01*
X99367155Y-128282650D01*
X99347965Y-128294677D01*
X99328106Y-128305592D01*
X99307578Y-128315398D01*
X99286381Y-128324093D01*
X99264515Y-128331679D01*
X99241980Y-128338154D01*
X99218776Y-128343518D01*
X99194904Y-128347773D01*
X99170362Y-128350918D01*
X99145151Y-128352952D01*
X99119272Y-128353876D01*
X99092723Y-128353690D01*
X99065506Y-128352394D01*
X99037620Y-128349988D01*
X99009065Y-128346472D01*
X99009058Y-128346464D01*
X98979950Y-128341880D01*
X98951901Y-128336484D01*
X98924911Y-128330277D01*
X98898980Y-128323259D01*
X98874108Y-128315430D01*
X98850295Y-128306790D01*
X98827541Y-128297339D01*
X98805846Y-128287076D01*
X98785210Y-128276003D01*
X98765633Y-128264118D01*
X98747115Y-128251423D01*
X98729656Y-128237916D01*
X98713256Y-128223598D01*
X98697915Y-128208470D01*
X98683632Y-128192530D01*
X98670409Y-128175779D01*
X98658245Y-128158216D01*
X98647139Y-128139843D01*
X98637093Y-128120658D01*
X98628105Y-128100663D01*
X98620177Y-128079856D01*
X98613307Y-128058238D01*
X98607497Y-128035809D01*
X98602745Y-128012569D01*
X98599052Y-127988518D01*
X98596418Y-127963655D01*
X98594844Y-127937981D01*
X98594328Y-127911497D01*
X98594871Y-127884201D01*
X98596473Y-127856093D01*
X98599134Y-127827175D01*
X98602854Y-127797445D01*
X98607353Y-127769028D01*
X98612703Y-127741556D01*
X98618904Y-127715029D01*
X98625956Y-127689449D01*
X98633859Y-127664814D01*
X98642612Y-127641124D01*
X98652217Y-127618380D01*
X98662672Y-127596582D01*
X98673978Y-127575729D01*
X98686134Y-127555821D01*
X98699142Y-127536859D01*
X98713000Y-127518842D01*
X98727709Y-127501771D01*
X98743269Y-127485645D01*
X98759680Y-127470464D01*
X98776941Y-127456228D01*
X98794429Y-127443440D01*
X98812653Y-127431739D01*
X98831613Y-127421125D01*
X98851308Y-127411600D01*
X98871738Y-127403162D01*
X98892905Y-127395812D01*
X98914807Y-127389549D01*
X98937444Y-127384375D01*
X98960818Y-127380288D01*
X98984927Y-127377289D01*
X99009771Y-127375379D01*
X99035352Y-127374556D01*
X99061667Y-127374822D01*
G37*
%TD.AperFunction*%
%TA.AperFunction,NonConductor*%
G36*
X113394891Y-130076910D02*
G01*
X114503412Y-129640967D01*
X114672777Y-130071653D01*
X114676561Y-130081921D01*
X114679814Y-130092127D01*
X114682537Y-130102271D01*
X114684728Y-130112355D01*
X114686388Y-130122376D01*
X114687517Y-130132336D01*
X114688116Y-130142235D01*
X114688184Y-130152072D01*
X114687720Y-130161848D01*
X114686726Y-130171562D01*
X114685202Y-130181215D01*
X114683146Y-130190807D01*
X114680560Y-130200337D01*
X114677444Y-130209806D01*
X114673796Y-130219213D01*
X114669618Y-130228560D01*
X114664552Y-130237884D01*
X114659179Y-130246855D01*
X114653497Y-130255475D01*
X114647509Y-130263743D01*
X114641212Y-130271658D01*
X114634609Y-130279222D01*
X114627698Y-130286433D01*
X114620479Y-130293292D01*
X114612954Y-130299799D01*
X114605120Y-130305954D01*
X114596980Y-130311756D01*
X114588532Y-130317207D01*
X114579777Y-130322305D01*
X114570714Y-130327051D01*
X114561345Y-130331444D01*
X114551668Y-130335486D01*
X112035013Y-131325171D01*
X112024551Y-131329074D01*
X112014230Y-131332500D01*
X112004051Y-131335448D01*
X111994013Y-131337918D01*
X111984117Y-131339910D01*
X111974362Y-131341424D01*
X111964748Y-131342460D01*
X111955276Y-131343018D01*
X111945946Y-131343098D01*
X111936756Y-131342700D01*
X111927709Y-131341824D01*
X111918802Y-131340471D01*
X111910038Y-131338639D01*
X111901414Y-131336330D01*
X111892932Y-131333542D01*
X111884592Y-131330277D01*
X111876393Y-131326533D01*
X111868335Y-131322312D01*
X111860419Y-131317613D01*
X111852644Y-131312436D01*
X111845011Y-131306781D01*
X111837519Y-131300648D01*
X111830169Y-131294037D01*
X111822960Y-131286948D01*
X111815892Y-131279381D01*
X111808966Y-131271337D01*
X111802181Y-131262814D01*
X111795538Y-131253814D01*
X111782676Y-131234380D01*
X111770380Y-131213034D01*
X111601015Y-130782354D01*
X112709543Y-130346418D01*
X111070368Y-126178198D01*
X111755716Y-125908690D01*
X113394891Y-130076910D01*
G37*
%TD.AperFunction*%
%TA.AperFunction,NonConductor*%
G36*
X88730659Y-77920877D02*
G01*
X88769706Y-77923145D01*
X88808945Y-77927584D01*
X88848377Y-77934193D01*
X88888002Y-77942973D01*
X88927820Y-77953924D01*
X88967223Y-77966778D01*
X89005600Y-77981261D01*
X89042949Y-77997374D01*
X89079271Y-78015116D01*
X89114567Y-78034488D01*
X89148835Y-78055489D01*
X89182076Y-78078120D01*
X89214290Y-78102380D01*
X89245478Y-78128270D01*
X89275638Y-78155789D01*
X89304772Y-78184939D01*
X89332879Y-78215718D01*
X89359958Y-78248126D01*
X89386012Y-78282165D01*
X89411038Y-78317833D01*
X89435037Y-78355131D01*
X91048013Y-80972540D01*
X90475870Y-81325110D01*
X90393564Y-81191496D01*
X90381205Y-81223154D01*
X90368207Y-81253655D01*
X90354569Y-81282999D01*
X90340292Y-81311186D01*
X90325375Y-81338215D01*
X90309819Y-81364088D01*
X90293623Y-81388804D01*
X90276788Y-81412362D01*
X90259314Y-81434764D01*
X90241200Y-81456008D01*
X90222447Y-81476096D01*
X90203054Y-81495027D01*
X90183022Y-81512800D01*
X90162350Y-81529417D01*
X90141039Y-81544877D01*
X90119089Y-81559179D01*
X89557245Y-81905417D01*
X89518013Y-81928502D01*
X89478264Y-81949728D01*
X89437998Y-81969095D01*
X89397213Y-81986602D01*
X89355911Y-82002250D01*
X89314091Y-82016038D01*
X89271754Y-82027967D01*
X89228899Y-82038036D01*
X89185526Y-82046246D01*
X89141635Y-82052597D01*
X89097226Y-82057087D01*
X89052299Y-82059719D01*
X89006854Y-82060491D01*
X88960891Y-82059403D01*
X88914410Y-82056456D01*
X88867410Y-82051649D01*
X88820917Y-82044941D01*
X88775959Y-82036290D01*
X88732537Y-82025695D01*
X88690650Y-82013157D01*
X88650299Y-81998676D01*
X88611483Y-81982251D01*
X88574203Y-81963883D01*
X88538458Y-81943572D01*
X88504248Y-81921318D01*
X88471573Y-81897120D01*
X88440434Y-81870979D01*
X88410830Y-81842895D01*
X88382761Y-81812868D01*
X88356227Y-81780897D01*
X88331228Y-81746983D01*
X88307764Y-81711126D01*
X87906641Y-81060202D01*
X87884647Y-81022294D01*
X87865112Y-80983943D01*
X87848036Y-80945147D01*
X87833419Y-80905907D01*
X87821261Y-80866222D01*
X87811561Y-80826093D01*
X87804321Y-80785520D01*
X87799539Y-80744503D01*
X87797217Y-80703041D01*
X87797354Y-80661135D01*
X87799949Y-80618785D01*
X87803936Y-80585037D01*
X88491324Y-80585037D01*
X88491808Y-80601206D01*
X88492997Y-80617384D01*
X88494892Y-80633569D01*
X88497491Y-80649764D01*
X88500795Y-80665966D01*
X88504804Y-80682177D01*
X88509518Y-80698396D01*
X88514937Y-80714623D01*
X88521061Y-80730858D01*
X88527889Y-80747101D01*
X88535423Y-80763353D01*
X88543660Y-80779612D01*
X88552603Y-80795880D01*
X88562250Y-80812155D01*
X88824045Y-81236967D01*
X88834234Y-81252938D01*
X88844750Y-81268301D01*
X88855594Y-81283056D01*
X88866765Y-81297203D01*
X88878264Y-81310742D01*
X88890091Y-81323673D01*
X88902245Y-81335997D01*
X88914726Y-81347712D01*
X88927535Y-81358819D01*
X88940671Y-81369318D01*
X88954134Y-81379209D01*
X88967925Y-81388493D01*
X88982043Y-81397168D01*
X88996489Y-81405235D01*
X89011261Y-81412695D01*
X89026361Y-81419546D01*
X89041452Y-81425127D01*
X89056730Y-81429633D01*
X89072195Y-81433065D01*
X89087847Y-81435422D01*
X89103686Y-81436704D01*
X89119712Y-81436912D01*
X89135925Y-81436045D01*
X89152324Y-81434103D01*
X89168911Y-81431087D01*
X89185684Y-81426996D01*
X89202644Y-81421830D01*
X89219791Y-81415589D01*
X89237125Y-81408274D01*
X89254646Y-81399885D01*
X89272353Y-81390420D01*
X89290247Y-81379881D01*
X89872659Y-81020971D01*
X89889735Y-81009963D01*
X89905847Y-80998589D01*
X89920994Y-80986850D01*
X89935176Y-80974746D01*
X89948395Y-80962276D01*
X89960649Y-80949441D01*
X89971939Y-80936241D01*
X89982265Y-80922676D01*
X89991627Y-80908746D01*
X90000025Y-80894450D01*
X90007460Y-80879788D01*
X90013930Y-80864762D01*
X90019437Y-80849370D01*
X90023980Y-80833612D01*
X90027560Y-80817489D01*
X90030176Y-80801001D01*
X90032088Y-80783667D01*
X90033228Y-80766402D01*
X90033597Y-80749205D01*
X90033195Y-80732076D01*
X90032022Y-80715016D01*
X90030077Y-80698024D01*
X90027362Y-80681101D01*
X90023876Y-80664247D01*
X90019619Y-80647461D01*
X90014591Y-80630743D01*
X90008792Y-80614094D01*
X90002223Y-80597514D01*
X89994883Y-80581003D01*
X89986773Y-80564560D01*
X89977892Y-80548187D01*
X89968240Y-80531881D01*
X89968280Y-80531870D01*
X89968318Y-80531857D01*
X89968356Y-80531844D01*
X89968393Y-80531831D01*
X89968546Y-80531775D01*
X89706751Y-80106962D01*
X89696530Y-80091031D01*
X89685918Y-80075784D01*
X89674915Y-80061220D01*
X89663521Y-80047341D01*
X89651735Y-80034146D01*
X89639558Y-80021635D01*
X89626990Y-80009809D01*
X89614031Y-79998666D01*
X89600680Y-79988207D01*
X89586938Y-79978433D01*
X89572805Y-79969342D01*
X89558281Y-79960935D01*
X89543365Y-79953213D01*
X89528058Y-79946174D01*
X89512360Y-79939820D01*
X89496271Y-79934149D01*
X89480107Y-79928659D01*
X89463853Y-79924221D01*
X89447510Y-79920835D01*
X89431077Y-79918500D01*
X89414553Y-79917216D01*
X89397940Y-79916985D01*
X89381237Y-79917805D01*
X89364444Y-79919677D01*
X89347562Y-79922601D01*
X89330589Y-79926577D01*
X89313526Y-79931604D01*
X89296373Y-79937684D01*
X89279131Y-79944816D01*
X89261798Y-79953000D01*
X89244375Y-79962236D01*
X89226862Y-79972525D01*
X88644449Y-80331442D01*
X88626995Y-80342701D01*
X88610602Y-80354304D01*
X88595269Y-80366249D01*
X88580997Y-80378537D01*
X88567786Y-80391168D01*
X88555636Y-80404142D01*
X88544546Y-80417458D01*
X88534517Y-80431117D01*
X88525549Y-80445119D01*
X88517641Y-80459464D01*
X88510795Y-80474151D01*
X88505008Y-80489181D01*
X88500283Y-80504553D01*
X88496619Y-80520268D01*
X88494015Y-80536325D01*
X88492471Y-80552725D01*
X88491545Y-80568877D01*
X88491324Y-80585037D01*
X87803936Y-80585037D01*
X87805004Y-80575990D01*
X87812519Y-80532751D01*
X87822492Y-80489067D01*
X87834925Y-80444939D01*
X87849817Y-80400366D01*
X87866650Y-80356219D01*
X87884911Y-80313371D01*
X87904600Y-80271822D01*
X87925718Y-80231571D01*
X87948263Y-80192620D01*
X87972237Y-80154967D01*
X87997639Y-80118613D01*
X88024469Y-80083558D01*
X88052728Y-80049802D01*
X88082415Y-80017345D01*
X88113530Y-79986186D01*
X88146075Y-79956326D01*
X88180047Y-79927765D01*
X88215448Y-79900503D01*
X88252278Y-79874539D01*
X88290537Y-79849875D01*
X88955164Y-79440306D01*
X88972410Y-79430090D01*
X88989884Y-79420544D01*
X89007588Y-79411669D01*
X89025520Y-79403465D01*
X89043680Y-79395931D01*
X89062070Y-79389068D01*
X89080688Y-79382875D01*
X89099535Y-79377354D01*
X89118611Y-79372503D01*
X89137915Y-79368323D01*
X89157449Y-79364813D01*
X89177212Y-79361975D01*
X89197204Y-79359807D01*
X89217425Y-79358310D01*
X89237875Y-79357484D01*
X89258554Y-79357329D01*
X88906336Y-78785071D01*
X88895153Y-78767532D01*
X88883774Y-78750890D01*
X88872201Y-78735143D01*
X88860431Y-78720293D01*
X88848466Y-78706339D01*
X88836306Y-78693281D01*
X88823950Y-78681120D01*
X88811398Y-78669854D01*
X88798651Y-78659484D01*
X88785708Y-78650011D01*
X88772570Y-78641434D01*
X88759236Y-78633752D01*
X88745707Y-78626967D01*
X88731982Y-78621078D01*
X88718061Y-78616085D01*
X88703945Y-78611988D01*
X88689633Y-78608787D01*
X88675126Y-78606483D01*
X88660423Y-78605074D01*
X88645525Y-78604561D01*
X88630431Y-78604945D01*
X88615141Y-78606224D01*
X88599656Y-78608400D01*
X88583975Y-78611472D01*
X88568098Y-78615439D01*
X88552026Y-78620303D01*
X88535759Y-78626063D01*
X88519295Y-78632719D01*
X88502637Y-78640271D01*
X88485782Y-78648719D01*
X88468732Y-78658063D01*
X88451486Y-78668303D01*
X87827966Y-79052534D01*
X87815451Y-79060599D01*
X87803596Y-79068958D01*
X87792403Y-79077611D01*
X87781870Y-79086558D01*
X87771999Y-79095798D01*
X87762788Y-79105333D01*
X87754239Y-79115162D01*
X87746351Y-79125284D01*
X87739124Y-79135701D01*
X87732559Y-79146412D01*
X87726655Y-79157416D01*
X87721412Y-79168715D01*
X87716831Y-79180307D01*
X87712911Y-79192194D01*
X87709653Y-79204374D01*
X87707056Y-79216848D01*
X87705248Y-79228803D01*
X87704020Y-79240805D01*
X87703370Y-79252855D01*
X87703300Y-79264953D01*
X87703809Y-79277098D01*
X87704897Y-79289292D01*
X87706564Y-79301533D01*
X87708811Y-79313823D01*
X87711637Y-79326160D01*
X87715042Y-79338546D01*
X87719027Y-79350980D01*
X87723591Y-79363461D01*
X87728735Y-79375991D01*
X87734458Y-79388569D01*
X87740761Y-79401195D01*
X87747644Y-79413870D01*
X87158380Y-79776991D01*
X87136187Y-79737414D01*
X87115929Y-79697680D01*
X87097605Y-79657787D01*
X87081215Y-79617737D01*
X87066760Y-79577529D01*
X87054238Y-79537163D01*
X87043651Y-79496639D01*
X87034998Y-79455958D01*
X87028279Y-79415118D01*
X87023493Y-79374122D01*
X87020642Y-79332967D01*
X87019725Y-79291655D01*
X87020742Y-79250185D01*
X87023692Y-79208558D01*
X87028576Y-79166773D01*
X87035394Y-79124830D01*
X87044114Y-79083395D01*
X87054701Y-79043135D01*
X87067158Y-79004050D01*
X87081483Y-78966141D01*
X87097677Y-78929406D01*
X87115739Y-78893846D01*
X87135670Y-78859461D01*
X87157470Y-78826251D01*
X87181139Y-78794216D01*
X87206677Y-78763356D01*
X87234083Y-78733671D01*
X87263359Y-78705160D01*
X87294503Y-78677824D01*
X87327516Y-78651663D01*
X87362398Y-78626677D01*
X87399149Y-78602865D01*
X88313883Y-78039190D01*
X88350806Y-78017582D01*
X88387923Y-77998144D01*
X88425233Y-77980877D01*
X88462736Y-77965780D01*
X88500432Y-77952853D01*
X88538320Y-77942097D01*
X88576402Y-77933512D01*
X88614677Y-77927097D01*
X88653145Y-77922853D01*
X88691806Y-77920780D01*
X88730659Y-77920877D01*
G37*
%TD.AperFunction*%
%TA.AperFunction,NonConductor*%
G36*
X126460620Y-85666849D02*
G01*
X126481121Y-85668560D01*
X126501505Y-85671469D01*
X126521688Y-85675572D01*
X126541578Y-85680842D01*
X126561177Y-85687279D01*
X126580483Y-85694883D01*
X126599497Y-85703655D01*
X126618219Y-85713594D01*
X126636649Y-85724700D01*
X126654786Y-85736974D01*
X126672631Y-85750415D01*
X126690184Y-85765022D01*
X126707444Y-85780798D01*
X126724412Y-85797740D01*
X126741088Y-85815849D01*
X126757472Y-85835126D01*
X126773563Y-85855569D01*
X126789362Y-85877180D01*
X126789377Y-85877218D01*
X126804711Y-85899729D01*
X126818828Y-85922041D01*
X126831727Y-85944154D01*
X126843408Y-85966067D01*
X126853872Y-85987781D01*
X126863118Y-86009295D01*
X126871146Y-86030610D01*
X126877957Y-86051726D01*
X126883550Y-86072643D01*
X126887926Y-86093361D01*
X126891084Y-86113879D01*
X126893024Y-86134198D01*
X126893747Y-86154317D01*
X126893252Y-86174237D01*
X126891539Y-86193958D01*
X126888609Y-86213480D01*
X126884461Y-86232803D01*
X126879095Y-86251926D01*
X126872512Y-86270849D01*
X126864711Y-86289574D01*
X126855693Y-86308099D01*
X126845457Y-86326425D01*
X126834003Y-86344552D01*
X126821332Y-86362479D01*
X126807443Y-86380207D01*
X126792336Y-86397736D01*
X126776012Y-86415066D01*
X126758470Y-86432196D01*
X126739711Y-86449127D01*
X126719733Y-86465859D01*
X126676126Y-86498724D01*
X126630128Y-86529045D01*
X126607471Y-86542377D01*
X126585041Y-86554491D01*
X126562838Y-86565387D01*
X126540863Y-86575064D01*
X126519116Y-86583523D01*
X126497596Y-86590763D01*
X126476303Y-86596785D01*
X126455239Y-86601589D01*
X126434402Y-86605174D01*
X126413792Y-86607541D01*
X126393410Y-86608689D01*
X126373256Y-86608619D01*
X126353329Y-86607330D01*
X126333629Y-86604823D01*
X126314158Y-86601098D01*
X126294914Y-86596154D01*
X126275897Y-86589992D01*
X126257108Y-86582611D01*
X126238547Y-86574012D01*
X126220213Y-86564195D01*
X126202107Y-86553159D01*
X126184228Y-86540905D01*
X126166578Y-86527432D01*
X126149154Y-86512741D01*
X126131959Y-86496831D01*
X126114990Y-86479703D01*
X126098250Y-86461357D01*
X126081737Y-86441792D01*
X126065452Y-86421009D01*
X126049394Y-86399008D01*
X126034339Y-86376868D01*
X126020482Y-86354844D01*
X126007823Y-86332938D01*
X125996363Y-86311149D01*
X125986100Y-86289476D01*
X125977035Y-86267920D01*
X125969169Y-86246481D01*
X125962500Y-86225159D01*
X125957030Y-86203953D01*
X125952758Y-86182865D01*
X125949684Y-86161893D01*
X125947808Y-86141037D01*
X125947131Y-86120299D01*
X125947651Y-86099677D01*
X125949370Y-86079171D01*
X125952287Y-86058783D01*
X125956785Y-86038321D01*
X125962425Y-86018169D01*
X125969207Y-85998328D01*
X125977131Y-85978796D01*
X125986197Y-85959575D01*
X125996405Y-85940663D01*
X126007755Y-85922062D01*
X126020247Y-85903771D01*
X126033881Y-85885790D01*
X126048657Y-85868119D01*
X126064575Y-85850759D01*
X126081635Y-85833709D01*
X126099837Y-85816969D01*
X126119181Y-85800540D01*
X126139667Y-85784422D01*
X126161295Y-85768614D01*
X126183436Y-85753563D01*
X126205461Y-85739709D01*
X126227369Y-85727052D01*
X126249159Y-85715592D01*
X126270833Y-85705330D01*
X126292389Y-85696265D01*
X126313828Y-85688397D01*
X126335150Y-85681727D01*
X126356355Y-85676253D01*
X126377443Y-85671978D01*
X126398413Y-85668899D01*
X126419266Y-85667018D01*
X126440002Y-85666335D01*
X126460620Y-85666849D01*
G37*
%TD.AperFunction*%
%TA.AperFunction,NonConductor*%
G36*
X117514261Y-127388464D02*
G01*
X116923532Y-127749205D01*
X114884958Y-124410910D01*
X115475687Y-124050161D01*
X117514261Y-127388464D01*
G37*
%TD.AperFunction*%
D11*
%TO.P,REF\u002A\u002A,*%
%TO.N,*%
X142900000Y-43100000D03*
%TD*%
%TO.P,REF\u002A\u002A,*%
%TO.N,*%
X81500000Y-130500000D03*
%TD*%
%TO.P,REF\u002A\u002A,*%
%TO.N,*%
X142900000Y-130500000D03*
%TD*%
%TO.P,,*%
%TO.N,*%
X161100000Y-86800000D03*
%TD*%
%TO.P,REF\u002A\u002A,*%
%TO.N,*%
X81500000Y-43100000D03*
%TD*%
M02*
