%TF.GenerationSoftware,KiCad,Pcbnew,6.0.11*%
%TF.CreationDate,2025-01-17T14:03:23+01:00*%
%TF.ProjectId,MP6532_board_28-QFN,4d503635-3332-45f6-926f-6172645f3238,rev?*%
%TF.SameCoordinates,Original*%
%TF.FileFunction,Paste,Top*%
%TF.FilePolarity,Positive*%
%FSLAX46Y46*%
G04 Gerber Fmt 4.6, Leading zero omitted, Abs format (unit mm)*
G04 Created by KiCad (PCBNEW 6.0.11) date 2025-01-17 14:03:23*
%MOMM*%
%LPD*%
G01*
G04 APERTURE LIST*
G04 Aperture macros list*
%AMRoundRect*
0 Rectangle with rounded corners*
0 $1 Rounding radius*
0 $2 $3 $4 $5 $6 $7 $8 $9 X,Y pos of 4 corners*
0 Add a 4 corners polygon primitive as box body*
4,1,4,$2,$3,$4,$5,$6,$7,$8,$9,$2,$3,0*
0 Add four circle primitives for the rounded corners*
1,1,$1+$1,$2,$3*
1,1,$1+$1,$4,$5*
1,1,$1+$1,$6,$7*
1,1,$1+$1,$8,$9*
0 Add four rect primitives between the rounded corners*
20,1,$1+$1,$2,$3,$4,$5,0*
20,1,$1+$1,$4,$5,$6,$7,0*
20,1,$1+$1,$6,$7,$8,$9,0*
20,1,$1+$1,$8,$9,$2,$3,0*%
G04 Aperture macros list end*
%ADD10RoundRect,0.250000X0.312500X0.625000X-0.312500X0.625000X-0.312500X-0.625000X0.312500X-0.625000X0*%
%ADD11RoundRect,0.200000X0.200000X0.275000X-0.200000X0.275000X-0.200000X-0.275000X0.200000X-0.275000X0*%
%ADD12RoundRect,0.200000X0.275000X-0.200000X0.275000X0.200000X-0.275000X0.200000X-0.275000X-0.200000X0*%
%ADD13RoundRect,0.200000X-0.275000X0.200000X-0.275000X-0.200000X0.275000X-0.200000X0.275000X0.200000X0*%
%ADD14RoundRect,0.243750X-0.243750X-0.456250X0.243750X-0.456250X0.243750X0.456250X-0.243750X0.456250X0*%
%ADD15R,2.750000X3.050000*%
%ADD16R,1.200000X2.200000*%
%ADD17R,1.200000X0.900000*%
%ADD18RoundRect,0.225000X0.225000X0.250000X-0.225000X0.250000X-0.225000X-0.250000X0.225000X-0.250000X0*%
%ADD19RoundRect,0.250000X-0.250000X-0.475000X0.250000X-0.475000X0.250000X0.475000X-0.250000X0.475000X0*%
%ADD20RoundRect,0.250000X-0.312500X-1.075000X0.312500X-1.075000X0.312500X1.075000X-0.312500X1.075000X0*%
%ADD21RoundRect,0.225000X0.250000X-0.225000X0.250000X0.225000X-0.250000X0.225000X-0.250000X-0.225000X0*%
%ADD22R,0.900000X1.200000*%
%ADD23RoundRect,0.250000X0.325000X1.100000X-0.325000X1.100000X-0.325000X-1.100000X0.325000X-1.100000X0*%
%ADD24RoundRect,0.250000X-0.325000X-1.100000X0.325000X-1.100000X0.325000X1.100000X-0.325000X1.100000X0*%
%ADD25RoundRect,0.225000X-0.225000X-0.250000X0.225000X-0.250000X0.225000X0.250000X-0.225000X0.250000X0*%
%ADD26RoundRect,0.243750X0.456250X-0.243750X0.456250X0.243750X-0.456250X0.243750X-0.456250X-0.243750X0*%
%ADD27RoundRect,0.250000X0.312500X1.075000X-0.312500X1.075000X-0.312500X-1.075000X0.312500X-1.075000X0*%
%ADD28RoundRect,0.250000X0.445477X0.000000X0.000000X0.445477X-0.445477X0.000000X0.000000X-0.445477X0*%
%ADD29RoundRect,0.050000X0.309359X-0.238649X-0.238649X0.309359X-0.309359X0.238649X0.238649X-0.309359X0*%
%ADD30RoundRect,0.050000X0.309359X0.238649X0.238649X0.309359X-0.309359X-0.238649X-0.238649X-0.309359X0*%
G04 APERTURE END LIST*
D10*
%TO.C,R24*%
X120062500Y-57700000D03*
X117137500Y-57700000D03*
%TD*%
%TO.C,R23*%
X120062500Y-60000000D03*
X117137500Y-60000000D03*
%TD*%
%TO.C,R22*%
X120062500Y-62300000D03*
X117137500Y-62300000D03*
%TD*%
%TO.C,R21*%
X120062500Y-64600000D03*
X117137500Y-64600000D03*
%TD*%
%TO.C,R20*%
X120052500Y-66920000D03*
X117127500Y-66920000D03*
%TD*%
D11*
%TO.C,R19*%
X102445000Y-66140000D03*
X100795000Y-66140000D03*
%TD*%
D12*
%TO.C,R13*%
X49740000Y-56935000D03*
X49740000Y-55285000D03*
%TD*%
%TO.C,R12*%
X47550000Y-56965000D03*
X47550000Y-55315000D03*
%TD*%
D13*
%TO.C,R11*%
X51680000Y-55285000D03*
X51680000Y-56935000D03*
%TD*%
D14*
%TO.C,D10*%
X46927500Y-46280000D03*
X45052500Y-46280000D03*
%TD*%
%TO.C,D9*%
X45022500Y-48450000D03*
X46897500Y-48450000D03*
%TD*%
%TO.C,D8*%
X45052500Y-44140000D03*
X46927500Y-44140000D03*
%TD*%
D15*
%TO.C,Q5*%
X105663000Y-47903000D03*
X105663000Y-44553000D03*
X108713000Y-44553000D03*
X108713000Y-47903000D03*
D16*
X104908000Y-52528000D03*
X109468000Y-52528000D03*
%TD*%
D15*
%TO.C,Q1*%
X78614000Y-47835000D03*
X78614000Y-44485000D03*
X75564000Y-47835000D03*
X75564000Y-44485000D03*
D16*
X74809000Y-52460000D03*
X79369000Y-52460000D03*
%TD*%
D17*
%TO.C,D2*%
X81915000Y-56630000D03*
X81915000Y-59930000D03*
%TD*%
D18*
%TO.C,C8*%
X42680000Y-50300000D03*
X41130000Y-50300000D03*
%TD*%
D19*
%TO.C,C15*%
X49350000Y-73700000D03*
X47450000Y-73700000D03*
%TD*%
D20*
%TO.C,R6*%
X116901500Y-44323000D03*
X119826500Y-44323000D03*
%TD*%
D15*
%TO.C,Q6*%
X108713000Y-60053000D03*
X105663000Y-56703000D03*
X108713000Y-56703000D03*
X105663000Y-60053000D03*
D16*
X104908000Y-64678000D03*
X109468000Y-64678000D03*
%TD*%
D20*
%TO.C,R4*%
X96827500Y-54420000D03*
X99752500Y-54420000D03*
%TD*%
D21*
%TO.C,C3*%
X97022000Y-51111000D03*
X97022000Y-49561000D03*
%TD*%
D22*
%TO.C,D1*%
X85216000Y-47117000D03*
X81916000Y-47117000D03*
%TD*%
D21*
%TO.C,C6*%
X118870000Y-51625000D03*
X118870000Y-50075000D03*
%TD*%
D11*
%TO.C,R9*%
X46095000Y-50490000D03*
X44445000Y-50490000D03*
%TD*%
D20*
%TO.C,R2*%
X81617500Y-54220000D03*
X84542500Y-54220000D03*
%TD*%
D11*
%TO.C,R16*%
X62575000Y-65120000D03*
X60925000Y-65120000D03*
%TD*%
D23*
%TO.C,C21*%
X125515000Y-51820000D03*
X122565000Y-51820000D03*
%TD*%
D11*
%TO.C,R8*%
X46095000Y-53660000D03*
X44445000Y-53660000D03*
%TD*%
D24*
%TO.C,Cb16*%
X69065000Y-64860000D03*
X72015000Y-64860000D03*
%TD*%
D25*
%TO.C,C17*%
X60975000Y-63550000D03*
X62525000Y-63550000D03*
%TD*%
D13*
%TO.C,R14*%
X60950000Y-50375000D03*
X60950000Y-52025000D03*
%TD*%
D15*
%TO.C,Q3*%
X90678000Y-47879000D03*
X93728000Y-47879000D03*
X90678000Y-44529000D03*
X93728000Y-44529000D03*
D16*
X89923000Y-52504000D03*
X94483000Y-52504000D03*
%TD*%
D26*
%TO.C,D7*%
X59590000Y-44997500D03*
X59590000Y-43122500D03*
%TD*%
D13*
%TO.C,R7*%
X59370000Y-50405000D03*
X59370000Y-52055000D03*
%TD*%
D23*
%TO.C,C22*%
X125515000Y-55300000D03*
X122565000Y-55300000D03*
%TD*%
D27*
%TO.C,R5*%
X116905500Y-50419000D03*
X113980500Y-50419000D03*
%TD*%
D23*
%TO.C,C23*%
X125515000Y-58710000D03*
X122565000Y-58710000D03*
%TD*%
D25*
%TO.C,C19*%
X60975000Y-57329000D03*
X62525000Y-57329000D03*
%TD*%
D28*
%TO.C,U1*%
X50119239Y-63400000D03*
X48280761Y-63400000D03*
X49200000Y-62480761D03*
X49200000Y-64319239D03*
D29*
X49721491Y-65618548D03*
X50004334Y-65335705D03*
X50287177Y-65052862D03*
X50570019Y-64770019D03*
X50852862Y-64487177D03*
X51135705Y-64204334D03*
X51418548Y-63921491D03*
D30*
X51418548Y-62878509D03*
X51135705Y-62595666D03*
X50852862Y-62312823D03*
X50570019Y-62029981D03*
X50287177Y-61747138D03*
X50004334Y-61464295D03*
X49721491Y-61181452D03*
D29*
X48678509Y-61181452D03*
X48395666Y-61464295D03*
X48112823Y-61747138D03*
X47829981Y-62029981D03*
X47547138Y-62312823D03*
X47264295Y-62595666D03*
X46981452Y-62878509D03*
D30*
X46981452Y-63921491D03*
X47264295Y-64204334D03*
X47547138Y-64487177D03*
X47829981Y-64770019D03*
X48112823Y-65052862D03*
X48395666Y-65335705D03*
X48678509Y-65618548D03*
%TD*%
D23*
%TO.C,Cb21*%
X125515000Y-62100000D03*
X122565000Y-62100000D03*
%TD*%
D15*
%TO.C,Q4*%
X90678000Y-59782000D03*
X93728000Y-59782000D03*
X90678000Y-56432000D03*
X93728000Y-56432000D03*
D16*
X89923000Y-64407000D03*
X94483000Y-64407000D03*
%TD*%
D20*
%TO.C,R1*%
X84008500Y-50165000D03*
X86933500Y-50165000D03*
%TD*%
D25*
%TO.C,C18*%
X60975000Y-60430000D03*
X62525000Y-60430000D03*
%TD*%
D11*
%TO.C,R17*%
X62575000Y-61980000D03*
X60925000Y-61980000D03*
%TD*%
%TO.C,R10*%
X46095000Y-52070000D03*
X44445000Y-52070000D03*
%TD*%
D21*
%TO.C,C1*%
X81915000Y-50813000D03*
X81915000Y-49263000D03*
%TD*%
D22*
%TO.C,D5*%
X115315000Y-47498000D03*
X112015000Y-47498000D03*
%TD*%
D23*
%TO.C,Cb23*%
X125465000Y-68910000D03*
X122515000Y-68910000D03*
%TD*%
D17*
%TO.C,D4*%
X97149000Y-56814000D03*
X97149000Y-60114000D03*
%TD*%
D18*
%TO.C,C9*%
X42695000Y-51900000D03*
X41145000Y-51900000D03*
%TD*%
D23*
%TO.C,C16*%
X67235000Y-64860000D03*
X64285000Y-64860000D03*
%TD*%
D22*
%TO.C,D3*%
X100202000Y-47371000D03*
X96902000Y-47371000D03*
%TD*%
D23*
%TO.C,Cb22*%
X125515000Y-65490000D03*
X122565000Y-65490000D03*
%TD*%
D22*
%TO.C,D6*%
X117095000Y-47498000D03*
X120395000Y-47498000D03*
%TD*%
D15*
%TO.C,Q2*%
X78600000Y-59630000D03*
X75550000Y-59630000D03*
X78600000Y-56280000D03*
X75550000Y-56280000D03*
D16*
X74795000Y-64255000D03*
X79355000Y-64255000D03*
%TD*%
D27*
%TO.C,R3*%
X102046500Y-50292000D03*
X99121500Y-50292000D03*
%TD*%
D21*
%TO.C,C4*%
X97149000Y-63303000D03*
X97149000Y-61753000D03*
%TD*%
D11*
%TO.C,R15*%
X43725000Y-73630000D03*
X42075000Y-73630000D03*
%TD*%
D21*
%TO.C,C2*%
X81915000Y-63119000D03*
X81915000Y-61569000D03*
%TD*%
%TO.C,C5*%
X111957000Y-51161000D03*
X111957000Y-49611000D03*
%TD*%
D11*
%TO.C,R18*%
X62575000Y-58890000D03*
X60925000Y-58890000D03*
%TD*%
D18*
%TO.C,C7*%
X42655000Y-53510000D03*
X41105000Y-53510000D03*
%TD*%
M02*
