M48
; DRILL file {KiCad 9.0.1} date 2025-10-19T14:59:14+0200
; FORMAT={-:-/ absolute / metric / decimal}
; #@! TF.CreationDate,2025-10-19T14:59:14+02:00
; #@! TF.GenerationSoftware,Kicad,Pcbnew,9.0.1
; #@! TF.FileFunction,Plated,1,4,PTH
FMAT,2
METRIC
; #@! TA.AperFunction,Plated,PTH,ComponentDrill
T1C0.200
; #@! TA.AperFunction,Plated,PTH,ViaDrill
T2C0.400
; #@! TA.AperFunction,Plated,PTH,ComponentDrill
T3C0.800
; #@! TA.AperFunction,Plated,PTH,ComponentDrill
T4C1.000
; #@! TA.AperFunction,Plated,PTH,ComponentDrill
T5C1.200
%
G90
G05
T1
X48.15Y-62.35
X48.15Y-63.4
X48.15Y-64.45
X49.2Y-62.35
X49.2Y-63.4
X49.2Y-64.45
X50.25Y-62.35
X50.25Y-63.4
X50.25Y-64.45
T2
X38.4Y-71.44
X38.868Y-49.678
X39.78Y-51.83
X43.77Y-49.0
X43.94Y-55.02
X45.3Y-71.4
X45.9Y-74.7
X46.1Y-67.6
X47.26Y-50.08
X47.28Y-51.75
X47.31Y-53.26
X47.6Y-67.5
X49.78Y-51.14
X50.1Y-71.025
X51.5Y-71.4
X53.1Y-72.4
X57.3Y-73.4
X59.37Y-53.31
X59.41Y-45.98
X60.97Y-54.98
X61.025Y-48.315
X61.26Y-43.12
X64.285Y-64.86
X64.6Y-58.3
X64.78Y-60.96
X64.84Y-59.34
X64.919Y-56.379
X65.534Y-60.203
X66.757Y-61.029
X67.573Y-56.554
X68.292Y-58.934
X68.325Y-57.876
X68.46Y-62.011
X69.024Y-59.615
X69.302Y-57.5
X69.52Y-62.011
X70.178Y-59.382
X70.3Y-56.5
X71.19Y-60.43
X71.46Y-58.98
X72.07Y-65.04
X72.39Y-59.69
X72.69Y-58.34
X72.71Y-61.41
X74.34Y-62.11
X74.93Y-44.45
X74.93Y-45.72
X74.93Y-46.99
X74.93Y-48.26
X74.93Y-57.15
X74.93Y-58.42
X74.93Y-59.69
X75.009Y-55.959
X76.2Y-44.45
X76.2Y-45.72
X76.2Y-46.99
X76.2Y-48.26
X76.2Y-55.88
X76.2Y-57.15
X76.2Y-58.42
X76.2Y-59.69
X77.47Y-44.45
X77.47Y-45.72
X77.47Y-46.99
X77.47Y-48.26
X77.47Y-53.34
X77.47Y-55.88
X77.47Y-57.15
X77.47Y-58.42
X77.47Y-59.69
X77.548Y-52.148
X78.74Y-44.45
X78.74Y-45.72
X78.74Y-46.99
X78.74Y-48.26
X78.74Y-55.88
X78.74Y-57.15
X78.74Y-58.42
X78.74Y-59.69
X79.355Y-64.755
X79.37Y-63.66
X81.788Y-57.912
X82.55Y-44.45
X83.439Y-47.244
X83.82Y-44.45
X85.09Y-44.45
X86.36Y-44.45
X90.17Y-44.45
X90.17Y-45.72
X90.17Y-46.99
X90.17Y-48.26
X90.17Y-55.88
X90.17Y-57.15
X90.17Y-58.42
X90.17Y-59.69
X91.26Y-63.89
X91.44Y-44.45
X91.44Y-45.72
X91.44Y-46.99
X91.44Y-48.26
X91.44Y-55.88
X91.44Y-57.15
X91.44Y-58.42
X91.44Y-59.69
X92.71Y-44.45
X92.71Y-45.72
X92.71Y-46.99
X92.71Y-48.26
X92.71Y-52.07
X92.71Y-53.984
X92.71Y-55.88
X92.71Y-57.15
X92.71Y-58.42
X92.71Y-59.69
X93.98Y-44.45
X93.98Y-45.72
X93.98Y-46.99
X93.98Y-48.26
X93.98Y-55.88
X93.98Y-57.15
X93.98Y-58.42
X93.98Y-59.69
X94.55Y-63.96
X94.58Y-64.98
X97.282Y-58.166
X97.79Y-44.45
X98.425Y-47.371
X98.62Y-60.49
X99.06Y-44.45
X100.33Y-44.45
X101.6Y-44.45
X101.6Y-57.15
X101.6Y-58.42
X101.6Y-59.69
X102.87Y-55.88
X102.87Y-57.15
X102.87Y-58.42
X102.87Y-59.69
X105.41Y-44.45
X105.41Y-45.72
X105.41Y-46.99
X105.41Y-48.26
X105.41Y-55.88
X105.41Y-57.15
X105.41Y-58.42
X105.41Y-59.69
X106.06Y-64.66
X106.68Y-44.45
X106.68Y-45.72
X106.68Y-46.99
X106.68Y-48.26
X106.68Y-55.88
X106.68Y-57.15
X106.68Y-58.42
X106.68Y-59.69
X107.95Y-44.45
X107.95Y-45.72
X107.95Y-46.99
X107.95Y-48.26
X107.95Y-52.07
X107.95Y-53.34
X107.95Y-55.88
X107.95Y-57.15
X107.95Y-58.42
X107.95Y-59.69
X109.22Y-44.45
X109.22Y-45.72
X109.22Y-46.99
X109.22Y-48.26
X109.22Y-55.88
X109.22Y-57.15
X109.22Y-58.42
X109.22Y-59.69
X109.46Y-64.24
X109.46Y-65.26
X111.76Y-44.45
X112.18Y-66.12
X113.03Y-44.45
X113.3Y-57.0
X113.66Y-66.08
X113.665Y-47.371
X114.3Y-44.45
X114.4Y-63.4
X114.5Y-58.7
X114.5Y-61.1
X115.5Y-57.2
X115.5Y-65.7
X115.57Y-44.45
X115.6Y-60.0
X115.6Y-62.3
X115.6Y-64.5
X118.067Y-50.15
X118.491Y-46.228
X120.2Y-49.2
X121.33Y-68.9
X121.39Y-49.2
X121.39Y-62.09
X121.42Y-65.51
X121.44Y-55.29
X121.46Y-45.81
X121.47Y-51.75
X121.47Y-58.7
X121.48Y-47.35
X122.03Y-44.16
X122.57Y-49.2
X123.53Y-65.48
X123.53Y-68.9
X123.57Y-58.7
X123.59Y-51.82
X123.61Y-55.32
X123.62Y-62.15
X123.68Y-49.53
X125.03Y-49.77
X126.38Y-49.72
X126.79Y-52.84
X126.79Y-58.01
X126.79Y-61.49
X126.82Y-55.99
X126.82Y-59.58
X126.82Y-64.9
X126.85Y-51.53
X126.85Y-54.69
X126.85Y-63.08
X126.85Y-66.52
X126.85Y-68.2
X126.85Y-69.73
T3
X40.132Y-55.88
X40.132Y-58.42
X40.132Y-60.96
X40.132Y-63.5
X40.132Y-66.04
X40.132Y-68.58
X40.132Y-71.12
X42.672Y-55.88
X42.672Y-58.42
X42.672Y-60.96
X42.672Y-63.5
X42.672Y-66.04
X42.672Y-68.58
X42.672Y-71.12
X50.419Y-48.387
X52.959Y-45.847
X55.372Y-55.88
X55.372Y-58.42
X55.372Y-60.96
X55.372Y-63.5
X55.372Y-66.04
X55.372Y-68.58
X55.372Y-71.12
X55.499Y-48.387
X57.912Y-55.88
X57.912Y-58.42
X57.912Y-60.96
X57.912Y-63.5
X57.912Y-66.04
X57.912Y-68.58
X57.912Y-71.12
T4
X63.055Y-68.03
X63.055Y-70.57
X63.56Y-51.96
X63.56Y-54.5
X65.595Y-68.03
X65.595Y-70.57
X66.1Y-51.96
X66.1Y-54.5
X68.135Y-68.03
X68.135Y-70.57
X68.64Y-51.96
X68.64Y-54.5
X70.675Y-68.03
X70.675Y-70.57
X71.18Y-51.96
X71.18Y-54.5
X73.215Y-68.03
X73.215Y-70.57
X75.755Y-68.03
X75.755Y-70.57
X78.295Y-68.03
X78.295Y-70.57
X80.835Y-68.03
X80.835Y-70.57
X83.375Y-68.03
X83.375Y-70.57
X85.915Y-68.03
X85.915Y-70.57
X88.455Y-68.03
X88.455Y-70.57
X90.995Y-68.03
X90.995Y-70.57
X93.535Y-68.03
X93.535Y-70.57
X96.075Y-68.03
X96.075Y-70.57
X98.615Y-68.03
X98.615Y-70.57
X101.155Y-68.03
X101.155Y-70.57
X103.695Y-68.03
X103.695Y-70.57
X106.235Y-68.03
X106.235Y-70.57
T5
X113.538Y-71.125
X113.97Y-54.57
X117.478Y-71.125
X117.86Y-54.56
M30
