%TF.GenerationSoftware,KiCad,Pcbnew,9.0.1*%
%TF.CreationDate,2025-10-19T14:59:19+02:00*%
%TF.ProjectId,MP6532_board_28-QFN,4d503635-3332-45f6-926f-6172645f3238,rev?*%
%TF.SameCoordinates,Original*%
%TF.FileFunction,Soldermask,Top*%
%TF.FilePolarity,Negative*%
%FSLAX46Y46*%
G04 Gerber Fmt 4.6, Leading zero omitted, Abs format (unit mm)*
G04 Created by KiCad (PCBNEW 9.0.1) date 2025-10-19 14:59:19*
%MOMM*%
%LPD*%
G01*
G04 APERTURE LIST*
G04 Aperture macros list*
%AMRoundRect*
0 Rectangle with rounded corners*
0 $1 Rounding radius*
0 $2 $3 $4 $5 $6 $7 $8 $9 X,Y pos of 4 corners*
0 Add a 4 corners polygon primitive as box body*
4,1,4,$2,$3,$4,$5,$6,$7,$8,$9,$2,$3,0*
0 Add four circle primitives for the rounded corners*
1,1,$1+$1,$2,$3*
1,1,$1+$1,$4,$5*
1,1,$1+$1,$6,$7*
1,1,$1+$1,$8,$9*
0 Add four rect primitives between the rounded corners*
20,1,$1+$1,$2,$3,$4,$5,0*
20,1,$1+$1,$4,$5,$6,$7,0*
20,1,$1+$1,$6,$7,$8,$9,0*
20,1,$1+$1,$8,$9,$2,$3,0*%
G04 Aperture macros list end*
%ADD10R,1.200000X2.200000*%
%ADD11R,5.800000X6.400000*%
%ADD12C,2.400000*%
%ADD13RoundRect,0.200000X0.275000X-0.200000X0.275000X0.200000X-0.275000X0.200000X-0.275000X-0.200000X0*%
%ADD14RoundRect,0.250000X0.312500X0.625000X-0.312500X0.625000X-0.312500X-0.625000X0.312500X-0.625000X0*%
%ADD15RoundRect,0.225000X0.250000X-0.225000X0.250000X0.225000X-0.250000X0.225000X-0.250000X-0.225000X0*%
%ADD16R,1.200000X0.900000*%
%ADD17RoundRect,0.225000X0.225000X0.250000X-0.225000X0.250000X-0.225000X-0.250000X0.225000X-0.250000X0*%
%ADD18RoundRect,0.200000X0.200000X0.275000X-0.200000X0.275000X-0.200000X-0.275000X0.200000X-0.275000X0*%
%ADD19RoundRect,0.250000X-0.250000X-0.475000X0.250000X-0.475000X0.250000X0.475000X-0.250000X0.475000X0*%
%ADD20RoundRect,0.250000X-0.312500X-1.075000X0.312500X-1.075000X0.312500X1.075000X-0.312500X1.075000X0*%
%ADD21RoundRect,0.225000X-0.225000X-0.250000X0.225000X-0.250000X0.225000X0.250000X-0.225000X0.250000X0*%
%ADD22C,3.200000*%
%ADD23R,0.900000X1.200000*%
%ADD24RoundRect,0.243750X-0.243750X-0.456250X0.243750X-0.456250X0.243750X0.456250X-0.243750X0.456250X0*%
%ADD25RoundRect,0.250000X0.325000X1.100000X-0.325000X1.100000X-0.325000X-1.100000X0.325000X-1.100000X0*%
%ADD26RoundRect,0.250000X-0.325000X-1.100000X0.325000X-1.100000X0.325000X1.100000X-0.325000X1.100000X0*%
%ADD27RoundRect,0.200000X-0.275000X0.200000X-0.275000X-0.200000X0.275000X-0.200000X0.275000X0.200000X0*%
%ADD28C,1.440000*%
%ADD29RoundRect,0.243750X0.456250X-0.243750X0.456250X0.243750X-0.456250X0.243750X-0.456250X-0.243750X0*%
%ADD30RoundRect,0.250000X0.312500X1.075000X-0.312500X1.075000X-0.312500X-1.075000X0.312500X-1.075000X0*%
%ADD31RoundRect,0.050000X0.050000X-0.387500X0.050000X0.387500X-0.050000X0.387500X-0.050000X-0.387500X0*%
%ADD32RoundRect,0.050000X0.387500X-0.050000X0.387500X0.050000X-0.387500X0.050000X-0.387500X-0.050000X0*%
%ADD33R,2.600000X2.600000*%
%ADD34R,1.700000X1.700000*%
%ADD35O,1.700000X1.700000*%
%ADD36R,1.600000X1.600000*%
%ADD37O,1.600000X1.600000*%
G04 APERTURE END LIST*
D10*
%TO.C,Q5*%
X104908000Y-52528000D03*
D11*
X107188000Y-46228000D03*
D10*
X109468000Y-52528000D03*
%TD*%
D12*
%TO.C,H2*%
X117860000Y-54560000D03*
%TD*%
D13*
%TO.C,R13*%
X49740000Y-56935000D03*
X49740000Y-55285000D03*
%TD*%
D10*
%TO.C,Q1*%
X74809000Y-52460000D03*
D11*
X77089000Y-46160000D03*
D10*
X79369000Y-52460000D03*
%TD*%
D14*
%TO.C,R24*%
X120062500Y-57700000D03*
X117137500Y-57700000D03*
%TD*%
D15*
%TO.C,C10*%
X47100000Y-70575000D03*
X47100000Y-69025000D03*
%TD*%
D16*
%TO.C,D2*%
X81915000Y-56630000D03*
X81915000Y-59930000D03*
%TD*%
D17*
%TO.C,C8*%
X42680000Y-50300000D03*
X41130000Y-50300000D03*
%TD*%
D18*
%TO.C,R26*%
X60175000Y-73700000D03*
X58525000Y-73700000D03*
%TD*%
D19*
%TO.C,C15*%
X47450000Y-73700000D03*
X49350000Y-73700000D03*
%TD*%
D20*
%TO.C,R6*%
X116901500Y-44323000D03*
X119826500Y-44323000D03*
%TD*%
D21*
%TO.C,C11*%
X54625000Y-73700000D03*
X56175000Y-73700000D03*
%TD*%
D10*
%TO.C,Q6*%
X104908000Y-64678000D03*
D11*
X107188000Y-58378000D03*
D10*
X109468000Y-64678000D03*
%TD*%
D20*
%TO.C,R4*%
X96827500Y-54420000D03*
X99752500Y-54420000D03*
%TD*%
D15*
%TO.C,C12*%
X48900000Y-70575000D03*
X48900000Y-69025000D03*
%TD*%
%TO.C,C3*%
X97022000Y-51111000D03*
X97022000Y-49561000D03*
%TD*%
D22*
%TO.C,H10*%
X41170000Y-46390000D03*
%TD*%
D23*
%TO.C,D1*%
X85216000Y-47117000D03*
X81916000Y-47117000D03*
%TD*%
D14*
%TO.C,R22*%
X120062500Y-62300000D03*
X117137500Y-62300000D03*
%TD*%
D24*
%TO.C,D8*%
X45052500Y-44140000D03*
X46927500Y-44140000D03*
%TD*%
D15*
%TO.C,C6*%
X118870000Y-51625000D03*
X118870000Y-50075000D03*
%TD*%
D18*
%TO.C,R9*%
X46095000Y-50490000D03*
X44445000Y-50490000D03*
%TD*%
D20*
%TO.C,R2*%
X81617500Y-54220000D03*
X84542500Y-54220000D03*
%TD*%
D18*
%TO.C,R16*%
X62575000Y-65120000D03*
X60925000Y-65120000D03*
%TD*%
D25*
%TO.C,C21*%
X125515000Y-51820000D03*
X122565000Y-51820000D03*
%TD*%
D18*
%TO.C,R8*%
X46095000Y-53660000D03*
X44445000Y-53660000D03*
%TD*%
D26*
%TO.C,Cb16*%
X69065000Y-64860000D03*
X72015000Y-64860000D03*
%TD*%
D21*
%TO.C,C17*%
X60975000Y-63550000D03*
X62525000Y-63550000D03*
%TD*%
D27*
%TO.C,R14*%
X60950000Y-50375000D03*
X60950000Y-52025000D03*
%TD*%
D10*
%TO.C,Q3*%
X89923000Y-52504000D03*
D11*
X92203000Y-46204000D03*
D10*
X94483000Y-52504000D03*
%TD*%
D28*
%TO.C,RV1*%
X55499000Y-48387000D03*
X52959000Y-45847000D03*
X50419000Y-48387000D03*
%TD*%
D29*
%TO.C,D7*%
X59590000Y-44997500D03*
X59590000Y-43122500D03*
%TD*%
D27*
%TO.C,R7*%
X59370000Y-50405000D03*
X59370000Y-52055000D03*
%TD*%
D25*
%TO.C,C22*%
X125515000Y-55300000D03*
X122565000Y-55300000D03*
%TD*%
D30*
%TO.C,R5*%
X116905500Y-50419000D03*
X113980500Y-50419000D03*
%TD*%
D25*
%TO.C,C23*%
X125515000Y-58710000D03*
X122565000Y-58710000D03*
%TD*%
D14*
%TO.C,R20*%
X120052500Y-66920000D03*
X117127500Y-66920000D03*
%TD*%
D21*
%TO.C,C19*%
X60975000Y-57329000D03*
X62525000Y-57329000D03*
%TD*%
D31*
%TO.C,U1*%
X48000000Y-65337500D03*
X48400000Y-65337500D03*
X48800000Y-65337500D03*
X49200000Y-65337500D03*
X49600000Y-65337500D03*
X50000000Y-65337500D03*
X50400000Y-65337500D03*
D32*
X51137500Y-64600000D03*
X51137500Y-64200000D03*
X51137500Y-63800000D03*
X51137500Y-63400000D03*
X51137500Y-63000000D03*
X51137500Y-62600000D03*
X51137500Y-62200000D03*
D31*
X50400000Y-61462500D03*
X50000000Y-61462500D03*
X49600000Y-61462500D03*
X49200000Y-61462500D03*
X48800000Y-61462500D03*
X48400000Y-61462500D03*
X48000000Y-61462500D03*
D32*
X47262500Y-62200000D03*
X47262500Y-62600000D03*
X47262500Y-63000000D03*
X47262500Y-63400000D03*
X47262500Y-63800000D03*
X47262500Y-64200000D03*
X47262500Y-64600000D03*
D33*
X49200000Y-63400000D03*
%TD*%
D25*
%TO.C,Cb21*%
X125515000Y-62100000D03*
X122565000Y-62100000D03*
%TD*%
D10*
%TO.C,Q4*%
X89923000Y-64407000D03*
D11*
X92203000Y-58107000D03*
D10*
X94483000Y-64407000D03*
%TD*%
D14*
%TO.C,R23*%
X120062500Y-60000000D03*
X117137500Y-60000000D03*
%TD*%
D20*
%TO.C,R1*%
X84008500Y-50165000D03*
X86933500Y-50165000D03*
%TD*%
D21*
%TO.C,C18*%
X60975000Y-60430000D03*
X62525000Y-60430000D03*
%TD*%
D12*
%TO.C,H5*%
X113538000Y-71125000D03*
%TD*%
D18*
%TO.C,R17*%
X62575000Y-61980000D03*
X60925000Y-61980000D03*
%TD*%
D34*
%TO.C,J1*%
X63560000Y-54500000D03*
D35*
X63560000Y-51960000D03*
X66100000Y-54500000D03*
X66100000Y-51960000D03*
X68640000Y-54500000D03*
X68640000Y-51960000D03*
X71180000Y-54500000D03*
X71180000Y-51960000D03*
%TD*%
D14*
%TO.C,R21*%
X120062500Y-64600000D03*
X117137500Y-64600000D03*
%TD*%
D22*
%TO.C,H9*%
X125170000Y-46390000D03*
%TD*%
D24*
%TO.C,D9*%
X45022500Y-48450000D03*
X46897500Y-48450000D03*
%TD*%
D18*
%TO.C,R10*%
X46095000Y-52070000D03*
X44445000Y-52070000D03*
%TD*%
D15*
%TO.C,C1*%
X81915000Y-50813000D03*
X81915000Y-49263000D03*
%TD*%
D18*
%TO.C,R27*%
X52950000Y-73700000D03*
X51300000Y-73700000D03*
%TD*%
D23*
%TO.C,D5*%
X115315000Y-47498000D03*
X112015000Y-47498000D03*
%TD*%
D13*
%TO.C,R25*%
X45300000Y-70625000D03*
X45300000Y-68975000D03*
%TD*%
D25*
%TO.C,Cb23*%
X125465000Y-68910000D03*
X122515000Y-68910000D03*
%TD*%
D16*
%TO.C,D4*%
X97149000Y-56814000D03*
X97149000Y-60114000D03*
%TD*%
D17*
%TO.C,C9*%
X42695000Y-51900000D03*
X41145000Y-51900000D03*
%TD*%
D18*
%TO.C,R19*%
X102445000Y-66140000D03*
X100795000Y-66140000D03*
%TD*%
D25*
%TO.C,C16*%
X67235000Y-64860000D03*
X64285000Y-64860000D03*
%TD*%
D23*
%TO.C,D3*%
X100202000Y-47371000D03*
X96902000Y-47371000D03*
%TD*%
D25*
%TO.C,Cb22*%
X125515000Y-65490000D03*
X122565000Y-65490000D03*
%TD*%
D36*
%TO.C,U2*%
X57912000Y-71120000D03*
D37*
X55372000Y-71120000D03*
X57912000Y-68580000D03*
X55372000Y-68580000D03*
X57912000Y-66040000D03*
X55372000Y-66040000D03*
X57912000Y-63500000D03*
X55372000Y-63500000D03*
X57912000Y-60960000D03*
X55372000Y-60960000D03*
X57912000Y-58420000D03*
X55372000Y-58420000D03*
X57912000Y-55880000D03*
X55372000Y-55880000D03*
X42672000Y-55880000D03*
X40132000Y-55880000D03*
X42672000Y-58420000D03*
X40132000Y-58420000D03*
X42672000Y-60960000D03*
X40132000Y-60960000D03*
X42672000Y-63500000D03*
X40132000Y-63500000D03*
X42672000Y-66040000D03*
X40132000Y-66040000D03*
X42672000Y-68580000D03*
X40132000Y-68580000D03*
X42672000Y-71120000D03*
X40132000Y-71120000D03*
%TD*%
D23*
%TO.C,D6*%
X117095000Y-47498000D03*
X120395000Y-47498000D03*
%TD*%
D12*
%TO.C,H1*%
X113970000Y-54570000D03*
%TD*%
D10*
%TO.C,Q2*%
X74795000Y-64255000D03*
D11*
X77075000Y-57955000D03*
D10*
X79355000Y-64255000D03*
%TD*%
D34*
%TO.C,J2*%
X106235000Y-68030000D03*
D35*
X106235000Y-70570000D03*
X103695000Y-68030000D03*
X103695000Y-70570000D03*
X101155000Y-68030000D03*
X101155000Y-70570000D03*
X98615000Y-68030000D03*
X98615000Y-70570000D03*
X96075000Y-68030000D03*
X96075000Y-70570000D03*
X93535000Y-68030000D03*
X93535000Y-70570000D03*
X90995000Y-68030000D03*
X90995000Y-70570000D03*
X88455000Y-68030000D03*
X88455000Y-70570000D03*
X85915000Y-68030000D03*
X85915000Y-70570000D03*
X83375000Y-68030000D03*
X83375000Y-70570000D03*
X80835000Y-68030000D03*
X80835000Y-70570000D03*
X78295000Y-68030000D03*
X78295000Y-70570000D03*
X75755000Y-68030000D03*
X75755000Y-70570000D03*
X73215000Y-68030000D03*
X73215000Y-70570000D03*
X70675000Y-68030000D03*
X70675000Y-70570000D03*
X68135000Y-68030000D03*
X68135000Y-70570000D03*
X65595000Y-68030000D03*
X65595000Y-70570000D03*
X63055000Y-68030000D03*
X63055000Y-70570000D03*
%TD*%
D12*
%TO.C,H6*%
X117478000Y-71125000D03*
%TD*%
D13*
%TO.C,R12*%
X47550000Y-56965000D03*
X47550000Y-55315000D03*
%TD*%
D30*
%TO.C,R3*%
X102046500Y-50292000D03*
X99121500Y-50292000D03*
%TD*%
D15*
%TO.C,C4*%
X97149000Y-63303000D03*
X97149000Y-61753000D03*
%TD*%
D18*
%TO.C,R15*%
X43725000Y-73630000D03*
X42075000Y-73630000D03*
%TD*%
D15*
%TO.C,C2*%
X81915000Y-63119000D03*
X81915000Y-61569000D03*
%TD*%
D24*
%TO.C,D10*%
X45052500Y-46280000D03*
X46927500Y-46280000D03*
%TD*%
D27*
%TO.C,R11*%
X51680000Y-55285000D03*
X51680000Y-56935000D03*
%TD*%
D15*
%TO.C,C5*%
X111957000Y-51161000D03*
X111957000Y-49611000D03*
%TD*%
D18*
%TO.C,R18*%
X62575000Y-58890000D03*
X60925000Y-58890000D03*
%TD*%
D17*
%TO.C,C7*%
X42655000Y-53510000D03*
X41105000Y-53510000D03*
%TD*%
M02*
