%TF.GenerationSoftware,KiCad,Pcbnew,9.0.1*%
%TF.CreationDate,2025-10-19T14:59:18+02:00*%
%TF.ProjectId,MP6532_board_28-QFN,4d503635-3332-45f6-926f-6172645f3238,rev?*%
%TF.SameCoordinates,Original*%
%TF.FileFunction,Copper,L4,Bot*%
%TF.FilePolarity,Positive*%
%FSLAX46Y46*%
G04 Gerber Fmt 4.6, Leading zero omitted, Abs format (unit mm)*
G04 Created by KiCad (PCBNEW 9.0.1) date 2025-10-19 14:59:18*
%MOMM*%
%LPD*%
G01*
G04 APERTURE LIST*
%TA.AperFunction,ComponentPad*%
%ADD10C,2.400000*%
%TD*%
%TA.AperFunction,ComponentPad*%
%ADD11C,1.440000*%
%TD*%
%TA.AperFunction,ComponentPad*%
%ADD12C,0.500000*%
%TD*%
%TA.AperFunction,SMDPad,CuDef*%
%ADD13R,2.600000X2.600000*%
%TD*%
%TA.AperFunction,ComponentPad*%
%ADD14R,1.700000X1.700000*%
%TD*%
%TA.AperFunction,ComponentPad*%
%ADD15O,1.700000X1.700000*%
%TD*%
%TA.AperFunction,ComponentPad*%
%ADD16R,1.600000X1.600000*%
%TD*%
%TA.AperFunction,ComponentPad*%
%ADD17O,1.600000X1.600000*%
%TD*%
%TA.AperFunction,ViaPad*%
%ADD18C,0.800000*%
%TD*%
%TA.AperFunction,Conductor*%
%ADD19C,2.000000*%
%TD*%
%TA.AperFunction,Conductor*%
%ADD20C,1.000000*%
%TD*%
%TA.AperFunction,Conductor*%
%ADD21C,0.250000*%
%TD*%
G04 APERTURE END LIST*
D10*
%TO.P,H2,1,1*%
%TO.N,LSS*%
X117860000Y-54560000D03*
%TD*%
D11*
%TO.P,RV1,1,1*%
%TO.N,GND*%
X55499000Y-48387000D03*
%TO.P,RV1,2,2*%
%TO.N,/OCREF*%
X52959000Y-45847000D03*
%TO.P,RV1,3,3*%
%TO.N,Net-(R7-Pad1)*%
X50419000Y-48387000D03*
%TD*%
D12*
%TO.P,U1,29,TPAD*%
%TO.N,GND*%
X50250000Y-63400000D03*
X49200000Y-63400000D03*
X49200000Y-64450000D03*
D13*
X49200000Y-63400000D03*
D12*
X50250000Y-64450000D03*
X49200000Y-62350000D03*
X48150000Y-64450000D03*
X50250000Y-62350000D03*
X48150000Y-63400000D03*
X48150000Y-62350000D03*
%TD*%
D10*
%TO.P,H5,1,1*%
%TO.N,GND*%
X113538000Y-71125000D03*
%TD*%
D14*
%TO.P,J1,1,Pin_1*%
%TO.N,/HA*%
X63560000Y-54500000D03*
D15*
%TO.P,J1,2,Pin_2*%
%TO.N,HAIN*%
X63560000Y-51960000D03*
%TO.P,J1,3,Pin_3*%
%TO.N,HBIN*%
X66100000Y-54500000D03*
%TO.P,J1,4,Pin_4*%
%TO.N,/HB*%
X66100000Y-51960000D03*
%TO.P,J1,5,Pin_5*%
%TO.N,/HC*%
X68640000Y-54500000D03*
%TO.P,J1,6,Pin_6*%
%TO.N,HCIN*%
X68640000Y-51960000D03*
%TO.P,J1,7,Pin_7*%
%TO.N,HAIN*%
X71180000Y-54500000D03*
%TO.P,J1,8,Pin_8*%
%TO.N,/HA*%
X71180000Y-51960000D03*
%TD*%
D16*
%TO.P,U2,1,VREG*%
%TO.N,/VREG*%
X57912000Y-71120000D03*
D17*
%TO.P,U2,2,BSTA*%
%TO.N,/BSTA*%
X55372000Y-71120000D03*
%TO.P,U2,3,SHA*%
%TO.N,HAS*%
X57912000Y-68580000D03*
%TO.P,U2,4,GHA*%
%TO.N,/GHA*%
X55372000Y-68580000D03*
%TO.P,U2,5,GLA*%
%TO.N,/GLA*%
X57912000Y-66040000D03*
%TO.P,U2,6,BSTB*%
%TO.N,/BSTB*%
X55372000Y-66040000D03*
%TO.P,U2,7,SHB*%
%TO.N,HBS*%
X57912000Y-63500000D03*
%TO.P,U2,8,GHB*%
%TO.N,/GHB*%
X55372000Y-63500000D03*
%TO.P,U2,9,GLB*%
%TO.N,/GLB*%
X57912000Y-60960000D03*
%TO.P,U2,10,BSTC*%
%TO.N,/BSTC*%
X55372000Y-60960000D03*
%TO.P,U2,11,SHC*%
%TO.N,HCS*%
X57912000Y-58420000D03*
%TO.P,U2,12,GHC*%
%TO.N,/GHC*%
X55372000Y-58420000D03*
%TO.P,U2,13,GLC*%
%TO.N,/GLC*%
X57912000Y-55880000D03*
%TO.P,U2,14,LSS*%
%TO.N,LSS*%
X55372000Y-55880000D03*
%TO.P,U2,15,HC*%
%TO.N,Net-(C9-Pad1)*%
X42672000Y-55880000D03*
%TO.P,U2,16,HB*%
%TO.N,Net-(C8-Pad1)*%
X40132000Y-55880000D03*
%TO.P,U2,17,HA*%
%TO.N,Net-(C7-Pad1)*%
X42672000Y-58420000D03*
%TO.P,U2,18,nBRAKE*%
%TO.N,/nBRAKE*%
X40132000Y-58420000D03*
%TO.P,U2,19,PWM*%
%TO.N,/PWM*%
X42672000Y-60960000D03*
%TO.P,U2,20,DIR*%
%TO.N,/DIR*%
X40132000Y-60960000D03*
%TO.P,U2,21,nFAULT*%
%TO.N,/nFAULT*%
X42672000Y-63500000D03*
%TO.P,U2,22,nSLEEP*%
%TO.N,/nSLEEP*%
X40132000Y-63500000D03*
%TO.P,U2,23,OCREF*%
%TO.N,/OCREF*%
X42672000Y-66040000D03*
%TO.P,U2,24,DT*%
%TO.N,/DT*%
X40132000Y-66040000D03*
%TO.P,U2,25,GND*%
%TO.N,GND*%
X42672000Y-68580000D03*
%TO.P,U2,26,VIN*%
%TO.N,VIN*%
X40132000Y-68580000D03*
%TO.P,U2,27,CPA*%
%TO.N,/CPA*%
X42672000Y-71120000D03*
%TO.P,U2,28,CPB*%
%TO.N,/CPB*%
X40132000Y-71120000D03*
%TD*%
D10*
%TO.P,H1,1,1*%
%TO.N,LSS*%
X113970000Y-54570000D03*
%TD*%
D14*
%TO.P,J2,1,Pin_1*%
%TO.N,GND*%
X106235000Y-68030000D03*
D15*
%TO.P,J2,2,Pin_2*%
X106235000Y-70570000D03*
%TO.P,J2,3,Pin_3*%
X103695000Y-68030000D03*
%TO.P,J2,4,Pin_4*%
X103695000Y-70570000D03*
%TO.P,J2,5,Pin_5*%
%TO.N,Net-(J2-Pad5)*%
X101155000Y-68030000D03*
%TO.P,J2,6,Pin_6*%
%TO.N,GND*%
X101155000Y-70570000D03*
%TO.P,J2,7,Pin_7*%
%TO.N,HCS*%
X98615000Y-68030000D03*
%TO.P,J2,8,Pin_8*%
X98615000Y-70570000D03*
%TO.P,J2,9,Pin_9*%
X96075000Y-68030000D03*
%TO.P,J2,10,Pin_10*%
X96075000Y-70570000D03*
%TO.P,J2,11,Pin_11*%
%TO.N,HBS*%
X93535000Y-68030000D03*
%TO.P,J2,12,Pin_12*%
X93535000Y-70570000D03*
%TO.P,J2,13,Pin_13*%
X90995000Y-68030000D03*
%TO.P,J2,14,Pin_14*%
X90995000Y-70570000D03*
%TO.P,J2,15,Pin_15*%
%TO.N,VIN*%
X88455000Y-68030000D03*
%TO.P,J2,16,Pin_16*%
X88455000Y-70570000D03*
%TO.P,J2,17,Pin_17*%
X85915000Y-68030000D03*
%TO.P,J2,18,Pin_18*%
X85915000Y-70570000D03*
%TO.P,J2,19,Pin_19*%
X83375000Y-68030000D03*
%TO.P,J2,20,Pin_20*%
X83375000Y-70570000D03*
%TO.P,J2,21,Pin_21*%
%TO.N,HAS*%
X80835000Y-68030000D03*
%TO.P,J2,22,Pin_22*%
X80835000Y-70570000D03*
%TO.P,J2,23,Pin_23*%
X78295000Y-68030000D03*
%TO.P,J2,24,Pin_24*%
X78295000Y-70570000D03*
%TO.P,J2,25,Pin_25*%
%TO.N,GND*%
X75755000Y-68030000D03*
%TO.P,J2,26,Pin_26*%
X75755000Y-70570000D03*
%TO.P,J2,27,Pin_27*%
%TO.N,HCIN*%
X73215000Y-68030000D03*
%TO.P,J2,28,Pin_28*%
%TO.N,Net-(J2-Pad28)*%
X73215000Y-70570000D03*
%TO.P,J2,29,Pin_29*%
%TO.N,HBIN*%
X70675000Y-68030000D03*
%TO.P,J2,30,Pin_30*%
%TO.N,/nFAULT*%
X70675000Y-70570000D03*
%TO.P,J2,31,Pin_31*%
%TO.N,HAIN*%
X68135000Y-68030000D03*
%TO.P,J2,32,Pin_32*%
%TO.N,/PWM*%
X68135000Y-70570000D03*
%TO.P,J2,33,Pin_33*%
%TO.N,Net-(J2-Pad33)*%
X65595000Y-68030000D03*
%TO.P,J2,34,Pin_34*%
%TO.N,Net-(J2-Pad34)*%
X65595000Y-70570000D03*
%TO.P,J2,35,Pin_35*%
%TO.N,5V*%
X63055000Y-68030000D03*
%TO.P,J2,36,Pin_36*%
X63055000Y-70570000D03*
%TD*%
D10*
%TO.P,H6,1,1*%
%TO.N,GND*%
X117478000Y-71125000D03*
%TD*%
D18*
%TO.N,HAS*%
X77547989Y-52147989D03*
X72710000Y-61410000D03*
X71460000Y-58980000D03*
X75008680Y-55958680D03*
X77470000Y-57150000D03*
X76200000Y-59690000D03*
X65533884Y-60203063D03*
X74930000Y-59690000D03*
X78740000Y-58420000D03*
X74930000Y-58420000D03*
X77470000Y-59690000D03*
X76200000Y-57150000D03*
X78740000Y-59690000D03*
X70178176Y-59382112D03*
X78740000Y-57150000D03*
X77470000Y-58420000D03*
X77470000Y-55880000D03*
X76200000Y-55880000D03*
X72690000Y-58340000D03*
X74340000Y-62110000D03*
X77470000Y-53340000D03*
X71190000Y-60430000D03*
X72390000Y-59690000D03*
X76200000Y-58420000D03*
X78740000Y-55880000D03*
X74930000Y-57150000D03*
%TO.N,GND*%
X121390000Y-62090000D03*
X121440000Y-55290000D03*
X50100394Y-71024992D03*
X72070000Y-65040000D03*
X121420000Y-65510000D03*
X39780000Y-51830000D03*
X121330000Y-68900000D03*
X43770000Y-49000000D03*
X64285000Y-64860002D03*
X121470000Y-58700000D03*
X123530000Y-68900000D03*
X45900000Y-74700000D03*
X123590000Y-51820000D03*
X123530000Y-65480000D03*
X123570000Y-58700000D03*
X123620000Y-62150000D03*
X123610000Y-55320000D03*
X121470000Y-51750000D03*
X53100000Y-72400000D03*
%TO.N,LSS*%
X115600000Y-60000000D03*
X109460000Y-65260000D03*
X94550000Y-63960000D03*
X115500000Y-57200000D03*
X79355000Y-64755000D03*
X113660000Y-66080000D03*
X115500000Y-65700000D03*
X114500000Y-61100000D03*
X114400000Y-63400000D03*
X113300000Y-57000000D03*
X94580000Y-64980000D03*
X114500000Y-58700000D03*
X115600000Y-62300000D03*
X79370000Y-63660000D03*
X115600000Y-64500000D03*
X112180000Y-66120000D03*
X109460000Y-64240000D03*
%TO.N,VIN*%
X97790000Y-44450000D03*
X92710000Y-48260000D03*
X109220000Y-48260000D03*
X106680000Y-44450000D03*
X126850000Y-63080000D03*
X120200000Y-49200000D03*
X91440000Y-45720000D03*
X76200000Y-46990000D03*
X91440000Y-48260000D03*
X93980000Y-44450000D03*
X77470000Y-48260000D03*
X93980000Y-48260000D03*
X114300000Y-44450000D03*
X78740000Y-44450000D03*
X90170000Y-45720000D03*
X126850000Y-54690000D03*
X107950000Y-45720000D03*
X126850000Y-66520000D03*
X93980000Y-45720000D03*
X106680000Y-45720000D03*
X122030000Y-44160000D03*
X123680000Y-49530000D03*
X126380000Y-49720000D03*
X90170000Y-48260000D03*
X122570000Y-49200000D03*
X86360000Y-44450000D03*
X121460000Y-45810000D03*
X90170000Y-46990000D03*
X121390000Y-49200000D03*
X74930000Y-44450000D03*
X74930000Y-45720000D03*
X78740000Y-45720000D03*
X82550000Y-44450000D03*
X107950000Y-44450000D03*
X111760000Y-44450000D03*
X126820000Y-59580000D03*
X91440000Y-46990000D03*
X74930000Y-48260000D03*
X76200000Y-48260000D03*
X109220000Y-46990000D03*
X74930000Y-46990000D03*
X113030000Y-44450000D03*
X125030000Y-49770000D03*
X105410000Y-44450000D03*
X93980000Y-46990000D03*
X101600000Y-44450000D03*
X78740000Y-46990000D03*
X77470000Y-46990000D03*
X126820000Y-55990000D03*
X126850000Y-69730000D03*
X126790000Y-58010000D03*
X126790000Y-52840000D03*
X126790000Y-61490000D03*
X99060000Y-44450000D03*
X91440000Y-44450000D03*
X83820000Y-44450000D03*
X85090000Y-44450000D03*
X121480000Y-47350000D03*
X105410000Y-48260000D03*
X92710000Y-44450000D03*
X105410000Y-46990000D03*
X92710000Y-46990000D03*
X78740000Y-48260000D03*
X100330000Y-44450000D03*
X106680000Y-48260000D03*
X126850000Y-51530000D03*
X109220000Y-44450000D03*
X77470000Y-45720000D03*
X105410000Y-45720000D03*
X126850000Y-68200000D03*
X106680000Y-46990000D03*
X92710000Y-45720000D03*
X109220000Y-45720000D03*
X77470000Y-44450000D03*
X76200000Y-44450000D03*
X90170000Y-44450000D03*
X107950000Y-46990000D03*
X76200000Y-45720000D03*
X115570000Y-44450000D03*
X107950000Y-48260000D03*
X126820000Y-64900000D03*
%TO.N,Net-(C4-Pad2)*%
X91260000Y-63890000D03*
X98620000Y-60490000D03*
%TO.N,HBS*%
X93980000Y-59690000D03*
X91440000Y-59690000D03*
X91440000Y-55880000D03*
X64840000Y-59340000D03*
X92710000Y-59690000D03*
X93980000Y-58420000D03*
X69024174Y-59614559D03*
X92710000Y-58420000D03*
X93980000Y-55880000D03*
X93980000Y-57150000D03*
X91440000Y-58420000D03*
X90170000Y-57150000D03*
X90170000Y-59690000D03*
X92710000Y-55880000D03*
X92710000Y-53984500D03*
X92710000Y-57150000D03*
X92710000Y-52070000D03*
X90170000Y-58420000D03*
X90170000Y-55880000D03*
X91440000Y-57150000D03*
%TO.N,HCS*%
X101600000Y-59690000D03*
X105410000Y-57150000D03*
X106680000Y-57150000D03*
X101600000Y-58420000D03*
X105410000Y-55880000D03*
X109220000Y-58420000D03*
X109220000Y-55880000D03*
X68291799Y-58934388D03*
X107950000Y-53340000D03*
X102870000Y-59690000D03*
X105410000Y-59690000D03*
X107950000Y-57150000D03*
X101600000Y-57150000D03*
X109220000Y-59690000D03*
X109220000Y-57150000D03*
X106680000Y-58420000D03*
X107950000Y-52070000D03*
X107950000Y-55880000D03*
X102870000Y-55880000D03*
X102870000Y-58420000D03*
X106680000Y-59690000D03*
X107950000Y-59690000D03*
X107950000Y-58420000D03*
X106680000Y-55880000D03*
X102870000Y-57150000D03*
X64600000Y-58300000D03*
X105410000Y-58420000D03*
%TO.N,Net-(C6-Pad2)*%
X118067500Y-50150000D03*
X106060000Y-64660000D03*
%TO.N,Net-(D7-Pad2)*%
X61260000Y-43120000D03*
X61025000Y-48315000D03*
%TO.N,/GHA*%
X83439000Y-47244000D03*
%TO.N,/GLA*%
X69520000Y-62010500D03*
X81788000Y-57912000D03*
X66757477Y-61028667D03*
%TO.N,/GHB*%
X98425000Y-47371000D03*
X67573089Y-56554500D03*
X70300000Y-56500000D03*
%TO.N,/GLB*%
X64780000Y-60960000D03*
X68460000Y-62010500D03*
X97282000Y-58166000D03*
%TO.N,/GHC*%
X113665000Y-47371000D03*
X64919001Y-56378586D03*
X69301665Y-57499855D03*
%TO.N,/GLC*%
X68325214Y-57876374D03*
X60970000Y-54980000D03*
X118491000Y-46228000D03*
%TO.N,/HA*%
X47310000Y-53260000D03*
%TO.N,/HB*%
X47260000Y-50080000D03*
%TO.N,/HC*%
X47280000Y-51750000D03*
X49780000Y-51140000D03*
%TO.N,/nBRAKE*%
X46100000Y-67600000D03*
%TO.N,/DIR*%
X57300000Y-73400000D03*
%TO.N,/nFAULT*%
X59410000Y-45980000D03*
X38867700Y-49677700D03*
%TO.N,/nSLEEP*%
X47600000Y-67500000D03*
X51500000Y-71400000D03*
%TO.N,/DT*%
X38400000Y-71440000D03*
%TO.N,5V*%
X59370000Y-53310000D03*
%TO.N,Net-(C7-Pad1)*%
X43940000Y-55020000D03*
%TO.N,Net-(J2-Pad33)*%
X45300000Y-71400000D03*
%TD*%
D19*
%TO.N,GND*%
X101155000Y-70570000D02*
X101155000Y-73402081D01*
X51580000Y-74550000D02*
X49250000Y-72220000D01*
X49250000Y-57950000D02*
X52500000Y-54700000D01*
X101155000Y-73402081D02*
X99754081Y-74803000D01*
X77216000Y-74803000D02*
X75819000Y-73406000D01*
X52500000Y-54700000D02*
X52500000Y-51386000D01*
X52500000Y-51386000D02*
X55499000Y-48387000D01*
X99754081Y-74803000D02*
X77216000Y-74803000D01*
X75819000Y-73406000D02*
X75819000Y-72136000D01*
X49250000Y-69600000D02*
X49250000Y-69440000D01*
X75819000Y-72136000D02*
X75819000Y-68094000D01*
X75819000Y-73338081D02*
X74607081Y-74550000D01*
X75819000Y-72136000D02*
X75819000Y-73338081D01*
X75819000Y-68094000D02*
X75755000Y-68030000D01*
D20*
X74607081Y-74550000D02*
X51580000Y-74550000D01*
D19*
X49250000Y-72220000D02*
X49250000Y-69600000D01*
X49250000Y-69600000D02*
X49250000Y-57950000D01*
D21*
%TO.N,/DT*%
X40132000Y-66040000D02*
X38700000Y-67472000D01*
X38700000Y-67472000D02*
X38700000Y-71140000D01*
X38700000Y-71140000D02*
X38400000Y-71440000D01*
%TD*%
%TA.AperFunction,Conductor*%
%TO.N,GND*%
G36*
X122970243Y-50524460D02*
G01*
X123148475Y-50539854D01*
X123172947Y-50544438D01*
X123227871Y-50560478D01*
X123338644Y-50592828D01*
X123361741Y-50602137D01*
X123520242Y-50685077D01*
X123530989Y-50691396D01*
X123598311Y-50735607D01*
X123611081Y-50745206D01*
X123731353Y-50848156D01*
X123752758Y-50871789D01*
X123838721Y-50995019D01*
X123853509Y-51023269D01*
X123905784Y-51164131D01*
X123913006Y-51195189D01*
X123929064Y-51352689D01*
X123929674Y-51368651D01*
X123485355Y-68954304D01*
X123485355Y-68954305D01*
X123415081Y-71735620D01*
X123414119Y-71748296D01*
X123391159Y-71929262D01*
X123385440Y-71954005D01*
X123326663Y-72126679D01*
X123321965Y-72138491D01*
X123052959Y-72726552D01*
X123052959Y-72726553D01*
X122706238Y-73484499D01*
X122701142Y-73494445D01*
X122621753Y-73633825D01*
X122609026Y-73652173D01*
X122509864Y-73771053D01*
X122494097Y-73786866D01*
X122375512Y-73886370D01*
X122357202Y-73899151D01*
X122218039Y-73978956D01*
X122208107Y-73984080D01*
X120786654Y-74639345D01*
X120774549Y-74644183D01*
X120597520Y-74704513D01*
X120572139Y-74710320D01*
X120386500Y-74732974D01*
X120373497Y-74733882D01*
X102848324Y-75048274D01*
X102834261Y-75047740D01*
X102633303Y-75028833D01*
X102605793Y-75023097D01*
X102420763Y-74962332D01*
X102395207Y-74950641D01*
X102228241Y-74850372D01*
X102205913Y-74833307D01*
X102060211Y-74693624D01*
X102050612Y-74683333D01*
X101051583Y-73484499D01*
X100492254Y-72813305D01*
X100490187Y-72810756D01*
X100460210Y-72772768D01*
X100456210Y-72767410D01*
X100428323Y-72727905D01*
X100426456Y-72725184D01*
X100333430Y-72585645D01*
X100327088Y-72575037D01*
X100266256Y-72460906D01*
X100256821Y-72438044D01*
X100221256Y-72320193D01*
X100216472Y-72295940D01*
X100204013Y-72167214D01*
X100203428Y-72154851D01*
X100203469Y-72132708D01*
X100203817Y-71941921D01*
X100208689Y-69268719D01*
X100228815Y-69200638D01*
X100282556Y-69154243D01*
X100352848Y-69144267D01*
X100408751Y-69167017D01*
X100442986Y-69191891D01*
X100442988Y-69191892D01*
X100442991Y-69191894D01*
X100633517Y-69288972D01*
X100836878Y-69355047D01*
X100836879Y-69355047D01*
X100836884Y-69355049D01*
X101048084Y-69388500D01*
X101048087Y-69388500D01*
X101261913Y-69388500D01*
X101261916Y-69388500D01*
X101473116Y-69355049D01*
X101676483Y-69288972D01*
X101867009Y-69191894D01*
X102040004Y-69066206D01*
X102191206Y-68915004D01*
X102316894Y-68742009D01*
X102413972Y-68551483D01*
X102480049Y-68348116D01*
X102513500Y-68136916D01*
X102513500Y-67923084D01*
X102480049Y-67711884D01*
X102413972Y-67508517D01*
X102353615Y-67390061D01*
X102340512Y-67320286D01*
X102367212Y-67254502D01*
X102425240Y-67213595D01*
X102465460Y-67206862D01*
X106918608Y-67192237D01*
X106931287Y-67192837D01*
X107107697Y-67210144D01*
X107132624Y-67215168D01*
X107295827Y-67265645D01*
X107319237Y-67275571D01*
X107394109Y-67316680D01*
X107468979Y-67357789D01*
X107489920Y-67372214D01*
X107620105Y-67482823D01*
X107637724Y-67501160D01*
X107743047Y-67635655D01*
X107756624Y-67657154D01*
X107835656Y-67815792D01*
X107840750Y-67827458D01*
X108077000Y-68453000D01*
X108745649Y-68449694D01*
X108745664Y-68449695D01*
X108752025Y-68449663D01*
X108752028Y-68449664D01*
X113525267Y-68426071D01*
X118800000Y-68400000D01*
X119269321Y-57793335D01*
X119270513Y-57780748D01*
X119296663Y-57601195D01*
X119302789Y-57576695D01*
X119362074Y-57411949D01*
X119372962Y-57389169D01*
X119463913Y-57239562D01*
X119479131Y-57219403D01*
X119530247Y-57164205D01*
X119598093Y-57090944D01*
X119617020Y-57074230D01*
X119759223Y-56972074D01*
X119781107Y-56959470D01*
X119946628Y-56885125D01*
X119958392Y-56880536D01*
X120049046Y-56850318D01*
X120800000Y-56600000D01*
X121011023Y-51516760D01*
X121012314Y-51503266D01*
X121032546Y-51368651D01*
X121039418Y-51322927D01*
X121046296Y-51296743D01*
X121108882Y-51132736D01*
X121121197Y-51108627D01*
X121217387Y-50961784D01*
X121234572Y-50940861D01*
X121364804Y-50813183D01*
X121374966Y-50804241D01*
X121437848Y-50754646D01*
X121449075Y-50746744D01*
X121616316Y-50642207D01*
X121641037Y-50630281D01*
X121820412Y-50566766D01*
X121847123Y-50560479D01*
X122042882Y-50536481D01*
X122056571Y-50535556D01*
X122957785Y-50524003D01*
X122970243Y-50524460D01*
G37*
%TD.AperFunction*%
%TD*%
%TA.AperFunction,Conductor*%
%TO.N,LSS*%
G36*
X119940620Y-51150448D02*
G01*
X119987457Y-51203803D01*
X119999154Y-51259574D01*
X119964145Y-52898017D01*
X119913363Y-55274584D01*
X119912577Y-55286204D01*
X119893590Y-55452285D01*
X119888823Y-55475059D01*
X119841346Y-55629215D01*
X119832474Y-55650725D01*
X119757463Y-55793518D01*
X119744786Y-55813031D01*
X119644792Y-55939602D01*
X119628744Y-55956449D01*
X119507189Y-56062469D01*
X119488315Y-56076080D01*
X119344282Y-56160917D01*
X119333986Y-56166357D01*
X118200000Y-56700000D01*
X118200000Y-66589835D01*
X118199390Y-66602216D01*
X118181911Y-66779233D01*
X118177068Y-66803517D01*
X118127122Y-66967728D01*
X118117624Y-66990596D01*
X118036523Y-67141876D01*
X118022735Y-67162445D01*
X117913617Y-67294937D01*
X117896073Y-67312412D01*
X117763147Y-67421008D01*
X117742524Y-67434714D01*
X117590929Y-67515215D01*
X117568030Y-67524620D01*
X117403611Y-67573920D01*
X117379311Y-67578666D01*
X117202226Y-67595445D01*
X117189843Y-67596006D01*
X113714213Y-67582267D01*
X110856482Y-67570970D01*
X110842181Y-67570099D01*
X110680512Y-67550978D01*
X110652667Y-67544414D01*
X110587705Y-67521049D01*
X110506272Y-67491759D01*
X110480624Y-67479082D01*
X110349884Y-67394760D01*
X110327758Y-67376625D01*
X110219407Y-67264980D01*
X110201942Y-67242321D01*
X110121567Y-67109107D01*
X110109670Y-67083105D01*
X110061417Y-66935191D01*
X110055692Y-66907172D01*
X110042052Y-66752186D01*
X110042795Y-66723591D01*
X110064467Y-66569527D01*
X110071643Y-66541836D01*
X110127513Y-66396631D01*
X110140746Y-66371279D01*
X110231990Y-66236426D01*
X110240658Y-66225065D01*
X111379000Y-64897000D01*
X111265883Y-62182193D01*
X111266029Y-62168941D01*
X111278133Y-61979062D01*
X111282584Y-61952967D01*
X111332310Y-61776230D01*
X111342118Y-61751644D01*
X111430807Y-61583291D01*
X111437575Y-61571937D01*
X111513213Y-61459012D01*
X111513213Y-61459010D01*
X111517920Y-61451984D01*
X111517922Y-61451978D01*
X111680000Y-61210000D01*
X111730343Y-54746269D01*
X111730553Y-54739934D01*
X111735966Y-54647858D01*
X111737370Y-54635110D01*
X111738494Y-54628166D01*
X111752114Y-54544080D01*
X111753290Y-54537832D01*
X112105395Y-52898017D01*
X112120000Y-52830000D01*
X112179513Y-52011686D01*
X112181195Y-51998397D01*
X112211533Y-51830873D01*
X112219081Y-51805174D01*
X112281584Y-51654092D01*
X112294395Y-51630576D01*
X112387435Y-51496136D01*
X112404939Y-51475851D01*
X112524301Y-51364136D01*
X112545702Y-51348011D01*
X112685987Y-51264071D01*
X112710307Y-51252838D01*
X112865183Y-51200463D01*
X112891327Y-51194629D01*
X113060505Y-51175432D01*
X113073873Y-51174633D01*
X119872372Y-51130885D01*
X119940620Y-51150448D01*
G37*
%TD.AperFunction*%
%TD*%
%TA.AperFunction,Conductor*%
%TO.N,VIN*%
G36*
X99040965Y-42906417D02*
G01*
X125257421Y-43018493D01*
X125271362Y-43019327D01*
X125360939Y-43029690D01*
X125470380Y-43042353D01*
X125497561Y-43048605D01*
X125679994Y-43112526D01*
X125705133Y-43124606D01*
X125875004Y-43230833D01*
X125886414Y-43238880D01*
X126133665Y-43434667D01*
X126520760Y-43741190D01*
X127470465Y-44493219D01*
X127480251Y-44501828D01*
X127614069Y-44632431D01*
X127630718Y-44652437D01*
X127731196Y-44802314D01*
X127743378Y-44825315D01*
X127810907Y-44992630D01*
X127818104Y-45017647D01*
X127850962Y-45201724D01*
X127852586Y-45214656D01*
X128127005Y-48959137D01*
X128127163Y-48961631D01*
X128129079Y-48997533D01*
X128129246Y-49002538D01*
X128129733Y-49038418D01*
X128129743Y-49040915D01*
X128114373Y-51500349D01*
X128001082Y-69626676D01*
X128000580Y-69637152D01*
X127987121Y-69787115D01*
X127983518Y-69807760D01*
X127945388Y-69953420D01*
X127942312Y-69963447D01*
X127636347Y-70830348D01*
X127631448Y-70842251D01*
X127552539Y-71009217D01*
X127539240Y-71031220D01*
X127431977Y-71173526D01*
X127414488Y-71192370D01*
X127280577Y-71309939D01*
X127259627Y-71324843D01*
X127104634Y-71412785D01*
X127081096Y-71423124D01*
X126911485Y-71477774D01*
X126886337Y-71483121D01*
X126702721Y-71502899D01*
X126689870Y-71503622D01*
X125692348Y-71508712D01*
X125677256Y-71507883D01*
X125461966Y-71483031D01*
X125432622Y-71476006D01*
X125346771Y-71444182D01*
X125229422Y-71400683D01*
X125215591Y-71394589D01*
X125097604Y-71333910D01*
X125082994Y-71325097D01*
X124959408Y-71238615D01*
X124934409Y-71215506D01*
X124843991Y-71105752D01*
X124826088Y-71076782D01*
X124768369Y-70946827D01*
X124758878Y-70914119D01*
X124736808Y-70764912D01*
X124735460Y-70747897D01*
X124724733Y-69797589D01*
X124500000Y-49890000D01*
X123509102Y-49892129D01*
X123509100Y-49892129D01*
X123494391Y-49892160D01*
X119032485Y-49901747D01*
X118964321Y-49881891D01*
X118917713Y-49828335D01*
X118915805Y-49823965D01*
X118872602Y-49719664D01*
X118773178Y-49570865D01*
X118646635Y-49444322D01*
X118497836Y-49344898D01*
X118380929Y-49296473D01*
X118332503Y-49276414D01*
X118332501Y-49276413D01*
X118332500Y-49276413D01*
X118239142Y-49257843D01*
X118156981Y-49241500D01*
X118156979Y-49241500D01*
X117978021Y-49241500D01*
X117978018Y-49241500D01*
X117847271Y-49267507D01*
X117802500Y-49276413D01*
X117802499Y-49276413D01*
X117802496Y-49276414D01*
X117637162Y-49344899D01*
X117488369Y-49444319D01*
X117488362Y-49444324D01*
X117361824Y-49570862D01*
X117361819Y-49570869D01*
X117262397Y-49719664D01*
X117262395Y-49719669D01*
X117217474Y-49828116D01*
X117172926Y-49883397D01*
X117105562Y-49905817D01*
X117101337Y-49905897D01*
X112029177Y-49916796D01*
X112028165Y-49916794D01*
X112013548Y-49916708D01*
X112011536Y-49916680D01*
X111996892Y-49916357D01*
X111996002Y-49916334D01*
X103387475Y-49657285D01*
X103387410Y-49657281D01*
X103378021Y-49656999D01*
X96393006Y-49530000D01*
X96393002Y-49530000D01*
X96393000Y-49530000D01*
X89281000Y-49657000D01*
X89280999Y-49657000D01*
X88265000Y-54736995D01*
X88265000Y-54736997D01*
X88187611Y-58761253D01*
X88138000Y-61341000D01*
X88147300Y-61392504D01*
X88157237Y-61447533D01*
X88157240Y-61447543D01*
X89350420Y-68054814D01*
X89351574Y-68062588D01*
X89364696Y-68175139D01*
X89365538Y-68190882D01*
X89364500Y-68304171D01*
X89364181Y-68312053D01*
X89281000Y-69469001D01*
X89294120Y-71092488D01*
X89296439Y-71379455D01*
X89295883Y-71392338D01*
X89278460Y-71576535D01*
X89273426Y-71601795D01*
X89220825Y-71772392D01*
X89210760Y-71796102D01*
X89124561Y-71952448D01*
X89109885Y-71973614D01*
X88989475Y-72114088D01*
X88980592Y-72123437D01*
X88796331Y-72298483D01*
X88787206Y-72306357D01*
X88650973Y-72412978D01*
X88630676Y-72425941D01*
X88482043Y-72501936D01*
X88459652Y-72510799D01*
X88299283Y-72557126D01*
X88275616Y-72561568D01*
X88103329Y-72577084D01*
X88091284Y-72577590D01*
X83721093Y-72551832D01*
X83708689Y-72551146D01*
X83531389Y-72532545D01*
X83507081Y-72527537D01*
X83342829Y-72476399D01*
X83319976Y-72466725D01*
X83163450Y-72381394D01*
X83152848Y-72374917D01*
X82930905Y-72223807D01*
X82920789Y-72216145D01*
X82781351Y-72099051D01*
X82763677Y-72080880D01*
X82654466Y-71943247D01*
X82640791Y-71921913D01*
X82561330Y-71765189D01*
X82552203Y-71741550D01*
X82505724Y-71572103D01*
X82501512Y-71547109D01*
X82498581Y-71502899D01*
X82489465Y-71365417D01*
X82489265Y-71352747D01*
X82490451Y-71318467D01*
X82550000Y-69596000D01*
X82550000Y-66929000D01*
X81367809Y-64328180D01*
X81363120Y-64316297D01*
X81304537Y-64142512D01*
X81298875Y-64117622D01*
X81276524Y-63935569D01*
X81275613Y-63922844D01*
X81170320Y-58829768D01*
X81188910Y-58761253D01*
X81241593Y-58713661D01*
X81311643Y-58702107D01*
X81351898Y-58714847D01*
X81351946Y-58714733D01*
X81353273Y-58715283D01*
X81355694Y-58716049D01*
X81357659Y-58717099D01*
X81357660Y-58717099D01*
X81357664Y-58717102D01*
X81523000Y-58785587D01*
X81698521Y-58820500D01*
X81698522Y-58820500D01*
X81877478Y-58820500D01*
X81877479Y-58820500D01*
X82053000Y-58785587D01*
X82218336Y-58717102D01*
X82367135Y-58617678D01*
X82493678Y-58491135D01*
X82593102Y-58342336D01*
X82661587Y-58177000D01*
X82696500Y-58001479D01*
X82696500Y-57822521D01*
X82661587Y-57647000D01*
X82593102Y-57481664D01*
X82493678Y-57332865D01*
X82367135Y-57206322D01*
X82218336Y-57106898D01*
X82101429Y-57058473D01*
X82053003Y-57038414D01*
X82053001Y-57038413D01*
X82053000Y-57038413D01*
X81964645Y-57020838D01*
X81877481Y-57003500D01*
X81877479Y-57003500D01*
X81698521Y-57003500D01*
X81698518Y-57003500D01*
X81567771Y-57029507D01*
X81523000Y-57038413D01*
X81522999Y-57038413D01*
X81522996Y-57038414D01*
X81357660Y-57106899D01*
X81328959Y-57126077D01*
X81261206Y-57147291D01*
X81192739Y-57128507D01*
X81145297Y-57075689D01*
X81132987Y-57023919D01*
X81018822Y-51501717D01*
X81018796Y-51499007D01*
X81018879Y-51457799D01*
X81019021Y-51452097D01*
X81020965Y-51411113D01*
X81021132Y-51408258D01*
X81086018Y-50484066D01*
X81086018Y-50484045D01*
X81153000Y-49530000D01*
X81152999Y-49530000D01*
X75137017Y-49530000D01*
X75124962Y-49529422D01*
X74952564Y-49512852D01*
X74928896Y-49508260D01*
X74768632Y-49460879D01*
X74746273Y-49451864D01*
X74731748Y-49444319D01*
X74597959Y-49374822D01*
X74577734Y-49361717D01*
X74556537Y-49344899D01*
X74446816Y-49257843D01*
X74429451Y-49241122D01*
X74320711Y-49114210D01*
X74306850Y-49094488D01*
X74224271Y-48949186D01*
X74214420Y-48927184D01*
X74161028Y-48768815D01*
X74155550Y-48745349D01*
X74132491Y-48573693D01*
X74131459Y-48561669D01*
X74119339Y-48240500D01*
X74078359Y-47154518D01*
X82530500Y-47154518D01*
X82530500Y-47154521D01*
X82530500Y-47333479D01*
X82565413Y-47509000D01*
X82633898Y-47674336D01*
X82733322Y-47823135D01*
X82859865Y-47949678D01*
X83008664Y-48049102D01*
X83174000Y-48117587D01*
X83349521Y-48152500D01*
X83349522Y-48152500D01*
X83528478Y-48152500D01*
X83528479Y-48152500D01*
X83704000Y-48117587D01*
X83869336Y-48049102D01*
X84018135Y-47949678D01*
X84144678Y-47823135D01*
X84244102Y-47674336D01*
X84312587Y-47509000D01*
X84347500Y-47333479D01*
X84347500Y-47281518D01*
X97516500Y-47281518D01*
X97516500Y-47281521D01*
X97516500Y-47460479D01*
X97551413Y-47636000D01*
X97619898Y-47801336D01*
X97719322Y-47950135D01*
X97845865Y-48076678D01*
X97994664Y-48176102D01*
X98160000Y-48244587D01*
X98335521Y-48279500D01*
X98335522Y-48279500D01*
X98514478Y-48279500D01*
X98514479Y-48279500D01*
X98690000Y-48244587D01*
X98855336Y-48176102D01*
X99004135Y-48076678D01*
X99130678Y-47950135D01*
X99230102Y-47801336D01*
X99298587Y-47636000D01*
X99333500Y-47460479D01*
X99333500Y-47281521D01*
X99333499Y-47281518D01*
X112756500Y-47281518D01*
X112756500Y-47281521D01*
X112756500Y-47460479D01*
X112791413Y-47636000D01*
X112859898Y-47801336D01*
X112959322Y-47950135D01*
X113085865Y-48076678D01*
X113234664Y-48176102D01*
X113400000Y-48244587D01*
X113575521Y-48279500D01*
X113575522Y-48279500D01*
X113754478Y-48279500D01*
X113754479Y-48279500D01*
X113930000Y-48244587D01*
X114095336Y-48176102D01*
X114244135Y-48076678D01*
X114370678Y-47950135D01*
X114470102Y-47801336D01*
X114538587Y-47636000D01*
X114573500Y-47460479D01*
X114573500Y-47281521D01*
X114538587Y-47106000D01*
X114470102Y-46940664D01*
X114370678Y-46791865D01*
X114244135Y-46665322D01*
X114095336Y-46565898D01*
X113963480Y-46511281D01*
X113930003Y-46497414D01*
X113930001Y-46497413D01*
X113930000Y-46497413D01*
X113841645Y-46479838D01*
X113754481Y-46462500D01*
X113754479Y-46462500D01*
X113575521Y-46462500D01*
X113575518Y-46462500D01*
X113444771Y-46488507D01*
X113400000Y-46497413D01*
X113399999Y-46497413D01*
X113399996Y-46497414D01*
X113234662Y-46565899D01*
X113085869Y-46665319D01*
X113085862Y-46665324D01*
X112959324Y-46791862D01*
X112959319Y-46791869D01*
X112859899Y-46940662D01*
X112791414Y-47105996D01*
X112756500Y-47281518D01*
X99333499Y-47281518D01*
X99298587Y-47106000D01*
X99230102Y-46940664D01*
X99130678Y-46791865D01*
X99004135Y-46665322D01*
X98855336Y-46565898D01*
X98723480Y-46511281D01*
X98690003Y-46497414D01*
X98690001Y-46497413D01*
X98690000Y-46497413D01*
X98601645Y-46479838D01*
X98514481Y-46462500D01*
X98514479Y-46462500D01*
X98335521Y-46462500D01*
X98335518Y-46462500D01*
X98204771Y-46488507D01*
X98160000Y-46497413D01*
X98159999Y-46497413D01*
X98159996Y-46497414D01*
X97994662Y-46565899D01*
X97845869Y-46665319D01*
X97845862Y-46665324D01*
X97719324Y-46791862D01*
X97719319Y-46791869D01*
X97619899Y-46940662D01*
X97551414Y-47105996D01*
X97516500Y-47281518D01*
X84347500Y-47281518D01*
X84347500Y-47154521D01*
X84312587Y-46979000D01*
X84244102Y-46813664D01*
X84144678Y-46664865D01*
X84018135Y-46538322D01*
X83869336Y-46438898D01*
X83752429Y-46390473D01*
X83704003Y-46370414D01*
X83704001Y-46370413D01*
X83704000Y-46370413D01*
X83615645Y-46352838D01*
X83528481Y-46335500D01*
X83528479Y-46335500D01*
X83349521Y-46335500D01*
X83349518Y-46335500D01*
X83218771Y-46361507D01*
X83174000Y-46370413D01*
X83173999Y-46370413D01*
X83173996Y-46370414D01*
X83008662Y-46438899D01*
X82859869Y-46538319D01*
X82859862Y-46538324D01*
X82733324Y-46664862D01*
X82733319Y-46664869D01*
X82633899Y-46813662D01*
X82565414Y-46978996D01*
X82530500Y-47154518D01*
X74078359Y-47154518D01*
X74040019Y-46138518D01*
X117582500Y-46138518D01*
X117582500Y-46317481D01*
X117593029Y-46370413D01*
X117617413Y-46493000D01*
X117685898Y-46658336D01*
X117785322Y-46807135D01*
X117911865Y-46933678D01*
X118060664Y-47033102D01*
X118226000Y-47101587D01*
X118401521Y-47136500D01*
X118401522Y-47136500D01*
X118580478Y-47136500D01*
X118580479Y-47136500D01*
X118756000Y-47101587D01*
X118921336Y-47033102D01*
X119070135Y-46933678D01*
X119196678Y-46807135D01*
X119296102Y-46658336D01*
X119364587Y-46493000D01*
X119399500Y-46317479D01*
X119399500Y-46268709D01*
X123319500Y-46268709D01*
X123319500Y-46511290D01*
X123351160Y-46751782D01*
X123413944Y-46986095D01*
X123413945Y-46986097D01*
X123413946Y-46986100D01*
X123506776Y-47210212D01*
X123506777Y-47210213D01*
X123506782Y-47210224D01*
X123628061Y-47420285D01*
X123628063Y-47420288D01*
X123628064Y-47420289D01*
X123775735Y-47612738D01*
X123775739Y-47612742D01*
X123775744Y-47612748D01*
X123947251Y-47784255D01*
X123947256Y-47784259D01*
X123947262Y-47784265D01*
X124139711Y-47931936D01*
X124139714Y-47931938D01*
X124349775Y-48053217D01*
X124349779Y-48053218D01*
X124349788Y-48053224D01*
X124573900Y-48146054D01*
X124808211Y-48208838D01*
X124808215Y-48208838D01*
X124808217Y-48208839D01*
X124870202Y-48216999D01*
X125048712Y-48240500D01*
X125048719Y-48240500D01*
X125291281Y-48240500D01*
X125291288Y-48240500D01*
X125508637Y-48211885D01*
X125531782Y-48208839D01*
X125531782Y-48208838D01*
X125531789Y-48208838D01*
X125766100Y-48146054D01*
X125990212Y-48053224D01*
X126200289Y-47931936D01*
X126392738Y-47784265D01*
X126564265Y-47612738D01*
X126711936Y-47420289D01*
X126833224Y-47210212D01*
X126926054Y-46986100D01*
X126988838Y-46751789D01*
X127020500Y-46511288D01*
X127020500Y-46268712D01*
X126988838Y-46028211D01*
X126926054Y-45793900D01*
X126833224Y-45569788D01*
X126833218Y-45569779D01*
X126833217Y-45569775D01*
X126711938Y-45359714D01*
X126707871Y-45354414D01*
X126564265Y-45167262D01*
X126564259Y-45167256D01*
X126564255Y-45167251D01*
X126392748Y-44995744D01*
X126392742Y-44995739D01*
X126392738Y-44995735D01*
X126200289Y-44848064D01*
X126200288Y-44848063D01*
X126200285Y-44848061D01*
X125990224Y-44726782D01*
X125990216Y-44726778D01*
X125990212Y-44726776D01*
X125766100Y-44633946D01*
X125766097Y-44633945D01*
X125766095Y-44633944D01*
X125531782Y-44571160D01*
X125291290Y-44539500D01*
X125291288Y-44539500D01*
X125048712Y-44539500D01*
X125048709Y-44539500D01*
X124808217Y-44571160D01*
X124573904Y-44633944D01*
X124573900Y-44633946D01*
X124349786Y-44726777D01*
X124349775Y-44726782D01*
X124139714Y-44848061D01*
X123947262Y-44995735D01*
X123947251Y-44995744D01*
X123775744Y-45167251D01*
X123775735Y-45167262D01*
X123628061Y-45359714D01*
X123506782Y-45569775D01*
X123506777Y-45569786D01*
X123413946Y-45793900D01*
X123413944Y-45793904D01*
X123351160Y-46028217D01*
X123319500Y-46268709D01*
X119399500Y-46268709D01*
X119399500Y-46138521D01*
X119364587Y-45963000D01*
X119296102Y-45797664D01*
X119196678Y-45648865D01*
X119070135Y-45522322D01*
X118921336Y-45422898D01*
X118768798Y-45359714D01*
X118756003Y-45354414D01*
X118756001Y-45354413D01*
X118756000Y-45354413D01*
X118667645Y-45336838D01*
X118580481Y-45319500D01*
X118580479Y-45319500D01*
X118401521Y-45319500D01*
X118401518Y-45319500D01*
X118270771Y-45345507D01*
X118226000Y-45354413D01*
X118225999Y-45354413D01*
X118225996Y-45354414D01*
X118060662Y-45422899D01*
X117911869Y-45522319D01*
X117911862Y-45522324D01*
X117785324Y-45648862D01*
X117785319Y-45648869D01*
X117685899Y-45797662D01*
X117617414Y-45962996D01*
X117582500Y-46138518D01*
X74040019Y-46138518D01*
X73953566Y-43847495D01*
X73953726Y-43834828D01*
X73965210Y-43653014D01*
X73969345Y-43628008D01*
X74015331Y-43458343D01*
X74024388Y-43434674D01*
X74103411Y-43277663D01*
X74117032Y-43256275D01*
X74137101Y-43230833D01*
X74225896Y-43118264D01*
X74243519Y-43100043D01*
X74377809Y-42986629D01*
X74398726Y-42972302D01*
X74553006Y-42888074D01*
X74576367Y-42878227D01*
X74744396Y-42826594D01*
X74769251Y-42821626D01*
X74950557Y-42804070D01*
X74963232Y-42803485D01*
X99040965Y-42906417D01*
G37*
%TD.AperFunction*%
%TD*%
%TA.AperFunction,Conductor*%
%TO.N,HAS*%
G36*
X79404008Y-50157427D02*
G01*
X79580483Y-50193379D01*
X79605266Y-50201161D01*
X79770617Y-50272548D01*
X79793283Y-50285252D01*
X79940467Y-50389031D01*
X79960046Y-50406114D01*
X80025260Y-50476107D01*
X80082819Y-50537883D01*
X80098473Y-50558614D01*
X80163266Y-50665856D01*
X80191605Y-50712761D01*
X80202677Y-50736267D01*
X80262210Y-50906240D01*
X80268225Y-50931518D01*
X80292479Y-51116583D01*
X80293501Y-51129552D01*
X80370500Y-53978521D01*
X80390804Y-54729737D01*
X80390815Y-54730177D01*
X80390965Y-54736552D01*
X80390982Y-54737399D01*
X80391090Y-54743825D01*
X80391094Y-54744107D01*
X80394793Y-55021478D01*
X80399163Y-55349278D01*
X80507019Y-63438439D01*
X80487927Y-63506821D01*
X80434896Y-63554025D01*
X80364763Y-63565064D01*
X80299794Y-63536435D01*
X80260618Y-63477226D01*
X80257451Y-63464701D01*
X80243587Y-63395000D01*
X80175102Y-63229664D01*
X80075678Y-63080865D01*
X79949135Y-62954322D01*
X79800336Y-62854898D01*
X79667312Y-62799797D01*
X79635003Y-62786414D01*
X79635001Y-62786413D01*
X79635000Y-62786413D01*
X79546645Y-62768838D01*
X79459481Y-62751500D01*
X79459479Y-62751500D01*
X79280521Y-62751500D01*
X79280518Y-62751500D01*
X79149771Y-62777507D01*
X79105000Y-62786413D01*
X79104999Y-62786413D01*
X79104996Y-62786414D01*
X78939662Y-62854899D01*
X78790869Y-62954319D01*
X78790862Y-62954324D01*
X78664324Y-63080862D01*
X78664319Y-63080869D01*
X78564899Y-63229662D01*
X78496414Y-63394996D01*
X78461500Y-63570518D01*
X78461500Y-63749481D01*
X78464540Y-63764763D01*
X78494756Y-63916672D01*
X78496414Y-63925003D01*
X78564898Y-64090336D01*
X78588911Y-64126274D01*
X78610125Y-64194027D01*
X78591341Y-64262494D01*
X78588911Y-64266276D01*
X78549898Y-64324663D01*
X78481414Y-64489996D01*
X78446500Y-64665518D01*
X78446500Y-64665521D01*
X78446500Y-64844479D01*
X78481413Y-65020000D01*
X78549898Y-65185336D01*
X78649322Y-65334135D01*
X78775865Y-65460678D01*
X78924664Y-65560102D01*
X79090000Y-65628587D01*
X79265521Y-65663500D01*
X79265522Y-65663500D01*
X79444478Y-65663500D01*
X79444479Y-65663500D01*
X79620000Y-65628587D01*
X79785336Y-65560102D01*
X79934135Y-65460678D01*
X80060678Y-65334135D01*
X80160102Y-65185336D01*
X80228587Y-65020000D01*
X80263500Y-64844479D01*
X80263500Y-64665521D01*
X80228587Y-64490000D01*
X80160102Y-64324664D01*
X80136089Y-64288726D01*
X80114874Y-64220973D01*
X80133657Y-64152506D01*
X80136090Y-64148721D01*
X80164374Y-64106391D01*
X80175102Y-64090336D01*
X80243587Y-63925000D01*
X80262946Y-63827671D01*
X80295853Y-63764763D01*
X80357548Y-63729631D01*
X80428443Y-63733431D01*
X80486029Y-63774957D01*
X80512023Y-63841023D01*
X80512514Y-63850574D01*
X80517999Y-64261999D01*
X80518000Y-64262000D01*
X80613445Y-64460844D01*
X80613447Y-64460849D01*
X81093364Y-65460675D01*
X81928070Y-67199646D01*
X81933983Y-67214237D01*
X82005505Y-67428275D01*
X82011670Y-67459088D01*
X82028005Y-67684177D01*
X82028161Y-67699919D01*
X81915000Y-69849991D01*
X81914709Y-69857918D01*
X81855428Y-71470347D01*
X81854370Y-71482654D01*
X81830543Y-71658308D01*
X81824847Y-71682318D01*
X81769266Y-71844072D01*
X81759001Y-71866511D01*
X81672958Y-72014334D01*
X81658517Y-72034341D01*
X81541198Y-72167223D01*
X81532578Y-72176072D01*
X81415284Y-72285220D01*
X81406191Y-72292912D01*
X81270625Y-72397017D01*
X81250468Y-72409664D01*
X81103084Y-72483742D01*
X81080909Y-72492372D01*
X80922232Y-72537418D01*
X80898830Y-72541726D01*
X80728552Y-72556659D01*
X80716650Y-72557138D01*
X78581390Y-72541995D01*
X78570109Y-72541408D01*
X78408730Y-72525741D01*
X78386548Y-72521557D01*
X78235996Y-72478889D01*
X78214920Y-72470814D01*
X78069303Y-72399476D01*
X78059391Y-72394056D01*
X77972040Y-72341073D01*
X77960043Y-72332812D01*
X77814821Y-72219896D01*
X77794075Y-72199513D01*
X77683225Y-72062030D01*
X77667705Y-72037433D01*
X77588157Y-71871582D01*
X77582627Y-71858107D01*
X77577795Y-71844072D01*
X77534755Y-71719050D01*
X77531840Y-71709321D01*
X77495560Y-71567649D01*
X77492121Y-71547594D01*
X77479126Y-71401938D01*
X77478632Y-71391795D01*
X77466162Y-69857912D01*
X77460000Y-69100000D01*
X77335725Y-68773137D01*
X77327500Y-68728358D01*
X77327500Y-68217939D01*
X77327501Y-68217914D01*
X77327501Y-67975281D01*
X77327501Y-67975278D01*
X77290357Y-67740759D01*
X77216982Y-67514937D01*
X77181699Y-67445691D01*
X77109185Y-67303373D01*
X77106306Y-67299411D01*
X77033823Y-67199646D01*
X76969620Y-67111278D01*
X76969617Y-67111275D01*
X76969615Y-67111272D01*
X76798588Y-66940245D01*
X76798559Y-66940218D01*
X76737721Y-66879380D01*
X76599511Y-66778964D01*
X76556158Y-66722743D01*
X76555882Y-66722027D01*
X76200000Y-65786000D01*
X72378120Y-62577603D01*
X69764823Y-60383789D01*
X69755910Y-60375543D01*
X69739684Y-60359010D01*
X69706244Y-60296381D01*
X69711972Y-60225616D01*
X69727230Y-60199386D01*
X69726413Y-60198841D01*
X69767671Y-60137093D01*
X69829276Y-60044895D01*
X69897761Y-59879559D01*
X69932674Y-59704038D01*
X69932674Y-59525080D01*
X69897761Y-59349559D01*
X69829276Y-59184223D01*
X69729852Y-59035424D01*
X69628389Y-58933961D01*
X69594363Y-58871649D01*
X69596551Y-58809497D01*
X69734238Y-58338815D01*
X69772558Y-58279056D01*
X69785140Y-58269450D01*
X69880800Y-58205533D01*
X70007343Y-58078990D01*
X70106767Y-57930191D01*
X70175252Y-57764855D01*
X70210165Y-57589334D01*
X70210165Y-57534500D01*
X70230167Y-57466379D01*
X70283823Y-57419886D01*
X70336165Y-57408500D01*
X70389478Y-57408500D01*
X70389479Y-57408500D01*
X70565000Y-57373587D01*
X70730336Y-57305102D01*
X70879135Y-57205678D01*
X71005678Y-57079135D01*
X71105102Y-56930336D01*
X71173587Y-56765000D01*
X71208500Y-56589479D01*
X71208500Y-56410521D01*
X71173587Y-56235000D01*
X71105102Y-56069664D01*
X71094970Y-56054501D01*
X71073756Y-55986749D01*
X71092539Y-55918282D01*
X71145356Y-55870839D01*
X71199736Y-55858500D01*
X71286913Y-55858500D01*
X71286916Y-55858500D01*
X71498116Y-55825049D01*
X71701483Y-55758972D01*
X71892009Y-55661894D01*
X72065004Y-55536206D01*
X72216206Y-55385004D01*
X72341894Y-55212009D01*
X72438972Y-55021483D01*
X72505049Y-54818116D01*
X72538500Y-54606916D01*
X72538500Y-54393084D01*
X72505049Y-54181884D01*
X72438972Y-53978517D01*
X72341894Y-53787991D01*
X72334139Y-53777317D01*
X72310281Y-53710450D01*
X72326361Y-53641298D01*
X72348851Y-53612327D01*
X75285944Y-50795117D01*
X75296363Y-50786162D01*
X75452897Y-50665852D01*
X75476372Y-50651588D01*
X75648970Y-50571019D01*
X75674984Y-50562182D01*
X75867722Y-50519448D01*
X75881296Y-50517209D01*
X79178531Y-50156685D01*
X79191499Y-50155941D01*
X79378152Y-50154894D01*
X79404008Y-50157427D01*
G37*
%TD.AperFunction*%
%TD*%
%TA.AperFunction,Conductor*%
%TO.N,GND*%
G36*
X63638992Y-42550148D02*
G01*
X63640982Y-42550172D01*
X63656992Y-42550510D01*
X63657736Y-42550529D01*
X68420357Y-42692953D01*
X71380320Y-42781469D01*
X71394094Y-42782641D01*
X71590851Y-42810346D01*
X71617645Y-42817183D01*
X71797084Y-42884697D01*
X71821739Y-42897216D01*
X71912232Y-42956485D01*
X71982114Y-43002254D01*
X72003451Y-43019858D01*
X72137040Y-43157359D01*
X72154021Y-43179195D01*
X72258041Y-43348479D01*
X72264633Y-43360662D01*
X72494254Y-43847150D01*
X72499350Y-43859639D01*
X72562767Y-44042460D01*
X72568825Y-44068710D01*
X72591927Y-44260827D01*
X72592818Y-44274286D01*
X72605702Y-45299014D01*
X72682285Y-51390925D01*
X72663141Y-51459292D01*
X72610074Y-51506456D01*
X72539932Y-51517442D01*
X72474986Y-51488763D01*
X72441423Y-51442824D01*
X72441219Y-51442928D01*
X72440573Y-51441661D01*
X72439880Y-51440712D01*
X72438976Y-51438532D01*
X72438972Y-51438517D01*
X72341894Y-51247991D01*
X72216206Y-51074996D01*
X72216203Y-51074993D01*
X72216201Y-51074990D01*
X72065009Y-50923798D01*
X72065006Y-50923796D01*
X72065004Y-50923794D01*
X71927814Y-50824120D01*
X71892012Y-50798108D01*
X71892011Y-50798107D01*
X71892009Y-50798106D01*
X71701483Y-50701028D01*
X71701480Y-50701027D01*
X71701478Y-50701026D01*
X71498120Y-50634952D01*
X71498123Y-50634952D01*
X71458801Y-50628724D01*
X71286916Y-50601500D01*
X71073084Y-50601500D01*
X70861884Y-50634951D01*
X70861878Y-50634952D01*
X70658521Y-50701026D01*
X70658515Y-50701029D01*
X70467987Y-50798108D01*
X70294993Y-50923796D01*
X70294990Y-50923798D01*
X70143798Y-51074990D01*
X70143796Y-51074993D01*
X70018108Y-51247987D01*
X70017434Y-51249088D01*
X70017068Y-51249418D01*
X70015196Y-51251996D01*
X70014654Y-51251602D01*
X69964787Y-51296721D01*
X69894745Y-51308328D01*
X69829547Y-51280226D01*
X69804976Y-51251870D01*
X69804804Y-51251996D01*
X69803341Y-51249982D01*
X69802566Y-51249088D01*
X69801896Y-51247996D01*
X69801894Y-51247991D01*
X69676206Y-51074996D01*
X69676203Y-51074993D01*
X69676201Y-51074990D01*
X69525009Y-50923798D01*
X69525006Y-50923796D01*
X69525004Y-50923794D01*
X69387814Y-50824120D01*
X69352012Y-50798108D01*
X69352011Y-50798107D01*
X69352009Y-50798106D01*
X69161483Y-50701028D01*
X69161480Y-50701027D01*
X69161478Y-50701026D01*
X68958120Y-50634952D01*
X68958123Y-50634952D01*
X68918801Y-50628724D01*
X68746916Y-50601500D01*
X68533084Y-50601500D01*
X68321884Y-50634951D01*
X68321878Y-50634952D01*
X68118521Y-50701026D01*
X68118515Y-50701029D01*
X67927987Y-50798108D01*
X67754993Y-50923796D01*
X67754990Y-50923798D01*
X67603798Y-51074990D01*
X67603796Y-51074993D01*
X67478108Y-51247987D01*
X67477434Y-51249088D01*
X67477068Y-51249418D01*
X67475196Y-51251996D01*
X67474654Y-51251602D01*
X67424787Y-51296721D01*
X67354745Y-51308328D01*
X67289547Y-51280226D01*
X67264976Y-51251870D01*
X67264804Y-51251996D01*
X67263341Y-51249982D01*
X67262566Y-51249088D01*
X67261896Y-51247996D01*
X67261894Y-51247991D01*
X67136206Y-51074996D01*
X67136203Y-51074993D01*
X67136201Y-51074990D01*
X66985009Y-50923798D01*
X66985006Y-50923796D01*
X66985004Y-50923794D01*
X66847814Y-50824120D01*
X66812012Y-50798108D01*
X66812011Y-50798107D01*
X66812009Y-50798106D01*
X66621483Y-50701028D01*
X66621480Y-50701027D01*
X66621478Y-50701026D01*
X66418120Y-50634952D01*
X66418123Y-50634952D01*
X66378801Y-50628724D01*
X66206916Y-50601500D01*
X65993084Y-50601500D01*
X65781884Y-50634951D01*
X65781878Y-50634952D01*
X65578521Y-50701026D01*
X65578515Y-50701029D01*
X65387987Y-50798108D01*
X65214993Y-50923796D01*
X65214990Y-50923798D01*
X65063798Y-51074990D01*
X65063796Y-51074993D01*
X64938108Y-51247987D01*
X64937434Y-51249088D01*
X64937068Y-51249418D01*
X64935196Y-51251996D01*
X64934654Y-51251602D01*
X64884787Y-51296721D01*
X64814745Y-51308328D01*
X64749547Y-51280226D01*
X64724976Y-51251870D01*
X64724804Y-51251996D01*
X64723341Y-51249982D01*
X64722566Y-51249088D01*
X64721896Y-51247996D01*
X64721894Y-51247991D01*
X64596206Y-51074996D01*
X64596203Y-51074993D01*
X64596201Y-51074990D01*
X64445009Y-50923798D01*
X64445006Y-50923796D01*
X64445004Y-50923794D01*
X64307814Y-50824120D01*
X64272012Y-50798108D01*
X64272011Y-50798107D01*
X64272009Y-50798106D01*
X64081483Y-50701028D01*
X64081480Y-50701027D01*
X64081478Y-50701026D01*
X63878120Y-50634952D01*
X63878123Y-50634952D01*
X63838801Y-50628724D01*
X63666916Y-50601500D01*
X63453084Y-50601500D01*
X63241884Y-50634951D01*
X63241878Y-50634952D01*
X63038521Y-50701026D01*
X63038515Y-50701029D01*
X62847987Y-50798108D01*
X62674993Y-50923796D01*
X62674990Y-50923798D01*
X62523798Y-51074990D01*
X62523796Y-51074993D01*
X62398108Y-51247987D01*
X62301029Y-51438515D01*
X62301026Y-51438521D01*
X62234952Y-51641878D01*
X62234951Y-51641883D01*
X62234951Y-51641884D01*
X62201500Y-51853084D01*
X62201500Y-52066916D01*
X62228513Y-52237468D01*
X62234952Y-52278121D01*
X62301026Y-52481478D01*
X62301028Y-52481483D01*
X62398106Y-52672009D01*
X62523794Y-52845004D01*
X62523796Y-52845006D01*
X62523798Y-52845009D01*
X62626770Y-52947981D01*
X62660796Y-53010293D01*
X62655731Y-53081108D01*
X62613184Y-53137944D01*
X62581708Y-53155131D01*
X62463797Y-53199110D01*
X62463792Y-53199112D01*
X62346738Y-53286738D01*
X62259112Y-53403792D01*
X62259110Y-53403797D01*
X62208011Y-53540795D01*
X62208009Y-53540803D01*
X62201500Y-53601350D01*
X62201500Y-55398649D01*
X62208009Y-55459196D01*
X62208011Y-55459204D01*
X62259110Y-55596202D01*
X62259112Y-55596207D01*
X62346738Y-55713261D01*
X62463792Y-55800887D01*
X62463794Y-55800888D01*
X62463796Y-55800889D01*
X62522875Y-55822924D01*
X62600795Y-55851988D01*
X62600803Y-55851990D01*
X62661350Y-55858499D01*
X62661355Y-55858499D01*
X62661362Y-55858500D01*
X63962502Y-55858500D01*
X64030623Y-55878502D01*
X64077116Y-55932158D01*
X64087220Y-56002432D01*
X64078910Y-56032719D01*
X64045416Y-56113578D01*
X64045414Y-56113584D01*
X64045414Y-56113586D01*
X64031223Y-56184929D01*
X64010501Y-56289104D01*
X64010501Y-56289107D01*
X64010501Y-56468065D01*
X64041969Y-56626268D01*
X64045415Y-56643589D01*
X64065474Y-56692015D01*
X64113899Y-56808922D01*
X64213323Y-56957721D01*
X64339866Y-57084264D01*
X64446324Y-57155397D01*
X64480419Y-57178178D01*
X64525946Y-57232654D01*
X64534795Y-57303098D01*
X64504154Y-57367142D01*
X64443752Y-57404453D01*
X64434999Y-57406522D01*
X64415624Y-57410376D01*
X64335000Y-57426413D01*
X64334998Y-57426413D01*
X64334997Y-57426414D01*
X64169662Y-57494899D01*
X64020869Y-57594319D01*
X64020862Y-57594324D01*
X63894324Y-57720862D01*
X63894319Y-57720869D01*
X63794899Y-57869662D01*
X63726414Y-58034996D01*
X63691500Y-58210518D01*
X63691500Y-58389481D01*
X63702861Y-58446597D01*
X63726413Y-58565000D01*
X63794898Y-58730336D01*
X63894322Y-58879135D01*
X63894324Y-58879137D01*
X63943133Y-58927946D01*
X63977159Y-58990258D01*
X63972094Y-59061073D01*
X63970449Y-59065254D01*
X63966416Y-59074991D01*
X63966413Y-59074999D01*
X63931500Y-59250518D01*
X63931500Y-59250521D01*
X63931500Y-59429479D01*
X63966413Y-59605000D01*
X64034898Y-59770336D01*
X64134322Y-59919135D01*
X64134324Y-59919137D01*
X64253342Y-60038155D01*
X64287368Y-60100467D01*
X64282303Y-60171282D01*
X64239756Y-60228118D01*
X64234251Y-60232013D01*
X64200865Y-60254322D01*
X64200862Y-60254324D01*
X64074324Y-60380862D01*
X64074319Y-60380869D01*
X63993231Y-60502227D01*
X63974898Y-60529664D01*
X63966438Y-60550088D01*
X63906414Y-60694996D01*
X63871500Y-60870518D01*
X63871500Y-61049481D01*
X63877564Y-61079965D01*
X63905458Y-61220200D01*
X63906414Y-61225003D01*
X63915618Y-61247223D01*
X63974898Y-61390336D01*
X64074322Y-61539135D01*
X64200865Y-61665678D01*
X64349664Y-61765102D01*
X64515000Y-61833587D01*
X64690521Y-61868500D01*
X64690522Y-61868500D01*
X64869478Y-61868500D01*
X64869479Y-61868500D01*
X65045000Y-61833587D01*
X65210336Y-61765102D01*
X65359135Y-61665678D01*
X65485678Y-61539135D01*
X65585102Y-61390336D01*
X65640993Y-61255403D01*
X65685542Y-61200123D01*
X65752905Y-61177702D01*
X65821696Y-61195260D01*
X65870075Y-61247223D01*
X65880979Y-61279036D01*
X65883890Y-61293667D01*
X65952375Y-61459003D01*
X66051799Y-61607802D01*
X66178342Y-61734345D01*
X66327141Y-61833769D01*
X66492477Y-61902254D01*
X66667998Y-61937167D01*
X66667999Y-61937167D01*
X66846955Y-61937167D01*
X66846956Y-61937167D01*
X67022477Y-61902254D01*
X67187813Y-61833769D01*
X67336612Y-61734345D01*
X67357503Y-61713453D01*
X67419810Y-61679430D01*
X67490626Y-61684493D01*
X67547463Y-61727039D01*
X67572275Y-61793559D01*
X67570175Y-61827131D01*
X67551500Y-61921015D01*
X67551500Y-62099981D01*
X67555031Y-62117733D01*
X67586413Y-62275500D01*
X67654898Y-62440836D01*
X67754322Y-62589635D01*
X67880865Y-62716178D01*
X68029664Y-62815602D01*
X68195000Y-62884087D01*
X68370521Y-62919000D01*
X68370522Y-62919000D01*
X68549478Y-62919000D01*
X68549479Y-62919000D01*
X68725000Y-62884087D01*
X68890336Y-62815602D01*
X68919997Y-62795782D01*
X68987748Y-62774567D01*
X69056216Y-62793349D01*
X69059979Y-62795767D01*
X69089664Y-62815602D01*
X69255000Y-62884087D01*
X69430521Y-62919000D01*
X69430522Y-62919000D01*
X69609478Y-62919000D01*
X69609479Y-62919000D01*
X69785000Y-62884087D01*
X69950336Y-62815602D01*
X70099135Y-62716178D01*
X70225678Y-62589635D01*
X70325102Y-62440836D01*
X70362232Y-62351196D01*
X70406779Y-62295917D01*
X70474143Y-62273496D01*
X70542934Y-62291054D01*
X70561164Y-62304203D01*
X74181795Y-65442887D01*
X74189512Y-65449651D01*
X74190468Y-65450499D01*
X74197804Y-65457071D01*
X74198311Y-65457527D01*
X75609673Y-66735742D01*
X75619385Y-66745558D01*
X75750768Y-66893788D01*
X75766691Y-66916303D01*
X75862676Y-67089556D01*
X75868696Y-67101983D01*
X76705008Y-69100771D01*
X76709026Y-69111789D01*
X76759277Y-69272436D01*
X76764163Y-69295354D01*
X76783799Y-69462538D01*
X76784623Y-69474237D01*
X76852719Y-72334187D01*
X76861996Y-72723861D01*
X76861605Y-72737219D01*
X76845844Y-72928281D01*
X76840845Y-72954499D01*
X76787145Y-73131519D01*
X76776736Y-73156095D01*
X76683687Y-73323720D01*
X76676590Y-73335044D01*
X75629997Y-74823379D01*
X75622641Y-74832848D01*
X75510727Y-74963562D01*
X75493489Y-74980195D01*
X75363577Y-75083612D01*
X75343503Y-75096682D01*
X75196366Y-75173645D01*
X75174179Y-75182680D01*
X75015132Y-75230405D01*
X74991639Y-75235077D01*
X74820448Y-75252448D01*
X74808475Y-75253090D01*
X67701644Y-75295218D01*
X41874503Y-75448313D01*
X41863096Y-75447863D01*
X41699842Y-75434002D01*
X41677383Y-75430024D01*
X41524824Y-75388463D01*
X41503452Y-75380501D01*
X41355710Y-75309638D01*
X41345656Y-75304242D01*
X39336431Y-74105680D01*
X37477246Y-72996621D01*
X37466363Y-72989337D01*
X37315866Y-72876854D01*
X37296654Y-72859105D01*
X37263045Y-72820862D01*
X37176980Y-72722929D01*
X37161847Y-72701597D01*
X37099413Y-72590770D01*
X37072865Y-72543644D01*
X37062463Y-72519646D01*
X37008012Y-72346726D01*
X37002788Y-72321097D01*
X36984574Y-72134107D01*
X36983983Y-72121025D01*
X36984801Y-72002195D01*
X36988052Y-71529481D01*
X36989283Y-71350518D01*
X37491500Y-71350518D01*
X37491500Y-71529481D01*
X37506761Y-71606201D01*
X37526413Y-71705000D01*
X37594898Y-71870336D01*
X37694322Y-72019135D01*
X37820865Y-72145678D01*
X37969664Y-72245102D01*
X38135000Y-72313587D01*
X38310521Y-72348500D01*
X38310522Y-72348500D01*
X38489478Y-72348500D01*
X38489479Y-72348500D01*
X38665000Y-72313587D01*
X38830336Y-72245102D01*
X38979135Y-72145678D01*
X39054062Y-72070751D01*
X39116374Y-72036725D01*
X39187189Y-72041790D01*
X39232252Y-72070751D01*
X39279564Y-72118063D01*
X39279567Y-72118065D01*
X39279570Y-72118068D01*
X39446197Y-72239129D01*
X39629710Y-72332634D01*
X39825592Y-72396280D01*
X40029019Y-72428500D01*
X40029022Y-72428500D01*
X40234978Y-72428500D01*
X40234981Y-72428500D01*
X40438408Y-72396280D01*
X40634290Y-72332634D01*
X40817803Y-72239129D01*
X40984430Y-72118068D01*
X41130068Y-71972430D01*
X41251129Y-71805803D01*
X41289734Y-71730034D01*
X41338481Y-71678422D01*
X41407396Y-71661356D01*
X41474598Y-71684257D01*
X41514264Y-71730034D01*
X41552871Y-71805803D01*
X41673932Y-71972430D01*
X41673934Y-71972432D01*
X41673936Y-71972435D01*
X41819564Y-72118063D01*
X41819567Y-72118065D01*
X41819570Y-72118068D01*
X41986197Y-72239129D01*
X42169710Y-72332634D01*
X42365592Y-72396280D01*
X42569019Y-72428500D01*
X42569022Y-72428500D01*
X42774978Y-72428500D01*
X42774981Y-72428500D01*
X42978408Y-72396280D01*
X43174290Y-72332634D01*
X43357803Y-72239129D01*
X43524430Y-72118068D01*
X43670068Y-71972430D01*
X43791129Y-71805803D01*
X43884634Y-71622290D01*
X43948280Y-71426408D01*
X43966635Y-71310518D01*
X44391500Y-71310518D01*
X44391500Y-71310521D01*
X44391500Y-71489479D01*
X44425688Y-71661356D01*
X44426414Y-71665003D01*
X44442982Y-71705000D01*
X44494898Y-71830336D01*
X44594322Y-71979135D01*
X44720865Y-72105678D01*
X44869664Y-72205102D01*
X45035000Y-72273587D01*
X45210521Y-72308500D01*
X45210522Y-72308500D01*
X45389478Y-72308500D01*
X45389479Y-72308500D01*
X45565000Y-72273587D01*
X45730336Y-72205102D01*
X45879135Y-72105678D01*
X46005678Y-71979135D01*
X46105102Y-71830336D01*
X46173587Y-71665000D01*
X46208500Y-71489479D01*
X46208500Y-71310521D01*
X46208499Y-71310518D01*
X50591500Y-71310518D01*
X50591500Y-71310521D01*
X50591500Y-71489479D01*
X50625688Y-71661356D01*
X50626414Y-71665003D01*
X50642982Y-71705000D01*
X50694898Y-71830336D01*
X50794322Y-71979135D01*
X50920865Y-72105678D01*
X51069664Y-72205102D01*
X51235000Y-72273587D01*
X51410521Y-72308500D01*
X51410522Y-72308500D01*
X51589478Y-72308500D01*
X51589479Y-72308500D01*
X51765000Y-72273587D01*
X51930336Y-72205102D01*
X52079135Y-72105678D01*
X52205678Y-71979135D01*
X52305102Y-71830336D01*
X52373587Y-71665000D01*
X52408500Y-71489479D01*
X52408500Y-71310521D01*
X52373587Y-71135000D01*
X52305102Y-70969664D01*
X52205678Y-70820865D01*
X52079135Y-70694322D01*
X51930336Y-70594898D01*
X51813429Y-70546473D01*
X51765003Y-70526414D01*
X51765001Y-70526413D01*
X51765000Y-70526413D01*
X51676645Y-70508838D01*
X51589481Y-70491500D01*
X51589479Y-70491500D01*
X51410521Y-70491500D01*
X51410518Y-70491500D01*
X51279771Y-70517507D01*
X51235000Y-70526413D01*
X51234999Y-70526413D01*
X51234996Y-70526414D01*
X51150107Y-70561577D01*
X51069935Y-70594786D01*
X51069662Y-70594899D01*
X50920869Y-70694319D01*
X50920862Y-70694324D01*
X50794324Y-70820862D01*
X50794319Y-70820869D01*
X50694899Y-70969662D01*
X50626414Y-71134996D01*
X50591500Y-71310518D01*
X46208499Y-71310518D01*
X46173587Y-71135000D01*
X46105102Y-70969664D01*
X46005678Y-70820865D01*
X45879135Y-70694322D01*
X45730336Y-70594898D01*
X45613429Y-70546473D01*
X45565003Y-70526414D01*
X45565001Y-70526413D01*
X45565000Y-70526413D01*
X45476645Y-70508838D01*
X45389481Y-70491500D01*
X45389479Y-70491500D01*
X45210521Y-70491500D01*
X45210518Y-70491500D01*
X45079771Y-70517507D01*
X45035000Y-70526413D01*
X45034999Y-70526413D01*
X45034996Y-70526414D01*
X44950107Y-70561577D01*
X44869935Y-70594786D01*
X44869662Y-70594899D01*
X44720869Y-70694319D01*
X44720862Y-70694324D01*
X44594324Y-70820862D01*
X44594319Y-70820869D01*
X44494899Y-70969662D01*
X44426414Y-71134996D01*
X44391500Y-71310518D01*
X43966635Y-71310518D01*
X43980500Y-71222981D01*
X43980500Y-71017019D01*
X43948280Y-70813592D01*
X43884634Y-70617710D01*
X43791129Y-70434197D01*
X43670068Y-70267570D01*
X43670065Y-70267567D01*
X43670063Y-70267564D01*
X43524435Y-70121936D01*
X43524432Y-70121934D01*
X43524430Y-70121932D01*
X43357803Y-70000871D01*
X43174290Y-69907366D01*
X43174287Y-69907365D01*
X43174285Y-69907364D01*
X42978412Y-69843721D01*
X42978410Y-69843720D01*
X42978408Y-69843720D01*
X42774981Y-69811500D01*
X42569019Y-69811500D01*
X42365592Y-69843720D01*
X42365590Y-69843720D01*
X42365587Y-69843721D01*
X42169714Y-69907364D01*
X42169708Y-69907367D01*
X41986193Y-70000873D01*
X41819567Y-70121934D01*
X41819564Y-70121936D01*
X41673936Y-70267564D01*
X41673934Y-70267567D01*
X41552873Y-70434193D01*
X41514267Y-70509962D01*
X41465518Y-70561577D01*
X41396603Y-70578643D01*
X41329402Y-70555742D01*
X41289733Y-70509962D01*
X41265849Y-70463087D01*
X41251129Y-70434197D01*
X41130068Y-70267570D01*
X41130065Y-70267567D01*
X41130063Y-70267564D01*
X40984435Y-70121936D01*
X40984432Y-70121934D01*
X40984430Y-70121932D01*
X40817803Y-70000871D01*
X40742034Y-69962265D01*
X40690422Y-69913519D01*
X40673356Y-69844604D01*
X40696257Y-69777402D01*
X40742034Y-69737735D01*
X40817803Y-69699129D01*
X40984430Y-69578068D01*
X41130068Y-69432430D01*
X41251129Y-69265803D01*
X41344634Y-69082290D01*
X41408280Y-68886408D01*
X41440500Y-68682981D01*
X41440500Y-68477019D01*
X41408280Y-68273592D01*
X41344634Y-68077710D01*
X41251129Y-67894197D01*
X41130068Y-67727570D01*
X41130065Y-67727567D01*
X41130063Y-67727564D01*
X40984435Y-67581936D01*
X40984432Y-67581934D01*
X40984430Y-67581932D01*
X40886137Y-67510518D01*
X45191500Y-67510518D01*
X45191500Y-67689481D01*
X45208838Y-67776645D01*
X45226413Y-67865000D01*
X45294898Y-68030336D01*
X45394322Y-68179135D01*
X45520865Y-68305678D01*
X45669664Y-68405102D01*
X45835000Y-68473587D01*
X46010521Y-68508500D01*
X46010522Y-68508500D01*
X46189478Y-68508500D01*
X46189479Y-68508500D01*
X46365000Y-68473587D01*
X46530336Y-68405102D01*
X46679135Y-68305678D01*
X46805678Y-68179135D01*
X46805678Y-68179134D01*
X46810056Y-68174757D01*
X46811912Y-68176613D01*
X46861078Y-68143054D01*
X46932047Y-68141085D01*
X46989011Y-68173824D01*
X47020865Y-68205678D01*
X47169664Y-68305102D01*
X47335000Y-68373587D01*
X47510521Y-68408500D01*
X47510522Y-68408500D01*
X47689478Y-68408500D01*
X47689479Y-68408500D01*
X47865000Y-68373587D01*
X48030336Y-68305102D01*
X48179135Y-68205678D01*
X48305678Y-68079135D01*
X48405102Y-67930336D01*
X48473587Y-67765000D01*
X48508500Y-67589479D01*
X48508500Y-67410521D01*
X48473587Y-67235000D01*
X48405102Y-67069664D01*
X48305678Y-66920865D01*
X48179135Y-66794322D01*
X48030336Y-66694898D01*
X47899576Y-66640735D01*
X47865003Y-66626414D01*
X47865001Y-66626413D01*
X47865000Y-66626413D01*
X47776645Y-66608838D01*
X47689481Y-66591500D01*
X47689479Y-66591500D01*
X47510521Y-66591500D01*
X47510518Y-66591500D01*
X47391719Y-66615131D01*
X47335000Y-66626413D01*
X47334999Y-66626413D01*
X47334996Y-66626414D01*
X47226151Y-66671500D01*
X47177868Y-66691500D01*
X47169662Y-66694899D01*
X47020869Y-66794319D01*
X47020867Y-66794320D01*
X46889945Y-66925242D01*
X46888109Y-66923406D01*
X46838768Y-66956994D01*
X46767796Y-66958873D01*
X46710988Y-66926175D01*
X46679137Y-66894324D01*
X46679135Y-66894322D01*
X46530336Y-66794898D01*
X46387522Y-66735742D01*
X46365003Y-66726414D01*
X46365001Y-66726413D01*
X46365000Y-66726413D01*
X46276645Y-66708838D01*
X46189481Y-66691500D01*
X46189479Y-66691500D01*
X46010521Y-66691500D01*
X46010518Y-66691500D01*
X45879771Y-66717507D01*
X45835000Y-66726413D01*
X45834999Y-66726413D01*
X45834996Y-66726414D01*
X45727291Y-66771028D01*
X45671060Y-66794320D01*
X45669662Y-66794899D01*
X45520869Y-66894319D01*
X45520862Y-66894324D01*
X45394324Y-67020862D01*
X45394319Y-67020869D01*
X45311381Y-67144996D01*
X45294898Y-67169664D01*
X45283271Y-67197733D01*
X45226414Y-67334996D01*
X45226413Y-67334999D01*
X45226413Y-67335000D01*
X45220103Y-67366721D01*
X45191500Y-67510518D01*
X40886137Y-67510518D01*
X40817803Y-67460871D01*
X40742034Y-67422265D01*
X40690422Y-67373519D01*
X40673356Y-67304604D01*
X40696257Y-67237402D01*
X40742034Y-67197735D01*
X40817803Y-67159129D01*
X40984430Y-67038068D01*
X41130068Y-66892430D01*
X41251129Y-66725803D01*
X41289734Y-66650034D01*
X41338481Y-66598422D01*
X41407396Y-66581356D01*
X41474598Y-66604257D01*
X41514264Y-66650034D01*
X41552871Y-66725803D01*
X41673932Y-66892430D01*
X41673934Y-66892432D01*
X41673936Y-66892435D01*
X41819564Y-67038063D01*
X41819567Y-67038065D01*
X41819570Y-67038068D01*
X41986197Y-67159129D01*
X42169710Y-67252634D01*
X42365592Y-67316280D01*
X42569019Y-67348500D01*
X42569022Y-67348500D01*
X42774978Y-67348500D01*
X42774981Y-67348500D01*
X42978408Y-67316280D01*
X43174290Y-67252634D01*
X43357803Y-67159129D01*
X43524430Y-67038068D01*
X43670068Y-66892430D01*
X43791129Y-66725803D01*
X43884634Y-66542290D01*
X43948280Y-66346408D01*
X43980500Y-66142981D01*
X43980500Y-65937019D01*
X43948280Y-65733592D01*
X43884634Y-65537710D01*
X43791129Y-65354197D01*
X43670068Y-65187570D01*
X43670065Y-65187567D01*
X43670063Y-65187564D01*
X43524435Y-65041936D01*
X43524432Y-65041934D01*
X43524430Y-65041932D01*
X43357803Y-64920871D01*
X43282034Y-64882265D01*
X43230422Y-64833519D01*
X43213356Y-64764604D01*
X43236257Y-64697402D01*
X43282034Y-64657735D01*
X43357803Y-64619129D01*
X43524430Y-64498068D01*
X43670068Y-64352430D01*
X43791129Y-64185803D01*
X43884634Y-64002290D01*
X43948280Y-63806408D01*
X43980500Y-63602981D01*
X43980500Y-63397019D01*
X43948280Y-63193592D01*
X43884634Y-62997710D01*
X43791129Y-62814197D01*
X43670068Y-62647570D01*
X43670065Y-62647567D01*
X43670063Y-62647564D01*
X43524435Y-62501936D01*
X43524432Y-62501934D01*
X43524430Y-62501932D01*
X43357803Y-62380871D01*
X43282034Y-62342265D01*
X43230422Y-62293519D01*
X43213356Y-62224604D01*
X43236257Y-62157402D01*
X43282034Y-62117735D01*
X43357803Y-62079129D01*
X43524430Y-61958068D01*
X43670068Y-61812430D01*
X43791129Y-61645803D01*
X43884634Y-61462290D01*
X43948280Y-61266408D01*
X43980500Y-61062981D01*
X43980500Y-60857019D01*
X43948280Y-60653592D01*
X43884634Y-60457710D01*
X43791129Y-60274197D01*
X43670068Y-60107570D01*
X43670065Y-60107567D01*
X43670063Y-60107564D01*
X43524435Y-59961936D01*
X43524432Y-59961934D01*
X43524430Y-59961932D01*
X43357803Y-59840871D01*
X43282034Y-59802265D01*
X43230422Y-59753519D01*
X43213356Y-59684604D01*
X43236257Y-59617402D01*
X43282034Y-59577735D01*
X43357803Y-59539129D01*
X43524430Y-59418068D01*
X43670068Y-59272430D01*
X43791129Y-59105803D01*
X43884634Y-58922290D01*
X43948280Y-58726408D01*
X43980500Y-58522981D01*
X43980500Y-58317019D01*
X43948280Y-58113592D01*
X43884634Y-57917710D01*
X43791129Y-57734197D01*
X43670068Y-57567570D01*
X43670065Y-57567567D01*
X43670063Y-57567564D01*
X43524435Y-57421936D01*
X43524432Y-57421934D01*
X43524430Y-57421932D01*
X43357803Y-57300871D01*
X43282034Y-57262265D01*
X43230422Y-57213519D01*
X43213356Y-57144604D01*
X43236257Y-57077402D01*
X43282034Y-57037735D01*
X43357803Y-56999129D01*
X43524430Y-56878068D01*
X43670068Y-56732430D01*
X43791129Y-56565803D01*
X43884634Y-56382290D01*
X43948280Y-56186408D01*
X43974079Y-56023520D01*
X44004491Y-55959370D01*
X44064759Y-55921843D01*
X44073938Y-55919656D01*
X44205000Y-55893587D01*
X44370336Y-55825102D01*
X44442298Y-55777019D01*
X54063500Y-55777019D01*
X54063500Y-55982981D01*
X54089162Y-56145000D01*
X54095721Y-56186412D01*
X54135986Y-56310336D01*
X54159366Y-56382290D01*
X54252871Y-56565803D01*
X54252873Y-56565806D01*
X54271545Y-56591506D01*
X54373932Y-56732430D01*
X54373934Y-56732432D01*
X54373936Y-56732435D01*
X54519564Y-56878063D01*
X54519567Y-56878065D01*
X54519570Y-56878068D01*
X54686197Y-56999129D01*
X54761962Y-57037733D01*
X54813577Y-57086482D01*
X54830643Y-57155397D01*
X54807742Y-57222598D01*
X54761963Y-57262266D01*
X54693033Y-57297387D01*
X54686193Y-57300873D01*
X54519567Y-57421934D01*
X54519564Y-57421936D01*
X54373936Y-57567564D01*
X54373934Y-57567567D01*
X54252873Y-57734193D01*
X54159367Y-57917708D01*
X54159364Y-57917714D01*
X54095721Y-58113587D01*
X54095720Y-58113590D01*
X54095720Y-58113592D01*
X54063500Y-58317019D01*
X54063500Y-58522981D01*
X54094433Y-58718283D01*
X54095721Y-58726412D01*
X54155263Y-58909664D01*
X54159366Y-58922290D01*
X54252871Y-59105803D01*
X54373932Y-59272430D01*
X54373934Y-59272432D01*
X54373936Y-59272435D01*
X54519564Y-59418063D01*
X54519567Y-59418065D01*
X54519570Y-59418068D01*
X54686197Y-59539129D01*
X54761962Y-59577733D01*
X54813577Y-59626482D01*
X54830643Y-59695397D01*
X54807742Y-59762598D01*
X54761963Y-59802266D01*
X54728595Y-59819268D01*
X54686193Y-59840873D01*
X54519567Y-59961934D01*
X54519564Y-59961936D01*
X54373936Y-60107564D01*
X54373934Y-60107567D01*
X54252873Y-60274193D01*
X54159367Y-60457708D01*
X54159364Y-60457714D01*
X54095721Y-60653587D01*
X54095720Y-60653590D01*
X54095720Y-60653592D01*
X54063500Y-60857019D01*
X54063500Y-61062981D01*
X54095720Y-61266408D01*
X54095721Y-61266412D01*
X54149317Y-61431365D01*
X54159366Y-61462290D01*
X54252871Y-61645803D01*
X54373932Y-61812430D01*
X54373934Y-61812432D01*
X54373936Y-61812435D01*
X54519564Y-61958063D01*
X54519567Y-61958065D01*
X54519570Y-61958068D01*
X54686197Y-62079129D01*
X54761962Y-62117733D01*
X54813577Y-62166482D01*
X54830643Y-62235397D01*
X54807742Y-62302598D01*
X54761963Y-62342266D01*
X54697719Y-62375000D01*
X54686193Y-62380873D01*
X54519567Y-62501934D01*
X54519564Y-62501936D01*
X54373936Y-62647564D01*
X54373934Y-62647567D01*
X54252873Y-62814193D01*
X54159367Y-62997708D01*
X54159364Y-62997714D01*
X54095721Y-63193587D01*
X54095720Y-63193590D01*
X54095720Y-63193592D01*
X54063500Y-63397019D01*
X54063500Y-63602981D01*
X54095720Y-63806408D01*
X54095721Y-63806412D01*
X54101999Y-63825735D01*
X54159366Y-64002290D01*
X54252871Y-64185803D01*
X54373932Y-64352430D01*
X54373934Y-64352432D01*
X54373936Y-64352435D01*
X54519564Y-64498063D01*
X54519567Y-64498065D01*
X54519570Y-64498068D01*
X54686197Y-64619129D01*
X54761962Y-64657733D01*
X54813577Y-64706482D01*
X54830643Y-64775397D01*
X54807742Y-64842598D01*
X54761963Y-64882266D01*
X54693033Y-64917387D01*
X54686193Y-64920873D01*
X54519567Y-65041934D01*
X54519564Y-65041936D01*
X54373936Y-65187564D01*
X54373934Y-65187567D01*
X54252873Y-65354193D01*
X54159367Y-65537708D01*
X54159364Y-65537714D01*
X54095721Y-65733587D01*
X54095720Y-65733590D01*
X54095720Y-65733592D01*
X54063500Y-65937019D01*
X54063500Y-66142981D01*
X54095720Y-66346408D01*
X54095721Y-66346412D01*
X54113859Y-66402236D01*
X54159366Y-66542290D01*
X54252871Y-66725803D01*
X54373932Y-66892430D01*
X54373934Y-66892432D01*
X54373936Y-66892435D01*
X54519564Y-67038063D01*
X54519567Y-67038065D01*
X54519570Y-67038068D01*
X54686197Y-67159129D01*
X54761962Y-67197733D01*
X54813577Y-67246482D01*
X54830643Y-67315397D01*
X54807742Y-67382598D01*
X54761963Y-67422266D01*
X54693033Y-67457387D01*
X54686193Y-67460873D01*
X54519567Y-67581934D01*
X54519564Y-67581936D01*
X54373936Y-67727564D01*
X54373934Y-67727567D01*
X54252873Y-67894193D01*
X54159367Y-68077708D01*
X54159364Y-68077714D01*
X54095721Y-68273587D01*
X54095720Y-68273590D01*
X54095720Y-68273592D01*
X54063500Y-68477019D01*
X54063500Y-68682981D01*
X54072850Y-68742012D01*
X54095721Y-68886412D01*
X54101999Y-68905735D01*
X54159366Y-69082290D01*
X54252871Y-69265803D01*
X54373932Y-69432430D01*
X54373934Y-69432432D01*
X54373936Y-69432435D01*
X54519564Y-69578063D01*
X54519567Y-69578065D01*
X54519570Y-69578068D01*
X54686197Y-69699129D01*
X54761962Y-69737733D01*
X54813577Y-69786482D01*
X54830643Y-69855397D01*
X54807742Y-69922598D01*
X54761963Y-69962266D01*
X54693033Y-69997387D01*
X54686193Y-70000873D01*
X54519567Y-70121934D01*
X54519564Y-70121936D01*
X54373936Y-70267564D01*
X54373934Y-70267567D01*
X54252873Y-70434193D01*
X54159367Y-70617708D01*
X54159364Y-70617714D01*
X54095721Y-70813587D01*
X54095720Y-70813590D01*
X54095720Y-70813592D01*
X54063500Y-71017019D01*
X54063500Y-71222981D01*
X54083701Y-71350521D01*
X54095721Y-71426412D01*
X54140499Y-71564226D01*
X54159366Y-71622290D01*
X54252871Y-71805803D01*
X54373932Y-71972430D01*
X54373934Y-71972432D01*
X54373936Y-71972435D01*
X54519564Y-72118063D01*
X54519567Y-72118065D01*
X54519570Y-72118068D01*
X54686197Y-72239129D01*
X54869710Y-72332634D01*
X55065592Y-72396280D01*
X55269019Y-72428500D01*
X55269022Y-72428500D01*
X55474978Y-72428500D01*
X55474981Y-72428500D01*
X55678408Y-72396280D01*
X55874290Y-72332634D01*
X56057803Y-72239129D01*
X56224430Y-72118068D01*
X56370068Y-71972430D01*
X56381512Y-71956677D01*
X56437732Y-71913323D01*
X56508468Y-71907246D01*
X56571261Y-71940376D01*
X56606174Y-72002195D01*
X56608727Y-72017265D01*
X56610010Y-72029197D01*
X56610011Y-72029204D01*
X56661110Y-72166202D01*
X56661112Y-72166207D01*
X56748738Y-72283261D01*
X56814691Y-72332632D01*
X56865796Y-72370889D01*
X56865798Y-72370889D01*
X56870321Y-72373360D01*
X56920526Y-72423559D01*
X56935620Y-72492933D01*
X56910813Y-72559454D01*
X56874350Y-72590770D01*
X56874811Y-72591459D01*
X56720869Y-72694319D01*
X56720862Y-72694324D01*
X56594324Y-72820862D01*
X56594319Y-72820869D01*
X56494899Y-72969662D01*
X56426414Y-73134996D01*
X56391500Y-73310518D01*
X56391500Y-73310521D01*
X56391500Y-73489479D01*
X56426413Y-73665000D01*
X56494898Y-73830336D01*
X56594322Y-73979135D01*
X56720865Y-74105678D01*
X56869664Y-74205102D01*
X57035000Y-74273587D01*
X57210521Y-74308500D01*
X57210522Y-74308500D01*
X57389478Y-74308500D01*
X57389479Y-74308500D01*
X57565000Y-74273587D01*
X57730336Y-74205102D01*
X57879135Y-74105678D01*
X58005678Y-73979135D01*
X58105102Y-73830336D01*
X58173587Y-73665000D01*
X58208500Y-73489479D01*
X58208500Y-73310521D01*
X58173587Y-73135000D01*
X58105102Y-72969664D01*
X58005678Y-72820865D01*
X57879135Y-72694322D01*
X57826667Y-72659264D01*
X57781141Y-72604789D01*
X57772292Y-72534346D01*
X57802933Y-72470302D01*
X57863335Y-72432990D01*
X57896670Y-72428500D01*
X58760632Y-72428500D01*
X58760638Y-72428500D01*
X58760645Y-72428499D01*
X58760649Y-72428499D01*
X58821196Y-72421990D01*
X58821199Y-72421989D01*
X58821201Y-72421989D01*
X58958204Y-72370889D01*
X58988114Y-72348499D01*
X59075261Y-72283261D01*
X59162887Y-72166207D01*
X59162887Y-72166206D01*
X59162889Y-72166204D01*
X59206960Y-72048045D01*
X59213988Y-72029204D01*
X59213990Y-72029196D01*
X59220499Y-71968649D01*
X59220500Y-71968632D01*
X59220500Y-70271367D01*
X59220499Y-70271350D01*
X59213990Y-70210803D01*
X59213988Y-70210795D01*
X59166228Y-70082749D01*
X59162889Y-70073796D01*
X59162888Y-70073794D01*
X59162887Y-70073792D01*
X59075261Y-69956738D01*
X58958207Y-69869112D01*
X58958202Y-69869110D01*
X58821204Y-69818011D01*
X58821197Y-69818010D01*
X58809265Y-69816727D01*
X58743673Y-69789556D01*
X58703184Y-69731237D01*
X58700652Y-69660285D01*
X58736881Y-69599228D01*
X58748677Y-69589513D01*
X58764430Y-69578068D01*
X58910068Y-69432430D01*
X59031129Y-69265803D01*
X59124634Y-69082290D01*
X59188280Y-68886408D01*
X59220500Y-68682981D01*
X59220500Y-68477019D01*
X59188280Y-68273592D01*
X59124634Y-68077710D01*
X59045848Y-67923084D01*
X61696500Y-67923084D01*
X61696500Y-68136916D01*
X61723230Y-68305679D01*
X61729952Y-68348121D01*
X61796026Y-68551478D01*
X61796028Y-68551483D01*
X61893106Y-68742009D01*
X62018794Y-68915004D01*
X62018796Y-68915006D01*
X62018798Y-68915009D01*
X62169990Y-69066201D01*
X62169993Y-69066203D01*
X62169996Y-69066206D01*
X62342991Y-69191894D01*
X62342996Y-69191896D01*
X62344088Y-69192566D01*
X62344418Y-69192931D01*
X62346996Y-69194804D01*
X62346602Y-69195345D01*
X62391721Y-69245213D01*
X62403328Y-69315255D01*
X62375226Y-69380453D01*
X62346870Y-69405023D01*
X62346996Y-69405196D01*
X62344982Y-69406658D01*
X62344088Y-69407434D01*
X62342987Y-69408108D01*
X62169993Y-69533796D01*
X62169990Y-69533798D01*
X62018798Y-69684990D01*
X62018796Y-69684993D01*
X61893108Y-69857987D01*
X61796029Y-70048515D01*
X61796026Y-70048521D01*
X61729952Y-70251878D01*
X61729951Y-70251883D01*
X61729951Y-70251884D01*
X61696500Y-70463084D01*
X61696500Y-70676916D01*
X61729951Y-70888116D01*
X61729952Y-70888121D01*
X61796026Y-71091478D01*
X61796028Y-71091483D01*
X61893106Y-71282009D01*
X62018794Y-71455004D01*
X62018796Y-71455006D01*
X62018798Y-71455009D01*
X62169990Y-71606201D01*
X62169993Y-71606203D01*
X62169996Y-71606206D01*
X62342991Y-71731894D01*
X62533517Y-71828972D01*
X62736878Y-71895047D01*
X62736879Y-71895047D01*
X62736884Y-71895049D01*
X62948084Y-71928500D01*
X62948087Y-71928500D01*
X63161913Y-71928500D01*
X63161916Y-71928500D01*
X63373116Y-71895049D01*
X63576483Y-71828972D01*
X63767009Y-71731894D01*
X63940004Y-71606206D01*
X64091206Y-71455004D01*
X64216894Y-71282009D01*
X64216899Y-71281997D01*
X64217561Y-71280920D01*
X64217924Y-71280591D01*
X64219804Y-71278004D01*
X64220347Y-71278398D01*
X64270204Y-71233283D01*
X64340244Y-71221670D01*
X64405445Y-71249766D01*
X64430021Y-71278130D01*
X64430196Y-71278004D01*
X64431668Y-71280030D01*
X64432439Y-71280920D01*
X64433105Y-71282007D01*
X64433106Y-71282009D01*
X64558794Y-71455004D01*
X64558796Y-71455006D01*
X64558798Y-71455009D01*
X64709990Y-71606201D01*
X64709993Y-71606203D01*
X64709996Y-71606206D01*
X64882991Y-71731894D01*
X65073517Y-71828972D01*
X65276878Y-71895047D01*
X65276879Y-71895047D01*
X65276884Y-71895049D01*
X65488084Y-71928500D01*
X65488087Y-71928500D01*
X65701913Y-71928500D01*
X65701916Y-71928500D01*
X65913116Y-71895049D01*
X66116483Y-71828972D01*
X66307009Y-71731894D01*
X66480004Y-71606206D01*
X66631206Y-71455004D01*
X66756894Y-71282009D01*
X66756899Y-71281997D01*
X66757561Y-71280920D01*
X66757924Y-71280591D01*
X66759804Y-71278004D01*
X66760347Y-71278398D01*
X66810204Y-71233283D01*
X66880244Y-71221670D01*
X66945445Y-71249766D01*
X66970021Y-71278130D01*
X66970196Y-71278004D01*
X66971668Y-71280030D01*
X66972439Y-71280920D01*
X66973105Y-71282007D01*
X66973106Y-71282009D01*
X67098794Y-71455004D01*
X67098796Y-71455006D01*
X67098798Y-71455009D01*
X67249990Y-71606201D01*
X67249993Y-71606203D01*
X67249996Y-71606206D01*
X67422991Y-71731894D01*
X67613517Y-71828972D01*
X67816878Y-71895047D01*
X67816879Y-71895047D01*
X67816884Y-71895049D01*
X68028084Y-71928500D01*
X68028087Y-71928500D01*
X68241913Y-71928500D01*
X68241916Y-71928500D01*
X68453116Y-71895049D01*
X68656483Y-71828972D01*
X68847009Y-71731894D01*
X69020004Y-71606206D01*
X69171206Y-71455004D01*
X69296894Y-71282009D01*
X69296899Y-71281997D01*
X69297561Y-71280920D01*
X69297924Y-71280591D01*
X69299804Y-71278004D01*
X69300347Y-71278398D01*
X69350204Y-71233283D01*
X69420244Y-71221670D01*
X69485445Y-71249766D01*
X69510021Y-71278130D01*
X69510196Y-71278004D01*
X69511668Y-71280030D01*
X69512439Y-71280920D01*
X69513105Y-71282007D01*
X69513106Y-71282009D01*
X69638794Y-71455004D01*
X69638796Y-71455006D01*
X69638798Y-71455009D01*
X69789990Y-71606201D01*
X69789993Y-71606203D01*
X69789996Y-71606206D01*
X69962991Y-71731894D01*
X70153517Y-71828972D01*
X70356878Y-71895047D01*
X70356879Y-71895047D01*
X70356884Y-71895049D01*
X70568084Y-71928500D01*
X70568087Y-71928500D01*
X70781913Y-71928500D01*
X70781916Y-71928500D01*
X70993116Y-71895049D01*
X71196483Y-71828972D01*
X71387009Y-71731894D01*
X71560004Y-71606206D01*
X71711206Y-71455004D01*
X71836894Y-71282009D01*
X71836899Y-71281997D01*
X71837561Y-71280920D01*
X71837924Y-71280591D01*
X71839804Y-71278004D01*
X71840347Y-71278398D01*
X71890204Y-71233283D01*
X71960244Y-71221670D01*
X72025445Y-71249766D01*
X72050021Y-71278130D01*
X72050196Y-71278004D01*
X72051668Y-71280030D01*
X72052439Y-71280920D01*
X72053105Y-71282007D01*
X72053106Y-71282009D01*
X72178794Y-71455004D01*
X72178796Y-71455006D01*
X72178798Y-71455009D01*
X72329990Y-71606201D01*
X72329993Y-71606203D01*
X72329996Y-71606206D01*
X72502991Y-71731894D01*
X72693517Y-71828972D01*
X72896878Y-71895047D01*
X72896879Y-71895047D01*
X72896884Y-71895049D01*
X73108084Y-71928500D01*
X73108087Y-71928500D01*
X73321913Y-71928500D01*
X73321916Y-71928500D01*
X73533116Y-71895049D01*
X73736483Y-71828972D01*
X73927009Y-71731894D01*
X74100004Y-71606206D01*
X74251206Y-71455004D01*
X74376894Y-71282009D01*
X74473972Y-71091483D01*
X74540049Y-70888116D01*
X74573500Y-70676916D01*
X74573500Y-70463084D01*
X74540049Y-70251884D01*
X74473972Y-70048517D01*
X74376894Y-69857991D01*
X74251206Y-69684996D01*
X74251203Y-69684993D01*
X74251201Y-69684990D01*
X74100009Y-69533798D01*
X74100006Y-69533796D01*
X74100004Y-69533794D01*
X73927009Y-69408106D01*
X73927007Y-69408105D01*
X73925920Y-69407439D01*
X73925591Y-69407075D01*
X73923004Y-69405196D01*
X73923398Y-69404652D01*
X73878283Y-69354796D01*
X73866670Y-69284756D01*
X73894766Y-69219555D01*
X73923130Y-69194978D01*
X73923004Y-69194804D01*
X73925030Y-69193331D01*
X73925920Y-69192561D01*
X73926997Y-69191899D01*
X73927009Y-69191894D01*
X74100004Y-69066206D01*
X74251206Y-68915004D01*
X74376894Y-68742009D01*
X74473972Y-68551483D01*
X74540049Y-68348116D01*
X74573500Y-68136916D01*
X74573500Y-67923084D01*
X74540049Y-67711884D01*
X74473972Y-67508517D01*
X74376894Y-67317991D01*
X74251206Y-67144996D01*
X74251203Y-67144993D01*
X74251201Y-67144990D01*
X74100009Y-66993798D01*
X74100006Y-66993796D01*
X74100004Y-66993794D01*
X73927009Y-66868106D01*
X73736483Y-66771028D01*
X73736480Y-66771027D01*
X73736478Y-66771026D01*
X73533120Y-66704952D01*
X73533123Y-66704952D01*
X73493801Y-66698724D01*
X73321916Y-66671500D01*
X73108084Y-66671500D01*
X72896884Y-66704951D01*
X72896878Y-66704952D01*
X72693521Y-66771026D01*
X72693515Y-66771029D01*
X72502987Y-66868108D01*
X72329993Y-66993796D01*
X72329990Y-66993798D01*
X72178798Y-67144990D01*
X72178796Y-67144993D01*
X72053108Y-67317987D01*
X72052434Y-67319088D01*
X72052068Y-67319418D01*
X72050196Y-67321996D01*
X72049654Y-67321602D01*
X71999787Y-67366721D01*
X71929745Y-67378328D01*
X71864547Y-67350226D01*
X71839976Y-67321870D01*
X71839804Y-67321996D01*
X71838341Y-67319982D01*
X71837566Y-67319088D01*
X71836896Y-67317996D01*
X71836894Y-67317991D01*
X71711206Y-67144996D01*
X71711203Y-67144993D01*
X71711201Y-67144990D01*
X71560009Y-66993798D01*
X71560006Y-66993796D01*
X71560004Y-66993794D01*
X71387009Y-66868106D01*
X71196483Y-66771028D01*
X71196480Y-66771027D01*
X71196478Y-66771026D01*
X70993120Y-66704952D01*
X70993123Y-66704952D01*
X70953801Y-66698724D01*
X70781916Y-66671500D01*
X70568084Y-66671500D01*
X70356884Y-66704951D01*
X70356878Y-66704952D01*
X70153521Y-66771026D01*
X70153515Y-66771029D01*
X69962987Y-66868108D01*
X69789993Y-66993796D01*
X69789990Y-66993798D01*
X69638798Y-67144990D01*
X69638796Y-67144993D01*
X69513108Y-67317987D01*
X69512434Y-67319088D01*
X69512068Y-67319418D01*
X69510196Y-67321996D01*
X69509654Y-67321602D01*
X69459787Y-67366721D01*
X69389745Y-67378328D01*
X69324547Y-67350226D01*
X69299976Y-67321870D01*
X69299804Y-67321996D01*
X69298341Y-67319982D01*
X69297566Y-67319088D01*
X69296896Y-67317996D01*
X69296894Y-67317991D01*
X69171206Y-67144996D01*
X69171203Y-67144993D01*
X69171201Y-67144990D01*
X69020009Y-66993798D01*
X69020006Y-66993796D01*
X69020004Y-66993794D01*
X68847009Y-66868106D01*
X68656483Y-66771028D01*
X68656480Y-66771027D01*
X68656478Y-66771026D01*
X68453120Y-66704952D01*
X68453123Y-66704952D01*
X68413801Y-66698724D01*
X68241916Y-66671500D01*
X68028084Y-66671500D01*
X67816884Y-66704951D01*
X67816878Y-66704952D01*
X67613521Y-66771026D01*
X67613515Y-66771029D01*
X67422987Y-66868108D01*
X67249993Y-66993796D01*
X67249990Y-66993798D01*
X67098798Y-67144990D01*
X67098796Y-67144993D01*
X66973108Y-67317987D01*
X66972434Y-67319088D01*
X66972068Y-67319418D01*
X66970196Y-67321996D01*
X66969654Y-67321602D01*
X66919787Y-67366721D01*
X66849745Y-67378328D01*
X66784547Y-67350226D01*
X66759976Y-67321870D01*
X66759804Y-67321996D01*
X66758341Y-67319982D01*
X66757566Y-67319088D01*
X66756896Y-67317996D01*
X66756894Y-67317991D01*
X66631206Y-67144996D01*
X66631203Y-67144993D01*
X66631201Y-67144990D01*
X66480009Y-66993798D01*
X66480006Y-66993796D01*
X66480004Y-66993794D01*
X66307009Y-66868106D01*
X66116483Y-66771028D01*
X66116480Y-66771027D01*
X66116478Y-66771026D01*
X65913120Y-66704952D01*
X65913123Y-66704952D01*
X65873801Y-66698724D01*
X65701916Y-66671500D01*
X65488084Y-66671500D01*
X65276884Y-66704951D01*
X65276878Y-66704952D01*
X65073521Y-66771026D01*
X65073515Y-66771029D01*
X64882987Y-66868108D01*
X64709993Y-66993796D01*
X64709990Y-66993798D01*
X64558798Y-67144990D01*
X64558796Y-67144993D01*
X64433108Y-67317987D01*
X64432434Y-67319088D01*
X64432068Y-67319418D01*
X64430196Y-67321996D01*
X64429654Y-67321602D01*
X64379787Y-67366721D01*
X64309745Y-67378328D01*
X64244547Y-67350226D01*
X64219976Y-67321870D01*
X64219804Y-67321996D01*
X64218341Y-67319982D01*
X64217566Y-67319088D01*
X64216896Y-67317996D01*
X64216894Y-67317991D01*
X64091206Y-67144996D01*
X64091203Y-67144993D01*
X64091201Y-67144990D01*
X63940009Y-66993798D01*
X63940006Y-66993796D01*
X63940004Y-66993794D01*
X63767009Y-66868106D01*
X63576483Y-66771028D01*
X63576480Y-66771027D01*
X63576478Y-66771026D01*
X63373120Y-66704952D01*
X63373123Y-66704952D01*
X63333801Y-66698724D01*
X63161916Y-66671500D01*
X62948084Y-66671500D01*
X62736884Y-66704951D01*
X62736878Y-66704952D01*
X62533521Y-66771026D01*
X62533515Y-66771029D01*
X62342987Y-66868108D01*
X62169993Y-66993796D01*
X62169990Y-66993798D01*
X62018798Y-67144990D01*
X62018796Y-67144993D01*
X61893108Y-67317987D01*
X61796029Y-67508515D01*
X61796026Y-67508521D01*
X61729952Y-67711878D01*
X61729951Y-67711883D01*
X61729951Y-67711884D01*
X61696500Y-67923084D01*
X59045848Y-67923084D01*
X59031129Y-67894197D01*
X58910068Y-67727570D01*
X58910065Y-67727567D01*
X58910063Y-67727564D01*
X58764435Y-67581936D01*
X58764432Y-67581934D01*
X58764430Y-67581932D01*
X58597803Y-67460871D01*
X58522034Y-67422265D01*
X58470422Y-67373519D01*
X58453356Y-67304604D01*
X58476257Y-67237402D01*
X58522034Y-67197735D01*
X58597803Y-67159129D01*
X58764430Y-67038068D01*
X58910068Y-66892430D01*
X59031129Y-66725803D01*
X59124634Y-66542290D01*
X59188280Y-66346408D01*
X59220500Y-66142981D01*
X59220500Y-65937019D01*
X59188280Y-65733592D01*
X59124634Y-65537710D01*
X59031129Y-65354197D01*
X58910068Y-65187570D01*
X58910065Y-65187567D01*
X58910063Y-65187564D01*
X58764435Y-65041936D01*
X58764432Y-65041934D01*
X58764430Y-65041932D01*
X58597803Y-64920871D01*
X58522034Y-64882265D01*
X58470422Y-64833519D01*
X58453356Y-64764604D01*
X58476257Y-64697402D01*
X58522034Y-64657735D01*
X58597803Y-64619129D01*
X58764430Y-64498068D01*
X58910068Y-64352430D01*
X59031129Y-64185803D01*
X59124634Y-64002290D01*
X59188280Y-63806408D01*
X59220500Y-63602981D01*
X59220500Y-63397019D01*
X59188280Y-63193592D01*
X59124634Y-62997710D01*
X59031129Y-62814197D01*
X58910068Y-62647570D01*
X58910065Y-62647567D01*
X58910063Y-62647564D01*
X58764435Y-62501936D01*
X58764432Y-62501934D01*
X58764430Y-62501932D01*
X58597803Y-62380871D01*
X58522034Y-62342265D01*
X58470422Y-62293519D01*
X58453356Y-62224604D01*
X58476257Y-62157402D01*
X58522034Y-62117735D01*
X58597803Y-62079129D01*
X58764430Y-61958068D01*
X58910068Y-61812430D01*
X59031129Y-61645803D01*
X59124634Y-61462290D01*
X59188280Y-61266408D01*
X59220500Y-61062981D01*
X59220500Y-60857019D01*
X59188280Y-60653592D01*
X59124634Y-60457710D01*
X59031129Y-60274197D01*
X58910068Y-60107570D01*
X58910065Y-60107567D01*
X58910063Y-60107564D01*
X58764435Y-59961936D01*
X58764432Y-59961934D01*
X58764430Y-59961932D01*
X58597803Y-59840871D01*
X58522034Y-59802265D01*
X58470422Y-59753519D01*
X58453356Y-59684604D01*
X58476257Y-59617402D01*
X58522034Y-59577735D01*
X58597803Y-59539129D01*
X58764430Y-59418068D01*
X58910068Y-59272430D01*
X59031129Y-59105803D01*
X59124634Y-58922290D01*
X59188280Y-58726408D01*
X59220500Y-58522981D01*
X59220500Y-58317019D01*
X59188280Y-58113592D01*
X59124634Y-57917710D01*
X59031129Y-57734197D01*
X58910068Y-57567570D01*
X58910065Y-57567567D01*
X58910063Y-57567564D01*
X58764435Y-57421936D01*
X58764432Y-57421934D01*
X58764430Y-57421932D01*
X58597803Y-57300871D01*
X58522034Y-57262265D01*
X58470422Y-57213519D01*
X58453356Y-57144604D01*
X58476257Y-57077402D01*
X58522034Y-57037735D01*
X58597803Y-56999129D01*
X58764430Y-56878068D01*
X58910068Y-56732430D01*
X59031129Y-56565803D01*
X59124634Y-56382290D01*
X59188280Y-56186408D01*
X59220500Y-55982981D01*
X59220500Y-55777019D01*
X59188280Y-55573592D01*
X59124634Y-55377710D01*
X59031129Y-55194197D01*
X58910068Y-55027570D01*
X58910065Y-55027567D01*
X58910063Y-55027564D01*
X58773017Y-54890518D01*
X60061500Y-54890518D01*
X60061500Y-55069481D01*
X60069456Y-55109477D01*
X60094369Y-55234725D01*
X60096414Y-55245003D01*
X60106753Y-55269962D01*
X60164898Y-55410336D01*
X60264322Y-55559135D01*
X60390865Y-55685678D01*
X60539664Y-55785102D01*
X60705000Y-55853587D01*
X60880521Y-55888500D01*
X60880522Y-55888500D01*
X61059478Y-55888500D01*
X61059479Y-55888500D01*
X61235000Y-55853587D01*
X61400336Y-55785102D01*
X61549135Y-55685678D01*
X61675678Y-55559135D01*
X61775102Y-55410336D01*
X61843587Y-55245000D01*
X61878500Y-55069479D01*
X61878500Y-54890521D01*
X61843587Y-54715000D01*
X61775102Y-54549664D01*
X61675678Y-54400865D01*
X61549135Y-54274322D01*
X61400336Y-54174898D01*
X61247281Y-54111500D01*
X61235003Y-54106414D01*
X61235001Y-54106413D01*
X61235000Y-54106413D01*
X61146645Y-54088838D01*
X61059481Y-54071500D01*
X61059479Y-54071500D01*
X60880521Y-54071500D01*
X60880518Y-54071500D01*
X60749771Y-54097507D01*
X60705000Y-54106413D01*
X60704999Y-54106413D01*
X60704996Y-54106414D01*
X60573902Y-54160716D01*
X60555113Y-54168499D01*
X60539662Y-54174899D01*
X60390869Y-54274319D01*
X60390862Y-54274324D01*
X60264324Y-54400862D01*
X60264319Y-54400869D01*
X60164899Y-54549662D01*
X60096414Y-54714996D01*
X60061500Y-54890518D01*
X58773017Y-54890518D01*
X58764435Y-54881936D01*
X58764432Y-54881934D01*
X58764430Y-54881932D01*
X58597803Y-54760871D01*
X58414290Y-54667366D01*
X58414287Y-54667365D01*
X58414285Y-54667364D01*
X58218412Y-54603721D01*
X58218410Y-54603720D01*
X58218408Y-54603720D01*
X58014981Y-54571500D01*
X57809019Y-54571500D01*
X57605592Y-54603720D01*
X57605590Y-54603720D01*
X57605587Y-54603721D01*
X57409714Y-54667364D01*
X57409708Y-54667367D01*
X57226193Y-54760873D01*
X57059567Y-54881934D01*
X57059564Y-54881936D01*
X56913936Y-55027564D01*
X56913934Y-55027567D01*
X56792873Y-55194193D01*
X56792871Y-55194197D01*
X56766986Y-55245000D01*
X56754267Y-55269962D01*
X56705518Y-55321577D01*
X56636603Y-55338643D01*
X56569402Y-55315742D01*
X56529733Y-55269962D01*
X56491129Y-55194197D01*
X56370068Y-55027570D01*
X56370065Y-55027567D01*
X56370063Y-55027564D01*
X56224435Y-54881936D01*
X56224432Y-54881934D01*
X56224430Y-54881932D01*
X56057803Y-54760871D01*
X55874290Y-54667366D01*
X55874287Y-54667365D01*
X55874285Y-54667364D01*
X55678412Y-54603721D01*
X55678410Y-54603720D01*
X55678408Y-54603720D01*
X55474981Y-54571500D01*
X55269019Y-54571500D01*
X55065592Y-54603720D01*
X55065590Y-54603720D01*
X55065587Y-54603721D01*
X54869714Y-54667364D01*
X54869708Y-54667367D01*
X54686193Y-54760873D01*
X54519567Y-54881934D01*
X54519564Y-54881936D01*
X54373936Y-55027564D01*
X54373934Y-55027567D01*
X54252873Y-55194193D01*
X54159367Y-55377708D01*
X54159364Y-55377714D01*
X54095721Y-55573587D01*
X54095720Y-55573590D01*
X54095720Y-55573592D01*
X54063500Y-55777019D01*
X44442298Y-55777019D01*
X44519135Y-55725678D01*
X44645678Y-55599135D01*
X44745102Y-55450336D01*
X44813587Y-55285000D01*
X44848500Y-55109479D01*
X44848500Y-54930521D01*
X44813587Y-54755000D01*
X44745102Y-54589664D01*
X44645678Y-54440865D01*
X44519135Y-54314322D01*
X44370336Y-54214898D01*
X44253429Y-54166473D01*
X44205003Y-54146414D01*
X44205001Y-54146413D01*
X44205000Y-54146413D01*
X44116645Y-54128838D01*
X44029481Y-54111500D01*
X44029479Y-54111500D01*
X43850521Y-54111500D01*
X43850518Y-54111500D01*
X43739491Y-54133585D01*
X43675000Y-54146413D01*
X43674999Y-54146413D01*
X43674996Y-54146414D01*
X43509662Y-54214899D01*
X43360869Y-54314319D01*
X43360862Y-54314324D01*
X43234324Y-54440862D01*
X43234318Y-54440869D01*
X43152256Y-54563684D01*
X43097779Y-54609212D01*
X43027336Y-54618059D01*
X43008561Y-54613517D01*
X42978408Y-54603720D01*
X42774981Y-54571500D01*
X42569019Y-54571500D01*
X42365592Y-54603720D01*
X42365590Y-54603720D01*
X42365587Y-54603721D01*
X42169714Y-54667364D01*
X42169708Y-54667367D01*
X41986193Y-54760873D01*
X41819567Y-54881934D01*
X41819564Y-54881936D01*
X41673936Y-55027564D01*
X41673934Y-55027567D01*
X41552873Y-55194193D01*
X41552871Y-55194197D01*
X41526986Y-55245000D01*
X41514267Y-55269962D01*
X41465518Y-55321577D01*
X41396603Y-55338643D01*
X41329402Y-55315742D01*
X41289733Y-55269962D01*
X41251129Y-55194197D01*
X41130068Y-55027570D01*
X41130065Y-55027567D01*
X41130063Y-55027564D01*
X40984435Y-54881936D01*
X40984432Y-54881934D01*
X40984430Y-54881932D01*
X40817803Y-54760871D01*
X40634290Y-54667366D01*
X40634287Y-54667365D01*
X40634285Y-54667364D01*
X40438412Y-54603721D01*
X40438410Y-54603720D01*
X40438408Y-54603720D01*
X40234981Y-54571500D01*
X40029019Y-54571500D01*
X39825592Y-54603720D01*
X39825590Y-54603720D01*
X39825587Y-54603721D01*
X39629714Y-54667364D01*
X39629708Y-54667367D01*
X39446193Y-54760873D01*
X39279567Y-54881934D01*
X39279564Y-54881936D01*
X39133936Y-55027564D01*
X39133934Y-55027567D01*
X39012873Y-55194193D01*
X38919367Y-55377708D01*
X38919364Y-55377714D01*
X38855721Y-55573587D01*
X38855720Y-55573590D01*
X38855720Y-55573592D01*
X38823500Y-55777019D01*
X38823500Y-55982981D01*
X38849162Y-56145000D01*
X38855721Y-56186412D01*
X38895986Y-56310336D01*
X38919366Y-56382290D01*
X39012871Y-56565803D01*
X39012873Y-56565806D01*
X39031545Y-56591506D01*
X39133932Y-56732430D01*
X39133934Y-56732432D01*
X39133936Y-56732435D01*
X39279564Y-56878063D01*
X39279567Y-56878065D01*
X39279570Y-56878068D01*
X39446197Y-56999129D01*
X39521962Y-57037733D01*
X39573577Y-57086482D01*
X39590643Y-57155397D01*
X39567742Y-57222598D01*
X39521963Y-57262266D01*
X39453033Y-57297387D01*
X39446193Y-57300873D01*
X39279567Y-57421934D01*
X39279564Y-57421936D01*
X39133936Y-57567564D01*
X39133934Y-57567567D01*
X39012873Y-57734193D01*
X38919367Y-57917708D01*
X38919364Y-57917714D01*
X38855721Y-58113587D01*
X38855720Y-58113590D01*
X38855720Y-58113592D01*
X38823500Y-58317019D01*
X38823500Y-58522981D01*
X38854433Y-58718283D01*
X38855721Y-58726412D01*
X38915263Y-58909664D01*
X38919366Y-58922290D01*
X39012871Y-59105803D01*
X39133932Y-59272430D01*
X39133934Y-59272432D01*
X39133936Y-59272435D01*
X39279564Y-59418063D01*
X39279567Y-59418065D01*
X39279570Y-59418068D01*
X39446197Y-59539129D01*
X39521962Y-59577733D01*
X39573577Y-59626482D01*
X39590643Y-59695397D01*
X39567742Y-59762598D01*
X39521963Y-59802266D01*
X39488595Y-59819268D01*
X39446193Y-59840873D01*
X39279567Y-59961934D01*
X39279564Y-59961936D01*
X39133936Y-60107564D01*
X39133934Y-60107567D01*
X39012873Y-60274193D01*
X38919367Y-60457708D01*
X38919364Y-60457714D01*
X38855721Y-60653587D01*
X38855720Y-60653590D01*
X38855720Y-60653592D01*
X38823500Y-60857019D01*
X38823500Y-61062981D01*
X38855720Y-61266408D01*
X38855721Y-61266412D01*
X38909317Y-61431365D01*
X38919366Y-61462290D01*
X39012871Y-61645803D01*
X39133932Y-61812430D01*
X39133934Y-61812432D01*
X39133936Y-61812435D01*
X39279564Y-61958063D01*
X39279567Y-61958065D01*
X39279570Y-61958068D01*
X39446197Y-62079129D01*
X39521962Y-62117733D01*
X39573577Y-62166482D01*
X39590643Y-62235397D01*
X39567742Y-62302598D01*
X39521963Y-62342266D01*
X39457719Y-62375000D01*
X39446193Y-62380873D01*
X39279567Y-62501934D01*
X39279564Y-62501936D01*
X39133936Y-62647564D01*
X39133934Y-62647567D01*
X39012873Y-62814193D01*
X38919367Y-62997708D01*
X38919364Y-62997714D01*
X38855721Y-63193587D01*
X38855720Y-63193590D01*
X38855720Y-63193592D01*
X38823500Y-63397019D01*
X38823500Y-63602981D01*
X38855720Y-63806408D01*
X38855721Y-63806412D01*
X38861999Y-63825735D01*
X38919366Y-64002290D01*
X39012871Y-64185803D01*
X39133932Y-64352430D01*
X39133934Y-64352432D01*
X39133936Y-64352435D01*
X39279564Y-64498063D01*
X39279567Y-64498065D01*
X39279570Y-64498068D01*
X39446197Y-64619129D01*
X39521962Y-64657733D01*
X39573577Y-64706482D01*
X39590643Y-64775397D01*
X39567742Y-64842598D01*
X39521963Y-64882266D01*
X39453033Y-64917387D01*
X39446193Y-64920873D01*
X39279567Y-65041934D01*
X39279564Y-65041936D01*
X39133936Y-65187564D01*
X39133934Y-65187567D01*
X39012873Y-65354193D01*
X38919367Y-65537708D01*
X38919364Y-65537714D01*
X38855721Y-65733587D01*
X38855720Y-65733590D01*
X38855720Y-65733592D01*
X38823500Y-65937019D01*
X38823500Y-66142981D01*
X38849117Y-66304720D01*
X38855790Y-66346851D01*
X38846690Y-66417263D01*
X38820437Y-66455657D01*
X38296167Y-66979929D01*
X38207927Y-67068169D01*
X38207926Y-67068171D01*
X38138601Y-67171923D01*
X38105169Y-67252635D01*
X38090845Y-67287215D01*
X38084327Y-67319982D01*
X38066500Y-67409603D01*
X38066500Y-70510596D01*
X38046498Y-70578717D01*
X37992842Y-70625210D01*
X37988719Y-70627004D01*
X37969671Y-70634893D01*
X37969665Y-70634897D01*
X37820869Y-70734319D01*
X37820862Y-70734324D01*
X37694324Y-70860862D01*
X37694319Y-70860869D01*
X37676114Y-70888116D01*
X37594898Y-71009664D01*
X37591850Y-71017022D01*
X37526414Y-71174996D01*
X37491500Y-71350518D01*
X36989283Y-71350518D01*
X36989332Y-71343464D01*
X37065998Y-60198546D01*
X37068458Y-59840873D01*
X37138987Y-49588218D01*
X37959200Y-49588218D01*
X37959200Y-49588221D01*
X37959200Y-49767179D01*
X37994113Y-49942700D01*
X38062598Y-50108036D01*
X38162022Y-50256835D01*
X38288565Y-50383378D01*
X38437364Y-50482802D01*
X38602700Y-50551287D01*
X38778221Y-50586200D01*
X38778222Y-50586200D01*
X38957178Y-50586200D01*
X38957179Y-50586200D01*
X39132700Y-50551287D01*
X39298036Y-50482802D01*
X39446835Y-50383378D01*
X39573378Y-50256835D01*
X39672802Y-50108036D01*
X39721480Y-49990518D01*
X46351500Y-49990518D01*
X46351500Y-49990521D01*
X46351500Y-50169479D01*
X46386413Y-50345000D01*
X46454898Y-50510336D01*
X46554322Y-50659135D01*
X46680865Y-50785678D01*
X46727617Y-50816917D01*
X46773144Y-50871392D01*
X46781993Y-50941835D01*
X46751352Y-51005879D01*
X46727619Y-51026445D01*
X46700867Y-51044320D01*
X46700862Y-51044324D01*
X46574324Y-51170862D01*
X46574319Y-51170869D01*
X46474899Y-51319662D01*
X46406414Y-51484996D01*
X46406413Y-51484999D01*
X46406413Y-51485000D01*
X46402145Y-51506456D01*
X46371500Y-51660518D01*
X46371500Y-51839481D01*
X46388838Y-51926645D01*
X46406413Y-52015000D01*
X46474898Y-52180336D01*
X46574322Y-52329135D01*
X46574324Y-52329137D01*
X46676091Y-52430904D01*
X46710117Y-52493216D01*
X46705052Y-52564031D01*
X46676093Y-52609093D01*
X46604320Y-52680867D01*
X46604319Y-52680869D01*
X46504899Y-52829662D01*
X46436414Y-52994996D01*
X46401500Y-53170518D01*
X46401500Y-53349481D01*
X46411446Y-53399481D01*
X46435758Y-53521708D01*
X46436414Y-53525003D01*
X46442957Y-53540799D01*
X46504898Y-53690336D01*
X46604322Y-53839135D01*
X46730865Y-53965678D01*
X46879664Y-54065102D01*
X47045000Y-54133587D01*
X47220521Y-54168500D01*
X47220522Y-54168500D01*
X47399478Y-54168500D01*
X47399479Y-54168500D01*
X47575000Y-54133587D01*
X47740336Y-54065102D01*
X47889135Y-53965678D01*
X48015678Y-53839135D01*
X48115102Y-53690336D01*
X48183587Y-53525000D01*
X48218500Y-53349479D01*
X48218500Y-53220518D01*
X58461500Y-53220518D01*
X58461500Y-53399481D01*
X58462359Y-53403797D01*
X58494776Y-53566771D01*
X58496414Y-53575003D01*
X58512979Y-53614993D01*
X58564898Y-53740336D01*
X58664322Y-53889135D01*
X58790865Y-54015678D01*
X58939664Y-54115102D01*
X59105000Y-54183587D01*
X59280521Y-54218500D01*
X59280522Y-54218500D01*
X59459478Y-54218500D01*
X59459479Y-54218500D01*
X59635000Y-54183587D01*
X59800336Y-54115102D01*
X59949135Y-54015678D01*
X60075678Y-53889135D01*
X60175102Y-53740336D01*
X60243587Y-53575000D01*
X60278500Y-53399479D01*
X60278500Y-53220521D01*
X60243587Y-53045000D01*
X60175102Y-52879664D01*
X60075678Y-52730865D01*
X59949135Y-52604322D01*
X59800336Y-52504898D01*
X59658068Y-52445968D01*
X59635003Y-52436414D01*
X59635001Y-52436413D01*
X59635000Y-52436413D01*
X59517239Y-52412989D01*
X59459481Y-52401500D01*
X59459479Y-52401500D01*
X59280521Y-52401500D01*
X59280518Y-52401500D01*
X59149771Y-52427507D01*
X59105000Y-52436413D01*
X59104999Y-52436413D01*
X59104996Y-52436414D01*
X58939662Y-52504899D01*
X58790869Y-52604319D01*
X58790862Y-52604324D01*
X58664324Y-52730862D01*
X58664319Y-52730869D01*
X58588054Y-52845009D01*
X58564898Y-52879664D01*
X58550716Y-52913902D01*
X58496414Y-53044996D01*
X58496413Y-53044999D01*
X58496413Y-53045000D01*
X58490446Y-53075000D01*
X58461500Y-53220518D01*
X48218500Y-53220518D01*
X48218500Y-53170521D01*
X48183587Y-52995000D01*
X48115102Y-52829664D01*
X48015678Y-52680865D01*
X47913908Y-52579095D01*
X47879882Y-52516783D01*
X47884947Y-52445968D01*
X47913908Y-52400905D01*
X47985678Y-52329135D01*
X48085102Y-52180336D01*
X48153587Y-52015000D01*
X48188500Y-51839479D01*
X48188500Y-51660521D01*
X48153587Y-51485000D01*
X48085102Y-51319664D01*
X47985678Y-51170865D01*
X47865331Y-51050518D01*
X48871500Y-51050518D01*
X48871500Y-51229481D01*
X48881594Y-51280226D01*
X48903613Y-51390925D01*
X48906414Y-51405003D01*
X48921599Y-51441661D01*
X48974898Y-51570336D01*
X49074322Y-51719135D01*
X49200865Y-51845678D01*
X49349664Y-51945102D01*
X49515000Y-52013587D01*
X49690521Y-52048500D01*
X49690522Y-52048500D01*
X49869478Y-52048500D01*
X49869479Y-52048500D01*
X50045000Y-52013587D01*
X50210336Y-51945102D01*
X50359135Y-51845678D01*
X50485678Y-51719135D01*
X50585102Y-51570336D01*
X50653587Y-51405000D01*
X50688500Y-51229479D01*
X50688500Y-51050521D01*
X50653587Y-50875000D01*
X50585102Y-50709664D01*
X50485678Y-50560865D01*
X50359135Y-50434322D01*
X50210336Y-50334898D01*
X50093429Y-50286473D01*
X50045003Y-50266414D01*
X50045001Y-50266413D01*
X50045000Y-50266413D01*
X49956645Y-50248838D01*
X49869481Y-50231500D01*
X49869479Y-50231500D01*
X49690521Y-50231500D01*
X49690518Y-50231500D01*
X49563177Y-50256830D01*
X49515000Y-50266413D01*
X49514999Y-50266413D01*
X49514996Y-50266414D01*
X49349662Y-50334899D01*
X49200869Y-50434319D01*
X49200862Y-50434324D01*
X49074324Y-50560862D01*
X49074319Y-50560869D01*
X48974899Y-50709662D01*
X48906414Y-50874996D01*
X48906413Y-50874999D01*
X48906413Y-50875000D01*
X48904404Y-50885102D01*
X48871500Y-51050518D01*
X47865331Y-51050518D01*
X47859135Y-51044322D01*
X47805488Y-51008476D01*
X47799263Y-51003012D01*
X47784518Y-50979742D01*
X47766855Y-50958607D01*
X47765798Y-50950199D01*
X47761263Y-50943041D01*
X47761439Y-50915496D01*
X47758006Y-50888164D01*
X47761663Y-50880518D01*
X47761718Y-50872046D01*
X47776758Y-50848968D01*
X47788647Y-50824120D01*
X47798541Y-50815546D01*
X47800483Y-50812567D01*
X47803588Y-50811172D01*
X47812376Y-50803557D01*
X47839135Y-50785678D01*
X47965678Y-50659135D01*
X48065102Y-50510336D01*
X48133587Y-50345000D01*
X48168500Y-50169479D01*
X48168500Y-49990521D01*
X48133587Y-49815000D01*
X48065102Y-49649664D01*
X47965678Y-49500865D01*
X47839135Y-49374322D01*
X47690336Y-49274898D01*
X47566249Y-49223499D01*
X47525003Y-49206414D01*
X47525001Y-49206413D01*
X47525000Y-49206413D01*
X47428982Y-49187314D01*
X47349481Y-49171500D01*
X47349479Y-49171500D01*
X47170521Y-49171500D01*
X47170518Y-49171500D01*
X47039771Y-49197507D01*
X46995000Y-49206413D01*
X46994999Y-49206413D01*
X46994996Y-49206414D01*
X46829662Y-49274899D01*
X46680869Y-49374319D01*
X46680862Y-49374324D01*
X46554324Y-49500862D01*
X46554319Y-49500869D01*
X46454899Y-49649662D01*
X46386414Y-49814996D01*
X46351500Y-49990518D01*
X39721480Y-49990518D01*
X39741287Y-49942700D01*
X39776200Y-49767179D01*
X39776200Y-49588221D01*
X39741287Y-49412700D01*
X39672802Y-49247364D01*
X39573378Y-49098565D01*
X39446835Y-48972022D01*
X39298036Y-48872598D01*
X39181129Y-48824173D01*
X39132703Y-48804114D01*
X39132701Y-48804113D01*
X39132700Y-48804113D01*
X39044345Y-48786538D01*
X38957181Y-48769200D01*
X38957179Y-48769200D01*
X38778221Y-48769200D01*
X38778218Y-48769200D01*
X38647471Y-48795207D01*
X38602700Y-48804113D01*
X38602699Y-48804113D01*
X38602696Y-48804114D01*
X38437362Y-48872599D01*
X38288569Y-48972019D01*
X38288562Y-48972024D01*
X38162024Y-49098562D01*
X38162019Y-49098569D01*
X38062599Y-49247362D01*
X37994114Y-49412696D01*
X37994113Y-49412699D01*
X37994113Y-49412700D01*
X37993196Y-49417309D01*
X37959200Y-49588218D01*
X37138987Y-49588218D01*
X37147915Y-48290315D01*
X49190500Y-48290315D01*
X49190500Y-48483685D01*
X49214087Y-48632606D01*
X49220751Y-48674679D01*
X49262807Y-48804114D01*
X49280504Y-48858580D01*
X49368292Y-49030874D01*
X49481952Y-49187314D01*
X49481954Y-49187316D01*
X49481956Y-49187319D01*
X49618680Y-49324043D01*
X49618683Y-49324045D01*
X49618686Y-49324048D01*
X49775126Y-49437708D01*
X49947420Y-49525496D01*
X50131320Y-49585248D01*
X50131321Y-49585248D01*
X50131326Y-49585250D01*
X50322315Y-49615500D01*
X50322318Y-49615500D01*
X50515682Y-49615500D01*
X50515685Y-49615500D01*
X50706674Y-49585250D01*
X50890580Y-49525496D01*
X51062874Y-49437708D01*
X51219314Y-49324048D01*
X51219319Y-49324043D01*
X51263171Y-49280192D01*
X51356043Y-49187319D01*
X51356048Y-49187314D01*
X51469708Y-49030874D01*
X51557496Y-48858580D01*
X51617250Y-48674674D01*
X51647500Y-48483685D01*
X51647500Y-48290357D01*
X54271000Y-48290357D01*
X54271000Y-48483642D01*
X54301239Y-48674561D01*
X54360966Y-48858383D01*
X54360971Y-48858395D01*
X54448718Y-49030610D01*
X54468689Y-49058098D01*
X54468690Y-49058098D01*
X55099000Y-48427788D01*
X55099000Y-48439661D01*
X55126259Y-48541394D01*
X55178920Y-48632606D01*
X55253394Y-48707080D01*
X55344606Y-48759741D01*
X55446339Y-48787000D01*
X55458210Y-48787000D01*
X54827900Y-49417308D01*
X54855386Y-49437278D01*
X55027610Y-49525030D01*
X55027616Y-49525033D01*
X55211438Y-49584760D01*
X55402357Y-49615000D01*
X55595643Y-49615000D01*
X55786561Y-49584760D01*
X55970383Y-49525033D01*
X55970389Y-49525030D01*
X56142613Y-49437278D01*
X56142615Y-49437277D01*
X56170098Y-49417309D01*
X56170099Y-49417308D01*
X55539791Y-48787000D01*
X55551661Y-48787000D01*
X55653394Y-48759741D01*
X55744606Y-48707080D01*
X55819080Y-48632606D01*
X55871741Y-48541394D01*
X55899000Y-48439661D01*
X55899000Y-48427791D01*
X56529308Y-49058099D01*
X56529309Y-49058098D01*
X56549277Y-49030615D01*
X56549278Y-49030613D01*
X56637030Y-48858389D01*
X56637033Y-48858383D01*
X56696760Y-48674561D01*
X56727000Y-48483642D01*
X56727000Y-48290358D01*
X56718872Y-48239043D01*
X56718872Y-48239042D01*
X56716730Y-48225518D01*
X60116500Y-48225518D01*
X60116500Y-48225521D01*
X60116500Y-48404479D01*
X60151413Y-48580000D01*
X60219898Y-48745336D01*
X60319322Y-48894135D01*
X60445865Y-49020678D01*
X60594664Y-49120102D01*
X60760000Y-49188587D01*
X60935521Y-49223500D01*
X60935522Y-49223500D01*
X61114478Y-49223500D01*
X61114479Y-49223500D01*
X61290000Y-49188587D01*
X61455336Y-49120102D01*
X61604135Y-49020678D01*
X61730678Y-48894135D01*
X61830102Y-48745336D01*
X61898587Y-48580000D01*
X61933500Y-48404479D01*
X61933500Y-48225521D01*
X61898587Y-48050000D01*
X61830102Y-47884664D01*
X61730678Y-47735865D01*
X61604135Y-47609322D01*
X61455336Y-47509898D01*
X61338429Y-47461473D01*
X61290003Y-47441414D01*
X61290001Y-47441413D01*
X61290000Y-47441413D01*
X61183802Y-47420289D01*
X61114481Y-47406500D01*
X61114479Y-47406500D01*
X60935521Y-47406500D01*
X60935518Y-47406500D01*
X60804771Y-47432507D01*
X60760000Y-47441413D01*
X60759999Y-47441413D01*
X60759996Y-47441414D01*
X60594662Y-47509899D01*
X60445869Y-47609319D01*
X60445862Y-47609324D01*
X60319324Y-47735862D01*
X60319319Y-47735869D01*
X60219899Y-47884662D01*
X60151414Y-48049996D01*
X60151413Y-48049999D01*
X60151413Y-48050000D01*
X60142507Y-48094771D01*
X60116500Y-48225518D01*
X56716730Y-48225518D01*
X56696760Y-48099438D01*
X56637033Y-47915616D01*
X56637030Y-47915610D01*
X56549278Y-47743386D01*
X56529308Y-47715900D01*
X55899000Y-48346208D01*
X55899000Y-48334339D01*
X55871741Y-48232606D01*
X55819080Y-48141394D01*
X55744606Y-48066920D01*
X55653394Y-48014259D01*
X55551661Y-47987000D01*
X55539790Y-47987000D01*
X56170098Y-47356690D01*
X56170098Y-47356689D01*
X56142610Y-47336718D01*
X55970395Y-47248971D01*
X55970383Y-47248966D01*
X55786561Y-47189239D01*
X55595643Y-47159000D01*
X55402357Y-47159000D01*
X55211438Y-47189239D01*
X55027616Y-47248966D01*
X55027604Y-47248971D01*
X54855385Y-47336720D01*
X54855383Y-47336722D01*
X54827899Y-47356689D01*
X54827899Y-47356690D01*
X55458209Y-47987000D01*
X55446339Y-47987000D01*
X55344606Y-48014259D01*
X55253394Y-48066920D01*
X55178920Y-48141394D01*
X55126259Y-48232606D01*
X55099000Y-48334339D01*
X55099000Y-48346209D01*
X54468690Y-47715899D01*
X54468689Y-47715899D01*
X54448722Y-47743383D01*
X54448720Y-47743385D01*
X54360971Y-47915604D01*
X54360966Y-47915616D01*
X54301239Y-48099438D01*
X54271000Y-48290357D01*
X51647500Y-48290357D01*
X51647500Y-48290315D01*
X51617250Y-48099326D01*
X51557496Y-47915420D01*
X51469708Y-47743126D01*
X51356048Y-47586686D01*
X51356045Y-47586683D01*
X51356043Y-47586680D01*
X51219319Y-47449956D01*
X51219316Y-47449954D01*
X51219314Y-47449952D01*
X51063463Y-47336720D01*
X51062877Y-47336294D01*
X51062876Y-47336293D01*
X51062874Y-47336292D01*
X50890580Y-47248504D01*
X50890577Y-47248503D01*
X50890575Y-47248502D01*
X50706678Y-47188751D01*
X50706681Y-47188751D01*
X50671121Y-47183118D01*
X50515685Y-47158500D01*
X50322315Y-47158500D01*
X50131326Y-47188750D01*
X50131320Y-47188751D01*
X49947424Y-47248502D01*
X49947418Y-47248505D01*
X49775122Y-47336294D01*
X49618683Y-47449954D01*
X49618680Y-47449956D01*
X49481956Y-47586680D01*
X49481954Y-47586683D01*
X49368294Y-47743122D01*
X49280505Y-47915418D01*
X49280502Y-47915424D01*
X49220751Y-48099320D01*
X49220750Y-48099325D01*
X49220750Y-48099326D01*
X49190500Y-48290315D01*
X37147915Y-48290315D01*
X37161822Y-46268709D01*
X39319500Y-46268709D01*
X39319500Y-46511290D01*
X39351160Y-46751782D01*
X39413944Y-46986095D01*
X39413945Y-46986097D01*
X39413946Y-46986100D01*
X39506776Y-47210212D01*
X39506777Y-47210213D01*
X39506782Y-47210224D01*
X39628061Y-47420285D01*
X39628063Y-47420288D01*
X39628064Y-47420289D01*
X39775735Y-47612738D01*
X39775739Y-47612742D01*
X39775744Y-47612748D01*
X39947251Y-47784255D01*
X39947256Y-47784259D01*
X39947262Y-47784265D01*
X40139711Y-47931936D01*
X40139714Y-47931938D01*
X40349775Y-48053217D01*
X40349779Y-48053218D01*
X40349788Y-48053224D01*
X40573900Y-48146054D01*
X40808211Y-48208838D01*
X40808215Y-48208838D01*
X40808217Y-48208839D01*
X40870202Y-48216999D01*
X41048712Y-48240500D01*
X41048719Y-48240500D01*
X41291281Y-48240500D01*
X41291288Y-48240500D01*
X41508637Y-48211885D01*
X41531782Y-48208839D01*
X41531782Y-48208838D01*
X41531789Y-48208838D01*
X41766100Y-48146054D01*
X41990212Y-48053224D01*
X42200289Y-47931936D01*
X42392738Y-47784265D01*
X42564265Y-47612738D01*
X42711936Y-47420289D01*
X42833224Y-47210212D01*
X42926054Y-46986100D01*
X42988838Y-46751789D01*
X43020500Y-46511288D01*
X43020500Y-46268712D01*
X42988838Y-46028211D01*
X42926054Y-45793900D01*
X42908001Y-45750315D01*
X51730500Y-45750315D01*
X51730500Y-45943685D01*
X51760750Y-46134674D01*
X51760751Y-46134679D01*
X51804300Y-46268709D01*
X51820504Y-46318580D01*
X51908292Y-46490874D01*
X51908294Y-46490877D01*
X51923124Y-46511288D01*
X52021952Y-46647314D01*
X52021954Y-46647316D01*
X52021956Y-46647319D01*
X52158680Y-46784043D01*
X52158683Y-46784045D01*
X52158686Y-46784048D01*
X52315126Y-46897708D01*
X52487420Y-46985496D01*
X52671320Y-47045248D01*
X52671321Y-47045248D01*
X52671326Y-47045250D01*
X52862315Y-47075500D01*
X52862318Y-47075500D01*
X53055682Y-47075500D01*
X53055685Y-47075500D01*
X53246674Y-47045250D01*
X53430580Y-46985496D01*
X53602874Y-46897708D01*
X53759314Y-46784048D01*
X53896048Y-46647314D01*
X54009708Y-46490874D01*
X54097496Y-46318580D01*
X54157250Y-46134674D01*
X54187500Y-45943685D01*
X54187500Y-45890518D01*
X58501500Y-45890518D01*
X58501500Y-45890521D01*
X58501500Y-46069479D01*
X58536413Y-46245000D01*
X58604898Y-46410336D01*
X58704322Y-46559135D01*
X58830865Y-46685678D01*
X58979664Y-46785102D01*
X59145000Y-46853587D01*
X59320521Y-46888500D01*
X59320522Y-46888500D01*
X59499478Y-46888500D01*
X59499479Y-46888500D01*
X59675000Y-46853587D01*
X59840336Y-46785102D01*
X59989135Y-46685678D01*
X60115678Y-46559135D01*
X60215102Y-46410336D01*
X60283587Y-46245000D01*
X60318500Y-46069479D01*
X60318500Y-45890521D01*
X60283587Y-45715000D01*
X60215102Y-45549664D01*
X60115678Y-45400865D01*
X59989135Y-45274322D01*
X59840336Y-45174898D01*
X59716976Y-45123800D01*
X59675003Y-45106414D01*
X59675001Y-45106413D01*
X59675000Y-45106413D01*
X59567349Y-45085000D01*
X59499481Y-45071500D01*
X59499479Y-45071500D01*
X59320521Y-45071500D01*
X59320518Y-45071500D01*
X59189771Y-45097507D01*
X59145000Y-45106413D01*
X59144999Y-45106413D01*
X59144996Y-45106414D01*
X59061826Y-45140865D01*
X58998126Y-45167251D01*
X58979662Y-45174899D01*
X58830869Y-45274319D01*
X58830862Y-45274324D01*
X58704324Y-45400862D01*
X58704319Y-45400869D01*
X58604899Y-45549662D01*
X58536414Y-45714996D01*
X58536413Y-45714999D01*
X58536413Y-45715000D01*
X58529388Y-45750318D01*
X58501500Y-45890518D01*
X54187500Y-45890518D01*
X54187500Y-45750315D01*
X54157250Y-45559326D01*
X54097496Y-45375420D01*
X54009708Y-45203126D01*
X53896048Y-45046686D01*
X53896045Y-45046683D01*
X53896043Y-45046680D01*
X53759319Y-44909956D01*
X53759316Y-44909954D01*
X53759314Y-44909952D01*
X53602874Y-44796292D01*
X53430580Y-44708504D01*
X53430577Y-44708503D01*
X53430575Y-44708502D01*
X53246678Y-44648751D01*
X53246681Y-44648751D01*
X53211121Y-44643118D01*
X53055685Y-44618500D01*
X52862315Y-44618500D01*
X52671326Y-44648750D01*
X52671320Y-44648751D01*
X52487424Y-44708502D01*
X52487418Y-44708505D01*
X52315122Y-44796294D01*
X52158683Y-44909954D01*
X52158680Y-44909956D01*
X52021956Y-45046680D01*
X52021954Y-45046683D01*
X51908294Y-45203122D01*
X51820505Y-45375418D01*
X51820502Y-45375424D01*
X51760751Y-45559320D01*
X51760750Y-45559325D01*
X51760750Y-45559326D01*
X51730500Y-45750315D01*
X42908001Y-45750315D01*
X42833224Y-45569788D01*
X42833218Y-45569779D01*
X42833217Y-45569775D01*
X42711938Y-45359714D01*
X42674820Y-45311341D01*
X42564265Y-45167262D01*
X42564259Y-45167256D01*
X42564255Y-45167251D01*
X42392748Y-44995744D01*
X42392742Y-44995739D01*
X42392738Y-44995735D01*
X42200289Y-44848064D01*
X42200288Y-44848063D01*
X42200285Y-44848061D01*
X41990224Y-44726782D01*
X41990216Y-44726778D01*
X41990212Y-44726776D01*
X41766100Y-44633946D01*
X41766097Y-44633945D01*
X41766095Y-44633944D01*
X41531782Y-44571160D01*
X41291290Y-44539500D01*
X41291288Y-44539500D01*
X41048712Y-44539500D01*
X41048709Y-44539500D01*
X40808217Y-44571160D01*
X40573904Y-44633944D01*
X40573900Y-44633946D01*
X40393899Y-44708505D01*
X40349786Y-44726777D01*
X40349775Y-44726782D01*
X40139714Y-44848061D01*
X39947262Y-44995735D01*
X39947251Y-44995744D01*
X39775744Y-45167251D01*
X39775735Y-45167262D01*
X39628061Y-45359714D01*
X39506782Y-45569775D01*
X39506777Y-45569786D01*
X39413946Y-45793900D01*
X39413944Y-45793904D01*
X39351160Y-46028217D01*
X39319500Y-46268709D01*
X37161822Y-46268709D01*
X37167110Y-45499963D01*
X37167801Y-45487638D01*
X37186376Y-45311341D01*
X37191349Y-45287183D01*
X37242094Y-45123800D01*
X37251682Y-45101073D01*
X37333300Y-44950715D01*
X37347131Y-44930299D01*
X37460455Y-44793965D01*
X37468789Y-44784883D01*
X39315618Y-42960762D01*
X39324669Y-42952648D01*
X39460441Y-42842307D01*
X39480708Y-42828864D01*
X39629748Y-42749582D01*
X39652228Y-42740286D01*
X39813723Y-42691156D01*
X39837582Y-42686356D01*
X40011619Y-42668582D01*
X40023767Y-42667933D01*
X60316675Y-42566595D01*
X60384893Y-42586256D01*
X60431653Y-42639679D01*
X60442107Y-42709902D01*
X60433711Y-42740811D01*
X60386414Y-42854994D01*
X60351500Y-43030518D01*
X60351500Y-43030521D01*
X60351500Y-43209479D01*
X60386413Y-43385000D01*
X60454898Y-43550336D01*
X60554322Y-43699135D01*
X60680865Y-43825678D01*
X60829664Y-43925102D01*
X60995000Y-43993587D01*
X61170521Y-44028500D01*
X61170522Y-44028500D01*
X61349478Y-44028500D01*
X61349479Y-44028500D01*
X61525000Y-43993587D01*
X61690336Y-43925102D01*
X61839135Y-43825678D01*
X61965678Y-43699135D01*
X62065102Y-43550336D01*
X62133587Y-43385000D01*
X62168500Y-43209479D01*
X62168500Y-43030521D01*
X62133587Y-42855000D01*
X62082395Y-42731414D01*
X62074807Y-42660826D01*
X62106586Y-42597339D01*
X62167644Y-42561111D01*
X62198167Y-42557200D01*
X63622207Y-42550088D01*
X63622883Y-42550088D01*
X63638992Y-42550148D01*
G37*
%TD.AperFunction*%
%TD*%
%TA.AperFunction,Conductor*%
%TO.N,HBS*%
G36*
X93697342Y-50375053D02*
G01*
X95318529Y-50411898D01*
X95330972Y-50412798D01*
X95508704Y-50434555D01*
X95533015Y-50440012D01*
X95697050Y-50494364D01*
X95719809Y-50504502D01*
X95875363Y-50593177D01*
X95885885Y-50599886D01*
X96100929Y-50752498D01*
X99134781Y-52905554D01*
X99144347Y-52913064D01*
X99276465Y-53027523D01*
X99293232Y-53045157D01*
X99397113Y-53178051D01*
X99410178Y-53198581D01*
X99486575Y-53348963D01*
X99495450Y-53371620D01*
X99541516Y-53533882D01*
X99545870Y-53557822D01*
X99560397Y-53732021D01*
X99560821Y-53744195D01*
X99479496Y-59762208D01*
X99458576Y-59830052D01*
X99404297Y-59875815D01*
X99333893Y-59884969D01*
X99269716Y-59854606D01*
X99264413Y-59849600D01*
X99199137Y-59784324D01*
X99199135Y-59784322D01*
X99050336Y-59684898D01*
X98933429Y-59636473D01*
X98885003Y-59616414D01*
X98885001Y-59616413D01*
X98885000Y-59616413D01*
X98796645Y-59598838D01*
X98709481Y-59581500D01*
X98709479Y-59581500D01*
X98530521Y-59581500D01*
X98530518Y-59581500D01*
X98399771Y-59607507D01*
X98355000Y-59616413D01*
X98354999Y-59616413D01*
X98354996Y-59616414D01*
X98189662Y-59684899D01*
X98040869Y-59784319D01*
X98040862Y-59784324D01*
X97914324Y-59910862D01*
X97914319Y-59910869D01*
X97814899Y-60059662D01*
X97746414Y-60224996D01*
X97711500Y-60400518D01*
X97711500Y-60400521D01*
X97711500Y-60579479D01*
X97746413Y-60755000D01*
X97814898Y-60920336D01*
X97914322Y-61069135D01*
X98040865Y-61195678D01*
X98189664Y-61295102D01*
X98355000Y-61363587D01*
X98530521Y-61398500D01*
X98530522Y-61398500D01*
X98709478Y-61398500D01*
X98709479Y-61398500D01*
X98885000Y-61363587D01*
X99050336Y-61295102D01*
X99199135Y-61195678D01*
X99244430Y-61150382D01*
X99306738Y-61116360D01*
X99377553Y-61121424D01*
X99434389Y-61163970D01*
X99459201Y-61230490D01*
X99459510Y-61241182D01*
X99447086Y-62160608D01*
X99446223Y-62173732D01*
X99424019Y-62361121D01*
X99418225Y-62386744D01*
X99359779Y-62559171D01*
X99348799Y-62583033D01*
X99255870Y-62739599D01*
X99240181Y-62760668D01*
X99112320Y-62899433D01*
X99102915Y-62908627D01*
X96454389Y-65240227D01*
X95233104Y-66315370D01*
X94609999Y-67629999D01*
X94601453Y-71331121D01*
X94601453Y-71331122D01*
X94601261Y-71414020D01*
X94600443Y-71428066D01*
X94580974Y-71598041D01*
X94574684Y-71625425D01*
X94520383Y-71780164D01*
X94508181Y-71805473D01*
X94420936Y-71944337D01*
X94403429Y-71966313D01*
X94287585Y-72082386D01*
X94265644Y-72099937D01*
X94120960Y-72191238D01*
X94108660Y-72198071D01*
X93846351Y-72325169D01*
X93833031Y-72330705D01*
X93637773Y-72399041D01*
X93609676Y-72405386D01*
X93403996Y-72427593D01*
X93389590Y-72428318D01*
X92237184Y-72420260D01*
X91108444Y-72412366D01*
X91095022Y-72411555D01*
X90903379Y-72389659D01*
X90877176Y-72383784D01*
X90700938Y-72323951D01*
X90676573Y-72312658D01*
X90511203Y-72213344D01*
X90500063Y-72205816D01*
X90384756Y-72118597D01*
X90375605Y-72110969D01*
X90255759Y-72001061D01*
X90239817Y-71983392D01*
X90146346Y-71857712D01*
X90134011Y-71837360D01*
X90065840Y-71696349D01*
X90057552Y-71674041D01*
X90044559Y-71625425D01*
X90017112Y-71522729D01*
X90013166Y-71499265D01*
X90007018Y-71414020D01*
X90001466Y-71337050D01*
X90001173Y-71325170D01*
X90058857Y-68770604D01*
X90060000Y-68720000D01*
X90018664Y-68194997D01*
X89792001Y-65316113D01*
X89792000Y-65316107D01*
X89791821Y-65313832D01*
X89791818Y-65313811D01*
X89789000Y-65278000D01*
X89558143Y-63800518D01*
X90351500Y-63800518D01*
X90351500Y-63800521D01*
X90351500Y-63979479D01*
X90386413Y-64155000D01*
X90454898Y-64320336D01*
X90554322Y-64469135D01*
X90680865Y-64595678D01*
X90829664Y-64695102D01*
X90995000Y-64763587D01*
X91170521Y-64798500D01*
X91170522Y-64798500D01*
X91349478Y-64798500D01*
X91349479Y-64798500D01*
X91525000Y-64763587D01*
X91690336Y-64695102D01*
X91839135Y-64595678D01*
X91965678Y-64469135D01*
X92065102Y-64320336D01*
X92133587Y-64155000D01*
X92168500Y-63979479D01*
X92168500Y-63870518D01*
X93641500Y-63870518D01*
X93641500Y-64049481D01*
X93676414Y-64225003D01*
X93744898Y-64390336D01*
X93766922Y-64423297D01*
X93788136Y-64491050D01*
X93775559Y-64543238D01*
X93777267Y-64543946D01*
X93774899Y-64549662D01*
X93774898Y-64549664D01*
X93746417Y-64618422D01*
X93706414Y-64714996D01*
X93671500Y-64890518D01*
X93671500Y-64890521D01*
X93671500Y-65069479D01*
X93706413Y-65245000D01*
X93774898Y-65410336D01*
X93874322Y-65559135D01*
X94000865Y-65685678D01*
X94149664Y-65785102D01*
X94315000Y-65853587D01*
X94490521Y-65888500D01*
X94490522Y-65888500D01*
X94669478Y-65888500D01*
X94669479Y-65888500D01*
X94845000Y-65853587D01*
X95010336Y-65785102D01*
X95159135Y-65685678D01*
X95285678Y-65559135D01*
X95385102Y-65410336D01*
X95453587Y-65245000D01*
X95488500Y-65069479D01*
X95488500Y-64890521D01*
X95453587Y-64715000D01*
X95385102Y-64549664D01*
X95363077Y-64516702D01*
X95341863Y-64448950D01*
X95354451Y-64396765D01*
X95352733Y-64396054D01*
X95355100Y-64390338D01*
X95355102Y-64390336D01*
X95423587Y-64225000D01*
X95458500Y-64049479D01*
X95458500Y-63870521D01*
X95423587Y-63695000D01*
X95355102Y-63529664D01*
X95255678Y-63380865D01*
X95129135Y-63254322D01*
X94980336Y-63154898D01*
X94863429Y-63106473D01*
X94815003Y-63086414D01*
X94815001Y-63086413D01*
X94815000Y-63086413D01*
X94726645Y-63068838D01*
X94639481Y-63051500D01*
X94639479Y-63051500D01*
X94460521Y-63051500D01*
X94460518Y-63051500D01*
X94329771Y-63077507D01*
X94285000Y-63086413D01*
X94284999Y-63086413D01*
X94284996Y-63086414D01*
X94119662Y-63154899D01*
X93970869Y-63254319D01*
X93970862Y-63254324D01*
X93844324Y-63380862D01*
X93844319Y-63380869D01*
X93744899Y-63529662D01*
X93676414Y-63694996D01*
X93641500Y-63870518D01*
X92168500Y-63870518D01*
X92168500Y-63800521D01*
X92133587Y-63625000D01*
X92065102Y-63459664D01*
X91965678Y-63310865D01*
X91839135Y-63184322D01*
X91690336Y-63084898D01*
X91573429Y-63036473D01*
X91525003Y-63016414D01*
X91525001Y-63016413D01*
X91525000Y-63016413D01*
X91436645Y-62998838D01*
X91349481Y-62981500D01*
X91349479Y-62981500D01*
X91170521Y-62981500D01*
X91170518Y-62981500D01*
X91039771Y-63007507D01*
X90995000Y-63016413D01*
X90994999Y-63016413D01*
X90994996Y-63016414D01*
X90829662Y-63084899D01*
X90680869Y-63184319D01*
X90680862Y-63184324D01*
X90554324Y-63310862D01*
X90554319Y-63310869D01*
X90454899Y-63459662D01*
X90386414Y-63624996D01*
X90351500Y-63800518D01*
X89558143Y-63800518D01*
X89166364Y-61293134D01*
X89165706Y-61288300D01*
X89157567Y-61218607D01*
X89156811Y-61208872D01*
X89154095Y-61138796D01*
X89154000Y-61133916D01*
X89154000Y-58076518D01*
X96373500Y-58076518D01*
X96373500Y-58076521D01*
X96373500Y-58255479D01*
X96408413Y-58431000D01*
X96476898Y-58596336D01*
X96576322Y-58745135D01*
X96702865Y-58871678D01*
X96851664Y-58971102D01*
X97017000Y-59039587D01*
X97192521Y-59074500D01*
X97192522Y-59074500D01*
X97371478Y-59074500D01*
X97371479Y-59074500D01*
X97547000Y-59039587D01*
X97712336Y-58971102D01*
X97861135Y-58871678D01*
X97987678Y-58745135D01*
X98087102Y-58596336D01*
X98155587Y-58431000D01*
X98190500Y-58255479D01*
X98190500Y-58076521D01*
X98155587Y-57901000D01*
X98087102Y-57735664D01*
X97987678Y-57586865D01*
X97861135Y-57460322D01*
X97712336Y-57360898D01*
X97595429Y-57312473D01*
X97547003Y-57292414D01*
X97547001Y-57292413D01*
X97547000Y-57292413D01*
X97458645Y-57274838D01*
X97371481Y-57257500D01*
X97371479Y-57257500D01*
X97192521Y-57257500D01*
X97192518Y-57257500D01*
X97061771Y-57283507D01*
X97017000Y-57292413D01*
X97016999Y-57292413D01*
X97016996Y-57292414D01*
X96851662Y-57360899D01*
X96702869Y-57460319D01*
X96702862Y-57460324D01*
X96576324Y-57586862D01*
X96576319Y-57586869D01*
X96476899Y-57735662D01*
X96408414Y-57900996D01*
X96373500Y-58076518D01*
X89154000Y-58076518D01*
X89154000Y-54963350D01*
X89154145Y-54957303D01*
X89154325Y-54953552D01*
X89158317Y-54870474D01*
X89159474Y-54858461D01*
X89171951Y-54772436D01*
X89172955Y-54766519D01*
X89880791Y-51126211D01*
X89883805Y-51114009D01*
X89935917Y-50940741D01*
X89945539Y-50917485D01*
X90028063Y-50763646D01*
X90042118Y-50742764D01*
X90153595Y-50608401D01*
X90171517Y-50590739D01*
X90307481Y-50481238D01*
X90328568Y-50467484D01*
X90483601Y-50387204D01*
X90506982Y-50377928D01*
X90674895Y-50330081D01*
X90699657Y-50325640D01*
X90880051Y-50311653D01*
X90892633Y-50311310D01*
X93697342Y-50375053D01*
G37*
%TD.AperFunction*%
%TD*%
%TA.AperFunction,Conductor*%
%TO.N,HCS*%
G36*
X106506143Y-50545255D02*
G01*
X106508961Y-50545332D01*
X106550081Y-50546920D01*
X106555774Y-50547269D01*
X106596832Y-50550727D01*
X106599567Y-50550988D01*
X109559282Y-50868101D01*
X109571698Y-50870063D01*
X109748665Y-50907187D01*
X109772644Y-50914784D01*
X109932866Y-50983824D01*
X109954856Y-50996035D01*
X110098166Y-51095547D01*
X110117293Y-51111887D01*
X110237959Y-51237888D01*
X110253463Y-51257713D01*
X110350060Y-51410531D01*
X110356252Y-51421505D01*
X110651225Y-52011450D01*
X110656254Y-52022896D01*
X110720190Y-52190526D01*
X110726734Y-52214629D01*
X110756349Y-52391568D01*
X110757799Y-52403987D01*
X110867443Y-54048643D01*
X110867618Y-54051904D01*
X110869524Y-54098767D01*
X110869620Y-54105288D01*
X110869099Y-54152152D01*
X110869021Y-54155414D01*
X110744000Y-57531007D01*
X110744000Y-61700534D01*
X110743993Y-61701854D01*
X110743796Y-61720663D01*
X110743742Y-61723276D01*
X110743152Y-61742170D01*
X110743104Y-61743482D01*
X110639089Y-64239845D01*
X110637996Y-64251965D01*
X110613929Y-64424925D01*
X110608272Y-64448565D01*
X110590042Y-64501533D01*
X110548960Y-64559436D01*
X110483095Y-64585937D01*
X110413358Y-64572621D01*
X110361891Y-64523716D01*
X110345034Y-64454750D01*
X110347321Y-64435953D01*
X110368500Y-64329479D01*
X110368500Y-64150521D01*
X110333587Y-63975000D01*
X110265102Y-63809664D01*
X110165678Y-63660865D01*
X110039135Y-63534322D01*
X109890336Y-63434898D01*
X109759890Y-63380865D01*
X109725003Y-63366414D01*
X109725001Y-63366413D01*
X109725000Y-63366413D01*
X109636645Y-63348838D01*
X109549481Y-63331500D01*
X109549479Y-63331500D01*
X109370521Y-63331500D01*
X109370518Y-63331500D01*
X109239771Y-63357507D01*
X109195000Y-63366413D01*
X109194999Y-63366413D01*
X109194996Y-63366414D01*
X109029662Y-63434899D01*
X108880869Y-63534319D01*
X108880862Y-63534324D01*
X108754324Y-63660862D01*
X108754319Y-63660869D01*
X108654899Y-63809662D01*
X108586414Y-63974996D01*
X108551500Y-64150518D01*
X108551500Y-64150521D01*
X108551500Y-64329479D01*
X108585723Y-64501533D01*
X108586414Y-64505003D01*
X108654898Y-64670336D01*
X108661357Y-64680003D01*
X108682568Y-64747757D01*
X108663782Y-64816223D01*
X108661357Y-64819997D01*
X108654898Y-64829663D01*
X108586414Y-64994996D01*
X108551500Y-65170518D01*
X108551500Y-65349481D01*
X108586414Y-65525003D01*
X108654899Y-65690339D01*
X108654900Y-65690340D01*
X108732523Y-65806512D01*
X108753738Y-65874265D01*
X108734955Y-65942731D01*
X108695008Y-65983065D01*
X107918293Y-66473289D01*
X107908064Y-66479096D01*
X107757529Y-66555491D01*
X107735675Y-66564125D01*
X107579250Y-66609591D01*
X107556170Y-66614017D01*
X107388144Y-66630210D01*
X107376397Y-66630791D01*
X100260000Y-66650000D01*
X99680001Y-67559997D01*
X99680000Y-67560002D01*
X99678511Y-67848789D01*
X99665771Y-70320319D01*
X99664222Y-70339379D01*
X99646500Y-70451278D01*
X99646500Y-71173916D01*
X99645836Y-71186836D01*
X99643420Y-71210273D01*
X99638540Y-71234317D01*
X99588639Y-71396930D01*
X99579190Y-71419577D01*
X99498717Y-71569434D01*
X99485058Y-71589819D01*
X99373140Y-71726013D01*
X99364887Y-71735112D01*
X99110001Y-71989998D01*
X99100760Y-71998367D01*
X98962379Y-72111745D01*
X98941650Y-72125547D01*
X98789211Y-72206551D01*
X98766172Y-72216007D01*
X98600778Y-72265446D01*
X98576330Y-72270185D01*
X98398204Y-72286708D01*
X98385748Y-72287244D01*
X97394515Y-72280808D01*
X96300337Y-72273703D01*
X96287427Y-72272956D01*
X96259244Y-72269866D01*
X96102975Y-72252737D01*
X96077721Y-72247305D01*
X95907459Y-72191909D01*
X95883845Y-72181441D01*
X95728467Y-72092494D01*
X95707483Y-72077431D01*
X95573498Y-71958657D01*
X95556026Y-71939630D01*
X95445197Y-71790815D01*
X95438015Y-71780060D01*
X95408634Y-71730760D01*
X95408633Y-71730759D01*
X95318964Y-71580295D01*
X95286348Y-71525566D01*
X95280940Y-71515472D01*
X95229845Y-71408717D01*
X95209880Y-71367003D01*
X95201909Y-71345523D01*
X95171813Y-71234317D01*
X95160414Y-71192196D01*
X95156465Y-71169636D01*
X95142948Y-71005559D01*
X95142529Y-70994135D01*
X95167823Y-68135865D01*
X95168815Y-68121182D01*
X95195364Y-67911447D01*
X95202442Y-67882888D01*
X95276928Y-67685032D01*
X95282919Y-67671567D01*
X95679421Y-66904560D01*
X95686068Y-66893200D01*
X95789989Y-66735195D01*
X95806670Y-66714837D01*
X95941152Y-66581877D01*
X95950979Y-66573129D01*
X98452651Y-64570518D01*
X105151500Y-64570518D01*
X105151500Y-64749481D01*
X105164776Y-64816223D01*
X105186413Y-64925000D01*
X105254898Y-65090336D01*
X105354322Y-65239135D01*
X105480865Y-65365678D01*
X105629664Y-65465102D01*
X105795000Y-65533587D01*
X105970521Y-65568500D01*
X105970522Y-65568500D01*
X106149478Y-65568500D01*
X106149479Y-65568500D01*
X106325000Y-65533587D01*
X106490336Y-65465102D01*
X106639135Y-65365678D01*
X106765678Y-65239135D01*
X106865102Y-65090336D01*
X106933587Y-64925000D01*
X106968500Y-64749479D01*
X106968500Y-64570521D01*
X106933587Y-64395000D01*
X106865102Y-64229664D01*
X106765678Y-64080865D01*
X106639135Y-63954322D01*
X106490336Y-63854898D01*
X106373429Y-63806473D01*
X106325003Y-63786414D01*
X106325001Y-63786413D01*
X106325000Y-63786413D01*
X106236645Y-63768838D01*
X106149481Y-63751500D01*
X106149479Y-63751500D01*
X105970521Y-63751500D01*
X105970518Y-63751500D01*
X105839771Y-63777507D01*
X105795000Y-63786413D01*
X105794999Y-63786413D01*
X105794996Y-63786414D01*
X105629662Y-63854899D01*
X105480869Y-63954319D01*
X105480862Y-63954324D01*
X105354324Y-64080862D01*
X105354319Y-64080869D01*
X105254899Y-64229662D01*
X105186414Y-64394996D01*
X105151500Y-64570518D01*
X98452651Y-64570518D01*
X99293858Y-63897124D01*
X99293860Y-63897121D01*
X99296572Y-63894951D01*
X99296577Y-63894946D01*
X99314000Y-63881000D01*
X100457000Y-62865000D01*
X100440812Y-61742806D01*
X100319762Y-53351039D01*
X100320225Y-53338284D01*
X100336139Y-53155751D01*
X100340912Y-53130709D01*
X100391426Y-52961273D01*
X100401148Y-52937701D01*
X100484746Y-52781916D01*
X100499009Y-52760792D01*
X100612277Y-52625024D01*
X100630502Y-52607205D01*
X100773809Y-52493031D01*
X100784170Y-52485602D01*
X103608155Y-50670184D01*
X103618814Y-50664047D01*
X103776256Y-50583384D01*
X103799148Y-50574356D01*
X103963310Y-50527555D01*
X103987518Y-50523153D01*
X104163820Y-50508665D01*
X104176138Y-50508258D01*
X106506143Y-50545255D01*
G37*
%TD.AperFunction*%
%TD*%
M02*
