%TF.GenerationSoftware,KiCad,Pcbnew,6.0.11*%
%TF.CreationDate,2025-01-17T14:03:21+01:00*%
%TF.ProjectId,MP6532_board_28-QFN,4d503635-3332-45f6-926f-6172645f3238,rev?*%
%TF.SameCoordinates,Original*%
%TF.FileFunction,Copper,L1,Top*%
%TF.FilePolarity,Positive*%
%FSLAX46Y46*%
G04 Gerber Fmt 4.6, Leading zero omitted, Abs format (unit mm)*
G04 Created by KiCad (PCBNEW 6.0.11) date 2025-01-17 14:03:21*
%MOMM*%
%LPD*%
G01*
G04 APERTURE LIST*
G04 Aperture macros list*
%AMRoundRect*
0 Rectangle with rounded corners*
0 $1 Rounding radius*
0 $2 $3 $4 $5 $6 $7 $8 $9 X,Y pos of 4 corners*
0 Add a 4 corners polygon primitive as box body*
4,1,4,$2,$3,$4,$5,$6,$7,$8,$9,$2,$3,0*
0 Add four circle primitives for the rounded corners*
1,1,$1+$1,$2,$3*
1,1,$1+$1,$4,$5*
1,1,$1+$1,$6,$7*
1,1,$1+$1,$8,$9*
0 Add four rect primitives between the rounded corners*
20,1,$1+$1,$2,$3,$4,$5,0*
20,1,$1+$1,$4,$5,$6,$7,0*
20,1,$1+$1,$6,$7,$8,$9,0*
20,1,$1+$1,$8,$9,$2,$3,0*%
%AMRotRect*
0 Rectangle, with rotation*
0 The origin of the aperture is its center*
0 $1 length*
0 $2 width*
0 $3 Rotation angle, in degrees counterclockwise*
0 Add horizontal line*
21,1,$1,$2,0,0,$3*%
G04 Aperture macros list end*
%TA.AperFunction,SMDPad,CuDef*%
%ADD10RoundRect,0.250000X0.312500X0.625000X-0.312500X0.625000X-0.312500X-0.625000X0.312500X-0.625000X0*%
%TD*%
%TA.AperFunction,SMDPad,CuDef*%
%ADD11RoundRect,0.200000X0.200000X0.275000X-0.200000X0.275000X-0.200000X-0.275000X0.200000X-0.275000X0*%
%TD*%
%TA.AperFunction,ComponentPad*%
%ADD12R,1.600000X1.600000*%
%TD*%
%TA.AperFunction,ComponentPad*%
%ADD13O,1.600000X1.600000*%
%TD*%
%TA.AperFunction,SMDPad,CuDef*%
%ADD14RoundRect,0.200000X0.275000X-0.200000X0.275000X0.200000X-0.275000X0.200000X-0.275000X-0.200000X0*%
%TD*%
%TA.AperFunction,SMDPad,CuDef*%
%ADD15RoundRect,0.200000X-0.275000X0.200000X-0.275000X-0.200000X0.275000X-0.200000X0.275000X0.200000X0*%
%TD*%
%TA.AperFunction,SMDPad,CuDef*%
%ADD16RoundRect,0.243750X-0.243750X-0.456250X0.243750X-0.456250X0.243750X0.456250X-0.243750X0.456250X0*%
%TD*%
%TA.AperFunction,SMDPad,CuDef*%
%ADD17R,1.200000X2.200000*%
%TD*%
%TA.AperFunction,SMDPad,CuDef*%
%ADD18R,5.800000X6.400000*%
%TD*%
%TA.AperFunction,ComponentPad*%
%ADD19C,2.400000*%
%TD*%
%TA.AperFunction,SMDPad,CuDef*%
%ADD20R,1.200000X0.900000*%
%TD*%
%TA.AperFunction,SMDPad,CuDef*%
%ADD21RoundRect,0.225000X0.225000X0.250000X-0.225000X0.250000X-0.225000X-0.250000X0.225000X-0.250000X0*%
%TD*%
%TA.AperFunction,SMDPad,CuDef*%
%ADD22RoundRect,0.250000X-0.250000X-0.475000X0.250000X-0.475000X0.250000X0.475000X-0.250000X0.475000X0*%
%TD*%
%TA.AperFunction,SMDPad,CuDef*%
%ADD23RoundRect,0.250000X-0.312500X-1.075000X0.312500X-1.075000X0.312500X1.075000X-0.312500X1.075000X0*%
%TD*%
%TA.AperFunction,SMDPad,CuDef*%
%ADD24RoundRect,0.225000X0.250000X-0.225000X0.250000X0.225000X-0.250000X0.225000X-0.250000X-0.225000X0*%
%TD*%
%TA.AperFunction,SMDPad,CuDef*%
%ADD25R,0.900000X1.200000*%
%TD*%
%TA.AperFunction,SMDPad,CuDef*%
%ADD26RoundRect,0.250000X0.325000X1.100000X-0.325000X1.100000X-0.325000X-1.100000X0.325000X-1.100000X0*%
%TD*%
%TA.AperFunction,SMDPad,CuDef*%
%ADD27RoundRect,0.250000X-0.325000X-1.100000X0.325000X-1.100000X0.325000X1.100000X-0.325000X1.100000X0*%
%TD*%
%TA.AperFunction,SMDPad,CuDef*%
%ADD28RoundRect,0.225000X-0.225000X-0.250000X0.225000X-0.250000X0.225000X0.250000X-0.225000X0.250000X0*%
%TD*%
%TA.AperFunction,ComponentPad*%
%ADD29C,1.440000*%
%TD*%
%TA.AperFunction,SMDPad,CuDef*%
%ADD30RoundRect,0.243750X0.456250X-0.243750X0.456250X0.243750X-0.456250X0.243750X-0.456250X-0.243750X0*%
%TD*%
%TA.AperFunction,SMDPad,CuDef*%
%ADD31RoundRect,0.250000X0.312500X1.075000X-0.312500X1.075000X-0.312500X-1.075000X0.312500X-1.075000X0*%
%TD*%
%TA.AperFunction,SMDPad,CuDef*%
%ADD32RoundRect,0.050000X0.309359X-0.238649X-0.238649X0.309359X-0.309359X0.238649X0.238649X-0.309359X0*%
%TD*%
%TA.AperFunction,SMDPad,CuDef*%
%ADD33RoundRect,0.050000X0.309359X0.238649X0.238649X0.309359X-0.309359X-0.238649X-0.238649X-0.309359X0*%
%TD*%
%TA.AperFunction,ComponentPad*%
%ADD34C,0.500000*%
%TD*%
%TA.AperFunction,SMDPad,CuDef*%
%ADD35RotRect,2.600000X2.600000X135.000000*%
%TD*%
%TA.AperFunction,ComponentPad*%
%ADD36R,1.700000X1.700000*%
%TD*%
%TA.AperFunction,ComponentPad*%
%ADD37O,1.700000X1.700000*%
%TD*%
%TA.AperFunction,ViaPad*%
%ADD38C,0.800000*%
%TD*%
%TA.AperFunction,Conductor*%
%ADD39C,0.250000*%
%TD*%
%TA.AperFunction,Conductor*%
%ADD40C,0.200000*%
%TD*%
%TA.AperFunction,Conductor*%
%ADD41C,0.500000*%
%TD*%
%TA.AperFunction,Conductor*%
%ADD42C,2.000000*%
%TD*%
G04 APERTURE END LIST*
D10*
%TO.P,R24,1*%
%TO.N,GND*%
X120062500Y-57700000D03*
%TO.P,R24,2*%
%TO.N,LSS*%
X117137500Y-57700000D03*
%TD*%
%TO.P,R23,1*%
%TO.N,GND*%
X120062500Y-60000000D03*
%TO.P,R23,2*%
%TO.N,LSS*%
X117137500Y-60000000D03*
%TD*%
%TO.P,R22,1*%
%TO.N,GND*%
X120062500Y-62300000D03*
%TO.P,R22,2*%
%TO.N,LSS*%
X117137500Y-62300000D03*
%TD*%
%TO.P,R21,1*%
%TO.N,GND*%
X120062500Y-64600000D03*
%TO.P,R21,2*%
%TO.N,LSS*%
X117137500Y-64600000D03*
%TD*%
%TO.P,R20,1*%
%TO.N,GND*%
X120052500Y-66920000D03*
%TO.P,R20,2*%
%TO.N,LSS*%
X117127500Y-66920000D03*
%TD*%
D11*
%TO.P,R19,1*%
%TO.N,LSS*%
X102445000Y-66140000D03*
%TO.P,R19,2*%
%TO.N,Net-(J2-Pad5)*%
X100795000Y-66140000D03*
%TD*%
D12*
%TO.P,U2,1,VREG*%
%TO.N,/VREG*%
X57912000Y-71120000D03*
D13*
%TO.P,U2,2,BSTA*%
%TO.N,/BSTA*%
X55372000Y-71120000D03*
%TO.P,U2,3,SHA*%
%TO.N,HAS*%
X57912000Y-68580000D03*
%TO.P,U2,4,GHA*%
%TO.N,/GHA*%
X55372000Y-68580000D03*
%TO.P,U2,5,GLA*%
%TO.N,/GLA*%
X57912000Y-66040000D03*
%TO.P,U2,6,BSTB*%
%TO.N,/BSTB*%
X55372000Y-66040000D03*
%TO.P,U2,7,SHB*%
%TO.N,HBS*%
X57912000Y-63500000D03*
%TO.P,U2,8,GHB*%
%TO.N,/GHB*%
X55372000Y-63500000D03*
%TO.P,U2,9,GLB*%
%TO.N,/GLB*%
X57912000Y-60960000D03*
%TO.P,U2,10,BSTC*%
%TO.N,/BSTC*%
X55372000Y-60960000D03*
%TO.P,U2,11,SHC*%
%TO.N,HCS*%
X57912000Y-58420000D03*
%TO.P,U2,12,GHC*%
%TO.N,/GHC*%
X55372000Y-58420000D03*
%TO.P,U2,13,GLC*%
%TO.N,/GLC*%
X57912000Y-55880000D03*
%TO.P,U2,14,LSS*%
%TO.N,LSS*%
X55372000Y-55880000D03*
%TO.P,U2,15,HC*%
%TO.N,Net-(C9-Pad1)*%
X42672000Y-55880000D03*
%TO.P,U2,16,HB*%
%TO.N,Net-(C8-Pad1)*%
X40132000Y-55880000D03*
%TO.P,U2,17,HA*%
%TO.N,Net-(C7-Pad1)*%
X42672000Y-58420000D03*
%TO.P,U2,18,nBRAKE*%
%TO.N,/nBRAKE*%
X40132000Y-58420000D03*
%TO.P,U2,19,PWM*%
%TO.N,/PWM*%
X42672000Y-60960000D03*
%TO.P,U2,20,DIR*%
%TO.N,/DIR*%
X40132000Y-60960000D03*
%TO.P,U2,21,nFAULT*%
%TO.N,/nFAULT*%
X42672000Y-63500000D03*
%TO.P,U2,22,nSLEEP*%
%TO.N,/nSLEEP*%
X40132000Y-63500000D03*
%TO.P,U2,23,OCREF*%
%TO.N,/OCREF*%
X42672000Y-66040000D03*
%TO.P,U2,24,DT*%
%TO.N,/DT*%
X40132000Y-66040000D03*
%TO.P,U2,25,GND*%
%TO.N,GND*%
X42672000Y-68580000D03*
%TO.P,U2,26,VIN*%
%TO.N,VIN*%
X40132000Y-68580000D03*
%TO.P,U2,27,CPA*%
%TO.N,/CPA*%
X42672000Y-71120000D03*
%TO.P,U2,28,CPB*%
%TO.N,/CPB*%
X40132000Y-71120000D03*
%TD*%
D14*
%TO.P,R13,1*%
%TO.N,Net-(D10-Pad2)*%
X49740000Y-56935000D03*
%TO.P,R13,2*%
%TO.N,/HC*%
X49740000Y-55285000D03*
%TD*%
%TO.P,R12,1*%
%TO.N,Net-(D9-Pad2)*%
X47550000Y-56965000D03*
%TO.P,R12,2*%
%TO.N,/HB*%
X47550000Y-55315000D03*
%TD*%
D15*
%TO.P,R11,1*%
%TO.N,Net-(D8-Pad2)*%
X51680000Y-55285000D03*
%TO.P,R11,2*%
%TO.N,/HA*%
X51680000Y-56935000D03*
%TD*%
D16*
%TO.P,D10,2,A*%
%TO.N,Net-(D10-Pad2)*%
X46927500Y-46280000D03*
%TO.P,D10,1,K*%
%TO.N,GND*%
X45052500Y-46280000D03*
%TD*%
%TO.P,D9,1,K*%
%TO.N,GND*%
X45022500Y-48450000D03*
%TO.P,D9,2,A*%
%TO.N,Net-(D9-Pad2)*%
X46897500Y-48450000D03*
%TD*%
%TO.P,D8,1,K*%
%TO.N,GND*%
X45052500Y-44140000D03*
%TO.P,D8,2,A*%
%TO.N,Net-(D8-Pad2)*%
X46927500Y-44140000D03*
%TD*%
D17*
%TO.P,Q5,1,G*%
%TO.N,Net-(C5-Pad2)*%
X104908000Y-52528000D03*
D18*
%TO.P,Q5,2,D*%
%TO.N,VIN*%
X107188000Y-46228000D03*
D17*
%TO.P,Q5,3,S*%
%TO.N,HCS*%
X109468000Y-52528000D03*
%TD*%
D19*
%TO.P,H2,1,1*%
%TO.N,LSS*%
X117860000Y-54560000D03*
%TD*%
D17*
%TO.P,Q1,1,G*%
%TO.N,Net-(C1-Pad2)*%
X74809000Y-52460000D03*
D18*
%TO.P,Q1,2,D*%
%TO.N,VIN*%
X77089000Y-46160000D03*
D17*
%TO.P,Q1,3,S*%
%TO.N,HAS*%
X79369000Y-52460000D03*
%TD*%
D20*
%TO.P,D2,1,K*%
%TO.N,/GLA*%
X81915000Y-56630000D03*
%TO.P,D2,2,A*%
%TO.N,Net-(C2-Pad2)*%
X81915000Y-59930000D03*
%TD*%
D21*
%TO.P,C8,1*%
%TO.N,Net-(C8-Pad1)*%
X42680000Y-50300000D03*
%TO.P,C8,2*%
%TO.N,GND*%
X41130000Y-50300000D03*
%TD*%
D22*
%TO.P,C15,2*%
%TO.N,/CPA*%
X49350000Y-73700000D03*
%TO.P,C15,1*%
%TO.N,/CPB*%
X47450000Y-73700000D03*
%TD*%
D23*
%TO.P,R6,1*%
%TO.N,/GLC*%
X116901500Y-44323000D03*
%TO.P,R6,2*%
%TO.N,Net-(C6-Pad2)*%
X119826500Y-44323000D03*
%TD*%
D17*
%TO.P,Q6,1,G*%
%TO.N,Net-(C6-Pad2)*%
X104908000Y-64678000D03*
D18*
%TO.P,Q6,2,D*%
%TO.N,HCS*%
X107188000Y-58378000D03*
D17*
%TO.P,Q6,3,S*%
%TO.N,LSS*%
X109468000Y-64678000D03*
%TD*%
D23*
%TO.P,R4,1*%
%TO.N,/GLB*%
X96827500Y-54420000D03*
%TO.P,R4,2*%
%TO.N,Net-(C4-Pad2)*%
X99752500Y-54420000D03*
%TD*%
D24*
%TO.P,C3,1*%
%TO.N,HBS*%
X97022000Y-51111000D03*
%TO.P,C3,2*%
%TO.N,Net-(C3-Pad2)*%
X97022000Y-49561000D03*
%TD*%
D25*
%TO.P,D1,1,K*%
%TO.N,/GHA*%
X85216000Y-47117000D03*
%TO.P,D1,2,A*%
%TO.N,Net-(C1-Pad2)*%
X81916000Y-47117000D03*
%TD*%
D24*
%TO.P,C6,1*%
%TO.N,LSS*%
X118870000Y-51625000D03*
%TO.P,C6,2*%
%TO.N,Net-(C6-Pad2)*%
X118870000Y-50075000D03*
%TD*%
D11*
%TO.P,R9,1*%
%TO.N,/HB*%
X46095000Y-50490000D03*
%TO.P,R9,2*%
%TO.N,Net-(C8-Pad1)*%
X44445000Y-50490000D03*
%TD*%
D23*
%TO.P,R2,1*%
%TO.N,/GLA*%
X81617500Y-54220000D03*
%TO.P,R2,2*%
%TO.N,Net-(C2-Pad2)*%
X84542500Y-54220000D03*
%TD*%
D11*
%TO.P,R16,1*%
%TO.N,Net-(C17-Pad2)*%
X62575000Y-65120000D03*
%TO.P,R16,2*%
%TO.N,/BSTA*%
X60925000Y-65120000D03*
%TD*%
D26*
%TO.P,C21,1*%
%TO.N,VIN*%
X125515000Y-51820000D03*
%TO.P,C21,2*%
%TO.N,GND*%
X122565000Y-51820000D03*
%TD*%
D11*
%TO.P,R8,1*%
%TO.N,/HA*%
X46095000Y-53660000D03*
%TO.P,R8,2*%
%TO.N,Net-(C7-Pad1)*%
X44445000Y-53660000D03*
%TD*%
D27*
%TO.P,Cb16,1*%
%TO.N,/VREG*%
X69065000Y-64860000D03*
%TO.P,Cb16,2*%
%TO.N,GND*%
X72015000Y-64860000D03*
%TD*%
D28*
%TO.P,C17,1*%
%TO.N,HAS*%
X60975000Y-63550000D03*
%TO.P,C17,2*%
%TO.N,Net-(C17-Pad2)*%
X62525000Y-63550000D03*
%TD*%
D15*
%TO.P,R14,1*%
%TO.N,Net-(D7-Pad2)*%
X60950000Y-50375000D03*
%TO.P,R14,2*%
%TO.N,5V*%
X60950000Y-52025000D03*
%TD*%
D17*
%TO.P,Q3,1,G*%
%TO.N,Net-(C3-Pad2)*%
X89923000Y-52504000D03*
D18*
%TO.P,Q3,2,D*%
%TO.N,VIN*%
X92203000Y-46204000D03*
D17*
%TO.P,Q3,3,S*%
%TO.N,HBS*%
X94483000Y-52504000D03*
%TD*%
D29*
%TO.P,RV1,1,1*%
%TO.N,GND*%
X55499000Y-48387000D03*
%TO.P,RV1,2,2*%
%TO.N,/OCREF*%
X52959000Y-45847000D03*
%TO.P,RV1,3,3*%
%TO.N,Net-(R7-Pad1)*%
X50419000Y-48387000D03*
%TD*%
D30*
%TO.P,D7,1,K*%
%TO.N,/nFAULT*%
X59590000Y-44997500D03*
%TO.P,D7,2,A*%
%TO.N,Net-(D7-Pad2)*%
X59590000Y-43122500D03*
%TD*%
D15*
%TO.P,R7,1*%
%TO.N,Net-(R7-Pad1)*%
X59370000Y-50405000D03*
%TO.P,R7,2*%
%TO.N,5V*%
X59370000Y-52055000D03*
%TD*%
D26*
%TO.P,C22,1*%
%TO.N,VIN*%
X125515000Y-55300000D03*
%TO.P,C22,2*%
%TO.N,GND*%
X122565000Y-55300000D03*
%TD*%
D31*
%TO.P,R5,1*%
%TO.N,/GHC*%
X116905500Y-50419000D03*
%TO.P,R5,2*%
%TO.N,Net-(C5-Pad2)*%
X113980500Y-50419000D03*
%TD*%
D26*
%TO.P,C23,1*%
%TO.N,VIN*%
X125515000Y-58710000D03*
%TO.P,C23,2*%
%TO.N,GND*%
X122565000Y-58710000D03*
%TD*%
D28*
%TO.P,C19,1*%
%TO.N,HCS*%
X60975000Y-57329000D03*
%TO.P,C19,2*%
%TO.N,Net-(C19-Pad2)*%
X62525000Y-57329000D03*
%TD*%
D32*
%TO.P,U1,1,VREG*%
%TO.N,/VREG*%
X49721491Y-65618548D03*
%TO.P,U1,2,BSTA*%
%TO.N,/BSTA*%
X50004334Y-65335705D03*
%TO.P,U1,3,SHA*%
%TO.N,HAS*%
X50287177Y-65052862D03*
%TO.P,U1,4,GHA*%
%TO.N,/GHA*%
X50570019Y-64770019D03*
%TO.P,U1,5,GLA*%
%TO.N,/GLA*%
X50852862Y-64487177D03*
%TO.P,U1,6,BSTB*%
%TO.N,/BSTB*%
X51135705Y-64204334D03*
%TO.P,U1,7,SHB*%
%TO.N,HBS*%
X51418548Y-63921491D03*
D33*
%TO.P,U1,8,GHB*%
%TO.N,/GHB*%
X51418548Y-62878509D03*
%TO.P,U1,9,GLB*%
%TO.N,/GLB*%
X51135705Y-62595666D03*
%TO.P,U1,10,BSTC*%
%TO.N,/BSTC*%
X50852862Y-62312823D03*
%TO.P,U1,11,SHC*%
%TO.N,HCS*%
X50570019Y-62029981D03*
%TO.P,U1,12,GHC*%
%TO.N,/GHC*%
X50287177Y-61747138D03*
%TO.P,U1,13,GLC*%
%TO.N,/GLC*%
X50004334Y-61464295D03*
%TO.P,U1,14,LSS*%
%TO.N,LSS*%
X49721491Y-61181452D03*
D32*
%TO.P,U1,15,HC*%
%TO.N,Net-(C9-Pad1)*%
X48678509Y-61181452D03*
%TO.P,U1,16,HB*%
%TO.N,Net-(C8-Pad1)*%
X48395666Y-61464295D03*
%TO.P,U1,17,HA*%
%TO.N,Net-(C7-Pad1)*%
X48112823Y-61747138D03*
%TO.P,U1,18,nBRAKE*%
%TO.N,/nBRAKE*%
X47829981Y-62029981D03*
%TO.P,U1,19,PWM*%
%TO.N,/PWM*%
X47547138Y-62312823D03*
%TO.P,U1,20,DIR*%
%TO.N,/DIR*%
X47264295Y-62595666D03*
%TO.P,U1,21,nFAULT*%
%TO.N,/nFAULT*%
X46981452Y-62878509D03*
D33*
%TO.P,U1,22,nSLEEP*%
%TO.N,/nSLEEP*%
X46981452Y-63921491D03*
%TO.P,U1,23,OCREF*%
%TO.N,/OCREF*%
X47264295Y-64204334D03*
%TO.P,U1,24,DT*%
%TO.N,/DT*%
X47547138Y-64487177D03*
%TO.P,U1,25,GND*%
%TO.N,GND*%
X47829981Y-64770019D03*
%TO.P,U1,26,VIN*%
%TO.N,VIN*%
X48112823Y-65052862D03*
%TO.P,U1,27,CPA*%
%TO.N,/CPA*%
X48395666Y-65335705D03*
%TO.P,U1,28,CPB*%
%TO.N,/CPB*%
X48678509Y-65618548D03*
D34*
%TO.P,U1,29,TPAD*%
%TO.N,GND*%
X49942462Y-62657538D03*
D35*
X49200000Y-63400000D03*
D34*
X49200000Y-63400000D03*
X49942462Y-64142462D03*
X50684924Y-63400000D03*
X48457538Y-62657538D03*
X49200000Y-64884924D03*
X49200000Y-61915076D03*
X48457538Y-64142462D03*
X47715076Y-63400000D03*
%TD*%
D26*
%TO.P,Cb21,1*%
%TO.N,VIN*%
X125515000Y-62100000D03*
%TO.P,Cb21,2*%
%TO.N,GND*%
X122565000Y-62100000D03*
%TD*%
D17*
%TO.P,Q4,1,G*%
%TO.N,Net-(C4-Pad2)*%
X89923000Y-64407000D03*
D18*
%TO.P,Q4,2,D*%
%TO.N,HBS*%
X92203000Y-58107000D03*
D17*
%TO.P,Q4,3,S*%
%TO.N,LSS*%
X94483000Y-64407000D03*
%TD*%
D23*
%TO.P,R1,1*%
%TO.N,/GHA*%
X84008500Y-50165000D03*
%TO.P,R1,2*%
%TO.N,Net-(C1-Pad2)*%
X86933500Y-50165000D03*
%TD*%
D28*
%TO.P,C18,1*%
%TO.N,HBS*%
X60975000Y-60430000D03*
%TO.P,C18,2*%
%TO.N,Net-(C18-Pad2)*%
X62525000Y-60430000D03*
%TD*%
D19*
%TO.P,H5,1,1*%
%TO.N,GND*%
X113538000Y-71125000D03*
%TD*%
D11*
%TO.P,R17,1*%
%TO.N,Net-(C18-Pad2)*%
X62575000Y-61980000D03*
%TO.P,R17,2*%
%TO.N,/BSTB*%
X60925000Y-61980000D03*
%TD*%
D36*
%TO.P,J1,1,Pin_1*%
%TO.N,/HA*%
X63560000Y-54500000D03*
D37*
%TO.P,J1,2,Pin_2*%
%TO.N,HAIN*%
X63560000Y-51960000D03*
%TO.P,J1,3,Pin_3*%
%TO.N,HBIN*%
X66100000Y-54500000D03*
%TO.P,J1,4,Pin_4*%
%TO.N,/HB*%
X66100000Y-51960000D03*
%TO.P,J1,5,Pin_5*%
%TO.N,/HC*%
X68640000Y-54500000D03*
%TO.P,J1,6,Pin_6*%
%TO.N,HCIN*%
X68640000Y-51960000D03*
%TO.P,J1,7,Pin_7*%
%TO.N,HAIN*%
X71180000Y-54500000D03*
%TO.P,J1,8,Pin_8*%
%TO.N,/HA*%
X71180000Y-51960000D03*
%TD*%
D11*
%TO.P,R10,1*%
%TO.N,/HC*%
X46095000Y-52070000D03*
%TO.P,R10,2*%
%TO.N,Net-(C9-Pad1)*%
X44445000Y-52070000D03*
%TD*%
D24*
%TO.P,C1,1*%
%TO.N,HAS*%
X81915000Y-50813000D03*
%TO.P,C1,2*%
%TO.N,Net-(C1-Pad2)*%
X81915000Y-49263000D03*
%TD*%
D25*
%TO.P,D5,1,K*%
%TO.N,/GHC*%
X115315000Y-47498000D03*
%TO.P,D5,2,A*%
%TO.N,Net-(C5-Pad2)*%
X112015000Y-47498000D03*
%TD*%
D26*
%TO.P,Cb23,1*%
%TO.N,VIN*%
X125465000Y-68910000D03*
%TO.P,Cb23,2*%
%TO.N,GND*%
X122515000Y-68910000D03*
%TD*%
D20*
%TO.P,D4,1,K*%
%TO.N,/GLB*%
X97149000Y-56814000D03*
%TO.P,D4,2,A*%
%TO.N,Net-(C4-Pad2)*%
X97149000Y-60114000D03*
%TD*%
D21*
%TO.P,C9,1*%
%TO.N,Net-(C9-Pad1)*%
X42695000Y-51900000D03*
%TO.P,C9,2*%
%TO.N,GND*%
X41145000Y-51900000D03*
%TD*%
D26*
%TO.P,C16,1*%
%TO.N,/VREG*%
X67235000Y-64860000D03*
%TO.P,C16,2*%
%TO.N,GND*%
X64285000Y-64860000D03*
%TD*%
D25*
%TO.P,D3,1,K*%
%TO.N,/GHB*%
X100202000Y-47371000D03*
%TO.P,D3,2,A*%
%TO.N,Net-(C3-Pad2)*%
X96902000Y-47371000D03*
%TD*%
D26*
%TO.P,Cb22,1*%
%TO.N,VIN*%
X125515000Y-65490000D03*
%TO.P,Cb22,2*%
%TO.N,GND*%
X122565000Y-65490000D03*
%TD*%
D25*
%TO.P,D6,1,K*%
%TO.N,/GLC*%
X117095000Y-47498000D03*
%TO.P,D6,2,A*%
%TO.N,Net-(C6-Pad2)*%
X120395000Y-47498000D03*
%TD*%
D19*
%TO.P,H1,1,1*%
%TO.N,LSS*%
X113970000Y-54570000D03*
%TD*%
D17*
%TO.P,Q2,1,G*%
%TO.N,Net-(C2-Pad2)*%
X74795000Y-64255000D03*
D18*
%TO.P,Q2,2,D*%
%TO.N,HAS*%
X77075000Y-57955000D03*
D17*
%TO.P,Q2,3,S*%
%TO.N,LSS*%
X79355000Y-64255000D03*
%TD*%
D36*
%TO.P,J2,1,Pin_1*%
%TO.N,GND*%
X106235000Y-68030000D03*
D37*
%TO.P,J2,2,Pin_2*%
X106235000Y-70570000D03*
%TO.P,J2,3,Pin_3*%
X103695000Y-68030000D03*
%TO.P,J2,4,Pin_4*%
X103695000Y-70570000D03*
%TO.P,J2,5,Pin_5*%
%TO.N,Net-(J2-Pad5)*%
X101155000Y-68030000D03*
%TO.P,J2,6,Pin_6*%
%TO.N,GND*%
X101155000Y-70570000D03*
%TO.P,J2,7,Pin_7*%
%TO.N,HCS*%
X98615000Y-68030000D03*
%TO.P,J2,8,Pin_8*%
X98615000Y-70570000D03*
%TO.P,J2,9,Pin_9*%
X96075000Y-68030000D03*
%TO.P,J2,10,Pin_10*%
X96075000Y-70570000D03*
%TO.P,J2,11,Pin_11*%
%TO.N,HBS*%
X93535000Y-68030000D03*
%TO.P,J2,12,Pin_12*%
X93535000Y-70570000D03*
%TO.P,J2,13,Pin_13*%
X90995000Y-68030000D03*
%TO.P,J2,14,Pin_14*%
X90995000Y-70570000D03*
%TO.P,J2,15,Pin_15*%
%TO.N,VIN*%
X88455000Y-68030000D03*
%TO.P,J2,16,Pin_16*%
X88455000Y-70570000D03*
%TO.P,J2,17,Pin_17*%
X85915000Y-68030000D03*
%TO.P,J2,18,Pin_18*%
X85915000Y-70570000D03*
%TO.P,J2,19,Pin_19*%
X83375000Y-68030000D03*
%TO.P,J2,20,Pin_20*%
X83375000Y-70570000D03*
%TO.P,J2,21,Pin_21*%
%TO.N,HAS*%
X80835000Y-68030000D03*
%TO.P,J2,22,Pin_22*%
X80835000Y-70570000D03*
%TO.P,J2,23,Pin_23*%
X78295000Y-68030000D03*
%TO.P,J2,24,Pin_24*%
X78295000Y-70570000D03*
%TO.P,J2,25,Pin_25*%
%TO.N,GND*%
X75755000Y-68030000D03*
%TO.P,J2,26,Pin_26*%
X75755000Y-70570000D03*
%TO.P,J2,27,Pin_27*%
%TO.N,HCIN*%
X73215000Y-68030000D03*
%TO.P,J2,28,Pin_28*%
%TO.N,/nSLEEP*%
X73215000Y-70570000D03*
%TO.P,J2,29,Pin_29*%
%TO.N,HBIN*%
X70675000Y-68030000D03*
%TO.P,J2,30,Pin_30*%
%TO.N,/nFAULT*%
X70675000Y-70570000D03*
%TO.P,J2,31,Pin_31*%
%TO.N,HAIN*%
X68135000Y-68030000D03*
%TO.P,J2,32,Pin_32*%
%TO.N,/PWM*%
X68135000Y-70570000D03*
%TO.P,J2,33,Pin_33*%
%TO.N,/nBRAKE*%
X65595000Y-68030000D03*
%TO.P,J2,34,Pin_34*%
%TO.N,/DIR*%
X65595000Y-70570000D03*
%TO.P,J2,35,Pin_35*%
%TO.N,5V*%
X63055000Y-68030000D03*
%TO.P,J2,36,Pin_36*%
X63055000Y-70570000D03*
%TD*%
D19*
%TO.P,H6,1,1*%
%TO.N,GND*%
X117478000Y-71125000D03*
%TD*%
D31*
%TO.P,R3,1*%
%TO.N,/GHB*%
X102046500Y-50292000D03*
%TO.P,R3,2*%
%TO.N,Net-(C3-Pad2)*%
X99121500Y-50292000D03*
%TD*%
D24*
%TO.P,C4,1*%
%TO.N,LSS*%
X97149000Y-63303000D03*
%TO.P,C4,2*%
%TO.N,Net-(C4-Pad2)*%
X97149000Y-61753000D03*
%TD*%
D11*
%TO.P,R15,1*%
%TO.N,GND*%
X43725000Y-73630000D03*
%TO.P,R15,2*%
%TO.N,/DT*%
X42075000Y-73630000D03*
%TD*%
D24*
%TO.P,C2,1*%
%TO.N,LSS*%
X81915000Y-63119000D03*
%TO.P,C2,2*%
%TO.N,Net-(C2-Pad2)*%
X81915000Y-61569000D03*
%TD*%
%TO.P,C5,1*%
%TO.N,HCS*%
X111957000Y-51161000D03*
%TO.P,C5,2*%
%TO.N,Net-(C5-Pad2)*%
X111957000Y-49611000D03*
%TD*%
D11*
%TO.P,R18,1*%
%TO.N,Net-(C19-Pad2)*%
X62575000Y-58890000D03*
%TO.P,R18,2*%
%TO.N,/BSTC*%
X60925000Y-58890000D03*
%TD*%
D21*
%TO.P,C7,1*%
%TO.N,Net-(C7-Pad1)*%
X42655000Y-53510000D03*
%TO.P,C7,2*%
%TO.N,GND*%
X41105000Y-53510000D03*
%TD*%
D38*
%TO.N,LSS*%
X115500000Y-65700000D03*
X115600000Y-64500000D03*
%TO.N,GND*%
X43770000Y-49000000D03*
%TO.N,/HC*%
X49780000Y-51140000D03*
%TO.N,HAS*%
X77547989Y-52147989D03*
X72710000Y-61410000D03*
X71460000Y-58980000D03*
X75008680Y-55958680D03*
X77470000Y-57150000D03*
X76200000Y-59690000D03*
X65533884Y-60203063D03*
X74930000Y-59690000D03*
X78740000Y-58420000D03*
X74930000Y-58420000D03*
X77470000Y-59690000D03*
X76200000Y-57150000D03*
X78740000Y-59690000D03*
X70178176Y-59382112D03*
X78740000Y-57150000D03*
X77470000Y-58420000D03*
X77470000Y-55880000D03*
X76200000Y-55880000D03*
X72690000Y-58340000D03*
X74340000Y-62110000D03*
X77470000Y-53340000D03*
X71190000Y-60430000D03*
X72390000Y-59690000D03*
X76200000Y-58420000D03*
X78740000Y-55880000D03*
X74930000Y-57150000D03*
%TO.N,GND*%
X121390000Y-62090000D03*
X121440000Y-55290000D03*
X72070000Y-65040000D03*
X121420000Y-65510000D03*
X39780000Y-51830000D03*
X121330000Y-68900000D03*
X64285000Y-64860002D03*
X121470000Y-58700000D03*
X123530000Y-68900000D03*
X45900000Y-74700000D03*
X123590000Y-51820000D03*
X123530000Y-65480000D03*
X123570000Y-58700000D03*
X123620000Y-62150000D03*
X123610000Y-55320000D03*
X121470000Y-51750000D03*
%TO.N,LSS*%
X115600000Y-60000000D03*
X109460000Y-65260000D03*
X94550000Y-63960000D03*
X115500000Y-57200000D03*
X79355000Y-64755000D03*
X113660000Y-66080000D03*
X114500000Y-61100000D03*
X114400000Y-63400000D03*
X113300000Y-57000000D03*
X94580000Y-64980000D03*
X114500000Y-58700000D03*
X115600000Y-62300000D03*
X79370000Y-63660000D03*
X112180000Y-66120000D03*
X109460000Y-64240000D03*
%TO.N,VIN*%
X97790000Y-44450000D03*
X92710000Y-48260000D03*
X109220000Y-48260000D03*
X106680000Y-44450000D03*
X126850000Y-63080000D03*
X120200000Y-49200000D03*
X91440000Y-45720000D03*
X76200000Y-46990000D03*
X91440000Y-48260000D03*
X93980000Y-44450000D03*
X77470000Y-48260000D03*
X93980000Y-48260000D03*
X114300000Y-44450000D03*
X78740000Y-44450000D03*
X90170000Y-45720000D03*
X126850000Y-54690000D03*
X107950000Y-45720000D03*
X126850000Y-66520000D03*
X93980000Y-45720000D03*
X106680000Y-45720000D03*
X122030000Y-44160000D03*
X123680000Y-49530000D03*
X126380000Y-49720000D03*
X90170000Y-48260000D03*
X122570000Y-49200000D03*
X86360000Y-44450000D03*
X121460000Y-45810000D03*
X90170000Y-46990000D03*
X121390000Y-49200000D03*
X74930000Y-44450000D03*
X74930000Y-45720000D03*
X78740000Y-45720000D03*
X82550000Y-44450000D03*
X107950000Y-44450000D03*
X111760000Y-44450000D03*
X126820000Y-59580000D03*
X91440000Y-46990000D03*
X74930000Y-48260000D03*
X76200000Y-48260000D03*
X109220000Y-46990000D03*
X74930000Y-46990000D03*
X113030000Y-44450000D03*
X125030000Y-49770000D03*
X105410000Y-44450000D03*
X93980000Y-46990000D03*
X101600000Y-44450000D03*
X78740000Y-46990000D03*
X77470000Y-46990000D03*
X126820000Y-55990000D03*
X126850000Y-69730000D03*
X126790000Y-58010000D03*
X126790000Y-52840000D03*
X126790000Y-61490000D03*
X99060000Y-44450000D03*
X91440000Y-44450000D03*
X83820000Y-44450000D03*
X85090000Y-44450000D03*
X121480000Y-47350000D03*
X105410000Y-48260000D03*
X92710000Y-44450000D03*
X105410000Y-46990000D03*
X92710000Y-46990000D03*
X78740000Y-48260000D03*
X100330000Y-44450000D03*
X106680000Y-48260000D03*
X126850000Y-51530000D03*
X109220000Y-44450000D03*
X77470000Y-45720000D03*
X105410000Y-45720000D03*
X126850000Y-68200000D03*
X106680000Y-46990000D03*
X92710000Y-45720000D03*
X109220000Y-45720000D03*
X77470000Y-44450000D03*
X76200000Y-44450000D03*
X90170000Y-44450000D03*
X107950000Y-46990000D03*
X76200000Y-45720000D03*
X115570000Y-44450000D03*
X107950000Y-48260000D03*
X126820000Y-64900000D03*
%TO.N,Net-(C4-Pad2)*%
X91260000Y-63890000D03*
X98620000Y-60490000D03*
%TO.N,HBS*%
X93980000Y-59690000D03*
X91440000Y-59690000D03*
X91440000Y-55880000D03*
X64840000Y-59340000D03*
X92710000Y-59690000D03*
X93980000Y-58420000D03*
X69024174Y-59614559D03*
X92710000Y-58420000D03*
X93980000Y-55880000D03*
X93980000Y-57150000D03*
X91440000Y-58420000D03*
X90170000Y-57150000D03*
X90170000Y-59690000D03*
X92710000Y-55880000D03*
X92710000Y-53984500D03*
X92710000Y-57150000D03*
X92710000Y-52070000D03*
X90170000Y-58420000D03*
X90170000Y-55880000D03*
X91440000Y-57150000D03*
%TO.N,HCS*%
X101600000Y-59690000D03*
X105410000Y-57150000D03*
X106680000Y-57150000D03*
X101600000Y-58420000D03*
X105410000Y-55880000D03*
X109220000Y-58420000D03*
X109220000Y-55880000D03*
X68291799Y-58934388D03*
X107950000Y-53340000D03*
X102870000Y-59690000D03*
X105410000Y-59690000D03*
X107950000Y-57150000D03*
X101600000Y-57150000D03*
X109220000Y-59690000D03*
X109220000Y-57150000D03*
X106680000Y-58420000D03*
X107950000Y-52070000D03*
X107950000Y-55880000D03*
X102870000Y-55880000D03*
X102870000Y-58420000D03*
X106680000Y-59690000D03*
X107950000Y-59690000D03*
X107950000Y-58420000D03*
X106680000Y-55880000D03*
X102870000Y-57150000D03*
X64600000Y-58300000D03*
X105410000Y-58420000D03*
%TO.N,Net-(C6-Pad2)*%
X118067500Y-50150000D03*
X106060000Y-64660000D03*
%TO.N,Net-(D7-Pad2)*%
X61260000Y-43120000D03*
X61025000Y-48315000D03*
%TO.N,/GHA*%
X83439000Y-47244000D03*
%TO.N,/GLA*%
X69520000Y-62010500D03*
X81788000Y-57912000D03*
X66757477Y-61028667D03*
%TO.N,/GHB*%
X98425000Y-47371000D03*
X67573089Y-56554500D03*
X70300000Y-56500000D03*
%TO.N,/GLB*%
X64780000Y-60960000D03*
X68460000Y-62010500D03*
X97282000Y-58166000D03*
%TO.N,/GHC*%
X113665000Y-47371000D03*
X64919001Y-56378586D03*
X69301665Y-57499855D03*
%TO.N,/GLC*%
X68325214Y-57876374D03*
X60970000Y-54980000D03*
X118491000Y-46228000D03*
%TO.N,/HA*%
X47310000Y-53260000D03*
%TO.N,/HB*%
X47260000Y-50080000D03*
%TO.N,/HC*%
X47280000Y-51750000D03*
%TO.N,/nFAULT*%
X59410000Y-45980000D03*
X38867700Y-49677700D03*
%TO.N,/DT*%
X38400000Y-71440000D03*
%TO.N,5V*%
X59370000Y-53310000D03*
%TO.N,Net-(C7-Pad1)*%
X43940000Y-55020000D03*
%TD*%
D39*
%TO.N,/DT*%
X38400000Y-71440000D02*
X39460000Y-72500000D01*
X39460000Y-72500000D02*
X40500000Y-72500000D01*
X40500000Y-72500000D02*
X41630000Y-73630000D01*
X41630000Y-73630000D02*
X42075000Y-73630000D01*
%TO.N,/CPA*%
X46770000Y-71120000D02*
X49350000Y-73700000D01*
X42672000Y-71120000D02*
X46770000Y-71120000D01*
%TO.N,/CPB*%
X40132000Y-71120000D02*
X40342462Y-71120000D01*
X40342462Y-71120000D02*
X41722462Y-72500000D01*
X41722462Y-72500000D02*
X46250000Y-72500000D01*
X46250000Y-72500000D02*
X47450000Y-73700000D01*
%TO.N,GND*%
X43725000Y-73630000D02*
X44830000Y-73630000D01*
X44830000Y-73630000D02*
X45900000Y-74700000D01*
D40*
%TO.N,/CPB*%
X48678509Y-70178509D02*
X49900000Y-71400000D01*
X48678509Y-65618548D02*
X48678509Y-70178509D01*
D39*
X50600000Y-72100000D02*
X49900000Y-71400000D01*
X50600000Y-74600000D02*
X50600000Y-72100000D01*
X50300000Y-74900000D02*
X50600000Y-74600000D01*
X48650000Y-74900000D02*
X50300000Y-74900000D01*
X47450000Y-73700000D02*
X48650000Y-74900000D01*
X47450000Y-73700000D02*
X47450000Y-74110000D01*
%TO.N,/GHC*%
X67873187Y-57279000D02*
X67272991Y-57279000D01*
X68046820Y-57105367D02*
X67873187Y-57279000D01*
%TO.N,/GLC*%
X68325214Y-57876374D02*
X68157341Y-57708501D01*
%TO.N,/GHC*%
X66848589Y-56854598D02*
X66848589Y-56699598D01*
%TO.N,/GLC*%
X68059376Y-57728501D02*
X67086802Y-57728501D01*
%TO.N,/GHC*%
X66527577Y-56378586D02*
X64919001Y-56378586D01*
%TO.N,/GLC*%
X68157341Y-57708501D02*
X68079376Y-57708501D01*
X67086802Y-57728501D02*
X66931802Y-57573501D01*
X66931802Y-57573501D02*
X64761201Y-57573501D01*
%TO.N,/GHC*%
X67272991Y-57279000D02*
X66848589Y-56854598D01*
X69301665Y-57499855D02*
X68907177Y-57105367D01*
%TO.N,/GLC*%
X64761201Y-57573501D02*
X64194501Y-57006801D01*
X64194501Y-56272033D02*
X63597467Y-55675000D01*
X61690000Y-54980000D02*
X60970000Y-54980000D01*
X64194501Y-57006801D02*
X64194501Y-56272033D01*
X62385000Y-55675000D02*
X61690000Y-54980000D01*
%TO.N,/GHB*%
X67627589Y-56500000D02*
X67573089Y-56554500D01*
%TO.N,/GHC*%
X66848589Y-56699598D02*
X66527577Y-56378586D01*
%TO.N,/GLC*%
X63597467Y-55675000D02*
X62385000Y-55675000D01*
X68079376Y-57708501D02*
X68059376Y-57728501D01*
%TO.N,/GHC*%
X68907177Y-57105367D02*
X68046820Y-57105367D01*
%TO.N,/GHB*%
X70300000Y-56500000D02*
X67627589Y-56500000D01*
D41*
%TO.N,VIN*%
X77089000Y-46160000D02*
X61104522Y-46160000D01*
X61104522Y-46160000D02*
X60374522Y-46890000D01*
X60374522Y-46890000D02*
X57900000Y-46890000D01*
X57900000Y-46890000D02*
X54700000Y-43690000D01*
X54700000Y-43690000D02*
X52456630Y-43690000D01*
X52456630Y-43690000D02*
X51116630Y-42350000D01*
X51116630Y-42350000D02*
X40277532Y-42350000D01*
X37566497Y-45061035D02*
X37566497Y-66014497D01*
X40277532Y-42350000D02*
X37566497Y-45061035D01*
X37566497Y-66014497D02*
X40132000Y-68580000D01*
D39*
%TO.N,Net-(J2-Pad5)*%
X101155000Y-68030000D02*
X101155000Y-66500000D01*
X101155000Y-66500000D02*
X100795000Y-66140000D01*
D42*
%TO.N,GND*%
X101155000Y-70570000D02*
X101155000Y-73402081D01*
X101155000Y-73402081D02*
X99557081Y-75000000D01*
X75819000Y-68094000D02*
X75755000Y-68030000D01*
X99557081Y-75000000D02*
X77540000Y-75000000D01*
X77540000Y-75000000D02*
X75819000Y-73279000D01*
X75819000Y-73279000D02*
X75819000Y-68094000D01*
D39*
%TO.N,LSS*%
X118870000Y-51625000D02*
X117860000Y-52635000D01*
X117860000Y-52635000D02*
X117860000Y-54560000D01*
%TO.N,Net-(R7-Pad1)*%
X58835000Y-49870000D02*
X54390000Y-49870000D01*
X54390000Y-49870000D02*
X52907000Y-48387000D01*
X52907000Y-48387000D02*
X50419000Y-48387000D01*
X59370000Y-50405000D02*
X58835000Y-49870000D01*
%TO.N,Net-(D8-Pad2)*%
X51680000Y-55285000D02*
X51680000Y-51004310D01*
X51680000Y-51004310D02*
X50326189Y-49650499D01*
X50326189Y-49650499D02*
X49320499Y-49650499D01*
X49320499Y-49650499D02*
X48760000Y-49090000D01*
X48760000Y-49090000D02*
X48760000Y-46002500D01*
X48760000Y-46002500D02*
X46927500Y-44170000D01*
%TO.N,GND*%
X45022500Y-48450000D02*
X44320000Y-48450000D01*
X44320000Y-48450000D02*
X43770000Y-49000000D01*
X45052500Y-44170000D02*
X45052500Y-48420000D01*
X45052500Y-48420000D02*
X45022500Y-48450000D01*
%TO.N,/HC*%
X49740000Y-55285000D02*
X49740000Y-51360000D01*
X49740000Y-51360000D02*
X49850000Y-51250000D01*
%TO.N,Net-(D10-Pad2)*%
X46927500Y-46280000D02*
X47710000Y-47062500D01*
X47710000Y-47062500D02*
X47710000Y-48760000D01*
X47710000Y-48760000D02*
X49050000Y-50100000D01*
X49050000Y-50100000D02*
X50140000Y-50100000D01*
X50140000Y-50100000D02*
X51210000Y-51170000D01*
X51210000Y-54537538D02*
X50880000Y-54867538D01*
X51210000Y-51170000D02*
X51210000Y-54537538D01*
X50880000Y-54867538D02*
X50880000Y-55795000D01*
X50880000Y-55795000D02*
X49740000Y-56935000D01*
%TO.N,Net-(D9-Pad2)*%
X46897500Y-48583190D02*
X46897500Y-48450000D01*
X48620000Y-53820000D02*
X49040000Y-53400000D01*
X49040000Y-50725690D02*
X46897500Y-48583190D01*
X48620000Y-55895000D02*
X48620000Y-53820000D01*
X47550000Y-56965000D02*
X48620000Y-55895000D01*
X49040000Y-53400000D02*
X49040000Y-50725690D01*
%TO.N,/HB*%
X48490000Y-53314310D02*
X48490000Y-51310000D01*
X48490000Y-51310000D02*
X47260000Y-50080000D01*
X47759501Y-54044809D02*
X48490000Y-53314310D01*
X47759501Y-55105499D02*
X47759501Y-54044809D01*
%TO.N,/HA*%
X47310000Y-54250000D02*
X46580000Y-54980000D01*
%TO.N,/HB*%
X47550000Y-55315000D02*
X47759501Y-55105499D01*
%TO.N,/HA*%
X47310000Y-53260000D02*
X47310000Y-54250000D01*
X46580000Y-54980000D02*
X46580000Y-57410000D01*
X46580000Y-57410000D02*
X47290000Y-58120000D01*
X51680000Y-57390000D02*
X51680000Y-56935000D01*
X47290000Y-58120000D02*
X50950000Y-58120000D01*
X50950000Y-58120000D02*
X51680000Y-57390000D01*
%TO.N,/HB*%
X47260000Y-50080000D02*
X46505000Y-50080000D01*
X46505000Y-50080000D02*
X46095000Y-50490000D01*
%TO.N,Net-(C8-Pad1)*%
X42680000Y-50300000D02*
X44255000Y-50300000D01*
X44255000Y-50300000D02*
X44445000Y-50490000D01*
%TO.N,/HC*%
X47280000Y-51750000D02*
X46415000Y-51750000D01*
X46415000Y-51750000D02*
X46095000Y-52070000D01*
%TO.N,Net-(C9-Pad1)*%
X45250000Y-55190000D02*
X45250000Y-52875000D01*
X45250000Y-52875000D02*
X44445000Y-52070000D01*
X42672000Y-55880000D02*
X44560000Y-55880000D01*
X44560000Y-55880000D02*
X45250000Y-55190000D01*
X44445000Y-52070000D02*
X44275000Y-51900000D01*
X44275000Y-51900000D02*
X42695000Y-51900000D01*
%TO.N,Net-(C7-Pad1)*%
X44445000Y-54515000D02*
X43940000Y-55020000D01*
X44445000Y-53660000D02*
X44445000Y-54515000D01*
%TO.N,/HA*%
X47310000Y-53260000D02*
X46495000Y-53260000D01*
%TO.N,Net-(C7-Pad1)*%
X44295000Y-53510000D02*
X44445000Y-53660000D01*
%TO.N,/HA*%
X46495000Y-53260000D02*
X46095000Y-53660000D01*
%TO.N,Net-(C7-Pad1)*%
X42655000Y-53510000D02*
X44295000Y-53510000D01*
%TO.N,/OCREF*%
X42672000Y-66040000D02*
X41722991Y-66040000D01*
X41722991Y-66040000D02*
X40522991Y-64840000D01*
X40522991Y-64840000D02*
X39480000Y-64840000D01*
X39480000Y-64840000D02*
X38140998Y-63500998D01*
X38140998Y-63500998D02*
X38140998Y-45299002D01*
X38140998Y-45299002D02*
X40450000Y-42990000D01*
X40450000Y-42990000D02*
X50102000Y-42990000D01*
X50102000Y-42990000D02*
X52959000Y-45847000D01*
%TO.N,HAS*%
X68724076Y-60339059D02*
X68689860Y-60304843D01*
X51999000Y-66199000D02*
X53323501Y-67523501D01*
X54906009Y-69705000D02*
X56151310Y-69705000D01*
X81915000Y-50813000D02*
X80268000Y-52460000D01*
X60975000Y-63550000D02*
X60200000Y-64325000D01*
X66956471Y-60203063D02*
X65533884Y-60203063D01*
X57276310Y-68580000D02*
X57912000Y-68580000D01*
X53323501Y-67523501D02*
X53323501Y-68122492D01*
X56151310Y-69705000D02*
X57276310Y-68580000D01*
X53323501Y-68122492D02*
X54906009Y-69705000D01*
X68689860Y-60304843D02*
X67058251Y-60304843D01*
X60200000Y-66292000D02*
X57912000Y-68580000D01*
X69748674Y-59811614D02*
X69748674Y-59914657D01*
X80268000Y-52460000D02*
X79369000Y-52460000D01*
D40*
X51433315Y-66199000D02*
X50287177Y-65052862D01*
D39*
X67058251Y-60304843D02*
X66956471Y-60203063D01*
X70178176Y-59382112D02*
X69748674Y-59811614D01*
X69748674Y-59914657D02*
X69324272Y-60339059D01*
D40*
X51999000Y-66199000D02*
X51433315Y-66199000D01*
D39*
X60200000Y-64325000D02*
X60200000Y-66292000D01*
X69324272Y-60339059D02*
X68724076Y-60339059D01*
%TO.N,Net-(C1-Pad2)*%
X81915000Y-47118000D02*
X81916000Y-47117000D01*
X74809000Y-51175000D02*
X76073000Y-49911000D01*
X86070000Y-46192000D02*
X86933500Y-47055500D01*
X86933500Y-47055500D02*
X86933500Y-50165000D01*
X81915000Y-49263000D02*
X81915000Y-47118000D01*
X81916000Y-46735000D02*
X82459000Y-46192000D01*
X74809000Y-52460000D02*
X74809000Y-51175000D01*
X82459000Y-46192000D02*
X86070000Y-46192000D01*
X76073000Y-49911000D02*
X81267000Y-49911000D01*
X81267000Y-49911000D02*
X81915000Y-49263000D01*
X81916000Y-47117000D02*
X81916000Y-46735000D01*
%TO.N,Net-(C2-Pad2)*%
X81915000Y-59930000D02*
X81915000Y-59309000D01*
X81764000Y-61720000D02*
X81915000Y-61569000D01*
X76710000Y-61720000D02*
X81764000Y-61720000D01*
X74795000Y-63635000D02*
X76710000Y-61720000D01*
X81915000Y-59309000D02*
X84901500Y-56322500D01*
X74795000Y-64255000D02*
X74795000Y-63635000D01*
X81915000Y-61569000D02*
X81915000Y-59930000D01*
X84901500Y-56322500D02*
X84901500Y-53721000D01*
%TO.N,GND*%
X41145000Y-51900000D02*
X39850000Y-51900000D01*
X45871499Y-65549501D02*
X45526189Y-65549501D01*
X45900000Y-65521000D02*
X45871499Y-65549501D01*
X39850000Y-51900000D02*
X39780000Y-51830000D01*
D40*
X47220148Y-65379852D02*
X47829981Y-64770019D01*
X47049040Y-65521000D02*
X47190188Y-65379852D01*
X47190188Y-65379852D02*
X47220148Y-65379852D01*
X45900000Y-65521000D02*
X47049040Y-65521000D01*
D39*
X43250499Y-67769501D02*
X42672000Y-68348000D01*
X42672000Y-68348000D02*
X42672000Y-68580000D01*
X41160000Y-50295000D02*
X41160000Y-53480000D01*
X43306189Y-67769501D02*
X43250499Y-67769501D01*
X45526189Y-65549501D02*
X43306189Y-67769501D01*
D40*
%TO.N,LSS*%
X51999000Y-59021000D02*
X51881943Y-59021000D01*
D41*
X64786998Y-62316998D02*
X63620000Y-61150000D01*
X58650000Y-54430000D02*
X56822000Y-54430000D01*
X63359501Y-56249501D02*
X62147034Y-56249501D01*
X73745000Y-63595000D02*
X73010000Y-62860000D01*
X79355000Y-64255000D02*
X79355000Y-64755000D01*
X60320000Y-56100000D02*
X58650000Y-54430000D01*
X73745000Y-65805000D02*
X73745000Y-63595000D01*
X63620000Y-56510000D02*
X63359501Y-56249501D01*
X62147034Y-56249501D02*
X61997533Y-56100000D01*
X66820000Y-62860000D02*
X66276998Y-62316998D01*
D39*
X52231000Y-59021000D02*
X55372000Y-55880000D01*
D41*
X66276998Y-62316998D02*
X64786998Y-62316998D01*
X78255000Y-65855000D02*
X73795000Y-65855000D01*
X56822000Y-54430000D02*
X55372000Y-55880000D01*
X79355000Y-64755000D02*
X78255000Y-65855000D01*
D39*
X51999000Y-59021000D02*
X52231000Y-59021000D01*
D41*
X73010000Y-62860000D02*
X66820000Y-62860000D01*
X63620000Y-61150000D02*
X63620000Y-56510000D01*
X61997533Y-56100000D02*
X60320000Y-56100000D01*
D40*
X51881943Y-59021000D02*
X49721491Y-61181452D01*
D41*
X73795000Y-65855000D02*
X73745000Y-65805000D01*
D39*
%TO.N,Net-(C17-Pad2)*%
X62590000Y-63349000D02*
X62590000Y-64950000D01*
%TO.N,Net-(C18-Pad2)*%
X62550000Y-60355000D02*
X62550000Y-61970000D01*
%TO.N,Net-(C19-Pad2)*%
X62550000Y-57370000D02*
X62550000Y-58971000D01*
%TO.N,VIN*%
X46000000Y-66100000D02*
X45611380Y-66100000D01*
X43797000Y-67914380D02*
X43797000Y-69073000D01*
X41372000Y-69820000D02*
X40132000Y-68580000D01*
D40*
X47355667Y-65779353D02*
X47386332Y-65779353D01*
X46000000Y-66100000D02*
X47035020Y-66100000D01*
D39*
X43797000Y-69073000D02*
X43050000Y-69820000D01*
D40*
X47386332Y-65779353D02*
X48112823Y-65052862D01*
X47035020Y-66100000D02*
X47355667Y-65779353D01*
D39*
X45611380Y-66100000D02*
X43797000Y-67914380D01*
X43050000Y-69820000D02*
X41372000Y-69820000D01*
%TO.N,Net-(C3-Pad2)*%
X89923000Y-52504000D02*
X89923000Y-52063000D01*
X99121500Y-50292000D02*
X97753000Y-50292000D01*
X91694000Y-50292000D02*
X96291000Y-50292000D01*
X97022000Y-47491000D02*
X96902000Y-47371000D01*
X97753000Y-50292000D02*
X97022000Y-49561000D01*
X96291000Y-50292000D02*
X97022000Y-49561000D01*
X89923000Y-52063000D02*
X91694000Y-50292000D01*
X97022000Y-49561000D02*
X97022000Y-47491000D01*
%TO.N,Net-(C4-Pad2)*%
X97149000Y-61753000D02*
X97149000Y-60114000D01*
X90743000Y-64407000D02*
X91260000Y-63890000D01*
X98244000Y-60114000D02*
X98620000Y-60490000D01*
X98933000Y-54929500D02*
X100014500Y-53848000D01*
X97149000Y-60114000D02*
X98244000Y-60114000D01*
X98933000Y-58330000D02*
X98933000Y-54929500D01*
X89923000Y-64407000D02*
X90743000Y-64407000D01*
X97149000Y-60114000D02*
X98933000Y-58330000D01*
%TO.N,HBS*%
X64840000Y-59340000D02*
X67672813Y-59340000D01*
X53852009Y-63571000D02*
X54906009Y-64625000D01*
X52900000Y-63571000D02*
X53852009Y-63571000D01*
D40*
X51418548Y-63921491D02*
X51418548Y-63881452D01*
D39*
X54906009Y-64625000D02*
X56151310Y-64625000D01*
X56151310Y-64625000D02*
X57276310Y-63500000D01*
X67672813Y-59340000D02*
X67991701Y-59658888D01*
X97022000Y-51111000D02*
X95629000Y-52504000D01*
D40*
X51800000Y-63500000D02*
X52829000Y-63500000D01*
D39*
X95629000Y-52504000D02*
X94483000Y-52504000D01*
X57276310Y-63500000D02*
X57912000Y-63500000D01*
X68591897Y-59658888D02*
X68636226Y-59614559D01*
D40*
X52829000Y-63500000D02*
X52900000Y-63571000D01*
D39*
X60975000Y-60430000D02*
X60975000Y-60437000D01*
X68636226Y-59614559D02*
X69024174Y-59614559D01*
D40*
X51418548Y-63881452D02*
X51800000Y-63500000D01*
D39*
X60975000Y-60437000D02*
X57912000Y-63500000D01*
X67991701Y-59658888D02*
X68591897Y-59658888D01*
%TO.N,HCS*%
X56497000Y-59835000D02*
X57912000Y-58420000D01*
X67657411Y-58300000D02*
X68291799Y-58934388D01*
X52900000Y-60971000D02*
X53770009Y-60971000D01*
X111957000Y-51161000D02*
X110590000Y-52528000D01*
X64600000Y-58300000D02*
X67657411Y-58300000D01*
D40*
X50570019Y-62029981D02*
X51629000Y-60971000D01*
D39*
X110590000Y-52528000D02*
X109468000Y-52528000D01*
X60975000Y-57329000D02*
X59884000Y-58420000D01*
X53770009Y-60971000D02*
X54906009Y-59835000D01*
D40*
X51629000Y-60971000D02*
X52900000Y-60971000D01*
D39*
X59884000Y-58420000D02*
X57912000Y-58420000D01*
X54906009Y-59835000D02*
X56497000Y-59835000D01*
%TO.N,Net-(C5-Pad2)*%
X113172500Y-49611000D02*
X113980500Y-50419000D01*
X107061000Y-50292000D02*
X111276000Y-50292000D01*
X111957000Y-47556000D02*
X112015000Y-47498000D01*
X104908000Y-52528000D02*
X104908000Y-52445000D01*
X111957000Y-49611000D02*
X113172500Y-49611000D01*
X111957000Y-49611000D02*
X111957000Y-47556000D01*
X111276000Y-50292000D02*
X111957000Y-49611000D01*
X104908000Y-52445000D02*
X107061000Y-50292000D01*
%TO.N,Net-(C6-Pad2)*%
X118775000Y-50170000D02*
X118870000Y-50075000D01*
X119116000Y-48520000D02*
X119373000Y-48520000D01*
X119826500Y-44323000D02*
X119826500Y-46039500D01*
X104908000Y-64678000D02*
X106042000Y-64678000D01*
X118870000Y-50075000D02*
X118870000Y-48766000D01*
X120395000Y-46610000D02*
X120395000Y-47498000D01*
X118080000Y-50170000D02*
X118775000Y-50170000D01*
X118067500Y-50150000D02*
X118067500Y-50157500D01*
X120396000Y-46609000D02*
X120395000Y-46610000D01*
X106042000Y-64678000D02*
X106060000Y-64660000D01*
X119373000Y-48520000D02*
X120395000Y-47498000D01*
X118067500Y-50157500D02*
X118080000Y-50170000D01*
X119826500Y-46039500D02*
X120396000Y-46609000D01*
X118870000Y-48766000D02*
X119116000Y-48520000D01*
%TO.N,Net-(D7-Pad2)*%
X61200000Y-43060000D02*
X61260000Y-43120000D01*
X60950000Y-50375000D02*
X60950000Y-48390000D01*
X59670000Y-43060000D02*
X61200000Y-43060000D01*
X59607500Y-43122500D02*
X59670000Y-43060000D01*
X60950000Y-48390000D02*
X61025000Y-48315000D01*
X59590000Y-43122500D02*
X59607500Y-43122500D01*
%TO.N,/BSTA*%
X60925000Y-66203396D02*
X59037000Y-68091396D01*
X59037000Y-69045991D02*
X58377991Y-69705000D01*
X51900000Y-67648000D02*
X51900000Y-67200000D01*
X59037000Y-68091396D02*
X59037000Y-69045991D01*
X55372000Y-71120000D02*
X51900000Y-67648000D01*
X56787000Y-69705000D02*
X55372000Y-71120000D01*
X51900000Y-67200000D02*
X51400000Y-66700000D01*
X58377991Y-69705000D02*
X56787000Y-69705000D01*
X60925000Y-65120000D02*
X60925000Y-66203396D01*
D40*
X50004334Y-65335705D02*
X51368629Y-66700000D01*
X51368629Y-66700000D02*
X51400000Y-66700000D01*
D39*
%TO.N,/BSTB*%
X60200000Y-63515000D02*
X58800000Y-64915000D01*
D40*
X51531373Y-64600000D02*
X52000000Y-64600000D01*
D39*
X56497000Y-64915000D02*
X55372000Y-66040000D01*
D40*
X51135705Y-64204334D02*
X51531373Y-64600000D01*
D39*
X55372000Y-66040000D02*
X53932000Y-64600000D01*
X58800000Y-64915000D02*
X56497000Y-64915000D01*
X60200000Y-62705000D02*
X60200000Y-63515000D01*
X53932000Y-64600000D02*
X52000000Y-64600000D01*
X60925000Y-61980000D02*
X60200000Y-62705000D01*
%TO.N,/BSTC*%
X60270000Y-59545000D02*
X57495000Y-59545000D01*
X60925000Y-58890000D02*
X60270000Y-59545000D01*
X56080000Y-60960000D02*
X55372000Y-60960000D01*
D40*
X50852862Y-62312823D02*
X51565687Y-61600000D01*
D39*
X54732000Y-61600000D02*
X55372000Y-60960000D01*
D40*
X51565687Y-61600000D02*
X53200000Y-61600000D01*
D39*
X53200000Y-61600000D02*
X54732000Y-61600000D01*
X57495000Y-59545000D02*
X56080000Y-60960000D01*
D40*
%TO.N,/CPA*%
X46879000Y-66821000D02*
X47521146Y-66178854D01*
D39*
X46299000Y-66821000D02*
X45526070Y-66821000D01*
X45320000Y-68472000D02*
X42672000Y-71120000D01*
D40*
X46299000Y-66821000D02*
X46879000Y-66821000D01*
X47552517Y-66178854D02*
X48395666Y-65335705D01*
X47521146Y-66178854D02*
X47552517Y-66178854D01*
D39*
X45320000Y-67027070D02*
X45320000Y-68472000D01*
X45526070Y-66821000D02*
X45320000Y-67027070D01*
D40*
%TO.N,/GHA*%
X52100000Y-65600000D02*
X51400000Y-65600000D01*
X51400000Y-65600000D02*
X50570019Y-64770019D01*
D39*
X85216000Y-47117000D02*
X83566000Y-47117000D01*
X52100000Y-65600000D02*
X52392000Y-65600000D01*
X83566000Y-47117000D02*
X83439000Y-47244000D01*
X85216000Y-47117000D02*
X85216000Y-48769000D01*
X52392000Y-65600000D02*
X55372000Y-68580000D01*
X85216000Y-48769000D02*
X84008500Y-49976500D01*
X84008500Y-49976500D02*
X84008500Y-50165000D01*
%TO.N,/GLA*%
X54906009Y-67165000D02*
X56787000Y-67165000D01*
X54307503Y-66566494D02*
X54906009Y-67165000D01*
D40*
X51365687Y-65000000D02*
X50852862Y-64487177D01*
D39*
X52400000Y-65100000D02*
X52910070Y-65100000D01*
D40*
X51500000Y-65100000D02*
X51400000Y-65000000D01*
X52400000Y-65100000D02*
X51500000Y-65100000D01*
D39*
X69520000Y-62010500D02*
X68538167Y-61028667D01*
X54307503Y-66497433D02*
X54307503Y-66566494D01*
X68538167Y-61028667D02*
X66757477Y-61028667D01*
X56787000Y-67165000D02*
X57912000Y-66040000D01*
X81915000Y-57785000D02*
X81788000Y-57912000D01*
X52910070Y-65100000D02*
X54307503Y-66497433D01*
X81915000Y-56630000D02*
X81915000Y-57785000D01*
X81915000Y-56630000D02*
X81915000Y-53782500D01*
D40*
X51400000Y-65000000D02*
X51365687Y-65000000D01*
D39*
%TO.N,/GHB*%
X102046500Y-50292000D02*
X102046500Y-48960500D01*
X54793000Y-62921000D02*
X55372000Y-63500000D01*
X100202000Y-47371000D02*
X98425000Y-47371000D01*
X53100000Y-62921000D02*
X54793000Y-62921000D01*
D40*
X51418548Y-62878509D02*
X53057509Y-62878509D01*
D39*
X102046500Y-48960500D02*
X100457000Y-47371000D01*
D40*
X53057509Y-62878509D02*
X53100000Y-62921000D01*
D39*
X100457000Y-47371000D02*
X100202000Y-47371000D01*
%TO.N,/GLB*%
X66514965Y-61742497D02*
X66782968Y-62010500D01*
X56601000Y-62271000D02*
X57912000Y-60960000D01*
D40*
X53148150Y-62219150D02*
X53200000Y-62271000D01*
X51135705Y-62595666D02*
X51512223Y-62219150D01*
X51512223Y-62219150D02*
X53148150Y-62219150D01*
D39*
X97149000Y-53907500D02*
X97149000Y-56814000D01*
X97149000Y-58033000D02*
X97282000Y-58166000D01*
X53200000Y-62271000D02*
X56601000Y-62271000D01*
X64780000Y-60960000D02*
X65562497Y-61742497D01*
X66782968Y-62010500D02*
X68460000Y-62010500D01*
X97149000Y-56814000D02*
X97149000Y-58033000D01*
X65562497Y-61742497D02*
X66514965Y-61742497D01*
%TO.N,/GHC*%
X116905500Y-49722500D02*
X115315000Y-48132000D01*
X116905500Y-50419000D02*
X116905500Y-49722500D01*
X113792000Y-47498000D02*
X113665000Y-47371000D01*
X115315000Y-48132000D02*
X115315000Y-47498000D01*
D40*
X51713316Y-60321000D02*
X52921000Y-60321000D01*
D39*
X52921000Y-60321000D02*
X53471000Y-60321000D01*
X115315000Y-47498000D02*
X113792000Y-47498000D01*
X53471000Y-60321000D02*
X55372000Y-58420000D01*
D40*
X50287177Y-61747138D02*
X51713316Y-60321000D01*
%TO.N,/GLC*%
X51768631Y-59700000D02*
X52600000Y-59700000D01*
D39*
X54247000Y-57954009D02*
X55196009Y-57005000D01*
X52897000Y-59700000D02*
X54247000Y-58350000D01*
X117095000Y-47498000D02*
X117221000Y-47498000D01*
X54247000Y-58350000D02*
X54247000Y-57954009D01*
X117221000Y-47498000D02*
X118491000Y-46228000D01*
X55196009Y-57005000D02*
X56787000Y-57005000D01*
X56787000Y-57005000D02*
X57912000Y-55880000D01*
X116901500Y-44323000D02*
X116901500Y-44638500D01*
X116901500Y-44638500D02*
X118491000Y-46228000D01*
X52600000Y-59700000D02*
X52897000Y-59700000D01*
D40*
X50004334Y-61464295D02*
X51768631Y-59700000D01*
%TO.N,/VREG*%
X51200000Y-67500000D02*
X49721491Y-66021491D01*
D39*
X62180000Y-66620000D02*
X62880000Y-65920000D01*
X63350000Y-63556827D02*
X63886827Y-63020000D01*
X67235000Y-64860000D02*
X69065000Y-64860000D01*
D40*
X49721491Y-66021491D02*
X49721491Y-65618548D01*
D39*
X59486501Y-68533499D02*
X61400000Y-66620000D01*
X65300000Y-63020000D02*
X67140000Y-64860000D01*
X56787000Y-72245000D02*
X57912000Y-71120000D01*
X51200000Y-67500000D02*
X51200000Y-68538991D01*
X63350000Y-65562462D02*
X63350000Y-63556827D01*
X54906009Y-72245000D02*
X56787000Y-72245000D01*
X61400000Y-66620000D02*
X62180000Y-66620000D01*
X62880000Y-65920000D02*
X62992462Y-65920000D01*
X67140000Y-64860000D02*
X67235000Y-64860000D01*
X51200000Y-68538991D02*
X54906009Y-72245000D01*
X62992462Y-65920000D02*
X63350000Y-65562462D01*
X63886827Y-63020000D02*
X65300000Y-63020000D01*
X57912000Y-71120000D02*
X59486501Y-69545499D01*
X59486501Y-69545499D02*
X59486501Y-68533499D01*
D40*
%TO.N,/nBRAKE*%
X46720000Y-60920000D02*
X44760000Y-60920000D01*
D39*
X40132000Y-58420000D02*
X41352000Y-59640000D01*
X43090000Y-59640000D02*
X44370000Y-60920000D01*
D40*
X47829981Y-62029981D02*
X46720000Y-60920000D01*
D39*
X41352000Y-59640000D02*
X43090000Y-59640000D01*
X44370000Y-60920000D02*
X44760000Y-60920000D01*
%TO.N,/PWM*%
X43333000Y-61621000D02*
X42672000Y-60960000D01*
D40*
X43333000Y-61621000D02*
X46855315Y-61621000D01*
X46855315Y-61621000D02*
X47547138Y-62312823D01*
%TO.N,/DIR*%
X46887779Y-62219150D02*
X47264295Y-62595666D01*
X45380850Y-62219150D02*
X46887779Y-62219150D01*
X45329000Y-62271000D02*
X45380850Y-62219150D01*
D39*
X41443000Y-62271000D02*
X40132000Y-60960000D01*
X44400000Y-62271000D02*
X41443000Y-62271000D01*
D40*
X45329000Y-62271000D02*
X44400000Y-62271000D01*
D39*
%TO.N,/nFAULT*%
X43251000Y-62921000D02*
X42672000Y-63500000D01*
X59410000Y-45980000D02*
X59410000Y-44637500D01*
X44600000Y-62900000D02*
X44579000Y-62921000D01*
D40*
X46959961Y-62900000D02*
X46981452Y-62878509D01*
D39*
X39781009Y-62200000D02*
X38590499Y-61009490D01*
X41722991Y-63500000D02*
X40422991Y-62200000D01*
D40*
X44600000Y-62900000D02*
X46959961Y-62900000D01*
D39*
X44579000Y-62921000D02*
X43251000Y-62921000D01*
X42672000Y-63500000D02*
X41722991Y-63500000D01*
X40422991Y-62200000D02*
X39781009Y-62200000D01*
X38590499Y-49954901D02*
X38867700Y-49677700D01*
X38590499Y-61009490D02*
X38590499Y-49954901D01*
%TO.N,/nSLEEP*%
X41402000Y-64770000D02*
X40132000Y-63500000D01*
X44871000Y-63571000D02*
X44479000Y-63571000D01*
D40*
X44871000Y-63571000D02*
X46630961Y-63571000D01*
X46630961Y-63571000D02*
X46981452Y-63921491D01*
D39*
X43280000Y-64770000D02*
X41402000Y-64770000D01*
X44479000Y-63571000D02*
X43280000Y-64770000D01*
D40*
%TO.N,/OCREF*%
X46064980Y-64200000D02*
X46464980Y-64600000D01*
X46464980Y-64600000D02*
X46868629Y-64600000D01*
X45400000Y-64200000D02*
X46064980Y-64200000D01*
D39*
X45400000Y-64200000D02*
X44512000Y-64200000D01*
X44512000Y-64200000D02*
X42672000Y-66040000D01*
D40*
X46868629Y-64600000D02*
X47264295Y-64204334D01*
%TO.N,/DT*%
X46200000Y-65000000D02*
X45600000Y-65000000D01*
X47024709Y-64980351D02*
X47053964Y-64980351D01*
X46905060Y-65100000D02*
X47024709Y-64980351D01*
D39*
X41412000Y-67320000D02*
X43120000Y-67320000D01*
X43120000Y-67320000D02*
X45340000Y-65100000D01*
D40*
X46300000Y-65100000D02*
X46905060Y-65100000D01*
X47053964Y-64980351D02*
X47547138Y-64487177D01*
D39*
X45500000Y-65100000D02*
X45600000Y-65000000D01*
X40132000Y-66040000D02*
X41412000Y-67320000D01*
D40*
X46300000Y-65100000D02*
X46200000Y-65000000D01*
D39*
X45340000Y-65100000D02*
X45500000Y-65100000D01*
%TO.N,5V*%
X59370000Y-53310000D02*
X59370000Y-52055000D01*
X60920000Y-52055000D02*
X60950000Y-52025000D01*
X59370000Y-52055000D02*
X60920000Y-52055000D01*
D41*
X63090000Y-70470000D02*
X63090000Y-67930000D01*
D40*
%TO.N,Net-(C7-Pad1)*%
X47165684Y-60800000D02*
X48112823Y-61747138D01*
X46464980Y-60100000D02*
X47164980Y-60800000D01*
D39*
X44352000Y-60100000D02*
X44400000Y-60100000D01*
D40*
X44400000Y-60100000D02*
X46464980Y-60100000D01*
X47164980Y-60800000D02*
X47165684Y-60800000D01*
D39*
X42672000Y-58420000D02*
X44352000Y-60100000D01*
%TO.N,Net-(C8-Pad1)*%
X40230000Y-49340000D02*
X41720000Y-49340000D01*
X40132000Y-53312000D02*
X39040000Y-52220000D01*
X43140000Y-57140000D02*
X45500000Y-59500000D01*
X40132000Y-55880000D02*
X41392000Y-57140000D01*
D40*
X46431371Y-59500000D02*
X48395666Y-61464295D01*
D39*
X40132000Y-55880000D02*
X40132000Y-53312000D01*
X41720000Y-49340000D02*
X42680000Y-50300000D01*
X39040000Y-52220000D02*
X39040000Y-50530000D01*
X39040000Y-50530000D02*
X40230000Y-49340000D01*
X41392000Y-57140000D02*
X43140000Y-57140000D01*
D40*
X45500000Y-59500000D02*
X46431371Y-59500000D01*
%TO.N,Net-(C9-Pad1)*%
X48678509Y-61078509D02*
X48678509Y-61181452D01*
X46800000Y-59200000D02*
X48678509Y-61078509D01*
D39*
X43480000Y-55880000D02*
X46800000Y-59200000D01*
X42672000Y-55880000D02*
X43480000Y-55880000D01*
%TD*%
%TA.AperFunction,Conductor*%
%TO.N,VIN*%
G36*
X125830657Y-42410923D02*
G01*
X125881193Y-42415761D01*
X126003905Y-42427508D01*
X126027683Y-42432124D01*
X126188701Y-42479824D01*
X126211160Y-42488906D01*
X126360070Y-42566538D01*
X126380376Y-42579751D01*
X126516444Y-42688249D01*
X126525551Y-42696257D01*
X127582420Y-43719891D01*
X127591382Y-43729527D01*
X127712561Y-43874309D01*
X127727235Y-43896113D01*
X127759457Y-43956827D01*
X127812634Y-44057029D01*
X127822466Y-44081404D01*
X127874444Y-44262897D01*
X127877399Y-44275709D01*
X127961068Y-44750478D01*
X128233039Y-46293757D01*
X128233933Y-46299641D01*
X128244780Y-46384455D01*
X128245730Y-46396315D01*
X128248528Y-46481753D01*
X128248583Y-46487703D01*
X128212283Y-48990131D01*
X127931120Y-68372789D01*
X127930964Y-68377493D01*
X127927457Y-68445052D01*
X127926618Y-68454428D01*
X127918077Y-68521537D01*
X127917395Y-68526194D01*
X127565728Y-70651943D01*
X127563181Y-70663778D01*
X127530444Y-70786761D01*
X127518445Y-70831837D01*
X127510000Y-70854522D01*
X127436624Y-71005431D01*
X127423996Y-71026084D01*
X127323117Y-71160172D01*
X127306773Y-71178029D01*
X127245240Y-71233473D01*
X127182109Y-71290356D01*
X127162653Y-71304756D01*
X127039976Y-71378455D01*
X127018814Y-71391168D01*
X126996963Y-71401582D01*
X126839249Y-71458895D01*
X126815811Y-71464938D01*
X126717884Y-71480353D01*
X126644035Y-71491978D01*
X126631990Y-71493285D01*
X125779957Y-71544407D01*
X125766246Y-71544481D01*
X125569552Y-71534819D01*
X125542487Y-71530505D01*
X125359209Y-71480352D01*
X125333712Y-71470283D01*
X125159511Y-71378455D01*
X125147733Y-71371401D01*
X125133527Y-71361804D01*
X125121523Y-71352598D01*
X125009933Y-71255852D01*
X124989647Y-71233473D01*
X124908691Y-71119166D01*
X124894315Y-71092605D01*
X124842889Y-70962321D01*
X124835247Y-70933101D01*
X124823027Y-70843587D01*
X124815269Y-70786754D01*
X124814127Y-70771675D01*
X124812453Y-70663790D01*
X124505368Y-50880090D01*
X124490000Y-49890000D01*
X123499808Y-49895626D01*
X123499807Y-49895626D01*
X123496749Y-49895643D01*
X123496740Y-49895643D01*
X119979614Y-49915627D01*
X119911381Y-49896012D01*
X119864584Y-49842622D01*
X119854310Y-49801184D01*
X119853500Y-49801268D01*
X119843598Y-49705837D01*
X119842887Y-49698981D01*
X119800793Y-49572811D01*
X119791073Y-49543676D01*
X119791072Y-49543674D01*
X119788756Y-49536732D01*
X119698752Y-49391287D01*
X119607518Y-49300212D01*
X119573439Y-49237930D01*
X119578442Y-49167109D01*
X119620939Y-49110237D01*
X119632395Y-49102587D01*
X119644028Y-49095707D01*
X119661776Y-49087012D01*
X119680617Y-49079552D01*
X119716387Y-49053564D01*
X119726307Y-49047048D01*
X119757535Y-49028580D01*
X119757538Y-49028578D01*
X119764362Y-49024542D01*
X119778683Y-49010221D01*
X119793717Y-48997380D01*
X119810107Y-48985472D01*
X119838298Y-48951395D01*
X119846288Y-48942616D01*
X120145499Y-48643405D01*
X120207811Y-48609379D01*
X120234594Y-48606500D01*
X120893134Y-48606500D01*
X120955316Y-48599745D01*
X121091705Y-48548615D01*
X121208261Y-48461261D01*
X121295615Y-48344705D01*
X121346745Y-48208316D01*
X121353500Y-48146134D01*
X121353500Y-46849866D01*
X121346745Y-46787684D01*
X121295615Y-46651295D01*
X121208261Y-46534739D01*
X121192201Y-46522703D01*
X123060743Y-46522703D01*
X123061302Y-46526947D01*
X123061302Y-46526951D01*
X123073341Y-46618393D01*
X123098268Y-46807734D01*
X123174129Y-47085036D01*
X123175813Y-47088984D01*
X123214036Y-47178595D01*
X123286923Y-47349476D01*
X123298693Y-47369142D01*
X123422810Y-47576526D01*
X123434561Y-47596161D01*
X123614313Y-47820528D01*
X123686549Y-47889077D01*
X123819727Y-48015458D01*
X123822851Y-48018423D01*
X123980214Y-48131500D01*
X124026560Y-48164803D01*
X124056317Y-48186186D01*
X124060112Y-48188195D01*
X124060113Y-48188196D01*
X124081869Y-48199715D01*
X124310392Y-48320712D01*
X124388838Y-48349419D01*
X124561786Y-48412709D01*
X124580373Y-48419511D01*
X124861264Y-48480755D01*
X124889841Y-48483004D01*
X125084282Y-48498307D01*
X125084291Y-48498307D01*
X125086739Y-48498500D01*
X125242271Y-48498500D01*
X125244407Y-48498354D01*
X125244418Y-48498354D01*
X125452548Y-48484165D01*
X125452554Y-48484164D01*
X125456825Y-48483873D01*
X125461020Y-48483004D01*
X125461022Y-48483004D01*
X125664050Y-48440959D01*
X125738342Y-48425574D01*
X126009343Y-48329607D01*
X126230009Y-48215713D01*
X126261005Y-48199715D01*
X126261006Y-48199715D01*
X126264812Y-48197750D01*
X126268313Y-48195289D01*
X126268317Y-48195287D01*
X126431982Y-48080261D01*
X126500023Y-48032441D01*
X126617940Y-47922866D01*
X126707479Y-47839661D01*
X126707481Y-47839658D01*
X126710622Y-47836740D01*
X126892713Y-47614268D01*
X127042927Y-47369142D01*
X127151237Y-47122406D01*
X127156757Y-47109830D01*
X127158483Y-47105898D01*
X127191498Y-46990000D01*
X127236068Y-46833534D01*
X127237244Y-46829406D01*
X127277751Y-46544784D01*
X127277815Y-46532703D01*
X127279235Y-46261583D01*
X127279235Y-46261576D01*
X127279257Y-46257297D01*
X127276698Y-46237854D01*
X127257247Y-46090115D01*
X127241732Y-45972266D01*
X127165871Y-45694964D01*
X127142102Y-45639238D01*
X127054763Y-45434476D01*
X127054761Y-45434472D01*
X127053077Y-45430524D01*
X126905439Y-45183839D01*
X126725687Y-44959472D01*
X126517149Y-44761577D01*
X126283683Y-44593814D01*
X126261843Y-44582250D01*
X126238654Y-44569972D01*
X126029608Y-44459288D01*
X125759627Y-44360489D01*
X125478736Y-44299245D01*
X125447685Y-44296801D01*
X125255718Y-44281693D01*
X125255709Y-44281693D01*
X125253261Y-44281500D01*
X125097729Y-44281500D01*
X125095593Y-44281646D01*
X125095582Y-44281646D01*
X124887452Y-44295835D01*
X124887446Y-44295836D01*
X124883175Y-44296127D01*
X124878980Y-44296996D01*
X124878978Y-44296996D01*
X124742416Y-44325277D01*
X124601658Y-44354426D01*
X124330657Y-44450393D01*
X124075188Y-44582250D01*
X124071687Y-44584711D01*
X124071683Y-44584713D01*
X124061594Y-44591804D01*
X123839977Y-44747559D01*
X123629378Y-44943260D01*
X123447287Y-45165732D01*
X123297073Y-45410858D01*
X123295347Y-45414791D01*
X123295346Y-45414792D01*
X123214790Y-45598305D01*
X123181517Y-45674102D01*
X123102756Y-45950594D01*
X123096844Y-45992134D01*
X123064484Y-46219515D01*
X123062249Y-46235216D01*
X123062227Y-46239505D01*
X123062226Y-46239512D01*
X123060850Y-46502206D01*
X123060743Y-46522703D01*
X121192201Y-46522703D01*
X121168435Y-46504891D01*
X121098887Y-46452767D01*
X121098884Y-46452765D01*
X121091705Y-46447385D01*
X121057139Y-46434427D01*
X121000374Y-46391786D01*
X120985731Y-46366485D01*
X120984229Y-46363014D01*
X120982019Y-46355407D01*
X120977988Y-46348591D01*
X120977985Y-46348584D01*
X120977822Y-46348309D01*
X120967732Y-46326865D01*
X120967627Y-46326574D01*
X120967623Y-46326567D01*
X120964939Y-46319111D01*
X120956107Y-46306115D01*
X120955889Y-46305759D01*
X120954552Y-46302383D01*
X120940502Y-46283044D01*
X120938251Y-46279841D01*
X120933368Y-46272655D01*
X120929131Y-46265979D01*
X120926532Y-46261583D01*
X120900542Y-46217638D01*
X120894722Y-46211818D01*
X120879606Y-46193547D01*
X120879431Y-46193290D01*
X120874972Y-46186729D01*
X120862751Y-46175955D01*
X120862566Y-46175776D01*
X120860472Y-46172893D01*
X120854457Y-46167917D01*
X120854452Y-46167912D01*
X120842622Y-46158125D01*
X120839617Y-46155559D01*
X120837553Y-46153739D01*
X120832843Y-46149586D01*
X120827081Y-46144175D01*
X120735355Y-46052449D01*
X120701329Y-45990137D01*
X120706394Y-45919322D01*
X120729667Y-45883075D01*
X120728596Y-45882229D01*
X120733134Y-45876483D01*
X120738305Y-45871303D01*
X120742252Y-45864900D01*
X120827275Y-45726968D01*
X120827276Y-45726966D01*
X120831115Y-45720738D01*
X120864083Y-45621341D01*
X120884632Y-45559389D01*
X120884632Y-45559387D01*
X120886797Y-45552861D01*
X120897500Y-45448400D01*
X120897500Y-43197600D01*
X120886526Y-43091834D01*
X120830550Y-42924054D01*
X120737478Y-42773652D01*
X120612303Y-42648695D01*
X120606072Y-42644854D01*
X120600327Y-42640317D01*
X120602162Y-42637993D01*
X120563666Y-42595214D01*
X120552245Y-42525142D01*
X120580521Y-42460020D01*
X120639517Y-42420522D01*
X120677170Y-42414731D01*
X122733843Y-42412978D01*
X125818547Y-42410350D01*
X125830657Y-42410923D01*
G37*
%TD.AperFunction*%
%TA.AperFunction,Conductor*%
G36*
X116107701Y-42442415D02*
G01*
X116154516Y-42495789D01*
X116165043Y-42566001D01*
X116135940Y-42630758D01*
X116119691Y-42646404D01*
X116114652Y-42649522D01*
X115989695Y-42774697D01*
X115896885Y-42925262D01*
X115841203Y-43093139D01*
X115830500Y-43197600D01*
X115830500Y-45448400D01*
X115841474Y-45554166D01*
X115843655Y-45560702D01*
X115843655Y-45560704D01*
X115847081Y-45570973D01*
X115897450Y-45721946D01*
X115990522Y-45872348D01*
X116115697Y-45997305D01*
X116121927Y-46001145D01*
X116121928Y-46001146D01*
X116205157Y-46052449D01*
X116266262Y-46090115D01*
X116325876Y-46109888D01*
X116427611Y-46143632D01*
X116427613Y-46143632D01*
X116434139Y-46145797D01*
X116440977Y-46146498D01*
X116440979Y-46146498D01*
X116503433Y-46152897D01*
X116569160Y-46179739D01*
X116609942Y-46237854D01*
X116612830Y-46308792D01*
X116576908Y-46370030D01*
X116533577Y-46393303D01*
X116534684Y-46396255D01*
X116398295Y-46447385D01*
X116281739Y-46534739D01*
X116279713Y-46532036D01*
X116231783Y-46558208D01*
X116160968Y-46553143D01*
X116129584Y-46532973D01*
X116128261Y-46534739D01*
X116011705Y-46447385D01*
X115875316Y-46396255D01*
X115813134Y-46389500D01*
X114816866Y-46389500D01*
X114754684Y-46396255D01*
X114618295Y-46447385D01*
X114501739Y-46534739D01*
X114496358Y-46541919D01*
X114496357Y-46541920D01*
X114420322Y-46643373D01*
X114363463Y-46685888D01*
X114292644Y-46690914D01*
X114245439Y-46669746D01*
X114121752Y-46579882D01*
X114115724Y-46577198D01*
X114115722Y-46577197D01*
X113953319Y-46504891D01*
X113953318Y-46504891D01*
X113947288Y-46502206D01*
X113851065Y-46481753D01*
X113766944Y-46463872D01*
X113766939Y-46463872D01*
X113760487Y-46462500D01*
X113569513Y-46462500D01*
X113563061Y-46463872D01*
X113563056Y-46463872D01*
X113478935Y-46481753D01*
X113382712Y-46502206D01*
X113376682Y-46504891D01*
X113376681Y-46504891D01*
X113214278Y-46577197D01*
X113214276Y-46577198D01*
X113208248Y-46579882D01*
X113084562Y-46669745D01*
X113017698Y-46693602D01*
X112948546Y-46677522D01*
X112909678Y-46643373D01*
X112833643Y-46541920D01*
X112833642Y-46541919D01*
X112828261Y-46534739D01*
X112711705Y-46447385D01*
X112575316Y-46396255D01*
X112513134Y-46389500D01*
X111516866Y-46389500D01*
X111454684Y-46396255D01*
X111318295Y-46447385D01*
X111201739Y-46534739D01*
X111114385Y-46651295D01*
X111063255Y-46787684D01*
X111056500Y-46849866D01*
X111056500Y-48146134D01*
X111063255Y-48208316D01*
X111114385Y-48344705D01*
X111201739Y-48461261D01*
X111208919Y-48466642D01*
X111273065Y-48514717D01*
X111315580Y-48571576D01*
X111323500Y-48615543D01*
X111323500Y-48690501D01*
X111303498Y-48758622D01*
X111263805Y-48797644D01*
X111254512Y-48803395D01*
X111254507Y-48803399D01*
X111248287Y-48807248D01*
X111127448Y-48928298D01*
X111123608Y-48934528D01*
X111123607Y-48934529D01*
X111050233Y-49053564D01*
X111037698Y-49073899D01*
X110983851Y-49236243D01*
X110983151Y-49243080D01*
X110983150Y-49243082D01*
X110979624Y-49277500D01*
X110973500Y-49337268D01*
X110973500Y-49532500D01*
X110953498Y-49600621D01*
X110899842Y-49647114D01*
X110847500Y-49658500D01*
X107139767Y-49658500D01*
X107128584Y-49657973D01*
X107121091Y-49656298D01*
X107113165Y-49656547D01*
X107113164Y-49656547D01*
X107053001Y-49658438D01*
X107049043Y-49658500D01*
X107021144Y-49658500D01*
X107017154Y-49659004D01*
X107005320Y-49659936D01*
X106961111Y-49661326D01*
X106954267Y-49663315D01*
X106923583Y-49664289D01*
X104573907Y-49443730D01*
X104561273Y-49441893D01*
X104492274Y-49428266D01*
X104381504Y-49406388D01*
X104357106Y-49398937D01*
X104194093Y-49330437D01*
X104171703Y-49318229D01*
X104025815Y-49218289D01*
X104006351Y-49201827D01*
X103879129Y-49069935D01*
X103870740Y-49060306D01*
X103860323Y-49047048D01*
X103840208Y-49021446D01*
X102087545Y-46790784D01*
X101638693Y-46219518D01*
X101638691Y-46219515D01*
X101346000Y-45847000D01*
X100875871Y-45834945D01*
X100875868Y-45834945D01*
X99048427Y-45788088D01*
X97122982Y-45738717D01*
X97122973Y-45738717D01*
X97119687Y-45738633D01*
X96393000Y-45720000D01*
X96176306Y-46333968D01*
X96159069Y-46355029D01*
X96088739Y-46407739D01*
X96001385Y-46524295D01*
X95950255Y-46660684D01*
X95943500Y-46722866D01*
X95943500Y-46971999D01*
X95936317Y-47013934D01*
X95632586Y-47874504D01*
X95632493Y-47874765D01*
X95631130Y-47878600D01*
X95630924Y-47879177D01*
X95629484Y-47883167D01*
X95629380Y-47883454D01*
X95364560Y-48611709D01*
X95359569Y-48623524D01*
X95279426Y-48789175D01*
X95265983Y-48810981D01*
X95157915Y-48951884D01*
X95140345Y-48970516D01*
X95006003Y-49086653D01*
X94985029Y-49101343D01*
X94888244Y-49155376D01*
X94829985Y-49187901D01*
X94806464Y-49198050D01*
X94637117Y-49251458D01*
X94612032Y-49256640D01*
X94447669Y-49273436D01*
X94428963Y-49275347D01*
X94416154Y-49276000D01*
X89650216Y-49276000D01*
X89638741Y-49275476D01*
X89637823Y-49275392D01*
X89622700Y-49274009D01*
X89474557Y-49260461D01*
X89451987Y-49256298D01*
X89298810Y-49213311D01*
X89277370Y-49205124D01*
X89134523Y-49135062D01*
X89114924Y-49123121D01*
X88987158Y-49028312D01*
X88970050Y-49013014D01*
X88857668Y-48892382D01*
X88850229Y-48883629D01*
X88846406Y-48878691D01*
X87593369Y-47260185D01*
X87567483Y-47194075D01*
X87567000Y-47183051D01*
X87567000Y-47134263D01*
X87567527Y-47123079D01*
X87569201Y-47115591D01*
X87567062Y-47047532D01*
X87567000Y-47043575D01*
X87567000Y-47015644D01*
X87566494Y-47011638D01*
X87565561Y-46999792D01*
X87565254Y-46990000D01*
X87564173Y-46955610D01*
X87558522Y-46936158D01*
X87554514Y-46916806D01*
X87552968Y-46904568D01*
X87552967Y-46904566D01*
X87551974Y-46896703D01*
X87535694Y-46855586D01*
X87531859Y-46844385D01*
X87519518Y-46801906D01*
X87515485Y-46795087D01*
X87515483Y-46795082D01*
X87509207Y-46784471D01*
X87500510Y-46766721D01*
X87493052Y-46747883D01*
X87467071Y-46712123D01*
X87460553Y-46702201D01*
X87442078Y-46670960D01*
X87442074Y-46670955D01*
X87438042Y-46664137D01*
X87423718Y-46649813D01*
X87410876Y-46634778D01*
X87398972Y-46618393D01*
X87364906Y-46590211D01*
X87356127Y-46582222D01*
X86573652Y-45799747D01*
X86566112Y-45791461D01*
X86562000Y-45784982D01*
X86512348Y-45738356D01*
X86509507Y-45735602D01*
X86489770Y-45715865D01*
X86486573Y-45713385D01*
X86477551Y-45705680D01*
X86466140Y-45694964D01*
X86445321Y-45675414D01*
X86438375Y-45671595D01*
X86438372Y-45671593D01*
X86427566Y-45665652D01*
X86411047Y-45654801D01*
X86410583Y-45654441D01*
X86395041Y-45642386D01*
X86387772Y-45639241D01*
X86387768Y-45639238D01*
X86354463Y-45624826D01*
X86343813Y-45619609D01*
X86308006Y-45599925D01*
X86106000Y-45339000D01*
X81026000Y-45339000D01*
X80742823Y-45864899D01*
X80742823Y-45864900D01*
X80741219Y-45867878D01*
X80741214Y-45867887D01*
X80456676Y-46396315D01*
X80242630Y-46793829D01*
X80242628Y-46793833D01*
X80137000Y-46990000D01*
X80124641Y-47212457D01*
X80124641Y-47212459D01*
X80124449Y-47215911D01*
X80124449Y-47215913D01*
X80062805Y-48325512D01*
X80061580Y-48337375D01*
X80050826Y-48408434D01*
X80035964Y-48506635D01*
X80030186Y-48529754D01*
X79975156Y-48685511D01*
X79965130Y-48707126D01*
X79881754Y-48849743D01*
X79867843Y-48869076D01*
X79779147Y-48970523D01*
X79759105Y-48993446D01*
X79741794Y-49009821D01*
X79622990Y-49102587D01*
X79611594Y-49111485D01*
X79591519Y-49124304D01*
X79444490Y-49199644D01*
X79422356Y-49208454D01*
X79263780Y-49254761D01*
X79240376Y-49259247D01*
X79069962Y-49275435D01*
X79058047Y-49276000D01*
X76136232Y-49276000D01*
X76136232Y-49273472D01*
X76133050Y-49274009D01*
X76133091Y-49275298D01*
X76127428Y-49275476D01*
X76112728Y-49275938D01*
X76108770Y-49276000D01*
X75090382Y-49276000D01*
X75078019Y-49275392D01*
X74901252Y-49257963D01*
X74877002Y-49253134D01*
X74713001Y-49203329D01*
X74690163Y-49193858D01*
X74539046Y-49112984D01*
X74518496Y-49099234D01*
X74386081Y-48990401D01*
X74368612Y-48972902D01*
X74256059Y-48835493D01*
X74248695Y-48825543D01*
X73950075Y-48377612D01*
X73944008Y-48367520D01*
X73863790Y-48218746D01*
X73854611Y-48197097D01*
X73805240Y-48041640D01*
X73800246Y-48018659D01*
X73779926Y-47850870D01*
X73779058Y-47839126D01*
X73735418Y-46224462D01*
X73674130Y-43956817D01*
X73674379Y-43944810D01*
X73678516Y-43884441D01*
X73686171Y-43772720D01*
X73690086Y-43749032D01*
X73732762Y-43588141D01*
X73741102Y-43565623D01*
X73813524Y-43415752D01*
X73825984Y-43395226D01*
X73925521Y-43261816D01*
X73941649Y-43244026D01*
X74069158Y-43127848D01*
X74078419Y-43120186D01*
X74406647Y-42874015D01*
X74417762Y-42866567D01*
X74582674Y-42768327D01*
X74606952Y-42757162D01*
X74782495Y-42698060D01*
X74808576Y-42692269D01*
X74897181Y-42682279D01*
X74999326Y-42670763D01*
X75012683Y-42669972D01*
X82961042Y-42622090D01*
X85686349Y-42605673D01*
X106740989Y-42478838D01*
X116039461Y-42422823D01*
X116107701Y-42442415D01*
G37*
%TD.AperFunction*%
%TD*%
%TA.AperFunction,Conductor*%
%TO.N,LSS*%
G36*
X119173329Y-52366501D02*
G01*
X119301100Y-52376362D01*
X119362667Y-52381113D01*
X119388668Y-52385901D01*
X119570803Y-52439705D01*
X119583267Y-52444111D01*
X119662600Y-52476938D01*
X119676950Y-52483973D01*
X119780018Y-52542891D01*
X119805493Y-52562108D01*
X119884675Y-52639388D01*
X119904504Y-52664387D01*
X119961731Y-52759075D01*
X119974646Y-52788255D01*
X120008559Y-52902027D01*
X120012144Y-52917607D01*
X120050929Y-53153841D01*
X120051888Y-53160934D01*
X120062759Y-53263202D01*
X120063461Y-53277487D01*
X120062666Y-53380300D01*
X120062408Y-53387454D01*
X119938505Y-55304299D01*
X119936925Y-55317635D01*
X119904106Y-55507477D01*
X119896753Y-55533262D01*
X119827019Y-55705609D01*
X119814375Y-55729251D01*
X119709752Y-55882918D01*
X119692382Y-55903357D01*
X119557600Y-56031400D01*
X119536299Y-56047699D01*
X119371692Y-56147826D01*
X119359867Y-56154181D01*
X118200000Y-56700000D01*
X118200000Y-66493813D01*
X118199393Y-66506163D01*
X118182978Y-66672831D01*
X118182002Y-66682737D01*
X118177185Y-66706957D01*
X118144040Y-66816225D01*
X118127482Y-66870809D01*
X118118029Y-66893629D01*
X118037319Y-67044628D01*
X118023601Y-67065158D01*
X117914974Y-67197521D01*
X117897521Y-67214974D01*
X117765158Y-67323601D01*
X117744631Y-67337317D01*
X117652417Y-67386607D01*
X117593629Y-67418029D01*
X117570810Y-67427482D01*
X117406957Y-67477185D01*
X117382740Y-67482001D01*
X117206163Y-67499393D01*
X117193813Y-67500000D01*
X113084597Y-67500000D01*
X113073190Y-67499483D01*
X113051528Y-67497514D01*
X112909963Y-67484645D01*
X112887525Y-67480531D01*
X112735183Y-67438047D01*
X112713854Y-67429955D01*
X112566507Y-67358181D01*
X112556483Y-67352723D01*
X112315713Y-67207107D01*
X111682540Y-66824170D01*
X111641298Y-66799227D01*
X111641294Y-66799225D01*
X111638867Y-66797757D01*
X111638862Y-66797755D01*
X111400000Y-66653293D01*
X111117988Y-66653438D01*
X111117984Y-66653438D01*
X101915952Y-66658175D01*
X101847821Y-66638208D01*
X101801300Y-66584576D01*
X101789949Y-66536133D01*
X101788562Y-66492001D01*
X101788500Y-66488043D01*
X101788500Y-66460144D01*
X101787996Y-66456153D01*
X101787063Y-66444311D01*
X101785923Y-66408036D01*
X101785674Y-66400111D01*
X101783462Y-66392497D01*
X101783461Y-66392492D01*
X101780023Y-66380659D01*
X101776012Y-66361295D01*
X101774467Y-66349064D01*
X101773474Y-66341203D01*
X101770557Y-66333836D01*
X101770556Y-66333831D01*
X101757198Y-66300092D01*
X101753354Y-66288865D01*
X101743230Y-66254022D01*
X101741018Y-66246407D01*
X101730707Y-66228972D01*
X101722012Y-66211224D01*
X101714552Y-66192383D01*
X101716262Y-66191706D01*
X101703500Y-66141991D01*
X101703499Y-65826134D01*
X103799500Y-65826134D01*
X103806255Y-65888316D01*
X103857385Y-66024705D01*
X103944739Y-66141261D01*
X104061295Y-66228615D01*
X104197684Y-66279745D01*
X104259866Y-66286500D01*
X105556134Y-66286500D01*
X105618316Y-66279745D01*
X105754705Y-66228615D01*
X105871261Y-66141261D01*
X105958615Y-66024705D01*
X106009745Y-65888316D01*
X106016500Y-65826134D01*
X106016500Y-65694500D01*
X106036502Y-65626379D01*
X106090158Y-65579886D01*
X106142500Y-65568500D01*
X106155487Y-65568500D01*
X106161939Y-65567128D01*
X106161944Y-65567128D01*
X106253164Y-65547738D01*
X106342288Y-65528794D01*
X106348319Y-65526109D01*
X106510722Y-65453803D01*
X106510724Y-65453802D01*
X106516752Y-65451118D01*
X106671253Y-65338866D01*
X106799040Y-65196944D01*
X106857314Y-65096010D01*
X106891223Y-65037279D01*
X106891224Y-65037278D01*
X106894527Y-65031556D01*
X106953542Y-64849928D01*
X106959092Y-64797128D01*
X106972814Y-64666565D01*
X106973504Y-64660000D01*
X106953542Y-64470072D01*
X106894527Y-64288444D01*
X106799040Y-64123056D01*
X106760208Y-64079928D01*
X106675675Y-63986045D01*
X106675674Y-63986044D01*
X106671253Y-63981134D01*
X106545818Y-63890000D01*
X106522094Y-63872763D01*
X106522093Y-63872762D01*
X106516752Y-63868882D01*
X106510724Y-63866198D01*
X106510722Y-63866197D01*
X106348319Y-63793891D01*
X106348318Y-63793891D01*
X106342288Y-63791206D01*
X106248888Y-63771353D01*
X106161944Y-63752872D01*
X106161939Y-63752872D01*
X106155487Y-63751500D01*
X106142500Y-63751500D01*
X106074379Y-63731498D01*
X106027886Y-63677842D01*
X106016500Y-63625500D01*
X106016500Y-63529866D01*
X106009745Y-63467684D01*
X105958615Y-63331295D01*
X105871261Y-63214739D01*
X105754705Y-63127385D01*
X105618316Y-63076255D01*
X105556134Y-63069500D01*
X104259866Y-63069500D01*
X104197684Y-63076255D01*
X104061295Y-63127385D01*
X103944739Y-63214739D01*
X103857385Y-63331295D01*
X103806255Y-63467684D01*
X103799500Y-63529866D01*
X103799500Y-65826134D01*
X101703499Y-65826134D01*
X101703499Y-65811249D01*
X101703499Y-65808366D01*
X101703234Y-65805474D01*
X101698477Y-65753705D01*
X101696753Y-65734938D01*
X101685272Y-65698303D01*
X101647744Y-65578550D01*
X101647743Y-65578548D01*
X101645472Y-65571301D01*
X101556639Y-65424619D01*
X101435381Y-65303361D01*
X101288699Y-65214528D01*
X101281452Y-65212257D01*
X101281450Y-65212256D01*
X101214343Y-65191226D01*
X101125062Y-65163247D01*
X101051635Y-65156500D01*
X101048737Y-65156500D01*
X100794335Y-65156501D01*
X100538366Y-65156501D01*
X100535508Y-65156764D01*
X100535499Y-65156764D01*
X100499996Y-65160026D01*
X100464938Y-65163247D01*
X100458560Y-65165246D01*
X100458559Y-65165246D01*
X100308550Y-65212256D01*
X100308548Y-65212257D01*
X100301301Y-65214528D01*
X100154619Y-65303361D01*
X100033361Y-65424619D01*
X99944528Y-65571301D01*
X99942257Y-65578548D01*
X99942256Y-65578550D01*
X99921483Y-65644836D01*
X99893247Y-65734938D01*
X99886500Y-65808365D01*
X99886501Y-66471634D01*
X99886764Y-66474494D01*
X99886764Y-66474499D01*
X99891106Y-66521754D01*
X99877420Y-66591419D01*
X99828243Y-66642626D01*
X99765701Y-66659282D01*
X99749111Y-66659291D01*
X99719948Y-66659306D01*
X98886687Y-66695367D01*
X98859145Y-66693532D01*
X98748373Y-66673800D01*
X98748367Y-66673799D01*
X98743284Y-66672894D01*
X98669452Y-66671992D01*
X98525081Y-66670228D01*
X98525079Y-66670228D01*
X98519911Y-66670165D01*
X98372627Y-66692703D01*
X98304200Y-66703173D01*
X98304197Y-66703174D01*
X98299091Y-66703955D01*
X98294179Y-66705561D01*
X98294177Y-66705561D01*
X98256128Y-66717997D01*
X98222433Y-66724114D01*
X96721115Y-66789086D01*
X96720014Y-66789128D01*
X96714323Y-66789316D01*
X96701252Y-66789746D01*
X96698669Y-66789804D01*
X96680117Y-66790034D01*
X96678818Y-66790044D01*
X96665401Y-66790072D01*
X96623078Y-66782845D01*
X96428087Y-66713795D01*
X96428083Y-66713794D01*
X96423212Y-66712069D01*
X96418119Y-66711162D01*
X96418116Y-66711161D01*
X96208373Y-66673800D01*
X96208367Y-66673799D01*
X96203284Y-66672894D01*
X96129452Y-66671992D01*
X95985081Y-66670228D01*
X95985079Y-66670228D01*
X95979911Y-66670165D01*
X95759091Y-66703955D01*
X95546756Y-66773357D01*
X95542170Y-66775744D01*
X95542166Y-66775746D01*
X95537280Y-66778289D01*
X95479364Y-66792524D01*
X94459178Y-66794635D01*
X94139293Y-66795297D01*
X94094135Y-66785660D01*
X94093789Y-66786638D01*
X93888087Y-66713795D01*
X93888083Y-66713794D01*
X93883212Y-66712069D01*
X93878119Y-66711162D01*
X93878116Y-66711161D01*
X93668373Y-66673800D01*
X93668367Y-66673799D01*
X93663284Y-66672894D01*
X93589452Y-66671992D01*
X93445081Y-66670228D01*
X93445079Y-66670228D01*
X93439911Y-66670165D01*
X93219091Y-66703955D01*
X93071032Y-66752348D01*
X93011675Y-66771749D01*
X93011673Y-66771750D01*
X93006756Y-66773357D01*
X93002167Y-66775746D01*
X93002165Y-66775747D01*
X92987150Y-66783563D01*
X92929232Y-66797799D01*
X91753534Y-66800231D01*
X91610931Y-66800526D01*
X91559019Y-66789453D01*
X91558312Y-66789135D01*
X91553789Y-66786638D01*
X91548920Y-66784914D01*
X91548916Y-66784912D01*
X91348087Y-66713795D01*
X91348083Y-66713794D01*
X91343212Y-66712069D01*
X91338119Y-66711162D01*
X91338116Y-66711161D01*
X91128373Y-66673800D01*
X91128367Y-66673799D01*
X91123284Y-66672894D01*
X91049452Y-66671992D01*
X90905081Y-66670228D01*
X90905079Y-66670228D01*
X90899911Y-66670165D01*
X90679091Y-66703955D01*
X90466756Y-66773357D01*
X90444561Y-66784911D01*
X90437019Y-66788837D01*
X90379101Y-66803073D01*
X89081153Y-66805758D01*
X89023194Y-66790885D01*
X89023028Y-66791255D01*
X89020889Y-66790294D01*
X89019996Y-66790065D01*
X89013789Y-66786638D01*
X89008920Y-66784914D01*
X89008916Y-66784912D01*
X88808087Y-66713795D01*
X88808083Y-66713794D01*
X88803212Y-66712069D01*
X88798119Y-66711162D01*
X88798116Y-66711161D01*
X88588373Y-66673800D01*
X88588367Y-66673799D01*
X88583284Y-66672894D01*
X88509452Y-66671992D01*
X88365081Y-66670228D01*
X88365079Y-66670228D01*
X88359911Y-66670165D01*
X88139091Y-66703955D01*
X87926756Y-66773357D01*
X87897019Y-66788837D01*
X87886888Y-66794111D01*
X87828970Y-66808347D01*
X86758077Y-66810563D01*
X86550633Y-66810992D01*
X86489481Y-66795300D01*
X86473789Y-66786638D01*
X86312111Y-66729385D01*
X86268087Y-66713795D01*
X86268083Y-66713794D01*
X86263212Y-66712069D01*
X86258119Y-66711162D01*
X86258116Y-66711161D01*
X86048373Y-66673800D01*
X86048367Y-66673799D01*
X86043284Y-66672894D01*
X85969452Y-66671992D01*
X85825081Y-66670228D01*
X85825079Y-66670228D01*
X85819911Y-66670165D01*
X85599091Y-66703955D01*
X85386756Y-66773357D01*
X85382176Y-66775741D01*
X85382167Y-66775745D01*
X85336754Y-66799385D01*
X85278836Y-66813621D01*
X84020115Y-66816225D01*
X83958961Y-66800533D01*
X83933789Y-66786638D01*
X83928920Y-66784914D01*
X83928916Y-66784912D01*
X83728087Y-66713795D01*
X83728083Y-66713794D01*
X83723212Y-66712069D01*
X83718119Y-66711162D01*
X83718116Y-66711161D01*
X83508373Y-66673800D01*
X83508367Y-66673799D01*
X83503284Y-66672894D01*
X83429452Y-66671992D01*
X83285081Y-66670228D01*
X83285079Y-66670228D01*
X83279911Y-66670165D01*
X83059091Y-66703955D01*
X82846756Y-66773357D01*
X82824561Y-66784911D01*
X82786625Y-66804659D01*
X82728707Y-66818895D01*
X81638735Y-66821150D01*
X81489595Y-66821459D01*
X81428442Y-66805768D01*
X81393789Y-66786638D01*
X81388920Y-66784914D01*
X81388916Y-66784912D01*
X81188087Y-66713795D01*
X81188083Y-66713794D01*
X81183212Y-66712069D01*
X81178119Y-66711162D01*
X81178116Y-66711161D01*
X80968373Y-66673800D01*
X80968367Y-66673799D01*
X80963284Y-66672894D01*
X80889452Y-66671992D01*
X80745081Y-66670228D01*
X80745079Y-66670228D01*
X80739911Y-66670165D01*
X80519091Y-66703955D01*
X80371032Y-66752348D01*
X80311675Y-66771749D01*
X80311673Y-66771750D01*
X80306756Y-66773357D01*
X80302161Y-66775749D01*
X80236493Y-66809933D01*
X80178574Y-66824170D01*
X79843964Y-66824862D01*
X78959077Y-66826692D01*
X78897924Y-66811001D01*
X78858323Y-66789140D01*
X78858312Y-66789135D01*
X78853789Y-66786638D01*
X78848920Y-66784914D01*
X78848916Y-66784912D01*
X78648087Y-66713795D01*
X78648083Y-66713794D01*
X78643212Y-66712069D01*
X78638119Y-66711162D01*
X78638116Y-66711161D01*
X78428373Y-66673800D01*
X78428367Y-66673799D01*
X78423284Y-66672894D01*
X78349452Y-66671992D01*
X78205081Y-66670228D01*
X78205079Y-66670228D01*
X78199911Y-66670165D01*
X77979091Y-66703955D01*
X77766756Y-66773357D01*
X77762176Y-66775741D01*
X77762167Y-66775745D01*
X77723311Y-66795972D01*
X77651536Y-66809472D01*
X77626900Y-66806798D01*
X77599847Y-66800797D01*
X77418072Y-66738842D01*
X77392987Y-66727073D01*
X77229147Y-66626882D01*
X77207239Y-66609913D01*
X77064246Y-66471474D01*
X77054823Y-66461288D01*
X76972061Y-66361295D01*
X76325730Y-65580404D01*
X76318634Y-65570963D01*
X76307860Y-65555134D01*
X88814500Y-65555134D01*
X88821255Y-65617316D01*
X88872385Y-65753705D01*
X88959739Y-65870261D01*
X89076295Y-65957615D01*
X89212684Y-66008745D01*
X89274866Y-66015500D01*
X90571134Y-66015500D01*
X90633316Y-66008745D01*
X90769705Y-65957615D01*
X90886261Y-65870261D01*
X90973615Y-65753705D01*
X91024745Y-65617316D01*
X91031500Y-65555134D01*
X91031500Y-65044642D01*
X91051502Y-64976521D01*
X91083442Y-64942704D01*
X91086389Y-64940563D01*
X91096307Y-64934048D01*
X91127535Y-64915580D01*
X91127538Y-64915578D01*
X91134362Y-64911542D01*
X91148683Y-64897221D01*
X91163717Y-64884380D01*
X91173694Y-64877131D01*
X91180107Y-64872472D01*
X91185157Y-64866368D01*
X91185163Y-64866362D01*
X91203510Y-64844184D01*
X91262343Y-64804446D01*
X91300594Y-64798500D01*
X91355487Y-64798500D01*
X91361939Y-64797128D01*
X91361944Y-64797128D01*
X91448887Y-64778647D01*
X91542288Y-64758794D01*
X91548319Y-64756109D01*
X91710722Y-64683803D01*
X91710724Y-64683802D01*
X91716752Y-64681118D01*
X91736783Y-64666565D01*
X91772157Y-64640864D01*
X91871253Y-64568866D01*
X91954298Y-64476635D01*
X91994621Y-64431852D01*
X91994622Y-64431851D01*
X91999040Y-64426944D01*
X92094527Y-64261556D01*
X92153542Y-64079928D01*
X92155924Y-64057271D01*
X92172814Y-63896565D01*
X92173504Y-63890000D01*
X92163403Y-63793891D01*
X92154232Y-63706635D01*
X92154232Y-63706633D01*
X92153542Y-63700072D01*
X92094527Y-63518444D01*
X91999040Y-63353056D01*
X91979447Y-63331295D01*
X91875675Y-63216045D01*
X91875674Y-63216044D01*
X91871253Y-63211134D01*
X91716752Y-63098882D01*
X91710724Y-63096198D01*
X91710722Y-63096197D01*
X91548319Y-63023891D01*
X91548318Y-63023891D01*
X91542288Y-63021206D01*
X91448887Y-63001353D01*
X91361944Y-62982872D01*
X91361939Y-62982872D01*
X91355487Y-62981500D01*
X91164513Y-62981500D01*
X91158061Y-62982872D01*
X91158056Y-62982872D01*
X91027651Y-63010591D01*
X90956860Y-63005189D01*
X90900629Y-62962911D01*
X90886261Y-62943739D01*
X90769705Y-62856385D01*
X90633316Y-62805255D01*
X90571134Y-62798500D01*
X89274866Y-62798500D01*
X89212684Y-62805255D01*
X89076295Y-62856385D01*
X88959739Y-62943739D01*
X88872385Y-63060295D01*
X88821255Y-63196684D01*
X88814500Y-63258866D01*
X88814500Y-65555134D01*
X76307860Y-65555134D01*
X76223257Y-65430839D01*
X76211865Y-65410176D01*
X76146654Y-65260175D01*
X76139315Y-65237751D01*
X76103213Y-65078220D01*
X76100182Y-65054819D01*
X76094249Y-64885424D01*
X76094389Y-64873615D01*
X76168183Y-63619115D01*
X76169411Y-63607488D01*
X76194748Y-63441619D01*
X76200400Y-63418955D01*
X76253977Y-63266150D01*
X76263716Y-63244918D01*
X76344578Y-63104628D01*
X76358068Y-63085560D01*
X76446069Y-62982872D01*
X76463432Y-62962611D01*
X76480209Y-62946361D01*
X76611048Y-62841288D01*
X76620493Y-62834398D01*
X77240977Y-62424505D01*
X77251245Y-62418401D01*
X77345481Y-62368264D01*
X77404663Y-62353500D01*
X81139521Y-62353500D01*
X81207084Y-62373338D01*
X81207298Y-62373552D01*
X81210331Y-62375422D01*
X81210333Y-62375423D01*
X81309764Y-62436713D01*
X81352899Y-62463302D01*
X81515243Y-62517149D01*
X81522080Y-62517849D01*
X81522082Y-62517850D01*
X81563401Y-62522083D01*
X81616268Y-62527500D01*
X82213732Y-62527500D01*
X82216978Y-62527163D01*
X82216982Y-62527163D01*
X82251083Y-62523625D01*
X82316019Y-62516887D01*
X82469726Y-62465606D01*
X82471324Y-62465073D01*
X82471326Y-62465072D01*
X82478268Y-62462756D01*
X82530418Y-62430485D01*
X82617485Y-62376606D01*
X82623713Y-62372752D01*
X82744552Y-62251702D01*
X82751200Y-62240917D01*
X82803973Y-62193427D01*
X82856604Y-62181052D01*
X85949037Y-62135559D01*
X88242350Y-62101822D01*
X96045923Y-61987023D01*
X96114330Y-62006021D01*
X96161607Y-62058986D01*
X96173103Y-62100007D01*
X96175401Y-62122162D01*
X96175402Y-62122167D01*
X96176113Y-62129019D01*
X96178295Y-62135559D01*
X96227537Y-62283153D01*
X96230244Y-62291268D01*
X96234096Y-62297492D01*
X96234096Y-62297493D01*
X96280668Y-62372752D01*
X96320248Y-62436713D01*
X96441298Y-62557552D01*
X96586899Y-62647302D01*
X96749243Y-62701149D01*
X96756080Y-62701849D01*
X96756082Y-62701850D01*
X96797401Y-62706083D01*
X96850268Y-62711500D01*
X97447732Y-62711500D01*
X97450978Y-62711163D01*
X97450982Y-62711163D01*
X97485083Y-62707625D01*
X97550019Y-62700887D01*
X97703726Y-62649606D01*
X97705324Y-62649073D01*
X97705326Y-62649072D01*
X97712268Y-62646756D01*
X97857713Y-62556752D01*
X97978552Y-62435702D01*
X97989217Y-62418401D01*
X98064462Y-62296331D01*
X98064463Y-62296329D01*
X98068302Y-62290101D01*
X98122149Y-62127757D01*
X98128301Y-62067715D01*
X98155143Y-62001988D01*
X98213258Y-61961206D01*
X98251790Y-61954572D01*
X103808560Y-61872826D01*
X103876966Y-61891824D01*
X103911236Y-61923244D01*
X103924739Y-61941261D01*
X104041295Y-62028615D01*
X104177684Y-62079745D01*
X104239866Y-62086500D01*
X110136134Y-62086500D01*
X110198316Y-62079745D01*
X110334705Y-62028615D01*
X110451261Y-61941261D01*
X110538615Y-61824705D01*
X110541193Y-61826637D01*
X110580242Y-61787678D01*
X110638646Y-61772348D01*
X112280164Y-61748200D01*
X112272649Y-57337570D01*
X112268423Y-54857768D01*
X112269273Y-54842942D01*
X112293966Y-54631435D01*
X112300845Y-54602595D01*
X112374280Y-54402712D01*
X112380214Y-54389098D01*
X112521085Y-54111783D01*
X112948695Y-53270000D01*
X113074095Y-53023142D01*
X113080927Y-53011324D01*
X113142119Y-52917607D01*
X113188023Y-52847305D01*
X113205316Y-52826219D01*
X113340283Y-52693900D01*
X113361708Y-52677028D01*
X113403958Y-52650620D01*
X113521983Y-52576851D01*
X113546531Y-52564986D01*
X113724611Y-52501639D01*
X113751144Y-52495334D01*
X113766118Y-52493454D01*
X113945503Y-52470931D01*
X113959107Y-52469968D01*
X114209360Y-52465846D01*
X117594194Y-52410096D01*
X117594318Y-52410094D01*
X117600000Y-52410000D01*
X117605793Y-52409837D01*
X117605804Y-52409837D01*
X119160098Y-52366177D01*
X119173329Y-52366501D01*
G37*
%TD.AperFunction*%
%TD*%
%TA.AperFunction,Conductor*%
%TO.N,HBS*%
G36*
X94447076Y-51307820D02*
G01*
X94488155Y-51312456D01*
X94583219Y-51323184D01*
X94611094Y-51329598D01*
X94733464Y-51372872D01*
X94759174Y-51385409D01*
X94868622Y-51455167D01*
X94890843Y-51473180D01*
X94981737Y-51565829D01*
X94999323Y-51588392D01*
X95066974Y-51699154D01*
X95079017Y-51725102D01*
X95119940Y-51848267D01*
X95125820Y-51876263D01*
X95138579Y-52012680D01*
X95139101Y-52026995D01*
X95138312Y-52065464D01*
X94961612Y-60681382D01*
X94960143Y-60698150D01*
X94950875Y-60757779D01*
X94944947Y-60795914D01*
X94935411Y-60828119D01*
X94904091Y-60897955D01*
X94898405Y-60910634D01*
X94880696Y-60939178D01*
X94823209Y-61008976D01*
X94798590Y-61031825D01*
X94724700Y-61083959D01*
X94694916Y-61099494D01*
X94601876Y-61133146D01*
X94585700Y-61137801D01*
X94508890Y-61154443D01*
X94361562Y-61186362D01*
X94353777Y-61187794D01*
X94241151Y-61204863D01*
X94225372Y-61206246D01*
X94111482Y-61209038D01*
X94103572Y-61208983D01*
X92206388Y-61136015D01*
X89243497Y-61022058D01*
X87389729Y-60950759D01*
X87388582Y-60950709D01*
X87381432Y-60950365D01*
X87371221Y-60949873D01*
X87368829Y-60949735D01*
X87351346Y-60948556D01*
X87350141Y-60948469D01*
X86694753Y-60897955D01*
X86601870Y-60890796D01*
X85956224Y-60841033D01*
X85916354Y-60837960D01*
X85916350Y-60837960D01*
X85852000Y-60833000D01*
X85788564Y-60836172D01*
X85788553Y-60836172D01*
X85787584Y-60836220D01*
X85787568Y-60836221D01*
X84748582Y-60888171D01*
X84365703Y-60907315D01*
X84352980Y-60907307D01*
X84249429Y-60902002D01*
X84170439Y-60897955D01*
X84145290Y-60894094D01*
X83974560Y-60849868D01*
X83950698Y-60841033D01*
X83940745Y-60836154D01*
X83792334Y-60763407D01*
X83770734Y-60749958D01*
X83631195Y-60642098D01*
X83612738Y-60624584D01*
X83497714Y-60490888D01*
X83483152Y-60470023D01*
X83397335Y-60315948D01*
X83387261Y-60292582D01*
X83334147Y-60124399D01*
X83328974Y-60099486D01*
X83310071Y-59917700D01*
X83309395Y-59904979D01*
X83306829Y-58865577D01*
X83326663Y-58797407D01*
X83343734Y-58776171D01*
X85293753Y-56826152D01*
X85302039Y-56818612D01*
X85308518Y-56814500D01*
X85355144Y-56764848D01*
X85357898Y-56762007D01*
X85377635Y-56742270D01*
X85380115Y-56739073D01*
X85387820Y-56730051D01*
X85412659Y-56703600D01*
X85418086Y-56697821D01*
X85421905Y-56690875D01*
X85421907Y-56690872D01*
X85427848Y-56680066D01*
X85438699Y-56663547D01*
X85439059Y-56663083D01*
X85451114Y-56647541D01*
X85454259Y-56640272D01*
X85454262Y-56640268D01*
X85468674Y-56606963D01*
X85473891Y-56596313D01*
X85495195Y-56557560D01*
X85500233Y-56537937D01*
X85506637Y-56519234D01*
X85511533Y-56507920D01*
X85511533Y-56507919D01*
X85514681Y-56500645D01*
X85515920Y-56492822D01*
X85515923Y-56492812D01*
X85521599Y-56456976D01*
X85524005Y-56445356D01*
X85533028Y-56410211D01*
X85533028Y-56410210D01*
X85535000Y-56402530D01*
X85535000Y-56382276D01*
X85536551Y-56362565D01*
X85538480Y-56350386D01*
X85539720Y-56342557D01*
X85535559Y-56298538D01*
X85535000Y-56286681D01*
X85535000Y-56132751D01*
X85555002Y-56064630D01*
X85602242Y-56023697D01*
X86106000Y-56007000D01*
X86843012Y-54532977D01*
X86848668Y-54522860D01*
X86936695Y-54381169D01*
X86950709Y-54362665D01*
X87059288Y-54243855D01*
X87076463Y-54228233D01*
X87204991Y-54131367D01*
X87224740Y-54119161D01*
X87368866Y-54047518D01*
X87390521Y-54039143D01*
X87545341Y-53995162D01*
X87568164Y-53990902D01*
X87734241Y-53975536D01*
X87745849Y-53975000D01*
X88928090Y-53975000D01*
X88996211Y-53995002D01*
X89003650Y-54000171D01*
X89076295Y-54054615D01*
X89212684Y-54105745D01*
X89274866Y-54112500D01*
X90571134Y-54112500D01*
X90633316Y-54105745D01*
X90769705Y-54054615D01*
X90886261Y-53967261D01*
X90964579Y-53862762D01*
X91186000Y-53848000D01*
X91630187Y-52071250D01*
X91633624Y-52059832D01*
X91690659Y-51898435D01*
X91700687Y-51876820D01*
X91784061Y-51734223D01*
X91797979Y-51714882D01*
X91837219Y-51670004D01*
X91906714Y-51590526D01*
X91924017Y-51574159D01*
X92054222Y-51472498D01*
X92074307Y-51459675D01*
X92221316Y-51384351D01*
X92243454Y-51375539D01*
X92402018Y-51329237D01*
X92425422Y-51324751D01*
X92595828Y-51308565D01*
X92607742Y-51308000D01*
X93726000Y-51308000D01*
X93905444Y-51307752D01*
X94432772Y-51307025D01*
X94447076Y-51307820D01*
G37*
%TD.AperFunction*%
%TD*%
%TA.AperFunction,Conductor*%
%TO.N,HAS*%
G36*
X79284275Y-50826158D02*
G01*
X79297281Y-50826944D01*
X79385394Y-50836861D01*
X79483058Y-50847854D01*
X79508475Y-50853418D01*
X79580292Y-50877138D01*
X79679770Y-50909995D01*
X79703507Y-50920666D01*
X79859522Y-51011227D01*
X79880562Y-51026548D01*
X80019512Y-51151615D01*
X80028733Y-51160821D01*
X80129303Y-51272193D01*
X80136652Y-51281123D01*
X80236125Y-51413987D01*
X80248217Y-51433672D01*
X80319183Y-51577250D01*
X80327478Y-51598813D01*
X80371035Y-51752938D01*
X80375253Y-51775653D01*
X80390469Y-51940920D01*
X80391000Y-51952472D01*
X80391000Y-53248192D01*
X80390312Y-53261342D01*
X80370596Y-53449229D01*
X80365137Y-53474951D01*
X80320834Y-53611531D01*
X80306846Y-53654654D01*
X80302137Y-53666940D01*
X79883000Y-54610000D01*
X79885579Y-54828378D01*
X79885619Y-54831768D01*
X79885619Y-54831769D01*
X79897766Y-55860312D01*
X79944269Y-59797924D01*
X79948120Y-60124050D01*
X79947659Y-60136403D01*
X79946507Y-60149710D01*
X79932357Y-60313155D01*
X79927826Y-60337432D01*
X79880074Y-60501835D01*
X79870896Y-60524759D01*
X79791988Y-60676694D01*
X79778511Y-60697391D01*
X79671484Y-60831009D01*
X79654230Y-60848678D01*
X79574523Y-60915697D01*
X79523195Y-60958853D01*
X79502827Y-60972816D01*
X79352815Y-61055313D01*
X79330112Y-61065036D01*
X79280835Y-61080629D01*
X79242822Y-61086500D01*
X76788767Y-61086500D01*
X76777584Y-61085973D01*
X76770091Y-61084298D01*
X76762165Y-61084547D01*
X76762164Y-61084547D01*
X76702001Y-61086438D01*
X76698043Y-61086500D01*
X76670144Y-61086500D01*
X76666154Y-61087004D01*
X76654320Y-61087936D01*
X76610111Y-61089326D01*
X76602497Y-61091538D01*
X76602492Y-61091539D01*
X76590659Y-61094977D01*
X76571296Y-61098988D01*
X76551203Y-61101526D01*
X76543836Y-61104443D01*
X76543831Y-61104444D01*
X76510092Y-61117802D01*
X76498865Y-61121646D01*
X76456407Y-61133982D01*
X76449581Y-61138019D01*
X76438972Y-61144293D01*
X76421224Y-61152988D01*
X76402383Y-61160448D01*
X76395967Y-61165110D01*
X76395966Y-61165110D01*
X76366613Y-61186436D01*
X76356693Y-61192952D01*
X76325465Y-61211420D01*
X76325462Y-61211422D01*
X76318638Y-61215458D01*
X76304317Y-61229779D01*
X76289284Y-61242619D01*
X76272893Y-61254528D01*
X76244702Y-61288605D01*
X76236712Y-61297384D01*
X74924500Y-62609595D01*
X74862188Y-62643621D01*
X74835405Y-62646500D01*
X74146866Y-62646500D01*
X74084684Y-62653255D01*
X74008815Y-62681697D01*
X73938009Y-62686880D01*
X73875491Y-62652810D01*
X73593770Y-62371089D01*
X73581384Y-62356677D01*
X73572851Y-62345082D01*
X73572846Y-62345077D01*
X73568508Y-62339182D01*
X73562930Y-62334443D01*
X73562927Y-62334440D01*
X73528232Y-62304965D01*
X73520716Y-62298035D01*
X73515021Y-62292340D01*
X73508880Y-62287482D01*
X73492749Y-62274719D01*
X73489345Y-62271928D01*
X73439297Y-62229409D01*
X73439295Y-62229408D01*
X73433715Y-62224667D01*
X73427199Y-62221339D01*
X73422150Y-62217972D01*
X73417021Y-62214805D01*
X73411284Y-62210266D01*
X73345125Y-62179345D01*
X73341225Y-62177439D01*
X73276192Y-62144231D01*
X73269084Y-62142492D01*
X73263441Y-62140393D01*
X73257678Y-62138476D01*
X73251050Y-62135378D01*
X73179583Y-62120513D01*
X73175299Y-62119543D01*
X73164163Y-62116818D01*
X73104390Y-62102192D01*
X73098788Y-62101844D01*
X73098785Y-62101844D01*
X73093236Y-62101500D01*
X73093238Y-62101464D01*
X73089245Y-62101225D01*
X73085053Y-62100851D01*
X73077885Y-62099360D01*
X73011675Y-62101151D01*
X73000479Y-62101454D01*
X72997072Y-62101500D01*
X71976161Y-62101500D01*
X71908040Y-62081498D01*
X71895224Y-62072066D01*
X70689494Y-61061292D01*
X69792422Y-60309269D01*
X69753068Y-60250178D01*
X69751908Y-60179191D01*
X69764249Y-60149710D01*
X69855397Y-59991838D01*
X69855398Y-59991837D01*
X69858701Y-59986115D01*
X69917716Y-59804487D01*
X69925103Y-59734209D01*
X69936988Y-59621124D01*
X69937678Y-59614559D01*
X69917716Y-59424631D01*
X69858701Y-59243003D01*
X69763214Y-59077615D01*
X69635427Y-58935693D01*
X69583696Y-58898108D01*
X69540342Y-58841885D01*
X69533490Y-58775348D01*
X69591882Y-58426892D01*
X69622867Y-58363014D01*
X69664899Y-58332610D01*
X69758417Y-58290973D01*
X69912918Y-58178721D01*
X70040705Y-58036799D01*
X70136192Y-57871411D01*
X70195207Y-57689783D01*
X70212912Y-57521330D01*
X70239925Y-57455673D01*
X70298147Y-57415043D01*
X70338222Y-57408500D01*
X70395487Y-57408500D01*
X70401939Y-57407128D01*
X70401944Y-57407128D01*
X70488888Y-57388647D01*
X70582288Y-57368794D01*
X70588319Y-57366109D01*
X70750722Y-57293803D01*
X70750724Y-57293802D01*
X70756752Y-57291118D01*
X70911253Y-57178866D01*
X71039040Y-57036944D01*
X71134527Y-56871556D01*
X71193542Y-56689928D01*
X71200929Y-56619650D01*
X71212814Y-56506565D01*
X71213504Y-56500000D01*
X71193542Y-56310072D01*
X71134527Y-56128444D01*
X71088791Y-56049227D01*
X71072053Y-55980232D01*
X71095273Y-55913140D01*
X71151080Y-55869253D01*
X71202526Y-55860312D01*
X71236672Y-55861564D01*
X71236677Y-55861564D01*
X71241837Y-55861753D01*
X71246957Y-55861097D01*
X71246959Y-55861097D01*
X71458288Y-55834025D01*
X71458289Y-55834025D01*
X71463416Y-55833368D01*
X71504194Y-55821134D01*
X71672429Y-55770661D01*
X71672434Y-55770659D01*
X71677384Y-55769174D01*
X71877994Y-55670896D01*
X72059860Y-55541173D01*
X72218096Y-55383489D01*
X72348453Y-55202077D01*
X72447430Y-55001811D01*
X72512370Y-54788069D01*
X72541529Y-54566590D01*
X72543156Y-54500000D01*
X72524852Y-54277361D01*
X72489882Y-54138140D01*
X72492686Y-54067198D01*
X72533399Y-54009035D01*
X72599094Y-53982116D01*
X72668914Y-53994987D01*
X72680038Y-54001338D01*
X72687099Y-54005860D01*
X72700001Y-54015329D01*
X73100000Y-54350000D01*
X73461306Y-54351185D01*
X73461309Y-54351185D01*
X73464950Y-54351197D01*
X73464951Y-54351197D01*
X74317224Y-54353991D01*
X74930000Y-54356000D01*
X75518285Y-54061857D01*
X75519316Y-54061745D01*
X75655705Y-54010615D01*
X75772261Y-53923261D01*
X75859615Y-53806705D01*
X75910745Y-53670316D01*
X75917500Y-53608134D01*
X75917500Y-52632431D01*
X75919214Y-52611717D01*
X76047508Y-51841954D01*
X76049399Y-51832745D01*
X76081453Y-51701631D01*
X76087262Y-51683765D01*
X76138472Y-51558837D01*
X76142335Y-51550331D01*
X76260026Y-51314948D01*
X76267803Y-51301529D01*
X76290290Y-51267712D01*
X76362822Y-51158634D01*
X76383002Y-51135155D01*
X76504208Y-51025008D01*
X76529505Y-51007159D01*
X76673909Y-50929895D01*
X76702794Y-50918754D01*
X76869279Y-50877138D01*
X76884529Y-50874310D01*
X77343168Y-50818180D01*
X77347249Y-50817748D01*
X77406021Y-50812493D01*
X77414221Y-50812028D01*
X77473253Y-50810612D01*
X77477360Y-50810581D01*
X79284275Y-50826158D01*
G37*
%TD.AperFunction*%
%TD*%
%TA.AperFunction,Conductor*%
%TO.N,HCS*%
G36*
X109374953Y-51181607D02*
G01*
X109525622Y-51196446D01*
X109549843Y-51201263D01*
X109688788Y-51243411D01*
X109711598Y-51252860D01*
X109839644Y-51321302D01*
X109860179Y-51335024D01*
X109972407Y-51427128D01*
X109989872Y-51444593D01*
X110081976Y-51556821D01*
X110095698Y-51577356D01*
X110164140Y-51705402D01*
X110173590Y-51728216D01*
X110215736Y-51867154D01*
X110220554Y-51891380D01*
X110235393Y-52042047D01*
X110236000Y-52054397D01*
X110236000Y-60014682D01*
X110235061Y-60030035D01*
X110214275Y-60199354D01*
X110206849Y-60229146D01*
X110148506Y-60381169D01*
X110134093Y-60408282D01*
X110040714Y-60541675D01*
X110020172Y-60564496D01*
X109897299Y-60671345D01*
X109871850Y-60688518D01*
X109719858Y-60766004D01*
X109705769Y-60772134D01*
X109360962Y-60897728D01*
X109350479Y-60901036D01*
X109197970Y-60941930D01*
X109176326Y-60945749D01*
X109019031Y-60959520D01*
X109008042Y-60960000D01*
X101194138Y-60960000D01*
X101187922Y-60959847D01*
X101098690Y-60955440D01*
X101086329Y-60954215D01*
X100997966Y-60941038D01*
X100991871Y-60939974D01*
X100464080Y-60834416D01*
X100450132Y-60830786D01*
X100299068Y-60782088D01*
X100272866Y-60770188D01*
X100143028Y-60692228D01*
X100120208Y-60674693D01*
X100011441Y-60569300D01*
X99993196Y-60547044D01*
X99911185Y-60419727D01*
X99898465Y-60393912D01*
X99847480Y-60251300D01*
X99840950Y-60223272D01*
X99822824Y-60065592D01*
X99822000Y-60051203D01*
X99822000Y-57310382D01*
X99822608Y-57298019D01*
X99840037Y-57121252D01*
X99844866Y-57097002D01*
X99894671Y-56933001D01*
X99904143Y-56910160D01*
X99985016Y-56759047D01*
X99998766Y-56738496D01*
X100107599Y-56606081D01*
X100125098Y-56588612D01*
X100262507Y-56476059D01*
X100272448Y-56468702D01*
X101164039Y-55874308D01*
X101164047Y-55874302D01*
X101346000Y-55753000D01*
X101461891Y-55567574D01*
X101461897Y-55567566D01*
X101849667Y-54947133D01*
X101858268Y-54935024D01*
X101991608Y-54768964D01*
X102012765Y-54748188D01*
X102181224Y-54617887D01*
X102193487Y-54609508D01*
X102373623Y-54501426D01*
X102383605Y-54496033D01*
X102530202Y-54425156D01*
X102551413Y-54417165D01*
X102627132Y-54396192D01*
X102702854Y-54375218D01*
X102725151Y-54371157D01*
X102887326Y-54356511D01*
X102898659Y-54356000D01*
X106299000Y-54356000D01*
X106469025Y-53562549D01*
X106469030Y-53562531D01*
X106570548Y-53088775D01*
X106648644Y-52724329D01*
X106650856Y-52715561D01*
X106687284Y-52590371D01*
X106693591Y-52573368D01*
X106747614Y-52454723D01*
X106751663Y-52446617D01*
X107154505Y-51708075D01*
X107161589Y-51696598D01*
X107271924Y-51537547D01*
X107289564Y-51517174D01*
X107426223Y-51389858D01*
X107447785Y-51373707D01*
X107608401Y-51278361D01*
X107632908Y-51267164D01*
X107810124Y-51208153D01*
X107836456Y-51202423D01*
X108028911Y-51181723D01*
X108042385Y-51181000D01*
X109362603Y-51181000D01*
X109374953Y-51181607D01*
G37*
%TD.AperFunction*%
%TD*%
%TA.AperFunction,Conductor*%
%TO.N,GND*%
G36*
X122970242Y-50524460D02*
G01*
X123009736Y-50527871D01*
X123148475Y-50539855D01*
X123172946Y-50544438D01*
X123338645Y-50592828D01*
X123361743Y-50602137D01*
X123520244Y-50685078D01*
X123530990Y-50691398D01*
X123598311Y-50735609D01*
X123611080Y-50745206D01*
X123731353Y-50848155D01*
X123752760Y-50871790D01*
X123838722Y-50995021D01*
X123853509Y-51023270D01*
X123905784Y-51164131D01*
X123913006Y-51195188D01*
X123929065Y-51352688D01*
X123929675Y-51368650D01*
X123785095Y-57090947D01*
X123415082Y-71735620D01*
X123414120Y-71748297D01*
X123391159Y-71929263D01*
X123385440Y-71954004D01*
X123326664Y-72126678D01*
X123321969Y-72138485D01*
X123052959Y-72726553D01*
X123031813Y-72772781D01*
X122706239Y-73484500D01*
X122701152Y-73494429D01*
X122621751Y-73633830D01*
X122609027Y-73652173D01*
X122509865Y-73771053D01*
X122494098Y-73786865D01*
X122375513Y-73886370D01*
X122357203Y-73899152D01*
X122218039Y-73978957D01*
X122208112Y-73984078D01*
X121590869Y-74268617D01*
X120786655Y-74639345D01*
X120774551Y-74644182D01*
X120597522Y-74704513D01*
X120572142Y-74710321D01*
X120494683Y-74719774D01*
X120386499Y-74732976D01*
X120373496Y-74733884D01*
X118767889Y-74762688D01*
X102848318Y-75048276D01*
X102834270Y-75047742D01*
X102722506Y-75037226D01*
X102633303Y-75028833D01*
X102605794Y-75023097D01*
X102420764Y-74962332D01*
X102395209Y-74950641D01*
X102228242Y-74850373D01*
X102205913Y-74833308D01*
X102077627Y-74710321D01*
X102060209Y-74693623D01*
X102050612Y-74683334D01*
X100492280Y-72813335D01*
X100490163Y-72810725D01*
X100460221Y-72772781D01*
X100456197Y-72767392D01*
X100428335Y-72727922D01*
X100426434Y-72725150D01*
X100333443Y-72585664D01*
X100327090Y-72575038D01*
X100266257Y-72460907D01*
X100256821Y-72438043D01*
X100221259Y-72320200D01*
X100216472Y-72295936D01*
X100204014Y-72167219D01*
X100203428Y-72154851D01*
X100203458Y-72138492D01*
X100203817Y-71941921D01*
X100208480Y-69383757D01*
X100208688Y-69269876D01*
X100228814Y-69201792D01*
X100282555Y-69155397D01*
X100352847Y-69145421D01*
X100398258Y-69161318D01*
X100566000Y-69259338D01*
X100774692Y-69339030D01*
X100779760Y-69340061D01*
X100779763Y-69340062D01*
X100887017Y-69361883D01*
X100993597Y-69383567D01*
X100998772Y-69383757D01*
X100998774Y-69383757D01*
X101211673Y-69391564D01*
X101211677Y-69391564D01*
X101216837Y-69391753D01*
X101221957Y-69391097D01*
X101221959Y-69391097D01*
X101433288Y-69364025D01*
X101433289Y-69364025D01*
X101438416Y-69363368D01*
X101443366Y-69361883D01*
X101647429Y-69300661D01*
X101647434Y-69300659D01*
X101652384Y-69299174D01*
X101852994Y-69200896D01*
X102034860Y-69071173D01*
X102193096Y-68913489D01*
X102323453Y-68732077D01*
X102422430Y-68531811D01*
X102487370Y-68318069D01*
X102516529Y-68096590D01*
X102518156Y-68030000D01*
X102499852Y-67807361D01*
X102445431Y-67590702D01*
X102356354Y-67385840D01*
X102357873Y-67385180D01*
X102344821Y-67322898D01*
X102370139Y-67256569D01*
X102427298Y-67214458D01*
X102470012Y-67206847D01*
X106389790Y-67193975D01*
X106918590Y-67192238D01*
X106931306Y-67192839D01*
X107029468Y-67202469D01*
X107107698Y-67210144D01*
X107132625Y-67215168D01*
X107295829Y-67265646D01*
X107319238Y-67275571D01*
X107468983Y-67357791D01*
X107489918Y-67372212D01*
X107620108Y-67482826D01*
X107637725Y-67501160D01*
X107743048Y-67635655D01*
X107756625Y-67657153D01*
X107838500Y-67821500D01*
X108077000Y-68453000D01*
X108752024Y-68449664D01*
X108752028Y-68449664D01*
X111291427Y-68437112D01*
X115117426Y-68418202D01*
X118800000Y-68400000D01*
X118849754Y-67275572D01*
X119269321Y-57793339D01*
X119270513Y-57780750D01*
X119296663Y-57601196D01*
X119302790Y-57576696D01*
X119362072Y-57411958D01*
X119372962Y-57389170D01*
X119463912Y-57239562D01*
X119479131Y-57219402D01*
X119598091Y-57090947D01*
X119617024Y-57074228D01*
X119759223Y-56972074D01*
X119781104Y-56959472D01*
X119946628Y-56885126D01*
X119958397Y-56880535D01*
X120081255Y-56839582D01*
X120800000Y-56600000D01*
X121011023Y-51516765D01*
X121012314Y-51503269D01*
X121039418Y-51322933D01*
X121046299Y-51296737D01*
X121108881Y-51132742D01*
X121121201Y-51108623D01*
X121217385Y-50961789D01*
X121234573Y-50940862D01*
X121364796Y-50813192D01*
X121374967Y-50804241D01*
X121437856Y-50754640D01*
X121449075Y-50746744D01*
X121616317Y-50642207D01*
X121641042Y-50630280D01*
X121820407Y-50566769D01*
X121847131Y-50560479D01*
X122042868Y-50536483D01*
X122056585Y-50535557D01*
X122914940Y-50524552D01*
X122957785Y-50524003D01*
X122970242Y-50524460D01*
G37*
%TD.AperFunction*%
%TD*%
M02*
