%TF.GenerationSoftware,KiCad,Pcbnew,6.0.11*%
%TF.CreationDate,2025-01-17T14:03:23+01:00*%
%TF.ProjectId,MP6532_board_28-QFN,4d503635-3332-45f6-926f-6172645f3238,rev?*%
%TF.SameCoordinates,Original*%
%TF.FileFunction,Legend,Bot*%
%TF.FilePolarity,Positive*%
%FSLAX46Y46*%
G04 Gerber Fmt 4.6, Leading zero omitted, Abs format (unit mm)*
G04 Created by KiCad (PCBNEW 6.0.11) date 2025-01-17 14:03:23*
%MOMM*%
%LPD*%
G01*
G04 APERTURE LIST*
%ADD10C,0.150000*%
%ADD11C,0.300000*%
%ADD12C,0.100000*%
G04 APERTURE END LIST*
D10*
X83695238Y-45163571D02*
X84028571Y-44449285D01*
X84266666Y-45163571D02*
X84266666Y-43663571D01*
X83885714Y-43663571D01*
X83790476Y-43735000D01*
X83742857Y-43806428D01*
X83695238Y-43949285D01*
X83695238Y-44163571D01*
X83742857Y-44306428D01*
X83790476Y-44377857D01*
X83885714Y-44449285D01*
X84266666Y-44449285D01*
X82885714Y-45092142D02*
X82980952Y-45163571D01*
X83171428Y-45163571D01*
X83266666Y-45092142D01*
X83314285Y-44949285D01*
X83314285Y-44377857D01*
X83266666Y-44235000D01*
X83171428Y-44163571D01*
X82980952Y-44163571D01*
X82885714Y-44235000D01*
X82838095Y-44377857D01*
X82838095Y-44520714D01*
X83314285Y-44663571D01*
X82504761Y-44163571D02*
X82266666Y-45163571D01*
X82028571Y-44163571D01*
X81647619Y-44592142D02*
X80885714Y-44592142D01*
X80457142Y-43806428D02*
X80409523Y-43735000D01*
X80314285Y-43663571D01*
X80076190Y-43663571D01*
X79980952Y-43735000D01*
X79933333Y-43806428D01*
X79885714Y-43949285D01*
X79885714Y-44092142D01*
X79933333Y-44306428D01*
X80504761Y-45163571D01*
X79885714Y-45163571D01*
X83695238Y-47578571D02*
X84028571Y-46864285D01*
X84266666Y-47578571D02*
X84266666Y-46078571D01*
X83885714Y-46078571D01*
X83790476Y-46150000D01*
X83742857Y-46221428D01*
X83695238Y-46364285D01*
X83695238Y-46578571D01*
X83742857Y-46721428D01*
X83790476Y-46792857D01*
X83885714Y-46864285D01*
X84266666Y-46864285D01*
X82885714Y-47507142D02*
X82980952Y-47578571D01*
X83171428Y-47578571D01*
X83266666Y-47507142D01*
X83314285Y-47364285D01*
X83314285Y-46792857D01*
X83266666Y-46650000D01*
X83171428Y-46578571D01*
X82980952Y-46578571D01*
X82885714Y-46650000D01*
X82838095Y-46792857D01*
X82838095Y-46935714D01*
X83314285Y-47078571D01*
X82504761Y-46578571D02*
X82266666Y-47578571D01*
X82028571Y-46578571D01*
X81647619Y-47007142D02*
X80885714Y-47007142D01*
X79885714Y-47578571D02*
X80457142Y-47578571D01*
X80171428Y-47578571D02*
X80171428Y-46078571D01*
X80266666Y-46292857D01*
X80361904Y-46435714D01*
X80457142Y-46507142D01*
X82600000Y-49993571D02*
X82933333Y-49279285D01*
X83171428Y-49993571D02*
X83171428Y-48493571D01*
X82790476Y-48493571D01*
X82695238Y-48565000D01*
X82647619Y-48636428D01*
X82600000Y-48779285D01*
X82600000Y-48993571D01*
X82647619Y-49136428D01*
X82695238Y-49207857D01*
X82790476Y-49279285D01*
X83171428Y-49279285D01*
X81790476Y-49922142D02*
X81885714Y-49993571D01*
X82076190Y-49993571D01*
X82171428Y-49922142D01*
X82219047Y-49779285D01*
X82219047Y-49207857D01*
X82171428Y-49065000D01*
X82076190Y-48993571D01*
X81885714Y-48993571D01*
X81790476Y-49065000D01*
X81742857Y-49207857D01*
X81742857Y-49350714D01*
X82219047Y-49493571D01*
X81409523Y-48993571D02*
X81171428Y-49993571D01*
X80933333Y-48993571D01*
X94114285Y-45063571D02*
X94114285Y-43563571D01*
X93542857Y-45063571D01*
X93542857Y-43563571D01*
X92923809Y-45063571D02*
X93019047Y-44992142D01*
X93066666Y-44920714D01*
X93114285Y-44777857D01*
X93114285Y-44349285D01*
X93066666Y-44206428D01*
X93019047Y-44135000D01*
X92923809Y-44063571D01*
X92780952Y-44063571D01*
X92685714Y-44135000D01*
X92638095Y-44206428D01*
X92590476Y-44349285D01*
X92590476Y-44777857D01*
X92638095Y-44920714D01*
X92685714Y-44992142D01*
X92780952Y-45063571D01*
X92923809Y-45063571D01*
X92161904Y-45063571D02*
X92161904Y-44063571D01*
X92161904Y-44349285D02*
X92114285Y-44206428D01*
X92066666Y-44135000D01*
X91971428Y-44063571D01*
X91876190Y-44063571D01*
X91542857Y-45063571D02*
X91542857Y-44063571D01*
X91542857Y-44206428D02*
X91495238Y-44135000D01*
X91400000Y-44063571D01*
X91257142Y-44063571D01*
X91161904Y-44135000D01*
X91114285Y-44277857D01*
X91114285Y-45063571D01*
X91114285Y-44277857D02*
X91066666Y-44135000D01*
X90971428Y-44063571D01*
X90828571Y-44063571D01*
X90733333Y-44135000D01*
X90685714Y-44277857D01*
X90685714Y-45063571D01*
X95042857Y-47407142D02*
X94900000Y-47478571D01*
X94661904Y-47478571D01*
X94566666Y-47407142D01*
X94519047Y-47335714D01*
X94471428Y-47192857D01*
X94471428Y-47050000D01*
X94519047Y-46907142D01*
X94566666Y-46835714D01*
X94661904Y-46764285D01*
X94852380Y-46692857D01*
X94947619Y-46621428D01*
X94995238Y-46550000D01*
X95042857Y-46407142D01*
X95042857Y-46264285D01*
X94995238Y-46121428D01*
X94947619Y-46050000D01*
X94852380Y-45978571D01*
X94614285Y-45978571D01*
X94471428Y-46050000D01*
X94042857Y-47478571D02*
X94042857Y-45978571D01*
X93614285Y-47478571D02*
X93614285Y-46692857D01*
X93661904Y-46550000D01*
X93757142Y-46478571D01*
X93900000Y-46478571D01*
X93995238Y-46550000D01*
X94042857Y-46621428D01*
X93138095Y-47478571D02*
X93138095Y-46478571D01*
X93138095Y-45978571D02*
X93185714Y-46050000D01*
X93138095Y-46121428D01*
X93090476Y-46050000D01*
X93138095Y-45978571D01*
X93138095Y-46121428D01*
X92804761Y-46478571D02*
X92423809Y-46478571D01*
X92661904Y-47478571D02*
X92661904Y-46192857D01*
X92614285Y-46050000D01*
X92519047Y-45978571D01*
X92423809Y-45978571D01*
X92233333Y-46478571D02*
X91852380Y-46478571D01*
X92090476Y-45978571D02*
X92090476Y-47264285D01*
X92042857Y-47407142D01*
X91947619Y-47478571D01*
X91852380Y-47478571D01*
X91519047Y-46907142D02*
X90757142Y-46907142D01*
X91138095Y-47478571D02*
X91138095Y-46335714D01*
X89757142Y-47478571D02*
X90328571Y-47478571D01*
X90042857Y-47478571D02*
X90042857Y-45978571D01*
X90138095Y-46192857D01*
X90233333Y-46335714D01*
X90328571Y-46407142D01*
X95042857Y-49822142D02*
X94900000Y-49893571D01*
X94661904Y-49893571D01*
X94566666Y-49822142D01*
X94519047Y-49750714D01*
X94471428Y-49607857D01*
X94471428Y-49465000D01*
X94519047Y-49322142D01*
X94566666Y-49250714D01*
X94661904Y-49179285D01*
X94852380Y-49107857D01*
X94947619Y-49036428D01*
X94995238Y-48965000D01*
X95042857Y-48822142D01*
X95042857Y-48679285D01*
X94995238Y-48536428D01*
X94947619Y-48465000D01*
X94852380Y-48393571D01*
X94614285Y-48393571D01*
X94471428Y-48465000D01*
X94042857Y-49893571D02*
X94042857Y-48393571D01*
X93614285Y-49893571D02*
X93614285Y-49107857D01*
X93661904Y-48965000D01*
X93757142Y-48893571D01*
X93900000Y-48893571D01*
X93995238Y-48965000D01*
X94042857Y-49036428D01*
X93138095Y-49893571D02*
X93138095Y-48893571D01*
X93138095Y-48393571D02*
X93185714Y-48465000D01*
X93138095Y-48536428D01*
X93090476Y-48465000D01*
X93138095Y-48393571D01*
X93138095Y-48536428D01*
X92804761Y-48893571D02*
X92423809Y-48893571D01*
X92661904Y-49893571D02*
X92661904Y-48607857D01*
X92614285Y-48465000D01*
X92519047Y-48393571D01*
X92423809Y-48393571D01*
X92233333Y-48893571D02*
X91852380Y-48893571D01*
X92090476Y-48393571D02*
X92090476Y-49679285D01*
X92042857Y-49822142D01*
X91947619Y-49893571D01*
X91852380Y-49893571D01*
X91519047Y-49322142D02*
X90757142Y-49322142D01*
X91138095Y-49893571D02*
X91138095Y-48750714D01*
X90328571Y-48536428D02*
X90280952Y-48465000D01*
X90185714Y-48393571D01*
X89947619Y-48393571D01*
X89852380Y-48465000D01*
X89804761Y-48536428D01*
X89757142Y-48679285D01*
X89757142Y-48822142D01*
X89804761Y-49036428D01*
X90376190Y-49893571D01*
X89757142Y-49893571D01*
D11*
X78100000Y-48700000D02*
X78100000Y-49700000D01*
X76300000Y-46400000D02*
X76300000Y-47400000D01*
X77200000Y-44100000D02*
X77200000Y-45100000D01*
X76200000Y-49700000D02*
X77200000Y-49700000D01*
X76200000Y-48700000D02*
X77200000Y-48700000D01*
X77200000Y-47400000D02*
X78200000Y-47400000D01*
X77200000Y-46400000D02*
X78200000Y-46400000D01*
X75300000Y-45100000D02*
X76300000Y-45100000D01*
X75300000Y-44100000D02*
X76300000Y-44100000D01*
X86800000Y-48700000D02*
X87800000Y-48700000D01*
X85900000Y-49700000D02*
X86900000Y-49700000D01*
X87800000Y-49700000D02*
X88800000Y-49700000D01*
X86900000Y-47400000D02*
X87900000Y-47400000D01*
X85900000Y-46400000D02*
X86900000Y-46400000D01*
X87700000Y-46400000D02*
X88700000Y-46400000D01*
D10*
X77400000Y-48700000D02*
G75*
G03*
X77400000Y-48700000I-200000J0D01*
G01*
X75500000Y-48700000D02*
G75*
G03*
X75500000Y-48700000I-200000J0D01*
G01*
X78600000Y-48200000D02*
X74800000Y-48200000D01*
X74800000Y-48200000D02*
X74800000Y-50200000D01*
X74800000Y-50200000D02*
X78600000Y-50200000D01*
X78600000Y-50200000D02*
X78600000Y-48200000D01*
X75500000Y-49700000D02*
G75*
G03*
X75500000Y-49700000I-200000J0D01*
G01*
X76500000Y-48700000D02*
G75*
G03*
X76500000Y-48700000I-200000J0D01*
G01*
X76500000Y-49700000D02*
G75*
G03*
X76500000Y-49700000I-200000J0D01*
G01*
X77400000Y-49700000D02*
G75*
G03*
X77400000Y-49700000I-200000J0D01*
G01*
X78300000Y-49700000D02*
G75*
G03*
X78300000Y-49700000I-200000J0D01*
G01*
X78300000Y-48700000D02*
G75*
G03*
X78300000Y-48700000I-200000J0D01*
G01*
X77400000Y-46400000D02*
G75*
G03*
X77400000Y-46400000I-200000J0D01*
G01*
X75500000Y-46400000D02*
G75*
G03*
X75500000Y-46400000I-200000J0D01*
G01*
X78600000Y-45900000D02*
X74800000Y-45900000D01*
X74800000Y-45900000D02*
X74800000Y-47900000D01*
X74800000Y-47900000D02*
X78600000Y-47900000D01*
X78600000Y-47900000D02*
X78600000Y-45900000D01*
X75500000Y-47400000D02*
G75*
G03*
X75500000Y-47400000I-200000J0D01*
G01*
X76500000Y-46400000D02*
G75*
G03*
X76500000Y-46400000I-200000J0D01*
G01*
X76500000Y-47400000D02*
G75*
G03*
X76500000Y-47400000I-200000J0D01*
G01*
X77400000Y-47400000D02*
G75*
G03*
X77400000Y-47400000I-200000J0D01*
G01*
X78300000Y-47400000D02*
G75*
G03*
X78300000Y-47400000I-200000J0D01*
G01*
X78300000Y-46400000D02*
G75*
G03*
X78300000Y-46400000I-200000J0D01*
G01*
X77400000Y-44100000D02*
G75*
G03*
X77400000Y-44100000I-200000J0D01*
G01*
X75500000Y-44100000D02*
G75*
G03*
X75500000Y-44100000I-200000J0D01*
G01*
X78600000Y-43600000D02*
X74800000Y-43600000D01*
X74800000Y-43600000D02*
X74800000Y-45600000D01*
X74800000Y-45600000D02*
X78600000Y-45600000D01*
X78600000Y-45600000D02*
X78600000Y-43600000D01*
X75500000Y-45100000D02*
G75*
G03*
X75500000Y-45100000I-200000J0D01*
G01*
X76500000Y-44100000D02*
G75*
G03*
X76500000Y-44100000I-200000J0D01*
G01*
X76500000Y-45100000D02*
G75*
G03*
X76500000Y-45100000I-200000J0D01*
G01*
X77400000Y-45100000D02*
G75*
G03*
X77400000Y-45100000I-200000J0D01*
G01*
X78300000Y-45100000D02*
G75*
G03*
X78300000Y-45100000I-200000J0D01*
G01*
X78300000Y-44100000D02*
G75*
G03*
X78300000Y-44100000I-200000J0D01*
G01*
X88000000Y-48700000D02*
G75*
G03*
X88000000Y-48700000I-200000J0D01*
G01*
X86100000Y-48700000D02*
G75*
G03*
X86100000Y-48700000I-200000J0D01*
G01*
X89200000Y-48200000D02*
X85400000Y-48200000D01*
X85400000Y-48200000D02*
X85400000Y-50200000D01*
X85400000Y-50200000D02*
X89200000Y-50200000D01*
X89200000Y-50200000D02*
X89200000Y-48200000D01*
X86100000Y-49700000D02*
G75*
G03*
X86100000Y-49700000I-200000J0D01*
G01*
X87100000Y-48700000D02*
G75*
G03*
X87100000Y-48700000I-200000J0D01*
G01*
X87100000Y-49700000D02*
G75*
G03*
X87100000Y-49700000I-200000J0D01*
G01*
X88000000Y-49700000D02*
G75*
G03*
X88000000Y-49700000I-200000J0D01*
G01*
X88900000Y-49700000D02*
G75*
G03*
X88900000Y-49700000I-200000J0D01*
G01*
X88900000Y-48700000D02*
G75*
G03*
X88900000Y-48700000I-200000J0D01*
G01*
X89200000Y-45900000D02*
X85400000Y-45900000D01*
X85400000Y-45900000D02*
X85400000Y-47900000D01*
X85400000Y-47900000D02*
X89200000Y-47900000D01*
X89200000Y-47900000D02*
X89200000Y-45900000D01*
X89200000Y-43600000D02*
X85400000Y-43600000D01*
X85400000Y-43600000D02*
X85400000Y-45600000D01*
X85400000Y-45600000D02*
X89200000Y-45600000D01*
X89200000Y-45600000D02*
X89200000Y-43600000D01*
D11*
X86900000Y-44100000D02*
X86900000Y-45100000D01*
X87800000Y-44100000D02*
X87800000Y-45100000D01*
X88700000Y-44100000D02*
X88700000Y-45100000D01*
D10*
X86100000Y-47400000D02*
G75*
G03*
X86100000Y-47400000I-200000J0D01*
G01*
X86100000Y-46400000D02*
G75*
G03*
X86100000Y-46400000I-200000J0D01*
G01*
X88900000Y-46400000D02*
G75*
G03*
X88900000Y-46400000I-200000J0D01*
G01*
X88000000Y-46400000D02*
G75*
G03*
X88000000Y-46400000I-200000J0D01*
G01*
X88000000Y-47400000D02*
G75*
G03*
X88000000Y-47400000I-200000J0D01*
G01*
X87100000Y-47400000D02*
G75*
G03*
X87100000Y-47400000I-200000J0D01*
G01*
X88900000Y-47400000D02*
G75*
G03*
X88900000Y-47400000I-200000J0D01*
G01*
X87100000Y-46400000D02*
G75*
G03*
X87100000Y-46400000I-200000J0D01*
G01*
X86100000Y-44100000D02*
G75*
G03*
X86100000Y-44100000I-200000J0D01*
G01*
X86100000Y-45100000D02*
G75*
G03*
X86100000Y-45100000I-200000J0D01*
G01*
X87100000Y-44100000D02*
G75*
G03*
X87100000Y-44100000I-200000J0D01*
G01*
X87100000Y-45100000D02*
G75*
G03*
X87100000Y-45100000I-200000J0D01*
G01*
X88000000Y-44100000D02*
G75*
G03*
X88000000Y-44100000I-200000J0D01*
G01*
X88000000Y-45100000D02*
G75*
G03*
X88000000Y-45100000I-200000J0D01*
G01*
X88900000Y-45100000D02*
G75*
G03*
X88900000Y-45100000I-200000J0D01*
G01*
X88900000Y-44100000D02*
G75*
G03*
X88900000Y-44100000I-200000J0D01*
G01*
X107169047Y-53814142D02*
X107602380Y-53814142D01*
X107602380Y-54495095D02*
X107602380Y-53195095D01*
X106983333Y-53195095D01*
X106488095Y-53814142D02*
X106054761Y-53814142D01*
X105869047Y-54495095D02*
X106488095Y-54495095D01*
X106488095Y-53195095D01*
X105869047Y-53195095D01*
X105497619Y-53195095D02*
X104754761Y-53195095D01*
X105126190Y-54495095D02*
X105126190Y-53195095D01*
X104383333Y-54433190D02*
X104197619Y-54495095D01*
X103888095Y-54495095D01*
X103764285Y-54433190D01*
X103702380Y-54371285D01*
X103640476Y-54247476D01*
X103640476Y-54123666D01*
X103702380Y-53999857D01*
X103764285Y-53937952D01*
X103888095Y-53876047D01*
X104135714Y-53814142D01*
X104259523Y-53752238D01*
X104321428Y-53690333D01*
X104383333Y-53566523D01*
X104383333Y-53442714D01*
X104321428Y-53318904D01*
X104259523Y-53257000D01*
X104135714Y-53195095D01*
X103826190Y-53195095D01*
X103640476Y-53257000D01*
X101535714Y-54495095D02*
X101535714Y-53814142D01*
X101597619Y-53690333D01*
X101721428Y-53628428D01*
X101969047Y-53628428D01*
X102092857Y-53690333D01*
X101535714Y-54433190D02*
X101659523Y-54495095D01*
X101969047Y-54495095D01*
X102092857Y-54433190D01*
X102154761Y-54309380D01*
X102154761Y-54185571D01*
X102092857Y-54061761D01*
X101969047Y-53999857D01*
X101659523Y-53999857D01*
X101535714Y-53937952D01*
X100916666Y-54495095D02*
X100916666Y-53628428D01*
X100916666Y-53876047D02*
X100854761Y-53752238D01*
X100792857Y-53690333D01*
X100669047Y-53628428D01*
X100545238Y-53628428D01*
X99616666Y-54433190D02*
X99740476Y-54495095D01*
X99988095Y-54495095D01*
X100111904Y-54433190D01*
X100173809Y-54309380D01*
X100173809Y-53814142D01*
X100111904Y-53690333D01*
X99988095Y-53628428D01*
X99740476Y-53628428D01*
X99616666Y-53690333D01*
X99554761Y-53814142D01*
X99554761Y-53937952D01*
X100173809Y-54061761D01*
X98007142Y-54495095D02*
X98007142Y-53628428D01*
X98007142Y-53876047D02*
X97945238Y-53752238D01*
X97883333Y-53690333D01*
X97759523Y-53628428D01*
X97635714Y-53628428D01*
X96645238Y-54495095D02*
X96645238Y-53814142D01*
X96707142Y-53690333D01*
X96830952Y-53628428D01*
X97078571Y-53628428D01*
X97202380Y-53690333D01*
X96645238Y-54433190D02*
X96769047Y-54495095D01*
X97078571Y-54495095D01*
X97202380Y-54433190D01*
X97264285Y-54309380D01*
X97264285Y-54185571D01*
X97202380Y-54061761D01*
X97078571Y-53999857D01*
X96769047Y-53999857D01*
X96645238Y-53937952D01*
X96211904Y-53628428D02*
X95716666Y-53628428D01*
X96026190Y-53195095D02*
X96026190Y-54309380D01*
X95964285Y-54433190D01*
X95840476Y-54495095D01*
X95716666Y-54495095D01*
X94788095Y-54433190D02*
X94911904Y-54495095D01*
X95159523Y-54495095D01*
X95283333Y-54433190D01*
X95345238Y-54309380D01*
X95345238Y-53814142D01*
X95283333Y-53690333D01*
X95159523Y-53628428D01*
X94911904Y-53628428D01*
X94788095Y-53690333D01*
X94726190Y-53814142D01*
X94726190Y-53937952D01*
X95345238Y-54061761D01*
X93611904Y-54495095D02*
X93611904Y-53195095D01*
X93611904Y-54433190D02*
X93735714Y-54495095D01*
X93983333Y-54495095D01*
X94107142Y-54433190D01*
X94169047Y-54371285D01*
X94230952Y-54247476D01*
X94230952Y-53876047D01*
X94169047Y-53752238D01*
X94107142Y-53690333D01*
X93983333Y-53628428D01*
X93735714Y-53628428D01*
X93611904Y-53690333D01*
X92126190Y-53195095D02*
X91321428Y-53195095D01*
X91754761Y-53690333D01*
X91569047Y-53690333D01*
X91445238Y-53752238D01*
X91383333Y-53814142D01*
X91321428Y-53937952D01*
X91321428Y-54247476D01*
X91383333Y-54371285D01*
X91445238Y-54433190D01*
X91569047Y-54495095D01*
X91940476Y-54495095D01*
X92064285Y-54433190D01*
X92126190Y-54371285D01*
X90145238Y-53195095D02*
X90764285Y-53195095D01*
X90826190Y-53814142D01*
X90764285Y-53752238D01*
X90640476Y-53690333D01*
X90330952Y-53690333D01*
X90207142Y-53752238D01*
X90145238Y-53814142D01*
X90083333Y-53937952D01*
X90083333Y-54247476D01*
X90145238Y-54371285D01*
X90207142Y-54433190D01*
X90330952Y-54495095D01*
X90640476Y-54495095D01*
X90764285Y-54433190D01*
X90826190Y-54371285D01*
X89588095Y-54123666D02*
X88969047Y-54123666D01*
X89711904Y-54495095D02*
X89278571Y-53195095D01*
X88845238Y-54495095D01*
X88350000Y-54433190D02*
X88350000Y-54495095D01*
X88411904Y-54618904D01*
X88473809Y-54680809D01*
X86802380Y-54495095D02*
X86802380Y-53195095D01*
X86802380Y-53690333D02*
X86678571Y-53628428D01*
X86430952Y-53628428D01*
X86307142Y-53690333D01*
X86245238Y-53752238D01*
X86183333Y-53876047D01*
X86183333Y-54247476D01*
X86245238Y-54371285D01*
X86307142Y-54433190D01*
X86430952Y-54495095D01*
X86678571Y-54495095D01*
X86802380Y-54433190D01*
X85069047Y-53628428D02*
X85069047Y-54495095D01*
X85626190Y-53628428D02*
X85626190Y-54309380D01*
X85564285Y-54433190D01*
X85440476Y-54495095D01*
X85254761Y-54495095D01*
X85130952Y-54433190D01*
X85069047Y-54371285D01*
X84635714Y-53628428D02*
X84140476Y-53628428D01*
X84450000Y-53195095D02*
X84450000Y-54309380D01*
X84388095Y-54433190D01*
X84264285Y-54495095D01*
X84140476Y-54495095D01*
X82902380Y-53628428D02*
X82407142Y-53628428D01*
X82716666Y-53195095D02*
X82716666Y-54309380D01*
X82654761Y-54433190D01*
X82530952Y-54495095D01*
X82407142Y-54495095D01*
X81973809Y-54495095D02*
X81973809Y-53195095D01*
X81416666Y-54495095D02*
X81416666Y-53814142D01*
X81478571Y-53690333D01*
X81602380Y-53628428D01*
X81788095Y-53628428D01*
X81911904Y-53690333D01*
X81973809Y-53752238D01*
X80302380Y-54433190D02*
X80426190Y-54495095D01*
X80673809Y-54495095D01*
X80797619Y-54433190D01*
X80859523Y-54309380D01*
X80859523Y-53814142D01*
X80797619Y-53690333D01*
X80673809Y-53628428D01*
X80426190Y-53628428D01*
X80302380Y-53690333D01*
X80240476Y-53814142D01*
X80240476Y-53937952D01*
X80859523Y-54061761D01*
X78692857Y-54495095D02*
X78692857Y-53628428D01*
X78692857Y-53876047D02*
X78630952Y-53752238D01*
X78569047Y-53690333D01*
X78445238Y-53628428D01*
X78321428Y-53628428D01*
X77392857Y-54433190D02*
X77516666Y-54495095D01*
X77764285Y-54495095D01*
X77888095Y-54433190D01*
X77950000Y-54309380D01*
X77950000Y-53814142D01*
X77888095Y-53690333D01*
X77764285Y-53628428D01*
X77516666Y-53628428D01*
X77392857Y-53690333D01*
X77330952Y-53814142D01*
X77330952Y-53937952D01*
X77950000Y-54061761D01*
X76835714Y-54433190D02*
X76711904Y-54495095D01*
X76464285Y-54495095D01*
X76340476Y-54433190D01*
X76278571Y-54309380D01*
X76278571Y-54247476D01*
X76340476Y-54123666D01*
X76464285Y-54061761D01*
X76650000Y-54061761D01*
X76773809Y-53999857D01*
X76835714Y-53876047D01*
X76835714Y-53814142D01*
X76773809Y-53690333D01*
X76650000Y-53628428D01*
X76464285Y-53628428D01*
X76340476Y-53690333D01*
X75907142Y-53628428D02*
X75411904Y-53628428D01*
X75721428Y-53195095D02*
X75721428Y-54309380D01*
X75659523Y-54433190D01*
X75535714Y-54495095D01*
X75411904Y-54495095D01*
X99523809Y-56588095D02*
X99523809Y-55721428D01*
X99523809Y-55288095D02*
X99585714Y-55350000D01*
X99523809Y-55411904D01*
X99461904Y-55350000D01*
X99523809Y-55288095D01*
X99523809Y-55411904D01*
X98966666Y-56526190D02*
X98842857Y-56588095D01*
X98595238Y-56588095D01*
X98471428Y-56526190D01*
X98409523Y-56402380D01*
X98409523Y-56340476D01*
X98471428Y-56216666D01*
X98595238Y-56154761D01*
X98780952Y-56154761D01*
X98904761Y-56092857D01*
X98966666Y-55969047D01*
X98966666Y-55907142D01*
X98904761Y-55783333D01*
X98780952Y-55721428D01*
X98595238Y-55721428D01*
X98471428Y-55783333D01*
X96985714Y-55721428D02*
X96738095Y-56588095D01*
X96490476Y-55969047D01*
X96242857Y-56588095D01*
X95995238Y-55721428D01*
X95004761Y-56526190D02*
X95128571Y-56588095D01*
X95376190Y-56588095D01*
X95500000Y-56526190D01*
X95561904Y-56402380D01*
X95561904Y-55907142D01*
X95500000Y-55783333D01*
X95376190Y-55721428D01*
X95128571Y-55721428D01*
X95004761Y-55783333D01*
X94942857Y-55907142D01*
X94942857Y-56030952D01*
X95561904Y-56154761D01*
X94200000Y-56588095D02*
X94323809Y-56526190D01*
X94385714Y-56402380D01*
X94385714Y-55288095D01*
X93519047Y-56588095D02*
X93642857Y-56526190D01*
X93704761Y-56402380D01*
X93704761Y-55288095D01*
X92033333Y-56588095D02*
X92033333Y-55288095D01*
X92033333Y-55783333D02*
X91909523Y-55721428D01*
X91661904Y-55721428D01*
X91538095Y-55783333D01*
X91476190Y-55845238D01*
X91414285Y-55969047D01*
X91414285Y-56340476D01*
X91476190Y-56464285D01*
X91538095Y-56526190D01*
X91661904Y-56588095D01*
X91909523Y-56588095D01*
X92033333Y-56526190D01*
X90361904Y-56526190D02*
X90485714Y-56588095D01*
X90733333Y-56588095D01*
X90857142Y-56526190D01*
X90919047Y-56402380D01*
X90919047Y-55907142D01*
X90857142Y-55783333D01*
X90733333Y-55721428D01*
X90485714Y-55721428D01*
X90361904Y-55783333D01*
X90300000Y-55907142D01*
X90300000Y-56030952D01*
X90919047Y-56154761D01*
X89557142Y-56588095D02*
X89680952Y-56526190D01*
X89742857Y-56402380D01*
X89742857Y-55288095D01*
X88876190Y-56588095D02*
X89000000Y-56526190D01*
X89061904Y-56464285D01*
X89123809Y-56340476D01*
X89123809Y-55969047D01*
X89061904Y-55845238D01*
X89000000Y-55783333D01*
X88876190Y-55721428D01*
X88690476Y-55721428D01*
X88566666Y-55783333D01*
X88504761Y-55845238D01*
X88442857Y-55969047D01*
X88442857Y-56340476D01*
X88504761Y-56464285D01*
X88566666Y-56526190D01*
X88690476Y-56588095D01*
X88876190Y-56588095D01*
X88009523Y-55721428D02*
X87761904Y-56588095D01*
X87514285Y-55969047D01*
X87266666Y-56588095D01*
X87019047Y-55721428D01*
X85471428Y-56526190D02*
X85471428Y-56588095D01*
X85533333Y-56711904D01*
X85595238Y-56773809D01*
X85533333Y-55783333D02*
X85471428Y-55845238D01*
X85533333Y-55907142D01*
X85595238Y-55845238D01*
X85533333Y-55783333D01*
X85533333Y-55907142D01*
X85038095Y-57083333D02*
X84976190Y-57021428D01*
X84852380Y-56835714D01*
X84790476Y-56711904D01*
X84728571Y-56526190D01*
X84666666Y-56216666D01*
X84666666Y-55969047D01*
X84728571Y-55659523D01*
X84790476Y-55473809D01*
X84852380Y-55350000D01*
X84976190Y-55164285D01*
X85038095Y-55102380D01*
X109180952Y-59176333D02*
X109242857Y-59114428D01*
X109366666Y-58928714D01*
X109428571Y-58804904D01*
X109490476Y-58619190D01*
X109552380Y-58309666D01*
X109552380Y-58062047D01*
X109490476Y-57752523D01*
X109428571Y-57566809D01*
X109366666Y-57443000D01*
X109242857Y-57257285D01*
X109180952Y-57195380D01*
X108128571Y-58619190D02*
X108252380Y-58681095D01*
X108500000Y-58681095D01*
X108623809Y-58619190D01*
X108685714Y-58557285D01*
X108747619Y-58433476D01*
X108747619Y-58062047D01*
X108685714Y-57938238D01*
X108623809Y-57876333D01*
X108500000Y-57814428D01*
X108252380Y-57814428D01*
X108128571Y-57876333D01*
X107385714Y-58681095D02*
X107509523Y-58619190D01*
X107571428Y-58557285D01*
X107633333Y-58433476D01*
X107633333Y-58062047D01*
X107571428Y-57938238D01*
X107509523Y-57876333D01*
X107385714Y-57814428D01*
X107200000Y-57814428D01*
X107076190Y-57876333D01*
X107014285Y-57938238D01*
X106952380Y-58062047D01*
X106952380Y-58433476D01*
X107014285Y-58557285D01*
X107076190Y-58619190D01*
X107200000Y-58681095D01*
X107385714Y-58681095D01*
X106209523Y-58681095D02*
X106333333Y-58619190D01*
X106395238Y-58557285D01*
X106457142Y-58433476D01*
X106457142Y-58062047D01*
X106395238Y-57938238D01*
X106333333Y-57876333D01*
X106209523Y-57814428D01*
X106023809Y-57814428D01*
X105900000Y-57876333D01*
X105838095Y-57938238D01*
X105776190Y-58062047D01*
X105776190Y-58433476D01*
X105838095Y-58557285D01*
X105900000Y-58619190D01*
X106023809Y-58681095D01*
X106209523Y-58681095D01*
X105033333Y-58681095D02*
X105157142Y-58619190D01*
X105219047Y-58495380D01*
X105219047Y-57381095D01*
X104538095Y-58681095D02*
X104538095Y-57814428D01*
X104538095Y-57381095D02*
X104600000Y-57443000D01*
X104538095Y-57504904D01*
X104476190Y-57443000D01*
X104538095Y-57381095D01*
X104538095Y-57504904D01*
X103919047Y-57814428D02*
X103919047Y-58681095D01*
X103919047Y-57938238D02*
X103857142Y-57876333D01*
X103733333Y-57814428D01*
X103547619Y-57814428D01*
X103423809Y-57876333D01*
X103361904Y-58000142D01*
X103361904Y-58681095D01*
X102185714Y-57814428D02*
X102185714Y-58866809D01*
X102247619Y-58990619D01*
X102309523Y-59052523D01*
X102433333Y-59114428D01*
X102619047Y-59114428D01*
X102742857Y-59052523D01*
X102185714Y-58619190D02*
X102309523Y-58681095D01*
X102557142Y-58681095D01*
X102680952Y-58619190D01*
X102742857Y-58557285D01*
X102804761Y-58433476D01*
X102804761Y-58062047D01*
X102742857Y-57938238D01*
X102680952Y-57876333D01*
X102557142Y-57814428D01*
X102309523Y-57814428D01*
X102185714Y-57876333D01*
X101504761Y-58619190D02*
X101504761Y-58681095D01*
X101566666Y-58804904D01*
X101628571Y-58866809D01*
X100142857Y-57814428D02*
X99647619Y-57814428D01*
X99957142Y-57381095D02*
X99957142Y-58495380D01*
X99895238Y-58619190D01*
X99771428Y-58681095D01*
X99647619Y-58681095D01*
X99214285Y-58681095D02*
X99214285Y-57814428D01*
X99214285Y-58062047D02*
X99152380Y-57938238D01*
X99090476Y-57876333D01*
X98966666Y-57814428D01*
X98842857Y-57814428D01*
X97852380Y-58681095D02*
X97852380Y-58000142D01*
X97914285Y-57876333D01*
X98038095Y-57814428D01*
X98285714Y-57814428D01*
X98409523Y-57876333D01*
X97852380Y-58619190D02*
X97976190Y-58681095D01*
X98285714Y-58681095D01*
X98409523Y-58619190D01*
X98471428Y-58495380D01*
X98471428Y-58371571D01*
X98409523Y-58247761D01*
X98285714Y-58185857D01*
X97976190Y-58185857D01*
X97852380Y-58123952D01*
X96676190Y-58619190D02*
X96800000Y-58681095D01*
X97047619Y-58681095D01*
X97171428Y-58619190D01*
X97233333Y-58557285D01*
X97295238Y-58433476D01*
X97295238Y-58062047D01*
X97233333Y-57938238D01*
X97171428Y-57876333D01*
X97047619Y-57814428D01*
X96800000Y-57814428D01*
X96676190Y-57876333D01*
X95623809Y-58619190D02*
X95747619Y-58681095D01*
X95995238Y-58681095D01*
X96119047Y-58619190D01*
X96180952Y-58495380D01*
X96180952Y-58000142D01*
X96119047Y-57876333D01*
X95995238Y-57814428D01*
X95747619Y-57814428D01*
X95623809Y-57876333D01*
X95561904Y-58000142D01*
X95561904Y-58123952D01*
X96180952Y-58247761D01*
X94200000Y-57814428D02*
X93704761Y-57814428D01*
X94014285Y-57381095D02*
X94014285Y-58495380D01*
X93952380Y-58619190D01*
X93828571Y-58681095D01*
X93704761Y-58681095D01*
X93271428Y-58681095D02*
X93271428Y-57381095D01*
X92714285Y-58681095D02*
X92714285Y-58000142D01*
X92776190Y-57876333D01*
X92900000Y-57814428D01*
X93085714Y-57814428D01*
X93209523Y-57876333D01*
X93271428Y-57938238D01*
X92095238Y-58681095D02*
X92095238Y-57814428D01*
X92095238Y-57381095D02*
X92157142Y-57443000D01*
X92095238Y-57504904D01*
X92033333Y-57443000D01*
X92095238Y-57381095D01*
X92095238Y-57504904D01*
X90919047Y-58619190D02*
X91042857Y-58681095D01*
X91290476Y-58681095D01*
X91414285Y-58619190D01*
X91476190Y-58557285D01*
X91538095Y-58433476D01*
X91538095Y-58062047D01*
X91476190Y-57938238D01*
X91414285Y-57876333D01*
X91290476Y-57814428D01*
X91042857Y-57814428D01*
X90919047Y-57876333D01*
X90361904Y-58681095D02*
X90361904Y-57381095D01*
X90238095Y-58185857D02*
X89866666Y-58681095D01*
X89866666Y-57814428D02*
X90361904Y-58309666D01*
X89309523Y-57814428D02*
X89309523Y-58681095D01*
X89309523Y-57938238D02*
X89247619Y-57876333D01*
X89123809Y-57814428D01*
X88938095Y-57814428D01*
X88814285Y-57876333D01*
X88752380Y-58000142D01*
X88752380Y-58681095D01*
X87638095Y-58619190D02*
X87761904Y-58681095D01*
X88009523Y-58681095D01*
X88133333Y-58619190D01*
X88195238Y-58495380D01*
X88195238Y-58000142D01*
X88133333Y-57876333D01*
X88009523Y-57814428D01*
X87761904Y-57814428D01*
X87638095Y-57876333D01*
X87576190Y-58000142D01*
X87576190Y-58123952D01*
X88195238Y-58247761D01*
X87080952Y-58619190D02*
X86957142Y-58681095D01*
X86709523Y-58681095D01*
X86585714Y-58619190D01*
X86523809Y-58495380D01*
X86523809Y-58433476D01*
X86585714Y-58309666D01*
X86709523Y-58247761D01*
X86895238Y-58247761D01*
X87019047Y-58185857D01*
X87080952Y-58062047D01*
X87080952Y-58000142D01*
X87019047Y-57876333D01*
X86895238Y-57814428D01*
X86709523Y-57814428D01*
X86585714Y-57876333D01*
X86028571Y-58619190D02*
X85904761Y-58681095D01*
X85657142Y-58681095D01*
X85533333Y-58619190D01*
X85471428Y-58495380D01*
X85471428Y-58433476D01*
X85533333Y-58309666D01*
X85657142Y-58247761D01*
X85842857Y-58247761D01*
X85966666Y-58185857D01*
X86028571Y-58062047D01*
X86028571Y-58000142D01*
X85966666Y-57876333D01*
X85842857Y-57814428D01*
X85657142Y-57814428D01*
X85533333Y-57876333D01*
X83985714Y-57319190D02*
X85100000Y-58990619D01*
X83676190Y-57814428D02*
X83428571Y-58681095D01*
X83180952Y-58062047D01*
X82933333Y-58681095D01*
X82685714Y-57814428D01*
X82190476Y-58681095D02*
X82190476Y-57814428D01*
X82190476Y-57381095D02*
X82252380Y-57443000D01*
X82190476Y-57504904D01*
X82128571Y-57443000D01*
X82190476Y-57381095D01*
X82190476Y-57504904D01*
X81014285Y-58681095D02*
X81014285Y-57381095D01*
X81014285Y-58619190D02*
X81138095Y-58681095D01*
X81385714Y-58681095D01*
X81509523Y-58619190D01*
X81571428Y-58557285D01*
X81633333Y-58433476D01*
X81633333Y-58062047D01*
X81571428Y-57938238D01*
X81509523Y-57876333D01*
X81385714Y-57814428D01*
X81138095Y-57814428D01*
X81014285Y-57876333D01*
X80580952Y-57814428D02*
X80085714Y-57814428D01*
X80395238Y-57381095D02*
X80395238Y-58495380D01*
X80333333Y-58619190D01*
X80209523Y-58681095D01*
X80085714Y-58681095D01*
X79652380Y-58681095D02*
X79652380Y-57381095D01*
X79095238Y-58681095D02*
X79095238Y-58000142D01*
X79157142Y-57876333D01*
X79280952Y-57814428D01*
X79466666Y-57814428D01*
X79590476Y-57876333D01*
X79652380Y-57938238D01*
X78414285Y-58619190D02*
X78414285Y-58681095D01*
X78476190Y-58804904D01*
X78538095Y-58866809D01*
X76371428Y-58619190D02*
X76495238Y-58681095D01*
X76742857Y-58681095D01*
X76866666Y-58619190D01*
X76928571Y-58495380D01*
X76928571Y-58000142D01*
X76866666Y-57876333D01*
X76742857Y-57814428D01*
X76495238Y-57814428D01*
X76371428Y-57876333D01*
X76309523Y-58000142D01*
X76309523Y-58123952D01*
X76928571Y-58247761D01*
X75938095Y-57814428D02*
X75442857Y-57814428D01*
X75752380Y-57381095D02*
X75752380Y-58495380D01*
X75690476Y-58619190D01*
X75566666Y-58681095D01*
X75442857Y-58681095D01*
X74452380Y-58619190D02*
X74576190Y-58681095D01*
X74823809Y-58681095D01*
X74947619Y-58619190D01*
X75009523Y-58557285D01*
X75071428Y-58433476D01*
X75071428Y-58062047D01*
X75009523Y-57938238D01*
X74947619Y-57876333D01*
X74823809Y-57814428D01*
X74576190Y-57814428D01*
X74452380Y-57876333D01*
X74019047Y-59176333D02*
X73957142Y-59114428D01*
X73833333Y-58928714D01*
X73771428Y-58804904D01*
X73709523Y-58619190D01*
X73647619Y-58309666D01*
X73647619Y-58062047D01*
X73709523Y-57752523D01*
X73771428Y-57566809D01*
X73833333Y-57443000D01*
X73957142Y-57257285D01*
X74019047Y-57195380D01*
X82030000Y-71930000D02*
X82030000Y-64310000D01*
X89560000Y-71880000D02*
X89560000Y-64260000D01*
X64010000Y-71980000D02*
X64010000Y-64360000D01*
X77030000Y-71980000D02*
X77030000Y-64360000D01*
X99860000Y-71980000D02*
X99860000Y-64360000D01*
X74310000Y-71830000D02*
X74310000Y-64210000D01*
X87370000Y-72820000D02*
X87370000Y-75780000D01*
X94710000Y-71980000D02*
X94710000Y-64360000D01*
X76347619Y-66066666D02*
X75538095Y-66066666D01*
X75442857Y-66019047D01*
X75395238Y-65971428D01*
X75347619Y-65876190D01*
X75347619Y-65685714D01*
X75395238Y-65590476D01*
X75442857Y-65542857D01*
X75538095Y-65495238D01*
X76347619Y-65495238D01*
X75347619Y-64495238D02*
X75347619Y-65066666D01*
X75347619Y-64780952D02*
X76347619Y-64780952D01*
X76204761Y-64876190D01*
X76109523Y-64971428D01*
X76061904Y-65066666D01*
X76300000Y-62780952D02*
X76347619Y-62876190D01*
X76347619Y-63019047D01*
X76300000Y-63161904D01*
X76204761Y-63257142D01*
X76109523Y-63304761D01*
X75919047Y-63352380D01*
X75776190Y-63352380D01*
X75585714Y-63304761D01*
X75490476Y-63257142D01*
X75395238Y-63161904D01*
X75347619Y-63019047D01*
X75347619Y-62923809D01*
X75395238Y-62780952D01*
X75442857Y-62733333D01*
X75776190Y-62733333D01*
X75776190Y-62923809D01*
X75347619Y-62304761D02*
X76347619Y-62304761D01*
X75347619Y-61733333D01*
X76347619Y-61733333D01*
X75347619Y-61257142D02*
X76347619Y-61257142D01*
X76347619Y-61019047D01*
X76300000Y-60876190D01*
X76204761Y-60780952D01*
X76109523Y-60733333D01*
X75919047Y-60685714D01*
X75776190Y-60685714D01*
X75585714Y-60733333D01*
X75490476Y-60780952D01*
X75395238Y-60876190D01*
X75347619Y-61019047D01*
X75347619Y-61257142D01*
X71043333Y-57640000D02*
X71043333Y-57259047D01*
X70757619Y-57716190D02*
X71757619Y-57449523D01*
X70757619Y-57182857D01*
X70757619Y-56916190D02*
X71757619Y-56916190D01*
X70757619Y-56535238D02*
X71757619Y-56535238D01*
X70757619Y-56078095D01*
X71757619Y-56078095D01*
X66221428Y-57532380D02*
X66173809Y-57418095D01*
X66126190Y-57380000D01*
X66030952Y-57341904D01*
X65888095Y-57341904D01*
X65792857Y-57380000D01*
X65745238Y-57418095D01*
X65697619Y-57494285D01*
X65697619Y-57799047D01*
X66697619Y-57799047D01*
X66697619Y-57532380D01*
X66650000Y-57456190D01*
X66602380Y-57418095D01*
X66507142Y-57380000D01*
X66411904Y-57380000D01*
X66316666Y-57418095D01*
X66269047Y-57456190D01*
X66221428Y-57532380D01*
X66221428Y-57799047D01*
X65697619Y-56999047D02*
X66697619Y-56999047D01*
X65697619Y-56618095D02*
X66697619Y-56618095D01*
X65697619Y-56160952D01*
X66697619Y-56160952D01*
X68252095Y-66612380D02*
X69052095Y-66612380D01*
X68252095Y-66269523D02*
X68671142Y-66269523D01*
X68747333Y-66307619D01*
X68785428Y-66383809D01*
X68785428Y-66498095D01*
X68747333Y-66574285D01*
X68709238Y-66612380D01*
X68252095Y-65545714D02*
X68671142Y-65545714D01*
X68747333Y-65583809D01*
X68785428Y-65660000D01*
X68785428Y-65812380D01*
X68747333Y-65888571D01*
X68290190Y-65545714D02*
X68252095Y-65621904D01*
X68252095Y-65812380D01*
X68290190Y-65888571D01*
X68366380Y-65926666D01*
X68442571Y-65926666D01*
X68518761Y-65888571D01*
X68556857Y-65812380D01*
X68556857Y-65621904D01*
X68594952Y-65545714D01*
X68252095Y-65050476D02*
X68290190Y-65126666D01*
X68366380Y-65164761D01*
X69052095Y-65164761D01*
X68252095Y-64631428D02*
X68290190Y-64707619D01*
X68366380Y-64745714D01*
X69052095Y-64745714D01*
X67192666Y-66707619D02*
X67192666Y-66326666D01*
X66964095Y-66783809D02*
X67764095Y-66517142D01*
X66964095Y-66250476D01*
X66964095Y-65374285D02*
X67497428Y-65374285D01*
X67764095Y-65374285D02*
X67726000Y-65412380D01*
X67687904Y-65374285D01*
X67726000Y-65336190D01*
X67764095Y-65374285D01*
X67687904Y-65374285D01*
X67497428Y-64993333D02*
X66964095Y-64993333D01*
X67421238Y-64993333D02*
X67459333Y-64955238D01*
X67497428Y-64879047D01*
X67497428Y-64764761D01*
X67459333Y-64688571D01*
X67383142Y-64650476D01*
X66964095Y-64650476D01*
D12*
X45412619Y-56677138D02*
X45412619Y-55107138D01*
X45412619Y-55854757D02*
X44955476Y-55854757D01*
X44955476Y-56677138D02*
X44955476Y-55107138D01*
X44117380Y-56527614D02*
X44155476Y-56602376D01*
X44269761Y-56677138D01*
X44345952Y-56677138D01*
X44460238Y-56602376D01*
X44536428Y-56452852D01*
X44574523Y-56303328D01*
X44612619Y-56004280D01*
X44612619Y-55779995D01*
X44574523Y-55480947D01*
X44536428Y-55331423D01*
X44460238Y-55181900D01*
X44345952Y-55107138D01*
X44269761Y-55107138D01*
X44155476Y-55181900D01*
X44117380Y-55256661D01*
X45298333Y-59204838D02*
X45298333Y-57634838D01*
X45298333Y-58382457D02*
X44841190Y-58382457D01*
X44841190Y-59204838D02*
X44841190Y-57634838D01*
X44498333Y-58756266D02*
X44117380Y-58756266D01*
X44574523Y-59204838D02*
X44307857Y-57634838D01*
X44041190Y-59204838D01*
X46403095Y-61732538D02*
X46403095Y-60162538D01*
X46098333Y-60162538D01*
X46022142Y-60237300D01*
X45984047Y-60312061D01*
X45945952Y-60461585D01*
X45945952Y-60685871D01*
X45984047Y-60835395D01*
X46022142Y-60910157D01*
X46098333Y-60984919D01*
X46403095Y-60984919D01*
X45679285Y-60162538D02*
X45488809Y-61732538D01*
X45336428Y-60611109D01*
X45184047Y-61732538D01*
X44993571Y-60162538D01*
X44688809Y-61732538D02*
X44688809Y-60162538D01*
X44422142Y-61283966D01*
X44155476Y-60162538D01*
X44155476Y-61732538D01*
X46974523Y-63437857D02*
X47241190Y-63437857D01*
X47241190Y-64260238D02*
X47241190Y-62690238D01*
X46860238Y-62690238D01*
X46593571Y-63811666D02*
X46212619Y-63811666D01*
X46669761Y-64260238D02*
X46403095Y-62690238D01*
X46136428Y-64260238D01*
X45869761Y-62690238D02*
X45869761Y-63961190D01*
X45831666Y-64110714D01*
X45793571Y-64185476D01*
X45717380Y-64260238D01*
X45565000Y-64260238D01*
X45488809Y-64185476D01*
X45450714Y-64110714D01*
X45412619Y-63961190D01*
X45412619Y-62690238D01*
X44650714Y-64260238D02*
X45031666Y-64260238D01*
X45031666Y-62690238D01*
X44498333Y-62690238D02*
X44041190Y-62690238D01*
X44269761Y-64260238D02*
X44269761Y-62690238D01*
X47469761Y-65217938D02*
X47317380Y-65217938D01*
X47241190Y-65292700D01*
X47165000Y-65442223D01*
X47126904Y-65741271D01*
X47126904Y-66264604D01*
X47165000Y-66563652D01*
X47241190Y-66713176D01*
X47317380Y-66787938D01*
X47469761Y-66787938D01*
X47545952Y-66713176D01*
X47622142Y-66563652D01*
X47660238Y-66264604D01*
X47660238Y-65741271D01*
X47622142Y-65442223D01*
X47545952Y-65292700D01*
X47469761Y-65217938D01*
X46326904Y-66638414D02*
X46365000Y-66713176D01*
X46479285Y-66787938D01*
X46555476Y-66787938D01*
X46669761Y-66713176D01*
X46745952Y-66563652D01*
X46784047Y-66414128D01*
X46822142Y-66115080D01*
X46822142Y-65890795D01*
X46784047Y-65591747D01*
X46745952Y-65442223D01*
X46669761Y-65292700D01*
X46555476Y-65217938D01*
X46479285Y-65217938D01*
X46365000Y-65292700D01*
X46326904Y-65367461D01*
X45526904Y-66787938D02*
X45793571Y-66040319D01*
X45984047Y-66787938D02*
X45984047Y-65217938D01*
X45679285Y-65217938D01*
X45603095Y-65292700D01*
X45565000Y-65367461D01*
X45526904Y-65516985D01*
X45526904Y-65741271D01*
X45565000Y-65890795D01*
X45603095Y-65965557D01*
X45679285Y-66040319D01*
X45984047Y-66040319D01*
X45184047Y-65965557D02*
X44917380Y-65965557D01*
X44803095Y-66787938D02*
X45184047Y-66787938D01*
X45184047Y-65217938D01*
X44803095Y-65217938D01*
X44193571Y-65965557D02*
X44460238Y-65965557D01*
X44460238Y-66787938D02*
X44460238Y-65217938D01*
X44079285Y-65217938D01*
X45793571Y-67820400D02*
X45869761Y-67745638D01*
X45984047Y-67745638D01*
X46098333Y-67820400D01*
X46174523Y-67969923D01*
X46212619Y-68119447D01*
X46250714Y-68418495D01*
X46250714Y-68642780D01*
X46212619Y-68941828D01*
X46174523Y-69091352D01*
X46098333Y-69240876D01*
X45984047Y-69315638D01*
X45907857Y-69315638D01*
X45793571Y-69240876D01*
X45755476Y-69166114D01*
X45755476Y-68642780D01*
X45907857Y-68642780D01*
X45412619Y-69315638D02*
X45412619Y-67745638D01*
X44955476Y-69315638D01*
X44955476Y-67745638D01*
X44574523Y-69315638D02*
X44574523Y-67745638D01*
X44384047Y-67745638D01*
X44269761Y-67820400D01*
X44193571Y-67969923D01*
X44155476Y-68119447D01*
X44117380Y-68418495D01*
X44117380Y-68642780D01*
X44155476Y-68941828D01*
X44193571Y-69091352D01*
X44269761Y-69240876D01*
X44384047Y-69315638D01*
X44574523Y-69315638D01*
X45603095Y-71693814D02*
X45641190Y-71768576D01*
X45755476Y-71843338D01*
X45831666Y-71843338D01*
X45945952Y-71768576D01*
X46022142Y-71619052D01*
X46060238Y-71469528D01*
X46098333Y-71170480D01*
X46098333Y-70946195D01*
X46060238Y-70647147D01*
X46022142Y-70497623D01*
X45945952Y-70348100D01*
X45831666Y-70273338D01*
X45755476Y-70273338D01*
X45641190Y-70348100D01*
X45603095Y-70422861D01*
X45260238Y-71843338D02*
X45260238Y-70273338D01*
X44955476Y-70273338D01*
X44879285Y-70348100D01*
X44841190Y-70422861D01*
X44803095Y-70572385D01*
X44803095Y-70796671D01*
X44841190Y-70946195D01*
X44879285Y-71020957D01*
X44955476Y-71095719D01*
X45260238Y-71095719D01*
X44498333Y-71394766D02*
X44117380Y-71394766D01*
X44574523Y-71843338D02*
X44307857Y-70273338D01*
X44041190Y-71843338D01*
D10*
X81485714Y-66078571D02*
X81485714Y-64578571D01*
X81485714Y-65292857D02*
X80628571Y-65292857D01*
X80628571Y-66078571D02*
X80628571Y-64578571D01*
X79985714Y-65650000D02*
X79271428Y-65650000D01*
X80128571Y-66078571D02*
X79628571Y-64578571D01*
X79128571Y-66078571D01*
X78700000Y-66007142D02*
X78485714Y-66078571D01*
X78128571Y-66078571D01*
X77985714Y-66007142D01*
X77914285Y-65935714D01*
X77842857Y-65792857D01*
X77842857Y-65650000D01*
X77914285Y-65507142D01*
X77985714Y-65435714D01*
X78128571Y-65364285D01*
X78414285Y-65292857D01*
X78557142Y-65221428D01*
X78628571Y-65150000D01*
X78700000Y-65007142D01*
X78700000Y-64864285D01*
X78628571Y-64721428D01*
X78557142Y-64650000D01*
X78414285Y-64578571D01*
X78057142Y-64578571D01*
X77842857Y-64650000D01*
X68322857Y-56891428D02*
X68275238Y-56929523D01*
X68227619Y-57043809D01*
X68227619Y-57120000D01*
X68275238Y-57234285D01*
X68370476Y-57310476D01*
X68465714Y-57348571D01*
X68656190Y-57386666D01*
X68799047Y-57386666D01*
X68989523Y-57348571D01*
X69084761Y-57310476D01*
X69180000Y-57234285D01*
X69227619Y-57120000D01*
X69227619Y-57043809D01*
X69180000Y-56929523D01*
X69132380Y-56891428D01*
X69227619Y-56396190D02*
X69227619Y-56243809D01*
X69180000Y-56167619D01*
X69084761Y-56091428D01*
X68894285Y-56053333D01*
X68560952Y-56053333D01*
X68370476Y-56091428D01*
X68275238Y-56167619D01*
X68227619Y-56243809D01*
X68227619Y-56396190D01*
X68275238Y-56472380D01*
X68370476Y-56548571D01*
X68560952Y-56586666D01*
X68894285Y-56586666D01*
X69084761Y-56548571D01*
X69180000Y-56472380D01*
X69227619Y-56396190D01*
X70751428Y-74396190D02*
X70751428Y-74662857D01*
X70227619Y-74662857D02*
X71227619Y-74662857D01*
X71227619Y-74281904D01*
X70513333Y-74015238D02*
X70513333Y-73634285D01*
X70227619Y-74091428D02*
X71227619Y-73824761D01*
X70227619Y-73558095D01*
X71227619Y-73291428D02*
X70418095Y-73291428D01*
X70322857Y-73253333D01*
X70275238Y-73215238D01*
X70227619Y-73139047D01*
X70227619Y-72986666D01*
X70275238Y-72910476D01*
X70322857Y-72872380D01*
X70418095Y-72834285D01*
X71227619Y-72834285D01*
X70227619Y-72072380D02*
X70227619Y-72453333D01*
X71227619Y-72453333D01*
X71227619Y-71920000D02*
X71227619Y-71462857D01*
X70227619Y-71691428D02*
X71227619Y-71691428D01*
X94122857Y-66078571D02*
X94122857Y-64578571D01*
X94122857Y-65292857D02*
X93265714Y-65292857D01*
X93265714Y-66078571D02*
X93265714Y-64578571D01*
X92051428Y-65292857D02*
X91837142Y-65364285D01*
X91765714Y-65435714D01*
X91694285Y-65578571D01*
X91694285Y-65792857D01*
X91765714Y-65935714D01*
X91837142Y-66007142D01*
X91980000Y-66078571D01*
X92551428Y-66078571D01*
X92551428Y-64578571D01*
X92051428Y-64578571D01*
X91908571Y-64650000D01*
X91837142Y-64721428D01*
X91765714Y-64864285D01*
X91765714Y-65007142D01*
X91837142Y-65150000D01*
X91908571Y-65221428D01*
X92051428Y-65292857D01*
X92551428Y-65292857D01*
X91122857Y-66007142D02*
X90908571Y-66078571D01*
X90551428Y-66078571D01*
X90408571Y-66007142D01*
X90337142Y-65935714D01*
X90265714Y-65792857D01*
X90265714Y-65650000D01*
X90337142Y-65507142D01*
X90408571Y-65435714D01*
X90551428Y-65364285D01*
X90837142Y-65292857D01*
X90980000Y-65221428D01*
X91051428Y-65150000D01*
X91122857Y-65007142D01*
X91122857Y-64864285D01*
X91051428Y-64721428D01*
X90980000Y-64650000D01*
X90837142Y-64578571D01*
X90480000Y-64578571D01*
X90265714Y-64650000D01*
X73282095Y-66532380D02*
X74082095Y-66532380D01*
X73282095Y-66189523D02*
X73701142Y-66189523D01*
X73777333Y-66227619D01*
X73815428Y-66303809D01*
X73815428Y-66418095D01*
X73777333Y-66494285D01*
X73739238Y-66532380D01*
X73282095Y-65465714D02*
X73701142Y-65465714D01*
X73777333Y-65503809D01*
X73815428Y-65580000D01*
X73815428Y-65732380D01*
X73777333Y-65808571D01*
X73320190Y-65465714D02*
X73282095Y-65541904D01*
X73282095Y-65732380D01*
X73320190Y-65808571D01*
X73396380Y-65846666D01*
X73472571Y-65846666D01*
X73548761Y-65808571D01*
X73586857Y-65732380D01*
X73586857Y-65541904D01*
X73624952Y-65465714D01*
X73282095Y-64970476D02*
X73320190Y-65046666D01*
X73396380Y-65084761D01*
X74082095Y-65084761D01*
X73282095Y-64551428D02*
X73320190Y-64627619D01*
X73396380Y-64665714D01*
X74082095Y-64665714D01*
X72070285Y-66189523D02*
X72032190Y-66227619D01*
X71994095Y-66341904D01*
X71994095Y-66418095D01*
X72032190Y-66532380D01*
X72108380Y-66608571D01*
X72184571Y-66646666D01*
X72336952Y-66684761D01*
X72451238Y-66684761D01*
X72603619Y-66646666D01*
X72679809Y-66608571D01*
X72756000Y-66532380D01*
X72794095Y-66418095D01*
X72794095Y-66341904D01*
X72756000Y-66227619D01*
X72717904Y-66189523D01*
X71994095Y-65237142D02*
X72527428Y-65237142D01*
X72794095Y-65237142D02*
X72756000Y-65275238D01*
X72717904Y-65237142D01*
X72756000Y-65199047D01*
X72794095Y-65237142D01*
X72717904Y-65237142D01*
X72527428Y-64856190D02*
X71994095Y-64856190D01*
X72451238Y-64856190D02*
X72489333Y-64818095D01*
X72527428Y-64741904D01*
X72527428Y-64627619D01*
X72489333Y-64551428D01*
X72413142Y-64513333D01*
X71994095Y-64513333D01*
X63403333Y-50120000D02*
X63403333Y-49739047D01*
X63117619Y-50196190D02*
X64117619Y-49929523D01*
X63117619Y-49662857D01*
X63117619Y-49396190D02*
X64117619Y-49396190D01*
X63117619Y-49015238D02*
X64117619Y-49015238D01*
X63117619Y-48558095D01*
X64117619Y-48558095D01*
D12*
X60713095Y-55131900D02*
X60789285Y-55057138D01*
X60903571Y-55057138D01*
X61017857Y-55131900D01*
X61094047Y-55281423D01*
X61132142Y-55430947D01*
X61170238Y-55729995D01*
X61170238Y-55954280D01*
X61132142Y-56253328D01*
X61094047Y-56402852D01*
X61017857Y-56552376D01*
X60903571Y-56627138D01*
X60827380Y-56627138D01*
X60713095Y-56552376D01*
X60675000Y-56477614D01*
X60675000Y-55954280D01*
X60827380Y-55954280D01*
X59951190Y-56627138D02*
X60332142Y-56627138D01*
X60332142Y-55057138D01*
X59227380Y-56477614D02*
X59265476Y-56552376D01*
X59379761Y-56627138D01*
X59455952Y-56627138D01*
X59570238Y-56552376D01*
X59646428Y-56402852D01*
X59684523Y-56253328D01*
X59722619Y-55954280D01*
X59722619Y-55729995D01*
X59684523Y-55430947D01*
X59646428Y-55281423D01*
X59570238Y-55131900D01*
X59455952Y-55057138D01*
X59379761Y-55057138D01*
X59265476Y-55131900D01*
X59227380Y-55206661D01*
X61322619Y-59080076D02*
X61208333Y-59154838D01*
X61017857Y-59154838D01*
X60941666Y-59080076D01*
X60903571Y-59005314D01*
X60865476Y-58855790D01*
X60865476Y-58706266D01*
X60903571Y-58556742D01*
X60941666Y-58481980D01*
X61017857Y-58407219D01*
X61170238Y-58332457D01*
X61246428Y-58257695D01*
X61284523Y-58182933D01*
X61322619Y-58033409D01*
X61322619Y-57883885D01*
X61284523Y-57734361D01*
X61246428Y-57659600D01*
X61170238Y-57584838D01*
X60979761Y-57584838D01*
X60865476Y-57659600D01*
X60522619Y-59154838D02*
X60522619Y-57584838D01*
X60522619Y-58332457D02*
X60065476Y-58332457D01*
X60065476Y-59154838D02*
X60065476Y-57584838D01*
X59227380Y-59005314D02*
X59265476Y-59080076D01*
X59379761Y-59154838D01*
X59455952Y-59154838D01*
X59570238Y-59080076D01*
X59646428Y-58930552D01*
X59684523Y-58781028D01*
X59722619Y-58481980D01*
X59722619Y-58257695D01*
X59684523Y-57958647D01*
X59646428Y-57809123D01*
X59570238Y-57659600D01*
X59455952Y-57584838D01*
X59379761Y-57584838D01*
X59265476Y-57659600D01*
X59227380Y-57734361D01*
X60713095Y-60187300D02*
X60789285Y-60112538D01*
X60903571Y-60112538D01*
X61017857Y-60187300D01*
X61094047Y-60336823D01*
X61132142Y-60486347D01*
X61170238Y-60785395D01*
X61170238Y-61009680D01*
X61132142Y-61308728D01*
X61094047Y-61458252D01*
X61017857Y-61607776D01*
X60903571Y-61682538D01*
X60827380Y-61682538D01*
X60713095Y-61607776D01*
X60675000Y-61533014D01*
X60675000Y-61009680D01*
X60827380Y-61009680D01*
X59951190Y-61682538D02*
X60332142Y-61682538D01*
X60332142Y-60112538D01*
X59417857Y-60860157D02*
X59303571Y-60934919D01*
X59265476Y-61009680D01*
X59227380Y-61159204D01*
X59227380Y-61383490D01*
X59265476Y-61533014D01*
X59303571Y-61607776D01*
X59379761Y-61682538D01*
X59684523Y-61682538D01*
X59684523Y-60112538D01*
X59417857Y-60112538D01*
X59341666Y-60187300D01*
X59303571Y-60262061D01*
X59265476Y-60411585D01*
X59265476Y-60561109D01*
X59303571Y-60710633D01*
X59341666Y-60785395D01*
X59417857Y-60860157D01*
X59684523Y-60860157D01*
X61322619Y-64135476D02*
X61208333Y-64210238D01*
X61017857Y-64210238D01*
X60941666Y-64135476D01*
X60903571Y-64060714D01*
X60865476Y-63911190D01*
X60865476Y-63761666D01*
X60903571Y-63612142D01*
X60941666Y-63537380D01*
X61017857Y-63462619D01*
X61170238Y-63387857D01*
X61246428Y-63313095D01*
X61284523Y-63238333D01*
X61322619Y-63088809D01*
X61322619Y-62939285D01*
X61284523Y-62789761D01*
X61246428Y-62715000D01*
X61170238Y-62640238D01*
X60979761Y-62640238D01*
X60865476Y-62715000D01*
X60522619Y-64210238D02*
X60522619Y-62640238D01*
X60522619Y-63387857D02*
X60065476Y-63387857D01*
X60065476Y-64210238D02*
X60065476Y-62640238D01*
X59417857Y-63387857D02*
X59303571Y-63462619D01*
X59265476Y-63537380D01*
X59227380Y-63686904D01*
X59227380Y-63911190D01*
X59265476Y-64060714D01*
X59303571Y-64135476D01*
X59379761Y-64210238D01*
X59684523Y-64210238D01*
X59684523Y-62640238D01*
X59417857Y-62640238D01*
X59341666Y-62715000D01*
X59303571Y-62789761D01*
X59265476Y-62939285D01*
X59265476Y-63088809D01*
X59303571Y-63238333D01*
X59341666Y-63313095D01*
X59417857Y-63387857D01*
X59684523Y-63387857D01*
X60598809Y-65242700D02*
X60675000Y-65167938D01*
X60789285Y-65167938D01*
X60903571Y-65242700D01*
X60979761Y-65392223D01*
X61017857Y-65541747D01*
X61055952Y-65840795D01*
X61055952Y-66065080D01*
X61017857Y-66364128D01*
X60979761Y-66513652D01*
X60903571Y-66663176D01*
X60789285Y-66737938D01*
X60713095Y-66737938D01*
X60598809Y-66663176D01*
X60560714Y-66588414D01*
X60560714Y-66065080D01*
X60713095Y-66065080D01*
X59836904Y-66737938D02*
X60217857Y-66737938D01*
X60217857Y-65167938D01*
X59608333Y-66289366D02*
X59227380Y-66289366D01*
X59684523Y-66737938D02*
X59417857Y-65167938D01*
X59151190Y-66737938D01*
X61208333Y-69190876D02*
X61094047Y-69265638D01*
X60903571Y-69265638D01*
X60827380Y-69190876D01*
X60789285Y-69116114D01*
X60751190Y-68966590D01*
X60751190Y-68817066D01*
X60789285Y-68667542D01*
X60827380Y-68592780D01*
X60903571Y-68518019D01*
X61055952Y-68443257D01*
X61132142Y-68368495D01*
X61170238Y-68293733D01*
X61208333Y-68144209D01*
X61208333Y-67994685D01*
X61170238Y-67845161D01*
X61132142Y-67770400D01*
X61055952Y-67695638D01*
X60865476Y-67695638D01*
X60751190Y-67770400D01*
X60408333Y-69265638D02*
X60408333Y-67695638D01*
X60408333Y-68443257D02*
X59951190Y-68443257D01*
X59951190Y-69265638D02*
X59951190Y-67695638D01*
X59608333Y-68817066D02*
X59227380Y-68817066D01*
X59684523Y-69265638D02*
X59417857Y-67695638D01*
X59151190Y-69265638D01*
X62008333Y-70223338D02*
X61741666Y-71793338D01*
X61475000Y-70223338D01*
X60751190Y-71793338D02*
X61017857Y-71045719D01*
X61208333Y-71793338D02*
X61208333Y-70223338D01*
X60903571Y-70223338D01*
X60827380Y-70298100D01*
X60789285Y-70372861D01*
X60751190Y-70522385D01*
X60751190Y-70746671D01*
X60789285Y-70896195D01*
X60827380Y-70970957D01*
X60903571Y-71045719D01*
X61208333Y-71045719D01*
X60408333Y-70970957D02*
X60141666Y-70970957D01*
X60027380Y-71793338D02*
X60408333Y-71793338D01*
X60408333Y-70223338D01*
X60027380Y-70223338D01*
X59265476Y-70298100D02*
X59341666Y-70223338D01*
X59455952Y-70223338D01*
X59570238Y-70298100D01*
X59646428Y-70447623D01*
X59684523Y-70597147D01*
X59722619Y-70896195D01*
X59722619Y-71120480D01*
X59684523Y-71419528D01*
X59646428Y-71569052D01*
X59570238Y-71718576D01*
X59455952Y-71793338D01*
X59379761Y-71793338D01*
X59265476Y-71718576D01*
X59227380Y-71643814D01*
X59227380Y-71120480D01*
X59379761Y-71120480D01*
D10*
X99122857Y-66128571D02*
X99122857Y-64628571D01*
X99122857Y-65342857D02*
X98265714Y-65342857D01*
X98265714Y-66128571D02*
X98265714Y-64628571D01*
X96694285Y-65985714D02*
X96765714Y-66057142D01*
X96980000Y-66128571D01*
X97122857Y-66128571D01*
X97337142Y-66057142D01*
X97480000Y-65914285D01*
X97551428Y-65771428D01*
X97622857Y-65485714D01*
X97622857Y-65271428D01*
X97551428Y-64985714D01*
X97480000Y-64842857D01*
X97337142Y-64700000D01*
X97122857Y-64628571D01*
X96980000Y-64628571D01*
X96765714Y-64700000D01*
X96694285Y-64771428D01*
X96122857Y-66057142D02*
X95908571Y-66128571D01*
X95551428Y-66128571D01*
X95408571Y-66057142D01*
X95337142Y-65985714D01*
X95265714Y-65842857D01*
X95265714Y-65700000D01*
X95337142Y-65557142D01*
X95408571Y-65485714D01*
X95551428Y-65414285D01*
X95837142Y-65342857D01*
X95980000Y-65271428D01*
X96051428Y-65200000D01*
X96122857Y-65057142D01*
X96122857Y-64914285D01*
X96051428Y-64771428D01*
X95980000Y-64700000D01*
X95837142Y-64628571D01*
X95480000Y-64628571D01*
X95265714Y-64700000D01*
X68322857Y-49681904D02*
X68275238Y-49720000D01*
X68227619Y-49834285D01*
X68227619Y-49910476D01*
X68275238Y-50024761D01*
X68370476Y-50100952D01*
X68465714Y-50139047D01*
X68656190Y-50177142D01*
X68799047Y-50177142D01*
X68989523Y-50139047D01*
X69084761Y-50100952D01*
X69180000Y-50024761D01*
X69227619Y-49910476D01*
X69227619Y-49834285D01*
X69180000Y-49720000D01*
X69132380Y-49681904D01*
X68227619Y-49339047D02*
X69227619Y-49339047D01*
X68227619Y-48958095D02*
X69227619Y-48958095D01*
X68227619Y-48500952D01*
X69227619Y-48500952D01*
X70742095Y-66552380D02*
X71542095Y-66552380D01*
X70742095Y-66209523D02*
X71161142Y-66209523D01*
X71237333Y-66247619D01*
X71275428Y-66323809D01*
X71275428Y-66438095D01*
X71237333Y-66514285D01*
X71199238Y-66552380D01*
X70742095Y-65485714D02*
X71161142Y-65485714D01*
X71237333Y-65523809D01*
X71275428Y-65600000D01*
X71275428Y-65752380D01*
X71237333Y-65828571D01*
X70780190Y-65485714D02*
X70742095Y-65561904D01*
X70742095Y-65752380D01*
X70780190Y-65828571D01*
X70856380Y-65866666D01*
X70932571Y-65866666D01*
X71008761Y-65828571D01*
X71046857Y-65752380D01*
X71046857Y-65561904D01*
X71084952Y-65485714D01*
X70742095Y-64990476D02*
X70780190Y-65066666D01*
X70856380Y-65104761D01*
X71542095Y-65104761D01*
X70742095Y-64571428D02*
X70780190Y-64647619D01*
X70856380Y-64685714D01*
X71542095Y-64685714D01*
X69873142Y-66400000D02*
X69835047Y-66285714D01*
X69796952Y-66247619D01*
X69720761Y-66209523D01*
X69606476Y-66209523D01*
X69530285Y-66247619D01*
X69492190Y-66285714D01*
X69454095Y-66361904D01*
X69454095Y-66666666D01*
X70254095Y-66666666D01*
X70254095Y-66400000D01*
X70216000Y-66323809D01*
X70177904Y-66285714D01*
X70101714Y-66247619D01*
X70025523Y-66247619D01*
X69949333Y-66285714D01*
X69911238Y-66323809D01*
X69873142Y-66400000D01*
X69873142Y-66666666D01*
X69454095Y-65257142D02*
X69987428Y-65257142D01*
X70254095Y-65257142D02*
X70216000Y-65295238D01*
X70177904Y-65257142D01*
X70216000Y-65219047D01*
X70254095Y-65257142D01*
X70177904Y-65257142D01*
X69987428Y-64876190D02*
X69454095Y-64876190D01*
X69911238Y-64876190D02*
X69949333Y-64838095D01*
X69987428Y-64761904D01*
X69987428Y-64647619D01*
X69949333Y-64571428D01*
X69873142Y-64533333D01*
X69454095Y-64533333D01*
D11*
X124519047Y-62189523D02*
X124233333Y-62284761D01*
X123757142Y-62284761D01*
X123566666Y-62189523D01*
X123471428Y-62094285D01*
X123376190Y-61903809D01*
X123376190Y-61713333D01*
X123471428Y-61522857D01*
X123566666Y-61427619D01*
X123757142Y-61332380D01*
X124138095Y-61237142D01*
X124328571Y-61141904D01*
X124423809Y-61046666D01*
X124519047Y-60856190D01*
X124519047Y-60665714D01*
X124423809Y-60475238D01*
X124328571Y-60380000D01*
X124138095Y-60284761D01*
X123661904Y-60284761D01*
X123376190Y-60380000D01*
X121661904Y-62284761D02*
X121661904Y-61237142D01*
X121757142Y-61046666D01*
X121947619Y-60951428D01*
X122328571Y-60951428D01*
X122519047Y-61046666D01*
X121661904Y-62189523D02*
X121852380Y-62284761D01*
X122328571Y-62284761D01*
X122519047Y-62189523D01*
X122614285Y-61999047D01*
X122614285Y-61808571D01*
X122519047Y-61618095D01*
X122328571Y-61522857D01*
X121852380Y-61522857D01*
X121661904Y-61427619D01*
X120709523Y-62284761D02*
X120709523Y-60951428D01*
X120709523Y-60284761D02*
X120804761Y-60380000D01*
X120709523Y-60475238D01*
X120614285Y-60380000D01*
X120709523Y-60284761D01*
X120709523Y-60475238D01*
X120042857Y-60951428D02*
X119280952Y-60951428D01*
X119757142Y-60284761D02*
X119757142Y-61999047D01*
X119661904Y-62189523D01*
X119471428Y-62284761D01*
X119280952Y-62284761D01*
X118614285Y-62284761D02*
X118614285Y-60951428D01*
X118614285Y-60284761D02*
X118709523Y-60380000D01*
X118614285Y-60475238D01*
X118519047Y-60380000D01*
X118614285Y-60284761D01*
X118614285Y-60475238D01*
X117757142Y-62189523D02*
X117566666Y-62284761D01*
X117185714Y-62284761D01*
X116995238Y-62189523D01*
X116900000Y-61999047D01*
X116900000Y-61903809D01*
X116995238Y-61713333D01*
X117185714Y-61618095D01*
X117471428Y-61618095D01*
X117661904Y-61522857D01*
X117757142Y-61332380D01*
X117757142Y-61237142D01*
X117661904Y-61046666D01*
X117471428Y-60951428D01*
X117185714Y-60951428D01*
X116995238Y-61046666D01*
X116042857Y-62094285D02*
X115947619Y-62189523D01*
X116042857Y-62284761D01*
X116138095Y-62189523D01*
X116042857Y-62094285D01*
X116042857Y-62284761D01*
X115090476Y-60951428D02*
X115090476Y-62284761D01*
X115090476Y-61141904D02*
X114995238Y-61046666D01*
X114804761Y-60951428D01*
X114519047Y-60951428D01*
X114328571Y-61046666D01*
X114233333Y-61237142D01*
X114233333Y-62284761D01*
X112519047Y-62189523D02*
X112709523Y-62284761D01*
X113090476Y-62284761D01*
X113280952Y-62189523D01*
X113376190Y-61999047D01*
X113376190Y-61237142D01*
X113280952Y-61046666D01*
X113090476Y-60951428D01*
X112709523Y-60951428D01*
X112519047Y-61046666D01*
X112423809Y-61237142D01*
X112423809Y-61427619D01*
X113376190Y-61618095D01*
X111852380Y-60951428D02*
X111090476Y-60951428D01*
X111566666Y-60284761D02*
X111566666Y-61999047D01*
X111471428Y-62189523D01*
X111280952Y-62284761D01*
X111090476Y-62284761D01*
X127614285Y-63695238D02*
X127519047Y-63600000D01*
X127328571Y-63504761D01*
X126852380Y-63504761D01*
X126661904Y-63600000D01*
X126566666Y-63695238D01*
X126471428Y-63885714D01*
X126471428Y-64076190D01*
X126566666Y-64361904D01*
X127709523Y-65504761D01*
X126471428Y-65504761D01*
X125233333Y-63504761D02*
X125042857Y-63504761D01*
X124852380Y-63600000D01*
X124757142Y-63695238D01*
X124661904Y-63885714D01*
X124566666Y-64266666D01*
X124566666Y-64742857D01*
X124661904Y-65123809D01*
X124757142Y-65314285D01*
X124852380Y-65409523D01*
X125042857Y-65504761D01*
X125233333Y-65504761D01*
X125423809Y-65409523D01*
X125519047Y-65314285D01*
X125614285Y-65123809D01*
X125709523Y-64742857D01*
X125709523Y-64266666D01*
X125614285Y-63885714D01*
X125519047Y-63695238D01*
X125423809Y-63600000D01*
X125233333Y-63504761D01*
X123804761Y-63695238D02*
X123709523Y-63600000D01*
X123519047Y-63504761D01*
X123042857Y-63504761D01*
X122852380Y-63600000D01*
X122757142Y-63695238D01*
X122661904Y-63885714D01*
X122661904Y-64076190D01*
X122757142Y-64361904D01*
X123900000Y-65504761D01*
X122661904Y-65504761D01*
X120852380Y-63504761D02*
X121804761Y-63504761D01*
X121900000Y-64457142D01*
X121804761Y-64361904D01*
X121614285Y-64266666D01*
X121138095Y-64266666D01*
X120947619Y-64361904D01*
X120852380Y-64457142D01*
X120757142Y-64647619D01*
X120757142Y-65123809D01*
X120852380Y-65314285D01*
X120947619Y-65409523D01*
X121138095Y-65504761D01*
X121614285Y-65504761D01*
X121804761Y-65409523D01*
X121900000Y-65314285D01*
X119900000Y-64742857D02*
X118376190Y-64742857D01*
X117042857Y-63504761D02*
X116852380Y-63504761D01*
X116661904Y-63600000D01*
X116566666Y-63695238D01*
X116471428Y-63885714D01*
X116376190Y-64266666D01*
X116376190Y-64742857D01*
X116471428Y-65123809D01*
X116566666Y-65314285D01*
X116661904Y-65409523D01*
X116852380Y-65504761D01*
X117042857Y-65504761D01*
X117233333Y-65409523D01*
X117328571Y-65314285D01*
X117423809Y-65123809D01*
X117519047Y-64742857D01*
X117519047Y-64266666D01*
X117423809Y-63885714D01*
X117328571Y-63695238D01*
X117233333Y-63600000D01*
X117042857Y-63504761D01*
X114471428Y-65504761D02*
X115614285Y-65504761D01*
X115042857Y-65504761D02*
X115042857Y-63504761D01*
X115233333Y-63790476D01*
X115423809Y-63980952D01*
X115614285Y-64076190D01*
X113614285Y-64742857D02*
X112090476Y-64742857D01*
X110090476Y-65504761D02*
X111233333Y-65504761D01*
X110661904Y-65504761D02*
X110661904Y-63504761D01*
X110852380Y-63790476D01*
X111042857Y-63980952D01*
X111233333Y-64076190D01*
X108280952Y-63504761D02*
X109233333Y-63504761D01*
X109328571Y-64457142D01*
X109233333Y-64361904D01*
X109042857Y-64266666D01*
X108566666Y-64266666D01*
X108376190Y-64361904D01*
X108280952Y-64457142D01*
X108185714Y-64647619D01*
X108185714Y-65123809D01*
X108280952Y-65314285D01*
X108376190Y-65409523D01*
X108566666Y-65504761D01*
X109042857Y-65504761D01*
X109233333Y-65409523D01*
X109328571Y-65314285D01*
X120757142Y-67391428D02*
X120280952Y-68724761D01*
X119804761Y-67391428D01*
X117995238Y-68724761D02*
X119138095Y-68724761D01*
X118566666Y-68724761D02*
X118566666Y-66724761D01*
X118757142Y-67010476D01*
X118947619Y-67200952D01*
X119138095Y-67296190D01*
X117138095Y-68534285D02*
X117042857Y-68629523D01*
X117138095Y-68724761D01*
X117233333Y-68629523D01*
X117138095Y-68534285D01*
X117138095Y-68724761D01*
X115138095Y-68724761D02*
X116280952Y-68724761D01*
X115709523Y-68724761D02*
X115709523Y-66724761D01*
X115900000Y-67010476D01*
X116090476Y-67200952D01*
X116280952Y-67296190D01*
X116095238Y-45047809D02*
X116095238Y-43447809D01*
X115561904Y-44590666D01*
X115028571Y-43447809D01*
X115028571Y-45047809D01*
X114266666Y-45047809D02*
X114266666Y-43447809D01*
X113657142Y-43447809D01*
X113504761Y-43524000D01*
X113428571Y-43600190D01*
X113352380Y-43752571D01*
X113352380Y-43981142D01*
X113428571Y-44133523D01*
X113504761Y-44209714D01*
X113657142Y-44285904D01*
X114266666Y-44285904D01*
X111980952Y-43447809D02*
X112285714Y-43447809D01*
X112438095Y-43524000D01*
X112514285Y-43600190D01*
X112666666Y-43828761D01*
X112742857Y-44133523D01*
X112742857Y-44743047D01*
X112666666Y-44895428D01*
X112590476Y-44971619D01*
X112438095Y-45047809D01*
X112133333Y-45047809D01*
X111980952Y-44971619D01*
X111904761Y-44895428D01*
X111828571Y-44743047D01*
X111828571Y-44362095D01*
X111904761Y-44209714D01*
X111980952Y-44133523D01*
X112133333Y-44057333D01*
X112438095Y-44057333D01*
X112590476Y-44133523D01*
X112666666Y-44209714D01*
X112742857Y-44362095D01*
X110380952Y-43447809D02*
X111142857Y-43447809D01*
X111219047Y-44209714D01*
X111142857Y-44133523D01*
X110990476Y-44057333D01*
X110609523Y-44057333D01*
X110457142Y-44133523D01*
X110380952Y-44209714D01*
X110304761Y-44362095D01*
X110304761Y-44743047D01*
X110380952Y-44895428D01*
X110457142Y-44971619D01*
X110609523Y-45047809D01*
X110990476Y-45047809D01*
X111142857Y-44971619D01*
X111219047Y-44895428D01*
X109771428Y-43447809D02*
X108780952Y-43447809D01*
X109314285Y-44057333D01*
X109085714Y-44057333D01*
X108933333Y-44133523D01*
X108857142Y-44209714D01*
X108780952Y-44362095D01*
X108780952Y-44743047D01*
X108857142Y-44895428D01*
X108933333Y-44971619D01*
X109085714Y-45047809D01*
X109542857Y-45047809D01*
X109695238Y-44971619D01*
X109771428Y-44895428D01*
X108171428Y-43600190D02*
X108095238Y-43524000D01*
X107942857Y-43447809D01*
X107561904Y-43447809D01*
X107409523Y-43524000D01*
X107333333Y-43600190D01*
X107257142Y-43752571D01*
X107257142Y-43904952D01*
X107333333Y-44133523D01*
X108247619Y-45047809D01*
X107257142Y-45047809D01*
X105352380Y-45047809D02*
X105352380Y-43447809D01*
X105352380Y-44057333D02*
X105200000Y-43981142D01*
X104895238Y-43981142D01*
X104742857Y-44057333D01*
X104666666Y-44133523D01*
X104590476Y-44285904D01*
X104590476Y-44743047D01*
X104666666Y-44895428D01*
X104742857Y-44971619D01*
X104895238Y-45047809D01*
X105200000Y-45047809D01*
X105352380Y-44971619D01*
X103219047Y-45047809D02*
X103219047Y-44209714D01*
X103295238Y-44057333D01*
X103447619Y-43981142D01*
X103752380Y-43981142D01*
X103904761Y-44057333D01*
X103219047Y-44971619D02*
X103371428Y-45047809D01*
X103752380Y-45047809D01*
X103904761Y-44971619D01*
X103980952Y-44819238D01*
X103980952Y-44666857D01*
X103904761Y-44514476D01*
X103752380Y-44438285D01*
X103371428Y-44438285D01*
X103219047Y-44362095D01*
X102533333Y-44971619D02*
X102380952Y-45047809D01*
X102076190Y-45047809D01*
X101923809Y-44971619D01*
X101847619Y-44819238D01*
X101847619Y-44743047D01*
X101923809Y-44590666D01*
X102076190Y-44514476D01*
X102304761Y-44514476D01*
X102457142Y-44438285D01*
X102533333Y-44285904D01*
X102533333Y-44209714D01*
X102457142Y-44057333D01*
X102304761Y-43981142D01*
X102076190Y-43981142D01*
X101923809Y-44057333D01*
X100552380Y-44971619D02*
X100704761Y-45047809D01*
X101009523Y-45047809D01*
X101161904Y-44971619D01*
X101238095Y-44819238D01*
X101238095Y-44209714D01*
X101161904Y-44057333D01*
X101009523Y-43981142D01*
X100704761Y-43981142D01*
X100552380Y-44057333D01*
X100476190Y-44209714D01*
X100476190Y-44362095D01*
X101238095Y-44514476D01*
X99104761Y-45047809D02*
X99104761Y-43447809D01*
X99104761Y-44971619D02*
X99257142Y-45047809D01*
X99561904Y-45047809D01*
X99714285Y-44971619D01*
X99790476Y-44895428D01*
X99866666Y-44743047D01*
X99866666Y-44285904D01*
X99790476Y-44133523D01*
X99714285Y-44057333D01*
X99561904Y-43981142D01*
X99257142Y-43981142D01*
X99104761Y-44057333D01*
X119142857Y-47623809D02*
X119142857Y-46023809D01*
X119142857Y-46633333D02*
X118990476Y-46557142D01*
X118685714Y-46557142D01*
X118533333Y-46633333D01*
X118457142Y-46709523D01*
X118380952Y-46861904D01*
X118380952Y-47319047D01*
X118457142Y-47471428D01*
X118533333Y-47547619D01*
X118685714Y-47623809D01*
X118990476Y-47623809D01*
X119142857Y-47547619D01*
X117695238Y-47623809D02*
X117695238Y-46557142D01*
X117695238Y-46861904D02*
X117619047Y-46709523D01*
X117542857Y-46633333D01*
X117390476Y-46557142D01*
X117238095Y-46557142D01*
X116019047Y-46557142D02*
X116019047Y-47623809D01*
X116704761Y-46557142D02*
X116704761Y-47395238D01*
X116628571Y-47547619D01*
X116476190Y-47623809D01*
X116247619Y-47623809D01*
X116095238Y-47547619D01*
X116019047Y-47471428D01*
X115333333Y-47547619D02*
X115180952Y-47623809D01*
X114876190Y-47623809D01*
X114723809Y-47547619D01*
X114647619Y-47395238D01*
X114647619Y-47319047D01*
X114723809Y-47166666D01*
X114876190Y-47090476D01*
X115104761Y-47090476D01*
X115257142Y-47014285D01*
X115333333Y-46861904D01*
X115333333Y-46785714D01*
X115257142Y-46633333D01*
X115104761Y-46557142D01*
X114876190Y-46557142D01*
X114723809Y-46633333D01*
X113961904Y-47623809D02*
X113961904Y-46023809D01*
X113276190Y-47623809D02*
X113276190Y-46785714D01*
X113352380Y-46633333D01*
X113504761Y-46557142D01*
X113733333Y-46557142D01*
X113885714Y-46633333D01*
X113961904Y-46709523D01*
X112285714Y-47623809D02*
X112438095Y-47547619D01*
X112514285Y-47395238D01*
X112514285Y-46023809D01*
X111066666Y-47547619D02*
X111219047Y-47623809D01*
X111523809Y-47623809D01*
X111676190Y-47547619D01*
X111752380Y-47395238D01*
X111752380Y-46785714D01*
X111676190Y-46633333D01*
X111523809Y-46557142D01*
X111219047Y-46557142D01*
X111066666Y-46633333D01*
X110990476Y-46785714D01*
X110990476Y-46938095D01*
X111752380Y-47090476D01*
X110380952Y-47547619D02*
X110228571Y-47623809D01*
X109923809Y-47623809D01*
X109771428Y-47547619D01*
X109695238Y-47395238D01*
X109695238Y-47319047D01*
X109771428Y-47166666D01*
X109923809Y-47090476D01*
X110152380Y-47090476D01*
X110304761Y-47014285D01*
X110380952Y-46861904D01*
X110380952Y-46785714D01*
X110304761Y-46633333D01*
X110152380Y-46557142D01*
X109923809Y-46557142D01*
X109771428Y-46633333D01*
X109085714Y-47547619D02*
X108933333Y-47623809D01*
X108628571Y-47623809D01*
X108476190Y-47547619D01*
X108400000Y-47395238D01*
X108400000Y-47319047D01*
X108476190Y-47166666D01*
X108628571Y-47090476D01*
X108857142Y-47090476D01*
X109009523Y-47014285D01*
X109085714Y-46861904D01*
X109085714Y-46785714D01*
X109009523Y-46633333D01*
X108857142Y-46557142D01*
X108628571Y-46557142D01*
X108476190Y-46633333D01*
X106495238Y-47623809D02*
X106495238Y-46023809D01*
X106114285Y-46023809D01*
X105885714Y-46100000D01*
X105733333Y-46252380D01*
X105657142Y-46404761D01*
X105580952Y-46709523D01*
X105580952Y-46938095D01*
X105657142Y-47242857D01*
X105733333Y-47395238D01*
X105885714Y-47547619D01*
X106114285Y-47623809D01*
X106495238Y-47623809D01*
X103980952Y-47471428D02*
X104057142Y-47547619D01*
X104285714Y-47623809D01*
X104438095Y-47623809D01*
X104666666Y-47547619D01*
X104819047Y-47395238D01*
X104895238Y-47242857D01*
X104971428Y-46938095D01*
X104971428Y-46709523D01*
X104895238Y-46404761D01*
X104819047Y-46252380D01*
X104666666Y-46100000D01*
X104438095Y-46023809D01*
X104285714Y-46023809D01*
X104057142Y-46100000D01*
X103980952Y-46176190D01*
X101390476Y-47623809D02*
X101390476Y-46023809D01*
X101390476Y-47547619D02*
X101542857Y-47623809D01*
X101847619Y-47623809D01*
X102000000Y-47547619D01*
X102076190Y-47471428D01*
X102152380Y-47319047D01*
X102152380Y-46861904D01*
X102076190Y-46709523D01*
X102000000Y-46633333D01*
X101847619Y-46557142D01*
X101542857Y-46557142D01*
X101390476Y-46633333D01*
X100628571Y-47623809D02*
X100628571Y-46557142D01*
X100628571Y-46861904D02*
X100552380Y-46709523D01*
X100476190Y-46633333D01*
X100323809Y-46557142D01*
X100171428Y-46557142D01*
X99638095Y-47623809D02*
X99638095Y-46557142D01*
X99638095Y-46023809D02*
X99714285Y-46100000D01*
X99638095Y-46176190D01*
X99561904Y-46100000D01*
X99638095Y-46023809D01*
X99638095Y-46176190D01*
X99028571Y-46557142D02*
X98647619Y-47623809D01*
X98266666Y-46557142D01*
X97047619Y-47547619D02*
X97200000Y-47623809D01*
X97504761Y-47623809D01*
X97657142Y-47547619D01*
X97733333Y-47395238D01*
X97733333Y-46785714D01*
X97657142Y-46633333D01*
X97504761Y-46557142D01*
X97200000Y-46557142D01*
X97047619Y-46633333D01*
X96971428Y-46785714D01*
X96971428Y-46938095D01*
X97733333Y-47090476D01*
X96285714Y-47623809D02*
X96285714Y-46557142D01*
X96285714Y-46861904D02*
X96209523Y-46709523D01*
X96133333Y-46633333D01*
X95980952Y-46557142D01*
X95828571Y-46557142D01*
X111790476Y-48599809D02*
X112095238Y-48599809D01*
X112247619Y-48676000D01*
X112323809Y-48752190D01*
X112476190Y-48980761D01*
X112552380Y-49285523D01*
X112552380Y-49895047D01*
X112476190Y-50047428D01*
X112400000Y-50123619D01*
X112247619Y-50199809D01*
X111942857Y-50199809D01*
X111790476Y-50123619D01*
X111714285Y-50047428D01*
X111638095Y-49895047D01*
X111638095Y-49514095D01*
X111714285Y-49361714D01*
X111790476Y-49285523D01*
X111942857Y-49209333D01*
X112247619Y-49209333D01*
X112400000Y-49285523D01*
X112476190Y-49361714D01*
X112552380Y-49514095D01*
X110647619Y-48599809D02*
X110495238Y-48599809D01*
X110342857Y-48676000D01*
X110266666Y-48752190D01*
X110190476Y-48904571D01*
X110114285Y-49209333D01*
X110114285Y-49590285D01*
X110190476Y-49895047D01*
X110266666Y-50047428D01*
X110342857Y-50123619D01*
X110495238Y-50199809D01*
X110647619Y-50199809D01*
X110800000Y-50123619D01*
X110876190Y-50047428D01*
X110952380Y-49895047D01*
X111028571Y-49590285D01*
X111028571Y-49209333D01*
X110952380Y-48904571D01*
X110876190Y-48752190D01*
X110800000Y-48676000D01*
X110647619Y-48599809D01*
X109657142Y-48599809D02*
X109123809Y-50199809D01*
X108590476Y-48599809D01*
X106838095Y-50199809D02*
X106838095Y-49133142D01*
X106838095Y-49285523D02*
X106761904Y-49209333D01*
X106609523Y-49133142D01*
X106380952Y-49133142D01*
X106228571Y-49209333D01*
X106152380Y-49361714D01*
X106152380Y-50199809D01*
X106152380Y-49361714D02*
X106076190Y-49209333D01*
X105923809Y-49133142D01*
X105695238Y-49133142D01*
X105542857Y-49209333D01*
X105466666Y-49361714D01*
X105466666Y-50199809D01*
X104019047Y-50199809D02*
X104019047Y-49361714D01*
X104095238Y-49209333D01*
X104247619Y-49133142D01*
X104552380Y-49133142D01*
X104704761Y-49209333D01*
X104019047Y-50123619D02*
X104171428Y-50199809D01*
X104552380Y-50199809D01*
X104704761Y-50123619D01*
X104780952Y-49971238D01*
X104780952Y-49818857D01*
X104704761Y-49666476D01*
X104552380Y-49590285D01*
X104171428Y-49590285D01*
X104019047Y-49514095D01*
X103409523Y-50199809D02*
X102571428Y-49133142D01*
X103409523Y-49133142D02*
X102571428Y-50199809D01*
D10*
X105812857Y-62501071D02*
X105812857Y-64001071D01*
X105812857Y-62572500D02*
X105670000Y-62501071D01*
X105384285Y-62501071D01*
X105241428Y-62572500D01*
X105170000Y-62643928D01*
X105098571Y-62786785D01*
X105098571Y-63215357D01*
X105170000Y-63358214D01*
X105241428Y-63429642D01*
X105384285Y-63501071D01*
X105670000Y-63501071D01*
X105812857Y-63429642D01*
X104241428Y-63501071D02*
X104384285Y-63429642D01*
X104455714Y-63358214D01*
X104527142Y-63215357D01*
X104527142Y-62786785D01*
X104455714Y-62643928D01*
X104384285Y-62572500D01*
X104241428Y-62501071D01*
X104027142Y-62501071D01*
X103884285Y-62572500D01*
X103812857Y-62643928D01*
X103741428Y-62786785D01*
X103741428Y-63215357D01*
X103812857Y-63358214D01*
X103884285Y-63429642D01*
X104027142Y-63501071D01*
X104241428Y-63501071D01*
X103241428Y-62501071D02*
X102955714Y-63501071D01*
X102670000Y-62786785D01*
X102384285Y-63501071D01*
X102098571Y-62501071D01*
X100955714Y-63429642D02*
X101098571Y-63501071D01*
X101384285Y-63501071D01*
X101527142Y-63429642D01*
X101598571Y-63286785D01*
X101598571Y-62715357D01*
X101527142Y-62572500D01*
X101384285Y-62501071D01*
X101098571Y-62501071D01*
X100955714Y-62572500D01*
X100884285Y-62715357D01*
X100884285Y-62858214D01*
X101598571Y-63001071D01*
X100241428Y-63501071D02*
X100241428Y-62501071D01*
X100241428Y-62786785D02*
X100170000Y-62643928D01*
X100098571Y-62572500D01*
X99955714Y-62501071D01*
X99812857Y-62501071D01*
X104062857Y-64487500D02*
X104205714Y-64416071D01*
X104420000Y-64416071D01*
X104634285Y-64487500D01*
X104777142Y-64630357D01*
X104848571Y-64773214D01*
X104920000Y-65058928D01*
X104920000Y-65273214D01*
X104848571Y-65558928D01*
X104777142Y-65701785D01*
X104634285Y-65844642D01*
X104420000Y-65916071D01*
X104277142Y-65916071D01*
X104062857Y-65844642D01*
X103991428Y-65773214D01*
X103991428Y-65273214D01*
X104277142Y-65273214D01*
X103348571Y-65916071D02*
X103348571Y-64416071D01*
X102491428Y-65916071D01*
X102491428Y-64416071D01*
X101777142Y-65916071D02*
X101777142Y-64416071D01*
X101420000Y-64416071D01*
X101205714Y-64487500D01*
X101062857Y-64630357D01*
X100991428Y-64773214D01*
X100920000Y-65058928D01*
X100920000Y-65273214D01*
X100991428Y-65558928D01*
X101062857Y-65701785D01*
X101205714Y-65844642D01*
X101420000Y-65916071D01*
X101777142Y-65916071D01*
X66191428Y-49851904D02*
X66143809Y-49737619D01*
X66096190Y-49699523D01*
X66000952Y-49661428D01*
X65858095Y-49661428D01*
X65762857Y-49699523D01*
X65715238Y-49737619D01*
X65667619Y-49813809D01*
X65667619Y-50118571D01*
X66667619Y-50118571D01*
X66667619Y-49851904D01*
X66620000Y-49775714D01*
X66572380Y-49737619D01*
X66477142Y-49699523D01*
X66381904Y-49699523D01*
X66286666Y-49737619D01*
X66239047Y-49775714D01*
X66191428Y-49851904D01*
X66191428Y-50118571D01*
X66667619Y-49166190D02*
X66667619Y-49013809D01*
X66620000Y-48937619D01*
X66524761Y-48861428D01*
X66334285Y-48823333D01*
X66000952Y-48823333D01*
X65810476Y-48861428D01*
X65715238Y-48937619D01*
X65667619Y-49013809D01*
X65667619Y-49166190D01*
X65715238Y-49242380D01*
X65810476Y-49318571D01*
X66000952Y-49356666D01*
X66334285Y-49356666D01*
X66524761Y-49318571D01*
X66620000Y-49242380D01*
X66667619Y-49166190D01*
X72795238Y-74605714D02*
X72747619Y-74491428D01*
X72747619Y-74300952D01*
X72795238Y-74224761D01*
X72842857Y-74186666D01*
X72938095Y-74148571D01*
X73033333Y-74148571D01*
X73128571Y-74186666D01*
X73176190Y-74224761D01*
X73223809Y-74300952D01*
X73271428Y-74453333D01*
X73319047Y-74529523D01*
X73366666Y-74567619D01*
X73461904Y-74605714D01*
X73557142Y-74605714D01*
X73652380Y-74567619D01*
X73700000Y-74529523D01*
X73747619Y-74453333D01*
X73747619Y-74262857D01*
X73700000Y-74148571D01*
X72747619Y-73691428D02*
X72795238Y-73767619D01*
X72890476Y-73805714D01*
X73747619Y-73805714D01*
X72795238Y-73081904D02*
X72747619Y-73158095D01*
X72747619Y-73310476D01*
X72795238Y-73386666D01*
X72890476Y-73424761D01*
X73271428Y-73424761D01*
X73366666Y-73386666D01*
X73414285Y-73310476D01*
X73414285Y-73158095D01*
X73366666Y-73081904D01*
X73271428Y-73043809D01*
X73176190Y-73043809D01*
X73080952Y-73424761D01*
X72795238Y-72396190D02*
X72747619Y-72472380D01*
X72747619Y-72624761D01*
X72795238Y-72700952D01*
X72890476Y-72739047D01*
X73271428Y-72739047D01*
X73366666Y-72700952D01*
X73414285Y-72624761D01*
X73414285Y-72472380D01*
X73366666Y-72396190D01*
X73271428Y-72358095D01*
X73176190Y-72358095D01*
X73080952Y-72739047D01*
X73414285Y-72015238D02*
X72414285Y-72015238D01*
X73366666Y-72015238D02*
X73414285Y-71939047D01*
X73414285Y-71786666D01*
X73366666Y-71710476D01*
X73319047Y-71672380D01*
X73223809Y-71634285D01*
X72938095Y-71634285D01*
X72842857Y-71672380D01*
X72795238Y-71710476D01*
X72747619Y-71786666D01*
X72747619Y-71939047D01*
X72795238Y-72015238D01*
X99889047Y-73404761D02*
X99984285Y-73452380D01*
X100174761Y-73452380D01*
X100270000Y-73404761D01*
X100317619Y-73357142D01*
X100365238Y-73261904D01*
X100365238Y-72976190D01*
X100317619Y-72880952D01*
X100270000Y-72833333D01*
X100174761Y-72785714D01*
X99984285Y-72785714D01*
X99889047Y-72833333D01*
X99031904Y-72785714D02*
X99031904Y-73452380D01*
X99460476Y-72785714D02*
X99460476Y-73309523D01*
X99412857Y-73404761D01*
X99317619Y-73452380D01*
X99174761Y-73452380D01*
X99079523Y-73404761D01*
X99031904Y-73357142D01*
X98698571Y-72785714D02*
X98317619Y-72785714D01*
X98555714Y-72452380D02*
X98555714Y-73309523D01*
X98508095Y-73404761D01*
X98412857Y-73452380D01*
X98317619Y-73452380D01*
X96698571Y-72500000D02*
X96793809Y-72452380D01*
X96936666Y-72452380D01*
X97079523Y-72500000D01*
X97174761Y-72595238D01*
X97222380Y-72690476D01*
X97270000Y-72880952D01*
X97270000Y-73023809D01*
X97222380Y-73214285D01*
X97174761Y-73309523D01*
X97079523Y-73404761D01*
X96936666Y-73452380D01*
X96841428Y-73452380D01*
X96698571Y-73404761D01*
X96650952Y-73357142D01*
X96650952Y-73023809D01*
X96841428Y-73023809D01*
X96222380Y-73452380D02*
X96222380Y-72452380D01*
X95650952Y-73452380D01*
X95650952Y-72452380D01*
X95174761Y-73452380D02*
X95174761Y-72452380D01*
X94936666Y-72452380D01*
X94793809Y-72500000D01*
X94698571Y-72595238D01*
X94650952Y-72690476D01*
X94603333Y-72880952D01*
X94603333Y-73023809D01*
X94650952Y-73214285D01*
X94698571Y-73309523D01*
X94793809Y-73404761D01*
X94936666Y-73452380D01*
X95174761Y-73452380D01*
X93270000Y-73452380D02*
X93365238Y-73404761D01*
X93412857Y-73357142D01*
X93460476Y-73261904D01*
X93460476Y-72976190D01*
X93412857Y-72880952D01*
X93365238Y-72833333D01*
X93270000Y-72785714D01*
X93127142Y-72785714D01*
X93031904Y-72833333D01*
X92984285Y-72880952D01*
X92936666Y-72976190D01*
X92936666Y-73261904D01*
X92984285Y-73357142D01*
X93031904Y-73404761D01*
X93127142Y-73452380D01*
X93270000Y-73452380D01*
X92508095Y-72785714D02*
X92508095Y-73452380D01*
X92508095Y-72880952D02*
X92460476Y-72833333D01*
X92365238Y-72785714D01*
X92222380Y-72785714D01*
X92127142Y-72833333D01*
X92079523Y-72928571D01*
X92079523Y-73452380D01*
X90841428Y-73452380D02*
X90841428Y-72452380D01*
X90841428Y-72833333D02*
X90746190Y-72785714D01*
X90555714Y-72785714D01*
X90460476Y-72833333D01*
X90412857Y-72880952D01*
X90365238Y-72976190D01*
X90365238Y-73261904D01*
X90412857Y-73357142D01*
X90460476Y-73404761D01*
X90555714Y-73452380D01*
X90746190Y-73452380D01*
X90841428Y-73404761D01*
X89793809Y-73452380D02*
X89889047Y-73404761D01*
X89936666Y-73357142D01*
X89984285Y-73261904D01*
X89984285Y-72976190D01*
X89936666Y-72880952D01*
X89889047Y-72833333D01*
X89793809Y-72785714D01*
X89650952Y-72785714D01*
X89555714Y-72833333D01*
X89508095Y-72880952D01*
X89460476Y-72976190D01*
X89460476Y-73261904D01*
X89508095Y-73357142D01*
X89555714Y-73404761D01*
X89650952Y-73452380D01*
X89793809Y-73452380D01*
X89174761Y-72785714D02*
X88793809Y-72785714D01*
X89031904Y-72452380D02*
X89031904Y-73309523D01*
X88984285Y-73404761D01*
X88889047Y-73452380D01*
X88793809Y-73452380D01*
X88460476Y-73452380D02*
X88460476Y-72452380D01*
X88031904Y-73452380D02*
X88031904Y-72928571D01*
X88079523Y-72833333D01*
X88174761Y-72785714D01*
X88317619Y-72785714D01*
X88412857Y-72833333D01*
X88460476Y-72880952D01*
X86841428Y-73404761D02*
X86746190Y-73452380D01*
X86555714Y-73452380D01*
X86460476Y-73404761D01*
X86412857Y-73309523D01*
X86412857Y-73261904D01*
X86460476Y-73166666D01*
X86555714Y-73119047D01*
X86698571Y-73119047D01*
X86793809Y-73071428D01*
X86841428Y-72976190D01*
X86841428Y-72928571D01*
X86793809Y-72833333D01*
X86698571Y-72785714D01*
X86555714Y-72785714D01*
X86460476Y-72833333D01*
X85984285Y-73452380D02*
X85984285Y-72785714D01*
X85984285Y-72452380D02*
X86031904Y-72500000D01*
X85984285Y-72547619D01*
X85936666Y-72500000D01*
X85984285Y-72452380D01*
X85984285Y-72547619D01*
X85079523Y-73452380D02*
X85079523Y-72452380D01*
X85079523Y-73404761D02*
X85174761Y-73452380D01*
X85365238Y-73452380D01*
X85460476Y-73404761D01*
X85508095Y-73357142D01*
X85555714Y-73261904D01*
X85555714Y-72976190D01*
X85508095Y-72880952D01*
X85460476Y-72833333D01*
X85365238Y-72785714D01*
X85174761Y-72785714D01*
X85079523Y-72833333D01*
X84222380Y-73404761D02*
X84317619Y-73452380D01*
X84508095Y-73452380D01*
X84603333Y-73404761D01*
X84650952Y-73309523D01*
X84650952Y-72928571D01*
X84603333Y-72833333D01*
X84508095Y-72785714D01*
X84317619Y-72785714D01*
X84222380Y-72833333D01*
X84174761Y-72928571D01*
X84174761Y-73023809D01*
X84650952Y-73119047D01*
X82984285Y-73452380D02*
X82984285Y-72785714D01*
X82984285Y-72452380D02*
X83031904Y-72500000D01*
X82984285Y-72547619D01*
X82936666Y-72500000D01*
X82984285Y-72452380D01*
X82984285Y-72547619D01*
X82650952Y-72785714D02*
X82270000Y-72785714D01*
X82508095Y-73452380D02*
X82508095Y-72595238D01*
X82460476Y-72500000D01*
X82365238Y-72452380D01*
X82270000Y-72452380D01*
X80746190Y-73452380D02*
X80746190Y-72452380D01*
X80746190Y-73404761D02*
X80841428Y-73452380D01*
X81031904Y-73452380D01*
X81127142Y-73404761D01*
X81174761Y-73357142D01*
X81222380Y-73261904D01*
X81222380Y-72976190D01*
X81174761Y-72880952D01*
X81127142Y-72833333D01*
X81031904Y-72785714D01*
X80841428Y-72785714D01*
X80746190Y-72833333D01*
X79889047Y-73404761D02*
X79984285Y-73452380D01*
X80174761Y-73452380D01*
X80270000Y-73404761D01*
X80317619Y-73309523D01*
X80317619Y-72928571D01*
X80270000Y-72833333D01*
X80174761Y-72785714D01*
X79984285Y-72785714D01*
X79889047Y-72833333D01*
X79841428Y-72928571D01*
X79841428Y-73023809D01*
X80317619Y-73119047D01*
X79460476Y-73404761D02*
X79365238Y-73452380D01*
X79174761Y-73452380D01*
X79079523Y-73404761D01*
X79031904Y-73309523D01*
X79031904Y-73261904D01*
X79079523Y-73166666D01*
X79174761Y-73119047D01*
X79317619Y-73119047D01*
X79412857Y-73071428D01*
X79460476Y-72976190D01*
X79460476Y-72928571D01*
X79412857Y-72833333D01*
X79317619Y-72785714D01*
X79174761Y-72785714D01*
X79079523Y-72833333D01*
X78603333Y-73452380D02*
X78603333Y-72785714D01*
X78603333Y-72452380D02*
X78650952Y-72500000D01*
X78603333Y-72547619D01*
X78555714Y-72500000D01*
X78603333Y-72452380D01*
X78603333Y-72547619D01*
X78127142Y-73452380D02*
X78127142Y-72785714D01*
X78127142Y-72976190D02*
X78079523Y-72880952D01*
X78031904Y-72833333D01*
X77936666Y-72785714D01*
X77841428Y-72785714D01*
X77127142Y-73404761D02*
X77222380Y-73452380D01*
X77412857Y-73452380D01*
X77508095Y-73404761D01*
X77555714Y-73309523D01*
X77555714Y-72928571D01*
X77508095Y-72833333D01*
X77412857Y-72785714D01*
X77222380Y-72785714D01*
X77127142Y-72833333D01*
X77079523Y-72928571D01*
X77079523Y-73023809D01*
X77555714Y-73119047D01*
X76222380Y-73452380D02*
X76222380Y-72452380D01*
X76222380Y-73404761D02*
X76317619Y-73452380D01*
X76508095Y-73452380D01*
X76603333Y-73404761D01*
X76650952Y-73357142D01*
X76698571Y-73261904D01*
X76698571Y-72976190D01*
X76650952Y-72880952D01*
X76603333Y-72833333D01*
X76508095Y-72785714D01*
X76317619Y-72785714D01*
X76222380Y-72833333D01*
D12*
X53553571Y-56727138D02*
X53934523Y-56727138D01*
X53934523Y-55157138D01*
X53325000Y-56652376D02*
X53210714Y-56727138D01*
X53020238Y-56727138D01*
X52944047Y-56652376D01*
X52905952Y-56577614D01*
X52867857Y-56428090D01*
X52867857Y-56278566D01*
X52905952Y-56129042D01*
X52944047Y-56054280D01*
X53020238Y-55979519D01*
X53172619Y-55904757D01*
X53248809Y-55829995D01*
X53286904Y-55755233D01*
X53325000Y-55605709D01*
X53325000Y-55456185D01*
X53286904Y-55306661D01*
X53248809Y-55231900D01*
X53172619Y-55157138D01*
X52982142Y-55157138D01*
X52867857Y-55231900D01*
X52563095Y-56652376D02*
X52448809Y-56727138D01*
X52258333Y-56727138D01*
X52182142Y-56652376D01*
X52144047Y-56577614D01*
X52105952Y-56428090D01*
X52105952Y-56278566D01*
X52144047Y-56129042D01*
X52182142Y-56054280D01*
X52258333Y-55979519D01*
X52410714Y-55904757D01*
X52486904Y-55829995D01*
X52525000Y-55755233D01*
X52563095Y-55605709D01*
X52563095Y-55456185D01*
X52525000Y-55306661D01*
X52486904Y-55231900D01*
X52410714Y-55157138D01*
X52220238Y-55157138D01*
X52105952Y-55231900D01*
X53515476Y-57759600D02*
X53591666Y-57684838D01*
X53705952Y-57684838D01*
X53820238Y-57759600D01*
X53896428Y-57909123D01*
X53934523Y-58058647D01*
X53972619Y-58357695D01*
X53972619Y-58581980D01*
X53934523Y-58881028D01*
X53896428Y-59030552D01*
X53820238Y-59180076D01*
X53705952Y-59254838D01*
X53629761Y-59254838D01*
X53515476Y-59180076D01*
X53477380Y-59105314D01*
X53477380Y-58581980D01*
X53629761Y-58581980D01*
X53134523Y-59254838D02*
X53134523Y-57684838D01*
X53134523Y-58432457D02*
X52677380Y-58432457D01*
X52677380Y-59254838D02*
X52677380Y-57684838D01*
X51839285Y-59105314D02*
X51877380Y-59180076D01*
X51991666Y-59254838D01*
X52067857Y-59254838D01*
X52182142Y-59180076D01*
X52258333Y-59030552D01*
X52296428Y-58881028D01*
X52334523Y-58581980D01*
X52334523Y-58357695D01*
X52296428Y-58058647D01*
X52258333Y-57909123D01*
X52182142Y-57759600D01*
X52067857Y-57684838D01*
X51991666Y-57684838D01*
X51877380Y-57759600D01*
X51839285Y-57834361D01*
X53667857Y-60960157D02*
X53553571Y-61034919D01*
X53515476Y-61109680D01*
X53477380Y-61259204D01*
X53477380Y-61483490D01*
X53515476Y-61633014D01*
X53553571Y-61707776D01*
X53629761Y-61782538D01*
X53934523Y-61782538D01*
X53934523Y-60212538D01*
X53667857Y-60212538D01*
X53591666Y-60287300D01*
X53553571Y-60362061D01*
X53515476Y-60511585D01*
X53515476Y-60661109D01*
X53553571Y-60810633D01*
X53591666Y-60885395D01*
X53667857Y-60960157D01*
X53934523Y-60960157D01*
X53172619Y-61707776D02*
X53058333Y-61782538D01*
X52867857Y-61782538D01*
X52791666Y-61707776D01*
X52753571Y-61633014D01*
X52715476Y-61483490D01*
X52715476Y-61333966D01*
X52753571Y-61184442D01*
X52791666Y-61109680D01*
X52867857Y-61034919D01*
X53020238Y-60960157D01*
X53096428Y-60885395D01*
X53134523Y-60810633D01*
X53172619Y-60661109D01*
X53172619Y-60511585D01*
X53134523Y-60362061D01*
X53096428Y-60287300D01*
X53020238Y-60212538D01*
X52829761Y-60212538D01*
X52715476Y-60287300D01*
X52486904Y-60212538D02*
X52029761Y-60212538D01*
X52258333Y-61782538D02*
X52258333Y-60212538D01*
X51305952Y-61633014D02*
X51344047Y-61707776D01*
X51458333Y-61782538D01*
X51534523Y-61782538D01*
X51648809Y-61707776D01*
X51725000Y-61558252D01*
X51763095Y-61408728D01*
X51801190Y-61109680D01*
X51801190Y-60885395D01*
X51763095Y-60586347D01*
X51725000Y-60436823D01*
X51648809Y-60287300D01*
X51534523Y-60212538D01*
X51458333Y-60212538D01*
X51344047Y-60287300D01*
X51305952Y-60362061D01*
X53515476Y-62815000D02*
X53591666Y-62740238D01*
X53705952Y-62740238D01*
X53820238Y-62815000D01*
X53896428Y-62964523D01*
X53934523Y-63114047D01*
X53972619Y-63413095D01*
X53972619Y-63637380D01*
X53934523Y-63936428D01*
X53896428Y-64085952D01*
X53820238Y-64235476D01*
X53705952Y-64310238D01*
X53629761Y-64310238D01*
X53515476Y-64235476D01*
X53477380Y-64160714D01*
X53477380Y-63637380D01*
X53629761Y-63637380D01*
X53134523Y-64310238D02*
X53134523Y-62740238D01*
X53134523Y-63487857D02*
X52677380Y-63487857D01*
X52677380Y-64310238D02*
X52677380Y-62740238D01*
X52029761Y-63487857D02*
X51915476Y-63562619D01*
X51877380Y-63637380D01*
X51839285Y-63786904D01*
X51839285Y-64011190D01*
X51877380Y-64160714D01*
X51915476Y-64235476D01*
X51991666Y-64310238D01*
X52296428Y-64310238D01*
X52296428Y-62740238D01*
X52029761Y-62740238D01*
X51953571Y-62815000D01*
X51915476Y-62889761D01*
X51877380Y-63039285D01*
X51877380Y-63188809D01*
X51915476Y-63338333D01*
X51953571Y-63413095D01*
X52029761Y-63487857D01*
X52296428Y-63487857D01*
X53667857Y-66015557D02*
X53553571Y-66090319D01*
X53515476Y-66165080D01*
X53477380Y-66314604D01*
X53477380Y-66538890D01*
X53515476Y-66688414D01*
X53553571Y-66763176D01*
X53629761Y-66837938D01*
X53934523Y-66837938D01*
X53934523Y-65267938D01*
X53667857Y-65267938D01*
X53591666Y-65342700D01*
X53553571Y-65417461D01*
X53515476Y-65566985D01*
X53515476Y-65716509D01*
X53553571Y-65866033D01*
X53591666Y-65940795D01*
X53667857Y-66015557D01*
X53934523Y-66015557D01*
X53172619Y-66763176D02*
X53058333Y-66837938D01*
X52867857Y-66837938D01*
X52791666Y-66763176D01*
X52753571Y-66688414D01*
X52715476Y-66538890D01*
X52715476Y-66389366D01*
X52753571Y-66239842D01*
X52791666Y-66165080D01*
X52867857Y-66090319D01*
X53020238Y-66015557D01*
X53096428Y-65940795D01*
X53134523Y-65866033D01*
X53172619Y-65716509D01*
X53172619Y-65566985D01*
X53134523Y-65417461D01*
X53096428Y-65342700D01*
X53020238Y-65267938D01*
X52829761Y-65267938D01*
X52715476Y-65342700D01*
X52486904Y-65267938D02*
X52029761Y-65267938D01*
X52258333Y-66837938D02*
X52258333Y-65267938D01*
X51496428Y-66015557D02*
X51382142Y-66090319D01*
X51344047Y-66165080D01*
X51305952Y-66314604D01*
X51305952Y-66538890D01*
X51344047Y-66688414D01*
X51382142Y-66763176D01*
X51458333Y-66837938D01*
X51763095Y-66837938D01*
X51763095Y-65267938D01*
X51496428Y-65267938D01*
X51420238Y-65342700D01*
X51382142Y-65417461D01*
X51344047Y-65566985D01*
X51344047Y-65716509D01*
X51382142Y-65866033D01*
X51420238Y-65940795D01*
X51496428Y-66015557D01*
X51763095Y-66015557D01*
X53515476Y-67870400D02*
X53591666Y-67795638D01*
X53705952Y-67795638D01*
X53820238Y-67870400D01*
X53896428Y-68019923D01*
X53934523Y-68169447D01*
X53972619Y-68468495D01*
X53972619Y-68692780D01*
X53934523Y-68991828D01*
X53896428Y-69141352D01*
X53820238Y-69290876D01*
X53705952Y-69365638D01*
X53629761Y-69365638D01*
X53515476Y-69290876D01*
X53477380Y-69216114D01*
X53477380Y-68692780D01*
X53629761Y-68692780D01*
X53134523Y-69365638D02*
X53134523Y-67795638D01*
X53134523Y-68543257D02*
X52677380Y-68543257D01*
X52677380Y-69365638D02*
X52677380Y-67795638D01*
X52334523Y-68917066D02*
X51953571Y-68917066D01*
X52410714Y-69365638D02*
X52144047Y-67795638D01*
X51877380Y-69365638D01*
X53667857Y-71070957D02*
X53553571Y-71145719D01*
X53515476Y-71220480D01*
X53477380Y-71370004D01*
X53477380Y-71594290D01*
X53515476Y-71743814D01*
X53553571Y-71818576D01*
X53629761Y-71893338D01*
X53934523Y-71893338D01*
X53934523Y-70323338D01*
X53667857Y-70323338D01*
X53591666Y-70398100D01*
X53553571Y-70472861D01*
X53515476Y-70622385D01*
X53515476Y-70771909D01*
X53553571Y-70921433D01*
X53591666Y-70996195D01*
X53667857Y-71070957D01*
X53934523Y-71070957D01*
X53172619Y-71818576D02*
X53058333Y-71893338D01*
X52867857Y-71893338D01*
X52791666Y-71818576D01*
X52753571Y-71743814D01*
X52715476Y-71594290D01*
X52715476Y-71444766D01*
X52753571Y-71295242D01*
X52791666Y-71220480D01*
X52867857Y-71145719D01*
X53020238Y-71070957D01*
X53096428Y-70996195D01*
X53134523Y-70921433D01*
X53172619Y-70771909D01*
X53172619Y-70622385D01*
X53134523Y-70472861D01*
X53096428Y-70398100D01*
X53020238Y-70323338D01*
X52829761Y-70323338D01*
X52715476Y-70398100D01*
X52486904Y-70323338D02*
X52029761Y-70323338D01*
X52258333Y-71893338D02*
X52258333Y-70323338D01*
X51801190Y-71444766D02*
X51420238Y-71444766D01*
X51877380Y-71893338D02*
X51610714Y-70323338D01*
X51344047Y-71893338D01*
D10*
X88047142Y-65627142D02*
X86904285Y-65627142D01*
X87475714Y-66198571D02*
X87475714Y-65055714D01*
X86404285Y-64698571D02*
X85904285Y-66198571D01*
X85404285Y-64698571D01*
X84904285Y-66198571D02*
X84904285Y-64698571D01*
X84190000Y-66198571D02*
X84190000Y-64698571D01*
X83332857Y-66198571D01*
X83332857Y-64698571D01*
X62728571Y-66085714D02*
X62728571Y-65476190D01*
X62347619Y-65780952D02*
X63109523Y-65780952D01*
X63347619Y-64714285D02*
X63347619Y-65095238D01*
X62871428Y-65133333D01*
X62919047Y-65095238D01*
X62966666Y-65019047D01*
X62966666Y-64828571D01*
X62919047Y-64752380D01*
X62871428Y-64714285D01*
X62776190Y-64676190D01*
X62538095Y-64676190D01*
X62442857Y-64714285D01*
X62395238Y-64752380D01*
X62347619Y-64828571D01*
X62347619Y-65019047D01*
X62395238Y-65095238D01*
X62442857Y-65133333D01*
X63347619Y-64447619D02*
X62347619Y-64180952D01*
X63347619Y-63914285D01*
X62347619Y-63038095D02*
X63014285Y-63038095D01*
X63347619Y-63038095D02*
X63300000Y-63076190D01*
X63252380Y-63038095D01*
X63300000Y-63000000D01*
X63347619Y-63038095D01*
X63252380Y-63038095D01*
X63014285Y-62657142D02*
X62347619Y-62657142D01*
X62919047Y-62657142D02*
X62966666Y-62619047D01*
X63014285Y-62542857D01*
X63014285Y-62428571D01*
X62966666Y-62352380D01*
X62871428Y-62314285D01*
X62347619Y-62314285D01*
X57408095Y-44092380D02*
X57408095Y-43092380D01*
X57074761Y-43806666D01*
X56741428Y-43092380D01*
X56741428Y-44092380D01*
X55836666Y-44092380D02*
X55836666Y-43568571D01*
X55884285Y-43473333D01*
X55979523Y-43425714D01*
X56170000Y-43425714D01*
X56265238Y-43473333D01*
X55836666Y-44044761D02*
X55931904Y-44092380D01*
X56170000Y-44092380D01*
X56265238Y-44044761D01*
X56312857Y-43949523D01*
X56312857Y-43854285D01*
X56265238Y-43759047D01*
X56170000Y-43711428D01*
X55931904Y-43711428D01*
X55836666Y-43663809D01*
X55455714Y-44092380D02*
X54931904Y-43425714D01*
X55455714Y-43425714D02*
X54931904Y-44092380D01*
X53360476Y-44044761D02*
X53455714Y-44092380D01*
X53646190Y-44092380D01*
X53741428Y-44044761D01*
X53789047Y-43997142D01*
X53836666Y-43901904D01*
X53836666Y-43616190D01*
X53789047Y-43520952D01*
X53741428Y-43473333D01*
X53646190Y-43425714D01*
X53455714Y-43425714D01*
X53360476Y-43473333D01*
X52503333Y-43425714D02*
X52503333Y-44092380D01*
X52931904Y-43425714D02*
X52931904Y-43949523D01*
X52884285Y-44044761D01*
X52789047Y-44092380D01*
X52646190Y-44092380D01*
X52550952Y-44044761D01*
X52503333Y-43997142D01*
X52027142Y-44092380D02*
X52027142Y-43425714D01*
X52027142Y-43616190D02*
X51979523Y-43520952D01*
X51931904Y-43473333D01*
X51836666Y-43425714D01*
X51741428Y-43425714D01*
X51408095Y-44092380D02*
X51408095Y-43425714D01*
X51408095Y-43616190D02*
X51360476Y-43520952D01*
X51312857Y-43473333D01*
X51217619Y-43425714D01*
X51122380Y-43425714D01*
X50408095Y-44044761D02*
X50503333Y-44092380D01*
X50693809Y-44092380D01*
X50789047Y-44044761D01*
X50836666Y-43949523D01*
X50836666Y-43568571D01*
X50789047Y-43473333D01*
X50693809Y-43425714D01*
X50503333Y-43425714D01*
X50408095Y-43473333D01*
X50360476Y-43568571D01*
X50360476Y-43663809D01*
X50836666Y-43759047D01*
X49931904Y-43425714D02*
X49931904Y-44092380D01*
X49931904Y-43520952D02*
X49884285Y-43473333D01*
X49789047Y-43425714D01*
X49646190Y-43425714D01*
X49550952Y-43473333D01*
X49503333Y-43568571D01*
X49503333Y-44092380D01*
X49169999Y-43425714D02*
X48789047Y-43425714D01*
X49027142Y-43092380D02*
X49027142Y-43949523D01*
X48979523Y-44044761D01*
X48884285Y-44092380D01*
X48789047Y-44092380D01*
D12*
X38944523Y-56677138D02*
X38944523Y-55107138D01*
X38944523Y-55854757D02*
X38487380Y-55854757D01*
X38487380Y-56677138D02*
X38487380Y-55107138D01*
X37839761Y-55854757D02*
X37725476Y-55929519D01*
X37687380Y-56004280D01*
X37649285Y-56153804D01*
X37649285Y-56378090D01*
X37687380Y-56527614D01*
X37725476Y-56602376D01*
X37801666Y-56677138D01*
X38106428Y-56677138D01*
X38106428Y-55107138D01*
X37839761Y-55107138D01*
X37763571Y-55181900D01*
X37725476Y-55256661D01*
X37687380Y-55406185D01*
X37687380Y-55555709D01*
X37725476Y-55705233D01*
X37763571Y-55779995D01*
X37839761Y-55854757D01*
X38106428Y-55854757D01*
X38677857Y-58382457D02*
X38563571Y-58457219D01*
X38525476Y-58531980D01*
X38487380Y-58681504D01*
X38487380Y-58905790D01*
X38525476Y-59055314D01*
X38563571Y-59130076D01*
X38639761Y-59204838D01*
X38944523Y-59204838D01*
X38944523Y-57634838D01*
X38677857Y-57634838D01*
X38601666Y-57709600D01*
X38563571Y-57784361D01*
X38525476Y-57933885D01*
X38525476Y-58083409D01*
X38563571Y-58232933D01*
X38601666Y-58307695D01*
X38677857Y-58382457D01*
X38944523Y-58382457D01*
X37687380Y-59204838D02*
X37954047Y-58457219D01*
X38144523Y-59204838D02*
X38144523Y-57634838D01*
X37839761Y-57634838D01*
X37763571Y-57709600D01*
X37725476Y-57784361D01*
X37687380Y-57933885D01*
X37687380Y-58158171D01*
X37725476Y-58307695D01*
X37763571Y-58382457D01*
X37839761Y-58457219D01*
X38144523Y-58457219D01*
X37344523Y-59204838D02*
X37344523Y-57634838D01*
X36887380Y-59204838D02*
X37230238Y-58307695D01*
X36887380Y-57634838D02*
X37344523Y-58531980D01*
X38944523Y-61732538D02*
X38944523Y-60162538D01*
X38754047Y-60162538D01*
X38639761Y-60237300D01*
X38563571Y-60386823D01*
X38525476Y-60536347D01*
X38487380Y-60835395D01*
X38487380Y-61059680D01*
X38525476Y-61358728D01*
X38563571Y-61508252D01*
X38639761Y-61657776D01*
X38754047Y-61732538D01*
X38944523Y-61732538D01*
X38144523Y-61732538D02*
X38144523Y-60162538D01*
X37306428Y-61732538D02*
X37573095Y-60984919D01*
X37763571Y-61732538D02*
X37763571Y-60162538D01*
X37458809Y-60162538D01*
X37382619Y-60237300D01*
X37344523Y-60312061D01*
X37306428Y-60461585D01*
X37306428Y-60685871D01*
X37344523Y-60835395D01*
X37382619Y-60910157D01*
X37458809Y-60984919D01*
X37763571Y-60984919D01*
X38982619Y-64185476D02*
X38868333Y-64260238D01*
X38677857Y-64260238D01*
X38601666Y-64185476D01*
X38563571Y-64110714D01*
X38525476Y-63961190D01*
X38525476Y-63811666D01*
X38563571Y-63662142D01*
X38601666Y-63587380D01*
X38677857Y-63512619D01*
X38830238Y-63437857D01*
X38906428Y-63363095D01*
X38944523Y-63288333D01*
X38982619Y-63138809D01*
X38982619Y-62989285D01*
X38944523Y-62839761D01*
X38906428Y-62765000D01*
X38830238Y-62690238D01*
X38639761Y-62690238D01*
X38525476Y-62765000D01*
X37801666Y-64260238D02*
X38182619Y-64260238D01*
X38182619Y-62690238D01*
X37535000Y-63437857D02*
X37268333Y-63437857D01*
X37154047Y-64260238D02*
X37535000Y-64260238D01*
X37535000Y-62690238D01*
X37154047Y-62690238D01*
X38944523Y-66787938D02*
X38944523Y-65217938D01*
X38754047Y-65217938D01*
X38639761Y-65292700D01*
X38563571Y-65442223D01*
X38525476Y-65591747D01*
X38487380Y-65890795D01*
X38487380Y-66115080D01*
X38525476Y-66414128D01*
X38563571Y-66563652D01*
X38639761Y-66713176D01*
X38754047Y-66787938D01*
X38944523Y-66787938D01*
X38258809Y-65217938D02*
X37801666Y-65217938D01*
X38030238Y-66787938D02*
X38030238Y-65217938D01*
X39058809Y-67745638D02*
X38792142Y-69315638D01*
X38525476Y-67745638D01*
X38258809Y-69315638D02*
X38258809Y-67745638D01*
X37877857Y-69315638D02*
X37877857Y-67745638D01*
X37420714Y-69315638D01*
X37420714Y-67745638D01*
X38487380Y-71693814D02*
X38525476Y-71768576D01*
X38639761Y-71843338D01*
X38715952Y-71843338D01*
X38830238Y-71768576D01*
X38906428Y-71619052D01*
X38944523Y-71469528D01*
X38982619Y-71170480D01*
X38982619Y-70946195D01*
X38944523Y-70647147D01*
X38906428Y-70497623D01*
X38830238Y-70348100D01*
X38715952Y-70273338D01*
X38639761Y-70273338D01*
X38525476Y-70348100D01*
X38487380Y-70422861D01*
X38144523Y-71843338D02*
X38144523Y-70273338D01*
X37839761Y-70273338D01*
X37763571Y-70348100D01*
X37725476Y-70422861D01*
X37687380Y-70572385D01*
X37687380Y-70796671D01*
X37725476Y-70946195D01*
X37763571Y-71020957D01*
X37839761Y-71095719D01*
X38144523Y-71095719D01*
X37077857Y-71020957D02*
X36963571Y-71095719D01*
X36925476Y-71170480D01*
X36887380Y-71320004D01*
X36887380Y-71544290D01*
X36925476Y-71693814D01*
X36963571Y-71768576D01*
X37039761Y-71843338D01*
X37344523Y-71843338D01*
X37344523Y-70273338D01*
X37077857Y-70273338D01*
X37001666Y-70348100D01*
X36963571Y-70422861D01*
X36925476Y-70572385D01*
X36925476Y-70721909D01*
X36963571Y-70871433D01*
X37001666Y-70946195D01*
X37077857Y-71020957D01*
X37344523Y-71020957D01*
D10*
X65107619Y-73820000D02*
X66107619Y-73820000D01*
X66107619Y-73629523D01*
X66060000Y-73515238D01*
X65964761Y-73439047D01*
X65869523Y-73400952D01*
X65679047Y-73362857D01*
X65536190Y-73362857D01*
X65345714Y-73400952D01*
X65250476Y-73439047D01*
X65155238Y-73515238D01*
X65107619Y-73629523D01*
X65107619Y-73820000D01*
X65107619Y-73019999D02*
X66107619Y-73020000D01*
X65107619Y-72181904D02*
X65583809Y-72448571D01*
X65107619Y-72639047D02*
X66107619Y-72639047D01*
X66107619Y-72334285D01*
X66060000Y-72258095D01*
X66012380Y-72220000D01*
X65917142Y-72181904D01*
X65774285Y-72181904D01*
X65679047Y-72220000D01*
X65631428Y-72258095D01*
X65583809Y-72334285D01*
X65583809Y-72639047D01*
X71360952Y-45722380D02*
X71360952Y-44722380D01*
X70932380Y-45722380D02*
X70932380Y-45198571D01*
X70980000Y-45103333D01*
X71075238Y-45055714D01*
X71218095Y-45055714D01*
X71313333Y-45103333D01*
X71360952Y-45150952D01*
X70027619Y-45722380D02*
X70027619Y-45198571D01*
X70075238Y-45103333D01*
X70170476Y-45055714D01*
X70360952Y-45055714D01*
X70456190Y-45103333D01*
X70027619Y-45674761D02*
X70122857Y-45722380D01*
X70360952Y-45722380D01*
X70456190Y-45674761D01*
X70503809Y-45579523D01*
X70503809Y-45484285D01*
X70456190Y-45389047D01*
X70360952Y-45341428D01*
X70122857Y-45341428D01*
X70027619Y-45293809D01*
X69408571Y-45722380D02*
X69503809Y-45674761D01*
X69551428Y-45579523D01*
X69551428Y-44722380D01*
X68884761Y-45722380D02*
X68980000Y-45674761D01*
X69027619Y-45579523D01*
X69027619Y-44722380D01*
X67313333Y-45674761D02*
X67408571Y-45722380D01*
X67599047Y-45722380D01*
X67694285Y-45674761D01*
X67741904Y-45627142D01*
X67789523Y-45531904D01*
X67789523Y-45246190D01*
X67741904Y-45150952D01*
X67694285Y-45103333D01*
X67599047Y-45055714D01*
X67408571Y-45055714D01*
X67313333Y-45103333D01*
X66741904Y-45722380D02*
X66837142Y-45674761D01*
X66884761Y-45627142D01*
X66932380Y-45531904D01*
X66932380Y-45246190D01*
X66884761Y-45150952D01*
X66837142Y-45103333D01*
X66741904Y-45055714D01*
X66599047Y-45055714D01*
X66503809Y-45103333D01*
X66456190Y-45150952D01*
X66408571Y-45246190D01*
X66408571Y-45531904D01*
X66456190Y-45627142D01*
X66503809Y-45674761D01*
X66599047Y-45722380D01*
X66741904Y-45722380D01*
X65980000Y-45055714D02*
X65980000Y-45722380D01*
X65980000Y-45150952D02*
X65932380Y-45103333D01*
X65837142Y-45055714D01*
X65694285Y-45055714D01*
X65599047Y-45103333D01*
X65551428Y-45198571D01*
X65551428Y-45722380D01*
X65218095Y-45055714D02*
X64837142Y-45055714D01*
X65075238Y-45722380D02*
X65075238Y-44865238D01*
X65027619Y-44770000D01*
X64932380Y-44722380D01*
X64837142Y-44722380D01*
X64503809Y-45722380D02*
X64503809Y-45055714D01*
X64503809Y-44722380D02*
X64551428Y-44770000D01*
X64503809Y-44817619D01*
X64456190Y-44770000D01*
X64503809Y-44722380D01*
X64503809Y-44817619D01*
X63599047Y-45055714D02*
X63599047Y-45865238D01*
X63646666Y-45960476D01*
X63694285Y-46008095D01*
X63789523Y-46055714D01*
X63932380Y-46055714D01*
X64027619Y-46008095D01*
X63599047Y-45674761D02*
X63694285Y-45722380D01*
X63884761Y-45722380D01*
X63980000Y-45674761D01*
X64027619Y-45627142D01*
X64075238Y-45531904D01*
X64075238Y-45246190D01*
X64027619Y-45150952D01*
X63980000Y-45103333D01*
X63884761Y-45055714D01*
X63694285Y-45055714D01*
X63599047Y-45103333D01*
X67617619Y-74163809D02*
X68617619Y-74163809D01*
X68617619Y-73859047D01*
X68570000Y-73782857D01*
X68522380Y-73744761D01*
X68427142Y-73706666D01*
X68284285Y-73706666D01*
X68189047Y-73744761D01*
X68141428Y-73782857D01*
X68093809Y-73859047D01*
X68093809Y-74163809D01*
X68617619Y-73440000D02*
X67617619Y-73249523D01*
X68331904Y-73097142D01*
X67617619Y-72944761D01*
X68617619Y-72754285D01*
X67617619Y-72449523D02*
X68617619Y-72449523D01*
X67903333Y-72182857D01*
X68617619Y-71916190D01*
X67617619Y-71916190D01*
X63493333Y-57279523D02*
X63493333Y-56898571D01*
X63207619Y-57355714D02*
X64207619Y-57089047D01*
X63207619Y-56822380D01*
X64207619Y-56403333D02*
X64207619Y-56250952D01*
X64160000Y-56174761D01*
X64064761Y-56098571D01*
X63874285Y-56060476D01*
X63540952Y-56060476D01*
X63350476Y-56098571D01*
X63255238Y-56174761D01*
X63207619Y-56250952D01*
X63207619Y-56403333D01*
X63255238Y-56479523D01*
X63350476Y-56555714D01*
X63540952Y-56593809D01*
X63874285Y-56593809D01*
X64064761Y-56555714D01*
X64160000Y-56479523D01*
X64207619Y-56403333D01*
X65831428Y-65759047D02*
X65783809Y-65644761D01*
X65736190Y-65606666D01*
X65640952Y-65568571D01*
X65498095Y-65568571D01*
X65402857Y-65606666D01*
X65355238Y-65644761D01*
X65307619Y-65720952D01*
X65307619Y-66025714D01*
X66307619Y-66025714D01*
X66307619Y-65759047D01*
X66260000Y-65682857D01*
X66212380Y-65644761D01*
X66117142Y-65606666D01*
X66021904Y-65606666D01*
X65926666Y-65644761D01*
X65879047Y-65682857D01*
X65831428Y-65759047D01*
X65831428Y-66025714D01*
X65307619Y-65225714D02*
X65974285Y-65225714D01*
X65783809Y-65225714D02*
X65879047Y-65187619D01*
X65926666Y-65149523D01*
X65974285Y-65073333D01*
X65974285Y-64997142D01*
X65307619Y-64387619D02*
X65831428Y-64387619D01*
X65926666Y-64425714D01*
X65974285Y-64501904D01*
X65974285Y-64654285D01*
X65926666Y-64730476D01*
X65355238Y-64387619D02*
X65307619Y-64463809D01*
X65307619Y-64654285D01*
X65355238Y-64730476D01*
X65450476Y-64768571D01*
X65545714Y-64768571D01*
X65640952Y-64730476D01*
X65688571Y-64654285D01*
X65688571Y-64463809D01*
X65736190Y-64387619D01*
X65307619Y-64006666D02*
X66307619Y-64006666D01*
X65688571Y-63930476D02*
X65307619Y-63701904D01*
X65974285Y-63701904D02*
X65593333Y-64006666D01*
X65355238Y-63054285D02*
X65307619Y-63130476D01*
X65307619Y-63282857D01*
X65355238Y-63359047D01*
X65450476Y-63397142D01*
X65831428Y-63397142D01*
X65926666Y-63359047D01*
X65974285Y-63282857D01*
X65974285Y-63130476D01*
X65926666Y-63054285D01*
X65831428Y-63016190D01*
X65736190Y-63016190D01*
X65640952Y-63397142D01*
X71113333Y-50099523D02*
X71113333Y-49718571D01*
X70827619Y-50175714D02*
X71827619Y-49909047D01*
X70827619Y-49642380D01*
X71827619Y-49223333D02*
X71827619Y-49070952D01*
X71780000Y-48994761D01*
X71684761Y-48918571D01*
X71494285Y-48880476D01*
X71160952Y-48880476D01*
X70970476Y-48918571D01*
X70875238Y-48994761D01*
X70827619Y-49070952D01*
X70827619Y-49223333D01*
X70875238Y-49299523D01*
X70970476Y-49375714D01*
X71160952Y-49413809D01*
X71494285Y-49413809D01*
X71684761Y-49375714D01*
X71780000Y-49299523D01*
X71827619Y-49223333D01*
M02*
