%TF.GenerationSoftware,KiCad,Pcbnew,6.0.11*%
%TF.CreationDate,2025-01-17T14:03:23+01:00*%
%TF.ProjectId,MP6532_board_28-QFN,4d503635-3332-45f6-926f-6172645f3238,rev?*%
%TF.SameCoordinates,Original*%
%TF.FileFunction,Copper,L3,Inr*%
%TF.FilePolarity,Positive*%
%FSLAX46Y46*%
G04 Gerber Fmt 4.6, Leading zero omitted, Abs format (unit mm)*
G04 Created by KiCad (PCBNEW 6.0.11) date 2025-01-17 14:03:23*
%MOMM*%
%LPD*%
G01*
G04 APERTURE LIST*
%TA.AperFunction,ComponentPad*%
%ADD10R,1.600000X1.600000*%
%TD*%
%TA.AperFunction,ComponentPad*%
%ADD11O,1.600000X1.600000*%
%TD*%
%TA.AperFunction,ComponentPad*%
%ADD12C,2.400000*%
%TD*%
%TA.AperFunction,ComponentPad*%
%ADD13C,1.440000*%
%TD*%
%TA.AperFunction,ComponentPad*%
%ADD14C,0.500000*%
%TD*%
%TA.AperFunction,ComponentPad*%
%ADD15R,1.700000X1.700000*%
%TD*%
%TA.AperFunction,ComponentPad*%
%ADD16O,1.700000X1.700000*%
%TD*%
%TA.AperFunction,ViaPad*%
%ADD17C,0.800000*%
%TD*%
%TA.AperFunction,Conductor*%
%ADD18C,0.250000*%
%TD*%
G04 APERTURE END LIST*
D10*
%TO.N,/VREG*%
%TO.C,U2*%
X57912000Y-71120000D03*
D11*
%TO.N,/BSTA*%
X55372000Y-71120000D03*
%TO.N,HAS*%
X57912000Y-68580000D03*
%TO.N,/GHA*%
X55372000Y-68580000D03*
%TO.N,/GLA*%
X57912000Y-66040000D03*
%TO.N,/BSTB*%
X55372000Y-66040000D03*
%TO.N,HBS*%
X57912000Y-63500000D03*
%TO.N,/GHB*%
X55372000Y-63500000D03*
%TO.N,/GLB*%
X57912000Y-60960000D03*
%TO.N,/BSTC*%
X55372000Y-60960000D03*
%TO.N,HCS*%
X57912000Y-58420000D03*
%TO.N,/GHC*%
X55372000Y-58420000D03*
%TO.N,/GLC*%
X57912000Y-55880000D03*
%TO.N,LSS*%
X55372000Y-55880000D03*
%TO.N,Net-(C9-Pad1)*%
X42672000Y-55880000D03*
%TO.N,Net-(C8-Pad1)*%
X40132000Y-55880000D03*
%TO.N,Net-(C7-Pad1)*%
X42672000Y-58420000D03*
%TO.N,/nBRAKE*%
X40132000Y-58420000D03*
%TO.N,/PWM*%
X42672000Y-60960000D03*
%TO.N,/DIR*%
X40132000Y-60960000D03*
%TO.N,/nFAULT*%
X42672000Y-63500000D03*
%TO.N,/nSLEEP*%
X40132000Y-63500000D03*
%TO.N,/OCREF*%
X42672000Y-66040000D03*
%TO.N,/DT*%
X40132000Y-66040000D03*
%TO.N,GND*%
X42672000Y-68580000D03*
%TO.N,VIN*%
X40132000Y-68580000D03*
%TO.N,/CPA*%
X42672000Y-71120000D03*
%TO.N,/CPB*%
X40132000Y-71120000D03*
%TD*%
D12*
%TO.N,LSS*%
%TO.C,H2*%
X117860000Y-54560000D03*
%TD*%
D13*
%TO.N,GND*%
%TO.C,RV1*%
X55499000Y-48387000D03*
%TO.N,/OCREF*%
X52959000Y-45847000D03*
%TO.N,Net-(R7-Pad1)*%
X50419000Y-48387000D03*
%TD*%
D14*
%TO.N,GND*%
%TO.C,U1*%
X49942462Y-62657538D03*
X49200000Y-63400000D03*
X49942462Y-64142462D03*
X50684924Y-63400000D03*
X48457538Y-62657538D03*
X49200000Y-64884924D03*
X49200000Y-61915076D03*
X48457538Y-64142462D03*
X47715076Y-63400000D03*
%TD*%
D12*
%TO.N,GND*%
%TO.C,H5*%
X113538000Y-71125000D03*
%TD*%
D15*
%TO.N,/HA*%
%TO.C,J1*%
X63560000Y-54500000D03*
D16*
%TO.N,HAIN*%
X63560000Y-51960000D03*
%TO.N,HBIN*%
X66100000Y-54500000D03*
%TO.N,/HB*%
X66100000Y-51960000D03*
%TO.N,/HC*%
X68640000Y-54500000D03*
%TO.N,HCIN*%
X68640000Y-51960000D03*
%TO.N,HAIN*%
X71180000Y-54500000D03*
%TO.N,/HA*%
X71180000Y-51960000D03*
%TD*%
D12*
%TO.N,LSS*%
%TO.C,H1*%
X113970000Y-54570000D03*
%TD*%
D15*
%TO.N,GND*%
%TO.C,J2*%
X106235000Y-68030000D03*
D16*
X106235000Y-70570000D03*
X103695000Y-68030000D03*
X103695000Y-70570000D03*
%TO.N,Net-(J2-Pad5)*%
X101155000Y-68030000D03*
%TO.N,GND*%
X101155000Y-70570000D03*
%TO.N,HCS*%
X98615000Y-68030000D03*
X98615000Y-70570000D03*
X96075000Y-68030000D03*
X96075000Y-70570000D03*
%TO.N,HBS*%
X93535000Y-68030000D03*
X93535000Y-70570000D03*
X90995000Y-68030000D03*
X90995000Y-70570000D03*
%TO.N,VIN*%
X88455000Y-68030000D03*
X88455000Y-70570000D03*
X85915000Y-68030000D03*
X85915000Y-70570000D03*
X83375000Y-68030000D03*
X83375000Y-70570000D03*
%TO.N,HAS*%
X80835000Y-68030000D03*
X80835000Y-70570000D03*
X78295000Y-68030000D03*
X78295000Y-70570000D03*
%TO.N,GND*%
X75755000Y-68030000D03*
X75755000Y-70570000D03*
%TO.N,HCIN*%
X73215000Y-68030000D03*
%TO.N,/nSLEEP*%
X73215000Y-70570000D03*
%TO.N,HBIN*%
X70675000Y-68030000D03*
%TO.N,/nFAULT*%
X70675000Y-70570000D03*
%TO.N,HAIN*%
X68135000Y-68030000D03*
%TO.N,/PWM*%
X68135000Y-70570000D03*
%TO.N,/nBRAKE*%
X65595000Y-68030000D03*
%TO.N,/DIR*%
X65595000Y-70570000D03*
%TO.N,5V*%
X63055000Y-68030000D03*
X63055000Y-70570000D03*
%TD*%
D12*
%TO.N,GND*%
%TO.C,H6*%
X117478000Y-71125000D03*
%TD*%
D17*
%TO.N,LSS*%
X115500000Y-65700000D03*
X115600000Y-64500000D03*
%TO.N,GND*%
X43770000Y-49000000D03*
%TO.N,/HC*%
X49780000Y-51140000D03*
%TO.N,HAS*%
X77547989Y-52147989D03*
X72710000Y-61410000D03*
X71460000Y-58980000D03*
X75008680Y-55958680D03*
X77470000Y-57150000D03*
X76200000Y-59690000D03*
X65533884Y-60203063D03*
X74930000Y-59690000D03*
X78740000Y-58420000D03*
X74930000Y-58420000D03*
X77470000Y-59690000D03*
X76200000Y-57150000D03*
X78740000Y-59690000D03*
X70178176Y-59382112D03*
X78740000Y-57150000D03*
X77470000Y-58420000D03*
X77470000Y-55880000D03*
X76200000Y-55880000D03*
X72690000Y-58340000D03*
X74340000Y-62110000D03*
X77470000Y-53340000D03*
X71190000Y-60430000D03*
X72390000Y-59690000D03*
X76200000Y-58420000D03*
X78740000Y-55880000D03*
X74930000Y-57150000D03*
%TO.N,GND*%
X121390000Y-62090000D03*
X121440000Y-55290000D03*
X72070000Y-65040000D03*
X121420000Y-65510000D03*
X39780000Y-51830000D03*
X121330000Y-68900000D03*
X64285000Y-64860002D03*
X121470000Y-58700000D03*
X123530000Y-68900000D03*
X45900000Y-74700000D03*
X123590000Y-51820000D03*
X123530000Y-65480000D03*
X123570000Y-58700000D03*
X123620000Y-62150000D03*
X123610000Y-55320000D03*
X121470000Y-51750000D03*
%TO.N,LSS*%
X115600000Y-60000000D03*
X109460000Y-65260000D03*
X94550000Y-63960000D03*
X115500000Y-57200000D03*
X79355000Y-64755000D03*
X113660000Y-66080000D03*
X114500000Y-61100000D03*
X114400000Y-63400000D03*
X113300000Y-57000000D03*
X94580000Y-64980000D03*
X114500000Y-58700000D03*
X115600000Y-62300000D03*
X79370000Y-63660000D03*
X112180000Y-66120000D03*
X109460000Y-64240000D03*
%TO.N,VIN*%
X97790000Y-44450000D03*
X92710000Y-48260000D03*
X109220000Y-48260000D03*
X106680000Y-44450000D03*
X126850000Y-63080000D03*
X120200000Y-49200000D03*
X91440000Y-45720000D03*
X76200000Y-46990000D03*
X91440000Y-48260000D03*
X93980000Y-44450000D03*
X77470000Y-48260000D03*
X93980000Y-48260000D03*
X114300000Y-44450000D03*
X78740000Y-44450000D03*
X90170000Y-45720000D03*
X126850000Y-54690000D03*
X107950000Y-45720000D03*
X126850000Y-66520000D03*
X93980000Y-45720000D03*
X106680000Y-45720000D03*
X122030000Y-44160000D03*
X123680000Y-49530000D03*
X126380000Y-49720000D03*
X90170000Y-48260000D03*
X122570000Y-49200000D03*
X86360000Y-44450000D03*
X121460000Y-45810000D03*
X90170000Y-46990000D03*
X121390000Y-49200000D03*
X74930000Y-44450000D03*
X74930000Y-45720000D03*
X78740000Y-45720000D03*
X82550000Y-44450000D03*
X107950000Y-44450000D03*
X111760000Y-44450000D03*
X126820000Y-59580000D03*
X91440000Y-46990000D03*
X74930000Y-48260000D03*
X76200000Y-48260000D03*
X109220000Y-46990000D03*
X74930000Y-46990000D03*
X113030000Y-44450000D03*
X125030000Y-49770000D03*
X105410000Y-44450000D03*
X93980000Y-46990000D03*
X101600000Y-44450000D03*
X78740000Y-46990000D03*
X77470000Y-46990000D03*
X126820000Y-55990000D03*
X126850000Y-69730000D03*
X126790000Y-58010000D03*
X126790000Y-52840000D03*
X126790000Y-61490000D03*
X99060000Y-44450000D03*
X91440000Y-44450000D03*
X83820000Y-44450000D03*
X85090000Y-44450000D03*
X121480000Y-47350000D03*
X105410000Y-48260000D03*
X92710000Y-44450000D03*
X105410000Y-46990000D03*
X92710000Y-46990000D03*
X78740000Y-48260000D03*
X100330000Y-44450000D03*
X106680000Y-48260000D03*
X126850000Y-51530000D03*
X109220000Y-44450000D03*
X77470000Y-45720000D03*
X105410000Y-45720000D03*
X126850000Y-68200000D03*
X106680000Y-46990000D03*
X92710000Y-45720000D03*
X109220000Y-45720000D03*
X77470000Y-44450000D03*
X76200000Y-44450000D03*
X90170000Y-44450000D03*
X107950000Y-46990000D03*
X76200000Y-45720000D03*
X115570000Y-44450000D03*
X107950000Y-48260000D03*
X126820000Y-64900000D03*
%TO.N,Net-(C4-Pad2)*%
X91260000Y-63890000D03*
X98620000Y-60490000D03*
%TO.N,HBS*%
X93980000Y-59690000D03*
X91440000Y-59690000D03*
X91440000Y-55880000D03*
X64840000Y-59340000D03*
X92710000Y-59690000D03*
X93980000Y-58420000D03*
X69024174Y-59614559D03*
X92710000Y-58420000D03*
X93980000Y-55880000D03*
X93980000Y-57150000D03*
X91440000Y-58420000D03*
X90170000Y-57150000D03*
X90170000Y-59690000D03*
X92710000Y-55880000D03*
X92710000Y-53984500D03*
X92710000Y-57150000D03*
X92710000Y-52070000D03*
X90170000Y-58420000D03*
X90170000Y-55880000D03*
X91440000Y-57150000D03*
%TO.N,HCS*%
X101600000Y-59690000D03*
X105410000Y-57150000D03*
X106680000Y-57150000D03*
X101600000Y-58420000D03*
X105410000Y-55880000D03*
X109220000Y-58420000D03*
X109220000Y-55880000D03*
X68291799Y-58934388D03*
X107950000Y-53340000D03*
X102870000Y-59690000D03*
X105410000Y-59690000D03*
X107950000Y-57150000D03*
X101600000Y-57150000D03*
X109220000Y-59690000D03*
X109220000Y-57150000D03*
X106680000Y-58420000D03*
X107950000Y-52070000D03*
X107950000Y-55880000D03*
X102870000Y-55880000D03*
X102870000Y-58420000D03*
X106680000Y-59690000D03*
X107950000Y-59690000D03*
X107950000Y-58420000D03*
X106680000Y-55880000D03*
X102870000Y-57150000D03*
X64600000Y-58300000D03*
X105410000Y-58420000D03*
%TO.N,Net-(C6-Pad2)*%
X118067500Y-50150000D03*
X106060000Y-64660000D03*
%TO.N,Net-(D7-Pad2)*%
X61260000Y-43120000D03*
X61025000Y-48315000D03*
%TO.N,/GHA*%
X83439000Y-47244000D03*
%TO.N,/GLA*%
X69520000Y-62010500D03*
X81788000Y-57912000D03*
X66757477Y-61028667D03*
%TO.N,/GHB*%
X98425000Y-47371000D03*
X67573089Y-56554500D03*
X70300000Y-56500000D03*
%TO.N,/GLB*%
X64780000Y-60960000D03*
X68460000Y-62010500D03*
X97282000Y-58166000D03*
%TO.N,/GHC*%
X113665000Y-47371000D03*
X64919001Y-56378586D03*
X69301665Y-57499855D03*
%TO.N,/GLC*%
X68325214Y-57876374D03*
X60970000Y-54980000D03*
X118491000Y-46228000D03*
%TO.N,/HA*%
X47310000Y-53260000D03*
%TO.N,/HB*%
X47260000Y-50080000D03*
%TO.N,/HC*%
X47280000Y-51750000D03*
%TO.N,/nFAULT*%
X59410000Y-45980000D03*
X38867700Y-49677700D03*
%TO.N,/DT*%
X38400000Y-71440000D03*
%TO.N,5V*%
X59370000Y-53310000D03*
%TO.N,Net-(C7-Pad1)*%
X43940000Y-55020000D03*
%TD*%
D18*
%TO.N,HAS*%
X57912000Y-68580000D02*
X59420000Y-68580000D01*
X59420000Y-68580000D02*
X65533884Y-62466116D01*
X65533884Y-62466116D02*
X65533884Y-60203063D01*
%TO.N,HBS*%
X64720000Y-59460000D02*
X64840000Y-59340000D01*
X57912000Y-63500000D02*
X61952000Y-59460000D01*
X61952000Y-59460000D02*
X64720000Y-59460000D01*
%TO.N,HAIN*%
X65600000Y-56722185D02*
X65643501Y-56678684D01*
X64695000Y-50825000D02*
X64925000Y-50825000D01*
X64925000Y-54986701D02*
X64925000Y-50825000D01*
X65600000Y-56034987D02*
X65600000Y-55661701D01*
X65450000Y-50300000D02*
X71600000Y-50300000D01*
X72700000Y-51400000D02*
X72700000Y-52980000D01*
X67537457Y-60782019D02*
X65600000Y-58844562D01*
X63560000Y-51960000D02*
X64695000Y-50825000D01*
X68135000Y-68030000D02*
X67835081Y-68030000D01*
X64925000Y-50825000D02*
X65450000Y-50300000D01*
X67835081Y-68030000D02*
X67537457Y-67732376D01*
X65600000Y-55661701D02*
X64925000Y-54986701D01*
X67537457Y-67732376D02*
X67537457Y-60782019D01*
X65643501Y-56078488D02*
X65600000Y-56034987D01*
X65643501Y-56678684D02*
X65643501Y-56078488D01*
X71600000Y-50300000D02*
X72700000Y-51400000D01*
X72700000Y-52980000D02*
X71180000Y-54500000D01*
X65600000Y-58844562D02*
X65600000Y-56722185D01*
%TO.N,HBIN*%
X68610050Y-61218922D02*
X66049501Y-58658373D01*
X70675000Y-68030000D02*
X70739000Y-67966000D01*
X70739000Y-62199000D02*
X69758922Y-61218922D01*
X69758922Y-61218922D02*
X68610050Y-61218922D01*
X66100000Y-56824621D02*
X66100000Y-54500000D01*
X66049501Y-56875120D02*
X66100000Y-56824621D01*
X66049501Y-58658373D02*
X66049501Y-56875120D01*
X70739000Y-67966000D02*
X70739000Y-62199000D01*
%TO.N,HCIN*%
X67162702Y-58842702D02*
X69089421Y-60769421D01*
X73215000Y-64039310D02*
X73215000Y-68030000D01*
X67465000Y-53135000D02*
X67465000Y-55235000D01*
X66738007Y-57083501D02*
X67162702Y-57508196D01*
X69945111Y-60769421D02*
X73215000Y-64039310D01*
X67465000Y-55235000D02*
X66738007Y-55961993D01*
X66738007Y-55961993D02*
X66738007Y-57083501D01*
X68640000Y-51960000D02*
X67465000Y-53135000D01*
X67162702Y-57508196D02*
X67162702Y-58842702D01*
X69089421Y-60769421D02*
X69945111Y-60769421D01*
%TO.N,Net-(D7-Pad2)*%
X61260000Y-48080000D02*
X61025000Y-48315000D01*
X61260000Y-43120000D02*
X61260000Y-48080000D01*
%TO.N,5V*%
X59370000Y-53310000D02*
X58090000Y-53310000D01*
X57780000Y-73190000D02*
X60435000Y-73190000D01*
X56555000Y-71965000D02*
X57780000Y-73190000D01*
X56555000Y-54845000D02*
X56555000Y-71965000D01*
X56555000Y-54845000D02*
X58090000Y-53310000D01*
X60435000Y-73190000D02*
X63055000Y-70570000D01*
%TD*%
%TA.AperFunction,Conductor*%
%TO.N,LSS*%
G36*
X119173329Y-52366501D02*
G01*
X119301100Y-52376362D01*
X119362667Y-52381113D01*
X119388668Y-52385901D01*
X119570803Y-52439705D01*
X119583267Y-52444111D01*
X119662600Y-52476938D01*
X119676950Y-52483973D01*
X119780018Y-52542891D01*
X119805493Y-52562108D01*
X119884675Y-52639388D01*
X119904504Y-52664387D01*
X119961731Y-52759075D01*
X119974646Y-52788255D01*
X120008559Y-52902027D01*
X120012144Y-52917607D01*
X120050929Y-53153841D01*
X120051888Y-53160934D01*
X120062759Y-53263202D01*
X120063461Y-53277487D01*
X120062666Y-53380300D01*
X120062408Y-53387454D01*
X119938505Y-55304299D01*
X119936925Y-55317635D01*
X119904106Y-55507477D01*
X119896753Y-55533262D01*
X119827019Y-55705609D01*
X119814375Y-55729251D01*
X119709752Y-55882918D01*
X119692382Y-55903357D01*
X119557600Y-56031400D01*
X119536299Y-56047699D01*
X119371692Y-56147826D01*
X119359867Y-56154181D01*
X118200000Y-56700000D01*
X118200000Y-66493813D01*
X118199393Y-66506163D01*
X118182978Y-66672831D01*
X118182002Y-66682737D01*
X118177185Y-66706957D01*
X118144040Y-66816225D01*
X118127482Y-66870809D01*
X118118029Y-66893629D01*
X118037319Y-67044628D01*
X118023601Y-67065158D01*
X117914974Y-67197521D01*
X117897521Y-67214974D01*
X117765158Y-67323601D01*
X117744631Y-67337317D01*
X117652417Y-67386607D01*
X117593629Y-67418029D01*
X117570810Y-67427482D01*
X117406957Y-67477185D01*
X117382740Y-67482001D01*
X117206163Y-67499393D01*
X117193813Y-67500000D01*
X113084597Y-67500000D01*
X113073190Y-67499483D01*
X113051528Y-67497514D01*
X112909963Y-67484645D01*
X112887525Y-67480531D01*
X112735183Y-67438047D01*
X112713854Y-67429955D01*
X112566507Y-67358181D01*
X112556483Y-67352723D01*
X112315713Y-67207107D01*
X111682540Y-66824170D01*
X111641298Y-66799227D01*
X111641294Y-66799225D01*
X111638867Y-66797757D01*
X111638862Y-66797755D01*
X111400000Y-66653293D01*
X111117988Y-66653438D01*
X111117984Y-66653438D01*
X105640276Y-66656258D01*
X99719948Y-66659306D01*
X98886687Y-66695367D01*
X98859145Y-66693532D01*
X98748373Y-66673800D01*
X98748367Y-66673799D01*
X98743284Y-66672894D01*
X98669452Y-66671992D01*
X98525081Y-66670228D01*
X98525079Y-66670228D01*
X98519911Y-66670165D01*
X98372627Y-66692703D01*
X98304200Y-66703173D01*
X98304197Y-66703174D01*
X98299091Y-66703955D01*
X98294179Y-66705561D01*
X98294177Y-66705561D01*
X98256128Y-66717997D01*
X98222433Y-66724114D01*
X96721115Y-66789086D01*
X96720014Y-66789128D01*
X96714323Y-66789316D01*
X96701252Y-66789746D01*
X96698669Y-66789804D01*
X96680117Y-66790034D01*
X96678818Y-66790044D01*
X96665401Y-66790072D01*
X96623078Y-66782845D01*
X96428087Y-66713795D01*
X96428083Y-66713794D01*
X96423212Y-66712069D01*
X96418119Y-66711162D01*
X96418116Y-66711161D01*
X96208373Y-66673800D01*
X96208367Y-66673799D01*
X96203284Y-66672894D01*
X96129452Y-66671992D01*
X95985081Y-66670228D01*
X95985079Y-66670228D01*
X95979911Y-66670165D01*
X95759091Y-66703955D01*
X95546756Y-66773357D01*
X95542170Y-66775744D01*
X95542166Y-66775746D01*
X95537280Y-66778289D01*
X95479364Y-66792524D01*
X94459178Y-66794635D01*
X94139293Y-66795297D01*
X94094135Y-66785660D01*
X94093789Y-66786638D01*
X93888087Y-66713795D01*
X93888083Y-66713794D01*
X93883212Y-66712069D01*
X93878119Y-66711162D01*
X93878116Y-66711161D01*
X93668373Y-66673800D01*
X93668367Y-66673799D01*
X93663284Y-66672894D01*
X93589452Y-66671992D01*
X93445081Y-66670228D01*
X93445079Y-66670228D01*
X93439911Y-66670165D01*
X93219091Y-66703955D01*
X93071032Y-66752348D01*
X93011675Y-66771749D01*
X93011673Y-66771750D01*
X93006756Y-66773357D01*
X93002167Y-66775746D01*
X93002165Y-66775747D01*
X92987150Y-66783563D01*
X92929232Y-66797799D01*
X91753534Y-66800231D01*
X91610931Y-66800526D01*
X91559019Y-66789453D01*
X91558312Y-66789135D01*
X91553789Y-66786638D01*
X91548920Y-66784914D01*
X91548916Y-66784912D01*
X91348087Y-66713795D01*
X91348083Y-66713794D01*
X91343212Y-66712069D01*
X91338119Y-66711162D01*
X91338116Y-66711161D01*
X91128373Y-66673800D01*
X91128367Y-66673799D01*
X91123284Y-66672894D01*
X91049452Y-66671992D01*
X90905081Y-66670228D01*
X90905079Y-66670228D01*
X90899911Y-66670165D01*
X90679091Y-66703955D01*
X90466756Y-66773357D01*
X90444561Y-66784911D01*
X90437019Y-66788837D01*
X90379101Y-66803073D01*
X89081153Y-66805758D01*
X89023194Y-66790885D01*
X89023028Y-66791255D01*
X89020889Y-66790294D01*
X89019996Y-66790065D01*
X89013789Y-66786638D01*
X89008920Y-66784914D01*
X89008916Y-66784912D01*
X88808087Y-66713795D01*
X88808083Y-66713794D01*
X88803212Y-66712069D01*
X88798119Y-66711162D01*
X88798116Y-66711161D01*
X88588373Y-66673800D01*
X88588367Y-66673799D01*
X88583284Y-66672894D01*
X88509452Y-66671992D01*
X88365081Y-66670228D01*
X88365079Y-66670228D01*
X88359911Y-66670165D01*
X88139091Y-66703955D01*
X87926756Y-66773357D01*
X87897019Y-66788837D01*
X87886888Y-66794111D01*
X87828970Y-66808347D01*
X86758077Y-66810563D01*
X86550633Y-66810992D01*
X86489481Y-66795300D01*
X86473789Y-66786638D01*
X86312111Y-66729385D01*
X86268087Y-66713795D01*
X86268083Y-66713794D01*
X86263212Y-66712069D01*
X86258119Y-66711162D01*
X86258116Y-66711161D01*
X86048373Y-66673800D01*
X86048367Y-66673799D01*
X86043284Y-66672894D01*
X85969452Y-66671992D01*
X85825081Y-66670228D01*
X85825079Y-66670228D01*
X85819911Y-66670165D01*
X85599091Y-66703955D01*
X85386756Y-66773357D01*
X85382176Y-66775741D01*
X85382167Y-66775745D01*
X85336754Y-66799385D01*
X85278836Y-66813621D01*
X84020115Y-66816225D01*
X83958961Y-66800533D01*
X83933789Y-66786638D01*
X83928920Y-66784914D01*
X83928916Y-66784912D01*
X83728087Y-66713795D01*
X83728083Y-66713794D01*
X83723212Y-66712069D01*
X83718119Y-66711162D01*
X83718116Y-66711161D01*
X83508373Y-66673800D01*
X83508367Y-66673799D01*
X83503284Y-66672894D01*
X83429452Y-66671992D01*
X83285081Y-66670228D01*
X83285079Y-66670228D01*
X83279911Y-66670165D01*
X83059091Y-66703955D01*
X82846756Y-66773357D01*
X82824561Y-66784911D01*
X82786625Y-66804659D01*
X82728707Y-66818895D01*
X81638735Y-66821150D01*
X81489595Y-66821459D01*
X81428442Y-66805768D01*
X81393789Y-66786638D01*
X81388920Y-66784914D01*
X81388916Y-66784912D01*
X81188087Y-66713795D01*
X81188083Y-66713794D01*
X81183212Y-66712069D01*
X81178119Y-66711162D01*
X81178116Y-66711161D01*
X80968373Y-66673800D01*
X80968367Y-66673799D01*
X80963284Y-66672894D01*
X80889452Y-66671992D01*
X80745081Y-66670228D01*
X80745079Y-66670228D01*
X80739911Y-66670165D01*
X80519091Y-66703955D01*
X80371032Y-66752348D01*
X80311675Y-66771749D01*
X80311673Y-66771750D01*
X80306756Y-66773357D01*
X80302161Y-66775749D01*
X80236493Y-66809933D01*
X80178574Y-66824170D01*
X79843964Y-66824862D01*
X78959077Y-66826692D01*
X78897924Y-66811001D01*
X78858323Y-66789140D01*
X78858312Y-66789135D01*
X78853789Y-66786638D01*
X78848920Y-66784914D01*
X78848916Y-66784912D01*
X78648087Y-66713795D01*
X78648083Y-66713794D01*
X78643212Y-66712069D01*
X78638119Y-66711162D01*
X78638116Y-66711161D01*
X78428373Y-66673800D01*
X78428367Y-66673799D01*
X78423284Y-66672894D01*
X78349452Y-66671992D01*
X78205081Y-66670228D01*
X78205079Y-66670228D01*
X78199911Y-66670165D01*
X77979091Y-66703955D01*
X77766756Y-66773357D01*
X77762176Y-66775741D01*
X77762167Y-66775745D01*
X77723311Y-66795972D01*
X77651536Y-66809472D01*
X77626900Y-66806798D01*
X77599847Y-66800797D01*
X77418072Y-66738842D01*
X77392987Y-66727073D01*
X77229147Y-66626882D01*
X77207239Y-66609913D01*
X77064246Y-66471474D01*
X77054823Y-66461288D01*
X76325730Y-65580404D01*
X76318634Y-65570963D01*
X76223257Y-65430839D01*
X76211865Y-65410176D01*
X76146654Y-65260175D01*
X76139315Y-65237751D01*
X76103213Y-65078220D01*
X76100182Y-65054819D01*
X76094249Y-64885424D01*
X76094389Y-64873615D01*
X76152249Y-63890000D01*
X90346496Y-63890000D01*
X90366458Y-64079928D01*
X90425473Y-64261556D01*
X90520960Y-64426944D01*
X90525378Y-64431851D01*
X90525379Y-64431852D01*
X90565702Y-64476635D01*
X90648747Y-64568866D01*
X90747843Y-64640864D01*
X90783218Y-64666565D01*
X90803248Y-64681118D01*
X90809276Y-64683802D01*
X90809278Y-64683803D01*
X90971681Y-64756109D01*
X90977712Y-64758794D01*
X91071113Y-64778647D01*
X91158056Y-64797128D01*
X91158061Y-64797128D01*
X91164513Y-64798500D01*
X91355487Y-64798500D01*
X91361939Y-64797128D01*
X91361944Y-64797128D01*
X91448887Y-64778647D01*
X91542288Y-64758794D01*
X91548319Y-64756109D01*
X91710722Y-64683803D01*
X91710724Y-64683802D01*
X91716752Y-64681118D01*
X91736783Y-64666565D01*
X91745819Y-64660000D01*
X105146496Y-64660000D01*
X105147186Y-64666565D01*
X105160909Y-64797128D01*
X105166458Y-64849928D01*
X105225473Y-65031556D01*
X105228776Y-65037278D01*
X105228777Y-65037279D01*
X105262686Y-65096010D01*
X105320960Y-65196944D01*
X105448747Y-65338866D01*
X105603248Y-65451118D01*
X105609276Y-65453802D01*
X105609278Y-65453803D01*
X105771681Y-65526109D01*
X105777712Y-65528794D01*
X105871113Y-65548647D01*
X105958056Y-65567128D01*
X105958061Y-65567128D01*
X105964513Y-65568500D01*
X106155487Y-65568500D01*
X106161939Y-65567128D01*
X106161944Y-65567128D01*
X106248887Y-65548647D01*
X106342288Y-65528794D01*
X106348319Y-65526109D01*
X106510722Y-65453803D01*
X106510724Y-65453802D01*
X106516752Y-65451118D01*
X106671253Y-65338866D01*
X106799040Y-65196944D01*
X106857314Y-65096010D01*
X106891223Y-65037279D01*
X106891224Y-65037278D01*
X106894527Y-65031556D01*
X106953542Y-64849928D01*
X106959092Y-64797128D01*
X106972814Y-64666565D01*
X106973504Y-64660000D01*
X106953542Y-64470072D01*
X106894527Y-64288444D01*
X106799040Y-64123056D01*
X106760208Y-64079928D01*
X106675675Y-63986045D01*
X106675674Y-63986044D01*
X106671253Y-63981134D01*
X106545818Y-63890000D01*
X106522094Y-63872763D01*
X106522093Y-63872762D01*
X106516752Y-63868882D01*
X106510724Y-63866198D01*
X106510722Y-63866197D01*
X106348319Y-63793891D01*
X106348318Y-63793891D01*
X106342288Y-63791206D01*
X106248888Y-63771353D01*
X106161944Y-63752872D01*
X106161939Y-63752872D01*
X106155487Y-63751500D01*
X105964513Y-63751500D01*
X105958061Y-63752872D01*
X105958056Y-63752872D01*
X105871112Y-63771353D01*
X105777712Y-63791206D01*
X105771682Y-63793891D01*
X105771681Y-63793891D01*
X105609278Y-63866197D01*
X105609276Y-63866198D01*
X105603248Y-63868882D01*
X105597907Y-63872762D01*
X105597906Y-63872763D01*
X105574182Y-63890000D01*
X105448747Y-63981134D01*
X105444326Y-63986044D01*
X105444325Y-63986045D01*
X105359793Y-64079928D01*
X105320960Y-64123056D01*
X105225473Y-64288444D01*
X105166458Y-64470072D01*
X105146496Y-64660000D01*
X91745819Y-64660000D01*
X91772157Y-64640864D01*
X91871253Y-64568866D01*
X91954298Y-64476635D01*
X91994621Y-64431852D01*
X91994622Y-64431851D01*
X91999040Y-64426944D01*
X92094527Y-64261556D01*
X92153542Y-64079928D01*
X92173504Y-63890000D01*
X92163403Y-63793891D01*
X92154232Y-63706635D01*
X92154232Y-63706633D01*
X92153542Y-63700072D01*
X92094527Y-63518444D01*
X91999040Y-63353056D01*
X91871253Y-63211134D01*
X91716752Y-63098882D01*
X91710724Y-63096198D01*
X91710722Y-63096197D01*
X91548319Y-63023891D01*
X91548318Y-63023891D01*
X91542288Y-63021206D01*
X91448887Y-63001353D01*
X91361944Y-62982872D01*
X91361939Y-62982872D01*
X91355487Y-62981500D01*
X91164513Y-62981500D01*
X91158061Y-62982872D01*
X91158056Y-62982872D01*
X91071113Y-63001353D01*
X90977712Y-63021206D01*
X90971682Y-63023891D01*
X90971681Y-63023891D01*
X90809278Y-63096197D01*
X90809276Y-63096198D01*
X90803248Y-63098882D01*
X90648747Y-63211134D01*
X90520960Y-63353056D01*
X90425473Y-63518444D01*
X90366458Y-63700072D01*
X90365768Y-63706633D01*
X90365768Y-63706635D01*
X90356597Y-63793891D01*
X90346496Y-63890000D01*
X76152249Y-63890000D01*
X76168183Y-63619115D01*
X76169411Y-63607488D01*
X76194748Y-63441619D01*
X76200400Y-63418955D01*
X76253977Y-63266150D01*
X76263716Y-63244918D01*
X76344578Y-63104628D01*
X76358068Y-63085560D01*
X76446069Y-62982872D01*
X76463432Y-62962611D01*
X76480209Y-62946361D01*
X76611048Y-62841288D01*
X76620493Y-62834398D01*
X77240981Y-62424502D01*
X77251238Y-62418404D01*
X77402603Y-62337873D01*
X77424630Y-62328714D01*
X77457071Y-62318705D01*
X77582715Y-62279942D01*
X77606084Y-62275097D01*
X77776509Y-62256351D01*
X77788432Y-62255610D01*
X79550634Y-62229686D01*
X88242350Y-62101822D01*
X112280164Y-61748200D01*
X112272649Y-57337570D01*
X112268423Y-54857768D01*
X112269273Y-54842942D01*
X112293966Y-54631435D01*
X112300845Y-54602595D01*
X112374280Y-54402712D01*
X112380214Y-54389098D01*
X112521085Y-54111783D01*
X112948695Y-53270000D01*
X113074095Y-53023142D01*
X113080927Y-53011324D01*
X113142119Y-52917607D01*
X113188023Y-52847305D01*
X113205316Y-52826219D01*
X113340283Y-52693900D01*
X113361708Y-52677028D01*
X113403958Y-52650620D01*
X113521983Y-52576851D01*
X113546531Y-52564986D01*
X113724611Y-52501639D01*
X113751144Y-52495334D01*
X113766118Y-52493454D01*
X113945503Y-52470931D01*
X113959107Y-52469968D01*
X114209360Y-52465846D01*
X117594194Y-52410096D01*
X117594318Y-52410094D01*
X117600000Y-52410000D01*
X117605793Y-52409837D01*
X117605804Y-52409837D01*
X119160098Y-52366177D01*
X119173329Y-52366501D01*
G37*
%TD.AperFunction*%
%TD*%
%TA.AperFunction,Conductor*%
%TO.N,HBS*%
G36*
X94447076Y-51307820D02*
G01*
X94488155Y-51312456D01*
X94583219Y-51323184D01*
X94611094Y-51329598D01*
X94733464Y-51372872D01*
X94759174Y-51385409D01*
X94868622Y-51455167D01*
X94890843Y-51473180D01*
X94981737Y-51565829D01*
X94999323Y-51588392D01*
X95066974Y-51699154D01*
X95079017Y-51725102D01*
X95119940Y-51848267D01*
X95125820Y-51876263D01*
X95138579Y-52012680D01*
X95139101Y-52026995D01*
X95105412Y-53669654D01*
X94961612Y-60681382D01*
X94960143Y-60698150D01*
X94950875Y-60757779D01*
X94944947Y-60795914D01*
X94935411Y-60828119D01*
X94904091Y-60897955D01*
X94898405Y-60910634D01*
X94880696Y-60939178D01*
X94823209Y-61008976D01*
X94798590Y-61031825D01*
X94724700Y-61083959D01*
X94694916Y-61099494D01*
X94601876Y-61133146D01*
X94585700Y-61137801D01*
X94508890Y-61154443D01*
X94361562Y-61186362D01*
X94353777Y-61187794D01*
X94241151Y-61204863D01*
X94225372Y-61206246D01*
X94111482Y-61209038D01*
X94103572Y-61208983D01*
X92206388Y-61136015D01*
X89243497Y-61022058D01*
X87389729Y-60950759D01*
X87388582Y-60950709D01*
X87381432Y-60950365D01*
X87371221Y-60949873D01*
X87368829Y-60949735D01*
X87351346Y-60948556D01*
X87350141Y-60948469D01*
X86694753Y-60897955D01*
X86601870Y-60890796D01*
X85956224Y-60841033D01*
X85916354Y-60837960D01*
X85916350Y-60837960D01*
X85852000Y-60833000D01*
X85788564Y-60836172D01*
X85788553Y-60836172D01*
X85787584Y-60836220D01*
X85787568Y-60836221D01*
X84748582Y-60888171D01*
X84365703Y-60907315D01*
X84352980Y-60907307D01*
X84249429Y-60902002D01*
X84170439Y-60897955D01*
X84145290Y-60894094D01*
X83974560Y-60849868D01*
X83950698Y-60841033D01*
X83940745Y-60836154D01*
X83792334Y-60763407D01*
X83770734Y-60749958D01*
X83631195Y-60642098D01*
X83612738Y-60624584D01*
X83497714Y-60490888D01*
X83483152Y-60470023D01*
X83397335Y-60315948D01*
X83387261Y-60292582D01*
X83334147Y-60124399D01*
X83328974Y-60099486D01*
X83310071Y-59917700D01*
X83309395Y-59904979D01*
X83302410Y-57075858D01*
X83302964Y-57063747D01*
X83319257Y-56890535D01*
X83323832Y-56866752D01*
X83371245Y-56705697D01*
X83380283Y-56683235D01*
X83457639Y-56534220D01*
X83470808Y-56513901D01*
X83575248Y-56382438D01*
X83592063Y-56365015D01*
X83719712Y-56255974D01*
X83739554Y-56242085D01*
X83771915Y-56223795D01*
X83885719Y-56159476D01*
X83907845Y-56149643D01*
X84067115Y-56096525D01*
X84090716Y-56091108D01*
X84138880Y-56084840D01*
X84263249Y-56068658D01*
X84275333Y-56067674D01*
X84533482Y-56059118D01*
X84947770Y-56045388D01*
X85290974Y-56034013D01*
X85507583Y-56026834D01*
X85507587Y-56026834D01*
X85510956Y-56026722D01*
X85510959Y-56026722D01*
X86106000Y-56007000D01*
X86843012Y-54532977D01*
X86848668Y-54522860D01*
X86936695Y-54381169D01*
X86950709Y-54362665D01*
X87059288Y-54243855D01*
X87076463Y-54228233D01*
X87204991Y-54131367D01*
X87224740Y-54119161D01*
X87368866Y-54047518D01*
X87390521Y-54039143D01*
X87545341Y-53995162D01*
X87568164Y-53990902D01*
X87734241Y-53975536D01*
X87745849Y-53975000D01*
X89281000Y-53975000D01*
X89772163Y-53942256D01*
X90459073Y-53896462D01*
X90459075Y-53896462D01*
X91186000Y-53848000D01*
X91630187Y-52071250D01*
X91633624Y-52059832D01*
X91690659Y-51898435D01*
X91700687Y-51876820D01*
X91784061Y-51734223D01*
X91797979Y-51714882D01*
X91837219Y-51670004D01*
X91906714Y-51590526D01*
X91924017Y-51574159D01*
X92054222Y-51472498D01*
X92074307Y-51459675D01*
X92221316Y-51384351D01*
X92243454Y-51375539D01*
X92402018Y-51329237D01*
X92425422Y-51324751D01*
X92595828Y-51308565D01*
X92607742Y-51308000D01*
X93726000Y-51308000D01*
X93905444Y-51307752D01*
X94432772Y-51307025D01*
X94447076Y-51307820D01*
G37*
%TD.AperFunction*%
%TD*%
%TA.AperFunction,Conductor*%
%TO.N,HAS*%
G36*
X79284275Y-50826158D02*
G01*
X79297281Y-50826944D01*
X79385394Y-50836861D01*
X79483058Y-50847854D01*
X79508475Y-50853418D01*
X79580292Y-50877138D01*
X79679770Y-50909995D01*
X79703507Y-50920666D01*
X79859522Y-51011227D01*
X79880562Y-51026548D01*
X80019512Y-51151615D01*
X80028733Y-51160821D01*
X80129303Y-51272193D01*
X80136652Y-51281123D01*
X80236125Y-51413987D01*
X80248217Y-51433672D01*
X80319183Y-51577250D01*
X80327478Y-51598813D01*
X80371035Y-51752938D01*
X80375253Y-51775653D01*
X80390469Y-51940920D01*
X80391000Y-51952472D01*
X80391000Y-53248192D01*
X80390312Y-53261342D01*
X80370596Y-53449229D01*
X80365137Y-53474951D01*
X80306846Y-53654654D01*
X80302137Y-53666940D01*
X79883000Y-54610000D01*
X79885579Y-54828378D01*
X79885619Y-54831768D01*
X79885619Y-54831769D01*
X79897766Y-55860312D01*
X79944269Y-59797924D01*
X79948120Y-60124050D01*
X79947659Y-60136403D01*
X79943318Y-60186544D01*
X79932357Y-60313155D01*
X79927826Y-60337432D01*
X79880074Y-60501835D01*
X79870896Y-60524759D01*
X79791988Y-60676694D01*
X79778511Y-60697391D01*
X79671484Y-60831009D01*
X79654230Y-60848678D01*
X79574523Y-60915697D01*
X79523195Y-60958853D01*
X79502827Y-60972816D01*
X79352815Y-61055313D01*
X79330115Y-61065035D01*
X79166891Y-61116685D01*
X79142737Y-61121791D01*
X79009440Y-61136532D01*
X78966386Y-61141293D01*
X78954046Y-61142047D01*
X77235912Y-61162623D01*
X77235904Y-61162624D01*
X77232444Y-61162665D01*
X77232441Y-61162665D01*
X76620000Y-61170000D01*
X76348242Y-61718898D01*
X76346705Y-61722003D01*
X75876286Y-62672155D01*
X75869663Y-62683906D01*
X75765753Y-62847157D01*
X75748940Y-62868207D01*
X75617490Y-63000805D01*
X75596587Y-63017800D01*
X75439951Y-63119425D01*
X75415915Y-63131587D01*
X75365775Y-63150535D01*
X75241250Y-63197593D01*
X75215177Y-63204367D01*
X75023759Y-63232727D01*
X75010332Y-63233987D01*
X73752002Y-63284320D01*
X73740406Y-63284249D01*
X73647825Y-63279410D01*
X73573940Y-63275547D01*
X73550979Y-63272208D01*
X73394605Y-63234497D01*
X73372651Y-63227006D01*
X73259722Y-63176433D01*
X73222130Y-63150535D01*
X70448763Y-60377168D01*
X70441223Y-60368882D01*
X70437111Y-60362403D01*
X70387459Y-60315777D01*
X70384618Y-60313023D01*
X70364881Y-60293286D01*
X70361684Y-60290806D01*
X70352662Y-60283101D01*
X70326211Y-60258262D01*
X70320432Y-60252835D01*
X70313486Y-60249016D01*
X70313483Y-60249014D01*
X70302677Y-60243073D01*
X70286158Y-60232222D01*
X70285694Y-60231862D01*
X70270152Y-60219807D01*
X70262883Y-60216662D01*
X70262879Y-60216659D01*
X70229574Y-60202247D01*
X70218924Y-60197030D01*
X70180171Y-60175726D01*
X70160548Y-60170688D01*
X70141845Y-60164284D01*
X70130531Y-60159388D01*
X70130530Y-60159388D01*
X70123256Y-60156240D01*
X70115433Y-60155001D01*
X70115423Y-60154998D01*
X70079587Y-60149322D01*
X70067967Y-60146916D01*
X70032822Y-60137893D01*
X70032821Y-60137893D01*
X70025141Y-60135921D01*
X70004887Y-60135921D01*
X69985176Y-60134370D01*
X69965168Y-60131201D01*
X69965708Y-60127794D01*
X69913176Y-60110621D01*
X69868334Y-60055578D01*
X69860369Y-59985029D01*
X69864651Y-59967804D01*
X69915676Y-59810765D01*
X69917716Y-59804487D01*
X69937678Y-59614559D01*
X69917716Y-59424631D01*
X69858701Y-59243003D01*
X69763214Y-59077615D01*
X69635427Y-58935693D01*
X69583696Y-58898108D01*
X69540342Y-58841885D01*
X69533490Y-58775348D01*
X69591882Y-58426892D01*
X69622867Y-58363014D01*
X69664899Y-58332610D01*
X69758417Y-58290973D01*
X69782105Y-58273763D01*
X69877461Y-58204482D01*
X69912918Y-58178721D01*
X70040705Y-58036799D01*
X70136192Y-57871411D01*
X70195207Y-57689783D01*
X70212912Y-57521330D01*
X70239925Y-57455673D01*
X70298147Y-57415043D01*
X70338222Y-57408500D01*
X70395487Y-57408500D01*
X70401939Y-57407128D01*
X70401944Y-57407128D01*
X70488888Y-57388647D01*
X70582288Y-57368794D01*
X70588319Y-57366109D01*
X70750722Y-57293803D01*
X70750724Y-57293802D01*
X70756752Y-57291118D01*
X70911253Y-57178866D01*
X71039040Y-57036944D01*
X71134527Y-56871556D01*
X71193542Y-56689928D01*
X71213504Y-56500000D01*
X71193542Y-56310072D01*
X71134527Y-56128444D01*
X71088791Y-56049227D01*
X71072053Y-55980232D01*
X71095273Y-55913140D01*
X71151080Y-55869253D01*
X71202526Y-55860312D01*
X71236672Y-55861564D01*
X71236677Y-55861564D01*
X71241837Y-55861753D01*
X71246957Y-55861097D01*
X71246959Y-55861097D01*
X71458288Y-55834025D01*
X71458289Y-55834025D01*
X71463416Y-55833368D01*
X71504194Y-55821134D01*
X71672429Y-55770661D01*
X71672434Y-55770659D01*
X71677384Y-55769174D01*
X71877994Y-55670896D01*
X72059860Y-55541173D01*
X72218096Y-55383489D01*
X72348453Y-55202077D01*
X72447430Y-55001811D01*
X72512370Y-54788069D01*
X72541529Y-54566590D01*
X72543156Y-54500000D01*
X72524852Y-54277361D01*
X72496821Y-54165765D01*
X72499625Y-54094823D01*
X72529930Y-54045974D01*
X72542565Y-54033339D01*
X72604877Y-53999313D01*
X72675692Y-54004378D01*
X72712514Y-54025798D01*
X72820089Y-54115805D01*
X72820101Y-54115814D01*
X73100000Y-54350000D01*
X73461306Y-54351185D01*
X73461309Y-54351185D01*
X73464950Y-54351197D01*
X73464951Y-54351197D01*
X74317224Y-54353991D01*
X74930000Y-54356000D01*
X75692000Y-53975000D01*
X75777438Y-53462377D01*
X76047508Y-51841954D01*
X76049399Y-51832745D01*
X76081453Y-51701631D01*
X76087262Y-51683765D01*
X76138472Y-51558837D01*
X76142335Y-51550331D01*
X76260026Y-51314948D01*
X76267803Y-51301529D01*
X76290290Y-51267712D01*
X76362822Y-51158634D01*
X76383002Y-51135155D01*
X76504208Y-51025008D01*
X76529505Y-51007159D01*
X76673909Y-50929895D01*
X76702794Y-50918754D01*
X76869279Y-50877138D01*
X76884529Y-50874310D01*
X77343168Y-50818180D01*
X77347249Y-50817748D01*
X77406021Y-50812493D01*
X77414221Y-50812028D01*
X77473253Y-50810612D01*
X77477360Y-50810581D01*
X79284275Y-50826158D01*
G37*
%TD.AperFunction*%
%TD*%
%TA.AperFunction,Conductor*%
%TO.N,HCS*%
G36*
X109374953Y-51181607D02*
G01*
X109525622Y-51196446D01*
X109549843Y-51201263D01*
X109688788Y-51243411D01*
X109711598Y-51252860D01*
X109839644Y-51321302D01*
X109860179Y-51335024D01*
X109972407Y-51427128D01*
X109989872Y-51444593D01*
X110081976Y-51556821D01*
X110095698Y-51577356D01*
X110164140Y-51705402D01*
X110173590Y-51728216D01*
X110215736Y-51867154D01*
X110220554Y-51891380D01*
X110235393Y-52042047D01*
X110236000Y-52054397D01*
X110236000Y-60014682D01*
X110235061Y-60030035D01*
X110214275Y-60199354D01*
X110206849Y-60229146D01*
X110148506Y-60381169D01*
X110134093Y-60408282D01*
X110040714Y-60541675D01*
X110020172Y-60564496D01*
X109897299Y-60671345D01*
X109871850Y-60688518D01*
X109719858Y-60766004D01*
X109705769Y-60772134D01*
X109360962Y-60897728D01*
X109350479Y-60901036D01*
X109197970Y-60941930D01*
X109176326Y-60945749D01*
X109019031Y-60959520D01*
X109008042Y-60960000D01*
X101194138Y-60960000D01*
X101187922Y-60959847D01*
X101098690Y-60955440D01*
X101086329Y-60954215D01*
X100997966Y-60941038D01*
X100991871Y-60939974D01*
X100464080Y-60834416D01*
X100450132Y-60830786D01*
X100299068Y-60782088D01*
X100272866Y-60770188D01*
X100143028Y-60692228D01*
X100120208Y-60674693D01*
X100011441Y-60569300D01*
X99993196Y-60547044D01*
X99911185Y-60419727D01*
X99898465Y-60393912D01*
X99847480Y-60251300D01*
X99840950Y-60223272D01*
X99822824Y-60065592D01*
X99822000Y-60051203D01*
X99822000Y-57310382D01*
X99822608Y-57298019D01*
X99840037Y-57121252D01*
X99844866Y-57097002D01*
X99894671Y-56933001D01*
X99904143Y-56910160D01*
X99985016Y-56759047D01*
X99998766Y-56738496D01*
X100107599Y-56606081D01*
X100125098Y-56588612D01*
X100262507Y-56476059D01*
X100272448Y-56468702D01*
X101164039Y-55874308D01*
X101164047Y-55874302D01*
X101346000Y-55753000D01*
X101461891Y-55567574D01*
X101461897Y-55567566D01*
X101849667Y-54947133D01*
X101858268Y-54935024D01*
X101991608Y-54768964D01*
X102012765Y-54748188D01*
X102181224Y-54617887D01*
X102193487Y-54609508D01*
X102373623Y-54501426D01*
X102383605Y-54496033D01*
X102530202Y-54425156D01*
X102551413Y-54417165D01*
X102627132Y-54396192D01*
X102702854Y-54375218D01*
X102725151Y-54371157D01*
X102887326Y-54356511D01*
X102898659Y-54356000D01*
X106299000Y-54356000D01*
X106469025Y-53562549D01*
X106469030Y-53562531D01*
X106570548Y-53088775D01*
X106648644Y-52724329D01*
X106650856Y-52715561D01*
X106687284Y-52590371D01*
X106693591Y-52573368D01*
X106747614Y-52454723D01*
X106751663Y-52446617D01*
X107154505Y-51708075D01*
X107161589Y-51696598D01*
X107271924Y-51537547D01*
X107289564Y-51517174D01*
X107426223Y-51389858D01*
X107447785Y-51373707D01*
X107608401Y-51278361D01*
X107632908Y-51267164D01*
X107810124Y-51208153D01*
X107836456Y-51202423D01*
X108028911Y-51181723D01*
X108042385Y-51181000D01*
X109362603Y-51181000D01*
X109374953Y-51181607D01*
G37*
%TD.AperFunction*%
%TD*%
%TA.AperFunction,Conductor*%
%TO.N,VIN*%
G36*
X126394780Y-42820002D02*
G01*
X126417126Y-42838298D01*
X128243730Y-44722584D01*
X128276782Y-44785417D01*
X128279247Y-44812101D01*
X127926362Y-69220000D01*
X127920177Y-69647783D01*
X127917479Y-69671954D01*
X127576653Y-71288376D01*
X127543027Y-71350904D01*
X127480934Y-71385327D01*
X127449430Y-71388319D01*
X126968029Y-71373283D01*
X125676947Y-71332957D01*
X125623466Y-71319175D01*
X125563305Y-71288376D01*
X125380928Y-71195011D01*
X125023738Y-71012152D01*
X124983222Y-70979274D01*
X124853886Y-70819506D01*
X124826390Y-70752211D01*
X124680691Y-69227236D01*
X124680145Y-69212732D01*
X124729987Y-66720634D01*
X124730000Y-66720000D01*
X124730000Y-53336203D01*
X124730609Y-53323829D01*
X124879470Y-51815372D01*
X124879470Y-51815370D01*
X124880000Y-51810000D01*
X124780000Y-50440000D01*
X123260000Y-50290000D01*
X121744108Y-50140405D01*
X121744102Y-50140405D01*
X121740000Y-50140000D01*
X119763962Y-50205001D01*
X119106658Y-50226623D01*
X119037917Y-50208871D01*
X118989685Y-50156773D01*
X118977206Y-50113862D01*
X118961732Y-49966634D01*
X118961731Y-49966631D01*
X118961042Y-49960072D01*
X118902027Y-49778444D01*
X118806540Y-49613056D01*
X118678753Y-49471134D01*
X118524252Y-49358882D01*
X118518224Y-49356198D01*
X118518222Y-49356197D01*
X118355819Y-49283891D01*
X118355818Y-49283891D01*
X118349788Y-49281206D01*
X118256388Y-49261353D01*
X118169444Y-49242872D01*
X118169439Y-49242872D01*
X118162987Y-49241500D01*
X117972013Y-49241500D01*
X117965561Y-49242872D01*
X117965556Y-49242872D01*
X117878612Y-49261353D01*
X117785212Y-49281206D01*
X117779182Y-49283891D01*
X117779181Y-49283891D01*
X117616778Y-49356197D01*
X117616776Y-49356198D01*
X117610748Y-49358882D01*
X117456247Y-49471134D01*
X117328460Y-49613056D01*
X117232973Y-49778444D01*
X117173958Y-49960072D01*
X117173268Y-49966633D01*
X117173268Y-49966635D01*
X117164475Y-50050296D01*
X117153996Y-50150000D01*
X117154686Y-50156565D01*
X117154686Y-50161345D01*
X117134684Y-50229466D01*
X117081028Y-50275959D01*
X117026493Y-50287326D01*
X111440000Y-50190000D01*
X104520000Y-50100000D01*
X90830000Y-49970000D01*
X90829133Y-49970017D01*
X90829108Y-49970017D01*
X86280643Y-50058595D01*
X80562206Y-50169957D01*
X80557799Y-50169965D01*
X75954135Y-50096658D01*
X74366674Y-50071380D01*
X74298880Y-50050296D01*
X74253248Y-49995907D01*
X74250304Y-49988561D01*
X73627955Y-48281816D01*
X73620345Y-48236780D01*
X73635089Y-47244000D01*
X82525496Y-47244000D01*
X82545458Y-47433928D01*
X82604473Y-47615556D01*
X82699960Y-47780944D01*
X82704378Y-47785851D01*
X82704379Y-47785852D01*
X82738255Y-47823475D01*
X82827747Y-47922866D01*
X82982248Y-48035118D01*
X82988276Y-48037802D01*
X82988278Y-48037803D01*
X83024094Y-48053749D01*
X83156712Y-48112794D01*
X83250112Y-48132647D01*
X83337056Y-48151128D01*
X83337061Y-48151128D01*
X83343513Y-48152500D01*
X83534487Y-48152500D01*
X83540939Y-48151128D01*
X83540944Y-48151128D01*
X83627888Y-48132647D01*
X83721288Y-48112794D01*
X83853906Y-48053749D01*
X83889722Y-48037803D01*
X83889724Y-48037802D01*
X83895752Y-48035118D01*
X84050253Y-47922866D01*
X84139745Y-47823475D01*
X84173621Y-47785852D01*
X84173622Y-47785851D01*
X84178040Y-47780944D01*
X84273527Y-47615556D01*
X84332542Y-47433928D01*
X84339156Y-47371000D01*
X97511496Y-47371000D01*
X97531458Y-47560928D01*
X97590473Y-47742556D01*
X97685960Y-47907944D01*
X97690378Y-47912851D01*
X97690379Y-47912852D01*
X97787689Y-48020926D01*
X97813747Y-48049866D01*
X97896664Y-48110109D01*
X97953122Y-48151128D01*
X97968248Y-48162118D01*
X97974276Y-48164802D01*
X97974278Y-48164803D01*
X98135942Y-48236780D01*
X98142712Y-48239794D01*
X98236113Y-48259647D01*
X98323056Y-48278128D01*
X98323061Y-48278128D01*
X98329513Y-48279500D01*
X98520487Y-48279500D01*
X98526939Y-48278128D01*
X98526944Y-48278128D01*
X98613887Y-48259647D01*
X98707288Y-48239794D01*
X98714058Y-48236780D01*
X98875722Y-48164803D01*
X98875724Y-48164802D01*
X98881752Y-48162118D01*
X98896879Y-48151128D01*
X98953336Y-48110109D01*
X99036253Y-48049866D01*
X99062311Y-48020926D01*
X99159621Y-47912852D01*
X99159622Y-47912851D01*
X99164040Y-47907944D01*
X99259527Y-47742556D01*
X99318542Y-47560928D01*
X99338504Y-47371000D01*
X112751496Y-47371000D01*
X112771458Y-47560928D01*
X112830473Y-47742556D01*
X112925960Y-47907944D01*
X112930378Y-47912851D01*
X112930379Y-47912852D01*
X113027689Y-48020926D01*
X113053747Y-48049866D01*
X113136664Y-48110109D01*
X113193122Y-48151128D01*
X113208248Y-48162118D01*
X113214276Y-48164802D01*
X113214278Y-48164803D01*
X113375942Y-48236780D01*
X113382712Y-48239794D01*
X113476113Y-48259647D01*
X113563056Y-48278128D01*
X113563061Y-48278128D01*
X113569513Y-48279500D01*
X113760487Y-48279500D01*
X113766939Y-48278128D01*
X113766944Y-48278128D01*
X113853887Y-48259647D01*
X113947288Y-48239794D01*
X113954058Y-48236780D01*
X114115722Y-48164803D01*
X114115724Y-48164802D01*
X114121752Y-48162118D01*
X114136879Y-48151128D01*
X114193336Y-48110109D01*
X114276253Y-48049866D01*
X114302311Y-48020926D01*
X114399621Y-47912852D01*
X114399622Y-47912851D01*
X114404040Y-47907944D01*
X114499527Y-47742556D01*
X114558542Y-47560928D01*
X114578504Y-47371000D01*
X114558542Y-47181072D01*
X114499527Y-46999444D01*
X114404040Y-46834056D01*
X114376508Y-46803478D01*
X114280675Y-46697045D01*
X114280674Y-46697044D01*
X114276253Y-46692134D01*
X114148831Y-46599556D01*
X114127094Y-46583763D01*
X114127093Y-46583762D01*
X114121752Y-46579882D01*
X114115724Y-46577198D01*
X114115722Y-46577197D01*
X113953319Y-46504891D01*
X113953318Y-46504891D01*
X113947288Y-46502206D01*
X113853888Y-46482353D01*
X113766944Y-46463872D01*
X113766939Y-46463872D01*
X113760487Y-46462500D01*
X113569513Y-46462500D01*
X113563061Y-46463872D01*
X113563056Y-46463872D01*
X113476112Y-46482353D01*
X113382712Y-46502206D01*
X113376682Y-46504891D01*
X113376681Y-46504891D01*
X113214278Y-46577197D01*
X113214276Y-46577198D01*
X113208248Y-46579882D01*
X113202907Y-46583762D01*
X113202906Y-46583763D01*
X113181169Y-46599556D01*
X113053747Y-46692134D01*
X113049326Y-46697044D01*
X113049325Y-46697045D01*
X112953493Y-46803478D01*
X112925960Y-46834056D01*
X112830473Y-46999444D01*
X112771458Y-47181072D01*
X112751496Y-47371000D01*
X99338504Y-47371000D01*
X99318542Y-47181072D01*
X99259527Y-46999444D01*
X99164040Y-46834056D01*
X99136508Y-46803478D01*
X99040675Y-46697045D01*
X99040674Y-46697044D01*
X99036253Y-46692134D01*
X98908831Y-46599556D01*
X98887094Y-46583763D01*
X98887093Y-46583762D01*
X98881752Y-46579882D01*
X98875724Y-46577198D01*
X98875722Y-46577197D01*
X98713319Y-46504891D01*
X98713318Y-46504891D01*
X98707288Y-46502206D01*
X98613888Y-46482353D01*
X98526944Y-46463872D01*
X98526939Y-46463872D01*
X98520487Y-46462500D01*
X98329513Y-46462500D01*
X98323061Y-46463872D01*
X98323056Y-46463872D01*
X98236112Y-46482353D01*
X98142712Y-46502206D01*
X98136682Y-46504891D01*
X98136681Y-46504891D01*
X97974278Y-46577197D01*
X97974276Y-46577198D01*
X97968248Y-46579882D01*
X97962907Y-46583762D01*
X97962906Y-46583763D01*
X97941169Y-46599556D01*
X97813747Y-46692134D01*
X97809326Y-46697044D01*
X97809325Y-46697045D01*
X97713493Y-46803478D01*
X97685960Y-46834056D01*
X97590473Y-46999444D01*
X97531458Y-47181072D01*
X97511496Y-47371000D01*
X84339156Y-47371000D01*
X84352504Y-47244000D01*
X84345230Y-47174794D01*
X84333232Y-47060635D01*
X84333232Y-47060633D01*
X84332542Y-47054072D01*
X84273527Y-46872444D01*
X84178040Y-46707056D01*
X84050253Y-46565134D01*
X83951157Y-46493136D01*
X83901094Y-46456763D01*
X83901093Y-46456762D01*
X83895752Y-46452882D01*
X83889724Y-46450198D01*
X83889722Y-46450197D01*
X83727319Y-46377891D01*
X83727318Y-46377891D01*
X83721288Y-46375206D01*
X83627887Y-46355353D01*
X83540944Y-46336872D01*
X83540939Y-46336872D01*
X83534487Y-46335500D01*
X83343513Y-46335500D01*
X83337061Y-46336872D01*
X83337056Y-46336872D01*
X83250113Y-46355353D01*
X83156712Y-46375206D01*
X83150682Y-46377891D01*
X83150681Y-46377891D01*
X82988278Y-46450197D01*
X82988276Y-46450198D01*
X82982248Y-46452882D01*
X82976907Y-46456762D01*
X82976906Y-46456763D01*
X82926843Y-46493136D01*
X82827747Y-46565134D01*
X82699960Y-46707056D01*
X82604473Y-46872444D01*
X82545458Y-47054072D01*
X82544768Y-47060633D01*
X82544768Y-47060635D01*
X82532770Y-47174794D01*
X82525496Y-47244000D01*
X73635089Y-47244000D01*
X73650178Y-46228000D01*
X117577496Y-46228000D01*
X117578186Y-46234565D01*
X117592824Y-46373834D01*
X117597458Y-46417928D01*
X117656473Y-46599556D01*
X117751960Y-46764944D01*
X117756378Y-46769851D01*
X117756379Y-46769852D01*
X117814189Y-46834056D01*
X117879747Y-46906866D01*
X117978843Y-46978864D01*
X118015820Y-47005729D01*
X118034248Y-47019118D01*
X118040276Y-47021802D01*
X118040278Y-47021803D01*
X118182303Y-47085036D01*
X118208712Y-47096794D01*
X118302112Y-47116647D01*
X118389056Y-47135128D01*
X118389061Y-47135128D01*
X118395513Y-47136500D01*
X118586487Y-47136500D01*
X118592939Y-47135128D01*
X118592944Y-47135128D01*
X118679888Y-47116647D01*
X118773288Y-47096794D01*
X118799697Y-47085036D01*
X118941722Y-47021803D01*
X118941724Y-47021802D01*
X118947752Y-47019118D01*
X118966181Y-47005729D01*
X119003157Y-46978864D01*
X119102253Y-46906866D01*
X119167811Y-46834056D01*
X119225621Y-46769852D01*
X119225622Y-46769851D01*
X119230040Y-46764944D01*
X119325527Y-46599556D01*
X119350498Y-46522703D01*
X123060743Y-46522703D01*
X123098268Y-46807734D01*
X123174129Y-47085036D01*
X123175813Y-47088984D01*
X123244734Y-47250565D01*
X123286923Y-47349476D01*
X123298693Y-47369142D01*
X123417232Y-47567206D01*
X123434561Y-47596161D01*
X123614313Y-47820528D01*
X123822851Y-48018423D01*
X123950445Y-48110109D01*
X124026560Y-48164803D01*
X124056317Y-48186186D01*
X124060112Y-48188195D01*
X124060113Y-48188196D01*
X124081869Y-48199715D01*
X124310392Y-48320712D01*
X124580373Y-48419511D01*
X124861264Y-48480755D01*
X124889841Y-48483004D01*
X125084282Y-48498307D01*
X125084291Y-48498307D01*
X125086739Y-48498500D01*
X125242271Y-48498500D01*
X125244407Y-48498354D01*
X125244418Y-48498354D01*
X125452548Y-48484165D01*
X125452554Y-48484164D01*
X125456825Y-48483873D01*
X125461020Y-48483004D01*
X125461022Y-48483004D01*
X125597584Y-48454723D01*
X125738342Y-48425574D01*
X126009343Y-48329607D01*
X126264812Y-48197750D01*
X126268313Y-48195289D01*
X126268317Y-48195287D01*
X126389513Y-48110109D01*
X126500023Y-48032441D01*
X126617940Y-47922866D01*
X126707479Y-47839661D01*
X126707481Y-47839658D01*
X126710622Y-47836740D01*
X126892713Y-47614268D01*
X127042927Y-47369142D01*
X127097861Y-47244000D01*
X127156757Y-47109830D01*
X127158483Y-47105898D01*
X127237244Y-46829406D01*
X127274855Y-46565134D01*
X127277146Y-46549036D01*
X127277146Y-46549034D01*
X127277751Y-46544784D01*
X127277845Y-46526951D01*
X127279235Y-46261583D01*
X127279235Y-46261576D01*
X127279257Y-46257297D01*
X127241732Y-45972266D01*
X127165871Y-45694964D01*
X127102013Y-45545251D01*
X127054763Y-45434476D01*
X127054761Y-45434472D01*
X127053077Y-45430524D01*
X126905439Y-45183839D01*
X126725687Y-44959472D01*
X126517149Y-44761577D01*
X126283683Y-44593814D01*
X126261843Y-44582250D01*
X126238654Y-44569972D01*
X126029608Y-44459288D01*
X125759627Y-44360489D01*
X125478736Y-44299245D01*
X125447685Y-44296801D01*
X125255718Y-44281693D01*
X125255709Y-44281693D01*
X125253261Y-44281500D01*
X125097729Y-44281500D01*
X125095593Y-44281646D01*
X125095582Y-44281646D01*
X124887452Y-44295835D01*
X124887446Y-44295836D01*
X124883175Y-44296127D01*
X124878980Y-44296996D01*
X124878978Y-44296996D01*
X124742416Y-44325277D01*
X124601658Y-44354426D01*
X124330657Y-44450393D01*
X124075188Y-44582250D01*
X124071687Y-44584711D01*
X124071683Y-44584713D01*
X124061594Y-44591804D01*
X123839977Y-44747559D01*
X123629378Y-44943260D01*
X123447287Y-45165732D01*
X123297073Y-45410858D01*
X123181517Y-45674102D01*
X123180342Y-45678229D01*
X123180341Y-45678230D01*
X123175574Y-45694964D01*
X123102756Y-45950594D01*
X123062249Y-46235216D01*
X123062227Y-46239505D01*
X123062226Y-46239512D01*
X123060850Y-46502206D01*
X123060743Y-46522703D01*
X119350498Y-46522703D01*
X119384542Y-46417928D01*
X119389177Y-46373834D01*
X119403814Y-46234565D01*
X119404504Y-46228000D01*
X119384542Y-46038072D01*
X119325527Y-45856444D01*
X119230040Y-45691056D01*
X119218492Y-45678230D01*
X119106675Y-45554045D01*
X119106674Y-45554044D01*
X119102253Y-45549134D01*
X118947752Y-45436882D01*
X118941724Y-45434198D01*
X118941722Y-45434197D01*
X118779319Y-45361891D01*
X118779318Y-45361891D01*
X118773288Y-45359206D01*
X118679887Y-45339353D01*
X118592944Y-45320872D01*
X118592939Y-45320872D01*
X118586487Y-45319500D01*
X118395513Y-45319500D01*
X118389061Y-45320872D01*
X118389056Y-45320872D01*
X118302113Y-45339353D01*
X118208712Y-45359206D01*
X118202682Y-45361891D01*
X118202681Y-45361891D01*
X118040278Y-45434197D01*
X118040276Y-45434198D01*
X118034248Y-45436882D01*
X117879747Y-45549134D01*
X117875326Y-45554044D01*
X117875325Y-45554045D01*
X117763509Y-45678230D01*
X117751960Y-45691056D01*
X117656473Y-45856444D01*
X117597458Y-46038072D01*
X117577496Y-46228000D01*
X73650178Y-46228000D01*
X73679291Y-44267766D01*
X73700302Y-44199950D01*
X73712198Y-44184711D01*
X73727528Y-44167910D01*
X74892578Y-42891014D01*
X74953268Y-42854175D01*
X74985521Y-42849941D01*
X122100000Y-42800000D01*
X126326659Y-42800000D01*
X126394780Y-42820002D01*
G37*
%TD.AperFunction*%
%TD*%
M02*
