M48
; DRILL file {KiCad 6.0.11} date ven 17 jan 2025 14:03:26
; FORMAT={-:-/ absolute / inch / decimal}
; #@! TF.CreationDate,2025-01-17T14:03:26+01:00
; #@! TF.GenerationSoftware,Kicad,Pcbnew,6.0.11
; #@! TF.FileFunction,Plated,1,4,PTH
FMAT,2
INCH
; #@! TA.AperFunction,Plated,PTH,ComponentDrill
T1C0.0079
; #@! TA.AperFunction,Plated,PTH,ViaDrill
T2C0.0157
; #@! TA.AperFunction,Plated,PTH,ComponentDrill
T3C0.0315
; #@! TA.AperFunction,Plated,PTH,ComponentDrill
T4C0.0394
; #@! TA.AperFunction,Plated,PTH,ComponentDrill
T5C0.0472
%
G90
G05
T1
X1.8785Y-2.4961
X1.9078Y-2.4668
X1.9078Y-2.5253
X1.937Y-2.4376
X1.937Y-2.4961
X1.937Y-2.5545
X1.9662Y-2.4668
X1.9662Y-2.5253
X1.9955Y-2.4961
T2
X1.5118Y-2.8126
X1.5302Y-1.9558
X1.5661Y-2.0406
X1.7232Y-1.9291
X1.7299Y-2.1661
X1.8071Y-2.9409
X1.8606Y-1.9717
X1.8614Y-2.0374
X1.8626Y-2.0969
X1.9598Y-2.0134
X2.3374Y-2.0988
X2.339Y-1.8102
X2.4004Y-2.1646
X2.4026Y-1.9022
X2.4118Y-1.6976
X2.5309Y-2.5535
X2.5433Y-2.2953
X2.5504Y-2.4
X2.5528Y-2.3362
X2.5559Y-2.2196
X2.5801Y-2.3702
X2.6282Y-2.4027
X2.6604Y-2.2266
X2.6887Y-2.3203
X2.69Y-2.2786
X2.6953Y-2.4414
X2.7175Y-2.347
X2.7284Y-2.2638
X2.737Y-2.4414
X2.7629Y-2.3379
X2.7677Y-2.2244
X2.8028Y-2.3791
X2.8134Y-2.322
X2.8374Y-2.5606
X2.85Y-2.35
X2.8618Y-2.2969
X2.8626Y-2.4177
X2.9268Y-2.4453
X2.95Y-1.75
X2.95Y-1.8
X2.95Y-1.85
X2.95Y-1.9
X2.95Y-2.25
X2.95Y-2.3
X2.95Y-2.35
X2.9531Y-2.2031
X3.0Y-1.75
X3.0Y-1.8
X3.0Y-1.85
X3.0Y-1.9
X3.0Y-2.2
X3.0Y-2.25
X3.0Y-2.3
X3.0Y-2.35
X3.05Y-1.75
X3.05Y-1.8
X3.05Y-1.85
X3.05Y-1.9
X3.05Y-2.1
X3.05Y-2.2
X3.05Y-2.25
X3.05Y-2.3
X3.05Y-2.35
X3.0531Y-2.0531
X3.1Y-1.75
X3.1Y-1.8
X3.1Y-1.85
X3.1Y-1.9
X3.1Y-2.2
X3.1Y-2.25
X3.1Y-2.3
X3.1Y-2.35
X3.1242Y-2.5494
X3.1248Y-2.5063
X3.22Y-2.28
X3.25Y-1.75
X3.285Y-1.86
X3.3Y-1.75
X3.35Y-1.75
X3.4Y-1.75
X3.55Y-1.75
X3.55Y-1.8
X3.55Y-1.85
X3.55Y-1.9
X3.55Y-2.2
X3.55Y-2.25
X3.55Y-2.3
X3.55Y-2.35
X3.5929Y-2.5154
X3.6Y-1.75
X3.6Y-1.8
X3.6Y-1.85
X3.6Y-1.9
X3.6Y-2.2
X3.6Y-2.25
X3.6Y-2.3
X3.6Y-2.35
X3.65Y-1.75
X3.65Y-1.8
X3.65Y-1.85
X3.65Y-1.9
X3.65Y-2.05
X3.65Y-2.1254
X3.65Y-2.2
X3.65Y-2.25
X3.65Y-2.3
X3.65Y-2.35
X3.7Y-1.75
X3.7Y-1.8
X3.7Y-1.85
X3.7Y-1.9
X3.7Y-2.2
X3.7Y-2.25
X3.7Y-2.3
X3.7Y-2.35
X3.7224Y-2.5181
X3.7236Y-2.5583
X3.83Y-2.29
X3.85Y-1.75
X3.875Y-1.865
X3.8827Y-2.3815
X3.9Y-1.75
X3.95Y-1.75
X4.0Y-1.75
X4.0Y-2.25
X4.0Y-2.3
X4.0Y-2.35
X4.05Y-2.2
X4.05Y-2.25
X4.05Y-2.3
X4.05Y-2.35
X4.15Y-1.75
X4.15Y-1.8
X4.15Y-1.85
X4.15Y-1.9
X4.15Y-2.2
X4.15Y-2.25
X4.15Y-2.3
X4.15Y-2.35
X4.1756Y-2.5457
X4.2Y-1.75
X4.2Y-1.8
X4.2Y-1.85
X4.2Y-1.9
X4.2Y-2.2
X4.2Y-2.25
X4.2Y-2.3
X4.2Y-2.35
X4.25Y-1.75
X4.25Y-1.8
X4.25Y-1.85
X4.25Y-1.9
X4.25Y-2.05
X4.25Y-2.1
X4.25Y-2.2
X4.25Y-2.25
X4.25Y-2.3
X4.25Y-2.35
X4.3Y-1.75
X4.3Y-1.8
X4.3Y-1.85
X4.3Y-1.9
X4.3Y-2.2
X4.3Y-2.25
X4.3Y-2.3
X4.3Y-2.35
X4.3094Y-2.5291
X4.3094Y-2.5693
X4.4Y-1.75
X4.4165Y-2.6031
X4.45Y-1.75
X4.4606Y-2.2441
X4.4748Y-2.6016
X4.475Y-1.865
X4.5Y-1.75
X4.5039Y-2.4961
X4.5079Y-2.311
X4.5079Y-2.4055
X4.5472Y-2.252
X4.5472Y-2.5866
X4.55Y-1.75
X4.5512Y-2.3622
X4.5512Y-2.4528
X4.5512Y-2.5394
X4.6483Y-1.9744
X4.665Y-1.82
X4.7323Y-1.937
X4.7768Y-2.7126
X4.7791Y-1.937
X4.7791Y-2.4445
X4.7803Y-2.5791
X4.7811Y-2.1768
X4.7819Y-1.8035
X4.7823Y-2.0374
X4.7823Y-2.311
X4.7827Y-1.8642
X4.8043Y-1.7386
X4.8256Y-1.937
X4.8634Y-2.578
X4.8634Y-2.7126
X4.865Y-2.311
X4.8657Y-2.0402
X4.8665Y-2.178
X4.8669Y-2.4469
X4.8693Y-1.95
X4.9224Y-1.9594
X4.9756Y-1.9575
X4.9917Y-2.0803
X4.9917Y-2.2839
X4.9917Y-2.4209
X4.9929Y-2.2043
X4.9929Y-2.3457
X4.9929Y-2.5551
X4.9941Y-2.0287
X4.9941Y-2.1531
X4.9941Y-2.4835
X4.9941Y-2.6189
X4.9941Y-2.685
X4.9941Y-2.7453
T3
X1.58Y-2.2
X1.58Y-2.3
X1.58Y-2.4
X1.58Y-2.5
X1.58Y-2.6
X1.58Y-2.7
X1.58Y-2.8
X1.68Y-2.2
X1.68Y-2.3
X1.68Y-2.4
X1.68Y-2.5
X1.68Y-2.6
X1.68Y-2.7
X1.68Y-2.8
X1.985Y-1.905
X2.085Y-1.805
X2.18Y-2.2
X2.18Y-2.3
X2.18Y-2.4
X2.18Y-2.5
X2.18Y-2.6
X2.18Y-2.7
X2.18Y-2.8
X2.185Y-1.905
X2.28Y-2.2
X2.28Y-2.3
X2.28Y-2.4
X2.28Y-2.5
X2.28Y-2.6
X2.28Y-2.7
X2.28Y-2.8
T4
X2.4825Y-2.6783
X2.4825Y-2.7783
X2.5024Y-2.0457
X2.5024Y-2.1457
X2.5825Y-2.6783
X2.5825Y-2.7783
X2.6024Y-2.0457
X2.6024Y-2.1457
X2.6825Y-2.6783
X2.6825Y-2.7783
X2.7024Y-2.0457
X2.7024Y-2.1457
X2.7825Y-2.6783
X2.7825Y-2.7783
X2.8024Y-2.0457
X2.8024Y-2.1457
X2.8825Y-2.6783
X2.8825Y-2.7783
X2.9825Y-2.6783
X2.9825Y-2.7783
X3.0825Y-2.6783
X3.0825Y-2.7783
X3.1825Y-2.6783
X3.1825Y-2.7783
X3.2825Y-2.6783
X3.2825Y-2.7783
X3.3825Y-2.6783
X3.3825Y-2.7783
X3.4825Y-2.6783
X3.4825Y-2.7783
X3.5825Y-2.6783
X3.5825Y-2.7783
X3.6825Y-2.6783
X3.6825Y-2.7783
X3.7825Y-2.6783
X3.7825Y-2.7783
X3.8825Y-2.6783
X3.8825Y-2.7783
X3.9825Y-2.6783
X3.9825Y-2.7783
X4.0825Y-2.6783
X4.0825Y-2.7783
X4.1825Y-2.6783
X4.1825Y-2.7783
T5
X4.47Y-2.8002
X4.487Y-2.1484
X4.6251Y-2.8002
X4.6402Y-2.148
T0
M30
