%TF.GenerationSoftware,KiCad,Pcbnew,6.0.11*%
%TF.CreationDate,2025-01-17T14:03:23+01:00*%
%TF.ProjectId,MP6532_board_28-QFN,4d503635-3332-45f6-926f-6172645f3238,rev?*%
%TF.SameCoordinates,Original*%
%TF.FileFunction,Legend,Top*%
%TF.FilePolarity,Positive*%
%FSLAX46Y46*%
G04 Gerber Fmt 4.6, Leading zero omitted, Abs format (unit mm)*
G04 Created by KiCad (PCBNEW 6.0.11) date 2025-01-17 14:03:23*
%MOMM*%
%LPD*%
G01*
G04 APERTURE LIST*
%ADD10C,0.150000*%
%ADD11C,0.120000*%
G04 APERTURE END LIST*
D10*
X61228571Y-45695238D02*
X61228571Y-46028571D01*
X61752380Y-46028571D02*
X60752380Y-46028571D01*
X60752380Y-45552380D01*
X61466666Y-45219047D02*
X61466666Y-44742857D01*
X61752380Y-45314285D02*
X60752380Y-44980952D01*
X61752380Y-44647619D01*
X60752380Y-44314285D02*
X61561904Y-44314285D01*
X61657142Y-44266666D01*
X61704761Y-44219047D01*
X61752380Y-44123809D01*
X61752380Y-43933333D01*
X61704761Y-43838095D01*
X61657142Y-43790476D01*
X61561904Y-43742857D01*
X60752380Y-43742857D01*
X61752380Y-42790476D02*
X61752380Y-43266666D01*
X60752380Y-43266666D01*
X60752380Y-42600000D02*
X60752380Y-42028571D01*
X61752380Y-42314285D02*
X60752380Y-42314285D01*
%TO.C,R24*%
X113737142Y-58142380D02*
X113403809Y-57666190D01*
X113165714Y-58142380D02*
X113165714Y-57142380D01*
X113546666Y-57142380D01*
X113641904Y-57190000D01*
X113689523Y-57237619D01*
X113737142Y-57332857D01*
X113737142Y-57475714D01*
X113689523Y-57570952D01*
X113641904Y-57618571D01*
X113546666Y-57666190D01*
X113165714Y-57666190D01*
X114118095Y-57237619D02*
X114165714Y-57190000D01*
X114260952Y-57142380D01*
X114499047Y-57142380D01*
X114594285Y-57190000D01*
X114641904Y-57237619D01*
X114689523Y-57332857D01*
X114689523Y-57428095D01*
X114641904Y-57570952D01*
X114070476Y-58142380D01*
X114689523Y-58142380D01*
X115546666Y-57475714D02*
X115546666Y-58142380D01*
X115308571Y-57094761D02*
X115070476Y-57809047D01*
X115689523Y-57809047D01*
%TO.C,R23*%
X113837142Y-60342380D02*
X113503809Y-59866190D01*
X113265714Y-60342380D02*
X113265714Y-59342380D01*
X113646666Y-59342380D01*
X113741904Y-59390000D01*
X113789523Y-59437619D01*
X113837142Y-59532857D01*
X113837142Y-59675714D01*
X113789523Y-59770952D01*
X113741904Y-59818571D01*
X113646666Y-59866190D01*
X113265714Y-59866190D01*
X114218095Y-59437619D02*
X114265714Y-59390000D01*
X114360952Y-59342380D01*
X114599047Y-59342380D01*
X114694285Y-59390000D01*
X114741904Y-59437619D01*
X114789523Y-59532857D01*
X114789523Y-59628095D01*
X114741904Y-59770952D01*
X114170476Y-60342380D01*
X114789523Y-60342380D01*
X115122857Y-59342380D02*
X115741904Y-59342380D01*
X115408571Y-59723333D01*
X115551428Y-59723333D01*
X115646666Y-59770952D01*
X115694285Y-59818571D01*
X115741904Y-59913809D01*
X115741904Y-60151904D01*
X115694285Y-60247142D01*
X115646666Y-60294761D01*
X115551428Y-60342380D01*
X115265714Y-60342380D01*
X115170476Y-60294761D01*
X115122857Y-60247142D01*
%TO.C,R22*%
X113837142Y-62642380D02*
X113503809Y-62166190D01*
X113265714Y-62642380D02*
X113265714Y-61642380D01*
X113646666Y-61642380D01*
X113741904Y-61690000D01*
X113789523Y-61737619D01*
X113837142Y-61832857D01*
X113837142Y-61975714D01*
X113789523Y-62070952D01*
X113741904Y-62118571D01*
X113646666Y-62166190D01*
X113265714Y-62166190D01*
X114218095Y-61737619D02*
X114265714Y-61690000D01*
X114360952Y-61642380D01*
X114599047Y-61642380D01*
X114694285Y-61690000D01*
X114741904Y-61737619D01*
X114789523Y-61832857D01*
X114789523Y-61928095D01*
X114741904Y-62070952D01*
X114170476Y-62642380D01*
X114789523Y-62642380D01*
X115170476Y-61737619D02*
X115218095Y-61690000D01*
X115313333Y-61642380D01*
X115551428Y-61642380D01*
X115646666Y-61690000D01*
X115694285Y-61737619D01*
X115741904Y-61832857D01*
X115741904Y-61928095D01*
X115694285Y-62070952D01*
X115122857Y-62642380D01*
X115741904Y-62642380D01*
%TO.C,R21*%
X113837142Y-64942380D02*
X113503809Y-64466190D01*
X113265714Y-64942380D02*
X113265714Y-63942380D01*
X113646666Y-63942380D01*
X113741904Y-63990000D01*
X113789523Y-64037619D01*
X113837142Y-64132857D01*
X113837142Y-64275714D01*
X113789523Y-64370952D01*
X113741904Y-64418571D01*
X113646666Y-64466190D01*
X113265714Y-64466190D01*
X114218095Y-64037619D02*
X114265714Y-63990000D01*
X114360952Y-63942380D01*
X114599047Y-63942380D01*
X114694285Y-63990000D01*
X114741904Y-64037619D01*
X114789523Y-64132857D01*
X114789523Y-64228095D01*
X114741904Y-64370952D01*
X114170476Y-64942380D01*
X114789523Y-64942380D01*
X115741904Y-64942380D02*
X115170476Y-64942380D01*
X115456190Y-64942380D02*
X115456190Y-63942380D01*
X115360952Y-64085238D01*
X115265714Y-64180476D01*
X115170476Y-64228095D01*
%TO.C,R20*%
X113857142Y-67152380D02*
X113523809Y-66676190D01*
X113285714Y-67152380D02*
X113285714Y-66152380D01*
X113666666Y-66152380D01*
X113761904Y-66200000D01*
X113809523Y-66247619D01*
X113857142Y-66342857D01*
X113857142Y-66485714D01*
X113809523Y-66580952D01*
X113761904Y-66628571D01*
X113666666Y-66676190D01*
X113285714Y-66676190D01*
X114238095Y-66247619D02*
X114285714Y-66200000D01*
X114380952Y-66152380D01*
X114619047Y-66152380D01*
X114714285Y-66200000D01*
X114761904Y-66247619D01*
X114809523Y-66342857D01*
X114809523Y-66438095D01*
X114761904Y-66580952D01*
X114190476Y-67152380D01*
X114809523Y-67152380D01*
X115428571Y-66152380D02*
X115523809Y-66152380D01*
X115619047Y-66200000D01*
X115666666Y-66247619D01*
X115714285Y-66342857D01*
X115761904Y-66533333D01*
X115761904Y-66771428D01*
X115714285Y-66961904D01*
X115666666Y-67057142D01*
X115619047Y-67104761D01*
X115523809Y-67152380D01*
X115428571Y-67152380D01*
X115333333Y-67104761D01*
X115285714Y-67057142D01*
X115238095Y-66961904D01*
X115190476Y-66771428D01*
X115190476Y-66533333D01*
X115238095Y-66342857D01*
X115285714Y-66247619D01*
X115333333Y-66200000D01*
X115428571Y-66152380D01*
%TO.C,R19*%
X100857142Y-65052380D02*
X100523809Y-64576190D01*
X100285714Y-65052380D02*
X100285714Y-64052380D01*
X100666666Y-64052380D01*
X100761904Y-64100000D01*
X100809523Y-64147619D01*
X100857142Y-64242857D01*
X100857142Y-64385714D01*
X100809523Y-64480952D01*
X100761904Y-64528571D01*
X100666666Y-64576190D01*
X100285714Y-64576190D01*
X101809523Y-65052380D02*
X101238095Y-65052380D01*
X101523809Y-65052380D02*
X101523809Y-64052380D01*
X101428571Y-64195238D01*
X101333333Y-64290476D01*
X101238095Y-64338095D01*
X102285714Y-65052380D02*
X102476190Y-65052380D01*
X102571428Y-65004761D01*
X102619047Y-64957142D01*
X102714285Y-64814285D01*
X102761904Y-64623809D01*
X102761904Y-64242857D01*
X102714285Y-64147619D01*
X102666666Y-64100000D01*
X102571428Y-64052380D01*
X102380952Y-64052380D01*
X102285714Y-64100000D01*
X102238095Y-64147619D01*
X102190476Y-64242857D01*
X102190476Y-64480952D01*
X102238095Y-64576190D01*
X102285714Y-64623809D01*
X102380952Y-64671428D01*
X102571428Y-64671428D01*
X102666666Y-64623809D01*
X102714285Y-64576190D01*
X102761904Y-64480952D01*
%TO.C,U2*%
X57128095Y-72902380D02*
X57128095Y-73711904D01*
X57175714Y-73807142D01*
X57223333Y-73854761D01*
X57318571Y-73902380D01*
X57509047Y-73902380D01*
X57604285Y-73854761D01*
X57651904Y-73807142D01*
X57699523Y-73711904D01*
X57699523Y-72902380D01*
X58128095Y-72997619D02*
X58175714Y-72950000D01*
X58270952Y-72902380D01*
X58509047Y-72902380D01*
X58604285Y-72950000D01*
X58651904Y-72997619D01*
X58699523Y-73092857D01*
X58699523Y-73188095D01*
X58651904Y-73330952D01*
X58080476Y-73902380D01*
X58699523Y-73902380D01*
%TO.C,R13*%
X50982380Y-59672857D02*
X50506190Y-60006190D01*
X50982380Y-60244285D02*
X49982380Y-60244285D01*
X49982380Y-59863333D01*
X50030000Y-59768095D01*
X50077619Y-59720476D01*
X50172857Y-59672857D01*
X50315714Y-59672857D01*
X50410952Y-59720476D01*
X50458571Y-59768095D01*
X50506190Y-59863333D01*
X50506190Y-60244285D01*
X50982380Y-58720476D02*
X50982380Y-59291904D01*
X50982380Y-59006190D02*
X49982380Y-59006190D01*
X50125238Y-59101428D01*
X50220476Y-59196666D01*
X50268095Y-59291904D01*
X49982380Y-58387142D02*
X49982380Y-57768095D01*
X50363333Y-58101428D01*
X50363333Y-57958571D01*
X50410952Y-57863333D01*
X50458571Y-57815714D01*
X50553809Y-57768095D01*
X50791904Y-57768095D01*
X50887142Y-57815714D01*
X50934761Y-57863333D01*
X50982380Y-57958571D01*
X50982380Y-58244285D01*
X50934761Y-58339523D01*
X50887142Y-58387142D01*
%TO.C,R12*%
X48082380Y-59712857D02*
X47606190Y-60046190D01*
X48082380Y-60284285D02*
X47082380Y-60284285D01*
X47082380Y-59903333D01*
X47130000Y-59808095D01*
X47177619Y-59760476D01*
X47272857Y-59712857D01*
X47415714Y-59712857D01*
X47510952Y-59760476D01*
X47558571Y-59808095D01*
X47606190Y-59903333D01*
X47606190Y-60284285D01*
X48082380Y-58760476D02*
X48082380Y-59331904D01*
X48082380Y-59046190D02*
X47082380Y-59046190D01*
X47225238Y-59141428D01*
X47320476Y-59236666D01*
X47368095Y-59331904D01*
X47177619Y-58379523D02*
X47130000Y-58331904D01*
X47082380Y-58236666D01*
X47082380Y-57998571D01*
X47130000Y-57903333D01*
X47177619Y-57855714D01*
X47272857Y-57808095D01*
X47368095Y-57808095D01*
X47510952Y-57855714D01*
X48082380Y-58427142D01*
X48082380Y-57808095D01*
%TO.C,R11*%
X53562380Y-56752857D02*
X53086190Y-57086190D01*
X53562380Y-57324285D02*
X52562380Y-57324285D01*
X52562380Y-56943333D01*
X52610000Y-56848095D01*
X52657619Y-56800476D01*
X52752857Y-56752857D01*
X52895714Y-56752857D01*
X52990952Y-56800476D01*
X53038571Y-56848095D01*
X53086190Y-56943333D01*
X53086190Y-57324285D01*
X53562380Y-55800476D02*
X53562380Y-56371904D01*
X53562380Y-56086190D02*
X52562380Y-56086190D01*
X52705238Y-56181428D01*
X52800476Y-56276666D01*
X52848095Y-56371904D01*
X53562380Y-54848095D02*
X53562380Y-55419523D01*
X53562380Y-55133809D02*
X52562380Y-55133809D01*
X52705238Y-55229047D01*
X52800476Y-55324285D01*
X52848095Y-55419523D01*
%TO.C,D10*%
X44042380Y-46064285D02*
X43042380Y-46064285D01*
X43042380Y-45826190D01*
X43090000Y-45683333D01*
X43185238Y-45588095D01*
X43280476Y-45540476D01*
X43470952Y-45492857D01*
X43613809Y-45492857D01*
X43804285Y-45540476D01*
X43899523Y-45588095D01*
X43994761Y-45683333D01*
X44042380Y-45826190D01*
X44042380Y-46064285D01*
X44042380Y-44540476D02*
X44042380Y-45111904D01*
X44042380Y-44826190D02*
X43042380Y-44826190D01*
X43185238Y-44921428D01*
X43280476Y-45016666D01*
X43328095Y-45111904D01*
X43042380Y-43921428D02*
X43042380Y-43826190D01*
X43090000Y-43730952D01*
X43137619Y-43683333D01*
X43232857Y-43635714D01*
X43423333Y-43588095D01*
X43661428Y-43588095D01*
X43851904Y-43635714D01*
X43947142Y-43683333D01*
X43994761Y-43730952D01*
X44042380Y-43826190D01*
X44042380Y-43921428D01*
X43994761Y-44016666D01*
X43947142Y-44064285D01*
X43851904Y-44111904D01*
X43661428Y-44159523D01*
X43423333Y-44159523D01*
X43232857Y-44111904D01*
X43137619Y-44064285D01*
X43090000Y-44016666D01*
X43042380Y-43921428D01*
%TO.C,D9*%
X44042380Y-47998095D02*
X43042380Y-47998095D01*
X43042380Y-47760000D01*
X43090000Y-47617142D01*
X43185238Y-47521904D01*
X43280476Y-47474285D01*
X43470952Y-47426666D01*
X43613809Y-47426666D01*
X43804285Y-47474285D01*
X43899523Y-47521904D01*
X43994761Y-47617142D01*
X44042380Y-47760000D01*
X44042380Y-47998095D01*
X44042380Y-46950476D02*
X44042380Y-46760000D01*
X43994761Y-46664761D01*
X43947142Y-46617142D01*
X43804285Y-46521904D01*
X43613809Y-46474285D01*
X43232857Y-46474285D01*
X43137619Y-46521904D01*
X43090000Y-46569523D01*
X43042380Y-46664761D01*
X43042380Y-46855238D01*
X43090000Y-46950476D01*
X43137619Y-46998095D01*
X43232857Y-47045714D01*
X43470952Y-47045714D01*
X43566190Y-46998095D01*
X43613809Y-46950476D01*
X43661428Y-46855238D01*
X43661428Y-46664761D01*
X43613809Y-46569523D01*
X43566190Y-46521904D01*
X43470952Y-46474285D01*
%TO.C,D8*%
X45251904Y-42942380D02*
X45251904Y-41942380D01*
X45490000Y-41942380D01*
X45632857Y-41990000D01*
X45728095Y-42085238D01*
X45775714Y-42180476D01*
X45823333Y-42370952D01*
X45823333Y-42513809D01*
X45775714Y-42704285D01*
X45728095Y-42799523D01*
X45632857Y-42894761D01*
X45490000Y-42942380D01*
X45251904Y-42942380D01*
X46394761Y-42370952D02*
X46299523Y-42323333D01*
X46251904Y-42275714D01*
X46204285Y-42180476D01*
X46204285Y-42132857D01*
X46251904Y-42037619D01*
X46299523Y-41990000D01*
X46394761Y-41942380D01*
X46585238Y-41942380D01*
X46680476Y-41990000D01*
X46728095Y-42037619D01*
X46775714Y-42132857D01*
X46775714Y-42180476D01*
X46728095Y-42275714D01*
X46680476Y-42323333D01*
X46585238Y-42370952D01*
X46394761Y-42370952D01*
X46299523Y-42418571D01*
X46251904Y-42466190D01*
X46204285Y-42561428D01*
X46204285Y-42751904D01*
X46251904Y-42847142D01*
X46299523Y-42894761D01*
X46394761Y-42942380D01*
X46585238Y-42942380D01*
X46680476Y-42894761D01*
X46728095Y-42847142D01*
X46775714Y-42751904D01*
X46775714Y-42561428D01*
X46728095Y-42466190D01*
X46680476Y-42418571D01*
X46585238Y-42370952D01*
%TO.C,Q5*%
X107104761Y-53047619D02*
X107009523Y-53000000D01*
X106914285Y-52904761D01*
X106771428Y-52761904D01*
X106676190Y-52714285D01*
X106580952Y-52714285D01*
X106628571Y-52952380D02*
X106533333Y-52904761D01*
X106438095Y-52809523D01*
X106390476Y-52619047D01*
X106390476Y-52285714D01*
X106438095Y-52095238D01*
X106533333Y-52000000D01*
X106628571Y-51952380D01*
X106819047Y-51952380D01*
X106914285Y-52000000D01*
X107009523Y-52095238D01*
X107057142Y-52285714D01*
X107057142Y-52619047D01*
X107009523Y-52809523D01*
X106914285Y-52904761D01*
X106819047Y-52952380D01*
X106628571Y-52952380D01*
X107961904Y-51952380D02*
X107485714Y-51952380D01*
X107438095Y-52428571D01*
X107485714Y-52380952D01*
X107580952Y-52333333D01*
X107819047Y-52333333D01*
X107914285Y-52380952D01*
X107961904Y-52428571D01*
X108009523Y-52523809D01*
X108009523Y-52761904D01*
X107961904Y-52857142D01*
X107914285Y-52904761D01*
X107819047Y-52952380D01*
X107580952Y-52952380D01*
X107485714Y-52904761D01*
X107438095Y-52857142D01*
%TO.C,H2*%
X131438095Y-56252380D02*
X131438095Y-55252380D01*
X131438095Y-55728571D02*
X132009523Y-55728571D01*
X132009523Y-56252380D02*
X132009523Y-55252380D01*
X132438095Y-55347619D02*
X132485714Y-55300000D01*
X132580952Y-55252380D01*
X132819047Y-55252380D01*
X132914285Y-55300000D01*
X132961904Y-55347619D01*
X133009523Y-55442857D01*
X133009523Y-55538095D01*
X132961904Y-55680952D01*
X132390476Y-56252380D01*
X133009523Y-56252380D01*
%TO.C,Q1*%
X77004761Y-53247619D02*
X76909523Y-53200000D01*
X76814285Y-53104761D01*
X76671428Y-52961904D01*
X76576190Y-52914285D01*
X76480952Y-52914285D01*
X76528571Y-53152380D02*
X76433333Y-53104761D01*
X76338095Y-53009523D01*
X76290476Y-52819047D01*
X76290476Y-52485714D01*
X76338095Y-52295238D01*
X76433333Y-52200000D01*
X76528571Y-52152380D01*
X76719047Y-52152380D01*
X76814285Y-52200000D01*
X76909523Y-52295238D01*
X76957142Y-52485714D01*
X76957142Y-52819047D01*
X76909523Y-53009523D01*
X76814285Y-53104761D01*
X76719047Y-53152380D01*
X76528571Y-53152380D01*
X77909523Y-53152380D02*
X77338095Y-53152380D01*
X77623809Y-53152380D02*
X77623809Y-52152380D01*
X77528571Y-52295238D01*
X77433333Y-52390476D01*
X77338095Y-52438095D01*
%TO.C,D2*%
X84367380Y-59018095D02*
X83367380Y-59018095D01*
X83367380Y-58780000D01*
X83415000Y-58637142D01*
X83510238Y-58541904D01*
X83605476Y-58494285D01*
X83795952Y-58446666D01*
X83938809Y-58446666D01*
X84129285Y-58494285D01*
X84224523Y-58541904D01*
X84319761Y-58637142D01*
X84367380Y-58780000D01*
X84367380Y-59018095D01*
X83462619Y-58065714D02*
X83415000Y-58018095D01*
X83367380Y-57922857D01*
X83367380Y-57684761D01*
X83415000Y-57589523D01*
X83462619Y-57541904D01*
X83557857Y-57494285D01*
X83653095Y-57494285D01*
X83795952Y-57541904D01*
X84367380Y-58113333D01*
X84367380Y-57494285D01*
%TO.C,C8*%
X39273333Y-51167142D02*
X39225714Y-51214761D01*
X39082857Y-51262380D01*
X38987619Y-51262380D01*
X38844761Y-51214761D01*
X38749523Y-51119523D01*
X38701904Y-51024285D01*
X38654285Y-50833809D01*
X38654285Y-50690952D01*
X38701904Y-50500476D01*
X38749523Y-50405238D01*
X38844761Y-50310000D01*
X38987619Y-50262380D01*
X39082857Y-50262380D01*
X39225714Y-50310000D01*
X39273333Y-50357619D01*
X39844761Y-50690952D02*
X39749523Y-50643333D01*
X39701904Y-50595714D01*
X39654285Y-50500476D01*
X39654285Y-50452857D01*
X39701904Y-50357619D01*
X39749523Y-50310000D01*
X39844761Y-50262380D01*
X40035238Y-50262380D01*
X40130476Y-50310000D01*
X40178095Y-50357619D01*
X40225714Y-50452857D01*
X40225714Y-50500476D01*
X40178095Y-50595714D01*
X40130476Y-50643333D01*
X40035238Y-50690952D01*
X39844761Y-50690952D01*
X39749523Y-50738571D01*
X39701904Y-50786190D01*
X39654285Y-50881428D01*
X39654285Y-51071904D01*
X39701904Y-51167142D01*
X39749523Y-51214761D01*
X39844761Y-51262380D01*
X40035238Y-51262380D01*
X40130476Y-51214761D01*
X40178095Y-51167142D01*
X40225714Y-51071904D01*
X40225714Y-50881428D01*
X40178095Y-50786190D01*
X40130476Y-50738571D01*
X40035238Y-50690952D01*
%TO.C,C15*%
X47857142Y-75567142D02*
X47809523Y-75614761D01*
X47666666Y-75662380D01*
X47571428Y-75662380D01*
X47428571Y-75614761D01*
X47333333Y-75519523D01*
X47285714Y-75424285D01*
X47238095Y-75233809D01*
X47238095Y-75090952D01*
X47285714Y-74900476D01*
X47333333Y-74805238D01*
X47428571Y-74710000D01*
X47571428Y-74662380D01*
X47666666Y-74662380D01*
X47809523Y-74710000D01*
X47857142Y-74757619D01*
X48809523Y-75662380D02*
X48238095Y-75662380D01*
X48523809Y-75662380D02*
X48523809Y-74662380D01*
X48428571Y-74805238D01*
X48333333Y-74900476D01*
X48238095Y-74948095D01*
X49714285Y-74662380D02*
X49238095Y-74662380D01*
X49190476Y-75138571D01*
X49238095Y-75090952D01*
X49333333Y-75043333D01*
X49571428Y-75043333D01*
X49666666Y-75090952D01*
X49714285Y-75138571D01*
X49761904Y-75233809D01*
X49761904Y-75471904D01*
X49714285Y-75567142D01*
X49666666Y-75614761D01*
X49571428Y-75662380D01*
X49333333Y-75662380D01*
X49238095Y-75614761D01*
X49190476Y-75567142D01*
%TO.C,R6*%
X122002380Y-44556666D02*
X121526190Y-44890000D01*
X122002380Y-45128095D02*
X121002380Y-45128095D01*
X121002380Y-44747142D01*
X121050000Y-44651904D01*
X121097619Y-44604285D01*
X121192857Y-44556666D01*
X121335714Y-44556666D01*
X121430952Y-44604285D01*
X121478571Y-44651904D01*
X121526190Y-44747142D01*
X121526190Y-45128095D01*
X121002380Y-43699523D02*
X121002380Y-43890000D01*
X121050000Y-43985238D01*
X121097619Y-44032857D01*
X121240476Y-44128095D01*
X121430952Y-44175714D01*
X121811904Y-44175714D01*
X121907142Y-44128095D01*
X121954761Y-44080476D01*
X122002380Y-43985238D01*
X122002380Y-43794761D01*
X121954761Y-43699523D01*
X121907142Y-43651904D01*
X121811904Y-43604285D01*
X121573809Y-43604285D01*
X121478571Y-43651904D01*
X121430952Y-43699523D01*
X121383333Y-43794761D01*
X121383333Y-43985238D01*
X121430952Y-44080476D01*
X121478571Y-44128095D01*
X121573809Y-44175714D01*
%TO.C,Q6*%
X107104761Y-65347619D02*
X107009523Y-65300000D01*
X106914285Y-65204761D01*
X106771428Y-65061904D01*
X106676190Y-65014285D01*
X106580952Y-65014285D01*
X106628571Y-65252380D02*
X106533333Y-65204761D01*
X106438095Y-65109523D01*
X106390476Y-64919047D01*
X106390476Y-64585714D01*
X106438095Y-64395238D01*
X106533333Y-64300000D01*
X106628571Y-64252380D01*
X106819047Y-64252380D01*
X106914285Y-64300000D01*
X107009523Y-64395238D01*
X107057142Y-64585714D01*
X107057142Y-64919047D01*
X107009523Y-65109523D01*
X106914285Y-65204761D01*
X106819047Y-65252380D01*
X106628571Y-65252380D01*
X107914285Y-64252380D02*
X107723809Y-64252380D01*
X107628571Y-64300000D01*
X107580952Y-64347619D01*
X107485714Y-64490476D01*
X107438095Y-64680952D01*
X107438095Y-65061904D01*
X107485714Y-65157142D01*
X107533333Y-65204761D01*
X107628571Y-65252380D01*
X107819047Y-65252380D01*
X107914285Y-65204761D01*
X107961904Y-65157142D01*
X108009523Y-65061904D01*
X108009523Y-64823809D01*
X107961904Y-64728571D01*
X107914285Y-64680952D01*
X107819047Y-64633333D01*
X107628571Y-64633333D01*
X107533333Y-64680952D01*
X107485714Y-64728571D01*
X107438095Y-64823809D01*
%TO.C,R4*%
X101820380Y-54608666D02*
X101344190Y-54942000D01*
X101820380Y-55180095D02*
X100820380Y-55180095D01*
X100820380Y-54799142D01*
X100868000Y-54703904D01*
X100915619Y-54656285D01*
X101010857Y-54608666D01*
X101153714Y-54608666D01*
X101248952Y-54656285D01*
X101296571Y-54703904D01*
X101344190Y-54799142D01*
X101344190Y-55180095D01*
X101153714Y-53751523D02*
X101820380Y-53751523D01*
X100772761Y-53989619D02*
X101487047Y-54227714D01*
X101487047Y-53608666D01*
%TO.C,C3*%
X97023333Y-52787142D02*
X96975714Y-52834761D01*
X96832857Y-52882380D01*
X96737619Y-52882380D01*
X96594761Y-52834761D01*
X96499523Y-52739523D01*
X96451904Y-52644285D01*
X96404285Y-52453809D01*
X96404285Y-52310952D01*
X96451904Y-52120476D01*
X96499523Y-52025238D01*
X96594761Y-51930000D01*
X96737619Y-51882380D01*
X96832857Y-51882380D01*
X96975714Y-51930000D01*
X97023333Y-51977619D01*
X97356666Y-51882380D02*
X97975714Y-51882380D01*
X97642380Y-52263333D01*
X97785238Y-52263333D01*
X97880476Y-52310952D01*
X97928095Y-52358571D01*
X97975714Y-52453809D01*
X97975714Y-52691904D01*
X97928095Y-52787142D01*
X97880476Y-52834761D01*
X97785238Y-52882380D01*
X97499523Y-52882380D01*
X97404285Y-52834761D01*
X97356666Y-52787142D01*
%TO.C,H10*%
X39521904Y-38772380D02*
X39521904Y-37772380D01*
X39521904Y-38248571D02*
X40093333Y-38248571D01*
X40093333Y-38772380D02*
X40093333Y-37772380D01*
X41093333Y-38772380D02*
X40521904Y-38772380D01*
X40807619Y-38772380D02*
X40807619Y-37772380D01*
X40712380Y-37915238D01*
X40617142Y-38010476D01*
X40521904Y-38058095D01*
X41712380Y-37772380D02*
X41807619Y-37772380D01*
X41902857Y-37820000D01*
X41950476Y-37867619D01*
X41998095Y-37962857D01*
X42045714Y-38153333D01*
X42045714Y-38391428D01*
X41998095Y-38581904D01*
X41950476Y-38677142D01*
X41902857Y-38724761D01*
X41807619Y-38772380D01*
X41712380Y-38772380D01*
X41617142Y-38724761D01*
X41569523Y-38677142D01*
X41521904Y-38581904D01*
X41474285Y-38391428D01*
X41474285Y-38153333D01*
X41521904Y-37962857D01*
X41569523Y-37867619D01*
X41617142Y-37820000D01*
X41712380Y-37772380D01*
%TO.C,D1*%
X82861904Y-45772380D02*
X82861904Y-44772380D01*
X83100000Y-44772380D01*
X83242857Y-44820000D01*
X83338095Y-44915238D01*
X83385714Y-45010476D01*
X83433333Y-45200952D01*
X83433333Y-45343809D01*
X83385714Y-45534285D01*
X83338095Y-45629523D01*
X83242857Y-45724761D01*
X83100000Y-45772380D01*
X82861904Y-45772380D01*
X84385714Y-45772380D02*
X83814285Y-45772380D01*
X84100000Y-45772380D02*
X84100000Y-44772380D01*
X84004761Y-44915238D01*
X83909523Y-45010476D01*
X83814285Y-45058095D01*
%TO.C,C6*%
X120817142Y-50726666D02*
X120864761Y-50774285D01*
X120912380Y-50917142D01*
X120912380Y-51012380D01*
X120864761Y-51155238D01*
X120769523Y-51250476D01*
X120674285Y-51298095D01*
X120483809Y-51345714D01*
X120340952Y-51345714D01*
X120150476Y-51298095D01*
X120055238Y-51250476D01*
X119960000Y-51155238D01*
X119912380Y-51012380D01*
X119912380Y-50917142D01*
X119960000Y-50774285D01*
X120007619Y-50726666D01*
X119912380Y-49869523D02*
X119912380Y-50060000D01*
X119960000Y-50155238D01*
X120007619Y-50202857D01*
X120150476Y-50298095D01*
X120340952Y-50345714D01*
X120721904Y-50345714D01*
X120817142Y-50298095D01*
X120864761Y-50250476D01*
X120912380Y-50155238D01*
X120912380Y-49964761D01*
X120864761Y-49869523D01*
X120817142Y-49821904D01*
X120721904Y-49774285D01*
X120483809Y-49774285D01*
X120388571Y-49821904D01*
X120340952Y-49869523D01*
X120293333Y-49964761D01*
X120293333Y-50155238D01*
X120340952Y-50250476D01*
X120388571Y-50298095D01*
X120483809Y-50345714D01*
%TO.C,R9*%
X43113333Y-49322380D02*
X42780000Y-48846190D01*
X42541904Y-49322380D02*
X42541904Y-48322380D01*
X42922857Y-48322380D01*
X43018095Y-48370000D01*
X43065714Y-48417619D01*
X43113333Y-48512857D01*
X43113333Y-48655714D01*
X43065714Y-48750952D01*
X43018095Y-48798571D01*
X42922857Y-48846190D01*
X42541904Y-48846190D01*
X43589523Y-49322380D02*
X43780000Y-49322380D01*
X43875238Y-49274761D01*
X43922857Y-49227142D01*
X44018095Y-49084285D01*
X44065714Y-48893809D01*
X44065714Y-48512857D01*
X44018095Y-48417619D01*
X43970476Y-48370000D01*
X43875238Y-48322380D01*
X43684761Y-48322380D01*
X43589523Y-48370000D01*
X43541904Y-48417619D01*
X43494285Y-48512857D01*
X43494285Y-48750952D01*
X43541904Y-48846190D01*
X43589523Y-48893809D01*
X43684761Y-48941428D01*
X43875238Y-48941428D01*
X43970476Y-48893809D01*
X44018095Y-48846190D01*
X44065714Y-48750952D01*
%TO.C,R2*%
X86653380Y-54415666D02*
X86177190Y-54749000D01*
X86653380Y-54987095D02*
X85653380Y-54987095D01*
X85653380Y-54606142D01*
X85701000Y-54510904D01*
X85748619Y-54463285D01*
X85843857Y-54415666D01*
X85986714Y-54415666D01*
X86081952Y-54463285D01*
X86129571Y-54510904D01*
X86177190Y-54606142D01*
X86177190Y-54987095D01*
X85748619Y-54034714D02*
X85701000Y-53987095D01*
X85653380Y-53891857D01*
X85653380Y-53653761D01*
X85701000Y-53558523D01*
X85748619Y-53510904D01*
X85843857Y-53463285D01*
X85939095Y-53463285D01*
X86081952Y-53510904D01*
X86653380Y-54082333D01*
X86653380Y-53463285D01*
%TO.C,R16*%
X60307142Y-67172380D02*
X59973809Y-66696190D01*
X59735714Y-67172380D02*
X59735714Y-66172380D01*
X60116666Y-66172380D01*
X60211904Y-66220000D01*
X60259523Y-66267619D01*
X60307142Y-66362857D01*
X60307142Y-66505714D01*
X60259523Y-66600952D01*
X60211904Y-66648571D01*
X60116666Y-66696190D01*
X59735714Y-66696190D01*
X61259523Y-67172380D02*
X60688095Y-67172380D01*
X60973809Y-67172380D02*
X60973809Y-66172380D01*
X60878571Y-66315238D01*
X60783333Y-66410476D01*
X60688095Y-66458095D01*
X62116666Y-66172380D02*
X61926190Y-66172380D01*
X61830952Y-66220000D01*
X61783333Y-66267619D01*
X61688095Y-66410476D01*
X61640476Y-66600952D01*
X61640476Y-66981904D01*
X61688095Y-67077142D01*
X61735714Y-67124761D01*
X61830952Y-67172380D01*
X62021428Y-67172380D01*
X62116666Y-67124761D01*
X62164285Y-67077142D01*
X62211904Y-66981904D01*
X62211904Y-66743809D01*
X62164285Y-66648571D01*
X62116666Y-66600952D01*
X62021428Y-66553333D01*
X61830952Y-66553333D01*
X61735714Y-66600952D01*
X61688095Y-66648571D01*
X61640476Y-66743809D01*
%TO.C,C21*%
X127457142Y-52342857D02*
X127504761Y-52390476D01*
X127552380Y-52533333D01*
X127552380Y-52628571D01*
X127504761Y-52771428D01*
X127409523Y-52866666D01*
X127314285Y-52914285D01*
X127123809Y-52961904D01*
X126980952Y-52961904D01*
X126790476Y-52914285D01*
X126695238Y-52866666D01*
X126600000Y-52771428D01*
X126552380Y-52628571D01*
X126552380Y-52533333D01*
X126600000Y-52390476D01*
X126647619Y-52342857D01*
X126647619Y-51961904D02*
X126600000Y-51914285D01*
X126552380Y-51819047D01*
X126552380Y-51580952D01*
X126600000Y-51485714D01*
X126647619Y-51438095D01*
X126742857Y-51390476D01*
X126838095Y-51390476D01*
X126980952Y-51438095D01*
X127552380Y-52009523D01*
X127552380Y-51390476D01*
X127552380Y-50438095D02*
X127552380Y-51009523D01*
X127552380Y-50723809D02*
X126552380Y-50723809D01*
X126695238Y-50819047D01*
X126790476Y-50914285D01*
X126838095Y-51009523D01*
%TO.C,R8*%
X45533333Y-57192380D02*
X45200000Y-56716190D01*
X44961904Y-57192380D02*
X44961904Y-56192380D01*
X45342857Y-56192380D01*
X45438095Y-56240000D01*
X45485714Y-56287619D01*
X45533333Y-56382857D01*
X45533333Y-56525714D01*
X45485714Y-56620952D01*
X45438095Y-56668571D01*
X45342857Y-56716190D01*
X44961904Y-56716190D01*
X46104761Y-56620952D02*
X46009523Y-56573333D01*
X45961904Y-56525714D01*
X45914285Y-56430476D01*
X45914285Y-56382857D01*
X45961904Y-56287619D01*
X46009523Y-56240000D01*
X46104761Y-56192380D01*
X46295238Y-56192380D01*
X46390476Y-56240000D01*
X46438095Y-56287619D01*
X46485714Y-56382857D01*
X46485714Y-56430476D01*
X46438095Y-56525714D01*
X46390476Y-56573333D01*
X46295238Y-56620952D01*
X46104761Y-56620952D01*
X46009523Y-56668571D01*
X45961904Y-56716190D01*
X45914285Y-56811428D01*
X45914285Y-57001904D01*
X45961904Y-57097142D01*
X46009523Y-57144761D01*
X46104761Y-57192380D01*
X46295238Y-57192380D01*
X46390476Y-57144761D01*
X46438095Y-57097142D01*
X46485714Y-57001904D01*
X46485714Y-56811428D01*
X46438095Y-56716190D01*
X46390476Y-56668571D01*
X46295238Y-56620952D01*
%TO.C,Cb16*%
X69444761Y-63057142D02*
X69397142Y-63104761D01*
X69254285Y-63152380D01*
X69159047Y-63152380D01*
X69016190Y-63104761D01*
X68920952Y-63009523D01*
X68873333Y-62914285D01*
X68825714Y-62723809D01*
X68825714Y-62580952D01*
X68873333Y-62390476D01*
X68920952Y-62295238D01*
X69016190Y-62200000D01*
X69159047Y-62152380D01*
X69254285Y-62152380D01*
X69397142Y-62200000D01*
X69444761Y-62247619D01*
X69873333Y-63152380D02*
X69873333Y-62152380D01*
X69873333Y-62533333D02*
X69968571Y-62485714D01*
X70159047Y-62485714D01*
X70254285Y-62533333D01*
X70301904Y-62580952D01*
X70349523Y-62676190D01*
X70349523Y-62961904D01*
X70301904Y-63057142D01*
X70254285Y-63104761D01*
X70159047Y-63152380D01*
X69968571Y-63152380D01*
X69873333Y-63104761D01*
X71301904Y-63152380D02*
X70730476Y-63152380D01*
X71016190Y-63152380D02*
X71016190Y-62152380D01*
X70920952Y-62295238D01*
X70825714Y-62390476D01*
X70730476Y-62438095D01*
X72159047Y-62152380D02*
X71968571Y-62152380D01*
X71873333Y-62200000D01*
X71825714Y-62247619D01*
X71730476Y-62390476D01*
X71682857Y-62580952D01*
X71682857Y-62961904D01*
X71730476Y-63057142D01*
X71778095Y-63104761D01*
X71873333Y-63152380D01*
X72063809Y-63152380D01*
X72159047Y-63104761D01*
X72206666Y-63057142D01*
X72254285Y-62961904D01*
X72254285Y-62723809D01*
X72206666Y-62628571D01*
X72159047Y-62580952D01*
X72063809Y-62533333D01*
X71873333Y-62533333D01*
X71778095Y-62580952D01*
X71730476Y-62628571D01*
X71682857Y-62723809D01*
%TO.C,C17*%
X60147142Y-63933857D02*
X60194761Y-63981476D01*
X60242380Y-64124333D01*
X60242380Y-64219571D01*
X60194761Y-64362428D01*
X60099523Y-64457666D01*
X60004285Y-64505285D01*
X59813809Y-64552904D01*
X59670952Y-64552904D01*
X59480476Y-64505285D01*
X59385238Y-64457666D01*
X59290000Y-64362428D01*
X59242380Y-64219571D01*
X59242380Y-64124333D01*
X59290000Y-63981476D01*
X59337619Y-63933857D01*
X60242380Y-62981476D02*
X60242380Y-63552904D01*
X60242380Y-63267190D02*
X59242380Y-63267190D01*
X59385238Y-63362428D01*
X59480476Y-63457666D01*
X59528095Y-63552904D01*
X59242380Y-62648142D02*
X59242380Y-61981476D01*
X60242380Y-62410047D01*
%TO.C,R14*%
X61852380Y-48842857D02*
X61376190Y-49176190D01*
X61852380Y-49414285D02*
X60852380Y-49414285D01*
X60852380Y-49033333D01*
X60900000Y-48938095D01*
X60947619Y-48890476D01*
X61042857Y-48842857D01*
X61185714Y-48842857D01*
X61280952Y-48890476D01*
X61328571Y-48938095D01*
X61376190Y-49033333D01*
X61376190Y-49414285D01*
X61852380Y-47890476D02*
X61852380Y-48461904D01*
X61852380Y-48176190D02*
X60852380Y-48176190D01*
X60995238Y-48271428D01*
X61090476Y-48366666D01*
X61138095Y-48461904D01*
X61185714Y-47033333D02*
X61852380Y-47033333D01*
X60804761Y-47271428D02*
X61519047Y-47509523D01*
X61519047Y-46890476D01*
%TO.C,Q3*%
X92104761Y-53147619D02*
X92009523Y-53100000D01*
X91914285Y-53004761D01*
X91771428Y-52861904D01*
X91676190Y-52814285D01*
X91580952Y-52814285D01*
X91628571Y-53052380D02*
X91533333Y-53004761D01*
X91438095Y-52909523D01*
X91390476Y-52719047D01*
X91390476Y-52385714D01*
X91438095Y-52195238D01*
X91533333Y-52100000D01*
X91628571Y-52052380D01*
X91819047Y-52052380D01*
X91914285Y-52100000D01*
X92009523Y-52195238D01*
X92057142Y-52385714D01*
X92057142Y-52719047D01*
X92009523Y-52909523D01*
X91914285Y-53004761D01*
X91819047Y-53052380D01*
X91628571Y-53052380D01*
X92390476Y-52052380D02*
X93009523Y-52052380D01*
X92676190Y-52433333D01*
X92819047Y-52433333D01*
X92914285Y-52480952D01*
X92961904Y-52528571D01*
X93009523Y-52623809D01*
X93009523Y-52861904D01*
X92961904Y-52957142D01*
X92914285Y-53004761D01*
X92819047Y-53052380D01*
X92533333Y-53052380D01*
X92438095Y-53004761D01*
X92390476Y-52957142D01*
%TO.C,RV1*%
X59342380Y-48785238D02*
X58866190Y-49118571D01*
X59342380Y-49356666D02*
X58342380Y-49356666D01*
X58342380Y-48975714D01*
X58390000Y-48880476D01*
X58437619Y-48832857D01*
X58532857Y-48785238D01*
X58675714Y-48785238D01*
X58770952Y-48832857D01*
X58818571Y-48880476D01*
X58866190Y-48975714D01*
X58866190Y-49356666D01*
X58342380Y-48499523D02*
X59342380Y-48166190D01*
X58342380Y-47832857D01*
X59342380Y-46975714D02*
X59342380Y-47547142D01*
X59342380Y-47261428D02*
X58342380Y-47261428D01*
X58485238Y-47356666D01*
X58580476Y-47451904D01*
X58628095Y-47547142D01*
%TO.C,D7*%
X60552380Y-47738095D02*
X59552380Y-47738095D01*
X59552380Y-47500000D01*
X59600000Y-47357142D01*
X59695238Y-47261904D01*
X59790476Y-47214285D01*
X59980952Y-47166666D01*
X60123809Y-47166666D01*
X60314285Y-47214285D01*
X60409523Y-47261904D01*
X60504761Y-47357142D01*
X60552380Y-47500000D01*
X60552380Y-47738095D01*
X59552380Y-46833333D02*
X59552380Y-46166666D01*
X60552380Y-46595238D01*
%TO.C,R7*%
X59812380Y-53906666D02*
X59336190Y-54240000D01*
X59812380Y-54478095D02*
X58812380Y-54478095D01*
X58812380Y-54097142D01*
X58860000Y-54001904D01*
X58907619Y-53954285D01*
X59002857Y-53906666D01*
X59145714Y-53906666D01*
X59240952Y-53954285D01*
X59288571Y-54001904D01*
X59336190Y-54097142D01*
X59336190Y-54478095D01*
X58812380Y-53573333D02*
X58812380Y-52906666D01*
X59812380Y-53335238D01*
%TO.C,C22*%
X127457142Y-56042857D02*
X127504761Y-56090476D01*
X127552380Y-56233333D01*
X127552380Y-56328571D01*
X127504761Y-56471428D01*
X127409523Y-56566666D01*
X127314285Y-56614285D01*
X127123809Y-56661904D01*
X126980952Y-56661904D01*
X126790476Y-56614285D01*
X126695238Y-56566666D01*
X126600000Y-56471428D01*
X126552380Y-56328571D01*
X126552380Y-56233333D01*
X126600000Y-56090476D01*
X126647619Y-56042857D01*
X126647619Y-55661904D02*
X126600000Y-55614285D01*
X126552380Y-55519047D01*
X126552380Y-55280952D01*
X126600000Y-55185714D01*
X126647619Y-55138095D01*
X126742857Y-55090476D01*
X126838095Y-55090476D01*
X126980952Y-55138095D01*
X127552380Y-55709523D01*
X127552380Y-55090476D01*
X126647619Y-54709523D02*
X126600000Y-54661904D01*
X126552380Y-54566666D01*
X126552380Y-54328571D01*
X126600000Y-54233333D01*
X126647619Y-54185714D01*
X126742857Y-54138095D01*
X126838095Y-54138095D01*
X126980952Y-54185714D01*
X127552380Y-54757142D01*
X127552380Y-54138095D01*
%TO.C,R5*%
X115333333Y-52932380D02*
X115000000Y-52456190D01*
X114761904Y-52932380D02*
X114761904Y-51932380D01*
X115142857Y-51932380D01*
X115238095Y-51980000D01*
X115285714Y-52027619D01*
X115333333Y-52122857D01*
X115333333Y-52265714D01*
X115285714Y-52360952D01*
X115238095Y-52408571D01*
X115142857Y-52456190D01*
X114761904Y-52456190D01*
X116238095Y-51932380D02*
X115761904Y-51932380D01*
X115714285Y-52408571D01*
X115761904Y-52360952D01*
X115857142Y-52313333D01*
X116095238Y-52313333D01*
X116190476Y-52360952D01*
X116238095Y-52408571D01*
X116285714Y-52503809D01*
X116285714Y-52741904D01*
X116238095Y-52837142D01*
X116190476Y-52884761D01*
X116095238Y-52932380D01*
X115857142Y-52932380D01*
X115761904Y-52884761D01*
X115714285Y-52837142D01*
%TO.C,C23*%
X127357142Y-59342857D02*
X127404761Y-59390476D01*
X127452380Y-59533333D01*
X127452380Y-59628571D01*
X127404761Y-59771428D01*
X127309523Y-59866666D01*
X127214285Y-59914285D01*
X127023809Y-59961904D01*
X126880952Y-59961904D01*
X126690476Y-59914285D01*
X126595238Y-59866666D01*
X126500000Y-59771428D01*
X126452380Y-59628571D01*
X126452380Y-59533333D01*
X126500000Y-59390476D01*
X126547619Y-59342857D01*
X126547619Y-58961904D02*
X126500000Y-58914285D01*
X126452380Y-58819047D01*
X126452380Y-58580952D01*
X126500000Y-58485714D01*
X126547619Y-58438095D01*
X126642857Y-58390476D01*
X126738095Y-58390476D01*
X126880952Y-58438095D01*
X127452380Y-59009523D01*
X127452380Y-58390476D01*
X126452380Y-58057142D02*
X126452380Y-57438095D01*
X126833333Y-57771428D01*
X126833333Y-57628571D01*
X126880952Y-57533333D01*
X126928571Y-57485714D01*
X127023809Y-57438095D01*
X127261904Y-57438095D01*
X127357142Y-57485714D01*
X127404761Y-57533333D01*
X127452380Y-57628571D01*
X127452380Y-57914285D01*
X127404761Y-58009523D01*
X127357142Y-58057142D01*
%TO.C,C19*%
X64187142Y-57647142D02*
X64139523Y-57694761D01*
X63996666Y-57742380D01*
X63901428Y-57742380D01*
X63758571Y-57694761D01*
X63663333Y-57599523D01*
X63615714Y-57504285D01*
X63568095Y-57313809D01*
X63568095Y-57170952D01*
X63615714Y-56980476D01*
X63663333Y-56885238D01*
X63758571Y-56790000D01*
X63901428Y-56742380D01*
X63996666Y-56742380D01*
X64139523Y-56790000D01*
X64187142Y-56837619D01*
X65139523Y-57742380D02*
X64568095Y-57742380D01*
X64853809Y-57742380D02*
X64853809Y-56742380D01*
X64758571Y-56885238D01*
X64663333Y-56980476D01*
X64568095Y-57028095D01*
X65615714Y-57742380D02*
X65806190Y-57742380D01*
X65901428Y-57694761D01*
X65949047Y-57647142D01*
X66044285Y-57504285D01*
X66091904Y-57313809D01*
X66091904Y-56932857D01*
X66044285Y-56837619D01*
X65996666Y-56790000D01*
X65901428Y-56742380D01*
X65710952Y-56742380D01*
X65615714Y-56790000D01*
X65568095Y-56837619D01*
X65520476Y-56932857D01*
X65520476Y-57170952D01*
X65568095Y-57266190D01*
X65615714Y-57313809D01*
X65710952Y-57361428D01*
X65901428Y-57361428D01*
X65996666Y-57313809D01*
X66044285Y-57266190D01*
X66091904Y-57170952D01*
%TO.C,U1*%
X47003927Y-66673568D02*
X47576347Y-66101148D01*
X47610019Y-66000133D01*
X47610019Y-65932789D01*
X47576347Y-65831774D01*
X47441660Y-65697087D01*
X47340645Y-65663415D01*
X47273301Y-65663415D01*
X47172286Y-65697087D01*
X46599866Y-66269507D01*
X46599866Y-64855293D02*
X47003927Y-65259354D01*
X46801897Y-65057324D02*
X46094790Y-65764430D01*
X46263149Y-65730759D01*
X46397836Y-65730759D01*
X46498851Y-65764430D01*
%TO.C,Cb21*%
X127357142Y-62995238D02*
X127404761Y-63042857D01*
X127452380Y-63185714D01*
X127452380Y-63280952D01*
X127404761Y-63423809D01*
X127309523Y-63519047D01*
X127214285Y-63566666D01*
X127023809Y-63614285D01*
X126880952Y-63614285D01*
X126690476Y-63566666D01*
X126595238Y-63519047D01*
X126500000Y-63423809D01*
X126452380Y-63280952D01*
X126452380Y-63185714D01*
X126500000Y-63042857D01*
X126547619Y-62995238D01*
X127452380Y-62566666D02*
X126452380Y-62566666D01*
X126833333Y-62566666D02*
X126785714Y-62471428D01*
X126785714Y-62280952D01*
X126833333Y-62185714D01*
X126880952Y-62138095D01*
X126976190Y-62090476D01*
X127261904Y-62090476D01*
X127357142Y-62138095D01*
X127404761Y-62185714D01*
X127452380Y-62280952D01*
X127452380Y-62471428D01*
X127404761Y-62566666D01*
X126547619Y-61709523D02*
X126500000Y-61661904D01*
X126452380Y-61566666D01*
X126452380Y-61328571D01*
X126500000Y-61233333D01*
X126547619Y-61185714D01*
X126642857Y-61138095D01*
X126738095Y-61138095D01*
X126880952Y-61185714D01*
X127452380Y-61757142D01*
X127452380Y-61138095D01*
X127452380Y-60185714D02*
X127452380Y-60757142D01*
X127452380Y-60471428D02*
X126452380Y-60471428D01*
X126595238Y-60566666D01*
X126690476Y-60661904D01*
X126738095Y-60757142D01*
%TO.C,Q4*%
X92104761Y-65047619D02*
X92009523Y-65000000D01*
X91914285Y-64904761D01*
X91771428Y-64761904D01*
X91676190Y-64714285D01*
X91580952Y-64714285D01*
X91628571Y-64952380D02*
X91533333Y-64904761D01*
X91438095Y-64809523D01*
X91390476Y-64619047D01*
X91390476Y-64285714D01*
X91438095Y-64095238D01*
X91533333Y-64000000D01*
X91628571Y-63952380D01*
X91819047Y-63952380D01*
X91914285Y-64000000D01*
X92009523Y-64095238D01*
X92057142Y-64285714D01*
X92057142Y-64619047D01*
X92009523Y-64809523D01*
X91914285Y-64904761D01*
X91819047Y-64952380D01*
X91628571Y-64952380D01*
X92914285Y-64285714D02*
X92914285Y-64952380D01*
X92676190Y-63904761D02*
X92438095Y-64619047D01*
X93057142Y-64619047D01*
%TO.C,R1*%
X87033333Y-48442380D02*
X86700000Y-47966190D01*
X86461904Y-48442380D02*
X86461904Y-47442380D01*
X86842857Y-47442380D01*
X86938095Y-47490000D01*
X86985714Y-47537619D01*
X87033333Y-47632857D01*
X87033333Y-47775714D01*
X86985714Y-47870952D01*
X86938095Y-47918571D01*
X86842857Y-47966190D01*
X86461904Y-47966190D01*
X87985714Y-48442380D02*
X87414285Y-48442380D01*
X87700000Y-48442380D02*
X87700000Y-47442380D01*
X87604761Y-47585238D01*
X87509523Y-47680476D01*
X87414285Y-47728095D01*
%TO.C,C18*%
X64157142Y-60557142D02*
X64109523Y-60604761D01*
X63966666Y-60652380D01*
X63871428Y-60652380D01*
X63728571Y-60604761D01*
X63633333Y-60509523D01*
X63585714Y-60414285D01*
X63538095Y-60223809D01*
X63538095Y-60080952D01*
X63585714Y-59890476D01*
X63633333Y-59795238D01*
X63728571Y-59700000D01*
X63871428Y-59652380D01*
X63966666Y-59652380D01*
X64109523Y-59700000D01*
X64157142Y-59747619D01*
X65109523Y-60652380D02*
X64538095Y-60652380D01*
X64823809Y-60652380D02*
X64823809Y-59652380D01*
X64728571Y-59795238D01*
X64633333Y-59890476D01*
X64538095Y-59938095D01*
X65680952Y-60080952D02*
X65585714Y-60033333D01*
X65538095Y-59985714D01*
X65490476Y-59890476D01*
X65490476Y-59842857D01*
X65538095Y-59747619D01*
X65585714Y-59700000D01*
X65680952Y-59652380D01*
X65871428Y-59652380D01*
X65966666Y-59700000D01*
X66014285Y-59747619D01*
X66061904Y-59842857D01*
X66061904Y-59890476D01*
X66014285Y-59985714D01*
X65966666Y-60033333D01*
X65871428Y-60080952D01*
X65680952Y-60080952D01*
X65585714Y-60128571D01*
X65538095Y-60176190D01*
X65490476Y-60271428D01*
X65490476Y-60461904D01*
X65538095Y-60557142D01*
X65585714Y-60604761D01*
X65680952Y-60652380D01*
X65871428Y-60652380D01*
X65966666Y-60604761D01*
X66014285Y-60557142D01*
X66061904Y-60461904D01*
X66061904Y-60271428D01*
X66014285Y-60176190D01*
X65966666Y-60128571D01*
X65871428Y-60080952D01*
%TO.C,H5*%
X131938095Y-64352380D02*
X131938095Y-63352380D01*
X131938095Y-63828571D02*
X132509523Y-63828571D01*
X132509523Y-64352380D02*
X132509523Y-63352380D01*
X133461904Y-63352380D02*
X132985714Y-63352380D01*
X132938095Y-63828571D01*
X132985714Y-63780952D01*
X133080952Y-63733333D01*
X133319047Y-63733333D01*
X133414285Y-63780952D01*
X133461904Y-63828571D01*
X133509523Y-63923809D01*
X133509523Y-64161904D01*
X133461904Y-64257142D01*
X133414285Y-64304761D01*
X133319047Y-64352380D01*
X133080952Y-64352380D01*
X132985714Y-64304761D01*
X132938095Y-64257142D01*
%TO.C,R17*%
X64157142Y-61952380D02*
X63823809Y-61476190D01*
X63585714Y-61952380D02*
X63585714Y-60952380D01*
X63966666Y-60952380D01*
X64061904Y-61000000D01*
X64109523Y-61047619D01*
X64157142Y-61142857D01*
X64157142Y-61285714D01*
X64109523Y-61380952D01*
X64061904Y-61428571D01*
X63966666Y-61476190D01*
X63585714Y-61476190D01*
X65109523Y-61952380D02*
X64538095Y-61952380D01*
X64823809Y-61952380D02*
X64823809Y-60952380D01*
X64728571Y-61095238D01*
X64633333Y-61190476D01*
X64538095Y-61238095D01*
X65442857Y-60952380D02*
X66109523Y-60952380D01*
X65680952Y-61952380D01*
%TO.C,J1*%
X60552380Y-54433333D02*
X61266666Y-54433333D01*
X61409523Y-54480952D01*
X61504761Y-54576190D01*
X61552380Y-54719047D01*
X61552380Y-54814285D01*
X61552380Y-53433333D02*
X61552380Y-54004761D01*
X61552380Y-53719047D02*
X60552380Y-53719047D01*
X60695238Y-53814285D01*
X60790476Y-53909523D01*
X60838095Y-54004761D01*
%TO.C,H9*%
X124648095Y-38302380D02*
X124648095Y-37302380D01*
X124648095Y-37778571D02*
X125219523Y-37778571D01*
X125219523Y-38302380D02*
X125219523Y-37302380D01*
X125743333Y-38302380D02*
X125933809Y-38302380D01*
X126029047Y-38254761D01*
X126076666Y-38207142D01*
X126171904Y-38064285D01*
X126219523Y-37873809D01*
X126219523Y-37492857D01*
X126171904Y-37397619D01*
X126124285Y-37350000D01*
X126029047Y-37302380D01*
X125838571Y-37302380D01*
X125743333Y-37350000D01*
X125695714Y-37397619D01*
X125648095Y-37492857D01*
X125648095Y-37730952D01*
X125695714Y-37826190D01*
X125743333Y-37873809D01*
X125838571Y-37921428D01*
X126029047Y-37921428D01*
X126124285Y-37873809D01*
X126171904Y-37826190D01*
X126219523Y-37730952D01*
%TO.C,R10*%
X44877142Y-55752380D02*
X44543809Y-55276190D01*
X44305714Y-55752380D02*
X44305714Y-54752380D01*
X44686666Y-54752380D01*
X44781904Y-54800000D01*
X44829523Y-54847619D01*
X44877142Y-54942857D01*
X44877142Y-55085714D01*
X44829523Y-55180952D01*
X44781904Y-55228571D01*
X44686666Y-55276190D01*
X44305714Y-55276190D01*
X45829523Y-55752380D02*
X45258095Y-55752380D01*
X45543809Y-55752380D02*
X45543809Y-54752380D01*
X45448571Y-54895238D01*
X45353333Y-54990476D01*
X45258095Y-55038095D01*
X46448571Y-54752380D02*
X46543809Y-54752380D01*
X46639047Y-54800000D01*
X46686666Y-54847619D01*
X46734285Y-54942857D01*
X46781904Y-55133333D01*
X46781904Y-55371428D01*
X46734285Y-55561904D01*
X46686666Y-55657142D01*
X46639047Y-55704761D01*
X46543809Y-55752380D01*
X46448571Y-55752380D01*
X46353333Y-55704761D01*
X46305714Y-55657142D01*
X46258095Y-55561904D01*
X46210476Y-55371428D01*
X46210476Y-55133333D01*
X46258095Y-54942857D01*
X46305714Y-54847619D01*
X46353333Y-54800000D01*
X46448571Y-54752380D01*
%TO.C,C1*%
X81903333Y-52497142D02*
X81855714Y-52544761D01*
X81712857Y-52592380D01*
X81617619Y-52592380D01*
X81474761Y-52544761D01*
X81379523Y-52449523D01*
X81331904Y-52354285D01*
X81284285Y-52163809D01*
X81284285Y-52020952D01*
X81331904Y-51830476D01*
X81379523Y-51735238D01*
X81474761Y-51640000D01*
X81617619Y-51592380D01*
X81712857Y-51592380D01*
X81855714Y-51640000D01*
X81903333Y-51687619D01*
X82855714Y-52592380D02*
X82284285Y-52592380D01*
X82570000Y-52592380D02*
X82570000Y-51592380D01*
X82474761Y-51735238D01*
X82379523Y-51830476D01*
X82284285Y-51878095D01*
%TO.C,D5*%
X113091904Y-46242380D02*
X113091904Y-45242380D01*
X113330000Y-45242380D01*
X113472857Y-45290000D01*
X113568095Y-45385238D01*
X113615714Y-45480476D01*
X113663333Y-45670952D01*
X113663333Y-45813809D01*
X113615714Y-46004285D01*
X113568095Y-46099523D01*
X113472857Y-46194761D01*
X113330000Y-46242380D01*
X113091904Y-46242380D01*
X114568095Y-45242380D02*
X114091904Y-45242380D01*
X114044285Y-45718571D01*
X114091904Y-45670952D01*
X114187142Y-45623333D01*
X114425238Y-45623333D01*
X114520476Y-45670952D01*
X114568095Y-45718571D01*
X114615714Y-45813809D01*
X114615714Y-46051904D01*
X114568095Y-46147142D01*
X114520476Y-46194761D01*
X114425238Y-46242380D01*
X114187142Y-46242380D01*
X114091904Y-46194761D01*
X114044285Y-46147142D01*
%TO.C,Cb23*%
X127457142Y-70395238D02*
X127504761Y-70442857D01*
X127552380Y-70585714D01*
X127552380Y-70680952D01*
X127504761Y-70823809D01*
X127409523Y-70919047D01*
X127314285Y-70966666D01*
X127123809Y-71014285D01*
X126980952Y-71014285D01*
X126790476Y-70966666D01*
X126695238Y-70919047D01*
X126600000Y-70823809D01*
X126552380Y-70680952D01*
X126552380Y-70585714D01*
X126600000Y-70442857D01*
X126647619Y-70395238D01*
X127552380Y-69966666D02*
X126552380Y-69966666D01*
X126933333Y-69966666D02*
X126885714Y-69871428D01*
X126885714Y-69680952D01*
X126933333Y-69585714D01*
X126980952Y-69538095D01*
X127076190Y-69490476D01*
X127361904Y-69490476D01*
X127457142Y-69538095D01*
X127504761Y-69585714D01*
X127552380Y-69680952D01*
X127552380Y-69871428D01*
X127504761Y-69966666D01*
X126647619Y-69109523D02*
X126600000Y-69061904D01*
X126552380Y-68966666D01*
X126552380Y-68728571D01*
X126600000Y-68633333D01*
X126647619Y-68585714D01*
X126742857Y-68538095D01*
X126838095Y-68538095D01*
X126980952Y-68585714D01*
X127552380Y-69157142D01*
X127552380Y-68538095D01*
X126552380Y-68204761D02*
X126552380Y-67585714D01*
X126933333Y-67919047D01*
X126933333Y-67776190D01*
X126980952Y-67680952D01*
X127028571Y-67633333D01*
X127123809Y-67585714D01*
X127361904Y-67585714D01*
X127457142Y-67633333D01*
X127504761Y-67680952D01*
X127552380Y-67776190D01*
X127552380Y-68061904D01*
X127504761Y-68157142D01*
X127457142Y-68204761D01*
%TO.C,D4*%
X99601380Y-59202095D02*
X98601380Y-59202095D01*
X98601380Y-58964000D01*
X98649000Y-58821142D01*
X98744238Y-58725904D01*
X98839476Y-58678285D01*
X99029952Y-58630666D01*
X99172809Y-58630666D01*
X99363285Y-58678285D01*
X99458523Y-58725904D01*
X99553761Y-58821142D01*
X99601380Y-58964000D01*
X99601380Y-59202095D01*
X98934714Y-57773523D02*
X99601380Y-57773523D01*
X98553761Y-58011619D02*
X99268047Y-58249714D01*
X99268047Y-57630666D01*
%TO.C,C9*%
X39253333Y-52657142D02*
X39205714Y-52704761D01*
X39062857Y-52752380D01*
X38967619Y-52752380D01*
X38824761Y-52704761D01*
X38729523Y-52609523D01*
X38681904Y-52514285D01*
X38634285Y-52323809D01*
X38634285Y-52180952D01*
X38681904Y-51990476D01*
X38729523Y-51895238D01*
X38824761Y-51800000D01*
X38967619Y-51752380D01*
X39062857Y-51752380D01*
X39205714Y-51800000D01*
X39253333Y-51847619D01*
X39729523Y-52752380D02*
X39920000Y-52752380D01*
X40015238Y-52704761D01*
X40062857Y-52657142D01*
X40158095Y-52514285D01*
X40205714Y-52323809D01*
X40205714Y-51942857D01*
X40158095Y-51847619D01*
X40110476Y-51800000D01*
X40015238Y-51752380D01*
X39824761Y-51752380D01*
X39729523Y-51800000D01*
X39681904Y-51847619D01*
X39634285Y-51942857D01*
X39634285Y-52180952D01*
X39681904Y-52276190D01*
X39729523Y-52323809D01*
X39824761Y-52371428D01*
X40015238Y-52371428D01*
X40110476Y-52323809D01*
X40158095Y-52276190D01*
X40205714Y-52180952D01*
%TO.C,C16*%
X65157142Y-63057142D02*
X65109523Y-63104761D01*
X64966666Y-63152380D01*
X64871428Y-63152380D01*
X64728571Y-63104761D01*
X64633333Y-63009523D01*
X64585714Y-62914285D01*
X64538095Y-62723809D01*
X64538095Y-62580952D01*
X64585714Y-62390476D01*
X64633333Y-62295238D01*
X64728571Y-62200000D01*
X64871428Y-62152380D01*
X64966666Y-62152380D01*
X65109523Y-62200000D01*
X65157142Y-62247619D01*
X66109523Y-63152380D02*
X65538095Y-63152380D01*
X65823809Y-63152380D02*
X65823809Y-62152380D01*
X65728571Y-62295238D01*
X65633333Y-62390476D01*
X65538095Y-62438095D01*
X66966666Y-62152380D02*
X66776190Y-62152380D01*
X66680952Y-62200000D01*
X66633333Y-62247619D01*
X66538095Y-62390476D01*
X66490476Y-62580952D01*
X66490476Y-62961904D01*
X66538095Y-63057142D01*
X66585714Y-63104761D01*
X66680952Y-63152380D01*
X66871428Y-63152380D01*
X66966666Y-63104761D01*
X67014285Y-63057142D01*
X67061904Y-62961904D01*
X67061904Y-62723809D01*
X67014285Y-62628571D01*
X66966666Y-62580952D01*
X66871428Y-62533333D01*
X66680952Y-62533333D01*
X66585714Y-62580952D01*
X66538095Y-62628571D01*
X66490476Y-62723809D01*
%TO.C,D3*%
X97891904Y-45912380D02*
X97891904Y-44912380D01*
X98130000Y-44912380D01*
X98272857Y-44960000D01*
X98368095Y-45055238D01*
X98415714Y-45150476D01*
X98463333Y-45340952D01*
X98463333Y-45483809D01*
X98415714Y-45674285D01*
X98368095Y-45769523D01*
X98272857Y-45864761D01*
X98130000Y-45912380D01*
X97891904Y-45912380D01*
X98796666Y-44912380D02*
X99415714Y-44912380D01*
X99082380Y-45293333D01*
X99225238Y-45293333D01*
X99320476Y-45340952D01*
X99368095Y-45388571D01*
X99415714Y-45483809D01*
X99415714Y-45721904D01*
X99368095Y-45817142D01*
X99320476Y-45864761D01*
X99225238Y-45912380D01*
X98939523Y-45912380D01*
X98844285Y-45864761D01*
X98796666Y-45817142D01*
%TO.C,Cb22*%
X127457142Y-66695238D02*
X127504761Y-66742857D01*
X127552380Y-66885714D01*
X127552380Y-66980952D01*
X127504761Y-67123809D01*
X127409523Y-67219047D01*
X127314285Y-67266666D01*
X127123809Y-67314285D01*
X126980952Y-67314285D01*
X126790476Y-67266666D01*
X126695238Y-67219047D01*
X126600000Y-67123809D01*
X126552380Y-66980952D01*
X126552380Y-66885714D01*
X126600000Y-66742857D01*
X126647619Y-66695238D01*
X127552380Y-66266666D02*
X126552380Y-66266666D01*
X126933333Y-66266666D02*
X126885714Y-66171428D01*
X126885714Y-65980952D01*
X126933333Y-65885714D01*
X126980952Y-65838095D01*
X127076190Y-65790476D01*
X127361904Y-65790476D01*
X127457142Y-65838095D01*
X127504761Y-65885714D01*
X127552380Y-65980952D01*
X127552380Y-66171428D01*
X127504761Y-66266666D01*
X126647619Y-65409523D02*
X126600000Y-65361904D01*
X126552380Y-65266666D01*
X126552380Y-65028571D01*
X126600000Y-64933333D01*
X126647619Y-64885714D01*
X126742857Y-64838095D01*
X126838095Y-64838095D01*
X126980952Y-64885714D01*
X127552380Y-65457142D01*
X127552380Y-64838095D01*
X126647619Y-64457142D02*
X126600000Y-64409523D01*
X126552380Y-64314285D01*
X126552380Y-64076190D01*
X126600000Y-63980952D01*
X126647619Y-63933333D01*
X126742857Y-63885714D01*
X126838095Y-63885714D01*
X126980952Y-63933333D01*
X127552380Y-64504761D01*
X127552380Y-63885714D01*
%TO.C,D6*%
X122082380Y-48228095D02*
X121082380Y-48228095D01*
X121082380Y-47990000D01*
X121130000Y-47847142D01*
X121225238Y-47751904D01*
X121320476Y-47704285D01*
X121510952Y-47656666D01*
X121653809Y-47656666D01*
X121844285Y-47704285D01*
X121939523Y-47751904D01*
X122034761Y-47847142D01*
X122082380Y-47990000D01*
X122082380Y-48228095D01*
X121082380Y-46799523D02*
X121082380Y-46990000D01*
X121130000Y-47085238D01*
X121177619Y-47132857D01*
X121320476Y-47228095D01*
X121510952Y-47275714D01*
X121891904Y-47275714D01*
X121987142Y-47228095D01*
X122034761Y-47180476D01*
X122082380Y-47085238D01*
X122082380Y-46894761D01*
X122034761Y-46799523D01*
X121987142Y-46751904D01*
X121891904Y-46704285D01*
X121653809Y-46704285D01*
X121558571Y-46751904D01*
X121510952Y-46799523D01*
X121463333Y-46894761D01*
X121463333Y-47085238D01*
X121510952Y-47180476D01*
X121558571Y-47228095D01*
X121653809Y-47275714D01*
%TO.C,H1*%
X131838095Y-54052380D02*
X131838095Y-53052380D01*
X131838095Y-53528571D02*
X132409523Y-53528571D01*
X132409523Y-54052380D02*
X132409523Y-53052380D01*
X133409523Y-54052380D02*
X132838095Y-54052380D01*
X133123809Y-54052380D02*
X133123809Y-53052380D01*
X133028571Y-53195238D01*
X132933333Y-53290476D01*
X132838095Y-53338095D01*
%TO.C,Q2*%
X76904761Y-64947619D02*
X76809523Y-64900000D01*
X76714285Y-64804761D01*
X76571428Y-64661904D01*
X76476190Y-64614285D01*
X76380952Y-64614285D01*
X76428571Y-64852380D02*
X76333333Y-64804761D01*
X76238095Y-64709523D01*
X76190476Y-64519047D01*
X76190476Y-64185714D01*
X76238095Y-63995238D01*
X76333333Y-63900000D01*
X76428571Y-63852380D01*
X76619047Y-63852380D01*
X76714285Y-63900000D01*
X76809523Y-63995238D01*
X76857142Y-64185714D01*
X76857142Y-64519047D01*
X76809523Y-64709523D01*
X76714285Y-64804761D01*
X76619047Y-64852380D01*
X76428571Y-64852380D01*
X77238095Y-63947619D02*
X77285714Y-63900000D01*
X77380952Y-63852380D01*
X77619047Y-63852380D01*
X77714285Y-63900000D01*
X77761904Y-63947619D01*
X77809523Y-64042857D01*
X77809523Y-64138095D01*
X77761904Y-64280952D01*
X77190476Y-64852380D01*
X77809523Y-64852380D01*
%TO.C,J2*%
X107957380Y-74018333D02*
X108671666Y-74018333D01*
X108814523Y-74065952D01*
X108909761Y-74161190D01*
X108957380Y-74304047D01*
X108957380Y-74399285D01*
X108052619Y-73589761D02*
X108005000Y-73542142D01*
X107957380Y-73446904D01*
X107957380Y-73208809D01*
X108005000Y-73113571D01*
X108052619Y-73065952D01*
X108147857Y-73018333D01*
X108243095Y-73018333D01*
X108385952Y-73065952D01*
X108957380Y-73637380D01*
X108957380Y-73018333D01*
%TO.C,H6*%
X131938095Y-66352380D02*
X131938095Y-65352380D01*
X131938095Y-65828571D02*
X132509523Y-65828571D01*
X132509523Y-66352380D02*
X132509523Y-65352380D01*
X133414285Y-65352380D02*
X133223809Y-65352380D01*
X133128571Y-65400000D01*
X133080952Y-65447619D01*
X132985714Y-65590476D01*
X132938095Y-65780952D01*
X132938095Y-66161904D01*
X132985714Y-66257142D01*
X133033333Y-66304761D01*
X133128571Y-66352380D01*
X133319047Y-66352380D01*
X133414285Y-66304761D01*
X133461904Y-66257142D01*
X133509523Y-66161904D01*
X133509523Y-65923809D01*
X133461904Y-65828571D01*
X133414285Y-65780952D01*
X133319047Y-65733333D01*
X133128571Y-65733333D01*
X133033333Y-65780952D01*
X132985714Y-65828571D01*
X132938095Y-65923809D01*
%TO.C,R3*%
X101973333Y-48502380D02*
X101640000Y-48026190D01*
X101401904Y-48502380D02*
X101401904Y-47502380D01*
X101782857Y-47502380D01*
X101878095Y-47550000D01*
X101925714Y-47597619D01*
X101973333Y-47692857D01*
X101973333Y-47835714D01*
X101925714Y-47930952D01*
X101878095Y-47978571D01*
X101782857Y-48026190D01*
X101401904Y-48026190D01*
X102306666Y-47502380D02*
X102925714Y-47502380D01*
X102592380Y-47883333D01*
X102735238Y-47883333D01*
X102830476Y-47930952D01*
X102878095Y-47978571D01*
X102925714Y-48073809D01*
X102925714Y-48311904D01*
X102878095Y-48407142D01*
X102830476Y-48454761D01*
X102735238Y-48502380D01*
X102449523Y-48502380D01*
X102354285Y-48454761D01*
X102306666Y-48407142D01*
%TO.C,C4*%
X99167142Y-62706666D02*
X99214761Y-62754285D01*
X99262380Y-62897142D01*
X99262380Y-62992380D01*
X99214761Y-63135238D01*
X99119523Y-63230476D01*
X99024285Y-63278095D01*
X98833809Y-63325714D01*
X98690952Y-63325714D01*
X98500476Y-63278095D01*
X98405238Y-63230476D01*
X98310000Y-63135238D01*
X98262380Y-62992380D01*
X98262380Y-62897142D01*
X98310000Y-62754285D01*
X98357619Y-62706666D01*
X98595714Y-61849523D02*
X99262380Y-61849523D01*
X98214761Y-62087619D02*
X98929047Y-62325714D01*
X98929047Y-61706666D01*
%TO.C,R15*%
X42257142Y-75512380D02*
X41923809Y-75036190D01*
X41685714Y-75512380D02*
X41685714Y-74512380D01*
X42066666Y-74512380D01*
X42161904Y-74560000D01*
X42209523Y-74607619D01*
X42257142Y-74702857D01*
X42257142Y-74845714D01*
X42209523Y-74940952D01*
X42161904Y-74988571D01*
X42066666Y-75036190D01*
X41685714Y-75036190D01*
X43209523Y-75512380D02*
X42638095Y-75512380D01*
X42923809Y-75512380D02*
X42923809Y-74512380D01*
X42828571Y-74655238D01*
X42733333Y-74750476D01*
X42638095Y-74798095D01*
X44114285Y-74512380D02*
X43638095Y-74512380D01*
X43590476Y-74988571D01*
X43638095Y-74940952D01*
X43733333Y-74893333D01*
X43971428Y-74893333D01*
X44066666Y-74940952D01*
X44114285Y-74988571D01*
X44161904Y-75083809D01*
X44161904Y-75321904D01*
X44114285Y-75417142D01*
X44066666Y-75464761D01*
X43971428Y-75512380D01*
X43733333Y-75512380D01*
X43638095Y-75464761D01*
X43590476Y-75417142D01*
%TO.C,C2*%
X83927142Y-62356666D02*
X83974761Y-62404285D01*
X84022380Y-62547142D01*
X84022380Y-62642380D01*
X83974761Y-62785238D01*
X83879523Y-62880476D01*
X83784285Y-62928095D01*
X83593809Y-62975714D01*
X83450952Y-62975714D01*
X83260476Y-62928095D01*
X83165238Y-62880476D01*
X83070000Y-62785238D01*
X83022380Y-62642380D01*
X83022380Y-62547142D01*
X83070000Y-62404285D01*
X83117619Y-62356666D01*
X83117619Y-61975714D02*
X83070000Y-61928095D01*
X83022380Y-61832857D01*
X83022380Y-61594761D01*
X83070000Y-61499523D01*
X83117619Y-61451904D01*
X83212857Y-61404285D01*
X83308095Y-61404285D01*
X83450952Y-61451904D01*
X84022380Y-62023333D01*
X84022380Y-61404285D01*
%TO.C,C5*%
X111873333Y-52777142D02*
X111825714Y-52824761D01*
X111682857Y-52872380D01*
X111587619Y-52872380D01*
X111444761Y-52824761D01*
X111349523Y-52729523D01*
X111301904Y-52634285D01*
X111254285Y-52443809D01*
X111254285Y-52300952D01*
X111301904Y-52110476D01*
X111349523Y-52015238D01*
X111444761Y-51920000D01*
X111587619Y-51872380D01*
X111682857Y-51872380D01*
X111825714Y-51920000D01*
X111873333Y-51967619D01*
X112778095Y-51872380D02*
X112301904Y-51872380D01*
X112254285Y-52348571D01*
X112301904Y-52300952D01*
X112397142Y-52253333D01*
X112635238Y-52253333D01*
X112730476Y-52300952D01*
X112778095Y-52348571D01*
X112825714Y-52443809D01*
X112825714Y-52681904D01*
X112778095Y-52777142D01*
X112730476Y-52824761D01*
X112635238Y-52872380D01*
X112397142Y-52872380D01*
X112301904Y-52824761D01*
X112254285Y-52777142D01*
%TO.C,R18*%
X64187142Y-59252380D02*
X63853809Y-58776190D01*
X63615714Y-59252380D02*
X63615714Y-58252380D01*
X63996666Y-58252380D01*
X64091904Y-58300000D01*
X64139523Y-58347619D01*
X64187142Y-58442857D01*
X64187142Y-58585714D01*
X64139523Y-58680952D01*
X64091904Y-58728571D01*
X63996666Y-58776190D01*
X63615714Y-58776190D01*
X65139523Y-59252380D02*
X64568095Y-59252380D01*
X64853809Y-59252380D02*
X64853809Y-58252380D01*
X64758571Y-58395238D01*
X64663333Y-58490476D01*
X64568095Y-58538095D01*
X65710952Y-58680952D02*
X65615714Y-58633333D01*
X65568095Y-58585714D01*
X65520476Y-58490476D01*
X65520476Y-58442857D01*
X65568095Y-58347619D01*
X65615714Y-58300000D01*
X65710952Y-58252380D01*
X65901428Y-58252380D01*
X65996666Y-58300000D01*
X66044285Y-58347619D01*
X66091904Y-58442857D01*
X66091904Y-58490476D01*
X66044285Y-58585714D01*
X65996666Y-58633333D01*
X65901428Y-58680952D01*
X65710952Y-58680952D01*
X65615714Y-58728571D01*
X65568095Y-58776190D01*
X65520476Y-58871428D01*
X65520476Y-59061904D01*
X65568095Y-59157142D01*
X65615714Y-59204761D01*
X65710952Y-59252380D01*
X65901428Y-59252380D01*
X65996666Y-59204761D01*
X66044285Y-59157142D01*
X66091904Y-59061904D01*
X66091904Y-58871428D01*
X66044285Y-58776190D01*
X65996666Y-58728571D01*
X65901428Y-58680952D01*
%TO.C,C7*%
X39253333Y-54237142D02*
X39205714Y-54284761D01*
X39062857Y-54332380D01*
X38967619Y-54332380D01*
X38824761Y-54284761D01*
X38729523Y-54189523D01*
X38681904Y-54094285D01*
X38634285Y-53903809D01*
X38634285Y-53760952D01*
X38681904Y-53570476D01*
X38729523Y-53475238D01*
X38824761Y-53380000D01*
X38967619Y-53332380D01*
X39062857Y-53332380D01*
X39205714Y-53380000D01*
X39253333Y-53427619D01*
X39586666Y-53332380D02*
X40253333Y-53332380D01*
X39824761Y-54332380D01*
D11*
%TO.C,R24*%
X119327064Y-56790000D02*
X117872936Y-56790000D01*
X119327064Y-58610000D02*
X117872936Y-58610000D01*
%TO.C,R23*%
X119327064Y-59090000D02*
X117872936Y-59090000D01*
X119327064Y-60910000D02*
X117872936Y-60910000D01*
%TO.C,R22*%
X119327064Y-61390000D02*
X117872936Y-61390000D01*
X119327064Y-63210000D02*
X117872936Y-63210000D01*
%TO.C,R21*%
X119327064Y-63690000D02*
X117872936Y-63690000D01*
X119327064Y-65510000D02*
X117872936Y-65510000D01*
%TO.C,R20*%
X119317064Y-66010000D02*
X117862936Y-66010000D01*
X119317064Y-67830000D02*
X117862936Y-67830000D01*
%TO.C,R19*%
X101857258Y-65617500D02*
X101382742Y-65617500D01*
X101857258Y-66662500D02*
X101382742Y-66662500D01*
%TO.C,U2*%
X38862000Y-54610000D02*
X38862000Y-72390000D01*
X50022000Y-72390000D02*
X59182000Y-72390000D01*
X59182000Y-72390000D02*
X59182000Y-54610000D01*
X38862000Y-72390000D02*
X48006000Y-72390000D01*
X59182000Y-54610000D02*
X38862000Y-54610000D01*
X50022000Y-72390000D02*
G75*
G03*
X48022000Y-72390000I-1000000J0D01*
G01*
%TO.C,R13*%
X50262500Y-56347258D02*
X50262500Y-55872742D01*
X49217500Y-56347258D02*
X49217500Y-55872742D01*
%TO.C,R12*%
X48072500Y-56377258D02*
X48072500Y-55902742D01*
X47027500Y-56377258D02*
X47027500Y-55902742D01*
%TO.C,R11*%
X51157500Y-55872742D02*
X51157500Y-56347258D01*
X52202500Y-55872742D02*
X52202500Y-56347258D01*
%TO.C,D10*%
X46990000Y-45320000D02*
X44305000Y-45320000D01*
X44305000Y-45320000D02*
X44305000Y-47240000D01*
X44305000Y-47240000D02*
X46990000Y-47240000D01*
%TO.C,D9*%
X44275000Y-49410000D02*
X46960000Y-49410000D01*
X44275000Y-47490000D02*
X44275000Y-49410000D01*
X46960000Y-47490000D02*
X44275000Y-47490000D01*
%TO.C,D8*%
X44305000Y-45100000D02*
X46990000Y-45100000D01*
X44305000Y-43180000D02*
X44305000Y-45100000D01*
X46990000Y-43180000D02*
X44305000Y-43180000D01*
%TO.C,Q5*%
X110638000Y-50798000D02*
X110368000Y-50798000D01*
X104008000Y-50798000D02*
X104008000Y-53628000D01*
X110368000Y-50798000D02*
X110368000Y-51898000D01*
X103738000Y-50798000D02*
X104008000Y-50798000D01*
X110638000Y-49298000D02*
X110638000Y-50798000D01*
X103738000Y-49298000D02*
X103738000Y-50798000D01*
%TO.C,H2*%
X116260000Y-53160000D02*
X119460000Y-53160000D01*
X119460000Y-53160000D02*
X119460000Y-55960000D01*
X116260000Y-55960000D02*
X116260000Y-53160000D01*
X119460000Y-55960000D02*
X116260000Y-55960000D01*
%TO.C,Q1*%
X80539000Y-49230000D02*
X80539000Y-50730000D01*
X80269000Y-50730000D02*
X80269000Y-51830000D01*
X73639000Y-50730000D02*
X73909000Y-50730000D01*
X80539000Y-50730000D02*
X80269000Y-50730000D01*
X73639000Y-49230000D02*
X73639000Y-50730000D01*
X73909000Y-50730000D02*
X73909000Y-53560000D01*
%TO.C,D2*%
X82915000Y-56030000D02*
X82915000Y-59930000D01*
X82915000Y-56030000D02*
X80915000Y-56030000D01*
X80915000Y-56030000D02*
X80915000Y-59930000D01*
%TO.C,C8*%
X42045580Y-49790000D02*
X41764420Y-49790000D01*
X42045580Y-50810000D02*
X41764420Y-50810000D01*
%TO.C,C15*%
X48138748Y-74435000D02*
X48661252Y-74435000D01*
X48138748Y-72965000D02*
X48661252Y-72965000D01*
%TO.C,R6*%
X117640263Y-42968000D02*
X119087737Y-42968000D01*
X117640263Y-45678000D02*
X119087737Y-45678000D01*
%TO.C,Q6*%
X110638000Y-62948000D02*
X110368000Y-62948000D01*
X110638000Y-61448000D02*
X110638000Y-62948000D01*
X104008000Y-62948000D02*
X104008000Y-65778000D01*
X110368000Y-62948000D02*
X110368000Y-64048000D01*
X103738000Y-61448000D02*
X103738000Y-62948000D01*
X103738000Y-62948000D02*
X104008000Y-62948000D01*
%TO.C,R4*%
X97566263Y-53065000D02*
X99013737Y-53065000D01*
X97566263Y-55775000D02*
X99013737Y-55775000D01*
%TO.C,C3*%
X96512000Y-50476580D02*
X96512000Y-50195420D01*
X97532000Y-50476580D02*
X97532000Y-50195420D01*
%TO.C,D1*%
X85816000Y-48117000D02*
X85816000Y-46117000D01*
X85816000Y-46117000D02*
X81916000Y-46117000D01*
X85816000Y-48117000D02*
X81916000Y-48117000D01*
%TO.C,C6*%
X118360000Y-50990580D02*
X118360000Y-50709420D01*
X119380000Y-50990580D02*
X119380000Y-50709420D01*
%TO.C,R9*%
X45507258Y-51012500D02*
X45032742Y-51012500D01*
X45507258Y-49967500D02*
X45032742Y-49967500D01*
%TO.C,R2*%
X82356263Y-52865000D02*
X83803737Y-52865000D01*
X82356263Y-55575000D02*
X83803737Y-55575000D01*
%TO.C,R16*%
X61987258Y-65642500D02*
X61512742Y-65642500D01*
X61987258Y-64597500D02*
X61512742Y-64597500D01*
%TO.C,C21*%
X124751252Y-53180000D02*
X123328748Y-53180000D01*
X124751252Y-50460000D02*
X123328748Y-50460000D01*
%TO.C,R8*%
X45507258Y-54182500D02*
X45032742Y-54182500D01*
X45507258Y-53137500D02*
X45032742Y-53137500D01*
%TO.C,Cb16*%
X69828748Y-63500000D02*
X71251252Y-63500000D01*
X69828748Y-66220000D02*
X71251252Y-66220000D01*
%TO.C,C17*%
X61609420Y-64060000D02*
X61890580Y-64060000D01*
X61609420Y-63040000D02*
X61890580Y-63040000D01*
%TO.C,R14*%
X61472500Y-50962742D02*
X61472500Y-51437258D01*
X60427500Y-50962742D02*
X60427500Y-51437258D01*
%TO.C,Q3*%
X88753000Y-49274000D02*
X88753000Y-50774000D01*
X95653000Y-49274000D02*
X95653000Y-50774000D01*
X89023000Y-50774000D02*
X89023000Y-53604000D01*
X88753000Y-50774000D02*
X89023000Y-50774000D01*
X95383000Y-50774000D02*
X95383000Y-51874000D01*
X95653000Y-50774000D02*
X95383000Y-50774000D01*
%TO.C,RV1*%
X57668000Y-43251000D02*
X55239000Y-43251000D01*
X57844000Y-43252000D02*
X57844000Y-53522000D01*
X56454000Y-41732000D02*
X56454000Y-42491000D01*
X55239000Y-41732000D02*
X55239000Y-43251000D01*
X57668000Y-41732000D02*
X57668000Y-43251000D01*
X57844000Y-43252000D02*
X48074000Y-43252000D01*
X48074000Y-43252000D02*
X48074000Y-53522000D01*
X57668000Y-41732000D02*
X55239000Y-41732000D01*
X57844000Y-53522000D02*
X48074000Y-53522000D01*
%TO.C,D7*%
X58630000Y-45745000D02*
X60550000Y-45745000D01*
X60550000Y-45745000D02*
X60550000Y-43060000D01*
X58630000Y-43060000D02*
X58630000Y-45745000D01*
%TO.C,R7*%
X58847500Y-50992742D02*
X58847500Y-51467258D01*
X59892500Y-50992742D02*
X59892500Y-51467258D01*
%TO.C,C22*%
X124751252Y-53940000D02*
X123328748Y-53940000D01*
X124751252Y-56660000D02*
X123328748Y-56660000D01*
%TO.C,R5*%
X116166737Y-49064000D02*
X114719263Y-49064000D01*
X116166737Y-51774000D02*
X114719263Y-51774000D01*
%TO.C,C23*%
X124751252Y-60070000D02*
X123328748Y-60070000D01*
X124751252Y-57350000D02*
X123328748Y-57350000D01*
%TO.C,C19*%
X61609420Y-57839000D02*
X61890580Y-57839000D01*
X61609420Y-56819000D02*
X61890580Y-56819000D01*
%TO.C,U1*%
X49588909Y-60804918D02*
X49200000Y-60416009D01*
X46216009Y-63400000D02*
X46604918Y-63011091D01*
X52183991Y-63400000D02*
X51795082Y-63788909D01*
X48811091Y-65995082D02*
X49200000Y-66383991D01*
X49200000Y-60416009D02*
X48811091Y-60804918D01*
X46604918Y-63788909D02*
X46216009Y-63400000D01*
X51795082Y-63011091D02*
X52183991Y-63400000D01*
%TO.C,Cb21*%
X124751252Y-60740000D02*
X123328748Y-60740000D01*
X124751252Y-63460000D02*
X123328748Y-63460000D01*
%TO.C,Q4*%
X95653000Y-61177000D02*
X95653000Y-62677000D01*
X95383000Y-62677000D02*
X95383000Y-63777000D01*
X88753000Y-62677000D02*
X89023000Y-62677000D01*
X95653000Y-62677000D02*
X95383000Y-62677000D01*
X88753000Y-61177000D02*
X88753000Y-62677000D01*
X89023000Y-62677000D02*
X89023000Y-65507000D01*
%TO.C,R1*%
X84747263Y-48810000D02*
X86194737Y-48810000D01*
X84747263Y-51520000D02*
X86194737Y-51520000D01*
%TO.C,C18*%
X61609420Y-59920000D02*
X61890580Y-59920000D01*
X61609420Y-60940000D02*
X61890580Y-60940000D01*
%TO.C,H5*%
X115138000Y-69725000D02*
X115138000Y-72525000D01*
X111938000Y-69725000D02*
X115138000Y-69725000D01*
X115138000Y-72525000D02*
X111938000Y-72525000D01*
X111938000Y-72525000D02*
X111938000Y-69725000D01*
%TO.C,R17*%
X61987258Y-61457500D02*
X61512742Y-61457500D01*
X61987258Y-62502500D02*
X61512742Y-62502500D01*
%TO.C,J1*%
X71560000Y-53457071D02*
X71560000Y-53002929D01*
X66480000Y-50917071D02*
X66480000Y-50520000D01*
X70800000Y-53457071D02*
X70800000Y-53002929D01*
X62230000Y-50520000D02*
X72510000Y-50520000D01*
X69910000Y-50520000D02*
X69910000Y-47860000D01*
X63600000Y-47860000D02*
X63600000Y-41860000D01*
X63940000Y-53390000D02*
X63940000Y-53002929D01*
X68260000Y-50917071D02*
X68260000Y-50520000D01*
X65720000Y-53457071D02*
X65720000Y-53002929D01*
X71560000Y-50917071D02*
X71560000Y-50520000D01*
X65720000Y-47860000D02*
X65720000Y-41860000D01*
X63360000Y-47860000D02*
X63360000Y-41860000D01*
X63180000Y-47860000D02*
X63180000Y-41860000D01*
X62290000Y-55770000D02*
X62290000Y-54500000D01*
X63480000Y-47860000D02*
X63480000Y-41860000D01*
X63560000Y-55770000D02*
X62290000Y-55770000D01*
X64830000Y-50520000D02*
X64830000Y-47860000D01*
X63940000Y-41860000D02*
X63940000Y-47860000D01*
X72510000Y-50520000D02*
X72510000Y-47860000D01*
X69020000Y-53457071D02*
X69020000Y-53002929D01*
X72510000Y-47860000D02*
X62230000Y-47860000D01*
X66480000Y-53457071D02*
X66480000Y-53002929D01*
X63240000Y-47860000D02*
X63240000Y-41860000D01*
X63940000Y-50917071D02*
X63940000Y-50520000D01*
X70800000Y-41860000D02*
X71560000Y-41860000D01*
X63840000Y-47860000D02*
X63840000Y-41860000D01*
X65720000Y-50917071D02*
X65720000Y-50520000D01*
X69020000Y-50917071D02*
X69020000Y-50520000D01*
X63180000Y-41860000D02*
X63940000Y-41860000D01*
X68260000Y-53457071D02*
X68260000Y-53002929D01*
X63180000Y-50917071D02*
X63180000Y-50520000D01*
X63180000Y-53390000D02*
X63180000Y-53002929D01*
X68260000Y-47860000D02*
X68260000Y-41860000D01*
X62230000Y-47860000D02*
X62230000Y-50520000D01*
X68260000Y-41860000D02*
X69020000Y-41860000D01*
X70800000Y-47860000D02*
X70800000Y-41860000D01*
X63720000Y-47860000D02*
X63720000Y-41860000D01*
X71560000Y-41860000D02*
X71560000Y-47860000D01*
X67370000Y-50520000D02*
X67370000Y-47860000D01*
X65720000Y-41860000D02*
X66480000Y-41860000D01*
X69020000Y-41860000D02*
X69020000Y-47860000D01*
X70800000Y-50917071D02*
X70800000Y-50520000D01*
X66480000Y-41860000D02*
X66480000Y-47860000D01*
%TO.C,R10*%
X45507258Y-52592500D02*
X45032742Y-52592500D01*
X45507258Y-51547500D02*
X45032742Y-51547500D01*
%TO.C,C1*%
X81405000Y-50178580D02*
X81405000Y-49897420D01*
X82425000Y-50178580D02*
X82425000Y-49897420D01*
%TO.C,D5*%
X115915000Y-48498000D02*
X115915000Y-46498000D01*
X115915000Y-46498000D02*
X112015000Y-46498000D01*
X115915000Y-48498000D02*
X112015000Y-48498000D01*
%TO.C,Cb23*%
X124701252Y-67550000D02*
X123278748Y-67550000D01*
X124701252Y-70270000D02*
X123278748Y-70270000D01*
%TO.C,D4*%
X98149000Y-56214000D02*
X98149000Y-60114000D01*
X96149000Y-56214000D02*
X96149000Y-60114000D01*
X98149000Y-56214000D02*
X96149000Y-56214000D01*
%TO.C,C9*%
X42060580Y-51390000D02*
X41779420Y-51390000D01*
X42060580Y-52410000D02*
X41779420Y-52410000D01*
%TO.C,C16*%
X66471252Y-63500000D02*
X65048748Y-63500000D01*
X66471252Y-66220000D02*
X65048748Y-66220000D01*
%TO.C,D3*%
X100802000Y-48371000D02*
X100802000Y-46371000D01*
X100802000Y-48371000D02*
X96902000Y-48371000D01*
X100802000Y-46371000D02*
X96902000Y-46371000D01*
%TO.C,Cb22*%
X124751252Y-66850000D02*
X123328748Y-66850000D01*
X124751252Y-64130000D02*
X123328748Y-64130000D01*
%TO.C,D6*%
X116495000Y-48498000D02*
X120395000Y-48498000D01*
X116495000Y-46498000D02*
X120395000Y-46498000D01*
X116495000Y-46498000D02*
X116495000Y-48498000D01*
%TO.C,H1*%
X112370000Y-53170000D02*
X115570000Y-53170000D01*
X115570000Y-53170000D02*
X115570000Y-55970000D01*
X112370000Y-55970000D02*
X112370000Y-53170000D01*
X115570000Y-55970000D02*
X112370000Y-55970000D01*
%TO.C,Q2*%
X80255000Y-62525000D02*
X80255000Y-63625000D01*
X80525000Y-62525000D02*
X80255000Y-62525000D01*
X80525000Y-61025000D02*
X80525000Y-62525000D01*
X73895000Y-62525000D02*
X73895000Y-65355000D01*
X73625000Y-61025000D02*
X73625000Y-62525000D01*
X73625000Y-62525000D02*
X73895000Y-62525000D01*
%TO.C,J2*%
X104965000Y-72010000D02*
X104965000Y-74670000D01*
X105855000Y-80670000D02*
X105855000Y-74670000D01*
X88835000Y-74670000D02*
X88835000Y-80670000D01*
X71055000Y-71612929D02*
X71055000Y-72010000D01*
X93915000Y-80670000D02*
X93155000Y-80670000D01*
X63435000Y-71612929D02*
X63435000Y-72010000D01*
X86295000Y-74670000D02*
X86295000Y-80670000D01*
X85535000Y-80670000D02*
X85535000Y-74670000D01*
X106315000Y-74670000D02*
X106315000Y-80670000D01*
X71945000Y-72010000D02*
X71945000Y-74670000D01*
X96455000Y-80670000D02*
X95695000Y-80670000D01*
X80455000Y-69072929D02*
X80455000Y-69527071D01*
X106615000Y-71612929D02*
X106615000Y-72010000D01*
X96455000Y-69072929D02*
X96455000Y-69527071D01*
X106615000Y-74670000D02*
X106615000Y-80670000D01*
X68515000Y-80670000D02*
X67755000Y-80670000D01*
X72835000Y-69072929D02*
X72835000Y-69527071D01*
X68515000Y-74670000D02*
X68515000Y-80670000D01*
X86295000Y-71612929D02*
X86295000Y-72010000D01*
X77915000Y-69072929D02*
X77915000Y-69527071D01*
X65975000Y-69072929D02*
X65975000Y-69527071D01*
X106435000Y-74670000D02*
X106435000Y-80670000D01*
X63435000Y-80670000D02*
X62675000Y-80670000D01*
X78675000Y-71612929D02*
X78675000Y-72010000D01*
X106075000Y-74670000D02*
X106075000Y-80670000D01*
X101535000Y-74670000D02*
X101535000Y-80670000D01*
X98235000Y-69072929D02*
X98235000Y-69527071D01*
X104075000Y-69072929D02*
X104075000Y-69527071D01*
X80455000Y-80670000D02*
X80455000Y-74670000D01*
X72835000Y-80670000D02*
X72835000Y-74670000D01*
X91375000Y-69072929D02*
X91375000Y-69527071D01*
X95695000Y-80670000D02*
X95695000Y-74670000D01*
X77025000Y-72010000D02*
X77025000Y-74670000D01*
X91375000Y-80670000D02*
X90615000Y-80670000D01*
X85535000Y-69072929D02*
X85535000Y-69527071D01*
X105855000Y-69140000D02*
X105855000Y-69527071D01*
X93155000Y-71612929D02*
X93155000Y-72010000D01*
X65975000Y-71612929D02*
X65975000Y-72010000D01*
X75375000Y-71612929D02*
X75375000Y-72010000D01*
X86295000Y-69072929D02*
X86295000Y-69527071D01*
X75375000Y-80670000D02*
X75375000Y-74670000D01*
X93155000Y-69072929D02*
X93155000Y-69527071D01*
X93915000Y-69072929D02*
X93915000Y-69527071D01*
X96455000Y-71612929D02*
X96455000Y-72010000D01*
X95695000Y-69072929D02*
X95695000Y-69527071D01*
X98995000Y-71612929D02*
X98995000Y-72010000D01*
X100775000Y-71612929D02*
X100775000Y-72010000D01*
X63435000Y-74670000D02*
X63435000Y-80670000D01*
X105855000Y-71612929D02*
X105855000Y-72010000D01*
X76135000Y-74670000D02*
X76135000Y-80670000D01*
X83755000Y-80670000D02*
X82995000Y-80670000D01*
X101535000Y-80670000D02*
X100775000Y-80670000D01*
X83755000Y-69072929D02*
X83755000Y-69527071D01*
X88075000Y-69072929D02*
X88075000Y-69527071D01*
X62675000Y-69072929D02*
X62675000Y-69527071D01*
X71055000Y-74670000D02*
X71055000Y-80670000D01*
X92265000Y-72010000D02*
X92265000Y-74670000D01*
X91375000Y-74670000D02*
X91375000Y-80670000D01*
X88835000Y-69072929D02*
X88835000Y-69527071D01*
X78675000Y-69072929D02*
X78675000Y-69527071D01*
X64325000Y-72010000D02*
X64325000Y-74670000D01*
X61725000Y-74670000D02*
X107565000Y-74670000D01*
X104075000Y-71612929D02*
X104075000Y-72010000D01*
X74485000Y-72010000D02*
X74485000Y-74670000D01*
X93915000Y-74670000D02*
X93915000Y-80670000D01*
X77915000Y-71612929D02*
X77915000Y-72010000D01*
X91375000Y-71612929D02*
X91375000Y-72010000D01*
X82995000Y-71612929D02*
X82995000Y-72010000D01*
X89725000Y-72010000D02*
X89725000Y-74670000D01*
X72835000Y-71612929D02*
X72835000Y-72010000D01*
X73595000Y-74670000D02*
X73595000Y-80670000D01*
X67755000Y-69072929D02*
X67755000Y-69527071D01*
X101535000Y-71612929D02*
X101535000Y-72010000D01*
X66865000Y-72010000D02*
X66865000Y-74670000D01*
X88835000Y-80670000D02*
X88075000Y-80670000D01*
X93155000Y-80670000D02*
X93155000Y-74670000D01*
X75375000Y-69072929D02*
X75375000Y-69527071D01*
X98995000Y-69072929D02*
X98995000Y-69527071D01*
X106615000Y-80670000D02*
X105855000Y-80670000D01*
X106555000Y-74670000D02*
X106555000Y-80670000D01*
X87185000Y-72010000D02*
X87185000Y-74670000D01*
X67755000Y-71612929D02*
X67755000Y-72010000D01*
X78675000Y-74670000D02*
X78675000Y-80670000D01*
X65215000Y-71612929D02*
X65215000Y-72010000D01*
X96455000Y-74670000D02*
X96455000Y-80670000D01*
X103315000Y-69072929D02*
X103315000Y-69527071D01*
X82995000Y-69072929D02*
X82995000Y-69527071D01*
X62675000Y-80670000D02*
X62675000Y-74670000D01*
X100775000Y-80670000D02*
X100775000Y-74670000D01*
X97345000Y-72010000D02*
X97345000Y-74670000D01*
X103315000Y-80670000D02*
X103315000Y-74670000D01*
X81215000Y-69072929D02*
X81215000Y-69527071D01*
X106615000Y-69140000D02*
X106615000Y-69527071D01*
X83755000Y-74670000D02*
X83755000Y-80670000D01*
X90615000Y-71612929D02*
X90615000Y-72010000D01*
X80455000Y-71612929D02*
X80455000Y-72010000D01*
X107565000Y-74670000D02*
X107565000Y-72010000D01*
X73595000Y-71612929D02*
X73595000Y-72010000D01*
X84645000Y-72010000D02*
X84645000Y-74670000D01*
X81215000Y-71612929D02*
X81215000Y-72010000D01*
X98995000Y-74670000D02*
X98995000Y-80670000D01*
X106195000Y-74670000D02*
X106195000Y-80670000D01*
X62675000Y-71612929D02*
X62675000Y-72010000D01*
X70295000Y-69072929D02*
X70295000Y-69527071D01*
X71055000Y-69072929D02*
X71055000Y-69527071D01*
X68515000Y-69072929D02*
X68515000Y-69527071D01*
X79565000Y-72010000D02*
X79565000Y-74670000D01*
X65215000Y-80670000D02*
X65215000Y-74670000D01*
X61725000Y-72010000D02*
X61725000Y-74670000D01*
X93915000Y-71612929D02*
X93915000Y-72010000D01*
X90615000Y-69072929D02*
X90615000Y-69527071D01*
X81215000Y-80670000D02*
X80455000Y-80670000D01*
X90615000Y-80670000D02*
X90615000Y-74670000D01*
X107505000Y-66760000D02*
X107505000Y-68030000D01*
X81215000Y-74670000D02*
X81215000Y-80670000D01*
X65975000Y-74670000D02*
X65975000Y-80670000D01*
X65215000Y-69072929D02*
X65215000Y-69527071D01*
X86295000Y-80670000D02*
X85535000Y-80670000D01*
X76135000Y-69072929D02*
X76135000Y-69527071D01*
X88075000Y-71612929D02*
X88075000Y-72010000D01*
X68515000Y-71612929D02*
X68515000Y-72010000D01*
X76135000Y-71612929D02*
X76135000Y-72010000D01*
X104075000Y-74670000D02*
X104075000Y-80670000D01*
X85535000Y-71612929D02*
X85535000Y-72010000D01*
X82995000Y-80670000D02*
X82995000Y-74670000D01*
X101535000Y-69072929D02*
X101535000Y-69527071D01*
X65975000Y-80670000D02*
X65215000Y-80670000D01*
X100775000Y-69072929D02*
X100775000Y-69527071D01*
X102425000Y-72010000D02*
X102425000Y-74670000D01*
X99885000Y-72010000D02*
X99885000Y-74670000D01*
X70295000Y-80670000D02*
X70295000Y-74670000D01*
X106235000Y-66760000D02*
X107505000Y-66760000D01*
X98995000Y-80670000D02*
X98235000Y-80670000D01*
X107565000Y-72010000D02*
X61725000Y-72010000D01*
X104075000Y-80670000D02*
X103315000Y-80670000D01*
X103315000Y-71612929D02*
X103315000Y-72010000D01*
X88835000Y-71612929D02*
X88835000Y-72010000D01*
X67755000Y-80670000D02*
X67755000Y-74670000D01*
X88075000Y-80670000D02*
X88075000Y-74670000D01*
X73595000Y-69072929D02*
X73595000Y-69527071D01*
X95695000Y-71612929D02*
X95695000Y-72010000D01*
X76135000Y-80670000D02*
X75375000Y-80670000D01*
X71055000Y-80670000D02*
X70295000Y-80670000D01*
X98235000Y-80670000D02*
X98235000Y-74670000D01*
X83755000Y-71612929D02*
X83755000Y-72010000D01*
X70295000Y-71612929D02*
X70295000Y-72010000D01*
X73595000Y-80670000D02*
X72835000Y-80670000D01*
X82105000Y-72010000D02*
X82105000Y-74670000D01*
X105955000Y-74670000D02*
X105955000Y-80670000D01*
X98235000Y-71612929D02*
X98235000Y-72010000D01*
X94805000Y-72010000D02*
X94805000Y-74670000D01*
X63435000Y-69072929D02*
X63435000Y-69527071D01*
X69405000Y-72010000D02*
X69405000Y-74670000D01*
X77915000Y-80670000D02*
X77915000Y-74670000D01*
X78675000Y-80670000D02*
X77915000Y-80670000D01*
%TO.C,H6*%
X119078000Y-72525000D02*
X115878000Y-72525000D01*
X115878000Y-72525000D02*
X115878000Y-69725000D01*
X119078000Y-69725000D02*
X119078000Y-72525000D01*
X115878000Y-69725000D02*
X119078000Y-69725000D01*
%TO.C,R3*%
X101307737Y-51647000D02*
X99860263Y-51647000D01*
X101307737Y-48937000D02*
X99860263Y-48937000D01*
%TO.C,C4*%
X97659000Y-62668580D02*
X97659000Y-62387420D01*
X96639000Y-62668580D02*
X96639000Y-62387420D01*
%TO.C,R15*%
X43137258Y-73107500D02*
X42662742Y-73107500D01*
X43137258Y-74152500D02*
X42662742Y-74152500D01*
%TO.C,C2*%
X81405000Y-62484580D02*
X81405000Y-62203420D01*
X82425000Y-62484580D02*
X82425000Y-62203420D01*
%TO.C,C5*%
X112467000Y-50526580D02*
X112467000Y-50245420D01*
X111447000Y-50526580D02*
X111447000Y-50245420D01*
%TO.C,R18*%
X61987258Y-58367500D02*
X61512742Y-58367500D01*
X61987258Y-59412500D02*
X61512742Y-59412500D01*
%TO.C,C7*%
X42020580Y-54020000D02*
X41739420Y-54020000D01*
X42020580Y-53000000D02*
X41739420Y-53000000D01*
%TD*%
M02*
