%TF.GenerationSoftware,KiCad,Pcbnew,9.0.1*%
%TF.CreationDate,2025-10-19T14:59:18+02:00*%
%TF.ProjectId,MP6532_board_28-QFN,4d503635-3332-45f6-926f-6172645f3238,rev?*%
%TF.SameCoordinates,Original*%
%TF.FileFunction,Copper,L2,Inr*%
%TF.FilePolarity,Positive*%
%FSLAX46Y46*%
G04 Gerber Fmt 4.6, Leading zero omitted, Abs format (unit mm)*
G04 Created by KiCad (PCBNEW 9.0.1) date 2025-10-19 14:59:18*
%MOMM*%
%LPD*%
G01*
G04 APERTURE LIST*
%TA.AperFunction,ComponentPad*%
%ADD10C,2.400000*%
%TD*%
%TA.AperFunction,ComponentPad*%
%ADD11C,1.440000*%
%TD*%
%TA.AperFunction,ComponentPad*%
%ADD12C,0.500000*%
%TD*%
%TA.AperFunction,ComponentPad*%
%ADD13R,1.700000X1.700000*%
%TD*%
%TA.AperFunction,ComponentPad*%
%ADD14O,1.700000X1.700000*%
%TD*%
%TA.AperFunction,ComponentPad*%
%ADD15R,1.600000X1.600000*%
%TD*%
%TA.AperFunction,ComponentPad*%
%ADD16O,1.600000X1.600000*%
%TD*%
%TA.AperFunction,ViaPad*%
%ADD17C,0.800000*%
%TD*%
%TA.AperFunction,Conductor*%
%ADD18C,0.250000*%
%TD*%
%TA.AperFunction,Conductor*%
%ADD19C,0.200000*%
%TD*%
G04 APERTURE END LIST*
D10*
%TO.N,LSS*%
%TO.C,H2*%
X117860000Y-54560000D03*
%TD*%
D11*
%TO.N,GND*%
%TO.C,RV1*%
X55499000Y-48387000D03*
%TO.N,/OCREF*%
X52959000Y-45847000D03*
%TO.N,Net-(R7-Pad1)*%
X50419000Y-48387000D03*
%TD*%
D12*
%TO.N,GND*%
%TO.C,U1*%
X50250000Y-63400000D03*
X49200000Y-63400000D03*
X49200000Y-64450000D03*
X50250000Y-64450000D03*
X49200000Y-62350000D03*
X48150000Y-64450000D03*
X50250000Y-62350000D03*
X48150000Y-63400000D03*
X48150000Y-62350000D03*
%TD*%
D10*
%TO.N,GND*%
%TO.C,H5*%
X113538000Y-71125000D03*
%TD*%
D13*
%TO.N,/HA*%
%TO.C,J1*%
X63560000Y-54500000D03*
D14*
%TO.N,HAIN*%
X63560000Y-51960000D03*
%TO.N,HBIN*%
X66100000Y-54500000D03*
%TO.N,/HB*%
X66100000Y-51960000D03*
%TO.N,/HC*%
X68640000Y-54500000D03*
%TO.N,HCIN*%
X68640000Y-51960000D03*
%TO.N,HAIN*%
X71180000Y-54500000D03*
%TO.N,/HA*%
X71180000Y-51960000D03*
%TD*%
D15*
%TO.N,/VREG*%
%TO.C,U2*%
X57912000Y-71120000D03*
D16*
%TO.N,/BSTA*%
X55372000Y-71120000D03*
%TO.N,HAS*%
X57912000Y-68580000D03*
%TO.N,/GHA*%
X55372000Y-68580000D03*
%TO.N,/GLA*%
X57912000Y-66040000D03*
%TO.N,/BSTB*%
X55372000Y-66040000D03*
%TO.N,HBS*%
X57912000Y-63500000D03*
%TO.N,/GHB*%
X55372000Y-63500000D03*
%TO.N,/GLB*%
X57912000Y-60960000D03*
%TO.N,/BSTC*%
X55372000Y-60960000D03*
%TO.N,HCS*%
X57912000Y-58420000D03*
%TO.N,/GHC*%
X55372000Y-58420000D03*
%TO.N,/GLC*%
X57912000Y-55880000D03*
%TO.N,LSS*%
X55372000Y-55880000D03*
%TO.N,Net-(C9-Pad1)*%
X42672000Y-55880000D03*
%TO.N,Net-(C8-Pad1)*%
X40132000Y-55880000D03*
%TO.N,Net-(C7-Pad1)*%
X42672000Y-58420000D03*
%TO.N,/nBRAKE*%
X40132000Y-58420000D03*
%TO.N,/PWM*%
X42672000Y-60960000D03*
%TO.N,/DIR*%
X40132000Y-60960000D03*
%TO.N,/nFAULT*%
X42672000Y-63500000D03*
%TO.N,/nSLEEP*%
X40132000Y-63500000D03*
%TO.N,/OCREF*%
X42672000Y-66040000D03*
%TO.N,/DT*%
X40132000Y-66040000D03*
%TO.N,GND*%
X42672000Y-68580000D03*
%TO.N,VIN*%
X40132000Y-68580000D03*
%TO.N,/CPA*%
X42672000Y-71120000D03*
%TO.N,/CPB*%
X40132000Y-71120000D03*
%TD*%
D10*
%TO.N,LSS*%
%TO.C,H1*%
X113970000Y-54570000D03*
%TD*%
D13*
%TO.N,GND*%
%TO.C,J2*%
X106235000Y-68030000D03*
D14*
X106235000Y-70570000D03*
X103695000Y-68030000D03*
X103695000Y-70570000D03*
%TO.N,Net-(J2-Pad5)*%
X101155000Y-68030000D03*
%TO.N,GND*%
X101155000Y-70570000D03*
%TO.N,HCS*%
X98615000Y-68030000D03*
X98615000Y-70570000D03*
X96075000Y-68030000D03*
X96075000Y-70570000D03*
%TO.N,HBS*%
X93535000Y-68030000D03*
X93535000Y-70570000D03*
X90995000Y-68030000D03*
X90995000Y-70570000D03*
%TO.N,VIN*%
X88455000Y-68030000D03*
X88455000Y-70570000D03*
X85915000Y-68030000D03*
X85915000Y-70570000D03*
X83375000Y-68030000D03*
X83375000Y-70570000D03*
%TO.N,HAS*%
X80835000Y-68030000D03*
X80835000Y-70570000D03*
X78295000Y-68030000D03*
X78295000Y-70570000D03*
%TO.N,GND*%
X75755000Y-68030000D03*
X75755000Y-70570000D03*
%TO.N,HCIN*%
X73215000Y-68030000D03*
%TO.N,Net-(J2-Pad28)*%
X73215000Y-70570000D03*
%TO.N,HBIN*%
X70675000Y-68030000D03*
%TO.N,/nFAULT*%
X70675000Y-70570000D03*
%TO.N,HAIN*%
X68135000Y-68030000D03*
%TO.N,/PWM*%
X68135000Y-70570000D03*
%TO.N,Net-(J2-Pad33)*%
X65595000Y-68030000D03*
%TO.N,Net-(J2-Pad34)*%
X65595000Y-70570000D03*
%TO.N,5V*%
X63055000Y-68030000D03*
X63055000Y-70570000D03*
%TD*%
D10*
%TO.N,GND*%
%TO.C,H6*%
X117478000Y-71125000D03*
%TD*%
D17*
%TO.N,HAS*%
X77547989Y-52147989D03*
X72710000Y-61410000D03*
X71460000Y-58980000D03*
X75008680Y-55958680D03*
X77470000Y-57150000D03*
X76200000Y-59690000D03*
X65533884Y-60203063D03*
X74930000Y-59690000D03*
X78740000Y-58420000D03*
X74930000Y-58420000D03*
X77470000Y-59690000D03*
X76200000Y-57150000D03*
X78740000Y-59690000D03*
X70178176Y-59382112D03*
X78740000Y-57150000D03*
X77470000Y-58420000D03*
X77470000Y-55880000D03*
X76200000Y-55880000D03*
X72690000Y-58340000D03*
X74340000Y-62110000D03*
X77470000Y-53340000D03*
X71190000Y-60430000D03*
X72390000Y-59690000D03*
X76200000Y-58420000D03*
X78740000Y-55880000D03*
X74930000Y-57150000D03*
%TO.N,GND*%
X121390000Y-62090000D03*
X121440000Y-55290000D03*
X50100394Y-71024992D03*
X72070000Y-65040000D03*
X121420000Y-65510000D03*
X39780000Y-51830000D03*
X121330000Y-68900000D03*
X43770000Y-49000000D03*
X64285000Y-64860002D03*
X121470000Y-58700000D03*
X123530000Y-68900000D03*
X45900000Y-74700000D03*
X123590000Y-51820000D03*
X123530000Y-65480000D03*
X123570000Y-58700000D03*
X123620000Y-62150000D03*
X123610000Y-55320000D03*
X121470000Y-51750000D03*
X53100000Y-72400000D03*
%TO.N,LSS*%
X115600000Y-60000000D03*
X109460000Y-65260000D03*
X94550000Y-63960000D03*
X115500000Y-57200000D03*
X79355000Y-64755000D03*
X113660000Y-66080000D03*
X115500000Y-65700000D03*
X114500000Y-61100000D03*
X114400000Y-63400000D03*
X113300000Y-57000000D03*
X94580000Y-64980000D03*
X114500000Y-58700000D03*
X115600000Y-62300000D03*
X79370000Y-63660000D03*
X115600000Y-64500000D03*
X112180000Y-66120000D03*
X109460000Y-64240000D03*
%TO.N,VIN*%
X97790000Y-44450000D03*
X92710000Y-48260000D03*
X109220000Y-48260000D03*
X106680000Y-44450000D03*
X126850000Y-63080000D03*
X120200000Y-49200000D03*
X91440000Y-45720000D03*
X76200000Y-46990000D03*
X91440000Y-48260000D03*
X93980000Y-44450000D03*
X77470000Y-48260000D03*
X93980000Y-48260000D03*
X114300000Y-44450000D03*
X78740000Y-44450000D03*
X90170000Y-45720000D03*
X126850000Y-54690000D03*
X107950000Y-45720000D03*
X126850000Y-66520000D03*
X93980000Y-45720000D03*
X106680000Y-45720000D03*
X122030000Y-44160000D03*
X123680000Y-49530000D03*
X126380000Y-49720000D03*
X90170000Y-48260000D03*
X122570000Y-49200000D03*
X86360000Y-44450000D03*
X121460000Y-45810000D03*
X90170000Y-46990000D03*
X121390000Y-49200000D03*
X74930000Y-44450000D03*
X74930000Y-45720000D03*
X78740000Y-45720000D03*
X82550000Y-44450000D03*
X107950000Y-44450000D03*
X111760000Y-44450000D03*
X126820000Y-59580000D03*
X91440000Y-46990000D03*
X74930000Y-48260000D03*
X76200000Y-48260000D03*
X109220000Y-46990000D03*
X74930000Y-46990000D03*
X113030000Y-44450000D03*
X125030000Y-49770000D03*
X105410000Y-44450000D03*
X93980000Y-46990000D03*
X101600000Y-44450000D03*
X78740000Y-46990000D03*
X77470000Y-46990000D03*
X126820000Y-55990000D03*
X126850000Y-69730000D03*
X126790000Y-58010000D03*
X126790000Y-52840000D03*
X126790000Y-61490000D03*
X99060000Y-44450000D03*
X91440000Y-44450000D03*
X83820000Y-44450000D03*
X85090000Y-44450000D03*
X121480000Y-47350000D03*
X105410000Y-48260000D03*
X92710000Y-44450000D03*
X105410000Y-46990000D03*
X92710000Y-46990000D03*
X78740000Y-48260000D03*
X100330000Y-44450000D03*
X106680000Y-48260000D03*
X126850000Y-51530000D03*
X109220000Y-44450000D03*
X77470000Y-45720000D03*
X105410000Y-45720000D03*
X126850000Y-68200000D03*
X106680000Y-46990000D03*
X92710000Y-45720000D03*
X109220000Y-45720000D03*
X77470000Y-44450000D03*
X76200000Y-44450000D03*
X90170000Y-44450000D03*
X107950000Y-46990000D03*
X76200000Y-45720000D03*
X115570000Y-44450000D03*
X107950000Y-48260000D03*
X126820000Y-64900000D03*
%TO.N,Net-(C4-Pad2)*%
X91260000Y-63890000D03*
X98620000Y-60490000D03*
%TO.N,HBS*%
X93980000Y-59690000D03*
X91440000Y-59690000D03*
X91440000Y-55880000D03*
X64840000Y-59340000D03*
X92710000Y-59690000D03*
X93980000Y-58420000D03*
X69024174Y-59614559D03*
X92710000Y-58420000D03*
X93980000Y-55880000D03*
X93980000Y-57150000D03*
X91440000Y-58420000D03*
X90170000Y-57150000D03*
X90170000Y-59690000D03*
X92710000Y-55880000D03*
X92710000Y-53984500D03*
X92710000Y-57150000D03*
X92710000Y-52070000D03*
X90170000Y-58420000D03*
X90170000Y-55880000D03*
X91440000Y-57150000D03*
%TO.N,HCS*%
X101600000Y-59690000D03*
X105410000Y-57150000D03*
X106680000Y-57150000D03*
X101600000Y-58420000D03*
X105410000Y-55880000D03*
X109220000Y-58420000D03*
X109220000Y-55880000D03*
X68291799Y-58934388D03*
X107950000Y-53340000D03*
X102870000Y-59690000D03*
X105410000Y-59690000D03*
X107950000Y-57150000D03*
X101600000Y-57150000D03*
X109220000Y-59690000D03*
X109220000Y-57150000D03*
X106680000Y-58420000D03*
X107950000Y-52070000D03*
X107950000Y-55880000D03*
X102870000Y-55880000D03*
X102870000Y-58420000D03*
X106680000Y-59690000D03*
X107950000Y-59690000D03*
X107950000Y-58420000D03*
X106680000Y-55880000D03*
X102870000Y-57150000D03*
X64600000Y-58300000D03*
X105410000Y-58420000D03*
%TO.N,Net-(C6-Pad2)*%
X118067500Y-50150000D03*
X106060000Y-64660000D03*
%TO.N,Net-(D7-Pad2)*%
X61260000Y-43120000D03*
X61025000Y-48315000D03*
%TO.N,/GHA*%
X83439000Y-47244000D03*
%TO.N,/GLA*%
X69520000Y-62010500D03*
X81788000Y-57912000D03*
X66757477Y-61028667D03*
%TO.N,/GHB*%
X98425000Y-47371000D03*
X67573089Y-56554500D03*
X70300000Y-56500000D03*
%TO.N,/GLB*%
X64780000Y-60960000D03*
X68460000Y-62010500D03*
X97282000Y-58166000D03*
%TO.N,/GHC*%
X113665000Y-47371000D03*
X64919001Y-56378586D03*
X69301665Y-57499855D03*
%TO.N,/GLC*%
X68325214Y-57876374D03*
X60970000Y-54980000D03*
X118491000Y-46228000D03*
%TO.N,/HA*%
X47310000Y-53260000D03*
%TO.N,/HB*%
X47260000Y-50080000D03*
%TO.N,/HC*%
X47280000Y-51750000D03*
X49780000Y-51140000D03*
%TO.N,/nBRAKE*%
X46100000Y-67600000D03*
%TO.N,/DIR*%
X57300000Y-73400000D03*
%TO.N,/nFAULT*%
X59410000Y-45980000D03*
X38867700Y-49677700D03*
%TO.N,/nSLEEP*%
X47600000Y-67500000D03*
X51500000Y-71400000D03*
%TO.N,/DT*%
X38400000Y-71440000D03*
%TO.N,5V*%
X59370000Y-53310000D03*
%TO.N,Net-(C7-Pad1)*%
X43940000Y-55020000D03*
%TO.N,Net-(J2-Pad33)*%
X45300000Y-71400000D03*
%TD*%
D18*
%TO.N,Net-(C4-Pad2)*%
X91260000Y-63890000D02*
X93250000Y-63890000D01*
X93250000Y-63890000D02*
X96650000Y-60490000D01*
X96650000Y-60490000D02*
X98620000Y-60490000D01*
%TO.N,HBS*%
X70412188Y-58123502D02*
X69024174Y-59511516D01*
X69024174Y-59511516D02*
X69024174Y-59614559D01*
X71819258Y-58123502D02*
X70412188Y-58123502D01*
X89060000Y-54770000D02*
X75172760Y-54770000D01*
X75172760Y-54770000D02*
X71819258Y-58123502D01*
X90170000Y-55880000D02*
X89060000Y-54770000D01*
%TO.N,HCS*%
X70225999Y-57674001D02*
X69159156Y-58740844D01*
X105410000Y-55880000D02*
X102790000Y-53260000D01*
X80540000Y-53260000D02*
X79509501Y-54290499D01*
X102790000Y-53260000D02*
X80540000Y-53260000D01*
X75016571Y-54290499D02*
X71633069Y-57674001D01*
X71633069Y-57674001D02*
X70225999Y-57674001D01*
X79509501Y-54290499D02*
X75016571Y-54290499D01*
X68485343Y-58740844D02*
X68291799Y-58934388D01*
X57912000Y-58420000D02*
X64480000Y-58420000D01*
X64480000Y-58420000D02*
X64600000Y-58300000D01*
X69159156Y-58740844D02*
X68485343Y-58740844D01*
%TO.N,Net-(C6-Pad2)*%
X111640000Y-59530000D02*
X111640000Y-52260000D01*
X113750000Y-50150000D02*
X118067500Y-50150000D01*
X111640000Y-52260000D02*
X113750000Y-50150000D01*
X106510000Y-64660000D02*
X111640000Y-59530000D01*
X106060000Y-64660000D02*
X106510000Y-64660000D01*
%TO.N,/GHA*%
X67537457Y-61272755D02*
X67285999Y-61524213D01*
X56787000Y-67165000D02*
X55372000Y-68580000D01*
X67537457Y-60782019D02*
X67537457Y-61272755D01*
X80772000Y-49911000D02*
X77489000Y-49911000D01*
X61645000Y-67165000D02*
X56787000Y-67165000D01*
X67285999Y-62883601D02*
X64079600Y-66090000D01*
X67285999Y-61524213D02*
X67285999Y-62883601D01*
X68745402Y-56854598D02*
X68297589Y-56854598D01*
X83439000Y-47244000D02*
X80772000Y-49911000D01*
X71712250Y-55687750D02*
X69912250Y-55687750D01*
X68297589Y-56854598D02*
X66725999Y-58426188D01*
X69912250Y-55687750D02*
X68745402Y-56854598D01*
X77489000Y-49911000D02*
X71712250Y-55687750D01*
X62720000Y-66090000D02*
X61645000Y-67165000D01*
X64079600Y-66090000D02*
X62720000Y-66090000D01*
X66725999Y-59970561D02*
X67537457Y-60782019D01*
X66725999Y-58426188D02*
X66725999Y-59970561D01*
%TO.N,/GLA*%
X61746144Y-66040000D02*
X66757477Y-61028667D01*
X57912000Y-66040000D02*
X61746144Y-66040000D01*
X81788000Y-57912000D02*
X75869002Y-63830998D01*
X71340498Y-63830998D02*
X69520000Y-62010500D01*
X75869002Y-63830998D02*
X71340498Y-63830998D01*
%TO.N,/GHB*%
X77489690Y-50546000D02*
X71535690Y-56500000D01*
X66276498Y-60485048D02*
X66276498Y-57851091D01*
X71535690Y-56500000D02*
X70300000Y-56500000D01*
X98425000Y-47371000D02*
X95250000Y-50546000D01*
X66032977Y-60761621D02*
X66032977Y-60728569D01*
X56497000Y-62375000D02*
X64419598Y-62375000D01*
X64419598Y-62375000D02*
X66032977Y-60761621D01*
X66032977Y-60728569D02*
X66276498Y-60485048D01*
X95250000Y-50546000D02*
X77489690Y-50546000D01*
X66276498Y-57851091D02*
X67573089Y-56554500D01*
X55372000Y-63500000D02*
X56497000Y-62375000D01*
%TO.N,/GLB*%
X70679999Y-64280499D02*
X68460000Y-62060500D01*
X77935690Y-62400000D02*
X76055191Y-64280499D01*
X57912000Y-60960000D02*
X64780000Y-60960000D01*
X76055191Y-64280499D02*
X70679999Y-64280499D01*
X93048000Y-62400000D02*
X77935690Y-62400000D01*
X97282000Y-58166000D02*
X93048000Y-62400000D01*
X68460000Y-62060500D02*
X68460000Y-62010500D01*
%TO.N,/GHC*%
X56497000Y-57295000D02*
X64002587Y-57295000D01*
X55372000Y-58420000D02*
X56497000Y-57295000D01*
X69577020Y-57224500D02*
X69301665Y-57499855D01*
X64002587Y-57295000D02*
X64919001Y-56378586D01*
X113665000Y-47371000D02*
X109982000Y-51054000D01*
X109982000Y-51054000D02*
X77617380Y-51054000D01*
X77617380Y-51054000D02*
X71446880Y-57224500D01*
X71446880Y-57224500D02*
X69577020Y-57224500D01*
%TO.N,/GLC*%
X110610000Y-59850000D02*
X107330000Y-63130000D01*
X105580000Y-63130000D02*
X102430000Y-66280000D01*
X116459000Y-46228000D02*
X110610000Y-52077000D01*
X57912000Y-55880000D02*
X60070000Y-55880000D01*
X60070000Y-55880000D02*
X60970000Y-54980000D01*
X67175500Y-59026088D02*
X68325214Y-57876374D01*
X67735500Y-62380098D02*
X67735500Y-61710402D01*
X71635402Y-66280000D02*
X67735500Y-62380098D01*
X118491000Y-46228000D02*
X116459000Y-46228000D01*
X67175500Y-59784372D02*
X67175500Y-59026088D01*
X67986958Y-60595830D02*
X67175500Y-59784372D01*
X102430000Y-66280000D02*
X71635402Y-66280000D01*
X110610000Y-52077000D02*
X110610000Y-59850000D01*
X67986958Y-61458944D02*
X67986958Y-60595830D01*
X67735500Y-61710402D02*
X67986958Y-61458944D01*
X107330000Y-63130000D02*
X105580000Y-63130000D01*
%TO.N,/HA*%
X48850000Y-52120000D02*
X47710000Y-53260000D01*
X64714086Y-55654086D02*
X63560000Y-54500000D01*
X69930000Y-53210000D02*
X69930000Y-54900000D01*
X71180000Y-51960000D02*
X69930000Y-53210000D01*
X47710000Y-53260000D02*
X47310000Y-53260000D01*
X65394889Y-55830000D02*
X65218975Y-55654086D01*
X69930000Y-54900000D02*
X69000000Y-55830000D01*
X69000000Y-55830000D02*
X65394889Y-55830000D01*
X61180000Y-52120000D02*
X48850000Y-52120000D01*
X63560000Y-54500000D02*
X61180000Y-52120000D01*
X65218975Y-55654086D02*
X64714086Y-55654086D01*
%TO.N,/HB*%
X47550000Y-49790000D02*
X47260000Y-50080000D01*
X48960000Y-49830000D02*
X48920000Y-49790000D01*
X63970000Y-49830000D02*
X48960000Y-49830000D01*
X66100000Y-51960000D02*
X63970000Y-49830000D01*
X48920000Y-49790000D02*
X47550000Y-49790000D01*
%TO.N,/HC*%
X64735000Y-52256701D02*
X64735000Y-51473299D01*
X64046701Y-50785000D02*
X63073299Y-50785000D01*
X63073299Y-50785000D02*
X62718299Y-51140000D01*
X68640000Y-54500000D02*
X67275000Y-53135000D01*
X65613299Y-53135000D02*
X64735000Y-52256701D01*
X49780000Y-51140000D02*
X47890000Y-51140000D01*
X64735000Y-51473299D02*
X64046701Y-50785000D01*
X47890000Y-51140000D02*
X47280000Y-51750000D01*
X62718299Y-51140000D02*
X49780000Y-51140000D01*
X67275000Y-53135000D02*
X65613299Y-53135000D01*
%TO.N,/nBRAKE*%
X45800000Y-67300000D02*
X46100000Y-67600000D01*
X39470000Y-67360000D02*
X38680000Y-66570000D01*
X38680000Y-66570000D02*
X38680000Y-59872000D01*
X39500000Y-67300000D02*
X45800000Y-67300000D01*
X38680000Y-59872000D02*
X40132000Y-58420000D01*
%TO.N,/PWM*%
X65193299Y-69310000D02*
X66875000Y-69310000D01*
X43595690Y-60960000D02*
X55135690Y-72500000D01*
X55135690Y-72500000D02*
X63800000Y-72500000D01*
X66875000Y-69310000D02*
X68135000Y-70570000D01*
X64330000Y-71970000D02*
X64330000Y-70173299D01*
X42672000Y-60960000D02*
X43595690Y-60960000D01*
X64330000Y-70173299D02*
X65193299Y-69310000D01*
X63800000Y-72500000D02*
X64330000Y-71970000D01*
%TO.N,/DIR*%
X55300000Y-73400000D02*
X57300000Y-73400000D01*
X44275000Y-62375000D02*
X55300000Y-73400000D01*
X41547000Y-62375000D02*
X44275000Y-62375000D01*
X40132000Y-60960000D02*
X41547000Y-62375000D01*
%TO.N,/nFAULT*%
X52300000Y-71035690D02*
X52300000Y-73300000D01*
X43686189Y-64450499D02*
X45714809Y-64450499D01*
X58497501Y-46892499D02*
X52526645Y-46892499D01*
X45714809Y-64450499D02*
X52300000Y-71035690D01*
X49384146Y-43750000D02*
X40040000Y-43750000D01*
X54639121Y-74210501D02*
X54927622Y-74499002D01*
X55127622Y-74499002D02*
X55327622Y-74699002D01*
X53210501Y-74210501D02*
X54639121Y-74210501D01*
X38520000Y-49330000D02*
X38867700Y-49677700D01*
X38520000Y-45270000D02*
X38520000Y-49330000D01*
X66545998Y-74699002D02*
X70675000Y-70570000D01*
X42672000Y-63500000D02*
X42735690Y-63500000D01*
X55327622Y-74699002D02*
X66545998Y-74699002D01*
X52526645Y-46892499D02*
X49384146Y-43750000D01*
X40040000Y-43750000D02*
X38520000Y-45270000D01*
X59410000Y-45980000D02*
X58497501Y-46892499D01*
X52300000Y-73300000D02*
X53210501Y-74210501D01*
X42735690Y-63500000D02*
X43686189Y-64450499D01*
X54927622Y-74499002D02*
X55127622Y-74499002D01*
%TO.N,/nSLEEP*%
X43500000Y-64900000D02*
X43225000Y-64625000D01*
D19*
X51600000Y-71500000D02*
X51500000Y-71400000D01*
D18*
X41257000Y-64625000D02*
X40132000Y-63500000D01*
D19*
X47600000Y-67500000D02*
X47800000Y-67500000D01*
D18*
X47600000Y-67500000D02*
X51500000Y-71400000D01*
D19*
X51800000Y-71500000D02*
X51600000Y-71500000D01*
D18*
X47600000Y-67500000D02*
X45000000Y-64900000D01*
X43225000Y-64625000D02*
X41257000Y-64625000D01*
D19*
X47600000Y-67300000D02*
X47600000Y-67500000D01*
D18*
X45000000Y-64900000D02*
X43500000Y-64900000D01*
%TO.N,Net-(C7-Pad1)*%
X43940000Y-57152000D02*
X43940000Y-55020000D01*
X42672000Y-58420000D02*
X43940000Y-57152000D01*
%TO.N,Net-(J2-Pad33)*%
X74460000Y-70010000D02*
X74460000Y-73170000D01*
X73750000Y-69300000D02*
X74460000Y-70010000D01*
X67500690Y-69300000D02*
X73750000Y-69300000D01*
D19*
X52849004Y-75109004D02*
X47809004Y-75109004D01*
D18*
X65595000Y-68030000D02*
X66425499Y-68860499D01*
D19*
X45300000Y-72600000D02*
X45300000Y-71500000D01*
D18*
X74460000Y-73170000D02*
X72031996Y-75598004D01*
X53338004Y-75598004D02*
X52849004Y-75109004D01*
X72031996Y-75598004D02*
X53338004Y-75598004D01*
D19*
X47809004Y-75109004D02*
X45500000Y-72800000D01*
D18*
X67061189Y-68860499D02*
X67500690Y-69300000D01*
D19*
X45500000Y-72800000D02*
X45300000Y-72600000D01*
D18*
X66425499Y-68860499D02*
X67061189Y-68860499D01*
%TD*%
M02*
