%TF.GenerationSoftware,KiCad,Pcbnew,6.0.11*%
%TF.CreationDate,2025-01-17T14:03:23+01:00*%
%TF.ProjectId,MP6532_board_28-QFN,4d503635-3332-45f6-926f-6172645f3238,rev?*%
%TF.SameCoordinates,Original*%
%TF.FileFunction,Copper,L4,Bot*%
%TF.FilePolarity,Positive*%
%FSLAX46Y46*%
G04 Gerber Fmt 4.6, Leading zero omitted, Abs format (unit mm)*
G04 Created by KiCad (PCBNEW 6.0.11) date 2025-01-17 14:03:23*
%MOMM*%
%LPD*%
G01*
G04 APERTURE LIST*
G04 Aperture macros list*
%AMRotRect*
0 Rectangle, with rotation*
0 The origin of the aperture is its center*
0 $1 length*
0 $2 width*
0 $3 Rotation angle, in degrees counterclockwise*
0 Add horizontal line*
21,1,$1,$2,0,0,$3*%
G04 Aperture macros list end*
%TA.AperFunction,ComponentPad*%
%ADD10R,1.600000X1.600000*%
%TD*%
%TA.AperFunction,ComponentPad*%
%ADD11O,1.600000X1.600000*%
%TD*%
%TA.AperFunction,ComponentPad*%
%ADD12C,2.400000*%
%TD*%
%TA.AperFunction,ComponentPad*%
%ADD13C,1.440000*%
%TD*%
%TA.AperFunction,ComponentPad*%
%ADD14C,0.500000*%
%TD*%
%TA.AperFunction,SMDPad,CuDef*%
%ADD15RotRect,2.600000X2.600000X135.000000*%
%TD*%
%TA.AperFunction,ComponentPad*%
%ADD16R,1.700000X1.700000*%
%TD*%
%TA.AperFunction,ComponentPad*%
%ADD17O,1.700000X1.700000*%
%TD*%
%TA.AperFunction,ViaPad*%
%ADD18C,0.800000*%
%TD*%
%TA.AperFunction,Conductor*%
%ADD19C,2.000000*%
%TD*%
%TA.AperFunction,Conductor*%
%ADD20C,0.250000*%
%TD*%
G04 APERTURE END LIST*
D10*
%TO.P,U2,1,VREG*%
%TO.N,/VREG*%
X57912000Y-71120000D03*
D11*
%TO.P,U2,2,BSTA*%
%TO.N,/BSTA*%
X55372000Y-71120000D03*
%TO.P,U2,3,SHA*%
%TO.N,HAS*%
X57912000Y-68580000D03*
%TO.P,U2,4,GHA*%
%TO.N,/GHA*%
X55372000Y-68580000D03*
%TO.P,U2,5,GLA*%
%TO.N,/GLA*%
X57912000Y-66040000D03*
%TO.P,U2,6,BSTB*%
%TO.N,/BSTB*%
X55372000Y-66040000D03*
%TO.P,U2,7,SHB*%
%TO.N,HBS*%
X57912000Y-63500000D03*
%TO.P,U2,8,GHB*%
%TO.N,/GHB*%
X55372000Y-63500000D03*
%TO.P,U2,9,GLB*%
%TO.N,/GLB*%
X57912000Y-60960000D03*
%TO.P,U2,10,BSTC*%
%TO.N,/BSTC*%
X55372000Y-60960000D03*
%TO.P,U2,11,SHC*%
%TO.N,HCS*%
X57912000Y-58420000D03*
%TO.P,U2,12,GHC*%
%TO.N,/GHC*%
X55372000Y-58420000D03*
%TO.P,U2,13,GLC*%
%TO.N,/GLC*%
X57912000Y-55880000D03*
%TO.P,U2,14,LSS*%
%TO.N,LSS*%
X55372000Y-55880000D03*
%TO.P,U2,15,HC*%
%TO.N,Net-(C9-Pad1)*%
X42672000Y-55880000D03*
%TO.P,U2,16,HB*%
%TO.N,Net-(C8-Pad1)*%
X40132000Y-55880000D03*
%TO.P,U2,17,HA*%
%TO.N,Net-(C7-Pad1)*%
X42672000Y-58420000D03*
%TO.P,U2,18,nBRAKE*%
%TO.N,/nBRAKE*%
X40132000Y-58420000D03*
%TO.P,U2,19,PWM*%
%TO.N,/PWM*%
X42672000Y-60960000D03*
%TO.P,U2,20,DIR*%
%TO.N,/DIR*%
X40132000Y-60960000D03*
%TO.P,U2,21,nFAULT*%
%TO.N,/nFAULT*%
X42672000Y-63500000D03*
%TO.P,U2,22,nSLEEP*%
%TO.N,/nSLEEP*%
X40132000Y-63500000D03*
%TO.P,U2,23,OCREF*%
%TO.N,/OCREF*%
X42672000Y-66040000D03*
%TO.P,U2,24,DT*%
%TO.N,/DT*%
X40132000Y-66040000D03*
%TO.P,U2,25,GND*%
%TO.N,GND*%
X42672000Y-68580000D03*
%TO.P,U2,26,VIN*%
%TO.N,VIN*%
X40132000Y-68580000D03*
%TO.P,U2,27,CPA*%
%TO.N,/CPA*%
X42672000Y-71120000D03*
%TO.P,U2,28,CPB*%
%TO.N,/CPB*%
X40132000Y-71120000D03*
%TD*%
D12*
%TO.P,H2,1,1*%
%TO.N,LSS*%
X117860000Y-54560000D03*
%TD*%
D13*
%TO.P,RV1,1,1*%
%TO.N,GND*%
X55499000Y-48387000D03*
%TO.P,RV1,2,2*%
%TO.N,/OCREF*%
X52959000Y-45847000D03*
%TO.P,RV1,3,3*%
%TO.N,Net-(R7-Pad1)*%
X50419000Y-48387000D03*
%TD*%
D14*
%TO.P,U1,29,TPAD*%
%TO.N,GND*%
X49942462Y-62657538D03*
X49200000Y-63400000D03*
X49942462Y-64142462D03*
D15*
X49200000Y-63400000D03*
D14*
X50684924Y-63400000D03*
X48457538Y-62657538D03*
X49200000Y-64884924D03*
X49200000Y-61915076D03*
X48457538Y-64142462D03*
X47715076Y-63400000D03*
%TD*%
D12*
%TO.P,H5,1,1*%
%TO.N,GND*%
X113538000Y-71125000D03*
%TD*%
D16*
%TO.P,J1,1,Pin_1*%
%TO.N,/HA*%
X63560000Y-54500000D03*
D17*
%TO.P,J1,2,Pin_2*%
%TO.N,HAIN*%
X63560000Y-51960000D03*
%TO.P,J1,3,Pin_3*%
%TO.N,HBIN*%
X66100000Y-54500000D03*
%TO.P,J1,4,Pin_4*%
%TO.N,/HB*%
X66100000Y-51960000D03*
%TO.P,J1,5,Pin_5*%
%TO.N,/HC*%
X68640000Y-54500000D03*
%TO.P,J1,6,Pin_6*%
%TO.N,HCIN*%
X68640000Y-51960000D03*
%TO.P,J1,7,Pin_7*%
%TO.N,HAIN*%
X71180000Y-54500000D03*
%TO.P,J1,8,Pin_8*%
%TO.N,/HA*%
X71180000Y-51960000D03*
%TD*%
D12*
%TO.P,H1,1,1*%
%TO.N,LSS*%
X113970000Y-54570000D03*
%TD*%
D16*
%TO.P,J2,1,Pin_1*%
%TO.N,GND*%
X106235000Y-68030000D03*
D17*
%TO.P,J2,2,Pin_2*%
X106235000Y-70570000D03*
%TO.P,J2,3,Pin_3*%
X103695000Y-68030000D03*
%TO.P,J2,4,Pin_4*%
X103695000Y-70570000D03*
%TO.P,J2,5,Pin_5*%
%TO.N,Net-(J2-Pad5)*%
X101155000Y-68030000D03*
%TO.P,J2,6,Pin_6*%
%TO.N,GND*%
X101155000Y-70570000D03*
%TO.P,J2,7,Pin_7*%
%TO.N,HCS*%
X98615000Y-68030000D03*
%TO.P,J2,8,Pin_8*%
X98615000Y-70570000D03*
%TO.P,J2,9,Pin_9*%
X96075000Y-68030000D03*
%TO.P,J2,10,Pin_10*%
X96075000Y-70570000D03*
%TO.P,J2,11,Pin_11*%
%TO.N,HBS*%
X93535000Y-68030000D03*
%TO.P,J2,12,Pin_12*%
X93535000Y-70570000D03*
%TO.P,J2,13,Pin_13*%
X90995000Y-68030000D03*
%TO.P,J2,14,Pin_14*%
X90995000Y-70570000D03*
%TO.P,J2,15,Pin_15*%
%TO.N,VIN*%
X88455000Y-68030000D03*
%TO.P,J2,16,Pin_16*%
X88455000Y-70570000D03*
%TO.P,J2,17,Pin_17*%
X85915000Y-68030000D03*
%TO.P,J2,18,Pin_18*%
X85915000Y-70570000D03*
%TO.P,J2,19,Pin_19*%
X83375000Y-68030000D03*
%TO.P,J2,20,Pin_20*%
X83375000Y-70570000D03*
%TO.P,J2,21,Pin_21*%
%TO.N,HAS*%
X80835000Y-68030000D03*
%TO.P,J2,22,Pin_22*%
X80835000Y-70570000D03*
%TO.P,J2,23,Pin_23*%
X78295000Y-68030000D03*
%TO.P,J2,24,Pin_24*%
X78295000Y-70570000D03*
%TO.P,J2,25,Pin_25*%
%TO.N,GND*%
X75755000Y-68030000D03*
%TO.P,J2,26,Pin_26*%
X75755000Y-70570000D03*
%TO.P,J2,27,Pin_27*%
%TO.N,HCIN*%
X73215000Y-68030000D03*
%TO.P,J2,28,Pin_28*%
%TO.N,/nSLEEP*%
X73215000Y-70570000D03*
%TO.P,J2,29,Pin_29*%
%TO.N,HBIN*%
X70675000Y-68030000D03*
%TO.P,J2,30,Pin_30*%
%TO.N,/nFAULT*%
X70675000Y-70570000D03*
%TO.P,J2,31,Pin_31*%
%TO.N,HAIN*%
X68135000Y-68030000D03*
%TO.P,J2,32,Pin_32*%
%TO.N,/PWM*%
X68135000Y-70570000D03*
%TO.P,J2,33,Pin_33*%
%TO.N,/nBRAKE*%
X65595000Y-68030000D03*
%TO.P,J2,34,Pin_34*%
%TO.N,/DIR*%
X65595000Y-70570000D03*
%TO.P,J2,35,Pin_35*%
%TO.N,5V*%
X63055000Y-68030000D03*
%TO.P,J2,36,Pin_36*%
X63055000Y-70570000D03*
%TD*%
D12*
%TO.P,H6,1,1*%
%TO.N,GND*%
X117478000Y-71125000D03*
%TD*%
D18*
%TO.N,LSS*%
X115500000Y-65700000D03*
X115600000Y-64500000D03*
%TO.N,GND*%
X43770000Y-49000000D03*
%TO.N,/HC*%
X49780000Y-51140000D03*
%TO.N,HAS*%
X77547989Y-52147989D03*
X72710000Y-61410000D03*
X71460000Y-58980000D03*
X75008680Y-55958680D03*
X77470000Y-57150000D03*
X76200000Y-59690000D03*
X65533884Y-60203063D03*
X74930000Y-59690000D03*
X78740000Y-58420000D03*
X74930000Y-58420000D03*
X77470000Y-59690000D03*
X76200000Y-57150000D03*
X78740000Y-59690000D03*
X70178176Y-59382112D03*
X78740000Y-57150000D03*
X77470000Y-58420000D03*
X77470000Y-55880000D03*
X76200000Y-55880000D03*
X72690000Y-58340000D03*
X74340000Y-62110000D03*
X77470000Y-53340000D03*
X71190000Y-60430000D03*
X72390000Y-59690000D03*
X76200000Y-58420000D03*
X78740000Y-55880000D03*
X74930000Y-57150000D03*
%TO.N,GND*%
X121390000Y-62090000D03*
X121440000Y-55290000D03*
X72070000Y-65040000D03*
X121420000Y-65510000D03*
X39780000Y-51830000D03*
X121330000Y-68900000D03*
X64285000Y-64860002D03*
X121470000Y-58700000D03*
X123530000Y-68900000D03*
X45900000Y-74700000D03*
X123590000Y-51820000D03*
X123530000Y-65480000D03*
X123570000Y-58700000D03*
X123620000Y-62150000D03*
X123610000Y-55320000D03*
X121470000Y-51750000D03*
%TO.N,LSS*%
X115600000Y-60000000D03*
X109460000Y-65260000D03*
X94550000Y-63960000D03*
X115500000Y-57200000D03*
X79355000Y-64755000D03*
X113660000Y-66080000D03*
X114500000Y-61100000D03*
X114400000Y-63400000D03*
X113300000Y-57000000D03*
X94580000Y-64980000D03*
X114500000Y-58700000D03*
X115600000Y-62300000D03*
X79370000Y-63660000D03*
X112180000Y-66120000D03*
X109460000Y-64240000D03*
%TO.N,VIN*%
X97790000Y-44450000D03*
X92710000Y-48260000D03*
X109220000Y-48260000D03*
X106680000Y-44450000D03*
X126850000Y-63080000D03*
X120200000Y-49200000D03*
X91440000Y-45720000D03*
X76200000Y-46990000D03*
X91440000Y-48260000D03*
X93980000Y-44450000D03*
X77470000Y-48260000D03*
X93980000Y-48260000D03*
X114300000Y-44450000D03*
X78740000Y-44450000D03*
X90170000Y-45720000D03*
X126850000Y-54690000D03*
X107950000Y-45720000D03*
X126850000Y-66520000D03*
X93980000Y-45720000D03*
X106680000Y-45720000D03*
X122030000Y-44160000D03*
X123680000Y-49530000D03*
X126380000Y-49720000D03*
X90170000Y-48260000D03*
X122570000Y-49200000D03*
X86360000Y-44450000D03*
X121460000Y-45810000D03*
X90170000Y-46990000D03*
X121390000Y-49200000D03*
X74930000Y-44450000D03*
X74930000Y-45720000D03*
X78740000Y-45720000D03*
X82550000Y-44450000D03*
X107950000Y-44450000D03*
X111760000Y-44450000D03*
X126820000Y-59580000D03*
X91440000Y-46990000D03*
X74930000Y-48260000D03*
X76200000Y-48260000D03*
X109220000Y-46990000D03*
X74930000Y-46990000D03*
X113030000Y-44450000D03*
X125030000Y-49770000D03*
X105410000Y-44450000D03*
X93980000Y-46990000D03*
X101600000Y-44450000D03*
X78740000Y-46990000D03*
X77470000Y-46990000D03*
X126820000Y-55990000D03*
X126850000Y-69730000D03*
X126790000Y-58010000D03*
X126790000Y-52840000D03*
X126790000Y-61490000D03*
X99060000Y-44450000D03*
X91440000Y-44450000D03*
X83820000Y-44450000D03*
X85090000Y-44450000D03*
X121480000Y-47350000D03*
X105410000Y-48260000D03*
X92710000Y-44450000D03*
X105410000Y-46990000D03*
X92710000Y-46990000D03*
X78740000Y-48260000D03*
X100330000Y-44450000D03*
X106680000Y-48260000D03*
X126850000Y-51530000D03*
X109220000Y-44450000D03*
X77470000Y-45720000D03*
X105410000Y-45720000D03*
X126850000Y-68200000D03*
X106680000Y-46990000D03*
X92710000Y-45720000D03*
X109220000Y-45720000D03*
X77470000Y-44450000D03*
X76200000Y-44450000D03*
X90170000Y-44450000D03*
X107950000Y-46990000D03*
X76200000Y-45720000D03*
X115570000Y-44450000D03*
X107950000Y-48260000D03*
X126820000Y-64900000D03*
%TO.N,Net-(C4-Pad2)*%
X91260000Y-63890000D03*
X98620000Y-60490000D03*
%TO.N,HBS*%
X93980000Y-59690000D03*
X91440000Y-59690000D03*
X91440000Y-55880000D03*
X64840000Y-59340000D03*
X92710000Y-59690000D03*
X93980000Y-58420000D03*
X69024174Y-59614559D03*
X92710000Y-58420000D03*
X93980000Y-55880000D03*
X93980000Y-57150000D03*
X91440000Y-58420000D03*
X90170000Y-57150000D03*
X90170000Y-59690000D03*
X92710000Y-55880000D03*
X92710000Y-53984500D03*
X92710000Y-57150000D03*
X92710000Y-52070000D03*
X90170000Y-58420000D03*
X90170000Y-55880000D03*
X91440000Y-57150000D03*
%TO.N,HCS*%
X101600000Y-59690000D03*
X105410000Y-57150000D03*
X106680000Y-57150000D03*
X101600000Y-58420000D03*
X105410000Y-55880000D03*
X109220000Y-58420000D03*
X109220000Y-55880000D03*
X68291799Y-58934388D03*
X107950000Y-53340000D03*
X102870000Y-59690000D03*
X105410000Y-59690000D03*
X107950000Y-57150000D03*
X101600000Y-57150000D03*
X109220000Y-59690000D03*
X109220000Y-57150000D03*
X106680000Y-58420000D03*
X107950000Y-52070000D03*
X107950000Y-55880000D03*
X102870000Y-55880000D03*
X102870000Y-58420000D03*
X106680000Y-59690000D03*
X107950000Y-59690000D03*
X107950000Y-58420000D03*
X106680000Y-55880000D03*
X102870000Y-57150000D03*
X64600000Y-58300000D03*
X105410000Y-58420000D03*
%TO.N,Net-(C6-Pad2)*%
X118067500Y-50150000D03*
X106060000Y-64660000D03*
%TO.N,Net-(D7-Pad2)*%
X61260000Y-43120000D03*
X61025000Y-48315000D03*
%TO.N,/GHA*%
X83439000Y-47244000D03*
%TO.N,/GLA*%
X69520000Y-62010500D03*
X81788000Y-57912000D03*
X66757477Y-61028667D03*
%TO.N,/GHB*%
X98425000Y-47371000D03*
X67573089Y-56554500D03*
X70300000Y-56500000D03*
%TO.N,/GLB*%
X64780000Y-60960000D03*
X68460000Y-62010500D03*
X97282000Y-58166000D03*
%TO.N,/GHC*%
X113665000Y-47371000D03*
X64919001Y-56378586D03*
X69301665Y-57499855D03*
%TO.N,/GLC*%
X68325214Y-57876374D03*
X60970000Y-54980000D03*
X118491000Y-46228000D03*
%TO.N,/HA*%
X47310000Y-53260000D03*
%TO.N,/HB*%
X47260000Y-50080000D03*
%TO.N,/HC*%
X47280000Y-51750000D03*
%TO.N,/nFAULT*%
X59410000Y-45980000D03*
X38867700Y-49677700D03*
%TO.N,/DT*%
X38400000Y-71440000D03*
%TO.N,5V*%
X59370000Y-53310000D03*
%TO.N,Net-(C7-Pad1)*%
X43940000Y-55020000D03*
%TD*%
D19*
%TO.N,GND*%
X101155000Y-70570000D02*
X101155000Y-73402081D01*
X77216000Y-74803000D02*
X75819000Y-73406000D01*
X101155000Y-73402081D02*
X99754081Y-74803000D01*
X99754081Y-74803000D02*
X77216000Y-74803000D01*
X75819000Y-73406000D02*
X75819000Y-72136000D01*
X49250000Y-69600000D02*
X49250000Y-57950000D01*
X52500000Y-54700000D02*
X52500000Y-51386000D01*
X49250000Y-57950000D02*
X52500000Y-54700000D01*
X52500000Y-51386000D02*
X55499000Y-48387000D01*
X51580000Y-74550000D02*
X49250000Y-72220000D01*
X47690000Y-68580000D02*
X42672000Y-68580000D01*
X49250000Y-69600000D02*
X49250000Y-69440000D01*
X75819000Y-72136000D02*
X75819000Y-68094000D01*
X75819000Y-73338081D02*
X74607081Y-74550000D01*
X49250000Y-69440000D02*
X48040000Y-68230000D01*
X75819000Y-72136000D02*
X75819000Y-73338081D01*
X75819000Y-68094000D02*
X75755000Y-68030000D01*
X48040000Y-68230000D02*
X47690000Y-68580000D01*
X74607081Y-74550000D02*
X51580000Y-74550000D01*
X49250000Y-72220000D02*
X49250000Y-69600000D01*
D20*
%TO.N,/DT*%
X40132000Y-66040000D02*
X38700000Y-67472000D01*
X38700000Y-67472000D02*
X38700000Y-71140000D01*
X38700000Y-71140000D02*
X38400000Y-71440000D01*
%TD*%
%TA.AperFunction,Conductor*%
%TO.N,GND*%
G36*
X122970242Y-50524460D02*
G01*
X123009736Y-50527871D01*
X123148475Y-50539855D01*
X123172946Y-50544438D01*
X123338645Y-50592828D01*
X123361743Y-50602137D01*
X123520244Y-50685078D01*
X123530990Y-50691398D01*
X123598311Y-50735609D01*
X123611080Y-50745206D01*
X123731353Y-50848155D01*
X123752760Y-50871790D01*
X123838722Y-50995021D01*
X123853509Y-51023270D01*
X123905784Y-51164131D01*
X123913006Y-51195188D01*
X123929065Y-51352688D01*
X123929675Y-51368650D01*
X123785095Y-57090947D01*
X123415082Y-71735620D01*
X123414120Y-71748297D01*
X123391159Y-71929263D01*
X123385440Y-71954004D01*
X123326664Y-72126678D01*
X123321969Y-72138485D01*
X123052959Y-72726553D01*
X123031813Y-72772781D01*
X122706239Y-73484500D01*
X122701152Y-73494429D01*
X122621751Y-73633830D01*
X122609027Y-73652173D01*
X122509865Y-73771053D01*
X122494098Y-73786865D01*
X122375513Y-73886370D01*
X122357203Y-73899152D01*
X122218039Y-73978957D01*
X122208112Y-73984078D01*
X121590869Y-74268617D01*
X120786655Y-74639345D01*
X120774551Y-74644182D01*
X120597522Y-74704513D01*
X120572142Y-74710321D01*
X120494683Y-74719774D01*
X120386499Y-74732976D01*
X120373496Y-74733884D01*
X118767889Y-74762688D01*
X102848318Y-75048276D01*
X102834270Y-75047742D01*
X102722506Y-75037226D01*
X102633303Y-75028833D01*
X102605794Y-75023097D01*
X102420764Y-74962332D01*
X102395209Y-74950641D01*
X102228242Y-74850373D01*
X102205913Y-74833308D01*
X102077627Y-74710321D01*
X102060209Y-74693623D01*
X102050612Y-74683334D01*
X100492280Y-72813335D01*
X100490163Y-72810725D01*
X100460221Y-72772781D01*
X100456197Y-72767392D01*
X100428335Y-72727922D01*
X100426434Y-72725150D01*
X100333443Y-72585664D01*
X100327090Y-72575038D01*
X100266257Y-72460907D01*
X100256821Y-72438043D01*
X100221259Y-72320200D01*
X100216472Y-72295936D01*
X100204014Y-72167219D01*
X100203428Y-72154851D01*
X100203458Y-72138492D01*
X100203817Y-71941921D01*
X100208480Y-69383757D01*
X100208688Y-69269876D01*
X100228814Y-69201792D01*
X100282555Y-69155397D01*
X100352847Y-69145421D01*
X100398258Y-69161318D01*
X100566000Y-69259338D01*
X100774692Y-69339030D01*
X100779760Y-69340061D01*
X100779763Y-69340062D01*
X100887017Y-69361883D01*
X100993597Y-69383567D01*
X100998772Y-69383757D01*
X100998774Y-69383757D01*
X101211673Y-69391564D01*
X101211677Y-69391564D01*
X101216837Y-69391753D01*
X101221957Y-69391097D01*
X101221959Y-69391097D01*
X101433288Y-69364025D01*
X101433289Y-69364025D01*
X101438416Y-69363368D01*
X101443366Y-69361883D01*
X101647429Y-69300661D01*
X101647434Y-69300659D01*
X101652384Y-69299174D01*
X101852994Y-69200896D01*
X102034860Y-69071173D01*
X102193096Y-68913489D01*
X102323453Y-68732077D01*
X102422430Y-68531811D01*
X102487370Y-68318069D01*
X102516529Y-68096590D01*
X102518156Y-68030000D01*
X102499852Y-67807361D01*
X102445431Y-67590702D01*
X102356354Y-67385840D01*
X102357873Y-67385180D01*
X102344821Y-67322898D01*
X102370139Y-67256569D01*
X102427298Y-67214458D01*
X102470012Y-67206847D01*
X106389790Y-67193975D01*
X106918590Y-67192238D01*
X106931306Y-67192839D01*
X107029468Y-67202469D01*
X107107698Y-67210144D01*
X107132625Y-67215168D01*
X107295829Y-67265646D01*
X107319238Y-67275571D01*
X107468983Y-67357791D01*
X107489918Y-67372212D01*
X107620108Y-67482826D01*
X107637725Y-67501160D01*
X107743048Y-67635655D01*
X107756625Y-67657153D01*
X107838500Y-67821500D01*
X108077000Y-68453000D01*
X108752024Y-68449664D01*
X108752028Y-68449664D01*
X111291427Y-68437112D01*
X115117426Y-68418202D01*
X118800000Y-68400000D01*
X118849754Y-67275572D01*
X119269321Y-57793339D01*
X119270513Y-57780750D01*
X119296663Y-57601196D01*
X119302790Y-57576696D01*
X119362072Y-57411958D01*
X119372962Y-57389170D01*
X119463912Y-57239562D01*
X119479131Y-57219402D01*
X119598091Y-57090947D01*
X119617024Y-57074228D01*
X119759223Y-56972074D01*
X119781104Y-56959472D01*
X119946628Y-56885126D01*
X119958397Y-56880535D01*
X120081255Y-56839582D01*
X120800000Y-56600000D01*
X121011023Y-51516765D01*
X121012314Y-51503269D01*
X121039418Y-51322933D01*
X121046299Y-51296737D01*
X121108881Y-51132742D01*
X121121201Y-51108623D01*
X121217385Y-50961789D01*
X121234573Y-50940862D01*
X121364796Y-50813192D01*
X121374967Y-50804241D01*
X121437856Y-50754640D01*
X121449075Y-50746744D01*
X121616317Y-50642207D01*
X121641042Y-50630280D01*
X121820407Y-50566769D01*
X121847131Y-50560479D01*
X122042868Y-50536483D01*
X122056585Y-50535557D01*
X122914940Y-50524552D01*
X122957785Y-50524003D01*
X122970242Y-50524460D01*
G37*
%TD.AperFunction*%
%TD*%
%TA.AperFunction,Conductor*%
%TO.N,LSS*%
G36*
X119940703Y-51150448D02*
G01*
X119987540Y-51203803D01*
X119999099Y-51262164D01*
X119964145Y-52898017D01*
X119924652Y-54746308D01*
X119913364Y-55274584D01*
X119912577Y-55286204D01*
X119893589Y-55452285D01*
X119888823Y-55475059D01*
X119841346Y-55629215D01*
X119832474Y-55650725D01*
X119757464Y-55793518D01*
X119744787Y-55813031D01*
X119644792Y-55939603D01*
X119628744Y-55956450D01*
X119507182Y-56062476D01*
X119488326Y-56076075D01*
X119344279Y-56160922D01*
X119333989Y-56166358D01*
X118776897Y-56428519D01*
X118200000Y-56700000D01*
X118200000Y-66589836D01*
X118199390Y-66602217D01*
X118181911Y-66779234D01*
X118177068Y-66803518D01*
X118127122Y-66967729D01*
X118117624Y-66990597D01*
X118036523Y-67141876D01*
X118022735Y-67162444D01*
X117913618Y-67294937D01*
X117896073Y-67312413D01*
X117763147Y-67421008D01*
X117742525Y-67434714D01*
X117590929Y-67515215D01*
X117568023Y-67524623D01*
X117403615Y-67573919D01*
X117379312Y-67578666D01*
X117202227Y-67595445D01*
X117189844Y-67596006D01*
X110856487Y-67570971D01*
X110842185Y-67570100D01*
X110680512Y-67550978D01*
X110652668Y-67544414D01*
X110506274Y-67491760D01*
X110480625Y-67479083D01*
X110349880Y-67394758D01*
X110327762Y-67376629D01*
X110219406Y-67264980D01*
X110201942Y-67242321D01*
X110121572Y-67109115D01*
X110109669Y-67083100D01*
X110061420Y-66935198D01*
X110055692Y-66907168D01*
X110042052Y-66752190D01*
X110042795Y-66723591D01*
X110064467Y-66569531D01*
X110071643Y-66541836D01*
X110127511Y-66396637D01*
X110140750Y-66371275D01*
X110231980Y-66236442D01*
X110240671Y-66225051D01*
X111120807Y-65198225D01*
X111379000Y-64897000D01*
X111265883Y-62182193D01*
X111266029Y-62168940D01*
X111278133Y-61979070D01*
X111282587Y-61952961D01*
X111332308Y-61776239D01*
X111342122Y-61751637D01*
X111430796Y-61583314D01*
X111437586Y-61571922D01*
X111511514Y-61461548D01*
X111513213Y-61459012D01*
X111513215Y-61459009D01*
X111680000Y-61210000D01*
X111714394Y-56794094D01*
X111730343Y-54746308D01*
X111730556Y-54739895D01*
X111735966Y-54647862D01*
X111737370Y-54635109D01*
X111752111Y-54544106D01*
X111753298Y-54537801D01*
X112105168Y-52899075D01*
X112105170Y-52899065D01*
X112105395Y-52898017D01*
X112120000Y-52830000D01*
X112179513Y-52011699D01*
X112181198Y-51998387D01*
X112211532Y-51830881D01*
X112219085Y-51805165D01*
X112281582Y-51654100D01*
X112294403Y-51630566D01*
X112387430Y-51496143D01*
X112404939Y-51475851D01*
X112524301Y-51364136D01*
X112545700Y-51348012D01*
X112685984Y-51264073D01*
X112710315Y-51252836D01*
X112865178Y-51200466D01*
X112891335Y-51194629D01*
X113060492Y-51175434D01*
X113073888Y-51174634D01*
X119872455Y-51130885D01*
X119940703Y-51150448D01*
G37*
%TD.AperFunction*%
%TD*%
%TA.AperFunction,Conductor*%
%TO.N,VIN*%
G36*
X99040965Y-42906418D02*
G01*
X125257423Y-43018493D01*
X125271363Y-43019327D01*
X125470382Y-43042354D01*
X125497558Y-43048605D01*
X125644371Y-43100045D01*
X125679992Y-43112526D01*
X125705133Y-43124607D01*
X125875004Y-43230834D01*
X125886418Y-43238884D01*
X127126839Y-44221117D01*
X127425753Y-44457813D01*
X127470463Y-44493217D01*
X127480249Y-44501826D01*
X127614070Y-44632432D01*
X127630722Y-44652442D01*
X127731194Y-44802311D01*
X127743378Y-44825315D01*
X127798874Y-44962814D01*
X127810908Y-44992631D01*
X127818104Y-45017645D01*
X127850963Y-45201725D01*
X127852586Y-45214652D01*
X128113059Y-48768822D01*
X128127006Y-48959137D01*
X128127164Y-48961635D01*
X128129079Y-48997537D01*
X128129246Y-49002535D01*
X128129734Y-49038433D01*
X128129744Y-49040933D01*
X128052869Y-61341000D01*
X128002061Y-69470269D01*
X128001083Y-69626677D01*
X128000581Y-69637153D01*
X127987122Y-69787116D01*
X127983519Y-69807762D01*
X127945388Y-69953422D01*
X127942312Y-69963448D01*
X127636348Y-70830348D01*
X127631449Y-70842252D01*
X127552539Y-71009219D01*
X127539240Y-71031220D01*
X127483061Y-71105755D01*
X127431978Y-71173527D01*
X127414489Y-71192371D01*
X127280578Y-71309940D01*
X127259632Y-71324841D01*
X127125964Y-71400684D01*
X127104635Y-71412786D01*
X127081099Y-71423124D01*
X126916976Y-71476006D01*
X126911486Y-71477775D01*
X126886339Y-71483122D01*
X126702720Y-71502900D01*
X126689873Y-71503623D01*
X126430067Y-71504948D01*
X125692349Y-71508712D01*
X125677257Y-71507883D01*
X125461967Y-71483031D01*
X125432622Y-71476006D01*
X125229423Y-71400684D01*
X125215591Y-71394590D01*
X125211212Y-71392338D01*
X125097600Y-71333909D01*
X125083000Y-71325102D01*
X124959413Y-71238619D01*
X124934410Y-71215506D01*
X124843987Y-71105747D01*
X124826088Y-71076782D01*
X124768369Y-70946826D01*
X124758878Y-70914119D01*
X124736808Y-70764912D01*
X124735460Y-70747897D01*
X124726549Y-69958496D01*
X124724733Y-69797589D01*
X124500000Y-49890000D01*
X123509103Y-49892129D01*
X123509100Y-49892129D01*
X120819210Y-49897909D01*
X119033905Y-49901745D01*
X118965741Y-49881889D01*
X118919133Y-49828333D01*
X118913801Y-49814681D01*
X118904069Y-49784729D01*
X118902027Y-49778444D01*
X118806540Y-49613056D01*
X118678753Y-49471134D01*
X118524252Y-49358882D01*
X118518224Y-49356198D01*
X118518222Y-49356197D01*
X118355819Y-49283891D01*
X118355818Y-49283891D01*
X118349788Y-49281206D01*
X118239879Y-49257844D01*
X118169444Y-49242872D01*
X118169439Y-49242872D01*
X118162987Y-49241500D01*
X117972013Y-49241500D01*
X117965561Y-49242872D01*
X117965556Y-49242872D01*
X117895121Y-49257844D01*
X117785212Y-49281206D01*
X117779182Y-49283891D01*
X117779181Y-49283891D01*
X117616778Y-49356197D01*
X117616776Y-49356198D01*
X117610748Y-49358882D01*
X117456247Y-49471134D01*
X117328460Y-49613056D01*
X117232973Y-49778444D01*
X117230933Y-49784723D01*
X117219848Y-49818838D01*
X117179773Y-49877443D01*
X117114376Y-49905079D01*
X117100286Y-49905900D01*
X113257022Y-49914159D01*
X112029162Y-49916797D01*
X112028179Y-49916795D01*
X112013523Y-49916709D01*
X112011550Y-49916681D01*
X112003478Y-49916503D01*
X111997012Y-49916360D01*
X111996002Y-49916334D01*
X107692944Y-49786846D01*
X103383949Y-49657179D01*
X103383943Y-49657179D01*
X103378000Y-49657000D01*
X96393000Y-49530000D01*
X89281000Y-49657000D01*
X88265000Y-54737000D01*
X88138000Y-61341000D01*
X88155641Y-61438686D01*
X88155641Y-61438688D01*
X88155917Y-61440218D01*
X88155919Y-61440229D01*
X89350420Y-68054814D01*
X89351578Y-68062616D01*
X89364696Y-68175138D01*
X89365539Y-68190884D01*
X89364500Y-68304174D01*
X89364181Y-68312054D01*
X89281000Y-69469000D01*
X89281328Y-69509587D01*
X89281328Y-69509596D01*
X89292099Y-70842252D01*
X89294121Y-71092488D01*
X89296327Y-71365427D01*
X89296440Y-71379455D01*
X89295884Y-71392336D01*
X89293950Y-71412786D01*
X89278461Y-71576535D01*
X89273427Y-71601795D01*
X89230336Y-71741551D01*
X89220826Y-71772393D01*
X89210761Y-71796103D01*
X89124562Y-71952448D01*
X89109886Y-71973614D01*
X88989476Y-72114088D01*
X88980594Y-72123436D01*
X88874935Y-72223812D01*
X88796332Y-72298484D01*
X88787206Y-72306359D01*
X88650972Y-72412979D01*
X88630676Y-72425940D01*
X88482044Y-72501935D01*
X88459653Y-72510799D01*
X88388881Y-72531244D01*
X88299284Y-72557127D01*
X88275616Y-72561569D01*
X88103323Y-72577085D01*
X88091279Y-72577591D01*
X85719272Y-72563611D01*
X83721089Y-72551834D01*
X83708696Y-72551148D01*
X83614163Y-72541230D01*
X83531388Y-72532545D01*
X83507080Y-72527537D01*
X83342826Y-72476398D01*
X83319973Y-72466723D01*
X83163443Y-72381391D01*
X83152845Y-72374916D01*
X82930912Y-72223812D01*
X82920796Y-72216151D01*
X82781352Y-72099052D01*
X82763682Y-72080886D01*
X82654462Y-71943241D01*
X82640787Y-71921906D01*
X82561335Y-71765198D01*
X82552205Y-71741551D01*
X82505725Y-71572105D01*
X82501512Y-71547110D01*
X82498581Y-71502900D01*
X82489466Y-71365418D01*
X82489265Y-71352749D01*
X82490451Y-71318467D01*
X82543393Y-69787116D01*
X82549396Y-69613480D01*
X82549398Y-69613419D01*
X82550000Y-69596000D01*
X82550000Y-66929000D01*
X81367813Y-64328188D01*
X81363121Y-64316298D01*
X81304538Y-64142513D01*
X81298875Y-64117618D01*
X81276526Y-63935582D01*
X81275614Y-63922832D01*
X81170286Y-58828068D01*
X81188876Y-58759549D01*
X81241559Y-58711957D01*
X81311609Y-58700403D01*
X81347506Y-58710356D01*
X81505712Y-58780794D01*
X81599113Y-58800647D01*
X81686056Y-58819128D01*
X81686061Y-58819128D01*
X81692513Y-58820500D01*
X81883487Y-58820500D01*
X81889939Y-58819128D01*
X81889944Y-58819128D01*
X81976887Y-58800647D01*
X82070288Y-58780794D01*
X82076319Y-58778109D01*
X82238722Y-58705803D01*
X82238724Y-58705802D01*
X82244752Y-58703118D01*
X82399253Y-58590866D01*
X82403675Y-58585955D01*
X82522621Y-58453852D01*
X82522622Y-58453851D01*
X82527040Y-58448944D01*
X82622527Y-58283556D01*
X82681542Y-58101928D01*
X82685025Y-58068794D01*
X82700814Y-57918565D01*
X82701504Y-57912000D01*
X82681542Y-57722072D01*
X82622527Y-57540444D01*
X82527040Y-57375056D01*
X82399253Y-57233134D01*
X82244752Y-57120882D01*
X82238724Y-57118198D01*
X82238722Y-57118197D01*
X82076319Y-57045891D01*
X82076318Y-57045891D01*
X82070288Y-57043206D01*
X81976887Y-57023353D01*
X81889944Y-57004872D01*
X81889939Y-57004872D01*
X81883487Y-57003500D01*
X81692513Y-57003500D01*
X81686061Y-57004872D01*
X81686056Y-57004872D01*
X81599113Y-57023353D01*
X81505712Y-57043206D01*
X81331248Y-57120882D01*
X81325901Y-57124767D01*
X81321893Y-57127081D01*
X81252898Y-57143820D01*
X81185805Y-57120601D01*
X81141917Y-57064795D01*
X81132918Y-57020571D01*
X81018824Y-51501792D01*
X81018797Y-51498937D01*
X81018879Y-51457817D01*
X81019021Y-51452098D01*
X81020965Y-51411114D01*
X81021132Y-51408259D01*
X81085202Y-50495694D01*
X81085202Y-50495691D01*
X81085428Y-50492473D01*
X81085428Y-50492468D01*
X81153000Y-49530000D01*
X75137017Y-49530000D01*
X75124962Y-49529422D01*
X74952565Y-49512852D01*
X74928898Y-49508260D01*
X74768633Y-49460880D01*
X74746273Y-49451864D01*
X74597965Y-49374825D01*
X74577738Y-49361720D01*
X74446817Y-49257844D01*
X74429452Y-49241122D01*
X74320712Y-49114209D01*
X74306849Y-49094485D01*
X74224273Y-48949189D01*
X74214421Y-48927185D01*
X74161031Y-48768822D01*
X74155550Y-48745345D01*
X74132491Y-48573695D01*
X74131459Y-48561670D01*
X74128491Y-48483004D01*
X74081736Y-47244000D01*
X82525496Y-47244000D01*
X82545458Y-47433928D01*
X82604473Y-47615556D01*
X82699960Y-47780944D01*
X82704378Y-47785851D01*
X82704379Y-47785852D01*
X82738255Y-47823475D01*
X82827747Y-47922866D01*
X82982248Y-48035118D01*
X82988276Y-48037802D01*
X82988278Y-48037803D01*
X83024094Y-48053749D01*
X83156712Y-48112794D01*
X83250112Y-48132647D01*
X83337056Y-48151128D01*
X83337061Y-48151128D01*
X83343513Y-48152500D01*
X83534487Y-48152500D01*
X83540939Y-48151128D01*
X83540944Y-48151128D01*
X83627888Y-48132647D01*
X83721288Y-48112794D01*
X83853906Y-48053749D01*
X83889722Y-48037803D01*
X83889724Y-48037802D01*
X83895752Y-48035118D01*
X84050253Y-47922866D01*
X84139745Y-47823475D01*
X84173621Y-47785852D01*
X84173622Y-47785851D01*
X84178040Y-47780944D01*
X84273527Y-47615556D01*
X84332542Y-47433928D01*
X84339156Y-47371000D01*
X97511496Y-47371000D01*
X97531458Y-47560928D01*
X97590473Y-47742556D01*
X97685960Y-47907944D01*
X97690378Y-47912851D01*
X97690379Y-47912852D01*
X97787689Y-48020926D01*
X97813747Y-48049866D01*
X97896664Y-48110109D01*
X97953122Y-48151128D01*
X97968248Y-48162118D01*
X97974276Y-48164802D01*
X97974278Y-48164803D01*
X98136681Y-48237109D01*
X98142712Y-48239794D01*
X98236113Y-48259647D01*
X98323056Y-48278128D01*
X98323061Y-48278128D01*
X98329513Y-48279500D01*
X98520487Y-48279500D01*
X98526939Y-48278128D01*
X98526944Y-48278128D01*
X98613887Y-48259647D01*
X98707288Y-48239794D01*
X98713319Y-48237109D01*
X98875722Y-48164803D01*
X98875724Y-48164802D01*
X98881752Y-48162118D01*
X98896879Y-48151128D01*
X98953336Y-48110109D01*
X99036253Y-48049866D01*
X99062311Y-48020926D01*
X99159621Y-47912852D01*
X99159622Y-47912851D01*
X99164040Y-47907944D01*
X99259527Y-47742556D01*
X99318542Y-47560928D01*
X99338504Y-47371000D01*
X112751496Y-47371000D01*
X112771458Y-47560928D01*
X112830473Y-47742556D01*
X112925960Y-47907944D01*
X112930378Y-47912851D01*
X112930379Y-47912852D01*
X113027689Y-48020926D01*
X113053747Y-48049866D01*
X113136664Y-48110109D01*
X113193122Y-48151128D01*
X113208248Y-48162118D01*
X113214276Y-48164802D01*
X113214278Y-48164803D01*
X113376681Y-48237109D01*
X113382712Y-48239794D01*
X113476113Y-48259647D01*
X113563056Y-48278128D01*
X113563061Y-48278128D01*
X113569513Y-48279500D01*
X113760487Y-48279500D01*
X113766939Y-48278128D01*
X113766944Y-48278128D01*
X113853887Y-48259647D01*
X113947288Y-48239794D01*
X113953319Y-48237109D01*
X114115722Y-48164803D01*
X114115724Y-48164802D01*
X114121752Y-48162118D01*
X114136879Y-48151128D01*
X114193336Y-48110109D01*
X114276253Y-48049866D01*
X114302311Y-48020926D01*
X114399621Y-47912852D01*
X114399622Y-47912851D01*
X114404040Y-47907944D01*
X114499527Y-47742556D01*
X114558542Y-47560928D01*
X114578504Y-47371000D01*
X114558542Y-47181072D01*
X114499527Y-46999444D01*
X114404040Y-46834056D01*
X114376508Y-46803478D01*
X114280675Y-46697045D01*
X114280674Y-46697044D01*
X114276253Y-46692134D01*
X114148831Y-46599556D01*
X114127094Y-46583763D01*
X114127093Y-46583762D01*
X114121752Y-46579882D01*
X114115724Y-46577198D01*
X114115722Y-46577197D01*
X113953319Y-46504891D01*
X113953318Y-46504891D01*
X113947288Y-46502206D01*
X113853888Y-46482353D01*
X113766944Y-46463872D01*
X113766939Y-46463872D01*
X113760487Y-46462500D01*
X113569513Y-46462500D01*
X113563061Y-46463872D01*
X113563056Y-46463872D01*
X113476112Y-46482353D01*
X113382712Y-46502206D01*
X113376682Y-46504891D01*
X113376681Y-46504891D01*
X113214278Y-46577197D01*
X113214276Y-46577198D01*
X113208248Y-46579882D01*
X113202907Y-46583762D01*
X113202906Y-46583763D01*
X113181169Y-46599556D01*
X113053747Y-46692134D01*
X113049326Y-46697044D01*
X113049325Y-46697045D01*
X112953493Y-46803478D01*
X112925960Y-46834056D01*
X112830473Y-46999444D01*
X112771458Y-47181072D01*
X112751496Y-47371000D01*
X99338504Y-47371000D01*
X99318542Y-47181072D01*
X99259527Y-46999444D01*
X99164040Y-46834056D01*
X99136508Y-46803478D01*
X99040675Y-46697045D01*
X99040674Y-46697044D01*
X99036253Y-46692134D01*
X98908831Y-46599556D01*
X98887094Y-46583763D01*
X98887093Y-46583762D01*
X98881752Y-46579882D01*
X98875724Y-46577198D01*
X98875722Y-46577197D01*
X98713319Y-46504891D01*
X98713318Y-46504891D01*
X98707288Y-46502206D01*
X98613888Y-46482353D01*
X98526944Y-46463872D01*
X98526939Y-46463872D01*
X98520487Y-46462500D01*
X98329513Y-46462500D01*
X98323061Y-46463872D01*
X98323056Y-46463872D01*
X98236112Y-46482353D01*
X98142712Y-46502206D01*
X98136682Y-46504891D01*
X98136681Y-46504891D01*
X97974278Y-46577197D01*
X97974276Y-46577198D01*
X97968248Y-46579882D01*
X97962907Y-46583762D01*
X97962906Y-46583763D01*
X97941169Y-46599556D01*
X97813747Y-46692134D01*
X97809326Y-46697044D01*
X97809325Y-46697045D01*
X97713493Y-46803478D01*
X97685960Y-46834056D01*
X97590473Y-46999444D01*
X97531458Y-47181072D01*
X97511496Y-47371000D01*
X84339156Y-47371000D01*
X84352504Y-47244000D01*
X84345230Y-47174794D01*
X84333232Y-47060635D01*
X84333232Y-47060633D01*
X84332542Y-47054072D01*
X84273527Y-46872444D01*
X84178040Y-46707056D01*
X84050253Y-46565134D01*
X83951157Y-46493136D01*
X83901094Y-46456763D01*
X83901093Y-46456762D01*
X83895752Y-46452882D01*
X83889724Y-46450198D01*
X83889722Y-46450197D01*
X83727319Y-46377891D01*
X83727318Y-46377891D01*
X83721288Y-46375206D01*
X83627887Y-46355353D01*
X83540944Y-46336872D01*
X83540939Y-46336872D01*
X83534487Y-46335500D01*
X83343513Y-46335500D01*
X83337061Y-46336872D01*
X83337056Y-46336872D01*
X83250113Y-46355353D01*
X83156712Y-46375206D01*
X83150682Y-46377891D01*
X83150681Y-46377891D01*
X82988278Y-46450197D01*
X82988276Y-46450198D01*
X82982248Y-46452882D01*
X82976907Y-46456762D01*
X82976906Y-46456763D01*
X82926843Y-46493136D01*
X82827747Y-46565134D01*
X82699960Y-46707056D01*
X82604473Y-46872444D01*
X82545458Y-47054072D01*
X82544768Y-47060633D01*
X82544768Y-47060635D01*
X82532770Y-47174794D01*
X82525496Y-47244000D01*
X74081736Y-47244000D01*
X74073103Y-47015237D01*
X74043396Y-46228000D01*
X117577496Y-46228000D01*
X117578186Y-46234565D01*
X117592824Y-46373834D01*
X117597458Y-46417928D01*
X117656473Y-46599556D01*
X117751960Y-46764944D01*
X117756378Y-46769851D01*
X117756379Y-46769852D01*
X117814189Y-46834056D01*
X117879747Y-46906866D01*
X117978843Y-46978864D01*
X118015820Y-47005729D01*
X118034248Y-47019118D01*
X118040276Y-47021802D01*
X118040278Y-47021803D01*
X118182303Y-47085036D01*
X118208712Y-47096794D01*
X118302112Y-47116647D01*
X118389056Y-47135128D01*
X118389061Y-47135128D01*
X118395513Y-47136500D01*
X118586487Y-47136500D01*
X118592939Y-47135128D01*
X118592944Y-47135128D01*
X118679888Y-47116647D01*
X118773288Y-47096794D01*
X118799697Y-47085036D01*
X118941722Y-47021803D01*
X118941724Y-47021802D01*
X118947752Y-47019118D01*
X118966181Y-47005729D01*
X119003157Y-46978864D01*
X119102253Y-46906866D01*
X119167811Y-46834056D01*
X119225621Y-46769852D01*
X119225622Y-46769851D01*
X119230040Y-46764944D01*
X119325527Y-46599556D01*
X119350498Y-46522703D01*
X123060743Y-46522703D01*
X123098268Y-46807734D01*
X123174129Y-47085036D01*
X123175813Y-47088984D01*
X123244734Y-47250565D01*
X123286923Y-47349476D01*
X123298693Y-47369142D01*
X123417232Y-47567206D01*
X123434561Y-47596161D01*
X123614313Y-47820528D01*
X123822851Y-48018423D01*
X123950445Y-48110109D01*
X124026560Y-48164803D01*
X124056317Y-48186186D01*
X124060112Y-48188195D01*
X124060113Y-48188196D01*
X124081869Y-48199715D01*
X124310392Y-48320712D01*
X124580373Y-48419511D01*
X124861264Y-48480755D01*
X124889841Y-48483004D01*
X125084282Y-48498307D01*
X125084291Y-48498307D01*
X125086739Y-48498500D01*
X125242271Y-48498500D01*
X125244407Y-48498354D01*
X125244418Y-48498354D01*
X125452548Y-48484165D01*
X125452554Y-48484164D01*
X125456825Y-48483873D01*
X125461020Y-48483004D01*
X125461022Y-48483004D01*
X125597584Y-48454723D01*
X125738342Y-48425574D01*
X126009343Y-48329607D01*
X126264812Y-48197750D01*
X126268313Y-48195289D01*
X126268317Y-48195287D01*
X126389513Y-48110109D01*
X126500023Y-48032441D01*
X126617940Y-47922866D01*
X126707479Y-47839661D01*
X126707481Y-47839658D01*
X126710622Y-47836740D01*
X126892713Y-47614268D01*
X127042927Y-47369142D01*
X127097861Y-47244000D01*
X127156757Y-47109830D01*
X127158483Y-47105898D01*
X127237244Y-46829406D01*
X127274855Y-46565134D01*
X127277146Y-46549036D01*
X127277146Y-46549034D01*
X127277751Y-46544784D01*
X127277845Y-46526951D01*
X127279235Y-46261583D01*
X127279235Y-46261576D01*
X127279257Y-46257297D01*
X127241732Y-45972266D01*
X127165871Y-45694964D01*
X127102013Y-45545251D01*
X127054763Y-45434476D01*
X127054761Y-45434472D01*
X127053077Y-45430524D01*
X126905439Y-45183839D01*
X126725687Y-44959472D01*
X126517149Y-44761577D01*
X126283683Y-44593814D01*
X126261843Y-44582250D01*
X126238654Y-44569972D01*
X126029608Y-44459288D01*
X125759627Y-44360489D01*
X125478736Y-44299245D01*
X125447685Y-44296801D01*
X125255718Y-44281693D01*
X125255709Y-44281693D01*
X125253261Y-44281500D01*
X125097729Y-44281500D01*
X125095593Y-44281646D01*
X125095582Y-44281646D01*
X124887452Y-44295835D01*
X124887446Y-44295836D01*
X124883175Y-44296127D01*
X124878980Y-44296996D01*
X124878978Y-44296996D01*
X124742416Y-44325277D01*
X124601658Y-44354426D01*
X124330657Y-44450393D01*
X124075188Y-44582250D01*
X124071687Y-44584711D01*
X124071683Y-44584713D01*
X124061594Y-44591804D01*
X123839977Y-44747559D01*
X123629378Y-44943260D01*
X123447287Y-45165732D01*
X123297073Y-45410858D01*
X123181517Y-45674102D01*
X123180342Y-45678229D01*
X123180341Y-45678230D01*
X123175574Y-45694964D01*
X123102756Y-45950594D01*
X123062249Y-46235216D01*
X123062227Y-46239505D01*
X123062226Y-46239512D01*
X123060850Y-46502206D01*
X123060743Y-46522703D01*
X119350498Y-46522703D01*
X119384542Y-46417928D01*
X119389177Y-46373834D01*
X119403814Y-46234565D01*
X119404504Y-46228000D01*
X119384542Y-46038072D01*
X119325527Y-45856444D01*
X119230040Y-45691056D01*
X119218492Y-45678230D01*
X119106675Y-45554045D01*
X119106674Y-45554044D01*
X119102253Y-45549134D01*
X118947752Y-45436882D01*
X118941724Y-45434198D01*
X118941722Y-45434197D01*
X118779319Y-45361891D01*
X118779318Y-45361891D01*
X118773288Y-45359206D01*
X118679887Y-45339353D01*
X118592944Y-45320872D01*
X118592939Y-45320872D01*
X118586487Y-45319500D01*
X118395513Y-45319500D01*
X118389061Y-45320872D01*
X118389056Y-45320872D01*
X118302113Y-45339353D01*
X118208712Y-45359206D01*
X118202682Y-45361891D01*
X118202681Y-45361891D01*
X118040278Y-45434197D01*
X118040276Y-45434198D01*
X118034248Y-45436882D01*
X117879747Y-45549134D01*
X117875326Y-45554044D01*
X117875325Y-45554045D01*
X117763509Y-45678230D01*
X117751960Y-45691056D01*
X117656473Y-45856444D01*
X117597458Y-46038072D01*
X117577496Y-46228000D01*
X74043396Y-46228000D01*
X73953567Y-43847509D01*
X73953728Y-43834815D01*
X73965211Y-43653021D01*
X73969348Y-43628002D01*
X74015330Y-43458351D01*
X74024393Y-43434668D01*
X74103411Y-43277664D01*
X74117033Y-43256274D01*
X74225891Y-43118272D01*
X74243519Y-43100045D01*
X74377808Y-42986630D01*
X74398726Y-42972303D01*
X74553003Y-42888076D01*
X74576372Y-42878226D01*
X74744392Y-42826597D01*
X74769257Y-42821626D01*
X74950557Y-42804071D01*
X74963237Y-42803485D01*
X99040965Y-42906418D01*
G37*
%TD.AperFunction*%
%TD*%
%TA.AperFunction,Conductor*%
%TO.N,HAS*%
G36*
X79404008Y-50157428D02*
G01*
X79492246Y-50175404D01*
X79580482Y-50193380D01*
X79605271Y-50201164D01*
X79770618Y-50272549D01*
X79793284Y-50285253D01*
X79866876Y-50337142D01*
X79940470Y-50389033D01*
X79960047Y-50406115D01*
X80082817Y-50537883D01*
X80098475Y-50558618D01*
X80191605Y-50712762D01*
X80202677Y-50736268D01*
X80262210Y-50906240D01*
X80268225Y-50931518D01*
X80292479Y-51116583D01*
X80293501Y-51129552D01*
X80384686Y-54503365D01*
X80390804Y-54729737D01*
X80390815Y-54730158D01*
X80390966Y-54736534D01*
X80390984Y-54737414D01*
X80391091Y-54743843D01*
X80391747Y-54793023D01*
X80506794Y-63421545D01*
X80487702Y-63489927D01*
X80434671Y-63537131D01*
X80364538Y-63548170D01*
X80299569Y-63519541D01*
X80260972Y-63462162D01*
X80206568Y-63294726D01*
X80204527Y-63288444D01*
X80109040Y-63123056D01*
X79981253Y-62981134D01*
X79826752Y-62868882D01*
X79820724Y-62866198D01*
X79820722Y-62866197D01*
X79658319Y-62793891D01*
X79658318Y-62793891D01*
X79652288Y-62791206D01*
X79558887Y-62771353D01*
X79471944Y-62752872D01*
X79471939Y-62752872D01*
X79465487Y-62751500D01*
X79274513Y-62751500D01*
X79268061Y-62752872D01*
X79268056Y-62752872D01*
X79181113Y-62771353D01*
X79087712Y-62791206D01*
X79081682Y-62793891D01*
X79081681Y-62793891D01*
X78919278Y-62866197D01*
X78919276Y-62866198D01*
X78913248Y-62868882D01*
X78758747Y-62981134D01*
X78630960Y-63123056D01*
X78535473Y-63288444D01*
X78476458Y-63470072D01*
X78456496Y-63660000D01*
X78476458Y-63849928D01*
X78535473Y-64031556D01*
X78538776Y-64037278D01*
X78538777Y-64037279D01*
X78593181Y-64131510D01*
X78609919Y-64200506D01*
X78593181Y-64257510D01*
X78578182Y-64283490D01*
X78520473Y-64383444D01*
X78461458Y-64565072D01*
X78441496Y-64755000D01*
X78461458Y-64944928D01*
X78520473Y-65126556D01*
X78615960Y-65291944D01*
X78743747Y-65433866D01*
X78898248Y-65546118D01*
X78904276Y-65548802D01*
X78904278Y-65548803D01*
X79066681Y-65621109D01*
X79072712Y-65623794D01*
X79166113Y-65643647D01*
X79253056Y-65662128D01*
X79253061Y-65662128D01*
X79259513Y-65663500D01*
X79450487Y-65663500D01*
X79456939Y-65662128D01*
X79456944Y-65662128D01*
X79543887Y-65643647D01*
X79637288Y-65623794D01*
X79643319Y-65621109D01*
X79805722Y-65548803D01*
X79805724Y-65548802D01*
X79811752Y-65546118D01*
X79966253Y-65433866D01*
X80094040Y-65291944D01*
X80189527Y-65126556D01*
X80248542Y-64944928D01*
X80268504Y-64755000D01*
X80248542Y-64565072D01*
X80189527Y-64383444D01*
X80186223Y-64377721D01*
X80131819Y-64283490D01*
X80115081Y-64214494D01*
X80131819Y-64157490D01*
X80201223Y-64037279D01*
X80201224Y-64037278D01*
X80204527Y-64031556D01*
X80256670Y-63871079D01*
X80261501Y-63856210D01*
X80261502Y-63856206D01*
X80263542Y-63849928D01*
X80263979Y-63845771D01*
X80297278Y-63784090D01*
X80359427Y-63749768D01*
X80430266Y-63754495D01*
X80487305Y-63796769D01*
X80512433Y-63863170D01*
X80512787Y-63871079D01*
X80515013Y-64038028D01*
X80515014Y-64038041D01*
X80518000Y-64262000D01*
X80613446Y-64460845D01*
X80613447Y-64460849D01*
X80614929Y-64463936D01*
X80614930Y-64463939D01*
X81928070Y-67199646D01*
X81933982Y-67214236D01*
X82005505Y-67428274D01*
X82011671Y-67459088D01*
X82028006Y-67684181D01*
X82028162Y-67699923D01*
X82013002Y-67987957D01*
X82012838Y-67990017D01*
X82012800Y-67991557D01*
X82012251Y-67996695D01*
X82012276Y-67997124D01*
X82011580Y-67999296D01*
X82012403Y-67999339D01*
X82006342Y-68114498D01*
X81915000Y-69850000D01*
X81914710Y-69857882D01*
X81914709Y-69857912D01*
X81914701Y-69858116D01*
X81855428Y-71470347D01*
X81854370Y-71482654D01*
X81830544Y-71658308D01*
X81824848Y-71682318D01*
X81769266Y-71844072D01*
X81759002Y-71866509D01*
X81672954Y-72014343D01*
X81658518Y-72034342D01*
X81634072Y-72062031D01*
X81541202Y-72167221D01*
X81532582Y-72176070D01*
X81415295Y-72285212D01*
X81406202Y-72292904D01*
X81270622Y-72397020D01*
X81250468Y-72409664D01*
X81128804Y-72470815D01*
X81103084Y-72483742D01*
X81080910Y-72492372D01*
X80922232Y-72537419D01*
X80898830Y-72541727D01*
X80728549Y-72556661D01*
X80716653Y-72557140D01*
X79042001Y-72545263D01*
X78581395Y-72541996D01*
X78570113Y-72541409D01*
X78408730Y-72525741D01*
X78386550Y-72521557D01*
X78253118Y-72483742D01*
X78235995Y-72478889D01*
X78214920Y-72470815D01*
X78069298Y-72399475D01*
X78059391Y-72394057D01*
X77972034Y-72341070D01*
X77960049Y-72332817D01*
X77814822Y-72219897D01*
X77794076Y-72199514D01*
X77683225Y-72062031D01*
X77667705Y-72037434D01*
X77666224Y-72034345D01*
X77588157Y-71871582D01*
X77582627Y-71858107D01*
X77534760Y-71719065D01*
X77531837Y-71709309D01*
X77524925Y-71682318D01*
X77495560Y-71567648D01*
X77492123Y-71547610D01*
X77479126Y-71401940D01*
X77478633Y-71391780D01*
X77461482Y-69282267D01*
X77461482Y-69282264D01*
X77460000Y-69100000D01*
X77335725Y-68773137D01*
X77327500Y-68728359D01*
X77327500Y-68118016D01*
X77327549Y-68114498D01*
X77330193Y-68019850D01*
X77330193Y-68019847D01*
X77330334Y-68014795D01*
X77319941Y-67936902D01*
X77319241Y-67930353D01*
X77313346Y-67857077D01*
X77313345Y-67857073D01*
X77312940Y-67852035D01*
X77305101Y-67820122D01*
X77302573Y-67806738D01*
X77298898Y-67779194D01*
X77298229Y-67774180D01*
X77275522Y-67698971D01*
X77273781Y-67692608D01*
X77256244Y-67621209D01*
X77255037Y-67616294D01*
X77242199Y-67586048D01*
X77237561Y-67573237D01*
X77229530Y-67546638D01*
X77228067Y-67541792D01*
X77225849Y-67537244D01*
X77225846Y-67537237D01*
X77193629Y-67471182D01*
X77190893Y-67465180D01*
X77162162Y-67397495D01*
X77160188Y-67392844D01*
X77142681Y-67365044D01*
X77136052Y-67353134D01*
X77121654Y-67323612D01*
X77076357Y-67259400D01*
X77072699Y-67253914D01*
X77033529Y-67191714D01*
X77033528Y-67191713D01*
X77030833Y-67187433D01*
X77027492Y-67183644D01*
X77027488Y-67183638D01*
X77009102Y-67162783D01*
X77000656Y-67152088D01*
X76984009Y-67128490D01*
X76981726Y-67125253D01*
X76962091Y-67103750D01*
X76922375Y-67064034D01*
X76916956Y-67058264D01*
X76873650Y-67009142D01*
X76873647Y-67009139D01*
X76870302Y-67005345D01*
X76838011Y-66978821D01*
X76828892Y-66970551D01*
X76778536Y-66920195D01*
X76776626Y-66918569D01*
X76776619Y-66918563D01*
X76644132Y-66805808D01*
X76644130Y-66805806D01*
X76640280Y-66802530D01*
X76635954Y-66799910D01*
X76635947Y-66799905D01*
X76607491Y-66782671D01*
X76559585Y-66730274D01*
X76554988Y-66719675D01*
X76293422Y-66031716D01*
X76200000Y-65786000D01*
X69764815Y-60383783D01*
X69755915Y-60375548D01*
X69737479Y-60356763D01*
X69704042Y-60294134D01*
X69709773Y-60223369D01*
X69733770Y-60184204D01*
X69763214Y-60151503D01*
X69858701Y-59986115D01*
X69917716Y-59804487D01*
X69937678Y-59614559D01*
X69917716Y-59424631D01*
X69858701Y-59243003D01*
X69763214Y-59077615D01*
X69635427Y-58935693D01*
X69633303Y-58934150D01*
X69596839Y-58874958D01*
X69597459Y-58806397D01*
X69733410Y-58341648D01*
X69771733Y-58281883D01*
X69780281Y-58275088D01*
X69822296Y-58244562D01*
X69912918Y-58178721D01*
X70040705Y-58036799D01*
X70136192Y-57871411D01*
X70195207Y-57689783D01*
X70212912Y-57521330D01*
X70239925Y-57455673D01*
X70298147Y-57415043D01*
X70338222Y-57408500D01*
X70395487Y-57408500D01*
X70401939Y-57407128D01*
X70401944Y-57407128D01*
X70488888Y-57388647D01*
X70582288Y-57368794D01*
X70588319Y-57366109D01*
X70750722Y-57293803D01*
X70750724Y-57293802D01*
X70756752Y-57291118D01*
X70911253Y-57178866D01*
X71039040Y-57036944D01*
X71134527Y-56871556D01*
X71193542Y-56689928D01*
X71213504Y-56500000D01*
X71193542Y-56310072D01*
X71134527Y-56128444D01*
X71088791Y-56049227D01*
X71072053Y-55980232D01*
X71095273Y-55913140D01*
X71151080Y-55869253D01*
X71202526Y-55860312D01*
X71236672Y-55861564D01*
X71236677Y-55861564D01*
X71241837Y-55861753D01*
X71246957Y-55861097D01*
X71246959Y-55861097D01*
X71458288Y-55834025D01*
X71458289Y-55834025D01*
X71463416Y-55833368D01*
X71504194Y-55821134D01*
X71672429Y-55770661D01*
X71672434Y-55770659D01*
X71677384Y-55769174D01*
X71877994Y-55670896D01*
X72059860Y-55541173D01*
X72218096Y-55383489D01*
X72348453Y-55202077D01*
X72447430Y-55001811D01*
X72512370Y-54788069D01*
X72541529Y-54566590D01*
X72543156Y-54500000D01*
X72524852Y-54277361D01*
X72470431Y-54060702D01*
X72381354Y-53855840D01*
X72328207Y-53773687D01*
X72308000Y-53705628D01*
X72327796Y-53637448D01*
X72346779Y-53614316D01*
X75285936Y-50795125D01*
X75296373Y-50786155D01*
X75452892Y-50665857D01*
X75476376Y-50651587D01*
X75648971Y-50571019D01*
X75674988Y-50562181D01*
X75741488Y-50547437D01*
X75867722Y-50519449D01*
X75881301Y-50517209D01*
X76160580Y-50486672D01*
X79178535Y-50156686D01*
X79191497Y-50155943D01*
X79378153Y-50154894D01*
X79404008Y-50157428D01*
G37*
%TD.AperFunction*%
%TD*%
%TA.AperFunction,Conductor*%
%TO.N,GND*%
G36*
X63638883Y-42550148D02*
G01*
X63641076Y-42550175D01*
X63647747Y-42550316D01*
X63656932Y-42550510D01*
X63657802Y-42550533D01*
X66951439Y-42649026D01*
X71380306Y-42781469D01*
X71394108Y-42782644D01*
X71590847Y-42810346D01*
X71617650Y-42817186D01*
X71797079Y-42884696D01*
X71821742Y-42897220D01*
X71982114Y-43002254D01*
X72003452Y-43019859D01*
X72137040Y-43157361D01*
X72154021Y-43179196D01*
X72258041Y-43348479D01*
X72264631Y-43360659D01*
X72473298Y-43802749D01*
X72494255Y-43847150D01*
X72499352Y-43859640D01*
X72562768Y-44042462D01*
X72568825Y-44068710D01*
X72591929Y-44260831D01*
X72592820Y-44274291D01*
X72605702Y-45299014D01*
X72615214Y-46055662D01*
X72682411Y-51400895D01*
X72663267Y-51469262D01*
X72610200Y-51516426D01*
X72540058Y-51527412D01*
X72475112Y-51498733D01*
X72440873Y-51452724D01*
X72381354Y-51315840D01*
X72260014Y-51128277D01*
X72109670Y-50963051D01*
X72105619Y-50959852D01*
X72105615Y-50959848D01*
X71938414Y-50827800D01*
X71938410Y-50827798D01*
X71934359Y-50824598D01*
X71738789Y-50716638D01*
X71733920Y-50714914D01*
X71733916Y-50714912D01*
X71533087Y-50643795D01*
X71533083Y-50643794D01*
X71528212Y-50642069D01*
X71523119Y-50641162D01*
X71523116Y-50641161D01*
X71313373Y-50603800D01*
X71313367Y-50603799D01*
X71308284Y-50602894D01*
X71234452Y-50601992D01*
X71090081Y-50600228D01*
X71090079Y-50600228D01*
X71084911Y-50600165D01*
X70864091Y-50633955D01*
X70651756Y-50703357D01*
X70453607Y-50806507D01*
X70449474Y-50809610D01*
X70449471Y-50809612D01*
X70315037Y-50910548D01*
X70274965Y-50940635D01*
X70120629Y-51102138D01*
X70013201Y-51259621D01*
X69958293Y-51304621D01*
X69887768Y-51312792D01*
X69824021Y-51281538D01*
X69803324Y-51257054D01*
X69722822Y-51132617D01*
X69722820Y-51132614D01*
X69720014Y-51128277D01*
X69569670Y-50963051D01*
X69565619Y-50959852D01*
X69565615Y-50959848D01*
X69398414Y-50827800D01*
X69398410Y-50827798D01*
X69394359Y-50824598D01*
X69198789Y-50716638D01*
X69193920Y-50714914D01*
X69193916Y-50714912D01*
X68993087Y-50643795D01*
X68993083Y-50643794D01*
X68988212Y-50642069D01*
X68983119Y-50641162D01*
X68983116Y-50641161D01*
X68773373Y-50603800D01*
X68773367Y-50603799D01*
X68768284Y-50602894D01*
X68694452Y-50601992D01*
X68550081Y-50600228D01*
X68550079Y-50600228D01*
X68544911Y-50600165D01*
X68324091Y-50633955D01*
X68111756Y-50703357D01*
X67913607Y-50806507D01*
X67909474Y-50809610D01*
X67909471Y-50809612D01*
X67775037Y-50910548D01*
X67734965Y-50940635D01*
X67580629Y-51102138D01*
X67473201Y-51259621D01*
X67418293Y-51304621D01*
X67347768Y-51312792D01*
X67284021Y-51281538D01*
X67263324Y-51257054D01*
X67182822Y-51132617D01*
X67182820Y-51132614D01*
X67180014Y-51128277D01*
X67029670Y-50963051D01*
X67025619Y-50959852D01*
X67025615Y-50959848D01*
X66858414Y-50827800D01*
X66858410Y-50827798D01*
X66854359Y-50824598D01*
X66658789Y-50716638D01*
X66653920Y-50714914D01*
X66653916Y-50714912D01*
X66453087Y-50643795D01*
X66453083Y-50643794D01*
X66448212Y-50642069D01*
X66443119Y-50641162D01*
X66443116Y-50641161D01*
X66233373Y-50603800D01*
X66233367Y-50603799D01*
X66228284Y-50602894D01*
X66154452Y-50601992D01*
X66010081Y-50600228D01*
X66010079Y-50600228D01*
X66004911Y-50600165D01*
X65784091Y-50633955D01*
X65571756Y-50703357D01*
X65373607Y-50806507D01*
X65369474Y-50809610D01*
X65369471Y-50809612D01*
X65235037Y-50910548D01*
X65194965Y-50940635D01*
X65040629Y-51102138D01*
X64933201Y-51259621D01*
X64878293Y-51304621D01*
X64807768Y-51312792D01*
X64744021Y-51281538D01*
X64723324Y-51257054D01*
X64642822Y-51132617D01*
X64642820Y-51132614D01*
X64640014Y-51128277D01*
X64489670Y-50963051D01*
X64485619Y-50959852D01*
X64485615Y-50959848D01*
X64318414Y-50827800D01*
X64318410Y-50827798D01*
X64314359Y-50824598D01*
X64118789Y-50716638D01*
X64113920Y-50714914D01*
X64113916Y-50714912D01*
X63913087Y-50643795D01*
X63913083Y-50643794D01*
X63908212Y-50642069D01*
X63903119Y-50641162D01*
X63903116Y-50641161D01*
X63693373Y-50603800D01*
X63693367Y-50603799D01*
X63688284Y-50602894D01*
X63614452Y-50601992D01*
X63470081Y-50600228D01*
X63470079Y-50600228D01*
X63464911Y-50600165D01*
X63244091Y-50633955D01*
X63031756Y-50703357D01*
X62833607Y-50806507D01*
X62829474Y-50809610D01*
X62829471Y-50809612D01*
X62695037Y-50910548D01*
X62654965Y-50940635D01*
X62500629Y-51102138D01*
X62374743Y-51286680D01*
X62354668Y-51329928D01*
X62289992Y-51469262D01*
X62280688Y-51489305D01*
X62220989Y-51704570D01*
X62197251Y-51926695D01*
X62197548Y-51931848D01*
X62197548Y-51931851D01*
X62199171Y-51960000D01*
X62210110Y-52149715D01*
X62211247Y-52154761D01*
X62211248Y-52154767D01*
X62232275Y-52248069D01*
X62259222Y-52367639D01*
X62343266Y-52574616D01*
X62380910Y-52636045D01*
X62457291Y-52760688D01*
X62459987Y-52765088D01*
X62606250Y-52933938D01*
X62610230Y-52937242D01*
X62614981Y-52941187D01*
X62654616Y-53000090D01*
X62656113Y-53071071D01*
X62618997Y-53131593D01*
X62578725Y-53156112D01*
X62490095Y-53189338D01*
X62463295Y-53199385D01*
X62346739Y-53286739D01*
X62259385Y-53403295D01*
X62208255Y-53539684D01*
X62201500Y-53601866D01*
X62201500Y-55398134D01*
X62208255Y-55460316D01*
X62259385Y-55596705D01*
X62346739Y-55713261D01*
X62463295Y-55800615D01*
X62599684Y-55851745D01*
X62661866Y-55858500D01*
X63959310Y-55858500D01*
X64027431Y-55878502D01*
X64073924Y-55932158D01*
X64084028Y-56002432D01*
X64079143Y-56023436D01*
X64064037Y-56069928D01*
X64025459Y-56188658D01*
X64024769Y-56195219D01*
X64024769Y-56195221D01*
X64018848Y-56251556D01*
X64005497Y-56378586D01*
X64006187Y-56385151D01*
X64019835Y-56515000D01*
X64025459Y-56568514D01*
X64084474Y-56750142D01*
X64179961Y-56915530D01*
X64184379Y-56920437D01*
X64184380Y-56920438D01*
X64303326Y-57052541D01*
X64307748Y-57057452D01*
X64462249Y-57169704D01*
X64468273Y-57172386D01*
X64471155Y-57174050D01*
X64520147Y-57225434D01*
X64533581Y-57295148D01*
X64507192Y-57361058D01*
X64449359Y-57402238D01*
X64434350Y-57406414D01*
X64317712Y-57431206D01*
X64311682Y-57433891D01*
X64311681Y-57433891D01*
X64149278Y-57506197D01*
X64149276Y-57506198D01*
X64143248Y-57508882D01*
X63988747Y-57621134D01*
X63984326Y-57626044D01*
X63984325Y-57626045D01*
X63924031Y-57693009D01*
X63860960Y-57763056D01*
X63765473Y-57928444D01*
X63706458Y-58110072D01*
X63686496Y-58300000D01*
X63687186Y-58306565D01*
X63701532Y-58443056D01*
X63706458Y-58489928D01*
X63765473Y-58671556D01*
X63860960Y-58836944D01*
X63865378Y-58841851D01*
X63865379Y-58841852D01*
X63949873Y-58935692D01*
X63980591Y-58999699D01*
X63976070Y-59058936D01*
X63946458Y-59150072D01*
X63926496Y-59340000D01*
X63927186Y-59346565D01*
X63945448Y-59520314D01*
X63946458Y-59529928D01*
X64005473Y-59711556D01*
X64100960Y-59876944D01*
X64228747Y-60018866D01*
X64234090Y-60022748D01*
X64238939Y-60026271D01*
X64282290Y-60082496D01*
X64288362Y-60153232D01*
X64255228Y-60216022D01*
X64238934Y-60230140D01*
X64168747Y-60281134D01*
X64164326Y-60286044D01*
X64164325Y-60286045D01*
X64065554Y-60395742D01*
X64040960Y-60423056D01*
X63945473Y-60588444D01*
X63886458Y-60770072D01*
X63866496Y-60960000D01*
X63867186Y-60966565D01*
X63885450Y-61140334D01*
X63886458Y-61149928D01*
X63945473Y-61331556D01*
X64040960Y-61496944D01*
X64045378Y-61501851D01*
X64045379Y-61501852D01*
X64133687Y-61599928D01*
X64168747Y-61638866D01*
X64323248Y-61751118D01*
X64329276Y-61753802D01*
X64329278Y-61753803D01*
X64491681Y-61826109D01*
X64497712Y-61828794D01*
X64591113Y-61848647D01*
X64678056Y-61867128D01*
X64678061Y-61867128D01*
X64684513Y-61868500D01*
X64875487Y-61868500D01*
X64881939Y-61867128D01*
X64881944Y-61867128D01*
X64968887Y-61848647D01*
X65062288Y-61828794D01*
X65068319Y-61826109D01*
X65230722Y-61753803D01*
X65230724Y-61753802D01*
X65236752Y-61751118D01*
X65391253Y-61638866D01*
X65426313Y-61599928D01*
X65514621Y-61501852D01*
X65514622Y-61501851D01*
X65519040Y-61496944D01*
X65614527Y-61331556D01*
X65637750Y-61260083D01*
X65677824Y-61201478D01*
X65743221Y-61173841D01*
X65813177Y-61185948D01*
X65865483Y-61233954D01*
X65877415Y-61260082D01*
X65922950Y-61400223D01*
X65926253Y-61405945D01*
X65926254Y-61405946D01*
X65960163Y-61464677D01*
X66018437Y-61565611D01*
X66022855Y-61570518D01*
X66022856Y-61570519D01*
X66064482Y-61616749D01*
X66146224Y-61707533D01*
X66207609Y-61752132D01*
X66284776Y-61808197D01*
X66300725Y-61819785D01*
X66306753Y-61822469D01*
X66306755Y-61822470D01*
X66410141Y-61868500D01*
X66475189Y-61897461D01*
X66568589Y-61917314D01*
X66655533Y-61935795D01*
X66655538Y-61935795D01*
X66661990Y-61937167D01*
X66852964Y-61937167D01*
X66859416Y-61935795D01*
X66859421Y-61935795D01*
X66946365Y-61917314D01*
X67039765Y-61897461D01*
X67104813Y-61868500D01*
X67208199Y-61822470D01*
X67208201Y-61822469D01*
X67214229Y-61819785D01*
X67230179Y-61808197D01*
X67326185Y-61738444D01*
X67366717Y-61708996D01*
X67433583Y-61685138D01*
X67502735Y-61701218D01*
X67552215Y-61752132D01*
X67566087Y-61824102D01*
X67546496Y-62010500D01*
X67547186Y-62017065D01*
X67555311Y-62094366D01*
X67566458Y-62200428D01*
X67625473Y-62382056D01*
X67720960Y-62547444D01*
X67848747Y-62689366D01*
X68003248Y-62801618D01*
X68009276Y-62804302D01*
X68009278Y-62804303D01*
X68171681Y-62876609D01*
X68177712Y-62879294D01*
X68271112Y-62899147D01*
X68358056Y-62917628D01*
X68358061Y-62917628D01*
X68364513Y-62919000D01*
X68555487Y-62919000D01*
X68561939Y-62917628D01*
X68561944Y-62917628D01*
X68648888Y-62899147D01*
X68742288Y-62879294D01*
X68748319Y-62876609D01*
X68910724Y-62804302D01*
X68910725Y-62804301D01*
X68916752Y-62801618D01*
X68922094Y-62797737D01*
X68926997Y-62794906D01*
X68995992Y-62778166D01*
X69053003Y-62794906D01*
X69057906Y-62797737D01*
X69063248Y-62801618D01*
X69069275Y-62804301D01*
X69069276Y-62804302D01*
X69231681Y-62876609D01*
X69237712Y-62879294D01*
X69331112Y-62899147D01*
X69418056Y-62917628D01*
X69418061Y-62917628D01*
X69424513Y-62919000D01*
X69615487Y-62919000D01*
X69621939Y-62917628D01*
X69621944Y-62917628D01*
X69708888Y-62899147D01*
X69802288Y-62879294D01*
X69808319Y-62876609D01*
X69970722Y-62804303D01*
X69970724Y-62804302D01*
X69976752Y-62801618D01*
X70131253Y-62689366D01*
X70259040Y-62547444D01*
X70354527Y-62382056D01*
X70360937Y-62362328D01*
X70401010Y-62303722D01*
X70466407Y-62276085D01*
X70536364Y-62288192D01*
X70563303Y-62306058D01*
X74181455Y-65442593D01*
X74181965Y-65443037D01*
X74189437Y-65449585D01*
X74190469Y-65450499D01*
X74197806Y-65457072D01*
X74198312Y-65457528D01*
X75609674Y-66735743D01*
X75619386Y-66745560D01*
X75750768Y-66893790D01*
X75766691Y-66916303D01*
X75848767Y-67064449D01*
X75862676Y-67089555D01*
X75868696Y-67101983D01*
X75983882Y-67377278D01*
X76665875Y-69007240D01*
X76705009Y-69100771D01*
X76709026Y-69111788D01*
X76717237Y-69138036D01*
X76759277Y-69272437D01*
X76764163Y-69295353D01*
X76783801Y-69462541D01*
X76784625Y-69474239D01*
X76852719Y-72334187D01*
X76861740Y-72713053D01*
X76861997Y-72723861D01*
X76861606Y-72737219D01*
X76845844Y-72928281D01*
X76840845Y-72954499D01*
X76787145Y-73131520D01*
X76776736Y-73156096D01*
X76683687Y-73323720D01*
X76676590Y-73335044D01*
X75629998Y-74823379D01*
X75622645Y-74832844D01*
X75510725Y-74963566D01*
X75493493Y-74980193D01*
X75363577Y-75083613D01*
X75343503Y-75096683D01*
X75196366Y-75173645D01*
X75174180Y-75182680D01*
X75015133Y-75230406D01*
X74991640Y-75235078D01*
X74820439Y-75252450D01*
X74808483Y-75253091D01*
X67701645Y-75295218D01*
X46362540Y-75421709D01*
X41874503Y-75448313D01*
X41863096Y-75447863D01*
X41699842Y-75434002D01*
X41677383Y-75430024D01*
X41524824Y-75388463D01*
X41503452Y-75380501D01*
X41355711Y-75309638D01*
X41345652Y-75304239D01*
X38946225Y-73872911D01*
X37477244Y-72996621D01*
X37466363Y-72989338D01*
X37419751Y-72954499D01*
X37315866Y-72876854D01*
X37296654Y-72859105D01*
X37179855Y-72726200D01*
X37149911Y-72661827D01*
X37148500Y-72643024D01*
X37148500Y-71440000D01*
X37486496Y-71440000D01*
X37487186Y-71446565D01*
X37497010Y-71540031D01*
X37506458Y-71629928D01*
X37565473Y-71811556D01*
X37568776Y-71817278D01*
X37568777Y-71817279D01*
X37581418Y-71839174D01*
X37660960Y-71976944D01*
X37788747Y-72118866D01*
X37943248Y-72231118D01*
X37949276Y-72233802D01*
X37949278Y-72233803D01*
X38111681Y-72306109D01*
X38117712Y-72308794D01*
X38211112Y-72328647D01*
X38298056Y-72347128D01*
X38298061Y-72347128D01*
X38304513Y-72348500D01*
X38495487Y-72348500D01*
X38501939Y-72347128D01*
X38501944Y-72347128D01*
X38588888Y-72328647D01*
X38682288Y-72308794D01*
X38688319Y-72306109D01*
X38850722Y-72233803D01*
X38850724Y-72233802D01*
X38856752Y-72231118D01*
X39011253Y-72118866D01*
X39049914Y-72075928D01*
X39110362Y-72038689D01*
X39181345Y-72040041D01*
X39232646Y-72071144D01*
X39287700Y-72126198D01*
X39292208Y-72129355D01*
X39292211Y-72129357D01*
X39333542Y-72158297D01*
X39475251Y-72257523D01*
X39480233Y-72259846D01*
X39480238Y-72259849D01*
X39670353Y-72348500D01*
X39682757Y-72354284D01*
X39688065Y-72355706D01*
X39688067Y-72355707D01*
X39898598Y-72412119D01*
X39898600Y-72412119D01*
X39903913Y-72413543D01*
X40132000Y-72433498D01*
X40360087Y-72413543D01*
X40365400Y-72412119D01*
X40365402Y-72412119D01*
X40575933Y-72355707D01*
X40575935Y-72355706D01*
X40581243Y-72354284D01*
X40593647Y-72348500D01*
X40783762Y-72259849D01*
X40783767Y-72259846D01*
X40788749Y-72257523D01*
X40930458Y-72158297D01*
X40971789Y-72129357D01*
X40971792Y-72129355D01*
X40976300Y-72126198D01*
X41138198Y-71964300D01*
X41269523Y-71776749D01*
X41271846Y-71771767D01*
X41271849Y-71771762D01*
X41287805Y-71737543D01*
X41334722Y-71684258D01*
X41402999Y-71664797D01*
X41470959Y-71685339D01*
X41516195Y-71737543D01*
X41532151Y-71771762D01*
X41532154Y-71771767D01*
X41534477Y-71776749D01*
X41665802Y-71964300D01*
X41827700Y-72126198D01*
X41832208Y-72129355D01*
X41832211Y-72129357D01*
X41873542Y-72158297D01*
X42015251Y-72257523D01*
X42020233Y-72259846D01*
X42020238Y-72259849D01*
X42210353Y-72348500D01*
X42222757Y-72354284D01*
X42228065Y-72355706D01*
X42228067Y-72355707D01*
X42438598Y-72412119D01*
X42438600Y-72412119D01*
X42443913Y-72413543D01*
X42672000Y-72433498D01*
X42900087Y-72413543D01*
X42905400Y-72412119D01*
X42905402Y-72412119D01*
X43115933Y-72355707D01*
X43115935Y-72355706D01*
X43121243Y-72354284D01*
X43133647Y-72348500D01*
X43323762Y-72259849D01*
X43323767Y-72259846D01*
X43328749Y-72257523D01*
X43470458Y-72158297D01*
X43511789Y-72129357D01*
X43511792Y-72129355D01*
X43516300Y-72126198D01*
X43678198Y-71964300D01*
X43809523Y-71776749D01*
X43811846Y-71771767D01*
X43811849Y-71771762D01*
X43903961Y-71574225D01*
X43903961Y-71574224D01*
X43906284Y-71569243D01*
X43914112Y-71540031D01*
X43964119Y-71353402D01*
X43964119Y-71353400D01*
X43965543Y-71348087D01*
X43985498Y-71120000D01*
X54058502Y-71120000D01*
X54078457Y-71348087D01*
X54079881Y-71353400D01*
X54079881Y-71353402D01*
X54129889Y-71540031D01*
X54137716Y-71569243D01*
X54140039Y-71574224D01*
X54140039Y-71574225D01*
X54232151Y-71771762D01*
X54232154Y-71771767D01*
X54234477Y-71776749D01*
X54365802Y-71964300D01*
X54527700Y-72126198D01*
X54532208Y-72129355D01*
X54532211Y-72129357D01*
X54573542Y-72158297D01*
X54715251Y-72257523D01*
X54720233Y-72259846D01*
X54720238Y-72259849D01*
X54910353Y-72348500D01*
X54922757Y-72354284D01*
X54928065Y-72355706D01*
X54928067Y-72355707D01*
X55138598Y-72412119D01*
X55138600Y-72412119D01*
X55143913Y-72413543D01*
X55372000Y-72433498D01*
X55600087Y-72413543D01*
X55605400Y-72412119D01*
X55605402Y-72412119D01*
X55815933Y-72355707D01*
X55815935Y-72355706D01*
X55821243Y-72354284D01*
X55833647Y-72348500D01*
X56023762Y-72259849D01*
X56023767Y-72259846D01*
X56028749Y-72257523D01*
X56170458Y-72158297D01*
X56211789Y-72129357D01*
X56211792Y-72129355D01*
X56216300Y-72126198D01*
X56378198Y-71964300D01*
X56381357Y-71959789D01*
X56384892Y-71955576D01*
X56386026Y-71956527D01*
X56436071Y-71916529D01*
X56506690Y-71909224D01*
X56570049Y-71941258D01*
X56606030Y-72002462D01*
X56609082Y-72019517D01*
X56610255Y-72030316D01*
X56661385Y-72166705D01*
X56748739Y-72283261D01*
X56865295Y-72370615D01*
X57001684Y-72421745D01*
X57063866Y-72428500D01*
X58760134Y-72428500D01*
X58822316Y-72421745D01*
X58958705Y-72370615D01*
X59075261Y-72283261D01*
X59162615Y-72166705D01*
X59213745Y-72030316D01*
X59220500Y-71968134D01*
X59220500Y-70536695D01*
X61692251Y-70536695D01*
X61692548Y-70541848D01*
X61692548Y-70541851D01*
X61699981Y-70670757D01*
X61705110Y-70759715D01*
X61706247Y-70764761D01*
X61706248Y-70764767D01*
X61715101Y-70804050D01*
X61754222Y-70977639D01*
X61838266Y-71184616D01*
X61878377Y-71250072D01*
X61952291Y-71370688D01*
X61954987Y-71375088D01*
X62101250Y-71543938D01*
X62273126Y-71686632D01*
X62466000Y-71799338D01*
X62470825Y-71801180D01*
X62470826Y-71801181D01*
X62512983Y-71817279D01*
X62674692Y-71879030D01*
X62679760Y-71880061D01*
X62679763Y-71880062D01*
X62787017Y-71901883D01*
X62893597Y-71923567D01*
X62898772Y-71923757D01*
X62898774Y-71923757D01*
X63111673Y-71931564D01*
X63111677Y-71931564D01*
X63116837Y-71931753D01*
X63121957Y-71931097D01*
X63121959Y-71931097D01*
X63333288Y-71904025D01*
X63333289Y-71904025D01*
X63338416Y-71903368D01*
X63343366Y-71901883D01*
X63547429Y-71840661D01*
X63547434Y-71840659D01*
X63552384Y-71839174D01*
X63752994Y-71740896D01*
X63934860Y-71611173D01*
X64093096Y-71453489D01*
X64098072Y-71446565D01*
X64223453Y-71272077D01*
X64224776Y-71273028D01*
X64271645Y-71229857D01*
X64341580Y-71217625D01*
X64407026Y-71245144D01*
X64434875Y-71276994D01*
X64494987Y-71375088D01*
X64641250Y-71543938D01*
X64813126Y-71686632D01*
X65006000Y-71799338D01*
X65010825Y-71801180D01*
X65010826Y-71801181D01*
X65052983Y-71817279D01*
X65214692Y-71879030D01*
X65219760Y-71880061D01*
X65219763Y-71880062D01*
X65327017Y-71901883D01*
X65433597Y-71923567D01*
X65438772Y-71923757D01*
X65438774Y-71923757D01*
X65651673Y-71931564D01*
X65651677Y-71931564D01*
X65656837Y-71931753D01*
X65661957Y-71931097D01*
X65661959Y-71931097D01*
X65873288Y-71904025D01*
X65873289Y-71904025D01*
X65878416Y-71903368D01*
X65883366Y-71901883D01*
X66087429Y-71840661D01*
X66087434Y-71840659D01*
X66092384Y-71839174D01*
X66292994Y-71740896D01*
X66474860Y-71611173D01*
X66633096Y-71453489D01*
X66638072Y-71446565D01*
X66763453Y-71272077D01*
X66764776Y-71273028D01*
X66811645Y-71229857D01*
X66881580Y-71217625D01*
X66947026Y-71245144D01*
X66974875Y-71276994D01*
X67034987Y-71375088D01*
X67181250Y-71543938D01*
X67353126Y-71686632D01*
X67546000Y-71799338D01*
X67550825Y-71801180D01*
X67550826Y-71801181D01*
X67592983Y-71817279D01*
X67754692Y-71879030D01*
X67759760Y-71880061D01*
X67759763Y-71880062D01*
X67867017Y-71901883D01*
X67973597Y-71923567D01*
X67978772Y-71923757D01*
X67978774Y-71923757D01*
X68191673Y-71931564D01*
X68191677Y-71931564D01*
X68196837Y-71931753D01*
X68201957Y-71931097D01*
X68201959Y-71931097D01*
X68413288Y-71904025D01*
X68413289Y-71904025D01*
X68418416Y-71903368D01*
X68423366Y-71901883D01*
X68627429Y-71840661D01*
X68627434Y-71840659D01*
X68632384Y-71839174D01*
X68832994Y-71740896D01*
X69014860Y-71611173D01*
X69173096Y-71453489D01*
X69178072Y-71446565D01*
X69303453Y-71272077D01*
X69304776Y-71273028D01*
X69351645Y-71229857D01*
X69421580Y-71217625D01*
X69487026Y-71245144D01*
X69514875Y-71276994D01*
X69574987Y-71375088D01*
X69721250Y-71543938D01*
X69893126Y-71686632D01*
X70086000Y-71799338D01*
X70090825Y-71801180D01*
X70090826Y-71801181D01*
X70132983Y-71817279D01*
X70294692Y-71879030D01*
X70299760Y-71880061D01*
X70299763Y-71880062D01*
X70407017Y-71901883D01*
X70513597Y-71923567D01*
X70518772Y-71923757D01*
X70518774Y-71923757D01*
X70731673Y-71931564D01*
X70731677Y-71931564D01*
X70736837Y-71931753D01*
X70741957Y-71931097D01*
X70741959Y-71931097D01*
X70953288Y-71904025D01*
X70953289Y-71904025D01*
X70958416Y-71903368D01*
X70963366Y-71901883D01*
X71167429Y-71840661D01*
X71167434Y-71840659D01*
X71172384Y-71839174D01*
X71372994Y-71740896D01*
X71554860Y-71611173D01*
X71713096Y-71453489D01*
X71718072Y-71446565D01*
X71843453Y-71272077D01*
X71844776Y-71273028D01*
X71891645Y-71229857D01*
X71961580Y-71217625D01*
X72027026Y-71245144D01*
X72054875Y-71276994D01*
X72114987Y-71375088D01*
X72261250Y-71543938D01*
X72433126Y-71686632D01*
X72626000Y-71799338D01*
X72630825Y-71801180D01*
X72630826Y-71801181D01*
X72672983Y-71817279D01*
X72834692Y-71879030D01*
X72839760Y-71880061D01*
X72839763Y-71880062D01*
X72947017Y-71901883D01*
X73053597Y-71923567D01*
X73058772Y-71923757D01*
X73058774Y-71923757D01*
X73271673Y-71931564D01*
X73271677Y-71931564D01*
X73276837Y-71931753D01*
X73281957Y-71931097D01*
X73281959Y-71931097D01*
X73493288Y-71904025D01*
X73493289Y-71904025D01*
X73498416Y-71903368D01*
X73503366Y-71901883D01*
X73707429Y-71840661D01*
X73707434Y-71840659D01*
X73712384Y-71839174D01*
X73912994Y-71740896D01*
X74094860Y-71611173D01*
X74253096Y-71453489D01*
X74258072Y-71446565D01*
X74380435Y-71276277D01*
X74383453Y-71272077D01*
X74394329Y-71250072D01*
X74480136Y-71076453D01*
X74480137Y-71076451D01*
X74482430Y-71071811D01*
X74535193Y-70898148D01*
X74545865Y-70863023D01*
X74545865Y-70863021D01*
X74547370Y-70858069D01*
X74576529Y-70636590D01*
X74576756Y-70627288D01*
X74578074Y-70573365D01*
X74578074Y-70573361D01*
X74578156Y-70570000D01*
X74559852Y-70347361D01*
X74505431Y-70130702D01*
X74416354Y-69925840D01*
X74366645Y-69849001D01*
X74297822Y-69742617D01*
X74297820Y-69742614D01*
X74295014Y-69738277D01*
X74144670Y-69573051D01*
X74140619Y-69569852D01*
X74140615Y-69569848D01*
X73973414Y-69437800D01*
X73973410Y-69437798D01*
X73969359Y-69434598D01*
X73928053Y-69411796D01*
X73878084Y-69361364D01*
X73863312Y-69291921D01*
X73888428Y-69225516D01*
X73915780Y-69198909D01*
X73959603Y-69167650D01*
X74094860Y-69071173D01*
X74253096Y-68913489D01*
X74312594Y-68830689D01*
X74380435Y-68736277D01*
X74383453Y-68732077D01*
X74404320Y-68689857D01*
X74480136Y-68536453D01*
X74480137Y-68536451D01*
X74482430Y-68531811D01*
X74514900Y-68424940D01*
X74545865Y-68323023D01*
X74545865Y-68323021D01*
X74547370Y-68318069D01*
X74576529Y-68096590D01*
X74578156Y-68030000D01*
X74559852Y-67807361D01*
X74505431Y-67590702D01*
X74416354Y-67385840D01*
X74345106Y-67275707D01*
X74297822Y-67202617D01*
X74297820Y-67202614D01*
X74295014Y-67198277D01*
X74144670Y-67033051D01*
X74140619Y-67029852D01*
X74140615Y-67029848D01*
X73973414Y-66897800D01*
X73973410Y-66897798D01*
X73969359Y-66894598D01*
X73942533Y-66879789D01*
X73917136Y-66865769D01*
X73773789Y-66786638D01*
X73768920Y-66784914D01*
X73768916Y-66784912D01*
X73568087Y-66713795D01*
X73568083Y-66713794D01*
X73563212Y-66712069D01*
X73558119Y-66711162D01*
X73558116Y-66711161D01*
X73348373Y-66673800D01*
X73348367Y-66673799D01*
X73343284Y-66672894D01*
X73269452Y-66671992D01*
X73125081Y-66670228D01*
X73125079Y-66670228D01*
X73119911Y-66670165D01*
X72899091Y-66703955D01*
X72686756Y-66773357D01*
X72488607Y-66876507D01*
X72484474Y-66879610D01*
X72484471Y-66879612D01*
X72355640Y-66976341D01*
X72309965Y-67010635D01*
X72155629Y-67172138D01*
X72048201Y-67329621D01*
X71993293Y-67374621D01*
X71922768Y-67382792D01*
X71859021Y-67351538D01*
X71838324Y-67327054D01*
X71757822Y-67202617D01*
X71757820Y-67202614D01*
X71755014Y-67198277D01*
X71604670Y-67033051D01*
X71600619Y-67029852D01*
X71600615Y-67029848D01*
X71433414Y-66897800D01*
X71433410Y-66897798D01*
X71429359Y-66894598D01*
X71402533Y-66879789D01*
X71377136Y-66865769D01*
X71233789Y-66786638D01*
X71228920Y-66784914D01*
X71228916Y-66784912D01*
X71028087Y-66713795D01*
X71028083Y-66713794D01*
X71023212Y-66712069D01*
X71018119Y-66711162D01*
X71018116Y-66711161D01*
X70808373Y-66673800D01*
X70808367Y-66673799D01*
X70803284Y-66672894D01*
X70729452Y-66671992D01*
X70585081Y-66670228D01*
X70585079Y-66670228D01*
X70579911Y-66670165D01*
X70359091Y-66703955D01*
X70146756Y-66773357D01*
X69948607Y-66876507D01*
X69944474Y-66879610D01*
X69944471Y-66879612D01*
X69815640Y-66976341D01*
X69769965Y-67010635D01*
X69615629Y-67172138D01*
X69508201Y-67329621D01*
X69453293Y-67374621D01*
X69382768Y-67382792D01*
X69319021Y-67351538D01*
X69298324Y-67327054D01*
X69217822Y-67202617D01*
X69217820Y-67202614D01*
X69215014Y-67198277D01*
X69064670Y-67033051D01*
X69060619Y-67029852D01*
X69060615Y-67029848D01*
X68893414Y-66897800D01*
X68893410Y-66897798D01*
X68889359Y-66894598D01*
X68862533Y-66879789D01*
X68837136Y-66865769D01*
X68693789Y-66786638D01*
X68688920Y-66784914D01*
X68688916Y-66784912D01*
X68488087Y-66713795D01*
X68488083Y-66713794D01*
X68483212Y-66712069D01*
X68478119Y-66711162D01*
X68478116Y-66711161D01*
X68268373Y-66673800D01*
X68268367Y-66673799D01*
X68263284Y-66672894D01*
X68189452Y-66671992D01*
X68045081Y-66670228D01*
X68045079Y-66670228D01*
X68039911Y-66670165D01*
X67819091Y-66703955D01*
X67606756Y-66773357D01*
X67408607Y-66876507D01*
X67404474Y-66879610D01*
X67404471Y-66879612D01*
X67275640Y-66976341D01*
X67229965Y-67010635D01*
X67075629Y-67172138D01*
X66968201Y-67329621D01*
X66913293Y-67374621D01*
X66842768Y-67382792D01*
X66779021Y-67351538D01*
X66758324Y-67327054D01*
X66677822Y-67202617D01*
X66677820Y-67202614D01*
X66675014Y-67198277D01*
X66524670Y-67033051D01*
X66520619Y-67029852D01*
X66520615Y-67029848D01*
X66353414Y-66897800D01*
X66353410Y-66897798D01*
X66349359Y-66894598D01*
X66322533Y-66879789D01*
X66297136Y-66865769D01*
X66153789Y-66786638D01*
X66148920Y-66784914D01*
X66148916Y-66784912D01*
X65948087Y-66713795D01*
X65948083Y-66713794D01*
X65943212Y-66712069D01*
X65938119Y-66711162D01*
X65938116Y-66711161D01*
X65728373Y-66673800D01*
X65728367Y-66673799D01*
X65723284Y-66672894D01*
X65649452Y-66671992D01*
X65505081Y-66670228D01*
X65505079Y-66670228D01*
X65499911Y-66670165D01*
X65279091Y-66703955D01*
X65066756Y-66773357D01*
X64868607Y-66876507D01*
X64864474Y-66879610D01*
X64864471Y-66879612D01*
X64735640Y-66976341D01*
X64689965Y-67010635D01*
X64535629Y-67172138D01*
X64428201Y-67329621D01*
X64373293Y-67374621D01*
X64302768Y-67382792D01*
X64239021Y-67351538D01*
X64218324Y-67327054D01*
X64137822Y-67202617D01*
X64137820Y-67202614D01*
X64135014Y-67198277D01*
X63984670Y-67033051D01*
X63980619Y-67029852D01*
X63980615Y-67029848D01*
X63813414Y-66897800D01*
X63813410Y-66897798D01*
X63809359Y-66894598D01*
X63782533Y-66879789D01*
X63757136Y-66865769D01*
X63613789Y-66786638D01*
X63608920Y-66784914D01*
X63608916Y-66784912D01*
X63408087Y-66713795D01*
X63408083Y-66713794D01*
X63403212Y-66712069D01*
X63398119Y-66711162D01*
X63398116Y-66711161D01*
X63188373Y-66673800D01*
X63188367Y-66673799D01*
X63183284Y-66672894D01*
X63109452Y-66671992D01*
X62965081Y-66670228D01*
X62965079Y-66670228D01*
X62959911Y-66670165D01*
X62739091Y-66703955D01*
X62526756Y-66773357D01*
X62328607Y-66876507D01*
X62324474Y-66879610D01*
X62324471Y-66879612D01*
X62195640Y-66976341D01*
X62149965Y-67010635D01*
X61995629Y-67172138D01*
X61992720Y-67176403D01*
X61992714Y-67176411D01*
X61947480Y-67242722D01*
X61869743Y-67356680D01*
X61775688Y-67559305D01*
X61715989Y-67774570D01*
X61692251Y-67996695D01*
X61692548Y-68001848D01*
X61692548Y-68001851D01*
X61699981Y-68130757D01*
X61705110Y-68219715D01*
X61706247Y-68224761D01*
X61706248Y-68224767D01*
X61715101Y-68264050D01*
X61754222Y-68437639D01*
X61838266Y-68644616D01*
X61889019Y-68727438D01*
X61952291Y-68830688D01*
X61954987Y-68835088D01*
X62101250Y-69003938D01*
X62273126Y-69146632D01*
X62343595Y-69187811D01*
X62346445Y-69189476D01*
X62395169Y-69241114D01*
X62408240Y-69310897D01*
X62381509Y-69376669D01*
X62341055Y-69410027D01*
X62328607Y-69416507D01*
X62324474Y-69419610D01*
X62324471Y-69419612D01*
X62300247Y-69437800D01*
X62149965Y-69550635D01*
X61995629Y-69712138D01*
X61992720Y-69716403D01*
X61992714Y-69716411D01*
X61927849Y-69811500D01*
X61869743Y-69896680D01*
X61841865Y-69956739D01*
X61783859Y-70081703D01*
X61775688Y-70099305D01*
X61715989Y-70314570D01*
X61692251Y-70536695D01*
X59220500Y-70536695D01*
X59220500Y-70271866D01*
X59213745Y-70209684D01*
X59162615Y-70073295D01*
X59075261Y-69956739D01*
X58958705Y-69869385D01*
X58822316Y-69818255D01*
X58811526Y-69817083D01*
X58809394Y-69816197D01*
X58806778Y-69815575D01*
X58806879Y-69815152D01*
X58745965Y-69789845D01*
X58705537Y-69731483D01*
X58703078Y-69660529D01*
X58739371Y-69599510D01*
X58748031Y-69592511D01*
X58751793Y-69589354D01*
X58756300Y-69586198D01*
X58918198Y-69424300D01*
X59049523Y-69236749D01*
X59051846Y-69231767D01*
X59051849Y-69231762D01*
X59143961Y-69034225D01*
X59143961Y-69034224D01*
X59146284Y-69029243D01*
X59154112Y-69000031D01*
X59204119Y-68813402D01*
X59204119Y-68813400D01*
X59205543Y-68808087D01*
X59225498Y-68580000D01*
X59205543Y-68351913D01*
X59197802Y-68323023D01*
X59147707Y-68136067D01*
X59147706Y-68136065D01*
X59146284Y-68130757D01*
X59086175Y-68001851D01*
X59051849Y-67928238D01*
X59051846Y-67928233D01*
X59049523Y-67923251D01*
X58976098Y-67818389D01*
X58921357Y-67740211D01*
X58921355Y-67740208D01*
X58918198Y-67735700D01*
X58756300Y-67573802D01*
X58751792Y-67570645D01*
X58751789Y-67570643D01*
X58645132Y-67495961D01*
X58568749Y-67442477D01*
X58563767Y-67440154D01*
X58563762Y-67440151D01*
X58529543Y-67424195D01*
X58476258Y-67377278D01*
X58456797Y-67309001D01*
X58477339Y-67241041D01*
X58529543Y-67195805D01*
X58563762Y-67179849D01*
X58563767Y-67179846D01*
X58568749Y-67177523D01*
X58730235Y-67064449D01*
X58751789Y-67049357D01*
X58751792Y-67049355D01*
X58756300Y-67046198D01*
X58918198Y-66884300D01*
X59049523Y-66696749D01*
X59051846Y-66691767D01*
X59051849Y-66691762D01*
X59143961Y-66494225D01*
X59143961Y-66494224D01*
X59146284Y-66489243D01*
X59205543Y-66268087D01*
X59225498Y-66040000D01*
X59205543Y-65811913D01*
X59146284Y-65590757D01*
X59080455Y-65449585D01*
X59051849Y-65388238D01*
X59051846Y-65388233D01*
X59049523Y-65383251D01*
X58918198Y-65195700D01*
X58756300Y-65033802D01*
X58751792Y-65030645D01*
X58751789Y-65030643D01*
X58673611Y-64975902D01*
X58568749Y-64902477D01*
X58563767Y-64900154D01*
X58563762Y-64900151D01*
X58529543Y-64884195D01*
X58476258Y-64837278D01*
X58456797Y-64769001D01*
X58477339Y-64701041D01*
X58529543Y-64655805D01*
X58563762Y-64639849D01*
X58563767Y-64639846D01*
X58568749Y-64637523D01*
X58673611Y-64564098D01*
X58751789Y-64509357D01*
X58751792Y-64509355D01*
X58756300Y-64506198D01*
X58918198Y-64344300D01*
X59049523Y-64156749D01*
X59051846Y-64151767D01*
X59051849Y-64151762D01*
X59143961Y-63954225D01*
X59143961Y-63954224D01*
X59146284Y-63949243D01*
X59205543Y-63728087D01*
X59225498Y-63500000D01*
X59205543Y-63271913D01*
X59146284Y-63050757D01*
X59143961Y-63045775D01*
X59051849Y-62848238D01*
X59051846Y-62848233D01*
X59049523Y-62843251D01*
X58918198Y-62655700D01*
X58756300Y-62493802D01*
X58751792Y-62490645D01*
X58751789Y-62490643D01*
X58673611Y-62435902D01*
X58568749Y-62362477D01*
X58563767Y-62360154D01*
X58563762Y-62360151D01*
X58529543Y-62344195D01*
X58476258Y-62297278D01*
X58456797Y-62229001D01*
X58477339Y-62161041D01*
X58529543Y-62115805D01*
X58563762Y-62099849D01*
X58563767Y-62099846D01*
X58568749Y-62097523D01*
X58702406Y-62003935D01*
X58751789Y-61969357D01*
X58751792Y-61969355D01*
X58756300Y-61966198D01*
X58918198Y-61804300D01*
X58953557Y-61753803D01*
X59001636Y-61685138D01*
X59049523Y-61616749D01*
X59051846Y-61611767D01*
X59051849Y-61611762D01*
X59143961Y-61414225D01*
X59143961Y-61414224D01*
X59146284Y-61409243D01*
X59167080Y-61331634D01*
X59204119Y-61193402D01*
X59204119Y-61193400D01*
X59205543Y-61188087D01*
X59225498Y-60960000D01*
X59205543Y-60731913D01*
X59182000Y-60644050D01*
X59147707Y-60516067D01*
X59147706Y-60516065D01*
X59146284Y-60510757D01*
X59143961Y-60505775D01*
X59051849Y-60308238D01*
X59051846Y-60308233D01*
X59049523Y-60303251D01*
X58955437Y-60168882D01*
X58921357Y-60120211D01*
X58921355Y-60120208D01*
X58918198Y-60115700D01*
X58756300Y-59953802D01*
X58751792Y-59950645D01*
X58751789Y-59950643D01*
X58646536Y-59876944D01*
X58568749Y-59822477D01*
X58563767Y-59820154D01*
X58563762Y-59820151D01*
X58529543Y-59804195D01*
X58476258Y-59757278D01*
X58456797Y-59689001D01*
X58477339Y-59621041D01*
X58529543Y-59575805D01*
X58563762Y-59559849D01*
X58563767Y-59559846D01*
X58568749Y-59557523D01*
X58700008Y-59465614D01*
X58751789Y-59429357D01*
X58751792Y-59429355D01*
X58756300Y-59426198D01*
X58918198Y-59264300D01*
X58940557Y-59232369D01*
X58996092Y-59153056D01*
X59049523Y-59076749D01*
X59051846Y-59071767D01*
X59051849Y-59071762D01*
X59143961Y-58874225D01*
X59143961Y-58874224D01*
X59146284Y-58869243D01*
X59153624Y-58841852D01*
X59204119Y-58653402D01*
X59204119Y-58653400D01*
X59205543Y-58648087D01*
X59225498Y-58420000D01*
X59205543Y-58191913D01*
X59194332Y-58150072D01*
X59147707Y-57976067D01*
X59147706Y-57976065D01*
X59146284Y-57970757D01*
X59099959Y-57871411D01*
X59051849Y-57768238D01*
X59051846Y-57768233D01*
X59049523Y-57763251D01*
X58950011Y-57621134D01*
X58921357Y-57580211D01*
X58921355Y-57580208D01*
X58918198Y-57575700D01*
X58756300Y-57413802D01*
X58751792Y-57410645D01*
X58751789Y-57410643D01*
X58618807Y-57317528D01*
X58568749Y-57282477D01*
X58563767Y-57280154D01*
X58563762Y-57280151D01*
X58529543Y-57264195D01*
X58476258Y-57217278D01*
X58456797Y-57149001D01*
X58477339Y-57081041D01*
X58529543Y-57035805D01*
X58563762Y-57019849D01*
X58563767Y-57019846D01*
X58568749Y-57017523D01*
X58699377Y-56926056D01*
X58751789Y-56889357D01*
X58751792Y-56889355D01*
X58756300Y-56886198D01*
X58918198Y-56724300D01*
X58929096Y-56708737D01*
X59031876Y-56561951D01*
X59049523Y-56536749D01*
X59051846Y-56531767D01*
X59051849Y-56531762D01*
X59143961Y-56334225D01*
X59143961Y-56334224D01*
X59146284Y-56329243D01*
X59182196Y-56195221D01*
X59204119Y-56113402D01*
X59204119Y-56113400D01*
X59205543Y-56108087D01*
X59225498Y-55880000D01*
X59205543Y-55651913D01*
X59198602Y-55626009D01*
X59147707Y-55436067D01*
X59147706Y-55436065D01*
X59146284Y-55430757D01*
X59143961Y-55425775D01*
X59051849Y-55228238D01*
X59051846Y-55228233D01*
X59049523Y-55223251D01*
X58918198Y-55035700D01*
X58862498Y-54980000D01*
X60056496Y-54980000D01*
X60057186Y-54986565D01*
X60075400Y-55159857D01*
X60076458Y-55169928D01*
X60135473Y-55351556D01*
X60138776Y-55357278D01*
X60138777Y-55357279D01*
X60154938Y-55385271D01*
X60230960Y-55516944D01*
X60235378Y-55521851D01*
X60235379Y-55521852D01*
X60266976Y-55556944D01*
X60358747Y-55658866D01*
X60407043Y-55693955D01*
X60507436Y-55766895D01*
X60513248Y-55771118D01*
X60519276Y-55773802D01*
X60519278Y-55773803D01*
X60681681Y-55846109D01*
X60687712Y-55848794D01*
X60781113Y-55868647D01*
X60868056Y-55887128D01*
X60868061Y-55887128D01*
X60874513Y-55888500D01*
X61065487Y-55888500D01*
X61071939Y-55887128D01*
X61071944Y-55887128D01*
X61158887Y-55868647D01*
X61252288Y-55848794D01*
X61258319Y-55846109D01*
X61420722Y-55773803D01*
X61420724Y-55773802D01*
X61426752Y-55771118D01*
X61432565Y-55766895D01*
X61532957Y-55693955D01*
X61581253Y-55658866D01*
X61673024Y-55556944D01*
X61704621Y-55521852D01*
X61704622Y-55521851D01*
X61709040Y-55516944D01*
X61785062Y-55385271D01*
X61801223Y-55357279D01*
X61801224Y-55357278D01*
X61804527Y-55351556D01*
X61863542Y-55169928D01*
X61864601Y-55159857D01*
X61882814Y-54986565D01*
X61883504Y-54980000D01*
X61863542Y-54790072D01*
X61804527Y-54608444D01*
X61709040Y-54443056D01*
X61581253Y-54301134D01*
X61481807Y-54228882D01*
X61432094Y-54192763D01*
X61432093Y-54192762D01*
X61426752Y-54188882D01*
X61420724Y-54186198D01*
X61420722Y-54186197D01*
X61258319Y-54113891D01*
X61258318Y-54113891D01*
X61252288Y-54111206D01*
X61158888Y-54091353D01*
X61071944Y-54072872D01*
X61071939Y-54072872D01*
X61065487Y-54071500D01*
X60874513Y-54071500D01*
X60868061Y-54072872D01*
X60868056Y-54072872D01*
X60781113Y-54091353D01*
X60687712Y-54111206D01*
X60681682Y-54113891D01*
X60681681Y-54113891D01*
X60519278Y-54186197D01*
X60519276Y-54186198D01*
X60513248Y-54188882D01*
X60507907Y-54192762D01*
X60507906Y-54192763D01*
X60458193Y-54228882D01*
X60358747Y-54301134D01*
X60230960Y-54443056D01*
X60135473Y-54608444D01*
X60076458Y-54790072D01*
X60056496Y-54980000D01*
X58862498Y-54980000D01*
X58756300Y-54873802D01*
X58751792Y-54870645D01*
X58751789Y-54870643D01*
X58646094Y-54796635D01*
X58568749Y-54742477D01*
X58563767Y-54740154D01*
X58563762Y-54740151D01*
X58366225Y-54648039D01*
X58366224Y-54648039D01*
X58361243Y-54645716D01*
X58355935Y-54644294D01*
X58355933Y-54644293D01*
X58145402Y-54587881D01*
X58145400Y-54587881D01*
X58140087Y-54586457D01*
X57912000Y-54566502D01*
X57683913Y-54586457D01*
X57678600Y-54587881D01*
X57678598Y-54587881D01*
X57468067Y-54644293D01*
X57468065Y-54644294D01*
X57462757Y-54645716D01*
X57457776Y-54648039D01*
X57457775Y-54648039D01*
X57260238Y-54740151D01*
X57260233Y-54740154D01*
X57255251Y-54742477D01*
X57177906Y-54796635D01*
X57072211Y-54870643D01*
X57072208Y-54870645D01*
X57067700Y-54873802D01*
X56905802Y-55035700D01*
X56774477Y-55223251D01*
X56772154Y-55228233D01*
X56772151Y-55228238D01*
X56756195Y-55262457D01*
X56709278Y-55315742D01*
X56641001Y-55335203D01*
X56573041Y-55314661D01*
X56527805Y-55262457D01*
X56511849Y-55228238D01*
X56511846Y-55228233D01*
X56509523Y-55223251D01*
X56378198Y-55035700D01*
X56216300Y-54873802D01*
X56211792Y-54870645D01*
X56211789Y-54870643D01*
X56106094Y-54796635D01*
X56028749Y-54742477D01*
X56023767Y-54740154D01*
X56023762Y-54740151D01*
X55826225Y-54648039D01*
X55826224Y-54648039D01*
X55821243Y-54645716D01*
X55815935Y-54644294D01*
X55815933Y-54644293D01*
X55605402Y-54587881D01*
X55605400Y-54587881D01*
X55600087Y-54586457D01*
X55372000Y-54566502D01*
X55143913Y-54586457D01*
X55138600Y-54587881D01*
X55138598Y-54587881D01*
X54928067Y-54644293D01*
X54928065Y-54644294D01*
X54922757Y-54645716D01*
X54917776Y-54648039D01*
X54917775Y-54648039D01*
X54720238Y-54740151D01*
X54720233Y-54740154D01*
X54715251Y-54742477D01*
X54637906Y-54796635D01*
X54532211Y-54870643D01*
X54532208Y-54870645D01*
X54527700Y-54873802D01*
X54365802Y-55035700D01*
X54234477Y-55223251D01*
X54232154Y-55228233D01*
X54232151Y-55228238D01*
X54140039Y-55425775D01*
X54137716Y-55430757D01*
X54136294Y-55436065D01*
X54136293Y-55436067D01*
X54085398Y-55626009D01*
X54078457Y-55651913D01*
X54058502Y-55880000D01*
X54078457Y-56108087D01*
X54079881Y-56113400D01*
X54079881Y-56113402D01*
X54101805Y-56195221D01*
X54137716Y-56329243D01*
X54140039Y-56334224D01*
X54140039Y-56334225D01*
X54232151Y-56531762D01*
X54232154Y-56531767D01*
X54234477Y-56536749D01*
X54252124Y-56561951D01*
X54354905Y-56708737D01*
X54365802Y-56724300D01*
X54527700Y-56886198D01*
X54532208Y-56889355D01*
X54532211Y-56889357D01*
X54584623Y-56926056D01*
X54715251Y-57017523D01*
X54720233Y-57019846D01*
X54720238Y-57019849D01*
X54754457Y-57035805D01*
X54807742Y-57082722D01*
X54827203Y-57150999D01*
X54806661Y-57218959D01*
X54754457Y-57264195D01*
X54720238Y-57280151D01*
X54720233Y-57280154D01*
X54715251Y-57282477D01*
X54665193Y-57317528D01*
X54532211Y-57410643D01*
X54532208Y-57410645D01*
X54527700Y-57413802D01*
X54365802Y-57575700D01*
X54362645Y-57580208D01*
X54362643Y-57580211D01*
X54333989Y-57621134D01*
X54234477Y-57763251D01*
X54232154Y-57768233D01*
X54232151Y-57768238D01*
X54184041Y-57871411D01*
X54137716Y-57970757D01*
X54136294Y-57976065D01*
X54136293Y-57976067D01*
X54089668Y-58150072D01*
X54078457Y-58191913D01*
X54058502Y-58420000D01*
X54078457Y-58648087D01*
X54079881Y-58653400D01*
X54079881Y-58653402D01*
X54130377Y-58841852D01*
X54137716Y-58869243D01*
X54140039Y-58874224D01*
X54140039Y-58874225D01*
X54232151Y-59071762D01*
X54232154Y-59071767D01*
X54234477Y-59076749D01*
X54287908Y-59153056D01*
X54343444Y-59232369D01*
X54365802Y-59264300D01*
X54527700Y-59426198D01*
X54532208Y-59429355D01*
X54532211Y-59429357D01*
X54583992Y-59465614D01*
X54715251Y-59557523D01*
X54720233Y-59559846D01*
X54720238Y-59559849D01*
X54754457Y-59575805D01*
X54807742Y-59622722D01*
X54827203Y-59690999D01*
X54806661Y-59758959D01*
X54754457Y-59804195D01*
X54720238Y-59820151D01*
X54720233Y-59820154D01*
X54715251Y-59822477D01*
X54637464Y-59876944D01*
X54532211Y-59950643D01*
X54532208Y-59950645D01*
X54527700Y-59953802D01*
X54365802Y-60115700D01*
X54362645Y-60120208D01*
X54362643Y-60120211D01*
X54328563Y-60168882D01*
X54234477Y-60303251D01*
X54232154Y-60308233D01*
X54232151Y-60308238D01*
X54140039Y-60505775D01*
X54137716Y-60510757D01*
X54136294Y-60516065D01*
X54136293Y-60516067D01*
X54102000Y-60644050D01*
X54078457Y-60731913D01*
X54058502Y-60960000D01*
X54078457Y-61188087D01*
X54079881Y-61193400D01*
X54079881Y-61193402D01*
X54116921Y-61331634D01*
X54137716Y-61409243D01*
X54140039Y-61414224D01*
X54140039Y-61414225D01*
X54232151Y-61611762D01*
X54232154Y-61611767D01*
X54234477Y-61616749D01*
X54282364Y-61685138D01*
X54330444Y-61753803D01*
X54365802Y-61804300D01*
X54527700Y-61966198D01*
X54532208Y-61969355D01*
X54532211Y-61969357D01*
X54581594Y-62003935D01*
X54715251Y-62097523D01*
X54720233Y-62099846D01*
X54720238Y-62099849D01*
X54754457Y-62115805D01*
X54807742Y-62162722D01*
X54827203Y-62230999D01*
X54806661Y-62298959D01*
X54754457Y-62344195D01*
X54720238Y-62360151D01*
X54720233Y-62360154D01*
X54715251Y-62362477D01*
X54610389Y-62435902D01*
X54532211Y-62490643D01*
X54532208Y-62490645D01*
X54527700Y-62493802D01*
X54365802Y-62655700D01*
X54234477Y-62843251D01*
X54232154Y-62848233D01*
X54232151Y-62848238D01*
X54140039Y-63045775D01*
X54137716Y-63050757D01*
X54078457Y-63271913D01*
X54058502Y-63500000D01*
X54078457Y-63728087D01*
X54137716Y-63949243D01*
X54140039Y-63954224D01*
X54140039Y-63954225D01*
X54232151Y-64151762D01*
X54232154Y-64151767D01*
X54234477Y-64156749D01*
X54365802Y-64344300D01*
X54527700Y-64506198D01*
X54532208Y-64509355D01*
X54532211Y-64509357D01*
X54610389Y-64564098D01*
X54715251Y-64637523D01*
X54720233Y-64639846D01*
X54720238Y-64639849D01*
X54754457Y-64655805D01*
X54807742Y-64702722D01*
X54827203Y-64770999D01*
X54806661Y-64838959D01*
X54754457Y-64884195D01*
X54720238Y-64900151D01*
X54720233Y-64900154D01*
X54715251Y-64902477D01*
X54610389Y-64975902D01*
X54532211Y-65030643D01*
X54532208Y-65030645D01*
X54527700Y-65033802D01*
X54365802Y-65195700D01*
X54234477Y-65383251D01*
X54232154Y-65388233D01*
X54232151Y-65388238D01*
X54203545Y-65449585D01*
X54137716Y-65590757D01*
X54078457Y-65811913D01*
X54058502Y-66040000D01*
X54078457Y-66268087D01*
X54137716Y-66489243D01*
X54140039Y-66494224D01*
X54140039Y-66494225D01*
X54232151Y-66691762D01*
X54232154Y-66691767D01*
X54234477Y-66696749D01*
X54365802Y-66884300D01*
X54527700Y-67046198D01*
X54532208Y-67049355D01*
X54532211Y-67049357D01*
X54553765Y-67064449D01*
X54715251Y-67177523D01*
X54720233Y-67179846D01*
X54720238Y-67179849D01*
X54754457Y-67195805D01*
X54807742Y-67242722D01*
X54827203Y-67310999D01*
X54806661Y-67378959D01*
X54754457Y-67424195D01*
X54720238Y-67440151D01*
X54720233Y-67440154D01*
X54715251Y-67442477D01*
X54638868Y-67495961D01*
X54532211Y-67570643D01*
X54532208Y-67570645D01*
X54527700Y-67573802D01*
X54365802Y-67735700D01*
X54362645Y-67740208D01*
X54362643Y-67740211D01*
X54307902Y-67818389D01*
X54234477Y-67923251D01*
X54232154Y-67928233D01*
X54232151Y-67928238D01*
X54197825Y-68001851D01*
X54137716Y-68130757D01*
X54136294Y-68136065D01*
X54136293Y-68136067D01*
X54086198Y-68323023D01*
X54078457Y-68351913D01*
X54058502Y-68580000D01*
X54078457Y-68808087D01*
X54079881Y-68813400D01*
X54079881Y-68813402D01*
X54129889Y-69000031D01*
X54137716Y-69029243D01*
X54140039Y-69034224D01*
X54140039Y-69034225D01*
X54232151Y-69231762D01*
X54232154Y-69231767D01*
X54234477Y-69236749D01*
X54365802Y-69424300D01*
X54527700Y-69586198D01*
X54532208Y-69589355D01*
X54532211Y-69589357D01*
X54610351Y-69644071D01*
X54715251Y-69717523D01*
X54720233Y-69719846D01*
X54720238Y-69719849D01*
X54754457Y-69735805D01*
X54807742Y-69782722D01*
X54827203Y-69850999D01*
X54806661Y-69918959D01*
X54754457Y-69964195D01*
X54720238Y-69980151D01*
X54720233Y-69980154D01*
X54715251Y-69982477D01*
X54610389Y-70055902D01*
X54532211Y-70110643D01*
X54532208Y-70110645D01*
X54527700Y-70113802D01*
X54365802Y-70275700D01*
X54362645Y-70280208D01*
X54362643Y-70280211D01*
X54307902Y-70358389D01*
X54234477Y-70463251D01*
X54232154Y-70468233D01*
X54232151Y-70468238D01*
X54173505Y-70594007D01*
X54137716Y-70670757D01*
X54136294Y-70676065D01*
X54136293Y-70676067D01*
X54086198Y-70863023D01*
X54078457Y-70891913D01*
X54058502Y-71120000D01*
X43985498Y-71120000D01*
X43965543Y-70891913D01*
X43957802Y-70863023D01*
X43907707Y-70676067D01*
X43907706Y-70676065D01*
X43906284Y-70670757D01*
X43870495Y-70594007D01*
X43811849Y-70468238D01*
X43811846Y-70468233D01*
X43809523Y-70463251D01*
X43736098Y-70358389D01*
X43681357Y-70280211D01*
X43681355Y-70280208D01*
X43678198Y-70275700D01*
X43516300Y-70113802D01*
X43511792Y-70110645D01*
X43511789Y-70110643D01*
X43433611Y-70055902D01*
X43328749Y-69982477D01*
X43323767Y-69980154D01*
X43323762Y-69980151D01*
X43126225Y-69888039D01*
X43126224Y-69888039D01*
X43121243Y-69885716D01*
X43115935Y-69884294D01*
X43115933Y-69884293D01*
X42905402Y-69827881D01*
X42905400Y-69827881D01*
X42900087Y-69826457D01*
X42672000Y-69806502D01*
X42443913Y-69826457D01*
X42438600Y-69827881D01*
X42438598Y-69827881D01*
X42228067Y-69884293D01*
X42228065Y-69884294D01*
X42222757Y-69885716D01*
X42217776Y-69888039D01*
X42217775Y-69888039D01*
X42020238Y-69980151D01*
X42020233Y-69980154D01*
X42015251Y-69982477D01*
X41910389Y-70055902D01*
X41832211Y-70110643D01*
X41832208Y-70110645D01*
X41827700Y-70113802D01*
X41665802Y-70275700D01*
X41662645Y-70280208D01*
X41662643Y-70280211D01*
X41607902Y-70358389D01*
X41534477Y-70463251D01*
X41532154Y-70468233D01*
X41532151Y-70468238D01*
X41516195Y-70502457D01*
X41469278Y-70555742D01*
X41401001Y-70575203D01*
X41333041Y-70554661D01*
X41287805Y-70502457D01*
X41271849Y-70468238D01*
X41271846Y-70468233D01*
X41269523Y-70463251D01*
X41196098Y-70358389D01*
X41141357Y-70280211D01*
X41141355Y-70280208D01*
X41138198Y-70275700D01*
X40976300Y-70113802D01*
X40971792Y-70110645D01*
X40971789Y-70110643D01*
X40893611Y-70055902D01*
X40788749Y-69982477D01*
X40783767Y-69980154D01*
X40783762Y-69980151D01*
X40749543Y-69964195D01*
X40696258Y-69917278D01*
X40676797Y-69849001D01*
X40697339Y-69781041D01*
X40749543Y-69735805D01*
X40783762Y-69719849D01*
X40783767Y-69719846D01*
X40788749Y-69717523D01*
X40893649Y-69644071D01*
X40971789Y-69589357D01*
X40971792Y-69589355D01*
X40976300Y-69586198D01*
X41138198Y-69424300D01*
X41269523Y-69236749D01*
X41271846Y-69231767D01*
X41271849Y-69231762D01*
X41363961Y-69034225D01*
X41363961Y-69034224D01*
X41366284Y-69029243D01*
X41374112Y-69000031D01*
X41424119Y-68813402D01*
X41424119Y-68813400D01*
X41425543Y-68808087D01*
X41445498Y-68580000D01*
X41425543Y-68351913D01*
X41417802Y-68323023D01*
X41367707Y-68136067D01*
X41367706Y-68136065D01*
X41366284Y-68130757D01*
X41306175Y-68001851D01*
X41271849Y-67928238D01*
X41271846Y-67928233D01*
X41269523Y-67923251D01*
X41196098Y-67818389D01*
X41141357Y-67740211D01*
X41141355Y-67740208D01*
X41138198Y-67735700D01*
X40976300Y-67573802D01*
X40971792Y-67570645D01*
X40971789Y-67570643D01*
X40865132Y-67495961D01*
X40788749Y-67442477D01*
X40783767Y-67440154D01*
X40783762Y-67440151D01*
X40749543Y-67424195D01*
X40696258Y-67377278D01*
X40676797Y-67309001D01*
X40697339Y-67241041D01*
X40749543Y-67195805D01*
X40783762Y-67179849D01*
X40783767Y-67179846D01*
X40788749Y-67177523D01*
X40950235Y-67064449D01*
X40971789Y-67049357D01*
X40971792Y-67049355D01*
X40976300Y-67046198D01*
X41138198Y-66884300D01*
X41269523Y-66696749D01*
X41271846Y-66691767D01*
X41271849Y-66691762D01*
X41287805Y-66657543D01*
X41334722Y-66604258D01*
X41402999Y-66584797D01*
X41470959Y-66605339D01*
X41516195Y-66657543D01*
X41532151Y-66691762D01*
X41532154Y-66691767D01*
X41534477Y-66696749D01*
X41665802Y-66884300D01*
X41827700Y-67046198D01*
X41832208Y-67049355D01*
X41832211Y-67049357D01*
X41853765Y-67064449D01*
X42015251Y-67177523D01*
X42020233Y-67179846D01*
X42020238Y-67179849D01*
X42217775Y-67271961D01*
X42222757Y-67274284D01*
X42228065Y-67275706D01*
X42228067Y-67275707D01*
X42438598Y-67332119D01*
X42438600Y-67332119D01*
X42443913Y-67333543D01*
X42672000Y-67353498D01*
X42900087Y-67333543D01*
X42905400Y-67332119D01*
X42905402Y-67332119D01*
X43115933Y-67275707D01*
X43115935Y-67275706D01*
X43121243Y-67274284D01*
X43126225Y-67271961D01*
X43323762Y-67179849D01*
X43323767Y-67179846D01*
X43328749Y-67177523D01*
X43490235Y-67064449D01*
X43511789Y-67049357D01*
X43511792Y-67049355D01*
X43516300Y-67046198D01*
X43678198Y-66884300D01*
X43809523Y-66696749D01*
X43811846Y-66691767D01*
X43811849Y-66691762D01*
X43903961Y-66494225D01*
X43903961Y-66494224D01*
X43906284Y-66489243D01*
X43965543Y-66268087D01*
X43985498Y-66040000D01*
X43965543Y-65811913D01*
X43906284Y-65590757D01*
X43840455Y-65449585D01*
X43811849Y-65388238D01*
X43811846Y-65388233D01*
X43809523Y-65383251D01*
X43678198Y-65195700D01*
X43516300Y-65033802D01*
X43511792Y-65030645D01*
X43511789Y-65030643D01*
X43433611Y-64975902D01*
X43328749Y-64902477D01*
X43323767Y-64900154D01*
X43323762Y-64900151D01*
X43289543Y-64884195D01*
X43236258Y-64837278D01*
X43216797Y-64769001D01*
X43237339Y-64701041D01*
X43289543Y-64655805D01*
X43323762Y-64639849D01*
X43323767Y-64639846D01*
X43328749Y-64637523D01*
X43433611Y-64564098D01*
X43511789Y-64509357D01*
X43511792Y-64509355D01*
X43516300Y-64506198D01*
X43678198Y-64344300D01*
X43809523Y-64156749D01*
X43811846Y-64151767D01*
X43811849Y-64151762D01*
X43903961Y-63954225D01*
X43903961Y-63954224D01*
X43906284Y-63949243D01*
X43965543Y-63728087D01*
X43985498Y-63500000D01*
X43965543Y-63271913D01*
X43906284Y-63050757D01*
X43903961Y-63045775D01*
X43811849Y-62848238D01*
X43811846Y-62848233D01*
X43809523Y-62843251D01*
X43678198Y-62655700D01*
X43516300Y-62493802D01*
X43511792Y-62490645D01*
X43511789Y-62490643D01*
X43433611Y-62435902D01*
X43328749Y-62362477D01*
X43323767Y-62360154D01*
X43323762Y-62360151D01*
X43289543Y-62344195D01*
X43236258Y-62297278D01*
X43216797Y-62229001D01*
X43237339Y-62161041D01*
X43289543Y-62115805D01*
X43323762Y-62099849D01*
X43323767Y-62099846D01*
X43328749Y-62097523D01*
X43462406Y-62003935D01*
X43511789Y-61969357D01*
X43511792Y-61969355D01*
X43516300Y-61966198D01*
X43678198Y-61804300D01*
X43713557Y-61753803D01*
X43761636Y-61685138D01*
X43809523Y-61616749D01*
X43811846Y-61611767D01*
X43811849Y-61611762D01*
X43903961Y-61414225D01*
X43903961Y-61414224D01*
X43906284Y-61409243D01*
X43927080Y-61331634D01*
X43964119Y-61193402D01*
X43964119Y-61193400D01*
X43965543Y-61188087D01*
X43985498Y-60960000D01*
X43965543Y-60731913D01*
X43942000Y-60644050D01*
X43907707Y-60516067D01*
X43907706Y-60516065D01*
X43906284Y-60510757D01*
X43903961Y-60505775D01*
X43811849Y-60308238D01*
X43811846Y-60308233D01*
X43809523Y-60303251D01*
X43715437Y-60168882D01*
X43681357Y-60120211D01*
X43681355Y-60120208D01*
X43678198Y-60115700D01*
X43516300Y-59953802D01*
X43511792Y-59950645D01*
X43511789Y-59950643D01*
X43406536Y-59876944D01*
X43328749Y-59822477D01*
X43323767Y-59820154D01*
X43323762Y-59820151D01*
X43289543Y-59804195D01*
X43236258Y-59757278D01*
X43216797Y-59689001D01*
X43237339Y-59621041D01*
X43289543Y-59575805D01*
X43323762Y-59559849D01*
X43323767Y-59559846D01*
X43328749Y-59557523D01*
X43460008Y-59465614D01*
X43511789Y-59429357D01*
X43511792Y-59429355D01*
X43516300Y-59426198D01*
X43678198Y-59264300D01*
X43700557Y-59232369D01*
X43756092Y-59153056D01*
X43809523Y-59076749D01*
X43811846Y-59071767D01*
X43811849Y-59071762D01*
X43903961Y-58874225D01*
X43903961Y-58874224D01*
X43906284Y-58869243D01*
X43913624Y-58841852D01*
X43964119Y-58653402D01*
X43964119Y-58653400D01*
X43965543Y-58648087D01*
X43985498Y-58420000D01*
X43965543Y-58191913D01*
X43954332Y-58150072D01*
X43907707Y-57976067D01*
X43907706Y-57976065D01*
X43906284Y-57970757D01*
X43859959Y-57871411D01*
X43811849Y-57768238D01*
X43811846Y-57768233D01*
X43809523Y-57763251D01*
X43710011Y-57621134D01*
X43681357Y-57580211D01*
X43681355Y-57580208D01*
X43678198Y-57575700D01*
X43516300Y-57413802D01*
X43511792Y-57410645D01*
X43511789Y-57410643D01*
X43378807Y-57317528D01*
X43328749Y-57282477D01*
X43323767Y-57280154D01*
X43323762Y-57280151D01*
X43289543Y-57264195D01*
X43236258Y-57217278D01*
X43216797Y-57149001D01*
X43237339Y-57081041D01*
X43289543Y-57035805D01*
X43323762Y-57019849D01*
X43323767Y-57019846D01*
X43328749Y-57017523D01*
X43459377Y-56926056D01*
X43511789Y-56889357D01*
X43511792Y-56889355D01*
X43516300Y-56886198D01*
X43678198Y-56724300D01*
X43689096Y-56708737D01*
X43791876Y-56561951D01*
X43809523Y-56536749D01*
X43811846Y-56531767D01*
X43811849Y-56531762D01*
X43903961Y-56334225D01*
X43903961Y-56334224D01*
X43906284Y-56329243D01*
X43942196Y-56195221D01*
X43964119Y-56113402D01*
X43964119Y-56113400D01*
X43965543Y-56108087D01*
X43966022Y-56102611D01*
X43966023Y-56102606D01*
X43972101Y-56033127D01*
X43997964Y-55967008D01*
X44055468Y-55925369D01*
X44071425Y-55920861D01*
X44222288Y-55888794D01*
X44242040Y-55880000D01*
X44390722Y-55813803D01*
X44390724Y-55813802D01*
X44396752Y-55811118D01*
X44448112Y-55773803D01*
X44509312Y-55729338D01*
X44551253Y-55698866D01*
X44587269Y-55658866D01*
X44674621Y-55561852D01*
X44674622Y-55561851D01*
X44679040Y-55556944D01*
X44774527Y-55391556D01*
X44833542Y-55209928D01*
X44837517Y-55172113D01*
X44852814Y-55026565D01*
X44853504Y-55020000D01*
X44833542Y-54830072D01*
X44774527Y-54648444D01*
X44679040Y-54483056D01*
X44648173Y-54448774D01*
X44555675Y-54346045D01*
X44555674Y-54346044D01*
X44551253Y-54341134D01*
X44396752Y-54228882D01*
X44390724Y-54226198D01*
X44390722Y-54226197D01*
X44228319Y-54153891D01*
X44228318Y-54153891D01*
X44222288Y-54151206D01*
X44123303Y-54130166D01*
X44041944Y-54112872D01*
X44041939Y-54112872D01*
X44035487Y-54111500D01*
X43844513Y-54111500D01*
X43838061Y-54112872D01*
X43838056Y-54112872D01*
X43756697Y-54130166D01*
X43657712Y-54151206D01*
X43651682Y-54153891D01*
X43651681Y-54153891D01*
X43489278Y-54226197D01*
X43489276Y-54226198D01*
X43483248Y-54228882D01*
X43328747Y-54341134D01*
X43324326Y-54346044D01*
X43324325Y-54346045D01*
X43231828Y-54448774D01*
X43200960Y-54483056D01*
X43197659Y-54488774D01*
X43197656Y-54488778D01*
X43157292Y-54558691D01*
X43105910Y-54607685D01*
X43036197Y-54621122D01*
X43015568Y-54617400D01*
X42900087Y-54586457D01*
X42672000Y-54566502D01*
X42443913Y-54586457D01*
X42438600Y-54587881D01*
X42438598Y-54587881D01*
X42228067Y-54644293D01*
X42228065Y-54644294D01*
X42222757Y-54645716D01*
X42217776Y-54648039D01*
X42217775Y-54648039D01*
X42020238Y-54740151D01*
X42020233Y-54740154D01*
X42015251Y-54742477D01*
X41937906Y-54796635D01*
X41832211Y-54870643D01*
X41832208Y-54870645D01*
X41827700Y-54873802D01*
X41665802Y-55035700D01*
X41534477Y-55223251D01*
X41532154Y-55228233D01*
X41532151Y-55228238D01*
X41516195Y-55262457D01*
X41469278Y-55315742D01*
X41401001Y-55335203D01*
X41333041Y-55314661D01*
X41287805Y-55262457D01*
X41271849Y-55228238D01*
X41271846Y-55228233D01*
X41269523Y-55223251D01*
X41138198Y-55035700D01*
X40976300Y-54873802D01*
X40971792Y-54870645D01*
X40971789Y-54870643D01*
X40866094Y-54796635D01*
X40788749Y-54742477D01*
X40783767Y-54740154D01*
X40783762Y-54740151D01*
X40586225Y-54648039D01*
X40586224Y-54648039D01*
X40581243Y-54645716D01*
X40575935Y-54644294D01*
X40575933Y-54644293D01*
X40365402Y-54587881D01*
X40365400Y-54587881D01*
X40360087Y-54586457D01*
X40132000Y-54566502D01*
X39903913Y-54586457D01*
X39898600Y-54587881D01*
X39898598Y-54587881D01*
X39688067Y-54644293D01*
X39688065Y-54644294D01*
X39682757Y-54645716D01*
X39677776Y-54648039D01*
X39677775Y-54648039D01*
X39480238Y-54740151D01*
X39480233Y-54740154D01*
X39475251Y-54742477D01*
X39397906Y-54796635D01*
X39292211Y-54870643D01*
X39292208Y-54870645D01*
X39287700Y-54873802D01*
X39125802Y-55035700D01*
X38994477Y-55223251D01*
X38992154Y-55228233D01*
X38992151Y-55228238D01*
X38900039Y-55425775D01*
X38897716Y-55430757D01*
X38896294Y-55436065D01*
X38896293Y-55436067D01*
X38845398Y-55626009D01*
X38838457Y-55651913D01*
X38818502Y-55880000D01*
X38838457Y-56108087D01*
X38839881Y-56113400D01*
X38839881Y-56113402D01*
X38861805Y-56195221D01*
X38897716Y-56329243D01*
X38900039Y-56334224D01*
X38900039Y-56334225D01*
X38992151Y-56531762D01*
X38992154Y-56531767D01*
X38994477Y-56536749D01*
X39012124Y-56561951D01*
X39114905Y-56708737D01*
X39125802Y-56724300D01*
X39287700Y-56886198D01*
X39292208Y-56889355D01*
X39292211Y-56889357D01*
X39344623Y-56926056D01*
X39475251Y-57017523D01*
X39480233Y-57019846D01*
X39480238Y-57019849D01*
X39514457Y-57035805D01*
X39567742Y-57082722D01*
X39587203Y-57150999D01*
X39566661Y-57218959D01*
X39514457Y-57264195D01*
X39480238Y-57280151D01*
X39480233Y-57280154D01*
X39475251Y-57282477D01*
X39425193Y-57317528D01*
X39292211Y-57410643D01*
X39292208Y-57410645D01*
X39287700Y-57413802D01*
X39125802Y-57575700D01*
X39122645Y-57580208D01*
X39122643Y-57580211D01*
X39093989Y-57621134D01*
X38994477Y-57763251D01*
X38992154Y-57768233D01*
X38992151Y-57768238D01*
X38944041Y-57871411D01*
X38897716Y-57970757D01*
X38896294Y-57976065D01*
X38896293Y-57976067D01*
X38849668Y-58150072D01*
X38838457Y-58191913D01*
X38818502Y-58420000D01*
X38838457Y-58648087D01*
X38839881Y-58653400D01*
X38839881Y-58653402D01*
X38890377Y-58841852D01*
X38897716Y-58869243D01*
X38900039Y-58874224D01*
X38900039Y-58874225D01*
X38992151Y-59071762D01*
X38992154Y-59071767D01*
X38994477Y-59076749D01*
X39047908Y-59153056D01*
X39103444Y-59232369D01*
X39125802Y-59264300D01*
X39287700Y-59426198D01*
X39292208Y-59429355D01*
X39292211Y-59429357D01*
X39343992Y-59465614D01*
X39475251Y-59557523D01*
X39480233Y-59559846D01*
X39480238Y-59559849D01*
X39514457Y-59575805D01*
X39567742Y-59622722D01*
X39587203Y-59690999D01*
X39566661Y-59758959D01*
X39514457Y-59804195D01*
X39480238Y-59820151D01*
X39480233Y-59820154D01*
X39475251Y-59822477D01*
X39397464Y-59876944D01*
X39292211Y-59950643D01*
X39292208Y-59950645D01*
X39287700Y-59953802D01*
X39125802Y-60115700D01*
X39122645Y-60120208D01*
X39122643Y-60120211D01*
X39088563Y-60168882D01*
X38994477Y-60303251D01*
X38992154Y-60308233D01*
X38992151Y-60308238D01*
X38900039Y-60505775D01*
X38897716Y-60510757D01*
X38896294Y-60516065D01*
X38896293Y-60516067D01*
X38862000Y-60644050D01*
X38838457Y-60731913D01*
X38818502Y-60960000D01*
X38838457Y-61188087D01*
X38839881Y-61193400D01*
X38839881Y-61193402D01*
X38876921Y-61331634D01*
X38897716Y-61409243D01*
X38900039Y-61414224D01*
X38900039Y-61414225D01*
X38992151Y-61611762D01*
X38992154Y-61611767D01*
X38994477Y-61616749D01*
X39042364Y-61685138D01*
X39090444Y-61753803D01*
X39125802Y-61804300D01*
X39287700Y-61966198D01*
X39292208Y-61969355D01*
X39292211Y-61969357D01*
X39341594Y-62003935D01*
X39475251Y-62097523D01*
X39480233Y-62099846D01*
X39480238Y-62099849D01*
X39514457Y-62115805D01*
X39567742Y-62162722D01*
X39587203Y-62230999D01*
X39566661Y-62298959D01*
X39514457Y-62344195D01*
X39480238Y-62360151D01*
X39480233Y-62360154D01*
X39475251Y-62362477D01*
X39370389Y-62435902D01*
X39292211Y-62490643D01*
X39292208Y-62490645D01*
X39287700Y-62493802D01*
X39125802Y-62655700D01*
X38994477Y-62843251D01*
X38992154Y-62848233D01*
X38992151Y-62848238D01*
X38900039Y-63045775D01*
X38897716Y-63050757D01*
X38838457Y-63271913D01*
X38818502Y-63500000D01*
X38838457Y-63728087D01*
X38897716Y-63949243D01*
X38900039Y-63954224D01*
X38900039Y-63954225D01*
X38992151Y-64151762D01*
X38992154Y-64151767D01*
X38994477Y-64156749D01*
X39125802Y-64344300D01*
X39287700Y-64506198D01*
X39292208Y-64509355D01*
X39292211Y-64509357D01*
X39370389Y-64564098D01*
X39475251Y-64637523D01*
X39480233Y-64639846D01*
X39480238Y-64639849D01*
X39514457Y-64655805D01*
X39567742Y-64702722D01*
X39587203Y-64770999D01*
X39566661Y-64838959D01*
X39514457Y-64884195D01*
X39480238Y-64900151D01*
X39480233Y-64900154D01*
X39475251Y-64902477D01*
X39370389Y-64975902D01*
X39292211Y-65030643D01*
X39292208Y-65030645D01*
X39287700Y-65033802D01*
X39125802Y-65195700D01*
X38994477Y-65383251D01*
X38992154Y-65388233D01*
X38992151Y-65388238D01*
X38963545Y-65449585D01*
X38897716Y-65590757D01*
X38838457Y-65811913D01*
X38818502Y-66040000D01*
X38838457Y-66268087D01*
X38839879Y-66273392D01*
X38839881Y-66273406D01*
X38855459Y-66331539D01*
X38853771Y-66402516D01*
X38822848Y-66453248D01*
X38564934Y-66711161D01*
X38307742Y-66968353D01*
X38299463Y-66975887D01*
X38292982Y-66980000D01*
X38267130Y-67007530D01*
X38246357Y-67029651D01*
X38243602Y-67032493D01*
X38223865Y-67052230D01*
X38221385Y-67055427D01*
X38213682Y-67064447D01*
X38183414Y-67096679D01*
X38179595Y-67103625D01*
X38179593Y-67103628D01*
X38173652Y-67114434D01*
X38162801Y-67130953D01*
X38150386Y-67146959D01*
X38147241Y-67154228D01*
X38147238Y-67154232D01*
X38132826Y-67187537D01*
X38127609Y-67198187D01*
X38106305Y-67236940D01*
X38104334Y-67244615D01*
X38104334Y-67244616D01*
X38101267Y-67256562D01*
X38094863Y-67275266D01*
X38086819Y-67293855D01*
X38085580Y-67301678D01*
X38085577Y-67301688D01*
X38079901Y-67337524D01*
X38077495Y-67349144D01*
X38069190Y-67381492D01*
X38066500Y-67391970D01*
X38066500Y-67412224D01*
X38064949Y-67431934D01*
X38061780Y-67451943D01*
X38062526Y-67459835D01*
X38065941Y-67495961D01*
X38066500Y-67507819D01*
X38066500Y-70512181D01*
X38046498Y-70580302D01*
X37991749Y-70627288D01*
X37949278Y-70646197D01*
X37949276Y-70646198D01*
X37943248Y-70648882D01*
X37788747Y-70761134D01*
X37660960Y-70903056D01*
X37657659Y-70908774D01*
X37571688Y-71057680D01*
X37565473Y-71068444D01*
X37506458Y-71250072D01*
X37486496Y-71440000D01*
X37148500Y-71440000D01*
X37148500Y-49677700D01*
X37954196Y-49677700D01*
X37974158Y-49867628D01*
X38033173Y-50049256D01*
X38128660Y-50214644D01*
X38133078Y-50219551D01*
X38133079Y-50219552D01*
X38247111Y-50346197D01*
X38256447Y-50356566D01*
X38410948Y-50468818D01*
X38416976Y-50471502D01*
X38416978Y-50471503D01*
X38579381Y-50543809D01*
X38585412Y-50546494D01*
X38678813Y-50566347D01*
X38765756Y-50584828D01*
X38765761Y-50584828D01*
X38772213Y-50586200D01*
X38963187Y-50586200D01*
X38969639Y-50584828D01*
X38969644Y-50584828D01*
X39056587Y-50566347D01*
X39149988Y-50546494D01*
X39156019Y-50543809D01*
X39318422Y-50471503D01*
X39318424Y-50471502D01*
X39324452Y-50468818D01*
X39478953Y-50356566D01*
X39488289Y-50346197D01*
X39602321Y-50219552D01*
X39602322Y-50219551D01*
X39606740Y-50214644D01*
X39684477Y-50080000D01*
X46346496Y-50080000D01*
X46347186Y-50086565D01*
X46360047Y-50208926D01*
X46366458Y-50269928D01*
X46425473Y-50451556D01*
X46428776Y-50457278D01*
X46428777Y-50457279D01*
X46433838Y-50466045D01*
X46520960Y-50616944D01*
X46525378Y-50621851D01*
X46525379Y-50621852D01*
X46600918Y-50705747D01*
X46648747Y-50758866D01*
X46733345Y-50820330D01*
X46776698Y-50876551D01*
X46782773Y-50947287D01*
X46749642Y-51010079D01*
X46733344Y-51024201D01*
X46668747Y-51071134D01*
X46664326Y-51076044D01*
X46664325Y-51076045D01*
X46613388Y-51132617D01*
X46540960Y-51213056D01*
X46445473Y-51378444D01*
X46386458Y-51560072D01*
X46385768Y-51566633D01*
X46385768Y-51566635D01*
X46371794Y-51699588D01*
X46366496Y-51750000D01*
X46367186Y-51756565D01*
X46384528Y-51921562D01*
X46386458Y-51939928D01*
X46445473Y-52121556D01*
X46540960Y-52286944D01*
X46545375Y-52291847D01*
X46545379Y-52291852D01*
X46645342Y-52402872D01*
X46668747Y-52428866D01*
X46669068Y-52429100D01*
X46705099Y-52487585D01*
X46703746Y-52558569D01*
X46677187Y-52605079D01*
X46570960Y-52723056D01*
X46475473Y-52888444D01*
X46416458Y-53070072D01*
X46396496Y-53260000D01*
X46397186Y-53266565D01*
X46407490Y-53364598D01*
X46416458Y-53449928D01*
X46475473Y-53631556D01*
X46478776Y-53637278D01*
X46478777Y-53637279D01*
X46484045Y-53646403D01*
X46570960Y-53796944D01*
X46575378Y-53801851D01*
X46575379Y-53801852D01*
X46615980Y-53846944D01*
X46698747Y-53938866D01*
X46853248Y-54051118D01*
X46859276Y-54053802D01*
X46859278Y-54053803D01*
X46991950Y-54112872D01*
X47027712Y-54128794D01*
X47121112Y-54148647D01*
X47208056Y-54167128D01*
X47208061Y-54167128D01*
X47214513Y-54168500D01*
X47405487Y-54168500D01*
X47411939Y-54167128D01*
X47411944Y-54167128D01*
X47498887Y-54148647D01*
X47592288Y-54128794D01*
X47628050Y-54112872D01*
X47760722Y-54053803D01*
X47760724Y-54053802D01*
X47766752Y-54051118D01*
X47921253Y-53938866D01*
X48004020Y-53846944D01*
X48044621Y-53801852D01*
X48044622Y-53801851D01*
X48049040Y-53796944D01*
X48135955Y-53646403D01*
X48141223Y-53637279D01*
X48141224Y-53637278D01*
X48144527Y-53631556D01*
X48203542Y-53449928D01*
X48212511Y-53364598D01*
X48218249Y-53310000D01*
X58456496Y-53310000D01*
X58457186Y-53316565D01*
X58466302Y-53403295D01*
X58476458Y-53499928D01*
X58535473Y-53681556D01*
X58538776Y-53687278D01*
X58538777Y-53687279D01*
X58572686Y-53746010D01*
X58630960Y-53846944D01*
X58635378Y-53851851D01*
X58635379Y-53851852D01*
X58638970Y-53855840D01*
X58758747Y-53988866D01*
X58913248Y-54101118D01*
X58919276Y-54103802D01*
X58919278Y-54103803D01*
X59064591Y-54168500D01*
X59087712Y-54178794D01*
X59153431Y-54192763D01*
X59268056Y-54217128D01*
X59268061Y-54217128D01*
X59274513Y-54218500D01*
X59465487Y-54218500D01*
X59471939Y-54217128D01*
X59471944Y-54217128D01*
X59586569Y-54192763D01*
X59652288Y-54178794D01*
X59675409Y-54168500D01*
X59820722Y-54103803D01*
X59820724Y-54103802D01*
X59826752Y-54101118D01*
X59981253Y-53988866D01*
X60101030Y-53855840D01*
X60104621Y-53851852D01*
X60104622Y-53851851D01*
X60109040Y-53846944D01*
X60167314Y-53746010D01*
X60201223Y-53687279D01*
X60201224Y-53687278D01*
X60204527Y-53681556D01*
X60263542Y-53499928D01*
X60273699Y-53403295D01*
X60282814Y-53316565D01*
X60283504Y-53310000D01*
X60278249Y-53260000D01*
X60264232Y-53126635D01*
X60264232Y-53126633D01*
X60263542Y-53120072D01*
X60204527Y-52938444D01*
X60109040Y-52773056D01*
X60069169Y-52728774D01*
X59985675Y-52636045D01*
X59985674Y-52636044D01*
X59981253Y-52631134D01*
X59826752Y-52518882D01*
X59820724Y-52516198D01*
X59820722Y-52516197D01*
X59658319Y-52443891D01*
X59658318Y-52443891D01*
X59652288Y-52441206D01*
X59558887Y-52421353D01*
X59471944Y-52402872D01*
X59471939Y-52402872D01*
X59465487Y-52401500D01*
X59274513Y-52401500D01*
X59268061Y-52402872D01*
X59268056Y-52402872D01*
X59181113Y-52421353D01*
X59087712Y-52441206D01*
X59081682Y-52443891D01*
X59081681Y-52443891D01*
X58919278Y-52516197D01*
X58919276Y-52516198D01*
X58913248Y-52518882D01*
X58758747Y-52631134D01*
X58754326Y-52636044D01*
X58754325Y-52636045D01*
X58670832Y-52728774D01*
X58630960Y-52773056D01*
X58535473Y-52938444D01*
X58476458Y-53120072D01*
X58475768Y-53126633D01*
X58475768Y-53126635D01*
X58461751Y-53260000D01*
X58456496Y-53310000D01*
X48218249Y-53310000D01*
X48222814Y-53266565D01*
X48223504Y-53260000D01*
X48203542Y-53070072D01*
X48144527Y-52888444D01*
X48049040Y-52723056D01*
X47921253Y-52581134D01*
X47920932Y-52580900D01*
X47884901Y-52522415D01*
X47886254Y-52451431D01*
X47912813Y-52404921D01*
X48019040Y-52286944D01*
X48114527Y-52121556D01*
X48173542Y-51939928D01*
X48175473Y-51921562D01*
X48192814Y-51756565D01*
X48193504Y-51750000D01*
X48188206Y-51699588D01*
X48174232Y-51566635D01*
X48174232Y-51566633D01*
X48173542Y-51560072D01*
X48114527Y-51378444D01*
X48019040Y-51213056D01*
X47953261Y-51140000D01*
X48866496Y-51140000D01*
X48867186Y-51146565D01*
X48881913Y-51286680D01*
X48886458Y-51329928D01*
X48945473Y-51511556D01*
X49040960Y-51676944D01*
X49045378Y-51681851D01*
X49045379Y-51681852D01*
X49100829Y-51743435D01*
X49168747Y-51818866D01*
X49323248Y-51931118D01*
X49329276Y-51933802D01*
X49329278Y-51933803D01*
X49357136Y-51946206D01*
X49497712Y-52008794D01*
X49581435Y-52026590D01*
X49678056Y-52047128D01*
X49678061Y-52047128D01*
X49684513Y-52048500D01*
X49875487Y-52048500D01*
X49881939Y-52047128D01*
X49881944Y-52047128D01*
X49978565Y-52026590D01*
X50062288Y-52008794D01*
X50202864Y-51946206D01*
X50230722Y-51933803D01*
X50230724Y-51933802D01*
X50236752Y-51931118D01*
X50391253Y-51818866D01*
X50459171Y-51743435D01*
X50514621Y-51681852D01*
X50514622Y-51681851D01*
X50519040Y-51676944D01*
X50614527Y-51511556D01*
X50673542Y-51329928D01*
X50678088Y-51286680D01*
X50692814Y-51146565D01*
X50693504Y-51140000D01*
X50674906Y-50963051D01*
X50674232Y-50956635D01*
X50674232Y-50956633D01*
X50673542Y-50950072D01*
X50614527Y-50768444D01*
X50519040Y-50603056D01*
X50502628Y-50584828D01*
X50395675Y-50466045D01*
X50395674Y-50466044D01*
X50391253Y-50461134D01*
X50236752Y-50348882D01*
X50230724Y-50346198D01*
X50230722Y-50346197D01*
X50068319Y-50273891D01*
X50068318Y-50273891D01*
X50062288Y-50271206D01*
X49968888Y-50251353D01*
X49881944Y-50232872D01*
X49881939Y-50232872D01*
X49875487Y-50231500D01*
X49684513Y-50231500D01*
X49678061Y-50232872D01*
X49678056Y-50232872D01*
X49591112Y-50251353D01*
X49497712Y-50271206D01*
X49491682Y-50273891D01*
X49491681Y-50273891D01*
X49329278Y-50346197D01*
X49329276Y-50346198D01*
X49323248Y-50348882D01*
X49168747Y-50461134D01*
X49164326Y-50466044D01*
X49164325Y-50466045D01*
X49057373Y-50584828D01*
X49040960Y-50603056D01*
X48945473Y-50768444D01*
X48886458Y-50950072D01*
X48885768Y-50956633D01*
X48885768Y-50956635D01*
X48885094Y-50963051D01*
X48866496Y-51140000D01*
X47953261Y-51140000D01*
X47946613Y-51132617D01*
X47895675Y-51076045D01*
X47895674Y-51076044D01*
X47891253Y-51071134D01*
X47806655Y-51009670D01*
X47763302Y-50953449D01*
X47757227Y-50882713D01*
X47790358Y-50819921D01*
X47806656Y-50805799D01*
X47834553Y-50785530D01*
X47871253Y-50758866D01*
X47919082Y-50705747D01*
X47994621Y-50621852D01*
X47994622Y-50621851D01*
X47999040Y-50616944D01*
X48086162Y-50466045D01*
X48091223Y-50457279D01*
X48091224Y-50457278D01*
X48094527Y-50451556D01*
X48153542Y-50269928D01*
X48159954Y-50208926D01*
X48172814Y-50086565D01*
X48173504Y-50080000D01*
X48153542Y-49890072D01*
X48094527Y-49708444D01*
X47999040Y-49543056D01*
X47955172Y-49494335D01*
X47875675Y-49406045D01*
X47875674Y-49406044D01*
X47871253Y-49401134D01*
X47716752Y-49288882D01*
X47710724Y-49286198D01*
X47710722Y-49286197D01*
X47548319Y-49213891D01*
X47548318Y-49213891D01*
X47542288Y-49211206D01*
X47448888Y-49191353D01*
X47361944Y-49172872D01*
X47361939Y-49172872D01*
X47355487Y-49171500D01*
X47164513Y-49171500D01*
X47158061Y-49172872D01*
X47158056Y-49172872D01*
X47071112Y-49191353D01*
X46977712Y-49211206D01*
X46971682Y-49213891D01*
X46971681Y-49213891D01*
X46809278Y-49286197D01*
X46809276Y-49286198D01*
X46803248Y-49288882D01*
X46648747Y-49401134D01*
X46644326Y-49406044D01*
X46644325Y-49406045D01*
X46564829Y-49494335D01*
X46520960Y-49543056D01*
X46425473Y-49708444D01*
X46366458Y-49890072D01*
X46346496Y-50080000D01*
X39684477Y-50080000D01*
X39702227Y-50049256D01*
X39761242Y-49867628D01*
X39781204Y-49677700D01*
X39775160Y-49620193D01*
X39761932Y-49494335D01*
X39761932Y-49494333D01*
X39761242Y-49487772D01*
X39702227Y-49306144D01*
X39694502Y-49292763D01*
X39610041Y-49146474D01*
X39606740Y-49140756D01*
X39595970Y-49128794D01*
X39483375Y-49003745D01*
X39483374Y-49003744D01*
X39478953Y-48998834D01*
X39324452Y-48886582D01*
X39318424Y-48883898D01*
X39318422Y-48883897D01*
X39156019Y-48811591D01*
X39156018Y-48811591D01*
X39149988Y-48808906D01*
X39056587Y-48789053D01*
X38969644Y-48770572D01*
X38969639Y-48770572D01*
X38963187Y-48769200D01*
X38772213Y-48769200D01*
X38765761Y-48770572D01*
X38765756Y-48770572D01*
X38678813Y-48789053D01*
X38585412Y-48808906D01*
X38579382Y-48811591D01*
X38579381Y-48811591D01*
X38416978Y-48883897D01*
X38416976Y-48883898D01*
X38410948Y-48886582D01*
X38256447Y-48998834D01*
X38252026Y-49003744D01*
X38252025Y-49003745D01*
X38139431Y-49128794D01*
X38128660Y-49140756D01*
X38125359Y-49146474D01*
X38040899Y-49292763D01*
X38033173Y-49306144D01*
X37974158Y-49487772D01*
X37973468Y-49494333D01*
X37973468Y-49494335D01*
X37960240Y-49620193D01*
X37954196Y-49677700D01*
X37148500Y-49677700D01*
X37148500Y-48205797D01*
X37148503Y-48204930D01*
X37155206Y-47230501D01*
X37160075Y-46522703D01*
X39060743Y-46522703D01*
X39061302Y-46526947D01*
X39061302Y-46526951D01*
X39075549Y-46635169D01*
X39098268Y-46807734D01*
X39174129Y-47085036D01*
X39175813Y-47088984D01*
X39275466Y-47322615D01*
X39286923Y-47349476D01*
X39343994Y-47444834D01*
X39393626Y-47527763D01*
X39434561Y-47596161D01*
X39614313Y-47820528D01*
X39631397Y-47836740D01*
X39819222Y-48014979D01*
X39822851Y-48018423D01*
X40056317Y-48186186D01*
X40060112Y-48188195D01*
X40060113Y-48188196D01*
X40081869Y-48199715D01*
X40310392Y-48320712D01*
X40334699Y-48329607D01*
X40506494Y-48392475D01*
X40580373Y-48419511D01*
X40861264Y-48480755D01*
X40889841Y-48483004D01*
X41084282Y-48498307D01*
X41084291Y-48498307D01*
X41086739Y-48498500D01*
X41242271Y-48498500D01*
X41244407Y-48498354D01*
X41244418Y-48498354D01*
X41452548Y-48484165D01*
X41452554Y-48484164D01*
X41456825Y-48483873D01*
X41461020Y-48483004D01*
X41461022Y-48483004D01*
X41620740Y-48449928D01*
X41738342Y-48425574D01*
X41847271Y-48387000D01*
X49185807Y-48387000D01*
X49204542Y-48601142D01*
X49260178Y-48808777D01*
X49262500Y-48813757D01*
X49262501Y-48813759D01*
X49346993Y-48994951D01*
X49351024Y-49003596D01*
X49474319Y-49179681D01*
X49626319Y-49331681D01*
X49802403Y-49454976D01*
X49807381Y-49457297D01*
X49807384Y-49457299D01*
X49980766Y-49538148D01*
X49997223Y-49545822D01*
X50002531Y-49547244D01*
X50002533Y-49547245D01*
X50199543Y-49600034D01*
X50199545Y-49600034D01*
X50204858Y-49601458D01*
X50419000Y-49620193D01*
X50633142Y-49601458D01*
X50638455Y-49600034D01*
X50638457Y-49600034D01*
X50835467Y-49547245D01*
X50835469Y-49547244D01*
X50840777Y-49545822D01*
X50857234Y-49538148D01*
X51030616Y-49457299D01*
X51030619Y-49457297D01*
X51035597Y-49454976D01*
X51091802Y-49415621D01*
X54834933Y-49415621D01*
X54844227Y-49427635D01*
X54878146Y-49451385D01*
X54887641Y-49456868D01*
X55072413Y-49543028D01*
X55082705Y-49546774D01*
X55279632Y-49599540D01*
X55290425Y-49601443D01*
X55493525Y-49619212D01*
X55504475Y-49619212D01*
X55707575Y-49601443D01*
X55718368Y-49599540D01*
X55915295Y-49546774D01*
X55925587Y-49543028D01*
X56110359Y-49456868D01*
X56119854Y-49451385D01*
X56154607Y-49427051D01*
X56162983Y-49416572D01*
X56155916Y-49403127D01*
X55511811Y-48759021D01*
X55497868Y-48751408D01*
X55496034Y-48751539D01*
X55489420Y-48755790D01*
X54841360Y-49403851D01*
X54834933Y-49415621D01*
X51091802Y-49415621D01*
X51211681Y-49331681D01*
X51363681Y-49179681D01*
X51486976Y-49003596D01*
X51491008Y-48994951D01*
X51575499Y-48813759D01*
X51575500Y-48813757D01*
X51577822Y-48808777D01*
X51633458Y-48601142D01*
X51651714Y-48392475D01*
X54266788Y-48392475D01*
X54284557Y-48595575D01*
X54286459Y-48606367D01*
X54339226Y-48803295D01*
X54342972Y-48813587D01*
X54429135Y-48998364D01*
X54434613Y-49007850D01*
X54458949Y-49042607D01*
X54469428Y-49050983D01*
X54482872Y-49043917D01*
X55126979Y-48399811D01*
X55133356Y-48388132D01*
X55863408Y-48388132D01*
X55863539Y-48389966D01*
X55867790Y-48396580D01*
X56515851Y-49044640D01*
X56527621Y-49051067D01*
X56539635Y-49041772D01*
X56563387Y-49007850D01*
X56568865Y-48998364D01*
X56655028Y-48813587D01*
X56658774Y-48803295D01*
X56711541Y-48606367D01*
X56713443Y-48595575D01*
X56731212Y-48392475D01*
X56731212Y-48381525D01*
X56725392Y-48315000D01*
X60111496Y-48315000D01*
X60112186Y-48321565D01*
X60128953Y-48481091D01*
X60131458Y-48504928D01*
X60190473Y-48686556D01*
X60285960Y-48851944D01*
X60290378Y-48856851D01*
X60290379Y-48856852D01*
X60364225Y-48938866D01*
X60413747Y-48993866D01*
X60568248Y-49106118D01*
X60574276Y-49108802D01*
X60574278Y-49108803D01*
X60733474Y-49179681D01*
X60742712Y-49183794D01*
X60836112Y-49203647D01*
X60923056Y-49222128D01*
X60923061Y-49222128D01*
X60929513Y-49223500D01*
X61120487Y-49223500D01*
X61126939Y-49222128D01*
X61126944Y-49222128D01*
X61213888Y-49203647D01*
X61307288Y-49183794D01*
X61316526Y-49179681D01*
X61475722Y-49108803D01*
X61475724Y-49108802D01*
X61481752Y-49106118D01*
X61636253Y-48993866D01*
X61685775Y-48938866D01*
X61759621Y-48856852D01*
X61759622Y-48856851D01*
X61764040Y-48851944D01*
X61859527Y-48686556D01*
X61918542Y-48504928D01*
X61921048Y-48481091D01*
X61937814Y-48321565D01*
X61938504Y-48315000D01*
X61932723Y-48260000D01*
X61919232Y-48131635D01*
X61919232Y-48131633D01*
X61918542Y-48125072D01*
X61859527Y-47943444D01*
X61764040Y-47778056D01*
X61722025Y-47731393D01*
X61640675Y-47641045D01*
X61640674Y-47641044D01*
X61636253Y-47636134D01*
X61481752Y-47523882D01*
X61475724Y-47521198D01*
X61475722Y-47521197D01*
X61313319Y-47448891D01*
X61313318Y-47448891D01*
X61307288Y-47446206D01*
X61213887Y-47426353D01*
X61126944Y-47407872D01*
X61126939Y-47407872D01*
X61120487Y-47406500D01*
X60929513Y-47406500D01*
X60923061Y-47407872D01*
X60923056Y-47407872D01*
X60836112Y-47426353D01*
X60742712Y-47446206D01*
X60736682Y-47448891D01*
X60736681Y-47448891D01*
X60574278Y-47521197D01*
X60574276Y-47521198D01*
X60568248Y-47523882D01*
X60413747Y-47636134D01*
X60409326Y-47641044D01*
X60409325Y-47641045D01*
X60327976Y-47731393D01*
X60285960Y-47778056D01*
X60190473Y-47943444D01*
X60131458Y-48125072D01*
X60130768Y-48131633D01*
X60130768Y-48131635D01*
X60117277Y-48260000D01*
X60111496Y-48315000D01*
X56725392Y-48315000D01*
X56713443Y-48178425D01*
X56711540Y-48167632D01*
X56658774Y-47970705D01*
X56655028Y-47960413D01*
X56568865Y-47775636D01*
X56563387Y-47766150D01*
X56539051Y-47731393D01*
X56528572Y-47723017D01*
X56515128Y-47730083D01*
X55871021Y-48374189D01*
X55863408Y-48388132D01*
X55133356Y-48388132D01*
X55134592Y-48385868D01*
X55134461Y-48384034D01*
X55130210Y-48377420D01*
X54482149Y-47729360D01*
X54470379Y-47722933D01*
X54458365Y-47732228D01*
X54434613Y-47766150D01*
X54429135Y-47775636D01*
X54342972Y-47960413D01*
X54339226Y-47970705D01*
X54286460Y-48167632D01*
X54284557Y-48178425D01*
X54266788Y-48381525D01*
X54266788Y-48392475D01*
X51651714Y-48392475D01*
X51652193Y-48387000D01*
X51633458Y-48172858D01*
X51620654Y-48125072D01*
X51579245Y-47970533D01*
X51579244Y-47970531D01*
X51577822Y-47965223D01*
X51517909Y-47836740D01*
X51489299Y-47775385D01*
X51489297Y-47775382D01*
X51486976Y-47770404D01*
X51363681Y-47594319D01*
X51211681Y-47442319D01*
X51090444Y-47357428D01*
X54835017Y-47357428D01*
X54842083Y-47370872D01*
X55486189Y-48014979D01*
X55500132Y-48022592D01*
X55501966Y-48022461D01*
X55508580Y-48018210D01*
X56156640Y-47370149D01*
X56163067Y-47358379D01*
X56153773Y-47346365D01*
X56119854Y-47322615D01*
X56110359Y-47317132D01*
X55925587Y-47230972D01*
X55915295Y-47227226D01*
X55718368Y-47174460D01*
X55707575Y-47172557D01*
X55504475Y-47154788D01*
X55493525Y-47154788D01*
X55290425Y-47172557D01*
X55279632Y-47174460D01*
X55082705Y-47227226D01*
X55072413Y-47230972D01*
X54887636Y-47317135D01*
X54878150Y-47322613D01*
X54843393Y-47346949D01*
X54835017Y-47357428D01*
X51090444Y-47357428D01*
X51035597Y-47319024D01*
X51030619Y-47316703D01*
X51030616Y-47316701D01*
X50845759Y-47230501D01*
X50845758Y-47230500D01*
X50840777Y-47228178D01*
X50835469Y-47226756D01*
X50835467Y-47226755D01*
X50638457Y-47173966D01*
X50638455Y-47173966D01*
X50633142Y-47172542D01*
X50419000Y-47153807D01*
X50204858Y-47172542D01*
X50199545Y-47173966D01*
X50199543Y-47173966D01*
X50002533Y-47226755D01*
X50002531Y-47226756D01*
X49997223Y-47228178D01*
X49992243Y-47230500D01*
X49992241Y-47230501D01*
X49807385Y-47316701D01*
X49807382Y-47316703D01*
X49802404Y-47319024D01*
X49626319Y-47442319D01*
X49474319Y-47594319D01*
X49351024Y-47770404D01*
X49348703Y-47775382D01*
X49348701Y-47775385D01*
X49320091Y-47836740D01*
X49260178Y-47965223D01*
X49258756Y-47970531D01*
X49258755Y-47970533D01*
X49217346Y-48125072D01*
X49204542Y-48172858D01*
X49185807Y-48387000D01*
X41847271Y-48387000D01*
X42009343Y-48329607D01*
X42097362Y-48284177D01*
X42261005Y-48199715D01*
X42261006Y-48199715D01*
X42264812Y-48197750D01*
X42268313Y-48195289D01*
X42268317Y-48195287D01*
X42446479Y-48070072D01*
X42500023Y-48032441D01*
X42710622Y-47836740D01*
X42892713Y-47614268D01*
X43042927Y-47369142D01*
X43065757Y-47317135D01*
X43156757Y-47109830D01*
X43158483Y-47105898D01*
X43191498Y-46990000D01*
X43236068Y-46833534D01*
X43237244Y-46829406D01*
X43277751Y-46544784D01*
X43277845Y-46526951D01*
X43279235Y-46261583D01*
X43279235Y-46261576D01*
X43279257Y-46257297D01*
X43241732Y-45972266D01*
X43207463Y-45847000D01*
X51725807Y-45847000D01*
X51744542Y-46061142D01*
X51745966Y-46066455D01*
X51745966Y-46066457D01*
X51795964Y-46253049D01*
X51800178Y-46268777D01*
X51802500Y-46273757D01*
X51802501Y-46273759D01*
X51840385Y-46355000D01*
X51891024Y-46463596D01*
X52014319Y-46639681D01*
X52166319Y-46791681D01*
X52342403Y-46914976D01*
X52347381Y-46917297D01*
X52347384Y-46917299D01*
X52532241Y-47003499D01*
X52537223Y-47005822D01*
X52542531Y-47007244D01*
X52542533Y-47007245D01*
X52739543Y-47060034D01*
X52739545Y-47060034D01*
X52744858Y-47061458D01*
X52959000Y-47080193D01*
X53173142Y-47061458D01*
X53178455Y-47060034D01*
X53178457Y-47060034D01*
X53375467Y-47007245D01*
X53375469Y-47007244D01*
X53380777Y-47005822D01*
X53385759Y-47003499D01*
X53570616Y-46917299D01*
X53570619Y-46917297D01*
X53575597Y-46914976D01*
X53751681Y-46791681D01*
X53903681Y-46639681D01*
X54026976Y-46463596D01*
X54077616Y-46355000D01*
X54115499Y-46273759D01*
X54115500Y-46273757D01*
X54117822Y-46268777D01*
X54122037Y-46253049D01*
X54172034Y-46066457D01*
X54172034Y-46066455D01*
X54173458Y-46061142D01*
X54180557Y-45980000D01*
X58496496Y-45980000D01*
X58516458Y-46169928D01*
X58575473Y-46351556D01*
X58670960Y-46516944D01*
X58798747Y-46658866D01*
X58953248Y-46771118D01*
X58959276Y-46773802D01*
X58959278Y-46773803D01*
X59093437Y-46833534D01*
X59127712Y-46848794D01*
X59221112Y-46868647D01*
X59308056Y-46887128D01*
X59308061Y-46887128D01*
X59314513Y-46888500D01*
X59505487Y-46888500D01*
X59511939Y-46887128D01*
X59511944Y-46887128D01*
X59598888Y-46868647D01*
X59692288Y-46848794D01*
X59726563Y-46833534D01*
X59860722Y-46773803D01*
X59860724Y-46773802D01*
X59866752Y-46771118D01*
X60021253Y-46658866D01*
X60149040Y-46516944D01*
X60244527Y-46351556D01*
X60303542Y-46169928D01*
X60323504Y-45980000D01*
X60320413Y-45950594D01*
X60304232Y-45796635D01*
X60304232Y-45796633D01*
X60303542Y-45790072D01*
X60244527Y-45608444D01*
X60149040Y-45443056D01*
X60134437Y-45426837D01*
X60025675Y-45306045D01*
X60025674Y-45306044D01*
X60021253Y-45301134D01*
X59866752Y-45188882D01*
X59860724Y-45186198D01*
X59860722Y-45186197D01*
X59698319Y-45113891D01*
X59698318Y-45113891D01*
X59692288Y-45111206D01*
X59598887Y-45091353D01*
X59511944Y-45072872D01*
X59511939Y-45072872D01*
X59505487Y-45071500D01*
X59314513Y-45071500D01*
X59308061Y-45072872D01*
X59308056Y-45072872D01*
X59221113Y-45091353D01*
X59127712Y-45111206D01*
X59121682Y-45113891D01*
X59121681Y-45113891D01*
X58959278Y-45186197D01*
X58959276Y-45186198D01*
X58953248Y-45188882D01*
X58798747Y-45301134D01*
X58794326Y-45306044D01*
X58794325Y-45306045D01*
X58685564Y-45426837D01*
X58670960Y-45443056D01*
X58575473Y-45608444D01*
X58516458Y-45790072D01*
X58515768Y-45796633D01*
X58515768Y-45796635D01*
X58499587Y-45950594D01*
X58496496Y-45980000D01*
X54180557Y-45980000D01*
X54192193Y-45847000D01*
X54173458Y-45632858D01*
X54117822Y-45425223D01*
X54112958Y-45414792D01*
X54029299Y-45235385D01*
X54029297Y-45235382D01*
X54026976Y-45230404D01*
X53903681Y-45054319D01*
X53751681Y-44902319D01*
X53575597Y-44779024D01*
X53570619Y-44776703D01*
X53570616Y-44776701D01*
X53385759Y-44690501D01*
X53385758Y-44690500D01*
X53380777Y-44688178D01*
X53375469Y-44686756D01*
X53375467Y-44686755D01*
X53178457Y-44633966D01*
X53178455Y-44633966D01*
X53173142Y-44632542D01*
X52959000Y-44613807D01*
X52744858Y-44632542D01*
X52739545Y-44633966D01*
X52739543Y-44633966D01*
X52542533Y-44686755D01*
X52542531Y-44686756D01*
X52537223Y-44688178D01*
X52532243Y-44690500D01*
X52532241Y-44690501D01*
X52347385Y-44776701D01*
X52347382Y-44776703D01*
X52342404Y-44779024D01*
X52166319Y-44902319D01*
X52014319Y-45054319D01*
X51891024Y-45230404D01*
X51888703Y-45235382D01*
X51888701Y-45235385D01*
X51805042Y-45414792D01*
X51800178Y-45425223D01*
X51744542Y-45632858D01*
X51725807Y-45847000D01*
X43207463Y-45847000D01*
X43165871Y-45694964D01*
X43077440Y-45487642D01*
X43054763Y-45434476D01*
X43054761Y-45434472D01*
X43053077Y-45430524D01*
X42933308Y-45230404D01*
X42907643Y-45187521D01*
X42907640Y-45187517D01*
X42905439Y-45183839D01*
X42725687Y-44959472D01*
X42551281Y-44793967D01*
X42520258Y-44764527D01*
X42520255Y-44764525D01*
X42517149Y-44761577D01*
X42283683Y-44593814D01*
X42261843Y-44582250D01*
X42238654Y-44569972D01*
X42029608Y-44459288D01*
X41759627Y-44360489D01*
X41478736Y-44299245D01*
X41447685Y-44296801D01*
X41255718Y-44281693D01*
X41255709Y-44281693D01*
X41253261Y-44281500D01*
X41097729Y-44281500D01*
X41095593Y-44281646D01*
X41095582Y-44281646D01*
X40887452Y-44295835D01*
X40887446Y-44295836D01*
X40883175Y-44296127D01*
X40878980Y-44296996D01*
X40878978Y-44296996D01*
X40742416Y-44325277D01*
X40601658Y-44354426D01*
X40330657Y-44450393D01*
X40075188Y-44582250D01*
X40071687Y-44584711D01*
X40071683Y-44584713D01*
X39993120Y-44639928D01*
X39839977Y-44747559D01*
X39824892Y-44761577D01*
X39673436Y-44902319D01*
X39629378Y-44943260D01*
X39447287Y-45165732D01*
X39297073Y-45410858D01*
X39295347Y-45414791D01*
X39295346Y-45414792D01*
X39282939Y-45443056D01*
X39181517Y-45674102D01*
X39102756Y-45950594D01*
X39062249Y-46235216D01*
X39062227Y-46239505D01*
X39062226Y-46239512D01*
X39061029Y-46468101D01*
X39060743Y-46522703D01*
X37160075Y-46522703D01*
X37167111Y-45499969D01*
X37167801Y-45487642D01*
X37186376Y-45311347D01*
X37191352Y-45287177D01*
X37242093Y-45123806D01*
X37251686Y-45101068D01*
X37333295Y-44950727D01*
X37347136Y-44930295D01*
X37460455Y-44793967D01*
X37468808Y-44784865D01*
X39315618Y-42960763D01*
X39324681Y-42952640D01*
X39408283Y-42884696D01*
X39460430Y-42842317D01*
X39480721Y-42828858D01*
X39515521Y-42810346D01*
X39629740Y-42749587D01*
X39652238Y-42740284D01*
X39752034Y-42709924D01*
X39813722Y-42691157D01*
X39837587Y-42686356D01*
X39892030Y-42680796D01*
X40011609Y-42668584D01*
X40023781Y-42667934D01*
X60312532Y-42566617D01*
X60380752Y-42586278D01*
X60427512Y-42639701D01*
X60437966Y-42709924D01*
X60428415Y-42743349D01*
X60425473Y-42748444D01*
X60366458Y-42930072D01*
X60346496Y-43120000D01*
X60366458Y-43309928D01*
X60425473Y-43491556D01*
X60520960Y-43656944D01*
X60648747Y-43798866D01*
X60803248Y-43911118D01*
X60809276Y-43913802D01*
X60809278Y-43913803D01*
X60971681Y-43986109D01*
X60977712Y-43988794D01*
X61071112Y-44008647D01*
X61158056Y-44027128D01*
X61158061Y-44027128D01*
X61164513Y-44028500D01*
X61355487Y-44028500D01*
X61361939Y-44027128D01*
X61361944Y-44027128D01*
X61448888Y-44008647D01*
X61542288Y-43988794D01*
X61548319Y-43986109D01*
X61710722Y-43913803D01*
X61710724Y-43913802D01*
X61716752Y-43911118D01*
X61871253Y-43798866D01*
X61999040Y-43656944D01*
X62094527Y-43491556D01*
X62153542Y-43309928D01*
X62173504Y-43120000D01*
X62153542Y-42930072D01*
X62094527Y-42748444D01*
X62091223Y-42742721D01*
X62088539Y-42736693D01*
X62090689Y-42735736D01*
X62076481Y-42677205D01*
X62099691Y-42610109D01*
X62155492Y-42566214D01*
X62201710Y-42557183D01*
X63621970Y-42550090D01*
X63623069Y-42550089D01*
X63638883Y-42550148D01*
G37*
%TD.AperFunction*%
%TD*%
%TA.AperFunction,Conductor*%
%TO.N,HBS*%
G36*
X95318526Y-50411898D02*
G01*
X95330972Y-50412799D01*
X95440193Y-50426169D01*
X95508707Y-50434555D01*
X95533023Y-50440015D01*
X95615854Y-50467460D01*
X95697037Y-50494360D01*
X95719807Y-50504502D01*
X95875370Y-50593182D01*
X95885892Y-50599891D01*
X99134773Y-52905549D01*
X99144347Y-52913065D01*
X99276472Y-53027529D01*
X99293233Y-53045158D01*
X99397113Y-53178051D01*
X99410178Y-53198580D01*
X99486576Y-53348962D01*
X99495451Y-53371620D01*
X99541517Y-53533883D01*
X99545871Y-53557823D01*
X99560398Y-53732022D01*
X99560822Y-53744187D01*
X99511706Y-57378763D01*
X99479522Y-59760341D01*
X99458602Y-59828185D01*
X99404323Y-59873948D01*
X99333919Y-59883102D01*
X99269742Y-59852739D01*
X99259911Y-59842962D01*
X99231253Y-59811134D01*
X99076752Y-59698882D01*
X99070724Y-59696198D01*
X99070722Y-59696197D01*
X98908319Y-59623891D01*
X98908318Y-59623891D01*
X98902288Y-59621206D01*
X98808887Y-59601353D01*
X98721944Y-59582872D01*
X98721939Y-59582872D01*
X98715487Y-59581500D01*
X98524513Y-59581500D01*
X98518061Y-59582872D01*
X98518056Y-59582872D01*
X98431113Y-59601353D01*
X98337712Y-59621206D01*
X98331682Y-59623891D01*
X98331681Y-59623891D01*
X98169278Y-59696197D01*
X98169276Y-59696198D01*
X98163248Y-59698882D01*
X98008747Y-59811134D01*
X98004326Y-59816044D01*
X98004325Y-59816045D01*
X97980102Y-59842948D01*
X97880960Y-59953056D01*
X97785473Y-60118444D01*
X97726458Y-60300072D01*
X97706496Y-60490000D01*
X97726458Y-60679928D01*
X97785473Y-60861556D01*
X97880960Y-61026944D01*
X98008747Y-61168866D01*
X98163248Y-61281118D01*
X98169276Y-61283802D01*
X98169278Y-61283803D01*
X98331681Y-61356109D01*
X98337712Y-61358794D01*
X98431113Y-61378647D01*
X98518056Y-61397128D01*
X98518061Y-61397128D01*
X98524513Y-61398500D01*
X98715487Y-61398500D01*
X98721939Y-61397128D01*
X98721944Y-61397128D01*
X98808887Y-61378647D01*
X98902288Y-61358794D01*
X98908319Y-61356109D01*
X99070722Y-61283803D01*
X99070724Y-61283802D01*
X99076752Y-61281118D01*
X99231253Y-61168866D01*
X99239836Y-61159334D01*
X99300282Y-61122099D01*
X99371266Y-61123453D01*
X99430249Y-61162970D01*
X99458504Y-61228101D01*
X99459455Y-61245345D01*
X99457385Y-61398500D01*
X99447086Y-62160610D01*
X99446223Y-62173733D01*
X99424020Y-62361121D01*
X99418226Y-62386743D01*
X99359780Y-62559171D01*
X99348800Y-62583034D01*
X99255871Y-62739600D01*
X99240185Y-62760664D01*
X99112321Y-62899434D01*
X99102921Y-62908623D01*
X98116923Y-63776635D01*
X95390143Y-66177123D01*
X95390137Y-66177129D01*
X95233104Y-66315371D01*
X95143495Y-66504429D01*
X94707333Y-67424645D01*
X94707330Y-67424654D01*
X94610000Y-67630000D01*
X94609475Y-67857245D01*
X94609475Y-67857249D01*
X94601261Y-71414020D01*
X94600443Y-71428067D01*
X94580974Y-71598047D01*
X94574686Y-71625421D01*
X94553572Y-71685590D01*
X94520383Y-71780165D01*
X94508182Y-71805474D01*
X94420938Y-71944338D01*
X94403430Y-71966314D01*
X94287586Y-72082387D01*
X94265648Y-72099935D01*
X94236074Y-72118598D01*
X94120960Y-72191239D01*
X94108660Y-72198071D01*
X93846352Y-72325169D01*
X93833031Y-72330706D01*
X93637772Y-72399041D01*
X93609677Y-72405386D01*
X93403998Y-72427593D01*
X93389591Y-72428318D01*
X91108449Y-72412367D01*
X91095027Y-72411556D01*
X90954295Y-72395477D01*
X90903379Y-72389660D01*
X90877177Y-72383785D01*
X90700939Y-72323952D01*
X90676575Y-72312659D01*
X90511204Y-72213345D01*
X90500069Y-72205821D01*
X90384749Y-72118592D01*
X90375612Y-72110976D01*
X90255756Y-72001059D01*
X90239817Y-71983393D01*
X90146346Y-71857713D01*
X90134011Y-71837361D01*
X90065840Y-71696349D01*
X90057552Y-71674041D01*
X90044559Y-71625426D01*
X90017112Y-71522730D01*
X90013166Y-71499265D01*
X90001468Y-71337065D01*
X90001174Y-71325157D01*
X90058839Y-68771413D01*
X90058839Y-68771392D01*
X90058857Y-68770604D01*
X90060000Y-68720000D01*
X90018665Y-68194998D01*
X89792001Y-65316113D01*
X89792000Y-65316101D01*
X89789000Y-65278000D01*
X89771089Y-65163365D01*
X89572125Y-63890000D01*
X90346496Y-63890000D01*
X90366458Y-64079928D01*
X90425473Y-64261556D01*
X90520960Y-64426944D01*
X90648747Y-64568866D01*
X90803248Y-64681118D01*
X90809276Y-64683802D01*
X90809278Y-64683803D01*
X90971681Y-64756109D01*
X90977712Y-64758794D01*
X91071113Y-64778647D01*
X91158056Y-64797128D01*
X91158061Y-64797128D01*
X91164513Y-64798500D01*
X91355487Y-64798500D01*
X91361939Y-64797128D01*
X91361944Y-64797128D01*
X91448887Y-64778647D01*
X91542288Y-64758794D01*
X91548319Y-64756109D01*
X91710722Y-64683803D01*
X91710724Y-64683802D01*
X91716752Y-64681118D01*
X91871253Y-64568866D01*
X91999040Y-64426944D01*
X92094527Y-64261556D01*
X92153542Y-64079928D01*
X92166147Y-63960000D01*
X93636496Y-63960000D01*
X93637186Y-63966565D01*
X93649761Y-64086206D01*
X93656458Y-64149928D01*
X93715473Y-64331556D01*
X93770546Y-64426944D01*
X93774031Y-64432981D01*
X93790769Y-64501976D01*
X93774032Y-64558979D01*
X93745473Y-64608444D01*
X93686458Y-64790072D01*
X93666496Y-64980000D01*
X93686458Y-65169928D01*
X93745473Y-65351556D01*
X93840960Y-65516944D01*
X93968747Y-65658866D01*
X94123248Y-65771118D01*
X94129276Y-65773802D01*
X94129278Y-65773803D01*
X94291681Y-65846109D01*
X94297712Y-65848794D01*
X94391113Y-65868647D01*
X94478056Y-65887128D01*
X94478061Y-65887128D01*
X94484513Y-65888500D01*
X94675487Y-65888500D01*
X94681939Y-65887128D01*
X94681944Y-65887128D01*
X94768887Y-65868647D01*
X94862288Y-65848794D01*
X94868319Y-65846109D01*
X95030722Y-65773803D01*
X95030724Y-65773802D01*
X95036752Y-65771118D01*
X95191253Y-65658866D01*
X95319040Y-65516944D01*
X95414527Y-65351556D01*
X95473542Y-65169928D01*
X95493504Y-64980000D01*
X95473542Y-64790072D01*
X95414527Y-64608444D01*
X95393919Y-64572749D01*
X95355969Y-64507019D01*
X95339231Y-64438024D01*
X95355968Y-64381021D01*
X95384527Y-64331556D01*
X95443542Y-64149928D01*
X95450240Y-64086206D01*
X95462814Y-63966565D01*
X95463504Y-63960000D01*
X95443542Y-63770072D01*
X95384527Y-63588444D01*
X95289040Y-63423056D01*
X95161253Y-63281134D01*
X95006752Y-63168882D01*
X95000724Y-63166198D01*
X95000722Y-63166197D01*
X94838319Y-63093891D01*
X94838318Y-63093891D01*
X94832288Y-63091206D01*
X94738888Y-63071353D01*
X94651944Y-63052872D01*
X94651939Y-63052872D01*
X94645487Y-63051500D01*
X94454513Y-63051500D01*
X94448061Y-63052872D01*
X94448056Y-63052872D01*
X94361112Y-63071353D01*
X94267712Y-63091206D01*
X94261682Y-63093891D01*
X94261681Y-63093891D01*
X94099278Y-63166197D01*
X94099276Y-63166198D01*
X94093248Y-63168882D01*
X93938747Y-63281134D01*
X93810960Y-63423056D01*
X93715473Y-63588444D01*
X93656458Y-63770072D01*
X93636496Y-63960000D01*
X92166147Y-63960000D01*
X92173504Y-63890000D01*
X92160899Y-63770072D01*
X92154232Y-63706635D01*
X92154232Y-63706633D01*
X92153542Y-63700072D01*
X92094527Y-63518444D01*
X91999040Y-63353056D01*
X91871253Y-63211134D01*
X91716752Y-63098882D01*
X91710724Y-63096198D01*
X91710722Y-63096197D01*
X91548319Y-63023891D01*
X91548318Y-63023891D01*
X91542288Y-63021206D01*
X91448887Y-63001353D01*
X91361944Y-62982872D01*
X91361939Y-62982872D01*
X91355487Y-62981500D01*
X91164513Y-62981500D01*
X91158061Y-62982872D01*
X91158056Y-62982872D01*
X91071113Y-63001353D01*
X90977712Y-63021206D01*
X90971682Y-63023891D01*
X90971681Y-63023891D01*
X90809278Y-63096197D01*
X90809276Y-63096198D01*
X90803248Y-63098882D01*
X90648747Y-63211134D01*
X90520960Y-63353056D01*
X90425473Y-63518444D01*
X90366458Y-63700072D01*
X90365768Y-63706633D01*
X90365768Y-63706635D01*
X90359101Y-63770072D01*
X90346496Y-63890000D01*
X89572125Y-63890000D01*
X89166365Y-61293136D01*
X89165706Y-61288301D01*
X89157567Y-61218609D01*
X89156811Y-61208873D01*
X89154095Y-61138797D01*
X89154000Y-61133917D01*
X89154000Y-58166000D01*
X96368496Y-58166000D01*
X96388458Y-58355928D01*
X96447473Y-58537556D01*
X96542960Y-58702944D01*
X96670747Y-58844866D01*
X96825248Y-58957118D01*
X96831276Y-58959802D01*
X96831278Y-58959803D01*
X96993681Y-59032109D01*
X96999712Y-59034794D01*
X97093112Y-59054647D01*
X97180056Y-59073128D01*
X97180061Y-59073128D01*
X97186513Y-59074500D01*
X97377487Y-59074500D01*
X97383939Y-59073128D01*
X97383944Y-59073128D01*
X97470888Y-59054647D01*
X97564288Y-59034794D01*
X97570319Y-59032109D01*
X97732722Y-58959803D01*
X97732724Y-58959802D01*
X97738752Y-58957118D01*
X97893253Y-58844866D01*
X98021040Y-58702944D01*
X98116527Y-58537556D01*
X98175542Y-58355928D01*
X98195504Y-58166000D01*
X98175542Y-57976072D01*
X98116527Y-57794444D01*
X98021040Y-57629056D01*
X97893253Y-57487134D01*
X97738752Y-57374882D01*
X97732724Y-57372198D01*
X97732722Y-57372197D01*
X97570319Y-57299891D01*
X97570318Y-57299891D01*
X97564288Y-57297206D01*
X97470887Y-57277353D01*
X97383944Y-57258872D01*
X97383939Y-57258872D01*
X97377487Y-57257500D01*
X97186513Y-57257500D01*
X97180061Y-57258872D01*
X97180056Y-57258872D01*
X97093113Y-57277353D01*
X96999712Y-57297206D01*
X96993682Y-57299891D01*
X96993681Y-57299891D01*
X96831278Y-57372197D01*
X96831276Y-57372198D01*
X96825248Y-57374882D01*
X96670747Y-57487134D01*
X96542960Y-57629056D01*
X96447473Y-57794444D01*
X96388458Y-57976072D01*
X96368496Y-58166000D01*
X89154000Y-58166000D01*
X89154000Y-54963350D01*
X89154145Y-54957302D01*
X89158317Y-54870486D01*
X89159477Y-54858448D01*
X89171949Y-54772460D01*
X89172960Y-54766496D01*
X89880788Y-51126231D01*
X89883811Y-51113991D01*
X89935915Y-50940752D01*
X89945542Y-50917481D01*
X90028062Y-50763647D01*
X90042120Y-50742762D01*
X90153587Y-50608412D01*
X90171521Y-50590737D01*
X90307480Y-50481239D01*
X90328574Y-50467482D01*
X90483592Y-50387210D01*
X90507002Y-50377923D01*
X90674877Y-50330087D01*
X90699666Y-50325640D01*
X90880041Y-50311655D01*
X90892644Y-50311311D01*
X95318526Y-50411898D01*
G37*
%TD.AperFunction*%
%TD*%
%TA.AperFunction,Conductor*%
%TO.N,HCS*%
G36*
X106506127Y-50545255D02*
G01*
X106508978Y-50545333D01*
X106533249Y-50546270D01*
X106550065Y-50546920D01*
X106555776Y-50547271D01*
X106596796Y-50550726D01*
X106599644Y-50550998D01*
X109559266Y-50868100D01*
X109571712Y-50870067D01*
X109748658Y-50907186D01*
X109772651Y-50914788D01*
X109932861Y-50983823D01*
X109954864Y-50996041D01*
X110098162Y-51095544D01*
X110117298Y-51111892D01*
X110237959Y-51237888D01*
X110253463Y-51257712D01*
X110350065Y-51410539D01*
X110356249Y-51421497D01*
X110503739Y-51716478D01*
X110651225Y-52011451D01*
X110656254Y-52022897D01*
X110720190Y-52190527D01*
X110726734Y-52214630D01*
X110756349Y-52391568D01*
X110757799Y-52403987D01*
X110867443Y-54048643D01*
X110867618Y-54051901D01*
X110869525Y-54098764D01*
X110869621Y-54105290D01*
X110869099Y-54152155D01*
X110869021Y-54155415D01*
X110744000Y-57531000D01*
X110744000Y-61700535D01*
X110743993Y-61701848D01*
X110743797Y-61720656D01*
X110743743Y-61723276D01*
X110743153Y-61742170D01*
X110743106Y-61743449D01*
X110644161Y-64118148D01*
X110639090Y-64239845D01*
X110637997Y-64251965D01*
X110613930Y-64424925D01*
X110608273Y-64448566D01*
X110598851Y-64475941D01*
X110557768Y-64533844D01*
X110491902Y-64560344D01*
X110422166Y-64547027D01*
X110370699Y-64498122D01*
X110353843Y-64429156D01*
X110354400Y-64421765D01*
X110372814Y-64246565D01*
X110373504Y-64240000D01*
X110353542Y-64050072D01*
X110294527Y-63868444D01*
X110199040Y-63703056D01*
X110071253Y-63561134D01*
X109916752Y-63448882D01*
X109910724Y-63446198D01*
X109910722Y-63446197D01*
X109748319Y-63373891D01*
X109748318Y-63373891D01*
X109742288Y-63371206D01*
X109648888Y-63351353D01*
X109561944Y-63332872D01*
X109561939Y-63332872D01*
X109555487Y-63331500D01*
X109364513Y-63331500D01*
X109358061Y-63332872D01*
X109358056Y-63332872D01*
X109271112Y-63351353D01*
X109177712Y-63371206D01*
X109171682Y-63373891D01*
X109171681Y-63373891D01*
X109009278Y-63446197D01*
X109009276Y-63446198D01*
X109003248Y-63448882D01*
X108848747Y-63561134D01*
X108720960Y-63703056D01*
X108625473Y-63868444D01*
X108566458Y-64050072D01*
X108546496Y-64240000D01*
X108566458Y-64429928D01*
X108625473Y-64611556D01*
X108628776Y-64617278D01*
X108628777Y-64617279D01*
X108669031Y-64687000D01*
X108685769Y-64755995D01*
X108669031Y-64812999D01*
X108625473Y-64888444D01*
X108566458Y-65070072D01*
X108565768Y-65076633D01*
X108565768Y-65076635D01*
X108547186Y-65253435D01*
X108546496Y-65260000D01*
X108566458Y-65449928D01*
X108625473Y-65631556D01*
X108720960Y-65796944D01*
X108725380Y-65801853D01*
X108727035Y-65804131D01*
X108750893Y-65870999D01*
X108734813Y-65940150D01*
X108692349Y-65984744D01*
X107918293Y-66473290D01*
X107908064Y-66479097D01*
X107757529Y-66555492D01*
X107735675Y-66564126D01*
X107579250Y-66609591D01*
X107556171Y-66614017D01*
X107388141Y-66630212D01*
X107376395Y-66630793D01*
X100260000Y-66650000D01*
X99968308Y-67107655D01*
X99836811Y-67313968D01*
X99836806Y-67313977D01*
X99680000Y-67560000D01*
X99678511Y-67848784D01*
X99678511Y-67848788D01*
X99678496Y-67851744D01*
X99665780Y-70318694D01*
X99663944Y-70339491D01*
X99647821Y-70432836D01*
X99646500Y-70461925D01*
X99646500Y-71173917D01*
X99645836Y-71186832D01*
X99643421Y-71210269D01*
X99638541Y-71234318D01*
X99588640Y-71396931D01*
X99579191Y-71419578D01*
X99498718Y-71569435D01*
X99485064Y-71589814D01*
X99373132Y-71726024D01*
X99364887Y-71735113D01*
X99110002Y-71989998D01*
X99100761Y-71998367D01*
X98962380Y-72111745D01*
X98941652Y-72125547D01*
X98789210Y-72206553D01*
X98766176Y-72216007D01*
X98643295Y-72252738D01*
X98600778Y-72265447D01*
X98576331Y-72270186D01*
X98562543Y-72271465D01*
X98398201Y-72286709D01*
X98385745Y-72287245D01*
X96300338Y-72273703D01*
X96287427Y-72272956D01*
X96212799Y-72264776D01*
X96102975Y-72252738D01*
X96077723Y-72247306D01*
X95907458Y-72191910D01*
X95883845Y-72181442D01*
X95728465Y-72092494D01*
X95707482Y-72077431D01*
X95573498Y-71958657D01*
X95556027Y-71939631D01*
X95445200Y-71790819D01*
X95438017Y-71780063D01*
X95286356Y-71525580D01*
X95280940Y-71515472D01*
X95209879Y-71367000D01*
X95201909Y-71345524D01*
X95160416Y-71192201D01*
X95156466Y-71169632D01*
X95142950Y-71005578D01*
X95142530Y-70994117D01*
X95167824Y-68135877D01*
X95168817Y-68121168D01*
X95195364Y-67911453D01*
X95202445Y-67882885D01*
X95276927Y-67685036D01*
X95282919Y-67671567D01*
X95290512Y-67656879D01*
X95679422Y-66904560D01*
X95686069Y-66893201D01*
X95789990Y-66735196D01*
X95806671Y-66714838D01*
X95941144Y-66581886D01*
X95950989Y-66573122D01*
X98340870Y-64660000D01*
X105146496Y-64660000D01*
X105166458Y-64849928D01*
X105225473Y-65031556D01*
X105320960Y-65196944D01*
X105448747Y-65338866D01*
X105603248Y-65451118D01*
X105609276Y-65453802D01*
X105609278Y-65453803D01*
X105751096Y-65516944D01*
X105777712Y-65528794D01*
X105871113Y-65548647D01*
X105958056Y-65567128D01*
X105958061Y-65567128D01*
X105964513Y-65568500D01*
X106155487Y-65568500D01*
X106161939Y-65567128D01*
X106161944Y-65567128D01*
X106248887Y-65548647D01*
X106342288Y-65528794D01*
X106368904Y-65516944D01*
X106510722Y-65453803D01*
X106510724Y-65453802D01*
X106516752Y-65451118D01*
X106671253Y-65338866D01*
X106799040Y-65196944D01*
X106894527Y-65031556D01*
X106953542Y-64849928D01*
X106973504Y-64660000D01*
X106953542Y-64470072D01*
X106894527Y-64288444D01*
X106862768Y-64233435D01*
X106857314Y-64223990D01*
X106799040Y-64123056D01*
X106671253Y-63981134D01*
X106555987Y-63897388D01*
X106522094Y-63872763D01*
X106522093Y-63872762D01*
X106516752Y-63868882D01*
X106510724Y-63866198D01*
X106510722Y-63866197D01*
X106348319Y-63793891D01*
X106348318Y-63793891D01*
X106342288Y-63791206D01*
X106242861Y-63770072D01*
X106161944Y-63752872D01*
X106161939Y-63752872D01*
X106155487Y-63751500D01*
X105964513Y-63751500D01*
X105958061Y-63752872D01*
X105958056Y-63752872D01*
X105877139Y-63770072D01*
X105777712Y-63791206D01*
X105771682Y-63793891D01*
X105771681Y-63793891D01*
X105609278Y-63866197D01*
X105609276Y-63866198D01*
X105603248Y-63868882D01*
X105597907Y-63872762D01*
X105597906Y-63872763D01*
X105564013Y-63897388D01*
X105448747Y-63981134D01*
X105320960Y-64123056D01*
X105262686Y-64223990D01*
X105257233Y-64233435D01*
X105225473Y-64288444D01*
X105166458Y-64470072D01*
X105146496Y-64660000D01*
X98340870Y-64660000D01*
X99293529Y-63897388D01*
X99293593Y-63897336D01*
X99293858Y-63897124D01*
X99293865Y-63897119D01*
X99314000Y-63881000D01*
X99416562Y-63789834D01*
X100112349Y-63171357D01*
X100112354Y-63171352D01*
X100457000Y-62865000D01*
X100440813Y-61742806D01*
X100319762Y-53351041D01*
X100320225Y-53338284D01*
X100336139Y-53155757D01*
X100340915Y-53130702D01*
X100391425Y-52961280D01*
X100401149Y-52937700D01*
X100484744Y-52781922D01*
X100499016Y-52760785D01*
X100612270Y-52625032D01*
X100630509Y-52607200D01*
X100773813Y-52493029D01*
X100784165Y-52485607D01*
X103608147Y-50670189D01*
X103618819Y-50664045D01*
X103776249Y-50583388D01*
X103799156Y-50574355D01*
X103963301Y-50527558D01*
X103987527Y-50523153D01*
X104163822Y-50508665D01*
X104176140Y-50508258D01*
X106506127Y-50545255D01*
G37*
%TD.AperFunction*%
%TD*%
M02*
