%TF.GenerationSoftware,KiCad,Pcbnew,9.0.1*%
%TF.CreationDate,2025-10-19T14:59:20+02:00*%
%TF.ProjectId,MP6532_board_28-QFN,4d503635-3332-45f6-926f-6172645f3238,rev?*%
%TF.SameCoordinates,Original*%
%TF.FileFunction,Soldermask,Bot*%
%TF.FilePolarity,Negative*%
%FSLAX46Y46*%
G04 Gerber Fmt 4.6, Leading zero omitted, Abs format (unit mm)*
G04 Created by KiCad (PCBNEW 9.0.1) date 2025-10-19 14:59:20*
%MOMM*%
%LPD*%
G01*
G04 APERTURE LIST*
%ADD10C,2.400000*%
%ADD11C,3.200000*%
%ADD12C,1.440000*%
%ADD13R,1.700000X1.700000*%
%ADD14O,1.700000X1.700000*%
%ADD15R,1.600000X1.600000*%
%ADD16O,1.600000X1.600000*%
G04 APERTURE END LIST*
D10*
%TO.C,H2*%
X117860000Y-54560000D03*
%TD*%
D11*
%TO.C,H10*%
X41170000Y-46390000D03*
%TD*%
D12*
%TO.C,RV1*%
X55499000Y-48387000D03*
X52959000Y-45847000D03*
X50419000Y-48387000D03*
%TD*%
D10*
%TO.C,H5*%
X113538000Y-71125000D03*
%TD*%
D13*
%TO.C,J1*%
X63560000Y-54500000D03*
D14*
X63560000Y-51960000D03*
X66100000Y-54500000D03*
X66100000Y-51960000D03*
X68640000Y-54500000D03*
X68640000Y-51960000D03*
X71180000Y-54500000D03*
X71180000Y-51960000D03*
%TD*%
D11*
%TO.C,H9*%
X125170000Y-46390000D03*
%TD*%
D15*
%TO.C,U2*%
X57912000Y-71120000D03*
D16*
X55372000Y-71120000D03*
X57912000Y-68580000D03*
X55372000Y-68580000D03*
X57912000Y-66040000D03*
X55372000Y-66040000D03*
X57912000Y-63500000D03*
X55372000Y-63500000D03*
X57912000Y-60960000D03*
X55372000Y-60960000D03*
X57912000Y-58420000D03*
X55372000Y-58420000D03*
X57912000Y-55880000D03*
X55372000Y-55880000D03*
X42672000Y-55880000D03*
X40132000Y-55880000D03*
X42672000Y-58420000D03*
X40132000Y-58420000D03*
X42672000Y-60960000D03*
X40132000Y-60960000D03*
X42672000Y-63500000D03*
X40132000Y-63500000D03*
X42672000Y-66040000D03*
X40132000Y-66040000D03*
X42672000Y-68580000D03*
X40132000Y-68580000D03*
X42672000Y-71120000D03*
X40132000Y-71120000D03*
%TD*%
D10*
%TO.C,H1*%
X113970000Y-54570000D03*
%TD*%
D13*
%TO.C,J2*%
X106235000Y-68030000D03*
D14*
X106235000Y-70570000D03*
X103695000Y-68030000D03*
X103695000Y-70570000D03*
X101155000Y-68030000D03*
X101155000Y-70570000D03*
X98615000Y-68030000D03*
X98615000Y-70570000D03*
X96075000Y-68030000D03*
X96075000Y-70570000D03*
X93535000Y-68030000D03*
X93535000Y-70570000D03*
X90995000Y-68030000D03*
X90995000Y-70570000D03*
X88455000Y-68030000D03*
X88455000Y-70570000D03*
X85915000Y-68030000D03*
X85915000Y-70570000D03*
X83375000Y-68030000D03*
X83375000Y-70570000D03*
X80835000Y-68030000D03*
X80835000Y-70570000D03*
X78295000Y-68030000D03*
X78295000Y-70570000D03*
X75755000Y-68030000D03*
X75755000Y-70570000D03*
X73215000Y-68030000D03*
X73215000Y-70570000D03*
X70675000Y-68030000D03*
X70675000Y-70570000D03*
X68135000Y-68030000D03*
X68135000Y-70570000D03*
X65595000Y-68030000D03*
X65595000Y-70570000D03*
X63055000Y-68030000D03*
X63055000Y-70570000D03*
%TD*%
D10*
%TO.C,H6*%
X117478000Y-71125000D03*
%TD*%
M02*
