%TF.GenerationSoftware,KiCad,Pcbnew,9.0.1*%
%TF.CreationDate,2025-10-19T14:59:19+02:00*%
%TF.ProjectId,MP6532_board_28-QFN,4d503635-3332-45f6-926f-6172645f3238,rev?*%
%TF.SameCoordinates,Original*%
%TF.FileFunction,Legend,Bot*%
%TF.FilePolarity,Positive*%
%FSLAX46Y46*%
G04 Gerber Fmt 4.6, Leading zero omitted, Abs format (unit mm)*
G04 Created by KiCad (PCBNEW 9.0.1) date 2025-10-19 14:59:19*
%MOMM*%
%LPD*%
G01*
G04 APERTURE LIST*
%ADD10C,0.150000*%
%ADD11C,0.300000*%
%ADD12C,0.100000*%
G04 APERTURE END LIST*
D10*
X78300000Y-49700000D02*
G75*
G02*
X77900000Y-49700000I-200000J0D01*
G01*
X77900000Y-49700000D02*
G75*
G02*
X78300000Y-49700000I200000J0D01*
G01*
D11*
X86900000Y-47400000D02*
X87900000Y-47400000D01*
X75300000Y-44100000D02*
X76300000Y-44100000D01*
D10*
X86100000Y-45100000D02*
G75*
G02*
X85700000Y-45100000I-200000J0D01*
G01*
X85700000Y-45100000D02*
G75*
G02*
X86100000Y-45100000I200000J0D01*
G01*
X86100000Y-48700000D02*
G75*
G02*
X85700000Y-48700000I-200000J0D01*
G01*
X85700000Y-48700000D02*
G75*
G02*
X86100000Y-48700000I200000J0D01*
G01*
X75500000Y-45100000D02*
G75*
G02*
X75100000Y-45100000I-200000J0D01*
G01*
X75100000Y-45100000D02*
G75*
G02*
X75500000Y-45100000I200000J0D01*
G01*
X88900000Y-49700000D02*
G75*
G02*
X88500000Y-49700000I-200000J0D01*
G01*
X88500000Y-49700000D02*
G75*
G02*
X88900000Y-49700000I200000J0D01*
G01*
X78300000Y-47400000D02*
G75*
G02*
X77900000Y-47400000I-200000J0D01*
G01*
X77900000Y-47400000D02*
G75*
G02*
X78300000Y-47400000I200000J0D01*
G01*
X88000000Y-44100000D02*
G75*
G02*
X87600000Y-44100000I-200000J0D01*
G01*
X87600000Y-44100000D02*
G75*
G02*
X88000000Y-44100000I200000J0D01*
G01*
X88900000Y-44100000D02*
G75*
G02*
X88500000Y-44100000I-200000J0D01*
G01*
X88500000Y-44100000D02*
G75*
G02*
X88900000Y-44100000I200000J0D01*
G01*
X82030000Y-71930000D02*
X82030000Y-64310000D01*
X74800000Y-48200000D02*
X78600000Y-48200000D01*
X78600000Y-50200000D01*
X74800000Y-50200000D01*
X74800000Y-48200000D01*
D11*
X77200000Y-46400000D02*
X78200000Y-46400000D01*
X77200000Y-47400000D02*
X78200000Y-47400000D01*
D10*
X76500000Y-44100000D02*
G75*
G02*
X76100000Y-44100000I-200000J0D01*
G01*
X76100000Y-44100000D02*
G75*
G02*
X76500000Y-44100000I200000J0D01*
G01*
X89560000Y-71880000D02*
X89560000Y-64260000D01*
D11*
X85900000Y-46400000D02*
X86900000Y-46400000D01*
D10*
X74800000Y-45900000D02*
X78600000Y-45900000D01*
X78600000Y-47900000D01*
X74800000Y-47900000D01*
X74800000Y-45900000D01*
D11*
X87800000Y-44100000D02*
X87800000Y-45100000D01*
D10*
X78300000Y-46400000D02*
G75*
G02*
X77900000Y-46400000I-200000J0D01*
G01*
X77900000Y-46400000D02*
G75*
G02*
X78300000Y-46400000I200000J0D01*
G01*
X78300000Y-45100000D02*
G75*
G02*
X77900000Y-45100000I-200000J0D01*
G01*
X77900000Y-45100000D02*
G75*
G02*
X78300000Y-45100000I200000J0D01*
G01*
D11*
X76300000Y-46400000D02*
X76300000Y-47400000D01*
D10*
X85400000Y-48200000D02*
X89200000Y-48200000D01*
X89200000Y-50200000D01*
X85400000Y-50200000D01*
X85400000Y-48200000D01*
D11*
X76200000Y-49700000D02*
X77200000Y-49700000D01*
D10*
X87100000Y-45100000D02*
G75*
G02*
X86700000Y-45100000I-200000J0D01*
G01*
X86700000Y-45100000D02*
G75*
G02*
X87100000Y-45100000I200000J0D01*
G01*
D11*
X86800000Y-48700000D02*
X87800000Y-48700000D01*
X88700000Y-44100000D02*
X88700000Y-45100000D01*
D10*
X75500000Y-48700000D02*
G75*
G02*
X75100000Y-48700000I-200000J0D01*
G01*
X75100000Y-48700000D02*
G75*
G02*
X75500000Y-48700000I200000J0D01*
G01*
X87100000Y-48700000D02*
G75*
G02*
X86700000Y-48700000I-200000J0D01*
G01*
X86700000Y-48700000D02*
G75*
G02*
X87100000Y-48700000I200000J0D01*
G01*
X75500000Y-47400000D02*
G75*
G02*
X75100000Y-47400000I-200000J0D01*
G01*
X75100000Y-47400000D02*
G75*
G02*
X75500000Y-47400000I200000J0D01*
G01*
X88000000Y-45100000D02*
G75*
G02*
X87600000Y-45100000I-200000J0D01*
G01*
X87600000Y-45100000D02*
G75*
G02*
X88000000Y-45100000I200000J0D01*
G01*
D11*
X76200000Y-48700000D02*
X77200000Y-48700000D01*
D10*
X64010000Y-71980000D02*
X64010000Y-64360000D01*
X76500000Y-47400000D02*
G75*
G02*
X76100000Y-47400000I-200000J0D01*
G01*
X76100000Y-47400000D02*
G75*
G02*
X76500000Y-47400000I200000J0D01*
G01*
X85400000Y-43600000D02*
X89200000Y-43600000D01*
X89200000Y-45600000D01*
X85400000Y-45600000D01*
X85400000Y-43600000D01*
X88000000Y-48700000D02*
G75*
G02*
X87600000Y-48700000I-200000J0D01*
G01*
X87600000Y-48700000D02*
G75*
G02*
X88000000Y-48700000I200000J0D01*
G01*
X74800000Y-43600000D02*
X78600000Y-43600000D01*
X78600000Y-45600000D01*
X74800000Y-45600000D01*
X74800000Y-43600000D01*
X77030000Y-71980000D02*
X77030000Y-64360000D01*
D11*
X87800000Y-49700000D02*
X88800000Y-49700000D01*
D10*
X99860000Y-71980000D02*
X99860000Y-64360000D01*
X77400000Y-48700000D02*
G75*
G02*
X77000000Y-48700000I-200000J0D01*
G01*
X77000000Y-48700000D02*
G75*
G02*
X77400000Y-48700000I200000J0D01*
G01*
X88900000Y-47400000D02*
G75*
G02*
X88500000Y-47400000I-200000J0D01*
G01*
X88500000Y-47400000D02*
G75*
G02*
X88900000Y-47400000I200000J0D01*
G01*
X88000000Y-47400000D02*
G75*
G02*
X87600000Y-47400000I-200000J0D01*
G01*
X87600000Y-47400000D02*
G75*
G02*
X88000000Y-47400000I200000J0D01*
G01*
X75500000Y-49700000D02*
G75*
G02*
X75100000Y-49700000I-200000J0D01*
G01*
X75100000Y-49700000D02*
G75*
G02*
X75500000Y-49700000I200000J0D01*
G01*
X86100000Y-44100000D02*
G75*
G02*
X85700000Y-44100000I-200000J0D01*
G01*
X85700000Y-44100000D02*
G75*
G02*
X86100000Y-44100000I200000J0D01*
G01*
X87100000Y-47400000D02*
G75*
G02*
X86700000Y-47400000I-200000J0D01*
G01*
X86700000Y-47400000D02*
G75*
G02*
X87100000Y-47400000I200000J0D01*
G01*
X74310000Y-71830000D02*
X74310000Y-64210000D01*
D11*
X87700000Y-46400000D02*
X88700000Y-46400000D01*
X77200000Y-44100000D02*
X77200000Y-45100000D01*
D10*
X86100000Y-46400000D02*
G75*
G02*
X85700000Y-46400000I-200000J0D01*
G01*
X85700000Y-46400000D02*
G75*
G02*
X86100000Y-46400000I200000J0D01*
G01*
X87100000Y-46400000D02*
G75*
G02*
X86700000Y-46400000I-200000J0D01*
G01*
X86700000Y-46400000D02*
G75*
G02*
X87100000Y-46400000I200000J0D01*
G01*
X87100000Y-49700000D02*
G75*
G02*
X86700000Y-49700000I-200000J0D01*
G01*
X86700000Y-49700000D02*
G75*
G02*
X87100000Y-49700000I200000J0D01*
G01*
X76500000Y-45100000D02*
G75*
G02*
X76100000Y-45100000I-200000J0D01*
G01*
X76100000Y-45100000D02*
G75*
G02*
X76500000Y-45100000I200000J0D01*
G01*
X77400000Y-45100000D02*
G75*
G02*
X77000000Y-45100000I-200000J0D01*
G01*
X77000000Y-45100000D02*
G75*
G02*
X77400000Y-45100000I200000J0D01*
G01*
X88900000Y-48700000D02*
G75*
G02*
X88500000Y-48700000I-200000J0D01*
G01*
X88500000Y-48700000D02*
G75*
G02*
X88900000Y-48700000I200000J0D01*
G01*
X78300000Y-44100000D02*
G75*
G02*
X77900000Y-44100000I-200000J0D01*
G01*
X77900000Y-44100000D02*
G75*
G02*
X78300000Y-44100000I200000J0D01*
G01*
D11*
X86900000Y-44100000D02*
X86900000Y-45100000D01*
X85900000Y-49700000D02*
X86900000Y-49700000D01*
D10*
X77400000Y-44100000D02*
G75*
G02*
X77000000Y-44100000I-200000J0D01*
G01*
X77000000Y-44100000D02*
G75*
G02*
X77400000Y-44100000I200000J0D01*
G01*
X86100000Y-47400000D02*
G75*
G02*
X85700000Y-47400000I-200000J0D01*
G01*
X85700000Y-47400000D02*
G75*
G02*
X86100000Y-47400000I200000J0D01*
G01*
D11*
X75300000Y-45100000D02*
X76300000Y-45100000D01*
D10*
X76500000Y-46400000D02*
G75*
G02*
X76100000Y-46400000I-200000J0D01*
G01*
X76100000Y-46400000D02*
G75*
G02*
X76500000Y-46400000I200000J0D01*
G01*
X87100000Y-44100000D02*
G75*
G02*
X86700000Y-44100000I-200000J0D01*
G01*
X86700000Y-44100000D02*
G75*
G02*
X87100000Y-44100000I200000J0D01*
G01*
X88000000Y-46400000D02*
G75*
G02*
X87600000Y-46400000I-200000J0D01*
G01*
X87600000Y-46400000D02*
G75*
G02*
X88000000Y-46400000I200000J0D01*
G01*
X87370000Y-72820000D02*
X87370000Y-75780000D01*
X78300000Y-48700000D02*
G75*
G02*
X77900000Y-48700000I-200000J0D01*
G01*
X77900000Y-48700000D02*
G75*
G02*
X78300000Y-48700000I200000J0D01*
G01*
D11*
X78100000Y-48700000D02*
X78100000Y-49700000D01*
D10*
X76500000Y-48700000D02*
G75*
G02*
X76100000Y-48700000I-200000J0D01*
G01*
X76100000Y-48700000D02*
G75*
G02*
X76500000Y-48700000I200000J0D01*
G01*
X75500000Y-46400000D02*
G75*
G02*
X75100000Y-46400000I-200000J0D01*
G01*
X75100000Y-46400000D02*
G75*
G02*
X75500000Y-46400000I200000J0D01*
G01*
X75500000Y-44100000D02*
G75*
G02*
X75100000Y-44100000I-200000J0D01*
G01*
X75100000Y-44100000D02*
G75*
G02*
X75500000Y-44100000I200000J0D01*
G01*
X88900000Y-46400000D02*
G75*
G02*
X88500000Y-46400000I-200000J0D01*
G01*
X88500000Y-46400000D02*
G75*
G02*
X88900000Y-46400000I200000J0D01*
G01*
X85400000Y-45900000D02*
X89200000Y-45900000D01*
X89200000Y-47900000D01*
X85400000Y-47900000D01*
X85400000Y-45900000D01*
X77400000Y-49700000D02*
G75*
G02*
X77000000Y-49700000I-200000J0D01*
G01*
X77000000Y-49700000D02*
G75*
G02*
X77400000Y-49700000I200000J0D01*
G01*
X86100000Y-49700000D02*
G75*
G02*
X85700000Y-49700000I-200000J0D01*
G01*
X85700000Y-49700000D02*
G75*
G02*
X86100000Y-49700000I200000J0D01*
G01*
X76500000Y-49700000D02*
G75*
G02*
X76100000Y-49700000I-200000J0D01*
G01*
X76100000Y-49700000D02*
G75*
G02*
X76500000Y-49700000I200000J0D01*
G01*
X88000000Y-49700000D02*
G75*
G02*
X87600000Y-49700000I-200000J0D01*
G01*
X87600000Y-49700000D02*
G75*
G02*
X88000000Y-49700000I200000J0D01*
G01*
X94710000Y-71980000D02*
X94710000Y-64360000D01*
X77400000Y-47400000D02*
G75*
G02*
X77000000Y-47400000I-200000J0D01*
G01*
X77000000Y-47400000D02*
G75*
G02*
X77400000Y-47400000I200000J0D01*
G01*
X77400000Y-46400000D02*
G75*
G02*
X77000000Y-46400000I-200000J0D01*
G01*
X77000000Y-46400000D02*
G75*
G02*
X77400000Y-46400000I200000J0D01*
G01*
X88900000Y-45100000D02*
G75*
G02*
X88500000Y-45100000I-200000J0D01*
G01*
X88500000Y-45100000D02*
G75*
G02*
X88900000Y-45100000I200000J0D01*
G01*
X76345180Y-66066666D02*
X75535657Y-66066666D01*
X75535657Y-66066666D02*
X75440419Y-66019047D01*
X75440419Y-66019047D02*
X75392800Y-65971428D01*
X75392800Y-65971428D02*
X75345180Y-65876190D01*
X75345180Y-65876190D02*
X75345180Y-65685714D01*
X75345180Y-65685714D02*
X75392800Y-65590476D01*
X75392800Y-65590476D02*
X75440419Y-65542857D01*
X75440419Y-65542857D02*
X75535657Y-65495238D01*
X75535657Y-65495238D02*
X76345180Y-65495238D01*
X75345180Y-64495238D02*
X75345180Y-65066666D01*
X75345180Y-64780952D02*
X76345180Y-64780952D01*
X76345180Y-64780952D02*
X76202323Y-64876190D01*
X76202323Y-64876190D02*
X76107085Y-64971428D01*
X76107085Y-64971428D02*
X76059466Y-65066666D01*
X76297561Y-62780952D02*
X76345180Y-62876190D01*
X76345180Y-62876190D02*
X76345180Y-63019047D01*
X76345180Y-63019047D02*
X76297561Y-63161904D01*
X76297561Y-63161904D02*
X76202323Y-63257142D01*
X76202323Y-63257142D02*
X76107085Y-63304761D01*
X76107085Y-63304761D02*
X75916609Y-63352380D01*
X75916609Y-63352380D02*
X75773752Y-63352380D01*
X75773752Y-63352380D02*
X75583276Y-63304761D01*
X75583276Y-63304761D02*
X75488038Y-63257142D01*
X75488038Y-63257142D02*
X75392800Y-63161904D01*
X75392800Y-63161904D02*
X75345180Y-63019047D01*
X75345180Y-63019047D02*
X75345180Y-62923809D01*
X75345180Y-62923809D02*
X75392800Y-62780952D01*
X75392800Y-62780952D02*
X75440419Y-62733333D01*
X75440419Y-62733333D02*
X75773752Y-62733333D01*
X75773752Y-62733333D02*
X75773752Y-62923809D01*
X75345180Y-62304761D02*
X76345180Y-62304761D01*
X76345180Y-62304761D02*
X75345180Y-61733333D01*
X75345180Y-61733333D02*
X76345180Y-61733333D01*
X75345180Y-61257142D02*
X76345180Y-61257142D01*
X76345180Y-61257142D02*
X76345180Y-61019047D01*
X76345180Y-61019047D02*
X76297561Y-60876190D01*
X76297561Y-60876190D02*
X76202323Y-60780952D01*
X76202323Y-60780952D02*
X76107085Y-60733333D01*
X76107085Y-60733333D02*
X75916609Y-60685714D01*
X75916609Y-60685714D02*
X75773752Y-60685714D01*
X75773752Y-60685714D02*
X75583276Y-60733333D01*
X75583276Y-60733333D02*
X75488038Y-60780952D01*
X75488038Y-60780952D02*
X75392800Y-60876190D01*
X75392800Y-60876190D02*
X75345180Y-61019047D01*
X75345180Y-61019047D02*
X75345180Y-61257142D01*
X71040895Y-57639999D02*
X71040895Y-57259046D01*
X70755180Y-57716189D02*
X71755180Y-57449522D01*
X71755180Y-57449522D02*
X70755180Y-57182856D01*
X70755180Y-56916189D02*
X71755180Y-56916189D01*
X70755180Y-56535237D02*
X71755180Y-56535237D01*
X71755180Y-56535237D02*
X70755180Y-56078094D01*
X70755180Y-56078094D02*
X71755180Y-56078094D01*
X66218990Y-57532380D02*
X66171371Y-57418094D01*
X66171371Y-57418094D02*
X66123752Y-57379999D01*
X66123752Y-57379999D02*
X66028514Y-57341903D01*
X66028514Y-57341903D02*
X65885657Y-57341903D01*
X65885657Y-57341903D02*
X65790419Y-57379999D01*
X65790419Y-57379999D02*
X65742800Y-57418094D01*
X65742800Y-57418094D02*
X65695180Y-57494284D01*
X65695180Y-57494284D02*
X65695180Y-57799046D01*
X65695180Y-57799046D02*
X66695180Y-57799046D01*
X66695180Y-57799046D02*
X66695180Y-57532380D01*
X66695180Y-57532380D02*
X66647561Y-57456189D01*
X66647561Y-57456189D02*
X66599942Y-57418094D01*
X66599942Y-57418094D02*
X66504704Y-57379999D01*
X66504704Y-57379999D02*
X66409466Y-57379999D01*
X66409466Y-57379999D02*
X66314228Y-57418094D01*
X66314228Y-57418094D02*
X66266609Y-57456189D01*
X66266609Y-57456189D02*
X66218990Y-57532380D01*
X66218990Y-57532380D02*
X66218990Y-57799046D01*
X65695180Y-56999046D02*
X66695180Y-56999046D01*
X65695180Y-56618094D02*
X66695180Y-56618094D01*
X66695180Y-56618094D02*
X65695180Y-56160951D01*
X65695180Y-56160951D02*
X66695180Y-56160951D01*
X68251681Y-66612381D02*
X69051681Y-66612381D01*
X68251681Y-66269524D02*
X68670729Y-66269524D01*
X68670729Y-66269524D02*
X68746919Y-66307619D01*
X68746919Y-66307619D02*
X68785015Y-66383810D01*
X68785015Y-66383810D02*
X68785015Y-66498096D01*
X68785015Y-66498096D02*
X68746919Y-66574286D01*
X68746919Y-66574286D02*
X68708824Y-66612381D01*
X68251681Y-65545714D02*
X68670729Y-65545714D01*
X68670729Y-65545714D02*
X68746919Y-65583809D01*
X68746919Y-65583809D02*
X68785015Y-65660000D01*
X68785015Y-65660000D02*
X68785015Y-65812381D01*
X68785015Y-65812381D02*
X68746919Y-65888571D01*
X68289777Y-65545714D02*
X68251681Y-65621905D01*
X68251681Y-65621905D02*
X68251681Y-65812381D01*
X68251681Y-65812381D02*
X68289777Y-65888571D01*
X68289777Y-65888571D02*
X68365967Y-65926667D01*
X68365967Y-65926667D02*
X68442157Y-65926667D01*
X68442157Y-65926667D02*
X68518348Y-65888571D01*
X68518348Y-65888571D02*
X68556443Y-65812381D01*
X68556443Y-65812381D02*
X68556443Y-65621905D01*
X68556443Y-65621905D02*
X68594538Y-65545714D01*
X68251681Y-65050476D02*
X68289777Y-65126666D01*
X68289777Y-65126666D02*
X68365967Y-65164761D01*
X68365967Y-65164761D02*
X69051681Y-65164761D01*
X68251681Y-64631428D02*
X68289777Y-64707618D01*
X68289777Y-64707618D02*
X68365967Y-64745713D01*
X68365967Y-64745713D02*
X69051681Y-64745713D01*
X67192298Y-66707619D02*
X67192298Y-66326666D01*
X66963726Y-66783809D02*
X67763726Y-66517142D01*
X67763726Y-66517142D02*
X66963726Y-66250476D01*
X66963726Y-65374285D02*
X67497060Y-65374285D01*
X67763726Y-65374285D02*
X67725631Y-65412381D01*
X67725631Y-65412381D02*
X67687536Y-65374285D01*
X67687536Y-65374285D02*
X67725631Y-65336190D01*
X67725631Y-65336190D02*
X67763726Y-65374285D01*
X67763726Y-65374285D02*
X67687536Y-65374285D01*
X67497060Y-64993333D02*
X66963726Y-64993333D01*
X67420869Y-64993333D02*
X67458964Y-64955238D01*
X67458964Y-64955238D02*
X67497060Y-64879048D01*
X67497060Y-64879048D02*
X67497060Y-64764762D01*
X67497060Y-64764762D02*
X67458964Y-64688571D01*
X67458964Y-64688571D02*
X67382774Y-64650476D01*
X67382774Y-64650476D02*
X66963726Y-64650476D01*
D12*
X45413407Y-56688275D02*
X45413407Y-55118275D01*
X45413407Y-55865894D02*
X44956264Y-55865894D01*
X44956264Y-56688275D02*
X44956264Y-55118275D01*
X44118169Y-56538752D02*
X44156265Y-56613514D01*
X44156265Y-56613514D02*
X44270550Y-56688275D01*
X44270550Y-56688275D02*
X44346741Y-56688275D01*
X44346741Y-56688275D02*
X44461027Y-56613514D01*
X44461027Y-56613514D02*
X44537217Y-56463990D01*
X44537217Y-56463990D02*
X44575312Y-56314466D01*
X44575312Y-56314466D02*
X44613408Y-56015418D01*
X44613408Y-56015418D02*
X44613408Y-55791133D01*
X44613408Y-55791133D02*
X44575312Y-55492085D01*
X44575312Y-55492085D02*
X44537217Y-55342561D01*
X44537217Y-55342561D02*
X44461027Y-55193037D01*
X44461027Y-55193037D02*
X44346741Y-55118275D01*
X44346741Y-55118275D02*
X44270550Y-55118275D01*
X44270550Y-55118275D02*
X44156265Y-55193037D01*
X44156265Y-55193037D02*
X44118169Y-55267799D01*
X45299121Y-59215887D02*
X45299121Y-57645887D01*
X45299121Y-58393506D02*
X44841978Y-58393506D01*
X44841978Y-59215887D02*
X44841978Y-57645887D01*
X44499122Y-58767316D02*
X44118169Y-58767316D01*
X44575312Y-59215887D02*
X44308645Y-57645887D01*
X44308645Y-57645887D02*
X44041979Y-59215887D01*
X46403884Y-61743499D02*
X46403884Y-60173499D01*
X46403884Y-60173499D02*
X46099122Y-60173499D01*
X46099122Y-60173499D02*
X46022932Y-60248261D01*
X46022932Y-60248261D02*
X45984837Y-60323023D01*
X45984837Y-60323023D02*
X45946741Y-60472547D01*
X45946741Y-60472547D02*
X45946741Y-60696833D01*
X45946741Y-60696833D02*
X45984837Y-60846357D01*
X45984837Y-60846357D02*
X46022932Y-60921118D01*
X46022932Y-60921118D02*
X46099122Y-60995880D01*
X46099122Y-60995880D02*
X46403884Y-60995880D01*
X45680075Y-60173499D02*
X45489599Y-61743499D01*
X45489599Y-61743499D02*
X45337218Y-60622071D01*
X45337218Y-60622071D02*
X45184837Y-61743499D01*
X45184837Y-61743499D02*
X44994361Y-60173499D01*
X44689598Y-61743499D02*
X44689598Y-60173499D01*
X44689598Y-60173499D02*
X44422932Y-61294928D01*
X44422932Y-61294928D02*
X44156265Y-60173499D01*
X44156265Y-60173499D02*
X44156265Y-61743499D01*
X46975312Y-63448730D02*
X47241978Y-63448730D01*
X47241978Y-64271111D02*
X47241978Y-62701111D01*
X47241978Y-62701111D02*
X46861026Y-62701111D01*
X46594360Y-63822540D02*
X46213407Y-63822540D01*
X46670550Y-64271111D02*
X46403883Y-62701111D01*
X46403883Y-62701111D02*
X46137217Y-64271111D01*
X45870550Y-62701111D02*
X45870550Y-63972064D01*
X45870550Y-63972064D02*
X45832455Y-64121588D01*
X45832455Y-64121588D02*
X45794360Y-64196350D01*
X45794360Y-64196350D02*
X45718169Y-64271111D01*
X45718169Y-64271111D02*
X45565788Y-64271111D01*
X45565788Y-64271111D02*
X45489598Y-64196350D01*
X45489598Y-64196350D02*
X45451503Y-64121588D01*
X45451503Y-64121588D02*
X45413407Y-63972064D01*
X45413407Y-63972064D02*
X45413407Y-62701111D01*
X44651503Y-64271111D02*
X45032455Y-64271111D01*
X45032455Y-64271111D02*
X45032455Y-62701111D01*
X44499122Y-62701111D02*
X44041979Y-62701111D01*
X44270551Y-64271111D02*
X44270551Y-62701111D01*
X47470550Y-65228723D02*
X47318169Y-65228723D01*
X47318169Y-65228723D02*
X47241979Y-65303485D01*
X47241979Y-65303485D02*
X47165788Y-65453009D01*
X47165788Y-65453009D02*
X47127693Y-65752057D01*
X47127693Y-65752057D02*
X47127693Y-66275390D01*
X47127693Y-66275390D02*
X47165788Y-66574438D01*
X47165788Y-66574438D02*
X47241979Y-66723962D01*
X47241979Y-66723962D02*
X47318169Y-66798723D01*
X47318169Y-66798723D02*
X47470550Y-66798723D01*
X47470550Y-66798723D02*
X47546741Y-66723962D01*
X47546741Y-66723962D02*
X47622931Y-66574438D01*
X47622931Y-66574438D02*
X47661027Y-66275390D01*
X47661027Y-66275390D02*
X47661027Y-65752057D01*
X47661027Y-65752057D02*
X47622931Y-65453009D01*
X47622931Y-65453009D02*
X47546741Y-65303485D01*
X47546741Y-65303485D02*
X47470550Y-65228723D01*
X46327693Y-66649200D02*
X46365789Y-66723962D01*
X46365789Y-66723962D02*
X46480074Y-66798723D01*
X46480074Y-66798723D02*
X46556265Y-66798723D01*
X46556265Y-66798723D02*
X46670551Y-66723962D01*
X46670551Y-66723962D02*
X46746741Y-66574438D01*
X46746741Y-66574438D02*
X46784836Y-66424914D01*
X46784836Y-66424914D02*
X46822932Y-66125866D01*
X46822932Y-66125866D02*
X46822932Y-65901581D01*
X46822932Y-65901581D02*
X46784836Y-65602533D01*
X46784836Y-65602533D02*
X46746741Y-65453009D01*
X46746741Y-65453009D02*
X46670551Y-65303485D01*
X46670551Y-65303485D02*
X46556265Y-65228723D01*
X46556265Y-65228723D02*
X46480074Y-65228723D01*
X46480074Y-65228723D02*
X46365789Y-65303485D01*
X46365789Y-65303485D02*
X46327693Y-65378247D01*
X45527693Y-66798723D02*
X45794360Y-66051104D01*
X45984836Y-66798723D02*
X45984836Y-65228723D01*
X45984836Y-65228723D02*
X45680074Y-65228723D01*
X45680074Y-65228723D02*
X45603884Y-65303485D01*
X45603884Y-65303485D02*
X45565789Y-65378247D01*
X45565789Y-65378247D02*
X45527693Y-65527771D01*
X45527693Y-65527771D02*
X45527693Y-65752057D01*
X45527693Y-65752057D02*
X45565789Y-65901581D01*
X45565789Y-65901581D02*
X45603884Y-65976342D01*
X45603884Y-65976342D02*
X45680074Y-66051104D01*
X45680074Y-66051104D02*
X45984836Y-66051104D01*
X45184836Y-65976342D02*
X44918170Y-65976342D01*
X44803884Y-66798723D02*
X45184836Y-66798723D01*
X45184836Y-66798723D02*
X45184836Y-65228723D01*
X45184836Y-65228723D02*
X44803884Y-65228723D01*
X44194360Y-65976342D02*
X44461026Y-65976342D01*
X44461026Y-66798723D02*
X44461026Y-65228723D01*
X44461026Y-65228723D02*
X44080074Y-65228723D01*
X45794360Y-67831097D02*
X45870550Y-67756335D01*
X45870550Y-67756335D02*
X45984836Y-67756335D01*
X45984836Y-67756335D02*
X46099122Y-67831097D01*
X46099122Y-67831097D02*
X46175312Y-67980621D01*
X46175312Y-67980621D02*
X46213407Y-68130145D01*
X46213407Y-68130145D02*
X46251503Y-68429193D01*
X46251503Y-68429193D02*
X46251503Y-68653478D01*
X46251503Y-68653478D02*
X46213407Y-68952526D01*
X46213407Y-68952526D02*
X46175312Y-69102050D01*
X46175312Y-69102050D02*
X46099122Y-69251574D01*
X46099122Y-69251574D02*
X45984836Y-69326335D01*
X45984836Y-69326335D02*
X45908645Y-69326335D01*
X45908645Y-69326335D02*
X45794360Y-69251574D01*
X45794360Y-69251574D02*
X45756264Y-69176812D01*
X45756264Y-69176812D02*
X45756264Y-68653478D01*
X45756264Y-68653478D02*
X45908645Y-68653478D01*
X45413407Y-69326335D02*
X45413407Y-67756335D01*
X45413407Y-67756335D02*
X44956264Y-69326335D01*
X44956264Y-69326335D02*
X44956264Y-67756335D01*
X44575312Y-69326335D02*
X44575312Y-67756335D01*
X44575312Y-67756335D02*
X44384836Y-67756335D01*
X44384836Y-67756335D02*
X44270550Y-67831097D01*
X44270550Y-67831097D02*
X44194360Y-67980621D01*
X44194360Y-67980621D02*
X44156265Y-68130145D01*
X44156265Y-68130145D02*
X44118169Y-68429193D01*
X44118169Y-68429193D02*
X44118169Y-68653478D01*
X44118169Y-68653478D02*
X44156265Y-68952526D01*
X44156265Y-68952526D02*
X44194360Y-69102050D01*
X44194360Y-69102050D02*
X44270550Y-69251574D01*
X44270550Y-69251574D02*
X44384836Y-69326335D01*
X44384836Y-69326335D02*
X44575312Y-69326335D01*
X45603883Y-71704424D02*
X45641979Y-71779186D01*
X45641979Y-71779186D02*
X45756264Y-71853947D01*
X45756264Y-71853947D02*
X45832455Y-71853947D01*
X45832455Y-71853947D02*
X45946741Y-71779186D01*
X45946741Y-71779186D02*
X46022931Y-71629662D01*
X46022931Y-71629662D02*
X46061026Y-71480138D01*
X46061026Y-71480138D02*
X46099122Y-71181090D01*
X46099122Y-71181090D02*
X46099122Y-70956805D01*
X46099122Y-70956805D02*
X46061026Y-70657757D01*
X46061026Y-70657757D02*
X46022931Y-70508233D01*
X46022931Y-70508233D02*
X45946741Y-70358709D01*
X45946741Y-70358709D02*
X45832455Y-70283947D01*
X45832455Y-70283947D02*
X45756264Y-70283947D01*
X45756264Y-70283947D02*
X45641979Y-70358709D01*
X45641979Y-70358709D02*
X45603883Y-70433471D01*
X45261026Y-71853947D02*
X45261026Y-70283947D01*
X45261026Y-70283947D02*
X44956264Y-70283947D01*
X44956264Y-70283947D02*
X44880074Y-70358709D01*
X44880074Y-70358709D02*
X44841979Y-70433471D01*
X44841979Y-70433471D02*
X44803883Y-70582995D01*
X44803883Y-70582995D02*
X44803883Y-70807281D01*
X44803883Y-70807281D02*
X44841979Y-70956805D01*
X44841979Y-70956805D02*
X44880074Y-71031566D01*
X44880074Y-71031566D02*
X44956264Y-71106328D01*
X44956264Y-71106328D02*
X45261026Y-71106328D01*
X44499122Y-71405376D02*
X44118169Y-71405376D01*
X44575312Y-71853947D02*
X44308645Y-70283947D01*
X44308645Y-70283947D02*
X44041979Y-71853947D01*
D10*
X81485714Y-66086128D02*
X81485714Y-64586128D01*
X81485714Y-65300414D02*
X80628571Y-65300414D01*
X80628571Y-66086128D02*
X80628571Y-64586128D01*
X79985713Y-65657557D02*
X79271428Y-65657557D01*
X80128570Y-66086128D02*
X79628570Y-64586128D01*
X79628570Y-64586128D02*
X79128570Y-66086128D01*
X78699999Y-66014700D02*
X78485714Y-66086128D01*
X78485714Y-66086128D02*
X78128571Y-66086128D01*
X78128571Y-66086128D02*
X77985714Y-66014700D01*
X77985714Y-66014700D02*
X77914285Y-65943271D01*
X77914285Y-65943271D02*
X77842856Y-65800414D01*
X77842856Y-65800414D02*
X77842856Y-65657557D01*
X77842856Y-65657557D02*
X77914285Y-65514700D01*
X77914285Y-65514700D02*
X77985714Y-65443271D01*
X77985714Y-65443271D02*
X78128571Y-65371842D01*
X78128571Y-65371842D02*
X78414285Y-65300414D01*
X78414285Y-65300414D02*
X78557142Y-65228985D01*
X78557142Y-65228985D02*
X78628571Y-65157557D01*
X78628571Y-65157557D02*
X78699999Y-65014700D01*
X78699999Y-65014700D02*
X78699999Y-64871842D01*
X78699999Y-64871842D02*
X78628571Y-64728985D01*
X78628571Y-64728985D02*
X78557142Y-64657557D01*
X78557142Y-64657557D02*
X78414285Y-64586128D01*
X78414285Y-64586128D02*
X78057142Y-64586128D01*
X78057142Y-64586128D02*
X77842856Y-64657557D01*
X68320419Y-56891427D02*
X68272800Y-56929523D01*
X68272800Y-56929523D02*
X68225180Y-57043808D01*
X68225180Y-57043808D02*
X68225180Y-57119999D01*
X68225180Y-57119999D02*
X68272800Y-57234285D01*
X68272800Y-57234285D02*
X68368038Y-57310475D01*
X68368038Y-57310475D02*
X68463276Y-57348570D01*
X68463276Y-57348570D02*
X68653752Y-57386666D01*
X68653752Y-57386666D02*
X68796609Y-57386666D01*
X68796609Y-57386666D02*
X68987085Y-57348570D01*
X68987085Y-57348570D02*
X69082323Y-57310475D01*
X69082323Y-57310475D02*
X69177561Y-57234285D01*
X69177561Y-57234285D02*
X69225180Y-57119999D01*
X69225180Y-57119999D02*
X69225180Y-57043808D01*
X69225180Y-57043808D02*
X69177561Y-56929523D01*
X69177561Y-56929523D02*
X69129942Y-56891427D01*
X69225180Y-56396189D02*
X69225180Y-56243808D01*
X69225180Y-56243808D02*
X69177561Y-56167618D01*
X69177561Y-56167618D02*
X69082323Y-56091427D01*
X69082323Y-56091427D02*
X68891847Y-56053332D01*
X68891847Y-56053332D02*
X68558514Y-56053332D01*
X68558514Y-56053332D02*
X68368038Y-56091427D01*
X68368038Y-56091427D02*
X68272800Y-56167618D01*
X68272800Y-56167618D02*
X68225180Y-56243808D01*
X68225180Y-56243808D02*
X68225180Y-56396189D01*
X68225180Y-56396189D02*
X68272800Y-56472380D01*
X68272800Y-56472380D02*
X68368038Y-56548570D01*
X68368038Y-56548570D02*
X68558514Y-56586666D01*
X68558514Y-56586666D02*
X68891847Y-56586666D01*
X68891847Y-56586666D02*
X69082323Y-56548570D01*
X69082323Y-56548570D02*
X69177561Y-56472380D01*
X69177561Y-56472380D02*
X69225180Y-56396189D01*
X70748990Y-74396190D02*
X70748990Y-74662856D01*
X70225180Y-74662856D02*
X71225180Y-74662856D01*
X71225180Y-74662856D02*
X71225180Y-74281904D01*
X70510895Y-74015238D02*
X70510895Y-73634285D01*
X70225180Y-74091428D02*
X71225180Y-73824761D01*
X71225180Y-73824761D02*
X70225180Y-73558095D01*
X71225180Y-73291428D02*
X70415657Y-73291428D01*
X70415657Y-73291428D02*
X70320419Y-73253333D01*
X70320419Y-73253333D02*
X70272800Y-73215238D01*
X70272800Y-73215238D02*
X70225180Y-73139047D01*
X70225180Y-73139047D02*
X70225180Y-72986666D01*
X70225180Y-72986666D02*
X70272800Y-72910476D01*
X70272800Y-72910476D02*
X70320419Y-72872381D01*
X70320419Y-72872381D02*
X70415657Y-72834285D01*
X70415657Y-72834285D02*
X71225180Y-72834285D01*
X70225180Y-72072381D02*
X70225180Y-72453333D01*
X70225180Y-72453333D02*
X71225180Y-72453333D01*
X71225180Y-71920000D02*
X71225180Y-71462857D01*
X70225180Y-71691429D02*
X71225180Y-71691429D01*
X94122857Y-66086128D02*
X94122857Y-64586128D01*
X94122857Y-65300414D02*
X93265714Y-65300414D01*
X93265714Y-66086128D02*
X93265714Y-64586128D01*
X92051428Y-65300414D02*
X91837142Y-65371842D01*
X91837142Y-65371842D02*
X91765713Y-65443271D01*
X91765713Y-65443271D02*
X91694285Y-65586128D01*
X91694285Y-65586128D02*
X91694285Y-65800414D01*
X91694285Y-65800414D02*
X91765713Y-65943271D01*
X91765713Y-65943271D02*
X91837142Y-66014700D01*
X91837142Y-66014700D02*
X91979999Y-66086128D01*
X91979999Y-66086128D02*
X92551428Y-66086128D01*
X92551428Y-66086128D02*
X92551428Y-64586128D01*
X92551428Y-64586128D02*
X92051428Y-64586128D01*
X92051428Y-64586128D02*
X91908571Y-64657557D01*
X91908571Y-64657557D02*
X91837142Y-64728985D01*
X91837142Y-64728985D02*
X91765713Y-64871842D01*
X91765713Y-64871842D02*
X91765713Y-65014700D01*
X91765713Y-65014700D02*
X91837142Y-65157557D01*
X91837142Y-65157557D02*
X91908571Y-65228985D01*
X91908571Y-65228985D02*
X92051428Y-65300414D01*
X92051428Y-65300414D02*
X92551428Y-65300414D01*
X91122856Y-66014700D02*
X90908571Y-66086128D01*
X90908571Y-66086128D02*
X90551428Y-66086128D01*
X90551428Y-66086128D02*
X90408571Y-66014700D01*
X90408571Y-66014700D02*
X90337142Y-65943271D01*
X90337142Y-65943271D02*
X90265713Y-65800414D01*
X90265713Y-65800414D02*
X90265713Y-65657557D01*
X90265713Y-65657557D02*
X90337142Y-65514700D01*
X90337142Y-65514700D02*
X90408571Y-65443271D01*
X90408571Y-65443271D02*
X90551428Y-65371842D01*
X90551428Y-65371842D02*
X90837142Y-65300414D01*
X90837142Y-65300414D02*
X90979999Y-65228985D01*
X90979999Y-65228985D02*
X91051428Y-65157557D01*
X91051428Y-65157557D02*
X91122856Y-65014700D01*
X91122856Y-65014700D02*
X91122856Y-64871842D01*
X91122856Y-64871842D02*
X91051428Y-64728985D01*
X91051428Y-64728985D02*
X90979999Y-64657557D01*
X90979999Y-64657557D02*
X90837142Y-64586128D01*
X90837142Y-64586128D02*
X90479999Y-64586128D01*
X90479999Y-64586128D02*
X90265713Y-64657557D01*
X83695238Y-45171212D02*
X84028571Y-44456926D01*
X84266666Y-45171212D02*
X84266666Y-43671212D01*
X84266666Y-43671212D02*
X83885714Y-43671212D01*
X83885714Y-43671212D02*
X83790476Y-43742641D01*
X83790476Y-43742641D02*
X83742857Y-43814069D01*
X83742857Y-43814069D02*
X83695238Y-43956926D01*
X83695238Y-43956926D02*
X83695238Y-44171212D01*
X83695238Y-44171212D02*
X83742857Y-44314069D01*
X83742857Y-44314069D02*
X83790476Y-44385498D01*
X83790476Y-44385498D02*
X83885714Y-44456926D01*
X83885714Y-44456926D02*
X84266666Y-44456926D01*
X82885714Y-45099784D02*
X82980952Y-45171212D01*
X82980952Y-45171212D02*
X83171428Y-45171212D01*
X83171428Y-45171212D02*
X83266666Y-45099784D01*
X83266666Y-45099784D02*
X83314285Y-44956926D01*
X83314285Y-44956926D02*
X83314285Y-44385498D01*
X83314285Y-44385498D02*
X83266666Y-44242641D01*
X83266666Y-44242641D02*
X83171428Y-44171212D01*
X83171428Y-44171212D02*
X82980952Y-44171212D01*
X82980952Y-44171212D02*
X82885714Y-44242641D01*
X82885714Y-44242641D02*
X82838095Y-44385498D01*
X82838095Y-44385498D02*
X82838095Y-44528355D01*
X82838095Y-44528355D02*
X83314285Y-44671212D01*
X82504761Y-44171212D02*
X82266666Y-45171212D01*
X82266666Y-45171212D02*
X82028571Y-44171212D01*
X81647618Y-44599784D02*
X80885714Y-44599784D01*
X80457142Y-43814069D02*
X80409523Y-43742641D01*
X80409523Y-43742641D02*
X80314285Y-43671212D01*
X80314285Y-43671212D02*
X80076190Y-43671212D01*
X80076190Y-43671212D02*
X79980952Y-43742641D01*
X79980952Y-43742641D02*
X79933333Y-43814069D01*
X79933333Y-43814069D02*
X79885714Y-43956926D01*
X79885714Y-43956926D02*
X79885714Y-44099784D01*
X79885714Y-44099784D02*
X79933333Y-44314069D01*
X79933333Y-44314069D02*
X80504761Y-45171212D01*
X80504761Y-45171212D02*
X79885714Y-45171212D01*
X83695238Y-47586128D02*
X84028571Y-46871842D01*
X84266666Y-47586128D02*
X84266666Y-46086128D01*
X84266666Y-46086128D02*
X83885714Y-46086128D01*
X83885714Y-46086128D02*
X83790476Y-46157557D01*
X83790476Y-46157557D02*
X83742857Y-46228985D01*
X83742857Y-46228985D02*
X83695238Y-46371842D01*
X83695238Y-46371842D02*
X83695238Y-46586128D01*
X83695238Y-46586128D02*
X83742857Y-46728985D01*
X83742857Y-46728985D02*
X83790476Y-46800414D01*
X83790476Y-46800414D02*
X83885714Y-46871842D01*
X83885714Y-46871842D02*
X84266666Y-46871842D01*
X82885714Y-47514700D02*
X82980952Y-47586128D01*
X82980952Y-47586128D02*
X83171428Y-47586128D01*
X83171428Y-47586128D02*
X83266666Y-47514700D01*
X83266666Y-47514700D02*
X83314285Y-47371842D01*
X83314285Y-47371842D02*
X83314285Y-46800414D01*
X83314285Y-46800414D02*
X83266666Y-46657557D01*
X83266666Y-46657557D02*
X83171428Y-46586128D01*
X83171428Y-46586128D02*
X82980952Y-46586128D01*
X82980952Y-46586128D02*
X82885714Y-46657557D01*
X82885714Y-46657557D02*
X82838095Y-46800414D01*
X82838095Y-46800414D02*
X82838095Y-46943271D01*
X82838095Y-46943271D02*
X83314285Y-47086128D01*
X82504761Y-46586128D02*
X82266666Y-47586128D01*
X82266666Y-47586128D02*
X82028571Y-46586128D01*
X81647618Y-47014700D02*
X80885714Y-47014700D01*
X79885714Y-47586128D02*
X80457142Y-47586128D01*
X80171428Y-47586128D02*
X80171428Y-46086128D01*
X80171428Y-46086128D02*
X80266666Y-46300414D01*
X80266666Y-46300414D02*
X80361904Y-46443271D01*
X80361904Y-46443271D02*
X80457142Y-46514700D01*
X82600000Y-50001044D02*
X82933333Y-49286758D01*
X83171428Y-50001044D02*
X83171428Y-48501044D01*
X83171428Y-48501044D02*
X82790476Y-48501044D01*
X82790476Y-48501044D02*
X82695238Y-48572473D01*
X82695238Y-48572473D02*
X82647619Y-48643901D01*
X82647619Y-48643901D02*
X82600000Y-48786758D01*
X82600000Y-48786758D02*
X82600000Y-49001044D01*
X82600000Y-49001044D02*
X82647619Y-49143901D01*
X82647619Y-49143901D02*
X82695238Y-49215330D01*
X82695238Y-49215330D02*
X82790476Y-49286758D01*
X82790476Y-49286758D02*
X83171428Y-49286758D01*
X81790476Y-49929616D02*
X81885714Y-50001044D01*
X81885714Y-50001044D02*
X82076190Y-50001044D01*
X82076190Y-50001044D02*
X82171428Y-49929616D01*
X82171428Y-49929616D02*
X82219047Y-49786758D01*
X82219047Y-49786758D02*
X82219047Y-49215330D01*
X82219047Y-49215330D02*
X82171428Y-49072473D01*
X82171428Y-49072473D02*
X82076190Y-49001044D01*
X82076190Y-49001044D02*
X81885714Y-49001044D01*
X81885714Y-49001044D02*
X81790476Y-49072473D01*
X81790476Y-49072473D02*
X81742857Y-49215330D01*
X81742857Y-49215330D02*
X81742857Y-49358187D01*
X81742857Y-49358187D02*
X82219047Y-49501044D01*
X81409523Y-49001044D02*
X81171428Y-50001044D01*
X81171428Y-50001044D02*
X80933333Y-49001044D01*
X73281681Y-66532381D02*
X74081681Y-66532381D01*
X73281681Y-66189524D02*
X73700729Y-66189524D01*
X73700729Y-66189524D02*
X73776919Y-66227619D01*
X73776919Y-66227619D02*
X73815015Y-66303810D01*
X73815015Y-66303810D02*
X73815015Y-66418096D01*
X73815015Y-66418096D02*
X73776919Y-66494286D01*
X73776919Y-66494286D02*
X73738824Y-66532381D01*
X73281681Y-65465714D02*
X73700729Y-65465714D01*
X73700729Y-65465714D02*
X73776919Y-65503809D01*
X73776919Y-65503809D02*
X73815015Y-65580000D01*
X73815015Y-65580000D02*
X73815015Y-65732381D01*
X73815015Y-65732381D02*
X73776919Y-65808571D01*
X73319777Y-65465714D02*
X73281681Y-65541905D01*
X73281681Y-65541905D02*
X73281681Y-65732381D01*
X73281681Y-65732381D02*
X73319777Y-65808571D01*
X73319777Y-65808571D02*
X73395967Y-65846667D01*
X73395967Y-65846667D02*
X73472157Y-65846667D01*
X73472157Y-65846667D02*
X73548348Y-65808571D01*
X73548348Y-65808571D02*
X73586443Y-65732381D01*
X73586443Y-65732381D02*
X73586443Y-65541905D01*
X73586443Y-65541905D02*
X73624538Y-65465714D01*
X73281681Y-64970476D02*
X73319777Y-65046666D01*
X73319777Y-65046666D02*
X73395967Y-65084761D01*
X73395967Y-65084761D02*
X74081681Y-65084761D01*
X73281681Y-64551428D02*
X73319777Y-64627618D01*
X73319777Y-64627618D02*
X73395967Y-64665713D01*
X73395967Y-64665713D02*
X74081681Y-64665713D01*
X72069917Y-66189523D02*
X72031822Y-66227619D01*
X72031822Y-66227619D02*
X71993726Y-66341904D01*
X71993726Y-66341904D02*
X71993726Y-66418095D01*
X71993726Y-66418095D02*
X72031822Y-66532381D01*
X72031822Y-66532381D02*
X72108012Y-66608571D01*
X72108012Y-66608571D02*
X72184202Y-66646666D01*
X72184202Y-66646666D02*
X72336583Y-66684762D01*
X72336583Y-66684762D02*
X72450869Y-66684762D01*
X72450869Y-66684762D02*
X72603250Y-66646666D01*
X72603250Y-66646666D02*
X72679441Y-66608571D01*
X72679441Y-66608571D02*
X72755631Y-66532381D01*
X72755631Y-66532381D02*
X72793726Y-66418095D01*
X72793726Y-66418095D02*
X72793726Y-66341904D01*
X72793726Y-66341904D02*
X72755631Y-66227619D01*
X72755631Y-66227619D02*
X72717536Y-66189523D01*
X71993726Y-65237142D02*
X72527060Y-65237142D01*
X72793726Y-65237142D02*
X72755631Y-65275238D01*
X72755631Y-65275238D02*
X72717536Y-65237142D01*
X72717536Y-65237142D02*
X72755631Y-65199047D01*
X72755631Y-65199047D02*
X72793726Y-65237142D01*
X72793726Y-65237142D02*
X72717536Y-65237142D01*
X72527060Y-64856190D02*
X71993726Y-64856190D01*
X72450869Y-64856190D02*
X72488964Y-64818095D01*
X72488964Y-64818095D02*
X72527060Y-64741905D01*
X72527060Y-64741905D02*
X72527060Y-64627619D01*
X72527060Y-64627619D02*
X72488964Y-64551428D01*
X72488964Y-64551428D02*
X72412774Y-64513333D01*
X72412774Y-64513333D02*
X71993726Y-64513333D01*
X63400895Y-50119999D02*
X63400895Y-49739046D01*
X63115180Y-50196189D02*
X64115180Y-49929522D01*
X64115180Y-49929522D02*
X63115180Y-49662856D01*
X63115180Y-49396189D02*
X64115180Y-49396189D01*
X63115180Y-49015237D02*
X64115180Y-49015237D01*
X64115180Y-49015237D02*
X63115180Y-48558094D01*
X63115180Y-48558094D02*
X64115180Y-48558094D01*
D12*
X60713884Y-55143037D02*
X60790074Y-55068275D01*
X60790074Y-55068275D02*
X60904360Y-55068275D01*
X60904360Y-55068275D02*
X61018646Y-55143037D01*
X61018646Y-55143037D02*
X61094836Y-55292561D01*
X61094836Y-55292561D02*
X61132931Y-55442085D01*
X61132931Y-55442085D02*
X61171027Y-55741133D01*
X61171027Y-55741133D02*
X61171027Y-55965418D01*
X61171027Y-55965418D02*
X61132931Y-56264466D01*
X61132931Y-56264466D02*
X61094836Y-56413990D01*
X61094836Y-56413990D02*
X61018646Y-56563514D01*
X61018646Y-56563514D02*
X60904360Y-56638275D01*
X60904360Y-56638275D02*
X60828169Y-56638275D01*
X60828169Y-56638275D02*
X60713884Y-56563514D01*
X60713884Y-56563514D02*
X60675788Y-56488752D01*
X60675788Y-56488752D02*
X60675788Y-55965418D01*
X60675788Y-55965418D02*
X60828169Y-55965418D01*
X59951979Y-56638275D02*
X60332931Y-56638275D01*
X60332931Y-56638275D02*
X60332931Y-55068275D01*
X59228169Y-56488752D02*
X59266265Y-56563514D01*
X59266265Y-56563514D02*
X59380550Y-56638275D01*
X59380550Y-56638275D02*
X59456741Y-56638275D01*
X59456741Y-56638275D02*
X59571027Y-56563514D01*
X59571027Y-56563514D02*
X59647217Y-56413990D01*
X59647217Y-56413990D02*
X59685312Y-56264466D01*
X59685312Y-56264466D02*
X59723408Y-55965418D01*
X59723408Y-55965418D02*
X59723408Y-55741133D01*
X59723408Y-55741133D02*
X59685312Y-55442085D01*
X59685312Y-55442085D02*
X59647217Y-55292561D01*
X59647217Y-55292561D02*
X59571027Y-55143037D01*
X59571027Y-55143037D02*
X59456741Y-55068275D01*
X59456741Y-55068275D02*
X59380550Y-55068275D01*
X59380550Y-55068275D02*
X59266265Y-55143037D01*
X59266265Y-55143037D02*
X59228169Y-55217799D01*
X61323408Y-59091126D02*
X61209122Y-59165887D01*
X61209122Y-59165887D02*
X61018646Y-59165887D01*
X61018646Y-59165887D02*
X60942455Y-59091126D01*
X60942455Y-59091126D02*
X60904360Y-59016364D01*
X60904360Y-59016364D02*
X60866265Y-58866840D01*
X60866265Y-58866840D02*
X60866265Y-58717316D01*
X60866265Y-58717316D02*
X60904360Y-58567792D01*
X60904360Y-58567792D02*
X60942455Y-58493030D01*
X60942455Y-58493030D02*
X61018646Y-58418268D01*
X61018646Y-58418268D02*
X61171027Y-58343506D01*
X61171027Y-58343506D02*
X61247217Y-58268745D01*
X61247217Y-58268745D02*
X61285312Y-58193983D01*
X61285312Y-58193983D02*
X61323408Y-58044459D01*
X61323408Y-58044459D02*
X61323408Y-57894935D01*
X61323408Y-57894935D02*
X61285312Y-57745411D01*
X61285312Y-57745411D02*
X61247217Y-57670649D01*
X61247217Y-57670649D02*
X61171027Y-57595887D01*
X61171027Y-57595887D02*
X60980550Y-57595887D01*
X60980550Y-57595887D02*
X60866265Y-57670649D01*
X60523407Y-59165887D02*
X60523407Y-57595887D01*
X60523407Y-58343506D02*
X60066264Y-58343506D01*
X60066264Y-59165887D02*
X60066264Y-57595887D01*
X59228169Y-59016364D02*
X59266265Y-59091126D01*
X59266265Y-59091126D02*
X59380550Y-59165887D01*
X59380550Y-59165887D02*
X59456741Y-59165887D01*
X59456741Y-59165887D02*
X59571027Y-59091126D01*
X59571027Y-59091126D02*
X59647217Y-58941602D01*
X59647217Y-58941602D02*
X59685312Y-58792078D01*
X59685312Y-58792078D02*
X59723408Y-58493030D01*
X59723408Y-58493030D02*
X59723408Y-58268745D01*
X59723408Y-58268745D02*
X59685312Y-57969697D01*
X59685312Y-57969697D02*
X59647217Y-57820173D01*
X59647217Y-57820173D02*
X59571027Y-57670649D01*
X59571027Y-57670649D02*
X59456741Y-57595887D01*
X59456741Y-57595887D02*
X59380550Y-57595887D01*
X59380550Y-57595887D02*
X59266265Y-57670649D01*
X59266265Y-57670649D02*
X59228169Y-57745411D01*
X60713884Y-60198261D02*
X60790074Y-60123499D01*
X60790074Y-60123499D02*
X60904360Y-60123499D01*
X60904360Y-60123499D02*
X61018646Y-60198261D01*
X61018646Y-60198261D02*
X61094836Y-60347785D01*
X61094836Y-60347785D02*
X61132931Y-60497309D01*
X61132931Y-60497309D02*
X61171027Y-60796357D01*
X61171027Y-60796357D02*
X61171027Y-61020642D01*
X61171027Y-61020642D02*
X61132931Y-61319690D01*
X61132931Y-61319690D02*
X61094836Y-61469214D01*
X61094836Y-61469214D02*
X61018646Y-61618738D01*
X61018646Y-61618738D02*
X60904360Y-61693499D01*
X60904360Y-61693499D02*
X60828169Y-61693499D01*
X60828169Y-61693499D02*
X60713884Y-61618738D01*
X60713884Y-61618738D02*
X60675788Y-61543976D01*
X60675788Y-61543976D02*
X60675788Y-61020642D01*
X60675788Y-61020642D02*
X60828169Y-61020642D01*
X59951979Y-61693499D02*
X60332931Y-61693499D01*
X60332931Y-61693499D02*
X60332931Y-60123499D01*
X59418646Y-60871118D02*
X59304360Y-60945880D01*
X59304360Y-60945880D02*
X59266265Y-61020642D01*
X59266265Y-61020642D02*
X59228169Y-61170166D01*
X59228169Y-61170166D02*
X59228169Y-61394452D01*
X59228169Y-61394452D02*
X59266265Y-61543976D01*
X59266265Y-61543976D02*
X59304360Y-61618738D01*
X59304360Y-61618738D02*
X59380550Y-61693499D01*
X59380550Y-61693499D02*
X59685312Y-61693499D01*
X59685312Y-61693499D02*
X59685312Y-60123499D01*
X59685312Y-60123499D02*
X59418646Y-60123499D01*
X59418646Y-60123499D02*
X59342455Y-60198261D01*
X59342455Y-60198261D02*
X59304360Y-60273023D01*
X59304360Y-60273023D02*
X59266265Y-60422547D01*
X59266265Y-60422547D02*
X59266265Y-60572071D01*
X59266265Y-60572071D02*
X59304360Y-60721595D01*
X59304360Y-60721595D02*
X59342455Y-60796357D01*
X59342455Y-60796357D02*
X59418646Y-60871118D01*
X59418646Y-60871118D02*
X59685312Y-60871118D01*
X61323408Y-64146350D02*
X61209122Y-64221111D01*
X61209122Y-64221111D02*
X61018646Y-64221111D01*
X61018646Y-64221111D02*
X60942455Y-64146350D01*
X60942455Y-64146350D02*
X60904360Y-64071588D01*
X60904360Y-64071588D02*
X60866265Y-63922064D01*
X60866265Y-63922064D02*
X60866265Y-63772540D01*
X60866265Y-63772540D02*
X60904360Y-63623016D01*
X60904360Y-63623016D02*
X60942455Y-63548254D01*
X60942455Y-63548254D02*
X61018646Y-63473492D01*
X61018646Y-63473492D02*
X61171027Y-63398730D01*
X61171027Y-63398730D02*
X61247217Y-63323969D01*
X61247217Y-63323969D02*
X61285312Y-63249207D01*
X61285312Y-63249207D02*
X61323408Y-63099683D01*
X61323408Y-63099683D02*
X61323408Y-62950159D01*
X61323408Y-62950159D02*
X61285312Y-62800635D01*
X61285312Y-62800635D02*
X61247217Y-62725873D01*
X61247217Y-62725873D02*
X61171027Y-62651111D01*
X61171027Y-62651111D02*
X60980550Y-62651111D01*
X60980550Y-62651111D02*
X60866265Y-62725873D01*
X60523407Y-64221111D02*
X60523407Y-62651111D01*
X60523407Y-63398730D02*
X60066264Y-63398730D01*
X60066264Y-64221111D02*
X60066264Y-62651111D01*
X59418646Y-63398730D02*
X59304360Y-63473492D01*
X59304360Y-63473492D02*
X59266265Y-63548254D01*
X59266265Y-63548254D02*
X59228169Y-63697778D01*
X59228169Y-63697778D02*
X59228169Y-63922064D01*
X59228169Y-63922064D02*
X59266265Y-64071588D01*
X59266265Y-64071588D02*
X59304360Y-64146350D01*
X59304360Y-64146350D02*
X59380550Y-64221111D01*
X59380550Y-64221111D02*
X59685312Y-64221111D01*
X59685312Y-64221111D02*
X59685312Y-62651111D01*
X59685312Y-62651111D02*
X59418646Y-62651111D01*
X59418646Y-62651111D02*
X59342455Y-62725873D01*
X59342455Y-62725873D02*
X59304360Y-62800635D01*
X59304360Y-62800635D02*
X59266265Y-62950159D01*
X59266265Y-62950159D02*
X59266265Y-63099683D01*
X59266265Y-63099683D02*
X59304360Y-63249207D01*
X59304360Y-63249207D02*
X59342455Y-63323969D01*
X59342455Y-63323969D02*
X59418646Y-63398730D01*
X59418646Y-63398730D02*
X59685312Y-63398730D01*
X60599598Y-65253485D02*
X60675788Y-65178723D01*
X60675788Y-65178723D02*
X60790074Y-65178723D01*
X60790074Y-65178723D02*
X60904360Y-65253485D01*
X60904360Y-65253485D02*
X60980550Y-65403009D01*
X60980550Y-65403009D02*
X61018645Y-65552533D01*
X61018645Y-65552533D02*
X61056741Y-65851581D01*
X61056741Y-65851581D02*
X61056741Y-66075866D01*
X61056741Y-66075866D02*
X61018645Y-66374914D01*
X61018645Y-66374914D02*
X60980550Y-66524438D01*
X60980550Y-66524438D02*
X60904360Y-66673962D01*
X60904360Y-66673962D02*
X60790074Y-66748723D01*
X60790074Y-66748723D02*
X60713883Y-66748723D01*
X60713883Y-66748723D02*
X60599598Y-66673962D01*
X60599598Y-66673962D02*
X60561502Y-66599200D01*
X60561502Y-66599200D02*
X60561502Y-66075866D01*
X60561502Y-66075866D02*
X60713883Y-66075866D01*
X59837693Y-66748723D02*
X60218645Y-66748723D01*
X60218645Y-66748723D02*
X60218645Y-65178723D01*
X59609122Y-66300152D02*
X59228169Y-66300152D01*
X59685312Y-66748723D02*
X59418645Y-65178723D01*
X59418645Y-65178723D02*
X59151979Y-66748723D01*
X61209122Y-69201574D02*
X61094836Y-69276335D01*
X61094836Y-69276335D02*
X60904360Y-69276335D01*
X60904360Y-69276335D02*
X60828169Y-69201574D01*
X60828169Y-69201574D02*
X60790074Y-69126812D01*
X60790074Y-69126812D02*
X60751979Y-68977288D01*
X60751979Y-68977288D02*
X60751979Y-68827764D01*
X60751979Y-68827764D02*
X60790074Y-68678240D01*
X60790074Y-68678240D02*
X60828169Y-68603478D01*
X60828169Y-68603478D02*
X60904360Y-68528716D01*
X60904360Y-68528716D02*
X61056741Y-68453954D01*
X61056741Y-68453954D02*
X61132931Y-68379193D01*
X61132931Y-68379193D02*
X61171026Y-68304431D01*
X61171026Y-68304431D02*
X61209122Y-68154907D01*
X61209122Y-68154907D02*
X61209122Y-68005383D01*
X61209122Y-68005383D02*
X61171026Y-67855859D01*
X61171026Y-67855859D02*
X61132931Y-67781097D01*
X61132931Y-67781097D02*
X61056741Y-67706335D01*
X61056741Y-67706335D02*
X60866264Y-67706335D01*
X60866264Y-67706335D02*
X60751979Y-67781097D01*
X60409121Y-69276335D02*
X60409121Y-67706335D01*
X60409121Y-68453954D02*
X59951978Y-68453954D01*
X59951978Y-69276335D02*
X59951978Y-67706335D01*
X59609122Y-68827764D02*
X59228169Y-68827764D01*
X59685312Y-69276335D02*
X59418645Y-67706335D01*
X59418645Y-67706335D02*
X59151979Y-69276335D01*
X62009122Y-70233947D02*
X61742455Y-71803947D01*
X61742455Y-71803947D02*
X61475789Y-70233947D01*
X60751979Y-71803947D02*
X61018646Y-71056328D01*
X61209122Y-71803947D02*
X61209122Y-70233947D01*
X61209122Y-70233947D02*
X60904360Y-70233947D01*
X60904360Y-70233947D02*
X60828170Y-70308709D01*
X60828170Y-70308709D02*
X60790075Y-70383471D01*
X60790075Y-70383471D02*
X60751979Y-70532995D01*
X60751979Y-70532995D02*
X60751979Y-70757281D01*
X60751979Y-70757281D02*
X60790075Y-70906805D01*
X60790075Y-70906805D02*
X60828170Y-70981566D01*
X60828170Y-70981566D02*
X60904360Y-71056328D01*
X60904360Y-71056328D02*
X61209122Y-71056328D01*
X60409122Y-70981566D02*
X60142456Y-70981566D01*
X60028170Y-71803947D02*
X60409122Y-71803947D01*
X60409122Y-71803947D02*
X60409122Y-70233947D01*
X60409122Y-70233947D02*
X60028170Y-70233947D01*
X59266265Y-70308709D02*
X59342455Y-70233947D01*
X59342455Y-70233947D02*
X59456741Y-70233947D01*
X59456741Y-70233947D02*
X59571027Y-70308709D01*
X59571027Y-70308709D02*
X59647217Y-70458233D01*
X59647217Y-70458233D02*
X59685312Y-70607757D01*
X59685312Y-70607757D02*
X59723408Y-70906805D01*
X59723408Y-70906805D02*
X59723408Y-71131090D01*
X59723408Y-71131090D02*
X59685312Y-71430138D01*
X59685312Y-71430138D02*
X59647217Y-71579662D01*
X59647217Y-71579662D02*
X59571027Y-71729186D01*
X59571027Y-71729186D02*
X59456741Y-71803947D01*
X59456741Y-71803947D02*
X59380550Y-71803947D01*
X59380550Y-71803947D02*
X59266265Y-71729186D01*
X59266265Y-71729186D02*
X59228169Y-71654424D01*
X59228169Y-71654424D02*
X59228169Y-71131090D01*
X59228169Y-71131090D02*
X59380550Y-71131090D01*
D10*
X99122857Y-66136128D02*
X99122857Y-64636128D01*
X99122857Y-65350414D02*
X98265714Y-65350414D01*
X98265714Y-66136128D02*
X98265714Y-64636128D01*
X96694285Y-65993271D02*
X96765713Y-66064700D01*
X96765713Y-66064700D02*
X96979999Y-66136128D01*
X96979999Y-66136128D02*
X97122856Y-66136128D01*
X97122856Y-66136128D02*
X97337142Y-66064700D01*
X97337142Y-66064700D02*
X97479999Y-65921842D01*
X97479999Y-65921842D02*
X97551428Y-65778985D01*
X97551428Y-65778985D02*
X97622856Y-65493271D01*
X97622856Y-65493271D02*
X97622856Y-65278985D01*
X97622856Y-65278985D02*
X97551428Y-64993271D01*
X97551428Y-64993271D02*
X97479999Y-64850414D01*
X97479999Y-64850414D02*
X97337142Y-64707557D01*
X97337142Y-64707557D02*
X97122856Y-64636128D01*
X97122856Y-64636128D02*
X96979999Y-64636128D01*
X96979999Y-64636128D02*
X96765713Y-64707557D01*
X96765713Y-64707557D02*
X96694285Y-64778985D01*
X96122856Y-66064700D02*
X95908571Y-66136128D01*
X95908571Y-66136128D02*
X95551428Y-66136128D01*
X95551428Y-66136128D02*
X95408571Y-66064700D01*
X95408571Y-66064700D02*
X95337142Y-65993271D01*
X95337142Y-65993271D02*
X95265713Y-65850414D01*
X95265713Y-65850414D02*
X95265713Y-65707557D01*
X95265713Y-65707557D02*
X95337142Y-65564700D01*
X95337142Y-65564700D02*
X95408571Y-65493271D01*
X95408571Y-65493271D02*
X95551428Y-65421842D01*
X95551428Y-65421842D02*
X95837142Y-65350414D01*
X95837142Y-65350414D02*
X95979999Y-65278985D01*
X95979999Y-65278985D02*
X96051428Y-65207557D01*
X96051428Y-65207557D02*
X96122856Y-65064700D01*
X96122856Y-65064700D02*
X96122856Y-64921842D01*
X96122856Y-64921842D02*
X96051428Y-64778985D01*
X96051428Y-64778985D02*
X95979999Y-64707557D01*
X95979999Y-64707557D02*
X95837142Y-64636128D01*
X95837142Y-64636128D02*
X95479999Y-64636128D01*
X95479999Y-64636128D02*
X95265713Y-64707557D01*
X68320419Y-49681903D02*
X68272800Y-49719999D01*
X68272800Y-49719999D02*
X68225180Y-49834284D01*
X68225180Y-49834284D02*
X68225180Y-49910475D01*
X68225180Y-49910475D02*
X68272800Y-50024761D01*
X68272800Y-50024761D02*
X68368038Y-50100951D01*
X68368038Y-50100951D02*
X68463276Y-50139046D01*
X68463276Y-50139046D02*
X68653752Y-50177142D01*
X68653752Y-50177142D02*
X68796609Y-50177142D01*
X68796609Y-50177142D02*
X68987085Y-50139046D01*
X68987085Y-50139046D02*
X69082323Y-50100951D01*
X69082323Y-50100951D02*
X69177561Y-50024761D01*
X69177561Y-50024761D02*
X69225180Y-49910475D01*
X69225180Y-49910475D02*
X69225180Y-49834284D01*
X69225180Y-49834284D02*
X69177561Y-49719999D01*
X69177561Y-49719999D02*
X69129942Y-49681903D01*
X68225180Y-49339046D02*
X69225180Y-49339046D01*
X68225180Y-48958094D02*
X69225180Y-48958094D01*
X69225180Y-48958094D02*
X68225180Y-48500951D01*
X68225180Y-48500951D02*
X69225180Y-48500951D01*
X70741681Y-66552381D02*
X71541681Y-66552381D01*
X70741681Y-66209524D02*
X71160729Y-66209524D01*
X71160729Y-66209524D02*
X71236919Y-66247619D01*
X71236919Y-66247619D02*
X71275015Y-66323810D01*
X71275015Y-66323810D02*
X71275015Y-66438096D01*
X71275015Y-66438096D02*
X71236919Y-66514286D01*
X71236919Y-66514286D02*
X71198824Y-66552381D01*
X70741681Y-65485714D02*
X71160729Y-65485714D01*
X71160729Y-65485714D02*
X71236919Y-65523809D01*
X71236919Y-65523809D02*
X71275015Y-65600000D01*
X71275015Y-65600000D02*
X71275015Y-65752381D01*
X71275015Y-65752381D02*
X71236919Y-65828571D01*
X70779777Y-65485714D02*
X70741681Y-65561905D01*
X70741681Y-65561905D02*
X70741681Y-65752381D01*
X70741681Y-65752381D02*
X70779777Y-65828571D01*
X70779777Y-65828571D02*
X70855967Y-65866667D01*
X70855967Y-65866667D02*
X70932157Y-65866667D01*
X70932157Y-65866667D02*
X71008348Y-65828571D01*
X71008348Y-65828571D02*
X71046443Y-65752381D01*
X71046443Y-65752381D02*
X71046443Y-65561905D01*
X71046443Y-65561905D02*
X71084538Y-65485714D01*
X70741681Y-64990476D02*
X70779777Y-65066666D01*
X70779777Y-65066666D02*
X70855967Y-65104761D01*
X70855967Y-65104761D02*
X71541681Y-65104761D01*
X70741681Y-64571428D02*
X70779777Y-64647618D01*
X70779777Y-64647618D02*
X70855967Y-64685713D01*
X70855967Y-64685713D02*
X71541681Y-64685713D01*
X69872774Y-66400000D02*
X69834679Y-66285714D01*
X69834679Y-66285714D02*
X69796583Y-66247619D01*
X69796583Y-66247619D02*
X69720393Y-66209523D01*
X69720393Y-66209523D02*
X69606107Y-66209523D01*
X69606107Y-66209523D02*
X69529917Y-66247619D01*
X69529917Y-66247619D02*
X69491822Y-66285714D01*
X69491822Y-66285714D02*
X69453726Y-66361904D01*
X69453726Y-66361904D02*
X69453726Y-66666666D01*
X69453726Y-66666666D02*
X70253726Y-66666666D01*
X70253726Y-66666666D02*
X70253726Y-66400000D01*
X70253726Y-66400000D02*
X70215631Y-66323809D01*
X70215631Y-66323809D02*
X70177536Y-66285714D01*
X70177536Y-66285714D02*
X70101345Y-66247619D01*
X70101345Y-66247619D02*
X70025155Y-66247619D01*
X70025155Y-66247619D02*
X69948964Y-66285714D01*
X69948964Y-66285714D02*
X69910869Y-66323809D01*
X69910869Y-66323809D02*
X69872774Y-66400000D01*
X69872774Y-66400000D02*
X69872774Y-66666666D01*
X69453726Y-65257142D02*
X69987060Y-65257142D01*
X70253726Y-65257142D02*
X70215631Y-65295238D01*
X70215631Y-65295238D02*
X70177536Y-65257142D01*
X70177536Y-65257142D02*
X70215631Y-65219047D01*
X70215631Y-65219047D02*
X70253726Y-65257142D01*
X70253726Y-65257142D02*
X70177536Y-65257142D01*
X69987060Y-64876190D02*
X69453726Y-64876190D01*
X69910869Y-64876190D02*
X69948964Y-64838095D01*
X69948964Y-64838095D02*
X69987060Y-64761905D01*
X69987060Y-64761905D02*
X69987060Y-64647619D01*
X69987060Y-64647619D02*
X69948964Y-64571428D01*
X69948964Y-64571428D02*
X69872774Y-64533333D01*
X69872774Y-64533333D02*
X69453726Y-64533333D01*
D11*
X124519047Y-62194512D02*
X124233333Y-62289750D01*
X124233333Y-62289750D02*
X123757142Y-62289750D01*
X123757142Y-62289750D02*
X123566666Y-62194512D01*
X123566666Y-62194512D02*
X123471428Y-62099273D01*
X123471428Y-62099273D02*
X123376190Y-61908797D01*
X123376190Y-61908797D02*
X123376190Y-61718321D01*
X123376190Y-61718321D02*
X123471428Y-61527845D01*
X123471428Y-61527845D02*
X123566666Y-61432607D01*
X123566666Y-61432607D02*
X123757142Y-61337369D01*
X123757142Y-61337369D02*
X124138095Y-61242131D01*
X124138095Y-61242131D02*
X124328571Y-61146892D01*
X124328571Y-61146892D02*
X124423809Y-61051654D01*
X124423809Y-61051654D02*
X124519047Y-60861178D01*
X124519047Y-60861178D02*
X124519047Y-60670702D01*
X124519047Y-60670702D02*
X124423809Y-60480226D01*
X124423809Y-60480226D02*
X124328571Y-60384988D01*
X124328571Y-60384988D02*
X124138095Y-60289750D01*
X124138095Y-60289750D02*
X123661904Y-60289750D01*
X123661904Y-60289750D02*
X123376190Y-60384988D01*
X121661904Y-62289750D02*
X121661904Y-61242131D01*
X121661904Y-61242131D02*
X121757142Y-61051654D01*
X121757142Y-61051654D02*
X121947618Y-60956416D01*
X121947618Y-60956416D02*
X122328571Y-60956416D01*
X122328571Y-60956416D02*
X122519047Y-61051654D01*
X121661904Y-62194512D02*
X121852380Y-62289750D01*
X121852380Y-62289750D02*
X122328571Y-62289750D01*
X122328571Y-62289750D02*
X122519047Y-62194512D01*
X122519047Y-62194512D02*
X122614285Y-62004035D01*
X122614285Y-62004035D02*
X122614285Y-61813559D01*
X122614285Y-61813559D02*
X122519047Y-61623083D01*
X122519047Y-61623083D02*
X122328571Y-61527845D01*
X122328571Y-61527845D02*
X121852380Y-61527845D01*
X121852380Y-61527845D02*
X121661904Y-61432607D01*
X120709523Y-62289750D02*
X120709523Y-60956416D01*
X120709523Y-60289750D02*
X120804761Y-60384988D01*
X120804761Y-60384988D02*
X120709523Y-60480226D01*
X120709523Y-60480226D02*
X120614285Y-60384988D01*
X120614285Y-60384988D02*
X120709523Y-60289750D01*
X120709523Y-60289750D02*
X120709523Y-60480226D01*
X120042856Y-60956416D02*
X119280952Y-60956416D01*
X119757142Y-60289750D02*
X119757142Y-62004035D01*
X119757142Y-62004035D02*
X119661904Y-62194512D01*
X119661904Y-62194512D02*
X119471428Y-62289750D01*
X119471428Y-62289750D02*
X119280952Y-62289750D01*
X118614285Y-62289750D02*
X118614285Y-60956416D01*
X118614285Y-60289750D02*
X118709523Y-60384988D01*
X118709523Y-60384988D02*
X118614285Y-60480226D01*
X118614285Y-60480226D02*
X118519047Y-60384988D01*
X118519047Y-60384988D02*
X118614285Y-60289750D01*
X118614285Y-60289750D02*
X118614285Y-60480226D01*
X117757142Y-62194512D02*
X117566666Y-62289750D01*
X117566666Y-62289750D02*
X117185714Y-62289750D01*
X117185714Y-62289750D02*
X116995237Y-62194512D01*
X116995237Y-62194512D02*
X116899999Y-62004035D01*
X116899999Y-62004035D02*
X116899999Y-61908797D01*
X116899999Y-61908797D02*
X116995237Y-61718321D01*
X116995237Y-61718321D02*
X117185714Y-61623083D01*
X117185714Y-61623083D02*
X117471428Y-61623083D01*
X117471428Y-61623083D02*
X117661904Y-61527845D01*
X117661904Y-61527845D02*
X117757142Y-61337369D01*
X117757142Y-61337369D02*
X117757142Y-61242131D01*
X117757142Y-61242131D02*
X117661904Y-61051654D01*
X117661904Y-61051654D02*
X117471428Y-60956416D01*
X117471428Y-60956416D02*
X117185714Y-60956416D01*
X117185714Y-60956416D02*
X116995237Y-61051654D01*
X116042856Y-62099273D02*
X115947618Y-62194512D01*
X115947618Y-62194512D02*
X116042856Y-62289750D01*
X116042856Y-62289750D02*
X116138094Y-62194512D01*
X116138094Y-62194512D02*
X116042856Y-62099273D01*
X116042856Y-62099273D02*
X116042856Y-62289750D01*
X115090475Y-60956416D02*
X115090475Y-62289750D01*
X115090475Y-61146892D02*
X114995237Y-61051654D01*
X114995237Y-61051654D02*
X114804761Y-60956416D01*
X114804761Y-60956416D02*
X114519046Y-60956416D01*
X114519046Y-60956416D02*
X114328570Y-61051654D01*
X114328570Y-61051654D02*
X114233332Y-61242131D01*
X114233332Y-61242131D02*
X114233332Y-62289750D01*
X112519046Y-62194512D02*
X112709522Y-62289750D01*
X112709522Y-62289750D02*
X113090475Y-62289750D01*
X113090475Y-62289750D02*
X113280951Y-62194512D01*
X113280951Y-62194512D02*
X113376189Y-62004035D01*
X113376189Y-62004035D02*
X113376189Y-61242131D01*
X113376189Y-61242131D02*
X113280951Y-61051654D01*
X113280951Y-61051654D02*
X113090475Y-60956416D01*
X113090475Y-60956416D02*
X112709522Y-60956416D01*
X112709522Y-60956416D02*
X112519046Y-61051654D01*
X112519046Y-61051654D02*
X112423808Y-61242131D01*
X112423808Y-61242131D02*
X112423808Y-61432607D01*
X112423808Y-61432607D02*
X113376189Y-61623083D01*
X111852379Y-60956416D02*
X111090475Y-60956416D01*
X111566665Y-60289750D02*
X111566665Y-62004035D01*
X111566665Y-62004035D02*
X111471427Y-62194512D01*
X111471427Y-62194512D02*
X111280951Y-62289750D01*
X111280951Y-62289750D02*
X111090475Y-62289750D01*
X127614285Y-63700114D02*
X127519047Y-63604876D01*
X127519047Y-63604876D02*
X127328571Y-63509638D01*
X127328571Y-63509638D02*
X126852380Y-63509638D01*
X126852380Y-63509638D02*
X126661904Y-63604876D01*
X126661904Y-63604876D02*
X126566666Y-63700114D01*
X126566666Y-63700114D02*
X126471428Y-63890590D01*
X126471428Y-63890590D02*
X126471428Y-64081066D01*
X126471428Y-64081066D02*
X126566666Y-64366780D01*
X126566666Y-64366780D02*
X127709523Y-65509638D01*
X127709523Y-65509638D02*
X126471428Y-65509638D01*
X125233333Y-63509638D02*
X125042856Y-63509638D01*
X125042856Y-63509638D02*
X124852380Y-63604876D01*
X124852380Y-63604876D02*
X124757142Y-63700114D01*
X124757142Y-63700114D02*
X124661904Y-63890590D01*
X124661904Y-63890590D02*
X124566666Y-64271542D01*
X124566666Y-64271542D02*
X124566666Y-64747733D01*
X124566666Y-64747733D02*
X124661904Y-65128685D01*
X124661904Y-65128685D02*
X124757142Y-65319161D01*
X124757142Y-65319161D02*
X124852380Y-65414400D01*
X124852380Y-65414400D02*
X125042856Y-65509638D01*
X125042856Y-65509638D02*
X125233333Y-65509638D01*
X125233333Y-65509638D02*
X125423809Y-65414400D01*
X125423809Y-65414400D02*
X125519047Y-65319161D01*
X125519047Y-65319161D02*
X125614285Y-65128685D01*
X125614285Y-65128685D02*
X125709523Y-64747733D01*
X125709523Y-64747733D02*
X125709523Y-64271542D01*
X125709523Y-64271542D02*
X125614285Y-63890590D01*
X125614285Y-63890590D02*
X125519047Y-63700114D01*
X125519047Y-63700114D02*
X125423809Y-63604876D01*
X125423809Y-63604876D02*
X125233333Y-63509638D01*
X123804761Y-63700114D02*
X123709523Y-63604876D01*
X123709523Y-63604876D02*
X123519047Y-63509638D01*
X123519047Y-63509638D02*
X123042856Y-63509638D01*
X123042856Y-63509638D02*
X122852380Y-63604876D01*
X122852380Y-63604876D02*
X122757142Y-63700114D01*
X122757142Y-63700114D02*
X122661904Y-63890590D01*
X122661904Y-63890590D02*
X122661904Y-64081066D01*
X122661904Y-64081066D02*
X122757142Y-64366780D01*
X122757142Y-64366780D02*
X123899999Y-65509638D01*
X123899999Y-65509638D02*
X122661904Y-65509638D01*
X120852380Y-63509638D02*
X121804761Y-63509638D01*
X121804761Y-63509638D02*
X121899999Y-64462019D01*
X121899999Y-64462019D02*
X121804761Y-64366780D01*
X121804761Y-64366780D02*
X121614285Y-64271542D01*
X121614285Y-64271542D02*
X121138094Y-64271542D01*
X121138094Y-64271542D02*
X120947618Y-64366780D01*
X120947618Y-64366780D02*
X120852380Y-64462019D01*
X120852380Y-64462019D02*
X120757142Y-64652495D01*
X120757142Y-64652495D02*
X120757142Y-65128685D01*
X120757142Y-65128685D02*
X120852380Y-65319161D01*
X120852380Y-65319161D02*
X120947618Y-65414400D01*
X120947618Y-65414400D02*
X121138094Y-65509638D01*
X121138094Y-65509638D02*
X121614285Y-65509638D01*
X121614285Y-65509638D02*
X121804761Y-65414400D01*
X121804761Y-65414400D02*
X121899999Y-65319161D01*
X119899999Y-64747733D02*
X118376190Y-64747733D01*
X116376190Y-65509638D02*
X117519047Y-65509638D01*
X116947619Y-65509638D02*
X116947619Y-63509638D01*
X116947619Y-63509638D02*
X117138095Y-63795352D01*
X117138095Y-63795352D02*
X117328571Y-63985828D01*
X117328571Y-63985828D02*
X117519047Y-64081066D01*
X115138095Y-63509638D02*
X114947618Y-63509638D01*
X114947618Y-63509638D02*
X114757142Y-63604876D01*
X114757142Y-63604876D02*
X114661904Y-63700114D01*
X114661904Y-63700114D02*
X114566666Y-63890590D01*
X114566666Y-63890590D02*
X114471428Y-64271542D01*
X114471428Y-64271542D02*
X114471428Y-64747733D01*
X114471428Y-64747733D02*
X114566666Y-65128685D01*
X114566666Y-65128685D02*
X114661904Y-65319161D01*
X114661904Y-65319161D02*
X114757142Y-65414400D01*
X114757142Y-65414400D02*
X114947618Y-65509638D01*
X114947618Y-65509638D02*
X115138095Y-65509638D01*
X115138095Y-65509638D02*
X115328571Y-65414400D01*
X115328571Y-65414400D02*
X115423809Y-65319161D01*
X115423809Y-65319161D02*
X115519047Y-65128685D01*
X115519047Y-65128685D02*
X115614285Y-64747733D01*
X115614285Y-64747733D02*
X115614285Y-64271542D01*
X115614285Y-64271542D02*
X115519047Y-63890590D01*
X115519047Y-63890590D02*
X115423809Y-63700114D01*
X115423809Y-63700114D02*
X115328571Y-63604876D01*
X115328571Y-63604876D02*
X115138095Y-63509638D01*
X113614285Y-64747733D02*
X112090476Y-64747733D01*
X110090476Y-65509638D02*
X111233333Y-65509638D01*
X110661905Y-65509638D02*
X110661905Y-63509638D01*
X110661905Y-63509638D02*
X110852381Y-63795352D01*
X110852381Y-63795352D02*
X111042857Y-63985828D01*
X111042857Y-63985828D02*
X111233333Y-64081066D01*
X109138095Y-65509638D02*
X108757143Y-65509638D01*
X108757143Y-65509638D02*
X108566666Y-65414400D01*
X108566666Y-65414400D02*
X108471428Y-65319161D01*
X108471428Y-65319161D02*
X108280952Y-65033447D01*
X108280952Y-65033447D02*
X108185714Y-64652495D01*
X108185714Y-64652495D02*
X108185714Y-63890590D01*
X108185714Y-63890590D02*
X108280952Y-63700114D01*
X108280952Y-63700114D02*
X108376190Y-63604876D01*
X108376190Y-63604876D02*
X108566666Y-63509638D01*
X108566666Y-63509638D02*
X108947619Y-63509638D01*
X108947619Y-63509638D02*
X109138095Y-63604876D01*
X109138095Y-63604876D02*
X109233333Y-63700114D01*
X109233333Y-63700114D02*
X109328571Y-63890590D01*
X109328571Y-63890590D02*
X109328571Y-64366780D01*
X109328571Y-64366780D02*
X109233333Y-64557257D01*
X109233333Y-64557257D02*
X109138095Y-64652495D01*
X109138095Y-64652495D02*
X108947619Y-64747733D01*
X108947619Y-64747733D02*
X108566666Y-64747733D01*
X108566666Y-64747733D02*
X108376190Y-64652495D01*
X108376190Y-64652495D02*
X108280952Y-64557257D01*
X108280952Y-64557257D02*
X108185714Y-64366780D01*
X120757142Y-67396192D02*
X120280952Y-68729526D01*
X120280952Y-68729526D02*
X119804761Y-67396192D01*
X117995237Y-68729526D02*
X119138094Y-68729526D01*
X118566666Y-68729526D02*
X118566666Y-66729526D01*
X118566666Y-66729526D02*
X118757142Y-67015240D01*
X118757142Y-67015240D02*
X118947618Y-67205716D01*
X118947618Y-67205716D02*
X119138094Y-67300954D01*
X117138094Y-68539049D02*
X117042856Y-68634288D01*
X117042856Y-68634288D02*
X117138094Y-68729526D01*
X117138094Y-68729526D02*
X117233332Y-68634288D01*
X117233332Y-68634288D02*
X117138094Y-68539049D01*
X117138094Y-68539049D02*
X117138094Y-68729526D01*
X116280951Y-66920002D02*
X116185713Y-66824764D01*
X116185713Y-66824764D02*
X115995237Y-66729526D01*
X115995237Y-66729526D02*
X115519046Y-66729526D01*
X115519046Y-66729526D02*
X115328570Y-66824764D01*
X115328570Y-66824764D02*
X115233332Y-66920002D01*
X115233332Y-66920002D02*
X115138094Y-67110478D01*
X115138094Y-67110478D02*
X115138094Y-67300954D01*
X115138094Y-67300954D02*
X115233332Y-67586668D01*
X115233332Y-67586668D02*
X116376189Y-68729526D01*
X116376189Y-68729526D02*
X115138094Y-68729526D01*
D10*
X94114285Y-45071212D02*
X94114285Y-43571212D01*
X94114285Y-43571212D02*
X93542857Y-45071212D01*
X93542857Y-45071212D02*
X93542857Y-43571212D01*
X92923809Y-45071212D02*
X93019047Y-44999784D01*
X93019047Y-44999784D02*
X93066666Y-44928355D01*
X93066666Y-44928355D02*
X93114285Y-44785498D01*
X93114285Y-44785498D02*
X93114285Y-44356926D01*
X93114285Y-44356926D02*
X93066666Y-44214069D01*
X93066666Y-44214069D02*
X93019047Y-44142641D01*
X93019047Y-44142641D02*
X92923809Y-44071212D01*
X92923809Y-44071212D02*
X92780952Y-44071212D01*
X92780952Y-44071212D02*
X92685714Y-44142641D01*
X92685714Y-44142641D02*
X92638095Y-44214069D01*
X92638095Y-44214069D02*
X92590476Y-44356926D01*
X92590476Y-44356926D02*
X92590476Y-44785498D01*
X92590476Y-44785498D02*
X92638095Y-44928355D01*
X92638095Y-44928355D02*
X92685714Y-44999784D01*
X92685714Y-44999784D02*
X92780952Y-45071212D01*
X92780952Y-45071212D02*
X92923809Y-45071212D01*
X92161904Y-45071212D02*
X92161904Y-44071212D01*
X92161904Y-44356926D02*
X92114285Y-44214069D01*
X92114285Y-44214069D02*
X92066666Y-44142641D01*
X92066666Y-44142641D02*
X91971428Y-44071212D01*
X91971428Y-44071212D02*
X91876190Y-44071212D01*
X91542856Y-45071212D02*
X91542856Y-44071212D01*
X91542856Y-44214069D02*
X91495237Y-44142641D01*
X91495237Y-44142641D02*
X91399999Y-44071212D01*
X91399999Y-44071212D02*
X91257142Y-44071212D01*
X91257142Y-44071212D02*
X91161904Y-44142641D01*
X91161904Y-44142641D02*
X91114285Y-44285498D01*
X91114285Y-44285498D02*
X91114285Y-45071212D01*
X91114285Y-44285498D02*
X91066666Y-44142641D01*
X91066666Y-44142641D02*
X90971428Y-44071212D01*
X90971428Y-44071212D02*
X90828571Y-44071212D01*
X90828571Y-44071212D02*
X90733332Y-44142641D01*
X90733332Y-44142641D02*
X90685713Y-44285498D01*
X90685713Y-44285498D02*
X90685713Y-45071212D01*
X95042856Y-47414700D02*
X94899999Y-47486128D01*
X94899999Y-47486128D02*
X94661904Y-47486128D01*
X94661904Y-47486128D02*
X94566666Y-47414700D01*
X94566666Y-47414700D02*
X94519047Y-47343271D01*
X94519047Y-47343271D02*
X94471428Y-47200414D01*
X94471428Y-47200414D02*
X94471428Y-47057557D01*
X94471428Y-47057557D02*
X94519047Y-46914700D01*
X94519047Y-46914700D02*
X94566666Y-46843271D01*
X94566666Y-46843271D02*
X94661904Y-46771842D01*
X94661904Y-46771842D02*
X94852380Y-46700414D01*
X94852380Y-46700414D02*
X94947618Y-46628985D01*
X94947618Y-46628985D02*
X94995237Y-46557557D01*
X94995237Y-46557557D02*
X95042856Y-46414700D01*
X95042856Y-46414700D02*
X95042856Y-46271842D01*
X95042856Y-46271842D02*
X94995237Y-46128985D01*
X94995237Y-46128985D02*
X94947618Y-46057557D01*
X94947618Y-46057557D02*
X94852380Y-45986128D01*
X94852380Y-45986128D02*
X94614285Y-45986128D01*
X94614285Y-45986128D02*
X94471428Y-46057557D01*
X94042856Y-47486128D02*
X94042856Y-45986128D01*
X93614285Y-47486128D02*
X93614285Y-46700414D01*
X93614285Y-46700414D02*
X93661904Y-46557557D01*
X93661904Y-46557557D02*
X93757142Y-46486128D01*
X93757142Y-46486128D02*
X93899999Y-46486128D01*
X93899999Y-46486128D02*
X93995237Y-46557557D01*
X93995237Y-46557557D02*
X94042856Y-46628985D01*
X93138094Y-47486128D02*
X93138094Y-46486128D01*
X93138094Y-45986128D02*
X93185713Y-46057557D01*
X93185713Y-46057557D02*
X93138094Y-46128985D01*
X93138094Y-46128985D02*
X93090475Y-46057557D01*
X93090475Y-46057557D02*
X93138094Y-45986128D01*
X93138094Y-45986128D02*
X93138094Y-46128985D01*
X92804761Y-46486128D02*
X92423809Y-46486128D01*
X92661904Y-47486128D02*
X92661904Y-46200414D01*
X92661904Y-46200414D02*
X92614285Y-46057557D01*
X92614285Y-46057557D02*
X92519047Y-45986128D01*
X92519047Y-45986128D02*
X92423809Y-45986128D01*
X92233332Y-46486128D02*
X91852380Y-46486128D01*
X92090475Y-45986128D02*
X92090475Y-47271842D01*
X92090475Y-47271842D02*
X92042856Y-47414700D01*
X92042856Y-47414700D02*
X91947618Y-47486128D01*
X91947618Y-47486128D02*
X91852380Y-47486128D01*
X91519046Y-46914700D02*
X90757142Y-46914700D01*
X91138094Y-47486128D02*
X91138094Y-46343271D01*
X89757142Y-47486128D02*
X90328570Y-47486128D01*
X90042856Y-47486128D02*
X90042856Y-45986128D01*
X90042856Y-45986128D02*
X90138094Y-46200414D01*
X90138094Y-46200414D02*
X90233332Y-46343271D01*
X90233332Y-46343271D02*
X90328570Y-46414700D01*
X95042856Y-49829616D02*
X94899999Y-49901044D01*
X94899999Y-49901044D02*
X94661904Y-49901044D01*
X94661904Y-49901044D02*
X94566666Y-49829616D01*
X94566666Y-49829616D02*
X94519047Y-49758187D01*
X94519047Y-49758187D02*
X94471428Y-49615330D01*
X94471428Y-49615330D02*
X94471428Y-49472473D01*
X94471428Y-49472473D02*
X94519047Y-49329616D01*
X94519047Y-49329616D02*
X94566666Y-49258187D01*
X94566666Y-49258187D02*
X94661904Y-49186758D01*
X94661904Y-49186758D02*
X94852380Y-49115330D01*
X94852380Y-49115330D02*
X94947618Y-49043901D01*
X94947618Y-49043901D02*
X94995237Y-48972473D01*
X94995237Y-48972473D02*
X95042856Y-48829616D01*
X95042856Y-48829616D02*
X95042856Y-48686758D01*
X95042856Y-48686758D02*
X94995237Y-48543901D01*
X94995237Y-48543901D02*
X94947618Y-48472473D01*
X94947618Y-48472473D02*
X94852380Y-48401044D01*
X94852380Y-48401044D02*
X94614285Y-48401044D01*
X94614285Y-48401044D02*
X94471428Y-48472473D01*
X94042856Y-49901044D02*
X94042856Y-48401044D01*
X93614285Y-49901044D02*
X93614285Y-49115330D01*
X93614285Y-49115330D02*
X93661904Y-48972473D01*
X93661904Y-48972473D02*
X93757142Y-48901044D01*
X93757142Y-48901044D02*
X93899999Y-48901044D01*
X93899999Y-48901044D02*
X93995237Y-48972473D01*
X93995237Y-48972473D02*
X94042856Y-49043901D01*
X93138094Y-49901044D02*
X93138094Y-48901044D01*
X93138094Y-48401044D02*
X93185713Y-48472473D01*
X93185713Y-48472473D02*
X93138094Y-48543901D01*
X93138094Y-48543901D02*
X93090475Y-48472473D01*
X93090475Y-48472473D02*
X93138094Y-48401044D01*
X93138094Y-48401044D02*
X93138094Y-48543901D01*
X92804761Y-48901044D02*
X92423809Y-48901044D01*
X92661904Y-49901044D02*
X92661904Y-48615330D01*
X92661904Y-48615330D02*
X92614285Y-48472473D01*
X92614285Y-48472473D02*
X92519047Y-48401044D01*
X92519047Y-48401044D02*
X92423809Y-48401044D01*
X92233332Y-48901044D02*
X91852380Y-48901044D01*
X92090475Y-48401044D02*
X92090475Y-49686758D01*
X92090475Y-49686758D02*
X92042856Y-49829616D01*
X92042856Y-49829616D02*
X91947618Y-49901044D01*
X91947618Y-49901044D02*
X91852380Y-49901044D01*
X91519046Y-49329616D02*
X90757142Y-49329616D01*
X91138094Y-49901044D02*
X91138094Y-48758187D01*
X90328570Y-48543901D02*
X90280951Y-48472473D01*
X90280951Y-48472473D02*
X90185713Y-48401044D01*
X90185713Y-48401044D02*
X89947618Y-48401044D01*
X89947618Y-48401044D02*
X89852380Y-48472473D01*
X89852380Y-48472473D02*
X89804761Y-48543901D01*
X89804761Y-48543901D02*
X89757142Y-48686758D01*
X89757142Y-48686758D02*
X89757142Y-48829616D01*
X89757142Y-48829616D02*
X89804761Y-49043901D01*
X89804761Y-49043901D02*
X90376189Y-49901044D01*
X90376189Y-49901044D02*
X89757142Y-49901044D01*
D11*
X116095238Y-45048680D02*
X116095238Y-43448680D01*
X116095238Y-43448680D02*
X115561905Y-44591537D01*
X115561905Y-44591537D02*
X115028571Y-43448680D01*
X115028571Y-43448680D02*
X115028571Y-45048680D01*
X114266667Y-45048680D02*
X114266667Y-43448680D01*
X114266667Y-43448680D02*
X113657143Y-43448680D01*
X113657143Y-43448680D02*
X113504762Y-43524870D01*
X113504762Y-43524870D02*
X113428572Y-43601061D01*
X113428572Y-43601061D02*
X113352381Y-43753442D01*
X113352381Y-43753442D02*
X113352381Y-43982013D01*
X113352381Y-43982013D02*
X113428572Y-44134394D01*
X113428572Y-44134394D02*
X113504762Y-44210585D01*
X113504762Y-44210585D02*
X113657143Y-44286775D01*
X113657143Y-44286775D02*
X114266667Y-44286775D01*
X111980953Y-43448680D02*
X112285715Y-43448680D01*
X112285715Y-43448680D02*
X112438096Y-43524870D01*
X112438096Y-43524870D02*
X112514286Y-43601061D01*
X112514286Y-43601061D02*
X112666667Y-43829632D01*
X112666667Y-43829632D02*
X112742858Y-44134394D01*
X112742858Y-44134394D02*
X112742858Y-44743918D01*
X112742858Y-44743918D02*
X112666667Y-44896299D01*
X112666667Y-44896299D02*
X112590477Y-44972490D01*
X112590477Y-44972490D02*
X112438096Y-45048680D01*
X112438096Y-45048680D02*
X112133334Y-45048680D01*
X112133334Y-45048680D02*
X111980953Y-44972490D01*
X111980953Y-44972490D02*
X111904762Y-44896299D01*
X111904762Y-44896299D02*
X111828572Y-44743918D01*
X111828572Y-44743918D02*
X111828572Y-44362966D01*
X111828572Y-44362966D02*
X111904762Y-44210585D01*
X111904762Y-44210585D02*
X111980953Y-44134394D01*
X111980953Y-44134394D02*
X112133334Y-44058204D01*
X112133334Y-44058204D02*
X112438096Y-44058204D01*
X112438096Y-44058204D02*
X112590477Y-44134394D01*
X112590477Y-44134394D02*
X112666667Y-44210585D01*
X112666667Y-44210585D02*
X112742858Y-44362966D01*
X110380952Y-43448680D02*
X111142857Y-43448680D01*
X111142857Y-43448680D02*
X111219048Y-44210585D01*
X111219048Y-44210585D02*
X111142857Y-44134394D01*
X111142857Y-44134394D02*
X110990476Y-44058204D01*
X110990476Y-44058204D02*
X110609524Y-44058204D01*
X110609524Y-44058204D02*
X110457143Y-44134394D01*
X110457143Y-44134394D02*
X110380952Y-44210585D01*
X110380952Y-44210585D02*
X110304762Y-44362966D01*
X110304762Y-44362966D02*
X110304762Y-44743918D01*
X110304762Y-44743918D02*
X110380952Y-44896299D01*
X110380952Y-44896299D02*
X110457143Y-44972490D01*
X110457143Y-44972490D02*
X110609524Y-45048680D01*
X110609524Y-45048680D02*
X110990476Y-45048680D01*
X110990476Y-45048680D02*
X111142857Y-44972490D01*
X111142857Y-44972490D02*
X111219048Y-44896299D01*
X109771428Y-43448680D02*
X108780952Y-43448680D01*
X108780952Y-43448680D02*
X109314285Y-44058204D01*
X109314285Y-44058204D02*
X109085714Y-44058204D01*
X109085714Y-44058204D02*
X108933333Y-44134394D01*
X108933333Y-44134394D02*
X108857142Y-44210585D01*
X108857142Y-44210585D02*
X108780952Y-44362966D01*
X108780952Y-44362966D02*
X108780952Y-44743918D01*
X108780952Y-44743918D02*
X108857142Y-44896299D01*
X108857142Y-44896299D02*
X108933333Y-44972490D01*
X108933333Y-44972490D02*
X109085714Y-45048680D01*
X109085714Y-45048680D02*
X109542857Y-45048680D01*
X109542857Y-45048680D02*
X109695238Y-44972490D01*
X109695238Y-44972490D02*
X109771428Y-44896299D01*
X108171428Y-43601061D02*
X108095237Y-43524870D01*
X108095237Y-43524870D02*
X107942856Y-43448680D01*
X107942856Y-43448680D02*
X107561904Y-43448680D01*
X107561904Y-43448680D02*
X107409523Y-43524870D01*
X107409523Y-43524870D02*
X107333332Y-43601061D01*
X107333332Y-43601061D02*
X107257142Y-43753442D01*
X107257142Y-43753442D02*
X107257142Y-43905823D01*
X107257142Y-43905823D02*
X107333332Y-44134394D01*
X107333332Y-44134394D02*
X108247618Y-45048680D01*
X108247618Y-45048680D02*
X107257142Y-45048680D01*
X105352379Y-45048680D02*
X105352379Y-43448680D01*
X105352379Y-44058204D02*
X105199998Y-43982013D01*
X105199998Y-43982013D02*
X104895236Y-43982013D01*
X104895236Y-43982013D02*
X104742855Y-44058204D01*
X104742855Y-44058204D02*
X104666665Y-44134394D01*
X104666665Y-44134394D02*
X104590474Y-44286775D01*
X104590474Y-44286775D02*
X104590474Y-44743918D01*
X104590474Y-44743918D02*
X104666665Y-44896299D01*
X104666665Y-44896299D02*
X104742855Y-44972490D01*
X104742855Y-44972490D02*
X104895236Y-45048680D01*
X104895236Y-45048680D02*
X105199998Y-45048680D01*
X105199998Y-45048680D02*
X105352379Y-44972490D01*
X103219046Y-45048680D02*
X103219046Y-44210585D01*
X103219046Y-44210585D02*
X103295236Y-44058204D01*
X103295236Y-44058204D02*
X103447617Y-43982013D01*
X103447617Y-43982013D02*
X103752379Y-43982013D01*
X103752379Y-43982013D02*
X103904760Y-44058204D01*
X103219046Y-44972490D02*
X103371427Y-45048680D01*
X103371427Y-45048680D02*
X103752379Y-45048680D01*
X103752379Y-45048680D02*
X103904760Y-44972490D01*
X103904760Y-44972490D02*
X103980951Y-44820109D01*
X103980951Y-44820109D02*
X103980951Y-44667728D01*
X103980951Y-44667728D02*
X103904760Y-44515347D01*
X103904760Y-44515347D02*
X103752379Y-44439156D01*
X103752379Y-44439156D02*
X103371427Y-44439156D01*
X103371427Y-44439156D02*
X103219046Y-44362966D01*
X102533332Y-44972490D02*
X102380951Y-45048680D01*
X102380951Y-45048680D02*
X102076189Y-45048680D01*
X102076189Y-45048680D02*
X101923808Y-44972490D01*
X101923808Y-44972490D02*
X101847617Y-44820109D01*
X101847617Y-44820109D02*
X101847617Y-44743918D01*
X101847617Y-44743918D02*
X101923808Y-44591537D01*
X101923808Y-44591537D02*
X102076189Y-44515347D01*
X102076189Y-44515347D02*
X102304760Y-44515347D01*
X102304760Y-44515347D02*
X102457141Y-44439156D01*
X102457141Y-44439156D02*
X102533332Y-44286775D01*
X102533332Y-44286775D02*
X102533332Y-44210585D01*
X102533332Y-44210585D02*
X102457141Y-44058204D01*
X102457141Y-44058204D02*
X102304760Y-43982013D01*
X102304760Y-43982013D02*
X102076189Y-43982013D01*
X102076189Y-43982013D02*
X101923808Y-44058204D01*
X100552379Y-44972490D02*
X100704760Y-45048680D01*
X100704760Y-45048680D02*
X101009522Y-45048680D01*
X101009522Y-45048680D02*
X101161903Y-44972490D01*
X101161903Y-44972490D02*
X101238094Y-44820109D01*
X101238094Y-44820109D02*
X101238094Y-44210585D01*
X101238094Y-44210585D02*
X101161903Y-44058204D01*
X101161903Y-44058204D02*
X101009522Y-43982013D01*
X101009522Y-43982013D02*
X100704760Y-43982013D01*
X100704760Y-43982013D02*
X100552379Y-44058204D01*
X100552379Y-44058204D02*
X100476189Y-44210585D01*
X100476189Y-44210585D02*
X100476189Y-44362966D01*
X100476189Y-44362966D02*
X101238094Y-44515347D01*
X99104760Y-45048680D02*
X99104760Y-43448680D01*
X99104760Y-44972490D02*
X99257141Y-45048680D01*
X99257141Y-45048680D02*
X99561903Y-45048680D01*
X99561903Y-45048680D02*
X99714284Y-44972490D01*
X99714284Y-44972490D02*
X99790474Y-44896299D01*
X99790474Y-44896299D02*
X99866665Y-44743918D01*
X99866665Y-44743918D02*
X99866665Y-44286775D01*
X99866665Y-44286775D02*
X99790474Y-44134394D01*
X99790474Y-44134394D02*
X99714284Y-44058204D01*
X99714284Y-44058204D02*
X99561903Y-43982013D01*
X99561903Y-43982013D02*
X99257141Y-43982013D01*
X99257141Y-43982013D02*
X99104760Y-44058204D01*
X119142857Y-47624590D02*
X119142857Y-46024590D01*
X119142857Y-46634114D02*
X118990476Y-46557923D01*
X118990476Y-46557923D02*
X118685714Y-46557923D01*
X118685714Y-46557923D02*
X118533333Y-46634114D01*
X118533333Y-46634114D02*
X118457143Y-46710304D01*
X118457143Y-46710304D02*
X118380952Y-46862685D01*
X118380952Y-46862685D02*
X118380952Y-47319828D01*
X118380952Y-47319828D02*
X118457143Y-47472209D01*
X118457143Y-47472209D02*
X118533333Y-47548400D01*
X118533333Y-47548400D02*
X118685714Y-47624590D01*
X118685714Y-47624590D02*
X118990476Y-47624590D01*
X118990476Y-47624590D02*
X119142857Y-47548400D01*
X117695238Y-47624590D02*
X117695238Y-46557923D01*
X117695238Y-46862685D02*
X117619048Y-46710304D01*
X117619048Y-46710304D02*
X117542857Y-46634114D01*
X117542857Y-46634114D02*
X117390476Y-46557923D01*
X117390476Y-46557923D02*
X117238095Y-46557923D01*
X116019048Y-46557923D02*
X116019048Y-47624590D01*
X116704762Y-46557923D02*
X116704762Y-47396019D01*
X116704762Y-47396019D02*
X116628572Y-47548400D01*
X116628572Y-47548400D02*
X116476191Y-47624590D01*
X116476191Y-47624590D02*
X116247619Y-47624590D01*
X116247619Y-47624590D02*
X116095238Y-47548400D01*
X116095238Y-47548400D02*
X116019048Y-47472209D01*
X115333334Y-47548400D02*
X115180953Y-47624590D01*
X115180953Y-47624590D02*
X114876191Y-47624590D01*
X114876191Y-47624590D02*
X114723810Y-47548400D01*
X114723810Y-47548400D02*
X114647619Y-47396019D01*
X114647619Y-47396019D02*
X114647619Y-47319828D01*
X114647619Y-47319828D02*
X114723810Y-47167447D01*
X114723810Y-47167447D02*
X114876191Y-47091257D01*
X114876191Y-47091257D02*
X115104762Y-47091257D01*
X115104762Y-47091257D02*
X115257143Y-47015066D01*
X115257143Y-47015066D02*
X115333334Y-46862685D01*
X115333334Y-46862685D02*
X115333334Y-46786495D01*
X115333334Y-46786495D02*
X115257143Y-46634114D01*
X115257143Y-46634114D02*
X115104762Y-46557923D01*
X115104762Y-46557923D02*
X114876191Y-46557923D01*
X114876191Y-46557923D02*
X114723810Y-46634114D01*
X113961905Y-47624590D02*
X113961905Y-46024590D01*
X113276191Y-47624590D02*
X113276191Y-46786495D01*
X113276191Y-46786495D02*
X113352381Y-46634114D01*
X113352381Y-46634114D02*
X113504762Y-46557923D01*
X113504762Y-46557923D02*
X113733334Y-46557923D01*
X113733334Y-46557923D02*
X113885715Y-46634114D01*
X113885715Y-46634114D02*
X113961905Y-46710304D01*
X112285715Y-47624590D02*
X112438096Y-47548400D01*
X112438096Y-47548400D02*
X112514286Y-47396019D01*
X112514286Y-47396019D02*
X112514286Y-46024590D01*
X111066667Y-47548400D02*
X111219048Y-47624590D01*
X111219048Y-47624590D02*
X111523810Y-47624590D01*
X111523810Y-47624590D02*
X111676191Y-47548400D01*
X111676191Y-47548400D02*
X111752382Y-47396019D01*
X111752382Y-47396019D02*
X111752382Y-46786495D01*
X111752382Y-46786495D02*
X111676191Y-46634114D01*
X111676191Y-46634114D02*
X111523810Y-46557923D01*
X111523810Y-46557923D02*
X111219048Y-46557923D01*
X111219048Y-46557923D02*
X111066667Y-46634114D01*
X111066667Y-46634114D02*
X110990477Y-46786495D01*
X110990477Y-46786495D02*
X110990477Y-46938876D01*
X110990477Y-46938876D02*
X111752382Y-47091257D01*
X110380953Y-47548400D02*
X110228572Y-47624590D01*
X110228572Y-47624590D02*
X109923810Y-47624590D01*
X109923810Y-47624590D02*
X109771429Y-47548400D01*
X109771429Y-47548400D02*
X109695238Y-47396019D01*
X109695238Y-47396019D02*
X109695238Y-47319828D01*
X109695238Y-47319828D02*
X109771429Y-47167447D01*
X109771429Y-47167447D02*
X109923810Y-47091257D01*
X109923810Y-47091257D02*
X110152381Y-47091257D01*
X110152381Y-47091257D02*
X110304762Y-47015066D01*
X110304762Y-47015066D02*
X110380953Y-46862685D01*
X110380953Y-46862685D02*
X110380953Y-46786495D01*
X110380953Y-46786495D02*
X110304762Y-46634114D01*
X110304762Y-46634114D02*
X110152381Y-46557923D01*
X110152381Y-46557923D02*
X109923810Y-46557923D01*
X109923810Y-46557923D02*
X109771429Y-46634114D01*
X109085715Y-47548400D02*
X108933334Y-47624590D01*
X108933334Y-47624590D02*
X108628572Y-47624590D01*
X108628572Y-47624590D02*
X108476191Y-47548400D01*
X108476191Y-47548400D02*
X108400000Y-47396019D01*
X108400000Y-47396019D02*
X108400000Y-47319828D01*
X108400000Y-47319828D02*
X108476191Y-47167447D01*
X108476191Y-47167447D02*
X108628572Y-47091257D01*
X108628572Y-47091257D02*
X108857143Y-47091257D01*
X108857143Y-47091257D02*
X109009524Y-47015066D01*
X109009524Y-47015066D02*
X109085715Y-46862685D01*
X109085715Y-46862685D02*
X109085715Y-46786495D01*
X109085715Y-46786495D02*
X109009524Y-46634114D01*
X109009524Y-46634114D02*
X108857143Y-46557923D01*
X108857143Y-46557923D02*
X108628572Y-46557923D01*
X108628572Y-46557923D02*
X108476191Y-46634114D01*
X106495238Y-47624590D02*
X106495238Y-46024590D01*
X106495238Y-46024590D02*
X106114286Y-46024590D01*
X106114286Y-46024590D02*
X105885714Y-46100780D01*
X105885714Y-46100780D02*
X105733333Y-46253161D01*
X105733333Y-46253161D02*
X105657143Y-46405542D01*
X105657143Y-46405542D02*
X105580952Y-46710304D01*
X105580952Y-46710304D02*
X105580952Y-46938876D01*
X105580952Y-46938876D02*
X105657143Y-47243638D01*
X105657143Y-47243638D02*
X105733333Y-47396019D01*
X105733333Y-47396019D02*
X105885714Y-47548400D01*
X105885714Y-47548400D02*
X106114286Y-47624590D01*
X106114286Y-47624590D02*
X106495238Y-47624590D01*
X103980952Y-47472209D02*
X104057143Y-47548400D01*
X104057143Y-47548400D02*
X104285714Y-47624590D01*
X104285714Y-47624590D02*
X104438095Y-47624590D01*
X104438095Y-47624590D02*
X104666667Y-47548400D01*
X104666667Y-47548400D02*
X104819048Y-47396019D01*
X104819048Y-47396019D02*
X104895238Y-47243638D01*
X104895238Y-47243638D02*
X104971429Y-46938876D01*
X104971429Y-46938876D02*
X104971429Y-46710304D01*
X104971429Y-46710304D02*
X104895238Y-46405542D01*
X104895238Y-46405542D02*
X104819048Y-46253161D01*
X104819048Y-46253161D02*
X104666667Y-46100780D01*
X104666667Y-46100780D02*
X104438095Y-46024590D01*
X104438095Y-46024590D02*
X104285714Y-46024590D01*
X104285714Y-46024590D02*
X104057143Y-46100780D01*
X104057143Y-46100780D02*
X103980952Y-46176971D01*
X101390476Y-47624590D02*
X101390476Y-46024590D01*
X101390476Y-47548400D02*
X101542857Y-47624590D01*
X101542857Y-47624590D02*
X101847619Y-47624590D01*
X101847619Y-47624590D02*
X102000000Y-47548400D01*
X102000000Y-47548400D02*
X102076190Y-47472209D01*
X102076190Y-47472209D02*
X102152381Y-47319828D01*
X102152381Y-47319828D02*
X102152381Y-46862685D01*
X102152381Y-46862685D02*
X102076190Y-46710304D01*
X102076190Y-46710304D02*
X102000000Y-46634114D01*
X102000000Y-46634114D02*
X101847619Y-46557923D01*
X101847619Y-46557923D02*
X101542857Y-46557923D01*
X101542857Y-46557923D02*
X101390476Y-46634114D01*
X100628571Y-47624590D02*
X100628571Y-46557923D01*
X100628571Y-46862685D02*
X100552381Y-46710304D01*
X100552381Y-46710304D02*
X100476190Y-46634114D01*
X100476190Y-46634114D02*
X100323809Y-46557923D01*
X100323809Y-46557923D02*
X100171428Y-46557923D01*
X99638095Y-47624590D02*
X99638095Y-46557923D01*
X99638095Y-46024590D02*
X99714286Y-46100780D01*
X99714286Y-46100780D02*
X99638095Y-46176971D01*
X99638095Y-46176971D02*
X99561905Y-46100780D01*
X99561905Y-46100780D02*
X99638095Y-46024590D01*
X99638095Y-46024590D02*
X99638095Y-46176971D01*
X99028571Y-46557923D02*
X98647619Y-47624590D01*
X98647619Y-47624590D02*
X98266666Y-46557923D01*
X97047618Y-47548400D02*
X97199999Y-47624590D01*
X97199999Y-47624590D02*
X97504761Y-47624590D01*
X97504761Y-47624590D02*
X97657142Y-47548400D01*
X97657142Y-47548400D02*
X97733333Y-47396019D01*
X97733333Y-47396019D02*
X97733333Y-46786495D01*
X97733333Y-46786495D02*
X97657142Y-46634114D01*
X97657142Y-46634114D02*
X97504761Y-46557923D01*
X97504761Y-46557923D02*
X97199999Y-46557923D01*
X97199999Y-46557923D02*
X97047618Y-46634114D01*
X97047618Y-46634114D02*
X96971428Y-46786495D01*
X96971428Y-46786495D02*
X96971428Y-46938876D01*
X96971428Y-46938876D02*
X97733333Y-47091257D01*
X96285713Y-47624590D02*
X96285713Y-46557923D01*
X96285713Y-46862685D02*
X96209523Y-46710304D01*
X96209523Y-46710304D02*
X96133332Y-46634114D01*
X96133332Y-46634114D02*
X95980951Y-46557923D01*
X95980951Y-46557923D02*
X95828570Y-46557923D01*
X111790476Y-48600500D02*
X112095238Y-48600500D01*
X112095238Y-48600500D02*
X112247619Y-48676690D01*
X112247619Y-48676690D02*
X112323809Y-48752881D01*
X112323809Y-48752881D02*
X112476190Y-48981452D01*
X112476190Y-48981452D02*
X112552381Y-49286214D01*
X112552381Y-49286214D02*
X112552381Y-49895738D01*
X112552381Y-49895738D02*
X112476190Y-50048119D01*
X112476190Y-50048119D02*
X112400000Y-50124310D01*
X112400000Y-50124310D02*
X112247619Y-50200500D01*
X112247619Y-50200500D02*
X111942857Y-50200500D01*
X111942857Y-50200500D02*
X111790476Y-50124310D01*
X111790476Y-50124310D02*
X111714285Y-50048119D01*
X111714285Y-50048119D02*
X111638095Y-49895738D01*
X111638095Y-49895738D02*
X111638095Y-49514786D01*
X111638095Y-49514786D02*
X111714285Y-49362405D01*
X111714285Y-49362405D02*
X111790476Y-49286214D01*
X111790476Y-49286214D02*
X111942857Y-49210024D01*
X111942857Y-49210024D02*
X112247619Y-49210024D01*
X112247619Y-49210024D02*
X112400000Y-49286214D01*
X112400000Y-49286214D02*
X112476190Y-49362405D01*
X112476190Y-49362405D02*
X112552381Y-49514786D01*
X110647618Y-48600500D02*
X110495237Y-48600500D01*
X110495237Y-48600500D02*
X110342856Y-48676690D01*
X110342856Y-48676690D02*
X110266666Y-48752881D01*
X110266666Y-48752881D02*
X110190475Y-48905262D01*
X110190475Y-48905262D02*
X110114285Y-49210024D01*
X110114285Y-49210024D02*
X110114285Y-49590976D01*
X110114285Y-49590976D02*
X110190475Y-49895738D01*
X110190475Y-49895738D02*
X110266666Y-50048119D01*
X110266666Y-50048119D02*
X110342856Y-50124310D01*
X110342856Y-50124310D02*
X110495237Y-50200500D01*
X110495237Y-50200500D02*
X110647618Y-50200500D01*
X110647618Y-50200500D02*
X110799999Y-50124310D01*
X110799999Y-50124310D02*
X110876190Y-50048119D01*
X110876190Y-50048119D02*
X110952380Y-49895738D01*
X110952380Y-49895738D02*
X111028571Y-49590976D01*
X111028571Y-49590976D02*
X111028571Y-49210024D01*
X111028571Y-49210024D02*
X110952380Y-48905262D01*
X110952380Y-48905262D02*
X110876190Y-48752881D01*
X110876190Y-48752881D02*
X110799999Y-48676690D01*
X110799999Y-48676690D02*
X110647618Y-48600500D01*
X109657142Y-48600500D02*
X109123808Y-50200500D01*
X109123808Y-50200500D02*
X108590475Y-48600500D01*
X106838093Y-50200500D02*
X106838093Y-49133833D01*
X106838093Y-49286214D02*
X106761903Y-49210024D01*
X106761903Y-49210024D02*
X106609522Y-49133833D01*
X106609522Y-49133833D02*
X106380950Y-49133833D01*
X106380950Y-49133833D02*
X106228569Y-49210024D01*
X106228569Y-49210024D02*
X106152379Y-49362405D01*
X106152379Y-49362405D02*
X106152379Y-50200500D01*
X106152379Y-49362405D02*
X106076188Y-49210024D01*
X106076188Y-49210024D02*
X105923807Y-49133833D01*
X105923807Y-49133833D02*
X105695236Y-49133833D01*
X105695236Y-49133833D02*
X105542855Y-49210024D01*
X105542855Y-49210024D02*
X105466665Y-49362405D01*
X105466665Y-49362405D02*
X105466665Y-50200500D01*
X104019046Y-50200500D02*
X104019046Y-49362405D01*
X104019046Y-49362405D02*
X104095236Y-49210024D01*
X104095236Y-49210024D02*
X104247617Y-49133833D01*
X104247617Y-49133833D02*
X104552379Y-49133833D01*
X104552379Y-49133833D02*
X104704760Y-49210024D01*
X104019046Y-50124310D02*
X104171427Y-50200500D01*
X104171427Y-50200500D02*
X104552379Y-50200500D01*
X104552379Y-50200500D02*
X104704760Y-50124310D01*
X104704760Y-50124310D02*
X104780951Y-49971929D01*
X104780951Y-49971929D02*
X104780951Y-49819548D01*
X104780951Y-49819548D02*
X104704760Y-49667167D01*
X104704760Y-49667167D02*
X104552379Y-49590976D01*
X104552379Y-49590976D02*
X104171427Y-49590976D01*
X104171427Y-49590976D02*
X104019046Y-49514786D01*
X103409522Y-50200500D02*
X102571427Y-49133833D01*
X103409522Y-49133833D02*
X102571427Y-50200500D01*
D10*
X105812857Y-62508670D02*
X105812857Y-64008670D01*
X105812857Y-62580099D02*
X105670000Y-62508670D01*
X105670000Y-62508670D02*
X105384285Y-62508670D01*
X105384285Y-62508670D02*
X105241428Y-62580099D01*
X105241428Y-62580099D02*
X105170000Y-62651527D01*
X105170000Y-62651527D02*
X105098571Y-62794384D01*
X105098571Y-62794384D02*
X105098571Y-63222956D01*
X105098571Y-63222956D02*
X105170000Y-63365813D01*
X105170000Y-63365813D02*
X105241428Y-63437242D01*
X105241428Y-63437242D02*
X105384285Y-63508670D01*
X105384285Y-63508670D02*
X105670000Y-63508670D01*
X105670000Y-63508670D02*
X105812857Y-63437242D01*
X104241428Y-63508670D02*
X104384285Y-63437242D01*
X104384285Y-63437242D02*
X104455714Y-63365813D01*
X104455714Y-63365813D02*
X104527142Y-63222956D01*
X104527142Y-63222956D02*
X104527142Y-62794384D01*
X104527142Y-62794384D02*
X104455714Y-62651527D01*
X104455714Y-62651527D02*
X104384285Y-62580099D01*
X104384285Y-62580099D02*
X104241428Y-62508670D01*
X104241428Y-62508670D02*
X104027142Y-62508670D01*
X104027142Y-62508670D02*
X103884285Y-62580099D01*
X103884285Y-62580099D02*
X103812857Y-62651527D01*
X103812857Y-62651527D02*
X103741428Y-62794384D01*
X103741428Y-62794384D02*
X103741428Y-63222956D01*
X103741428Y-63222956D02*
X103812857Y-63365813D01*
X103812857Y-63365813D02*
X103884285Y-63437242D01*
X103884285Y-63437242D02*
X104027142Y-63508670D01*
X104027142Y-63508670D02*
X104241428Y-63508670D01*
X103241428Y-62508670D02*
X102955714Y-63508670D01*
X102955714Y-63508670D02*
X102669999Y-62794384D01*
X102669999Y-62794384D02*
X102384285Y-63508670D01*
X102384285Y-63508670D02*
X102098571Y-62508670D01*
X100955713Y-63437242D02*
X101098570Y-63508670D01*
X101098570Y-63508670D02*
X101384285Y-63508670D01*
X101384285Y-63508670D02*
X101527142Y-63437242D01*
X101527142Y-63437242D02*
X101598570Y-63294384D01*
X101598570Y-63294384D02*
X101598570Y-62722956D01*
X101598570Y-62722956D02*
X101527142Y-62580099D01*
X101527142Y-62580099D02*
X101384285Y-62508670D01*
X101384285Y-62508670D02*
X101098570Y-62508670D01*
X101098570Y-62508670D02*
X100955713Y-62580099D01*
X100955713Y-62580099D02*
X100884285Y-62722956D01*
X100884285Y-62722956D02*
X100884285Y-62865813D01*
X100884285Y-62865813D02*
X101598570Y-63008670D01*
X100241428Y-63508670D02*
X100241428Y-62508670D01*
X100241428Y-62794384D02*
X100169999Y-62651527D01*
X100169999Y-62651527D02*
X100098571Y-62580099D01*
X100098571Y-62580099D02*
X99955713Y-62508670D01*
X99955713Y-62508670D02*
X99812856Y-62508670D01*
X104062856Y-64495015D02*
X104205714Y-64423586D01*
X104205714Y-64423586D02*
X104419999Y-64423586D01*
X104419999Y-64423586D02*
X104634285Y-64495015D01*
X104634285Y-64495015D02*
X104777142Y-64637872D01*
X104777142Y-64637872D02*
X104848571Y-64780729D01*
X104848571Y-64780729D02*
X104919999Y-65066443D01*
X104919999Y-65066443D02*
X104919999Y-65280729D01*
X104919999Y-65280729D02*
X104848571Y-65566443D01*
X104848571Y-65566443D02*
X104777142Y-65709300D01*
X104777142Y-65709300D02*
X104634285Y-65852158D01*
X104634285Y-65852158D02*
X104419999Y-65923586D01*
X104419999Y-65923586D02*
X104277142Y-65923586D01*
X104277142Y-65923586D02*
X104062856Y-65852158D01*
X104062856Y-65852158D02*
X103991428Y-65780729D01*
X103991428Y-65780729D02*
X103991428Y-65280729D01*
X103991428Y-65280729D02*
X104277142Y-65280729D01*
X103348571Y-65923586D02*
X103348571Y-64423586D01*
X103348571Y-64423586D02*
X102491428Y-65923586D01*
X102491428Y-65923586D02*
X102491428Y-64423586D01*
X101777142Y-65923586D02*
X101777142Y-64423586D01*
X101777142Y-64423586D02*
X101419999Y-64423586D01*
X101419999Y-64423586D02*
X101205713Y-64495015D01*
X101205713Y-64495015D02*
X101062856Y-64637872D01*
X101062856Y-64637872D02*
X100991427Y-64780729D01*
X100991427Y-64780729D02*
X100919999Y-65066443D01*
X100919999Y-65066443D02*
X100919999Y-65280729D01*
X100919999Y-65280729D02*
X100991427Y-65566443D01*
X100991427Y-65566443D02*
X101062856Y-65709300D01*
X101062856Y-65709300D02*
X101205713Y-65852158D01*
X101205713Y-65852158D02*
X101419999Y-65923586D01*
X101419999Y-65923586D02*
X101777142Y-65923586D01*
X66188990Y-49851904D02*
X66141371Y-49737618D01*
X66141371Y-49737618D02*
X66093752Y-49699523D01*
X66093752Y-49699523D02*
X65998514Y-49661427D01*
X65998514Y-49661427D02*
X65855657Y-49661427D01*
X65855657Y-49661427D02*
X65760419Y-49699523D01*
X65760419Y-49699523D02*
X65712800Y-49737618D01*
X65712800Y-49737618D02*
X65665180Y-49813808D01*
X65665180Y-49813808D02*
X65665180Y-50118570D01*
X65665180Y-50118570D02*
X66665180Y-50118570D01*
X66665180Y-50118570D02*
X66665180Y-49851904D01*
X66665180Y-49851904D02*
X66617561Y-49775713D01*
X66617561Y-49775713D02*
X66569942Y-49737618D01*
X66569942Y-49737618D02*
X66474704Y-49699523D01*
X66474704Y-49699523D02*
X66379466Y-49699523D01*
X66379466Y-49699523D02*
X66284228Y-49737618D01*
X66284228Y-49737618D02*
X66236609Y-49775713D01*
X66236609Y-49775713D02*
X66188990Y-49851904D01*
X66188990Y-49851904D02*
X66188990Y-50118570D01*
X66665180Y-49166189D02*
X66665180Y-49013808D01*
X66665180Y-49013808D02*
X66617561Y-48937618D01*
X66617561Y-48937618D02*
X66522323Y-48861427D01*
X66522323Y-48861427D02*
X66331847Y-48823332D01*
X66331847Y-48823332D02*
X65998514Y-48823332D01*
X65998514Y-48823332D02*
X65808038Y-48861427D01*
X65808038Y-48861427D02*
X65712800Y-48937618D01*
X65712800Y-48937618D02*
X65665180Y-49013808D01*
X65665180Y-49013808D02*
X65665180Y-49166189D01*
X65665180Y-49166189D02*
X65712800Y-49242380D01*
X65712800Y-49242380D02*
X65808038Y-49318570D01*
X65808038Y-49318570D02*
X65998514Y-49356666D01*
X65998514Y-49356666D02*
X66331847Y-49356666D01*
X66331847Y-49356666D02*
X66522323Y-49318570D01*
X66522323Y-49318570D02*
X66617561Y-49242380D01*
X66617561Y-49242380D02*
X66665180Y-49166189D01*
X72792800Y-74605714D02*
X72745180Y-74491428D01*
X72745180Y-74491428D02*
X72745180Y-74300952D01*
X72745180Y-74300952D02*
X72792800Y-74224761D01*
X72792800Y-74224761D02*
X72840419Y-74186666D01*
X72840419Y-74186666D02*
X72935657Y-74148571D01*
X72935657Y-74148571D02*
X73030895Y-74148571D01*
X73030895Y-74148571D02*
X73126133Y-74186666D01*
X73126133Y-74186666D02*
X73173752Y-74224761D01*
X73173752Y-74224761D02*
X73221371Y-74300952D01*
X73221371Y-74300952D02*
X73268990Y-74453333D01*
X73268990Y-74453333D02*
X73316609Y-74529523D01*
X73316609Y-74529523D02*
X73364228Y-74567618D01*
X73364228Y-74567618D02*
X73459466Y-74605714D01*
X73459466Y-74605714D02*
X73554704Y-74605714D01*
X73554704Y-74605714D02*
X73649942Y-74567618D01*
X73649942Y-74567618D02*
X73697561Y-74529523D01*
X73697561Y-74529523D02*
X73745180Y-74453333D01*
X73745180Y-74453333D02*
X73745180Y-74262856D01*
X73745180Y-74262856D02*
X73697561Y-74148571D01*
X72745180Y-73691428D02*
X72792800Y-73767618D01*
X72792800Y-73767618D02*
X72888038Y-73805713D01*
X72888038Y-73805713D02*
X73745180Y-73805713D01*
X72792800Y-73081903D02*
X72745180Y-73158094D01*
X72745180Y-73158094D02*
X72745180Y-73310475D01*
X72745180Y-73310475D02*
X72792800Y-73386665D01*
X72792800Y-73386665D02*
X72888038Y-73424761D01*
X72888038Y-73424761D02*
X73268990Y-73424761D01*
X73268990Y-73424761D02*
X73364228Y-73386665D01*
X73364228Y-73386665D02*
X73411847Y-73310475D01*
X73411847Y-73310475D02*
X73411847Y-73158094D01*
X73411847Y-73158094D02*
X73364228Y-73081903D01*
X73364228Y-73081903D02*
X73268990Y-73043808D01*
X73268990Y-73043808D02*
X73173752Y-73043808D01*
X73173752Y-73043808D02*
X73078514Y-73424761D01*
X72792800Y-72396189D02*
X72745180Y-72472380D01*
X72745180Y-72472380D02*
X72745180Y-72624761D01*
X72745180Y-72624761D02*
X72792800Y-72700951D01*
X72792800Y-72700951D02*
X72888038Y-72739047D01*
X72888038Y-72739047D02*
X73268990Y-72739047D01*
X73268990Y-72739047D02*
X73364228Y-72700951D01*
X73364228Y-72700951D02*
X73411847Y-72624761D01*
X73411847Y-72624761D02*
X73411847Y-72472380D01*
X73411847Y-72472380D02*
X73364228Y-72396189D01*
X73364228Y-72396189D02*
X73268990Y-72358094D01*
X73268990Y-72358094D02*
X73173752Y-72358094D01*
X73173752Y-72358094D02*
X73078514Y-72739047D01*
X73411847Y-72015237D02*
X72411847Y-72015237D01*
X73364228Y-72015237D02*
X73411847Y-71939047D01*
X73411847Y-71939047D02*
X73411847Y-71786666D01*
X73411847Y-71786666D02*
X73364228Y-71710475D01*
X73364228Y-71710475D02*
X73316609Y-71672380D01*
X73316609Y-71672380D02*
X73221371Y-71634285D01*
X73221371Y-71634285D02*
X72935657Y-71634285D01*
X72935657Y-71634285D02*
X72840419Y-71672380D01*
X72840419Y-71672380D02*
X72792800Y-71710475D01*
X72792800Y-71710475D02*
X72745180Y-71786666D01*
X72745180Y-71786666D02*
X72745180Y-71939047D01*
X72745180Y-71939047D02*
X72792800Y-72015237D01*
X99889049Y-73407200D02*
X99984287Y-73454819D01*
X99984287Y-73454819D02*
X100174763Y-73454819D01*
X100174763Y-73454819D02*
X100270001Y-73407200D01*
X100270001Y-73407200D02*
X100317620Y-73359580D01*
X100317620Y-73359580D02*
X100365239Y-73264342D01*
X100365239Y-73264342D02*
X100365239Y-72978628D01*
X100365239Y-72978628D02*
X100317620Y-72883390D01*
X100317620Y-72883390D02*
X100270001Y-72835771D01*
X100270001Y-72835771D02*
X100174763Y-72788152D01*
X100174763Y-72788152D02*
X99984287Y-72788152D01*
X99984287Y-72788152D02*
X99889049Y-72835771D01*
X99031906Y-72788152D02*
X99031906Y-73454819D01*
X99460477Y-72788152D02*
X99460477Y-73311961D01*
X99460477Y-73311961D02*
X99412858Y-73407200D01*
X99412858Y-73407200D02*
X99317620Y-73454819D01*
X99317620Y-73454819D02*
X99174763Y-73454819D01*
X99174763Y-73454819D02*
X99079525Y-73407200D01*
X99079525Y-73407200D02*
X99031906Y-73359580D01*
X98698572Y-72788152D02*
X98317620Y-72788152D01*
X98555715Y-72454819D02*
X98555715Y-73311961D01*
X98555715Y-73311961D02*
X98508096Y-73407200D01*
X98508096Y-73407200D02*
X98412858Y-73454819D01*
X98412858Y-73454819D02*
X98317620Y-73454819D01*
X96698572Y-72502438D02*
X96793810Y-72454819D01*
X96793810Y-72454819D02*
X96936667Y-72454819D01*
X96936667Y-72454819D02*
X97079524Y-72502438D01*
X97079524Y-72502438D02*
X97174762Y-72597676D01*
X97174762Y-72597676D02*
X97222381Y-72692914D01*
X97222381Y-72692914D02*
X97270000Y-72883390D01*
X97270000Y-72883390D02*
X97270000Y-73026247D01*
X97270000Y-73026247D02*
X97222381Y-73216723D01*
X97222381Y-73216723D02*
X97174762Y-73311961D01*
X97174762Y-73311961D02*
X97079524Y-73407200D01*
X97079524Y-73407200D02*
X96936667Y-73454819D01*
X96936667Y-73454819D02*
X96841429Y-73454819D01*
X96841429Y-73454819D02*
X96698572Y-73407200D01*
X96698572Y-73407200D02*
X96650953Y-73359580D01*
X96650953Y-73359580D02*
X96650953Y-73026247D01*
X96650953Y-73026247D02*
X96841429Y-73026247D01*
X96222381Y-73454819D02*
X96222381Y-72454819D01*
X96222381Y-72454819D02*
X95650953Y-73454819D01*
X95650953Y-73454819D02*
X95650953Y-72454819D01*
X95174762Y-73454819D02*
X95174762Y-72454819D01*
X95174762Y-72454819D02*
X94936667Y-72454819D01*
X94936667Y-72454819D02*
X94793810Y-72502438D01*
X94793810Y-72502438D02*
X94698572Y-72597676D01*
X94698572Y-72597676D02*
X94650953Y-72692914D01*
X94650953Y-72692914D02*
X94603334Y-72883390D01*
X94603334Y-72883390D02*
X94603334Y-73026247D01*
X94603334Y-73026247D02*
X94650953Y-73216723D01*
X94650953Y-73216723D02*
X94698572Y-73311961D01*
X94698572Y-73311961D02*
X94793810Y-73407200D01*
X94793810Y-73407200D02*
X94936667Y-73454819D01*
X94936667Y-73454819D02*
X95174762Y-73454819D01*
X93270000Y-73454819D02*
X93365238Y-73407200D01*
X93365238Y-73407200D02*
X93412857Y-73359580D01*
X93412857Y-73359580D02*
X93460476Y-73264342D01*
X93460476Y-73264342D02*
X93460476Y-72978628D01*
X93460476Y-72978628D02*
X93412857Y-72883390D01*
X93412857Y-72883390D02*
X93365238Y-72835771D01*
X93365238Y-72835771D02*
X93270000Y-72788152D01*
X93270000Y-72788152D02*
X93127143Y-72788152D01*
X93127143Y-72788152D02*
X93031905Y-72835771D01*
X93031905Y-72835771D02*
X92984286Y-72883390D01*
X92984286Y-72883390D02*
X92936667Y-72978628D01*
X92936667Y-72978628D02*
X92936667Y-73264342D01*
X92936667Y-73264342D02*
X92984286Y-73359580D01*
X92984286Y-73359580D02*
X93031905Y-73407200D01*
X93031905Y-73407200D02*
X93127143Y-73454819D01*
X93127143Y-73454819D02*
X93270000Y-73454819D01*
X92508095Y-72788152D02*
X92508095Y-73454819D01*
X92508095Y-72883390D02*
X92460476Y-72835771D01*
X92460476Y-72835771D02*
X92365238Y-72788152D01*
X92365238Y-72788152D02*
X92222381Y-72788152D01*
X92222381Y-72788152D02*
X92127143Y-72835771D01*
X92127143Y-72835771D02*
X92079524Y-72931009D01*
X92079524Y-72931009D02*
X92079524Y-73454819D01*
X90841428Y-73454819D02*
X90841428Y-72454819D01*
X90841428Y-72835771D02*
X90746190Y-72788152D01*
X90746190Y-72788152D02*
X90555714Y-72788152D01*
X90555714Y-72788152D02*
X90460476Y-72835771D01*
X90460476Y-72835771D02*
X90412857Y-72883390D01*
X90412857Y-72883390D02*
X90365238Y-72978628D01*
X90365238Y-72978628D02*
X90365238Y-73264342D01*
X90365238Y-73264342D02*
X90412857Y-73359580D01*
X90412857Y-73359580D02*
X90460476Y-73407200D01*
X90460476Y-73407200D02*
X90555714Y-73454819D01*
X90555714Y-73454819D02*
X90746190Y-73454819D01*
X90746190Y-73454819D02*
X90841428Y-73407200D01*
X89793809Y-73454819D02*
X89889047Y-73407200D01*
X89889047Y-73407200D02*
X89936666Y-73359580D01*
X89936666Y-73359580D02*
X89984285Y-73264342D01*
X89984285Y-73264342D02*
X89984285Y-72978628D01*
X89984285Y-72978628D02*
X89936666Y-72883390D01*
X89936666Y-72883390D02*
X89889047Y-72835771D01*
X89889047Y-72835771D02*
X89793809Y-72788152D01*
X89793809Y-72788152D02*
X89650952Y-72788152D01*
X89650952Y-72788152D02*
X89555714Y-72835771D01*
X89555714Y-72835771D02*
X89508095Y-72883390D01*
X89508095Y-72883390D02*
X89460476Y-72978628D01*
X89460476Y-72978628D02*
X89460476Y-73264342D01*
X89460476Y-73264342D02*
X89508095Y-73359580D01*
X89508095Y-73359580D02*
X89555714Y-73407200D01*
X89555714Y-73407200D02*
X89650952Y-73454819D01*
X89650952Y-73454819D02*
X89793809Y-73454819D01*
X89174761Y-72788152D02*
X88793809Y-72788152D01*
X89031904Y-72454819D02*
X89031904Y-73311961D01*
X89031904Y-73311961D02*
X88984285Y-73407200D01*
X88984285Y-73407200D02*
X88889047Y-73454819D01*
X88889047Y-73454819D02*
X88793809Y-73454819D01*
X88460475Y-73454819D02*
X88460475Y-72454819D01*
X88031904Y-73454819D02*
X88031904Y-72931009D01*
X88031904Y-72931009D02*
X88079523Y-72835771D01*
X88079523Y-72835771D02*
X88174761Y-72788152D01*
X88174761Y-72788152D02*
X88317618Y-72788152D01*
X88317618Y-72788152D02*
X88412856Y-72835771D01*
X88412856Y-72835771D02*
X88460475Y-72883390D01*
X86841427Y-73407200D02*
X86746189Y-73454819D01*
X86746189Y-73454819D02*
X86555713Y-73454819D01*
X86555713Y-73454819D02*
X86460475Y-73407200D01*
X86460475Y-73407200D02*
X86412856Y-73311961D01*
X86412856Y-73311961D02*
X86412856Y-73264342D01*
X86412856Y-73264342D02*
X86460475Y-73169104D01*
X86460475Y-73169104D02*
X86555713Y-73121485D01*
X86555713Y-73121485D02*
X86698570Y-73121485D01*
X86698570Y-73121485D02*
X86793808Y-73073866D01*
X86793808Y-73073866D02*
X86841427Y-72978628D01*
X86841427Y-72978628D02*
X86841427Y-72931009D01*
X86841427Y-72931009D02*
X86793808Y-72835771D01*
X86793808Y-72835771D02*
X86698570Y-72788152D01*
X86698570Y-72788152D02*
X86555713Y-72788152D01*
X86555713Y-72788152D02*
X86460475Y-72835771D01*
X85984284Y-73454819D02*
X85984284Y-72788152D01*
X85984284Y-72454819D02*
X86031903Y-72502438D01*
X86031903Y-72502438D02*
X85984284Y-72550057D01*
X85984284Y-72550057D02*
X85936665Y-72502438D01*
X85936665Y-72502438D02*
X85984284Y-72454819D01*
X85984284Y-72454819D02*
X85984284Y-72550057D01*
X85079523Y-73454819D02*
X85079523Y-72454819D01*
X85079523Y-73407200D02*
X85174761Y-73454819D01*
X85174761Y-73454819D02*
X85365237Y-73454819D01*
X85365237Y-73454819D02*
X85460475Y-73407200D01*
X85460475Y-73407200D02*
X85508094Y-73359580D01*
X85508094Y-73359580D02*
X85555713Y-73264342D01*
X85555713Y-73264342D02*
X85555713Y-72978628D01*
X85555713Y-72978628D02*
X85508094Y-72883390D01*
X85508094Y-72883390D02*
X85460475Y-72835771D01*
X85460475Y-72835771D02*
X85365237Y-72788152D01*
X85365237Y-72788152D02*
X85174761Y-72788152D01*
X85174761Y-72788152D02*
X85079523Y-72835771D01*
X84222380Y-73407200D02*
X84317618Y-73454819D01*
X84317618Y-73454819D02*
X84508094Y-73454819D01*
X84508094Y-73454819D02*
X84603332Y-73407200D01*
X84603332Y-73407200D02*
X84650951Y-73311961D01*
X84650951Y-73311961D02*
X84650951Y-72931009D01*
X84650951Y-72931009D02*
X84603332Y-72835771D01*
X84603332Y-72835771D02*
X84508094Y-72788152D01*
X84508094Y-72788152D02*
X84317618Y-72788152D01*
X84317618Y-72788152D02*
X84222380Y-72835771D01*
X84222380Y-72835771D02*
X84174761Y-72931009D01*
X84174761Y-72931009D02*
X84174761Y-73026247D01*
X84174761Y-73026247D02*
X84650951Y-73121485D01*
X82984284Y-73454819D02*
X82984284Y-72788152D01*
X82984284Y-72454819D02*
X83031903Y-72502438D01*
X83031903Y-72502438D02*
X82984284Y-72550057D01*
X82984284Y-72550057D02*
X82936665Y-72502438D01*
X82936665Y-72502438D02*
X82984284Y-72454819D01*
X82984284Y-72454819D02*
X82984284Y-72550057D01*
X82650951Y-72788152D02*
X82269999Y-72788152D01*
X82508094Y-73454819D02*
X82508094Y-72597676D01*
X82508094Y-72597676D02*
X82460475Y-72502438D01*
X82460475Y-72502438D02*
X82365237Y-72454819D01*
X82365237Y-72454819D02*
X82269999Y-72454819D01*
X80746189Y-73454819D02*
X80746189Y-72454819D01*
X80746189Y-73407200D02*
X80841427Y-73454819D01*
X80841427Y-73454819D02*
X81031903Y-73454819D01*
X81031903Y-73454819D02*
X81127141Y-73407200D01*
X81127141Y-73407200D02*
X81174760Y-73359580D01*
X81174760Y-73359580D02*
X81222379Y-73264342D01*
X81222379Y-73264342D02*
X81222379Y-72978628D01*
X81222379Y-72978628D02*
X81174760Y-72883390D01*
X81174760Y-72883390D02*
X81127141Y-72835771D01*
X81127141Y-72835771D02*
X81031903Y-72788152D01*
X81031903Y-72788152D02*
X80841427Y-72788152D01*
X80841427Y-72788152D02*
X80746189Y-72835771D01*
X79889046Y-73407200D02*
X79984284Y-73454819D01*
X79984284Y-73454819D02*
X80174760Y-73454819D01*
X80174760Y-73454819D02*
X80269998Y-73407200D01*
X80269998Y-73407200D02*
X80317617Y-73311961D01*
X80317617Y-73311961D02*
X80317617Y-72931009D01*
X80317617Y-72931009D02*
X80269998Y-72835771D01*
X80269998Y-72835771D02*
X80174760Y-72788152D01*
X80174760Y-72788152D02*
X79984284Y-72788152D01*
X79984284Y-72788152D02*
X79889046Y-72835771D01*
X79889046Y-72835771D02*
X79841427Y-72931009D01*
X79841427Y-72931009D02*
X79841427Y-73026247D01*
X79841427Y-73026247D02*
X80317617Y-73121485D01*
X79460474Y-73407200D02*
X79365236Y-73454819D01*
X79365236Y-73454819D02*
X79174760Y-73454819D01*
X79174760Y-73454819D02*
X79079522Y-73407200D01*
X79079522Y-73407200D02*
X79031903Y-73311961D01*
X79031903Y-73311961D02*
X79031903Y-73264342D01*
X79031903Y-73264342D02*
X79079522Y-73169104D01*
X79079522Y-73169104D02*
X79174760Y-73121485D01*
X79174760Y-73121485D02*
X79317617Y-73121485D01*
X79317617Y-73121485D02*
X79412855Y-73073866D01*
X79412855Y-73073866D02*
X79460474Y-72978628D01*
X79460474Y-72978628D02*
X79460474Y-72931009D01*
X79460474Y-72931009D02*
X79412855Y-72835771D01*
X79412855Y-72835771D02*
X79317617Y-72788152D01*
X79317617Y-72788152D02*
X79174760Y-72788152D01*
X79174760Y-72788152D02*
X79079522Y-72835771D01*
X78603331Y-73454819D02*
X78603331Y-72788152D01*
X78603331Y-72454819D02*
X78650950Y-72502438D01*
X78650950Y-72502438D02*
X78603331Y-72550057D01*
X78603331Y-72550057D02*
X78555712Y-72502438D01*
X78555712Y-72502438D02*
X78603331Y-72454819D01*
X78603331Y-72454819D02*
X78603331Y-72550057D01*
X78127141Y-73454819D02*
X78127141Y-72788152D01*
X78127141Y-72978628D02*
X78079522Y-72883390D01*
X78079522Y-72883390D02*
X78031903Y-72835771D01*
X78031903Y-72835771D02*
X77936665Y-72788152D01*
X77936665Y-72788152D02*
X77841427Y-72788152D01*
X77127141Y-73407200D02*
X77222379Y-73454819D01*
X77222379Y-73454819D02*
X77412855Y-73454819D01*
X77412855Y-73454819D02*
X77508093Y-73407200D01*
X77508093Y-73407200D02*
X77555712Y-73311961D01*
X77555712Y-73311961D02*
X77555712Y-72931009D01*
X77555712Y-72931009D02*
X77508093Y-72835771D01*
X77508093Y-72835771D02*
X77412855Y-72788152D01*
X77412855Y-72788152D02*
X77222379Y-72788152D01*
X77222379Y-72788152D02*
X77127141Y-72835771D01*
X77127141Y-72835771D02*
X77079522Y-72931009D01*
X77079522Y-72931009D02*
X77079522Y-73026247D01*
X77079522Y-73026247D02*
X77555712Y-73121485D01*
X76222379Y-73454819D02*
X76222379Y-72454819D01*
X76222379Y-73407200D02*
X76317617Y-73454819D01*
X76317617Y-73454819D02*
X76508093Y-73454819D01*
X76508093Y-73454819D02*
X76603331Y-73407200D01*
X76603331Y-73407200D02*
X76650950Y-73359580D01*
X76650950Y-73359580D02*
X76698569Y-73264342D01*
X76698569Y-73264342D02*
X76698569Y-72978628D01*
X76698569Y-72978628D02*
X76650950Y-72883390D01*
X76650950Y-72883390D02*
X76603331Y-72835771D01*
X76603331Y-72835771D02*
X76508093Y-72788152D01*
X76508093Y-72788152D02*
X76317617Y-72788152D01*
X76317617Y-72788152D02*
X76222379Y-72835771D01*
D12*
X53552782Y-56738275D02*
X53933734Y-56738275D01*
X53933734Y-56738275D02*
X53933734Y-55168275D01*
X53324211Y-56663514D02*
X53209925Y-56738275D01*
X53209925Y-56738275D02*
X53019449Y-56738275D01*
X53019449Y-56738275D02*
X52943258Y-56663514D01*
X52943258Y-56663514D02*
X52905163Y-56588752D01*
X52905163Y-56588752D02*
X52867068Y-56439228D01*
X52867068Y-56439228D02*
X52867068Y-56289704D01*
X52867068Y-56289704D02*
X52905163Y-56140180D01*
X52905163Y-56140180D02*
X52943258Y-56065418D01*
X52943258Y-56065418D02*
X53019449Y-55990656D01*
X53019449Y-55990656D02*
X53171830Y-55915894D01*
X53171830Y-55915894D02*
X53248020Y-55841133D01*
X53248020Y-55841133D02*
X53286115Y-55766371D01*
X53286115Y-55766371D02*
X53324211Y-55616847D01*
X53324211Y-55616847D02*
X53324211Y-55467323D01*
X53324211Y-55467323D02*
X53286115Y-55317799D01*
X53286115Y-55317799D02*
X53248020Y-55243037D01*
X53248020Y-55243037D02*
X53171830Y-55168275D01*
X53171830Y-55168275D02*
X52981353Y-55168275D01*
X52981353Y-55168275D02*
X52867068Y-55243037D01*
X52562306Y-56663514D02*
X52448020Y-56738275D01*
X52448020Y-56738275D02*
X52257544Y-56738275D01*
X52257544Y-56738275D02*
X52181353Y-56663514D01*
X52181353Y-56663514D02*
X52143258Y-56588752D01*
X52143258Y-56588752D02*
X52105163Y-56439228D01*
X52105163Y-56439228D02*
X52105163Y-56289704D01*
X52105163Y-56289704D02*
X52143258Y-56140180D01*
X52143258Y-56140180D02*
X52181353Y-56065418D01*
X52181353Y-56065418D02*
X52257544Y-55990656D01*
X52257544Y-55990656D02*
X52409925Y-55915894D01*
X52409925Y-55915894D02*
X52486115Y-55841133D01*
X52486115Y-55841133D02*
X52524210Y-55766371D01*
X52524210Y-55766371D02*
X52562306Y-55616847D01*
X52562306Y-55616847D02*
X52562306Y-55467323D01*
X52562306Y-55467323D02*
X52524210Y-55317799D01*
X52524210Y-55317799D02*
X52486115Y-55243037D01*
X52486115Y-55243037D02*
X52409925Y-55168275D01*
X52409925Y-55168275D02*
X52219448Y-55168275D01*
X52219448Y-55168275D02*
X52105163Y-55243037D01*
X53514687Y-57770649D02*
X53590877Y-57695887D01*
X53590877Y-57695887D02*
X53705163Y-57695887D01*
X53705163Y-57695887D02*
X53819449Y-57770649D01*
X53819449Y-57770649D02*
X53895639Y-57920173D01*
X53895639Y-57920173D02*
X53933734Y-58069697D01*
X53933734Y-58069697D02*
X53971830Y-58368745D01*
X53971830Y-58368745D02*
X53971830Y-58593030D01*
X53971830Y-58593030D02*
X53933734Y-58892078D01*
X53933734Y-58892078D02*
X53895639Y-59041602D01*
X53895639Y-59041602D02*
X53819449Y-59191126D01*
X53819449Y-59191126D02*
X53705163Y-59265887D01*
X53705163Y-59265887D02*
X53628972Y-59265887D01*
X53628972Y-59265887D02*
X53514687Y-59191126D01*
X53514687Y-59191126D02*
X53476591Y-59116364D01*
X53476591Y-59116364D02*
X53476591Y-58593030D01*
X53476591Y-58593030D02*
X53628972Y-58593030D01*
X53133734Y-59265887D02*
X53133734Y-57695887D01*
X53133734Y-58443506D02*
X52676591Y-58443506D01*
X52676591Y-59265887D02*
X52676591Y-57695887D01*
X51838496Y-59116364D02*
X51876592Y-59191126D01*
X51876592Y-59191126D02*
X51990877Y-59265887D01*
X51990877Y-59265887D02*
X52067068Y-59265887D01*
X52067068Y-59265887D02*
X52181354Y-59191126D01*
X52181354Y-59191126D02*
X52257544Y-59041602D01*
X52257544Y-59041602D02*
X52295639Y-58892078D01*
X52295639Y-58892078D02*
X52333735Y-58593030D01*
X52333735Y-58593030D02*
X52333735Y-58368745D01*
X52333735Y-58368745D02*
X52295639Y-58069697D01*
X52295639Y-58069697D02*
X52257544Y-57920173D01*
X52257544Y-57920173D02*
X52181354Y-57770649D01*
X52181354Y-57770649D02*
X52067068Y-57695887D01*
X52067068Y-57695887D02*
X51990877Y-57695887D01*
X51990877Y-57695887D02*
X51876592Y-57770649D01*
X51876592Y-57770649D02*
X51838496Y-57845411D01*
X53667068Y-60971118D02*
X53552782Y-61045880D01*
X53552782Y-61045880D02*
X53514687Y-61120642D01*
X53514687Y-61120642D02*
X53476591Y-61270166D01*
X53476591Y-61270166D02*
X53476591Y-61494452D01*
X53476591Y-61494452D02*
X53514687Y-61643976D01*
X53514687Y-61643976D02*
X53552782Y-61718738D01*
X53552782Y-61718738D02*
X53628972Y-61793499D01*
X53628972Y-61793499D02*
X53933734Y-61793499D01*
X53933734Y-61793499D02*
X53933734Y-60223499D01*
X53933734Y-60223499D02*
X53667068Y-60223499D01*
X53667068Y-60223499D02*
X53590877Y-60298261D01*
X53590877Y-60298261D02*
X53552782Y-60373023D01*
X53552782Y-60373023D02*
X53514687Y-60522547D01*
X53514687Y-60522547D02*
X53514687Y-60672071D01*
X53514687Y-60672071D02*
X53552782Y-60821595D01*
X53552782Y-60821595D02*
X53590877Y-60896357D01*
X53590877Y-60896357D02*
X53667068Y-60971118D01*
X53667068Y-60971118D02*
X53933734Y-60971118D01*
X53171830Y-61718738D02*
X53057544Y-61793499D01*
X53057544Y-61793499D02*
X52867068Y-61793499D01*
X52867068Y-61793499D02*
X52790877Y-61718738D01*
X52790877Y-61718738D02*
X52752782Y-61643976D01*
X52752782Y-61643976D02*
X52714687Y-61494452D01*
X52714687Y-61494452D02*
X52714687Y-61344928D01*
X52714687Y-61344928D02*
X52752782Y-61195404D01*
X52752782Y-61195404D02*
X52790877Y-61120642D01*
X52790877Y-61120642D02*
X52867068Y-61045880D01*
X52867068Y-61045880D02*
X53019449Y-60971118D01*
X53019449Y-60971118D02*
X53095639Y-60896357D01*
X53095639Y-60896357D02*
X53133734Y-60821595D01*
X53133734Y-60821595D02*
X53171830Y-60672071D01*
X53171830Y-60672071D02*
X53171830Y-60522547D01*
X53171830Y-60522547D02*
X53133734Y-60373023D01*
X53133734Y-60373023D02*
X53095639Y-60298261D01*
X53095639Y-60298261D02*
X53019449Y-60223499D01*
X53019449Y-60223499D02*
X52828972Y-60223499D01*
X52828972Y-60223499D02*
X52714687Y-60298261D01*
X52486115Y-60223499D02*
X52028972Y-60223499D01*
X52257544Y-61793499D02*
X52257544Y-60223499D01*
X51305162Y-61643976D02*
X51343258Y-61718738D01*
X51343258Y-61718738D02*
X51457543Y-61793499D01*
X51457543Y-61793499D02*
X51533734Y-61793499D01*
X51533734Y-61793499D02*
X51648020Y-61718738D01*
X51648020Y-61718738D02*
X51724210Y-61569214D01*
X51724210Y-61569214D02*
X51762305Y-61419690D01*
X51762305Y-61419690D02*
X51800401Y-61120642D01*
X51800401Y-61120642D02*
X51800401Y-60896357D01*
X51800401Y-60896357D02*
X51762305Y-60597309D01*
X51762305Y-60597309D02*
X51724210Y-60447785D01*
X51724210Y-60447785D02*
X51648020Y-60298261D01*
X51648020Y-60298261D02*
X51533734Y-60223499D01*
X51533734Y-60223499D02*
X51457543Y-60223499D01*
X51457543Y-60223499D02*
X51343258Y-60298261D01*
X51343258Y-60298261D02*
X51305162Y-60373023D01*
X53514687Y-62825873D02*
X53590877Y-62751111D01*
X53590877Y-62751111D02*
X53705163Y-62751111D01*
X53705163Y-62751111D02*
X53819449Y-62825873D01*
X53819449Y-62825873D02*
X53895639Y-62975397D01*
X53895639Y-62975397D02*
X53933734Y-63124921D01*
X53933734Y-63124921D02*
X53971830Y-63423969D01*
X53971830Y-63423969D02*
X53971830Y-63648254D01*
X53971830Y-63648254D02*
X53933734Y-63947302D01*
X53933734Y-63947302D02*
X53895639Y-64096826D01*
X53895639Y-64096826D02*
X53819449Y-64246350D01*
X53819449Y-64246350D02*
X53705163Y-64321111D01*
X53705163Y-64321111D02*
X53628972Y-64321111D01*
X53628972Y-64321111D02*
X53514687Y-64246350D01*
X53514687Y-64246350D02*
X53476591Y-64171588D01*
X53476591Y-64171588D02*
X53476591Y-63648254D01*
X53476591Y-63648254D02*
X53628972Y-63648254D01*
X53133734Y-64321111D02*
X53133734Y-62751111D01*
X53133734Y-63498730D02*
X52676591Y-63498730D01*
X52676591Y-64321111D02*
X52676591Y-62751111D01*
X52028973Y-63498730D02*
X51914687Y-63573492D01*
X51914687Y-63573492D02*
X51876592Y-63648254D01*
X51876592Y-63648254D02*
X51838496Y-63797778D01*
X51838496Y-63797778D02*
X51838496Y-64022064D01*
X51838496Y-64022064D02*
X51876592Y-64171588D01*
X51876592Y-64171588D02*
X51914687Y-64246350D01*
X51914687Y-64246350D02*
X51990877Y-64321111D01*
X51990877Y-64321111D02*
X52295639Y-64321111D01*
X52295639Y-64321111D02*
X52295639Y-62751111D01*
X52295639Y-62751111D02*
X52028973Y-62751111D01*
X52028973Y-62751111D02*
X51952782Y-62825873D01*
X51952782Y-62825873D02*
X51914687Y-62900635D01*
X51914687Y-62900635D02*
X51876592Y-63050159D01*
X51876592Y-63050159D02*
X51876592Y-63199683D01*
X51876592Y-63199683D02*
X51914687Y-63349207D01*
X51914687Y-63349207D02*
X51952782Y-63423969D01*
X51952782Y-63423969D02*
X52028973Y-63498730D01*
X52028973Y-63498730D02*
X52295639Y-63498730D01*
X53667068Y-66026342D02*
X53552782Y-66101104D01*
X53552782Y-66101104D02*
X53514687Y-66175866D01*
X53514687Y-66175866D02*
X53476591Y-66325390D01*
X53476591Y-66325390D02*
X53476591Y-66549676D01*
X53476591Y-66549676D02*
X53514687Y-66699200D01*
X53514687Y-66699200D02*
X53552782Y-66773962D01*
X53552782Y-66773962D02*
X53628972Y-66848723D01*
X53628972Y-66848723D02*
X53933734Y-66848723D01*
X53933734Y-66848723D02*
X53933734Y-65278723D01*
X53933734Y-65278723D02*
X53667068Y-65278723D01*
X53667068Y-65278723D02*
X53590877Y-65353485D01*
X53590877Y-65353485D02*
X53552782Y-65428247D01*
X53552782Y-65428247D02*
X53514687Y-65577771D01*
X53514687Y-65577771D02*
X53514687Y-65727295D01*
X53514687Y-65727295D02*
X53552782Y-65876819D01*
X53552782Y-65876819D02*
X53590877Y-65951581D01*
X53590877Y-65951581D02*
X53667068Y-66026342D01*
X53667068Y-66026342D02*
X53933734Y-66026342D01*
X53171830Y-66773962D02*
X53057544Y-66848723D01*
X53057544Y-66848723D02*
X52867068Y-66848723D01*
X52867068Y-66848723D02*
X52790877Y-66773962D01*
X52790877Y-66773962D02*
X52752782Y-66699200D01*
X52752782Y-66699200D02*
X52714687Y-66549676D01*
X52714687Y-66549676D02*
X52714687Y-66400152D01*
X52714687Y-66400152D02*
X52752782Y-66250628D01*
X52752782Y-66250628D02*
X52790877Y-66175866D01*
X52790877Y-66175866D02*
X52867068Y-66101104D01*
X52867068Y-66101104D02*
X53019449Y-66026342D01*
X53019449Y-66026342D02*
X53095639Y-65951581D01*
X53095639Y-65951581D02*
X53133734Y-65876819D01*
X53133734Y-65876819D02*
X53171830Y-65727295D01*
X53171830Y-65727295D02*
X53171830Y-65577771D01*
X53171830Y-65577771D02*
X53133734Y-65428247D01*
X53133734Y-65428247D02*
X53095639Y-65353485D01*
X53095639Y-65353485D02*
X53019449Y-65278723D01*
X53019449Y-65278723D02*
X52828972Y-65278723D01*
X52828972Y-65278723D02*
X52714687Y-65353485D01*
X52486115Y-65278723D02*
X52028972Y-65278723D01*
X52257544Y-66848723D02*
X52257544Y-65278723D01*
X51495639Y-66026342D02*
X51381353Y-66101104D01*
X51381353Y-66101104D02*
X51343258Y-66175866D01*
X51343258Y-66175866D02*
X51305162Y-66325390D01*
X51305162Y-66325390D02*
X51305162Y-66549676D01*
X51305162Y-66549676D02*
X51343258Y-66699200D01*
X51343258Y-66699200D02*
X51381353Y-66773962D01*
X51381353Y-66773962D02*
X51457543Y-66848723D01*
X51457543Y-66848723D02*
X51762305Y-66848723D01*
X51762305Y-66848723D02*
X51762305Y-65278723D01*
X51762305Y-65278723D02*
X51495639Y-65278723D01*
X51495639Y-65278723D02*
X51419448Y-65353485D01*
X51419448Y-65353485D02*
X51381353Y-65428247D01*
X51381353Y-65428247D02*
X51343258Y-65577771D01*
X51343258Y-65577771D02*
X51343258Y-65727295D01*
X51343258Y-65727295D02*
X51381353Y-65876819D01*
X51381353Y-65876819D02*
X51419448Y-65951581D01*
X51419448Y-65951581D02*
X51495639Y-66026342D01*
X51495639Y-66026342D02*
X51762305Y-66026342D01*
X53514687Y-67881097D02*
X53590877Y-67806335D01*
X53590877Y-67806335D02*
X53705163Y-67806335D01*
X53705163Y-67806335D02*
X53819449Y-67881097D01*
X53819449Y-67881097D02*
X53895639Y-68030621D01*
X53895639Y-68030621D02*
X53933734Y-68180145D01*
X53933734Y-68180145D02*
X53971830Y-68479193D01*
X53971830Y-68479193D02*
X53971830Y-68703478D01*
X53971830Y-68703478D02*
X53933734Y-69002526D01*
X53933734Y-69002526D02*
X53895639Y-69152050D01*
X53895639Y-69152050D02*
X53819449Y-69301574D01*
X53819449Y-69301574D02*
X53705163Y-69376335D01*
X53705163Y-69376335D02*
X53628972Y-69376335D01*
X53628972Y-69376335D02*
X53514687Y-69301574D01*
X53514687Y-69301574D02*
X53476591Y-69226812D01*
X53476591Y-69226812D02*
X53476591Y-68703478D01*
X53476591Y-68703478D02*
X53628972Y-68703478D01*
X53133734Y-69376335D02*
X53133734Y-67806335D01*
X53133734Y-68553954D02*
X52676591Y-68553954D01*
X52676591Y-69376335D02*
X52676591Y-67806335D01*
X52333735Y-68927764D02*
X51952782Y-68927764D01*
X52409925Y-69376335D02*
X52143258Y-67806335D01*
X52143258Y-67806335D02*
X51876592Y-69376335D01*
X53667068Y-71081566D02*
X53552782Y-71156328D01*
X53552782Y-71156328D02*
X53514687Y-71231090D01*
X53514687Y-71231090D02*
X53476591Y-71380614D01*
X53476591Y-71380614D02*
X53476591Y-71604900D01*
X53476591Y-71604900D02*
X53514687Y-71754424D01*
X53514687Y-71754424D02*
X53552782Y-71829186D01*
X53552782Y-71829186D02*
X53628972Y-71903947D01*
X53628972Y-71903947D02*
X53933734Y-71903947D01*
X53933734Y-71903947D02*
X53933734Y-70333947D01*
X53933734Y-70333947D02*
X53667068Y-70333947D01*
X53667068Y-70333947D02*
X53590877Y-70408709D01*
X53590877Y-70408709D02*
X53552782Y-70483471D01*
X53552782Y-70483471D02*
X53514687Y-70632995D01*
X53514687Y-70632995D02*
X53514687Y-70782519D01*
X53514687Y-70782519D02*
X53552782Y-70932043D01*
X53552782Y-70932043D02*
X53590877Y-71006805D01*
X53590877Y-71006805D02*
X53667068Y-71081566D01*
X53667068Y-71081566D02*
X53933734Y-71081566D01*
X53171830Y-71829186D02*
X53057544Y-71903947D01*
X53057544Y-71903947D02*
X52867068Y-71903947D01*
X52867068Y-71903947D02*
X52790877Y-71829186D01*
X52790877Y-71829186D02*
X52752782Y-71754424D01*
X52752782Y-71754424D02*
X52714687Y-71604900D01*
X52714687Y-71604900D02*
X52714687Y-71455376D01*
X52714687Y-71455376D02*
X52752782Y-71305852D01*
X52752782Y-71305852D02*
X52790877Y-71231090D01*
X52790877Y-71231090D02*
X52867068Y-71156328D01*
X52867068Y-71156328D02*
X53019449Y-71081566D01*
X53019449Y-71081566D02*
X53095639Y-71006805D01*
X53095639Y-71006805D02*
X53133734Y-70932043D01*
X53133734Y-70932043D02*
X53171830Y-70782519D01*
X53171830Y-70782519D02*
X53171830Y-70632995D01*
X53171830Y-70632995D02*
X53133734Y-70483471D01*
X53133734Y-70483471D02*
X53095639Y-70408709D01*
X53095639Y-70408709D02*
X53019449Y-70333947D01*
X53019449Y-70333947D02*
X52828972Y-70333947D01*
X52828972Y-70333947D02*
X52714687Y-70408709D01*
X52486115Y-70333947D02*
X52028972Y-70333947D01*
X52257544Y-71903947D02*
X52257544Y-70333947D01*
X51800401Y-71455376D02*
X51419448Y-71455376D01*
X51876591Y-71903947D02*
X51609924Y-70333947D01*
X51609924Y-70333947D02*
X51343258Y-71903947D01*
D10*
X88047143Y-65634700D02*
X86904286Y-65634700D01*
X87475714Y-66206128D02*
X87475714Y-65063271D01*
X86404285Y-64706128D02*
X85904285Y-66206128D01*
X85904285Y-66206128D02*
X85404285Y-64706128D01*
X84904286Y-66206128D02*
X84904286Y-64706128D01*
X84190000Y-66206128D02*
X84190000Y-64706128D01*
X84190000Y-64706128D02*
X83332857Y-66206128D01*
X83332857Y-66206128D02*
X83332857Y-64706128D01*
X62726133Y-66085713D02*
X62726133Y-65476190D01*
X62345180Y-65780951D02*
X63107085Y-65780951D01*
X63345180Y-64714285D02*
X63345180Y-65095237D01*
X63345180Y-65095237D02*
X62868990Y-65133333D01*
X62868990Y-65133333D02*
X62916609Y-65095237D01*
X62916609Y-65095237D02*
X62964228Y-65019047D01*
X62964228Y-65019047D02*
X62964228Y-64828571D01*
X62964228Y-64828571D02*
X62916609Y-64752380D01*
X62916609Y-64752380D02*
X62868990Y-64714285D01*
X62868990Y-64714285D02*
X62773752Y-64676190D01*
X62773752Y-64676190D02*
X62535657Y-64676190D01*
X62535657Y-64676190D02*
X62440419Y-64714285D01*
X62440419Y-64714285D02*
X62392800Y-64752380D01*
X62392800Y-64752380D02*
X62345180Y-64828571D01*
X62345180Y-64828571D02*
X62345180Y-65019047D01*
X62345180Y-65019047D02*
X62392800Y-65095237D01*
X62392800Y-65095237D02*
X62440419Y-65133333D01*
X63345180Y-64447618D02*
X62345180Y-64180951D01*
X62345180Y-64180951D02*
X63345180Y-63914285D01*
X62345180Y-63038094D02*
X63011847Y-63038094D01*
X63345180Y-63038094D02*
X63297561Y-63076190D01*
X63297561Y-63076190D02*
X63249942Y-63038094D01*
X63249942Y-63038094D02*
X63297561Y-62999999D01*
X63297561Y-62999999D02*
X63345180Y-63038094D01*
X63345180Y-63038094D02*
X63249942Y-63038094D01*
X63011847Y-62657142D02*
X62345180Y-62657142D01*
X62916609Y-62657142D02*
X62964228Y-62619047D01*
X62964228Y-62619047D02*
X63011847Y-62542857D01*
X63011847Y-62542857D02*
X63011847Y-62428571D01*
X63011847Y-62428571D02*
X62964228Y-62352380D01*
X62964228Y-62352380D02*
X62868990Y-62314285D01*
X62868990Y-62314285D02*
X62345180Y-62314285D01*
X57408095Y-44094819D02*
X57408095Y-43094819D01*
X57408095Y-43094819D02*
X57074762Y-43809104D01*
X57074762Y-43809104D02*
X56741429Y-43094819D01*
X56741429Y-43094819D02*
X56741429Y-44094819D01*
X55836667Y-44094819D02*
X55836667Y-43571009D01*
X55836667Y-43571009D02*
X55884286Y-43475771D01*
X55884286Y-43475771D02*
X55979524Y-43428152D01*
X55979524Y-43428152D02*
X56170000Y-43428152D01*
X56170000Y-43428152D02*
X56265238Y-43475771D01*
X55836667Y-44047200D02*
X55931905Y-44094819D01*
X55931905Y-44094819D02*
X56170000Y-44094819D01*
X56170000Y-44094819D02*
X56265238Y-44047200D01*
X56265238Y-44047200D02*
X56312857Y-43951961D01*
X56312857Y-43951961D02*
X56312857Y-43856723D01*
X56312857Y-43856723D02*
X56265238Y-43761485D01*
X56265238Y-43761485D02*
X56170000Y-43713866D01*
X56170000Y-43713866D02*
X55931905Y-43713866D01*
X55931905Y-43713866D02*
X55836667Y-43666247D01*
X55455714Y-44094819D02*
X54931905Y-43428152D01*
X55455714Y-43428152D02*
X54931905Y-44094819D01*
X53360476Y-44047200D02*
X53455714Y-44094819D01*
X53455714Y-44094819D02*
X53646190Y-44094819D01*
X53646190Y-44094819D02*
X53741428Y-44047200D01*
X53741428Y-44047200D02*
X53789047Y-43999580D01*
X53789047Y-43999580D02*
X53836666Y-43904342D01*
X53836666Y-43904342D02*
X53836666Y-43618628D01*
X53836666Y-43618628D02*
X53789047Y-43523390D01*
X53789047Y-43523390D02*
X53741428Y-43475771D01*
X53741428Y-43475771D02*
X53646190Y-43428152D01*
X53646190Y-43428152D02*
X53455714Y-43428152D01*
X53455714Y-43428152D02*
X53360476Y-43475771D01*
X52503333Y-43428152D02*
X52503333Y-44094819D01*
X52931904Y-43428152D02*
X52931904Y-43951961D01*
X52931904Y-43951961D02*
X52884285Y-44047200D01*
X52884285Y-44047200D02*
X52789047Y-44094819D01*
X52789047Y-44094819D02*
X52646190Y-44094819D01*
X52646190Y-44094819D02*
X52550952Y-44047200D01*
X52550952Y-44047200D02*
X52503333Y-43999580D01*
X52027142Y-44094819D02*
X52027142Y-43428152D01*
X52027142Y-43618628D02*
X51979523Y-43523390D01*
X51979523Y-43523390D02*
X51931904Y-43475771D01*
X51931904Y-43475771D02*
X51836666Y-43428152D01*
X51836666Y-43428152D02*
X51741428Y-43428152D01*
X51408094Y-44094819D02*
X51408094Y-43428152D01*
X51408094Y-43618628D02*
X51360475Y-43523390D01*
X51360475Y-43523390D02*
X51312856Y-43475771D01*
X51312856Y-43475771D02*
X51217618Y-43428152D01*
X51217618Y-43428152D02*
X51122380Y-43428152D01*
X50408094Y-44047200D02*
X50503332Y-44094819D01*
X50503332Y-44094819D02*
X50693808Y-44094819D01*
X50693808Y-44094819D02*
X50789046Y-44047200D01*
X50789046Y-44047200D02*
X50836665Y-43951961D01*
X50836665Y-43951961D02*
X50836665Y-43571009D01*
X50836665Y-43571009D02*
X50789046Y-43475771D01*
X50789046Y-43475771D02*
X50693808Y-43428152D01*
X50693808Y-43428152D02*
X50503332Y-43428152D01*
X50503332Y-43428152D02*
X50408094Y-43475771D01*
X50408094Y-43475771D02*
X50360475Y-43571009D01*
X50360475Y-43571009D02*
X50360475Y-43666247D01*
X50360475Y-43666247D02*
X50836665Y-43761485D01*
X49931903Y-43428152D02*
X49931903Y-44094819D01*
X49931903Y-43523390D02*
X49884284Y-43475771D01*
X49884284Y-43475771D02*
X49789046Y-43428152D01*
X49789046Y-43428152D02*
X49646189Y-43428152D01*
X49646189Y-43428152D02*
X49550951Y-43475771D01*
X49550951Y-43475771D02*
X49503332Y-43571009D01*
X49503332Y-43571009D02*
X49503332Y-44094819D01*
X49169998Y-43428152D02*
X48789046Y-43428152D01*
X49027141Y-43094819D02*
X49027141Y-43951961D01*
X49027141Y-43951961D02*
X48979522Y-44047200D01*
X48979522Y-44047200D02*
X48884284Y-44094819D01*
X48884284Y-44094819D02*
X48789046Y-44094819D01*
X107169045Y-53819725D02*
X107602379Y-53819725D01*
X107602379Y-54500677D02*
X107602379Y-53200677D01*
X107602379Y-53200677D02*
X106983331Y-53200677D01*
X106488093Y-53819725D02*
X106054759Y-53819725D01*
X105869045Y-54500677D02*
X106488093Y-54500677D01*
X106488093Y-54500677D02*
X106488093Y-53200677D01*
X106488093Y-53200677D02*
X105869045Y-53200677D01*
X105497617Y-53200677D02*
X104754760Y-53200677D01*
X105126188Y-54500677D02*
X105126188Y-53200677D01*
X104383331Y-54438773D02*
X104197617Y-54500677D01*
X104197617Y-54500677D02*
X103888093Y-54500677D01*
X103888093Y-54500677D02*
X103764284Y-54438773D01*
X103764284Y-54438773D02*
X103702379Y-54376868D01*
X103702379Y-54376868D02*
X103640474Y-54253058D01*
X103640474Y-54253058D02*
X103640474Y-54129249D01*
X103640474Y-54129249D02*
X103702379Y-54005439D01*
X103702379Y-54005439D02*
X103764284Y-53943534D01*
X103764284Y-53943534D02*
X103888093Y-53881630D01*
X103888093Y-53881630D02*
X104135712Y-53819725D01*
X104135712Y-53819725D02*
X104259522Y-53757820D01*
X104259522Y-53757820D02*
X104321427Y-53695915D01*
X104321427Y-53695915D02*
X104383331Y-53572106D01*
X104383331Y-53572106D02*
X104383331Y-53448296D01*
X104383331Y-53448296D02*
X104321427Y-53324487D01*
X104321427Y-53324487D02*
X104259522Y-53262582D01*
X104259522Y-53262582D02*
X104135712Y-53200677D01*
X104135712Y-53200677D02*
X103826189Y-53200677D01*
X103826189Y-53200677D02*
X103640474Y-53262582D01*
X101535713Y-54500677D02*
X101535713Y-53819725D01*
X101535713Y-53819725D02*
X101597618Y-53695915D01*
X101597618Y-53695915D02*
X101721427Y-53634011D01*
X101721427Y-53634011D02*
X101969046Y-53634011D01*
X101969046Y-53634011D02*
X102092856Y-53695915D01*
X101535713Y-54438773D02*
X101659522Y-54500677D01*
X101659522Y-54500677D02*
X101969046Y-54500677D01*
X101969046Y-54500677D02*
X102092856Y-54438773D01*
X102092856Y-54438773D02*
X102154760Y-54314963D01*
X102154760Y-54314963D02*
X102154760Y-54191153D01*
X102154760Y-54191153D02*
X102092856Y-54067344D01*
X102092856Y-54067344D02*
X101969046Y-54005439D01*
X101969046Y-54005439D02*
X101659522Y-54005439D01*
X101659522Y-54005439D02*
X101535713Y-53943534D01*
X100916666Y-54500677D02*
X100916666Y-53634011D01*
X100916666Y-53881630D02*
X100854761Y-53757820D01*
X100854761Y-53757820D02*
X100792856Y-53695915D01*
X100792856Y-53695915D02*
X100669047Y-53634011D01*
X100669047Y-53634011D02*
X100545237Y-53634011D01*
X99616666Y-54438773D02*
X99740475Y-54500677D01*
X99740475Y-54500677D02*
X99988094Y-54500677D01*
X99988094Y-54500677D02*
X100111904Y-54438773D01*
X100111904Y-54438773D02*
X100173808Y-54314963D01*
X100173808Y-54314963D02*
X100173808Y-53819725D01*
X100173808Y-53819725D02*
X100111904Y-53695915D01*
X100111904Y-53695915D02*
X99988094Y-53634011D01*
X99988094Y-53634011D02*
X99740475Y-53634011D01*
X99740475Y-53634011D02*
X99616666Y-53695915D01*
X99616666Y-53695915D02*
X99554761Y-53819725D01*
X99554761Y-53819725D02*
X99554761Y-53943534D01*
X99554761Y-53943534D02*
X100173808Y-54067344D01*
X98007142Y-54500677D02*
X98007142Y-53634011D01*
X98007142Y-53881630D02*
X97945237Y-53757820D01*
X97945237Y-53757820D02*
X97883332Y-53695915D01*
X97883332Y-53695915D02*
X97759523Y-53634011D01*
X97759523Y-53634011D02*
X97635713Y-53634011D01*
X96645237Y-54500677D02*
X96645237Y-53819725D01*
X96645237Y-53819725D02*
X96707142Y-53695915D01*
X96707142Y-53695915D02*
X96830951Y-53634011D01*
X96830951Y-53634011D02*
X97078570Y-53634011D01*
X97078570Y-53634011D02*
X97202380Y-53695915D01*
X96645237Y-54438773D02*
X96769046Y-54500677D01*
X96769046Y-54500677D02*
X97078570Y-54500677D01*
X97078570Y-54500677D02*
X97202380Y-54438773D01*
X97202380Y-54438773D02*
X97264284Y-54314963D01*
X97264284Y-54314963D02*
X97264284Y-54191153D01*
X97264284Y-54191153D02*
X97202380Y-54067344D01*
X97202380Y-54067344D02*
X97078570Y-54005439D01*
X97078570Y-54005439D02*
X96769046Y-54005439D01*
X96769046Y-54005439D02*
X96645237Y-53943534D01*
X96211904Y-53634011D02*
X95716666Y-53634011D01*
X96026190Y-53200677D02*
X96026190Y-54314963D01*
X96026190Y-54314963D02*
X95964285Y-54438773D01*
X95964285Y-54438773D02*
X95840475Y-54500677D01*
X95840475Y-54500677D02*
X95716666Y-54500677D01*
X94788095Y-54438773D02*
X94911904Y-54500677D01*
X94911904Y-54500677D02*
X95159523Y-54500677D01*
X95159523Y-54500677D02*
X95283333Y-54438773D01*
X95283333Y-54438773D02*
X95345237Y-54314963D01*
X95345237Y-54314963D02*
X95345237Y-53819725D01*
X95345237Y-53819725D02*
X95283333Y-53695915D01*
X95283333Y-53695915D02*
X95159523Y-53634011D01*
X95159523Y-53634011D02*
X94911904Y-53634011D01*
X94911904Y-53634011D02*
X94788095Y-53695915D01*
X94788095Y-53695915D02*
X94726190Y-53819725D01*
X94726190Y-53819725D02*
X94726190Y-53943534D01*
X94726190Y-53943534D02*
X95345237Y-54067344D01*
X93611904Y-54500677D02*
X93611904Y-53200677D01*
X93611904Y-54438773D02*
X93735713Y-54500677D01*
X93735713Y-54500677D02*
X93983332Y-54500677D01*
X93983332Y-54500677D02*
X94107142Y-54438773D01*
X94107142Y-54438773D02*
X94169047Y-54376868D01*
X94169047Y-54376868D02*
X94230951Y-54253058D01*
X94230951Y-54253058D02*
X94230951Y-53881630D01*
X94230951Y-53881630D02*
X94169047Y-53757820D01*
X94169047Y-53757820D02*
X94107142Y-53695915D01*
X94107142Y-53695915D02*
X93983332Y-53634011D01*
X93983332Y-53634011D02*
X93735713Y-53634011D01*
X93735713Y-53634011D02*
X93611904Y-53695915D01*
X92126190Y-53200677D02*
X91321428Y-53200677D01*
X91321428Y-53200677D02*
X91754762Y-53695915D01*
X91754762Y-53695915D02*
X91569047Y-53695915D01*
X91569047Y-53695915D02*
X91445238Y-53757820D01*
X91445238Y-53757820D02*
X91383333Y-53819725D01*
X91383333Y-53819725D02*
X91321428Y-53943534D01*
X91321428Y-53943534D02*
X91321428Y-54253058D01*
X91321428Y-54253058D02*
X91383333Y-54376868D01*
X91383333Y-54376868D02*
X91445238Y-54438773D01*
X91445238Y-54438773D02*
X91569047Y-54500677D01*
X91569047Y-54500677D02*
X91940476Y-54500677D01*
X91940476Y-54500677D02*
X92064285Y-54438773D01*
X92064285Y-54438773D02*
X92126190Y-54376868D01*
X90145238Y-53200677D02*
X90764286Y-53200677D01*
X90764286Y-53200677D02*
X90826190Y-53819725D01*
X90826190Y-53819725D02*
X90764286Y-53757820D01*
X90764286Y-53757820D02*
X90640476Y-53695915D01*
X90640476Y-53695915D02*
X90330952Y-53695915D01*
X90330952Y-53695915D02*
X90207143Y-53757820D01*
X90207143Y-53757820D02*
X90145238Y-53819725D01*
X90145238Y-53819725D02*
X90083333Y-53943534D01*
X90083333Y-53943534D02*
X90083333Y-54253058D01*
X90083333Y-54253058D02*
X90145238Y-54376868D01*
X90145238Y-54376868D02*
X90207143Y-54438773D01*
X90207143Y-54438773D02*
X90330952Y-54500677D01*
X90330952Y-54500677D02*
X90640476Y-54500677D01*
X90640476Y-54500677D02*
X90764286Y-54438773D01*
X90764286Y-54438773D02*
X90826190Y-54376868D01*
X89588095Y-54129249D02*
X88969048Y-54129249D01*
X89711905Y-54500677D02*
X89278572Y-53200677D01*
X89278572Y-53200677D02*
X88845238Y-54500677D01*
X88350000Y-54438773D02*
X88350000Y-54500677D01*
X88350000Y-54500677D02*
X88411905Y-54624487D01*
X88411905Y-54624487D02*
X88473809Y-54686392D01*
X86802381Y-54500677D02*
X86802381Y-53200677D01*
X86802381Y-53695915D02*
X86678571Y-53634011D01*
X86678571Y-53634011D02*
X86430952Y-53634011D01*
X86430952Y-53634011D02*
X86307143Y-53695915D01*
X86307143Y-53695915D02*
X86245238Y-53757820D01*
X86245238Y-53757820D02*
X86183333Y-53881630D01*
X86183333Y-53881630D02*
X86183333Y-54253058D01*
X86183333Y-54253058D02*
X86245238Y-54376868D01*
X86245238Y-54376868D02*
X86307143Y-54438773D01*
X86307143Y-54438773D02*
X86430952Y-54500677D01*
X86430952Y-54500677D02*
X86678571Y-54500677D01*
X86678571Y-54500677D02*
X86802381Y-54438773D01*
X85069048Y-53634011D02*
X85069048Y-54500677D01*
X85626191Y-53634011D02*
X85626191Y-54314963D01*
X85626191Y-54314963D02*
X85564286Y-54438773D01*
X85564286Y-54438773D02*
X85440476Y-54500677D01*
X85440476Y-54500677D02*
X85254762Y-54500677D01*
X85254762Y-54500677D02*
X85130953Y-54438773D01*
X85130953Y-54438773D02*
X85069048Y-54376868D01*
X84635715Y-53634011D02*
X84140477Y-53634011D01*
X84450001Y-53200677D02*
X84450001Y-54314963D01*
X84450001Y-54314963D02*
X84388096Y-54438773D01*
X84388096Y-54438773D02*
X84264286Y-54500677D01*
X84264286Y-54500677D02*
X84140477Y-54500677D01*
X82902382Y-53634011D02*
X82407144Y-53634011D01*
X82716668Y-53200677D02*
X82716668Y-54314963D01*
X82716668Y-54314963D02*
X82654763Y-54438773D01*
X82654763Y-54438773D02*
X82530953Y-54500677D01*
X82530953Y-54500677D02*
X82407144Y-54500677D01*
X81973811Y-54500677D02*
X81973811Y-53200677D01*
X81416668Y-54500677D02*
X81416668Y-53819725D01*
X81416668Y-53819725D02*
X81478573Y-53695915D01*
X81478573Y-53695915D02*
X81602382Y-53634011D01*
X81602382Y-53634011D02*
X81788096Y-53634011D01*
X81788096Y-53634011D02*
X81911906Y-53695915D01*
X81911906Y-53695915D02*
X81973811Y-53757820D01*
X80302383Y-54438773D02*
X80426192Y-54500677D01*
X80426192Y-54500677D02*
X80673811Y-54500677D01*
X80673811Y-54500677D02*
X80797621Y-54438773D01*
X80797621Y-54438773D02*
X80859525Y-54314963D01*
X80859525Y-54314963D02*
X80859525Y-53819725D01*
X80859525Y-53819725D02*
X80797621Y-53695915D01*
X80797621Y-53695915D02*
X80673811Y-53634011D01*
X80673811Y-53634011D02*
X80426192Y-53634011D01*
X80426192Y-53634011D02*
X80302383Y-53695915D01*
X80302383Y-53695915D02*
X80240478Y-53819725D01*
X80240478Y-53819725D02*
X80240478Y-53943534D01*
X80240478Y-53943534D02*
X80859525Y-54067344D01*
X78692859Y-54500677D02*
X78692859Y-53634011D01*
X78692859Y-53881630D02*
X78630954Y-53757820D01*
X78630954Y-53757820D02*
X78569049Y-53695915D01*
X78569049Y-53695915D02*
X78445240Y-53634011D01*
X78445240Y-53634011D02*
X78321430Y-53634011D01*
X77392859Y-54438773D02*
X77516668Y-54500677D01*
X77516668Y-54500677D02*
X77764287Y-54500677D01*
X77764287Y-54500677D02*
X77888097Y-54438773D01*
X77888097Y-54438773D02*
X77950001Y-54314963D01*
X77950001Y-54314963D02*
X77950001Y-53819725D01*
X77950001Y-53819725D02*
X77888097Y-53695915D01*
X77888097Y-53695915D02*
X77764287Y-53634011D01*
X77764287Y-53634011D02*
X77516668Y-53634011D01*
X77516668Y-53634011D02*
X77392859Y-53695915D01*
X77392859Y-53695915D02*
X77330954Y-53819725D01*
X77330954Y-53819725D02*
X77330954Y-53943534D01*
X77330954Y-53943534D02*
X77950001Y-54067344D01*
X76835715Y-54438773D02*
X76711906Y-54500677D01*
X76711906Y-54500677D02*
X76464287Y-54500677D01*
X76464287Y-54500677D02*
X76340477Y-54438773D01*
X76340477Y-54438773D02*
X76278573Y-54314963D01*
X76278573Y-54314963D02*
X76278573Y-54253058D01*
X76278573Y-54253058D02*
X76340477Y-54129249D01*
X76340477Y-54129249D02*
X76464287Y-54067344D01*
X76464287Y-54067344D02*
X76650001Y-54067344D01*
X76650001Y-54067344D02*
X76773811Y-54005439D01*
X76773811Y-54005439D02*
X76835715Y-53881630D01*
X76835715Y-53881630D02*
X76835715Y-53819725D01*
X76835715Y-53819725D02*
X76773811Y-53695915D01*
X76773811Y-53695915D02*
X76650001Y-53634011D01*
X76650001Y-53634011D02*
X76464287Y-53634011D01*
X76464287Y-53634011D02*
X76340477Y-53695915D01*
X75907144Y-53634011D02*
X75411906Y-53634011D01*
X75721430Y-53200677D02*
X75721430Y-54314963D01*
X75721430Y-54314963D02*
X75659525Y-54438773D01*
X75659525Y-54438773D02*
X75535715Y-54500677D01*
X75535715Y-54500677D02*
X75411906Y-54500677D01*
X99523809Y-56593604D02*
X99523809Y-55726938D01*
X99523809Y-55293604D02*
X99585713Y-55355509D01*
X99585713Y-55355509D02*
X99523809Y-55417414D01*
X99523809Y-55417414D02*
X99461904Y-55355509D01*
X99461904Y-55355509D02*
X99523809Y-55293604D01*
X99523809Y-55293604D02*
X99523809Y-55417414D01*
X98966665Y-56531700D02*
X98842856Y-56593604D01*
X98842856Y-56593604D02*
X98595237Y-56593604D01*
X98595237Y-56593604D02*
X98471427Y-56531700D01*
X98471427Y-56531700D02*
X98409523Y-56407890D01*
X98409523Y-56407890D02*
X98409523Y-56345985D01*
X98409523Y-56345985D02*
X98471427Y-56222176D01*
X98471427Y-56222176D02*
X98595237Y-56160271D01*
X98595237Y-56160271D02*
X98780951Y-56160271D01*
X98780951Y-56160271D02*
X98904761Y-56098366D01*
X98904761Y-56098366D02*
X98966665Y-55974557D01*
X98966665Y-55974557D02*
X98966665Y-55912652D01*
X98966665Y-55912652D02*
X98904761Y-55788842D01*
X98904761Y-55788842D02*
X98780951Y-55726938D01*
X98780951Y-55726938D02*
X98595237Y-55726938D01*
X98595237Y-55726938D02*
X98471427Y-55788842D01*
X96985713Y-55726938D02*
X96738094Y-56593604D01*
X96738094Y-56593604D02*
X96490475Y-55974557D01*
X96490475Y-55974557D02*
X96242856Y-56593604D01*
X96242856Y-56593604D02*
X95995237Y-55726938D01*
X95004761Y-56531700D02*
X95128570Y-56593604D01*
X95128570Y-56593604D02*
X95376189Y-56593604D01*
X95376189Y-56593604D02*
X95499999Y-56531700D01*
X95499999Y-56531700D02*
X95561903Y-56407890D01*
X95561903Y-56407890D02*
X95561903Y-55912652D01*
X95561903Y-55912652D02*
X95499999Y-55788842D01*
X95499999Y-55788842D02*
X95376189Y-55726938D01*
X95376189Y-55726938D02*
X95128570Y-55726938D01*
X95128570Y-55726938D02*
X95004761Y-55788842D01*
X95004761Y-55788842D02*
X94942856Y-55912652D01*
X94942856Y-55912652D02*
X94942856Y-56036461D01*
X94942856Y-56036461D02*
X95561903Y-56160271D01*
X94199998Y-56593604D02*
X94323808Y-56531700D01*
X94323808Y-56531700D02*
X94385713Y-56407890D01*
X94385713Y-56407890D02*
X94385713Y-55293604D01*
X93519046Y-56593604D02*
X93642856Y-56531700D01*
X93642856Y-56531700D02*
X93704761Y-56407890D01*
X93704761Y-56407890D02*
X93704761Y-55293604D01*
X92033333Y-56593604D02*
X92033333Y-55293604D01*
X92033333Y-55788842D02*
X91909523Y-55726938D01*
X91909523Y-55726938D02*
X91661904Y-55726938D01*
X91661904Y-55726938D02*
X91538095Y-55788842D01*
X91538095Y-55788842D02*
X91476190Y-55850747D01*
X91476190Y-55850747D02*
X91414285Y-55974557D01*
X91414285Y-55974557D02*
X91414285Y-56345985D01*
X91414285Y-56345985D02*
X91476190Y-56469795D01*
X91476190Y-56469795D02*
X91538095Y-56531700D01*
X91538095Y-56531700D02*
X91661904Y-56593604D01*
X91661904Y-56593604D02*
X91909523Y-56593604D01*
X91909523Y-56593604D02*
X92033333Y-56531700D01*
X90361905Y-56531700D02*
X90485714Y-56593604D01*
X90485714Y-56593604D02*
X90733333Y-56593604D01*
X90733333Y-56593604D02*
X90857143Y-56531700D01*
X90857143Y-56531700D02*
X90919047Y-56407890D01*
X90919047Y-56407890D02*
X90919047Y-55912652D01*
X90919047Y-55912652D02*
X90857143Y-55788842D01*
X90857143Y-55788842D02*
X90733333Y-55726938D01*
X90733333Y-55726938D02*
X90485714Y-55726938D01*
X90485714Y-55726938D02*
X90361905Y-55788842D01*
X90361905Y-55788842D02*
X90300000Y-55912652D01*
X90300000Y-55912652D02*
X90300000Y-56036461D01*
X90300000Y-56036461D02*
X90919047Y-56160271D01*
X89557142Y-56593604D02*
X89680952Y-56531700D01*
X89680952Y-56531700D02*
X89742857Y-56407890D01*
X89742857Y-56407890D02*
X89742857Y-55293604D01*
X88876190Y-56593604D02*
X89000000Y-56531700D01*
X89000000Y-56531700D02*
X89061905Y-56469795D01*
X89061905Y-56469795D02*
X89123809Y-56345985D01*
X89123809Y-56345985D02*
X89123809Y-55974557D01*
X89123809Y-55974557D02*
X89061905Y-55850747D01*
X89061905Y-55850747D02*
X89000000Y-55788842D01*
X89000000Y-55788842D02*
X88876190Y-55726938D01*
X88876190Y-55726938D02*
X88690476Y-55726938D01*
X88690476Y-55726938D02*
X88566667Y-55788842D01*
X88566667Y-55788842D02*
X88504762Y-55850747D01*
X88504762Y-55850747D02*
X88442857Y-55974557D01*
X88442857Y-55974557D02*
X88442857Y-56345985D01*
X88442857Y-56345985D02*
X88504762Y-56469795D01*
X88504762Y-56469795D02*
X88566667Y-56531700D01*
X88566667Y-56531700D02*
X88690476Y-56593604D01*
X88690476Y-56593604D02*
X88876190Y-56593604D01*
X88009524Y-55726938D02*
X87761905Y-56593604D01*
X87761905Y-56593604D02*
X87514286Y-55974557D01*
X87514286Y-55974557D02*
X87266667Y-56593604D01*
X87266667Y-56593604D02*
X87019048Y-55726938D01*
X85471429Y-56531700D02*
X85471429Y-56593604D01*
X85471429Y-56593604D02*
X85533334Y-56717414D01*
X85533334Y-56717414D02*
X85595238Y-56779319D01*
X85533334Y-55788842D02*
X85471429Y-55850747D01*
X85471429Y-55850747D02*
X85533334Y-55912652D01*
X85533334Y-55912652D02*
X85595238Y-55850747D01*
X85595238Y-55850747D02*
X85533334Y-55788842D01*
X85533334Y-55788842D02*
X85533334Y-55912652D01*
X85038095Y-57088842D02*
X84976190Y-57026938D01*
X84976190Y-57026938D02*
X84852381Y-56841223D01*
X84852381Y-56841223D02*
X84790476Y-56717414D01*
X84790476Y-56717414D02*
X84728571Y-56531700D01*
X84728571Y-56531700D02*
X84666667Y-56222176D01*
X84666667Y-56222176D02*
X84666667Y-55974557D01*
X84666667Y-55974557D02*
X84728571Y-55665033D01*
X84728571Y-55665033D02*
X84790476Y-55479319D01*
X84790476Y-55479319D02*
X84852381Y-55355509D01*
X84852381Y-55355509D02*
X84976190Y-55169795D01*
X84976190Y-55169795D02*
X85038095Y-55107890D01*
X109180951Y-59181769D02*
X109242856Y-59119865D01*
X109242856Y-59119865D02*
X109366665Y-58934150D01*
X109366665Y-58934150D02*
X109428570Y-58810341D01*
X109428570Y-58810341D02*
X109490475Y-58624627D01*
X109490475Y-58624627D02*
X109552380Y-58315103D01*
X109552380Y-58315103D02*
X109552380Y-58067484D01*
X109552380Y-58067484D02*
X109490475Y-57757960D01*
X109490475Y-57757960D02*
X109428570Y-57572246D01*
X109428570Y-57572246D02*
X109366665Y-57448436D01*
X109366665Y-57448436D02*
X109242856Y-57262722D01*
X109242856Y-57262722D02*
X109180951Y-57200817D01*
X108128570Y-58624627D02*
X108252379Y-58686531D01*
X108252379Y-58686531D02*
X108499998Y-58686531D01*
X108499998Y-58686531D02*
X108623808Y-58624627D01*
X108623808Y-58624627D02*
X108685713Y-58562722D01*
X108685713Y-58562722D02*
X108747617Y-58438912D01*
X108747617Y-58438912D02*
X108747617Y-58067484D01*
X108747617Y-58067484D02*
X108685713Y-57943674D01*
X108685713Y-57943674D02*
X108623808Y-57881769D01*
X108623808Y-57881769D02*
X108499998Y-57819865D01*
X108499998Y-57819865D02*
X108252379Y-57819865D01*
X108252379Y-57819865D02*
X108128570Y-57881769D01*
X107385712Y-58686531D02*
X107509522Y-58624627D01*
X107509522Y-58624627D02*
X107571427Y-58562722D01*
X107571427Y-58562722D02*
X107633331Y-58438912D01*
X107633331Y-58438912D02*
X107633331Y-58067484D01*
X107633331Y-58067484D02*
X107571427Y-57943674D01*
X107571427Y-57943674D02*
X107509522Y-57881769D01*
X107509522Y-57881769D02*
X107385712Y-57819865D01*
X107385712Y-57819865D02*
X107199998Y-57819865D01*
X107199998Y-57819865D02*
X107076189Y-57881769D01*
X107076189Y-57881769D02*
X107014284Y-57943674D01*
X107014284Y-57943674D02*
X106952379Y-58067484D01*
X106952379Y-58067484D02*
X106952379Y-58438912D01*
X106952379Y-58438912D02*
X107014284Y-58562722D01*
X107014284Y-58562722D02*
X107076189Y-58624627D01*
X107076189Y-58624627D02*
X107199998Y-58686531D01*
X107199998Y-58686531D02*
X107385712Y-58686531D01*
X106209522Y-58686531D02*
X106333332Y-58624627D01*
X106333332Y-58624627D02*
X106395237Y-58562722D01*
X106395237Y-58562722D02*
X106457141Y-58438912D01*
X106457141Y-58438912D02*
X106457141Y-58067484D01*
X106457141Y-58067484D02*
X106395237Y-57943674D01*
X106395237Y-57943674D02*
X106333332Y-57881769D01*
X106333332Y-57881769D02*
X106209522Y-57819865D01*
X106209522Y-57819865D02*
X106023808Y-57819865D01*
X106023808Y-57819865D02*
X105899999Y-57881769D01*
X105899999Y-57881769D02*
X105838094Y-57943674D01*
X105838094Y-57943674D02*
X105776189Y-58067484D01*
X105776189Y-58067484D02*
X105776189Y-58438912D01*
X105776189Y-58438912D02*
X105838094Y-58562722D01*
X105838094Y-58562722D02*
X105899999Y-58624627D01*
X105899999Y-58624627D02*
X106023808Y-58686531D01*
X106023808Y-58686531D02*
X106209522Y-58686531D01*
X105033332Y-58686531D02*
X105157142Y-58624627D01*
X105157142Y-58624627D02*
X105219047Y-58500817D01*
X105219047Y-58500817D02*
X105219047Y-57386531D01*
X104538095Y-58686531D02*
X104538095Y-57819865D01*
X104538095Y-57386531D02*
X104599999Y-57448436D01*
X104599999Y-57448436D02*
X104538095Y-57510341D01*
X104538095Y-57510341D02*
X104476190Y-57448436D01*
X104476190Y-57448436D02*
X104538095Y-57386531D01*
X104538095Y-57386531D02*
X104538095Y-57510341D01*
X103919047Y-57819865D02*
X103919047Y-58686531D01*
X103919047Y-57943674D02*
X103857142Y-57881769D01*
X103857142Y-57881769D02*
X103733332Y-57819865D01*
X103733332Y-57819865D02*
X103547618Y-57819865D01*
X103547618Y-57819865D02*
X103423809Y-57881769D01*
X103423809Y-57881769D02*
X103361904Y-58005579D01*
X103361904Y-58005579D02*
X103361904Y-58686531D01*
X102185714Y-57819865D02*
X102185714Y-58872246D01*
X102185714Y-58872246D02*
X102247619Y-58996055D01*
X102247619Y-58996055D02*
X102309523Y-59057960D01*
X102309523Y-59057960D02*
X102433333Y-59119865D01*
X102433333Y-59119865D02*
X102619047Y-59119865D01*
X102619047Y-59119865D02*
X102742857Y-59057960D01*
X102185714Y-58624627D02*
X102309523Y-58686531D01*
X102309523Y-58686531D02*
X102557142Y-58686531D01*
X102557142Y-58686531D02*
X102680952Y-58624627D01*
X102680952Y-58624627D02*
X102742857Y-58562722D01*
X102742857Y-58562722D02*
X102804761Y-58438912D01*
X102804761Y-58438912D02*
X102804761Y-58067484D01*
X102804761Y-58067484D02*
X102742857Y-57943674D01*
X102742857Y-57943674D02*
X102680952Y-57881769D01*
X102680952Y-57881769D02*
X102557142Y-57819865D01*
X102557142Y-57819865D02*
X102309523Y-57819865D01*
X102309523Y-57819865D02*
X102185714Y-57881769D01*
X101504762Y-58624627D02*
X101504762Y-58686531D01*
X101504762Y-58686531D02*
X101566667Y-58810341D01*
X101566667Y-58810341D02*
X101628571Y-58872246D01*
X100142857Y-57819865D02*
X99647619Y-57819865D01*
X99957143Y-57386531D02*
X99957143Y-58500817D01*
X99957143Y-58500817D02*
X99895238Y-58624627D01*
X99895238Y-58624627D02*
X99771428Y-58686531D01*
X99771428Y-58686531D02*
X99647619Y-58686531D01*
X99214286Y-58686531D02*
X99214286Y-57819865D01*
X99214286Y-58067484D02*
X99152381Y-57943674D01*
X99152381Y-57943674D02*
X99090476Y-57881769D01*
X99090476Y-57881769D02*
X98966667Y-57819865D01*
X98966667Y-57819865D02*
X98842857Y-57819865D01*
X97852381Y-58686531D02*
X97852381Y-58005579D01*
X97852381Y-58005579D02*
X97914286Y-57881769D01*
X97914286Y-57881769D02*
X98038095Y-57819865D01*
X98038095Y-57819865D02*
X98285714Y-57819865D01*
X98285714Y-57819865D02*
X98409524Y-57881769D01*
X97852381Y-58624627D02*
X97976190Y-58686531D01*
X97976190Y-58686531D02*
X98285714Y-58686531D01*
X98285714Y-58686531D02*
X98409524Y-58624627D01*
X98409524Y-58624627D02*
X98471428Y-58500817D01*
X98471428Y-58500817D02*
X98471428Y-58377007D01*
X98471428Y-58377007D02*
X98409524Y-58253198D01*
X98409524Y-58253198D02*
X98285714Y-58191293D01*
X98285714Y-58191293D02*
X97976190Y-58191293D01*
X97976190Y-58191293D02*
X97852381Y-58129388D01*
X96676191Y-58624627D02*
X96800000Y-58686531D01*
X96800000Y-58686531D02*
X97047619Y-58686531D01*
X97047619Y-58686531D02*
X97171429Y-58624627D01*
X97171429Y-58624627D02*
X97233334Y-58562722D01*
X97233334Y-58562722D02*
X97295238Y-58438912D01*
X97295238Y-58438912D02*
X97295238Y-58067484D01*
X97295238Y-58067484D02*
X97233334Y-57943674D01*
X97233334Y-57943674D02*
X97171429Y-57881769D01*
X97171429Y-57881769D02*
X97047619Y-57819865D01*
X97047619Y-57819865D02*
X96800000Y-57819865D01*
X96800000Y-57819865D02*
X96676191Y-57881769D01*
X95623810Y-58624627D02*
X95747619Y-58686531D01*
X95747619Y-58686531D02*
X95995238Y-58686531D01*
X95995238Y-58686531D02*
X96119048Y-58624627D01*
X96119048Y-58624627D02*
X96180952Y-58500817D01*
X96180952Y-58500817D02*
X96180952Y-58005579D01*
X96180952Y-58005579D02*
X96119048Y-57881769D01*
X96119048Y-57881769D02*
X95995238Y-57819865D01*
X95995238Y-57819865D02*
X95747619Y-57819865D01*
X95747619Y-57819865D02*
X95623810Y-57881769D01*
X95623810Y-57881769D02*
X95561905Y-58005579D01*
X95561905Y-58005579D02*
X95561905Y-58129388D01*
X95561905Y-58129388D02*
X96180952Y-58253198D01*
X94200000Y-57819865D02*
X93704762Y-57819865D01*
X94014286Y-57386531D02*
X94014286Y-58500817D01*
X94014286Y-58500817D02*
X93952381Y-58624627D01*
X93952381Y-58624627D02*
X93828571Y-58686531D01*
X93828571Y-58686531D02*
X93704762Y-58686531D01*
X93271429Y-58686531D02*
X93271429Y-57386531D01*
X92714286Y-58686531D02*
X92714286Y-58005579D01*
X92714286Y-58005579D02*
X92776191Y-57881769D01*
X92776191Y-57881769D02*
X92900000Y-57819865D01*
X92900000Y-57819865D02*
X93085714Y-57819865D01*
X93085714Y-57819865D02*
X93209524Y-57881769D01*
X93209524Y-57881769D02*
X93271429Y-57943674D01*
X92095239Y-58686531D02*
X92095239Y-57819865D01*
X92095239Y-57386531D02*
X92157143Y-57448436D01*
X92157143Y-57448436D02*
X92095239Y-57510341D01*
X92095239Y-57510341D02*
X92033334Y-57448436D01*
X92033334Y-57448436D02*
X92095239Y-57386531D01*
X92095239Y-57386531D02*
X92095239Y-57510341D01*
X90919048Y-58624627D02*
X91042857Y-58686531D01*
X91042857Y-58686531D02*
X91290476Y-58686531D01*
X91290476Y-58686531D02*
X91414286Y-58624627D01*
X91414286Y-58624627D02*
X91476191Y-58562722D01*
X91476191Y-58562722D02*
X91538095Y-58438912D01*
X91538095Y-58438912D02*
X91538095Y-58067484D01*
X91538095Y-58067484D02*
X91476191Y-57943674D01*
X91476191Y-57943674D02*
X91414286Y-57881769D01*
X91414286Y-57881769D02*
X91290476Y-57819865D01*
X91290476Y-57819865D02*
X91042857Y-57819865D01*
X91042857Y-57819865D02*
X90919048Y-57881769D01*
X90361905Y-58686531D02*
X90361905Y-57386531D01*
X90238095Y-58191293D02*
X89866667Y-58686531D01*
X89866667Y-57819865D02*
X90361905Y-58315103D01*
X89309524Y-57819865D02*
X89309524Y-58686531D01*
X89309524Y-57943674D02*
X89247619Y-57881769D01*
X89247619Y-57881769D02*
X89123809Y-57819865D01*
X89123809Y-57819865D02*
X88938095Y-57819865D01*
X88938095Y-57819865D02*
X88814286Y-57881769D01*
X88814286Y-57881769D02*
X88752381Y-58005579D01*
X88752381Y-58005579D02*
X88752381Y-58686531D01*
X87638096Y-58624627D02*
X87761905Y-58686531D01*
X87761905Y-58686531D02*
X88009524Y-58686531D01*
X88009524Y-58686531D02*
X88133334Y-58624627D01*
X88133334Y-58624627D02*
X88195238Y-58500817D01*
X88195238Y-58500817D02*
X88195238Y-58005579D01*
X88195238Y-58005579D02*
X88133334Y-57881769D01*
X88133334Y-57881769D02*
X88009524Y-57819865D01*
X88009524Y-57819865D02*
X87761905Y-57819865D01*
X87761905Y-57819865D02*
X87638096Y-57881769D01*
X87638096Y-57881769D02*
X87576191Y-58005579D01*
X87576191Y-58005579D02*
X87576191Y-58129388D01*
X87576191Y-58129388D02*
X88195238Y-58253198D01*
X87080952Y-58624627D02*
X86957143Y-58686531D01*
X86957143Y-58686531D02*
X86709524Y-58686531D01*
X86709524Y-58686531D02*
X86585714Y-58624627D01*
X86585714Y-58624627D02*
X86523810Y-58500817D01*
X86523810Y-58500817D02*
X86523810Y-58438912D01*
X86523810Y-58438912D02*
X86585714Y-58315103D01*
X86585714Y-58315103D02*
X86709524Y-58253198D01*
X86709524Y-58253198D02*
X86895238Y-58253198D01*
X86895238Y-58253198D02*
X87019048Y-58191293D01*
X87019048Y-58191293D02*
X87080952Y-58067484D01*
X87080952Y-58067484D02*
X87080952Y-58005579D01*
X87080952Y-58005579D02*
X87019048Y-57881769D01*
X87019048Y-57881769D02*
X86895238Y-57819865D01*
X86895238Y-57819865D02*
X86709524Y-57819865D01*
X86709524Y-57819865D02*
X86585714Y-57881769D01*
X86028571Y-58624627D02*
X85904762Y-58686531D01*
X85904762Y-58686531D02*
X85657143Y-58686531D01*
X85657143Y-58686531D02*
X85533333Y-58624627D01*
X85533333Y-58624627D02*
X85471429Y-58500817D01*
X85471429Y-58500817D02*
X85471429Y-58438912D01*
X85471429Y-58438912D02*
X85533333Y-58315103D01*
X85533333Y-58315103D02*
X85657143Y-58253198D01*
X85657143Y-58253198D02*
X85842857Y-58253198D01*
X85842857Y-58253198D02*
X85966667Y-58191293D01*
X85966667Y-58191293D02*
X86028571Y-58067484D01*
X86028571Y-58067484D02*
X86028571Y-58005579D01*
X86028571Y-58005579D02*
X85966667Y-57881769D01*
X85966667Y-57881769D02*
X85842857Y-57819865D01*
X85842857Y-57819865D02*
X85657143Y-57819865D01*
X85657143Y-57819865D02*
X85533333Y-57881769D01*
X83985714Y-57324627D02*
X85100000Y-58996055D01*
X83676190Y-57819865D02*
X83428571Y-58686531D01*
X83428571Y-58686531D02*
X83180952Y-58067484D01*
X83180952Y-58067484D02*
X82933333Y-58686531D01*
X82933333Y-58686531D02*
X82685714Y-57819865D01*
X82190476Y-58686531D02*
X82190476Y-57819865D01*
X82190476Y-57386531D02*
X82252380Y-57448436D01*
X82252380Y-57448436D02*
X82190476Y-57510341D01*
X82190476Y-57510341D02*
X82128571Y-57448436D01*
X82128571Y-57448436D02*
X82190476Y-57386531D01*
X82190476Y-57386531D02*
X82190476Y-57510341D01*
X81014285Y-58686531D02*
X81014285Y-57386531D01*
X81014285Y-58624627D02*
X81138094Y-58686531D01*
X81138094Y-58686531D02*
X81385713Y-58686531D01*
X81385713Y-58686531D02*
X81509523Y-58624627D01*
X81509523Y-58624627D02*
X81571428Y-58562722D01*
X81571428Y-58562722D02*
X81633332Y-58438912D01*
X81633332Y-58438912D02*
X81633332Y-58067484D01*
X81633332Y-58067484D02*
X81571428Y-57943674D01*
X81571428Y-57943674D02*
X81509523Y-57881769D01*
X81509523Y-57881769D02*
X81385713Y-57819865D01*
X81385713Y-57819865D02*
X81138094Y-57819865D01*
X81138094Y-57819865D02*
X81014285Y-57881769D01*
X80580952Y-57819865D02*
X80085714Y-57819865D01*
X80395238Y-57386531D02*
X80395238Y-58500817D01*
X80395238Y-58500817D02*
X80333333Y-58624627D01*
X80333333Y-58624627D02*
X80209523Y-58686531D01*
X80209523Y-58686531D02*
X80085714Y-58686531D01*
X79652381Y-58686531D02*
X79652381Y-57386531D01*
X79095238Y-58686531D02*
X79095238Y-58005579D01*
X79095238Y-58005579D02*
X79157143Y-57881769D01*
X79157143Y-57881769D02*
X79280952Y-57819865D01*
X79280952Y-57819865D02*
X79466666Y-57819865D01*
X79466666Y-57819865D02*
X79590476Y-57881769D01*
X79590476Y-57881769D02*
X79652381Y-57943674D01*
X78414286Y-58624627D02*
X78414286Y-58686531D01*
X78414286Y-58686531D02*
X78476191Y-58810341D01*
X78476191Y-58810341D02*
X78538095Y-58872246D01*
X76371429Y-58624627D02*
X76495238Y-58686531D01*
X76495238Y-58686531D02*
X76742857Y-58686531D01*
X76742857Y-58686531D02*
X76866667Y-58624627D01*
X76866667Y-58624627D02*
X76928571Y-58500817D01*
X76928571Y-58500817D02*
X76928571Y-58005579D01*
X76928571Y-58005579D02*
X76866667Y-57881769D01*
X76866667Y-57881769D02*
X76742857Y-57819865D01*
X76742857Y-57819865D02*
X76495238Y-57819865D01*
X76495238Y-57819865D02*
X76371429Y-57881769D01*
X76371429Y-57881769D02*
X76309524Y-58005579D01*
X76309524Y-58005579D02*
X76309524Y-58129388D01*
X76309524Y-58129388D02*
X76928571Y-58253198D01*
X75938095Y-57819865D02*
X75442857Y-57819865D01*
X75752381Y-57386531D02*
X75752381Y-58500817D01*
X75752381Y-58500817D02*
X75690476Y-58624627D01*
X75690476Y-58624627D02*
X75566666Y-58686531D01*
X75566666Y-58686531D02*
X75442857Y-58686531D01*
X74452381Y-58624627D02*
X74576190Y-58686531D01*
X74576190Y-58686531D02*
X74823809Y-58686531D01*
X74823809Y-58686531D02*
X74947619Y-58624627D01*
X74947619Y-58624627D02*
X75009524Y-58562722D01*
X75009524Y-58562722D02*
X75071428Y-58438912D01*
X75071428Y-58438912D02*
X75071428Y-58067484D01*
X75071428Y-58067484D02*
X75009524Y-57943674D01*
X75009524Y-57943674D02*
X74947619Y-57881769D01*
X74947619Y-57881769D02*
X74823809Y-57819865D01*
X74823809Y-57819865D02*
X74576190Y-57819865D01*
X74576190Y-57819865D02*
X74452381Y-57881769D01*
X74019047Y-59181769D02*
X73957142Y-59119865D01*
X73957142Y-59119865D02*
X73833333Y-58934150D01*
X73833333Y-58934150D02*
X73771428Y-58810341D01*
X73771428Y-58810341D02*
X73709523Y-58624627D01*
X73709523Y-58624627D02*
X73647619Y-58315103D01*
X73647619Y-58315103D02*
X73647619Y-58067484D01*
X73647619Y-58067484D02*
X73709523Y-57757960D01*
X73709523Y-57757960D02*
X73771428Y-57572246D01*
X73771428Y-57572246D02*
X73833333Y-57448436D01*
X73833333Y-57448436D02*
X73957142Y-57262722D01*
X73957142Y-57262722D02*
X74019047Y-57200817D01*
D12*
X38943734Y-56688275D02*
X38943734Y-55118275D01*
X38943734Y-55865894D02*
X38486591Y-55865894D01*
X38486591Y-56688275D02*
X38486591Y-55118275D01*
X37838973Y-55865894D02*
X37724687Y-55940656D01*
X37724687Y-55940656D02*
X37686592Y-56015418D01*
X37686592Y-56015418D02*
X37648496Y-56164942D01*
X37648496Y-56164942D02*
X37648496Y-56389228D01*
X37648496Y-56389228D02*
X37686592Y-56538752D01*
X37686592Y-56538752D02*
X37724687Y-56613514D01*
X37724687Y-56613514D02*
X37800877Y-56688275D01*
X37800877Y-56688275D02*
X38105639Y-56688275D01*
X38105639Y-56688275D02*
X38105639Y-55118275D01*
X38105639Y-55118275D02*
X37838973Y-55118275D01*
X37838973Y-55118275D02*
X37762782Y-55193037D01*
X37762782Y-55193037D02*
X37724687Y-55267799D01*
X37724687Y-55267799D02*
X37686592Y-55417323D01*
X37686592Y-55417323D02*
X37686592Y-55566847D01*
X37686592Y-55566847D02*
X37724687Y-55716371D01*
X37724687Y-55716371D02*
X37762782Y-55791133D01*
X37762782Y-55791133D02*
X37838973Y-55865894D01*
X37838973Y-55865894D02*
X38105639Y-55865894D01*
X38677068Y-58393506D02*
X38562782Y-58468268D01*
X38562782Y-58468268D02*
X38524687Y-58543030D01*
X38524687Y-58543030D02*
X38486591Y-58692554D01*
X38486591Y-58692554D02*
X38486591Y-58916840D01*
X38486591Y-58916840D02*
X38524687Y-59066364D01*
X38524687Y-59066364D02*
X38562782Y-59141126D01*
X38562782Y-59141126D02*
X38638972Y-59215887D01*
X38638972Y-59215887D02*
X38943734Y-59215887D01*
X38943734Y-59215887D02*
X38943734Y-57645887D01*
X38943734Y-57645887D02*
X38677068Y-57645887D01*
X38677068Y-57645887D02*
X38600877Y-57720649D01*
X38600877Y-57720649D02*
X38562782Y-57795411D01*
X38562782Y-57795411D02*
X38524687Y-57944935D01*
X38524687Y-57944935D02*
X38524687Y-58094459D01*
X38524687Y-58094459D02*
X38562782Y-58243983D01*
X38562782Y-58243983D02*
X38600877Y-58318745D01*
X38600877Y-58318745D02*
X38677068Y-58393506D01*
X38677068Y-58393506D02*
X38943734Y-58393506D01*
X37686591Y-59215887D02*
X37953258Y-58468268D01*
X38143734Y-59215887D02*
X38143734Y-57645887D01*
X38143734Y-57645887D02*
X37838972Y-57645887D01*
X37838972Y-57645887D02*
X37762782Y-57720649D01*
X37762782Y-57720649D02*
X37724687Y-57795411D01*
X37724687Y-57795411D02*
X37686591Y-57944935D01*
X37686591Y-57944935D02*
X37686591Y-58169221D01*
X37686591Y-58169221D02*
X37724687Y-58318745D01*
X37724687Y-58318745D02*
X37762782Y-58393506D01*
X37762782Y-58393506D02*
X37838972Y-58468268D01*
X37838972Y-58468268D02*
X38143734Y-58468268D01*
X37343734Y-59215887D02*
X37343734Y-57645887D01*
X36886591Y-59215887D02*
X37229449Y-58318745D01*
X36886591Y-57645887D02*
X37343734Y-58543030D01*
X38943734Y-61743499D02*
X38943734Y-60173499D01*
X38943734Y-60173499D02*
X38753258Y-60173499D01*
X38753258Y-60173499D02*
X38638972Y-60248261D01*
X38638972Y-60248261D02*
X38562782Y-60397785D01*
X38562782Y-60397785D02*
X38524687Y-60547309D01*
X38524687Y-60547309D02*
X38486591Y-60846357D01*
X38486591Y-60846357D02*
X38486591Y-61070642D01*
X38486591Y-61070642D02*
X38524687Y-61369690D01*
X38524687Y-61369690D02*
X38562782Y-61519214D01*
X38562782Y-61519214D02*
X38638972Y-61668738D01*
X38638972Y-61668738D02*
X38753258Y-61743499D01*
X38753258Y-61743499D02*
X38943734Y-61743499D01*
X38143734Y-61743499D02*
X38143734Y-60173499D01*
X37305639Y-61743499D02*
X37572306Y-60995880D01*
X37762782Y-61743499D02*
X37762782Y-60173499D01*
X37762782Y-60173499D02*
X37458020Y-60173499D01*
X37458020Y-60173499D02*
X37381830Y-60248261D01*
X37381830Y-60248261D02*
X37343735Y-60323023D01*
X37343735Y-60323023D02*
X37305639Y-60472547D01*
X37305639Y-60472547D02*
X37305639Y-60696833D01*
X37305639Y-60696833D02*
X37343735Y-60846357D01*
X37343735Y-60846357D02*
X37381830Y-60921118D01*
X37381830Y-60921118D02*
X37458020Y-60995880D01*
X37458020Y-60995880D02*
X37762782Y-60995880D01*
X38981830Y-64196350D02*
X38867544Y-64271111D01*
X38867544Y-64271111D02*
X38677068Y-64271111D01*
X38677068Y-64271111D02*
X38600877Y-64196350D01*
X38600877Y-64196350D02*
X38562782Y-64121588D01*
X38562782Y-64121588D02*
X38524687Y-63972064D01*
X38524687Y-63972064D02*
X38524687Y-63822540D01*
X38524687Y-63822540D02*
X38562782Y-63673016D01*
X38562782Y-63673016D02*
X38600877Y-63598254D01*
X38600877Y-63598254D02*
X38677068Y-63523492D01*
X38677068Y-63523492D02*
X38829449Y-63448730D01*
X38829449Y-63448730D02*
X38905639Y-63373969D01*
X38905639Y-63373969D02*
X38943734Y-63299207D01*
X38943734Y-63299207D02*
X38981830Y-63149683D01*
X38981830Y-63149683D02*
X38981830Y-63000159D01*
X38981830Y-63000159D02*
X38943734Y-62850635D01*
X38943734Y-62850635D02*
X38905639Y-62775873D01*
X38905639Y-62775873D02*
X38829449Y-62701111D01*
X38829449Y-62701111D02*
X38638972Y-62701111D01*
X38638972Y-62701111D02*
X38524687Y-62775873D01*
X37800877Y-64271111D02*
X38181829Y-64271111D01*
X38181829Y-64271111D02*
X38181829Y-62701111D01*
X37534210Y-63448730D02*
X37267544Y-63448730D01*
X37153258Y-64271111D02*
X37534210Y-64271111D01*
X37534210Y-64271111D02*
X37534210Y-62701111D01*
X37534210Y-62701111D02*
X37153258Y-62701111D01*
X38943734Y-66798723D02*
X38943734Y-65228723D01*
X38943734Y-65228723D02*
X38753258Y-65228723D01*
X38753258Y-65228723D02*
X38638972Y-65303485D01*
X38638972Y-65303485D02*
X38562782Y-65453009D01*
X38562782Y-65453009D02*
X38524687Y-65602533D01*
X38524687Y-65602533D02*
X38486591Y-65901581D01*
X38486591Y-65901581D02*
X38486591Y-66125866D01*
X38486591Y-66125866D02*
X38524687Y-66424914D01*
X38524687Y-66424914D02*
X38562782Y-66574438D01*
X38562782Y-66574438D02*
X38638972Y-66723962D01*
X38638972Y-66723962D02*
X38753258Y-66798723D01*
X38753258Y-66798723D02*
X38943734Y-66798723D01*
X38258020Y-65228723D02*
X37800877Y-65228723D01*
X38029449Y-66798723D02*
X38029449Y-65228723D01*
X39058020Y-67756335D02*
X38791353Y-69326335D01*
X38791353Y-69326335D02*
X38524687Y-67756335D01*
X38258020Y-69326335D02*
X38258020Y-67756335D01*
X37877068Y-69326335D02*
X37877068Y-67756335D01*
X37877068Y-67756335D02*
X37419925Y-69326335D01*
X37419925Y-69326335D02*
X37419925Y-67756335D01*
X38486591Y-71704424D02*
X38524687Y-71779186D01*
X38524687Y-71779186D02*
X38638972Y-71853947D01*
X38638972Y-71853947D02*
X38715163Y-71853947D01*
X38715163Y-71853947D02*
X38829449Y-71779186D01*
X38829449Y-71779186D02*
X38905639Y-71629662D01*
X38905639Y-71629662D02*
X38943734Y-71480138D01*
X38943734Y-71480138D02*
X38981830Y-71181090D01*
X38981830Y-71181090D02*
X38981830Y-70956805D01*
X38981830Y-70956805D02*
X38943734Y-70657757D01*
X38943734Y-70657757D02*
X38905639Y-70508233D01*
X38905639Y-70508233D02*
X38829449Y-70358709D01*
X38829449Y-70358709D02*
X38715163Y-70283947D01*
X38715163Y-70283947D02*
X38638972Y-70283947D01*
X38638972Y-70283947D02*
X38524687Y-70358709D01*
X38524687Y-70358709D02*
X38486591Y-70433471D01*
X38143734Y-71853947D02*
X38143734Y-70283947D01*
X38143734Y-70283947D02*
X37838972Y-70283947D01*
X37838972Y-70283947D02*
X37762782Y-70358709D01*
X37762782Y-70358709D02*
X37724687Y-70433471D01*
X37724687Y-70433471D02*
X37686591Y-70582995D01*
X37686591Y-70582995D02*
X37686591Y-70807281D01*
X37686591Y-70807281D02*
X37724687Y-70956805D01*
X37724687Y-70956805D02*
X37762782Y-71031566D01*
X37762782Y-71031566D02*
X37838972Y-71106328D01*
X37838972Y-71106328D02*
X38143734Y-71106328D01*
X37077068Y-71031566D02*
X36962782Y-71106328D01*
X36962782Y-71106328D02*
X36924687Y-71181090D01*
X36924687Y-71181090D02*
X36886591Y-71330614D01*
X36886591Y-71330614D02*
X36886591Y-71554900D01*
X36886591Y-71554900D02*
X36924687Y-71704424D01*
X36924687Y-71704424D02*
X36962782Y-71779186D01*
X36962782Y-71779186D02*
X37038972Y-71853947D01*
X37038972Y-71853947D02*
X37343734Y-71853947D01*
X37343734Y-71853947D02*
X37343734Y-70283947D01*
X37343734Y-70283947D02*
X37077068Y-70283947D01*
X37077068Y-70283947D02*
X37000877Y-70358709D01*
X37000877Y-70358709D02*
X36962782Y-70433471D01*
X36962782Y-70433471D02*
X36924687Y-70582995D01*
X36924687Y-70582995D02*
X36924687Y-70732519D01*
X36924687Y-70732519D02*
X36962782Y-70882043D01*
X36962782Y-70882043D02*
X37000877Y-70956805D01*
X37000877Y-70956805D02*
X37077068Y-71031566D01*
X37077068Y-71031566D02*
X37343734Y-71031566D01*
D10*
X65105180Y-73819999D02*
X66105180Y-73819999D01*
X66105180Y-73819999D02*
X66105180Y-73629523D01*
X66105180Y-73629523D02*
X66057561Y-73515237D01*
X66057561Y-73515237D02*
X65962323Y-73439047D01*
X65962323Y-73439047D02*
X65867085Y-73400952D01*
X65867085Y-73400952D02*
X65676609Y-73362856D01*
X65676609Y-73362856D02*
X65533752Y-73362856D01*
X65533752Y-73362856D02*
X65343276Y-73400952D01*
X65343276Y-73400952D02*
X65248038Y-73439047D01*
X65248038Y-73439047D02*
X65152800Y-73515237D01*
X65152800Y-73515237D02*
X65105180Y-73629523D01*
X65105180Y-73629523D02*
X65105180Y-73819999D01*
X65105180Y-73019999D02*
X66105180Y-73019999D01*
X65105180Y-72181904D02*
X65581371Y-72448571D01*
X65105180Y-72639047D02*
X66105180Y-72639047D01*
X66105180Y-72639047D02*
X66105180Y-72334285D01*
X66105180Y-72334285D02*
X66057561Y-72258095D01*
X66057561Y-72258095D02*
X66009942Y-72220000D01*
X66009942Y-72220000D02*
X65914704Y-72181904D01*
X65914704Y-72181904D02*
X65771847Y-72181904D01*
X65771847Y-72181904D02*
X65676609Y-72220000D01*
X65676609Y-72220000D02*
X65628990Y-72258095D01*
X65628990Y-72258095D02*
X65581371Y-72334285D01*
X65581371Y-72334285D02*
X65581371Y-72639047D01*
X71360952Y-45724819D02*
X71360952Y-44724819D01*
X70932381Y-45724819D02*
X70932381Y-45201009D01*
X70932381Y-45201009D02*
X70980000Y-45105771D01*
X70980000Y-45105771D02*
X71075238Y-45058152D01*
X71075238Y-45058152D02*
X71218095Y-45058152D01*
X71218095Y-45058152D02*
X71313333Y-45105771D01*
X71313333Y-45105771D02*
X71360952Y-45153390D01*
X70027619Y-45724819D02*
X70027619Y-45201009D01*
X70027619Y-45201009D02*
X70075238Y-45105771D01*
X70075238Y-45105771D02*
X70170476Y-45058152D01*
X70170476Y-45058152D02*
X70360952Y-45058152D01*
X70360952Y-45058152D02*
X70456190Y-45105771D01*
X70027619Y-45677200D02*
X70122857Y-45724819D01*
X70122857Y-45724819D02*
X70360952Y-45724819D01*
X70360952Y-45724819D02*
X70456190Y-45677200D01*
X70456190Y-45677200D02*
X70503809Y-45581961D01*
X70503809Y-45581961D02*
X70503809Y-45486723D01*
X70503809Y-45486723D02*
X70456190Y-45391485D01*
X70456190Y-45391485D02*
X70360952Y-45343866D01*
X70360952Y-45343866D02*
X70122857Y-45343866D01*
X70122857Y-45343866D02*
X70027619Y-45296247D01*
X69408571Y-45724819D02*
X69503809Y-45677200D01*
X69503809Y-45677200D02*
X69551428Y-45581961D01*
X69551428Y-45581961D02*
X69551428Y-44724819D01*
X68884761Y-45724819D02*
X68979999Y-45677200D01*
X68979999Y-45677200D02*
X69027618Y-45581961D01*
X69027618Y-45581961D02*
X69027618Y-44724819D01*
X67313332Y-45677200D02*
X67408570Y-45724819D01*
X67408570Y-45724819D02*
X67599046Y-45724819D01*
X67599046Y-45724819D02*
X67694284Y-45677200D01*
X67694284Y-45677200D02*
X67741903Y-45629580D01*
X67741903Y-45629580D02*
X67789522Y-45534342D01*
X67789522Y-45534342D02*
X67789522Y-45248628D01*
X67789522Y-45248628D02*
X67741903Y-45153390D01*
X67741903Y-45153390D02*
X67694284Y-45105771D01*
X67694284Y-45105771D02*
X67599046Y-45058152D01*
X67599046Y-45058152D02*
X67408570Y-45058152D01*
X67408570Y-45058152D02*
X67313332Y-45105771D01*
X66741903Y-45724819D02*
X66837141Y-45677200D01*
X66837141Y-45677200D02*
X66884760Y-45629580D01*
X66884760Y-45629580D02*
X66932379Y-45534342D01*
X66932379Y-45534342D02*
X66932379Y-45248628D01*
X66932379Y-45248628D02*
X66884760Y-45153390D01*
X66884760Y-45153390D02*
X66837141Y-45105771D01*
X66837141Y-45105771D02*
X66741903Y-45058152D01*
X66741903Y-45058152D02*
X66599046Y-45058152D01*
X66599046Y-45058152D02*
X66503808Y-45105771D01*
X66503808Y-45105771D02*
X66456189Y-45153390D01*
X66456189Y-45153390D02*
X66408570Y-45248628D01*
X66408570Y-45248628D02*
X66408570Y-45534342D01*
X66408570Y-45534342D02*
X66456189Y-45629580D01*
X66456189Y-45629580D02*
X66503808Y-45677200D01*
X66503808Y-45677200D02*
X66599046Y-45724819D01*
X66599046Y-45724819D02*
X66741903Y-45724819D01*
X65979998Y-45058152D02*
X65979998Y-45724819D01*
X65979998Y-45153390D02*
X65932379Y-45105771D01*
X65932379Y-45105771D02*
X65837141Y-45058152D01*
X65837141Y-45058152D02*
X65694284Y-45058152D01*
X65694284Y-45058152D02*
X65599046Y-45105771D01*
X65599046Y-45105771D02*
X65551427Y-45201009D01*
X65551427Y-45201009D02*
X65551427Y-45724819D01*
X65218093Y-45058152D02*
X64837141Y-45058152D01*
X65075236Y-45724819D02*
X65075236Y-44867676D01*
X65075236Y-44867676D02*
X65027617Y-44772438D01*
X65027617Y-44772438D02*
X64932379Y-44724819D01*
X64932379Y-44724819D02*
X64837141Y-44724819D01*
X64503807Y-45724819D02*
X64503807Y-45058152D01*
X64503807Y-44724819D02*
X64551426Y-44772438D01*
X64551426Y-44772438D02*
X64503807Y-44820057D01*
X64503807Y-44820057D02*
X64456188Y-44772438D01*
X64456188Y-44772438D02*
X64503807Y-44724819D01*
X64503807Y-44724819D02*
X64503807Y-44820057D01*
X63599046Y-45058152D02*
X63599046Y-45867676D01*
X63599046Y-45867676D02*
X63646665Y-45962914D01*
X63646665Y-45962914D02*
X63694284Y-46010533D01*
X63694284Y-46010533D02*
X63789522Y-46058152D01*
X63789522Y-46058152D02*
X63932379Y-46058152D01*
X63932379Y-46058152D02*
X64027617Y-46010533D01*
X63599046Y-45677200D02*
X63694284Y-45724819D01*
X63694284Y-45724819D02*
X63884760Y-45724819D01*
X63884760Y-45724819D02*
X63979998Y-45677200D01*
X63979998Y-45677200D02*
X64027617Y-45629580D01*
X64027617Y-45629580D02*
X64075236Y-45534342D01*
X64075236Y-45534342D02*
X64075236Y-45248628D01*
X64075236Y-45248628D02*
X64027617Y-45153390D01*
X64027617Y-45153390D02*
X63979998Y-45105771D01*
X63979998Y-45105771D02*
X63884760Y-45058152D01*
X63884760Y-45058152D02*
X63694284Y-45058152D01*
X63694284Y-45058152D02*
X63599046Y-45105771D01*
X67615180Y-74163809D02*
X68615180Y-74163809D01*
X68615180Y-74163809D02*
X68615180Y-73859047D01*
X68615180Y-73859047D02*
X68567561Y-73782857D01*
X68567561Y-73782857D02*
X68519942Y-73744762D01*
X68519942Y-73744762D02*
X68424704Y-73706666D01*
X68424704Y-73706666D02*
X68281847Y-73706666D01*
X68281847Y-73706666D02*
X68186609Y-73744762D01*
X68186609Y-73744762D02*
X68138990Y-73782857D01*
X68138990Y-73782857D02*
X68091371Y-73859047D01*
X68091371Y-73859047D02*
X68091371Y-74163809D01*
X68615180Y-73440000D02*
X67615180Y-73249524D01*
X67615180Y-73249524D02*
X68329466Y-73097143D01*
X68329466Y-73097143D02*
X67615180Y-72944762D01*
X67615180Y-72944762D02*
X68615180Y-72754286D01*
X67615180Y-72449523D02*
X68615180Y-72449523D01*
X68615180Y-72449523D02*
X67900895Y-72182857D01*
X67900895Y-72182857D02*
X68615180Y-71916190D01*
X68615180Y-71916190D02*
X67615180Y-71916190D01*
X63490895Y-57279523D02*
X63490895Y-56898570D01*
X63205180Y-57355713D02*
X64205180Y-57089046D01*
X64205180Y-57089046D02*
X63205180Y-56822380D01*
X64205180Y-56403332D02*
X64205180Y-56250951D01*
X64205180Y-56250951D02*
X64157561Y-56174761D01*
X64157561Y-56174761D02*
X64062323Y-56098570D01*
X64062323Y-56098570D02*
X63871847Y-56060475D01*
X63871847Y-56060475D02*
X63538514Y-56060475D01*
X63538514Y-56060475D02*
X63348038Y-56098570D01*
X63348038Y-56098570D02*
X63252800Y-56174761D01*
X63252800Y-56174761D02*
X63205180Y-56250951D01*
X63205180Y-56250951D02*
X63205180Y-56403332D01*
X63205180Y-56403332D02*
X63252800Y-56479523D01*
X63252800Y-56479523D02*
X63348038Y-56555713D01*
X63348038Y-56555713D02*
X63538514Y-56593809D01*
X63538514Y-56593809D02*
X63871847Y-56593809D01*
X63871847Y-56593809D02*
X64062323Y-56555713D01*
X64062323Y-56555713D02*
X64157561Y-56479523D01*
X64157561Y-56479523D02*
X64205180Y-56403332D01*
X65828990Y-65759047D02*
X65781371Y-65644761D01*
X65781371Y-65644761D02*
X65733752Y-65606666D01*
X65733752Y-65606666D02*
X65638514Y-65568570D01*
X65638514Y-65568570D02*
X65495657Y-65568570D01*
X65495657Y-65568570D02*
X65400419Y-65606666D01*
X65400419Y-65606666D02*
X65352800Y-65644761D01*
X65352800Y-65644761D02*
X65305180Y-65720951D01*
X65305180Y-65720951D02*
X65305180Y-66025713D01*
X65305180Y-66025713D02*
X66305180Y-66025713D01*
X66305180Y-66025713D02*
X66305180Y-65759047D01*
X66305180Y-65759047D02*
X66257561Y-65682856D01*
X66257561Y-65682856D02*
X66209942Y-65644761D01*
X66209942Y-65644761D02*
X66114704Y-65606666D01*
X66114704Y-65606666D02*
X66019466Y-65606666D01*
X66019466Y-65606666D02*
X65924228Y-65644761D01*
X65924228Y-65644761D02*
X65876609Y-65682856D01*
X65876609Y-65682856D02*
X65828990Y-65759047D01*
X65828990Y-65759047D02*
X65828990Y-66025713D01*
X65305180Y-65225713D02*
X65971847Y-65225713D01*
X65781371Y-65225713D02*
X65876609Y-65187618D01*
X65876609Y-65187618D02*
X65924228Y-65149523D01*
X65924228Y-65149523D02*
X65971847Y-65073332D01*
X65971847Y-65073332D02*
X65971847Y-64997142D01*
X65305180Y-64387618D02*
X65828990Y-64387618D01*
X65828990Y-64387618D02*
X65924228Y-64425713D01*
X65924228Y-64425713D02*
X65971847Y-64501904D01*
X65971847Y-64501904D02*
X65971847Y-64654285D01*
X65971847Y-64654285D02*
X65924228Y-64730475D01*
X65352800Y-64387618D02*
X65305180Y-64463809D01*
X65305180Y-64463809D02*
X65305180Y-64654285D01*
X65305180Y-64654285D02*
X65352800Y-64730475D01*
X65352800Y-64730475D02*
X65448038Y-64768571D01*
X65448038Y-64768571D02*
X65543276Y-64768571D01*
X65543276Y-64768571D02*
X65638514Y-64730475D01*
X65638514Y-64730475D02*
X65686133Y-64654285D01*
X65686133Y-64654285D02*
X65686133Y-64463809D01*
X65686133Y-64463809D02*
X65733752Y-64387618D01*
X65305180Y-64006665D02*
X66305180Y-64006665D01*
X65686133Y-63930475D02*
X65305180Y-63701903D01*
X65971847Y-63701903D02*
X65590895Y-64006665D01*
X65352800Y-63054284D02*
X65305180Y-63130475D01*
X65305180Y-63130475D02*
X65305180Y-63282856D01*
X65305180Y-63282856D02*
X65352800Y-63359046D01*
X65352800Y-63359046D02*
X65448038Y-63397142D01*
X65448038Y-63397142D02*
X65828990Y-63397142D01*
X65828990Y-63397142D02*
X65924228Y-63359046D01*
X65924228Y-63359046D02*
X65971847Y-63282856D01*
X65971847Y-63282856D02*
X65971847Y-63130475D01*
X65971847Y-63130475D02*
X65924228Y-63054284D01*
X65924228Y-63054284D02*
X65828990Y-63016189D01*
X65828990Y-63016189D02*
X65733752Y-63016189D01*
X65733752Y-63016189D02*
X65638514Y-63397142D01*
X71110895Y-50099523D02*
X71110895Y-49718570D01*
X70825180Y-50175713D02*
X71825180Y-49909046D01*
X71825180Y-49909046D02*
X70825180Y-49642380D01*
X71825180Y-49223332D02*
X71825180Y-49070951D01*
X71825180Y-49070951D02*
X71777561Y-48994761D01*
X71777561Y-48994761D02*
X71682323Y-48918570D01*
X71682323Y-48918570D02*
X71491847Y-48880475D01*
X71491847Y-48880475D02*
X71158514Y-48880475D01*
X71158514Y-48880475D02*
X70968038Y-48918570D01*
X70968038Y-48918570D02*
X70872800Y-48994761D01*
X70872800Y-48994761D02*
X70825180Y-49070951D01*
X70825180Y-49070951D02*
X70825180Y-49223332D01*
X70825180Y-49223332D02*
X70872800Y-49299523D01*
X70872800Y-49299523D02*
X70968038Y-49375713D01*
X70968038Y-49375713D02*
X71158514Y-49413809D01*
X71158514Y-49413809D02*
X71491847Y-49413809D01*
X71491847Y-49413809D02*
X71682323Y-49375713D01*
X71682323Y-49375713D02*
X71777561Y-49299523D01*
X71777561Y-49299523D02*
X71825180Y-49223332D01*
M02*
