G04 #@! TF.GenerationSoftware,KiCad,Pcbnew,5.1.5+dfsg1-2build2*
G04 #@! TF.CreationDate,2023-09-14T16:19:52+02:00*
G04 #@! TF.ProjectId,CCS_pico_board_2,4343535f-7069-4636-9f5f-626f6172645f,rev?*
G04 #@! TF.SameCoordinates,Original*
G04 #@! TF.FileFunction,Legend,Bot*
G04 #@! TF.FilePolarity,Positive*
%FSLAX46Y46*%
G04 Gerber Fmt 4.6, Leading zero omitted, Abs format (unit mm)*
G04 Created by KiCad (PCBNEW 5.1.5+dfsg1-2build2) date 2023-09-14 16:19:52*
%MOMM*%
%LPD*%
G04 APERTURE LIST*
%ADD10C,0.150000*%
%ADD11C,0.010000*%
%ADD12C,0.120000*%
G04 APERTURE END LIST*
D10*
X51100000Y-79652380D02*
X50909523Y-79652380D01*
X50814285Y-79700000D01*
X50719047Y-79795238D01*
X50671428Y-79985714D01*
X50671428Y-80319047D01*
X50719047Y-80509523D01*
X50814285Y-80604761D01*
X50909523Y-80652380D01*
X51100000Y-80652380D01*
X51195238Y-80604761D01*
X51290476Y-80509523D01*
X51338095Y-80319047D01*
X51338095Y-79985714D01*
X51290476Y-79795238D01*
X51195238Y-79700000D01*
X51100000Y-79652380D01*
X50242857Y-80652380D02*
X50242857Y-79652380D01*
X49861904Y-79652380D01*
X49766666Y-79700000D01*
X49719047Y-79747619D01*
X49671428Y-79842857D01*
X49671428Y-79985714D01*
X49719047Y-80080952D01*
X49766666Y-80128571D01*
X49861904Y-80176190D01*
X50242857Y-80176190D01*
X49385714Y-79652380D02*
X48814285Y-79652380D01*
X49100000Y-80652380D02*
X49100000Y-79652380D01*
X47814285Y-79652380D02*
X47195238Y-79652380D01*
X47528571Y-80033333D01*
X47385714Y-80033333D01*
X47290476Y-80080952D01*
X47242857Y-80128571D01*
X47195238Y-80223809D01*
X47195238Y-80461904D01*
X47242857Y-80557142D01*
X47290476Y-80604761D01*
X47385714Y-80652380D01*
X47671428Y-80652380D01*
X47766666Y-80604761D01*
X47814285Y-80557142D01*
X46909523Y-79652380D02*
X46576190Y-80652380D01*
X46242857Y-79652380D01*
X46004761Y-79652380D02*
X45385714Y-79652380D01*
X45719047Y-80033333D01*
X45576190Y-80033333D01*
X45480952Y-80080952D01*
X45433333Y-80128571D01*
X45385714Y-80223809D01*
X45385714Y-80461904D01*
X45433333Y-80557142D01*
X45480952Y-80604761D01*
X45576190Y-80652380D01*
X45861904Y-80652380D01*
X45957142Y-80604761D01*
X46004761Y-80557142D01*
X43623809Y-80652380D02*
X43957142Y-80176190D01*
X44195238Y-80652380D02*
X44195238Y-79652380D01*
X43814285Y-79652380D01*
X43719047Y-79700000D01*
X43671428Y-79747619D01*
X43623809Y-79842857D01*
X43623809Y-79985714D01*
X43671428Y-80080952D01*
X43719047Y-80128571D01*
X43814285Y-80176190D01*
X44195238Y-80176190D01*
X43195238Y-80128571D02*
X42861904Y-80128571D01*
X42719047Y-80652380D02*
X43195238Y-80652380D01*
X43195238Y-79652380D01*
X42719047Y-79652380D01*
X41957142Y-80128571D02*
X42290476Y-80128571D01*
X42290476Y-80652380D02*
X42290476Y-79652380D01*
X41814285Y-79652380D01*
X81350000Y-102250000D02*
X81383333Y-102316666D01*
X81383333Y-102416666D01*
X81350000Y-102516666D01*
X81283333Y-102583333D01*
X81216666Y-102616666D01*
X81083333Y-102650000D01*
X80983333Y-102650000D01*
X80850000Y-102616666D01*
X80783333Y-102583333D01*
X80716666Y-102516666D01*
X80683333Y-102416666D01*
X80683333Y-102350000D01*
X80716666Y-102250000D01*
X80750000Y-102216666D01*
X80983333Y-102216666D01*
X80983333Y-102350000D01*
X80683333Y-101916666D02*
X81383333Y-101916666D01*
X81383333Y-101650000D01*
X81350000Y-101583333D01*
X81316666Y-101550000D01*
X81250000Y-101516666D01*
X81150000Y-101516666D01*
X81083333Y-101550000D01*
X81050000Y-101583333D01*
X81016666Y-101650000D01*
X81016666Y-101916666D01*
X81383333Y-101083333D02*
X81383333Y-101016666D01*
X81350000Y-100950000D01*
X81316666Y-100916666D01*
X81250000Y-100883333D01*
X81116666Y-100850000D01*
X80950000Y-100850000D01*
X80816666Y-100883333D01*
X80750000Y-100916666D01*
X80716666Y-100950000D01*
X80683333Y-101016666D01*
X80683333Y-101083333D01*
X80716666Y-101150000D01*
X80750000Y-101183333D01*
X80816666Y-101216666D01*
X80950000Y-101250000D01*
X81116666Y-101250000D01*
X81250000Y-101216666D01*
X81316666Y-101183333D01*
X81350000Y-101150000D01*
X81383333Y-101083333D01*
X81383333Y-100416666D02*
X81383333Y-100350000D01*
X81350000Y-100283333D01*
X81316666Y-100250000D01*
X81250000Y-100216666D01*
X81116666Y-100183333D01*
X80950000Y-100183333D01*
X80816666Y-100216666D01*
X80750000Y-100250000D01*
X80716666Y-100283333D01*
X80683333Y-100350000D01*
X80683333Y-100416666D01*
X80716666Y-100483333D01*
X80750000Y-100516666D01*
X80816666Y-100550000D01*
X80950000Y-100583333D01*
X81116666Y-100583333D01*
X81250000Y-100550000D01*
X81316666Y-100516666D01*
X81350000Y-100483333D01*
X81383333Y-100416666D01*
X81383333Y-99450000D02*
X80683333Y-99216666D01*
X81383333Y-98983333D01*
X81050000Y-98516666D02*
X81016666Y-98416666D01*
X80983333Y-98383333D01*
X80916666Y-98350000D01*
X80816666Y-98350000D01*
X80750000Y-98383333D01*
X80716666Y-98416666D01*
X80683333Y-98483333D01*
X80683333Y-98750000D01*
X81383333Y-98750000D01*
X81383333Y-98516666D01*
X81350000Y-98450000D01*
X81316666Y-98416666D01*
X81250000Y-98383333D01*
X81183333Y-98383333D01*
X81116666Y-98416666D01*
X81083333Y-98450000D01*
X81050000Y-98516666D01*
X81050000Y-98750000D01*
X81383333Y-98050000D02*
X80816666Y-98050000D01*
X80750000Y-98016666D01*
X80716666Y-97983333D01*
X80683333Y-97916666D01*
X80683333Y-97783333D01*
X80716666Y-97716666D01*
X80750000Y-97683333D01*
X80816666Y-97650000D01*
X81383333Y-97650000D01*
X80716666Y-97350000D02*
X80683333Y-97250000D01*
X80683333Y-97083333D01*
X80716666Y-97016666D01*
X80750000Y-96983333D01*
X80816666Y-96950000D01*
X80883333Y-96950000D01*
X80950000Y-96983333D01*
X80983333Y-97016666D01*
X81016666Y-97083333D01*
X81050000Y-97216666D01*
X81083333Y-97283333D01*
X81116666Y-97316666D01*
X81183333Y-97350000D01*
X81250000Y-97350000D01*
X81316666Y-97316666D01*
X81350000Y-97283333D01*
X81383333Y-97216666D01*
X81383333Y-97050000D01*
X81350000Y-96950000D01*
X78950000Y-102166666D02*
X78983333Y-102233333D01*
X78983333Y-102333333D01*
X78950000Y-102433333D01*
X78883333Y-102500000D01*
X78816666Y-102533333D01*
X78683333Y-102566666D01*
X78583333Y-102566666D01*
X78450000Y-102533333D01*
X78383333Y-102500000D01*
X78316666Y-102433333D01*
X78283333Y-102333333D01*
X78283333Y-102266666D01*
X78316666Y-102166666D01*
X78350000Y-102133333D01*
X78583333Y-102133333D01*
X78583333Y-102266666D01*
X78283333Y-101833333D02*
X78983333Y-101833333D01*
X78983333Y-101566666D01*
X78950000Y-101500000D01*
X78916666Y-101466666D01*
X78850000Y-101433333D01*
X78750000Y-101433333D01*
X78683333Y-101466666D01*
X78650000Y-101500000D01*
X78616666Y-101566666D01*
X78616666Y-101833333D01*
X78983333Y-101000000D02*
X78983333Y-100933333D01*
X78950000Y-100866666D01*
X78916666Y-100833333D01*
X78850000Y-100800000D01*
X78716666Y-100766666D01*
X78550000Y-100766666D01*
X78416666Y-100800000D01*
X78350000Y-100833333D01*
X78316666Y-100866666D01*
X78283333Y-100933333D01*
X78283333Y-101000000D01*
X78316666Y-101066666D01*
X78350000Y-101100000D01*
X78416666Y-101133333D01*
X78550000Y-101166666D01*
X78716666Y-101166666D01*
X78850000Y-101133333D01*
X78916666Y-101100000D01*
X78950000Y-101066666D01*
X78983333Y-101000000D01*
X78283333Y-100100000D02*
X78283333Y-100500000D01*
X78283333Y-100300000D02*
X78983333Y-100300000D01*
X78883333Y-100366666D01*
X78816666Y-100433333D01*
X78783333Y-100500000D01*
X78983333Y-99366666D02*
X78283333Y-99133333D01*
X78983333Y-98900000D01*
X78316666Y-98700000D02*
X78283333Y-98600000D01*
X78283333Y-98433333D01*
X78316666Y-98366666D01*
X78350000Y-98333333D01*
X78416666Y-98300000D01*
X78483333Y-98300000D01*
X78550000Y-98333333D01*
X78583333Y-98366666D01*
X78616666Y-98433333D01*
X78650000Y-98566666D01*
X78683333Y-98633333D01*
X78716666Y-98666666D01*
X78783333Y-98700000D01*
X78850000Y-98700000D01*
X78916666Y-98666666D01*
X78950000Y-98633333D01*
X78983333Y-98566666D01*
X78983333Y-98400000D01*
X78950000Y-98300000D01*
X78616666Y-97866666D02*
X78283333Y-97866666D01*
X78983333Y-98100000D02*
X78616666Y-97866666D01*
X78983333Y-97633333D01*
X78316666Y-97433333D02*
X78283333Y-97333333D01*
X78283333Y-97166666D01*
X78316666Y-97100000D01*
X78350000Y-97066666D01*
X78416666Y-97033333D01*
X78483333Y-97033333D01*
X78550000Y-97066666D01*
X78583333Y-97100000D01*
X78616666Y-97166666D01*
X78650000Y-97300000D01*
X78683333Y-97366666D01*
X78716666Y-97400000D01*
X78783333Y-97433333D01*
X78850000Y-97433333D01*
X78916666Y-97400000D01*
X78950000Y-97366666D01*
X78983333Y-97300000D01*
X78983333Y-97133333D01*
X78950000Y-97033333D01*
X76383333Y-102616666D02*
X75816666Y-102616666D01*
X75750000Y-102583333D01*
X75716666Y-102550000D01*
X75683333Y-102483333D01*
X75683333Y-102350000D01*
X75716666Y-102283333D01*
X75750000Y-102250000D01*
X75816666Y-102216666D01*
X76383333Y-102216666D01*
X75616666Y-102050000D02*
X75616666Y-101516666D01*
X75683333Y-101350000D02*
X76383333Y-101350000D01*
X76383333Y-101183333D01*
X76350000Y-101083333D01*
X76283333Y-101016666D01*
X76216666Y-100983333D01*
X76083333Y-100950000D01*
X75983333Y-100950000D01*
X75850000Y-100983333D01*
X75783333Y-101016666D01*
X75716666Y-101083333D01*
X75683333Y-101183333D01*
X75683333Y-101350000D01*
X75683333Y-100650000D02*
X76383333Y-100650000D01*
X75883333Y-100416666D01*
X76383333Y-100183333D01*
X75683333Y-100183333D01*
X76383333Y-99316666D02*
X75816666Y-99316666D01*
X75750000Y-99283333D01*
X75716666Y-99250000D01*
X75683333Y-99183333D01*
X75683333Y-99050000D01*
X75716666Y-98983333D01*
X75750000Y-98950000D01*
X75816666Y-98916666D01*
X76383333Y-98916666D01*
X75616666Y-98750000D02*
X75616666Y-98216666D01*
X75683333Y-98050000D02*
X76383333Y-98050000D01*
X76383333Y-97883333D01*
X76350000Y-97783333D01*
X76283333Y-97716666D01*
X76216666Y-97683333D01*
X76083333Y-97650000D01*
X75983333Y-97650000D01*
X75850000Y-97683333D01*
X75783333Y-97716666D01*
X75716666Y-97783333D01*
X75683333Y-97883333D01*
X75683333Y-98050000D01*
X75683333Y-97350000D02*
X76383333Y-97350000D01*
X76383333Y-97083333D01*
X76350000Y-97016666D01*
X76316666Y-96983333D01*
X76250000Y-96950000D01*
X76150000Y-96950000D01*
X76083333Y-96983333D01*
X76050000Y-97016666D01*
X76016666Y-97083333D01*
X76016666Y-97350000D01*
X74350000Y-102169166D02*
X74383333Y-102235833D01*
X74383333Y-102335833D01*
X74350000Y-102435833D01*
X74283333Y-102502500D01*
X74216666Y-102535833D01*
X74083333Y-102569166D01*
X73983333Y-102569166D01*
X73850000Y-102535833D01*
X73783333Y-102502500D01*
X73716666Y-102435833D01*
X73683333Y-102335833D01*
X73683333Y-102269166D01*
X73716666Y-102169166D01*
X73750000Y-102135833D01*
X73983333Y-102135833D01*
X73983333Y-102269166D01*
X73683333Y-101835833D02*
X74383333Y-101835833D01*
X74383333Y-101569166D01*
X74350000Y-101502500D01*
X74316666Y-101469166D01*
X74250000Y-101435833D01*
X74150000Y-101435833D01*
X74083333Y-101469166D01*
X74050000Y-101502500D01*
X74016666Y-101569166D01*
X74016666Y-101835833D01*
X74383333Y-101002500D02*
X74383333Y-100935833D01*
X74350000Y-100869166D01*
X74316666Y-100835833D01*
X74250000Y-100802500D01*
X74116666Y-100769166D01*
X73950000Y-100769166D01*
X73816666Y-100802500D01*
X73750000Y-100835833D01*
X73716666Y-100869166D01*
X73683333Y-100935833D01*
X73683333Y-101002500D01*
X73716666Y-101069166D01*
X73750000Y-101102500D01*
X73816666Y-101135833D01*
X73950000Y-101169166D01*
X74116666Y-101169166D01*
X74250000Y-101135833D01*
X74316666Y-101102500D01*
X74350000Y-101069166D01*
X74383333Y-101002500D01*
X74316666Y-100502500D02*
X74350000Y-100469166D01*
X74383333Y-100402500D01*
X74383333Y-100235833D01*
X74350000Y-100169166D01*
X74316666Y-100135833D01*
X74250000Y-100102500D01*
X74183333Y-100102500D01*
X74083333Y-100135833D01*
X73683333Y-100535833D01*
X73683333Y-100102500D01*
X73183333Y-100469166D02*
X73183333Y-100035833D01*
X72916666Y-100269166D01*
X72916666Y-100169166D01*
X72883333Y-100102500D01*
X72850000Y-100069166D01*
X72783333Y-100035833D01*
X72616666Y-100035833D01*
X72550000Y-100069166D01*
X72516666Y-100102500D01*
X72483333Y-100169166D01*
X72483333Y-100369166D01*
X72516666Y-100435833D01*
X72550000Y-100469166D01*
X73183333Y-99835833D02*
X72483333Y-99602500D01*
X73183333Y-99369166D01*
X73183333Y-99202500D02*
X73183333Y-98769166D01*
X72916666Y-99002500D01*
X72916666Y-98902500D01*
X72883333Y-98835833D01*
X72850000Y-98802500D01*
X72783333Y-98769166D01*
X72616666Y-98769166D01*
X72550000Y-98802500D01*
X72516666Y-98835833D01*
X72483333Y-98902500D01*
X72483333Y-99102500D01*
X72516666Y-99169166D01*
X72550000Y-99202500D01*
X72416666Y-98635833D02*
X72416666Y-98102500D01*
X72850000Y-97935833D02*
X72850000Y-97702500D01*
X72483333Y-97602500D02*
X72483333Y-97935833D01*
X73183333Y-97935833D01*
X73183333Y-97602500D01*
X72483333Y-97302500D02*
X73183333Y-97302500D01*
X72483333Y-96902500D01*
X73183333Y-96902500D01*
X71350000Y-101866666D02*
X71383333Y-101933333D01*
X71383333Y-102033333D01*
X71350000Y-102133333D01*
X71283333Y-102200000D01*
X71216666Y-102233333D01*
X71083333Y-102266666D01*
X70983333Y-102266666D01*
X70850000Y-102233333D01*
X70783333Y-102200000D01*
X70716666Y-102133333D01*
X70683333Y-102033333D01*
X70683333Y-101966666D01*
X70716666Y-101866666D01*
X70750000Y-101833333D01*
X70983333Y-101833333D01*
X70983333Y-101966666D01*
X70683333Y-101533333D02*
X71383333Y-101533333D01*
X71383333Y-101266666D01*
X71350000Y-101200000D01*
X71316666Y-101166666D01*
X71250000Y-101133333D01*
X71150000Y-101133333D01*
X71083333Y-101166666D01*
X71050000Y-101200000D01*
X71016666Y-101266666D01*
X71016666Y-101533333D01*
X71383333Y-100700000D02*
X71383333Y-100633333D01*
X71350000Y-100566666D01*
X71316666Y-100533333D01*
X71250000Y-100500000D01*
X71116666Y-100466666D01*
X70950000Y-100466666D01*
X70816666Y-100500000D01*
X70750000Y-100533333D01*
X70716666Y-100566666D01*
X70683333Y-100633333D01*
X70683333Y-100700000D01*
X70716666Y-100766666D01*
X70750000Y-100800000D01*
X70816666Y-100833333D01*
X70950000Y-100866666D01*
X71116666Y-100866666D01*
X71250000Y-100833333D01*
X71316666Y-100800000D01*
X71350000Y-100766666D01*
X71383333Y-100700000D01*
X71383333Y-100233333D02*
X71383333Y-99800000D01*
X71116666Y-100033333D01*
X71116666Y-99933333D01*
X71083333Y-99866666D01*
X71050000Y-99833333D01*
X70983333Y-99800000D01*
X70816666Y-99800000D01*
X70750000Y-99833333D01*
X70716666Y-99866666D01*
X70683333Y-99933333D01*
X70683333Y-100133333D01*
X70716666Y-100200000D01*
X70750000Y-100233333D01*
X71383333Y-99033333D02*
X71383333Y-98600000D01*
X71116666Y-98833333D01*
X71116666Y-98733333D01*
X71083333Y-98666666D01*
X71050000Y-98633333D01*
X70983333Y-98600000D01*
X70816666Y-98600000D01*
X70750000Y-98633333D01*
X70716666Y-98666666D01*
X70683333Y-98733333D01*
X70683333Y-98933333D01*
X70716666Y-99000000D01*
X70750000Y-99033333D01*
X71383333Y-98400000D02*
X70683333Y-98166666D01*
X71383333Y-97933333D01*
X71383333Y-97766666D02*
X71383333Y-97333333D01*
X71116666Y-97566666D01*
X71116666Y-97466666D01*
X71083333Y-97400000D01*
X71050000Y-97366666D01*
X70983333Y-97333333D01*
X70816666Y-97333333D01*
X70750000Y-97366666D01*
X70716666Y-97400000D01*
X70683333Y-97466666D01*
X70683333Y-97666666D01*
X70716666Y-97733333D01*
X70750000Y-97766666D01*
X69350000Y-102169166D02*
X69383333Y-102235833D01*
X69383333Y-102335833D01*
X69350000Y-102435833D01*
X69283333Y-102502500D01*
X69216666Y-102535833D01*
X69083333Y-102569166D01*
X68983333Y-102569166D01*
X68850000Y-102535833D01*
X68783333Y-102502500D01*
X68716666Y-102435833D01*
X68683333Y-102335833D01*
X68683333Y-102269166D01*
X68716666Y-102169166D01*
X68750000Y-102135833D01*
X68983333Y-102135833D01*
X68983333Y-102269166D01*
X68683333Y-101835833D02*
X69383333Y-101835833D01*
X69383333Y-101569166D01*
X69350000Y-101502500D01*
X69316666Y-101469166D01*
X69250000Y-101435833D01*
X69150000Y-101435833D01*
X69083333Y-101469166D01*
X69050000Y-101502500D01*
X69016666Y-101569166D01*
X69016666Y-101835833D01*
X69383333Y-101002500D02*
X69383333Y-100935833D01*
X69350000Y-100869166D01*
X69316666Y-100835833D01*
X69250000Y-100802500D01*
X69116666Y-100769166D01*
X68950000Y-100769166D01*
X68816666Y-100802500D01*
X68750000Y-100835833D01*
X68716666Y-100869166D01*
X68683333Y-100935833D01*
X68683333Y-101002500D01*
X68716666Y-101069166D01*
X68750000Y-101102500D01*
X68816666Y-101135833D01*
X68950000Y-101169166D01*
X69116666Y-101169166D01*
X69250000Y-101135833D01*
X69316666Y-101102500D01*
X69350000Y-101069166D01*
X69383333Y-101002500D01*
X69150000Y-100169166D02*
X68683333Y-100169166D01*
X69416666Y-100335833D02*
X68916666Y-100502500D01*
X68916666Y-100069166D01*
X67850000Y-100702500D02*
X67816666Y-100602500D01*
X67783333Y-100569166D01*
X67716666Y-100535833D01*
X67616666Y-100535833D01*
X67550000Y-100569166D01*
X67516666Y-100602500D01*
X67483333Y-100669166D01*
X67483333Y-100935833D01*
X68183333Y-100935833D01*
X68183333Y-100702500D01*
X68150000Y-100635833D01*
X68116666Y-100602500D01*
X68050000Y-100569166D01*
X67983333Y-100569166D01*
X67916666Y-100602500D01*
X67883333Y-100635833D01*
X67850000Y-100702500D01*
X67850000Y-100935833D01*
X68183333Y-100102500D02*
X68183333Y-99969166D01*
X68150000Y-99902500D01*
X68083333Y-99835833D01*
X67950000Y-99802500D01*
X67716666Y-99802500D01*
X67583333Y-99835833D01*
X67516666Y-99902500D01*
X67483333Y-99969166D01*
X67483333Y-100102500D01*
X67516666Y-100169166D01*
X67583333Y-100235833D01*
X67716666Y-100269166D01*
X67950000Y-100269166D01*
X68083333Y-100235833D01*
X68150000Y-100169166D01*
X68183333Y-100102500D01*
X68183333Y-99369166D02*
X68183333Y-99235833D01*
X68150000Y-99169166D01*
X68083333Y-99102500D01*
X67950000Y-99069166D01*
X67716666Y-99069166D01*
X67583333Y-99102500D01*
X67516666Y-99169166D01*
X67483333Y-99235833D01*
X67483333Y-99369166D01*
X67516666Y-99435833D01*
X67583333Y-99502500D01*
X67716666Y-99535833D01*
X67950000Y-99535833D01*
X68083333Y-99502500D01*
X68150000Y-99435833D01*
X68183333Y-99369166D01*
X68183333Y-98869166D02*
X68183333Y-98469166D01*
X67483333Y-98669166D02*
X68183333Y-98669166D01*
X67516666Y-98269166D02*
X67483333Y-98169166D01*
X67483333Y-98002500D01*
X67516666Y-97935833D01*
X67550000Y-97902500D01*
X67616666Y-97869166D01*
X67683333Y-97869166D01*
X67750000Y-97902500D01*
X67783333Y-97935833D01*
X67816666Y-98002500D01*
X67850000Y-98135833D01*
X67883333Y-98202500D01*
X67916666Y-98235833D01*
X67983333Y-98269166D01*
X68050000Y-98269166D01*
X68116666Y-98235833D01*
X68150000Y-98202500D01*
X68183333Y-98135833D01*
X68183333Y-97969166D01*
X68150000Y-97869166D01*
X67850000Y-97569166D02*
X67850000Y-97335833D01*
X67483333Y-97235833D02*
X67483333Y-97569166D01*
X68183333Y-97569166D01*
X68183333Y-97235833D01*
X67483333Y-96602500D02*
X67483333Y-96935833D01*
X68183333Y-96935833D01*
X66750000Y-102266666D02*
X66783333Y-102333333D01*
X66783333Y-102433333D01*
X66750000Y-102533333D01*
X66683333Y-102600000D01*
X66616666Y-102633333D01*
X66483333Y-102666666D01*
X66383333Y-102666666D01*
X66250000Y-102633333D01*
X66183333Y-102600000D01*
X66116666Y-102533333D01*
X66083333Y-102433333D01*
X66083333Y-102366666D01*
X66116666Y-102266666D01*
X66150000Y-102233333D01*
X66383333Y-102233333D01*
X66383333Y-102366666D01*
X66083333Y-101933333D02*
X66783333Y-101933333D01*
X66783333Y-101666666D01*
X66750000Y-101600000D01*
X66716666Y-101566666D01*
X66650000Y-101533333D01*
X66550000Y-101533333D01*
X66483333Y-101566666D01*
X66450000Y-101600000D01*
X66416666Y-101666666D01*
X66416666Y-101933333D01*
X66783333Y-101100000D02*
X66783333Y-101033333D01*
X66750000Y-100966666D01*
X66716666Y-100933333D01*
X66650000Y-100900000D01*
X66516666Y-100866666D01*
X66350000Y-100866666D01*
X66216666Y-100900000D01*
X66150000Y-100933333D01*
X66116666Y-100966666D01*
X66083333Y-101033333D01*
X66083333Y-101100000D01*
X66116666Y-101166666D01*
X66150000Y-101200000D01*
X66216666Y-101233333D01*
X66350000Y-101266666D01*
X66516666Y-101266666D01*
X66650000Y-101233333D01*
X66716666Y-101200000D01*
X66750000Y-101166666D01*
X66783333Y-101100000D01*
X66783333Y-100233333D02*
X66783333Y-100566666D01*
X66450000Y-100600000D01*
X66483333Y-100566666D01*
X66516666Y-100500000D01*
X66516666Y-100333333D01*
X66483333Y-100266666D01*
X66450000Y-100233333D01*
X66383333Y-100200000D01*
X66216666Y-100200000D01*
X66150000Y-100233333D01*
X66116666Y-100266666D01*
X66083333Y-100333333D01*
X66083333Y-100500000D01*
X66116666Y-100566666D01*
X66150000Y-100600000D01*
X66750000Y-99000000D02*
X66783333Y-99066666D01*
X66783333Y-99166666D01*
X66750000Y-99266666D01*
X66683333Y-99333333D01*
X66616666Y-99366666D01*
X66483333Y-99400000D01*
X66383333Y-99400000D01*
X66250000Y-99366666D01*
X66183333Y-99333333D01*
X66116666Y-99266666D01*
X66083333Y-99166666D01*
X66083333Y-99100000D01*
X66116666Y-99000000D01*
X66150000Y-98966666D01*
X66383333Y-98966666D01*
X66383333Y-99100000D01*
X66083333Y-98666666D02*
X66783333Y-98666666D01*
X66783333Y-98400000D01*
X66750000Y-98333333D01*
X66716666Y-98300000D01*
X66650000Y-98266666D01*
X66550000Y-98266666D01*
X66483333Y-98300000D01*
X66450000Y-98333333D01*
X66416666Y-98400000D01*
X66416666Y-98666666D01*
X66716666Y-98000000D02*
X66750000Y-97966666D01*
X66783333Y-97900000D01*
X66783333Y-97733333D01*
X66750000Y-97666666D01*
X66716666Y-97633333D01*
X66650000Y-97600000D01*
X66583333Y-97600000D01*
X66483333Y-97633333D01*
X66083333Y-98033333D01*
X66083333Y-97600000D01*
X66483333Y-97200000D02*
X66516666Y-97266666D01*
X66550000Y-97300000D01*
X66616666Y-97333333D01*
X66650000Y-97333333D01*
X66716666Y-97300000D01*
X66750000Y-97266666D01*
X66783333Y-97200000D01*
X66783333Y-97066666D01*
X66750000Y-97000000D01*
X66716666Y-96966666D01*
X66650000Y-96933333D01*
X66616666Y-96933333D01*
X66550000Y-96966666D01*
X66516666Y-97000000D01*
X66483333Y-97066666D01*
X66483333Y-97200000D01*
X66450000Y-97266666D01*
X66416666Y-97300000D01*
X66350000Y-97333333D01*
X66216666Y-97333333D01*
X66150000Y-97300000D01*
X66116666Y-97266666D01*
X66083333Y-97200000D01*
X66083333Y-97066666D01*
X66116666Y-97000000D01*
X66150000Y-96966666D01*
X66216666Y-96933333D01*
X66350000Y-96933333D01*
X66416666Y-96966666D01*
X66450000Y-97000000D01*
X66483333Y-97066666D01*
X65083333Y-99933333D02*
X65083333Y-99600000D01*
X64883333Y-100000000D02*
X65583333Y-99766666D01*
X64883333Y-99533333D01*
X64883333Y-99300000D02*
X65583333Y-99300000D01*
X65583333Y-99133333D01*
X65550000Y-99033333D01*
X65483333Y-98966666D01*
X65416666Y-98933333D01*
X65283333Y-98900000D01*
X65183333Y-98900000D01*
X65050000Y-98933333D01*
X64983333Y-98966666D01*
X64916666Y-99033333D01*
X64883333Y-99133333D01*
X64883333Y-99300000D01*
X64950000Y-98200000D02*
X64916666Y-98233333D01*
X64883333Y-98333333D01*
X64883333Y-98400000D01*
X64916666Y-98500000D01*
X64983333Y-98566666D01*
X65050000Y-98600000D01*
X65183333Y-98633333D01*
X65283333Y-98633333D01*
X65416666Y-98600000D01*
X65483333Y-98566666D01*
X65550000Y-98500000D01*
X65583333Y-98400000D01*
X65583333Y-98333333D01*
X65550000Y-98233333D01*
X65516666Y-98200000D01*
X65516666Y-97933333D02*
X65550000Y-97900000D01*
X65583333Y-97833333D01*
X65583333Y-97666666D01*
X65550000Y-97600000D01*
X65516666Y-97566666D01*
X65450000Y-97533333D01*
X65383333Y-97533333D01*
X65283333Y-97566666D01*
X64883333Y-97966666D01*
X64883333Y-97533333D01*
X63350000Y-102266666D02*
X62883333Y-102266666D01*
X63616666Y-102433333D02*
X63116666Y-102600000D01*
X63116666Y-102166666D01*
X63283333Y-101800000D02*
X63316666Y-101866666D01*
X63350000Y-101900000D01*
X63416666Y-101933333D01*
X63450000Y-101933333D01*
X63516666Y-101900000D01*
X63550000Y-101866666D01*
X63583333Y-101800000D01*
X63583333Y-101666666D01*
X63550000Y-101600000D01*
X63516666Y-101566666D01*
X63450000Y-101533333D01*
X63416666Y-101533333D01*
X63350000Y-101566666D01*
X63316666Y-101600000D01*
X63283333Y-101666666D01*
X63283333Y-101800000D01*
X63250000Y-101866666D01*
X63216666Y-101900000D01*
X63150000Y-101933333D01*
X63016666Y-101933333D01*
X62950000Y-101900000D01*
X62916666Y-101866666D01*
X62883333Y-101800000D01*
X62883333Y-101666666D01*
X62916666Y-101600000D01*
X62950000Y-101566666D01*
X63016666Y-101533333D01*
X63150000Y-101533333D01*
X63216666Y-101566666D01*
X63250000Y-101600000D01*
X63283333Y-101666666D01*
X63583333Y-100900000D02*
X63583333Y-101233333D01*
X63250000Y-101266666D01*
X63283333Y-101233333D01*
X63316666Y-101166666D01*
X63316666Y-101000000D01*
X63283333Y-100933333D01*
X63250000Y-100900000D01*
X63183333Y-100866666D01*
X63016666Y-100866666D01*
X62950000Y-100900000D01*
X62916666Y-100933333D01*
X62883333Y-101000000D01*
X62883333Y-101166666D01*
X62916666Y-101233333D01*
X62950000Y-101266666D01*
X63083333Y-100600000D02*
X63083333Y-100266666D01*
X62883333Y-100666666D02*
X63583333Y-100433333D01*
X62883333Y-100200000D01*
X63083333Y-99466666D02*
X63083333Y-99133333D01*
X62883333Y-99533333D02*
X63583333Y-99300000D01*
X62883333Y-99066666D01*
X63550000Y-98466666D02*
X63583333Y-98533333D01*
X63583333Y-98633333D01*
X63550000Y-98733333D01*
X63483333Y-98800000D01*
X63416666Y-98833333D01*
X63283333Y-98866666D01*
X63183333Y-98866666D01*
X63050000Y-98833333D01*
X62983333Y-98800000D01*
X62916666Y-98733333D01*
X62883333Y-98633333D01*
X62883333Y-98566666D01*
X62916666Y-98466666D01*
X62950000Y-98433333D01*
X63183333Y-98433333D01*
X63183333Y-98566666D01*
X62883333Y-98133333D02*
X63583333Y-98133333D01*
X62883333Y-97733333D01*
X63583333Y-97733333D01*
X62883333Y-97400000D02*
X63583333Y-97400000D01*
X63583333Y-97233333D01*
X63550000Y-97133333D01*
X63483333Y-97066666D01*
X63416666Y-97033333D01*
X63283333Y-97000000D01*
X63183333Y-97000000D01*
X63050000Y-97033333D01*
X62983333Y-97066666D01*
X62916666Y-97133333D01*
X62883333Y-97233333D01*
X62883333Y-97400000D01*
X61550000Y-102266666D02*
X61583333Y-102333333D01*
X61583333Y-102433333D01*
X61550000Y-102533333D01*
X61483333Y-102600000D01*
X61416666Y-102633333D01*
X61283333Y-102666666D01*
X61183333Y-102666666D01*
X61050000Y-102633333D01*
X60983333Y-102600000D01*
X60916666Y-102533333D01*
X60883333Y-102433333D01*
X60883333Y-102366666D01*
X60916666Y-102266666D01*
X60950000Y-102233333D01*
X61183333Y-102233333D01*
X61183333Y-102366666D01*
X60883333Y-101933333D02*
X61583333Y-101933333D01*
X61583333Y-101666666D01*
X61550000Y-101600000D01*
X61516666Y-101566666D01*
X61450000Y-101533333D01*
X61350000Y-101533333D01*
X61283333Y-101566666D01*
X61250000Y-101600000D01*
X61216666Y-101666666D01*
X61216666Y-101933333D01*
X61583333Y-101100000D02*
X61583333Y-101033333D01*
X61550000Y-100966666D01*
X61516666Y-100933333D01*
X61450000Y-100900000D01*
X61316666Y-100866666D01*
X61150000Y-100866666D01*
X61016666Y-100900000D01*
X60950000Y-100933333D01*
X60916666Y-100966666D01*
X60883333Y-101033333D01*
X60883333Y-101100000D01*
X60916666Y-101166666D01*
X60950000Y-101200000D01*
X61016666Y-101233333D01*
X61150000Y-101266666D01*
X61316666Y-101266666D01*
X61450000Y-101233333D01*
X61516666Y-101200000D01*
X61550000Y-101166666D01*
X61583333Y-101100000D01*
X61583333Y-100266666D02*
X61583333Y-100400000D01*
X61550000Y-100466666D01*
X61516666Y-100500000D01*
X61416666Y-100566666D01*
X61283333Y-100600000D01*
X61016666Y-100600000D01*
X60950000Y-100566666D01*
X60916666Y-100533333D01*
X60883333Y-100466666D01*
X60883333Y-100333333D01*
X60916666Y-100266666D01*
X60950000Y-100233333D01*
X61016666Y-100200000D01*
X61183333Y-100200000D01*
X61250000Y-100233333D01*
X61283333Y-100266666D01*
X61316666Y-100333333D01*
X61316666Y-100466666D01*
X61283333Y-100533333D01*
X61250000Y-100566666D01*
X61183333Y-100600000D01*
X61550000Y-99000000D02*
X61583333Y-99066666D01*
X61583333Y-99166666D01*
X61550000Y-99266666D01*
X61483333Y-99333333D01*
X61416666Y-99366666D01*
X61283333Y-99400000D01*
X61183333Y-99400000D01*
X61050000Y-99366666D01*
X60983333Y-99333333D01*
X60916666Y-99266666D01*
X60883333Y-99166666D01*
X60883333Y-99100000D01*
X60916666Y-99000000D01*
X60950000Y-98966666D01*
X61183333Y-98966666D01*
X61183333Y-99100000D01*
X60883333Y-98666666D02*
X61583333Y-98666666D01*
X61583333Y-98400000D01*
X61550000Y-98333333D01*
X61516666Y-98300000D01*
X61450000Y-98266666D01*
X61350000Y-98266666D01*
X61283333Y-98300000D01*
X61250000Y-98333333D01*
X61216666Y-98400000D01*
X61216666Y-98666666D01*
X61516666Y-98000000D02*
X61550000Y-97966666D01*
X61583333Y-97900000D01*
X61583333Y-97733333D01*
X61550000Y-97666666D01*
X61516666Y-97633333D01*
X61450000Y-97600000D01*
X61383333Y-97600000D01*
X61283333Y-97633333D01*
X60883333Y-98033333D01*
X60883333Y-97600000D01*
X61583333Y-97366666D02*
X61583333Y-96900000D01*
X60883333Y-97200000D01*
X59883333Y-99666666D02*
X59883333Y-99333333D01*
X59683333Y-99733333D02*
X60383333Y-99500000D01*
X59683333Y-99266666D01*
X59683333Y-99033333D02*
X60383333Y-99033333D01*
X60383333Y-98866666D01*
X60350000Y-98766666D01*
X60283333Y-98700000D01*
X60216666Y-98666666D01*
X60083333Y-98633333D01*
X59983333Y-98633333D01*
X59850000Y-98666666D01*
X59783333Y-98700000D01*
X59716666Y-98766666D01*
X59683333Y-98866666D01*
X59683333Y-99033333D01*
X59750000Y-97933333D02*
X59716666Y-97966666D01*
X59683333Y-98066666D01*
X59683333Y-98133333D01*
X59716666Y-98233333D01*
X59783333Y-98300000D01*
X59850000Y-98333333D01*
X59983333Y-98366666D01*
X60083333Y-98366666D01*
X60216666Y-98333333D01*
X60283333Y-98300000D01*
X60350000Y-98233333D01*
X60383333Y-98133333D01*
X60383333Y-98066666D01*
X60350000Y-97966666D01*
X60316666Y-97933333D01*
X59683333Y-97266666D02*
X59683333Y-97666666D01*
X59683333Y-97466666D02*
X60383333Y-97466666D01*
X60283333Y-97533333D01*
X60216666Y-97600000D01*
X60183333Y-97666666D01*
X59150000Y-102266666D02*
X59183333Y-102333333D01*
X59183333Y-102433333D01*
X59150000Y-102533333D01*
X59083333Y-102600000D01*
X59016666Y-102633333D01*
X58883333Y-102666666D01*
X58783333Y-102666666D01*
X58650000Y-102633333D01*
X58583333Y-102600000D01*
X58516666Y-102533333D01*
X58483333Y-102433333D01*
X58483333Y-102366666D01*
X58516666Y-102266666D01*
X58550000Y-102233333D01*
X58783333Y-102233333D01*
X58783333Y-102366666D01*
X58483333Y-101933333D02*
X59183333Y-101933333D01*
X59183333Y-101666666D01*
X59150000Y-101600000D01*
X59116666Y-101566666D01*
X59050000Y-101533333D01*
X58950000Y-101533333D01*
X58883333Y-101566666D01*
X58850000Y-101600000D01*
X58816666Y-101666666D01*
X58816666Y-101933333D01*
X59183333Y-101100000D02*
X59183333Y-101033333D01*
X59150000Y-100966666D01*
X59116666Y-100933333D01*
X59050000Y-100900000D01*
X58916666Y-100866666D01*
X58750000Y-100866666D01*
X58616666Y-100900000D01*
X58550000Y-100933333D01*
X58516666Y-100966666D01*
X58483333Y-101033333D01*
X58483333Y-101100000D01*
X58516666Y-101166666D01*
X58550000Y-101200000D01*
X58616666Y-101233333D01*
X58750000Y-101266666D01*
X58916666Y-101266666D01*
X59050000Y-101233333D01*
X59116666Y-101200000D01*
X59150000Y-101166666D01*
X59183333Y-101100000D01*
X59183333Y-100633333D02*
X59183333Y-100166666D01*
X58483333Y-100466666D01*
X59150000Y-99000000D02*
X59183333Y-99066666D01*
X59183333Y-99166666D01*
X59150000Y-99266666D01*
X59083333Y-99333333D01*
X59016666Y-99366666D01*
X58883333Y-99400000D01*
X58783333Y-99400000D01*
X58650000Y-99366666D01*
X58583333Y-99333333D01*
X58516666Y-99266666D01*
X58483333Y-99166666D01*
X58483333Y-99100000D01*
X58516666Y-99000000D01*
X58550000Y-98966666D01*
X58783333Y-98966666D01*
X58783333Y-99100000D01*
X58483333Y-98666666D02*
X59183333Y-98666666D01*
X59183333Y-98400000D01*
X59150000Y-98333333D01*
X59116666Y-98300000D01*
X59050000Y-98266666D01*
X58950000Y-98266666D01*
X58883333Y-98300000D01*
X58850000Y-98333333D01*
X58816666Y-98400000D01*
X58816666Y-98666666D01*
X59116666Y-98000000D02*
X59150000Y-97966666D01*
X59183333Y-97900000D01*
X59183333Y-97733333D01*
X59150000Y-97666666D01*
X59116666Y-97633333D01*
X59050000Y-97600000D01*
X58983333Y-97600000D01*
X58883333Y-97633333D01*
X58483333Y-98033333D01*
X58483333Y-97600000D01*
X59183333Y-97000000D02*
X59183333Y-97133333D01*
X59150000Y-97200000D01*
X59116666Y-97233333D01*
X59016666Y-97300000D01*
X58883333Y-97333333D01*
X58616666Y-97333333D01*
X58550000Y-97300000D01*
X58516666Y-97266666D01*
X58483333Y-97200000D01*
X58483333Y-97066666D01*
X58516666Y-97000000D01*
X58550000Y-96966666D01*
X58616666Y-96933333D01*
X58783333Y-96933333D01*
X58850000Y-96966666D01*
X58883333Y-97000000D01*
X58916666Y-97066666D01*
X58916666Y-97200000D01*
X58883333Y-97266666D01*
X58850000Y-97300000D01*
X58783333Y-97333333D01*
X57483333Y-99666666D02*
X57483333Y-99333333D01*
X57283333Y-99733333D02*
X57983333Y-99500000D01*
X57283333Y-99266666D01*
X57283333Y-99033333D02*
X57983333Y-99033333D01*
X57983333Y-98866666D01*
X57950000Y-98766666D01*
X57883333Y-98700000D01*
X57816666Y-98666666D01*
X57683333Y-98633333D01*
X57583333Y-98633333D01*
X57450000Y-98666666D01*
X57383333Y-98700000D01*
X57316666Y-98766666D01*
X57283333Y-98866666D01*
X57283333Y-99033333D01*
X57350000Y-97933333D02*
X57316666Y-97966666D01*
X57283333Y-98066666D01*
X57283333Y-98133333D01*
X57316666Y-98233333D01*
X57383333Y-98300000D01*
X57450000Y-98333333D01*
X57583333Y-98366666D01*
X57683333Y-98366666D01*
X57816666Y-98333333D01*
X57883333Y-98300000D01*
X57950000Y-98233333D01*
X57983333Y-98133333D01*
X57983333Y-98066666D01*
X57950000Y-97966666D01*
X57916666Y-97933333D01*
X57983333Y-97500000D02*
X57983333Y-97433333D01*
X57950000Y-97366666D01*
X57916666Y-97333333D01*
X57850000Y-97300000D01*
X57716666Y-97266666D01*
X57550000Y-97266666D01*
X57416666Y-97300000D01*
X57350000Y-97333333D01*
X57316666Y-97366666D01*
X57283333Y-97433333D01*
X57283333Y-97500000D01*
X57316666Y-97566666D01*
X57350000Y-97600000D01*
X57416666Y-97633333D01*
X57550000Y-97666666D01*
X57716666Y-97666666D01*
X57850000Y-97633333D01*
X57916666Y-97600000D01*
X57950000Y-97566666D01*
X57983333Y-97500000D01*
X55950000Y-101866666D02*
X55983333Y-101933333D01*
X55983333Y-102033333D01*
X55950000Y-102133333D01*
X55883333Y-102200000D01*
X55816666Y-102233333D01*
X55683333Y-102266666D01*
X55583333Y-102266666D01*
X55450000Y-102233333D01*
X55383333Y-102200000D01*
X55316666Y-102133333D01*
X55283333Y-102033333D01*
X55283333Y-101966666D01*
X55316666Y-101866666D01*
X55350000Y-101833333D01*
X55583333Y-101833333D01*
X55583333Y-101966666D01*
X55283333Y-101533333D02*
X55983333Y-101533333D01*
X55983333Y-101266666D01*
X55950000Y-101200000D01*
X55916666Y-101166666D01*
X55850000Y-101133333D01*
X55750000Y-101133333D01*
X55683333Y-101166666D01*
X55650000Y-101200000D01*
X55616666Y-101266666D01*
X55616666Y-101533333D01*
X55983333Y-100700000D02*
X55983333Y-100633333D01*
X55950000Y-100566666D01*
X55916666Y-100533333D01*
X55850000Y-100500000D01*
X55716666Y-100466666D01*
X55550000Y-100466666D01*
X55416666Y-100500000D01*
X55350000Y-100533333D01*
X55316666Y-100566666D01*
X55283333Y-100633333D01*
X55283333Y-100700000D01*
X55316666Y-100766666D01*
X55350000Y-100800000D01*
X55416666Y-100833333D01*
X55550000Y-100866666D01*
X55716666Y-100866666D01*
X55850000Y-100833333D01*
X55916666Y-100800000D01*
X55950000Y-100766666D01*
X55983333Y-100700000D01*
X55683333Y-100066666D02*
X55716666Y-100133333D01*
X55750000Y-100166666D01*
X55816666Y-100200000D01*
X55850000Y-100200000D01*
X55916666Y-100166666D01*
X55950000Y-100133333D01*
X55983333Y-100066666D01*
X55983333Y-99933333D01*
X55950000Y-99866666D01*
X55916666Y-99833333D01*
X55850000Y-99800000D01*
X55816666Y-99800000D01*
X55750000Y-99833333D01*
X55716666Y-99866666D01*
X55683333Y-99933333D01*
X55683333Y-100066666D01*
X55650000Y-100133333D01*
X55616666Y-100166666D01*
X55550000Y-100200000D01*
X55416666Y-100200000D01*
X55350000Y-100166666D01*
X55316666Y-100133333D01*
X55283333Y-100066666D01*
X55283333Y-99933333D01*
X55316666Y-99866666D01*
X55350000Y-99833333D01*
X55416666Y-99800000D01*
X55550000Y-99800000D01*
X55616666Y-99833333D01*
X55650000Y-99866666D01*
X55683333Y-99933333D01*
X55983333Y-99033333D02*
X55983333Y-98600000D01*
X55716666Y-98833333D01*
X55716666Y-98733333D01*
X55683333Y-98666666D01*
X55650000Y-98633333D01*
X55583333Y-98600000D01*
X55416666Y-98600000D01*
X55350000Y-98633333D01*
X55316666Y-98666666D01*
X55283333Y-98733333D01*
X55283333Y-98933333D01*
X55316666Y-99000000D01*
X55350000Y-99033333D01*
X55983333Y-98400000D02*
X55283333Y-98166666D01*
X55983333Y-97933333D01*
X55983333Y-97766666D02*
X55983333Y-97333333D01*
X55716666Y-97566666D01*
X55716666Y-97466666D01*
X55683333Y-97400000D01*
X55650000Y-97366666D01*
X55583333Y-97333333D01*
X55416666Y-97333333D01*
X55350000Y-97366666D01*
X55316666Y-97400000D01*
X55283333Y-97466666D01*
X55283333Y-97666666D01*
X55316666Y-97733333D01*
X55350000Y-97766666D01*
X53550000Y-102266666D02*
X53583333Y-102333333D01*
X53583333Y-102433333D01*
X53550000Y-102533333D01*
X53483333Y-102600000D01*
X53416666Y-102633333D01*
X53283333Y-102666666D01*
X53183333Y-102666666D01*
X53050000Y-102633333D01*
X52983333Y-102600000D01*
X52916666Y-102533333D01*
X52883333Y-102433333D01*
X52883333Y-102366666D01*
X52916666Y-102266666D01*
X52950000Y-102233333D01*
X53183333Y-102233333D01*
X53183333Y-102366666D01*
X52883333Y-101933333D02*
X53583333Y-101933333D01*
X53583333Y-101666666D01*
X53550000Y-101600000D01*
X53516666Y-101566666D01*
X53450000Y-101533333D01*
X53350000Y-101533333D01*
X53283333Y-101566666D01*
X53250000Y-101600000D01*
X53216666Y-101666666D01*
X53216666Y-101933333D01*
X53583333Y-101100000D02*
X53583333Y-101033333D01*
X53550000Y-100966666D01*
X53516666Y-100933333D01*
X53450000Y-100900000D01*
X53316666Y-100866666D01*
X53150000Y-100866666D01*
X53016666Y-100900000D01*
X52950000Y-100933333D01*
X52916666Y-100966666D01*
X52883333Y-101033333D01*
X52883333Y-101100000D01*
X52916666Y-101166666D01*
X52950000Y-101200000D01*
X53016666Y-101233333D01*
X53150000Y-101266666D01*
X53316666Y-101266666D01*
X53450000Y-101233333D01*
X53516666Y-101200000D01*
X53550000Y-101166666D01*
X53583333Y-101100000D01*
X52883333Y-100533333D02*
X52883333Y-100400000D01*
X52916666Y-100333333D01*
X52950000Y-100300000D01*
X53050000Y-100233333D01*
X53183333Y-100200000D01*
X53450000Y-100200000D01*
X53516666Y-100233333D01*
X53550000Y-100266666D01*
X53583333Y-100333333D01*
X53583333Y-100466666D01*
X53550000Y-100533333D01*
X53516666Y-100566666D01*
X53450000Y-100600000D01*
X53283333Y-100600000D01*
X53216666Y-100566666D01*
X53183333Y-100533333D01*
X53150000Y-100466666D01*
X53150000Y-100333333D01*
X53183333Y-100266666D01*
X53216666Y-100233333D01*
X53283333Y-100200000D01*
X53550000Y-99000000D02*
X53583333Y-99066666D01*
X53583333Y-99166666D01*
X53550000Y-99266666D01*
X53483333Y-99333333D01*
X53416666Y-99366666D01*
X53283333Y-99400000D01*
X53183333Y-99400000D01*
X53050000Y-99366666D01*
X52983333Y-99333333D01*
X52916666Y-99266666D01*
X52883333Y-99166666D01*
X52883333Y-99100000D01*
X52916666Y-99000000D01*
X52950000Y-98966666D01*
X53183333Y-98966666D01*
X53183333Y-99100000D01*
X52883333Y-98666666D02*
X53583333Y-98666666D01*
X53583333Y-98400000D01*
X53550000Y-98333333D01*
X53516666Y-98300000D01*
X53450000Y-98266666D01*
X53350000Y-98266666D01*
X53283333Y-98300000D01*
X53250000Y-98333333D01*
X53216666Y-98400000D01*
X53216666Y-98666666D01*
X53516666Y-98000000D02*
X53550000Y-97966666D01*
X53583333Y-97900000D01*
X53583333Y-97733333D01*
X53550000Y-97666666D01*
X53516666Y-97633333D01*
X53450000Y-97600000D01*
X53383333Y-97600000D01*
X53283333Y-97633333D01*
X52883333Y-98033333D01*
X52883333Y-97600000D01*
X53516666Y-97333333D02*
X53550000Y-97300000D01*
X53583333Y-97233333D01*
X53583333Y-97066666D01*
X53550000Y-97000000D01*
X53516666Y-96966666D01*
X53450000Y-96933333D01*
X53383333Y-96933333D01*
X53283333Y-96966666D01*
X52883333Y-97366666D01*
X52883333Y-96933333D01*
X50750000Y-102033333D02*
X50283333Y-102033333D01*
X51016666Y-102200000D02*
X50516666Y-102366666D01*
X50516666Y-101933333D01*
X50683333Y-101566666D02*
X50716666Y-101633333D01*
X50750000Y-101666666D01*
X50816666Y-101700000D01*
X50850000Y-101700000D01*
X50916666Y-101666666D01*
X50950000Y-101633333D01*
X50983333Y-101566666D01*
X50983333Y-101433333D01*
X50950000Y-101366666D01*
X50916666Y-101333333D01*
X50850000Y-101300000D01*
X50816666Y-101300000D01*
X50750000Y-101333333D01*
X50716666Y-101366666D01*
X50683333Y-101433333D01*
X50683333Y-101566666D01*
X50650000Y-101633333D01*
X50616666Y-101666666D01*
X50550000Y-101700000D01*
X50416666Y-101700000D01*
X50350000Y-101666666D01*
X50316666Y-101633333D01*
X50283333Y-101566666D01*
X50283333Y-101433333D01*
X50316666Y-101366666D01*
X50350000Y-101333333D01*
X50416666Y-101300000D01*
X50550000Y-101300000D01*
X50616666Y-101333333D01*
X50650000Y-101366666D01*
X50683333Y-101433333D01*
X50983333Y-100666666D02*
X50983333Y-101000000D01*
X50650000Y-101033333D01*
X50683333Y-101000000D01*
X50716666Y-100933333D01*
X50716666Y-100766666D01*
X50683333Y-100700000D01*
X50650000Y-100666666D01*
X50583333Y-100633333D01*
X50416666Y-100633333D01*
X50350000Y-100666666D01*
X50316666Y-100700000D01*
X50283333Y-100766666D01*
X50283333Y-100933333D01*
X50316666Y-101000000D01*
X50350000Y-101033333D01*
X50650000Y-100100000D02*
X50616666Y-100000000D01*
X50583333Y-99966666D01*
X50516666Y-99933333D01*
X50416666Y-99933333D01*
X50350000Y-99966666D01*
X50316666Y-100000000D01*
X50283333Y-100066666D01*
X50283333Y-100333333D01*
X50983333Y-100333333D01*
X50983333Y-100100000D01*
X50950000Y-100033333D01*
X50916666Y-100000000D01*
X50850000Y-99966666D01*
X50783333Y-99966666D01*
X50716666Y-100000000D01*
X50683333Y-100033333D01*
X50650000Y-100100000D01*
X50650000Y-100333333D01*
X50283333Y-98700000D02*
X50616666Y-98933333D01*
X50283333Y-99100000D02*
X50983333Y-99100000D01*
X50983333Y-98833333D01*
X50950000Y-98766666D01*
X50916666Y-98733333D01*
X50850000Y-98700000D01*
X50750000Y-98700000D01*
X50683333Y-98733333D01*
X50650000Y-98766666D01*
X50616666Y-98833333D01*
X50616666Y-99100000D01*
X50983333Y-98400000D02*
X50416666Y-98400000D01*
X50350000Y-98366666D01*
X50316666Y-98333333D01*
X50283333Y-98266666D01*
X50283333Y-98133333D01*
X50316666Y-98066666D01*
X50350000Y-98033333D01*
X50416666Y-98000000D01*
X50983333Y-98000000D01*
X50283333Y-97666666D02*
X50983333Y-97666666D01*
X50283333Y-97266666D01*
X50983333Y-97266666D01*
X48350000Y-102266666D02*
X48383333Y-102333333D01*
X48383333Y-102433333D01*
X48350000Y-102533333D01*
X48283333Y-102600000D01*
X48216666Y-102633333D01*
X48083333Y-102666666D01*
X47983333Y-102666666D01*
X47850000Y-102633333D01*
X47783333Y-102600000D01*
X47716666Y-102533333D01*
X47683333Y-102433333D01*
X47683333Y-102366666D01*
X47716666Y-102266666D01*
X47750000Y-102233333D01*
X47983333Y-102233333D01*
X47983333Y-102366666D01*
X47683333Y-101933333D02*
X48383333Y-101933333D01*
X48383333Y-101666666D01*
X48350000Y-101600000D01*
X48316666Y-101566666D01*
X48250000Y-101533333D01*
X48150000Y-101533333D01*
X48083333Y-101566666D01*
X48050000Y-101600000D01*
X48016666Y-101666666D01*
X48016666Y-101933333D01*
X47683333Y-100866666D02*
X47683333Y-101266666D01*
X47683333Y-101066666D02*
X48383333Y-101066666D01*
X48283333Y-101133333D01*
X48216666Y-101200000D01*
X48183333Y-101266666D01*
X48383333Y-100433333D02*
X48383333Y-100366666D01*
X48350000Y-100300000D01*
X48316666Y-100266666D01*
X48250000Y-100233333D01*
X48116666Y-100200000D01*
X47950000Y-100200000D01*
X47816666Y-100233333D01*
X47750000Y-100266666D01*
X47716666Y-100300000D01*
X47683333Y-100366666D01*
X47683333Y-100433333D01*
X47716666Y-100500000D01*
X47750000Y-100533333D01*
X47816666Y-100566666D01*
X47950000Y-100600000D01*
X48116666Y-100600000D01*
X48250000Y-100566666D01*
X48316666Y-100533333D01*
X48350000Y-100500000D01*
X48383333Y-100433333D01*
X48350000Y-99000000D02*
X48383333Y-99066666D01*
X48383333Y-99166666D01*
X48350000Y-99266666D01*
X48283333Y-99333333D01*
X48216666Y-99366666D01*
X48083333Y-99400000D01*
X47983333Y-99400000D01*
X47850000Y-99366666D01*
X47783333Y-99333333D01*
X47716666Y-99266666D01*
X47683333Y-99166666D01*
X47683333Y-99100000D01*
X47716666Y-99000000D01*
X47750000Y-98966666D01*
X47983333Y-98966666D01*
X47983333Y-99100000D01*
X47683333Y-98666666D02*
X48383333Y-98666666D01*
X48383333Y-98400000D01*
X48350000Y-98333333D01*
X48316666Y-98300000D01*
X48250000Y-98266666D01*
X48150000Y-98266666D01*
X48083333Y-98300000D01*
X48050000Y-98333333D01*
X48016666Y-98400000D01*
X48016666Y-98666666D01*
X48316666Y-98000000D02*
X48350000Y-97966666D01*
X48383333Y-97900000D01*
X48383333Y-97733333D01*
X48350000Y-97666666D01*
X48316666Y-97633333D01*
X48250000Y-97600000D01*
X48183333Y-97600000D01*
X48083333Y-97633333D01*
X47683333Y-98033333D01*
X47683333Y-97600000D01*
X47683333Y-96933333D02*
X47683333Y-97333333D01*
X47683333Y-97133333D02*
X48383333Y-97133333D01*
X48283333Y-97200000D01*
X48216666Y-97266666D01*
X48183333Y-97333333D01*
X45750000Y-102266666D02*
X45783333Y-102333333D01*
X45783333Y-102433333D01*
X45750000Y-102533333D01*
X45683333Y-102600000D01*
X45616666Y-102633333D01*
X45483333Y-102666666D01*
X45383333Y-102666666D01*
X45250000Y-102633333D01*
X45183333Y-102600000D01*
X45116666Y-102533333D01*
X45083333Y-102433333D01*
X45083333Y-102366666D01*
X45116666Y-102266666D01*
X45150000Y-102233333D01*
X45383333Y-102233333D01*
X45383333Y-102366666D01*
X45083333Y-101933333D02*
X45783333Y-101933333D01*
X45783333Y-101666666D01*
X45750000Y-101600000D01*
X45716666Y-101566666D01*
X45650000Y-101533333D01*
X45550000Y-101533333D01*
X45483333Y-101566666D01*
X45450000Y-101600000D01*
X45416666Y-101666666D01*
X45416666Y-101933333D01*
X45083333Y-100866666D02*
X45083333Y-101266666D01*
X45083333Y-101066666D02*
X45783333Y-101066666D01*
X45683333Y-101133333D01*
X45616666Y-101200000D01*
X45583333Y-101266666D01*
X45083333Y-100200000D02*
X45083333Y-100600000D01*
X45083333Y-100400000D02*
X45783333Y-100400000D01*
X45683333Y-100466666D01*
X45616666Y-100533333D01*
X45583333Y-100600000D01*
X45750000Y-99000000D02*
X45783333Y-99066666D01*
X45783333Y-99166666D01*
X45750000Y-99266666D01*
X45683333Y-99333333D01*
X45616666Y-99366666D01*
X45483333Y-99400000D01*
X45383333Y-99400000D01*
X45250000Y-99366666D01*
X45183333Y-99333333D01*
X45116666Y-99266666D01*
X45083333Y-99166666D01*
X45083333Y-99100000D01*
X45116666Y-99000000D01*
X45150000Y-98966666D01*
X45383333Y-98966666D01*
X45383333Y-99100000D01*
X45083333Y-98666666D02*
X45783333Y-98666666D01*
X45783333Y-98400000D01*
X45750000Y-98333333D01*
X45716666Y-98300000D01*
X45650000Y-98266666D01*
X45550000Y-98266666D01*
X45483333Y-98300000D01*
X45450000Y-98333333D01*
X45416666Y-98400000D01*
X45416666Y-98666666D01*
X45716666Y-98000000D02*
X45750000Y-97966666D01*
X45783333Y-97900000D01*
X45783333Y-97733333D01*
X45750000Y-97666666D01*
X45716666Y-97633333D01*
X45650000Y-97600000D01*
X45583333Y-97600000D01*
X45483333Y-97633333D01*
X45083333Y-98033333D01*
X45083333Y-97600000D01*
X45783333Y-97166666D02*
X45783333Y-97100000D01*
X45750000Y-97033333D01*
X45716666Y-97000000D01*
X45650000Y-96966666D01*
X45516666Y-96933333D01*
X45350000Y-96933333D01*
X45216666Y-96966666D01*
X45150000Y-97000000D01*
X45116666Y-97033333D01*
X45083333Y-97100000D01*
X45083333Y-97166666D01*
X45116666Y-97233333D01*
X45150000Y-97266666D01*
X45216666Y-97300000D01*
X45350000Y-97333333D01*
X45516666Y-97333333D01*
X45650000Y-97300000D01*
X45716666Y-97266666D01*
X45750000Y-97233333D01*
X45783333Y-97166666D01*
X43350000Y-102266666D02*
X43383333Y-102333333D01*
X43383333Y-102433333D01*
X43350000Y-102533333D01*
X43283333Y-102600000D01*
X43216666Y-102633333D01*
X43083333Y-102666666D01*
X42983333Y-102666666D01*
X42850000Y-102633333D01*
X42783333Y-102600000D01*
X42716666Y-102533333D01*
X42683333Y-102433333D01*
X42683333Y-102366666D01*
X42716666Y-102266666D01*
X42750000Y-102233333D01*
X42983333Y-102233333D01*
X42983333Y-102366666D01*
X42683333Y-101933333D02*
X43383333Y-101933333D01*
X43383333Y-101666666D01*
X43350000Y-101600000D01*
X43316666Y-101566666D01*
X43250000Y-101533333D01*
X43150000Y-101533333D01*
X43083333Y-101566666D01*
X43050000Y-101600000D01*
X43016666Y-101666666D01*
X43016666Y-101933333D01*
X42683333Y-100866666D02*
X42683333Y-101266666D01*
X42683333Y-101066666D02*
X43383333Y-101066666D01*
X43283333Y-101133333D01*
X43216666Y-101200000D01*
X43183333Y-101266666D01*
X43316666Y-100600000D02*
X43350000Y-100566666D01*
X43383333Y-100500000D01*
X43383333Y-100333333D01*
X43350000Y-100266666D01*
X43316666Y-100233333D01*
X43250000Y-100200000D01*
X43183333Y-100200000D01*
X43083333Y-100233333D01*
X42683333Y-100633333D01*
X42683333Y-100200000D01*
X43350000Y-99000000D02*
X43383333Y-99066666D01*
X43383333Y-99166666D01*
X43350000Y-99266666D01*
X43283333Y-99333333D01*
X43216666Y-99366666D01*
X43083333Y-99400000D01*
X42983333Y-99400000D01*
X42850000Y-99366666D01*
X42783333Y-99333333D01*
X42716666Y-99266666D01*
X42683333Y-99166666D01*
X42683333Y-99100000D01*
X42716666Y-99000000D01*
X42750000Y-98966666D01*
X42983333Y-98966666D01*
X42983333Y-99100000D01*
X42683333Y-98666666D02*
X43383333Y-98666666D01*
X43383333Y-98400000D01*
X43350000Y-98333333D01*
X43316666Y-98300000D01*
X43250000Y-98266666D01*
X43150000Y-98266666D01*
X43083333Y-98300000D01*
X43050000Y-98333333D01*
X43016666Y-98400000D01*
X43016666Y-98666666D01*
X42683333Y-97600000D02*
X42683333Y-98000000D01*
X42683333Y-97800000D02*
X43383333Y-97800000D01*
X43283333Y-97866666D01*
X43216666Y-97933333D01*
X43183333Y-98000000D01*
X42683333Y-97266666D02*
X42683333Y-97133333D01*
X42716666Y-97066666D01*
X42750000Y-97033333D01*
X42850000Y-96966666D01*
X42983333Y-96933333D01*
X43250000Y-96933333D01*
X43316666Y-96966666D01*
X43350000Y-97000000D01*
X43383333Y-97066666D01*
X43383333Y-97200000D01*
X43350000Y-97266666D01*
X43316666Y-97300000D01*
X43250000Y-97333333D01*
X43083333Y-97333333D01*
X43016666Y-97300000D01*
X42983333Y-97266666D01*
X42950000Y-97200000D01*
X42950000Y-97066666D01*
X42983333Y-97000000D01*
X43016666Y-96966666D01*
X43083333Y-96933333D01*
X40750000Y-102266666D02*
X40783333Y-102333333D01*
X40783333Y-102433333D01*
X40750000Y-102533333D01*
X40683333Y-102600000D01*
X40616666Y-102633333D01*
X40483333Y-102666666D01*
X40383333Y-102666666D01*
X40250000Y-102633333D01*
X40183333Y-102600000D01*
X40116666Y-102533333D01*
X40083333Y-102433333D01*
X40083333Y-102366666D01*
X40116666Y-102266666D01*
X40150000Y-102233333D01*
X40383333Y-102233333D01*
X40383333Y-102366666D01*
X40083333Y-101933333D02*
X40783333Y-101933333D01*
X40783333Y-101666666D01*
X40750000Y-101600000D01*
X40716666Y-101566666D01*
X40650000Y-101533333D01*
X40550000Y-101533333D01*
X40483333Y-101566666D01*
X40450000Y-101600000D01*
X40416666Y-101666666D01*
X40416666Y-101933333D01*
X40083333Y-100866666D02*
X40083333Y-101266666D01*
X40083333Y-101066666D02*
X40783333Y-101066666D01*
X40683333Y-101133333D01*
X40616666Y-101200000D01*
X40583333Y-101266666D01*
X40783333Y-100633333D02*
X40783333Y-100200000D01*
X40516666Y-100433333D01*
X40516666Y-100333333D01*
X40483333Y-100266666D01*
X40450000Y-100233333D01*
X40383333Y-100200000D01*
X40216666Y-100200000D01*
X40150000Y-100233333D01*
X40116666Y-100266666D01*
X40083333Y-100333333D01*
X40083333Y-100533333D01*
X40116666Y-100600000D01*
X40150000Y-100633333D01*
X40750000Y-99000000D02*
X40783333Y-99066666D01*
X40783333Y-99166666D01*
X40750000Y-99266666D01*
X40683333Y-99333333D01*
X40616666Y-99366666D01*
X40483333Y-99400000D01*
X40383333Y-99400000D01*
X40250000Y-99366666D01*
X40183333Y-99333333D01*
X40116666Y-99266666D01*
X40083333Y-99166666D01*
X40083333Y-99100000D01*
X40116666Y-99000000D01*
X40150000Y-98966666D01*
X40383333Y-98966666D01*
X40383333Y-99100000D01*
X40083333Y-98666666D02*
X40783333Y-98666666D01*
X40783333Y-98400000D01*
X40750000Y-98333333D01*
X40716666Y-98300000D01*
X40650000Y-98266666D01*
X40550000Y-98266666D01*
X40483333Y-98300000D01*
X40450000Y-98333333D01*
X40416666Y-98400000D01*
X40416666Y-98666666D01*
X40083333Y-97600000D02*
X40083333Y-98000000D01*
X40083333Y-97800000D02*
X40783333Y-97800000D01*
X40683333Y-97866666D01*
X40616666Y-97933333D01*
X40583333Y-98000000D01*
X40483333Y-97200000D02*
X40516666Y-97266666D01*
X40550000Y-97300000D01*
X40616666Y-97333333D01*
X40650000Y-97333333D01*
X40716666Y-97300000D01*
X40750000Y-97266666D01*
X40783333Y-97200000D01*
X40783333Y-97066666D01*
X40750000Y-97000000D01*
X40716666Y-96966666D01*
X40650000Y-96933333D01*
X40616666Y-96933333D01*
X40550000Y-96966666D01*
X40516666Y-97000000D01*
X40483333Y-97066666D01*
X40483333Y-97200000D01*
X40450000Y-97266666D01*
X40416666Y-97300000D01*
X40350000Y-97333333D01*
X40216666Y-97333333D01*
X40150000Y-97300000D01*
X40116666Y-97266666D01*
X40083333Y-97200000D01*
X40083333Y-97066666D01*
X40116666Y-97000000D01*
X40150000Y-96966666D01*
X40216666Y-96933333D01*
X40350000Y-96933333D01*
X40416666Y-96966666D01*
X40450000Y-97000000D01*
X40483333Y-97066666D01*
X38150000Y-101666666D02*
X38183333Y-101733333D01*
X38183333Y-101833333D01*
X38150000Y-101933333D01*
X38083333Y-102000000D01*
X38016666Y-102033333D01*
X37883333Y-102066666D01*
X37783333Y-102066666D01*
X37650000Y-102033333D01*
X37583333Y-102000000D01*
X37516666Y-101933333D01*
X37483333Y-101833333D01*
X37483333Y-101766666D01*
X37516666Y-101666666D01*
X37550000Y-101633333D01*
X37783333Y-101633333D01*
X37783333Y-101766666D01*
X37483333Y-101333333D02*
X38183333Y-101333333D01*
X37483333Y-100933333D01*
X38183333Y-100933333D01*
X37483333Y-100600000D02*
X38183333Y-100600000D01*
X38183333Y-100433333D01*
X38150000Y-100333333D01*
X38083333Y-100266666D01*
X38016666Y-100233333D01*
X37883333Y-100200000D01*
X37783333Y-100200000D01*
X37650000Y-100233333D01*
X37583333Y-100266666D01*
X37516666Y-100333333D01*
X37483333Y-100433333D01*
X37483333Y-100600000D01*
X38150000Y-99000000D02*
X38183333Y-99066666D01*
X38183333Y-99166666D01*
X38150000Y-99266666D01*
X38083333Y-99333333D01*
X38016666Y-99366666D01*
X37883333Y-99400000D01*
X37783333Y-99400000D01*
X37650000Y-99366666D01*
X37583333Y-99333333D01*
X37516666Y-99266666D01*
X37483333Y-99166666D01*
X37483333Y-99100000D01*
X37516666Y-99000000D01*
X37550000Y-98966666D01*
X37783333Y-98966666D01*
X37783333Y-99100000D01*
X37483333Y-98666666D02*
X38183333Y-98666666D01*
X37483333Y-98266666D01*
X38183333Y-98266666D01*
X37483333Y-97933333D02*
X38183333Y-97933333D01*
X38183333Y-97766666D01*
X38150000Y-97666666D01*
X38083333Y-97600000D01*
X38016666Y-97566666D01*
X37883333Y-97533333D01*
X37783333Y-97533333D01*
X37650000Y-97566666D01*
X37583333Y-97600000D01*
X37516666Y-97666666D01*
X37483333Y-97766666D01*
X37483333Y-97933333D01*
X35750000Y-102266666D02*
X35783333Y-102333333D01*
X35783333Y-102433333D01*
X35750000Y-102533333D01*
X35683333Y-102600000D01*
X35616666Y-102633333D01*
X35483333Y-102666666D01*
X35383333Y-102666666D01*
X35250000Y-102633333D01*
X35183333Y-102600000D01*
X35116666Y-102533333D01*
X35083333Y-102433333D01*
X35083333Y-102366666D01*
X35116666Y-102266666D01*
X35150000Y-102233333D01*
X35383333Y-102233333D01*
X35383333Y-102366666D01*
X35083333Y-101933333D02*
X35783333Y-101933333D01*
X35783333Y-101666666D01*
X35750000Y-101600000D01*
X35716666Y-101566666D01*
X35650000Y-101533333D01*
X35550000Y-101533333D01*
X35483333Y-101566666D01*
X35450000Y-101600000D01*
X35416666Y-101666666D01*
X35416666Y-101933333D01*
X35083333Y-100866666D02*
X35083333Y-101266666D01*
X35083333Y-101066666D02*
X35783333Y-101066666D01*
X35683333Y-101133333D01*
X35616666Y-101200000D01*
X35583333Y-101266666D01*
X35550000Y-100266666D02*
X35083333Y-100266666D01*
X35816666Y-100433333D02*
X35316666Y-100600000D01*
X35316666Y-100166666D01*
X35750000Y-99000000D02*
X35783333Y-99066666D01*
X35783333Y-99166666D01*
X35750000Y-99266666D01*
X35683333Y-99333333D01*
X35616666Y-99366666D01*
X35483333Y-99400000D01*
X35383333Y-99400000D01*
X35250000Y-99366666D01*
X35183333Y-99333333D01*
X35116666Y-99266666D01*
X35083333Y-99166666D01*
X35083333Y-99100000D01*
X35116666Y-99000000D01*
X35150000Y-98966666D01*
X35383333Y-98966666D01*
X35383333Y-99100000D01*
X35083333Y-98666666D02*
X35783333Y-98666666D01*
X35783333Y-98400000D01*
X35750000Y-98333333D01*
X35716666Y-98300000D01*
X35650000Y-98266666D01*
X35550000Y-98266666D01*
X35483333Y-98300000D01*
X35450000Y-98333333D01*
X35416666Y-98400000D01*
X35416666Y-98666666D01*
X35083333Y-97600000D02*
X35083333Y-98000000D01*
X35083333Y-97800000D02*
X35783333Y-97800000D01*
X35683333Y-97866666D01*
X35616666Y-97933333D01*
X35583333Y-98000000D01*
X35783333Y-97366666D02*
X35783333Y-96900000D01*
X35083333Y-97200000D01*
X33150000Y-102266666D02*
X33183333Y-102333333D01*
X33183333Y-102433333D01*
X33150000Y-102533333D01*
X33083333Y-102600000D01*
X33016666Y-102633333D01*
X32883333Y-102666666D01*
X32783333Y-102666666D01*
X32650000Y-102633333D01*
X32583333Y-102600000D01*
X32516666Y-102533333D01*
X32483333Y-102433333D01*
X32483333Y-102366666D01*
X32516666Y-102266666D01*
X32550000Y-102233333D01*
X32783333Y-102233333D01*
X32783333Y-102366666D01*
X32483333Y-101933333D02*
X33183333Y-101933333D01*
X33183333Y-101666666D01*
X33150000Y-101600000D01*
X33116666Y-101566666D01*
X33050000Y-101533333D01*
X32950000Y-101533333D01*
X32883333Y-101566666D01*
X32850000Y-101600000D01*
X32816666Y-101666666D01*
X32816666Y-101933333D01*
X32483333Y-100866666D02*
X32483333Y-101266666D01*
X32483333Y-101066666D02*
X33183333Y-101066666D01*
X33083333Y-101133333D01*
X33016666Y-101200000D01*
X32983333Y-101266666D01*
X33183333Y-100233333D02*
X33183333Y-100566666D01*
X32850000Y-100600000D01*
X32883333Y-100566666D01*
X32916666Y-100500000D01*
X32916666Y-100333333D01*
X32883333Y-100266666D01*
X32850000Y-100233333D01*
X32783333Y-100200000D01*
X32616666Y-100200000D01*
X32550000Y-100233333D01*
X32516666Y-100266666D01*
X32483333Y-100333333D01*
X32483333Y-100500000D01*
X32516666Y-100566666D01*
X32550000Y-100600000D01*
X33150000Y-99000000D02*
X33183333Y-99066666D01*
X33183333Y-99166666D01*
X33150000Y-99266666D01*
X33083333Y-99333333D01*
X33016666Y-99366666D01*
X32883333Y-99400000D01*
X32783333Y-99400000D01*
X32650000Y-99366666D01*
X32583333Y-99333333D01*
X32516666Y-99266666D01*
X32483333Y-99166666D01*
X32483333Y-99100000D01*
X32516666Y-99000000D01*
X32550000Y-98966666D01*
X32783333Y-98966666D01*
X32783333Y-99100000D01*
X32483333Y-98666666D02*
X33183333Y-98666666D01*
X33183333Y-98400000D01*
X33150000Y-98333333D01*
X33116666Y-98300000D01*
X33050000Y-98266666D01*
X32950000Y-98266666D01*
X32883333Y-98300000D01*
X32850000Y-98333333D01*
X32816666Y-98400000D01*
X32816666Y-98666666D01*
X32483333Y-97600000D02*
X32483333Y-98000000D01*
X32483333Y-97800000D02*
X33183333Y-97800000D01*
X33083333Y-97866666D01*
X33016666Y-97933333D01*
X32983333Y-98000000D01*
X33183333Y-97000000D02*
X33183333Y-97133333D01*
X33150000Y-97200000D01*
X33116666Y-97233333D01*
X33016666Y-97300000D01*
X32883333Y-97333333D01*
X32616666Y-97333333D01*
X32550000Y-97300000D01*
X32516666Y-97266666D01*
X32483333Y-97200000D01*
X32483333Y-97066666D01*
X32516666Y-97000000D01*
X32550000Y-96966666D01*
X32616666Y-96933333D01*
X32783333Y-96933333D01*
X32850000Y-96966666D01*
X32883333Y-97000000D01*
X32916666Y-97066666D01*
X32916666Y-97200000D01*
X32883333Y-97266666D01*
X32850000Y-97300000D01*
X32783333Y-97333333D01*
X81277142Y-81532380D02*
X81277142Y-80532380D01*
X80896190Y-80532380D01*
X80800952Y-80580000D01*
X80753333Y-80627619D01*
X80705714Y-80722857D01*
X80705714Y-80865714D01*
X80753333Y-80960952D01*
X80800952Y-81008571D01*
X80896190Y-81056190D01*
X81277142Y-81056190D01*
X80277142Y-81532380D02*
X80277142Y-80865714D01*
X80277142Y-80532380D02*
X80324761Y-80580000D01*
X80277142Y-80627619D01*
X80229523Y-80580000D01*
X80277142Y-80532380D01*
X80277142Y-80627619D01*
X79372380Y-81484761D02*
X79467619Y-81532380D01*
X79658095Y-81532380D01*
X79753333Y-81484761D01*
X79800952Y-81437142D01*
X79848571Y-81341904D01*
X79848571Y-81056190D01*
X79800952Y-80960952D01*
X79753333Y-80913333D01*
X79658095Y-80865714D01*
X79467619Y-80865714D01*
X79372380Y-80913333D01*
X78800952Y-81532380D02*
X78896190Y-81484761D01*
X78943809Y-81437142D01*
X78991428Y-81341904D01*
X78991428Y-81056190D01*
X78943809Y-80960952D01*
X78896190Y-80913333D01*
X78800952Y-80865714D01*
X78658095Y-80865714D01*
X78562857Y-80913333D01*
X78515238Y-80960952D01*
X78467619Y-81056190D01*
X78467619Y-81341904D01*
X78515238Y-81437142D01*
X78562857Y-81484761D01*
X78658095Y-81532380D01*
X78800952Y-81532380D01*
X77277142Y-81532380D02*
X77277142Y-80865714D01*
X77277142Y-81056190D02*
X77229523Y-80960952D01*
X77181904Y-80913333D01*
X77086666Y-80865714D01*
X76991428Y-80865714D01*
X76277142Y-81484761D02*
X76372380Y-81532380D01*
X76562857Y-81532380D01*
X76658095Y-81484761D01*
X76705714Y-81389523D01*
X76705714Y-81008571D01*
X76658095Y-80913333D01*
X76562857Y-80865714D01*
X76372380Y-80865714D01*
X76277142Y-80913333D01*
X76229523Y-81008571D01*
X76229523Y-81103809D01*
X76705714Y-81199047D01*
X75372380Y-81532380D02*
X75372380Y-80532380D01*
X75372380Y-81484761D02*
X75467619Y-81532380D01*
X75658095Y-81532380D01*
X75753333Y-81484761D01*
X75800952Y-81437142D01*
X75848571Y-81341904D01*
X75848571Y-81056190D01*
X75800952Y-80960952D01*
X75753333Y-80913333D01*
X75658095Y-80865714D01*
X75467619Y-80865714D01*
X75372380Y-80913333D01*
X74467619Y-80865714D02*
X74467619Y-81532380D01*
X74896190Y-80865714D02*
X74896190Y-81389523D01*
X74848571Y-81484761D01*
X74753333Y-81532380D01*
X74610476Y-81532380D01*
X74515238Y-81484761D01*
X74467619Y-81437142D01*
X73562857Y-81484761D02*
X73658095Y-81532380D01*
X73848571Y-81532380D01*
X73943809Y-81484761D01*
X73991428Y-81437142D01*
X74039047Y-81341904D01*
X74039047Y-81056190D01*
X73991428Y-80960952D01*
X73943809Y-80913333D01*
X73848571Y-80865714D01*
X73658095Y-80865714D01*
X73562857Y-80913333D01*
X72372380Y-81532380D02*
X72372380Y-80865714D01*
X72372380Y-81056190D02*
X72324761Y-80960952D01*
X72277142Y-80913333D01*
X72181904Y-80865714D01*
X72086666Y-80865714D01*
X71753333Y-81532380D02*
X71753333Y-80865714D01*
X71753333Y-80532380D02*
X71800952Y-80580000D01*
X71753333Y-80627619D01*
X71705714Y-80580000D01*
X71753333Y-80532380D01*
X71753333Y-80627619D01*
X71324761Y-81484761D02*
X71229523Y-81532380D01*
X71039047Y-81532380D01*
X70943809Y-81484761D01*
X70896190Y-81389523D01*
X70896190Y-81341904D01*
X70943809Y-81246666D01*
X71039047Y-81199047D01*
X71181904Y-81199047D01*
X71277142Y-81151428D01*
X71324761Y-81056190D01*
X71324761Y-81008571D01*
X71277142Y-80913333D01*
X71181904Y-80865714D01*
X71039047Y-80865714D01*
X70943809Y-80913333D01*
X70086666Y-81484761D02*
X70181904Y-81532380D01*
X70372380Y-81532380D01*
X70467619Y-81484761D01*
X70515238Y-81389523D01*
X70515238Y-81008571D01*
X70467619Y-80913333D01*
X70372380Y-80865714D01*
X70181904Y-80865714D01*
X70086666Y-80913333D01*
X70039047Y-81008571D01*
X70039047Y-81103809D01*
X70515238Y-81199047D01*
X69610476Y-81532380D02*
X69610476Y-80865714D01*
X69610476Y-81056190D02*
X69562857Y-80960952D01*
X69515238Y-80913333D01*
X69420000Y-80865714D01*
X69324761Y-80865714D01*
X68324761Y-80865714D02*
X68086666Y-81532380D01*
X67848571Y-80865714D01*
X66943809Y-81532380D02*
X67515238Y-81532380D01*
X67229523Y-81532380D02*
X67229523Y-80532380D01*
X67324761Y-80675238D01*
X67420000Y-80770476D01*
X67515238Y-80818095D01*
X66515238Y-81437142D02*
X66467619Y-81484761D01*
X66515238Y-81532380D01*
X66562857Y-81484761D01*
X66515238Y-81437142D01*
X66515238Y-81532380D01*
X65848571Y-80532380D02*
X65753333Y-80532380D01*
X65658095Y-80580000D01*
X65610476Y-80627619D01*
X65562857Y-80722857D01*
X65515238Y-80913333D01*
X65515238Y-81151428D01*
X65562857Y-81341904D01*
X65610476Y-81437142D01*
X65658095Y-81484761D01*
X65753333Y-81532380D01*
X65848571Y-81532380D01*
X65943809Y-81484761D01*
X65991428Y-81437142D01*
X66039047Y-81341904D01*
X66086666Y-81151428D01*
X66086666Y-80913333D01*
X66039047Y-80722857D01*
X65991428Y-80627619D01*
X65943809Y-80580000D01*
X65848571Y-80532380D01*
D11*
G36*
X64094933Y-90215875D02*
G01*
X64114632Y-90330968D01*
X64162553Y-90523060D01*
X64239520Y-90707134D01*
X64346255Y-90884495D01*
X64483480Y-91056451D01*
X64560560Y-91137624D01*
X64694504Y-91262746D01*
X64828099Y-91367728D01*
X64971923Y-91460076D01*
X65136556Y-91547297D01*
X65140937Y-91549432D01*
X65399408Y-91657873D01*
X65670847Y-91739276D01*
X65951535Y-91793615D01*
X66237755Y-91820863D01*
X66525788Y-91820995D01*
X66811916Y-91793984D01*
X67092421Y-91739803D01*
X67363584Y-91658427D01*
X67586411Y-91566704D01*
X67644423Y-91540215D01*
X67689820Y-91520814D01*
X67716345Y-91511102D01*
X67720625Y-91510861D01*
X67713912Y-91525830D01*
X67695357Y-91564397D01*
X67667338Y-91621773D01*
X67632231Y-91693167D01*
X67592414Y-91773790D01*
X67550262Y-91858851D01*
X67508154Y-91943560D01*
X67468465Y-92023128D01*
X67433573Y-92092764D01*
X67405854Y-92147679D01*
X67387686Y-92183081D01*
X67381505Y-92194276D01*
X67365884Y-92197104D01*
X67320973Y-92204823D01*
X67248797Y-92217091D01*
X67151382Y-92233569D01*
X67030754Y-92253915D01*
X66888937Y-92277788D01*
X66727959Y-92304849D01*
X66549845Y-92334756D01*
X66356620Y-92367168D01*
X66150309Y-92401745D01*
X65932940Y-92438146D01*
X65706536Y-92476030D01*
X65696562Y-92477698D01*
X65406710Y-92526354D01*
X65141159Y-92571288D01*
X64900638Y-92612371D01*
X64685877Y-92649474D01*
X64497604Y-92682466D01*
X64336549Y-92711218D01*
X64203441Y-92735600D01*
X64099010Y-92755482D01*
X64023985Y-92770736D01*
X63979095Y-92781230D01*
X63966187Y-92785563D01*
X63929174Y-92817074D01*
X63893191Y-92865228D01*
X63881854Y-92885668D01*
X63855821Y-92964757D01*
X63860593Y-93037980D01*
X63896565Y-93108042D01*
X63918223Y-93134100D01*
X63954289Y-93168301D01*
X63990621Y-93186420D01*
X64041488Y-93194927D01*
X64054853Y-93196060D01*
X64079941Y-93195503D01*
X64124607Y-93191293D01*
X64189925Y-93183264D01*
X64276967Y-93171247D01*
X64386806Y-93155078D01*
X64520516Y-93134588D01*
X64679169Y-93109612D01*
X64863838Y-93079983D01*
X65075597Y-93045534D01*
X65315519Y-93006098D01*
X65584676Y-92961509D01*
X65853019Y-92916799D01*
X66122039Y-92871899D01*
X66361588Y-92831919D01*
X66573499Y-92796475D01*
X66759606Y-92765183D01*
X66921742Y-92737660D01*
X67061739Y-92713523D01*
X67181431Y-92692387D01*
X67282652Y-92673870D01*
X67367234Y-92657588D01*
X67437010Y-92643157D01*
X67493814Y-92630194D01*
X67539478Y-92618315D01*
X67575837Y-92607136D01*
X67604723Y-92596275D01*
X67627968Y-92585348D01*
X67647408Y-92573971D01*
X67664873Y-92561760D01*
X67682199Y-92548332D01*
X67701217Y-92533303D01*
X67706863Y-92528935D01*
X67720759Y-92509773D01*
X67746468Y-92466123D01*
X67781815Y-92402000D01*
X67824628Y-92321420D01*
X67872733Y-92228399D01*
X67918133Y-92138605D01*
X67967942Y-92039673D01*
X68013107Y-91951134D01*
X68051715Y-91876643D01*
X68081854Y-91819856D01*
X68101610Y-91784431D01*
X68109002Y-91773874D01*
X68107316Y-91790221D01*
X68099999Y-91834031D01*
X68087736Y-91901654D01*
X68071212Y-91989437D01*
X68051111Y-92093730D01*
X68028117Y-92210879D01*
X68010257Y-92300625D01*
X67905988Y-92821688D01*
X66782845Y-93383626D01*
X66571968Y-93489132D01*
X66387650Y-93581474D01*
X66228082Y-93661748D01*
X66091455Y-93731050D01*
X65975961Y-93790474D01*
X65879791Y-93841116D01*
X65801136Y-93884073D01*
X65738187Y-93920438D01*
X65689136Y-93951309D01*
X65652173Y-93977780D01*
X65625490Y-94000948D01*
X65607278Y-94021906D01*
X65595728Y-94041752D01*
X65589032Y-94061581D01*
X65585380Y-94082488D01*
X65582964Y-94105569D01*
X65582458Y-94110668D01*
X65588731Y-94191787D01*
X65621980Y-94261837D01*
X65678010Y-94315798D01*
X65752627Y-94348649D01*
X65786318Y-94354707D01*
X65799894Y-94355546D01*
X65815352Y-94354478D01*
X65834598Y-94350618D01*
X65859535Y-94343078D01*
X65892070Y-94330970D01*
X65934108Y-94313409D01*
X65987554Y-94289507D01*
X66054312Y-94258376D01*
X66136288Y-94219130D01*
X66235387Y-94170883D01*
X66353515Y-94112746D01*
X66492576Y-94043833D01*
X66654475Y-93963256D01*
X66841118Y-93870130D01*
X67033392Y-93774070D01*
X68210896Y-93185592D01*
X68335096Y-93017812D01*
X68505023Y-92160562D01*
X68537025Y-91999349D01*
X68567352Y-91847023D01*
X68595413Y-91706520D01*
X68620618Y-91580771D01*
X68642377Y-91472709D01*
X68660101Y-91385268D01*
X68673199Y-91321381D01*
X68681081Y-91283981D01*
X68683045Y-91275531D01*
X68691219Y-91254025D01*
X68700327Y-91245415D01*
X68711080Y-91251749D01*
X68724194Y-91275074D01*
X68740381Y-91317437D01*
X68760354Y-91380888D01*
X68784827Y-91467472D01*
X68814513Y-91579238D01*
X68850126Y-91718234D01*
X68883465Y-91850822D01*
X68922260Y-92005383D01*
X68954541Y-92132280D01*
X68981273Y-92234706D01*
X69003423Y-92315851D01*
X69021956Y-92378909D01*
X69037839Y-92427072D01*
X69052037Y-92463531D01*
X69065517Y-92491480D01*
X69079244Y-92514109D01*
X69087853Y-92526263D01*
X69102447Y-92544709D01*
X69119386Y-92562363D01*
X69141422Y-92580797D01*
X69171307Y-92601585D01*
X69211792Y-92626298D01*
X69265630Y-92656508D01*
X69335572Y-92693789D01*
X69424371Y-92739713D01*
X69534777Y-92795851D01*
X69669544Y-92863778D01*
X69744020Y-92901195D01*
X69890632Y-92974756D01*
X70011757Y-93035275D01*
X70110269Y-93083987D01*
X70189038Y-93122129D01*
X70250937Y-93150934D01*
X70298839Y-93171641D01*
X70335614Y-93185484D01*
X70364136Y-93193698D01*
X70387277Y-93197521D01*
X70407907Y-93198187D01*
X70428901Y-93196932D01*
X70430965Y-93196763D01*
X70493215Y-93186637D01*
X70538086Y-93165193D01*
X70561103Y-93145911D01*
X70605663Y-93084028D01*
X70628379Y-93010372D01*
X70628628Y-92934065D01*
X70605788Y-92864225D01*
X70582574Y-92831220D01*
X70562386Y-92817267D01*
X70517006Y-92791008D01*
X70449716Y-92754184D01*
X70363799Y-92708536D01*
X70262537Y-92655804D01*
X70149213Y-92597728D01*
X70027108Y-92536049D01*
X70004906Y-92524926D01*
X69455501Y-92250038D01*
X69344058Y-91804456D01*
X69315853Y-91690916D01*
X69290668Y-91588045D01*
X69269411Y-91499673D01*
X69252988Y-91429629D01*
X69242309Y-91381741D01*
X69238281Y-91359841D01*
X69238422Y-91358875D01*
X69248539Y-91371458D01*
X69273767Y-91406760D01*
X69311567Y-91461112D01*
X69359397Y-91530841D01*
X69414717Y-91612276D01*
X69449935Y-91664468D01*
X69531684Y-91783879D01*
X69598680Y-91877169D01*
X69652000Y-91945739D01*
X69692720Y-91990991D01*
X69716042Y-92010744D01*
X69734450Y-92020398D01*
X69765408Y-92032530D01*
X69810731Y-92047632D01*
X69872232Y-92066195D01*
X69951725Y-92088711D01*
X70051026Y-92115673D01*
X70171948Y-92147571D01*
X70316304Y-92184897D01*
X70485911Y-92228143D01*
X70682580Y-92277802D01*
X70908128Y-92334364D01*
X70931266Y-92340150D01*
X71118546Y-92386784D01*
X71297926Y-92431083D01*
X71466864Y-92472444D01*
X71622822Y-92510260D01*
X71763260Y-92543928D01*
X71885637Y-92572843D01*
X71987414Y-92596400D01*
X72066051Y-92613994D01*
X72119008Y-92625020D01*
X72143744Y-92628874D01*
X72143826Y-92628874D01*
X72211621Y-92615562D01*
X72275924Y-92580498D01*
X72324391Y-92530992D01*
X72332697Y-92517005D01*
X72354664Y-92444716D01*
X72352624Y-92368188D01*
X72329002Y-92296162D01*
X72286222Y-92237384D01*
X72247400Y-92209428D01*
X72224381Y-92201572D01*
X72173184Y-92186789D01*
X72096454Y-92165769D01*
X71996838Y-92139203D01*
X71876978Y-92107782D01*
X71739521Y-92072197D01*
X71587112Y-92033138D01*
X71422395Y-91991296D01*
X71248015Y-91947362D01*
X71147354Y-91922159D01*
X70968344Y-91877427D01*
X70797183Y-91834633D01*
X70636556Y-91794448D01*
X70489149Y-91757547D01*
X70357648Y-91724601D01*
X70244737Y-91696285D01*
X70153102Y-91673270D01*
X70085429Y-91656230D01*
X70044404Y-91645839D01*
X70034190Y-91643206D01*
X70012080Y-91635698D01*
X69991158Y-91623270D01*
X69968295Y-91602222D01*
X69940359Y-91568857D01*
X69904221Y-91519480D01*
X69856748Y-91450391D01*
X69802950Y-91370111D01*
X69749196Y-91289356D01*
X69701143Y-91216968D01*
X69661710Y-91157360D01*
X69633817Y-91114947D01*
X69620384Y-91094142D01*
X69619997Y-91093503D01*
X69626785Y-91074937D01*
X69664040Y-91047861D01*
X69708068Y-91023951D01*
X69855380Y-90939450D01*
X69992989Y-90840919D01*
X70115675Y-90733019D01*
X70218215Y-90620407D01*
X70295388Y-90507744D01*
X70303786Y-90492394D01*
X70366413Y-90343067D01*
X70398331Y-90192109D01*
X70400379Y-90041463D01*
X70373396Y-89893071D01*
X70318220Y-89748877D01*
X70235692Y-89610823D01*
X70126649Y-89480853D01*
X69991931Y-89360908D01*
X69832376Y-89252932D01*
X69748532Y-89206605D01*
X69684296Y-89172416D01*
X69644581Y-89148114D01*
X69625083Y-89130270D01*
X69621500Y-89115456D01*
X69624516Y-89107782D01*
X69637845Y-89086598D01*
X69665975Y-89043747D01*
X69705855Y-88983816D01*
X69754430Y-88911389D01*
X69808649Y-88831056D01*
X69811171Y-88827331D01*
X69982812Y-88573850D01*
X71102000Y-88294382D01*
X71285811Y-88248340D01*
X71461211Y-88204128D01*
X71625672Y-88162400D01*
X71776666Y-88123810D01*
X71911665Y-88089014D01*
X72028144Y-88058664D01*
X72123574Y-88033416D01*
X72195428Y-88013923D01*
X72241178Y-88000839D01*
X72257755Y-87995193D01*
X72307182Y-87951830D01*
X72340207Y-87889189D01*
X72354911Y-87816244D01*
X72349375Y-87741972D01*
X72325017Y-87680614D01*
X72272019Y-87622771D01*
X72200524Y-87588506D01*
X72138632Y-87580158D01*
X72113709Y-87583891D01*
X72060566Y-87594839D01*
X71981754Y-87612395D01*
X71879823Y-87635951D01*
X71757324Y-87664898D01*
X71616808Y-87698629D01*
X71460826Y-87736536D01*
X71291929Y-87778011D01*
X71112666Y-87822447D01*
X70927375Y-87868788D01*
X70699087Y-87926276D01*
X70499852Y-87976783D01*
X70327864Y-88020803D01*
X70181317Y-88058825D01*
X70058405Y-88091342D01*
X69957322Y-88118845D01*
X69876264Y-88141826D01*
X69813423Y-88160777D01*
X69766995Y-88176189D01*
X69735173Y-88188553D01*
X69716152Y-88198362D01*
X69715703Y-88198660D01*
X69684468Y-88226229D01*
X69642220Y-88274922D01*
X69587690Y-88346387D01*
X69519613Y-88442274D01*
X69449599Y-88545031D01*
X69391125Y-88631685D01*
X69338631Y-88708797D01*
X69294656Y-88772695D01*
X69261739Y-88819705D01*
X69242417Y-88846153D01*
X69238422Y-88850625D01*
X69240632Y-88835873D01*
X69249722Y-88794170D01*
X69264783Y-88729346D01*
X69284908Y-88645229D01*
X69309190Y-88545649D01*
X69336719Y-88434436D01*
X69344058Y-88405044D01*
X69455500Y-87959464D01*
X69996969Y-87689066D01*
X70119773Y-87627350D01*
X70234700Y-87568847D01*
X70338380Y-87515330D01*
X70427442Y-87468568D01*
X70498517Y-87430334D01*
X70548233Y-87402399D01*
X70573222Y-87386535D01*
X70574334Y-87385586D01*
X70616070Y-87327818D01*
X70632852Y-87260120D01*
X70626912Y-87188959D01*
X70600483Y-87120807D01*
X70555797Y-87062132D01*
X70495086Y-87019403D01*
X70441981Y-87002008D01*
X70425578Y-86999867D01*
X70407418Y-87000408D01*
X70384755Y-87004829D01*
X70354840Y-87014324D01*
X70314928Y-87030092D01*
X70262272Y-87053328D01*
X70194125Y-87085228D01*
X70107741Y-87126989D01*
X70000373Y-87179808D01*
X69869274Y-87244879D01*
X69764162Y-87297240D01*
X69609407Y-87374555D01*
X69480500Y-87439536D01*
X69374785Y-87493841D01*
X69289608Y-87539127D01*
X69222314Y-87577051D01*
X69170250Y-87609269D01*
X69130760Y-87637439D01*
X69101191Y-87663218D01*
X69078887Y-87688262D01*
X69061194Y-87714229D01*
X69045458Y-87742776D01*
X69043139Y-87747312D01*
X69035784Y-87769457D01*
X69021793Y-87818859D01*
X69002100Y-87891944D01*
X68977643Y-87985137D01*
X68949358Y-88094861D01*
X68918183Y-88217542D01*
X68885055Y-88349604D01*
X68879874Y-88370406D01*
X68839554Y-88531245D01*
X68805675Y-88663201D01*
X68777521Y-88768324D01*
X68754376Y-88848665D01*
X68735524Y-88906272D01*
X68720250Y-88943197D01*
X68707836Y-88961489D01*
X68697568Y-88963197D01*
X68688730Y-88950373D01*
X68683045Y-88933968D01*
X68678512Y-88913546D01*
X68668415Y-88864909D01*
X68653345Y-88790990D01*
X68633892Y-88694723D01*
X68610646Y-88579040D01*
X68584196Y-88446874D01*
X68555133Y-88301158D01*
X68524047Y-88144827D01*
X68505023Y-88048937D01*
X68335096Y-87191687D01*
X68211148Y-87024241D01*
X67037241Y-86437245D01*
X66821005Y-86329121D01*
X66631292Y-86234376D01*
X66466203Y-86152238D01*
X66323842Y-86081931D01*
X66202309Y-86022682D01*
X66099709Y-85973715D01*
X66014142Y-85934258D01*
X65943712Y-85903534D01*
X65886520Y-85880771D01*
X65840670Y-85865193D01*
X65804262Y-85856026D01*
X65775400Y-85852497D01*
X65752186Y-85853830D01*
X65732722Y-85859251D01*
X65715111Y-85867986D01*
X65697454Y-85879260D01*
X65687003Y-85886285D01*
X65628347Y-85942266D01*
X65592582Y-86012187D01*
X65581260Y-86088473D01*
X65595928Y-86163548D01*
X65620950Y-86209239D01*
X65635816Y-86222184D01*
X65667825Y-86243048D01*
X65718190Y-86272470D01*
X65788124Y-86311088D01*
X65878840Y-86359540D01*
X65991553Y-86418463D01*
X66127475Y-86488496D01*
X66287819Y-86570276D01*
X66473800Y-86664441D01*
X66686630Y-86771629D01*
X66777920Y-86817475D01*
X67903187Y-87382187D01*
X68008945Y-87906062D01*
X68033932Y-88030381D01*
X68056627Y-88144353D01*
X68076326Y-88244358D01*
X68092326Y-88326778D01*
X68103921Y-88387994D01*
X68110408Y-88424387D01*
X68111508Y-88433207D01*
X68103888Y-88420514D01*
X68084081Y-88383080D01*
X68053986Y-88324620D01*
X68015502Y-88248846D01*
X67970528Y-88159473D01*
X67926375Y-88071089D01*
X67870339Y-87958935D01*
X67825878Y-87871432D01*
X67790597Y-87804720D01*
X67762099Y-87754940D01*
X67737989Y-87718232D01*
X67715871Y-87690736D01*
X67693349Y-87668594D01*
X67668026Y-87647945D01*
X67659795Y-87641668D01*
X67575153Y-87577635D01*
X65826232Y-87285981D01*
X65546417Y-87239385D01*
X65296296Y-87197888D01*
X65074265Y-87161245D01*
X64878723Y-87129210D01*
X64708065Y-87101538D01*
X64560689Y-87077982D01*
X64434992Y-87058299D01*
X64329371Y-87042241D01*
X64242223Y-87029563D01*
X64171945Y-87020020D01*
X64116934Y-87013367D01*
X64075587Y-87009356D01*
X64046300Y-87007744D01*
X64027472Y-87008284D01*
X64020993Y-87009410D01*
X63956228Y-87041286D01*
X63900173Y-87095241D01*
X63862803Y-87161628D01*
X63862378Y-87162833D01*
X63854574Y-87227479D01*
X63869444Y-87296872D01*
X63902393Y-87362091D01*
X63948828Y-87414214D01*
X64004157Y-87444321D01*
X64007809Y-87445269D01*
X64028336Y-87449065D01*
X64078091Y-87457693D01*
X64154977Y-87470803D01*
X64256899Y-87488042D01*
X64381760Y-87509059D01*
X64527465Y-87533504D01*
X64691916Y-87561024D01*
X64873018Y-87591270D01*
X65068675Y-87623889D01*
X65276791Y-87658530D01*
X65495268Y-87694843D01*
X65709718Y-87730436D01*
X65935285Y-87767891D01*
X66151937Y-87803947D01*
X66357631Y-87838261D01*
X66550325Y-87870487D01*
X66727977Y-87900282D01*
X66888544Y-87927301D01*
X67029983Y-87951200D01*
X67150253Y-87971634D01*
X67247312Y-87988260D01*
X67319116Y-88000732D01*
X67363624Y-88008707D01*
X67378786Y-88011822D01*
X67387640Y-88027696D01*
X67407993Y-88067075D01*
X67437465Y-88125170D01*
X67473677Y-88197190D01*
X67514248Y-88278345D01*
X67556798Y-88363845D01*
X67598949Y-88448899D01*
X67638320Y-88528719D01*
X67672532Y-88598513D01*
X67699204Y-88653491D01*
X67715957Y-88688863D01*
X67720625Y-88699896D01*
X67707797Y-88697648D01*
X67674228Y-88683695D01*
X67628997Y-88661953D01*
X67395691Y-88559389D01*
X67147437Y-88480172D01*
X66881279Y-88423519D01*
X66595060Y-88388715D01*
X66336992Y-88380470D01*
X66076160Y-88396468D01*
X65816995Y-88435472D01*
X65563926Y-88496246D01*
X65321382Y-88577552D01*
X65093793Y-88678154D01*
X64885589Y-88796813D01*
X64728187Y-88910124D01*
X64598322Y-89026089D01*
X64474904Y-89158136D01*
X64363922Y-89298801D01*
X64271366Y-89440616D01*
X64214158Y-89550884D01*
X64188982Y-89613969D01*
X64163045Y-89690955D01*
X64138822Y-89772954D01*
X64118788Y-89851076D01*
X64105417Y-89916432D01*
X64101125Y-89956959D01*
X64101125Y-89993625D01*
X62958125Y-89993625D01*
X62958125Y-90215875D01*
X64094933Y-90215875D01*
G37*
X64094933Y-90215875D02*
X64114632Y-90330968D01*
X64162553Y-90523060D01*
X64239520Y-90707134D01*
X64346255Y-90884495D01*
X64483480Y-91056451D01*
X64560560Y-91137624D01*
X64694504Y-91262746D01*
X64828099Y-91367728D01*
X64971923Y-91460076D01*
X65136556Y-91547297D01*
X65140937Y-91549432D01*
X65399408Y-91657873D01*
X65670847Y-91739276D01*
X65951535Y-91793615D01*
X66237755Y-91820863D01*
X66525788Y-91820995D01*
X66811916Y-91793984D01*
X67092421Y-91739803D01*
X67363584Y-91658427D01*
X67586411Y-91566704D01*
X67644423Y-91540215D01*
X67689820Y-91520814D01*
X67716345Y-91511102D01*
X67720625Y-91510861D01*
X67713912Y-91525830D01*
X67695357Y-91564397D01*
X67667338Y-91621773D01*
X67632231Y-91693167D01*
X67592414Y-91773790D01*
X67550262Y-91858851D01*
X67508154Y-91943560D01*
X67468465Y-92023128D01*
X67433573Y-92092764D01*
X67405854Y-92147679D01*
X67387686Y-92183081D01*
X67381505Y-92194276D01*
X67365884Y-92197104D01*
X67320973Y-92204823D01*
X67248797Y-92217091D01*
X67151382Y-92233569D01*
X67030754Y-92253915D01*
X66888937Y-92277788D01*
X66727959Y-92304849D01*
X66549845Y-92334756D01*
X66356620Y-92367168D01*
X66150309Y-92401745D01*
X65932940Y-92438146D01*
X65706536Y-92476030D01*
X65696562Y-92477698D01*
X65406710Y-92526354D01*
X65141159Y-92571288D01*
X64900638Y-92612371D01*
X64685877Y-92649474D01*
X64497604Y-92682466D01*
X64336549Y-92711218D01*
X64203441Y-92735600D01*
X64099010Y-92755482D01*
X64023985Y-92770736D01*
X63979095Y-92781230D01*
X63966187Y-92785563D01*
X63929174Y-92817074D01*
X63893191Y-92865228D01*
X63881854Y-92885668D01*
X63855821Y-92964757D01*
X63860593Y-93037980D01*
X63896565Y-93108042D01*
X63918223Y-93134100D01*
X63954289Y-93168301D01*
X63990621Y-93186420D01*
X64041488Y-93194927D01*
X64054853Y-93196060D01*
X64079941Y-93195503D01*
X64124607Y-93191293D01*
X64189925Y-93183264D01*
X64276967Y-93171247D01*
X64386806Y-93155078D01*
X64520516Y-93134588D01*
X64679169Y-93109612D01*
X64863838Y-93079983D01*
X65075597Y-93045534D01*
X65315519Y-93006098D01*
X65584676Y-92961509D01*
X65853019Y-92916799D01*
X66122039Y-92871899D01*
X66361588Y-92831919D01*
X66573499Y-92796475D01*
X66759606Y-92765183D01*
X66921742Y-92737660D01*
X67061739Y-92713523D01*
X67181431Y-92692387D01*
X67282652Y-92673870D01*
X67367234Y-92657588D01*
X67437010Y-92643157D01*
X67493814Y-92630194D01*
X67539478Y-92618315D01*
X67575837Y-92607136D01*
X67604723Y-92596275D01*
X67627968Y-92585348D01*
X67647408Y-92573971D01*
X67664873Y-92561760D01*
X67682199Y-92548332D01*
X67701217Y-92533303D01*
X67706863Y-92528935D01*
X67720759Y-92509773D01*
X67746468Y-92466123D01*
X67781815Y-92402000D01*
X67824628Y-92321420D01*
X67872733Y-92228399D01*
X67918133Y-92138605D01*
X67967942Y-92039673D01*
X68013107Y-91951134D01*
X68051715Y-91876643D01*
X68081854Y-91819856D01*
X68101610Y-91784431D01*
X68109002Y-91773874D01*
X68107316Y-91790221D01*
X68099999Y-91834031D01*
X68087736Y-91901654D01*
X68071212Y-91989437D01*
X68051111Y-92093730D01*
X68028117Y-92210879D01*
X68010257Y-92300625D01*
X67905988Y-92821688D01*
X66782845Y-93383626D01*
X66571968Y-93489132D01*
X66387650Y-93581474D01*
X66228082Y-93661748D01*
X66091455Y-93731050D01*
X65975961Y-93790474D01*
X65879791Y-93841116D01*
X65801136Y-93884073D01*
X65738187Y-93920438D01*
X65689136Y-93951309D01*
X65652173Y-93977780D01*
X65625490Y-94000948D01*
X65607278Y-94021906D01*
X65595728Y-94041752D01*
X65589032Y-94061581D01*
X65585380Y-94082488D01*
X65582964Y-94105569D01*
X65582458Y-94110668D01*
X65588731Y-94191787D01*
X65621980Y-94261837D01*
X65678010Y-94315798D01*
X65752627Y-94348649D01*
X65786318Y-94354707D01*
X65799894Y-94355546D01*
X65815352Y-94354478D01*
X65834598Y-94350618D01*
X65859535Y-94343078D01*
X65892070Y-94330970D01*
X65934108Y-94313409D01*
X65987554Y-94289507D01*
X66054312Y-94258376D01*
X66136288Y-94219130D01*
X66235387Y-94170883D01*
X66353515Y-94112746D01*
X66492576Y-94043833D01*
X66654475Y-93963256D01*
X66841118Y-93870130D01*
X67033392Y-93774070D01*
X68210896Y-93185592D01*
X68335096Y-93017812D01*
X68505023Y-92160562D01*
X68537025Y-91999349D01*
X68567352Y-91847023D01*
X68595413Y-91706520D01*
X68620618Y-91580771D01*
X68642377Y-91472709D01*
X68660101Y-91385268D01*
X68673199Y-91321381D01*
X68681081Y-91283981D01*
X68683045Y-91275531D01*
X68691219Y-91254025D01*
X68700327Y-91245415D01*
X68711080Y-91251749D01*
X68724194Y-91275074D01*
X68740381Y-91317437D01*
X68760354Y-91380888D01*
X68784827Y-91467472D01*
X68814513Y-91579238D01*
X68850126Y-91718234D01*
X68883465Y-91850822D01*
X68922260Y-92005383D01*
X68954541Y-92132280D01*
X68981273Y-92234706D01*
X69003423Y-92315851D01*
X69021956Y-92378909D01*
X69037839Y-92427072D01*
X69052037Y-92463531D01*
X69065517Y-92491480D01*
X69079244Y-92514109D01*
X69087853Y-92526263D01*
X69102447Y-92544709D01*
X69119386Y-92562363D01*
X69141422Y-92580797D01*
X69171307Y-92601585D01*
X69211792Y-92626298D01*
X69265630Y-92656508D01*
X69335572Y-92693789D01*
X69424371Y-92739713D01*
X69534777Y-92795851D01*
X69669544Y-92863778D01*
X69744020Y-92901195D01*
X69890632Y-92974756D01*
X70011757Y-93035275D01*
X70110269Y-93083987D01*
X70189038Y-93122129D01*
X70250937Y-93150934D01*
X70298839Y-93171641D01*
X70335614Y-93185484D01*
X70364136Y-93193698D01*
X70387277Y-93197521D01*
X70407907Y-93198187D01*
X70428901Y-93196932D01*
X70430965Y-93196763D01*
X70493215Y-93186637D01*
X70538086Y-93165193D01*
X70561103Y-93145911D01*
X70605663Y-93084028D01*
X70628379Y-93010372D01*
X70628628Y-92934065D01*
X70605788Y-92864225D01*
X70582574Y-92831220D01*
X70562386Y-92817267D01*
X70517006Y-92791008D01*
X70449716Y-92754184D01*
X70363799Y-92708536D01*
X70262537Y-92655804D01*
X70149213Y-92597728D01*
X70027108Y-92536049D01*
X70004906Y-92524926D01*
X69455501Y-92250038D01*
X69344058Y-91804456D01*
X69315853Y-91690916D01*
X69290668Y-91588045D01*
X69269411Y-91499673D01*
X69252988Y-91429629D01*
X69242309Y-91381741D01*
X69238281Y-91359841D01*
X69238422Y-91358875D01*
X69248539Y-91371458D01*
X69273767Y-91406760D01*
X69311567Y-91461112D01*
X69359397Y-91530841D01*
X69414717Y-91612276D01*
X69449935Y-91664468D01*
X69531684Y-91783879D01*
X69598680Y-91877169D01*
X69652000Y-91945739D01*
X69692720Y-91990991D01*
X69716042Y-92010744D01*
X69734450Y-92020398D01*
X69765408Y-92032530D01*
X69810731Y-92047632D01*
X69872232Y-92066195D01*
X69951725Y-92088711D01*
X70051026Y-92115673D01*
X70171948Y-92147571D01*
X70316304Y-92184897D01*
X70485911Y-92228143D01*
X70682580Y-92277802D01*
X70908128Y-92334364D01*
X70931266Y-92340150D01*
X71118546Y-92386784D01*
X71297926Y-92431083D01*
X71466864Y-92472444D01*
X71622822Y-92510260D01*
X71763260Y-92543928D01*
X71885637Y-92572843D01*
X71987414Y-92596400D01*
X72066051Y-92613994D01*
X72119008Y-92625020D01*
X72143744Y-92628874D01*
X72143826Y-92628874D01*
X72211621Y-92615562D01*
X72275924Y-92580498D01*
X72324391Y-92530992D01*
X72332697Y-92517005D01*
X72354664Y-92444716D01*
X72352624Y-92368188D01*
X72329002Y-92296162D01*
X72286222Y-92237384D01*
X72247400Y-92209428D01*
X72224381Y-92201572D01*
X72173184Y-92186789D01*
X72096454Y-92165769D01*
X71996838Y-92139203D01*
X71876978Y-92107782D01*
X71739521Y-92072197D01*
X71587112Y-92033138D01*
X71422395Y-91991296D01*
X71248015Y-91947362D01*
X71147354Y-91922159D01*
X70968344Y-91877427D01*
X70797183Y-91834633D01*
X70636556Y-91794448D01*
X70489149Y-91757547D01*
X70357648Y-91724601D01*
X70244737Y-91696285D01*
X70153102Y-91673270D01*
X70085429Y-91656230D01*
X70044404Y-91645839D01*
X70034190Y-91643206D01*
X70012080Y-91635698D01*
X69991158Y-91623270D01*
X69968295Y-91602222D01*
X69940359Y-91568857D01*
X69904221Y-91519480D01*
X69856748Y-91450391D01*
X69802950Y-91370111D01*
X69749196Y-91289356D01*
X69701143Y-91216968D01*
X69661710Y-91157360D01*
X69633817Y-91114947D01*
X69620384Y-91094142D01*
X69619997Y-91093503D01*
X69626785Y-91074937D01*
X69664040Y-91047861D01*
X69708068Y-91023951D01*
X69855380Y-90939450D01*
X69992989Y-90840919D01*
X70115675Y-90733019D01*
X70218215Y-90620407D01*
X70295388Y-90507744D01*
X70303786Y-90492394D01*
X70366413Y-90343067D01*
X70398331Y-90192109D01*
X70400379Y-90041463D01*
X70373396Y-89893071D01*
X70318220Y-89748877D01*
X70235692Y-89610823D01*
X70126649Y-89480853D01*
X69991931Y-89360908D01*
X69832376Y-89252932D01*
X69748532Y-89206605D01*
X69684296Y-89172416D01*
X69644581Y-89148114D01*
X69625083Y-89130270D01*
X69621500Y-89115456D01*
X69624516Y-89107782D01*
X69637845Y-89086598D01*
X69665975Y-89043747D01*
X69705855Y-88983816D01*
X69754430Y-88911389D01*
X69808649Y-88831056D01*
X69811171Y-88827331D01*
X69982812Y-88573850D01*
X71102000Y-88294382D01*
X71285811Y-88248340D01*
X71461211Y-88204128D01*
X71625672Y-88162400D01*
X71776666Y-88123810D01*
X71911665Y-88089014D01*
X72028144Y-88058664D01*
X72123574Y-88033416D01*
X72195428Y-88013923D01*
X72241178Y-88000839D01*
X72257755Y-87995193D01*
X72307182Y-87951830D01*
X72340207Y-87889189D01*
X72354911Y-87816244D01*
X72349375Y-87741972D01*
X72325017Y-87680614D01*
X72272019Y-87622771D01*
X72200524Y-87588506D01*
X72138632Y-87580158D01*
X72113709Y-87583891D01*
X72060566Y-87594839D01*
X71981754Y-87612395D01*
X71879823Y-87635951D01*
X71757324Y-87664898D01*
X71616808Y-87698629D01*
X71460826Y-87736536D01*
X71291929Y-87778011D01*
X71112666Y-87822447D01*
X70927375Y-87868788D01*
X70699087Y-87926276D01*
X70499852Y-87976783D01*
X70327864Y-88020803D01*
X70181317Y-88058825D01*
X70058405Y-88091342D01*
X69957322Y-88118845D01*
X69876264Y-88141826D01*
X69813423Y-88160777D01*
X69766995Y-88176189D01*
X69735173Y-88188553D01*
X69716152Y-88198362D01*
X69715703Y-88198660D01*
X69684468Y-88226229D01*
X69642220Y-88274922D01*
X69587690Y-88346387D01*
X69519613Y-88442274D01*
X69449599Y-88545031D01*
X69391125Y-88631685D01*
X69338631Y-88708797D01*
X69294656Y-88772695D01*
X69261739Y-88819705D01*
X69242417Y-88846153D01*
X69238422Y-88850625D01*
X69240632Y-88835873D01*
X69249722Y-88794170D01*
X69264783Y-88729346D01*
X69284908Y-88645229D01*
X69309190Y-88545649D01*
X69336719Y-88434436D01*
X69344058Y-88405044D01*
X69455500Y-87959464D01*
X69996969Y-87689066D01*
X70119773Y-87627350D01*
X70234700Y-87568847D01*
X70338380Y-87515330D01*
X70427442Y-87468568D01*
X70498517Y-87430334D01*
X70548233Y-87402399D01*
X70573222Y-87386535D01*
X70574334Y-87385586D01*
X70616070Y-87327818D01*
X70632852Y-87260120D01*
X70626912Y-87188959D01*
X70600483Y-87120807D01*
X70555797Y-87062132D01*
X70495086Y-87019403D01*
X70441981Y-87002008D01*
X70425578Y-86999867D01*
X70407418Y-87000408D01*
X70384755Y-87004829D01*
X70354840Y-87014324D01*
X70314928Y-87030092D01*
X70262272Y-87053328D01*
X70194125Y-87085228D01*
X70107741Y-87126989D01*
X70000373Y-87179808D01*
X69869274Y-87244879D01*
X69764162Y-87297240D01*
X69609407Y-87374555D01*
X69480500Y-87439536D01*
X69374785Y-87493841D01*
X69289608Y-87539127D01*
X69222314Y-87577051D01*
X69170250Y-87609269D01*
X69130760Y-87637439D01*
X69101191Y-87663218D01*
X69078887Y-87688262D01*
X69061194Y-87714229D01*
X69045458Y-87742776D01*
X69043139Y-87747312D01*
X69035784Y-87769457D01*
X69021793Y-87818859D01*
X69002100Y-87891944D01*
X68977643Y-87985137D01*
X68949358Y-88094861D01*
X68918183Y-88217542D01*
X68885055Y-88349604D01*
X68879874Y-88370406D01*
X68839554Y-88531245D01*
X68805675Y-88663201D01*
X68777521Y-88768324D01*
X68754376Y-88848665D01*
X68735524Y-88906272D01*
X68720250Y-88943197D01*
X68707836Y-88961489D01*
X68697568Y-88963197D01*
X68688730Y-88950373D01*
X68683045Y-88933968D01*
X68678512Y-88913546D01*
X68668415Y-88864909D01*
X68653345Y-88790990D01*
X68633892Y-88694723D01*
X68610646Y-88579040D01*
X68584196Y-88446874D01*
X68555133Y-88301158D01*
X68524047Y-88144827D01*
X68505023Y-88048937D01*
X68335096Y-87191687D01*
X68211148Y-87024241D01*
X67037241Y-86437245D01*
X66821005Y-86329121D01*
X66631292Y-86234376D01*
X66466203Y-86152238D01*
X66323842Y-86081931D01*
X66202309Y-86022682D01*
X66099709Y-85973715D01*
X66014142Y-85934258D01*
X65943712Y-85903534D01*
X65886520Y-85880771D01*
X65840670Y-85865193D01*
X65804262Y-85856026D01*
X65775400Y-85852497D01*
X65752186Y-85853830D01*
X65732722Y-85859251D01*
X65715111Y-85867986D01*
X65697454Y-85879260D01*
X65687003Y-85886285D01*
X65628347Y-85942266D01*
X65592582Y-86012187D01*
X65581260Y-86088473D01*
X65595928Y-86163548D01*
X65620950Y-86209239D01*
X65635816Y-86222184D01*
X65667825Y-86243048D01*
X65718190Y-86272470D01*
X65788124Y-86311088D01*
X65878840Y-86359540D01*
X65991553Y-86418463D01*
X66127475Y-86488496D01*
X66287819Y-86570276D01*
X66473800Y-86664441D01*
X66686630Y-86771629D01*
X66777920Y-86817475D01*
X67903187Y-87382187D01*
X68008945Y-87906062D01*
X68033932Y-88030381D01*
X68056627Y-88144353D01*
X68076326Y-88244358D01*
X68092326Y-88326778D01*
X68103921Y-88387994D01*
X68110408Y-88424387D01*
X68111508Y-88433207D01*
X68103888Y-88420514D01*
X68084081Y-88383080D01*
X68053986Y-88324620D01*
X68015502Y-88248846D01*
X67970528Y-88159473D01*
X67926375Y-88071089D01*
X67870339Y-87958935D01*
X67825878Y-87871432D01*
X67790597Y-87804720D01*
X67762099Y-87754940D01*
X67737989Y-87718232D01*
X67715871Y-87690736D01*
X67693349Y-87668594D01*
X67668026Y-87647945D01*
X67659795Y-87641668D01*
X67575153Y-87577635D01*
X65826232Y-87285981D01*
X65546417Y-87239385D01*
X65296296Y-87197888D01*
X65074265Y-87161245D01*
X64878723Y-87129210D01*
X64708065Y-87101538D01*
X64560689Y-87077982D01*
X64434992Y-87058299D01*
X64329371Y-87042241D01*
X64242223Y-87029563D01*
X64171945Y-87020020D01*
X64116934Y-87013367D01*
X64075587Y-87009356D01*
X64046300Y-87007744D01*
X64027472Y-87008284D01*
X64020993Y-87009410D01*
X63956228Y-87041286D01*
X63900173Y-87095241D01*
X63862803Y-87161628D01*
X63862378Y-87162833D01*
X63854574Y-87227479D01*
X63869444Y-87296872D01*
X63902393Y-87362091D01*
X63948828Y-87414214D01*
X64004157Y-87444321D01*
X64007809Y-87445269D01*
X64028336Y-87449065D01*
X64078091Y-87457693D01*
X64154977Y-87470803D01*
X64256899Y-87488042D01*
X64381760Y-87509059D01*
X64527465Y-87533504D01*
X64691916Y-87561024D01*
X64873018Y-87591270D01*
X65068675Y-87623889D01*
X65276791Y-87658530D01*
X65495268Y-87694843D01*
X65709718Y-87730436D01*
X65935285Y-87767891D01*
X66151937Y-87803947D01*
X66357631Y-87838261D01*
X66550325Y-87870487D01*
X66727977Y-87900282D01*
X66888544Y-87927301D01*
X67029983Y-87951200D01*
X67150253Y-87971634D01*
X67247312Y-87988260D01*
X67319116Y-88000732D01*
X67363624Y-88008707D01*
X67378786Y-88011822D01*
X67387640Y-88027696D01*
X67407993Y-88067075D01*
X67437465Y-88125170D01*
X67473677Y-88197190D01*
X67514248Y-88278345D01*
X67556798Y-88363845D01*
X67598949Y-88448899D01*
X67638320Y-88528719D01*
X67672532Y-88598513D01*
X67699204Y-88653491D01*
X67715957Y-88688863D01*
X67720625Y-88699896D01*
X67707797Y-88697648D01*
X67674228Y-88683695D01*
X67628997Y-88661953D01*
X67395691Y-88559389D01*
X67147437Y-88480172D01*
X66881279Y-88423519D01*
X66595060Y-88388715D01*
X66336992Y-88380470D01*
X66076160Y-88396468D01*
X65816995Y-88435472D01*
X65563926Y-88496246D01*
X65321382Y-88577552D01*
X65093793Y-88678154D01*
X64885589Y-88796813D01*
X64728187Y-88910124D01*
X64598322Y-89026089D01*
X64474904Y-89158136D01*
X64363922Y-89298801D01*
X64271366Y-89440616D01*
X64214158Y-89550884D01*
X64188982Y-89613969D01*
X64163045Y-89690955D01*
X64138822Y-89772954D01*
X64118788Y-89851076D01*
X64105417Y-89916432D01*
X64101125Y-89956959D01*
X64101125Y-89993625D01*
X62958125Y-89993625D01*
X62958125Y-90215875D01*
X64094933Y-90215875D01*
D12*
X49650000Y-88850000D02*
X49650000Y-90750000D01*
X51550000Y-88850000D02*
X49650000Y-88850000D01*
X51550000Y-90750000D02*
X51550000Y-88850000D01*
X49650000Y-90750000D02*
X51550000Y-90750000D01*
X49650000Y-85850000D02*
X49650000Y-87750000D01*
X51550000Y-85850000D02*
X49650000Y-85850000D01*
X51550000Y-87750000D02*
X51550000Y-85850000D01*
X49650000Y-87750000D02*
X51550000Y-87750000D01*
X49650000Y-82850000D02*
X49650000Y-84750000D01*
X51550000Y-82850000D02*
X49650000Y-82850000D01*
X51550000Y-84750000D02*
X51550000Y-82850000D01*
X49650000Y-84750000D02*
X51550000Y-84750000D01*
X42250000Y-82850000D02*
X42250000Y-84750000D01*
X44150000Y-82850000D02*
X42250000Y-82850000D01*
X44150000Y-84750000D02*
X44150000Y-82850000D01*
X42250000Y-84750000D02*
X44150000Y-84750000D01*
X42250000Y-88850000D02*
X42250000Y-90750000D01*
X44150000Y-88850000D02*
X42250000Y-88850000D01*
X44150000Y-90750000D02*
X44150000Y-88850000D01*
X42250000Y-90750000D02*
X44150000Y-90750000D01*
X42250000Y-85850000D02*
X42250000Y-87750000D01*
X44150000Y-85850000D02*
X42250000Y-85850000D01*
X44150000Y-87750000D02*
X44150000Y-85850000D01*
X42250000Y-87750000D02*
X44150000Y-87750000D01*
X47800000Y-88410000D02*
X45350000Y-88410000D01*
X46000000Y-85190000D02*
X47800000Y-85190000D01*
X57100000Y-89360000D02*
X53650000Y-89360000D01*
X57100000Y-89360000D02*
X59050000Y-89360000D01*
X57100000Y-84240000D02*
X55150000Y-84240000D01*
X57100000Y-84240000D02*
X59050000Y-84240000D01*
X62490000Y-84302064D02*
X62490000Y-83097936D01*
X64310000Y-84302064D02*
X64310000Y-83097936D01*
X82405000Y-105055000D02*
X82405000Y-103725000D01*
X81075000Y-105055000D02*
X82405000Y-105055000D01*
X82405000Y-102455000D02*
X82405000Y-99855000D01*
X79805000Y-102455000D02*
X82405000Y-102455000D01*
X79805000Y-105055000D02*
X79805000Y-102455000D01*
X82405000Y-99855000D02*
X31485000Y-99855000D01*
X79805000Y-105055000D02*
X31485000Y-105055000D01*
X31485000Y-105055000D02*
X31485000Y-99855000D01*
D10*
X52457142Y-91452380D02*
X52457142Y-92261904D01*
X52409523Y-92357142D01*
X52361904Y-92404761D01*
X52266666Y-92452380D01*
X52076190Y-92452380D01*
X51980952Y-92404761D01*
X51933333Y-92357142D01*
X51885714Y-92261904D01*
X51885714Y-91452380D01*
X51504761Y-91452380D02*
X50885714Y-91452380D01*
X51219047Y-91833333D01*
X51076190Y-91833333D01*
X50980952Y-91880952D01*
X50933333Y-91928571D01*
X50885714Y-92023809D01*
X50885714Y-92261904D01*
X50933333Y-92357142D01*
X50980952Y-92404761D01*
X51076190Y-92452380D01*
X51361904Y-92452380D01*
X51457142Y-92404761D01*
X51504761Y-92357142D01*
X50457142Y-92071428D02*
X49695238Y-92071428D01*
X48790476Y-91452380D02*
X48980952Y-91452380D01*
X49076190Y-91500000D01*
X49123809Y-91547619D01*
X49219047Y-91690476D01*
X49266666Y-91880952D01*
X49266666Y-92261904D01*
X49219047Y-92357142D01*
X49171428Y-92404761D01*
X49076190Y-92452380D01*
X48885714Y-92452380D01*
X48790476Y-92404761D01*
X48742857Y-92357142D01*
X48695238Y-92261904D01*
X48695238Y-92023809D01*
X48742857Y-91928571D01*
X48790476Y-91880952D01*
X48885714Y-91833333D01*
X49076190Y-91833333D01*
X49171428Y-91880952D01*
X49219047Y-91928571D01*
X49266666Y-92023809D01*
X52052380Y-85142857D02*
X52861904Y-85142857D01*
X52957142Y-85190476D01*
X53004761Y-85238095D01*
X53052380Y-85333333D01*
X53052380Y-85523809D01*
X53004761Y-85619047D01*
X52957142Y-85666666D01*
X52861904Y-85714285D01*
X52052380Y-85714285D01*
X52052380Y-86095238D02*
X52052380Y-86714285D01*
X52433333Y-86380952D01*
X52433333Y-86523809D01*
X52480952Y-86619047D01*
X52528571Y-86666666D01*
X52623809Y-86714285D01*
X52861904Y-86714285D01*
X52957142Y-86666666D01*
X53004761Y-86619047D01*
X53052380Y-86523809D01*
X53052380Y-86238095D01*
X53004761Y-86142857D01*
X52957142Y-86095238D01*
X52671428Y-87142857D02*
X52671428Y-87904761D01*
X52052380Y-88857142D02*
X52052380Y-88380952D01*
X52528571Y-88333333D01*
X52480952Y-88380952D01*
X52433333Y-88476190D01*
X52433333Y-88714285D01*
X52480952Y-88809523D01*
X52528571Y-88857142D01*
X52623809Y-88904761D01*
X52861904Y-88904761D01*
X52957142Y-88857142D01*
X53004761Y-88809523D01*
X53052380Y-88714285D01*
X53052380Y-88476190D01*
X53004761Y-88380952D01*
X52957142Y-88333333D01*
X52457142Y-81052380D02*
X52457142Y-81861904D01*
X52409523Y-81957142D01*
X52361904Y-82004761D01*
X52266666Y-82052380D01*
X52076190Y-82052380D01*
X51980952Y-82004761D01*
X51933333Y-81957142D01*
X51885714Y-81861904D01*
X51885714Y-81052380D01*
X51504761Y-81052380D02*
X50885714Y-81052380D01*
X51219047Y-81433333D01*
X51076190Y-81433333D01*
X50980952Y-81480952D01*
X50933333Y-81528571D01*
X50885714Y-81623809D01*
X50885714Y-81861904D01*
X50933333Y-81957142D01*
X50980952Y-82004761D01*
X51076190Y-82052380D01*
X51361904Y-82052380D01*
X51457142Y-82004761D01*
X51504761Y-81957142D01*
X50457142Y-81671428D02*
X49695238Y-81671428D01*
X48790476Y-81385714D02*
X48790476Y-82052380D01*
X49028571Y-81004761D02*
X49266666Y-81719047D01*
X48647619Y-81719047D01*
X44657142Y-81052380D02*
X44657142Y-81861904D01*
X44609523Y-81957142D01*
X44561904Y-82004761D01*
X44466666Y-82052380D01*
X44276190Y-82052380D01*
X44180952Y-82004761D01*
X44133333Y-81957142D01*
X44085714Y-81861904D01*
X44085714Y-81052380D01*
X43704761Y-81052380D02*
X43085714Y-81052380D01*
X43419047Y-81433333D01*
X43276190Y-81433333D01*
X43180952Y-81480952D01*
X43133333Y-81528571D01*
X43085714Y-81623809D01*
X43085714Y-81861904D01*
X43133333Y-81957142D01*
X43180952Y-82004761D01*
X43276190Y-82052380D01*
X43561904Y-82052380D01*
X43657142Y-82004761D01*
X43704761Y-81957142D01*
X42657142Y-81671428D02*
X41895238Y-81671428D01*
X41514285Y-81052380D02*
X40895238Y-81052380D01*
X41228571Y-81433333D01*
X41085714Y-81433333D01*
X40990476Y-81480952D01*
X40942857Y-81528571D01*
X40895238Y-81623809D01*
X40895238Y-81861904D01*
X40942857Y-81957142D01*
X40990476Y-82004761D01*
X41085714Y-82052380D01*
X41371428Y-82052380D01*
X41466666Y-82004761D01*
X41514285Y-81957142D01*
X44857142Y-91452380D02*
X44857142Y-92261904D01*
X44809523Y-92357142D01*
X44761904Y-92404761D01*
X44666666Y-92452380D01*
X44476190Y-92452380D01*
X44380952Y-92404761D01*
X44333333Y-92357142D01*
X44285714Y-92261904D01*
X44285714Y-91452380D01*
X43904761Y-91452380D02*
X43285714Y-91452380D01*
X43619047Y-91833333D01*
X43476190Y-91833333D01*
X43380952Y-91880952D01*
X43333333Y-91928571D01*
X43285714Y-92023809D01*
X43285714Y-92261904D01*
X43333333Y-92357142D01*
X43380952Y-92404761D01*
X43476190Y-92452380D01*
X43761904Y-92452380D01*
X43857142Y-92404761D01*
X43904761Y-92357142D01*
X42857142Y-92071428D02*
X42095238Y-92071428D01*
X41095238Y-92452380D02*
X41666666Y-92452380D01*
X41380952Y-92452380D02*
X41380952Y-91452380D01*
X41476190Y-91595238D01*
X41571428Y-91690476D01*
X41666666Y-91738095D01*
X40452380Y-84942857D02*
X41261904Y-84942857D01*
X41357142Y-84990476D01*
X41404761Y-85038095D01*
X41452380Y-85133333D01*
X41452380Y-85323809D01*
X41404761Y-85419047D01*
X41357142Y-85466666D01*
X41261904Y-85514285D01*
X40452380Y-85514285D01*
X40452380Y-85895238D02*
X40452380Y-86514285D01*
X40833333Y-86180952D01*
X40833333Y-86323809D01*
X40880952Y-86419047D01*
X40928571Y-86466666D01*
X41023809Y-86514285D01*
X41261904Y-86514285D01*
X41357142Y-86466666D01*
X41404761Y-86419047D01*
X41452380Y-86323809D01*
X41452380Y-86038095D01*
X41404761Y-85942857D01*
X41357142Y-85895238D01*
X41071428Y-86942857D02*
X41071428Y-87704761D01*
X40547619Y-88133333D02*
X40500000Y-88180952D01*
X40452380Y-88276190D01*
X40452380Y-88514285D01*
X40500000Y-88609523D01*
X40547619Y-88657142D01*
X40642857Y-88704761D01*
X40738095Y-88704761D01*
X40880952Y-88657142D01*
X41452380Y-88085714D01*
X41452380Y-88704761D01*
X47661904Y-89152380D02*
X47661904Y-89961904D01*
X47614285Y-90057142D01*
X47566666Y-90104761D01*
X47471428Y-90152380D01*
X47280952Y-90152380D01*
X47185714Y-90104761D01*
X47138095Y-90057142D01*
X47090476Y-89961904D01*
X47090476Y-89152380D01*
X46709523Y-89152380D02*
X46090476Y-89152380D01*
X46423809Y-89533333D01*
X46280952Y-89533333D01*
X46185714Y-89580952D01*
X46138095Y-89628571D01*
X46090476Y-89723809D01*
X46090476Y-89961904D01*
X46138095Y-90057142D01*
X46185714Y-90104761D01*
X46280952Y-90152380D01*
X46566666Y-90152380D01*
X46661904Y-90104761D01*
X46709523Y-90057142D01*
X57861904Y-89652380D02*
X57861904Y-90461904D01*
X57814285Y-90557142D01*
X57766666Y-90604761D01*
X57671428Y-90652380D01*
X57480952Y-90652380D01*
X57385714Y-90604761D01*
X57338095Y-90557142D01*
X57290476Y-90461904D01*
X57290476Y-89652380D01*
X56861904Y-89747619D02*
X56814285Y-89700000D01*
X56719047Y-89652380D01*
X56480952Y-89652380D01*
X56385714Y-89700000D01*
X56338095Y-89747619D01*
X56290476Y-89842857D01*
X56290476Y-89938095D01*
X56338095Y-90080952D01*
X56909523Y-90652380D01*
X56290476Y-90652380D01*
X65577142Y-83533333D02*
X65624761Y-83485714D01*
X65672380Y-83342857D01*
X65672380Y-83247619D01*
X65624761Y-83104761D01*
X65529523Y-83009523D01*
X65434285Y-82961904D01*
X65243809Y-82914285D01*
X65100952Y-82914285D01*
X64910476Y-82961904D01*
X64815238Y-83009523D01*
X64720000Y-83104761D01*
X64672380Y-83247619D01*
X64672380Y-83342857D01*
X64720000Y-83485714D01*
X64767619Y-83533333D01*
X65672380Y-84485714D02*
X65672380Y-83914285D01*
X65672380Y-84200000D02*
X64672380Y-84200000D01*
X64815238Y-84104761D01*
X64910476Y-84009523D01*
X64958095Y-83914285D01*
X97933333Y-84252380D02*
X98266666Y-83776190D01*
X98504761Y-84252380D02*
X98504761Y-83252380D01*
X98123809Y-83252380D01*
X98028571Y-83300000D01*
X97980952Y-83347619D01*
X97933333Y-83442857D01*
X97933333Y-83585714D01*
X97980952Y-83680952D01*
X98028571Y-83728571D01*
X98123809Y-83776190D01*
X98504761Y-83776190D01*
X97504761Y-83728571D02*
X97171428Y-83728571D01*
X97028571Y-84252380D02*
X97504761Y-84252380D01*
X97504761Y-83252380D01*
X97028571Y-83252380D01*
X96266666Y-83728571D02*
X96600000Y-83728571D01*
X96600000Y-84252380D02*
X96600000Y-83252380D01*
X96123809Y-83252380D01*
X95600000Y-83252380D02*
X95600000Y-83490476D01*
X95838095Y-83395238D02*
X95600000Y-83490476D01*
X95361904Y-83395238D01*
X95742857Y-83680952D02*
X95600000Y-83490476D01*
X95457142Y-83680952D01*
X94838095Y-83252380D02*
X94838095Y-83490476D01*
X95076190Y-83395238D02*
X94838095Y-83490476D01*
X94600000Y-83395238D01*
X94980952Y-83680952D02*
X94838095Y-83490476D01*
X94695238Y-83680952D01*
X74652380Y-111666666D02*
X74176190Y-111333333D01*
X74652380Y-111095238D02*
X73652380Y-111095238D01*
X73652380Y-111476190D01*
X73700000Y-111571428D01*
X73747619Y-111619047D01*
X73842857Y-111666666D01*
X73985714Y-111666666D01*
X74080952Y-111619047D01*
X74128571Y-111571428D01*
X74176190Y-111476190D01*
X74176190Y-111095238D01*
X74128571Y-112095238D02*
X74128571Y-112428571D01*
X74652380Y-112571428D02*
X74652380Y-112095238D01*
X73652380Y-112095238D01*
X73652380Y-112571428D01*
X74128571Y-113333333D02*
X74128571Y-113000000D01*
X74652380Y-113000000D02*
X73652380Y-113000000D01*
X73652380Y-113476190D01*
X73652380Y-114000000D02*
X73890476Y-114000000D01*
X73795238Y-113761904D02*
X73890476Y-114000000D01*
X73795238Y-114238095D01*
X74080952Y-113857142D02*
X73890476Y-114000000D01*
X74080952Y-114142857D01*
X73652380Y-114761904D02*
X73890476Y-114761904D01*
X73795238Y-114523809D02*
X73890476Y-114761904D01*
X73795238Y-115000000D01*
X74080952Y-114619047D02*
X73890476Y-114761904D01*
X74080952Y-114904761D01*
X72852380Y-111866666D02*
X72376190Y-111533333D01*
X72852380Y-111295238D02*
X71852380Y-111295238D01*
X71852380Y-111676190D01*
X71900000Y-111771428D01*
X71947619Y-111819047D01*
X72042857Y-111866666D01*
X72185714Y-111866666D01*
X72280952Y-111819047D01*
X72328571Y-111771428D01*
X72376190Y-111676190D01*
X72376190Y-111295238D01*
X72328571Y-112295238D02*
X72328571Y-112628571D01*
X72852380Y-112771428D02*
X72852380Y-112295238D01*
X71852380Y-112295238D01*
X71852380Y-112771428D01*
X72328571Y-113533333D02*
X72328571Y-113200000D01*
X72852380Y-113200000D02*
X71852380Y-113200000D01*
X71852380Y-113676190D01*
X71852380Y-114200000D02*
X72090476Y-114200000D01*
X71995238Y-113961904D02*
X72090476Y-114200000D01*
X71995238Y-114438095D01*
X72280952Y-114057142D02*
X72090476Y-114200000D01*
X72280952Y-114342857D01*
X71852380Y-114961904D02*
X72090476Y-114961904D01*
X71995238Y-114723809D02*
X72090476Y-114961904D01*
X71995238Y-115200000D01*
X72280952Y-114819047D02*
X72090476Y-114961904D01*
X72280952Y-115104761D01*
X90052380Y-79652380D02*
X90766666Y-79652380D01*
X90909523Y-79604761D01*
X91004761Y-79509523D01*
X91052380Y-79366666D01*
X91052380Y-79271428D01*
X90052380Y-80128571D02*
X90861904Y-80128571D01*
X90957142Y-80176190D01*
X91004761Y-80223809D01*
X91052380Y-80319047D01*
X91052380Y-80509523D01*
X91004761Y-80604761D01*
X90957142Y-80652380D01*
X90861904Y-80700000D01*
X90052380Y-80700000D01*
X91004761Y-81128571D02*
X91052380Y-81271428D01*
X91052380Y-81509523D01*
X91004761Y-81604761D01*
X90957142Y-81652380D01*
X90861904Y-81700000D01*
X90766666Y-81700000D01*
X90671428Y-81652380D01*
X90623809Y-81604761D01*
X90576190Y-81509523D01*
X90528571Y-81319047D01*
X90480952Y-81223809D01*
X90433333Y-81176190D01*
X90338095Y-81128571D01*
X90242857Y-81128571D01*
X90147619Y-81176190D01*
X90100000Y-81223809D01*
X90052380Y-81319047D01*
X90052380Y-81557142D01*
X90100000Y-81700000D01*
X90528571Y-82461904D02*
X90576190Y-82604761D01*
X90623809Y-82652380D01*
X90719047Y-82700000D01*
X90861904Y-82700000D01*
X90957142Y-82652380D01*
X91004761Y-82604761D01*
X91052380Y-82509523D01*
X91052380Y-82128571D01*
X90052380Y-82128571D01*
X90052380Y-82461904D01*
X90100000Y-82557142D01*
X90147619Y-82604761D01*
X90242857Y-82652380D01*
X90338095Y-82652380D01*
X90433333Y-82604761D01*
X90480952Y-82557142D01*
X90528571Y-82461904D01*
X90528571Y-82128571D01*
X91147619Y-82890476D02*
X91147619Y-83652380D01*
X91052380Y-83890476D02*
X90052380Y-83890476D01*
X90052380Y-84128571D01*
X90100000Y-84271428D01*
X90195238Y-84366666D01*
X90290476Y-84414285D01*
X90480952Y-84461904D01*
X90623809Y-84461904D01*
X90814285Y-84414285D01*
X90909523Y-84366666D01*
X91004761Y-84271428D01*
X91052380Y-84128571D01*
X91052380Y-83890476D01*
X91052380Y-84890476D02*
X90052380Y-84890476D01*
X90766666Y-85223809D01*
X90052380Y-85557142D01*
X91052380Y-85557142D01*
X91147619Y-85795238D02*
X91147619Y-86557142D01*
X90052380Y-86652380D02*
X90052380Y-87223809D01*
X91052380Y-86938095D02*
X90052380Y-86938095D01*
X91052380Y-87557142D02*
X90052380Y-87557142D01*
X90052380Y-87938095D01*
X90100000Y-88033333D01*
X90147619Y-88080952D01*
X90242857Y-88128571D01*
X90385714Y-88128571D01*
X90480952Y-88080952D01*
X90528571Y-88033333D01*
X90576190Y-87938095D01*
X90576190Y-87557142D01*
X90052380Y-88461904D02*
X90052380Y-89080952D01*
X90433333Y-88747619D01*
X90433333Y-88890476D01*
X90480952Y-88985714D01*
X90528571Y-89033333D01*
X90623809Y-89080952D01*
X90861904Y-89080952D01*
X90957142Y-89033333D01*
X91004761Y-88985714D01*
X91052380Y-88890476D01*
X91052380Y-88604761D01*
X91004761Y-88509523D01*
X90957142Y-88461904D01*
X90052380Y-90052380D02*
X90766666Y-90052380D01*
X90909523Y-90004761D01*
X91004761Y-89909523D01*
X91052380Y-89766666D01*
X91052380Y-89671428D01*
X90052380Y-90528571D02*
X90861904Y-90528571D01*
X90957142Y-90576190D01*
X91004761Y-90623809D01*
X91052380Y-90719047D01*
X91052380Y-90909523D01*
X91004761Y-91004761D01*
X90957142Y-91052380D01*
X90861904Y-91100000D01*
X90052380Y-91100000D01*
X91004761Y-91528571D02*
X91052380Y-91671428D01*
X91052380Y-91909523D01*
X91004761Y-92004761D01*
X90957142Y-92052380D01*
X90861904Y-92100000D01*
X90766666Y-92100000D01*
X90671428Y-92052380D01*
X90623809Y-92004761D01*
X90576190Y-91909523D01*
X90528571Y-91719047D01*
X90480952Y-91623809D01*
X90433333Y-91576190D01*
X90338095Y-91528571D01*
X90242857Y-91528571D01*
X90147619Y-91576190D01*
X90100000Y-91623809D01*
X90052380Y-91719047D01*
X90052380Y-91957142D01*
X90100000Y-92100000D01*
X90528571Y-92861904D02*
X90576190Y-93004761D01*
X90623809Y-93052380D01*
X90719047Y-93100000D01*
X90861904Y-93100000D01*
X90957142Y-93052380D01*
X91004761Y-93004761D01*
X91052380Y-92909523D01*
X91052380Y-92528571D01*
X90052380Y-92528571D01*
X90052380Y-92861904D01*
X90100000Y-92957142D01*
X90147619Y-93004761D01*
X90242857Y-93052380D01*
X90338095Y-93052380D01*
X90433333Y-93004761D01*
X90480952Y-92957142D01*
X90528571Y-92861904D01*
X90528571Y-92528571D01*
X91147619Y-93290476D02*
X91147619Y-94052380D01*
X91052380Y-94290476D02*
X90052380Y-94290476D01*
X90052380Y-94528571D01*
X90100000Y-94671428D01*
X90195238Y-94766666D01*
X90290476Y-94814285D01*
X90480952Y-94861904D01*
X90623809Y-94861904D01*
X90814285Y-94814285D01*
X90909523Y-94766666D01*
X91004761Y-94671428D01*
X91052380Y-94528571D01*
X91052380Y-94290476D01*
X91052380Y-95290476D02*
X90052380Y-95290476D01*
X90766666Y-95623809D01*
X90052380Y-95957142D01*
X91052380Y-95957142D01*
X91147619Y-96195238D02*
X91147619Y-96957142D01*
X90052380Y-97052380D02*
X90052380Y-97623809D01*
X91052380Y-97338095D02*
X90052380Y-97338095D01*
X91052380Y-97957142D02*
X90052380Y-97957142D01*
X90052380Y-98338095D01*
X90100000Y-98433333D01*
X90147619Y-98480952D01*
X90242857Y-98528571D01*
X90385714Y-98528571D01*
X90480952Y-98480952D01*
X90528571Y-98433333D01*
X90576190Y-98338095D01*
X90576190Y-97957142D01*
X90147619Y-98909523D02*
X90100000Y-98957142D01*
X90052380Y-99052380D01*
X90052380Y-99290476D01*
X90100000Y-99385714D01*
X90147619Y-99433333D01*
X90242857Y-99480952D01*
X90338095Y-99480952D01*
X90480952Y-99433333D01*
X91052380Y-98861904D01*
X91052380Y-99480952D01*
X69052380Y-112142857D02*
X69766666Y-112142857D01*
X69909523Y-112095238D01*
X70004761Y-112000000D01*
X70052380Y-111857142D01*
X70052380Y-111761904D01*
X69528571Y-112952380D02*
X69576190Y-113095238D01*
X69623809Y-113142857D01*
X69719047Y-113190476D01*
X69861904Y-113190476D01*
X69957142Y-113142857D01*
X70004761Y-113095238D01*
X70052380Y-113000000D01*
X70052380Y-112619047D01*
X69052380Y-112619047D01*
X69052380Y-112952380D01*
X69100000Y-113047619D01*
X69147619Y-113095238D01*
X69242857Y-113142857D01*
X69338095Y-113142857D01*
X69433333Y-113095238D01*
X69480952Y-113047619D01*
X69528571Y-112952380D01*
X69528571Y-112619047D01*
X69052380Y-113809523D02*
X69052380Y-114000000D01*
X69100000Y-114095238D01*
X69195238Y-114190476D01*
X69385714Y-114238095D01*
X69719047Y-114238095D01*
X69909523Y-114190476D01*
X70004761Y-114095238D01*
X70052380Y-114000000D01*
X70052380Y-113809523D01*
X70004761Y-113714285D01*
X69909523Y-113619047D01*
X69719047Y-113571428D01*
X69385714Y-113571428D01*
X69195238Y-113619047D01*
X69100000Y-113714285D01*
X69052380Y-113809523D01*
X69052380Y-114857142D02*
X69052380Y-115047619D01*
X69100000Y-115142857D01*
X69195238Y-115238095D01*
X69385714Y-115285714D01*
X69719047Y-115285714D01*
X69909523Y-115238095D01*
X70004761Y-115142857D01*
X70052380Y-115047619D01*
X70052380Y-114857142D01*
X70004761Y-114761904D01*
X69909523Y-114666666D01*
X69719047Y-114619047D01*
X69385714Y-114619047D01*
X69195238Y-114666666D01*
X69100000Y-114761904D01*
X69052380Y-114857142D01*
X69052380Y-115571428D02*
X69052380Y-116142857D01*
X70052380Y-115857142D02*
X69052380Y-115857142D01*
X70004761Y-116428571D02*
X70052380Y-116571428D01*
X70052380Y-116809523D01*
X70004761Y-116904761D01*
X69957142Y-116952380D01*
X69861904Y-117000000D01*
X69766666Y-117000000D01*
X69671428Y-116952380D01*
X69623809Y-116904761D01*
X69576190Y-116809523D01*
X69528571Y-116619047D01*
X69480952Y-116523809D01*
X69433333Y-116476190D01*
X69338095Y-116428571D01*
X69242857Y-116428571D01*
X69147619Y-116476190D01*
X69100000Y-116523809D01*
X69052380Y-116619047D01*
X69052380Y-116857142D01*
X69100000Y-117000000D01*
X69528571Y-117428571D02*
X69528571Y-117761904D01*
X70052380Y-117904761D02*
X70052380Y-117428571D01*
X69052380Y-117428571D01*
X69052380Y-117904761D01*
X70052380Y-118809523D02*
X70052380Y-118333333D01*
X69052380Y-118333333D01*
X70147619Y-118904761D02*
X70147619Y-119666666D01*
X69052380Y-119761904D02*
X69052380Y-120333333D01*
X70052380Y-120047619D02*
X69052380Y-120047619D01*
X70052380Y-120666666D02*
X69052380Y-120666666D01*
X69052380Y-121047619D01*
X69100000Y-121142857D01*
X69147619Y-121190476D01*
X69242857Y-121238095D01*
X69385714Y-121238095D01*
X69480952Y-121190476D01*
X69528571Y-121142857D01*
X69576190Y-121047619D01*
X69576190Y-120666666D01*
X69052380Y-122095238D02*
X69052380Y-121904761D01*
X69100000Y-121809523D01*
X69147619Y-121761904D01*
X69290476Y-121666666D01*
X69480952Y-121619047D01*
X69861904Y-121619047D01*
X69957142Y-121666666D01*
X70004761Y-121714285D01*
X70052380Y-121809523D01*
X70052380Y-122000000D01*
X70004761Y-122095238D01*
X69957142Y-122142857D01*
X69861904Y-122190476D01*
X69623809Y-122190476D01*
X69528571Y-122142857D01*
X69480952Y-122095238D01*
X69433333Y-122000000D01*
X69433333Y-121809523D01*
X69480952Y-121714285D01*
X69528571Y-121666666D01*
X69623809Y-121619047D01*
X83952619Y-102788333D02*
X83238333Y-102788333D01*
X83095476Y-102835952D01*
X83000238Y-102931190D01*
X82952619Y-103074047D01*
X82952619Y-103169285D01*
X82952619Y-101788333D02*
X82952619Y-102359761D01*
X82952619Y-102074047D02*
X83952619Y-102074047D01*
X83809761Y-102169285D01*
X83714523Y-102264523D01*
X83666904Y-102359761D01*
M02*
