G04 #@! TF.GenerationSoftware,KiCad,Pcbnew,5.1.5+dfsg1-2build2*
G04 #@! TF.CreationDate,2023-09-14T16:19:52+02:00*
G04 #@! TF.ProjectId,CCS_pico_board_2,4343535f-7069-4636-9f5f-626f6172645f,rev?*
G04 #@! TF.SameCoordinates,Original*
G04 #@! TF.FileFunction,Copper,L2,Bot*
G04 #@! TF.FilePolarity,Positive*
%FSLAX46Y46*%
G04 Gerber Fmt 4.6, Leading zero omitted, Abs format (unit mm)*
G04 Created by KiCad (PCBNEW 5.1.5+dfsg1-2build2) date 2023-09-14 16:19:52*
%MOMM*%
%LPD*%
G04 APERTURE LIST*
%ADD10C,0.100000*%
%ADD11O,1.700000X1.700000*%
%ADD12R,1.700000X1.700000*%
%ADD13R,1.500000X1.500000*%
%ADD14R,1.060000X0.650000*%
%ADD15C,1.500000*%
%ADD16C,0.800000*%
%ADD17C,1.000000*%
%ADD18C,0.250000*%
%ADD19C,0.500000*%
%ADD20C,0.254000*%
G04 APERTURE END LIST*
D10*
G36*
X76000000Y-87600000D02*
G01*
X76300000Y-87800000D01*
X76600000Y-87800000D01*
X76600000Y-86400000D01*
X76300000Y-86400000D01*
X76000000Y-86600000D01*
X75900000Y-86900000D01*
X75900000Y-87300000D01*
X76000000Y-87600000D01*
G37*
X76000000Y-87600000D02*
X76300000Y-87800000D01*
X76600000Y-87800000D01*
X76600000Y-86400000D01*
X76300000Y-86400000D01*
X76000000Y-86600000D01*
X75900000Y-86900000D01*
X75900000Y-87300000D01*
X76000000Y-87600000D01*
G36*
X78000000Y-87800000D02*
G01*
X78000000Y-86400000D01*
X76700000Y-86400000D01*
X76700000Y-87800000D01*
X78000000Y-87800000D01*
G37*
X78000000Y-87800000D02*
X78000000Y-86400000D01*
X76700000Y-86400000D01*
X76700000Y-87800000D01*
X78000000Y-87800000D01*
G36*
X75100000Y-84600000D02*
G01*
X73700000Y-84600000D01*
X73700000Y-85900000D01*
X75100000Y-85900000D01*
X75100000Y-84600000D01*
G37*
X75100000Y-84600000D02*
X73700000Y-84600000D01*
X73700000Y-85900000D01*
X75100000Y-85900000D01*
X75100000Y-84600000D01*
G36*
X74900000Y-86600000D02*
G01*
X75100000Y-86300000D01*
X75100000Y-86000000D01*
X73700000Y-86000000D01*
X73700000Y-86300000D01*
X73900000Y-86600000D01*
X74200000Y-86700000D01*
X74600000Y-86700000D01*
X74900000Y-86600000D01*
G37*
X74900000Y-86600000D02*
X75100000Y-86300000D01*
X75100000Y-86000000D01*
X73700000Y-86000000D01*
X73700000Y-86300000D01*
X73900000Y-86600000D01*
X74200000Y-86700000D01*
X74600000Y-86700000D01*
X74900000Y-86600000D01*
G36*
X72500000Y-86600000D02*
G01*
X72700000Y-86300000D01*
X72700000Y-86000000D01*
X71300000Y-86000000D01*
X71300000Y-86300000D01*
X71500000Y-86600000D01*
X71800000Y-86700000D01*
X72200000Y-86700000D01*
X72500000Y-86600000D01*
G37*
X72500000Y-86600000D02*
X72700000Y-86300000D01*
X72700000Y-86000000D01*
X71300000Y-86000000D01*
X71300000Y-86300000D01*
X71500000Y-86600000D01*
X71800000Y-86700000D01*
X72200000Y-86700000D01*
X72500000Y-86600000D01*
G36*
X72700000Y-84600000D02*
G01*
X71300000Y-84600000D01*
X71300000Y-85900000D01*
X72700000Y-85900000D01*
X72700000Y-84600000D01*
G37*
X72700000Y-84600000D02*
X71300000Y-84600000D01*
X71300000Y-85900000D01*
X72700000Y-85900000D01*
X72700000Y-84600000D01*
G36*
X83000000Y-85500000D02*
G01*
X82700000Y-85300000D01*
X82400000Y-85300000D01*
X82400000Y-86700000D01*
X82700000Y-86700000D01*
X83000000Y-86500000D01*
X83100000Y-86200000D01*
X83100000Y-85800000D01*
X83000000Y-85500000D01*
G37*
X83000000Y-85500000D02*
X82700000Y-85300000D01*
X82400000Y-85300000D01*
X82400000Y-86700000D01*
X82700000Y-86700000D01*
X83000000Y-86500000D01*
X83100000Y-86200000D01*
X83100000Y-85800000D01*
X83000000Y-85500000D01*
G36*
X81000000Y-85300000D02*
G01*
X81000000Y-86700000D01*
X82300000Y-86700000D01*
X82300000Y-85300000D01*
X81000000Y-85300000D01*
G37*
X81000000Y-85300000D02*
X81000000Y-86700000D01*
X82300000Y-86700000D01*
X82300000Y-85300000D01*
X81000000Y-85300000D01*
G36*
X83000000Y-87600000D02*
G01*
X82700000Y-87400000D01*
X82400000Y-87400000D01*
X82400000Y-88800000D01*
X82700000Y-88800000D01*
X83000000Y-88600000D01*
X83100000Y-88300000D01*
X83100000Y-87900000D01*
X83000000Y-87600000D01*
G37*
X83000000Y-87600000D02*
X82700000Y-87400000D01*
X82400000Y-87400000D01*
X82400000Y-88800000D01*
X82700000Y-88800000D01*
X83000000Y-88600000D01*
X83100000Y-88300000D01*
X83100000Y-87900000D01*
X83000000Y-87600000D01*
G36*
X81000000Y-87400000D02*
G01*
X81000000Y-88800000D01*
X82300000Y-88800000D01*
X82300000Y-87400000D01*
X81000000Y-87400000D01*
G37*
X81000000Y-87400000D02*
X81000000Y-88800000D01*
X82300000Y-88800000D01*
X82300000Y-87400000D01*
X81000000Y-87400000D01*
G36*
X70000000Y-86700000D02*
G01*
X70200000Y-86400000D01*
X70200000Y-86100000D01*
X68800000Y-86100000D01*
X68800000Y-86400000D01*
X69000000Y-86700000D01*
X69300000Y-86800000D01*
X69700000Y-86800000D01*
X70000000Y-86700000D01*
G37*
X70000000Y-86700000D02*
X70200000Y-86400000D01*
X70200000Y-86100000D01*
X68800000Y-86100000D01*
X68800000Y-86400000D01*
X69000000Y-86700000D01*
X69300000Y-86800000D01*
X69700000Y-86800000D01*
X70000000Y-86700000D01*
G36*
X70200000Y-84700000D02*
G01*
X68800000Y-84700000D01*
X68800000Y-86000000D01*
X70200000Y-86000000D01*
X70200000Y-84700000D01*
G37*
X70200000Y-84700000D02*
X68800000Y-84700000D01*
X68800000Y-86000000D01*
X70200000Y-86000000D01*
X70200000Y-84700000D01*
D11*
X33029020Y-89535000D03*
D12*
X33029020Y-86995000D03*
D11*
X33029020Y-84455000D03*
X81059020Y-95885000D03*
X78519020Y-95885000D03*
D12*
X75979020Y-95885000D03*
D11*
X73439020Y-95885000D03*
X70899020Y-95885000D03*
X68359020Y-95885000D03*
X65819020Y-95885000D03*
D12*
X63279020Y-95885000D03*
D11*
X60739020Y-95885000D03*
X58199020Y-95885000D03*
X55659020Y-95885000D03*
X53119020Y-95885000D03*
D12*
X50579020Y-95885000D03*
D11*
X48039020Y-95885000D03*
X45499020Y-95885000D03*
X42959020Y-95885000D03*
X40419020Y-95885000D03*
D12*
X37879020Y-95885000D03*
D11*
X35339020Y-95885000D03*
X32799020Y-95885000D03*
X32799020Y-78105000D03*
X35339020Y-78105000D03*
D12*
X37879020Y-78105000D03*
D11*
X40419020Y-78105000D03*
X42959020Y-78105000D03*
X45499020Y-78105000D03*
X48039020Y-78105000D03*
D12*
X50579020Y-78105000D03*
D11*
X53119020Y-78105000D03*
X55659020Y-78105000D03*
X58199020Y-78105000D03*
X60739020Y-78105000D03*
D12*
X63279020Y-78105000D03*
D11*
X65819020Y-78105000D03*
X68359020Y-78105000D03*
X70899020Y-78105000D03*
X73439020Y-78105000D03*
D12*
X75979020Y-78105000D03*
D11*
X78519020Y-78105000D03*
X81059020Y-78105000D03*
D13*
X50600000Y-89800000D03*
X50600000Y-86800000D03*
X50600000Y-83800000D03*
X43200000Y-83800000D03*
X43200000Y-89800000D03*
X43200000Y-86800000D03*
D14*
X48000000Y-86800000D03*
X48000000Y-87750000D03*
X48000000Y-85850000D03*
X45800000Y-85850000D03*
X45800000Y-86800000D03*
X45800000Y-87750000D03*
G04 #@! TA.AperFunction,SMDPad,CuDef*
D10*
G36*
X60414703Y-88405722D02*
G01*
X60429264Y-88407882D01*
X60443543Y-88411459D01*
X60457403Y-88416418D01*
X60470710Y-88422712D01*
X60483336Y-88430280D01*
X60495159Y-88439048D01*
X60506066Y-88448934D01*
X60515952Y-88459841D01*
X60524720Y-88471664D01*
X60532288Y-88484290D01*
X60538582Y-88497597D01*
X60543541Y-88511457D01*
X60547118Y-88525736D01*
X60549278Y-88540297D01*
X60550000Y-88555000D01*
X60550000Y-88855000D01*
X60549278Y-88869703D01*
X60547118Y-88884264D01*
X60543541Y-88898543D01*
X60538582Y-88912403D01*
X60532288Y-88925710D01*
X60524720Y-88938336D01*
X60515952Y-88950159D01*
X60506066Y-88961066D01*
X60495159Y-88970952D01*
X60483336Y-88979720D01*
X60470710Y-88987288D01*
X60457403Y-88993582D01*
X60443543Y-88998541D01*
X60429264Y-89002118D01*
X60414703Y-89004278D01*
X60400000Y-89005000D01*
X58750000Y-89005000D01*
X58735297Y-89004278D01*
X58720736Y-89002118D01*
X58706457Y-88998541D01*
X58692597Y-88993582D01*
X58679290Y-88987288D01*
X58666664Y-88979720D01*
X58654841Y-88970952D01*
X58643934Y-88961066D01*
X58634048Y-88950159D01*
X58625280Y-88938336D01*
X58617712Y-88925710D01*
X58611418Y-88912403D01*
X58606459Y-88898543D01*
X58602882Y-88884264D01*
X58600722Y-88869703D01*
X58600000Y-88855000D01*
X58600000Y-88555000D01*
X58600722Y-88540297D01*
X58602882Y-88525736D01*
X58606459Y-88511457D01*
X58611418Y-88497597D01*
X58617712Y-88484290D01*
X58625280Y-88471664D01*
X58634048Y-88459841D01*
X58643934Y-88448934D01*
X58654841Y-88439048D01*
X58666664Y-88430280D01*
X58679290Y-88422712D01*
X58692597Y-88416418D01*
X58706457Y-88411459D01*
X58720736Y-88407882D01*
X58735297Y-88405722D01*
X58750000Y-88405000D01*
X60400000Y-88405000D01*
X60414703Y-88405722D01*
G37*
G04 #@! TD.AperFunction*
G04 #@! TA.AperFunction,SMDPad,CuDef*
G36*
X60414703Y-87135722D02*
G01*
X60429264Y-87137882D01*
X60443543Y-87141459D01*
X60457403Y-87146418D01*
X60470710Y-87152712D01*
X60483336Y-87160280D01*
X60495159Y-87169048D01*
X60506066Y-87178934D01*
X60515952Y-87189841D01*
X60524720Y-87201664D01*
X60532288Y-87214290D01*
X60538582Y-87227597D01*
X60543541Y-87241457D01*
X60547118Y-87255736D01*
X60549278Y-87270297D01*
X60550000Y-87285000D01*
X60550000Y-87585000D01*
X60549278Y-87599703D01*
X60547118Y-87614264D01*
X60543541Y-87628543D01*
X60538582Y-87642403D01*
X60532288Y-87655710D01*
X60524720Y-87668336D01*
X60515952Y-87680159D01*
X60506066Y-87691066D01*
X60495159Y-87700952D01*
X60483336Y-87709720D01*
X60470710Y-87717288D01*
X60457403Y-87723582D01*
X60443543Y-87728541D01*
X60429264Y-87732118D01*
X60414703Y-87734278D01*
X60400000Y-87735000D01*
X58750000Y-87735000D01*
X58735297Y-87734278D01*
X58720736Y-87732118D01*
X58706457Y-87728541D01*
X58692597Y-87723582D01*
X58679290Y-87717288D01*
X58666664Y-87709720D01*
X58654841Y-87700952D01*
X58643934Y-87691066D01*
X58634048Y-87680159D01*
X58625280Y-87668336D01*
X58617712Y-87655710D01*
X58611418Y-87642403D01*
X58606459Y-87628543D01*
X58602882Y-87614264D01*
X58600722Y-87599703D01*
X58600000Y-87585000D01*
X58600000Y-87285000D01*
X58600722Y-87270297D01*
X58602882Y-87255736D01*
X58606459Y-87241457D01*
X58611418Y-87227597D01*
X58617712Y-87214290D01*
X58625280Y-87201664D01*
X58634048Y-87189841D01*
X58643934Y-87178934D01*
X58654841Y-87169048D01*
X58666664Y-87160280D01*
X58679290Y-87152712D01*
X58692597Y-87146418D01*
X58706457Y-87141459D01*
X58720736Y-87137882D01*
X58735297Y-87135722D01*
X58750000Y-87135000D01*
X60400000Y-87135000D01*
X60414703Y-87135722D01*
G37*
G04 #@! TD.AperFunction*
G04 #@! TA.AperFunction,SMDPad,CuDef*
G36*
X60414703Y-85865722D02*
G01*
X60429264Y-85867882D01*
X60443543Y-85871459D01*
X60457403Y-85876418D01*
X60470710Y-85882712D01*
X60483336Y-85890280D01*
X60495159Y-85899048D01*
X60506066Y-85908934D01*
X60515952Y-85919841D01*
X60524720Y-85931664D01*
X60532288Y-85944290D01*
X60538582Y-85957597D01*
X60543541Y-85971457D01*
X60547118Y-85985736D01*
X60549278Y-86000297D01*
X60550000Y-86015000D01*
X60550000Y-86315000D01*
X60549278Y-86329703D01*
X60547118Y-86344264D01*
X60543541Y-86358543D01*
X60538582Y-86372403D01*
X60532288Y-86385710D01*
X60524720Y-86398336D01*
X60515952Y-86410159D01*
X60506066Y-86421066D01*
X60495159Y-86430952D01*
X60483336Y-86439720D01*
X60470710Y-86447288D01*
X60457403Y-86453582D01*
X60443543Y-86458541D01*
X60429264Y-86462118D01*
X60414703Y-86464278D01*
X60400000Y-86465000D01*
X58750000Y-86465000D01*
X58735297Y-86464278D01*
X58720736Y-86462118D01*
X58706457Y-86458541D01*
X58692597Y-86453582D01*
X58679290Y-86447288D01*
X58666664Y-86439720D01*
X58654841Y-86430952D01*
X58643934Y-86421066D01*
X58634048Y-86410159D01*
X58625280Y-86398336D01*
X58617712Y-86385710D01*
X58611418Y-86372403D01*
X58606459Y-86358543D01*
X58602882Y-86344264D01*
X58600722Y-86329703D01*
X58600000Y-86315000D01*
X58600000Y-86015000D01*
X58600722Y-86000297D01*
X58602882Y-85985736D01*
X58606459Y-85971457D01*
X58611418Y-85957597D01*
X58617712Y-85944290D01*
X58625280Y-85931664D01*
X58634048Y-85919841D01*
X58643934Y-85908934D01*
X58654841Y-85899048D01*
X58666664Y-85890280D01*
X58679290Y-85882712D01*
X58692597Y-85876418D01*
X58706457Y-85871459D01*
X58720736Y-85867882D01*
X58735297Y-85865722D01*
X58750000Y-85865000D01*
X60400000Y-85865000D01*
X60414703Y-85865722D01*
G37*
G04 #@! TD.AperFunction*
G04 #@! TA.AperFunction,SMDPad,CuDef*
G36*
X60414703Y-84595722D02*
G01*
X60429264Y-84597882D01*
X60443543Y-84601459D01*
X60457403Y-84606418D01*
X60470710Y-84612712D01*
X60483336Y-84620280D01*
X60495159Y-84629048D01*
X60506066Y-84638934D01*
X60515952Y-84649841D01*
X60524720Y-84661664D01*
X60532288Y-84674290D01*
X60538582Y-84687597D01*
X60543541Y-84701457D01*
X60547118Y-84715736D01*
X60549278Y-84730297D01*
X60550000Y-84745000D01*
X60550000Y-85045000D01*
X60549278Y-85059703D01*
X60547118Y-85074264D01*
X60543541Y-85088543D01*
X60538582Y-85102403D01*
X60532288Y-85115710D01*
X60524720Y-85128336D01*
X60515952Y-85140159D01*
X60506066Y-85151066D01*
X60495159Y-85160952D01*
X60483336Y-85169720D01*
X60470710Y-85177288D01*
X60457403Y-85183582D01*
X60443543Y-85188541D01*
X60429264Y-85192118D01*
X60414703Y-85194278D01*
X60400000Y-85195000D01*
X58750000Y-85195000D01*
X58735297Y-85194278D01*
X58720736Y-85192118D01*
X58706457Y-85188541D01*
X58692597Y-85183582D01*
X58679290Y-85177288D01*
X58666664Y-85169720D01*
X58654841Y-85160952D01*
X58643934Y-85151066D01*
X58634048Y-85140159D01*
X58625280Y-85128336D01*
X58617712Y-85115710D01*
X58611418Y-85102403D01*
X58606459Y-85088543D01*
X58602882Y-85074264D01*
X58600722Y-85059703D01*
X58600000Y-85045000D01*
X58600000Y-84745000D01*
X58600722Y-84730297D01*
X58602882Y-84715736D01*
X58606459Y-84701457D01*
X58611418Y-84687597D01*
X58617712Y-84674290D01*
X58625280Y-84661664D01*
X58634048Y-84649841D01*
X58643934Y-84638934D01*
X58654841Y-84629048D01*
X58666664Y-84620280D01*
X58679290Y-84612712D01*
X58692597Y-84606418D01*
X58706457Y-84601459D01*
X58720736Y-84597882D01*
X58735297Y-84595722D01*
X58750000Y-84595000D01*
X60400000Y-84595000D01*
X60414703Y-84595722D01*
G37*
G04 #@! TD.AperFunction*
G04 #@! TA.AperFunction,SMDPad,CuDef*
G36*
X55464703Y-84595722D02*
G01*
X55479264Y-84597882D01*
X55493543Y-84601459D01*
X55507403Y-84606418D01*
X55520710Y-84612712D01*
X55533336Y-84620280D01*
X55545159Y-84629048D01*
X55556066Y-84638934D01*
X55565952Y-84649841D01*
X55574720Y-84661664D01*
X55582288Y-84674290D01*
X55588582Y-84687597D01*
X55593541Y-84701457D01*
X55597118Y-84715736D01*
X55599278Y-84730297D01*
X55600000Y-84745000D01*
X55600000Y-85045000D01*
X55599278Y-85059703D01*
X55597118Y-85074264D01*
X55593541Y-85088543D01*
X55588582Y-85102403D01*
X55582288Y-85115710D01*
X55574720Y-85128336D01*
X55565952Y-85140159D01*
X55556066Y-85151066D01*
X55545159Y-85160952D01*
X55533336Y-85169720D01*
X55520710Y-85177288D01*
X55507403Y-85183582D01*
X55493543Y-85188541D01*
X55479264Y-85192118D01*
X55464703Y-85194278D01*
X55450000Y-85195000D01*
X53800000Y-85195000D01*
X53785297Y-85194278D01*
X53770736Y-85192118D01*
X53756457Y-85188541D01*
X53742597Y-85183582D01*
X53729290Y-85177288D01*
X53716664Y-85169720D01*
X53704841Y-85160952D01*
X53693934Y-85151066D01*
X53684048Y-85140159D01*
X53675280Y-85128336D01*
X53667712Y-85115710D01*
X53661418Y-85102403D01*
X53656459Y-85088543D01*
X53652882Y-85074264D01*
X53650722Y-85059703D01*
X53650000Y-85045000D01*
X53650000Y-84745000D01*
X53650722Y-84730297D01*
X53652882Y-84715736D01*
X53656459Y-84701457D01*
X53661418Y-84687597D01*
X53667712Y-84674290D01*
X53675280Y-84661664D01*
X53684048Y-84649841D01*
X53693934Y-84638934D01*
X53704841Y-84629048D01*
X53716664Y-84620280D01*
X53729290Y-84612712D01*
X53742597Y-84606418D01*
X53756457Y-84601459D01*
X53770736Y-84597882D01*
X53785297Y-84595722D01*
X53800000Y-84595000D01*
X55450000Y-84595000D01*
X55464703Y-84595722D01*
G37*
G04 #@! TD.AperFunction*
G04 #@! TA.AperFunction,SMDPad,CuDef*
G36*
X55464703Y-85865722D02*
G01*
X55479264Y-85867882D01*
X55493543Y-85871459D01*
X55507403Y-85876418D01*
X55520710Y-85882712D01*
X55533336Y-85890280D01*
X55545159Y-85899048D01*
X55556066Y-85908934D01*
X55565952Y-85919841D01*
X55574720Y-85931664D01*
X55582288Y-85944290D01*
X55588582Y-85957597D01*
X55593541Y-85971457D01*
X55597118Y-85985736D01*
X55599278Y-86000297D01*
X55600000Y-86015000D01*
X55600000Y-86315000D01*
X55599278Y-86329703D01*
X55597118Y-86344264D01*
X55593541Y-86358543D01*
X55588582Y-86372403D01*
X55582288Y-86385710D01*
X55574720Y-86398336D01*
X55565952Y-86410159D01*
X55556066Y-86421066D01*
X55545159Y-86430952D01*
X55533336Y-86439720D01*
X55520710Y-86447288D01*
X55507403Y-86453582D01*
X55493543Y-86458541D01*
X55479264Y-86462118D01*
X55464703Y-86464278D01*
X55450000Y-86465000D01*
X53800000Y-86465000D01*
X53785297Y-86464278D01*
X53770736Y-86462118D01*
X53756457Y-86458541D01*
X53742597Y-86453582D01*
X53729290Y-86447288D01*
X53716664Y-86439720D01*
X53704841Y-86430952D01*
X53693934Y-86421066D01*
X53684048Y-86410159D01*
X53675280Y-86398336D01*
X53667712Y-86385710D01*
X53661418Y-86372403D01*
X53656459Y-86358543D01*
X53652882Y-86344264D01*
X53650722Y-86329703D01*
X53650000Y-86315000D01*
X53650000Y-86015000D01*
X53650722Y-86000297D01*
X53652882Y-85985736D01*
X53656459Y-85971457D01*
X53661418Y-85957597D01*
X53667712Y-85944290D01*
X53675280Y-85931664D01*
X53684048Y-85919841D01*
X53693934Y-85908934D01*
X53704841Y-85899048D01*
X53716664Y-85890280D01*
X53729290Y-85882712D01*
X53742597Y-85876418D01*
X53756457Y-85871459D01*
X53770736Y-85867882D01*
X53785297Y-85865722D01*
X53800000Y-85865000D01*
X55450000Y-85865000D01*
X55464703Y-85865722D01*
G37*
G04 #@! TD.AperFunction*
G04 #@! TA.AperFunction,SMDPad,CuDef*
G36*
X55464703Y-87135722D02*
G01*
X55479264Y-87137882D01*
X55493543Y-87141459D01*
X55507403Y-87146418D01*
X55520710Y-87152712D01*
X55533336Y-87160280D01*
X55545159Y-87169048D01*
X55556066Y-87178934D01*
X55565952Y-87189841D01*
X55574720Y-87201664D01*
X55582288Y-87214290D01*
X55588582Y-87227597D01*
X55593541Y-87241457D01*
X55597118Y-87255736D01*
X55599278Y-87270297D01*
X55600000Y-87285000D01*
X55600000Y-87585000D01*
X55599278Y-87599703D01*
X55597118Y-87614264D01*
X55593541Y-87628543D01*
X55588582Y-87642403D01*
X55582288Y-87655710D01*
X55574720Y-87668336D01*
X55565952Y-87680159D01*
X55556066Y-87691066D01*
X55545159Y-87700952D01*
X55533336Y-87709720D01*
X55520710Y-87717288D01*
X55507403Y-87723582D01*
X55493543Y-87728541D01*
X55479264Y-87732118D01*
X55464703Y-87734278D01*
X55450000Y-87735000D01*
X53800000Y-87735000D01*
X53785297Y-87734278D01*
X53770736Y-87732118D01*
X53756457Y-87728541D01*
X53742597Y-87723582D01*
X53729290Y-87717288D01*
X53716664Y-87709720D01*
X53704841Y-87700952D01*
X53693934Y-87691066D01*
X53684048Y-87680159D01*
X53675280Y-87668336D01*
X53667712Y-87655710D01*
X53661418Y-87642403D01*
X53656459Y-87628543D01*
X53652882Y-87614264D01*
X53650722Y-87599703D01*
X53650000Y-87585000D01*
X53650000Y-87285000D01*
X53650722Y-87270297D01*
X53652882Y-87255736D01*
X53656459Y-87241457D01*
X53661418Y-87227597D01*
X53667712Y-87214290D01*
X53675280Y-87201664D01*
X53684048Y-87189841D01*
X53693934Y-87178934D01*
X53704841Y-87169048D01*
X53716664Y-87160280D01*
X53729290Y-87152712D01*
X53742597Y-87146418D01*
X53756457Y-87141459D01*
X53770736Y-87137882D01*
X53785297Y-87135722D01*
X53800000Y-87135000D01*
X55450000Y-87135000D01*
X55464703Y-87135722D01*
G37*
G04 #@! TD.AperFunction*
G04 #@! TA.AperFunction,SMDPad,CuDef*
G36*
X55464703Y-88405722D02*
G01*
X55479264Y-88407882D01*
X55493543Y-88411459D01*
X55507403Y-88416418D01*
X55520710Y-88422712D01*
X55533336Y-88430280D01*
X55545159Y-88439048D01*
X55556066Y-88448934D01*
X55565952Y-88459841D01*
X55574720Y-88471664D01*
X55582288Y-88484290D01*
X55588582Y-88497597D01*
X55593541Y-88511457D01*
X55597118Y-88525736D01*
X55599278Y-88540297D01*
X55600000Y-88555000D01*
X55600000Y-88855000D01*
X55599278Y-88869703D01*
X55597118Y-88884264D01*
X55593541Y-88898543D01*
X55588582Y-88912403D01*
X55582288Y-88925710D01*
X55574720Y-88938336D01*
X55565952Y-88950159D01*
X55556066Y-88961066D01*
X55545159Y-88970952D01*
X55533336Y-88979720D01*
X55520710Y-88987288D01*
X55507403Y-88993582D01*
X55493543Y-88998541D01*
X55479264Y-89002118D01*
X55464703Y-89004278D01*
X55450000Y-89005000D01*
X53800000Y-89005000D01*
X53785297Y-89004278D01*
X53770736Y-89002118D01*
X53756457Y-88998541D01*
X53742597Y-88993582D01*
X53729290Y-88987288D01*
X53716664Y-88979720D01*
X53704841Y-88970952D01*
X53693934Y-88961066D01*
X53684048Y-88950159D01*
X53675280Y-88938336D01*
X53667712Y-88925710D01*
X53661418Y-88912403D01*
X53656459Y-88898543D01*
X53652882Y-88884264D01*
X53650722Y-88869703D01*
X53650000Y-88855000D01*
X53650000Y-88555000D01*
X53650722Y-88540297D01*
X53652882Y-88525736D01*
X53656459Y-88511457D01*
X53661418Y-88497597D01*
X53667712Y-88484290D01*
X53675280Y-88471664D01*
X53684048Y-88459841D01*
X53693934Y-88448934D01*
X53704841Y-88439048D01*
X53716664Y-88430280D01*
X53729290Y-88422712D01*
X53742597Y-88416418D01*
X53756457Y-88411459D01*
X53770736Y-88407882D01*
X53785297Y-88405722D01*
X53800000Y-88405000D01*
X55450000Y-88405000D01*
X55464703Y-88405722D01*
G37*
G04 #@! TD.AperFunction*
G04 #@! TA.AperFunction,SMDPad,CuDef*
G36*
X64049504Y-81676204D02*
G01*
X64073773Y-81679804D01*
X64097571Y-81685765D01*
X64120671Y-81694030D01*
X64142849Y-81704520D01*
X64163893Y-81717133D01*
X64183598Y-81731747D01*
X64201777Y-81748223D01*
X64218253Y-81766402D01*
X64232867Y-81786107D01*
X64245480Y-81807151D01*
X64255970Y-81829329D01*
X64264235Y-81852429D01*
X64270196Y-81876227D01*
X64273796Y-81900496D01*
X64275000Y-81925000D01*
X64275000Y-82675000D01*
X64273796Y-82699504D01*
X64270196Y-82723773D01*
X64264235Y-82747571D01*
X64255970Y-82770671D01*
X64245480Y-82792849D01*
X64232867Y-82813893D01*
X64218253Y-82833598D01*
X64201777Y-82851777D01*
X64183598Y-82868253D01*
X64163893Y-82882867D01*
X64142849Y-82895480D01*
X64120671Y-82905970D01*
X64097571Y-82914235D01*
X64073773Y-82920196D01*
X64049504Y-82923796D01*
X64025000Y-82925000D01*
X62775000Y-82925000D01*
X62750496Y-82923796D01*
X62726227Y-82920196D01*
X62702429Y-82914235D01*
X62679329Y-82905970D01*
X62657151Y-82895480D01*
X62636107Y-82882867D01*
X62616402Y-82868253D01*
X62598223Y-82851777D01*
X62581747Y-82833598D01*
X62567133Y-82813893D01*
X62554520Y-82792849D01*
X62544030Y-82770671D01*
X62535765Y-82747571D01*
X62529804Y-82723773D01*
X62526204Y-82699504D01*
X62525000Y-82675000D01*
X62525000Y-81925000D01*
X62526204Y-81900496D01*
X62529804Y-81876227D01*
X62535765Y-81852429D01*
X62544030Y-81829329D01*
X62554520Y-81807151D01*
X62567133Y-81786107D01*
X62581747Y-81766402D01*
X62598223Y-81748223D01*
X62616402Y-81731747D01*
X62636107Y-81717133D01*
X62657151Y-81704520D01*
X62679329Y-81694030D01*
X62702429Y-81685765D01*
X62726227Y-81679804D01*
X62750496Y-81676204D01*
X62775000Y-81675000D01*
X64025000Y-81675000D01*
X64049504Y-81676204D01*
G37*
G04 #@! TD.AperFunction*
G04 #@! TA.AperFunction,SMDPad,CuDef*
G36*
X64049504Y-84476204D02*
G01*
X64073773Y-84479804D01*
X64097571Y-84485765D01*
X64120671Y-84494030D01*
X64142849Y-84504520D01*
X64163893Y-84517133D01*
X64183598Y-84531747D01*
X64201777Y-84548223D01*
X64218253Y-84566402D01*
X64232867Y-84586107D01*
X64245480Y-84607151D01*
X64255970Y-84629329D01*
X64264235Y-84652429D01*
X64270196Y-84676227D01*
X64273796Y-84700496D01*
X64275000Y-84725000D01*
X64275000Y-85475000D01*
X64273796Y-85499504D01*
X64270196Y-85523773D01*
X64264235Y-85547571D01*
X64255970Y-85570671D01*
X64245480Y-85592849D01*
X64232867Y-85613893D01*
X64218253Y-85633598D01*
X64201777Y-85651777D01*
X64183598Y-85668253D01*
X64163893Y-85682867D01*
X64142849Y-85695480D01*
X64120671Y-85705970D01*
X64097571Y-85714235D01*
X64073773Y-85720196D01*
X64049504Y-85723796D01*
X64025000Y-85725000D01*
X62775000Y-85725000D01*
X62750496Y-85723796D01*
X62726227Y-85720196D01*
X62702429Y-85714235D01*
X62679329Y-85705970D01*
X62657151Y-85695480D01*
X62636107Y-85682867D01*
X62616402Y-85668253D01*
X62598223Y-85651777D01*
X62581747Y-85633598D01*
X62567133Y-85613893D01*
X62554520Y-85592849D01*
X62544030Y-85570671D01*
X62535765Y-85547571D01*
X62529804Y-85523773D01*
X62526204Y-85499504D01*
X62525000Y-85475000D01*
X62525000Y-84725000D01*
X62526204Y-84700496D01*
X62529804Y-84676227D01*
X62535765Y-84652429D01*
X62544030Y-84629329D01*
X62554520Y-84607151D01*
X62567133Y-84586107D01*
X62581747Y-84566402D01*
X62598223Y-84548223D01*
X62616402Y-84531747D01*
X62636107Y-84517133D01*
X62657151Y-84504520D01*
X62679329Y-84494030D01*
X62702429Y-84485765D01*
X62726227Y-84479804D01*
X62750496Y-84476204D01*
X62775000Y-84475000D01*
X64025000Y-84475000D01*
X64049504Y-84476204D01*
G37*
G04 #@! TD.AperFunction*
D15*
X78000000Y-87100000D03*
X74400000Y-84600000D03*
X72000000Y-84600000D03*
X81000000Y-86000000D03*
X81000000Y-88100000D03*
X69500000Y-84700000D03*
D11*
X32815000Y-101185000D03*
X32815000Y-103725000D03*
X35355000Y-101185000D03*
X35355000Y-103725000D03*
X37895000Y-101185000D03*
X37895000Y-103725000D03*
X40435000Y-101185000D03*
X40435000Y-103725000D03*
X42975000Y-101185000D03*
X42975000Y-103725000D03*
X45515000Y-101185000D03*
X45515000Y-103725000D03*
X48055000Y-101185000D03*
X48055000Y-103725000D03*
X50595000Y-101185000D03*
X50595000Y-103725000D03*
X53135000Y-101185000D03*
X53135000Y-103725000D03*
X55675000Y-101185000D03*
X55675000Y-103725000D03*
X58215000Y-101185000D03*
X58215000Y-103725000D03*
X60755000Y-101185000D03*
X60755000Y-103725000D03*
X63295000Y-101185000D03*
X63295000Y-103725000D03*
X65835000Y-101185000D03*
X65835000Y-103725000D03*
X68375000Y-101185000D03*
X68375000Y-103725000D03*
X70915000Y-101185000D03*
X70915000Y-103725000D03*
X73455000Y-101185000D03*
X73455000Y-103725000D03*
X75995000Y-101185000D03*
X75995000Y-103725000D03*
X78535000Y-101185000D03*
X78535000Y-103725000D03*
X81075000Y-101185000D03*
D12*
X81075000Y-103725000D03*
D16*
X78500000Y-93500000D03*
X81250000Y-93500000D03*
X81750000Y-80750000D03*
X33291780Y-80545940D03*
X35725100Y-80545940D03*
X38011100Y-80545940D03*
X40548560Y-80243680D03*
X43235880Y-80243680D03*
X45671740Y-80243680D03*
X70995540Y-80396080D03*
X40358900Y-93891100D03*
X43108900Y-93891100D03*
X45608900Y-93891100D03*
X48108900Y-93891100D03*
X50608900Y-93891100D03*
X53108900Y-93891100D03*
X55775000Y-92550000D03*
X58108900Y-93891100D03*
X60608900Y-93891100D03*
X63358900Y-93891100D03*
X65858900Y-93891100D03*
X68108900Y-93891100D03*
X54154720Y-80345280D03*
X56904720Y-80345280D03*
X59154720Y-80345280D03*
X66353920Y-80396080D03*
X37608900Y-93891100D03*
X35358900Y-93891100D03*
X33000000Y-92500000D03*
X70750000Y-93250000D03*
X50000000Y-92600000D03*
X54625000Y-88705000D03*
X55775000Y-93975000D03*
X54625000Y-86165000D03*
X59575000Y-86165000D03*
X58100000Y-91100000D03*
X54625000Y-84895000D03*
X54484019Y-90315981D03*
X54625000Y-87435000D03*
X56978778Y-83718127D03*
D17*
X37879020Y-95885000D02*
X37879020Y-95727520D01*
X37879020Y-95727520D02*
X39715440Y-93891100D01*
X48585120Y-93891100D02*
X50579020Y-95885000D01*
X39715440Y-93891100D02*
X40358900Y-93891100D01*
X37879020Y-78105000D02*
X40017700Y-80243680D01*
X40017700Y-80243680D02*
X40548560Y-80243680D01*
X50579020Y-79103220D02*
X50579020Y-78105000D01*
X49438560Y-80243680D02*
X50579020Y-79103220D01*
X50579020Y-78105000D02*
X52819300Y-80345280D01*
X61038740Y-80345280D02*
X63279020Y-78105000D01*
X52819300Y-80345280D02*
X54154720Y-80345280D01*
X63279020Y-78105000D02*
X63286640Y-78105000D01*
X63286640Y-78105000D02*
X65577720Y-80396080D01*
X73687940Y-80396080D02*
X75979020Y-78105000D01*
X65577720Y-80396080D02*
X66353920Y-80396080D01*
X39715440Y-80545940D02*
X40017700Y-80243680D01*
X39715440Y-93891100D02*
X39715440Y-80545940D01*
D18*
X73832720Y-80396080D02*
X73687940Y-80396080D01*
X75979020Y-82542380D02*
X73832720Y-80396080D01*
D17*
X39715440Y-80545940D02*
X38011100Y-80545940D01*
X33291780Y-80545940D02*
X33291780Y-80545940D01*
X35725100Y-80545940D02*
X33291780Y-80545940D01*
X38011100Y-80545940D02*
X35725100Y-80545940D01*
X40548560Y-80243680D02*
X43235880Y-80243680D01*
X43235880Y-80243680D02*
X45671740Y-80243680D01*
X45671740Y-80243680D02*
X49438560Y-80243680D01*
X70995540Y-80396080D02*
X73687940Y-80396080D01*
X48585120Y-93891100D02*
X50608900Y-93891100D01*
X40358900Y-93891100D02*
X43108900Y-93891100D01*
X43108900Y-93891100D02*
X45608900Y-93891100D01*
X45608900Y-93891100D02*
X48108900Y-93891100D01*
X48108900Y-93891100D02*
X48585120Y-93891100D01*
X58108900Y-93891100D02*
X60608900Y-93891100D01*
X60608900Y-93891100D02*
X63358900Y-93891100D01*
X63358900Y-93891100D02*
X65858900Y-93891100D01*
X65858900Y-93891100D02*
X68108900Y-93891100D01*
X68108900Y-93891100D02*
X68108900Y-93891100D01*
X54154720Y-80345280D02*
X56904720Y-80345280D01*
X56904720Y-80345280D02*
X59154720Y-80345280D01*
X59154720Y-80345280D02*
X61038740Y-80345280D01*
X66353920Y-80396080D02*
X70995540Y-80396080D01*
X39715440Y-93891100D02*
X37608900Y-93891100D01*
X34391100Y-93891100D02*
X33000000Y-92500000D01*
X37608900Y-93891100D02*
X35358900Y-93891100D01*
X35358900Y-93891100D02*
X34391100Y-93891100D01*
X33000000Y-92500000D02*
X33000000Y-92500000D01*
D18*
X75979020Y-89520980D02*
X74479020Y-89520980D01*
X75979020Y-95885000D02*
X75979020Y-89520980D01*
X74479020Y-89520980D02*
X71000000Y-93000000D01*
X71000000Y-93000000D02*
X70750000Y-93250000D01*
X70750000Y-93250000D02*
X70750000Y-93250000D01*
X75979020Y-89520980D02*
X75979020Y-88679020D01*
X75979020Y-88679020D02*
X75500000Y-88200000D01*
X75500000Y-88200000D02*
X75500000Y-86000000D01*
X75979020Y-85520980D02*
X75979020Y-82542380D01*
X75500000Y-86000000D02*
X75979020Y-85520980D01*
X59575000Y-84895000D02*
X59575000Y-84725000D01*
X62170000Y-82300000D02*
X63400000Y-82300000D01*
X59575000Y-84895000D02*
X62170000Y-82300000D01*
X64450000Y-82300000D02*
X66353920Y-80396080D01*
X63400000Y-82300000D02*
X64450000Y-82300000D01*
D19*
X50608900Y-93891100D02*
X53108900Y-93891100D01*
X54433900Y-93891100D02*
X55775000Y-92550000D01*
X53108900Y-93891100D02*
X54433900Y-93891100D01*
X56767800Y-92550000D02*
X58108900Y-93891100D01*
X55775000Y-92550000D02*
X56767800Y-92550000D01*
D18*
X59275000Y-87735000D02*
X58465000Y-87735000D01*
X59575000Y-87435000D02*
X59275000Y-87735000D01*
X58465000Y-87735000D02*
X56100000Y-90100000D01*
X56100000Y-90100000D02*
X56100000Y-90200000D01*
X53800000Y-92600000D02*
X55200000Y-91200000D01*
X50000000Y-92600000D02*
X53800000Y-92600000D01*
X55200000Y-91200000D02*
X55000000Y-91300000D01*
X56100000Y-90200000D02*
X55200000Y-91200000D01*
X52648917Y-94616101D02*
X54568214Y-94616101D01*
X51754021Y-95510997D02*
X52648917Y-94616101D01*
X55209315Y-93975000D02*
X55775000Y-93975000D01*
X54568214Y-94616101D02*
X55209315Y-93975000D01*
X51754021Y-100025979D02*
X51754021Y-95510997D01*
X50595000Y-101185000D02*
X51754021Y-100025979D01*
X82858621Y-83633321D02*
X82858621Y-83858621D01*
X78519020Y-79293720D02*
X82858621Y-83633321D01*
X78519020Y-78105000D02*
X78519020Y-79293720D01*
X79899999Y-98783023D02*
X83440000Y-95243022D01*
X79899999Y-102360001D02*
X79899999Y-98783023D01*
X83440000Y-95243022D02*
X83440000Y-84540000D01*
X78535000Y-103725000D02*
X79899999Y-102360001D01*
X82858621Y-83858621D02*
X83440000Y-84540000D01*
X83308631Y-80354611D02*
X81059020Y-78105000D01*
X83308631Y-83672221D02*
X84050010Y-84413600D01*
X83308631Y-80354611D02*
X83308631Y-83672221D01*
X84050010Y-101849990D02*
X84050010Y-84413600D01*
X82175000Y-103725000D02*
X84050010Y-101849990D01*
X81075000Y-103725000D02*
X82175000Y-103725000D01*
X59575000Y-88705000D02*
X61795000Y-88705000D01*
X63400000Y-87100000D02*
X63400000Y-85100000D01*
X61795000Y-88705000D02*
X63400000Y-87100000D01*
X58100000Y-90180000D02*
X59575000Y-88705000D01*
X58100000Y-91100000D02*
X58100000Y-90180000D01*
X53918334Y-90315981D02*
X52900000Y-89297647D01*
X54484019Y-90315981D02*
X53918334Y-90315981D01*
X52900000Y-89297647D02*
X52900000Y-85700000D01*
X54325000Y-84595000D02*
X54625000Y-84895000D01*
X54005000Y-84595000D02*
X54325000Y-84595000D01*
X52900000Y-85700000D02*
X54005000Y-84595000D01*
X55600000Y-87435000D02*
X57100000Y-85935000D01*
X54625000Y-87435000D02*
X55600000Y-87435000D01*
X57100000Y-83839349D02*
X56978778Y-83718127D01*
X57100000Y-85935000D02*
X57100000Y-83839349D01*
X69687440Y-86587440D02*
X69687440Y-85787440D01*
X69687440Y-86587440D02*
X69687440Y-86205182D01*
X69526780Y-85787440D02*
X69400000Y-85660660D01*
X69400000Y-85660660D02*
X69400000Y-84600000D01*
X69687440Y-85787440D02*
X69526780Y-85787440D01*
X69687440Y-99872560D02*
X68375000Y-101185000D01*
X69687440Y-86587440D02*
X69687440Y-99872560D01*
X81800000Y-85200000D02*
X81000000Y-86000000D01*
X79500000Y-85200000D02*
X80500000Y-84200000D01*
X79500000Y-88008998D02*
X79500000Y-85200000D01*
X79208619Y-88300379D02*
X79500000Y-88008998D01*
X81300000Y-84200000D02*
X81800000Y-84700000D01*
X77344019Y-92146061D02*
X79208619Y-90281461D01*
X81800000Y-84700000D02*
X81800000Y-85200000D01*
X80500000Y-84200000D02*
X81300000Y-84200000D01*
X79208619Y-90281461D02*
X79208619Y-88300379D01*
X77200000Y-97900000D02*
X77200000Y-96600000D01*
X77200000Y-96600000D02*
X77344019Y-92146061D01*
X75995000Y-99982919D02*
X75990000Y-99977919D01*
X75995000Y-101185000D02*
X75995000Y-99982919D01*
X75990000Y-99190000D02*
X76900000Y-98280000D01*
X75990000Y-99977919D02*
X75990000Y-99190000D01*
X76900000Y-98280000D02*
X77200000Y-97900000D01*
X76700000Y-98400000D02*
X76900000Y-98280000D01*
X82154021Y-90308001D02*
X82154021Y-89254021D01*
X79884019Y-92578003D02*
X82154021Y-90308001D01*
X82154021Y-89254021D02*
X81000000Y-88100000D01*
X77160000Y-98983022D02*
X79884019Y-96259003D01*
X77160000Y-99469998D02*
X77160000Y-98983022D01*
X77170001Y-102549999D02*
X77170001Y-99479999D01*
X79884019Y-96259003D02*
X79884019Y-92578003D01*
X77170001Y-99479999D02*
X77160000Y-99469998D01*
X75995000Y-103725000D02*
X77170001Y-102549999D01*
X44325000Y-89800000D02*
X43200000Y-89800000D01*
X45800000Y-88325000D02*
X44325000Y-89800000D01*
X45800000Y-87750000D02*
X45800000Y-88325000D01*
X48000000Y-86800000D02*
X50600000Y-86800000D01*
X48000000Y-88325000D02*
X48400000Y-88725000D01*
X48000000Y-87750000D02*
X48000000Y-88325000D01*
X48400000Y-88725000D02*
X48400000Y-89200000D01*
X49000000Y-89800000D02*
X50600000Y-89800000D01*
X48400000Y-89200000D02*
X49000000Y-89800000D01*
X50600000Y-83800000D02*
X49600000Y-83800000D01*
X49600000Y-83800000D02*
X48400000Y-85000000D01*
X48000000Y-85275000D02*
X48000000Y-85850000D01*
X48275000Y-85000000D02*
X48000000Y-85275000D01*
X48400000Y-85000000D02*
X48275000Y-85000000D01*
X45800000Y-85850000D02*
X45800000Y-84800000D01*
X44800000Y-83800000D02*
X43200000Y-83800000D01*
X45800000Y-84800000D02*
X44800000Y-83800000D01*
X45800000Y-86800000D02*
X43200000Y-86800000D01*
D20*
G36*
X85340000Y-105340000D02*
G01*
X30660000Y-105340000D01*
X30660000Y-101038740D01*
X31330000Y-101038740D01*
X31330000Y-101331260D01*
X31387068Y-101618158D01*
X31499010Y-101888411D01*
X31661525Y-102131632D01*
X31868368Y-102338475D01*
X32042760Y-102455000D01*
X31868368Y-102571525D01*
X31661525Y-102778368D01*
X31499010Y-103021589D01*
X31387068Y-103291842D01*
X31330000Y-103578740D01*
X31330000Y-103871260D01*
X31387068Y-104158158D01*
X31499010Y-104428411D01*
X31661525Y-104671632D01*
X31868368Y-104878475D01*
X32111589Y-105040990D01*
X32381842Y-105152932D01*
X32668740Y-105210000D01*
X32961260Y-105210000D01*
X33248158Y-105152932D01*
X33518411Y-105040990D01*
X33761632Y-104878475D01*
X33968475Y-104671632D01*
X34085000Y-104497240D01*
X34201525Y-104671632D01*
X34408368Y-104878475D01*
X34651589Y-105040990D01*
X34921842Y-105152932D01*
X35208740Y-105210000D01*
X35501260Y-105210000D01*
X35788158Y-105152932D01*
X36058411Y-105040990D01*
X36301632Y-104878475D01*
X36508475Y-104671632D01*
X36630195Y-104489466D01*
X36699822Y-104606355D01*
X36894731Y-104822588D01*
X37128080Y-104996641D01*
X37390901Y-105121825D01*
X37538110Y-105166476D01*
X37768000Y-105045155D01*
X37768000Y-103852000D01*
X37748000Y-103852000D01*
X37748000Y-103598000D01*
X37768000Y-103598000D01*
X37768000Y-101312000D01*
X37748000Y-101312000D01*
X37748000Y-101058000D01*
X37768000Y-101058000D01*
X37768000Y-99864845D01*
X38022000Y-99864845D01*
X38022000Y-101058000D01*
X38042000Y-101058000D01*
X38042000Y-101312000D01*
X38022000Y-101312000D01*
X38022000Y-103598000D01*
X38042000Y-103598000D01*
X38042000Y-103852000D01*
X38022000Y-103852000D01*
X38022000Y-105045155D01*
X38251890Y-105166476D01*
X38399099Y-105121825D01*
X38661920Y-104996641D01*
X38895269Y-104822588D01*
X39090178Y-104606355D01*
X39159805Y-104489466D01*
X39281525Y-104671632D01*
X39488368Y-104878475D01*
X39731589Y-105040990D01*
X40001842Y-105152932D01*
X40288740Y-105210000D01*
X40581260Y-105210000D01*
X40868158Y-105152932D01*
X41138411Y-105040990D01*
X41381632Y-104878475D01*
X41588475Y-104671632D01*
X41705000Y-104497240D01*
X41821525Y-104671632D01*
X42028368Y-104878475D01*
X42271589Y-105040990D01*
X42541842Y-105152932D01*
X42828740Y-105210000D01*
X43121260Y-105210000D01*
X43408158Y-105152932D01*
X43678411Y-105040990D01*
X43921632Y-104878475D01*
X44128475Y-104671632D01*
X44245000Y-104497240D01*
X44361525Y-104671632D01*
X44568368Y-104878475D01*
X44811589Y-105040990D01*
X45081842Y-105152932D01*
X45368740Y-105210000D01*
X45661260Y-105210000D01*
X45948158Y-105152932D01*
X46218411Y-105040990D01*
X46461632Y-104878475D01*
X46668475Y-104671632D01*
X46785000Y-104497240D01*
X46901525Y-104671632D01*
X47108368Y-104878475D01*
X47351589Y-105040990D01*
X47621842Y-105152932D01*
X47908740Y-105210000D01*
X48201260Y-105210000D01*
X48488158Y-105152932D01*
X48758411Y-105040990D01*
X49001632Y-104878475D01*
X49208475Y-104671632D01*
X49325000Y-104497240D01*
X49441525Y-104671632D01*
X49648368Y-104878475D01*
X49891589Y-105040990D01*
X50161842Y-105152932D01*
X50448740Y-105210000D01*
X50741260Y-105210000D01*
X51028158Y-105152932D01*
X51298411Y-105040990D01*
X51541632Y-104878475D01*
X51748475Y-104671632D01*
X51865000Y-104497240D01*
X51981525Y-104671632D01*
X52188368Y-104878475D01*
X52431589Y-105040990D01*
X52701842Y-105152932D01*
X52988740Y-105210000D01*
X53281260Y-105210000D01*
X53568158Y-105152932D01*
X53838411Y-105040990D01*
X54081632Y-104878475D01*
X54288475Y-104671632D01*
X54405000Y-104497240D01*
X54521525Y-104671632D01*
X54728368Y-104878475D01*
X54971589Y-105040990D01*
X55241842Y-105152932D01*
X55528740Y-105210000D01*
X55821260Y-105210000D01*
X56108158Y-105152932D01*
X56378411Y-105040990D01*
X56621632Y-104878475D01*
X56828475Y-104671632D01*
X56945000Y-104497240D01*
X57061525Y-104671632D01*
X57268368Y-104878475D01*
X57511589Y-105040990D01*
X57781842Y-105152932D01*
X58068740Y-105210000D01*
X58361260Y-105210000D01*
X58648158Y-105152932D01*
X58918411Y-105040990D01*
X59161632Y-104878475D01*
X59368475Y-104671632D01*
X59485000Y-104497240D01*
X59601525Y-104671632D01*
X59808368Y-104878475D01*
X60051589Y-105040990D01*
X60321842Y-105152932D01*
X60608740Y-105210000D01*
X60901260Y-105210000D01*
X61188158Y-105152932D01*
X61458411Y-105040990D01*
X61701632Y-104878475D01*
X61908475Y-104671632D01*
X62025000Y-104497240D01*
X62141525Y-104671632D01*
X62348368Y-104878475D01*
X62591589Y-105040990D01*
X62861842Y-105152932D01*
X63148740Y-105210000D01*
X63441260Y-105210000D01*
X63728158Y-105152932D01*
X63998411Y-105040990D01*
X64241632Y-104878475D01*
X64448475Y-104671632D01*
X64565000Y-104497240D01*
X64681525Y-104671632D01*
X64888368Y-104878475D01*
X65131589Y-105040990D01*
X65401842Y-105152932D01*
X65688740Y-105210000D01*
X65981260Y-105210000D01*
X66268158Y-105152932D01*
X66538411Y-105040990D01*
X66781632Y-104878475D01*
X66988475Y-104671632D01*
X67105000Y-104497240D01*
X67221525Y-104671632D01*
X67428368Y-104878475D01*
X67671589Y-105040990D01*
X67941842Y-105152932D01*
X68228740Y-105210000D01*
X68521260Y-105210000D01*
X68808158Y-105152932D01*
X69078411Y-105040990D01*
X69321632Y-104878475D01*
X69528475Y-104671632D01*
X69645000Y-104497240D01*
X69761525Y-104671632D01*
X69968368Y-104878475D01*
X70211589Y-105040990D01*
X70481842Y-105152932D01*
X70768740Y-105210000D01*
X71061260Y-105210000D01*
X71348158Y-105152932D01*
X71618411Y-105040990D01*
X71861632Y-104878475D01*
X72068475Y-104671632D01*
X72185000Y-104497240D01*
X72301525Y-104671632D01*
X72508368Y-104878475D01*
X72751589Y-105040990D01*
X73021842Y-105152932D01*
X73308740Y-105210000D01*
X73601260Y-105210000D01*
X73888158Y-105152932D01*
X74158411Y-105040990D01*
X74401632Y-104878475D01*
X74608475Y-104671632D01*
X74725000Y-104497240D01*
X74841525Y-104671632D01*
X75048368Y-104878475D01*
X75291589Y-105040990D01*
X75561842Y-105152932D01*
X75848740Y-105210000D01*
X76141260Y-105210000D01*
X76428158Y-105152932D01*
X76698411Y-105040990D01*
X76941632Y-104878475D01*
X77148475Y-104671632D01*
X77265000Y-104497240D01*
X77381525Y-104671632D01*
X77588368Y-104878475D01*
X77831589Y-105040990D01*
X78101842Y-105152932D01*
X78388740Y-105210000D01*
X78681260Y-105210000D01*
X78968158Y-105152932D01*
X79238411Y-105040990D01*
X79481632Y-104878475D01*
X79613487Y-104746620D01*
X79635498Y-104819180D01*
X79694463Y-104929494D01*
X79773815Y-105026185D01*
X79870506Y-105105537D01*
X79980820Y-105164502D01*
X80100518Y-105200812D01*
X80225000Y-105213072D01*
X81925000Y-105213072D01*
X82049482Y-105200812D01*
X82169180Y-105164502D01*
X82279494Y-105105537D01*
X82376185Y-105026185D01*
X82455537Y-104929494D01*
X82514502Y-104819180D01*
X82550812Y-104699482D01*
X82563072Y-104575000D01*
X82563072Y-104379326D01*
X82599276Y-104359974D01*
X82715001Y-104265001D01*
X82738804Y-104235997D01*
X84561014Y-102413788D01*
X84590011Y-102389991D01*
X84684984Y-102274266D01*
X84755556Y-102142237D01*
X84799013Y-101998976D01*
X84810010Y-101887323D01*
X84810010Y-101887322D01*
X84813687Y-101849990D01*
X84810010Y-101812657D01*
X84810010Y-84450922D01*
X84813686Y-84413599D01*
X84810010Y-84376276D01*
X84810010Y-84376267D01*
X84799013Y-84264614D01*
X84755556Y-84121353D01*
X84684984Y-83989324D01*
X84590011Y-83873599D01*
X84561012Y-83849801D01*
X84068631Y-83357420D01*
X84068631Y-80391933D01*
X84072307Y-80354610D01*
X84068631Y-80317287D01*
X84068631Y-80317278D01*
X84057634Y-80205625D01*
X84014177Y-80062364D01*
X83943605Y-79930335D01*
X83930442Y-79914296D01*
X83872430Y-79843607D01*
X83872426Y-79843603D01*
X83848632Y-79814610D01*
X83819640Y-79790817D01*
X82500230Y-78471408D01*
X82544020Y-78251260D01*
X82544020Y-77958740D01*
X82486952Y-77671842D01*
X82375010Y-77401589D01*
X82212495Y-77158368D01*
X82005652Y-76951525D01*
X81762431Y-76789010D01*
X81492178Y-76677068D01*
X81205280Y-76620000D01*
X80912760Y-76620000D01*
X80625862Y-76677068D01*
X80355609Y-76789010D01*
X80112388Y-76951525D01*
X79905545Y-77158368D01*
X79789020Y-77332760D01*
X79672495Y-77158368D01*
X79465652Y-76951525D01*
X79222431Y-76789010D01*
X78952178Y-76677068D01*
X78665280Y-76620000D01*
X78372760Y-76620000D01*
X78085862Y-76677068D01*
X77815609Y-76789010D01*
X77572388Y-76951525D01*
X77440533Y-77083380D01*
X77418522Y-77010820D01*
X77359557Y-76900506D01*
X77280205Y-76803815D01*
X77183514Y-76724463D01*
X77073200Y-76665498D01*
X76953502Y-76629188D01*
X76829020Y-76616928D01*
X76264770Y-76620000D01*
X76106020Y-76778750D01*
X76106020Y-77978000D01*
X76126020Y-77978000D01*
X76126020Y-78232000D01*
X76106020Y-78232000D01*
X76106020Y-79431250D01*
X76264770Y-79590000D01*
X76829020Y-79593072D01*
X76953502Y-79580812D01*
X77073200Y-79544502D01*
X77183514Y-79485537D01*
X77280205Y-79406185D01*
X77359557Y-79309494D01*
X77418522Y-79199180D01*
X77440533Y-79126620D01*
X77572388Y-79258475D01*
X77764517Y-79386851D01*
X77770018Y-79442705D01*
X77813474Y-79585966D01*
X77884046Y-79717996D01*
X77955221Y-79804722D01*
X77979020Y-79833721D01*
X78008018Y-79857519D01*
X81705474Y-83554976D01*
X81592247Y-83494454D01*
X81448986Y-83450997D01*
X81337333Y-83440000D01*
X81337322Y-83440000D01*
X81300000Y-83436324D01*
X81262678Y-83440000D01*
X80537333Y-83440000D01*
X80500000Y-83436323D01*
X80462667Y-83440000D01*
X80351014Y-83450997D01*
X80207753Y-83494454D01*
X80075724Y-83565026D01*
X79959999Y-83659999D01*
X79936201Y-83688997D01*
X79268688Y-84356511D01*
X79230795Y-84166011D01*
X79126391Y-83913957D01*
X78974819Y-83687114D01*
X78781906Y-83494201D01*
X78555063Y-83342629D01*
X78303009Y-83238225D01*
X78035431Y-83185000D01*
X77762609Y-83185000D01*
X77495031Y-83238225D01*
X77242977Y-83342629D01*
X77016134Y-83494201D01*
X76823221Y-83687114D01*
X76671649Y-83913957D01*
X76567245Y-84166011D01*
X76514020Y-84433589D01*
X76514020Y-84706411D01*
X76567245Y-84973989D01*
X76671649Y-85226043D01*
X76823221Y-85452886D01*
X77016134Y-85645799D01*
X77119700Y-85715000D01*
X76700000Y-85715000D01*
X76651427Y-85719763D01*
X76609564Y-85715067D01*
X76604950Y-85715035D01*
X76604782Y-85715017D01*
X76604614Y-85715032D01*
X76600000Y-85715000D01*
X76300000Y-85715000D01*
X76237664Y-85721112D01*
X76175285Y-85726449D01*
X76171190Y-85727630D01*
X76166949Y-85728046D01*
X76107015Y-85746141D01*
X76046834Y-85763500D01*
X76043045Y-85765455D01*
X76038967Y-85766686D01*
X75983692Y-85796076D01*
X75928025Y-85824796D01*
X75920991Y-85829415D01*
X75920927Y-85829449D01*
X75920877Y-85829490D01*
X75920030Y-85830046D01*
X75783654Y-85920963D01*
X75784933Y-85909564D01*
X75784965Y-85904950D01*
X75784983Y-85904782D01*
X75784968Y-85904614D01*
X75785000Y-85900000D01*
X75785000Y-84463589D01*
X75731775Y-84196011D01*
X75627371Y-83943957D01*
X75475799Y-83717114D01*
X75282886Y-83524201D01*
X75056043Y-83372629D01*
X74803989Y-83268225D01*
X74536411Y-83215000D01*
X74263589Y-83215000D01*
X73996011Y-83268225D01*
X73743957Y-83372629D01*
X73517114Y-83524201D01*
X73324201Y-83717114D01*
X73200000Y-83902993D01*
X73075799Y-83717114D01*
X72882886Y-83524201D01*
X72656043Y-83372629D01*
X72403989Y-83268225D01*
X72136411Y-83215000D01*
X71863589Y-83215000D01*
X71596011Y-83268225D01*
X71343957Y-83372629D01*
X71117114Y-83524201D01*
X70924201Y-83717114D01*
X70772629Y-83943957D01*
X70729289Y-84048588D01*
X70727371Y-84043957D01*
X70575799Y-83817114D01*
X70382886Y-83624201D01*
X70156043Y-83472629D01*
X69903989Y-83368225D01*
X69636411Y-83315000D01*
X69363589Y-83315000D01*
X69096011Y-83368225D01*
X68843957Y-83472629D01*
X68617114Y-83624201D01*
X68424201Y-83817114D01*
X68272629Y-84043957D01*
X68168225Y-84296011D01*
X68115000Y-84563589D01*
X68115000Y-86000000D01*
X68119763Y-86048573D01*
X68115067Y-86090436D01*
X68115035Y-86095050D01*
X68115017Y-86095218D01*
X68115032Y-86095386D01*
X68115000Y-86100000D01*
X68115000Y-86400000D01*
X68121112Y-86462336D01*
X68126449Y-86524715D01*
X68127630Y-86528810D01*
X68128046Y-86533051D01*
X68146141Y-86592985D01*
X68163500Y-86653166D01*
X68165455Y-86656955D01*
X68166686Y-86661033D01*
X68196076Y-86716308D01*
X68224796Y-86771975D01*
X68229415Y-86779009D01*
X68229449Y-86779073D01*
X68229490Y-86779123D01*
X68230046Y-86779970D01*
X68430045Y-87079970D01*
X68443230Y-87096085D01*
X68454125Y-87113818D01*
X68485473Y-87147712D01*
X68514704Y-87183438D01*
X68530759Y-87196678D01*
X68544898Y-87211965D01*
X68582238Y-87239129D01*
X68617846Y-87268492D01*
X68636170Y-87278363D01*
X68653006Y-87290610D01*
X68694908Y-87310002D01*
X68735545Y-87331892D01*
X68755437Y-87338015D01*
X68774332Y-87346760D01*
X68783384Y-87349848D01*
X68927440Y-87397867D01*
X68927441Y-94513095D01*
X68792178Y-94457068D01*
X68505280Y-94400000D01*
X68212760Y-94400000D01*
X67925862Y-94457068D01*
X67655609Y-94569010D01*
X67412388Y-94731525D01*
X67205545Y-94938368D01*
X67089020Y-95112760D01*
X66972495Y-94938368D01*
X66765652Y-94731525D01*
X66522431Y-94569010D01*
X66252178Y-94457068D01*
X65965280Y-94400000D01*
X65672760Y-94400000D01*
X65385862Y-94457068D01*
X65115609Y-94569010D01*
X64872388Y-94731525D01*
X64740533Y-94863380D01*
X64718522Y-94790820D01*
X64659557Y-94680506D01*
X64580205Y-94583815D01*
X64483514Y-94504463D01*
X64373200Y-94445498D01*
X64253502Y-94409188D01*
X64129020Y-94396928D01*
X62429020Y-94396928D01*
X62304538Y-94409188D01*
X62184840Y-94445498D01*
X62074526Y-94504463D01*
X61977835Y-94583815D01*
X61898483Y-94680506D01*
X61839518Y-94790820D01*
X61817507Y-94863380D01*
X61685652Y-94731525D01*
X61442431Y-94569010D01*
X61172178Y-94457068D01*
X60885280Y-94400000D01*
X60592760Y-94400000D01*
X60305862Y-94457068D01*
X60035609Y-94569010D01*
X59792388Y-94731525D01*
X59585545Y-94938368D01*
X59469020Y-95112760D01*
X59352495Y-94938368D01*
X59145652Y-94731525D01*
X58902431Y-94569010D01*
X58632178Y-94457068D01*
X58345280Y-94400000D01*
X58052760Y-94400000D01*
X57765862Y-94457068D01*
X57495609Y-94569010D01*
X57252388Y-94731525D01*
X57045545Y-94938368D01*
X56929020Y-95112760D01*
X56812495Y-94938368D01*
X56605652Y-94731525D01*
X56531640Y-94682071D01*
X56578937Y-94634774D01*
X56692205Y-94465256D01*
X56770226Y-94276898D01*
X56810000Y-94076939D01*
X56810000Y-93873061D01*
X56770226Y-93673102D01*
X56692205Y-93484744D01*
X56578937Y-93315226D01*
X56434774Y-93171063D01*
X56265256Y-93057795D01*
X56076898Y-92979774D01*
X55876939Y-92940000D01*
X55673061Y-92940000D01*
X55473102Y-92979774D01*
X55284744Y-93057795D01*
X55115226Y-93171063D01*
X55060276Y-93226013D01*
X54917068Y-93269454D01*
X54785039Y-93340026D01*
X54669314Y-93434999D01*
X54645515Y-93463998D01*
X54253413Y-93856101D01*
X52686239Y-93856101D01*
X52648916Y-93852425D01*
X52611593Y-93856101D01*
X52611584Y-93856101D01*
X52499931Y-93867098D01*
X52356670Y-93910555D01*
X52224640Y-93981127D01*
X52141000Y-94049769D01*
X52108916Y-94076100D01*
X52085118Y-94105098D01*
X51719806Y-94470410D01*
X51673200Y-94445498D01*
X51553502Y-94409188D01*
X51429020Y-94396928D01*
X50864770Y-94400000D01*
X50706020Y-94558750D01*
X50706020Y-95758000D01*
X50726020Y-95758000D01*
X50726020Y-96012000D01*
X50706020Y-96012000D01*
X50706020Y-97211250D01*
X50864770Y-97370000D01*
X50994022Y-97370704D01*
X50994021Y-99711177D01*
X50961408Y-99743790D01*
X50741260Y-99700000D01*
X50448740Y-99700000D01*
X50161842Y-99757068D01*
X49891589Y-99869010D01*
X49648368Y-100031525D01*
X49441525Y-100238368D01*
X49325000Y-100412760D01*
X49208475Y-100238368D01*
X49001632Y-100031525D01*
X48758411Y-99869010D01*
X48488158Y-99757068D01*
X48201260Y-99700000D01*
X47908740Y-99700000D01*
X47621842Y-99757068D01*
X47351589Y-99869010D01*
X47108368Y-100031525D01*
X46901525Y-100238368D01*
X46785000Y-100412760D01*
X46668475Y-100238368D01*
X46461632Y-100031525D01*
X46218411Y-99869010D01*
X45948158Y-99757068D01*
X45661260Y-99700000D01*
X45368740Y-99700000D01*
X45081842Y-99757068D01*
X44811589Y-99869010D01*
X44568368Y-100031525D01*
X44361525Y-100238368D01*
X44245000Y-100412760D01*
X44128475Y-100238368D01*
X43921632Y-100031525D01*
X43678411Y-99869010D01*
X43408158Y-99757068D01*
X43121260Y-99700000D01*
X42828740Y-99700000D01*
X42541842Y-99757068D01*
X42271589Y-99869010D01*
X42028368Y-100031525D01*
X41821525Y-100238368D01*
X41705000Y-100412760D01*
X41588475Y-100238368D01*
X41381632Y-100031525D01*
X41138411Y-99869010D01*
X40868158Y-99757068D01*
X40581260Y-99700000D01*
X40288740Y-99700000D01*
X40001842Y-99757068D01*
X39731589Y-99869010D01*
X39488368Y-100031525D01*
X39281525Y-100238368D01*
X39159805Y-100420534D01*
X39090178Y-100303645D01*
X38895269Y-100087412D01*
X38661920Y-99913359D01*
X38399099Y-99788175D01*
X38251890Y-99743524D01*
X38022000Y-99864845D01*
X37768000Y-99864845D01*
X37538110Y-99743524D01*
X37390901Y-99788175D01*
X37128080Y-99913359D01*
X36894731Y-100087412D01*
X36699822Y-100303645D01*
X36630195Y-100420534D01*
X36508475Y-100238368D01*
X36301632Y-100031525D01*
X36058411Y-99869010D01*
X35788158Y-99757068D01*
X35501260Y-99700000D01*
X35208740Y-99700000D01*
X34921842Y-99757068D01*
X34651589Y-99869010D01*
X34408368Y-100031525D01*
X34201525Y-100238368D01*
X34085000Y-100412760D01*
X33968475Y-100238368D01*
X33761632Y-100031525D01*
X33518411Y-99869010D01*
X33248158Y-99757068D01*
X32961260Y-99700000D01*
X32668740Y-99700000D01*
X32381842Y-99757068D01*
X32111589Y-99869010D01*
X31868368Y-100031525D01*
X31661525Y-100238368D01*
X31499010Y-100481589D01*
X31387068Y-100751842D01*
X31330000Y-101038740D01*
X30660000Y-101038740D01*
X30660000Y-95738740D01*
X31314020Y-95738740D01*
X31314020Y-96031260D01*
X31371088Y-96318158D01*
X31483030Y-96588411D01*
X31645545Y-96831632D01*
X31852388Y-97038475D01*
X32095609Y-97200990D01*
X32365862Y-97312932D01*
X32652760Y-97370000D01*
X32945280Y-97370000D01*
X33232178Y-97312932D01*
X33502431Y-97200990D01*
X33745652Y-97038475D01*
X33952495Y-96831632D01*
X34069020Y-96657240D01*
X34185545Y-96831632D01*
X34392388Y-97038475D01*
X34635609Y-97200990D01*
X34905862Y-97312932D01*
X35192760Y-97370000D01*
X35485280Y-97370000D01*
X35772178Y-97312932D01*
X36042431Y-97200990D01*
X36285652Y-97038475D01*
X36417507Y-96906620D01*
X36439518Y-96979180D01*
X36498483Y-97089494D01*
X36577835Y-97186185D01*
X36674526Y-97265537D01*
X36784840Y-97324502D01*
X36904538Y-97360812D01*
X37029020Y-97373072D01*
X37593270Y-97370000D01*
X37752020Y-97211250D01*
X37752020Y-96012000D01*
X37732020Y-96012000D01*
X37732020Y-95758000D01*
X37752020Y-95758000D01*
X37752020Y-94558750D01*
X38006020Y-94558750D01*
X38006020Y-95758000D01*
X38026020Y-95758000D01*
X38026020Y-96012000D01*
X38006020Y-96012000D01*
X38006020Y-97211250D01*
X38164770Y-97370000D01*
X38729020Y-97373072D01*
X38853502Y-97360812D01*
X38973200Y-97324502D01*
X39083514Y-97265537D01*
X39180205Y-97186185D01*
X39259557Y-97089494D01*
X39318522Y-96979180D01*
X39340533Y-96906620D01*
X39472388Y-97038475D01*
X39715609Y-97200990D01*
X39985862Y-97312932D01*
X40272760Y-97370000D01*
X40565280Y-97370000D01*
X40852178Y-97312932D01*
X41122431Y-97200990D01*
X41365652Y-97038475D01*
X41572495Y-96831632D01*
X41689020Y-96657240D01*
X41805545Y-96831632D01*
X42012388Y-97038475D01*
X42255609Y-97200990D01*
X42525862Y-97312932D01*
X42812760Y-97370000D01*
X43105280Y-97370000D01*
X43392178Y-97312932D01*
X43662431Y-97200990D01*
X43905652Y-97038475D01*
X44112495Y-96831632D01*
X44229020Y-96657240D01*
X44345545Y-96831632D01*
X44552388Y-97038475D01*
X44795609Y-97200990D01*
X45065862Y-97312932D01*
X45352760Y-97370000D01*
X45645280Y-97370000D01*
X45932178Y-97312932D01*
X46202431Y-97200990D01*
X46445652Y-97038475D01*
X46652495Y-96831632D01*
X46769020Y-96657240D01*
X46885545Y-96831632D01*
X47092388Y-97038475D01*
X47335609Y-97200990D01*
X47605862Y-97312932D01*
X47892760Y-97370000D01*
X48185280Y-97370000D01*
X48472178Y-97312932D01*
X48742431Y-97200990D01*
X48985652Y-97038475D01*
X49117507Y-96906620D01*
X49139518Y-96979180D01*
X49198483Y-97089494D01*
X49277835Y-97186185D01*
X49374526Y-97265537D01*
X49484840Y-97324502D01*
X49604538Y-97360812D01*
X49729020Y-97373072D01*
X50293270Y-97370000D01*
X50452020Y-97211250D01*
X50452020Y-96012000D01*
X50432020Y-96012000D01*
X50432020Y-95758000D01*
X50452020Y-95758000D01*
X50452020Y-94558750D01*
X50293270Y-94400000D01*
X49729020Y-94396928D01*
X49604538Y-94409188D01*
X49484840Y-94445498D01*
X49374526Y-94504463D01*
X49277835Y-94583815D01*
X49198483Y-94680506D01*
X49139518Y-94790820D01*
X49117507Y-94863380D01*
X48985652Y-94731525D01*
X48742431Y-94569010D01*
X48472178Y-94457068D01*
X48185280Y-94400000D01*
X47892760Y-94400000D01*
X47605862Y-94457068D01*
X47335609Y-94569010D01*
X47092388Y-94731525D01*
X46885545Y-94938368D01*
X46769020Y-95112760D01*
X46652495Y-94938368D01*
X46445652Y-94731525D01*
X46202431Y-94569010D01*
X45932178Y-94457068D01*
X45645280Y-94400000D01*
X45352760Y-94400000D01*
X45065862Y-94457068D01*
X44795609Y-94569010D01*
X44552388Y-94731525D01*
X44345545Y-94938368D01*
X44229020Y-95112760D01*
X44112495Y-94938368D01*
X43905652Y-94731525D01*
X43662431Y-94569010D01*
X43392178Y-94457068D01*
X43105280Y-94400000D01*
X42812760Y-94400000D01*
X42525862Y-94457068D01*
X42255609Y-94569010D01*
X42012388Y-94731525D01*
X41805545Y-94938368D01*
X41689020Y-95112760D01*
X41572495Y-94938368D01*
X41365652Y-94731525D01*
X41122431Y-94569010D01*
X40852178Y-94457068D01*
X40565280Y-94400000D01*
X40272760Y-94400000D01*
X39985862Y-94457068D01*
X39715609Y-94569010D01*
X39472388Y-94731525D01*
X39340533Y-94863380D01*
X39318522Y-94790820D01*
X39259557Y-94680506D01*
X39180205Y-94583815D01*
X39083514Y-94504463D01*
X38973200Y-94445498D01*
X38853502Y-94409188D01*
X38729020Y-94396928D01*
X38164770Y-94400000D01*
X38006020Y-94558750D01*
X37752020Y-94558750D01*
X37593270Y-94400000D01*
X37029020Y-94396928D01*
X36904538Y-94409188D01*
X36784840Y-94445498D01*
X36674526Y-94504463D01*
X36577835Y-94583815D01*
X36498483Y-94680506D01*
X36439518Y-94790820D01*
X36417507Y-94863380D01*
X36285652Y-94731525D01*
X36042431Y-94569010D01*
X35772178Y-94457068D01*
X35485280Y-94400000D01*
X35192760Y-94400000D01*
X34905862Y-94457068D01*
X34635609Y-94569010D01*
X34392388Y-94731525D01*
X34185545Y-94938368D01*
X34069020Y-95112760D01*
X33952495Y-94938368D01*
X33745652Y-94731525D01*
X33502431Y-94569010D01*
X33232178Y-94457068D01*
X32945280Y-94400000D01*
X32652760Y-94400000D01*
X32365862Y-94457068D01*
X32095609Y-94569010D01*
X31852388Y-94731525D01*
X31645545Y-94938368D01*
X31483030Y-95181589D01*
X31371088Y-95451842D01*
X31314020Y-95738740D01*
X30660000Y-95738740D01*
X30660000Y-92498061D01*
X48965000Y-92498061D01*
X48965000Y-92701939D01*
X49004774Y-92901898D01*
X49082795Y-93090256D01*
X49196063Y-93259774D01*
X49340226Y-93403937D01*
X49509744Y-93517205D01*
X49698102Y-93595226D01*
X49898061Y-93635000D01*
X50101939Y-93635000D01*
X50301898Y-93595226D01*
X50490256Y-93517205D01*
X50659774Y-93403937D01*
X50703711Y-93360000D01*
X53762678Y-93360000D01*
X53800000Y-93363676D01*
X53837322Y-93360000D01*
X53837333Y-93360000D01*
X53948986Y-93349003D01*
X54092247Y-93305546D01*
X54224276Y-93234974D01*
X54340001Y-93140001D01*
X54363804Y-93110997D01*
X55725157Y-91749645D01*
X55739929Y-91736162D01*
X55744608Y-91730964D01*
X55776923Y-91700362D01*
X55794561Y-91675460D01*
X56626510Y-90751073D01*
X56640001Y-90740001D01*
X56676482Y-90695548D01*
X56689877Y-90680665D01*
X56700173Y-90666681D01*
X56734974Y-90624275D01*
X56744461Y-90606526D01*
X56756395Y-90590317D01*
X56779679Y-90540639D01*
X56805546Y-90492246D01*
X56811389Y-90472984D01*
X56819833Y-90454968D01*
X57402959Y-89871842D01*
X57394454Y-89887754D01*
X57375881Y-89948985D01*
X57353207Y-90023734D01*
X57350998Y-90031015D01*
X57336324Y-90180000D01*
X57340001Y-90217332D01*
X57340001Y-90396288D01*
X57296063Y-90440226D01*
X57182795Y-90609744D01*
X57104774Y-90798102D01*
X57065000Y-90998061D01*
X57065000Y-91201939D01*
X57104774Y-91401898D01*
X57182795Y-91590256D01*
X57296063Y-91759774D01*
X57440226Y-91903937D01*
X57609744Y-92017205D01*
X57798102Y-92095226D01*
X57998061Y-92135000D01*
X58201939Y-92135000D01*
X58401898Y-92095226D01*
X58590256Y-92017205D01*
X58759774Y-91903937D01*
X58903937Y-91759774D01*
X59017205Y-91590256D01*
X59095226Y-91401898D01*
X59135000Y-91201939D01*
X59135000Y-90998061D01*
X59095226Y-90798102D01*
X59017205Y-90609744D01*
X58908198Y-90446603D01*
X59711730Y-89643072D01*
X60400000Y-89643072D01*
X60553745Y-89627929D01*
X60701582Y-89583084D01*
X60837829Y-89510258D01*
X60892976Y-89465000D01*
X61757678Y-89465000D01*
X61795000Y-89468676D01*
X61832322Y-89465000D01*
X61832333Y-89465000D01*
X61943986Y-89454003D01*
X62087247Y-89410546D01*
X62219276Y-89339974D01*
X62335001Y-89245001D01*
X62358804Y-89215997D01*
X63911004Y-87663798D01*
X63940001Y-87640001D01*
X64034974Y-87524276D01*
X64105546Y-87392247D01*
X64149003Y-87248986D01*
X64160000Y-87137333D01*
X64160000Y-87137325D01*
X64163676Y-87100000D01*
X64160000Y-87062675D01*
X64160000Y-86349776D01*
X64198254Y-86346008D01*
X64364850Y-86295472D01*
X64518386Y-86213405D01*
X64652962Y-86102962D01*
X64763405Y-85968386D01*
X64845472Y-85814850D01*
X64896008Y-85648254D01*
X64913072Y-85475000D01*
X64913072Y-84725000D01*
X64896008Y-84551746D01*
X64845472Y-84385150D01*
X64763405Y-84231614D01*
X64652962Y-84097038D01*
X64518386Y-83986595D01*
X64364850Y-83904528D01*
X64198254Y-83853992D01*
X64025000Y-83836928D01*
X62775000Y-83836928D01*
X62601746Y-83853992D01*
X62435150Y-83904528D01*
X62281614Y-83986595D01*
X62147038Y-84097038D01*
X62036595Y-84231614D01*
X61954528Y-84385150D01*
X61903992Y-84551746D01*
X61886928Y-84725000D01*
X61886928Y-85475000D01*
X61903992Y-85648254D01*
X61954528Y-85814850D01*
X62036595Y-85968386D01*
X62147038Y-86102962D01*
X62281614Y-86213405D01*
X62435150Y-86295472D01*
X62601746Y-86346008D01*
X62640000Y-86349776D01*
X62640000Y-86785198D01*
X61480199Y-87945000D01*
X61096859Y-87945000D01*
X61128084Y-87886582D01*
X61172929Y-87738745D01*
X61188072Y-87585000D01*
X61188072Y-87285000D01*
X61172929Y-87131255D01*
X61128084Y-86983418D01*
X61055258Y-86847171D01*
X61016546Y-86800000D01*
X61055258Y-86752829D01*
X61128084Y-86616582D01*
X61172929Y-86468745D01*
X61188072Y-86315000D01*
X61188072Y-86015000D01*
X61172929Y-85861255D01*
X61128084Y-85713418D01*
X61056270Y-85579064D01*
X61080537Y-85549494D01*
X61139502Y-85439180D01*
X61175812Y-85319482D01*
X61188072Y-85195000D01*
X61185000Y-85180750D01*
X61026250Y-85022000D01*
X59702000Y-85022000D01*
X59702000Y-85042000D01*
X59448000Y-85042000D01*
X59448000Y-85022000D01*
X58123750Y-85022000D01*
X57965000Y-85180750D01*
X57961928Y-85195000D01*
X57974188Y-85319482D01*
X58010498Y-85439180D01*
X58069463Y-85549494D01*
X58093730Y-85579064D01*
X58021916Y-85713418D01*
X57977071Y-85861255D01*
X57961928Y-86015000D01*
X57961928Y-86315000D01*
X57977071Y-86468745D01*
X58021916Y-86616582D01*
X58094742Y-86752829D01*
X58133454Y-86800000D01*
X58094742Y-86847171D01*
X58021916Y-86983418D01*
X57977071Y-87131255D01*
X57974820Y-87154112D01*
X57958765Y-87167288D01*
X57924999Y-87194999D01*
X57901201Y-87223997D01*
X56234562Y-88890637D01*
X56238072Y-88855000D01*
X56238072Y-88555000D01*
X56222929Y-88401255D01*
X56178084Y-88253418D01*
X56105258Y-88117171D01*
X56066546Y-88070000D01*
X56105258Y-88022829D01*
X56123650Y-87988420D01*
X56140001Y-87975001D01*
X56163804Y-87945997D01*
X57611004Y-86498798D01*
X57640001Y-86475001D01*
X57734974Y-86359276D01*
X57805546Y-86227247D01*
X57849003Y-86083986D01*
X57860000Y-85972333D01*
X57860000Y-85972324D01*
X57863676Y-85935001D01*
X57860000Y-85897678D01*
X57860000Y-84595000D01*
X57961928Y-84595000D01*
X57965000Y-84609250D01*
X58123750Y-84768000D01*
X59448000Y-84768000D01*
X59448000Y-84118750D01*
X59702000Y-84118750D01*
X59702000Y-84768000D01*
X61026250Y-84768000D01*
X61185000Y-84609250D01*
X61188072Y-84595000D01*
X61175812Y-84470518D01*
X61139502Y-84350820D01*
X61080537Y-84240506D01*
X61001185Y-84143815D01*
X60904494Y-84064463D01*
X60794180Y-84005498D01*
X60674482Y-83969188D01*
X60550000Y-83956928D01*
X59860750Y-83960000D01*
X59702000Y-84118750D01*
X59448000Y-84118750D01*
X59289250Y-83960000D01*
X58600000Y-83956928D01*
X58475518Y-83969188D01*
X58355820Y-84005498D01*
X58245506Y-84064463D01*
X58148815Y-84143815D01*
X58069463Y-84240506D01*
X58010498Y-84350820D01*
X57974188Y-84470518D01*
X57961928Y-84595000D01*
X57860000Y-84595000D01*
X57860000Y-84262236D01*
X57895983Y-84208383D01*
X57974004Y-84020025D01*
X58013778Y-83820066D01*
X58013778Y-83616188D01*
X57974004Y-83416229D01*
X57895983Y-83227871D01*
X57782715Y-83058353D01*
X57649362Y-82925000D01*
X61886928Y-82925000D01*
X61899188Y-83049482D01*
X61935498Y-83169180D01*
X61994463Y-83279494D01*
X62073815Y-83376185D01*
X62170506Y-83455537D01*
X62280820Y-83514502D01*
X62400518Y-83550812D01*
X62525000Y-83563072D01*
X63114250Y-83560000D01*
X63273000Y-83401250D01*
X63273000Y-82427000D01*
X63527000Y-82427000D01*
X63527000Y-83401250D01*
X63685750Y-83560000D01*
X64275000Y-83563072D01*
X64399482Y-83550812D01*
X64519180Y-83514502D01*
X64629494Y-83455537D01*
X64726185Y-83376185D01*
X64805537Y-83279494D01*
X64864502Y-83169180D01*
X64900812Y-83049482D01*
X64913072Y-82925000D01*
X64910000Y-82585750D01*
X64751250Y-82427000D01*
X63527000Y-82427000D01*
X63273000Y-82427000D01*
X62048750Y-82427000D01*
X61890000Y-82585750D01*
X61886928Y-82925000D01*
X57649362Y-82925000D01*
X57638552Y-82914190D01*
X57469034Y-82800922D01*
X57280676Y-82722901D01*
X57080717Y-82683127D01*
X56876839Y-82683127D01*
X56676880Y-82722901D01*
X56488522Y-82800922D01*
X56319004Y-82914190D01*
X56174841Y-83058353D01*
X56061573Y-83227871D01*
X55983552Y-83416229D01*
X55943778Y-83616188D01*
X55943778Y-83820066D01*
X55983552Y-84020025D01*
X56061573Y-84208383D01*
X56174841Y-84377901D01*
X56319004Y-84522064D01*
X56340001Y-84536093D01*
X56340000Y-85620198D01*
X56194072Y-85766126D01*
X56178084Y-85713418D01*
X56105258Y-85577171D01*
X56066546Y-85530000D01*
X56105258Y-85482829D01*
X56178084Y-85346582D01*
X56222929Y-85198745D01*
X56238072Y-85045000D01*
X56238072Y-84745000D01*
X56222929Y-84591255D01*
X56178084Y-84443418D01*
X56105258Y-84307171D01*
X56007251Y-84187749D01*
X55887829Y-84089742D01*
X55751582Y-84016916D01*
X55603745Y-83972071D01*
X55450000Y-83956928D01*
X55064879Y-83956928D01*
X54926898Y-83899774D01*
X54726939Y-83860000D01*
X54523061Y-83860000D01*
X54521302Y-83860350D01*
X54473986Y-83845997D01*
X54362333Y-83835000D01*
X54362322Y-83835000D01*
X54325000Y-83831324D01*
X54287678Y-83835000D01*
X54042322Y-83835000D01*
X54005000Y-83831324D01*
X53967677Y-83835000D01*
X53967667Y-83835000D01*
X53856014Y-83845997D01*
X53712753Y-83889454D01*
X53580723Y-83960026D01*
X53522746Y-84007607D01*
X53519017Y-84010667D01*
X53498418Y-84016916D01*
X53362171Y-84089742D01*
X53242749Y-84187749D01*
X53144742Y-84307171D01*
X53071916Y-84443418D01*
X53067621Y-84457578D01*
X52388998Y-85136201D01*
X52360000Y-85159999D01*
X52336202Y-85188997D01*
X52336201Y-85188998D01*
X52265026Y-85275724D01*
X52194454Y-85407754D01*
X52166583Y-85499636D01*
X52150998Y-85551014D01*
X52142770Y-85634552D01*
X52136324Y-85700000D01*
X52140001Y-85737332D01*
X52140000Y-89260324D01*
X52136324Y-89297647D01*
X52140000Y-89334969D01*
X52140000Y-89334979D01*
X52150997Y-89446632D01*
X52184167Y-89555981D01*
X52194454Y-89589893D01*
X52265026Y-89721923D01*
X52292766Y-89755724D01*
X52359999Y-89837648D01*
X52389002Y-89861451D01*
X53354535Y-90826984D01*
X53378333Y-90855982D01*
X53494058Y-90950955D01*
X53626087Y-91021527D01*
X53769295Y-91064968D01*
X53824245Y-91119918D01*
X53993763Y-91233186D01*
X54063236Y-91261963D01*
X53485199Y-91840000D01*
X50703711Y-91840000D01*
X50659774Y-91796063D01*
X50490256Y-91682795D01*
X50301898Y-91604774D01*
X50101939Y-91565000D01*
X49898061Y-91565000D01*
X49698102Y-91604774D01*
X49509744Y-91682795D01*
X49340226Y-91796063D01*
X49196063Y-91940226D01*
X49082795Y-92109744D01*
X49004774Y-92298102D01*
X48965000Y-92498061D01*
X30660000Y-92498061D01*
X30660000Y-86145000D01*
X31540948Y-86145000D01*
X31540948Y-87845000D01*
X31553208Y-87969482D01*
X31589518Y-88089180D01*
X31648483Y-88199494D01*
X31727835Y-88296185D01*
X31824526Y-88375537D01*
X31934840Y-88434502D01*
X32007400Y-88456513D01*
X31875545Y-88588368D01*
X31713030Y-88831589D01*
X31601088Y-89101842D01*
X31544020Y-89388740D01*
X31544020Y-89681260D01*
X31601088Y-89968158D01*
X31713030Y-90238411D01*
X31875545Y-90481632D01*
X32082388Y-90688475D01*
X32325609Y-90850990D01*
X32595862Y-90962932D01*
X32882760Y-91020000D01*
X33175280Y-91020000D01*
X33462178Y-90962932D01*
X33732431Y-90850990D01*
X33975652Y-90688475D01*
X34182495Y-90481632D01*
X34345010Y-90238411D01*
X34456952Y-89968158D01*
X34514020Y-89681260D01*
X34514020Y-89388740D01*
X34456952Y-89101842D01*
X34345010Y-88831589D01*
X34182495Y-88588368D01*
X34050640Y-88456513D01*
X34123200Y-88434502D01*
X34233514Y-88375537D01*
X34330205Y-88296185D01*
X34409557Y-88199494D01*
X34468522Y-88089180D01*
X34504832Y-87969482D01*
X34517092Y-87845000D01*
X34517092Y-86145000D01*
X34504832Y-86020518D01*
X34468522Y-85900820D01*
X34409557Y-85790506D01*
X34330205Y-85693815D01*
X34233514Y-85614463D01*
X34123200Y-85555498D01*
X34050640Y-85533487D01*
X34182495Y-85401632D01*
X34345010Y-85158411D01*
X34456952Y-84888158D01*
X34514020Y-84601260D01*
X34514020Y-84308740D01*
X34456952Y-84021842D01*
X34345010Y-83751589D01*
X34182495Y-83508368D01*
X33975652Y-83301525D01*
X33732431Y-83139010D01*
X33517541Y-83050000D01*
X41811928Y-83050000D01*
X41811928Y-84550000D01*
X41824188Y-84674482D01*
X41860498Y-84794180D01*
X41919463Y-84904494D01*
X41998815Y-85001185D01*
X42095506Y-85080537D01*
X42205820Y-85139502D01*
X42325518Y-85175812D01*
X42450000Y-85188072D01*
X43950000Y-85188072D01*
X44074482Y-85175812D01*
X44194180Y-85139502D01*
X44304494Y-85080537D01*
X44401185Y-85001185D01*
X44480537Y-84904494D01*
X44539502Y-84794180D01*
X44575812Y-84674482D01*
X44577952Y-84652753D01*
X44918214Y-84993016D01*
X44915506Y-84994463D01*
X44818815Y-85073815D01*
X44739463Y-85170506D01*
X44680498Y-85280820D01*
X44644188Y-85400518D01*
X44631928Y-85525000D01*
X44631928Y-86040000D01*
X44587087Y-86040000D01*
X44575812Y-85925518D01*
X44539502Y-85805820D01*
X44480537Y-85695506D01*
X44401185Y-85598815D01*
X44304494Y-85519463D01*
X44194180Y-85460498D01*
X44074482Y-85424188D01*
X43950000Y-85411928D01*
X42450000Y-85411928D01*
X42325518Y-85424188D01*
X42205820Y-85460498D01*
X42095506Y-85519463D01*
X41998815Y-85598815D01*
X41919463Y-85695506D01*
X41860498Y-85805820D01*
X41824188Y-85925518D01*
X41811928Y-86050000D01*
X41811928Y-87550000D01*
X41824188Y-87674482D01*
X41860498Y-87794180D01*
X41919463Y-87904494D01*
X41998815Y-88001185D01*
X42095506Y-88080537D01*
X42205820Y-88139502D01*
X42325518Y-88175812D01*
X42450000Y-88188072D01*
X43950000Y-88188072D01*
X44074482Y-88175812D01*
X44194180Y-88139502D01*
X44304494Y-88080537D01*
X44401185Y-88001185D01*
X44480537Y-87904494D01*
X44539502Y-87794180D01*
X44575812Y-87674482D01*
X44587087Y-87560000D01*
X44631928Y-87560000D01*
X44631928Y-88075000D01*
X44644188Y-88199482D01*
X44680498Y-88319180D01*
X44698096Y-88352103D01*
X44423812Y-88626386D01*
X44401185Y-88598815D01*
X44304494Y-88519463D01*
X44194180Y-88460498D01*
X44074482Y-88424188D01*
X43950000Y-88411928D01*
X42450000Y-88411928D01*
X42325518Y-88424188D01*
X42205820Y-88460498D01*
X42095506Y-88519463D01*
X41998815Y-88598815D01*
X41919463Y-88695506D01*
X41860498Y-88805820D01*
X41824188Y-88925518D01*
X41811928Y-89050000D01*
X41811928Y-90550000D01*
X41824188Y-90674482D01*
X41860498Y-90794180D01*
X41919463Y-90904494D01*
X41998815Y-91001185D01*
X42095506Y-91080537D01*
X42205820Y-91139502D01*
X42325518Y-91175812D01*
X42450000Y-91188072D01*
X43950000Y-91188072D01*
X44074482Y-91175812D01*
X44194180Y-91139502D01*
X44304494Y-91080537D01*
X44401185Y-91001185D01*
X44480537Y-90904494D01*
X44539502Y-90794180D01*
X44575812Y-90674482D01*
X44588072Y-90550000D01*
X44588072Y-90514396D01*
X44617247Y-90505546D01*
X44749276Y-90434974D01*
X44865001Y-90340001D01*
X44888804Y-90310997D01*
X46311003Y-88888799D01*
X46340001Y-88865001D01*
X46388570Y-88805820D01*
X46434974Y-88749277D01*
X46462117Y-88698496D01*
X46574180Y-88664502D01*
X46684494Y-88605537D01*
X46781185Y-88526185D01*
X46860537Y-88429494D01*
X46900000Y-88355665D01*
X46939463Y-88429494D01*
X47018815Y-88526185D01*
X47115506Y-88605537D01*
X47225820Y-88664502D01*
X47337883Y-88698496D01*
X47365026Y-88749276D01*
X47414504Y-88809564D01*
X47460000Y-88865001D01*
X47488998Y-88888799D01*
X47640000Y-89039801D01*
X47640000Y-89162678D01*
X47636324Y-89200000D01*
X47640000Y-89237322D01*
X47640000Y-89237333D01*
X47650997Y-89348986D01*
X47694454Y-89492247D01*
X47765026Y-89624276D01*
X47860000Y-89740001D01*
X47888998Y-89763799D01*
X48436200Y-90311002D01*
X48459999Y-90340001D01*
X48488997Y-90363799D01*
X48575723Y-90434974D01*
X48689518Y-90495799D01*
X48707753Y-90505546D01*
X48851014Y-90549003D01*
X48962667Y-90560000D01*
X48962676Y-90560000D01*
X48999999Y-90563676D01*
X49037322Y-90560000D01*
X49212913Y-90560000D01*
X49224188Y-90674482D01*
X49260498Y-90794180D01*
X49319463Y-90904494D01*
X49398815Y-91001185D01*
X49495506Y-91080537D01*
X49605820Y-91139502D01*
X49725518Y-91175812D01*
X49850000Y-91188072D01*
X51350000Y-91188072D01*
X51474482Y-91175812D01*
X51594180Y-91139502D01*
X51704494Y-91080537D01*
X51801185Y-91001185D01*
X51880537Y-90904494D01*
X51939502Y-90794180D01*
X51975812Y-90674482D01*
X51988072Y-90550000D01*
X51988072Y-89050000D01*
X51975812Y-88925518D01*
X51939502Y-88805820D01*
X51880537Y-88695506D01*
X51801185Y-88598815D01*
X51704494Y-88519463D01*
X51594180Y-88460498D01*
X51474482Y-88424188D01*
X51350000Y-88411928D01*
X49850000Y-88411928D01*
X49725518Y-88424188D01*
X49605820Y-88460498D01*
X49495506Y-88519463D01*
X49398815Y-88598815D01*
X49319463Y-88695506D01*
X49260498Y-88805820D01*
X49224188Y-88925518D01*
X49222048Y-88947247D01*
X49160000Y-88885199D01*
X49160000Y-88762322D01*
X49163676Y-88724999D01*
X49160000Y-88687676D01*
X49160000Y-88687667D01*
X49149003Y-88576014D01*
X49105546Y-88432753D01*
X49082171Y-88389021D01*
X49119502Y-88319180D01*
X49155812Y-88199482D01*
X49168072Y-88075000D01*
X49168072Y-87560000D01*
X49212913Y-87560000D01*
X49224188Y-87674482D01*
X49260498Y-87794180D01*
X49319463Y-87904494D01*
X49398815Y-88001185D01*
X49495506Y-88080537D01*
X49605820Y-88139502D01*
X49725518Y-88175812D01*
X49850000Y-88188072D01*
X51350000Y-88188072D01*
X51474482Y-88175812D01*
X51594180Y-88139502D01*
X51704494Y-88080537D01*
X51801185Y-88001185D01*
X51880537Y-87904494D01*
X51939502Y-87794180D01*
X51975812Y-87674482D01*
X51988072Y-87550000D01*
X51988072Y-86050000D01*
X51975812Y-85925518D01*
X51939502Y-85805820D01*
X51880537Y-85695506D01*
X51801185Y-85598815D01*
X51704494Y-85519463D01*
X51594180Y-85460498D01*
X51474482Y-85424188D01*
X51350000Y-85411928D01*
X49850000Y-85411928D01*
X49725518Y-85424188D01*
X49605820Y-85460498D01*
X49495506Y-85519463D01*
X49398815Y-85598815D01*
X49319463Y-85695506D01*
X49260498Y-85805820D01*
X49224188Y-85925518D01*
X49212913Y-86040000D01*
X49168072Y-86040000D01*
X49168072Y-85525000D01*
X49155812Y-85400518D01*
X49136837Y-85337965D01*
X49439899Y-85034902D01*
X49495506Y-85080537D01*
X49605820Y-85139502D01*
X49725518Y-85175812D01*
X49850000Y-85188072D01*
X51350000Y-85188072D01*
X51474482Y-85175812D01*
X51594180Y-85139502D01*
X51704494Y-85080537D01*
X51801185Y-85001185D01*
X51880537Y-84904494D01*
X51939502Y-84794180D01*
X51975812Y-84674482D01*
X51988072Y-84550000D01*
X51988072Y-83050000D01*
X51975812Y-82925518D01*
X51939502Y-82805820D01*
X51880537Y-82695506D01*
X51801185Y-82598815D01*
X51704494Y-82519463D01*
X51594180Y-82460498D01*
X51474482Y-82424188D01*
X51350000Y-82411928D01*
X49850000Y-82411928D01*
X49725518Y-82424188D01*
X49605820Y-82460498D01*
X49495506Y-82519463D01*
X49398815Y-82598815D01*
X49319463Y-82695506D01*
X49260498Y-82805820D01*
X49224188Y-82925518D01*
X49211928Y-83050000D01*
X49211928Y-83145674D01*
X49175724Y-83165026D01*
X49059999Y-83259999D01*
X49036201Y-83288997D01*
X48051642Y-84273557D01*
X47982753Y-84294454D01*
X47850724Y-84365026D01*
X47734999Y-84459999D01*
X47711196Y-84489003D01*
X47489003Y-84711196D01*
X47459999Y-84734999D01*
X47412349Y-84793061D01*
X47365026Y-84850724D01*
X47337883Y-84901504D01*
X47225820Y-84935498D01*
X47115506Y-84994463D01*
X47018815Y-85073815D01*
X46939463Y-85170506D01*
X46900000Y-85244335D01*
X46860537Y-85170506D01*
X46781185Y-85073815D01*
X46684494Y-84994463D01*
X46574180Y-84935498D01*
X46560000Y-84931197D01*
X46560000Y-84837333D01*
X46563677Y-84800000D01*
X46549003Y-84651014D01*
X46505546Y-84507753D01*
X46434974Y-84375724D01*
X46363799Y-84288997D01*
X46340001Y-84259999D01*
X46311003Y-84236201D01*
X45363804Y-83289002D01*
X45340001Y-83259999D01*
X45224276Y-83165026D01*
X45092247Y-83094454D01*
X44948986Y-83050997D01*
X44837333Y-83040000D01*
X44837322Y-83040000D01*
X44800000Y-83036324D01*
X44762678Y-83040000D01*
X44587087Y-83040000D01*
X44575812Y-82925518D01*
X44539502Y-82805820D01*
X44480537Y-82695506D01*
X44401185Y-82598815D01*
X44304494Y-82519463D01*
X44194180Y-82460498D01*
X44074482Y-82424188D01*
X43950000Y-82411928D01*
X42450000Y-82411928D01*
X42325518Y-82424188D01*
X42205820Y-82460498D01*
X42095506Y-82519463D01*
X41998815Y-82598815D01*
X41919463Y-82695506D01*
X41860498Y-82805820D01*
X41824188Y-82925518D01*
X41811928Y-83050000D01*
X33517541Y-83050000D01*
X33462178Y-83027068D01*
X33175280Y-82970000D01*
X32882760Y-82970000D01*
X32595862Y-83027068D01*
X32325609Y-83139010D01*
X32082388Y-83301525D01*
X31875545Y-83508368D01*
X31713030Y-83751589D01*
X31601088Y-84021842D01*
X31544020Y-84308740D01*
X31544020Y-84601260D01*
X31601088Y-84888158D01*
X31713030Y-85158411D01*
X31875545Y-85401632D01*
X32007400Y-85533487D01*
X31934840Y-85555498D01*
X31824526Y-85614463D01*
X31727835Y-85693815D01*
X31648483Y-85790506D01*
X31589518Y-85900820D01*
X31553208Y-86020518D01*
X31540948Y-86145000D01*
X30660000Y-86145000D01*
X30660000Y-81675000D01*
X61886928Y-81675000D01*
X61890000Y-82014250D01*
X62048750Y-82173000D01*
X63273000Y-82173000D01*
X63273000Y-81198750D01*
X63527000Y-81198750D01*
X63527000Y-82173000D01*
X64751250Y-82173000D01*
X64910000Y-82014250D01*
X64913072Y-81675000D01*
X64900812Y-81550518D01*
X64864502Y-81430820D01*
X64805537Y-81320506D01*
X64726185Y-81223815D01*
X64629494Y-81144463D01*
X64519180Y-81085498D01*
X64399482Y-81049188D01*
X64275000Y-81036928D01*
X63685750Y-81040000D01*
X63527000Y-81198750D01*
X63273000Y-81198750D01*
X63114250Y-81040000D01*
X62525000Y-81036928D01*
X62400518Y-81049188D01*
X62280820Y-81085498D01*
X62170506Y-81144463D01*
X62073815Y-81223815D01*
X61994463Y-81320506D01*
X61935498Y-81430820D01*
X61899188Y-81550518D01*
X61886928Y-81675000D01*
X30660000Y-81675000D01*
X30660000Y-77958740D01*
X31314020Y-77958740D01*
X31314020Y-78251260D01*
X31371088Y-78538158D01*
X31483030Y-78808411D01*
X31645545Y-79051632D01*
X31852388Y-79258475D01*
X32095609Y-79420990D01*
X32365862Y-79532932D01*
X32652760Y-79590000D01*
X32945280Y-79590000D01*
X33232178Y-79532932D01*
X33502431Y-79420990D01*
X33745652Y-79258475D01*
X33952495Y-79051632D01*
X34069020Y-78877240D01*
X34185545Y-79051632D01*
X34392388Y-79258475D01*
X34635609Y-79420990D01*
X34905862Y-79532932D01*
X35192760Y-79590000D01*
X35485280Y-79590000D01*
X35772178Y-79532932D01*
X36042431Y-79420990D01*
X36285652Y-79258475D01*
X36417507Y-79126620D01*
X36439518Y-79199180D01*
X36498483Y-79309494D01*
X36577835Y-79406185D01*
X36674526Y-79485537D01*
X36784840Y-79544502D01*
X36904538Y-79580812D01*
X37029020Y-79593072D01*
X37593270Y-79590000D01*
X37752020Y-79431250D01*
X37752020Y-78232000D01*
X37732020Y-78232000D01*
X37732020Y-77978000D01*
X37752020Y-77978000D01*
X37752020Y-76778750D01*
X38006020Y-76778750D01*
X38006020Y-77978000D01*
X38026020Y-77978000D01*
X38026020Y-78232000D01*
X38006020Y-78232000D01*
X38006020Y-79431250D01*
X38164770Y-79590000D01*
X38729020Y-79593072D01*
X38853502Y-79580812D01*
X38973200Y-79544502D01*
X39083514Y-79485537D01*
X39180205Y-79406185D01*
X39259557Y-79309494D01*
X39318522Y-79199180D01*
X39340533Y-79126620D01*
X39472388Y-79258475D01*
X39715609Y-79420990D01*
X39985862Y-79532932D01*
X40272760Y-79590000D01*
X40565280Y-79590000D01*
X40852178Y-79532932D01*
X41122431Y-79420990D01*
X41365652Y-79258475D01*
X41572495Y-79051632D01*
X41689020Y-78877240D01*
X41805545Y-79051632D01*
X42012388Y-79258475D01*
X42255609Y-79420990D01*
X42525862Y-79532932D01*
X42812760Y-79590000D01*
X43105280Y-79590000D01*
X43392178Y-79532932D01*
X43662431Y-79420990D01*
X43905652Y-79258475D01*
X44112495Y-79051632D01*
X44229020Y-78877240D01*
X44345545Y-79051632D01*
X44552388Y-79258475D01*
X44795609Y-79420990D01*
X45065862Y-79532932D01*
X45352760Y-79590000D01*
X45645280Y-79590000D01*
X45932178Y-79532932D01*
X46202431Y-79420990D01*
X46445652Y-79258475D01*
X46652495Y-79051632D01*
X46769020Y-78877240D01*
X46885545Y-79051632D01*
X47092388Y-79258475D01*
X47335609Y-79420990D01*
X47605862Y-79532932D01*
X47892760Y-79590000D01*
X48185280Y-79590000D01*
X48472178Y-79532932D01*
X48742431Y-79420990D01*
X48985652Y-79258475D01*
X49117507Y-79126620D01*
X49139518Y-79199180D01*
X49198483Y-79309494D01*
X49277835Y-79406185D01*
X49374526Y-79485537D01*
X49484840Y-79544502D01*
X49604538Y-79580812D01*
X49729020Y-79593072D01*
X50293270Y-79590000D01*
X50452020Y-79431250D01*
X50452020Y-78232000D01*
X50432020Y-78232000D01*
X50432020Y-77978000D01*
X50452020Y-77978000D01*
X50452020Y-76778750D01*
X50706020Y-76778750D01*
X50706020Y-77978000D01*
X50726020Y-77978000D01*
X50726020Y-78232000D01*
X50706020Y-78232000D01*
X50706020Y-79431250D01*
X50864770Y-79590000D01*
X51429020Y-79593072D01*
X51553502Y-79580812D01*
X51673200Y-79544502D01*
X51783514Y-79485537D01*
X51880205Y-79406185D01*
X51959557Y-79309494D01*
X52018522Y-79199180D01*
X52040533Y-79126620D01*
X52172388Y-79258475D01*
X52415609Y-79420990D01*
X52685862Y-79532932D01*
X52972760Y-79590000D01*
X53265280Y-79590000D01*
X53552178Y-79532932D01*
X53822431Y-79420990D01*
X54065652Y-79258475D01*
X54272495Y-79051632D01*
X54389020Y-78877240D01*
X54505545Y-79051632D01*
X54712388Y-79258475D01*
X54955609Y-79420990D01*
X55225862Y-79532932D01*
X55512760Y-79590000D01*
X55805280Y-79590000D01*
X56092178Y-79532932D01*
X56362431Y-79420990D01*
X56605652Y-79258475D01*
X56812495Y-79051632D01*
X56929020Y-78877240D01*
X57045545Y-79051632D01*
X57252388Y-79258475D01*
X57495609Y-79420990D01*
X57765862Y-79532932D01*
X58052760Y-79590000D01*
X58345280Y-79590000D01*
X58632178Y-79532932D01*
X58902431Y-79420990D01*
X59145652Y-79258475D01*
X59352495Y-79051632D01*
X59469020Y-78877240D01*
X59585545Y-79051632D01*
X59792388Y-79258475D01*
X60035609Y-79420990D01*
X60305862Y-79532932D01*
X60592760Y-79590000D01*
X60885280Y-79590000D01*
X61172178Y-79532932D01*
X61442431Y-79420990D01*
X61685652Y-79258475D01*
X61817507Y-79126620D01*
X61839518Y-79199180D01*
X61898483Y-79309494D01*
X61977835Y-79406185D01*
X62074526Y-79485537D01*
X62184840Y-79544502D01*
X62304538Y-79580812D01*
X62429020Y-79593072D01*
X62993270Y-79590000D01*
X63152020Y-79431250D01*
X63152020Y-78232000D01*
X63132020Y-78232000D01*
X63132020Y-77978000D01*
X63152020Y-77978000D01*
X63152020Y-76778750D01*
X63406020Y-76778750D01*
X63406020Y-77978000D01*
X63426020Y-77978000D01*
X63426020Y-78232000D01*
X63406020Y-78232000D01*
X63406020Y-79431250D01*
X63564770Y-79590000D01*
X64129020Y-79593072D01*
X64253502Y-79580812D01*
X64373200Y-79544502D01*
X64483514Y-79485537D01*
X64580205Y-79406185D01*
X64659557Y-79309494D01*
X64718522Y-79199180D01*
X64740533Y-79126620D01*
X64872388Y-79258475D01*
X65115609Y-79420990D01*
X65385862Y-79532932D01*
X65672760Y-79590000D01*
X65965280Y-79590000D01*
X66252178Y-79532932D01*
X66522431Y-79420990D01*
X66765652Y-79258475D01*
X66972495Y-79051632D01*
X67089020Y-78877240D01*
X67205545Y-79051632D01*
X67412388Y-79258475D01*
X67655609Y-79420990D01*
X67925862Y-79532932D01*
X68212760Y-79590000D01*
X68505280Y-79590000D01*
X68792178Y-79532932D01*
X69062431Y-79420990D01*
X69305652Y-79258475D01*
X69512495Y-79051632D01*
X69629020Y-78877240D01*
X69745545Y-79051632D01*
X69952388Y-79258475D01*
X70195609Y-79420990D01*
X70465862Y-79532932D01*
X70752760Y-79590000D01*
X71045280Y-79590000D01*
X71332178Y-79532932D01*
X71602431Y-79420990D01*
X71845652Y-79258475D01*
X72052495Y-79051632D01*
X72169020Y-78877240D01*
X72285545Y-79051632D01*
X72492388Y-79258475D01*
X72735609Y-79420990D01*
X73005862Y-79532932D01*
X73292760Y-79590000D01*
X73585280Y-79590000D01*
X73872178Y-79532932D01*
X74142431Y-79420990D01*
X74385652Y-79258475D01*
X74517507Y-79126620D01*
X74539518Y-79199180D01*
X74598483Y-79309494D01*
X74677835Y-79406185D01*
X74774526Y-79485537D01*
X74884840Y-79544502D01*
X75004538Y-79580812D01*
X75129020Y-79593072D01*
X75693270Y-79590000D01*
X75852020Y-79431250D01*
X75852020Y-78232000D01*
X75832020Y-78232000D01*
X75832020Y-77978000D01*
X75852020Y-77978000D01*
X75852020Y-76778750D01*
X75693270Y-76620000D01*
X75129020Y-76616928D01*
X75004538Y-76629188D01*
X74884840Y-76665498D01*
X74774526Y-76724463D01*
X74677835Y-76803815D01*
X74598483Y-76900506D01*
X74539518Y-77010820D01*
X74517507Y-77083380D01*
X74385652Y-76951525D01*
X74142431Y-76789010D01*
X73872178Y-76677068D01*
X73585280Y-76620000D01*
X73292760Y-76620000D01*
X73005862Y-76677068D01*
X72735609Y-76789010D01*
X72492388Y-76951525D01*
X72285545Y-77158368D01*
X72169020Y-77332760D01*
X72052495Y-77158368D01*
X71845652Y-76951525D01*
X71602431Y-76789010D01*
X71332178Y-76677068D01*
X71045280Y-76620000D01*
X70752760Y-76620000D01*
X70465862Y-76677068D01*
X70195609Y-76789010D01*
X69952388Y-76951525D01*
X69745545Y-77158368D01*
X69629020Y-77332760D01*
X69512495Y-77158368D01*
X69305652Y-76951525D01*
X69062431Y-76789010D01*
X68792178Y-76677068D01*
X68505280Y-76620000D01*
X68212760Y-76620000D01*
X67925862Y-76677068D01*
X67655609Y-76789010D01*
X67412388Y-76951525D01*
X67205545Y-77158368D01*
X67089020Y-77332760D01*
X66972495Y-77158368D01*
X66765652Y-76951525D01*
X66522431Y-76789010D01*
X66252178Y-76677068D01*
X65965280Y-76620000D01*
X65672760Y-76620000D01*
X65385862Y-76677068D01*
X65115609Y-76789010D01*
X64872388Y-76951525D01*
X64740533Y-77083380D01*
X64718522Y-77010820D01*
X64659557Y-76900506D01*
X64580205Y-76803815D01*
X64483514Y-76724463D01*
X64373200Y-76665498D01*
X64253502Y-76629188D01*
X64129020Y-76616928D01*
X63564770Y-76620000D01*
X63406020Y-76778750D01*
X63152020Y-76778750D01*
X62993270Y-76620000D01*
X62429020Y-76616928D01*
X62304538Y-76629188D01*
X62184840Y-76665498D01*
X62074526Y-76724463D01*
X61977835Y-76803815D01*
X61898483Y-76900506D01*
X61839518Y-77010820D01*
X61817507Y-77083380D01*
X61685652Y-76951525D01*
X61442431Y-76789010D01*
X61172178Y-76677068D01*
X60885280Y-76620000D01*
X60592760Y-76620000D01*
X60305862Y-76677068D01*
X60035609Y-76789010D01*
X59792388Y-76951525D01*
X59585545Y-77158368D01*
X59469020Y-77332760D01*
X59352495Y-77158368D01*
X59145652Y-76951525D01*
X58902431Y-76789010D01*
X58632178Y-76677068D01*
X58345280Y-76620000D01*
X58052760Y-76620000D01*
X57765862Y-76677068D01*
X57495609Y-76789010D01*
X57252388Y-76951525D01*
X57045545Y-77158368D01*
X56929020Y-77332760D01*
X56812495Y-77158368D01*
X56605652Y-76951525D01*
X56362431Y-76789010D01*
X56092178Y-76677068D01*
X55805280Y-76620000D01*
X55512760Y-76620000D01*
X55225862Y-76677068D01*
X54955609Y-76789010D01*
X54712388Y-76951525D01*
X54505545Y-77158368D01*
X54389020Y-77332760D01*
X54272495Y-77158368D01*
X54065652Y-76951525D01*
X53822431Y-76789010D01*
X53552178Y-76677068D01*
X53265280Y-76620000D01*
X52972760Y-76620000D01*
X52685862Y-76677068D01*
X52415609Y-76789010D01*
X52172388Y-76951525D01*
X52040533Y-77083380D01*
X52018522Y-77010820D01*
X51959557Y-76900506D01*
X51880205Y-76803815D01*
X51783514Y-76724463D01*
X51673200Y-76665498D01*
X51553502Y-76629188D01*
X51429020Y-76616928D01*
X50864770Y-76620000D01*
X50706020Y-76778750D01*
X50452020Y-76778750D01*
X50293270Y-76620000D01*
X49729020Y-76616928D01*
X49604538Y-76629188D01*
X49484840Y-76665498D01*
X49374526Y-76724463D01*
X49277835Y-76803815D01*
X49198483Y-76900506D01*
X49139518Y-77010820D01*
X49117507Y-77083380D01*
X48985652Y-76951525D01*
X48742431Y-76789010D01*
X48472178Y-76677068D01*
X48185280Y-76620000D01*
X47892760Y-76620000D01*
X47605862Y-76677068D01*
X47335609Y-76789010D01*
X47092388Y-76951525D01*
X46885545Y-77158368D01*
X46769020Y-77332760D01*
X46652495Y-77158368D01*
X46445652Y-76951525D01*
X46202431Y-76789010D01*
X45932178Y-76677068D01*
X45645280Y-76620000D01*
X45352760Y-76620000D01*
X45065862Y-76677068D01*
X44795609Y-76789010D01*
X44552388Y-76951525D01*
X44345545Y-77158368D01*
X44229020Y-77332760D01*
X44112495Y-77158368D01*
X43905652Y-76951525D01*
X43662431Y-76789010D01*
X43392178Y-76677068D01*
X43105280Y-76620000D01*
X42812760Y-76620000D01*
X42525862Y-76677068D01*
X42255609Y-76789010D01*
X42012388Y-76951525D01*
X41805545Y-77158368D01*
X41689020Y-77332760D01*
X41572495Y-77158368D01*
X41365652Y-76951525D01*
X41122431Y-76789010D01*
X40852178Y-76677068D01*
X40565280Y-76620000D01*
X40272760Y-76620000D01*
X39985862Y-76677068D01*
X39715609Y-76789010D01*
X39472388Y-76951525D01*
X39340533Y-77083380D01*
X39318522Y-77010820D01*
X39259557Y-76900506D01*
X39180205Y-76803815D01*
X39083514Y-76724463D01*
X38973200Y-76665498D01*
X38853502Y-76629188D01*
X38729020Y-76616928D01*
X38164770Y-76620000D01*
X38006020Y-76778750D01*
X37752020Y-76778750D01*
X37593270Y-76620000D01*
X37029020Y-76616928D01*
X36904538Y-76629188D01*
X36784840Y-76665498D01*
X36674526Y-76724463D01*
X36577835Y-76803815D01*
X36498483Y-76900506D01*
X36439518Y-77010820D01*
X36417507Y-77083380D01*
X36285652Y-76951525D01*
X36042431Y-76789010D01*
X35772178Y-76677068D01*
X35485280Y-76620000D01*
X35192760Y-76620000D01*
X34905862Y-76677068D01*
X34635609Y-76789010D01*
X34392388Y-76951525D01*
X34185545Y-77158368D01*
X34069020Y-77332760D01*
X33952495Y-77158368D01*
X33745652Y-76951525D01*
X33502431Y-76789010D01*
X33232178Y-76677068D01*
X32945280Y-76620000D01*
X32652760Y-76620000D01*
X32365862Y-76677068D01*
X32095609Y-76789010D01*
X31852388Y-76951525D01*
X31645545Y-77158368D01*
X31483030Y-77401589D01*
X31371088Y-77671842D01*
X31314020Y-77958740D01*
X30660000Y-77958740D01*
X30660000Y-75160000D01*
X85340001Y-75160000D01*
X85340000Y-105340000D01*
G37*
X85340000Y-105340000D02*
X30660000Y-105340000D01*
X30660000Y-101038740D01*
X31330000Y-101038740D01*
X31330000Y-101331260D01*
X31387068Y-101618158D01*
X31499010Y-101888411D01*
X31661525Y-102131632D01*
X31868368Y-102338475D01*
X32042760Y-102455000D01*
X31868368Y-102571525D01*
X31661525Y-102778368D01*
X31499010Y-103021589D01*
X31387068Y-103291842D01*
X31330000Y-103578740D01*
X31330000Y-103871260D01*
X31387068Y-104158158D01*
X31499010Y-104428411D01*
X31661525Y-104671632D01*
X31868368Y-104878475D01*
X32111589Y-105040990D01*
X32381842Y-105152932D01*
X32668740Y-105210000D01*
X32961260Y-105210000D01*
X33248158Y-105152932D01*
X33518411Y-105040990D01*
X33761632Y-104878475D01*
X33968475Y-104671632D01*
X34085000Y-104497240D01*
X34201525Y-104671632D01*
X34408368Y-104878475D01*
X34651589Y-105040990D01*
X34921842Y-105152932D01*
X35208740Y-105210000D01*
X35501260Y-105210000D01*
X35788158Y-105152932D01*
X36058411Y-105040990D01*
X36301632Y-104878475D01*
X36508475Y-104671632D01*
X36630195Y-104489466D01*
X36699822Y-104606355D01*
X36894731Y-104822588D01*
X37128080Y-104996641D01*
X37390901Y-105121825D01*
X37538110Y-105166476D01*
X37768000Y-105045155D01*
X37768000Y-103852000D01*
X37748000Y-103852000D01*
X37748000Y-103598000D01*
X37768000Y-103598000D01*
X37768000Y-101312000D01*
X37748000Y-101312000D01*
X37748000Y-101058000D01*
X37768000Y-101058000D01*
X37768000Y-99864845D01*
X38022000Y-99864845D01*
X38022000Y-101058000D01*
X38042000Y-101058000D01*
X38042000Y-101312000D01*
X38022000Y-101312000D01*
X38022000Y-103598000D01*
X38042000Y-103598000D01*
X38042000Y-103852000D01*
X38022000Y-103852000D01*
X38022000Y-105045155D01*
X38251890Y-105166476D01*
X38399099Y-105121825D01*
X38661920Y-104996641D01*
X38895269Y-104822588D01*
X39090178Y-104606355D01*
X39159805Y-104489466D01*
X39281525Y-104671632D01*
X39488368Y-104878475D01*
X39731589Y-105040990D01*
X40001842Y-105152932D01*
X40288740Y-105210000D01*
X40581260Y-105210000D01*
X40868158Y-105152932D01*
X41138411Y-105040990D01*
X41381632Y-104878475D01*
X41588475Y-104671632D01*
X41705000Y-104497240D01*
X41821525Y-104671632D01*
X42028368Y-104878475D01*
X42271589Y-105040990D01*
X42541842Y-105152932D01*
X42828740Y-105210000D01*
X43121260Y-105210000D01*
X43408158Y-105152932D01*
X43678411Y-105040990D01*
X43921632Y-104878475D01*
X44128475Y-104671632D01*
X44245000Y-104497240D01*
X44361525Y-104671632D01*
X44568368Y-104878475D01*
X44811589Y-105040990D01*
X45081842Y-105152932D01*
X45368740Y-105210000D01*
X45661260Y-105210000D01*
X45948158Y-105152932D01*
X46218411Y-105040990D01*
X46461632Y-104878475D01*
X46668475Y-104671632D01*
X46785000Y-104497240D01*
X46901525Y-104671632D01*
X47108368Y-104878475D01*
X47351589Y-105040990D01*
X47621842Y-105152932D01*
X47908740Y-105210000D01*
X48201260Y-105210000D01*
X48488158Y-105152932D01*
X48758411Y-105040990D01*
X49001632Y-104878475D01*
X49208475Y-104671632D01*
X49325000Y-104497240D01*
X49441525Y-104671632D01*
X49648368Y-104878475D01*
X49891589Y-105040990D01*
X50161842Y-105152932D01*
X50448740Y-105210000D01*
X50741260Y-105210000D01*
X51028158Y-105152932D01*
X51298411Y-105040990D01*
X51541632Y-104878475D01*
X51748475Y-104671632D01*
X51865000Y-104497240D01*
X51981525Y-104671632D01*
X52188368Y-104878475D01*
X52431589Y-105040990D01*
X52701842Y-105152932D01*
X52988740Y-105210000D01*
X53281260Y-105210000D01*
X53568158Y-105152932D01*
X53838411Y-105040990D01*
X54081632Y-104878475D01*
X54288475Y-104671632D01*
X54405000Y-104497240D01*
X54521525Y-104671632D01*
X54728368Y-104878475D01*
X54971589Y-105040990D01*
X55241842Y-105152932D01*
X55528740Y-105210000D01*
X55821260Y-105210000D01*
X56108158Y-105152932D01*
X56378411Y-105040990D01*
X56621632Y-104878475D01*
X56828475Y-104671632D01*
X56945000Y-104497240D01*
X57061525Y-104671632D01*
X57268368Y-104878475D01*
X57511589Y-105040990D01*
X57781842Y-105152932D01*
X58068740Y-105210000D01*
X58361260Y-105210000D01*
X58648158Y-105152932D01*
X58918411Y-105040990D01*
X59161632Y-104878475D01*
X59368475Y-104671632D01*
X59485000Y-104497240D01*
X59601525Y-104671632D01*
X59808368Y-104878475D01*
X60051589Y-105040990D01*
X60321842Y-105152932D01*
X60608740Y-105210000D01*
X60901260Y-105210000D01*
X61188158Y-105152932D01*
X61458411Y-105040990D01*
X61701632Y-104878475D01*
X61908475Y-104671632D01*
X62025000Y-104497240D01*
X62141525Y-104671632D01*
X62348368Y-104878475D01*
X62591589Y-105040990D01*
X62861842Y-105152932D01*
X63148740Y-105210000D01*
X63441260Y-105210000D01*
X63728158Y-105152932D01*
X63998411Y-105040990D01*
X64241632Y-104878475D01*
X64448475Y-104671632D01*
X64565000Y-104497240D01*
X64681525Y-104671632D01*
X64888368Y-104878475D01*
X65131589Y-105040990D01*
X65401842Y-105152932D01*
X65688740Y-105210000D01*
X65981260Y-105210000D01*
X66268158Y-105152932D01*
X66538411Y-105040990D01*
X66781632Y-104878475D01*
X66988475Y-104671632D01*
X67105000Y-104497240D01*
X67221525Y-104671632D01*
X67428368Y-104878475D01*
X67671589Y-105040990D01*
X67941842Y-105152932D01*
X68228740Y-105210000D01*
X68521260Y-105210000D01*
X68808158Y-105152932D01*
X69078411Y-105040990D01*
X69321632Y-104878475D01*
X69528475Y-104671632D01*
X69645000Y-104497240D01*
X69761525Y-104671632D01*
X69968368Y-104878475D01*
X70211589Y-105040990D01*
X70481842Y-105152932D01*
X70768740Y-105210000D01*
X71061260Y-105210000D01*
X71348158Y-105152932D01*
X71618411Y-105040990D01*
X71861632Y-104878475D01*
X72068475Y-104671632D01*
X72185000Y-104497240D01*
X72301525Y-104671632D01*
X72508368Y-104878475D01*
X72751589Y-105040990D01*
X73021842Y-105152932D01*
X73308740Y-105210000D01*
X73601260Y-105210000D01*
X73888158Y-105152932D01*
X74158411Y-105040990D01*
X74401632Y-104878475D01*
X74608475Y-104671632D01*
X74725000Y-104497240D01*
X74841525Y-104671632D01*
X75048368Y-104878475D01*
X75291589Y-105040990D01*
X75561842Y-105152932D01*
X75848740Y-105210000D01*
X76141260Y-105210000D01*
X76428158Y-105152932D01*
X76698411Y-105040990D01*
X76941632Y-104878475D01*
X77148475Y-104671632D01*
X77265000Y-104497240D01*
X77381525Y-104671632D01*
X77588368Y-104878475D01*
X77831589Y-105040990D01*
X78101842Y-105152932D01*
X78388740Y-105210000D01*
X78681260Y-105210000D01*
X78968158Y-105152932D01*
X79238411Y-105040990D01*
X79481632Y-104878475D01*
X79613487Y-104746620D01*
X79635498Y-104819180D01*
X79694463Y-104929494D01*
X79773815Y-105026185D01*
X79870506Y-105105537D01*
X79980820Y-105164502D01*
X80100518Y-105200812D01*
X80225000Y-105213072D01*
X81925000Y-105213072D01*
X82049482Y-105200812D01*
X82169180Y-105164502D01*
X82279494Y-105105537D01*
X82376185Y-105026185D01*
X82455537Y-104929494D01*
X82514502Y-104819180D01*
X82550812Y-104699482D01*
X82563072Y-104575000D01*
X82563072Y-104379326D01*
X82599276Y-104359974D01*
X82715001Y-104265001D01*
X82738804Y-104235997D01*
X84561014Y-102413788D01*
X84590011Y-102389991D01*
X84684984Y-102274266D01*
X84755556Y-102142237D01*
X84799013Y-101998976D01*
X84810010Y-101887323D01*
X84810010Y-101887322D01*
X84813687Y-101849990D01*
X84810010Y-101812657D01*
X84810010Y-84450922D01*
X84813686Y-84413599D01*
X84810010Y-84376276D01*
X84810010Y-84376267D01*
X84799013Y-84264614D01*
X84755556Y-84121353D01*
X84684984Y-83989324D01*
X84590011Y-83873599D01*
X84561012Y-83849801D01*
X84068631Y-83357420D01*
X84068631Y-80391933D01*
X84072307Y-80354610D01*
X84068631Y-80317287D01*
X84068631Y-80317278D01*
X84057634Y-80205625D01*
X84014177Y-80062364D01*
X83943605Y-79930335D01*
X83930442Y-79914296D01*
X83872430Y-79843607D01*
X83872426Y-79843603D01*
X83848632Y-79814610D01*
X83819640Y-79790817D01*
X82500230Y-78471408D01*
X82544020Y-78251260D01*
X82544020Y-77958740D01*
X82486952Y-77671842D01*
X82375010Y-77401589D01*
X82212495Y-77158368D01*
X82005652Y-76951525D01*
X81762431Y-76789010D01*
X81492178Y-76677068D01*
X81205280Y-76620000D01*
X80912760Y-76620000D01*
X80625862Y-76677068D01*
X80355609Y-76789010D01*
X80112388Y-76951525D01*
X79905545Y-77158368D01*
X79789020Y-77332760D01*
X79672495Y-77158368D01*
X79465652Y-76951525D01*
X79222431Y-76789010D01*
X78952178Y-76677068D01*
X78665280Y-76620000D01*
X78372760Y-76620000D01*
X78085862Y-76677068D01*
X77815609Y-76789010D01*
X77572388Y-76951525D01*
X77440533Y-77083380D01*
X77418522Y-77010820D01*
X77359557Y-76900506D01*
X77280205Y-76803815D01*
X77183514Y-76724463D01*
X77073200Y-76665498D01*
X76953502Y-76629188D01*
X76829020Y-76616928D01*
X76264770Y-76620000D01*
X76106020Y-76778750D01*
X76106020Y-77978000D01*
X76126020Y-77978000D01*
X76126020Y-78232000D01*
X76106020Y-78232000D01*
X76106020Y-79431250D01*
X76264770Y-79590000D01*
X76829020Y-79593072D01*
X76953502Y-79580812D01*
X77073200Y-79544502D01*
X77183514Y-79485537D01*
X77280205Y-79406185D01*
X77359557Y-79309494D01*
X77418522Y-79199180D01*
X77440533Y-79126620D01*
X77572388Y-79258475D01*
X77764517Y-79386851D01*
X77770018Y-79442705D01*
X77813474Y-79585966D01*
X77884046Y-79717996D01*
X77955221Y-79804722D01*
X77979020Y-79833721D01*
X78008018Y-79857519D01*
X81705474Y-83554976D01*
X81592247Y-83494454D01*
X81448986Y-83450997D01*
X81337333Y-83440000D01*
X81337322Y-83440000D01*
X81300000Y-83436324D01*
X81262678Y-83440000D01*
X80537333Y-83440000D01*
X80500000Y-83436323D01*
X80462667Y-83440000D01*
X80351014Y-83450997D01*
X80207753Y-83494454D01*
X80075724Y-83565026D01*
X79959999Y-83659999D01*
X79936201Y-83688997D01*
X79268688Y-84356511D01*
X79230795Y-84166011D01*
X79126391Y-83913957D01*
X78974819Y-83687114D01*
X78781906Y-83494201D01*
X78555063Y-83342629D01*
X78303009Y-83238225D01*
X78035431Y-83185000D01*
X77762609Y-83185000D01*
X77495031Y-83238225D01*
X77242977Y-83342629D01*
X77016134Y-83494201D01*
X76823221Y-83687114D01*
X76671649Y-83913957D01*
X76567245Y-84166011D01*
X76514020Y-84433589D01*
X76514020Y-84706411D01*
X76567245Y-84973989D01*
X76671649Y-85226043D01*
X76823221Y-85452886D01*
X77016134Y-85645799D01*
X77119700Y-85715000D01*
X76700000Y-85715000D01*
X76651427Y-85719763D01*
X76609564Y-85715067D01*
X76604950Y-85715035D01*
X76604782Y-85715017D01*
X76604614Y-85715032D01*
X76600000Y-85715000D01*
X76300000Y-85715000D01*
X76237664Y-85721112D01*
X76175285Y-85726449D01*
X76171190Y-85727630D01*
X76166949Y-85728046D01*
X76107015Y-85746141D01*
X76046834Y-85763500D01*
X76043045Y-85765455D01*
X76038967Y-85766686D01*
X75983692Y-85796076D01*
X75928025Y-85824796D01*
X75920991Y-85829415D01*
X75920927Y-85829449D01*
X75920877Y-85829490D01*
X75920030Y-85830046D01*
X75783654Y-85920963D01*
X75784933Y-85909564D01*
X75784965Y-85904950D01*
X75784983Y-85904782D01*
X75784968Y-85904614D01*
X75785000Y-85900000D01*
X75785000Y-84463589D01*
X75731775Y-84196011D01*
X75627371Y-83943957D01*
X75475799Y-83717114D01*
X75282886Y-83524201D01*
X75056043Y-83372629D01*
X74803989Y-83268225D01*
X74536411Y-83215000D01*
X74263589Y-83215000D01*
X73996011Y-83268225D01*
X73743957Y-83372629D01*
X73517114Y-83524201D01*
X73324201Y-83717114D01*
X73200000Y-83902993D01*
X73075799Y-83717114D01*
X72882886Y-83524201D01*
X72656043Y-83372629D01*
X72403989Y-83268225D01*
X72136411Y-83215000D01*
X71863589Y-83215000D01*
X71596011Y-83268225D01*
X71343957Y-83372629D01*
X71117114Y-83524201D01*
X70924201Y-83717114D01*
X70772629Y-83943957D01*
X70729289Y-84048588D01*
X70727371Y-84043957D01*
X70575799Y-83817114D01*
X70382886Y-83624201D01*
X70156043Y-83472629D01*
X69903989Y-83368225D01*
X69636411Y-83315000D01*
X69363589Y-83315000D01*
X69096011Y-83368225D01*
X68843957Y-83472629D01*
X68617114Y-83624201D01*
X68424201Y-83817114D01*
X68272629Y-84043957D01*
X68168225Y-84296011D01*
X68115000Y-84563589D01*
X68115000Y-86000000D01*
X68119763Y-86048573D01*
X68115067Y-86090436D01*
X68115035Y-86095050D01*
X68115017Y-86095218D01*
X68115032Y-86095386D01*
X68115000Y-86100000D01*
X68115000Y-86400000D01*
X68121112Y-86462336D01*
X68126449Y-86524715D01*
X68127630Y-86528810D01*
X68128046Y-86533051D01*
X68146141Y-86592985D01*
X68163500Y-86653166D01*
X68165455Y-86656955D01*
X68166686Y-86661033D01*
X68196076Y-86716308D01*
X68224796Y-86771975D01*
X68229415Y-86779009D01*
X68229449Y-86779073D01*
X68229490Y-86779123D01*
X68230046Y-86779970D01*
X68430045Y-87079970D01*
X68443230Y-87096085D01*
X68454125Y-87113818D01*
X68485473Y-87147712D01*
X68514704Y-87183438D01*
X68530759Y-87196678D01*
X68544898Y-87211965D01*
X68582238Y-87239129D01*
X68617846Y-87268492D01*
X68636170Y-87278363D01*
X68653006Y-87290610D01*
X68694908Y-87310002D01*
X68735545Y-87331892D01*
X68755437Y-87338015D01*
X68774332Y-87346760D01*
X68783384Y-87349848D01*
X68927440Y-87397867D01*
X68927441Y-94513095D01*
X68792178Y-94457068D01*
X68505280Y-94400000D01*
X68212760Y-94400000D01*
X67925862Y-94457068D01*
X67655609Y-94569010D01*
X67412388Y-94731525D01*
X67205545Y-94938368D01*
X67089020Y-95112760D01*
X66972495Y-94938368D01*
X66765652Y-94731525D01*
X66522431Y-94569010D01*
X66252178Y-94457068D01*
X65965280Y-94400000D01*
X65672760Y-94400000D01*
X65385862Y-94457068D01*
X65115609Y-94569010D01*
X64872388Y-94731525D01*
X64740533Y-94863380D01*
X64718522Y-94790820D01*
X64659557Y-94680506D01*
X64580205Y-94583815D01*
X64483514Y-94504463D01*
X64373200Y-94445498D01*
X64253502Y-94409188D01*
X64129020Y-94396928D01*
X62429020Y-94396928D01*
X62304538Y-94409188D01*
X62184840Y-94445498D01*
X62074526Y-94504463D01*
X61977835Y-94583815D01*
X61898483Y-94680506D01*
X61839518Y-94790820D01*
X61817507Y-94863380D01*
X61685652Y-94731525D01*
X61442431Y-94569010D01*
X61172178Y-94457068D01*
X60885280Y-94400000D01*
X60592760Y-94400000D01*
X60305862Y-94457068D01*
X60035609Y-94569010D01*
X59792388Y-94731525D01*
X59585545Y-94938368D01*
X59469020Y-95112760D01*
X59352495Y-94938368D01*
X59145652Y-94731525D01*
X58902431Y-94569010D01*
X58632178Y-94457068D01*
X58345280Y-94400000D01*
X58052760Y-94400000D01*
X57765862Y-94457068D01*
X57495609Y-94569010D01*
X57252388Y-94731525D01*
X57045545Y-94938368D01*
X56929020Y-95112760D01*
X56812495Y-94938368D01*
X56605652Y-94731525D01*
X56531640Y-94682071D01*
X56578937Y-94634774D01*
X56692205Y-94465256D01*
X56770226Y-94276898D01*
X56810000Y-94076939D01*
X56810000Y-93873061D01*
X56770226Y-93673102D01*
X56692205Y-93484744D01*
X56578937Y-93315226D01*
X56434774Y-93171063D01*
X56265256Y-93057795D01*
X56076898Y-92979774D01*
X55876939Y-92940000D01*
X55673061Y-92940000D01*
X55473102Y-92979774D01*
X55284744Y-93057795D01*
X55115226Y-93171063D01*
X55060276Y-93226013D01*
X54917068Y-93269454D01*
X54785039Y-93340026D01*
X54669314Y-93434999D01*
X54645515Y-93463998D01*
X54253413Y-93856101D01*
X52686239Y-93856101D01*
X52648916Y-93852425D01*
X52611593Y-93856101D01*
X52611584Y-93856101D01*
X52499931Y-93867098D01*
X52356670Y-93910555D01*
X52224640Y-93981127D01*
X52141000Y-94049769D01*
X52108916Y-94076100D01*
X52085118Y-94105098D01*
X51719806Y-94470410D01*
X51673200Y-94445498D01*
X51553502Y-94409188D01*
X51429020Y-94396928D01*
X50864770Y-94400000D01*
X50706020Y-94558750D01*
X50706020Y-95758000D01*
X50726020Y-95758000D01*
X50726020Y-96012000D01*
X50706020Y-96012000D01*
X50706020Y-97211250D01*
X50864770Y-97370000D01*
X50994022Y-97370704D01*
X50994021Y-99711177D01*
X50961408Y-99743790D01*
X50741260Y-99700000D01*
X50448740Y-99700000D01*
X50161842Y-99757068D01*
X49891589Y-99869010D01*
X49648368Y-100031525D01*
X49441525Y-100238368D01*
X49325000Y-100412760D01*
X49208475Y-100238368D01*
X49001632Y-100031525D01*
X48758411Y-99869010D01*
X48488158Y-99757068D01*
X48201260Y-99700000D01*
X47908740Y-99700000D01*
X47621842Y-99757068D01*
X47351589Y-99869010D01*
X47108368Y-100031525D01*
X46901525Y-100238368D01*
X46785000Y-100412760D01*
X46668475Y-100238368D01*
X46461632Y-100031525D01*
X46218411Y-99869010D01*
X45948158Y-99757068D01*
X45661260Y-99700000D01*
X45368740Y-99700000D01*
X45081842Y-99757068D01*
X44811589Y-99869010D01*
X44568368Y-100031525D01*
X44361525Y-100238368D01*
X44245000Y-100412760D01*
X44128475Y-100238368D01*
X43921632Y-100031525D01*
X43678411Y-99869010D01*
X43408158Y-99757068D01*
X43121260Y-99700000D01*
X42828740Y-99700000D01*
X42541842Y-99757068D01*
X42271589Y-99869010D01*
X42028368Y-100031525D01*
X41821525Y-100238368D01*
X41705000Y-100412760D01*
X41588475Y-100238368D01*
X41381632Y-100031525D01*
X41138411Y-99869010D01*
X40868158Y-99757068D01*
X40581260Y-99700000D01*
X40288740Y-99700000D01*
X40001842Y-99757068D01*
X39731589Y-99869010D01*
X39488368Y-100031525D01*
X39281525Y-100238368D01*
X39159805Y-100420534D01*
X39090178Y-100303645D01*
X38895269Y-100087412D01*
X38661920Y-99913359D01*
X38399099Y-99788175D01*
X38251890Y-99743524D01*
X38022000Y-99864845D01*
X37768000Y-99864845D01*
X37538110Y-99743524D01*
X37390901Y-99788175D01*
X37128080Y-99913359D01*
X36894731Y-100087412D01*
X36699822Y-100303645D01*
X36630195Y-100420534D01*
X36508475Y-100238368D01*
X36301632Y-100031525D01*
X36058411Y-99869010D01*
X35788158Y-99757068D01*
X35501260Y-99700000D01*
X35208740Y-99700000D01*
X34921842Y-99757068D01*
X34651589Y-99869010D01*
X34408368Y-100031525D01*
X34201525Y-100238368D01*
X34085000Y-100412760D01*
X33968475Y-100238368D01*
X33761632Y-100031525D01*
X33518411Y-99869010D01*
X33248158Y-99757068D01*
X32961260Y-99700000D01*
X32668740Y-99700000D01*
X32381842Y-99757068D01*
X32111589Y-99869010D01*
X31868368Y-100031525D01*
X31661525Y-100238368D01*
X31499010Y-100481589D01*
X31387068Y-100751842D01*
X31330000Y-101038740D01*
X30660000Y-101038740D01*
X30660000Y-95738740D01*
X31314020Y-95738740D01*
X31314020Y-96031260D01*
X31371088Y-96318158D01*
X31483030Y-96588411D01*
X31645545Y-96831632D01*
X31852388Y-97038475D01*
X32095609Y-97200990D01*
X32365862Y-97312932D01*
X32652760Y-97370000D01*
X32945280Y-97370000D01*
X33232178Y-97312932D01*
X33502431Y-97200990D01*
X33745652Y-97038475D01*
X33952495Y-96831632D01*
X34069020Y-96657240D01*
X34185545Y-96831632D01*
X34392388Y-97038475D01*
X34635609Y-97200990D01*
X34905862Y-97312932D01*
X35192760Y-97370000D01*
X35485280Y-97370000D01*
X35772178Y-97312932D01*
X36042431Y-97200990D01*
X36285652Y-97038475D01*
X36417507Y-96906620D01*
X36439518Y-96979180D01*
X36498483Y-97089494D01*
X36577835Y-97186185D01*
X36674526Y-97265537D01*
X36784840Y-97324502D01*
X36904538Y-97360812D01*
X37029020Y-97373072D01*
X37593270Y-97370000D01*
X37752020Y-97211250D01*
X37752020Y-96012000D01*
X37732020Y-96012000D01*
X37732020Y-95758000D01*
X37752020Y-95758000D01*
X37752020Y-94558750D01*
X38006020Y-94558750D01*
X38006020Y-95758000D01*
X38026020Y-95758000D01*
X38026020Y-96012000D01*
X38006020Y-96012000D01*
X38006020Y-97211250D01*
X38164770Y-97370000D01*
X38729020Y-97373072D01*
X38853502Y-97360812D01*
X38973200Y-97324502D01*
X39083514Y-97265537D01*
X39180205Y-97186185D01*
X39259557Y-97089494D01*
X39318522Y-96979180D01*
X39340533Y-96906620D01*
X39472388Y-97038475D01*
X39715609Y-97200990D01*
X39985862Y-97312932D01*
X40272760Y-97370000D01*
X40565280Y-97370000D01*
X40852178Y-97312932D01*
X41122431Y-97200990D01*
X41365652Y-97038475D01*
X41572495Y-96831632D01*
X41689020Y-96657240D01*
X41805545Y-96831632D01*
X42012388Y-97038475D01*
X42255609Y-97200990D01*
X42525862Y-97312932D01*
X42812760Y-97370000D01*
X43105280Y-97370000D01*
X43392178Y-97312932D01*
X43662431Y-97200990D01*
X43905652Y-97038475D01*
X44112495Y-96831632D01*
X44229020Y-96657240D01*
X44345545Y-96831632D01*
X44552388Y-97038475D01*
X44795609Y-97200990D01*
X45065862Y-97312932D01*
X45352760Y-97370000D01*
X45645280Y-97370000D01*
X45932178Y-97312932D01*
X46202431Y-97200990D01*
X46445652Y-97038475D01*
X46652495Y-96831632D01*
X46769020Y-96657240D01*
X46885545Y-96831632D01*
X47092388Y-97038475D01*
X47335609Y-97200990D01*
X47605862Y-97312932D01*
X47892760Y-97370000D01*
X48185280Y-97370000D01*
X48472178Y-97312932D01*
X48742431Y-97200990D01*
X48985652Y-97038475D01*
X49117507Y-96906620D01*
X49139518Y-96979180D01*
X49198483Y-97089494D01*
X49277835Y-97186185D01*
X49374526Y-97265537D01*
X49484840Y-97324502D01*
X49604538Y-97360812D01*
X49729020Y-97373072D01*
X50293270Y-97370000D01*
X50452020Y-97211250D01*
X50452020Y-96012000D01*
X50432020Y-96012000D01*
X50432020Y-95758000D01*
X50452020Y-95758000D01*
X50452020Y-94558750D01*
X50293270Y-94400000D01*
X49729020Y-94396928D01*
X49604538Y-94409188D01*
X49484840Y-94445498D01*
X49374526Y-94504463D01*
X49277835Y-94583815D01*
X49198483Y-94680506D01*
X49139518Y-94790820D01*
X49117507Y-94863380D01*
X48985652Y-94731525D01*
X48742431Y-94569010D01*
X48472178Y-94457068D01*
X48185280Y-94400000D01*
X47892760Y-94400000D01*
X47605862Y-94457068D01*
X47335609Y-94569010D01*
X47092388Y-94731525D01*
X46885545Y-94938368D01*
X46769020Y-95112760D01*
X46652495Y-94938368D01*
X46445652Y-94731525D01*
X46202431Y-94569010D01*
X45932178Y-94457068D01*
X45645280Y-94400000D01*
X45352760Y-94400000D01*
X45065862Y-94457068D01*
X44795609Y-94569010D01*
X44552388Y-94731525D01*
X44345545Y-94938368D01*
X44229020Y-95112760D01*
X44112495Y-94938368D01*
X43905652Y-94731525D01*
X43662431Y-94569010D01*
X43392178Y-94457068D01*
X43105280Y-94400000D01*
X42812760Y-94400000D01*
X42525862Y-94457068D01*
X42255609Y-94569010D01*
X42012388Y-94731525D01*
X41805545Y-94938368D01*
X41689020Y-95112760D01*
X41572495Y-94938368D01*
X41365652Y-94731525D01*
X41122431Y-94569010D01*
X40852178Y-94457068D01*
X40565280Y-94400000D01*
X40272760Y-94400000D01*
X39985862Y-94457068D01*
X39715609Y-94569010D01*
X39472388Y-94731525D01*
X39340533Y-94863380D01*
X39318522Y-94790820D01*
X39259557Y-94680506D01*
X39180205Y-94583815D01*
X39083514Y-94504463D01*
X38973200Y-94445498D01*
X38853502Y-94409188D01*
X38729020Y-94396928D01*
X38164770Y-94400000D01*
X38006020Y-94558750D01*
X37752020Y-94558750D01*
X37593270Y-94400000D01*
X37029020Y-94396928D01*
X36904538Y-94409188D01*
X36784840Y-94445498D01*
X36674526Y-94504463D01*
X36577835Y-94583815D01*
X36498483Y-94680506D01*
X36439518Y-94790820D01*
X36417507Y-94863380D01*
X36285652Y-94731525D01*
X36042431Y-94569010D01*
X35772178Y-94457068D01*
X35485280Y-94400000D01*
X35192760Y-94400000D01*
X34905862Y-94457068D01*
X34635609Y-94569010D01*
X34392388Y-94731525D01*
X34185545Y-94938368D01*
X34069020Y-95112760D01*
X33952495Y-94938368D01*
X33745652Y-94731525D01*
X33502431Y-94569010D01*
X33232178Y-94457068D01*
X32945280Y-94400000D01*
X32652760Y-94400000D01*
X32365862Y-94457068D01*
X32095609Y-94569010D01*
X31852388Y-94731525D01*
X31645545Y-94938368D01*
X31483030Y-95181589D01*
X31371088Y-95451842D01*
X31314020Y-95738740D01*
X30660000Y-95738740D01*
X30660000Y-92498061D01*
X48965000Y-92498061D01*
X48965000Y-92701939D01*
X49004774Y-92901898D01*
X49082795Y-93090256D01*
X49196063Y-93259774D01*
X49340226Y-93403937D01*
X49509744Y-93517205D01*
X49698102Y-93595226D01*
X49898061Y-93635000D01*
X50101939Y-93635000D01*
X50301898Y-93595226D01*
X50490256Y-93517205D01*
X50659774Y-93403937D01*
X50703711Y-93360000D01*
X53762678Y-93360000D01*
X53800000Y-93363676D01*
X53837322Y-93360000D01*
X53837333Y-93360000D01*
X53948986Y-93349003D01*
X54092247Y-93305546D01*
X54224276Y-93234974D01*
X54340001Y-93140001D01*
X54363804Y-93110997D01*
X55725157Y-91749645D01*
X55739929Y-91736162D01*
X55744608Y-91730964D01*
X55776923Y-91700362D01*
X55794561Y-91675460D01*
X56626510Y-90751073D01*
X56640001Y-90740001D01*
X56676482Y-90695548D01*
X56689877Y-90680665D01*
X56700173Y-90666681D01*
X56734974Y-90624275D01*
X56744461Y-90606526D01*
X56756395Y-90590317D01*
X56779679Y-90540639D01*
X56805546Y-90492246D01*
X56811389Y-90472984D01*
X56819833Y-90454968D01*
X57402959Y-89871842D01*
X57394454Y-89887754D01*
X57375881Y-89948985D01*
X57353207Y-90023734D01*
X57350998Y-90031015D01*
X57336324Y-90180000D01*
X57340001Y-90217332D01*
X57340001Y-90396288D01*
X57296063Y-90440226D01*
X57182795Y-90609744D01*
X57104774Y-90798102D01*
X57065000Y-90998061D01*
X57065000Y-91201939D01*
X57104774Y-91401898D01*
X57182795Y-91590256D01*
X57296063Y-91759774D01*
X57440226Y-91903937D01*
X57609744Y-92017205D01*
X57798102Y-92095226D01*
X57998061Y-92135000D01*
X58201939Y-92135000D01*
X58401898Y-92095226D01*
X58590256Y-92017205D01*
X58759774Y-91903937D01*
X58903937Y-91759774D01*
X59017205Y-91590256D01*
X59095226Y-91401898D01*
X59135000Y-91201939D01*
X59135000Y-90998061D01*
X59095226Y-90798102D01*
X59017205Y-90609744D01*
X58908198Y-90446603D01*
X59711730Y-89643072D01*
X60400000Y-89643072D01*
X60553745Y-89627929D01*
X60701582Y-89583084D01*
X60837829Y-89510258D01*
X60892976Y-89465000D01*
X61757678Y-89465000D01*
X61795000Y-89468676D01*
X61832322Y-89465000D01*
X61832333Y-89465000D01*
X61943986Y-89454003D01*
X62087247Y-89410546D01*
X62219276Y-89339974D01*
X62335001Y-89245001D01*
X62358804Y-89215997D01*
X63911004Y-87663798D01*
X63940001Y-87640001D01*
X64034974Y-87524276D01*
X64105546Y-87392247D01*
X64149003Y-87248986D01*
X64160000Y-87137333D01*
X64160000Y-87137325D01*
X64163676Y-87100000D01*
X64160000Y-87062675D01*
X64160000Y-86349776D01*
X64198254Y-86346008D01*
X64364850Y-86295472D01*
X64518386Y-86213405D01*
X64652962Y-86102962D01*
X64763405Y-85968386D01*
X64845472Y-85814850D01*
X64896008Y-85648254D01*
X64913072Y-85475000D01*
X64913072Y-84725000D01*
X64896008Y-84551746D01*
X64845472Y-84385150D01*
X64763405Y-84231614D01*
X64652962Y-84097038D01*
X64518386Y-83986595D01*
X64364850Y-83904528D01*
X64198254Y-83853992D01*
X64025000Y-83836928D01*
X62775000Y-83836928D01*
X62601746Y-83853992D01*
X62435150Y-83904528D01*
X62281614Y-83986595D01*
X62147038Y-84097038D01*
X62036595Y-84231614D01*
X61954528Y-84385150D01*
X61903992Y-84551746D01*
X61886928Y-84725000D01*
X61886928Y-85475000D01*
X61903992Y-85648254D01*
X61954528Y-85814850D01*
X62036595Y-85968386D01*
X62147038Y-86102962D01*
X62281614Y-86213405D01*
X62435150Y-86295472D01*
X62601746Y-86346008D01*
X62640000Y-86349776D01*
X62640000Y-86785198D01*
X61480199Y-87945000D01*
X61096859Y-87945000D01*
X61128084Y-87886582D01*
X61172929Y-87738745D01*
X61188072Y-87585000D01*
X61188072Y-87285000D01*
X61172929Y-87131255D01*
X61128084Y-86983418D01*
X61055258Y-86847171D01*
X61016546Y-86800000D01*
X61055258Y-86752829D01*
X61128084Y-86616582D01*
X61172929Y-86468745D01*
X61188072Y-86315000D01*
X61188072Y-86015000D01*
X61172929Y-85861255D01*
X61128084Y-85713418D01*
X61056270Y-85579064D01*
X61080537Y-85549494D01*
X61139502Y-85439180D01*
X61175812Y-85319482D01*
X61188072Y-85195000D01*
X61185000Y-85180750D01*
X61026250Y-85022000D01*
X59702000Y-85022000D01*
X59702000Y-85042000D01*
X59448000Y-85042000D01*
X59448000Y-85022000D01*
X58123750Y-85022000D01*
X57965000Y-85180750D01*
X57961928Y-85195000D01*
X57974188Y-85319482D01*
X58010498Y-85439180D01*
X58069463Y-85549494D01*
X58093730Y-85579064D01*
X58021916Y-85713418D01*
X57977071Y-85861255D01*
X57961928Y-86015000D01*
X57961928Y-86315000D01*
X57977071Y-86468745D01*
X58021916Y-86616582D01*
X58094742Y-86752829D01*
X58133454Y-86800000D01*
X58094742Y-86847171D01*
X58021916Y-86983418D01*
X57977071Y-87131255D01*
X57974820Y-87154112D01*
X57958765Y-87167288D01*
X57924999Y-87194999D01*
X57901201Y-87223997D01*
X56234562Y-88890637D01*
X56238072Y-88855000D01*
X56238072Y-88555000D01*
X56222929Y-88401255D01*
X56178084Y-88253418D01*
X56105258Y-88117171D01*
X56066546Y-88070000D01*
X56105258Y-88022829D01*
X56123650Y-87988420D01*
X56140001Y-87975001D01*
X56163804Y-87945997D01*
X57611004Y-86498798D01*
X57640001Y-86475001D01*
X57734974Y-86359276D01*
X57805546Y-86227247D01*
X57849003Y-86083986D01*
X57860000Y-85972333D01*
X57860000Y-85972324D01*
X57863676Y-85935001D01*
X57860000Y-85897678D01*
X57860000Y-84595000D01*
X57961928Y-84595000D01*
X57965000Y-84609250D01*
X58123750Y-84768000D01*
X59448000Y-84768000D01*
X59448000Y-84118750D01*
X59702000Y-84118750D01*
X59702000Y-84768000D01*
X61026250Y-84768000D01*
X61185000Y-84609250D01*
X61188072Y-84595000D01*
X61175812Y-84470518D01*
X61139502Y-84350820D01*
X61080537Y-84240506D01*
X61001185Y-84143815D01*
X60904494Y-84064463D01*
X60794180Y-84005498D01*
X60674482Y-83969188D01*
X60550000Y-83956928D01*
X59860750Y-83960000D01*
X59702000Y-84118750D01*
X59448000Y-84118750D01*
X59289250Y-83960000D01*
X58600000Y-83956928D01*
X58475518Y-83969188D01*
X58355820Y-84005498D01*
X58245506Y-84064463D01*
X58148815Y-84143815D01*
X58069463Y-84240506D01*
X58010498Y-84350820D01*
X57974188Y-84470518D01*
X57961928Y-84595000D01*
X57860000Y-84595000D01*
X57860000Y-84262236D01*
X57895983Y-84208383D01*
X57974004Y-84020025D01*
X58013778Y-83820066D01*
X58013778Y-83616188D01*
X57974004Y-83416229D01*
X57895983Y-83227871D01*
X57782715Y-83058353D01*
X57649362Y-82925000D01*
X61886928Y-82925000D01*
X61899188Y-83049482D01*
X61935498Y-83169180D01*
X61994463Y-83279494D01*
X62073815Y-83376185D01*
X62170506Y-83455537D01*
X62280820Y-83514502D01*
X62400518Y-83550812D01*
X62525000Y-83563072D01*
X63114250Y-83560000D01*
X63273000Y-83401250D01*
X63273000Y-82427000D01*
X63527000Y-82427000D01*
X63527000Y-83401250D01*
X63685750Y-83560000D01*
X64275000Y-83563072D01*
X64399482Y-83550812D01*
X64519180Y-83514502D01*
X64629494Y-83455537D01*
X64726185Y-83376185D01*
X64805537Y-83279494D01*
X64864502Y-83169180D01*
X64900812Y-83049482D01*
X64913072Y-82925000D01*
X64910000Y-82585750D01*
X64751250Y-82427000D01*
X63527000Y-82427000D01*
X63273000Y-82427000D01*
X62048750Y-82427000D01*
X61890000Y-82585750D01*
X61886928Y-82925000D01*
X57649362Y-82925000D01*
X57638552Y-82914190D01*
X57469034Y-82800922D01*
X57280676Y-82722901D01*
X57080717Y-82683127D01*
X56876839Y-82683127D01*
X56676880Y-82722901D01*
X56488522Y-82800922D01*
X56319004Y-82914190D01*
X56174841Y-83058353D01*
X56061573Y-83227871D01*
X55983552Y-83416229D01*
X55943778Y-83616188D01*
X55943778Y-83820066D01*
X55983552Y-84020025D01*
X56061573Y-84208383D01*
X56174841Y-84377901D01*
X56319004Y-84522064D01*
X56340001Y-84536093D01*
X56340000Y-85620198D01*
X56194072Y-85766126D01*
X56178084Y-85713418D01*
X56105258Y-85577171D01*
X56066546Y-85530000D01*
X56105258Y-85482829D01*
X56178084Y-85346582D01*
X56222929Y-85198745D01*
X56238072Y-85045000D01*
X56238072Y-84745000D01*
X56222929Y-84591255D01*
X56178084Y-84443418D01*
X56105258Y-84307171D01*
X56007251Y-84187749D01*
X55887829Y-84089742D01*
X55751582Y-84016916D01*
X55603745Y-83972071D01*
X55450000Y-83956928D01*
X55064879Y-83956928D01*
X54926898Y-83899774D01*
X54726939Y-83860000D01*
X54523061Y-83860000D01*
X54521302Y-83860350D01*
X54473986Y-83845997D01*
X54362333Y-83835000D01*
X54362322Y-83835000D01*
X54325000Y-83831324D01*
X54287678Y-83835000D01*
X54042322Y-83835000D01*
X54005000Y-83831324D01*
X53967677Y-83835000D01*
X53967667Y-83835000D01*
X53856014Y-83845997D01*
X53712753Y-83889454D01*
X53580723Y-83960026D01*
X53522746Y-84007607D01*
X53519017Y-84010667D01*
X53498418Y-84016916D01*
X53362171Y-84089742D01*
X53242749Y-84187749D01*
X53144742Y-84307171D01*
X53071916Y-84443418D01*
X53067621Y-84457578D01*
X52388998Y-85136201D01*
X52360000Y-85159999D01*
X52336202Y-85188997D01*
X52336201Y-85188998D01*
X52265026Y-85275724D01*
X52194454Y-85407754D01*
X52166583Y-85499636D01*
X52150998Y-85551014D01*
X52142770Y-85634552D01*
X52136324Y-85700000D01*
X52140001Y-85737332D01*
X52140000Y-89260324D01*
X52136324Y-89297647D01*
X52140000Y-89334969D01*
X52140000Y-89334979D01*
X52150997Y-89446632D01*
X52184167Y-89555981D01*
X52194454Y-89589893D01*
X52265026Y-89721923D01*
X52292766Y-89755724D01*
X52359999Y-89837648D01*
X52389002Y-89861451D01*
X53354535Y-90826984D01*
X53378333Y-90855982D01*
X53494058Y-90950955D01*
X53626087Y-91021527D01*
X53769295Y-91064968D01*
X53824245Y-91119918D01*
X53993763Y-91233186D01*
X54063236Y-91261963D01*
X53485199Y-91840000D01*
X50703711Y-91840000D01*
X50659774Y-91796063D01*
X50490256Y-91682795D01*
X50301898Y-91604774D01*
X50101939Y-91565000D01*
X49898061Y-91565000D01*
X49698102Y-91604774D01*
X49509744Y-91682795D01*
X49340226Y-91796063D01*
X49196063Y-91940226D01*
X49082795Y-92109744D01*
X49004774Y-92298102D01*
X48965000Y-92498061D01*
X30660000Y-92498061D01*
X30660000Y-86145000D01*
X31540948Y-86145000D01*
X31540948Y-87845000D01*
X31553208Y-87969482D01*
X31589518Y-88089180D01*
X31648483Y-88199494D01*
X31727835Y-88296185D01*
X31824526Y-88375537D01*
X31934840Y-88434502D01*
X32007400Y-88456513D01*
X31875545Y-88588368D01*
X31713030Y-88831589D01*
X31601088Y-89101842D01*
X31544020Y-89388740D01*
X31544020Y-89681260D01*
X31601088Y-89968158D01*
X31713030Y-90238411D01*
X31875545Y-90481632D01*
X32082388Y-90688475D01*
X32325609Y-90850990D01*
X32595862Y-90962932D01*
X32882760Y-91020000D01*
X33175280Y-91020000D01*
X33462178Y-90962932D01*
X33732431Y-90850990D01*
X33975652Y-90688475D01*
X34182495Y-90481632D01*
X34345010Y-90238411D01*
X34456952Y-89968158D01*
X34514020Y-89681260D01*
X34514020Y-89388740D01*
X34456952Y-89101842D01*
X34345010Y-88831589D01*
X34182495Y-88588368D01*
X34050640Y-88456513D01*
X34123200Y-88434502D01*
X34233514Y-88375537D01*
X34330205Y-88296185D01*
X34409557Y-88199494D01*
X34468522Y-88089180D01*
X34504832Y-87969482D01*
X34517092Y-87845000D01*
X34517092Y-86145000D01*
X34504832Y-86020518D01*
X34468522Y-85900820D01*
X34409557Y-85790506D01*
X34330205Y-85693815D01*
X34233514Y-85614463D01*
X34123200Y-85555498D01*
X34050640Y-85533487D01*
X34182495Y-85401632D01*
X34345010Y-85158411D01*
X34456952Y-84888158D01*
X34514020Y-84601260D01*
X34514020Y-84308740D01*
X34456952Y-84021842D01*
X34345010Y-83751589D01*
X34182495Y-83508368D01*
X33975652Y-83301525D01*
X33732431Y-83139010D01*
X33517541Y-83050000D01*
X41811928Y-83050000D01*
X41811928Y-84550000D01*
X41824188Y-84674482D01*
X41860498Y-84794180D01*
X41919463Y-84904494D01*
X41998815Y-85001185D01*
X42095506Y-85080537D01*
X42205820Y-85139502D01*
X42325518Y-85175812D01*
X42450000Y-85188072D01*
X43950000Y-85188072D01*
X44074482Y-85175812D01*
X44194180Y-85139502D01*
X44304494Y-85080537D01*
X44401185Y-85001185D01*
X44480537Y-84904494D01*
X44539502Y-84794180D01*
X44575812Y-84674482D01*
X44577952Y-84652753D01*
X44918214Y-84993016D01*
X44915506Y-84994463D01*
X44818815Y-85073815D01*
X44739463Y-85170506D01*
X44680498Y-85280820D01*
X44644188Y-85400518D01*
X44631928Y-85525000D01*
X44631928Y-86040000D01*
X44587087Y-86040000D01*
X44575812Y-85925518D01*
X44539502Y-85805820D01*
X44480537Y-85695506D01*
X44401185Y-85598815D01*
X44304494Y-85519463D01*
X44194180Y-85460498D01*
X44074482Y-85424188D01*
X43950000Y-85411928D01*
X42450000Y-85411928D01*
X42325518Y-85424188D01*
X42205820Y-85460498D01*
X42095506Y-85519463D01*
X41998815Y-85598815D01*
X41919463Y-85695506D01*
X41860498Y-85805820D01*
X41824188Y-85925518D01*
X41811928Y-86050000D01*
X41811928Y-87550000D01*
X41824188Y-87674482D01*
X41860498Y-87794180D01*
X41919463Y-87904494D01*
X41998815Y-88001185D01*
X42095506Y-88080537D01*
X42205820Y-88139502D01*
X42325518Y-88175812D01*
X42450000Y-88188072D01*
X43950000Y-88188072D01*
X44074482Y-88175812D01*
X44194180Y-88139502D01*
X44304494Y-88080537D01*
X44401185Y-88001185D01*
X44480537Y-87904494D01*
X44539502Y-87794180D01*
X44575812Y-87674482D01*
X44587087Y-87560000D01*
X44631928Y-87560000D01*
X44631928Y-88075000D01*
X44644188Y-88199482D01*
X44680498Y-88319180D01*
X44698096Y-88352103D01*
X44423812Y-88626386D01*
X44401185Y-88598815D01*
X44304494Y-88519463D01*
X44194180Y-88460498D01*
X44074482Y-88424188D01*
X43950000Y-88411928D01*
X42450000Y-88411928D01*
X42325518Y-88424188D01*
X42205820Y-88460498D01*
X42095506Y-88519463D01*
X41998815Y-88598815D01*
X41919463Y-88695506D01*
X41860498Y-88805820D01*
X41824188Y-88925518D01*
X41811928Y-89050000D01*
X41811928Y-90550000D01*
X41824188Y-90674482D01*
X41860498Y-90794180D01*
X41919463Y-90904494D01*
X41998815Y-91001185D01*
X42095506Y-91080537D01*
X42205820Y-91139502D01*
X42325518Y-91175812D01*
X42450000Y-91188072D01*
X43950000Y-91188072D01*
X44074482Y-91175812D01*
X44194180Y-91139502D01*
X44304494Y-91080537D01*
X44401185Y-91001185D01*
X44480537Y-90904494D01*
X44539502Y-90794180D01*
X44575812Y-90674482D01*
X44588072Y-90550000D01*
X44588072Y-90514396D01*
X44617247Y-90505546D01*
X44749276Y-90434974D01*
X44865001Y-90340001D01*
X44888804Y-90310997D01*
X46311003Y-88888799D01*
X46340001Y-88865001D01*
X46388570Y-88805820D01*
X46434974Y-88749277D01*
X46462117Y-88698496D01*
X46574180Y-88664502D01*
X46684494Y-88605537D01*
X46781185Y-88526185D01*
X46860537Y-88429494D01*
X46900000Y-88355665D01*
X46939463Y-88429494D01*
X47018815Y-88526185D01*
X47115506Y-88605537D01*
X47225820Y-88664502D01*
X47337883Y-88698496D01*
X47365026Y-88749276D01*
X47414504Y-88809564D01*
X47460000Y-88865001D01*
X47488998Y-88888799D01*
X47640000Y-89039801D01*
X47640000Y-89162678D01*
X47636324Y-89200000D01*
X47640000Y-89237322D01*
X47640000Y-89237333D01*
X47650997Y-89348986D01*
X47694454Y-89492247D01*
X47765026Y-89624276D01*
X47860000Y-89740001D01*
X47888998Y-89763799D01*
X48436200Y-90311002D01*
X48459999Y-90340001D01*
X48488997Y-90363799D01*
X48575723Y-90434974D01*
X48689518Y-90495799D01*
X48707753Y-90505546D01*
X48851014Y-90549003D01*
X48962667Y-90560000D01*
X48962676Y-90560000D01*
X48999999Y-90563676D01*
X49037322Y-90560000D01*
X49212913Y-90560000D01*
X49224188Y-90674482D01*
X49260498Y-90794180D01*
X49319463Y-90904494D01*
X49398815Y-91001185D01*
X49495506Y-91080537D01*
X49605820Y-91139502D01*
X49725518Y-91175812D01*
X49850000Y-91188072D01*
X51350000Y-91188072D01*
X51474482Y-91175812D01*
X51594180Y-91139502D01*
X51704494Y-91080537D01*
X51801185Y-91001185D01*
X51880537Y-90904494D01*
X51939502Y-90794180D01*
X51975812Y-90674482D01*
X51988072Y-90550000D01*
X51988072Y-89050000D01*
X51975812Y-88925518D01*
X51939502Y-88805820D01*
X51880537Y-88695506D01*
X51801185Y-88598815D01*
X51704494Y-88519463D01*
X51594180Y-88460498D01*
X51474482Y-88424188D01*
X51350000Y-88411928D01*
X49850000Y-88411928D01*
X49725518Y-88424188D01*
X49605820Y-88460498D01*
X49495506Y-88519463D01*
X49398815Y-88598815D01*
X49319463Y-88695506D01*
X49260498Y-88805820D01*
X49224188Y-88925518D01*
X49222048Y-88947247D01*
X49160000Y-88885199D01*
X49160000Y-88762322D01*
X49163676Y-88724999D01*
X49160000Y-88687676D01*
X49160000Y-88687667D01*
X49149003Y-88576014D01*
X49105546Y-88432753D01*
X49082171Y-88389021D01*
X49119502Y-88319180D01*
X49155812Y-88199482D01*
X49168072Y-88075000D01*
X49168072Y-87560000D01*
X49212913Y-87560000D01*
X49224188Y-87674482D01*
X49260498Y-87794180D01*
X49319463Y-87904494D01*
X49398815Y-88001185D01*
X49495506Y-88080537D01*
X49605820Y-88139502D01*
X49725518Y-88175812D01*
X49850000Y-88188072D01*
X51350000Y-88188072D01*
X51474482Y-88175812D01*
X51594180Y-88139502D01*
X51704494Y-88080537D01*
X51801185Y-88001185D01*
X51880537Y-87904494D01*
X51939502Y-87794180D01*
X51975812Y-87674482D01*
X51988072Y-87550000D01*
X51988072Y-86050000D01*
X51975812Y-85925518D01*
X51939502Y-85805820D01*
X51880537Y-85695506D01*
X51801185Y-85598815D01*
X51704494Y-85519463D01*
X51594180Y-85460498D01*
X51474482Y-85424188D01*
X51350000Y-85411928D01*
X49850000Y-85411928D01*
X49725518Y-85424188D01*
X49605820Y-85460498D01*
X49495506Y-85519463D01*
X49398815Y-85598815D01*
X49319463Y-85695506D01*
X49260498Y-85805820D01*
X49224188Y-85925518D01*
X49212913Y-86040000D01*
X49168072Y-86040000D01*
X49168072Y-85525000D01*
X49155812Y-85400518D01*
X49136837Y-85337965D01*
X49439899Y-85034902D01*
X49495506Y-85080537D01*
X49605820Y-85139502D01*
X49725518Y-85175812D01*
X49850000Y-85188072D01*
X51350000Y-85188072D01*
X51474482Y-85175812D01*
X51594180Y-85139502D01*
X51704494Y-85080537D01*
X51801185Y-85001185D01*
X51880537Y-84904494D01*
X51939502Y-84794180D01*
X51975812Y-84674482D01*
X51988072Y-84550000D01*
X51988072Y-83050000D01*
X51975812Y-82925518D01*
X51939502Y-82805820D01*
X51880537Y-82695506D01*
X51801185Y-82598815D01*
X51704494Y-82519463D01*
X51594180Y-82460498D01*
X51474482Y-82424188D01*
X51350000Y-82411928D01*
X49850000Y-82411928D01*
X49725518Y-82424188D01*
X49605820Y-82460498D01*
X49495506Y-82519463D01*
X49398815Y-82598815D01*
X49319463Y-82695506D01*
X49260498Y-82805820D01*
X49224188Y-82925518D01*
X49211928Y-83050000D01*
X49211928Y-83145674D01*
X49175724Y-83165026D01*
X49059999Y-83259999D01*
X49036201Y-83288997D01*
X48051642Y-84273557D01*
X47982753Y-84294454D01*
X47850724Y-84365026D01*
X47734999Y-84459999D01*
X47711196Y-84489003D01*
X47489003Y-84711196D01*
X47459999Y-84734999D01*
X47412349Y-84793061D01*
X47365026Y-84850724D01*
X47337883Y-84901504D01*
X47225820Y-84935498D01*
X47115506Y-84994463D01*
X47018815Y-85073815D01*
X46939463Y-85170506D01*
X46900000Y-85244335D01*
X46860537Y-85170506D01*
X46781185Y-85073815D01*
X46684494Y-84994463D01*
X46574180Y-84935498D01*
X46560000Y-84931197D01*
X46560000Y-84837333D01*
X46563677Y-84800000D01*
X46549003Y-84651014D01*
X46505546Y-84507753D01*
X46434974Y-84375724D01*
X46363799Y-84288997D01*
X46340001Y-84259999D01*
X46311003Y-84236201D01*
X45363804Y-83289002D01*
X45340001Y-83259999D01*
X45224276Y-83165026D01*
X45092247Y-83094454D01*
X44948986Y-83050997D01*
X44837333Y-83040000D01*
X44837322Y-83040000D01*
X44800000Y-83036324D01*
X44762678Y-83040000D01*
X44587087Y-83040000D01*
X44575812Y-82925518D01*
X44539502Y-82805820D01*
X44480537Y-82695506D01*
X44401185Y-82598815D01*
X44304494Y-82519463D01*
X44194180Y-82460498D01*
X44074482Y-82424188D01*
X43950000Y-82411928D01*
X42450000Y-82411928D01*
X42325518Y-82424188D01*
X42205820Y-82460498D01*
X42095506Y-82519463D01*
X41998815Y-82598815D01*
X41919463Y-82695506D01*
X41860498Y-82805820D01*
X41824188Y-82925518D01*
X41811928Y-83050000D01*
X33517541Y-83050000D01*
X33462178Y-83027068D01*
X33175280Y-82970000D01*
X32882760Y-82970000D01*
X32595862Y-83027068D01*
X32325609Y-83139010D01*
X32082388Y-83301525D01*
X31875545Y-83508368D01*
X31713030Y-83751589D01*
X31601088Y-84021842D01*
X31544020Y-84308740D01*
X31544020Y-84601260D01*
X31601088Y-84888158D01*
X31713030Y-85158411D01*
X31875545Y-85401632D01*
X32007400Y-85533487D01*
X31934840Y-85555498D01*
X31824526Y-85614463D01*
X31727835Y-85693815D01*
X31648483Y-85790506D01*
X31589518Y-85900820D01*
X31553208Y-86020518D01*
X31540948Y-86145000D01*
X30660000Y-86145000D01*
X30660000Y-81675000D01*
X61886928Y-81675000D01*
X61890000Y-82014250D01*
X62048750Y-82173000D01*
X63273000Y-82173000D01*
X63273000Y-81198750D01*
X63527000Y-81198750D01*
X63527000Y-82173000D01*
X64751250Y-82173000D01*
X64910000Y-82014250D01*
X64913072Y-81675000D01*
X64900812Y-81550518D01*
X64864502Y-81430820D01*
X64805537Y-81320506D01*
X64726185Y-81223815D01*
X64629494Y-81144463D01*
X64519180Y-81085498D01*
X64399482Y-81049188D01*
X64275000Y-81036928D01*
X63685750Y-81040000D01*
X63527000Y-81198750D01*
X63273000Y-81198750D01*
X63114250Y-81040000D01*
X62525000Y-81036928D01*
X62400518Y-81049188D01*
X62280820Y-81085498D01*
X62170506Y-81144463D01*
X62073815Y-81223815D01*
X61994463Y-81320506D01*
X61935498Y-81430820D01*
X61899188Y-81550518D01*
X61886928Y-81675000D01*
X30660000Y-81675000D01*
X30660000Y-77958740D01*
X31314020Y-77958740D01*
X31314020Y-78251260D01*
X31371088Y-78538158D01*
X31483030Y-78808411D01*
X31645545Y-79051632D01*
X31852388Y-79258475D01*
X32095609Y-79420990D01*
X32365862Y-79532932D01*
X32652760Y-79590000D01*
X32945280Y-79590000D01*
X33232178Y-79532932D01*
X33502431Y-79420990D01*
X33745652Y-79258475D01*
X33952495Y-79051632D01*
X34069020Y-78877240D01*
X34185545Y-79051632D01*
X34392388Y-79258475D01*
X34635609Y-79420990D01*
X34905862Y-79532932D01*
X35192760Y-79590000D01*
X35485280Y-79590000D01*
X35772178Y-79532932D01*
X36042431Y-79420990D01*
X36285652Y-79258475D01*
X36417507Y-79126620D01*
X36439518Y-79199180D01*
X36498483Y-79309494D01*
X36577835Y-79406185D01*
X36674526Y-79485537D01*
X36784840Y-79544502D01*
X36904538Y-79580812D01*
X37029020Y-79593072D01*
X37593270Y-79590000D01*
X37752020Y-79431250D01*
X37752020Y-78232000D01*
X37732020Y-78232000D01*
X37732020Y-77978000D01*
X37752020Y-77978000D01*
X37752020Y-76778750D01*
X38006020Y-76778750D01*
X38006020Y-77978000D01*
X38026020Y-77978000D01*
X38026020Y-78232000D01*
X38006020Y-78232000D01*
X38006020Y-79431250D01*
X38164770Y-79590000D01*
X38729020Y-79593072D01*
X38853502Y-79580812D01*
X38973200Y-79544502D01*
X39083514Y-79485537D01*
X39180205Y-79406185D01*
X39259557Y-79309494D01*
X39318522Y-79199180D01*
X39340533Y-79126620D01*
X39472388Y-79258475D01*
X39715609Y-79420990D01*
X39985862Y-79532932D01*
X40272760Y-79590000D01*
X40565280Y-79590000D01*
X40852178Y-79532932D01*
X41122431Y-79420990D01*
X41365652Y-79258475D01*
X41572495Y-79051632D01*
X41689020Y-78877240D01*
X41805545Y-79051632D01*
X42012388Y-79258475D01*
X42255609Y-79420990D01*
X42525862Y-79532932D01*
X42812760Y-79590000D01*
X43105280Y-79590000D01*
X43392178Y-79532932D01*
X43662431Y-79420990D01*
X43905652Y-79258475D01*
X44112495Y-79051632D01*
X44229020Y-78877240D01*
X44345545Y-79051632D01*
X44552388Y-79258475D01*
X44795609Y-79420990D01*
X45065862Y-79532932D01*
X45352760Y-79590000D01*
X45645280Y-79590000D01*
X45932178Y-79532932D01*
X46202431Y-79420990D01*
X46445652Y-79258475D01*
X46652495Y-79051632D01*
X46769020Y-78877240D01*
X46885545Y-79051632D01*
X47092388Y-79258475D01*
X47335609Y-79420990D01*
X47605862Y-79532932D01*
X47892760Y-79590000D01*
X48185280Y-79590000D01*
X48472178Y-79532932D01*
X48742431Y-79420990D01*
X48985652Y-79258475D01*
X49117507Y-79126620D01*
X49139518Y-79199180D01*
X49198483Y-79309494D01*
X49277835Y-79406185D01*
X49374526Y-79485537D01*
X49484840Y-79544502D01*
X49604538Y-79580812D01*
X49729020Y-79593072D01*
X50293270Y-79590000D01*
X50452020Y-79431250D01*
X50452020Y-78232000D01*
X50432020Y-78232000D01*
X50432020Y-77978000D01*
X50452020Y-77978000D01*
X50452020Y-76778750D01*
X50706020Y-76778750D01*
X50706020Y-77978000D01*
X50726020Y-77978000D01*
X50726020Y-78232000D01*
X50706020Y-78232000D01*
X50706020Y-79431250D01*
X50864770Y-79590000D01*
X51429020Y-79593072D01*
X51553502Y-79580812D01*
X51673200Y-79544502D01*
X51783514Y-79485537D01*
X51880205Y-79406185D01*
X51959557Y-79309494D01*
X52018522Y-79199180D01*
X52040533Y-79126620D01*
X52172388Y-79258475D01*
X52415609Y-79420990D01*
X52685862Y-79532932D01*
X52972760Y-79590000D01*
X53265280Y-79590000D01*
X53552178Y-79532932D01*
X53822431Y-79420990D01*
X54065652Y-79258475D01*
X54272495Y-79051632D01*
X54389020Y-78877240D01*
X54505545Y-79051632D01*
X54712388Y-79258475D01*
X54955609Y-79420990D01*
X55225862Y-79532932D01*
X55512760Y-79590000D01*
X55805280Y-79590000D01*
X56092178Y-79532932D01*
X56362431Y-79420990D01*
X56605652Y-79258475D01*
X56812495Y-79051632D01*
X56929020Y-78877240D01*
X57045545Y-79051632D01*
X57252388Y-79258475D01*
X57495609Y-79420990D01*
X57765862Y-79532932D01*
X58052760Y-79590000D01*
X58345280Y-79590000D01*
X58632178Y-79532932D01*
X58902431Y-79420990D01*
X59145652Y-79258475D01*
X59352495Y-79051632D01*
X59469020Y-78877240D01*
X59585545Y-79051632D01*
X59792388Y-79258475D01*
X60035609Y-79420990D01*
X60305862Y-79532932D01*
X60592760Y-79590000D01*
X60885280Y-79590000D01*
X61172178Y-79532932D01*
X61442431Y-79420990D01*
X61685652Y-79258475D01*
X61817507Y-79126620D01*
X61839518Y-79199180D01*
X61898483Y-79309494D01*
X61977835Y-79406185D01*
X62074526Y-79485537D01*
X62184840Y-79544502D01*
X62304538Y-79580812D01*
X62429020Y-79593072D01*
X62993270Y-79590000D01*
X63152020Y-79431250D01*
X63152020Y-78232000D01*
X63132020Y-78232000D01*
X63132020Y-77978000D01*
X63152020Y-77978000D01*
X63152020Y-76778750D01*
X63406020Y-76778750D01*
X63406020Y-77978000D01*
X63426020Y-77978000D01*
X63426020Y-78232000D01*
X63406020Y-78232000D01*
X63406020Y-79431250D01*
X63564770Y-79590000D01*
X64129020Y-79593072D01*
X64253502Y-79580812D01*
X64373200Y-79544502D01*
X64483514Y-79485537D01*
X64580205Y-79406185D01*
X64659557Y-79309494D01*
X64718522Y-79199180D01*
X64740533Y-79126620D01*
X64872388Y-79258475D01*
X65115609Y-79420990D01*
X65385862Y-79532932D01*
X65672760Y-79590000D01*
X65965280Y-79590000D01*
X66252178Y-79532932D01*
X66522431Y-79420990D01*
X66765652Y-79258475D01*
X66972495Y-79051632D01*
X67089020Y-78877240D01*
X67205545Y-79051632D01*
X67412388Y-79258475D01*
X67655609Y-79420990D01*
X67925862Y-79532932D01*
X68212760Y-79590000D01*
X68505280Y-79590000D01*
X68792178Y-79532932D01*
X69062431Y-79420990D01*
X69305652Y-79258475D01*
X69512495Y-79051632D01*
X69629020Y-78877240D01*
X69745545Y-79051632D01*
X69952388Y-79258475D01*
X70195609Y-79420990D01*
X70465862Y-79532932D01*
X70752760Y-79590000D01*
X71045280Y-79590000D01*
X71332178Y-79532932D01*
X71602431Y-79420990D01*
X71845652Y-79258475D01*
X72052495Y-79051632D01*
X72169020Y-78877240D01*
X72285545Y-79051632D01*
X72492388Y-79258475D01*
X72735609Y-79420990D01*
X73005862Y-79532932D01*
X73292760Y-79590000D01*
X73585280Y-79590000D01*
X73872178Y-79532932D01*
X74142431Y-79420990D01*
X74385652Y-79258475D01*
X74517507Y-79126620D01*
X74539518Y-79199180D01*
X74598483Y-79309494D01*
X74677835Y-79406185D01*
X74774526Y-79485537D01*
X74884840Y-79544502D01*
X75004538Y-79580812D01*
X75129020Y-79593072D01*
X75693270Y-79590000D01*
X75852020Y-79431250D01*
X75852020Y-78232000D01*
X75832020Y-78232000D01*
X75832020Y-77978000D01*
X75852020Y-77978000D01*
X75852020Y-76778750D01*
X75693270Y-76620000D01*
X75129020Y-76616928D01*
X75004538Y-76629188D01*
X74884840Y-76665498D01*
X74774526Y-76724463D01*
X74677835Y-76803815D01*
X74598483Y-76900506D01*
X74539518Y-77010820D01*
X74517507Y-77083380D01*
X74385652Y-76951525D01*
X74142431Y-76789010D01*
X73872178Y-76677068D01*
X73585280Y-76620000D01*
X73292760Y-76620000D01*
X73005862Y-76677068D01*
X72735609Y-76789010D01*
X72492388Y-76951525D01*
X72285545Y-77158368D01*
X72169020Y-77332760D01*
X72052495Y-77158368D01*
X71845652Y-76951525D01*
X71602431Y-76789010D01*
X71332178Y-76677068D01*
X71045280Y-76620000D01*
X70752760Y-76620000D01*
X70465862Y-76677068D01*
X70195609Y-76789010D01*
X69952388Y-76951525D01*
X69745545Y-77158368D01*
X69629020Y-77332760D01*
X69512495Y-77158368D01*
X69305652Y-76951525D01*
X69062431Y-76789010D01*
X68792178Y-76677068D01*
X68505280Y-76620000D01*
X68212760Y-76620000D01*
X67925862Y-76677068D01*
X67655609Y-76789010D01*
X67412388Y-76951525D01*
X67205545Y-77158368D01*
X67089020Y-77332760D01*
X66972495Y-77158368D01*
X66765652Y-76951525D01*
X66522431Y-76789010D01*
X66252178Y-76677068D01*
X65965280Y-76620000D01*
X65672760Y-76620000D01*
X65385862Y-76677068D01*
X65115609Y-76789010D01*
X64872388Y-76951525D01*
X64740533Y-77083380D01*
X64718522Y-77010820D01*
X64659557Y-76900506D01*
X64580205Y-76803815D01*
X64483514Y-76724463D01*
X64373200Y-76665498D01*
X64253502Y-76629188D01*
X64129020Y-76616928D01*
X63564770Y-76620000D01*
X63406020Y-76778750D01*
X63152020Y-76778750D01*
X62993270Y-76620000D01*
X62429020Y-76616928D01*
X62304538Y-76629188D01*
X62184840Y-76665498D01*
X62074526Y-76724463D01*
X61977835Y-76803815D01*
X61898483Y-76900506D01*
X61839518Y-77010820D01*
X61817507Y-77083380D01*
X61685652Y-76951525D01*
X61442431Y-76789010D01*
X61172178Y-76677068D01*
X60885280Y-76620000D01*
X60592760Y-76620000D01*
X60305862Y-76677068D01*
X60035609Y-76789010D01*
X59792388Y-76951525D01*
X59585545Y-77158368D01*
X59469020Y-77332760D01*
X59352495Y-77158368D01*
X59145652Y-76951525D01*
X58902431Y-76789010D01*
X58632178Y-76677068D01*
X58345280Y-76620000D01*
X58052760Y-76620000D01*
X57765862Y-76677068D01*
X57495609Y-76789010D01*
X57252388Y-76951525D01*
X57045545Y-77158368D01*
X56929020Y-77332760D01*
X56812495Y-77158368D01*
X56605652Y-76951525D01*
X56362431Y-76789010D01*
X56092178Y-76677068D01*
X55805280Y-76620000D01*
X55512760Y-76620000D01*
X55225862Y-76677068D01*
X54955609Y-76789010D01*
X54712388Y-76951525D01*
X54505545Y-77158368D01*
X54389020Y-77332760D01*
X54272495Y-77158368D01*
X54065652Y-76951525D01*
X53822431Y-76789010D01*
X53552178Y-76677068D01*
X53265280Y-76620000D01*
X52972760Y-76620000D01*
X52685862Y-76677068D01*
X52415609Y-76789010D01*
X52172388Y-76951525D01*
X52040533Y-77083380D01*
X52018522Y-77010820D01*
X51959557Y-76900506D01*
X51880205Y-76803815D01*
X51783514Y-76724463D01*
X51673200Y-76665498D01*
X51553502Y-76629188D01*
X51429020Y-76616928D01*
X50864770Y-76620000D01*
X50706020Y-76778750D01*
X50452020Y-76778750D01*
X50293270Y-76620000D01*
X49729020Y-76616928D01*
X49604538Y-76629188D01*
X49484840Y-76665498D01*
X49374526Y-76724463D01*
X49277835Y-76803815D01*
X49198483Y-76900506D01*
X49139518Y-77010820D01*
X49117507Y-77083380D01*
X48985652Y-76951525D01*
X48742431Y-76789010D01*
X48472178Y-76677068D01*
X48185280Y-76620000D01*
X47892760Y-76620000D01*
X47605862Y-76677068D01*
X47335609Y-76789010D01*
X47092388Y-76951525D01*
X46885545Y-77158368D01*
X46769020Y-77332760D01*
X46652495Y-77158368D01*
X46445652Y-76951525D01*
X46202431Y-76789010D01*
X45932178Y-76677068D01*
X45645280Y-76620000D01*
X45352760Y-76620000D01*
X45065862Y-76677068D01*
X44795609Y-76789010D01*
X44552388Y-76951525D01*
X44345545Y-77158368D01*
X44229020Y-77332760D01*
X44112495Y-77158368D01*
X43905652Y-76951525D01*
X43662431Y-76789010D01*
X43392178Y-76677068D01*
X43105280Y-76620000D01*
X42812760Y-76620000D01*
X42525862Y-76677068D01*
X42255609Y-76789010D01*
X42012388Y-76951525D01*
X41805545Y-77158368D01*
X41689020Y-77332760D01*
X41572495Y-77158368D01*
X41365652Y-76951525D01*
X41122431Y-76789010D01*
X40852178Y-76677068D01*
X40565280Y-76620000D01*
X40272760Y-76620000D01*
X39985862Y-76677068D01*
X39715609Y-76789010D01*
X39472388Y-76951525D01*
X39340533Y-77083380D01*
X39318522Y-77010820D01*
X39259557Y-76900506D01*
X39180205Y-76803815D01*
X39083514Y-76724463D01*
X38973200Y-76665498D01*
X38853502Y-76629188D01*
X38729020Y-76616928D01*
X38164770Y-76620000D01*
X38006020Y-76778750D01*
X37752020Y-76778750D01*
X37593270Y-76620000D01*
X37029020Y-76616928D01*
X36904538Y-76629188D01*
X36784840Y-76665498D01*
X36674526Y-76724463D01*
X36577835Y-76803815D01*
X36498483Y-76900506D01*
X36439518Y-77010820D01*
X36417507Y-77083380D01*
X36285652Y-76951525D01*
X36042431Y-76789010D01*
X35772178Y-76677068D01*
X35485280Y-76620000D01*
X35192760Y-76620000D01*
X34905862Y-76677068D01*
X34635609Y-76789010D01*
X34392388Y-76951525D01*
X34185545Y-77158368D01*
X34069020Y-77332760D01*
X33952495Y-77158368D01*
X33745652Y-76951525D01*
X33502431Y-76789010D01*
X33232178Y-76677068D01*
X32945280Y-76620000D01*
X32652760Y-76620000D01*
X32365862Y-76677068D01*
X32095609Y-76789010D01*
X31852388Y-76951525D01*
X31645545Y-77158368D01*
X31483030Y-77401589D01*
X31371088Y-77671842D01*
X31314020Y-77958740D01*
X30660000Y-77958740D01*
X30660000Y-75160000D01*
X85340001Y-75160000D01*
X85340000Y-105340000D01*
G36*
X70930045Y-86979970D02*
G01*
X70943230Y-86996085D01*
X70954125Y-87013818D01*
X70985473Y-87047712D01*
X71014704Y-87083438D01*
X71030759Y-87096678D01*
X71044898Y-87111965D01*
X71082238Y-87139129D01*
X71117846Y-87168492D01*
X71136170Y-87178363D01*
X71153006Y-87190610D01*
X71194908Y-87210002D01*
X71235545Y-87231892D01*
X71255437Y-87238015D01*
X71274332Y-87246760D01*
X71283384Y-87249848D01*
X71583384Y-87349848D01*
X71620900Y-87358395D01*
X71657580Y-87370031D01*
X71685925Y-87373210D01*
X71713733Y-87379546D01*
X71752196Y-87380644D01*
X71790436Y-87384933D01*
X71800000Y-87385000D01*
X72200000Y-87385000D01*
X72238296Y-87381245D01*
X72276771Y-87380684D01*
X72304664Y-87374737D01*
X72333051Y-87371954D01*
X72369888Y-87360832D01*
X72407522Y-87352809D01*
X72416616Y-87349848D01*
X72716616Y-87249848D01*
X72735630Y-87241369D01*
X72755607Y-87235523D01*
X72796550Y-87214201D01*
X72838714Y-87195397D01*
X72855716Y-87183388D01*
X72874180Y-87173772D01*
X72910209Y-87144897D01*
X72947909Y-87118268D01*
X72962253Y-87103187D01*
X72978499Y-87090167D01*
X73008227Y-87054852D01*
X73040045Y-87021399D01*
X73051190Y-87003814D01*
X73064594Y-86987890D01*
X73069954Y-86979970D01*
X73200000Y-86784901D01*
X73330045Y-86979970D01*
X73343230Y-86996085D01*
X73354125Y-87013818D01*
X73385473Y-87047712D01*
X73414704Y-87083438D01*
X73430759Y-87096678D01*
X73444898Y-87111965D01*
X73482238Y-87139129D01*
X73517846Y-87168492D01*
X73536170Y-87178363D01*
X73553006Y-87190610D01*
X73594908Y-87210002D01*
X73635545Y-87231892D01*
X73655437Y-87238015D01*
X73674332Y-87246760D01*
X73683384Y-87249848D01*
X73983384Y-87349848D01*
X74020900Y-87358395D01*
X74057580Y-87370031D01*
X74085925Y-87373210D01*
X74113733Y-87379546D01*
X74152196Y-87380644D01*
X74190436Y-87384933D01*
X74200000Y-87385000D01*
X74600000Y-87385000D01*
X74638296Y-87381245D01*
X74676771Y-87380684D01*
X74704664Y-87374737D01*
X74733051Y-87371954D01*
X74769888Y-87360832D01*
X74807522Y-87352809D01*
X74816616Y-87349848D01*
X75116616Y-87249848D01*
X75135630Y-87241369D01*
X75155607Y-87235523D01*
X75196550Y-87214201D01*
X75215000Y-87205973D01*
X75215000Y-87300000D01*
X75218755Y-87338296D01*
X75219316Y-87376771D01*
X75225263Y-87404664D01*
X75228046Y-87433051D01*
X75239168Y-87469888D01*
X75247191Y-87507522D01*
X75250152Y-87516616D01*
X75350152Y-87816616D01*
X75358631Y-87835630D01*
X75364477Y-87855607D01*
X75385799Y-87896550D01*
X75404603Y-87938714D01*
X75416612Y-87955716D01*
X75426228Y-87974180D01*
X75455103Y-88010209D01*
X75481732Y-88047909D01*
X75496813Y-88062253D01*
X75509833Y-88078499D01*
X75545148Y-88108227D01*
X75578601Y-88140045D01*
X75596186Y-88151190D01*
X75612110Y-88164594D01*
X75620030Y-88169954D01*
X75920030Y-88369954D01*
X75975255Y-88399429D01*
X76030150Y-88429608D01*
X76034214Y-88430897D01*
X76037972Y-88432903D01*
X76097873Y-88451091D01*
X76157580Y-88470031D01*
X76161816Y-88470506D01*
X76165893Y-88471744D01*
X76228201Y-88477952D01*
X76290436Y-88484933D01*
X76298852Y-88484992D01*
X76298923Y-88484999D01*
X76298986Y-88484993D01*
X76300000Y-88485000D01*
X76600000Y-88485000D01*
X76648573Y-88480237D01*
X76690436Y-88484933D01*
X76695050Y-88484965D01*
X76695218Y-88484983D01*
X76695386Y-88484968D01*
X76700000Y-88485000D01*
X76875335Y-88485000D01*
X76823221Y-88537114D01*
X76671649Y-88763957D01*
X76567245Y-89016011D01*
X76514020Y-89283589D01*
X76514020Y-89556411D01*
X76567245Y-89823989D01*
X76671649Y-90076043D01*
X76823221Y-90302886D01*
X77016134Y-90495799D01*
X77242977Y-90647371D01*
X77495031Y-90751775D01*
X77635552Y-90779727D01*
X76841733Y-91573546D01*
X76821753Y-91588890D01*
X76788922Y-91626357D01*
X76780220Y-91635059D01*
X76764321Y-91654432D01*
X76723089Y-91701486D01*
X76716903Y-91712210D01*
X76709045Y-91721785D01*
X76679545Y-91776975D01*
X76648287Y-91831165D01*
X76644312Y-91842892D01*
X76638473Y-91853815D01*
X76620309Y-91913697D01*
X76600223Y-91972947D01*
X76598611Y-91985227D01*
X76595017Y-91997076D01*
X76588886Y-92059327D01*
X76585623Y-92084186D01*
X76585225Y-92096494D01*
X76580343Y-92146061D01*
X76582812Y-92171126D01*
X76510784Y-94398661D01*
X76264770Y-94400000D01*
X76106020Y-94558750D01*
X76106020Y-95758000D01*
X76126020Y-95758000D01*
X76126020Y-96012000D01*
X76106020Y-96012000D01*
X76106020Y-97211250D01*
X76264770Y-97370000D01*
X76440000Y-97370954D01*
X76440000Y-97636157D01*
X76389692Y-97699881D01*
X76276971Y-97767514D01*
X76186887Y-97834388D01*
X76086400Y-97945360D01*
X76009495Y-98073803D01*
X75997320Y-98107878D01*
X75478998Y-98626201D01*
X75450000Y-98649999D01*
X75426202Y-98678997D01*
X75426201Y-98678998D01*
X75355026Y-98765724D01*
X75284454Y-98897754D01*
X75274674Y-98929997D01*
X75240997Y-99041014D01*
X75230000Y-99152667D01*
X75230000Y-99152678D01*
X75226324Y-99190000D01*
X75230000Y-99227322D01*
X75230000Y-99910162D01*
X75048368Y-100031525D01*
X74841525Y-100238368D01*
X74725000Y-100412760D01*
X74608475Y-100238368D01*
X74401632Y-100031525D01*
X74158411Y-99869010D01*
X73888158Y-99757068D01*
X73601260Y-99700000D01*
X73308740Y-99700000D01*
X73021842Y-99757068D01*
X72751589Y-99869010D01*
X72508368Y-100031525D01*
X72301525Y-100238368D01*
X72185000Y-100412760D01*
X72068475Y-100238368D01*
X71861632Y-100031525D01*
X71618411Y-99869010D01*
X71348158Y-99757068D01*
X71061260Y-99700000D01*
X70768740Y-99700000D01*
X70481842Y-99757068D01*
X70447440Y-99771318D01*
X70447440Y-97305301D01*
X70465862Y-97312932D01*
X70752760Y-97370000D01*
X71045280Y-97370000D01*
X71332178Y-97312932D01*
X71602431Y-97200990D01*
X71845652Y-97038475D01*
X72052495Y-96831632D01*
X72169020Y-96657240D01*
X72285545Y-96831632D01*
X72492388Y-97038475D01*
X72735609Y-97200990D01*
X73005862Y-97312932D01*
X73292760Y-97370000D01*
X73585280Y-97370000D01*
X73872178Y-97312932D01*
X74142431Y-97200990D01*
X74385652Y-97038475D01*
X74517507Y-96906620D01*
X74539518Y-96979180D01*
X74598483Y-97089494D01*
X74677835Y-97186185D01*
X74774526Y-97265537D01*
X74884840Y-97324502D01*
X75004538Y-97360812D01*
X75129020Y-97373072D01*
X75693270Y-97370000D01*
X75852020Y-97211250D01*
X75852020Y-96012000D01*
X75832020Y-96012000D01*
X75832020Y-95758000D01*
X75852020Y-95758000D01*
X75852020Y-94558750D01*
X75693270Y-94400000D01*
X75129020Y-94396928D01*
X75004538Y-94409188D01*
X74884840Y-94445498D01*
X74774526Y-94504463D01*
X74677835Y-94583815D01*
X74598483Y-94680506D01*
X74539518Y-94790820D01*
X74517507Y-94863380D01*
X74385652Y-94731525D01*
X74142431Y-94569010D01*
X73872178Y-94457068D01*
X73585280Y-94400000D01*
X73292760Y-94400000D01*
X73005862Y-94457068D01*
X72735609Y-94569010D01*
X72492388Y-94731525D01*
X72285545Y-94938368D01*
X72169020Y-95112760D01*
X72052495Y-94938368D01*
X71845652Y-94731525D01*
X71602431Y-94569010D01*
X71332178Y-94457068D01*
X71045280Y-94400000D01*
X70752760Y-94400000D01*
X70465862Y-94457068D01*
X70447440Y-94464699D01*
X70447440Y-87218599D01*
X70447909Y-87218268D01*
X70462253Y-87203187D01*
X70478499Y-87190167D01*
X70508227Y-87154852D01*
X70540045Y-87121399D01*
X70551190Y-87103814D01*
X70564594Y-87087890D01*
X70569954Y-87079970D01*
X70769954Y-86779970D01*
X70781852Y-86757679D01*
X70930045Y-86979970D01*
G37*
X70930045Y-86979970D02*
X70943230Y-86996085D01*
X70954125Y-87013818D01*
X70985473Y-87047712D01*
X71014704Y-87083438D01*
X71030759Y-87096678D01*
X71044898Y-87111965D01*
X71082238Y-87139129D01*
X71117846Y-87168492D01*
X71136170Y-87178363D01*
X71153006Y-87190610D01*
X71194908Y-87210002D01*
X71235545Y-87231892D01*
X71255437Y-87238015D01*
X71274332Y-87246760D01*
X71283384Y-87249848D01*
X71583384Y-87349848D01*
X71620900Y-87358395D01*
X71657580Y-87370031D01*
X71685925Y-87373210D01*
X71713733Y-87379546D01*
X71752196Y-87380644D01*
X71790436Y-87384933D01*
X71800000Y-87385000D01*
X72200000Y-87385000D01*
X72238296Y-87381245D01*
X72276771Y-87380684D01*
X72304664Y-87374737D01*
X72333051Y-87371954D01*
X72369888Y-87360832D01*
X72407522Y-87352809D01*
X72416616Y-87349848D01*
X72716616Y-87249848D01*
X72735630Y-87241369D01*
X72755607Y-87235523D01*
X72796550Y-87214201D01*
X72838714Y-87195397D01*
X72855716Y-87183388D01*
X72874180Y-87173772D01*
X72910209Y-87144897D01*
X72947909Y-87118268D01*
X72962253Y-87103187D01*
X72978499Y-87090167D01*
X73008227Y-87054852D01*
X73040045Y-87021399D01*
X73051190Y-87003814D01*
X73064594Y-86987890D01*
X73069954Y-86979970D01*
X73200000Y-86784901D01*
X73330045Y-86979970D01*
X73343230Y-86996085D01*
X73354125Y-87013818D01*
X73385473Y-87047712D01*
X73414704Y-87083438D01*
X73430759Y-87096678D01*
X73444898Y-87111965D01*
X73482238Y-87139129D01*
X73517846Y-87168492D01*
X73536170Y-87178363D01*
X73553006Y-87190610D01*
X73594908Y-87210002D01*
X73635545Y-87231892D01*
X73655437Y-87238015D01*
X73674332Y-87246760D01*
X73683384Y-87249848D01*
X73983384Y-87349848D01*
X74020900Y-87358395D01*
X74057580Y-87370031D01*
X74085925Y-87373210D01*
X74113733Y-87379546D01*
X74152196Y-87380644D01*
X74190436Y-87384933D01*
X74200000Y-87385000D01*
X74600000Y-87385000D01*
X74638296Y-87381245D01*
X74676771Y-87380684D01*
X74704664Y-87374737D01*
X74733051Y-87371954D01*
X74769888Y-87360832D01*
X74807522Y-87352809D01*
X74816616Y-87349848D01*
X75116616Y-87249848D01*
X75135630Y-87241369D01*
X75155607Y-87235523D01*
X75196550Y-87214201D01*
X75215000Y-87205973D01*
X75215000Y-87300000D01*
X75218755Y-87338296D01*
X75219316Y-87376771D01*
X75225263Y-87404664D01*
X75228046Y-87433051D01*
X75239168Y-87469888D01*
X75247191Y-87507522D01*
X75250152Y-87516616D01*
X75350152Y-87816616D01*
X75358631Y-87835630D01*
X75364477Y-87855607D01*
X75385799Y-87896550D01*
X75404603Y-87938714D01*
X75416612Y-87955716D01*
X75426228Y-87974180D01*
X75455103Y-88010209D01*
X75481732Y-88047909D01*
X75496813Y-88062253D01*
X75509833Y-88078499D01*
X75545148Y-88108227D01*
X75578601Y-88140045D01*
X75596186Y-88151190D01*
X75612110Y-88164594D01*
X75620030Y-88169954D01*
X75920030Y-88369954D01*
X75975255Y-88399429D01*
X76030150Y-88429608D01*
X76034214Y-88430897D01*
X76037972Y-88432903D01*
X76097873Y-88451091D01*
X76157580Y-88470031D01*
X76161816Y-88470506D01*
X76165893Y-88471744D01*
X76228201Y-88477952D01*
X76290436Y-88484933D01*
X76298852Y-88484992D01*
X76298923Y-88484999D01*
X76298986Y-88484993D01*
X76300000Y-88485000D01*
X76600000Y-88485000D01*
X76648573Y-88480237D01*
X76690436Y-88484933D01*
X76695050Y-88484965D01*
X76695218Y-88484983D01*
X76695386Y-88484968D01*
X76700000Y-88485000D01*
X76875335Y-88485000D01*
X76823221Y-88537114D01*
X76671649Y-88763957D01*
X76567245Y-89016011D01*
X76514020Y-89283589D01*
X76514020Y-89556411D01*
X76567245Y-89823989D01*
X76671649Y-90076043D01*
X76823221Y-90302886D01*
X77016134Y-90495799D01*
X77242977Y-90647371D01*
X77495031Y-90751775D01*
X77635552Y-90779727D01*
X76841733Y-91573546D01*
X76821753Y-91588890D01*
X76788922Y-91626357D01*
X76780220Y-91635059D01*
X76764321Y-91654432D01*
X76723089Y-91701486D01*
X76716903Y-91712210D01*
X76709045Y-91721785D01*
X76679545Y-91776975D01*
X76648287Y-91831165D01*
X76644312Y-91842892D01*
X76638473Y-91853815D01*
X76620309Y-91913697D01*
X76600223Y-91972947D01*
X76598611Y-91985227D01*
X76595017Y-91997076D01*
X76588886Y-92059327D01*
X76585623Y-92084186D01*
X76585225Y-92096494D01*
X76580343Y-92146061D01*
X76582812Y-92171126D01*
X76510784Y-94398661D01*
X76264770Y-94400000D01*
X76106020Y-94558750D01*
X76106020Y-95758000D01*
X76126020Y-95758000D01*
X76126020Y-96012000D01*
X76106020Y-96012000D01*
X76106020Y-97211250D01*
X76264770Y-97370000D01*
X76440000Y-97370954D01*
X76440000Y-97636157D01*
X76389692Y-97699881D01*
X76276971Y-97767514D01*
X76186887Y-97834388D01*
X76086400Y-97945360D01*
X76009495Y-98073803D01*
X75997320Y-98107878D01*
X75478998Y-98626201D01*
X75450000Y-98649999D01*
X75426202Y-98678997D01*
X75426201Y-98678998D01*
X75355026Y-98765724D01*
X75284454Y-98897754D01*
X75274674Y-98929997D01*
X75240997Y-99041014D01*
X75230000Y-99152667D01*
X75230000Y-99152678D01*
X75226324Y-99190000D01*
X75230000Y-99227322D01*
X75230000Y-99910162D01*
X75048368Y-100031525D01*
X74841525Y-100238368D01*
X74725000Y-100412760D01*
X74608475Y-100238368D01*
X74401632Y-100031525D01*
X74158411Y-99869010D01*
X73888158Y-99757068D01*
X73601260Y-99700000D01*
X73308740Y-99700000D01*
X73021842Y-99757068D01*
X72751589Y-99869010D01*
X72508368Y-100031525D01*
X72301525Y-100238368D01*
X72185000Y-100412760D01*
X72068475Y-100238368D01*
X71861632Y-100031525D01*
X71618411Y-99869010D01*
X71348158Y-99757068D01*
X71061260Y-99700000D01*
X70768740Y-99700000D01*
X70481842Y-99757068D01*
X70447440Y-99771318D01*
X70447440Y-97305301D01*
X70465862Y-97312932D01*
X70752760Y-97370000D01*
X71045280Y-97370000D01*
X71332178Y-97312932D01*
X71602431Y-97200990D01*
X71845652Y-97038475D01*
X72052495Y-96831632D01*
X72169020Y-96657240D01*
X72285545Y-96831632D01*
X72492388Y-97038475D01*
X72735609Y-97200990D01*
X73005862Y-97312932D01*
X73292760Y-97370000D01*
X73585280Y-97370000D01*
X73872178Y-97312932D01*
X74142431Y-97200990D01*
X74385652Y-97038475D01*
X74517507Y-96906620D01*
X74539518Y-96979180D01*
X74598483Y-97089494D01*
X74677835Y-97186185D01*
X74774526Y-97265537D01*
X74884840Y-97324502D01*
X75004538Y-97360812D01*
X75129020Y-97373072D01*
X75693270Y-97370000D01*
X75852020Y-97211250D01*
X75852020Y-96012000D01*
X75832020Y-96012000D01*
X75832020Y-95758000D01*
X75852020Y-95758000D01*
X75852020Y-94558750D01*
X75693270Y-94400000D01*
X75129020Y-94396928D01*
X75004538Y-94409188D01*
X74884840Y-94445498D01*
X74774526Y-94504463D01*
X74677835Y-94583815D01*
X74598483Y-94680506D01*
X74539518Y-94790820D01*
X74517507Y-94863380D01*
X74385652Y-94731525D01*
X74142431Y-94569010D01*
X73872178Y-94457068D01*
X73585280Y-94400000D01*
X73292760Y-94400000D01*
X73005862Y-94457068D01*
X72735609Y-94569010D01*
X72492388Y-94731525D01*
X72285545Y-94938368D01*
X72169020Y-95112760D01*
X72052495Y-94938368D01*
X71845652Y-94731525D01*
X71602431Y-94569010D01*
X71332178Y-94457068D01*
X71045280Y-94400000D01*
X70752760Y-94400000D01*
X70465862Y-94457068D01*
X70447440Y-94464699D01*
X70447440Y-87218599D01*
X70447909Y-87218268D01*
X70462253Y-87203187D01*
X70478499Y-87190167D01*
X70508227Y-87154852D01*
X70540045Y-87121399D01*
X70551190Y-87103814D01*
X70564594Y-87087890D01*
X70569954Y-87079970D01*
X70769954Y-86779970D01*
X70781852Y-86757679D01*
X70930045Y-86979970D01*
G36*
X82680000Y-94928219D02*
G01*
X82390129Y-95218090D01*
X82375010Y-95181589D01*
X82212495Y-94938368D01*
X82005652Y-94731525D01*
X81762431Y-94569010D01*
X81492178Y-94457068D01*
X81205280Y-94400000D01*
X80912760Y-94400000D01*
X80644019Y-94453456D01*
X80644019Y-92892804D01*
X82665025Y-90871799D01*
X82680000Y-90859509D01*
X82680000Y-94928219D01*
G37*
X82680000Y-94928219D02*
X82390129Y-95218090D01*
X82375010Y-95181589D01*
X82212495Y-94938368D01*
X82005652Y-94731525D01*
X81762431Y-94569010D01*
X81492178Y-94457068D01*
X81205280Y-94400000D01*
X80912760Y-94400000D01*
X80644019Y-94453456D01*
X80644019Y-92892804D01*
X82665025Y-90871799D01*
X82680000Y-90859509D01*
X82680000Y-94928219D01*
G36*
X80117114Y-89175799D02*
G01*
X80343957Y-89327371D01*
X80596011Y-89431775D01*
X80863589Y-89485000D01*
X81310198Y-89485000D01*
X81394022Y-89568823D01*
X81394021Y-89993199D01*
X79373017Y-92014204D01*
X79344019Y-92038002D01*
X79320221Y-92067000D01*
X79320220Y-92067001D01*
X79249045Y-92153727D01*
X79178473Y-92285757D01*
X79171801Y-92307753D01*
X79135017Y-92429017D01*
X79132850Y-92451015D01*
X79120343Y-92578003D01*
X79124020Y-92615335D01*
X79124019Y-94528247D01*
X78952178Y-94457068D01*
X78665280Y-94400000D01*
X78372760Y-94400000D01*
X78085862Y-94457068D01*
X78028926Y-94480651D01*
X78093910Y-92470971D01*
X79719623Y-90845259D01*
X79748620Y-90821462D01*
X79843593Y-90705737D01*
X79914165Y-90573708D01*
X79957622Y-90430447D01*
X79968619Y-90318794D01*
X79968619Y-90318793D01*
X79972296Y-90281461D01*
X79968619Y-90244128D01*
X79968619Y-89027304D01*
X80117114Y-89175799D01*
G37*
X80117114Y-89175799D02*
X80343957Y-89327371D01*
X80596011Y-89431775D01*
X80863589Y-89485000D01*
X81310198Y-89485000D01*
X81394022Y-89568823D01*
X81394021Y-89993199D01*
X79373017Y-92014204D01*
X79344019Y-92038002D01*
X79320221Y-92067000D01*
X79320220Y-92067001D01*
X79249045Y-92153727D01*
X79178473Y-92285757D01*
X79171801Y-92307753D01*
X79135017Y-92429017D01*
X79132850Y-92451015D01*
X79120343Y-92578003D01*
X79124020Y-92615335D01*
X79124019Y-94528247D01*
X78952178Y-94457068D01*
X78665280Y-94400000D01*
X78372760Y-94400000D01*
X78085862Y-94457068D01*
X78028926Y-94480651D01*
X78093910Y-92470971D01*
X79719623Y-90845259D01*
X79748620Y-90821462D01*
X79843593Y-90705737D01*
X79914165Y-90573708D01*
X79957622Y-90430447D01*
X79968619Y-90318794D01*
X79968619Y-90318793D01*
X79972296Y-90281461D01*
X79968619Y-90244128D01*
X79968619Y-89027304D01*
X80117114Y-89175799D01*
G36*
X79905545Y-79051632D02*
G01*
X80112388Y-79258475D01*
X80355609Y-79420990D01*
X80625862Y-79532932D01*
X80912760Y-79590000D01*
X81205280Y-79590000D01*
X81425428Y-79546210D01*
X82548631Y-80669414D01*
X82548632Y-82248530D01*
X79512114Y-79212013D01*
X79672495Y-79051632D01*
X79789020Y-78877240D01*
X79905545Y-79051632D01*
G37*
X79905545Y-79051632D02*
X80112388Y-79258475D01*
X80355609Y-79420990D01*
X80625862Y-79532932D01*
X80912760Y-79590000D01*
X81205280Y-79590000D01*
X81425428Y-79546210D01*
X82548631Y-80669414D01*
X82548632Y-82248530D01*
X79512114Y-79212013D01*
X79672495Y-79051632D01*
X79789020Y-78877240D01*
X79905545Y-79051632D01*
M02*
