M48
; DRILL file {KiCad 5.1.5+dfsg1-2build2} date jeu 14 sep 2023 16:19:48
; FORMAT={-:-/ absolute / inch / decimal}
; #@! TF.CreationDate,2023-09-14T16:19:48+02:00
; #@! TF.GenerationSoftware,Kicad,Pcbnew,5.1.5+dfsg1-2build2
; #@! TF.FileFunction,Plated,1,2,PTH
FMAT,2
INCH
T1C0.0157
T2C0.0394
T3C0.0402
T4C0.0591
%
G90
G05
T1
X1.2992Y-3.6417
X1.3107Y-3.1711
X1.3921Y-3.6965
X1.4065Y-3.1711
X1.4807Y-3.6965
X1.4965Y-3.1711
X1.5889Y-3.6965
X1.5964Y-3.1592
X1.6972Y-3.6965
X1.7022Y-3.1592
X1.7956Y-3.6965
X1.7981Y-3.1592
X1.8941Y-3.6965
X1.9685Y-3.6457
X1.9925Y-3.6965
X2.0909Y-3.6965
X2.1321Y-3.1632
X2.145Y-3.5557
X2.1506Y-3.3423
X2.1506Y-3.3923
X2.1506Y-3.4423
X2.1506Y-3.4923
X2.1959Y-3.6437
X2.1959Y-3.6998
X2.2403Y-3.1632
X2.2433Y-3.296
X2.2874Y-3.5866
X2.2878Y-3.6965
X2.3289Y-3.1632
X2.3455Y-3.3923
X2.3862Y-3.6965
X2.4944Y-3.6965
X2.5929Y-3.6965
X2.6124Y-3.1652
X2.6815Y-3.6965
X2.7854Y-3.6713
X2.7951Y-3.1652
X3.0906Y-3.6811
X3.1988Y-3.6811
X3.2185Y-3.1791
T2
X1.2919Y-3.9837
X1.2919Y-4.0837
X1.3919Y-3.9837
X1.3919Y-4.0837
X1.4919Y-3.9837
X1.4919Y-4.0837
X1.5919Y-3.9837
X1.5919Y-4.0837
X1.6919Y-3.9837
X1.6919Y-4.0837
X1.7919Y-3.9837
X1.7919Y-4.0837
X1.8919Y-3.9837
X1.8919Y-4.0837
X1.9919Y-3.9837
X1.9919Y-4.0837
X2.0919Y-3.9837
X2.0919Y-4.0837
X2.1919Y-3.9837
X2.1919Y-4.0837
X2.2919Y-3.9837
X2.2919Y-4.0837
X2.3919Y-3.9837
X2.3919Y-4.0837
X2.4919Y-3.9837
X2.4919Y-4.0837
X2.5919Y-3.9837
X2.5919Y-4.0837
X2.6919Y-3.9837
X2.6919Y-4.0837
X2.7919Y-3.9837
X2.7919Y-4.0837
X2.8919Y-3.9837
X2.8919Y-4.0837
X2.9919Y-3.9837
X2.9919Y-4.0837
X3.0919Y-3.9837
X3.0919Y-4.0837
X3.1919Y-3.9837
X3.1919Y-4.0837
T3
X1.2913Y-3.075
X1.2913Y-3.775
X1.3004Y-3.325
X1.3004Y-3.425
X1.3004Y-3.525
X1.3913Y-3.075
X1.3913Y-3.775
X1.4913Y-3.075
X1.4913Y-3.775
X1.5913Y-3.075
X1.5913Y-3.775
X1.6913Y-3.075
X1.6913Y-3.775
X1.7913Y-3.075
X1.7913Y-3.775
X1.8913Y-3.075
X1.8913Y-3.775
X1.9913Y-3.075
X1.9913Y-3.775
X2.0913Y-3.075
X2.0913Y-3.775
X2.1913Y-3.075
X2.1913Y-3.775
X2.2913Y-3.075
X2.2913Y-3.775
X2.3913Y-3.075
X2.3913Y-3.775
X2.4913Y-3.075
X2.4913Y-3.775
X2.5913Y-3.075
X2.5913Y-3.775
X2.6913Y-3.075
X2.6913Y-3.775
X2.7913Y-3.075
X2.7913Y-3.775
X2.8913Y-3.075
X2.8913Y-3.775
X2.9913Y-3.075
X2.9913Y-3.775
X3.0913Y-3.075
X3.0913Y-3.775
X3.1913Y-3.075
X3.1913Y-3.775
T4
X2.8346Y-3.3307
X3.189Y-3.4685
X2.9291Y-3.3307
X2.7362Y-3.3346
X3.0709Y-3.4291
X3.189Y-3.3858
T0
M30
