M48
; DRILL file {KiCad 9.0.1} date 2026-01-26T16:19:27+0100
; FORMAT={-:-/ absolute / metric / decimal}
; #@! TF.CreationDate,2026-01-26T16:19:27+01:00
; #@! TF.GenerationSoftware,Kicad,Pcbnew,9.0.1
; #@! TF.FileFunction,Plated,1,2,PTH
FMAT,2
METRIC
; #@! TA.AperFunction,Plated,PTH,ComponentDrill
T1C0.800
%
G90
G05
T1
X51.0Y-37.8
X51.0Y-136.0
X52.4Y-37.8
X52.4Y-136.0
X53.8Y-37.8
X53.8Y-136.0
X82.6Y-37.7
X82.6Y-135.7
X84.0Y-37.7
X84.0Y-135.7
X85.4Y-37.7
X85.4Y-135.7
X112.7Y-37.5
X112.7Y-135.7
X114.1Y-37.5
X114.1Y-135.7
X115.5Y-37.5
X115.5Y-135.7
X141.3Y-37.5
X141.3Y-135.7
X142.7Y-37.5
X142.7Y-135.7
X144.1Y-37.5
X144.1Y-135.7
X165.4Y-109.3
X165.4Y-110.7
X165.4Y-112.1
X165.5Y-60.9
X165.5Y-62.3
X165.5Y-63.7
M30
