%TF.GenerationSoftware,KiCad,Pcbnew,9.0.1*%
%TF.CreationDate,2026-01-26T16:19:30+01:00*%
%TF.ProjectId,top,746f702e-6b69-4636-9164-5f7063625858,rev?*%
%TF.SameCoordinates,Original*%
%TF.FileFunction,Profile,NP*%
%FSLAX46Y46*%
G04 Gerber Fmt 4.6, Leading zero omitted, Abs format (unit mm)*
G04 Created by KiCad (PCBNEW 9.0.1) date 2026-01-26 16:19:30*
%MOMM*%
%LPD*%
G01*
G04 APERTURE LIST*
%TA.AperFunction,Profile*%
%ADD10C,0.050000*%
%TD*%
G04 APERTURE END LIST*
D10*
X61900000Y-139500000D02*
X61900000Y-137900000D01*
X167700000Y-104000000D02*
X167700000Y-106000000D01*
X49300000Y-48800000D02*
X49300000Y-34100000D01*
X124300000Y-137900000D02*
X124600000Y-137600000D01*
X167700000Y-116000000D02*
X167400000Y-115700000D01*
X122300000Y-139500000D02*
X105800000Y-139500000D01*
X122300000Y-35700000D02*
X122300000Y-34100000D01*
X105800000Y-137900000D02*
X103800000Y-137900000D01*
X154343146Y-116843100D02*
X154300000Y-56800000D01*
X105800000Y-137900000D02*
X105800000Y-139500000D01*
X146343146Y-124843146D02*
X49300000Y-124800000D01*
X134000000Y-36000000D02*
X124600000Y-36000000D01*
X136300000Y-137900000D02*
X134300000Y-137900000D01*
X134300000Y-35700000D02*
X134000000Y-36000000D01*
X63900000Y-35700000D02*
X64200000Y-36000000D01*
X105800000Y-34100000D02*
X105800000Y-35700000D01*
X146300000Y-48800000D02*
X49300000Y-48800000D01*
X73600000Y-36000000D02*
X64200000Y-36000000D01*
X169300000Y-130500000D02*
X146300000Y-139500000D01*
X91800000Y-137900000D02*
X93800000Y-137900000D01*
X169300000Y-55600000D02*
X167700000Y-55600000D01*
X124300000Y-35700000D02*
X124600000Y-36000000D01*
X122300000Y-35700000D02*
X124300000Y-35700000D01*
X103800000Y-137900000D02*
X103500000Y-137600000D01*
X169300000Y-104000000D02*
X167700000Y-104000000D01*
X91800000Y-34100000D02*
X75900000Y-34100000D01*
X122300000Y-139500000D02*
X122300000Y-137900000D01*
X154343146Y-116843146D02*
G75*
G02*
X146343146Y-124843146I-7999996J-4D01*
G01*
X169300000Y-118000000D02*
X169300000Y-130500000D01*
X103500000Y-36000000D02*
X94100000Y-36000000D01*
X105800000Y-35700000D02*
X103800000Y-35700000D01*
X167700000Y-118000000D02*
X169300000Y-118000000D01*
X167700000Y-69600000D02*
X167700000Y-67600000D01*
X91800000Y-35700000D02*
X93800000Y-35700000D01*
X167700000Y-57600000D02*
X167400000Y-57900000D01*
X146300000Y-34100000D02*
X136300000Y-34100000D01*
X146300000Y-139500000D02*
X136300000Y-139500000D01*
X91800000Y-139500000D02*
X91800000Y-137900000D01*
X64200000Y-137600000D02*
X73600000Y-137600000D01*
X75900000Y-35700000D02*
X73900000Y-35700000D01*
X167400000Y-106300000D02*
X167400000Y-115700000D01*
X61900000Y-139500000D02*
X49300000Y-139500000D01*
X75900000Y-34100000D02*
X75900000Y-35700000D01*
X91800000Y-35700000D02*
X91800000Y-34100000D01*
X167700000Y-118000000D02*
X167700000Y-116000000D01*
X75900000Y-137900000D02*
X73900000Y-137900000D01*
X49300000Y-124800000D02*
X49300000Y-139500000D01*
X103800000Y-35700000D02*
X103500000Y-36000000D01*
X167700000Y-67600000D02*
X167400000Y-67300000D01*
X75900000Y-137900000D02*
X75900000Y-139500000D01*
X136300000Y-34100000D02*
X136300000Y-35700000D01*
X136300000Y-137900000D02*
X136300000Y-139500000D01*
X136300000Y-35700000D02*
X134300000Y-35700000D01*
X169300000Y-104000000D02*
X169300000Y-69600000D01*
X94100000Y-137600000D02*
X103500000Y-137600000D01*
X167700000Y-69600000D02*
X169300000Y-69600000D01*
X61900000Y-35700000D02*
X63900000Y-35700000D01*
X61900000Y-34100000D02*
X49300000Y-34100000D01*
X61900000Y-137900000D02*
X63900000Y-137900000D01*
X91800000Y-139500000D02*
X75900000Y-139500000D01*
X93800000Y-137900000D02*
X94100000Y-137600000D01*
X63900000Y-137900000D02*
X64200000Y-137600000D01*
X167700000Y-55600000D02*
X167700000Y-57600000D01*
X61900000Y-35700000D02*
X61900000Y-34100000D01*
X122300000Y-137900000D02*
X124300000Y-137900000D01*
X169300000Y-55600000D02*
X169300000Y-43100000D01*
X167700000Y-106000000D02*
X167400000Y-106300000D01*
X146300000Y-48800000D02*
G75*
G02*
X154300000Y-56800000I0J-8000000D01*
G01*
X93800000Y-35700000D02*
X94100000Y-36000000D01*
X169300000Y-43100000D02*
X146300000Y-34100000D01*
X122300000Y-34100000D02*
X105800000Y-34100000D01*
X73900000Y-35700000D02*
X73600000Y-36000000D01*
X73900000Y-137900000D02*
X73600000Y-137600000D01*
X134300000Y-137900000D02*
X134000000Y-137600000D01*
X124600000Y-137600000D02*
X134000000Y-137600000D01*
X167400000Y-57900000D02*
X167400000Y-67300000D01*
M02*
