%TF.GenerationSoftware,KiCad,Pcbnew,6.0.11*%
%TF.CreationDate,2024-12-01T18:54:20+01:00*%
%TF.ProjectId,MP6532_board_adapter,4d503635-3332-45f6-926f-6172645f6164,rev?*%
%TF.SameCoordinates,Original*%
%TF.FileFunction,Legend,Bot*%
%TF.FilePolarity,Positive*%
%FSLAX46Y46*%
G04 Gerber Fmt 4.6, Leading zero omitted, Abs format (unit mm)*
G04 Created by KiCad (PCBNEW 6.0.11) date 2024-12-01 18:54:20*
%MOMM*%
%LPD*%
G01*
G04 APERTURE LIST*
%ADD10C,0.150000*%
G04 APERTURE END LIST*
D10*
X35909047Y-39633361D02*
X36366190Y-39633361D01*
X36137619Y-39633361D02*
X36137619Y-38053361D01*
X36213809Y-38279076D01*
X36290000Y-38429552D01*
X36366190Y-38504790D01*
X35185238Y-38053361D02*
X35566190Y-38053361D01*
X35604285Y-38805742D01*
X35566190Y-38730504D01*
X35490000Y-38655266D01*
X35299523Y-38655266D01*
X35223333Y-38730504D01*
X35185238Y-38805742D01*
X35147142Y-38956219D01*
X35147142Y-39332409D01*
X35185238Y-39482885D01*
X35223333Y-39558123D01*
X35299523Y-39633361D01*
X35490000Y-39633361D01*
X35566190Y-39558123D01*
X35604285Y-39482885D01*
X33775714Y-39633361D02*
X34232857Y-39633361D01*
X34004285Y-39633361D02*
X34004285Y-38053361D01*
X34080476Y-38279076D01*
X34156666Y-38429552D01*
X34232857Y-38504790D01*
X33090000Y-38053361D02*
X33242380Y-38053361D01*
X33318571Y-38128600D01*
X33356666Y-38203838D01*
X33432857Y-38429552D01*
X33470952Y-38730504D01*
X33470952Y-39332409D01*
X33432857Y-39482885D01*
X33394761Y-39558123D01*
X33318571Y-39633361D01*
X33166190Y-39633361D01*
X33090000Y-39558123D01*
X33051904Y-39482885D01*
X33013809Y-39332409D01*
X33013809Y-38956219D01*
X33051904Y-38805742D01*
X33090000Y-38730504D01*
X33166190Y-38655266D01*
X33318571Y-38655266D01*
X33394761Y-38730504D01*
X33432857Y-38805742D01*
X33470952Y-38956219D01*
X35909047Y-42177161D02*
X36366190Y-42177161D01*
X36137619Y-42177161D02*
X36137619Y-40597161D01*
X36213809Y-40822876D01*
X36290000Y-40973352D01*
X36366190Y-41048590D01*
X35642380Y-40597161D02*
X35109047Y-40597161D01*
X35451904Y-42177161D01*
X33775714Y-42177161D02*
X34232857Y-42177161D01*
X34004285Y-42177161D02*
X34004285Y-40597161D01*
X34080476Y-40822876D01*
X34156666Y-40973352D01*
X34232857Y-41048590D01*
X33318571Y-41274304D02*
X33394761Y-41199066D01*
X33432857Y-41123828D01*
X33470952Y-40973352D01*
X33470952Y-40898114D01*
X33432857Y-40747638D01*
X33394761Y-40672400D01*
X33318571Y-40597161D01*
X33166190Y-40597161D01*
X33090000Y-40672400D01*
X33051904Y-40747638D01*
X33013809Y-40898114D01*
X33013809Y-40973352D01*
X33051904Y-41123828D01*
X33090000Y-41199066D01*
X33166190Y-41274304D01*
X33318571Y-41274304D01*
X33394761Y-41349542D01*
X33432857Y-41424780D01*
X33470952Y-41575257D01*
X33470952Y-41876209D01*
X33432857Y-42026685D01*
X33394761Y-42101923D01*
X33318571Y-42177161D01*
X33166190Y-42177161D01*
X33090000Y-42101923D01*
X33051904Y-42026685D01*
X33013809Y-41876209D01*
X33013809Y-41575257D01*
X33051904Y-41424780D01*
X33090000Y-41349542D01*
X33166190Y-41274304D01*
X35909047Y-44720961D02*
X36366190Y-44720961D01*
X36137619Y-44720961D02*
X36137619Y-43140961D01*
X36213809Y-43366676D01*
X36290000Y-43517152D01*
X36366190Y-43592390D01*
X35528095Y-44720961D02*
X35375714Y-44720961D01*
X35299523Y-44645723D01*
X35261428Y-44570485D01*
X35185238Y-44344771D01*
X35147142Y-44043819D01*
X35147142Y-43441914D01*
X35185238Y-43291438D01*
X35223333Y-43216200D01*
X35299523Y-43140961D01*
X35451904Y-43140961D01*
X35528095Y-43216200D01*
X35566190Y-43291438D01*
X35604285Y-43441914D01*
X35604285Y-43818104D01*
X35566190Y-43968580D01*
X35528095Y-44043819D01*
X35451904Y-44119057D01*
X35299523Y-44119057D01*
X35223333Y-44043819D01*
X35185238Y-43968580D01*
X35147142Y-43818104D01*
X34232857Y-43291438D02*
X34194761Y-43216200D01*
X34118571Y-43140961D01*
X33928095Y-43140961D01*
X33851904Y-43216200D01*
X33813809Y-43291438D01*
X33775714Y-43441914D01*
X33775714Y-43592390D01*
X33813809Y-43818104D01*
X34270952Y-44720961D01*
X33775714Y-44720961D01*
X33280476Y-43140961D02*
X33204285Y-43140961D01*
X33128095Y-43216200D01*
X33090000Y-43291438D01*
X33051904Y-43441914D01*
X33013809Y-43742866D01*
X33013809Y-44119057D01*
X33051904Y-44420009D01*
X33090000Y-44570485D01*
X33128095Y-44645723D01*
X33204285Y-44720961D01*
X33280476Y-44720961D01*
X33356666Y-44645723D01*
X33394761Y-44570485D01*
X33432857Y-44420009D01*
X33470952Y-44119057D01*
X33470952Y-43742866D01*
X33432857Y-43441914D01*
X33394761Y-43291438D01*
X33356666Y-43216200D01*
X33280476Y-43140961D01*
X36366190Y-45835238D02*
X36328095Y-45760000D01*
X36251904Y-45684761D01*
X36061428Y-45684761D01*
X35985238Y-45760000D01*
X35947142Y-45835238D01*
X35909047Y-45985714D01*
X35909047Y-46136190D01*
X35947142Y-46361904D01*
X36404285Y-47264761D01*
X35909047Y-47264761D01*
X35147142Y-47264761D02*
X35604285Y-47264761D01*
X35375714Y-47264761D02*
X35375714Y-45684761D01*
X35451904Y-45910476D01*
X35528095Y-46060952D01*
X35604285Y-46136190D01*
X34232857Y-45835238D02*
X34194761Y-45760000D01*
X34118571Y-45684761D01*
X33928095Y-45684761D01*
X33851904Y-45760000D01*
X33813809Y-45835238D01*
X33775714Y-45985714D01*
X33775714Y-46136190D01*
X33813809Y-46361904D01*
X34270952Y-47264761D01*
X33775714Y-47264761D01*
X33470952Y-45835238D02*
X33432857Y-45760000D01*
X33356666Y-45684761D01*
X33166190Y-45684761D01*
X33090000Y-45760000D01*
X33051904Y-45835238D01*
X33013809Y-45985714D01*
X33013809Y-46136190D01*
X33051904Y-46361904D01*
X33509047Y-47264761D01*
X33013809Y-47264761D01*
X36366190Y-48379038D02*
X36328095Y-48303800D01*
X36251904Y-48228561D01*
X36061428Y-48228561D01*
X35985238Y-48303800D01*
X35947142Y-48379038D01*
X35909047Y-48529514D01*
X35909047Y-48679990D01*
X35947142Y-48905704D01*
X36404285Y-49808561D01*
X35909047Y-49808561D01*
X35642380Y-48228561D02*
X35147142Y-48228561D01*
X35413809Y-48830466D01*
X35299523Y-48830466D01*
X35223333Y-48905704D01*
X35185238Y-48980942D01*
X35147142Y-49131419D01*
X35147142Y-49507609D01*
X35185238Y-49658085D01*
X35223333Y-49733323D01*
X35299523Y-49808561D01*
X35528095Y-49808561D01*
X35604285Y-49733323D01*
X35642380Y-49658085D01*
X34232857Y-48379038D02*
X34194761Y-48303800D01*
X34118571Y-48228561D01*
X33928095Y-48228561D01*
X33851904Y-48303800D01*
X33813809Y-48379038D01*
X33775714Y-48529514D01*
X33775714Y-48679990D01*
X33813809Y-48905704D01*
X34270952Y-49808561D01*
X33775714Y-49808561D01*
X33090000Y-48755228D02*
X33090000Y-49808561D01*
X33280476Y-48153323D02*
X33470952Y-49281895D01*
X32975714Y-49281895D01*
X36366190Y-50922838D02*
X36328095Y-50847600D01*
X36251904Y-50772361D01*
X36061428Y-50772361D01*
X35985238Y-50847600D01*
X35947142Y-50922838D01*
X35909047Y-51073314D01*
X35909047Y-51223790D01*
X35947142Y-51449504D01*
X36404285Y-52352361D01*
X35909047Y-52352361D01*
X35185238Y-50772361D02*
X35566190Y-50772361D01*
X35604285Y-51524742D01*
X35566190Y-51449504D01*
X35490000Y-51374266D01*
X35299523Y-51374266D01*
X35223333Y-51449504D01*
X35185238Y-51524742D01*
X35147142Y-51675219D01*
X35147142Y-52051409D01*
X35185238Y-52201885D01*
X35223333Y-52277123D01*
X35299523Y-52352361D01*
X35490000Y-52352361D01*
X35566190Y-52277123D01*
X35604285Y-52201885D01*
X34232857Y-50922838D02*
X34194761Y-50847600D01*
X34118571Y-50772361D01*
X33928095Y-50772361D01*
X33851904Y-50847600D01*
X33813809Y-50922838D01*
X33775714Y-51073314D01*
X33775714Y-51223790D01*
X33813809Y-51449504D01*
X34270952Y-52352361D01*
X33775714Y-52352361D01*
X33090000Y-50772361D02*
X33242380Y-50772361D01*
X33318571Y-50847600D01*
X33356666Y-50922838D01*
X33432857Y-51148552D01*
X33470952Y-51449504D01*
X33470952Y-52051409D01*
X33432857Y-52201885D01*
X33394761Y-52277123D01*
X33318571Y-52352361D01*
X33166190Y-52352361D01*
X33090000Y-52277123D01*
X33051904Y-52201885D01*
X33013809Y-52051409D01*
X33013809Y-51675219D01*
X33051904Y-51524742D01*
X33090000Y-51449504D01*
X33166190Y-51374266D01*
X33318571Y-51374266D01*
X33394761Y-51449504D01*
X33432857Y-51524742D01*
X33470952Y-51675219D01*
X36366190Y-53466638D02*
X36328095Y-53391400D01*
X36251904Y-53316161D01*
X36061428Y-53316161D01*
X35985238Y-53391400D01*
X35947142Y-53466638D01*
X35909047Y-53617114D01*
X35909047Y-53767590D01*
X35947142Y-53993304D01*
X36404285Y-54896161D01*
X35909047Y-54896161D01*
X35642380Y-53316161D02*
X35109047Y-53316161D01*
X35451904Y-54896161D01*
X34232857Y-53466638D02*
X34194761Y-53391400D01*
X34118571Y-53316161D01*
X33928095Y-53316161D01*
X33851904Y-53391400D01*
X33813809Y-53466638D01*
X33775714Y-53617114D01*
X33775714Y-53767590D01*
X33813809Y-53993304D01*
X34270952Y-54896161D01*
X33775714Y-54896161D01*
X33318571Y-53993304D02*
X33394761Y-53918066D01*
X33432857Y-53842828D01*
X33470952Y-53692352D01*
X33470952Y-53617114D01*
X33432857Y-53466638D01*
X33394761Y-53391400D01*
X33318571Y-53316161D01*
X33166190Y-53316161D01*
X33090000Y-53391400D01*
X33051904Y-53466638D01*
X33013809Y-53617114D01*
X33013809Y-53692352D01*
X33051904Y-53842828D01*
X33090000Y-53918066D01*
X33166190Y-53993304D01*
X33318571Y-53993304D01*
X33394761Y-54068542D01*
X33432857Y-54143780D01*
X33470952Y-54294257D01*
X33470952Y-54595209D01*
X33432857Y-54745685D01*
X33394761Y-54820923D01*
X33318571Y-54896161D01*
X33166190Y-54896161D01*
X33090000Y-54820923D01*
X33051904Y-54745685D01*
X33013809Y-54595209D01*
X33013809Y-54294257D01*
X33051904Y-54143780D01*
X33090000Y-54068542D01*
X33166190Y-53993304D01*
X42489047Y-39633361D02*
X42946190Y-39633361D01*
X42717619Y-39633361D02*
X42717619Y-38053361D01*
X42793809Y-38279076D01*
X42870000Y-38429552D01*
X42946190Y-38504790D01*
X42222380Y-38053361D02*
X41727142Y-38053361D01*
X41993809Y-38655266D01*
X41879523Y-38655266D01*
X41803333Y-38730504D01*
X41765238Y-38805742D01*
X41727142Y-38956219D01*
X41727142Y-39332409D01*
X41765238Y-39482885D01*
X41803333Y-39558123D01*
X41879523Y-39633361D01*
X42108095Y-39633361D01*
X42184285Y-39558123D01*
X42222380Y-39482885D01*
X40355714Y-39633361D02*
X40812857Y-39633361D01*
X40584285Y-39633361D02*
X40584285Y-38053361D01*
X40660476Y-38279076D01*
X40736666Y-38429552D01*
X40812857Y-38504790D01*
X39670000Y-38580028D02*
X39670000Y-39633361D01*
X39860476Y-37978123D02*
X40050952Y-39106695D01*
X39555714Y-39106695D01*
X42489047Y-42177161D02*
X42946190Y-42177161D01*
X42717619Y-42177161D02*
X42717619Y-40597161D01*
X42793809Y-40822876D01*
X42870000Y-40973352D01*
X42946190Y-41048590D01*
X41727142Y-42177161D02*
X42184285Y-42177161D01*
X41955714Y-42177161D02*
X41955714Y-40597161D01*
X42031904Y-40822876D01*
X42108095Y-40973352D01*
X42184285Y-41048590D01*
X40355714Y-42177161D02*
X40812857Y-42177161D01*
X40584285Y-42177161D02*
X40584285Y-40597161D01*
X40660476Y-40822876D01*
X40736666Y-40973352D01*
X40812857Y-41048590D01*
X40050952Y-40747638D02*
X40012857Y-40672400D01*
X39936666Y-40597161D01*
X39746190Y-40597161D01*
X39670000Y-40672400D01*
X39631904Y-40747638D01*
X39593809Y-40898114D01*
X39593809Y-41048590D01*
X39631904Y-41274304D01*
X40089047Y-42177161D01*
X39593809Y-42177161D01*
X42184285Y-44720961D02*
X42031904Y-44720961D01*
X41955714Y-44645723D01*
X41917619Y-44570485D01*
X41841428Y-44344771D01*
X41803333Y-44043819D01*
X41803333Y-43441914D01*
X41841428Y-43291438D01*
X41879523Y-43216200D01*
X41955714Y-43140961D01*
X42108095Y-43140961D01*
X42184285Y-43216200D01*
X42222380Y-43291438D01*
X42260476Y-43441914D01*
X42260476Y-43818104D01*
X42222380Y-43968580D01*
X42184285Y-44043819D01*
X42108095Y-44119057D01*
X41955714Y-44119057D01*
X41879523Y-44043819D01*
X41841428Y-43968580D01*
X41803333Y-43818104D01*
X40431904Y-44720961D02*
X40889047Y-44720961D01*
X40660476Y-44720961D02*
X40660476Y-43140961D01*
X40736666Y-43366676D01*
X40812857Y-43517152D01*
X40889047Y-43592390D01*
X39936666Y-43140961D02*
X39860476Y-43140961D01*
X39784285Y-43216200D01*
X39746190Y-43291438D01*
X39708095Y-43441914D01*
X39670000Y-43742866D01*
X39670000Y-44119057D01*
X39708095Y-44420009D01*
X39746190Y-44570485D01*
X39784285Y-44645723D01*
X39860476Y-44720961D01*
X39936666Y-44720961D01*
X40012857Y-44645723D01*
X40050952Y-44570485D01*
X40089047Y-44420009D01*
X40127142Y-44119057D01*
X40127142Y-43742866D01*
X40089047Y-43441914D01*
X40050952Y-43291438D01*
X40012857Y-43216200D01*
X39936666Y-43140961D01*
X42222380Y-45684761D02*
X41689047Y-45684761D01*
X42031904Y-47264761D01*
X40050952Y-46361904D02*
X40127142Y-46286666D01*
X40165238Y-46211428D01*
X40203333Y-46060952D01*
X40203333Y-45985714D01*
X40165238Y-45835238D01*
X40127142Y-45760000D01*
X40050952Y-45684761D01*
X39898571Y-45684761D01*
X39822380Y-45760000D01*
X39784285Y-45835238D01*
X39746190Y-45985714D01*
X39746190Y-46060952D01*
X39784285Y-46211428D01*
X39822380Y-46286666D01*
X39898571Y-46361904D01*
X40050952Y-46361904D01*
X40127142Y-46437142D01*
X40165238Y-46512380D01*
X40203333Y-46662857D01*
X40203333Y-46963809D01*
X40165238Y-47114285D01*
X40127142Y-47189523D01*
X40050952Y-47264761D01*
X39898571Y-47264761D01*
X39822380Y-47189523D01*
X39784285Y-47114285D01*
X39746190Y-46963809D01*
X39746190Y-46662857D01*
X39784285Y-46512380D01*
X39822380Y-46437142D01*
X39898571Y-46361904D01*
X41765238Y-48228561D02*
X42146190Y-48228561D01*
X42184285Y-48980942D01*
X42146190Y-48905704D01*
X42070000Y-48830466D01*
X41879523Y-48830466D01*
X41803333Y-48905704D01*
X41765238Y-48980942D01*
X41727142Y-49131419D01*
X41727142Y-49507609D01*
X41765238Y-49658085D01*
X41803333Y-49733323D01*
X41879523Y-49808561D01*
X42070000Y-49808561D01*
X42146190Y-49733323D01*
X42184285Y-49658085D01*
X39822380Y-48228561D02*
X39974761Y-48228561D01*
X40050952Y-48303800D01*
X40089047Y-48379038D01*
X40165238Y-48604752D01*
X40203333Y-48905704D01*
X40203333Y-49507609D01*
X40165238Y-49658085D01*
X40127142Y-49733323D01*
X40050952Y-49808561D01*
X39898571Y-49808561D01*
X39822380Y-49733323D01*
X39784285Y-49658085D01*
X39746190Y-49507609D01*
X39746190Y-49131419D01*
X39784285Y-48980942D01*
X39822380Y-48905704D01*
X39898571Y-48830466D01*
X40050952Y-48830466D01*
X40127142Y-48905704D01*
X40165238Y-48980942D01*
X40203333Y-49131419D01*
X42222380Y-50772361D02*
X41727142Y-50772361D01*
X41993809Y-51374266D01*
X41879523Y-51374266D01*
X41803333Y-51449504D01*
X41765238Y-51524742D01*
X41727142Y-51675219D01*
X41727142Y-52051409D01*
X41765238Y-52201885D01*
X41803333Y-52277123D01*
X41879523Y-52352361D01*
X42108095Y-52352361D01*
X42184285Y-52277123D01*
X42222380Y-52201885D01*
X39822380Y-51299028D02*
X39822380Y-52352361D01*
X40012857Y-50697123D02*
X40203333Y-51825695D01*
X39708095Y-51825695D01*
X41727142Y-54896161D02*
X42184285Y-54896161D01*
X41955714Y-54896161D02*
X41955714Y-53316161D01*
X42031904Y-53541876D01*
X42108095Y-53692352D01*
X42184285Y-53767590D01*
X40203333Y-53466638D02*
X40165238Y-53391400D01*
X40089047Y-53316161D01*
X39898571Y-53316161D01*
X39822380Y-53391400D01*
X39784285Y-53466638D01*
X39746190Y-53617114D01*
X39746190Y-53767590D01*
X39784285Y-53993304D01*
X40241428Y-54896161D01*
X39746190Y-54896161D01*
X49540000Y-41640000D02*
X100040000Y-41640000D01*
X49570000Y-51460000D02*
X100070000Y-51460000D01*
X50445328Y-40531428D02*
X51498661Y-40531428D01*
X49843423Y-40340952D02*
X50971995Y-40150476D01*
X50971995Y-40645714D01*
X49918661Y-41102857D02*
X49918661Y-41179047D01*
X49993900Y-41255238D01*
X50069138Y-41293333D01*
X50219614Y-41331428D01*
X50520566Y-41369523D01*
X50896757Y-41369523D01*
X51197709Y-41331428D01*
X51348185Y-41293333D01*
X51423423Y-41255238D01*
X51498661Y-41179047D01*
X51498661Y-41102857D01*
X51423423Y-41026666D01*
X51348185Y-40988571D01*
X51197709Y-40950476D01*
X50896757Y-40912380D01*
X50520566Y-40912380D01*
X50219614Y-40950476D01*
X50069138Y-40988571D01*
X49993900Y-41026666D01*
X49918661Y-41102857D01*
X52462461Y-40112380D02*
X52462461Y-40607619D01*
X53064366Y-40340952D01*
X53064366Y-40455238D01*
X53139604Y-40531428D01*
X53214842Y-40569523D01*
X53365319Y-40607619D01*
X53741509Y-40607619D01*
X53891985Y-40569523D01*
X53967223Y-40531428D01*
X54042461Y-40455238D01*
X54042461Y-40226666D01*
X53967223Y-40150476D01*
X53891985Y-40112380D01*
X54042461Y-40988571D02*
X54042461Y-41140952D01*
X53967223Y-41217142D01*
X53891985Y-41255238D01*
X53666271Y-41331428D01*
X53365319Y-41369523D01*
X52763414Y-41369523D01*
X52612938Y-41331428D01*
X52537700Y-41293333D01*
X52462461Y-41217142D01*
X52462461Y-41064761D01*
X52537700Y-40988571D01*
X52612938Y-40950476D01*
X52763414Y-40912380D01*
X53139604Y-40912380D01*
X53290080Y-40950476D01*
X53365319Y-40988571D01*
X53440557Y-41064761D01*
X53440557Y-41217142D01*
X53365319Y-41293333D01*
X53290080Y-41331428D01*
X53139604Y-41369523D01*
X55006261Y-40112380D02*
X55006261Y-40607619D01*
X55608166Y-40340952D01*
X55608166Y-40455238D01*
X55683404Y-40531428D01*
X55758642Y-40569523D01*
X55909119Y-40607619D01*
X56285309Y-40607619D01*
X56435785Y-40569523D01*
X56511023Y-40531428D01*
X56586261Y-40455238D01*
X56586261Y-40226666D01*
X56511023Y-40150476D01*
X56435785Y-40112380D01*
X55683404Y-41064761D02*
X55608166Y-40988571D01*
X55532928Y-40950476D01*
X55382452Y-40912380D01*
X55307214Y-40912380D01*
X55156738Y-40950476D01*
X55081500Y-40988571D01*
X55006261Y-41064761D01*
X55006261Y-41217142D01*
X55081500Y-41293333D01*
X55156738Y-41331428D01*
X55307214Y-41369523D01*
X55382452Y-41369523D01*
X55532928Y-41331428D01*
X55608166Y-41293333D01*
X55683404Y-41217142D01*
X55683404Y-41064761D01*
X55758642Y-40988571D01*
X55833880Y-40950476D01*
X55984357Y-40912380D01*
X56285309Y-40912380D01*
X56435785Y-40950476D01*
X56511023Y-40988571D01*
X56586261Y-41064761D01*
X56586261Y-41217142D01*
X56511023Y-41293333D01*
X56435785Y-41331428D01*
X56285309Y-41369523D01*
X55984357Y-41369523D01*
X55833880Y-41331428D01*
X55758642Y-41293333D01*
X55683404Y-41217142D01*
X57550061Y-40112380D02*
X57550061Y-40607619D01*
X58151966Y-40340952D01*
X58151966Y-40455238D01*
X58227204Y-40531428D01*
X58302442Y-40569523D01*
X58452919Y-40607619D01*
X58829109Y-40607619D01*
X58979585Y-40569523D01*
X59054823Y-40531428D01*
X59130061Y-40455238D01*
X59130061Y-40226666D01*
X59054823Y-40150476D01*
X58979585Y-40112380D01*
X57550061Y-40874285D02*
X57550061Y-41407619D01*
X59130061Y-41064761D01*
X60093861Y-40112380D02*
X60093861Y-40607619D01*
X60695766Y-40340952D01*
X60695766Y-40455238D01*
X60771004Y-40531428D01*
X60846242Y-40569523D01*
X60996719Y-40607619D01*
X61372909Y-40607619D01*
X61523385Y-40569523D01*
X61598623Y-40531428D01*
X61673861Y-40455238D01*
X61673861Y-40226666D01*
X61598623Y-40150476D01*
X61523385Y-40112380D01*
X60093861Y-41293333D02*
X60093861Y-41140952D01*
X60169100Y-41064761D01*
X60244338Y-41026666D01*
X60470052Y-40950476D01*
X60771004Y-40912380D01*
X61372909Y-40912380D01*
X61523385Y-40950476D01*
X61598623Y-40988571D01*
X61673861Y-41064761D01*
X61673861Y-41217142D01*
X61598623Y-41293333D01*
X61523385Y-41331428D01*
X61372909Y-41369523D01*
X60996719Y-41369523D01*
X60846242Y-41331428D01*
X60771004Y-41293333D01*
X60695766Y-41217142D01*
X60695766Y-41064761D01*
X60771004Y-40988571D01*
X60846242Y-40950476D01*
X60996719Y-40912380D01*
X62637661Y-40112380D02*
X62637661Y-40607619D01*
X63239566Y-40340952D01*
X63239566Y-40455238D01*
X63314804Y-40531428D01*
X63390042Y-40569523D01*
X63540519Y-40607619D01*
X63916709Y-40607619D01*
X64067185Y-40569523D01*
X64142423Y-40531428D01*
X64217661Y-40455238D01*
X64217661Y-40226666D01*
X64142423Y-40150476D01*
X64067185Y-40112380D01*
X62637661Y-41331428D02*
X62637661Y-40950476D01*
X63390042Y-40912380D01*
X63314804Y-40950476D01*
X63239566Y-41026666D01*
X63239566Y-41217142D01*
X63314804Y-41293333D01*
X63390042Y-41331428D01*
X63540519Y-41369523D01*
X63916709Y-41369523D01*
X64067185Y-41331428D01*
X64142423Y-41293333D01*
X64217661Y-41217142D01*
X64217661Y-41026666D01*
X64142423Y-40950476D01*
X64067185Y-40912380D01*
X65181461Y-40112380D02*
X65181461Y-40607619D01*
X65783366Y-40340952D01*
X65783366Y-40455238D01*
X65858604Y-40531428D01*
X65933842Y-40569523D01*
X66084319Y-40607619D01*
X66460509Y-40607619D01*
X66610985Y-40569523D01*
X66686223Y-40531428D01*
X66761461Y-40455238D01*
X66761461Y-40226666D01*
X66686223Y-40150476D01*
X66610985Y-40112380D01*
X65708128Y-41293333D02*
X66761461Y-41293333D01*
X65106223Y-41102857D02*
X66234795Y-40912380D01*
X66234795Y-41407619D01*
X67725261Y-40112380D02*
X67725261Y-40607619D01*
X68327166Y-40340952D01*
X68327166Y-40455238D01*
X68402404Y-40531428D01*
X68477642Y-40569523D01*
X68628119Y-40607619D01*
X69004309Y-40607619D01*
X69154785Y-40569523D01*
X69230023Y-40531428D01*
X69305261Y-40455238D01*
X69305261Y-40226666D01*
X69230023Y-40150476D01*
X69154785Y-40112380D01*
X67725261Y-40874285D02*
X67725261Y-41369523D01*
X68327166Y-41102857D01*
X68327166Y-41217142D01*
X68402404Y-41293333D01*
X68477642Y-41331428D01*
X68628119Y-41369523D01*
X69004309Y-41369523D01*
X69154785Y-41331428D01*
X69230023Y-41293333D01*
X69305261Y-41217142D01*
X69305261Y-40988571D01*
X69230023Y-40912380D01*
X69154785Y-40874285D01*
X70269061Y-40112380D02*
X70269061Y-40607619D01*
X70870966Y-40340952D01*
X70870966Y-40455238D01*
X70946204Y-40531428D01*
X71021442Y-40569523D01*
X71171919Y-40607619D01*
X71548109Y-40607619D01*
X71698585Y-40569523D01*
X71773823Y-40531428D01*
X71849061Y-40455238D01*
X71849061Y-40226666D01*
X71773823Y-40150476D01*
X71698585Y-40112380D01*
X70419538Y-40912380D02*
X70344300Y-40950476D01*
X70269061Y-41026666D01*
X70269061Y-41217142D01*
X70344300Y-41293333D01*
X70419538Y-41331428D01*
X70570014Y-41369523D01*
X70720490Y-41369523D01*
X70946204Y-41331428D01*
X71849061Y-40874285D01*
X71849061Y-41369523D01*
X72812861Y-40112380D02*
X72812861Y-40607619D01*
X73414766Y-40340952D01*
X73414766Y-40455238D01*
X73490004Y-40531428D01*
X73565242Y-40569523D01*
X73715719Y-40607619D01*
X74091909Y-40607619D01*
X74242385Y-40569523D01*
X74317623Y-40531428D01*
X74392861Y-40455238D01*
X74392861Y-40226666D01*
X74317623Y-40150476D01*
X74242385Y-40112380D01*
X74392861Y-41369523D02*
X74392861Y-40912380D01*
X74392861Y-41140952D02*
X72812861Y-41140952D01*
X73038576Y-41064761D01*
X73189052Y-40988571D01*
X73264290Y-40912380D01*
X75356661Y-40112380D02*
X75356661Y-40607619D01*
X75958566Y-40340952D01*
X75958566Y-40455238D01*
X76033804Y-40531428D01*
X76109042Y-40569523D01*
X76259519Y-40607619D01*
X76635709Y-40607619D01*
X76786185Y-40569523D01*
X76861423Y-40531428D01*
X76936661Y-40455238D01*
X76936661Y-40226666D01*
X76861423Y-40150476D01*
X76786185Y-40112380D01*
X75356661Y-41102857D02*
X75356661Y-41179047D01*
X75431900Y-41255238D01*
X75507138Y-41293333D01*
X75657614Y-41331428D01*
X75958566Y-41369523D01*
X76334757Y-41369523D01*
X76635709Y-41331428D01*
X76786185Y-41293333D01*
X76861423Y-41255238D01*
X76936661Y-41179047D01*
X76936661Y-41102857D01*
X76861423Y-41026666D01*
X76786185Y-40988571D01*
X76635709Y-40950476D01*
X76334757Y-40912380D01*
X75958566Y-40912380D01*
X75657614Y-40950476D01*
X75507138Y-40988571D01*
X75431900Y-41026666D01*
X75356661Y-41102857D01*
X78050938Y-40150476D02*
X77975700Y-40188571D01*
X77900461Y-40264761D01*
X77900461Y-40455238D01*
X77975700Y-40531428D01*
X78050938Y-40569523D01*
X78201414Y-40607619D01*
X78351890Y-40607619D01*
X78577604Y-40569523D01*
X79480461Y-40112380D01*
X79480461Y-40607619D01*
X79480461Y-40988571D02*
X79480461Y-41140952D01*
X79405223Y-41217142D01*
X79329985Y-41255238D01*
X79104271Y-41331428D01*
X78803319Y-41369523D01*
X78201414Y-41369523D01*
X78050938Y-41331428D01*
X77975700Y-41293333D01*
X77900461Y-41217142D01*
X77900461Y-41064761D01*
X77975700Y-40988571D01*
X78050938Y-40950476D01*
X78201414Y-40912380D01*
X78577604Y-40912380D01*
X78728080Y-40950476D01*
X78803319Y-40988571D01*
X78878557Y-41064761D01*
X78878557Y-41217142D01*
X78803319Y-41293333D01*
X78728080Y-41331428D01*
X78577604Y-41369523D01*
X80594738Y-40150476D02*
X80519500Y-40188571D01*
X80444261Y-40264761D01*
X80444261Y-40455238D01*
X80519500Y-40531428D01*
X80594738Y-40569523D01*
X80745214Y-40607619D01*
X80895690Y-40607619D01*
X81121404Y-40569523D01*
X82024261Y-40112380D01*
X82024261Y-40607619D01*
X81121404Y-41064761D02*
X81046166Y-40988571D01*
X80970928Y-40950476D01*
X80820452Y-40912380D01*
X80745214Y-40912380D01*
X80594738Y-40950476D01*
X80519500Y-40988571D01*
X80444261Y-41064761D01*
X80444261Y-41217142D01*
X80519500Y-41293333D01*
X80594738Y-41331428D01*
X80745214Y-41369523D01*
X80820452Y-41369523D01*
X80970928Y-41331428D01*
X81046166Y-41293333D01*
X81121404Y-41217142D01*
X81121404Y-41064761D01*
X81196642Y-40988571D01*
X81271880Y-40950476D01*
X81422357Y-40912380D01*
X81723309Y-40912380D01*
X81873785Y-40950476D01*
X81949023Y-40988571D01*
X82024261Y-41064761D01*
X82024261Y-41217142D01*
X81949023Y-41293333D01*
X81873785Y-41331428D01*
X81723309Y-41369523D01*
X81422357Y-41369523D01*
X81271880Y-41331428D01*
X81196642Y-41293333D01*
X81121404Y-41217142D01*
X83138538Y-40150476D02*
X83063300Y-40188571D01*
X82988061Y-40264761D01*
X82988061Y-40455238D01*
X83063300Y-40531428D01*
X83138538Y-40569523D01*
X83289014Y-40607619D01*
X83439490Y-40607619D01*
X83665204Y-40569523D01*
X84568061Y-40112380D01*
X84568061Y-40607619D01*
X82988061Y-40874285D02*
X82988061Y-41407619D01*
X84568061Y-41064761D01*
X85682338Y-40150476D02*
X85607100Y-40188571D01*
X85531861Y-40264761D01*
X85531861Y-40455238D01*
X85607100Y-40531428D01*
X85682338Y-40569523D01*
X85832814Y-40607619D01*
X85983290Y-40607619D01*
X86209004Y-40569523D01*
X87111861Y-40112380D01*
X87111861Y-40607619D01*
X85531861Y-41293333D02*
X85531861Y-41140952D01*
X85607100Y-41064761D01*
X85682338Y-41026666D01*
X85908052Y-40950476D01*
X86209004Y-40912380D01*
X86810909Y-40912380D01*
X86961385Y-40950476D01*
X87036623Y-40988571D01*
X87111861Y-41064761D01*
X87111861Y-41217142D01*
X87036623Y-41293333D01*
X86961385Y-41331428D01*
X86810909Y-41369523D01*
X86434719Y-41369523D01*
X86284242Y-41331428D01*
X86209004Y-41293333D01*
X86133766Y-41217142D01*
X86133766Y-41064761D01*
X86209004Y-40988571D01*
X86284242Y-40950476D01*
X86434719Y-40912380D01*
X88226138Y-40150476D02*
X88150900Y-40188571D01*
X88075661Y-40264761D01*
X88075661Y-40455238D01*
X88150900Y-40531428D01*
X88226138Y-40569523D01*
X88376614Y-40607619D01*
X88527090Y-40607619D01*
X88752804Y-40569523D01*
X89655661Y-40112380D01*
X89655661Y-40607619D01*
X88075661Y-41331428D02*
X88075661Y-40950476D01*
X88828042Y-40912380D01*
X88752804Y-40950476D01*
X88677566Y-41026666D01*
X88677566Y-41217142D01*
X88752804Y-41293333D01*
X88828042Y-41331428D01*
X88978519Y-41369523D01*
X89354709Y-41369523D01*
X89505185Y-41331428D01*
X89580423Y-41293333D01*
X89655661Y-41217142D01*
X89655661Y-41026666D01*
X89580423Y-40950476D01*
X89505185Y-40912380D01*
X90769938Y-40150476D02*
X90694700Y-40188571D01*
X90619461Y-40264761D01*
X90619461Y-40455238D01*
X90694700Y-40531428D01*
X90769938Y-40569523D01*
X90920414Y-40607619D01*
X91070890Y-40607619D01*
X91296604Y-40569523D01*
X92199461Y-40112380D01*
X92199461Y-40607619D01*
X91146128Y-41293333D02*
X92199461Y-41293333D01*
X90544223Y-41102857D02*
X91672795Y-40912380D01*
X91672795Y-41407619D01*
X93313738Y-40150476D02*
X93238500Y-40188571D01*
X93163261Y-40264761D01*
X93163261Y-40455238D01*
X93238500Y-40531428D01*
X93313738Y-40569523D01*
X93464214Y-40607619D01*
X93614690Y-40607619D01*
X93840404Y-40569523D01*
X94743261Y-40112380D01*
X94743261Y-40607619D01*
X93163261Y-40874285D02*
X93163261Y-41369523D01*
X93765166Y-41102857D01*
X93765166Y-41217142D01*
X93840404Y-41293333D01*
X93915642Y-41331428D01*
X94066119Y-41369523D01*
X94442309Y-41369523D01*
X94592785Y-41331428D01*
X94668023Y-41293333D01*
X94743261Y-41217142D01*
X94743261Y-40988571D01*
X94668023Y-40912380D01*
X94592785Y-40874285D01*
X95857538Y-40150476D02*
X95782300Y-40188571D01*
X95707061Y-40264761D01*
X95707061Y-40455238D01*
X95782300Y-40531428D01*
X95857538Y-40569523D01*
X96008014Y-40607619D01*
X96158490Y-40607619D01*
X96384204Y-40569523D01*
X97287061Y-40112380D01*
X97287061Y-40607619D01*
X95857538Y-40912380D02*
X95782300Y-40950476D01*
X95707061Y-41026666D01*
X95707061Y-41217142D01*
X95782300Y-41293333D01*
X95857538Y-41331428D01*
X96008014Y-41369523D01*
X96158490Y-41369523D01*
X96384204Y-41331428D01*
X97287061Y-40874285D01*
X97287061Y-41369523D01*
X98401338Y-40150476D02*
X98326100Y-40188571D01*
X98250861Y-40264761D01*
X98250861Y-40455238D01*
X98326100Y-40531428D01*
X98401338Y-40569523D01*
X98551814Y-40607619D01*
X98702290Y-40607619D01*
X98928004Y-40569523D01*
X99830861Y-40112380D01*
X99830861Y-40607619D01*
X99830861Y-41369523D02*
X99830861Y-40912380D01*
X99830861Y-41140952D02*
X98250861Y-41140952D01*
X98476576Y-41064761D01*
X98627052Y-40988571D01*
X98702290Y-40912380D01*
X51378661Y-52818571D02*
X51378661Y-52361428D01*
X51378661Y-52590000D02*
X49798661Y-52590000D01*
X50024376Y-52513809D01*
X50174852Y-52437619D01*
X50250090Y-52361428D01*
X52492938Y-52361428D02*
X52417700Y-52399523D01*
X52342461Y-52475714D01*
X52342461Y-52666190D01*
X52417700Y-52742380D01*
X52492938Y-52780476D01*
X52643414Y-52818571D01*
X52793890Y-52818571D01*
X53019604Y-52780476D01*
X53922461Y-52323333D01*
X53922461Y-52818571D01*
X54886261Y-52323333D02*
X54886261Y-52818571D01*
X55488166Y-52551904D01*
X55488166Y-52666190D01*
X55563404Y-52742380D01*
X55638642Y-52780476D01*
X55789119Y-52818571D01*
X56165309Y-52818571D01*
X56315785Y-52780476D01*
X56391023Y-52742380D01*
X56466261Y-52666190D01*
X56466261Y-52437619D01*
X56391023Y-52361428D01*
X56315785Y-52323333D01*
X57956728Y-52742380D02*
X59010061Y-52742380D01*
X57354823Y-52551904D02*
X58483395Y-52361428D01*
X58483395Y-52856666D01*
X59973861Y-52780476D02*
X59973861Y-52399523D01*
X60726242Y-52361428D01*
X60651004Y-52399523D01*
X60575766Y-52475714D01*
X60575766Y-52666190D01*
X60651004Y-52742380D01*
X60726242Y-52780476D01*
X60876719Y-52818571D01*
X61252909Y-52818571D01*
X61403385Y-52780476D01*
X61478623Y-52742380D01*
X61553861Y-52666190D01*
X61553861Y-52475714D01*
X61478623Y-52399523D01*
X61403385Y-52361428D01*
X62517661Y-52742380D02*
X62517661Y-52590000D01*
X62592900Y-52513809D01*
X62668138Y-52475714D01*
X62893852Y-52399523D01*
X63194804Y-52361428D01*
X63796709Y-52361428D01*
X63947185Y-52399523D01*
X64022423Y-52437619D01*
X64097661Y-52513809D01*
X64097661Y-52666190D01*
X64022423Y-52742380D01*
X63947185Y-52780476D01*
X63796709Y-52818571D01*
X63420519Y-52818571D01*
X63270042Y-52780476D01*
X63194804Y-52742380D01*
X63119566Y-52666190D01*
X63119566Y-52513809D01*
X63194804Y-52437619D01*
X63270042Y-52399523D01*
X63420519Y-52361428D01*
X65061461Y-52323333D02*
X65061461Y-52856666D01*
X66641461Y-52513809D01*
X68282404Y-52513809D02*
X68207166Y-52437619D01*
X68131928Y-52399523D01*
X67981452Y-52361428D01*
X67906214Y-52361428D01*
X67755738Y-52399523D01*
X67680500Y-52437619D01*
X67605261Y-52513809D01*
X67605261Y-52666190D01*
X67680500Y-52742380D01*
X67755738Y-52780476D01*
X67906214Y-52818571D01*
X67981452Y-52818571D01*
X68131928Y-52780476D01*
X68207166Y-52742380D01*
X68282404Y-52666190D01*
X68282404Y-52513809D01*
X68357642Y-52437619D01*
X68432880Y-52399523D01*
X68583357Y-52361428D01*
X68884309Y-52361428D01*
X69034785Y-52399523D01*
X69110023Y-52437619D01*
X69185261Y-52513809D01*
X69185261Y-52666190D01*
X69110023Y-52742380D01*
X69034785Y-52780476D01*
X68884309Y-52818571D01*
X68583357Y-52818571D01*
X68432880Y-52780476D01*
X68357642Y-52742380D01*
X68282404Y-52666190D01*
X71729061Y-52437619D02*
X71729061Y-52590000D01*
X71653823Y-52666190D01*
X71578585Y-52704285D01*
X71352871Y-52780476D01*
X71051919Y-52818571D01*
X70450014Y-52818571D01*
X70299538Y-52780476D01*
X70224300Y-52742380D01*
X70149061Y-52666190D01*
X70149061Y-52513809D01*
X70224300Y-52437619D01*
X70299538Y-52399523D01*
X70450014Y-52361428D01*
X70826204Y-52361428D01*
X70976680Y-52399523D01*
X71051919Y-52437619D01*
X71127157Y-52513809D01*
X71127157Y-52666190D01*
X71051919Y-52742380D01*
X70976680Y-52780476D01*
X70826204Y-52818571D01*
X74272861Y-52437619D02*
X74272861Y-51980476D01*
X74272861Y-52209047D02*
X72692861Y-52209047D01*
X72918576Y-52132857D01*
X73069052Y-52056666D01*
X73144290Y-51980476D01*
X72692861Y-52932857D02*
X72692861Y-53009047D01*
X72768100Y-53085238D01*
X72843338Y-53123333D01*
X72993814Y-53161428D01*
X73294766Y-53199523D01*
X73670957Y-53199523D01*
X73971909Y-53161428D01*
X74122385Y-53123333D01*
X74197623Y-53085238D01*
X74272861Y-53009047D01*
X74272861Y-52932857D01*
X74197623Y-52856666D01*
X74122385Y-52818571D01*
X73971909Y-52780476D01*
X73670957Y-52742380D01*
X73294766Y-52742380D01*
X72993814Y-52780476D01*
X72843338Y-52818571D01*
X72768100Y-52856666D01*
X72692861Y-52932857D01*
X76816661Y-52437619D02*
X76816661Y-51980476D01*
X76816661Y-52209047D02*
X75236661Y-52209047D01*
X75462376Y-52132857D01*
X75612852Y-52056666D01*
X75688090Y-51980476D01*
X76816661Y-53199523D02*
X76816661Y-52742380D01*
X76816661Y-52970952D02*
X75236661Y-52970952D01*
X75462376Y-52894761D01*
X75612852Y-52818571D01*
X75688090Y-52742380D01*
X79360461Y-52437619D02*
X79360461Y-51980476D01*
X79360461Y-52209047D02*
X77780461Y-52209047D01*
X78006176Y-52132857D01*
X78156652Y-52056666D01*
X78231890Y-51980476D01*
X77930938Y-52742380D02*
X77855700Y-52780476D01*
X77780461Y-52856666D01*
X77780461Y-53047142D01*
X77855700Y-53123333D01*
X77930938Y-53161428D01*
X78081414Y-53199523D01*
X78231890Y-53199523D01*
X78457604Y-53161428D01*
X79360461Y-52704285D01*
X79360461Y-53199523D01*
X81904261Y-52437619D02*
X81904261Y-51980476D01*
X81904261Y-52209047D02*
X80324261Y-52209047D01*
X80549976Y-52132857D01*
X80700452Y-52056666D01*
X80775690Y-51980476D01*
X80324261Y-52704285D02*
X80324261Y-53199523D01*
X80926166Y-52932857D01*
X80926166Y-53047142D01*
X81001404Y-53123333D01*
X81076642Y-53161428D01*
X81227119Y-53199523D01*
X81603309Y-53199523D01*
X81753785Y-53161428D01*
X81829023Y-53123333D01*
X81904261Y-53047142D01*
X81904261Y-52818571D01*
X81829023Y-52742380D01*
X81753785Y-52704285D01*
X84448061Y-52437619D02*
X84448061Y-51980476D01*
X84448061Y-52209047D02*
X82868061Y-52209047D01*
X83093776Y-52132857D01*
X83244252Y-52056666D01*
X83319490Y-51980476D01*
X83394728Y-53123333D02*
X84448061Y-53123333D01*
X82792823Y-52932857D02*
X83921395Y-52742380D01*
X83921395Y-53237619D01*
X86991861Y-52437619D02*
X86991861Y-51980476D01*
X86991861Y-52209047D02*
X85411861Y-52209047D01*
X85637576Y-52132857D01*
X85788052Y-52056666D01*
X85863290Y-51980476D01*
X85411861Y-53161428D02*
X85411861Y-52780476D01*
X86164242Y-52742380D01*
X86089004Y-52780476D01*
X86013766Y-52856666D01*
X86013766Y-53047142D01*
X86089004Y-53123333D01*
X86164242Y-53161428D01*
X86314719Y-53199523D01*
X86690909Y-53199523D01*
X86841385Y-53161428D01*
X86916623Y-53123333D01*
X86991861Y-53047142D01*
X86991861Y-52856666D01*
X86916623Y-52780476D01*
X86841385Y-52742380D01*
X89535661Y-52437619D02*
X89535661Y-51980476D01*
X89535661Y-52209047D02*
X87955661Y-52209047D01*
X88181376Y-52132857D01*
X88331852Y-52056666D01*
X88407090Y-51980476D01*
X87955661Y-53123333D02*
X87955661Y-52970952D01*
X88030900Y-52894761D01*
X88106138Y-52856666D01*
X88331852Y-52780476D01*
X88632804Y-52742380D01*
X89234709Y-52742380D01*
X89385185Y-52780476D01*
X89460423Y-52818571D01*
X89535661Y-52894761D01*
X89535661Y-53047142D01*
X89460423Y-53123333D01*
X89385185Y-53161428D01*
X89234709Y-53199523D01*
X88858519Y-53199523D01*
X88708042Y-53161428D01*
X88632804Y-53123333D01*
X88557566Y-53047142D01*
X88557566Y-52894761D01*
X88632804Y-52818571D01*
X88708042Y-52780476D01*
X88858519Y-52742380D01*
X92079461Y-52437619D02*
X92079461Y-51980476D01*
X92079461Y-52209047D02*
X90499461Y-52209047D01*
X90725176Y-52132857D01*
X90875652Y-52056666D01*
X90950890Y-51980476D01*
X90499461Y-52704285D02*
X90499461Y-53237619D01*
X92079461Y-52894761D01*
X94623261Y-52437619D02*
X94623261Y-51980476D01*
X94623261Y-52209047D02*
X93043261Y-52209047D01*
X93268976Y-52132857D01*
X93419452Y-52056666D01*
X93494690Y-51980476D01*
X93720404Y-52894761D02*
X93645166Y-52818571D01*
X93569928Y-52780476D01*
X93419452Y-52742380D01*
X93344214Y-52742380D01*
X93193738Y-52780476D01*
X93118500Y-52818571D01*
X93043261Y-52894761D01*
X93043261Y-53047142D01*
X93118500Y-53123333D01*
X93193738Y-53161428D01*
X93344214Y-53199523D01*
X93419452Y-53199523D01*
X93569928Y-53161428D01*
X93645166Y-53123333D01*
X93720404Y-53047142D01*
X93720404Y-52894761D01*
X93795642Y-52818571D01*
X93870880Y-52780476D01*
X94021357Y-52742380D01*
X94322309Y-52742380D01*
X94472785Y-52780476D01*
X94548023Y-52818571D01*
X94623261Y-52894761D01*
X94623261Y-53047142D01*
X94548023Y-53123333D01*
X94472785Y-53161428D01*
X94322309Y-53199523D01*
X94021357Y-53199523D01*
X93870880Y-53161428D01*
X93795642Y-53123333D01*
X93720404Y-53047142D01*
X97167061Y-52437619D02*
X97167061Y-51980476D01*
X97167061Y-52209047D02*
X95587061Y-52209047D01*
X95812776Y-52132857D01*
X95963252Y-52056666D01*
X96038490Y-51980476D01*
X97167061Y-52818571D02*
X97167061Y-52970952D01*
X97091823Y-53047142D01*
X97016585Y-53085238D01*
X96790871Y-53161428D01*
X96489919Y-53199523D01*
X95888014Y-53199523D01*
X95737538Y-53161428D01*
X95662300Y-53123333D01*
X95587061Y-53047142D01*
X95587061Y-52894761D01*
X95662300Y-52818571D01*
X95737538Y-52780476D01*
X95888014Y-52742380D01*
X96264204Y-52742380D01*
X96414680Y-52780476D01*
X96489919Y-52818571D01*
X96565157Y-52894761D01*
X96565157Y-53047142D01*
X96489919Y-53123333D01*
X96414680Y-53161428D01*
X96264204Y-53199523D01*
X98281338Y-51980476D02*
X98206100Y-52018571D01*
X98130861Y-52094761D01*
X98130861Y-52285238D01*
X98206100Y-52361428D01*
X98281338Y-52399523D01*
X98431814Y-52437619D01*
X98582290Y-52437619D01*
X98808004Y-52399523D01*
X99710861Y-51942380D01*
X99710861Y-52437619D01*
X98130861Y-52932857D02*
X98130861Y-53009047D01*
X98206100Y-53085238D01*
X98281338Y-53123333D01*
X98431814Y-53161428D01*
X98732766Y-53199523D01*
X99108957Y-53199523D01*
X99409909Y-53161428D01*
X99560385Y-53123333D01*
X99635623Y-53085238D01*
X99710861Y-53009047D01*
X99710861Y-52932857D01*
X99635623Y-52856666D01*
X99560385Y-52818571D01*
X99409909Y-52780476D01*
X99108957Y-52742380D01*
X98732766Y-52742380D01*
X98431814Y-52780476D01*
X98281338Y-52818571D01*
X98206100Y-52856666D01*
X98130861Y-52932857D01*
X50009138Y-42421428D02*
X49933900Y-42459523D01*
X49858661Y-42535714D01*
X49858661Y-42726190D01*
X49933900Y-42802380D01*
X50009138Y-42840476D01*
X50159614Y-42878571D01*
X50310090Y-42878571D01*
X50535804Y-42840476D01*
X51438661Y-42383333D01*
X51438661Y-42878571D01*
X52929128Y-42802380D02*
X53982461Y-42802380D01*
X52327223Y-42611904D02*
X53455795Y-42421428D01*
X53455795Y-42916666D01*
X54946261Y-42802380D02*
X54946261Y-42650000D01*
X55021500Y-42573809D01*
X55096738Y-42535714D01*
X55322452Y-42459523D01*
X55623404Y-42421428D01*
X56225309Y-42421428D01*
X56375785Y-42459523D01*
X56451023Y-42497619D01*
X56526261Y-42573809D01*
X56526261Y-42726190D01*
X56451023Y-42802380D01*
X56375785Y-42840476D01*
X56225309Y-42878571D01*
X55849119Y-42878571D01*
X55698642Y-42840476D01*
X55623404Y-42802380D01*
X55548166Y-42726190D01*
X55548166Y-42573809D01*
X55623404Y-42497619D01*
X55698642Y-42459523D01*
X55849119Y-42421428D01*
X58167204Y-42573809D02*
X58091966Y-42497619D01*
X58016728Y-42459523D01*
X57866252Y-42421428D01*
X57791014Y-42421428D01*
X57640538Y-42459523D01*
X57565300Y-42497619D01*
X57490061Y-42573809D01*
X57490061Y-42726190D01*
X57565300Y-42802380D01*
X57640538Y-42840476D01*
X57791014Y-42878571D01*
X57866252Y-42878571D01*
X58016728Y-42840476D01*
X58091966Y-42802380D01*
X58167204Y-42726190D01*
X58167204Y-42573809D01*
X58242442Y-42497619D01*
X58317680Y-42459523D01*
X58468157Y-42421428D01*
X58769109Y-42421428D01*
X58919585Y-42459523D01*
X58994823Y-42497619D01*
X59070061Y-42573809D01*
X59070061Y-42726190D01*
X58994823Y-42802380D01*
X58919585Y-42840476D01*
X58769109Y-42878571D01*
X58468157Y-42878571D01*
X58317680Y-42840476D01*
X58242442Y-42802380D01*
X58167204Y-42726190D01*
X61613861Y-42497619D02*
X61613861Y-42040476D01*
X61613861Y-42269047D02*
X60033861Y-42269047D01*
X60259576Y-42192857D01*
X60410052Y-42116666D01*
X60485290Y-42040476D01*
X60033861Y-42992857D02*
X60033861Y-43069047D01*
X60109100Y-43145238D01*
X60184338Y-43183333D01*
X60334814Y-43221428D01*
X60635766Y-43259523D01*
X61011957Y-43259523D01*
X61312909Y-43221428D01*
X61463385Y-43183333D01*
X61538623Y-43145238D01*
X61613861Y-43069047D01*
X61613861Y-42992857D01*
X61538623Y-42916666D01*
X61463385Y-42878571D01*
X61312909Y-42840476D01*
X61011957Y-42802380D01*
X60635766Y-42802380D01*
X60334814Y-42840476D01*
X60184338Y-42878571D01*
X60109100Y-42916666D01*
X60033861Y-42992857D01*
X64157661Y-42497619D02*
X64157661Y-42040476D01*
X64157661Y-42269047D02*
X62577661Y-42269047D01*
X62803376Y-42192857D01*
X62953852Y-42116666D01*
X63029090Y-42040476D01*
X62728138Y-42802380D02*
X62652900Y-42840476D01*
X62577661Y-42916666D01*
X62577661Y-43107142D01*
X62652900Y-43183333D01*
X62728138Y-43221428D01*
X62878614Y-43259523D01*
X63029090Y-43259523D01*
X63254804Y-43221428D01*
X64157661Y-42764285D01*
X64157661Y-43259523D01*
X66701461Y-42497619D02*
X66701461Y-42040476D01*
X66701461Y-42269047D02*
X65121461Y-42269047D01*
X65347176Y-42192857D01*
X65497652Y-42116666D01*
X65572890Y-42040476D01*
X65648128Y-43183333D02*
X66701461Y-43183333D01*
X65046223Y-42992857D02*
X66174795Y-42802380D01*
X66174795Y-43297619D01*
X69245261Y-42497619D02*
X69245261Y-42040476D01*
X69245261Y-42269047D02*
X67665261Y-42269047D01*
X67890976Y-42192857D01*
X68041452Y-42116666D01*
X68116690Y-42040476D01*
X67665261Y-43183333D02*
X67665261Y-43030952D01*
X67740500Y-42954761D01*
X67815738Y-42916666D01*
X68041452Y-42840476D01*
X68342404Y-42802380D01*
X68944309Y-42802380D01*
X69094785Y-42840476D01*
X69170023Y-42878571D01*
X69245261Y-42954761D01*
X69245261Y-43107142D01*
X69170023Y-43183333D01*
X69094785Y-43221428D01*
X68944309Y-43259523D01*
X68568119Y-43259523D01*
X68417642Y-43221428D01*
X68342404Y-43183333D01*
X68267166Y-43107142D01*
X68267166Y-42954761D01*
X68342404Y-42878571D01*
X68417642Y-42840476D01*
X68568119Y-42802380D01*
X71789061Y-42497619D02*
X71789061Y-42040476D01*
X71789061Y-42269047D02*
X70209061Y-42269047D01*
X70434776Y-42192857D01*
X70585252Y-42116666D01*
X70660490Y-42040476D01*
X70886204Y-42954761D02*
X70810966Y-42878571D01*
X70735728Y-42840476D01*
X70585252Y-42802380D01*
X70510014Y-42802380D01*
X70359538Y-42840476D01*
X70284300Y-42878571D01*
X70209061Y-42954761D01*
X70209061Y-43107142D01*
X70284300Y-43183333D01*
X70359538Y-43221428D01*
X70510014Y-43259523D01*
X70585252Y-43259523D01*
X70735728Y-43221428D01*
X70810966Y-43183333D01*
X70886204Y-43107142D01*
X70886204Y-42954761D01*
X70961442Y-42878571D01*
X71036680Y-42840476D01*
X71187157Y-42802380D01*
X71488109Y-42802380D01*
X71638585Y-42840476D01*
X71713823Y-42878571D01*
X71789061Y-42954761D01*
X71789061Y-43107142D01*
X71713823Y-43183333D01*
X71638585Y-43221428D01*
X71488109Y-43259523D01*
X71187157Y-43259523D01*
X71036680Y-43221428D01*
X70961442Y-43183333D01*
X70886204Y-43107142D01*
X72903338Y-42040476D02*
X72828100Y-42078571D01*
X72752861Y-42154761D01*
X72752861Y-42345238D01*
X72828100Y-42421428D01*
X72903338Y-42459523D01*
X73053814Y-42497619D01*
X73204290Y-42497619D01*
X73430004Y-42459523D01*
X74332861Y-42002380D01*
X74332861Y-42497619D01*
X72752861Y-42992857D02*
X72752861Y-43069047D01*
X72828100Y-43145238D01*
X72903338Y-43183333D01*
X73053814Y-43221428D01*
X73354766Y-43259523D01*
X73730957Y-43259523D01*
X74031909Y-43221428D01*
X74182385Y-43183333D01*
X74257623Y-43145238D01*
X74332861Y-43069047D01*
X74332861Y-42992857D01*
X74257623Y-42916666D01*
X74182385Y-42878571D01*
X74031909Y-42840476D01*
X73730957Y-42802380D01*
X73354766Y-42802380D01*
X73053814Y-42840476D01*
X72903338Y-42878571D01*
X72828100Y-42916666D01*
X72752861Y-42992857D01*
X75447138Y-42040476D02*
X75371900Y-42078571D01*
X75296661Y-42154761D01*
X75296661Y-42345238D01*
X75371900Y-42421428D01*
X75447138Y-42459523D01*
X75597614Y-42497619D01*
X75748090Y-42497619D01*
X75973804Y-42459523D01*
X76876661Y-42002380D01*
X76876661Y-42497619D01*
X75447138Y-42802380D02*
X75371900Y-42840476D01*
X75296661Y-42916666D01*
X75296661Y-43107142D01*
X75371900Y-43183333D01*
X75447138Y-43221428D01*
X75597614Y-43259523D01*
X75748090Y-43259523D01*
X75973804Y-43221428D01*
X76876661Y-42764285D01*
X76876661Y-43259523D01*
X77990938Y-42040476D02*
X77915700Y-42078571D01*
X77840461Y-42154761D01*
X77840461Y-42345238D01*
X77915700Y-42421428D01*
X77990938Y-42459523D01*
X78141414Y-42497619D01*
X78291890Y-42497619D01*
X78517604Y-42459523D01*
X79420461Y-42002380D01*
X79420461Y-42497619D01*
X78367128Y-43183333D02*
X79420461Y-43183333D01*
X77765223Y-42992857D02*
X78893795Y-42802380D01*
X78893795Y-43297619D01*
X80534738Y-42040476D02*
X80459500Y-42078571D01*
X80384261Y-42154761D01*
X80384261Y-42345238D01*
X80459500Y-42421428D01*
X80534738Y-42459523D01*
X80685214Y-42497619D01*
X80835690Y-42497619D01*
X81061404Y-42459523D01*
X81964261Y-42002380D01*
X81964261Y-42497619D01*
X80384261Y-43183333D02*
X80384261Y-43030952D01*
X80459500Y-42954761D01*
X80534738Y-42916666D01*
X80760452Y-42840476D01*
X81061404Y-42802380D01*
X81663309Y-42802380D01*
X81813785Y-42840476D01*
X81889023Y-42878571D01*
X81964261Y-42954761D01*
X81964261Y-43107142D01*
X81889023Y-43183333D01*
X81813785Y-43221428D01*
X81663309Y-43259523D01*
X81287119Y-43259523D01*
X81136642Y-43221428D01*
X81061404Y-43183333D01*
X80986166Y-43107142D01*
X80986166Y-42954761D01*
X81061404Y-42878571D01*
X81136642Y-42840476D01*
X81287119Y-42802380D01*
X83078538Y-42040476D02*
X83003300Y-42078571D01*
X82928061Y-42154761D01*
X82928061Y-42345238D01*
X83003300Y-42421428D01*
X83078538Y-42459523D01*
X83229014Y-42497619D01*
X83379490Y-42497619D01*
X83605204Y-42459523D01*
X84508061Y-42002380D01*
X84508061Y-42497619D01*
X83605204Y-42954761D02*
X83529966Y-42878571D01*
X83454728Y-42840476D01*
X83304252Y-42802380D01*
X83229014Y-42802380D01*
X83078538Y-42840476D01*
X83003300Y-42878571D01*
X82928061Y-42954761D01*
X82928061Y-43107142D01*
X83003300Y-43183333D01*
X83078538Y-43221428D01*
X83229014Y-43259523D01*
X83304252Y-43259523D01*
X83454728Y-43221428D01*
X83529966Y-43183333D01*
X83605204Y-43107142D01*
X83605204Y-42954761D01*
X83680442Y-42878571D01*
X83755680Y-42840476D01*
X83906157Y-42802380D01*
X84207109Y-42802380D01*
X84357585Y-42840476D01*
X84432823Y-42878571D01*
X84508061Y-42954761D01*
X84508061Y-43107142D01*
X84432823Y-43183333D01*
X84357585Y-43221428D01*
X84207109Y-43259523D01*
X83906157Y-43259523D01*
X83755680Y-43221428D01*
X83680442Y-43183333D01*
X83605204Y-43107142D01*
X85471861Y-42002380D02*
X85471861Y-42497619D01*
X86073766Y-42230952D01*
X86073766Y-42345238D01*
X86149004Y-42421428D01*
X86224242Y-42459523D01*
X86374719Y-42497619D01*
X86750909Y-42497619D01*
X86901385Y-42459523D01*
X86976623Y-42421428D01*
X87051861Y-42345238D01*
X87051861Y-42116666D01*
X86976623Y-42040476D01*
X86901385Y-42002380D01*
X85471861Y-42992857D02*
X85471861Y-43069047D01*
X85547100Y-43145238D01*
X85622338Y-43183333D01*
X85772814Y-43221428D01*
X86073766Y-43259523D01*
X86449957Y-43259523D01*
X86750909Y-43221428D01*
X86901385Y-43183333D01*
X86976623Y-43145238D01*
X87051861Y-43069047D01*
X87051861Y-42992857D01*
X86976623Y-42916666D01*
X86901385Y-42878571D01*
X86750909Y-42840476D01*
X86449957Y-42802380D01*
X86073766Y-42802380D01*
X85772814Y-42840476D01*
X85622338Y-42878571D01*
X85547100Y-42916666D01*
X85471861Y-42992857D01*
X88015661Y-42002380D02*
X88015661Y-42497619D01*
X88617566Y-42230952D01*
X88617566Y-42345238D01*
X88692804Y-42421428D01*
X88768042Y-42459523D01*
X88918519Y-42497619D01*
X89294709Y-42497619D01*
X89445185Y-42459523D01*
X89520423Y-42421428D01*
X89595661Y-42345238D01*
X89595661Y-42116666D01*
X89520423Y-42040476D01*
X89445185Y-42002380D01*
X88166138Y-42802380D02*
X88090900Y-42840476D01*
X88015661Y-42916666D01*
X88015661Y-43107142D01*
X88090900Y-43183333D01*
X88166138Y-43221428D01*
X88316614Y-43259523D01*
X88467090Y-43259523D01*
X88692804Y-43221428D01*
X89595661Y-42764285D01*
X89595661Y-43259523D01*
X90559461Y-42002380D02*
X90559461Y-42497619D01*
X91161366Y-42230952D01*
X91161366Y-42345238D01*
X91236604Y-42421428D01*
X91311842Y-42459523D01*
X91462319Y-42497619D01*
X91838509Y-42497619D01*
X91988985Y-42459523D01*
X92064223Y-42421428D01*
X92139461Y-42345238D01*
X92139461Y-42116666D01*
X92064223Y-42040476D01*
X91988985Y-42002380D01*
X91086128Y-43183333D02*
X92139461Y-43183333D01*
X90484223Y-42992857D02*
X91612795Y-42802380D01*
X91612795Y-43297619D01*
X93103261Y-42002380D02*
X93103261Y-42497619D01*
X93705166Y-42230952D01*
X93705166Y-42345238D01*
X93780404Y-42421428D01*
X93855642Y-42459523D01*
X94006119Y-42497619D01*
X94382309Y-42497619D01*
X94532785Y-42459523D01*
X94608023Y-42421428D01*
X94683261Y-42345238D01*
X94683261Y-42116666D01*
X94608023Y-42040476D01*
X94532785Y-42002380D01*
X93103261Y-43183333D02*
X93103261Y-43030952D01*
X93178500Y-42954761D01*
X93253738Y-42916666D01*
X93479452Y-42840476D01*
X93780404Y-42802380D01*
X94382309Y-42802380D01*
X94532785Y-42840476D01*
X94608023Y-42878571D01*
X94683261Y-42954761D01*
X94683261Y-43107142D01*
X94608023Y-43183333D01*
X94532785Y-43221428D01*
X94382309Y-43259523D01*
X94006119Y-43259523D01*
X93855642Y-43221428D01*
X93780404Y-43183333D01*
X93705166Y-43107142D01*
X93705166Y-42954761D01*
X93780404Y-42878571D01*
X93855642Y-42840476D01*
X94006119Y-42802380D01*
X95647061Y-42002380D02*
X95647061Y-42497619D01*
X96248966Y-42230952D01*
X96248966Y-42345238D01*
X96324204Y-42421428D01*
X96399442Y-42459523D01*
X96549919Y-42497619D01*
X96926109Y-42497619D01*
X97076585Y-42459523D01*
X97151823Y-42421428D01*
X97227061Y-42345238D01*
X97227061Y-42116666D01*
X97151823Y-42040476D01*
X97076585Y-42002380D01*
X96324204Y-42954761D02*
X96248966Y-42878571D01*
X96173728Y-42840476D01*
X96023252Y-42802380D01*
X95948014Y-42802380D01*
X95797538Y-42840476D01*
X95722300Y-42878571D01*
X95647061Y-42954761D01*
X95647061Y-43107142D01*
X95722300Y-43183333D01*
X95797538Y-43221428D01*
X95948014Y-43259523D01*
X96023252Y-43259523D01*
X96173728Y-43221428D01*
X96248966Y-43183333D01*
X96324204Y-43107142D01*
X96324204Y-42954761D01*
X96399442Y-42878571D01*
X96474680Y-42840476D01*
X96625157Y-42802380D01*
X96926109Y-42802380D01*
X97076585Y-42840476D01*
X97151823Y-42878571D01*
X97227061Y-42954761D01*
X97227061Y-43107142D01*
X97151823Y-43183333D01*
X97076585Y-43221428D01*
X96926109Y-43259523D01*
X96625157Y-43259523D01*
X96474680Y-43221428D01*
X96399442Y-43183333D01*
X96324204Y-43107142D01*
X98717528Y-42421428D02*
X99770861Y-42421428D01*
X98115623Y-42230952D02*
X99244195Y-42040476D01*
X99244195Y-42535714D01*
X98190861Y-42992857D02*
X98190861Y-43069047D01*
X98266100Y-43145238D01*
X98341338Y-43183333D01*
X98491814Y-43221428D01*
X98792766Y-43259523D01*
X99168957Y-43259523D01*
X99469909Y-43221428D01*
X99620385Y-43183333D01*
X99695623Y-43145238D01*
X99770861Y-43069047D01*
X99770861Y-42992857D01*
X99695623Y-42916666D01*
X99620385Y-42878571D01*
X99469909Y-42840476D01*
X99168957Y-42802380D01*
X98792766Y-42802380D01*
X98491814Y-42840476D01*
X98341338Y-42878571D01*
X98266100Y-42916666D01*
X98190861Y-42992857D01*
X51468661Y-50558571D02*
X51468661Y-50101428D01*
X51468661Y-50330000D02*
X49888661Y-50330000D01*
X50114376Y-50253809D01*
X50264852Y-50177619D01*
X50340090Y-50101428D01*
X52432461Y-50063333D02*
X52432461Y-50558571D01*
X53034366Y-50291904D01*
X53034366Y-50406190D01*
X53109604Y-50482380D01*
X53184842Y-50520476D01*
X53335319Y-50558571D01*
X53711509Y-50558571D01*
X53861985Y-50520476D01*
X53937223Y-50482380D01*
X54012461Y-50406190D01*
X54012461Y-50177619D01*
X53937223Y-50101428D01*
X53861985Y-50063333D01*
X54976261Y-50520476D02*
X54976261Y-50139523D01*
X55728642Y-50101428D01*
X55653404Y-50139523D01*
X55578166Y-50215714D01*
X55578166Y-50406190D01*
X55653404Y-50482380D01*
X55728642Y-50520476D01*
X55879119Y-50558571D01*
X56255309Y-50558571D01*
X56405785Y-50520476D01*
X56481023Y-50482380D01*
X56556261Y-50406190D01*
X56556261Y-50215714D01*
X56481023Y-50139523D01*
X56405785Y-50101428D01*
X57520061Y-50063333D02*
X57520061Y-50596666D01*
X59100061Y-50253809D01*
X61643861Y-50177619D02*
X61643861Y-50330000D01*
X61568623Y-50406190D01*
X61493385Y-50444285D01*
X61267671Y-50520476D01*
X60966719Y-50558571D01*
X60364814Y-50558571D01*
X60214338Y-50520476D01*
X60139100Y-50482380D01*
X60063861Y-50406190D01*
X60063861Y-50253809D01*
X60139100Y-50177619D01*
X60214338Y-50139523D01*
X60364814Y-50101428D01*
X60741004Y-50101428D01*
X60891480Y-50139523D01*
X60966719Y-50177619D01*
X61041957Y-50253809D01*
X61041957Y-50406190D01*
X60966719Y-50482380D01*
X60891480Y-50520476D01*
X60741004Y-50558571D01*
X64187661Y-50177619D02*
X64187661Y-49720476D01*
X64187661Y-49949047D02*
X62607661Y-49949047D01*
X62833376Y-49872857D01*
X62983852Y-49796666D01*
X63059090Y-49720476D01*
X64187661Y-50939523D02*
X64187661Y-50482380D01*
X64187661Y-50710952D02*
X62607661Y-50710952D01*
X62833376Y-50634761D01*
X62983852Y-50558571D01*
X63059090Y-50482380D01*
X66731461Y-50177619D02*
X66731461Y-49720476D01*
X66731461Y-49949047D02*
X65151461Y-49949047D01*
X65377176Y-49872857D01*
X65527652Y-49796666D01*
X65602890Y-49720476D01*
X65151461Y-50444285D02*
X65151461Y-50939523D01*
X65753366Y-50672857D01*
X65753366Y-50787142D01*
X65828604Y-50863333D01*
X65903842Y-50901428D01*
X66054319Y-50939523D01*
X66430509Y-50939523D01*
X66580985Y-50901428D01*
X66656223Y-50863333D01*
X66731461Y-50787142D01*
X66731461Y-50558571D01*
X66656223Y-50482380D01*
X66580985Y-50444285D01*
X69275261Y-50177619D02*
X69275261Y-49720476D01*
X69275261Y-49949047D02*
X67695261Y-49949047D01*
X67920976Y-49872857D01*
X68071452Y-49796666D01*
X68146690Y-49720476D01*
X67695261Y-50901428D02*
X67695261Y-50520476D01*
X68447642Y-50482380D01*
X68372404Y-50520476D01*
X68297166Y-50596666D01*
X68297166Y-50787142D01*
X68372404Y-50863333D01*
X68447642Y-50901428D01*
X68598119Y-50939523D01*
X68974309Y-50939523D01*
X69124785Y-50901428D01*
X69200023Y-50863333D01*
X69275261Y-50787142D01*
X69275261Y-50596666D01*
X69200023Y-50520476D01*
X69124785Y-50482380D01*
X71819061Y-50177619D02*
X71819061Y-49720476D01*
X71819061Y-49949047D02*
X70239061Y-49949047D01*
X70464776Y-49872857D01*
X70615252Y-49796666D01*
X70690490Y-49720476D01*
X70239061Y-50444285D02*
X70239061Y-50977619D01*
X71819061Y-50634761D01*
X74362861Y-50177619D02*
X74362861Y-49720476D01*
X74362861Y-49949047D02*
X72782861Y-49949047D01*
X73008576Y-49872857D01*
X73159052Y-49796666D01*
X73234290Y-49720476D01*
X74362861Y-50558571D02*
X74362861Y-50710952D01*
X74287623Y-50787142D01*
X74212385Y-50825238D01*
X73986671Y-50901428D01*
X73685719Y-50939523D01*
X73083814Y-50939523D01*
X72933338Y-50901428D01*
X72858100Y-50863333D01*
X72782861Y-50787142D01*
X72782861Y-50634761D01*
X72858100Y-50558571D01*
X72933338Y-50520476D01*
X73083814Y-50482380D01*
X73460004Y-50482380D01*
X73610480Y-50520476D01*
X73685719Y-50558571D01*
X73760957Y-50634761D01*
X73760957Y-50787142D01*
X73685719Y-50863333D01*
X73610480Y-50901428D01*
X73460004Y-50939523D01*
X75477138Y-49720476D02*
X75401900Y-49758571D01*
X75326661Y-49834761D01*
X75326661Y-50025238D01*
X75401900Y-50101428D01*
X75477138Y-50139523D01*
X75627614Y-50177619D01*
X75778090Y-50177619D01*
X76003804Y-50139523D01*
X76906661Y-49682380D01*
X76906661Y-50177619D01*
X76906661Y-50939523D02*
X76906661Y-50482380D01*
X76906661Y-50710952D02*
X75326661Y-50710952D01*
X75552376Y-50634761D01*
X75702852Y-50558571D01*
X75778090Y-50482380D01*
X78020938Y-49720476D02*
X77945700Y-49758571D01*
X77870461Y-49834761D01*
X77870461Y-50025238D01*
X77945700Y-50101428D01*
X78020938Y-50139523D01*
X78171414Y-50177619D01*
X78321890Y-50177619D01*
X78547604Y-50139523D01*
X79450461Y-49682380D01*
X79450461Y-50177619D01*
X77870461Y-50444285D02*
X77870461Y-50939523D01*
X78472366Y-50672857D01*
X78472366Y-50787142D01*
X78547604Y-50863333D01*
X78622842Y-50901428D01*
X78773319Y-50939523D01*
X79149509Y-50939523D01*
X79299985Y-50901428D01*
X79375223Y-50863333D01*
X79450461Y-50787142D01*
X79450461Y-50558571D01*
X79375223Y-50482380D01*
X79299985Y-50444285D01*
X80564738Y-49720476D02*
X80489500Y-49758571D01*
X80414261Y-49834761D01*
X80414261Y-50025238D01*
X80489500Y-50101428D01*
X80564738Y-50139523D01*
X80715214Y-50177619D01*
X80865690Y-50177619D01*
X81091404Y-50139523D01*
X81994261Y-49682380D01*
X81994261Y-50177619D01*
X80414261Y-50901428D02*
X80414261Y-50520476D01*
X81166642Y-50482380D01*
X81091404Y-50520476D01*
X81016166Y-50596666D01*
X81016166Y-50787142D01*
X81091404Y-50863333D01*
X81166642Y-50901428D01*
X81317119Y-50939523D01*
X81693309Y-50939523D01*
X81843785Y-50901428D01*
X81919023Y-50863333D01*
X81994261Y-50787142D01*
X81994261Y-50596666D01*
X81919023Y-50520476D01*
X81843785Y-50482380D01*
X83108538Y-49720476D02*
X83033300Y-49758571D01*
X82958061Y-49834761D01*
X82958061Y-50025238D01*
X83033300Y-50101428D01*
X83108538Y-50139523D01*
X83259014Y-50177619D01*
X83409490Y-50177619D01*
X83635204Y-50139523D01*
X84538061Y-49682380D01*
X84538061Y-50177619D01*
X82958061Y-50444285D02*
X82958061Y-50977619D01*
X84538061Y-50634761D01*
X85652338Y-49720476D02*
X85577100Y-49758571D01*
X85501861Y-49834761D01*
X85501861Y-50025238D01*
X85577100Y-50101428D01*
X85652338Y-50139523D01*
X85802814Y-50177619D01*
X85953290Y-50177619D01*
X86179004Y-50139523D01*
X87081861Y-49682380D01*
X87081861Y-50177619D01*
X87081861Y-50558571D02*
X87081861Y-50710952D01*
X87006623Y-50787142D01*
X86931385Y-50825238D01*
X86705671Y-50901428D01*
X86404719Y-50939523D01*
X85802814Y-50939523D01*
X85652338Y-50901428D01*
X85577100Y-50863333D01*
X85501861Y-50787142D01*
X85501861Y-50634761D01*
X85577100Y-50558571D01*
X85652338Y-50520476D01*
X85802814Y-50482380D01*
X86179004Y-50482380D01*
X86329480Y-50520476D01*
X86404719Y-50558571D01*
X86479957Y-50634761D01*
X86479957Y-50787142D01*
X86404719Y-50863333D01*
X86329480Y-50901428D01*
X86179004Y-50939523D01*
X88045661Y-49682380D02*
X88045661Y-50177619D01*
X88647566Y-49910952D01*
X88647566Y-50025238D01*
X88722804Y-50101428D01*
X88798042Y-50139523D01*
X88948519Y-50177619D01*
X89324709Y-50177619D01*
X89475185Y-50139523D01*
X89550423Y-50101428D01*
X89625661Y-50025238D01*
X89625661Y-49796666D01*
X89550423Y-49720476D01*
X89475185Y-49682380D01*
X89625661Y-50939523D02*
X89625661Y-50482380D01*
X89625661Y-50710952D02*
X88045661Y-50710952D01*
X88271376Y-50634761D01*
X88421852Y-50558571D01*
X88497090Y-50482380D01*
X90589461Y-49682380D02*
X90589461Y-50177619D01*
X91191366Y-49910952D01*
X91191366Y-50025238D01*
X91266604Y-50101428D01*
X91341842Y-50139523D01*
X91492319Y-50177619D01*
X91868509Y-50177619D01*
X92018985Y-50139523D01*
X92094223Y-50101428D01*
X92169461Y-50025238D01*
X92169461Y-49796666D01*
X92094223Y-49720476D01*
X92018985Y-49682380D01*
X90589461Y-50444285D02*
X90589461Y-50939523D01*
X91191366Y-50672857D01*
X91191366Y-50787142D01*
X91266604Y-50863333D01*
X91341842Y-50901428D01*
X91492319Y-50939523D01*
X91868509Y-50939523D01*
X92018985Y-50901428D01*
X92094223Y-50863333D01*
X92169461Y-50787142D01*
X92169461Y-50558571D01*
X92094223Y-50482380D01*
X92018985Y-50444285D01*
X93133261Y-49682380D02*
X93133261Y-50177619D01*
X93735166Y-49910952D01*
X93735166Y-50025238D01*
X93810404Y-50101428D01*
X93885642Y-50139523D01*
X94036119Y-50177619D01*
X94412309Y-50177619D01*
X94562785Y-50139523D01*
X94638023Y-50101428D01*
X94713261Y-50025238D01*
X94713261Y-49796666D01*
X94638023Y-49720476D01*
X94562785Y-49682380D01*
X93133261Y-50901428D02*
X93133261Y-50520476D01*
X93885642Y-50482380D01*
X93810404Y-50520476D01*
X93735166Y-50596666D01*
X93735166Y-50787142D01*
X93810404Y-50863333D01*
X93885642Y-50901428D01*
X94036119Y-50939523D01*
X94412309Y-50939523D01*
X94562785Y-50901428D01*
X94638023Y-50863333D01*
X94713261Y-50787142D01*
X94713261Y-50596666D01*
X94638023Y-50520476D01*
X94562785Y-50482380D01*
X95677061Y-49682380D02*
X95677061Y-50177619D01*
X96278966Y-49910952D01*
X96278966Y-50025238D01*
X96354204Y-50101428D01*
X96429442Y-50139523D01*
X96579919Y-50177619D01*
X96956109Y-50177619D01*
X97106585Y-50139523D01*
X97181823Y-50101428D01*
X97257061Y-50025238D01*
X97257061Y-49796666D01*
X97181823Y-49720476D01*
X97106585Y-49682380D01*
X95677061Y-50444285D02*
X95677061Y-50977619D01*
X97257061Y-50634761D01*
X98220861Y-49682380D02*
X98220861Y-50177619D01*
X98822766Y-49910952D01*
X98822766Y-50025238D01*
X98898004Y-50101428D01*
X98973242Y-50139523D01*
X99123719Y-50177619D01*
X99499909Y-50177619D01*
X99650385Y-50139523D01*
X99725623Y-50101428D01*
X99800861Y-50025238D01*
X99800861Y-49796666D01*
X99725623Y-49720476D01*
X99650385Y-49682380D01*
X99800861Y-50558571D02*
X99800861Y-50710952D01*
X99725623Y-50787142D01*
X99650385Y-50825238D01*
X99424671Y-50901428D01*
X99123719Y-50939523D01*
X98521814Y-50939523D01*
X98371338Y-50901428D01*
X98296100Y-50863333D01*
X98220861Y-50787142D01*
X98220861Y-50634761D01*
X98296100Y-50558571D01*
X98371338Y-50520476D01*
X98521814Y-50482380D01*
X98898004Y-50482380D01*
X99048480Y-50520476D01*
X99123719Y-50558571D01*
X99198957Y-50634761D01*
X99198957Y-50787142D01*
X99123719Y-50863333D01*
X99048480Y-50901428D01*
X98898004Y-50939523D01*
M02*
