%TF.GenerationSoftware,KiCad,Pcbnew,6.0.11*%
%TF.CreationDate,2024-12-01T18:54:20+01:00*%
%TF.ProjectId,MP6532_board_adapter,4d503635-3332-45f6-926f-6172645f6164,rev?*%
%TF.SameCoordinates,Original*%
%TF.FileFunction,Legend,Top*%
%TF.FilePolarity,Positive*%
%FSLAX46Y46*%
G04 Gerber Fmt 4.6, Leading zero omitted, Abs format (unit mm)*
G04 Created by KiCad (PCBNEW 6.0.11) date 2024-12-01 18:54:20*
%MOMM*%
%LPD*%
G01*
G04 APERTURE LIST*
%ADD10C,0.150000*%
%ADD11C,0.120000*%
G04 APERTURE END LIST*
D10*
X49500000Y-51100000D02*
X100000000Y-51100000D01*
X49700000Y-42000000D02*
X100200000Y-42000000D01*
X50435328Y-41198571D02*
X51488661Y-41198571D01*
X49833423Y-41389047D02*
X50961995Y-41579523D01*
X50961995Y-41084285D01*
X49908661Y-40627142D02*
X49908661Y-40550952D01*
X49983900Y-40474761D01*
X50059138Y-40436666D01*
X50209614Y-40398571D01*
X50510566Y-40360476D01*
X50886757Y-40360476D01*
X51187709Y-40398571D01*
X51338185Y-40436666D01*
X51413423Y-40474761D01*
X51488661Y-40550952D01*
X51488661Y-40627142D01*
X51413423Y-40703333D01*
X51338185Y-40741428D01*
X51187709Y-40779523D01*
X50886757Y-40817619D01*
X50510566Y-40817619D01*
X50209614Y-40779523D01*
X50059138Y-40741428D01*
X49983900Y-40703333D01*
X49908661Y-40627142D01*
X52452461Y-41617619D02*
X52452461Y-41122380D01*
X53054366Y-41389047D01*
X53054366Y-41274761D01*
X53129604Y-41198571D01*
X53204842Y-41160476D01*
X53355319Y-41122380D01*
X53731509Y-41122380D01*
X53881985Y-41160476D01*
X53957223Y-41198571D01*
X54032461Y-41274761D01*
X54032461Y-41503333D01*
X53957223Y-41579523D01*
X53881985Y-41617619D01*
X54032461Y-40741428D02*
X54032461Y-40589047D01*
X53957223Y-40512857D01*
X53881985Y-40474761D01*
X53656271Y-40398571D01*
X53355319Y-40360476D01*
X52753414Y-40360476D01*
X52602938Y-40398571D01*
X52527700Y-40436666D01*
X52452461Y-40512857D01*
X52452461Y-40665238D01*
X52527700Y-40741428D01*
X52602938Y-40779523D01*
X52753414Y-40817619D01*
X53129604Y-40817619D01*
X53280080Y-40779523D01*
X53355319Y-40741428D01*
X53430557Y-40665238D01*
X53430557Y-40512857D01*
X53355319Y-40436666D01*
X53280080Y-40398571D01*
X53129604Y-40360476D01*
X54996261Y-41617619D02*
X54996261Y-41122380D01*
X55598166Y-41389047D01*
X55598166Y-41274761D01*
X55673404Y-41198571D01*
X55748642Y-41160476D01*
X55899119Y-41122380D01*
X56275309Y-41122380D01*
X56425785Y-41160476D01*
X56501023Y-41198571D01*
X56576261Y-41274761D01*
X56576261Y-41503333D01*
X56501023Y-41579523D01*
X56425785Y-41617619D01*
X55673404Y-40665238D02*
X55598166Y-40741428D01*
X55522928Y-40779523D01*
X55372452Y-40817619D01*
X55297214Y-40817619D01*
X55146738Y-40779523D01*
X55071500Y-40741428D01*
X54996261Y-40665238D01*
X54996261Y-40512857D01*
X55071500Y-40436666D01*
X55146738Y-40398571D01*
X55297214Y-40360476D01*
X55372452Y-40360476D01*
X55522928Y-40398571D01*
X55598166Y-40436666D01*
X55673404Y-40512857D01*
X55673404Y-40665238D01*
X55748642Y-40741428D01*
X55823880Y-40779523D01*
X55974357Y-40817619D01*
X56275309Y-40817619D01*
X56425785Y-40779523D01*
X56501023Y-40741428D01*
X56576261Y-40665238D01*
X56576261Y-40512857D01*
X56501023Y-40436666D01*
X56425785Y-40398571D01*
X56275309Y-40360476D01*
X55974357Y-40360476D01*
X55823880Y-40398571D01*
X55748642Y-40436666D01*
X55673404Y-40512857D01*
X57540061Y-41617619D02*
X57540061Y-41122380D01*
X58141966Y-41389047D01*
X58141966Y-41274761D01*
X58217204Y-41198571D01*
X58292442Y-41160476D01*
X58442919Y-41122380D01*
X58819109Y-41122380D01*
X58969585Y-41160476D01*
X59044823Y-41198571D01*
X59120061Y-41274761D01*
X59120061Y-41503333D01*
X59044823Y-41579523D01*
X58969585Y-41617619D01*
X57540061Y-40855714D02*
X57540061Y-40322380D01*
X59120061Y-40665238D01*
X60083861Y-41617619D02*
X60083861Y-41122380D01*
X60685766Y-41389047D01*
X60685766Y-41274761D01*
X60761004Y-41198571D01*
X60836242Y-41160476D01*
X60986719Y-41122380D01*
X61362909Y-41122380D01*
X61513385Y-41160476D01*
X61588623Y-41198571D01*
X61663861Y-41274761D01*
X61663861Y-41503333D01*
X61588623Y-41579523D01*
X61513385Y-41617619D01*
X60083861Y-40436666D02*
X60083861Y-40589047D01*
X60159100Y-40665238D01*
X60234338Y-40703333D01*
X60460052Y-40779523D01*
X60761004Y-40817619D01*
X61362909Y-40817619D01*
X61513385Y-40779523D01*
X61588623Y-40741428D01*
X61663861Y-40665238D01*
X61663861Y-40512857D01*
X61588623Y-40436666D01*
X61513385Y-40398571D01*
X61362909Y-40360476D01*
X60986719Y-40360476D01*
X60836242Y-40398571D01*
X60761004Y-40436666D01*
X60685766Y-40512857D01*
X60685766Y-40665238D01*
X60761004Y-40741428D01*
X60836242Y-40779523D01*
X60986719Y-40817619D01*
X62627661Y-41617619D02*
X62627661Y-41122380D01*
X63229566Y-41389047D01*
X63229566Y-41274761D01*
X63304804Y-41198571D01*
X63380042Y-41160476D01*
X63530519Y-41122380D01*
X63906709Y-41122380D01*
X64057185Y-41160476D01*
X64132423Y-41198571D01*
X64207661Y-41274761D01*
X64207661Y-41503333D01*
X64132423Y-41579523D01*
X64057185Y-41617619D01*
X62627661Y-40398571D02*
X62627661Y-40779523D01*
X63380042Y-40817619D01*
X63304804Y-40779523D01*
X63229566Y-40703333D01*
X63229566Y-40512857D01*
X63304804Y-40436666D01*
X63380042Y-40398571D01*
X63530519Y-40360476D01*
X63906709Y-40360476D01*
X64057185Y-40398571D01*
X64132423Y-40436666D01*
X64207661Y-40512857D01*
X64207661Y-40703333D01*
X64132423Y-40779523D01*
X64057185Y-40817619D01*
X65171461Y-41617619D02*
X65171461Y-41122380D01*
X65773366Y-41389047D01*
X65773366Y-41274761D01*
X65848604Y-41198571D01*
X65923842Y-41160476D01*
X66074319Y-41122380D01*
X66450509Y-41122380D01*
X66600985Y-41160476D01*
X66676223Y-41198571D01*
X66751461Y-41274761D01*
X66751461Y-41503333D01*
X66676223Y-41579523D01*
X66600985Y-41617619D01*
X65698128Y-40436666D02*
X66751461Y-40436666D01*
X65096223Y-40627142D02*
X66224795Y-40817619D01*
X66224795Y-40322380D01*
X67715261Y-41617619D02*
X67715261Y-41122380D01*
X68317166Y-41389047D01*
X68317166Y-41274761D01*
X68392404Y-41198571D01*
X68467642Y-41160476D01*
X68618119Y-41122380D01*
X68994309Y-41122380D01*
X69144785Y-41160476D01*
X69220023Y-41198571D01*
X69295261Y-41274761D01*
X69295261Y-41503333D01*
X69220023Y-41579523D01*
X69144785Y-41617619D01*
X67715261Y-40855714D02*
X67715261Y-40360476D01*
X68317166Y-40627142D01*
X68317166Y-40512857D01*
X68392404Y-40436666D01*
X68467642Y-40398571D01*
X68618119Y-40360476D01*
X68994309Y-40360476D01*
X69144785Y-40398571D01*
X69220023Y-40436666D01*
X69295261Y-40512857D01*
X69295261Y-40741428D01*
X69220023Y-40817619D01*
X69144785Y-40855714D01*
X70259061Y-41617619D02*
X70259061Y-41122380D01*
X70860966Y-41389047D01*
X70860966Y-41274761D01*
X70936204Y-41198571D01*
X71011442Y-41160476D01*
X71161919Y-41122380D01*
X71538109Y-41122380D01*
X71688585Y-41160476D01*
X71763823Y-41198571D01*
X71839061Y-41274761D01*
X71839061Y-41503333D01*
X71763823Y-41579523D01*
X71688585Y-41617619D01*
X70409538Y-40817619D02*
X70334300Y-40779523D01*
X70259061Y-40703333D01*
X70259061Y-40512857D01*
X70334300Y-40436666D01*
X70409538Y-40398571D01*
X70560014Y-40360476D01*
X70710490Y-40360476D01*
X70936204Y-40398571D01*
X71839061Y-40855714D01*
X71839061Y-40360476D01*
X72802861Y-41617619D02*
X72802861Y-41122380D01*
X73404766Y-41389047D01*
X73404766Y-41274761D01*
X73480004Y-41198571D01*
X73555242Y-41160476D01*
X73705719Y-41122380D01*
X74081909Y-41122380D01*
X74232385Y-41160476D01*
X74307623Y-41198571D01*
X74382861Y-41274761D01*
X74382861Y-41503333D01*
X74307623Y-41579523D01*
X74232385Y-41617619D01*
X74382861Y-40360476D02*
X74382861Y-40817619D01*
X74382861Y-40589047D02*
X72802861Y-40589047D01*
X73028576Y-40665238D01*
X73179052Y-40741428D01*
X73254290Y-40817619D01*
X75346661Y-41617619D02*
X75346661Y-41122380D01*
X75948566Y-41389047D01*
X75948566Y-41274761D01*
X76023804Y-41198571D01*
X76099042Y-41160476D01*
X76249519Y-41122380D01*
X76625709Y-41122380D01*
X76776185Y-41160476D01*
X76851423Y-41198571D01*
X76926661Y-41274761D01*
X76926661Y-41503333D01*
X76851423Y-41579523D01*
X76776185Y-41617619D01*
X75346661Y-40627142D02*
X75346661Y-40550952D01*
X75421900Y-40474761D01*
X75497138Y-40436666D01*
X75647614Y-40398571D01*
X75948566Y-40360476D01*
X76324757Y-40360476D01*
X76625709Y-40398571D01*
X76776185Y-40436666D01*
X76851423Y-40474761D01*
X76926661Y-40550952D01*
X76926661Y-40627142D01*
X76851423Y-40703333D01*
X76776185Y-40741428D01*
X76625709Y-40779523D01*
X76324757Y-40817619D01*
X75948566Y-40817619D01*
X75647614Y-40779523D01*
X75497138Y-40741428D01*
X75421900Y-40703333D01*
X75346661Y-40627142D01*
X78040938Y-41579523D02*
X77965700Y-41541428D01*
X77890461Y-41465238D01*
X77890461Y-41274761D01*
X77965700Y-41198571D01*
X78040938Y-41160476D01*
X78191414Y-41122380D01*
X78341890Y-41122380D01*
X78567604Y-41160476D01*
X79470461Y-41617619D01*
X79470461Y-41122380D01*
X79470461Y-40741428D02*
X79470461Y-40589047D01*
X79395223Y-40512857D01*
X79319985Y-40474761D01*
X79094271Y-40398571D01*
X78793319Y-40360476D01*
X78191414Y-40360476D01*
X78040938Y-40398571D01*
X77965700Y-40436666D01*
X77890461Y-40512857D01*
X77890461Y-40665238D01*
X77965700Y-40741428D01*
X78040938Y-40779523D01*
X78191414Y-40817619D01*
X78567604Y-40817619D01*
X78718080Y-40779523D01*
X78793319Y-40741428D01*
X78868557Y-40665238D01*
X78868557Y-40512857D01*
X78793319Y-40436666D01*
X78718080Y-40398571D01*
X78567604Y-40360476D01*
X80584738Y-41579523D02*
X80509500Y-41541428D01*
X80434261Y-41465238D01*
X80434261Y-41274761D01*
X80509500Y-41198571D01*
X80584738Y-41160476D01*
X80735214Y-41122380D01*
X80885690Y-41122380D01*
X81111404Y-41160476D01*
X82014261Y-41617619D01*
X82014261Y-41122380D01*
X81111404Y-40665238D02*
X81036166Y-40741428D01*
X80960928Y-40779523D01*
X80810452Y-40817619D01*
X80735214Y-40817619D01*
X80584738Y-40779523D01*
X80509500Y-40741428D01*
X80434261Y-40665238D01*
X80434261Y-40512857D01*
X80509500Y-40436666D01*
X80584738Y-40398571D01*
X80735214Y-40360476D01*
X80810452Y-40360476D01*
X80960928Y-40398571D01*
X81036166Y-40436666D01*
X81111404Y-40512857D01*
X81111404Y-40665238D01*
X81186642Y-40741428D01*
X81261880Y-40779523D01*
X81412357Y-40817619D01*
X81713309Y-40817619D01*
X81863785Y-40779523D01*
X81939023Y-40741428D01*
X82014261Y-40665238D01*
X82014261Y-40512857D01*
X81939023Y-40436666D01*
X81863785Y-40398571D01*
X81713309Y-40360476D01*
X81412357Y-40360476D01*
X81261880Y-40398571D01*
X81186642Y-40436666D01*
X81111404Y-40512857D01*
X83128538Y-41579523D02*
X83053300Y-41541428D01*
X82978061Y-41465238D01*
X82978061Y-41274761D01*
X83053300Y-41198571D01*
X83128538Y-41160476D01*
X83279014Y-41122380D01*
X83429490Y-41122380D01*
X83655204Y-41160476D01*
X84558061Y-41617619D01*
X84558061Y-41122380D01*
X82978061Y-40855714D02*
X82978061Y-40322380D01*
X84558061Y-40665238D01*
X85672338Y-41579523D02*
X85597100Y-41541428D01*
X85521861Y-41465238D01*
X85521861Y-41274761D01*
X85597100Y-41198571D01*
X85672338Y-41160476D01*
X85822814Y-41122380D01*
X85973290Y-41122380D01*
X86199004Y-41160476D01*
X87101861Y-41617619D01*
X87101861Y-41122380D01*
X85521861Y-40436666D02*
X85521861Y-40589047D01*
X85597100Y-40665238D01*
X85672338Y-40703333D01*
X85898052Y-40779523D01*
X86199004Y-40817619D01*
X86800909Y-40817619D01*
X86951385Y-40779523D01*
X87026623Y-40741428D01*
X87101861Y-40665238D01*
X87101861Y-40512857D01*
X87026623Y-40436666D01*
X86951385Y-40398571D01*
X86800909Y-40360476D01*
X86424719Y-40360476D01*
X86274242Y-40398571D01*
X86199004Y-40436666D01*
X86123766Y-40512857D01*
X86123766Y-40665238D01*
X86199004Y-40741428D01*
X86274242Y-40779523D01*
X86424719Y-40817619D01*
X88216138Y-41579523D02*
X88140900Y-41541428D01*
X88065661Y-41465238D01*
X88065661Y-41274761D01*
X88140900Y-41198571D01*
X88216138Y-41160476D01*
X88366614Y-41122380D01*
X88517090Y-41122380D01*
X88742804Y-41160476D01*
X89645661Y-41617619D01*
X89645661Y-41122380D01*
X88065661Y-40398571D02*
X88065661Y-40779523D01*
X88818042Y-40817619D01*
X88742804Y-40779523D01*
X88667566Y-40703333D01*
X88667566Y-40512857D01*
X88742804Y-40436666D01*
X88818042Y-40398571D01*
X88968519Y-40360476D01*
X89344709Y-40360476D01*
X89495185Y-40398571D01*
X89570423Y-40436666D01*
X89645661Y-40512857D01*
X89645661Y-40703333D01*
X89570423Y-40779523D01*
X89495185Y-40817619D01*
X90759938Y-41579523D02*
X90684700Y-41541428D01*
X90609461Y-41465238D01*
X90609461Y-41274761D01*
X90684700Y-41198571D01*
X90759938Y-41160476D01*
X90910414Y-41122380D01*
X91060890Y-41122380D01*
X91286604Y-41160476D01*
X92189461Y-41617619D01*
X92189461Y-41122380D01*
X91136128Y-40436666D02*
X92189461Y-40436666D01*
X90534223Y-40627142D02*
X91662795Y-40817619D01*
X91662795Y-40322380D01*
X93303738Y-41579523D02*
X93228500Y-41541428D01*
X93153261Y-41465238D01*
X93153261Y-41274761D01*
X93228500Y-41198571D01*
X93303738Y-41160476D01*
X93454214Y-41122380D01*
X93604690Y-41122380D01*
X93830404Y-41160476D01*
X94733261Y-41617619D01*
X94733261Y-41122380D01*
X93153261Y-40855714D02*
X93153261Y-40360476D01*
X93755166Y-40627142D01*
X93755166Y-40512857D01*
X93830404Y-40436666D01*
X93905642Y-40398571D01*
X94056119Y-40360476D01*
X94432309Y-40360476D01*
X94582785Y-40398571D01*
X94658023Y-40436666D01*
X94733261Y-40512857D01*
X94733261Y-40741428D01*
X94658023Y-40817619D01*
X94582785Y-40855714D01*
X95847538Y-41579523D02*
X95772300Y-41541428D01*
X95697061Y-41465238D01*
X95697061Y-41274761D01*
X95772300Y-41198571D01*
X95847538Y-41160476D01*
X95998014Y-41122380D01*
X96148490Y-41122380D01*
X96374204Y-41160476D01*
X97277061Y-41617619D01*
X97277061Y-41122380D01*
X95847538Y-40817619D02*
X95772300Y-40779523D01*
X95697061Y-40703333D01*
X95697061Y-40512857D01*
X95772300Y-40436666D01*
X95847538Y-40398571D01*
X95998014Y-40360476D01*
X96148490Y-40360476D01*
X96374204Y-40398571D01*
X97277061Y-40855714D01*
X97277061Y-40360476D01*
X98391338Y-41579523D02*
X98316100Y-41541428D01*
X98240861Y-41465238D01*
X98240861Y-41274761D01*
X98316100Y-41198571D01*
X98391338Y-41160476D01*
X98541814Y-41122380D01*
X98692290Y-41122380D01*
X98918004Y-41160476D01*
X99820861Y-41617619D01*
X99820861Y-41122380D01*
X99820861Y-40360476D02*
X99820861Y-40817619D01*
X99820861Y-40589047D02*
X98240861Y-40589047D01*
X98466576Y-40665238D01*
X98617052Y-40741428D01*
X98692290Y-40817619D01*
X51308661Y-49861428D02*
X51308661Y-50318571D01*
X51308661Y-50090000D02*
X49728661Y-50090000D01*
X49954376Y-50166190D01*
X50104852Y-50242380D01*
X50180090Y-50318571D01*
X52272461Y-50356666D02*
X52272461Y-49861428D01*
X52874366Y-50128095D01*
X52874366Y-50013809D01*
X52949604Y-49937619D01*
X53024842Y-49899523D01*
X53175319Y-49861428D01*
X53551509Y-49861428D01*
X53701985Y-49899523D01*
X53777223Y-49937619D01*
X53852461Y-50013809D01*
X53852461Y-50242380D01*
X53777223Y-50318571D01*
X53701985Y-50356666D01*
X54816261Y-49899523D02*
X54816261Y-50280476D01*
X55568642Y-50318571D01*
X55493404Y-50280476D01*
X55418166Y-50204285D01*
X55418166Y-50013809D01*
X55493404Y-49937619D01*
X55568642Y-49899523D01*
X55719119Y-49861428D01*
X56095309Y-49861428D01*
X56245785Y-49899523D01*
X56321023Y-49937619D01*
X56396261Y-50013809D01*
X56396261Y-50204285D01*
X56321023Y-50280476D01*
X56245785Y-50318571D01*
X57360061Y-50356666D02*
X57360061Y-49823333D01*
X58940061Y-50166190D01*
X61483861Y-50242380D02*
X61483861Y-50090000D01*
X61408623Y-50013809D01*
X61333385Y-49975714D01*
X61107671Y-49899523D01*
X60806719Y-49861428D01*
X60204814Y-49861428D01*
X60054338Y-49899523D01*
X59979100Y-49937619D01*
X59903861Y-50013809D01*
X59903861Y-50166190D01*
X59979100Y-50242380D01*
X60054338Y-50280476D01*
X60204814Y-50318571D01*
X60581004Y-50318571D01*
X60731480Y-50280476D01*
X60806719Y-50242380D01*
X60881957Y-50166190D01*
X60881957Y-50013809D01*
X60806719Y-49937619D01*
X60731480Y-49899523D01*
X60581004Y-49861428D01*
X64027661Y-50242380D02*
X64027661Y-50699523D01*
X64027661Y-50470952D02*
X62447661Y-50470952D01*
X62673376Y-50547142D01*
X62823852Y-50623333D01*
X62899090Y-50699523D01*
X64027661Y-49480476D02*
X64027661Y-49937619D01*
X64027661Y-49709047D02*
X62447661Y-49709047D01*
X62673376Y-49785238D01*
X62823852Y-49861428D01*
X62899090Y-49937619D01*
X66571461Y-50242380D02*
X66571461Y-50699523D01*
X66571461Y-50470952D02*
X64991461Y-50470952D01*
X65217176Y-50547142D01*
X65367652Y-50623333D01*
X65442890Y-50699523D01*
X64991461Y-49975714D02*
X64991461Y-49480476D01*
X65593366Y-49747142D01*
X65593366Y-49632857D01*
X65668604Y-49556666D01*
X65743842Y-49518571D01*
X65894319Y-49480476D01*
X66270509Y-49480476D01*
X66420985Y-49518571D01*
X66496223Y-49556666D01*
X66571461Y-49632857D01*
X66571461Y-49861428D01*
X66496223Y-49937619D01*
X66420985Y-49975714D01*
X69115261Y-50242380D02*
X69115261Y-50699523D01*
X69115261Y-50470952D02*
X67535261Y-50470952D01*
X67760976Y-50547142D01*
X67911452Y-50623333D01*
X67986690Y-50699523D01*
X67535261Y-49518571D02*
X67535261Y-49899523D01*
X68287642Y-49937619D01*
X68212404Y-49899523D01*
X68137166Y-49823333D01*
X68137166Y-49632857D01*
X68212404Y-49556666D01*
X68287642Y-49518571D01*
X68438119Y-49480476D01*
X68814309Y-49480476D01*
X68964785Y-49518571D01*
X69040023Y-49556666D01*
X69115261Y-49632857D01*
X69115261Y-49823333D01*
X69040023Y-49899523D01*
X68964785Y-49937619D01*
X71659061Y-50242380D02*
X71659061Y-50699523D01*
X71659061Y-50470952D02*
X70079061Y-50470952D01*
X70304776Y-50547142D01*
X70455252Y-50623333D01*
X70530490Y-50699523D01*
X70079061Y-49975714D02*
X70079061Y-49442380D01*
X71659061Y-49785238D01*
X74202861Y-50242380D02*
X74202861Y-50699523D01*
X74202861Y-50470952D02*
X72622861Y-50470952D01*
X72848576Y-50547142D01*
X72999052Y-50623333D01*
X73074290Y-50699523D01*
X74202861Y-49861428D02*
X74202861Y-49709047D01*
X74127623Y-49632857D01*
X74052385Y-49594761D01*
X73826671Y-49518571D01*
X73525719Y-49480476D01*
X72923814Y-49480476D01*
X72773338Y-49518571D01*
X72698100Y-49556666D01*
X72622861Y-49632857D01*
X72622861Y-49785238D01*
X72698100Y-49861428D01*
X72773338Y-49899523D01*
X72923814Y-49937619D01*
X73300004Y-49937619D01*
X73450480Y-49899523D01*
X73525719Y-49861428D01*
X73600957Y-49785238D01*
X73600957Y-49632857D01*
X73525719Y-49556666D01*
X73450480Y-49518571D01*
X73300004Y-49480476D01*
X75317138Y-50699523D02*
X75241900Y-50661428D01*
X75166661Y-50585238D01*
X75166661Y-50394761D01*
X75241900Y-50318571D01*
X75317138Y-50280476D01*
X75467614Y-50242380D01*
X75618090Y-50242380D01*
X75843804Y-50280476D01*
X76746661Y-50737619D01*
X76746661Y-50242380D01*
X76746661Y-49480476D02*
X76746661Y-49937619D01*
X76746661Y-49709047D02*
X75166661Y-49709047D01*
X75392376Y-49785238D01*
X75542852Y-49861428D01*
X75618090Y-49937619D01*
X77860938Y-50699523D02*
X77785700Y-50661428D01*
X77710461Y-50585238D01*
X77710461Y-50394761D01*
X77785700Y-50318571D01*
X77860938Y-50280476D01*
X78011414Y-50242380D01*
X78161890Y-50242380D01*
X78387604Y-50280476D01*
X79290461Y-50737619D01*
X79290461Y-50242380D01*
X77710461Y-49975714D02*
X77710461Y-49480476D01*
X78312366Y-49747142D01*
X78312366Y-49632857D01*
X78387604Y-49556666D01*
X78462842Y-49518571D01*
X78613319Y-49480476D01*
X78989509Y-49480476D01*
X79139985Y-49518571D01*
X79215223Y-49556666D01*
X79290461Y-49632857D01*
X79290461Y-49861428D01*
X79215223Y-49937619D01*
X79139985Y-49975714D01*
X80404738Y-50699523D02*
X80329500Y-50661428D01*
X80254261Y-50585238D01*
X80254261Y-50394761D01*
X80329500Y-50318571D01*
X80404738Y-50280476D01*
X80555214Y-50242380D01*
X80705690Y-50242380D01*
X80931404Y-50280476D01*
X81834261Y-50737619D01*
X81834261Y-50242380D01*
X80254261Y-49518571D02*
X80254261Y-49899523D01*
X81006642Y-49937619D01*
X80931404Y-49899523D01*
X80856166Y-49823333D01*
X80856166Y-49632857D01*
X80931404Y-49556666D01*
X81006642Y-49518571D01*
X81157119Y-49480476D01*
X81533309Y-49480476D01*
X81683785Y-49518571D01*
X81759023Y-49556666D01*
X81834261Y-49632857D01*
X81834261Y-49823333D01*
X81759023Y-49899523D01*
X81683785Y-49937619D01*
X82948538Y-50699523D02*
X82873300Y-50661428D01*
X82798061Y-50585238D01*
X82798061Y-50394761D01*
X82873300Y-50318571D01*
X82948538Y-50280476D01*
X83099014Y-50242380D01*
X83249490Y-50242380D01*
X83475204Y-50280476D01*
X84378061Y-50737619D01*
X84378061Y-50242380D01*
X82798061Y-49975714D02*
X82798061Y-49442380D01*
X84378061Y-49785238D01*
X85492338Y-50699523D02*
X85417100Y-50661428D01*
X85341861Y-50585238D01*
X85341861Y-50394761D01*
X85417100Y-50318571D01*
X85492338Y-50280476D01*
X85642814Y-50242380D01*
X85793290Y-50242380D01*
X86019004Y-50280476D01*
X86921861Y-50737619D01*
X86921861Y-50242380D01*
X86921861Y-49861428D02*
X86921861Y-49709047D01*
X86846623Y-49632857D01*
X86771385Y-49594761D01*
X86545671Y-49518571D01*
X86244719Y-49480476D01*
X85642814Y-49480476D01*
X85492338Y-49518571D01*
X85417100Y-49556666D01*
X85341861Y-49632857D01*
X85341861Y-49785238D01*
X85417100Y-49861428D01*
X85492338Y-49899523D01*
X85642814Y-49937619D01*
X86019004Y-49937619D01*
X86169480Y-49899523D01*
X86244719Y-49861428D01*
X86319957Y-49785238D01*
X86319957Y-49632857D01*
X86244719Y-49556666D01*
X86169480Y-49518571D01*
X86019004Y-49480476D01*
X87885661Y-50737619D02*
X87885661Y-50242380D01*
X88487566Y-50509047D01*
X88487566Y-50394761D01*
X88562804Y-50318571D01*
X88638042Y-50280476D01*
X88788519Y-50242380D01*
X89164709Y-50242380D01*
X89315185Y-50280476D01*
X89390423Y-50318571D01*
X89465661Y-50394761D01*
X89465661Y-50623333D01*
X89390423Y-50699523D01*
X89315185Y-50737619D01*
X89465661Y-49480476D02*
X89465661Y-49937619D01*
X89465661Y-49709047D02*
X87885661Y-49709047D01*
X88111376Y-49785238D01*
X88261852Y-49861428D01*
X88337090Y-49937619D01*
X90429461Y-50737619D02*
X90429461Y-50242380D01*
X91031366Y-50509047D01*
X91031366Y-50394761D01*
X91106604Y-50318571D01*
X91181842Y-50280476D01*
X91332319Y-50242380D01*
X91708509Y-50242380D01*
X91858985Y-50280476D01*
X91934223Y-50318571D01*
X92009461Y-50394761D01*
X92009461Y-50623333D01*
X91934223Y-50699523D01*
X91858985Y-50737619D01*
X90429461Y-49975714D02*
X90429461Y-49480476D01*
X91031366Y-49747142D01*
X91031366Y-49632857D01*
X91106604Y-49556666D01*
X91181842Y-49518571D01*
X91332319Y-49480476D01*
X91708509Y-49480476D01*
X91858985Y-49518571D01*
X91934223Y-49556666D01*
X92009461Y-49632857D01*
X92009461Y-49861428D01*
X91934223Y-49937619D01*
X91858985Y-49975714D01*
X92973261Y-50737619D02*
X92973261Y-50242380D01*
X93575166Y-50509047D01*
X93575166Y-50394761D01*
X93650404Y-50318571D01*
X93725642Y-50280476D01*
X93876119Y-50242380D01*
X94252309Y-50242380D01*
X94402785Y-50280476D01*
X94478023Y-50318571D01*
X94553261Y-50394761D01*
X94553261Y-50623333D01*
X94478023Y-50699523D01*
X94402785Y-50737619D01*
X92973261Y-49518571D02*
X92973261Y-49899523D01*
X93725642Y-49937619D01*
X93650404Y-49899523D01*
X93575166Y-49823333D01*
X93575166Y-49632857D01*
X93650404Y-49556666D01*
X93725642Y-49518571D01*
X93876119Y-49480476D01*
X94252309Y-49480476D01*
X94402785Y-49518571D01*
X94478023Y-49556666D01*
X94553261Y-49632857D01*
X94553261Y-49823333D01*
X94478023Y-49899523D01*
X94402785Y-49937619D01*
X95517061Y-50737619D02*
X95517061Y-50242380D01*
X96118966Y-50509047D01*
X96118966Y-50394761D01*
X96194204Y-50318571D01*
X96269442Y-50280476D01*
X96419919Y-50242380D01*
X96796109Y-50242380D01*
X96946585Y-50280476D01*
X97021823Y-50318571D01*
X97097061Y-50394761D01*
X97097061Y-50623333D01*
X97021823Y-50699523D01*
X96946585Y-50737619D01*
X95517061Y-49975714D02*
X95517061Y-49442380D01*
X97097061Y-49785238D01*
X98060861Y-50737619D02*
X98060861Y-50242380D01*
X98662766Y-50509047D01*
X98662766Y-50394761D01*
X98738004Y-50318571D01*
X98813242Y-50280476D01*
X98963719Y-50242380D01*
X99339909Y-50242380D01*
X99490385Y-50280476D01*
X99565623Y-50318571D01*
X99640861Y-50394761D01*
X99640861Y-50623333D01*
X99565623Y-50699523D01*
X99490385Y-50737619D01*
X99640861Y-49861428D02*
X99640861Y-49709047D01*
X99565623Y-49632857D01*
X99490385Y-49594761D01*
X99264671Y-49518571D01*
X98963719Y-49480476D01*
X98361814Y-49480476D01*
X98211338Y-49518571D01*
X98136100Y-49556666D01*
X98060861Y-49632857D01*
X98060861Y-49785238D01*
X98136100Y-49861428D01*
X98211338Y-49899523D01*
X98361814Y-49937619D01*
X98738004Y-49937619D01*
X98888480Y-49899523D01*
X98963719Y-49861428D01*
X99038957Y-49785238D01*
X99038957Y-49632857D01*
X98963719Y-49556666D01*
X98888480Y-49518571D01*
X98738004Y-49480476D01*
X50119138Y-43228571D02*
X50043900Y-43190476D01*
X49968661Y-43114285D01*
X49968661Y-42923809D01*
X50043900Y-42847619D01*
X50119138Y-42809523D01*
X50269614Y-42771428D01*
X50420090Y-42771428D01*
X50645804Y-42809523D01*
X51548661Y-43266666D01*
X51548661Y-42771428D01*
X53039128Y-42847619D02*
X54092461Y-42847619D01*
X52437223Y-43038095D02*
X53565795Y-43228571D01*
X53565795Y-42733333D01*
X55056261Y-42847619D02*
X55056261Y-43000000D01*
X55131500Y-43076190D01*
X55206738Y-43114285D01*
X55432452Y-43190476D01*
X55733404Y-43228571D01*
X56335309Y-43228571D01*
X56485785Y-43190476D01*
X56561023Y-43152380D01*
X56636261Y-43076190D01*
X56636261Y-42923809D01*
X56561023Y-42847619D01*
X56485785Y-42809523D01*
X56335309Y-42771428D01*
X55959119Y-42771428D01*
X55808642Y-42809523D01*
X55733404Y-42847619D01*
X55658166Y-42923809D01*
X55658166Y-43076190D01*
X55733404Y-43152380D01*
X55808642Y-43190476D01*
X55959119Y-43228571D01*
X58277204Y-43076190D02*
X58201966Y-43152380D01*
X58126728Y-43190476D01*
X57976252Y-43228571D01*
X57901014Y-43228571D01*
X57750538Y-43190476D01*
X57675300Y-43152380D01*
X57600061Y-43076190D01*
X57600061Y-42923809D01*
X57675300Y-42847619D01*
X57750538Y-42809523D01*
X57901014Y-42771428D01*
X57976252Y-42771428D01*
X58126728Y-42809523D01*
X58201966Y-42847619D01*
X58277204Y-42923809D01*
X58277204Y-43076190D01*
X58352442Y-43152380D01*
X58427680Y-43190476D01*
X58578157Y-43228571D01*
X58879109Y-43228571D01*
X59029585Y-43190476D01*
X59104823Y-43152380D01*
X59180061Y-43076190D01*
X59180061Y-42923809D01*
X59104823Y-42847619D01*
X59029585Y-42809523D01*
X58879109Y-42771428D01*
X58578157Y-42771428D01*
X58427680Y-42809523D01*
X58352442Y-42847619D01*
X58277204Y-42923809D01*
X61723861Y-43152380D02*
X61723861Y-43609523D01*
X61723861Y-43380952D02*
X60143861Y-43380952D01*
X60369576Y-43457142D01*
X60520052Y-43533333D01*
X60595290Y-43609523D01*
X60143861Y-42657142D02*
X60143861Y-42580952D01*
X60219100Y-42504761D01*
X60294338Y-42466666D01*
X60444814Y-42428571D01*
X60745766Y-42390476D01*
X61121957Y-42390476D01*
X61422909Y-42428571D01*
X61573385Y-42466666D01*
X61648623Y-42504761D01*
X61723861Y-42580952D01*
X61723861Y-42657142D01*
X61648623Y-42733333D01*
X61573385Y-42771428D01*
X61422909Y-42809523D01*
X61121957Y-42847619D01*
X60745766Y-42847619D01*
X60444814Y-42809523D01*
X60294338Y-42771428D01*
X60219100Y-42733333D01*
X60143861Y-42657142D01*
X64267661Y-43152380D02*
X64267661Y-43609523D01*
X64267661Y-43380952D02*
X62687661Y-43380952D01*
X62913376Y-43457142D01*
X63063852Y-43533333D01*
X63139090Y-43609523D01*
X62838138Y-42847619D02*
X62762900Y-42809523D01*
X62687661Y-42733333D01*
X62687661Y-42542857D01*
X62762900Y-42466666D01*
X62838138Y-42428571D01*
X62988614Y-42390476D01*
X63139090Y-42390476D01*
X63364804Y-42428571D01*
X64267661Y-42885714D01*
X64267661Y-42390476D01*
X66811461Y-43152380D02*
X66811461Y-43609523D01*
X66811461Y-43380952D02*
X65231461Y-43380952D01*
X65457176Y-43457142D01*
X65607652Y-43533333D01*
X65682890Y-43609523D01*
X65758128Y-42466666D02*
X66811461Y-42466666D01*
X65156223Y-42657142D02*
X66284795Y-42847619D01*
X66284795Y-42352380D01*
X69355261Y-43152380D02*
X69355261Y-43609523D01*
X69355261Y-43380952D02*
X67775261Y-43380952D01*
X68000976Y-43457142D01*
X68151452Y-43533333D01*
X68226690Y-43609523D01*
X67775261Y-42466666D02*
X67775261Y-42619047D01*
X67850500Y-42695238D01*
X67925738Y-42733333D01*
X68151452Y-42809523D01*
X68452404Y-42847619D01*
X69054309Y-42847619D01*
X69204785Y-42809523D01*
X69280023Y-42771428D01*
X69355261Y-42695238D01*
X69355261Y-42542857D01*
X69280023Y-42466666D01*
X69204785Y-42428571D01*
X69054309Y-42390476D01*
X68678119Y-42390476D01*
X68527642Y-42428571D01*
X68452404Y-42466666D01*
X68377166Y-42542857D01*
X68377166Y-42695238D01*
X68452404Y-42771428D01*
X68527642Y-42809523D01*
X68678119Y-42847619D01*
X71899061Y-43152380D02*
X71899061Y-43609523D01*
X71899061Y-43380952D02*
X70319061Y-43380952D01*
X70544776Y-43457142D01*
X70695252Y-43533333D01*
X70770490Y-43609523D01*
X70996204Y-42695238D02*
X70920966Y-42771428D01*
X70845728Y-42809523D01*
X70695252Y-42847619D01*
X70620014Y-42847619D01*
X70469538Y-42809523D01*
X70394300Y-42771428D01*
X70319061Y-42695238D01*
X70319061Y-42542857D01*
X70394300Y-42466666D01*
X70469538Y-42428571D01*
X70620014Y-42390476D01*
X70695252Y-42390476D01*
X70845728Y-42428571D01*
X70920966Y-42466666D01*
X70996204Y-42542857D01*
X70996204Y-42695238D01*
X71071442Y-42771428D01*
X71146680Y-42809523D01*
X71297157Y-42847619D01*
X71598109Y-42847619D01*
X71748585Y-42809523D01*
X71823823Y-42771428D01*
X71899061Y-42695238D01*
X71899061Y-42542857D01*
X71823823Y-42466666D01*
X71748585Y-42428571D01*
X71598109Y-42390476D01*
X71297157Y-42390476D01*
X71146680Y-42428571D01*
X71071442Y-42466666D01*
X70996204Y-42542857D01*
X73013338Y-43609523D02*
X72938100Y-43571428D01*
X72862861Y-43495238D01*
X72862861Y-43304761D01*
X72938100Y-43228571D01*
X73013338Y-43190476D01*
X73163814Y-43152380D01*
X73314290Y-43152380D01*
X73540004Y-43190476D01*
X74442861Y-43647619D01*
X74442861Y-43152380D01*
X72862861Y-42657142D02*
X72862861Y-42580952D01*
X72938100Y-42504761D01*
X73013338Y-42466666D01*
X73163814Y-42428571D01*
X73464766Y-42390476D01*
X73840957Y-42390476D01*
X74141909Y-42428571D01*
X74292385Y-42466666D01*
X74367623Y-42504761D01*
X74442861Y-42580952D01*
X74442861Y-42657142D01*
X74367623Y-42733333D01*
X74292385Y-42771428D01*
X74141909Y-42809523D01*
X73840957Y-42847619D01*
X73464766Y-42847619D01*
X73163814Y-42809523D01*
X73013338Y-42771428D01*
X72938100Y-42733333D01*
X72862861Y-42657142D01*
X75557138Y-43609523D02*
X75481900Y-43571428D01*
X75406661Y-43495238D01*
X75406661Y-43304761D01*
X75481900Y-43228571D01*
X75557138Y-43190476D01*
X75707614Y-43152380D01*
X75858090Y-43152380D01*
X76083804Y-43190476D01*
X76986661Y-43647619D01*
X76986661Y-43152380D01*
X75557138Y-42847619D02*
X75481900Y-42809523D01*
X75406661Y-42733333D01*
X75406661Y-42542857D01*
X75481900Y-42466666D01*
X75557138Y-42428571D01*
X75707614Y-42390476D01*
X75858090Y-42390476D01*
X76083804Y-42428571D01*
X76986661Y-42885714D01*
X76986661Y-42390476D01*
X78100938Y-43609523D02*
X78025700Y-43571428D01*
X77950461Y-43495238D01*
X77950461Y-43304761D01*
X78025700Y-43228571D01*
X78100938Y-43190476D01*
X78251414Y-43152380D01*
X78401890Y-43152380D01*
X78627604Y-43190476D01*
X79530461Y-43647619D01*
X79530461Y-43152380D01*
X78477128Y-42466666D02*
X79530461Y-42466666D01*
X77875223Y-42657142D02*
X79003795Y-42847619D01*
X79003795Y-42352380D01*
X80644738Y-43609523D02*
X80569500Y-43571428D01*
X80494261Y-43495238D01*
X80494261Y-43304761D01*
X80569500Y-43228571D01*
X80644738Y-43190476D01*
X80795214Y-43152380D01*
X80945690Y-43152380D01*
X81171404Y-43190476D01*
X82074261Y-43647619D01*
X82074261Y-43152380D01*
X80494261Y-42466666D02*
X80494261Y-42619047D01*
X80569500Y-42695238D01*
X80644738Y-42733333D01*
X80870452Y-42809523D01*
X81171404Y-42847619D01*
X81773309Y-42847619D01*
X81923785Y-42809523D01*
X81999023Y-42771428D01*
X82074261Y-42695238D01*
X82074261Y-42542857D01*
X81999023Y-42466666D01*
X81923785Y-42428571D01*
X81773309Y-42390476D01*
X81397119Y-42390476D01*
X81246642Y-42428571D01*
X81171404Y-42466666D01*
X81096166Y-42542857D01*
X81096166Y-42695238D01*
X81171404Y-42771428D01*
X81246642Y-42809523D01*
X81397119Y-42847619D01*
X83188538Y-43609523D02*
X83113300Y-43571428D01*
X83038061Y-43495238D01*
X83038061Y-43304761D01*
X83113300Y-43228571D01*
X83188538Y-43190476D01*
X83339014Y-43152380D01*
X83489490Y-43152380D01*
X83715204Y-43190476D01*
X84618061Y-43647619D01*
X84618061Y-43152380D01*
X83715204Y-42695238D02*
X83639966Y-42771428D01*
X83564728Y-42809523D01*
X83414252Y-42847619D01*
X83339014Y-42847619D01*
X83188538Y-42809523D01*
X83113300Y-42771428D01*
X83038061Y-42695238D01*
X83038061Y-42542857D01*
X83113300Y-42466666D01*
X83188538Y-42428571D01*
X83339014Y-42390476D01*
X83414252Y-42390476D01*
X83564728Y-42428571D01*
X83639966Y-42466666D01*
X83715204Y-42542857D01*
X83715204Y-42695238D01*
X83790442Y-42771428D01*
X83865680Y-42809523D01*
X84016157Y-42847619D01*
X84317109Y-42847619D01*
X84467585Y-42809523D01*
X84542823Y-42771428D01*
X84618061Y-42695238D01*
X84618061Y-42542857D01*
X84542823Y-42466666D01*
X84467585Y-42428571D01*
X84317109Y-42390476D01*
X84016157Y-42390476D01*
X83865680Y-42428571D01*
X83790442Y-42466666D01*
X83715204Y-42542857D01*
X85581861Y-43647619D02*
X85581861Y-43152380D01*
X86183766Y-43419047D01*
X86183766Y-43304761D01*
X86259004Y-43228571D01*
X86334242Y-43190476D01*
X86484719Y-43152380D01*
X86860909Y-43152380D01*
X87011385Y-43190476D01*
X87086623Y-43228571D01*
X87161861Y-43304761D01*
X87161861Y-43533333D01*
X87086623Y-43609523D01*
X87011385Y-43647619D01*
X85581861Y-42657142D02*
X85581861Y-42580952D01*
X85657100Y-42504761D01*
X85732338Y-42466666D01*
X85882814Y-42428571D01*
X86183766Y-42390476D01*
X86559957Y-42390476D01*
X86860909Y-42428571D01*
X87011385Y-42466666D01*
X87086623Y-42504761D01*
X87161861Y-42580952D01*
X87161861Y-42657142D01*
X87086623Y-42733333D01*
X87011385Y-42771428D01*
X86860909Y-42809523D01*
X86559957Y-42847619D01*
X86183766Y-42847619D01*
X85882814Y-42809523D01*
X85732338Y-42771428D01*
X85657100Y-42733333D01*
X85581861Y-42657142D01*
X88125661Y-43647619D02*
X88125661Y-43152380D01*
X88727566Y-43419047D01*
X88727566Y-43304761D01*
X88802804Y-43228571D01*
X88878042Y-43190476D01*
X89028519Y-43152380D01*
X89404709Y-43152380D01*
X89555185Y-43190476D01*
X89630423Y-43228571D01*
X89705661Y-43304761D01*
X89705661Y-43533333D01*
X89630423Y-43609523D01*
X89555185Y-43647619D01*
X88276138Y-42847619D02*
X88200900Y-42809523D01*
X88125661Y-42733333D01*
X88125661Y-42542857D01*
X88200900Y-42466666D01*
X88276138Y-42428571D01*
X88426614Y-42390476D01*
X88577090Y-42390476D01*
X88802804Y-42428571D01*
X89705661Y-42885714D01*
X89705661Y-42390476D01*
X90669461Y-43647619D02*
X90669461Y-43152380D01*
X91271366Y-43419047D01*
X91271366Y-43304761D01*
X91346604Y-43228571D01*
X91421842Y-43190476D01*
X91572319Y-43152380D01*
X91948509Y-43152380D01*
X92098985Y-43190476D01*
X92174223Y-43228571D01*
X92249461Y-43304761D01*
X92249461Y-43533333D01*
X92174223Y-43609523D01*
X92098985Y-43647619D01*
X91196128Y-42466666D02*
X92249461Y-42466666D01*
X90594223Y-42657142D02*
X91722795Y-42847619D01*
X91722795Y-42352380D01*
X93213261Y-43647619D02*
X93213261Y-43152380D01*
X93815166Y-43419047D01*
X93815166Y-43304761D01*
X93890404Y-43228571D01*
X93965642Y-43190476D01*
X94116119Y-43152380D01*
X94492309Y-43152380D01*
X94642785Y-43190476D01*
X94718023Y-43228571D01*
X94793261Y-43304761D01*
X94793261Y-43533333D01*
X94718023Y-43609523D01*
X94642785Y-43647619D01*
X93213261Y-42466666D02*
X93213261Y-42619047D01*
X93288500Y-42695238D01*
X93363738Y-42733333D01*
X93589452Y-42809523D01*
X93890404Y-42847619D01*
X94492309Y-42847619D01*
X94642785Y-42809523D01*
X94718023Y-42771428D01*
X94793261Y-42695238D01*
X94793261Y-42542857D01*
X94718023Y-42466666D01*
X94642785Y-42428571D01*
X94492309Y-42390476D01*
X94116119Y-42390476D01*
X93965642Y-42428571D01*
X93890404Y-42466666D01*
X93815166Y-42542857D01*
X93815166Y-42695238D01*
X93890404Y-42771428D01*
X93965642Y-42809523D01*
X94116119Y-42847619D01*
X95757061Y-43647619D02*
X95757061Y-43152380D01*
X96358966Y-43419047D01*
X96358966Y-43304761D01*
X96434204Y-43228571D01*
X96509442Y-43190476D01*
X96659919Y-43152380D01*
X97036109Y-43152380D01*
X97186585Y-43190476D01*
X97261823Y-43228571D01*
X97337061Y-43304761D01*
X97337061Y-43533333D01*
X97261823Y-43609523D01*
X97186585Y-43647619D01*
X96434204Y-42695238D02*
X96358966Y-42771428D01*
X96283728Y-42809523D01*
X96133252Y-42847619D01*
X96058014Y-42847619D01*
X95907538Y-42809523D01*
X95832300Y-42771428D01*
X95757061Y-42695238D01*
X95757061Y-42542857D01*
X95832300Y-42466666D01*
X95907538Y-42428571D01*
X96058014Y-42390476D01*
X96133252Y-42390476D01*
X96283728Y-42428571D01*
X96358966Y-42466666D01*
X96434204Y-42542857D01*
X96434204Y-42695238D01*
X96509442Y-42771428D01*
X96584680Y-42809523D01*
X96735157Y-42847619D01*
X97036109Y-42847619D01*
X97186585Y-42809523D01*
X97261823Y-42771428D01*
X97337061Y-42695238D01*
X97337061Y-42542857D01*
X97261823Y-42466666D01*
X97186585Y-42428571D01*
X97036109Y-42390476D01*
X96735157Y-42390476D01*
X96584680Y-42428571D01*
X96509442Y-42466666D01*
X96434204Y-42542857D01*
X98827528Y-43228571D02*
X99880861Y-43228571D01*
X98225623Y-43419047D02*
X99354195Y-43609523D01*
X99354195Y-43114285D01*
X98300861Y-42657142D02*
X98300861Y-42580952D01*
X98376100Y-42504761D01*
X98451338Y-42466666D01*
X98601814Y-42428571D01*
X98902766Y-42390476D01*
X99278957Y-42390476D01*
X99579909Y-42428571D01*
X99730385Y-42466666D01*
X99805623Y-42504761D01*
X99880861Y-42580952D01*
X99880861Y-42657142D01*
X99805623Y-42733333D01*
X99730385Y-42771428D01*
X99579909Y-42809523D01*
X99278957Y-42847619D01*
X98902766Y-42847619D01*
X98601814Y-42809523D01*
X98451338Y-42771428D01*
X98376100Y-42733333D01*
X98300861Y-42657142D01*
X51448661Y-51971428D02*
X51448661Y-52428571D01*
X51448661Y-52200000D02*
X49868661Y-52200000D01*
X50094376Y-52276190D01*
X50244852Y-52352380D01*
X50320090Y-52428571D01*
X52562938Y-52428571D02*
X52487700Y-52390476D01*
X52412461Y-52314285D01*
X52412461Y-52123809D01*
X52487700Y-52047619D01*
X52562938Y-52009523D01*
X52713414Y-51971428D01*
X52863890Y-51971428D01*
X53089604Y-52009523D01*
X53992461Y-52466666D01*
X53992461Y-51971428D01*
X54956261Y-52466666D02*
X54956261Y-51971428D01*
X55558166Y-52238095D01*
X55558166Y-52123809D01*
X55633404Y-52047619D01*
X55708642Y-52009523D01*
X55859119Y-51971428D01*
X56235309Y-51971428D01*
X56385785Y-52009523D01*
X56461023Y-52047619D01*
X56536261Y-52123809D01*
X56536261Y-52352380D01*
X56461023Y-52428571D01*
X56385785Y-52466666D01*
X58026728Y-52047619D02*
X59080061Y-52047619D01*
X57424823Y-52238095D02*
X58553395Y-52428571D01*
X58553395Y-51933333D01*
X60043861Y-52009523D02*
X60043861Y-52390476D01*
X60796242Y-52428571D01*
X60721004Y-52390476D01*
X60645766Y-52314285D01*
X60645766Y-52123809D01*
X60721004Y-52047619D01*
X60796242Y-52009523D01*
X60946719Y-51971428D01*
X61322909Y-51971428D01*
X61473385Y-52009523D01*
X61548623Y-52047619D01*
X61623861Y-52123809D01*
X61623861Y-52314285D01*
X61548623Y-52390476D01*
X61473385Y-52428571D01*
X62587661Y-52047619D02*
X62587661Y-52200000D01*
X62662900Y-52276190D01*
X62738138Y-52314285D01*
X62963852Y-52390476D01*
X63264804Y-52428571D01*
X63866709Y-52428571D01*
X64017185Y-52390476D01*
X64092423Y-52352380D01*
X64167661Y-52276190D01*
X64167661Y-52123809D01*
X64092423Y-52047619D01*
X64017185Y-52009523D01*
X63866709Y-51971428D01*
X63490519Y-51971428D01*
X63340042Y-52009523D01*
X63264804Y-52047619D01*
X63189566Y-52123809D01*
X63189566Y-52276190D01*
X63264804Y-52352380D01*
X63340042Y-52390476D01*
X63490519Y-52428571D01*
X65131461Y-52466666D02*
X65131461Y-51933333D01*
X66711461Y-52276190D01*
X68352404Y-52276190D02*
X68277166Y-52352380D01*
X68201928Y-52390476D01*
X68051452Y-52428571D01*
X67976214Y-52428571D01*
X67825738Y-52390476D01*
X67750500Y-52352380D01*
X67675261Y-52276190D01*
X67675261Y-52123809D01*
X67750500Y-52047619D01*
X67825738Y-52009523D01*
X67976214Y-51971428D01*
X68051452Y-51971428D01*
X68201928Y-52009523D01*
X68277166Y-52047619D01*
X68352404Y-52123809D01*
X68352404Y-52276190D01*
X68427642Y-52352380D01*
X68502880Y-52390476D01*
X68653357Y-52428571D01*
X68954309Y-52428571D01*
X69104785Y-52390476D01*
X69180023Y-52352380D01*
X69255261Y-52276190D01*
X69255261Y-52123809D01*
X69180023Y-52047619D01*
X69104785Y-52009523D01*
X68954309Y-51971428D01*
X68653357Y-51971428D01*
X68502880Y-52009523D01*
X68427642Y-52047619D01*
X68352404Y-52123809D01*
X71799061Y-52352380D02*
X71799061Y-52200000D01*
X71723823Y-52123809D01*
X71648585Y-52085714D01*
X71422871Y-52009523D01*
X71121919Y-51971428D01*
X70520014Y-51971428D01*
X70369538Y-52009523D01*
X70294300Y-52047619D01*
X70219061Y-52123809D01*
X70219061Y-52276190D01*
X70294300Y-52352380D01*
X70369538Y-52390476D01*
X70520014Y-52428571D01*
X70896204Y-52428571D01*
X71046680Y-52390476D01*
X71121919Y-52352380D01*
X71197157Y-52276190D01*
X71197157Y-52123809D01*
X71121919Y-52047619D01*
X71046680Y-52009523D01*
X70896204Y-51971428D01*
X74342861Y-52352380D02*
X74342861Y-52809523D01*
X74342861Y-52580952D02*
X72762861Y-52580952D01*
X72988576Y-52657142D01*
X73139052Y-52733333D01*
X73214290Y-52809523D01*
X72762861Y-51857142D02*
X72762861Y-51780952D01*
X72838100Y-51704761D01*
X72913338Y-51666666D01*
X73063814Y-51628571D01*
X73364766Y-51590476D01*
X73740957Y-51590476D01*
X74041909Y-51628571D01*
X74192385Y-51666666D01*
X74267623Y-51704761D01*
X74342861Y-51780952D01*
X74342861Y-51857142D01*
X74267623Y-51933333D01*
X74192385Y-51971428D01*
X74041909Y-52009523D01*
X73740957Y-52047619D01*
X73364766Y-52047619D01*
X73063814Y-52009523D01*
X72913338Y-51971428D01*
X72838100Y-51933333D01*
X72762861Y-51857142D01*
X76886661Y-52352380D02*
X76886661Y-52809523D01*
X76886661Y-52580952D02*
X75306661Y-52580952D01*
X75532376Y-52657142D01*
X75682852Y-52733333D01*
X75758090Y-52809523D01*
X76886661Y-51590476D02*
X76886661Y-52047619D01*
X76886661Y-51819047D02*
X75306661Y-51819047D01*
X75532376Y-51895238D01*
X75682852Y-51971428D01*
X75758090Y-52047619D01*
X79430461Y-52352380D02*
X79430461Y-52809523D01*
X79430461Y-52580952D02*
X77850461Y-52580952D01*
X78076176Y-52657142D01*
X78226652Y-52733333D01*
X78301890Y-52809523D01*
X78000938Y-52047619D02*
X77925700Y-52009523D01*
X77850461Y-51933333D01*
X77850461Y-51742857D01*
X77925700Y-51666666D01*
X78000938Y-51628571D01*
X78151414Y-51590476D01*
X78301890Y-51590476D01*
X78527604Y-51628571D01*
X79430461Y-52085714D01*
X79430461Y-51590476D01*
X81974261Y-52352380D02*
X81974261Y-52809523D01*
X81974261Y-52580952D02*
X80394261Y-52580952D01*
X80619976Y-52657142D01*
X80770452Y-52733333D01*
X80845690Y-52809523D01*
X80394261Y-52085714D02*
X80394261Y-51590476D01*
X80996166Y-51857142D01*
X80996166Y-51742857D01*
X81071404Y-51666666D01*
X81146642Y-51628571D01*
X81297119Y-51590476D01*
X81673309Y-51590476D01*
X81823785Y-51628571D01*
X81899023Y-51666666D01*
X81974261Y-51742857D01*
X81974261Y-51971428D01*
X81899023Y-52047619D01*
X81823785Y-52085714D01*
X84518061Y-52352380D02*
X84518061Y-52809523D01*
X84518061Y-52580952D02*
X82938061Y-52580952D01*
X83163776Y-52657142D01*
X83314252Y-52733333D01*
X83389490Y-52809523D01*
X83464728Y-51666666D02*
X84518061Y-51666666D01*
X82862823Y-51857142D02*
X83991395Y-52047619D01*
X83991395Y-51552380D01*
X87061861Y-52352380D02*
X87061861Y-52809523D01*
X87061861Y-52580952D02*
X85481861Y-52580952D01*
X85707576Y-52657142D01*
X85858052Y-52733333D01*
X85933290Y-52809523D01*
X85481861Y-51628571D02*
X85481861Y-52009523D01*
X86234242Y-52047619D01*
X86159004Y-52009523D01*
X86083766Y-51933333D01*
X86083766Y-51742857D01*
X86159004Y-51666666D01*
X86234242Y-51628571D01*
X86384719Y-51590476D01*
X86760909Y-51590476D01*
X86911385Y-51628571D01*
X86986623Y-51666666D01*
X87061861Y-51742857D01*
X87061861Y-51933333D01*
X86986623Y-52009523D01*
X86911385Y-52047619D01*
X89605661Y-52352380D02*
X89605661Y-52809523D01*
X89605661Y-52580952D02*
X88025661Y-52580952D01*
X88251376Y-52657142D01*
X88401852Y-52733333D01*
X88477090Y-52809523D01*
X88025661Y-51666666D02*
X88025661Y-51819047D01*
X88100900Y-51895238D01*
X88176138Y-51933333D01*
X88401852Y-52009523D01*
X88702804Y-52047619D01*
X89304709Y-52047619D01*
X89455185Y-52009523D01*
X89530423Y-51971428D01*
X89605661Y-51895238D01*
X89605661Y-51742857D01*
X89530423Y-51666666D01*
X89455185Y-51628571D01*
X89304709Y-51590476D01*
X88928519Y-51590476D01*
X88778042Y-51628571D01*
X88702804Y-51666666D01*
X88627566Y-51742857D01*
X88627566Y-51895238D01*
X88702804Y-51971428D01*
X88778042Y-52009523D01*
X88928519Y-52047619D01*
X92149461Y-52352380D02*
X92149461Y-52809523D01*
X92149461Y-52580952D02*
X90569461Y-52580952D01*
X90795176Y-52657142D01*
X90945652Y-52733333D01*
X91020890Y-52809523D01*
X90569461Y-52085714D02*
X90569461Y-51552380D01*
X92149461Y-51895238D01*
X94693261Y-52352380D02*
X94693261Y-52809523D01*
X94693261Y-52580952D02*
X93113261Y-52580952D01*
X93338976Y-52657142D01*
X93489452Y-52733333D01*
X93564690Y-52809523D01*
X93790404Y-51895238D02*
X93715166Y-51971428D01*
X93639928Y-52009523D01*
X93489452Y-52047619D01*
X93414214Y-52047619D01*
X93263738Y-52009523D01*
X93188500Y-51971428D01*
X93113261Y-51895238D01*
X93113261Y-51742857D01*
X93188500Y-51666666D01*
X93263738Y-51628571D01*
X93414214Y-51590476D01*
X93489452Y-51590476D01*
X93639928Y-51628571D01*
X93715166Y-51666666D01*
X93790404Y-51742857D01*
X93790404Y-51895238D01*
X93865642Y-51971428D01*
X93940880Y-52009523D01*
X94091357Y-52047619D01*
X94392309Y-52047619D01*
X94542785Y-52009523D01*
X94618023Y-51971428D01*
X94693261Y-51895238D01*
X94693261Y-51742857D01*
X94618023Y-51666666D01*
X94542785Y-51628571D01*
X94392309Y-51590476D01*
X94091357Y-51590476D01*
X93940880Y-51628571D01*
X93865642Y-51666666D01*
X93790404Y-51742857D01*
X97237061Y-52352380D02*
X97237061Y-52809523D01*
X97237061Y-52580952D02*
X95657061Y-52580952D01*
X95882776Y-52657142D01*
X96033252Y-52733333D01*
X96108490Y-52809523D01*
X97237061Y-51971428D02*
X97237061Y-51819047D01*
X97161823Y-51742857D01*
X97086585Y-51704761D01*
X96860871Y-51628571D01*
X96559919Y-51590476D01*
X95958014Y-51590476D01*
X95807538Y-51628571D01*
X95732300Y-51666666D01*
X95657061Y-51742857D01*
X95657061Y-51895238D01*
X95732300Y-51971428D01*
X95807538Y-52009523D01*
X95958014Y-52047619D01*
X96334204Y-52047619D01*
X96484680Y-52009523D01*
X96559919Y-51971428D01*
X96635157Y-51895238D01*
X96635157Y-51742857D01*
X96559919Y-51666666D01*
X96484680Y-51628571D01*
X96334204Y-51590476D01*
X98351338Y-52809523D02*
X98276100Y-52771428D01*
X98200861Y-52695238D01*
X98200861Y-52504761D01*
X98276100Y-52428571D01*
X98351338Y-52390476D01*
X98501814Y-52352380D01*
X98652290Y-52352380D01*
X98878004Y-52390476D01*
X99780861Y-52847619D01*
X99780861Y-52352380D01*
X98200861Y-51857142D02*
X98200861Y-51780952D01*
X98276100Y-51704761D01*
X98351338Y-51666666D01*
X98501814Y-51628571D01*
X98802766Y-51590476D01*
X99178957Y-51590476D01*
X99479909Y-51628571D01*
X99630385Y-51666666D01*
X99705623Y-51704761D01*
X99780861Y-51780952D01*
X99780861Y-51857142D01*
X99705623Y-51933333D01*
X99630385Y-51971428D01*
X99479909Y-52009523D01*
X99178957Y-52047619D01*
X98802766Y-52047619D01*
X98501814Y-52009523D01*
X98351338Y-51971428D01*
X98276100Y-51933333D01*
X98200861Y-51857142D01*
%TO.C,REF\u002A\u002A*%
X50412380Y-35013333D02*
X49936190Y-35346666D01*
X50412380Y-35584761D02*
X49412380Y-35584761D01*
X49412380Y-35203809D01*
X49460000Y-35108571D01*
X49507619Y-35060952D01*
X49602857Y-35013333D01*
X49745714Y-35013333D01*
X49840952Y-35060952D01*
X49888571Y-35108571D01*
X49936190Y-35203809D01*
X49936190Y-35584761D01*
X49888571Y-34584761D02*
X49888571Y-34251428D01*
X50412380Y-34108571D02*
X50412380Y-34584761D01*
X49412380Y-34584761D01*
X49412380Y-34108571D01*
X49888571Y-33346666D02*
X49888571Y-33680000D01*
X50412380Y-33680000D02*
X49412380Y-33680000D01*
X49412380Y-33203809D01*
X49412380Y-32680000D02*
X49650476Y-32680000D01*
X49555238Y-32918095D02*
X49650476Y-32680000D01*
X49555238Y-32441904D01*
X49840952Y-32822857D02*
X49650476Y-32680000D01*
X49840952Y-32537142D01*
X49412380Y-31918095D02*
X49650476Y-31918095D01*
X49555238Y-32156190D02*
X49650476Y-31918095D01*
X49555238Y-31680000D01*
X49840952Y-32060952D02*
X49650476Y-31918095D01*
X49840952Y-31775238D01*
%TO.C,U1*%
X37276086Y-51502630D02*
X37276086Y-52312154D01*
X37323705Y-52407392D01*
X37371324Y-52455011D01*
X37466562Y-52502630D01*
X37657038Y-52502630D01*
X37752276Y-52455011D01*
X37799895Y-52407392D01*
X37847514Y-52312154D01*
X37847514Y-51502630D01*
X38847514Y-52502630D02*
X38276086Y-52502630D01*
X38561800Y-52502630D02*
X38561800Y-51502630D01*
X38466562Y-51645488D01*
X38371324Y-51740726D01*
X38276086Y-51788345D01*
%TO.C,U2*%
X46026086Y-55821380D02*
X46026086Y-56630904D01*
X46073705Y-56726142D01*
X46121324Y-56773761D01*
X46216562Y-56821380D01*
X46407038Y-56821380D01*
X46502276Y-56773761D01*
X46549895Y-56726142D01*
X46597514Y-56630904D01*
X46597514Y-55821380D01*
X47026086Y-55916619D02*
X47073705Y-55869000D01*
X47168943Y-55821380D01*
X47407038Y-55821380D01*
X47502276Y-55869000D01*
X47549895Y-55916619D01*
X47597514Y-56011857D01*
X47597514Y-56107095D01*
X47549895Y-56249952D01*
X46978467Y-56821380D01*
X47597514Y-56821380D01*
%TO.C,H20*%
X36799895Y-50371380D02*
X36799895Y-49371380D01*
X36799895Y-49847571D02*
X37371324Y-49847571D01*
X37371324Y-50371380D02*
X37371324Y-49371380D01*
X37799895Y-49466619D02*
X37847514Y-49419000D01*
X37942752Y-49371380D01*
X38180848Y-49371380D01*
X38276086Y-49419000D01*
X38323705Y-49466619D01*
X38371324Y-49561857D01*
X38371324Y-49657095D01*
X38323705Y-49799952D01*
X37752276Y-50371380D01*
X38371324Y-50371380D01*
X38990371Y-49371380D02*
X39085610Y-49371380D01*
X39180848Y-49419000D01*
X39228467Y-49466619D01*
X39276086Y-49561857D01*
X39323705Y-49752333D01*
X39323705Y-49990428D01*
X39276086Y-50180904D01*
X39228467Y-50276142D01*
X39180848Y-50323761D01*
X39085610Y-50371380D01*
X38990371Y-50371380D01*
X38895133Y-50323761D01*
X38847514Y-50276142D01*
X38799895Y-50180904D01*
X38752276Y-49990428D01*
X38752276Y-49752333D01*
X38799895Y-49561857D01*
X38847514Y-49466619D01*
X38895133Y-49419000D01*
X38990371Y-49371380D01*
%TO.C,REF\u002A\u002A*%
X50272380Y-59793333D02*
X49796190Y-60126666D01*
X50272380Y-60364761D02*
X49272380Y-60364761D01*
X49272380Y-59983809D01*
X49320000Y-59888571D01*
X49367619Y-59840952D01*
X49462857Y-59793333D01*
X49605714Y-59793333D01*
X49700952Y-59840952D01*
X49748571Y-59888571D01*
X49796190Y-59983809D01*
X49796190Y-60364761D01*
X49748571Y-59364761D02*
X49748571Y-59031428D01*
X50272380Y-58888571D02*
X50272380Y-59364761D01*
X49272380Y-59364761D01*
X49272380Y-58888571D01*
X49748571Y-58126666D02*
X49748571Y-58460000D01*
X50272380Y-58460000D02*
X49272380Y-58460000D01*
X49272380Y-57983809D01*
X49272380Y-57460000D02*
X49510476Y-57460000D01*
X49415238Y-57698095D02*
X49510476Y-57460000D01*
X49415238Y-57221904D01*
X49700952Y-57602857D02*
X49510476Y-57460000D01*
X49700952Y-57317142D01*
X49272380Y-56698095D02*
X49510476Y-56698095D01*
X49415238Y-56936190D02*
X49510476Y-56698095D01*
X49415238Y-56460000D01*
X49700952Y-56840952D02*
X49510476Y-56698095D01*
X49700952Y-56555238D01*
D11*
X49420000Y-49180000D02*
X49420000Y-46580000D01*
X52020000Y-43980000D02*
X100340000Y-43980000D01*
X49420000Y-49180000D02*
X100340000Y-49180000D01*
X52020000Y-46580000D02*
X52020000Y-43980000D01*
X49420000Y-46580000D02*
X52020000Y-46580000D01*
X49420000Y-45310000D02*
X49420000Y-43980000D01*
X100340000Y-49180000D02*
X100340000Y-43980000D01*
X49420000Y-43980000D02*
X50750000Y-43980000D01*
D10*
%TO.C,U1*%
X40362991Y-50900250D02*
X41437991Y-50900250D01*
X40362991Y-41175250D02*
X40362991Y-41500250D01*
X35712991Y-41175250D02*
X35712991Y-41500250D01*
X40362991Y-51125250D02*
X35712991Y-51125250D01*
X40362991Y-41175250D02*
X35712991Y-41175250D01*
X35712991Y-51125250D02*
X35712991Y-50800250D01*
X40362991Y-51125250D02*
X40362991Y-50900250D01*
D11*
%TO.C,U2*%
X27759991Y-37529000D02*
X27759991Y-55309000D01*
X40189991Y-55369000D02*
X48079991Y-55369000D01*
X48079991Y-55369000D02*
X48079991Y-37529000D01*
X27759991Y-55309000D02*
X38189991Y-55369000D01*
X48079991Y-37529000D02*
X27759991Y-37529000D01*
X40189991Y-55369000D02*
G75*
G03*
X38189991Y-55369000I-1000000J0D01*
G01*
%TO.C,REF\u002A\u002A*%
X49395000Y-40145000D02*
X49395000Y-45605000D01*
X49395000Y-47605000D02*
X49395000Y-53065000D01*
X100315000Y-53065000D02*
X100315000Y-40145000D01*
X49395000Y-53065000D02*
X100315000Y-53065000D01*
X100315000Y-40145000D02*
X49395000Y-40145000D01*
X49395000Y-47605000D02*
G75*
G03*
X49395000Y-45605000I0J1000000D01*
G01*
%TD*%
M02*
