M48
; DRILL file {KiCad 9.0.1} date 2026-03-03T23:09:01+0100
; FORMAT={-:-/ absolute / metric / decimal}
; #@! TF.CreationDate,2026-03-03T23:09:01+01:00
; #@! TF.GenerationSoftware,Kicad,Pcbnew,9.0.1
; #@! TF.FileFunction,Plated,1,2,PTH
FMAT,2
METRIC
; #@! TA.AperFunction,Plated,PTH,ComponentDrill
T1C0.400
%
G90
G05
T1
X50.5Y-59.1
X50.5Y-73.6
X51.9Y-59.1
X51.9Y-73.6
X52.1Y-64.9
X52.1Y-66.3
X52.1Y-67.7
X53.3Y-59.1
X53.3Y-73.6
X64.3Y-71.1
X65.6Y-54.4
X65.6Y-55.8
X65.6Y-57.2
X65.7Y-71.1
X67.1Y-71.1
X79.5Y-73.5
X80.9Y-73.5
X82.3Y-73.5
X95.6Y-71.0
X97.0Y-71.0
X97.1Y-54.4
X97.1Y-55.8
X97.1Y-57.2
X98.4Y-71.0
X112.1Y-73.5
X113.5Y-73.5
X114.9Y-73.5
X127.2Y-71.0
X128.6Y-54.4
X128.6Y-55.8
X128.6Y-57.2
X128.6Y-71.0
X130.0Y-71.0
X140.7Y-59.0
X140.7Y-73.5
X142.0Y-64.8
X142.0Y-66.2
X142.0Y-67.6
X142.1Y-59.0
X142.1Y-73.5
X143.5Y-59.0
X143.5Y-73.5
M30
