G04 #@! TF.GenerationSoftware,KiCad,Pcbnew,6.0.11*
G04 #@! TF.CreationDate,2024-12-01T17:45:42+01:00*
G04 #@! TF.ProjectId,CCS_analog_mux-16in-18out,4343535f-616e-4616-9c6f-675f6d75782d,rev?*
G04 #@! TF.SameCoordinates,Original*
G04 #@! TF.FileFunction,Soldermask,Bot*
G04 #@! TF.FilePolarity,Negative*
%FSLAX46Y46*%
G04 Gerber Fmt 4.6, Leading zero omitted, Abs format (unit mm)*
G04 Created by KiCad (PCBNEW 6.0.11) date 2024-12-01 17:45:42*
%MOMM*%
%LPD*%
G01*
G04 APERTURE LIST*
G04 Aperture macros list*
%AMRoundRect*
0 Rectangle with rounded corners*
0 $1 Rounding radius*
0 $2 $3 $4 $5 $6 $7 $8 $9 X,Y pos of 4 corners*
0 Add a 4 corners polygon primitive as box body*
4,1,4,$2,$3,$4,$5,$6,$7,$8,$9,$2,$3,0*
0 Add four circle primitives for the rounded corners*
1,1,$1+$1,$2,$3*
1,1,$1+$1,$4,$5*
1,1,$1+$1,$6,$7*
1,1,$1+$1,$8,$9*
0 Add four rect primitives between the rounded corners*
20,1,$1+$1,$2,$3,$4,$5,0*
20,1,$1+$1,$4,$5,$6,$7,0*
20,1,$1+$1,$6,$7,$8,$9,0*
20,1,$1+$1,$8,$9,$2,$3,0*%
G04 Aperture macros list end*
%ADD10C,1.902000*%
%ADD11O,1.802000X1.802000*%
%ADD12RoundRect,0.051000X0.850000X-0.850000X0.850000X0.850000X-0.850000X0.850000X-0.850000X-0.850000X0*%
G04 APERTURE END LIST*
D10*
X63590000Y-36070000D03*
X57880000Y-36000000D03*
D11*
X87030000Y-54914000D03*
X87030000Y-57454000D03*
X84490000Y-54914000D03*
X84490000Y-57454000D03*
X81950000Y-54914000D03*
X81950000Y-57454000D03*
X79410000Y-54914000D03*
X79410000Y-57454000D03*
X76870000Y-54914000D03*
X76870000Y-57454000D03*
X74330000Y-54914000D03*
X74330000Y-57454000D03*
X71790000Y-54914000D03*
X71790000Y-57454000D03*
X69250000Y-54914000D03*
X69250000Y-57454000D03*
X66710000Y-54914000D03*
X66710000Y-57454000D03*
X64170000Y-54914000D03*
X64170000Y-57454000D03*
X61630000Y-54914000D03*
X61630000Y-57454000D03*
X59090000Y-54914000D03*
X59090000Y-57454000D03*
X56550000Y-54914000D03*
X56550000Y-57454000D03*
X54010000Y-54914000D03*
X54010000Y-57454000D03*
X51470000Y-54914000D03*
X51470000Y-57454000D03*
X48930000Y-54914000D03*
X48930000Y-57454000D03*
X46390000Y-54914000D03*
X46390000Y-57454000D03*
X43850000Y-54914000D03*
X43850000Y-57454000D03*
X41310000Y-54914000D03*
X41310000Y-57454000D03*
X38770000Y-54914000D03*
X38770000Y-57454000D03*
X36230000Y-54914000D03*
D12*
X36230000Y-57454000D03*
D10*
X49323700Y-36143400D03*
X38376300Y-36143400D03*
M02*
