G04 #@! TF.GenerationSoftware,KiCad,Pcbnew,6.0.11*
G04 #@! TF.CreationDate,2024-12-01T17:45:42+01:00*
G04 #@! TF.ProjectId,CCS_analog_mux-16in-18out,4343535f-616e-4616-9c6f-675f6d75782d,rev?*
G04 #@! TF.SameCoordinates,Original*
G04 #@! TF.FileFunction,Legend,Bot*
G04 #@! TF.FilePolarity,Positive*
%FSLAX46Y46*%
G04 Gerber Fmt 4.6, Leading zero omitted, Abs format (unit mm)*
G04 Created by KiCad (PCBNEW 6.0.11) date 2024-12-01 17:45:42*
%MOMM*%
%LPD*%
G01*
G04 APERTURE LIST*
%ADD10C,0.150000*%
%ADD11C,0.010000*%
G04 APERTURE END LIST*
D10*
X66008095Y-38842380D02*
X66008095Y-37842380D01*
X65770000Y-37842380D01*
X65627142Y-37890000D01*
X65531904Y-37985238D01*
X65484285Y-38080476D01*
X65436666Y-38270952D01*
X65436666Y-38413809D01*
X65484285Y-38604285D01*
X65531904Y-38699523D01*
X65627142Y-38794761D01*
X65770000Y-38842380D01*
X66008095Y-38842380D01*
X64817619Y-37842380D02*
X64627142Y-37842380D01*
X64531904Y-37890000D01*
X64436666Y-37985238D01*
X64389047Y-38175714D01*
X64389047Y-38509047D01*
X64436666Y-38699523D01*
X64531904Y-38794761D01*
X64627142Y-38842380D01*
X64817619Y-38842380D01*
X64912857Y-38794761D01*
X65008095Y-38699523D01*
X65055714Y-38509047D01*
X65055714Y-38175714D01*
X65008095Y-37985238D01*
X64912857Y-37890000D01*
X64817619Y-37842380D01*
X63436666Y-38842380D02*
X64008095Y-38842380D01*
X63722380Y-38842380D02*
X63722380Y-37842380D01*
X63817619Y-37985238D01*
X63912857Y-38080476D01*
X64008095Y-38128095D01*
X62865238Y-38270952D02*
X62960476Y-38223333D01*
X63008095Y-38175714D01*
X63055714Y-38080476D01*
X63055714Y-38032857D01*
X63008095Y-37937619D01*
X62960476Y-37890000D01*
X62865238Y-37842380D01*
X62674761Y-37842380D01*
X62579523Y-37890000D01*
X62531904Y-37937619D01*
X62484285Y-38032857D01*
X62484285Y-38080476D01*
X62531904Y-38175714D01*
X62579523Y-38223333D01*
X62674761Y-38270952D01*
X62865238Y-38270952D01*
X62960476Y-38318571D01*
X63008095Y-38366190D01*
X63055714Y-38461428D01*
X63055714Y-38651904D01*
X63008095Y-38747142D01*
X62960476Y-38794761D01*
X62865238Y-38842380D01*
X62674761Y-38842380D01*
X62579523Y-38794761D01*
X62531904Y-38747142D01*
X62484285Y-38651904D01*
X62484285Y-38461428D01*
X62531904Y-38366190D01*
X62579523Y-38318571D01*
X62674761Y-38270952D01*
X60088095Y-38892380D02*
X60088095Y-37892380D01*
X59850000Y-37892380D01*
X59707142Y-37940000D01*
X59611904Y-38035238D01*
X59564285Y-38130476D01*
X59516666Y-38320952D01*
X59516666Y-38463809D01*
X59564285Y-38654285D01*
X59611904Y-38749523D01*
X59707142Y-38844761D01*
X59850000Y-38892380D01*
X60088095Y-38892380D01*
X58897619Y-37892380D02*
X58707142Y-37892380D01*
X58611904Y-37940000D01*
X58516666Y-38035238D01*
X58469047Y-38225714D01*
X58469047Y-38559047D01*
X58516666Y-38749523D01*
X58611904Y-38844761D01*
X58707142Y-38892380D01*
X58897619Y-38892380D01*
X58992857Y-38844761D01*
X59088095Y-38749523D01*
X59135714Y-38559047D01*
X59135714Y-38225714D01*
X59088095Y-38035238D01*
X58992857Y-37940000D01*
X58897619Y-37892380D01*
X57516666Y-38892380D02*
X58088095Y-38892380D01*
X57802380Y-38892380D02*
X57802380Y-37892380D01*
X57897619Y-38035238D01*
X57992857Y-38130476D01*
X58088095Y-38178095D01*
X57183333Y-37892380D02*
X56516666Y-37892380D01*
X56945238Y-38892380D01*
X52026190Y-38702380D02*
X52026190Y-38035714D01*
X52026190Y-37702380D02*
X52073809Y-37750000D01*
X52026190Y-37797619D01*
X51978571Y-37750000D01*
X52026190Y-37702380D01*
X52026190Y-37797619D01*
X51550000Y-38035714D02*
X51550000Y-38702380D01*
X51550000Y-38130952D02*
X51502380Y-38083333D01*
X51407142Y-38035714D01*
X51264285Y-38035714D01*
X51169047Y-38083333D01*
X51121428Y-38178571D01*
X51121428Y-38702380D01*
X50645238Y-38702380D02*
X50645238Y-37702380D01*
X50216666Y-38702380D02*
X50216666Y-38178571D01*
X50264285Y-38083333D01*
X50359523Y-38035714D01*
X50502380Y-38035714D01*
X50597619Y-38083333D01*
X50645238Y-38130952D01*
X49740476Y-38702380D02*
X49740476Y-38035714D01*
X49740476Y-37702380D02*
X49788095Y-37750000D01*
X49740476Y-37797619D01*
X49692857Y-37750000D01*
X49740476Y-37702380D01*
X49740476Y-37797619D01*
X49264285Y-38702380D02*
X49264285Y-37702380D01*
X49264285Y-38083333D02*
X49169047Y-38035714D01*
X48978571Y-38035714D01*
X48883333Y-38083333D01*
X48835714Y-38130952D01*
X48788095Y-38226190D01*
X48788095Y-38511904D01*
X48835714Y-38607142D01*
X48883333Y-38654761D01*
X48978571Y-38702380D01*
X49169047Y-38702380D01*
X49264285Y-38654761D01*
X48359523Y-38702380D02*
X48359523Y-38035714D01*
X48359523Y-37702380D02*
X48407142Y-37750000D01*
X48359523Y-37797619D01*
X48311904Y-37750000D01*
X48359523Y-37702380D01*
X48359523Y-37797619D01*
X48026190Y-38035714D02*
X47645238Y-38035714D01*
X47883333Y-37702380D02*
X47883333Y-38559523D01*
X47835714Y-38654761D01*
X47740476Y-38702380D01*
X47645238Y-38702380D01*
X46597619Y-37797619D02*
X46550000Y-37750000D01*
X46454761Y-37702380D01*
X46216666Y-37702380D01*
X46121428Y-37750000D01*
X46073809Y-37797619D01*
X46026190Y-37892857D01*
X46026190Y-37988095D01*
X46073809Y-38130952D01*
X46645238Y-38702380D01*
X46026190Y-38702380D01*
X41746190Y-38742380D02*
X41746190Y-38075714D01*
X41746190Y-37742380D02*
X41793809Y-37790000D01*
X41746190Y-37837619D01*
X41698571Y-37790000D01*
X41746190Y-37742380D01*
X41746190Y-37837619D01*
X41270000Y-38075714D02*
X41270000Y-38742380D01*
X41270000Y-38170952D02*
X41222380Y-38123333D01*
X41127142Y-38075714D01*
X40984285Y-38075714D01*
X40889047Y-38123333D01*
X40841428Y-38218571D01*
X40841428Y-38742380D01*
X40365238Y-38742380D02*
X40365238Y-37742380D01*
X39936666Y-38742380D02*
X39936666Y-38218571D01*
X39984285Y-38123333D01*
X40079523Y-38075714D01*
X40222380Y-38075714D01*
X40317619Y-38123333D01*
X40365238Y-38170952D01*
X39460476Y-38742380D02*
X39460476Y-38075714D01*
X39460476Y-37742380D02*
X39508095Y-37790000D01*
X39460476Y-37837619D01*
X39412857Y-37790000D01*
X39460476Y-37742380D01*
X39460476Y-37837619D01*
X38984285Y-38742380D02*
X38984285Y-37742380D01*
X38984285Y-38123333D02*
X38889047Y-38075714D01*
X38698571Y-38075714D01*
X38603333Y-38123333D01*
X38555714Y-38170952D01*
X38508095Y-38266190D01*
X38508095Y-38551904D01*
X38555714Y-38647142D01*
X38603333Y-38694761D01*
X38698571Y-38742380D01*
X38889047Y-38742380D01*
X38984285Y-38694761D01*
X38079523Y-38742380D02*
X38079523Y-38075714D01*
X38079523Y-37742380D02*
X38127142Y-37790000D01*
X38079523Y-37837619D01*
X38031904Y-37790000D01*
X38079523Y-37742380D01*
X38079523Y-37837619D01*
X37746190Y-38075714D02*
X37365238Y-38075714D01*
X37603333Y-37742380D02*
X37603333Y-38599523D01*
X37555714Y-38694761D01*
X37460476Y-38742380D01*
X37365238Y-38742380D01*
X35746190Y-38742380D02*
X36317619Y-38742380D01*
X36031904Y-38742380D02*
X36031904Y-37742380D01*
X36127142Y-37885238D01*
X36222380Y-37980476D01*
X36317619Y-38028095D01*
X50496190Y-40577380D02*
X51067619Y-40577380D01*
X50781904Y-40577380D02*
X50781904Y-39577380D01*
X50877142Y-39720238D01*
X50972380Y-39815476D01*
X51067619Y-39863095D01*
X49639047Y-39577380D02*
X49829523Y-39577380D01*
X49924761Y-39625000D01*
X49972380Y-39672619D01*
X50067619Y-39815476D01*
X50115238Y-40005952D01*
X50115238Y-40386904D01*
X50067619Y-40482142D01*
X50020000Y-40529761D01*
X49924761Y-40577380D01*
X49734285Y-40577380D01*
X49639047Y-40529761D01*
X49591428Y-40482142D01*
X49543809Y-40386904D01*
X49543809Y-40148809D01*
X49591428Y-40053571D01*
X49639047Y-40005952D01*
X49734285Y-39958333D01*
X49924761Y-39958333D01*
X50020000Y-40005952D01*
X50067619Y-40053571D01*
X50115238Y-40148809D01*
X48496190Y-39910714D02*
X48115238Y-39910714D01*
X48353333Y-39577380D02*
X48353333Y-40434523D01*
X48305714Y-40529761D01*
X48210476Y-40577380D01*
X48115238Y-40577380D01*
X47639047Y-40577380D02*
X47734285Y-40529761D01*
X47781904Y-40482142D01*
X47829523Y-40386904D01*
X47829523Y-40101190D01*
X47781904Y-40005952D01*
X47734285Y-39958333D01*
X47639047Y-39910714D01*
X47496190Y-39910714D01*
X47400952Y-39958333D01*
X47353333Y-40005952D01*
X47305714Y-40101190D01*
X47305714Y-40386904D01*
X47353333Y-40482142D01*
X47400952Y-40529761D01*
X47496190Y-40577380D01*
X47639047Y-40577380D01*
X46162857Y-39672619D02*
X46115238Y-39625000D01*
X46020000Y-39577380D01*
X45781904Y-39577380D01*
X45686666Y-39625000D01*
X45639047Y-39672619D01*
X45591428Y-39767857D01*
X45591428Y-39863095D01*
X45639047Y-40005952D01*
X46210476Y-40577380D01*
X45591428Y-40577380D01*
X43972380Y-40577380D02*
X43972380Y-40053571D01*
X44020000Y-39958333D01*
X44115238Y-39910714D01*
X44305714Y-39910714D01*
X44400952Y-39958333D01*
X43972380Y-40529761D02*
X44067619Y-40577380D01*
X44305714Y-40577380D01*
X44400952Y-40529761D01*
X44448571Y-40434523D01*
X44448571Y-40339285D01*
X44400952Y-40244047D01*
X44305714Y-40196428D01*
X44067619Y-40196428D01*
X43972380Y-40148809D01*
X43496190Y-39910714D02*
X43496190Y-40577380D01*
X43496190Y-40005952D02*
X43448571Y-39958333D01*
X43353333Y-39910714D01*
X43210476Y-39910714D01*
X43115238Y-39958333D01*
X43067619Y-40053571D01*
X43067619Y-40577380D01*
X42162857Y-40577380D02*
X42162857Y-40053571D01*
X42210476Y-39958333D01*
X42305714Y-39910714D01*
X42496190Y-39910714D01*
X42591428Y-39958333D01*
X42162857Y-40529761D02*
X42258095Y-40577380D01*
X42496190Y-40577380D01*
X42591428Y-40529761D01*
X42639047Y-40434523D01*
X42639047Y-40339285D01*
X42591428Y-40244047D01*
X42496190Y-40196428D01*
X42258095Y-40196428D01*
X42162857Y-40148809D01*
X41543809Y-40577380D02*
X41639047Y-40529761D01*
X41686666Y-40434523D01*
X41686666Y-39577380D01*
X41020000Y-40577380D02*
X41115238Y-40529761D01*
X41162857Y-40482142D01*
X41210476Y-40386904D01*
X41210476Y-40101190D01*
X41162857Y-40005952D01*
X41115238Y-39958333D01*
X41020000Y-39910714D01*
X40877142Y-39910714D01*
X40781904Y-39958333D01*
X40734285Y-40005952D01*
X40686666Y-40101190D01*
X40686666Y-40386904D01*
X40734285Y-40482142D01*
X40781904Y-40529761D01*
X40877142Y-40577380D01*
X41020000Y-40577380D01*
X39829523Y-39910714D02*
X39829523Y-40720238D01*
X39877142Y-40815476D01*
X39924761Y-40863095D01*
X40020000Y-40910714D01*
X40162857Y-40910714D01*
X40258095Y-40863095D01*
X39829523Y-40529761D02*
X39924761Y-40577380D01*
X40115238Y-40577380D01*
X40210476Y-40529761D01*
X40258095Y-40482142D01*
X40305714Y-40386904D01*
X40305714Y-40101190D01*
X40258095Y-40005952D01*
X40210476Y-39958333D01*
X40115238Y-39910714D01*
X39924761Y-39910714D01*
X39829523Y-39958333D01*
X38591428Y-40577380D02*
X38591428Y-39910714D01*
X38591428Y-40005952D02*
X38543809Y-39958333D01*
X38448571Y-39910714D01*
X38305714Y-39910714D01*
X38210476Y-39958333D01*
X38162857Y-40053571D01*
X38162857Y-40577380D01*
X38162857Y-40053571D02*
X38115238Y-39958333D01*
X38020000Y-39910714D01*
X37877142Y-39910714D01*
X37781904Y-39958333D01*
X37734285Y-40053571D01*
X37734285Y-40577380D01*
X36829523Y-39910714D02*
X36829523Y-40577380D01*
X37258095Y-39910714D02*
X37258095Y-40434523D01*
X37210476Y-40529761D01*
X37115238Y-40577380D01*
X36972380Y-40577380D01*
X36877142Y-40529761D01*
X36829523Y-40482142D01*
X36448571Y-40577380D02*
X35924761Y-39910714D01*
X36448571Y-39910714D02*
X35924761Y-40577380D01*
X48043809Y-42187380D02*
X48615238Y-42187380D01*
X48329523Y-42187380D02*
X48329523Y-41187380D01*
X48424761Y-41330238D01*
X48520000Y-41425476D01*
X48615238Y-41473095D01*
X47472380Y-41615952D02*
X47567619Y-41568333D01*
X47615238Y-41520714D01*
X47662857Y-41425476D01*
X47662857Y-41377857D01*
X47615238Y-41282619D01*
X47567619Y-41235000D01*
X47472380Y-41187380D01*
X47281904Y-41187380D01*
X47186666Y-41235000D01*
X47139047Y-41282619D01*
X47091428Y-41377857D01*
X47091428Y-41425476D01*
X47139047Y-41520714D01*
X47186666Y-41568333D01*
X47281904Y-41615952D01*
X47472380Y-41615952D01*
X47567619Y-41663571D01*
X47615238Y-41711190D01*
X47662857Y-41806428D01*
X47662857Y-41996904D01*
X47615238Y-42092142D01*
X47567619Y-42139761D01*
X47472380Y-42187380D01*
X47281904Y-42187380D01*
X47186666Y-42139761D01*
X47139047Y-42092142D01*
X47091428Y-41996904D01*
X47091428Y-41806428D01*
X47139047Y-41711190D01*
X47186666Y-41663571D01*
X47281904Y-41615952D01*
X45472380Y-42187380D02*
X45472380Y-41187380D01*
X45472380Y-42139761D02*
X45567619Y-42187380D01*
X45758095Y-42187380D01*
X45853333Y-42139761D01*
X45900952Y-42092142D01*
X45948571Y-41996904D01*
X45948571Y-41711190D01*
X45900952Y-41615952D01*
X45853333Y-41568333D01*
X45758095Y-41520714D01*
X45567619Y-41520714D01*
X45472380Y-41568333D01*
X44996190Y-42187380D02*
X44996190Y-41520714D01*
X44996190Y-41187380D02*
X45043809Y-41235000D01*
X44996190Y-41282619D01*
X44948571Y-41235000D01*
X44996190Y-41187380D01*
X44996190Y-41282619D01*
X44091428Y-41520714D02*
X44091428Y-42330238D01*
X44139047Y-42425476D01*
X44186666Y-42473095D01*
X44281904Y-42520714D01*
X44424761Y-42520714D01*
X44520000Y-42473095D01*
X44091428Y-42139761D02*
X44186666Y-42187380D01*
X44377142Y-42187380D01*
X44472380Y-42139761D01*
X44520000Y-42092142D01*
X44567619Y-41996904D01*
X44567619Y-41711190D01*
X44520000Y-41615952D01*
X44472380Y-41568333D01*
X44377142Y-41520714D01*
X44186666Y-41520714D01*
X44091428Y-41568333D01*
X43615238Y-42187380D02*
X43615238Y-41520714D01*
X43615238Y-41187380D02*
X43662857Y-41235000D01*
X43615238Y-41282619D01*
X43567619Y-41235000D01*
X43615238Y-41187380D01*
X43615238Y-41282619D01*
X43281904Y-41520714D02*
X42900952Y-41520714D01*
X43139047Y-41187380D02*
X43139047Y-42044523D01*
X43091428Y-42139761D01*
X42996190Y-42187380D01*
X42900952Y-42187380D01*
X42139047Y-42187380D02*
X42139047Y-41663571D01*
X42186666Y-41568333D01*
X42281904Y-41520714D01*
X42472380Y-41520714D01*
X42567619Y-41568333D01*
X42139047Y-42139761D02*
X42234285Y-42187380D01*
X42472380Y-42187380D01*
X42567619Y-42139761D01*
X42615238Y-42044523D01*
X42615238Y-41949285D01*
X42567619Y-41854047D01*
X42472380Y-41806428D01*
X42234285Y-41806428D01*
X42139047Y-41758809D01*
X41520000Y-42187380D02*
X41615238Y-42139761D01*
X41662857Y-42044523D01*
X41662857Y-41187380D01*
X40234285Y-42187380D02*
X40329523Y-42139761D01*
X40377142Y-42092142D01*
X40424761Y-41996904D01*
X40424761Y-41711190D01*
X40377142Y-41615952D01*
X40329523Y-41568333D01*
X40234285Y-41520714D01*
X40091428Y-41520714D01*
X39996190Y-41568333D01*
X39948571Y-41615952D01*
X39900952Y-41711190D01*
X39900952Y-41996904D01*
X39948571Y-42092142D01*
X39996190Y-42139761D01*
X40091428Y-42187380D01*
X40234285Y-42187380D01*
X39043809Y-41520714D02*
X39043809Y-42187380D01*
X39472380Y-41520714D02*
X39472380Y-42044523D01*
X39424761Y-42139761D01*
X39329523Y-42187380D01*
X39186666Y-42187380D01*
X39091428Y-42139761D01*
X39043809Y-42092142D01*
X38710476Y-41520714D02*
X38329523Y-41520714D01*
X38567619Y-41187380D02*
X38567619Y-42044523D01*
X38520000Y-42139761D01*
X38424761Y-42187380D01*
X38329523Y-42187380D01*
X50710476Y-43749761D02*
X50567619Y-43797380D01*
X50329523Y-43797380D01*
X50234285Y-43749761D01*
X50186666Y-43702142D01*
X50139047Y-43606904D01*
X50139047Y-43511666D01*
X50186666Y-43416428D01*
X50234285Y-43368809D01*
X50329523Y-43321190D01*
X50520000Y-43273571D01*
X50615238Y-43225952D01*
X50662857Y-43178333D01*
X50710476Y-43083095D01*
X50710476Y-42987857D01*
X50662857Y-42892619D01*
X50615238Y-42845000D01*
X50520000Y-42797380D01*
X50281904Y-42797380D01*
X50139047Y-42845000D01*
X49710476Y-43797380D02*
X49710476Y-42797380D01*
X49329523Y-42797380D01*
X49234285Y-42845000D01*
X49186666Y-42892619D01*
X49139047Y-42987857D01*
X49139047Y-43130714D01*
X49186666Y-43225952D01*
X49234285Y-43273571D01*
X49329523Y-43321190D01*
X49710476Y-43321190D01*
X48710476Y-43797380D02*
X48710476Y-42797380D01*
X47520000Y-43749761D02*
X47424761Y-43797380D01*
X47234285Y-43797380D01*
X47139047Y-43749761D01*
X47091428Y-43654523D01*
X47091428Y-43606904D01*
X47139047Y-43511666D01*
X47234285Y-43464047D01*
X47377142Y-43464047D01*
X47472380Y-43416428D01*
X47520000Y-43321190D01*
X47520000Y-43273571D01*
X47472380Y-43178333D01*
X47377142Y-43130714D01*
X47234285Y-43130714D01*
X47139047Y-43178333D01*
X46281904Y-43749761D02*
X46377142Y-43797380D01*
X46567619Y-43797380D01*
X46662857Y-43749761D01*
X46710476Y-43654523D01*
X46710476Y-43273571D01*
X46662857Y-43178333D01*
X46567619Y-43130714D01*
X46377142Y-43130714D01*
X46281904Y-43178333D01*
X46234285Y-43273571D01*
X46234285Y-43368809D01*
X46710476Y-43464047D01*
X45805714Y-43797380D02*
X45805714Y-43130714D01*
X45805714Y-43321190D02*
X45758095Y-43225952D01*
X45710476Y-43178333D01*
X45615238Y-43130714D01*
X45520000Y-43130714D01*
X45186666Y-43797380D02*
X45186666Y-43130714D01*
X45186666Y-42797380D02*
X45234285Y-42845000D01*
X45186666Y-42892619D01*
X45139047Y-42845000D01*
X45186666Y-42797380D01*
X45186666Y-42892619D01*
X44281904Y-43797380D02*
X44281904Y-43273571D01*
X44329523Y-43178333D01*
X44424761Y-43130714D01*
X44615238Y-43130714D01*
X44710476Y-43178333D01*
X44281904Y-43749761D02*
X44377142Y-43797380D01*
X44615238Y-43797380D01*
X44710476Y-43749761D01*
X44758095Y-43654523D01*
X44758095Y-43559285D01*
X44710476Y-43464047D01*
X44615238Y-43416428D01*
X44377142Y-43416428D01*
X44281904Y-43368809D01*
X43662857Y-43797380D02*
X43758095Y-43749761D01*
X43805714Y-43654523D01*
X43805714Y-42797380D01*
X42520000Y-43797380D02*
X42520000Y-43130714D01*
X42520000Y-42797380D02*
X42567619Y-42845000D01*
X42520000Y-42892619D01*
X42472380Y-42845000D01*
X42520000Y-42797380D01*
X42520000Y-42892619D01*
X42043809Y-43130714D02*
X42043809Y-43797380D01*
X42043809Y-43225952D02*
X41996190Y-43178333D01*
X41900952Y-43130714D01*
X41758095Y-43130714D01*
X41662857Y-43178333D01*
X41615238Y-43273571D01*
X41615238Y-43797380D01*
X41281904Y-43130714D02*
X40900952Y-43130714D01*
X41139047Y-42797380D02*
X41139047Y-43654523D01*
X41091428Y-43749761D01*
X40996190Y-43797380D01*
X40900952Y-43797380D01*
X40186666Y-43749761D02*
X40281904Y-43797380D01*
X40472380Y-43797380D01*
X40567619Y-43749761D01*
X40615238Y-43654523D01*
X40615238Y-43273571D01*
X40567619Y-43178333D01*
X40472380Y-43130714D01*
X40281904Y-43130714D01*
X40186666Y-43178333D01*
X40139047Y-43273571D01*
X40139047Y-43368809D01*
X40615238Y-43464047D01*
X39710476Y-43797380D02*
X39710476Y-43130714D01*
X39710476Y-43321190D02*
X39662857Y-43225952D01*
X39615238Y-43178333D01*
X39520000Y-43130714D01*
X39424761Y-43130714D01*
X39234285Y-43130714D02*
X38853333Y-43130714D01*
X39091428Y-43797380D02*
X39091428Y-42940238D01*
X39043809Y-42845000D01*
X38948571Y-42797380D01*
X38853333Y-42797380D01*
X38091428Y-43797380D02*
X38091428Y-43273571D01*
X38139047Y-43178333D01*
X38234285Y-43130714D01*
X38424761Y-43130714D01*
X38520000Y-43178333D01*
X38091428Y-43749761D02*
X38186666Y-43797380D01*
X38424761Y-43797380D01*
X38520000Y-43749761D01*
X38567619Y-43654523D01*
X38567619Y-43559285D01*
X38520000Y-43464047D01*
X38424761Y-43416428D01*
X38186666Y-43416428D01*
X38091428Y-43368809D01*
X37186666Y-43749761D02*
X37281904Y-43797380D01*
X37472380Y-43797380D01*
X37567619Y-43749761D01*
X37615238Y-43702142D01*
X37662857Y-43606904D01*
X37662857Y-43321190D01*
X37615238Y-43225952D01*
X37567619Y-43178333D01*
X37472380Y-43130714D01*
X37281904Y-43130714D01*
X37186666Y-43178333D01*
X36377142Y-43749761D02*
X36472380Y-43797380D01*
X36662857Y-43797380D01*
X36758095Y-43749761D01*
X36805714Y-43654523D01*
X36805714Y-43273571D01*
X36758095Y-43178333D01*
X36662857Y-43130714D01*
X36472380Y-43130714D01*
X36377142Y-43178333D01*
X36329523Y-43273571D01*
X36329523Y-43368809D01*
X36805714Y-43464047D01*
X50377142Y-44740714D02*
X50139047Y-45407380D01*
X49900952Y-44740714D01*
X48996190Y-45407380D02*
X49567619Y-45407380D01*
X49281904Y-45407380D02*
X49281904Y-44407380D01*
X49377142Y-44550238D01*
X49472380Y-44645476D01*
X49567619Y-44693095D01*
X48567619Y-45312142D02*
X48520000Y-45359761D01*
X48567619Y-45407380D01*
X48615238Y-45359761D01*
X48567619Y-45312142D01*
X48567619Y-45407380D01*
X47900952Y-44407380D02*
X47805714Y-44407380D01*
X47710476Y-44455000D01*
X47662857Y-44502619D01*
X47615238Y-44597857D01*
X47567619Y-44788333D01*
X47567619Y-45026428D01*
X47615238Y-45216904D01*
X47662857Y-45312142D01*
X47710476Y-45359761D01*
X47805714Y-45407380D01*
X47900952Y-45407380D01*
X47996190Y-45359761D01*
X48043809Y-45312142D01*
X48091428Y-45216904D01*
X48139047Y-45026428D01*
X48139047Y-44788333D01*
X48091428Y-44597857D01*
X48043809Y-44502619D01*
X47996190Y-44455000D01*
X47900952Y-44407380D01*
X46424761Y-44502619D02*
X46377142Y-44455000D01*
X46281904Y-44407380D01*
X46043809Y-44407380D01*
X45948571Y-44455000D01*
X45900952Y-44502619D01*
X45853333Y-44597857D01*
X45853333Y-44693095D01*
X45900952Y-44835952D01*
X46472380Y-45407380D01*
X45853333Y-45407380D01*
X45234285Y-44407380D02*
X45139047Y-44407380D01*
X45043809Y-44455000D01*
X44996190Y-44502619D01*
X44948571Y-44597857D01*
X44900952Y-44788333D01*
X44900952Y-45026428D01*
X44948571Y-45216904D01*
X44996190Y-45312142D01*
X45043809Y-45359761D01*
X45139047Y-45407380D01*
X45234285Y-45407380D01*
X45329523Y-45359761D01*
X45377142Y-45312142D01*
X45424761Y-45216904D01*
X45472380Y-45026428D01*
X45472380Y-44788333D01*
X45424761Y-44597857D01*
X45377142Y-44502619D01*
X45329523Y-44455000D01*
X45234285Y-44407380D01*
X44520000Y-44502619D02*
X44472380Y-44455000D01*
X44377142Y-44407380D01*
X44139047Y-44407380D01*
X44043809Y-44455000D01*
X43996190Y-44502619D01*
X43948571Y-44597857D01*
X43948571Y-44693095D01*
X43996190Y-44835952D01*
X44567619Y-45407380D01*
X43948571Y-45407380D01*
X43091428Y-44740714D02*
X43091428Y-45407380D01*
X43329523Y-44359761D02*
X43567619Y-45074047D01*
X42948571Y-45074047D01*
X42567619Y-45026428D02*
X41805714Y-45026428D01*
X40805714Y-45407380D02*
X41377142Y-45407380D01*
X41091428Y-45407380D02*
X41091428Y-44407380D01*
X41186666Y-44550238D01*
X41281904Y-44645476D01*
X41377142Y-44693095D01*
X40424761Y-44502619D02*
X40377142Y-44455000D01*
X40281904Y-44407380D01*
X40043809Y-44407380D01*
X39948571Y-44455000D01*
X39900952Y-44502619D01*
X39853333Y-44597857D01*
X39853333Y-44693095D01*
X39900952Y-44835952D01*
X40472380Y-45407380D01*
X39853333Y-45407380D01*
X39424761Y-45026428D02*
X38662857Y-45026428D01*
X37996190Y-44407380D02*
X37900952Y-44407380D01*
X37805714Y-44455000D01*
X37758095Y-44502619D01*
X37710476Y-44597857D01*
X37662857Y-44788333D01*
X37662857Y-45026428D01*
X37710476Y-45216904D01*
X37758095Y-45312142D01*
X37805714Y-45359761D01*
X37900952Y-45407380D01*
X37996190Y-45407380D01*
X38091428Y-45359761D01*
X38139047Y-45312142D01*
X38186666Y-45216904D01*
X38234285Y-45026428D01*
X38234285Y-44788333D01*
X38186666Y-44597857D01*
X38139047Y-44502619D01*
X38091428Y-44455000D01*
X37996190Y-44407380D01*
X36710476Y-45407380D02*
X37281904Y-45407380D01*
X36996190Y-45407380D02*
X36996190Y-44407380D01*
X37091428Y-44550238D01*
X37186666Y-44645476D01*
X37281904Y-44693095D01*
X87458380Y-46050523D02*
X86982190Y-45717190D01*
X87458380Y-45479095D02*
X86458380Y-45479095D01*
X86458380Y-45860047D01*
X86506000Y-45955285D01*
X86553619Y-46002904D01*
X86648857Y-46050523D01*
X86791714Y-46050523D01*
X86886952Y-46002904D01*
X86934571Y-45955285D01*
X86982190Y-45860047D01*
X86982190Y-45479095D01*
X86934571Y-46479095D02*
X86934571Y-46812428D01*
X87458380Y-46955285D02*
X87458380Y-46479095D01*
X86458380Y-46479095D01*
X86458380Y-46955285D01*
X87410761Y-47336238D02*
X87458380Y-47479095D01*
X87458380Y-47717190D01*
X87410761Y-47812428D01*
X87363142Y-47860047D01*
X87267904Y-47907666D01*
X87172666Y-47907666D01*
X87077428Y-47860047D01*
X87029809Y-47812428D01*
X86982190Y-47717190D01*
X86934571Y-47526714D01*
X86886952Y-47431476D01*
X86839333Y-47383857D01*
X86744095Y-47336238D01*
X86648857Y-47336238D01*
X86553619Y-47383857D01*
X86506000Y-47431476D01*
X86458380Y-47526714D01*
X86458380Y-47764809D01*
X86506000Y-47907666D01*
X86934571Y-48336238D02*
X86934571Y-48669571D01*
X87458380Y-48812428D02*
X87458380Y-48336238D01*
X86458380Y-48336238D01*
X86458380Y-48812428D01*
X86458380Y-49098142D02*
X86458380Y-49669571D01*
X87458380Y-49383857D02*
X86458380Y-49383857D01*
X87553619Y-50526714D02*
X87553619Y-51288619D01*
X86458380Y-51717190D02*
X86458380Y-51907666D01*
X86506000Y-52002904D01*
X86601238Y-52098142D01*
X86791714Y-52145761D01*
X87125047Y-52145761D01*
X87315523Y-52098142D01*
X87410761Y-52002904D01*
X87458380Y-51907666D01*
X87458380Y-51717190D01*
X87410761Y-51621952D01*
X87315523Y-51526714D01*
X87125047Y-51479095D01*
X86791714Y-51479095D01*
X86601238Y-51526714D01*
X86506000Y-51621952D01*
X86458380Y-51717190D01*
X86934571Y-52574333D02*
X86934571Y-52907666D01*
X87458380Y-53050523D02*
X87458380Y-52574333D01*
X86458380Y-52574333D01*
X86458380Y-53050523D01*
X84870761Y-46336238D02*
X84918380Y-46479095D01*
X84918380Y-46717190D01*
X84870761Y-46812428D01*
X84823142Y-46860047D01*
X84727904Y-46907666D01*
X84632666Y-46907666D01*
X84537428Y-46860047D01*
X84489809Y-46812428D01*
X84442190Y-46717190D01*
X84394571Y-46526714D01*
X84346952Y-46431476D01*
X84299333Y-46383857D01*
X84204095Y-46336238D01*
X84108857Y-46336238D01*
X84013619Y-46383857D01*
X83966000Y-46431476D01*
X83918380Y-46526714D01*
X83918380Y-46764809D01*
X83966000Y-46907666D01*
X84918380Y-47336238D02*
X83918380Y-47336238D01*
X83918380Y-47574333D01*
X83966000Y-47717190D01*
X84061238Y-47812428D01*
X84156476Y-47860047D01*
X84346952Y-47907666D01*
X84489809Y-47907666D01*
X84680285Y-47860047D01*
X84775523Y-47812428D01*
X84870761Y-47717190D01*
X84918380Y-47574333D01*
X84918380Y-47336238D01*
X84918380Y-48336238D02*
X83918380Y-48336238D01*
X84870761Y-49526714D02*
X84918380Y-49669571D01*
X84918380Y-49907666D01*
X84870761Y-50002904D01*
X84823142Y-50050523D01*
X84727904Y-50098142D01*
X84632666Y-50098142D01*
X84537428Y-50050523D01*
X84489809Y-50002904D01*
X84442190Y-49907666D01*
X84394571Y-49717190D01*
X84346952Y-49621952D01*
X84299333Y-49574333D01*
X84204095Y-49526714D01*
X84108857Y-49526714D01*
X84013619Y-49574333D01*
X83966000Y-49621952D01*
X83918380Y-49717190D01*
X83918380Y-49955285D01*
X83966000Y-50098142D01*
X84918380Y-50526714D02*
X83918380Y-50526714D01*
X83918380Y-50764809D01*
X83966000Y-50907666D01*
X84061238Y-51002904D01*
X84156476Y-51050523D01*
X84346952Y-51098142D01*
X84489809Y-51098142D01*
X84680285Y-51050523D01*
X84775523Y-51002904D01*
X84870761Y-50907666D01*
X84918380Y-50764809D01*
X84918380Y-50526714D01*
X83918380Y-51717190D02*
X83918380Y-51907666D01*
X83966000Y-52002904D01*
X84061238Y-52098142D01*
X84251714Y-52145761D01*
X84585047Y-52145761D01*
X84775523Y-52098142D01*
X84870761Y-52002904D01*
X84918380Y-51907666D01*
X84918380Y-51717190D01*
X84870761Y-51621952D01*
X84775523Y-51526714D01*
X84585047Y-51479095D01*
X84251714Y-51479095D01*
X84061238Y-51526714D01*
X83966000Y-51621952D01*
X83918380Y-51717190D01*
X82378380Y-45550523D02*
X82378380Y-45074333D01*
X81378380Y-45074333D01*
X82092666Y-45836238D02*
X82092666Y-46312428D01*
X82378380Y-45741000D02*
X81378380Y-46074333D01*
X82378380Y-46407666D01*
X81378380Y-46598142D02*
X81378380Y-47169571D01*
X82378380Y-46883857D02*
X81378380Y-46883857D01*
X82283142Y-48074333D02*
X82330761Y-48026714D01*
X82378380Y-47883857D01*
X82378380Y-47788619D01*
X82330761Y-47645761D01*
X82235523Y-47550523D01*
X82140285Y-47502904D01*
X81949809Y-47455285D01*
X81806952Y-47455285D01*
X81616476Y-47502904D01*
X81521238Y-47550523D01*
X81426000Y-47645761D01*
X81378380Y-47788619D01*
X81378380Y-47883857D01*
X81426000Y-48026714D01*
X81473619Y-48074333D01*
X82378380Y-48502904D02*
X81378380Y-48502904D01*
X81854571Y-48502904D02*
X81854571Y-49074333D01*
X82378380Y-49074333D02*
X81378380Y-49074333D01*
X82283142Y-51645761D02*
X82330761Y-51598142D01*
X82378380Y-51455285D01*
X82378380Y-51360047D01*
X82330761Y-51217190D01*
X82235523Y-51121952D01*
X82140285Y-51074333D01*
X81949809Y-51026714D01*
X81806952Y-51026714D01*
X81616476Y-51074333D01*
X81521238Y-51121952D01*
X81426000Y-51217190D01*
X81378380Y-51360047D01*
X81378380Y-51455285D01*
X81426000Y-51598142D01*
X81473619Y-51645761D01*
X82378380Y-52550523D02*
X82378380Y-52074333D01*
X81378380Y-52074333D01*
X82378380Y-52883857D02*
X81378380Y-52883857D01*
X82378380Y-53455285D02*
X81806952Y-53026714D01*
X81378380Y-53455285D02*
X81949809Y-52883857D01*
X78886000Y-46669571D02*
X78838380Y-46574333D01*
X78838380Y-46431476D01*
X78886000Y-46288619D01*
X78981238Y-46193380D01*
X79076476Y-46145761D01*
X79266952Y-46098142D01*
X79409809Y-46098142D01*
X79600285Y-46145761D01*
X79695523Y-46193380D01*
X79790761Y-46288619D01*
X79838380Y-46431476D01*
X79838380Y-46526714D01*
X79790761Y-46669571D01*
X79743142Y-46717190D01*
X79409809Y-46717190D01*
X79409809Y-46526714D01*
X79838380Y-47145761D02*
X78838380Y-47145761D01*
X79838380Y-47717190D01*
X78838380Y-47717190D01*
X79838380Y-48193380D02*
X78838380Y-48193380D01*
X78838380Y-48431476D01*
X78886000Y-48574333D01*
X78981238Y-48669571D01*
X79076476Y-48717190D01*
X79266952Y-48764809D01*
X79409809Y-48764809D01*
X79600285Y-48717190D01*
X79695523Y-48669571D01*
X79790761Y-48574333D01*
X79838380Y-48431476D01*
X79838380Y-48193380D01*
X78838380Y-49812428D02*
X79838380Y-50145761D01*
X78838380Y-50479095D01*
X79743142Y-51383857D02*
X79790761Y-51336238D01*
X79838380Y-51193380D01*
X79838380Y-51098142D01*
X79790761Y-50955285D01*
X79695523Y-50860047D01*
X79600285Y-50812428D01*
X79409809Y-50764809D01*
X79266952Y-50764809D01*
X79076476Y-50812428D01*
X78981238Y-50860047D01*
X78886000Y-50955285D01*
X78838380Y-51098142D01*
X78838380Y-51193380D01*
X78886000Y-51336238D01*
X78933619Y-51383857D01*
X79743142Y-52383857D02*
X79790761Y-52336238D01*
X79838380Y-52193380D01*
X79838380Y-52098142D01*
X79790761Y-51955285D01*
X79695523Y-51860047D01*
X79600285Y-51812428D01*
X79409809Y-51764809D01*
X79266952Y-51764809D01*
X79076476Y-51812428D01*
X78981238Y-51860047D01*
X78886000Y-51955285D01*
X78838380Y-52098142D01*
X78838380Y-52193380D01*
X78886000Y-52336238D01*
X78933619Y-52383857D01*
X77298380Y-46098142D02*
X76298380Y-46098142D01*
X76298380Y-46336238D01*
X76346000Y-46479095D01*
X76441238Y-46574333D01*
X76536476Y-46621952D01*
X76726952Y-46669571D01*
X76869809Y-46669571D01*
X77060285Y-46621952D01*
X77155523Y-46574333D01*
X77250761Y-46479095D01*
X77298380Y-46336238D01*
X77298380Y-46098142D01*
X76298380Y-47288619D02*
X76298380Y-47479095D01*
X76346000Y-47574333D01*
X76441238Y-47669571D01*
X76631714Y-47717190D01*
X76965047Y-47717190D01*
X77155523Y-47669571D01*
X77250761Y-47574333D01*
X77298380Y-47479095D01*
X77298380Y-47288619D01*
X77250761Y-47193380D01*
X77155523Y-47098142D01*
X76965047Y-47050523D01*
X76631714Y-47050523D01*
X76441238Y-47098142D01*
X76346000Y-47193380D01*
X76298380Y-47288619D01*
X76298380Y-48050523D02*
X76298380Y-48717190D01*
X77298380Y-48288619D01*
X77298380Y-49860047D02*
X76298380Y-49860047D01*
X76298380Y-50098142D01*
X76346000Y-50241000D01*
X76441238Y-50336238D01*
X76536476Y-50383857D01*
X76726952Y-50431476D01*
X76869809Y-50431476D01*
X77060285Y-50383857D01*
X77155523Y-50336238D01*
X77250761Y-50241000D01*
X77298380Y-50098142D01*
X77298380Y-49860047D01*
X76298380Y-51050523D02*
X76298380Y-51241000D01*
X76346000Y-51336238D01*
X76441238Y-51431476D01*
X76631714Y-51479095D01*
X76965047Y-51479095D01*
X77155523Y-51431476D01*
X77250761Y-51336238D01*
X77298380Y-51241000D01*
X77298380Y-51050523D01*
X77250761Y-50955285D01*
X77155523Y-50860047D01*
X76965047Y-50812428D01*
X76631714Y-50812428D01*
X76441238Y-50860047D01*
X76346000Y-50955285D01*
X76298380Y-51050523D01*
X76298380Y-52336238D02*
X76298380Y-52145761D01*
X76346000Y-52050523D01*
X76393619Y-52002904D01*
X76536476Y-51907666D01*
X76726952Y-51860047D01*
X77107904Y-51860047D01*
X77203142Y-51907666D01*
X77250761Y-51955285D01*
X77298380Y-52050523D01*
X77298380Y-52241000D01*
X77250761Y-52336238D01*
X77203142Y-52383857D01*
X77107904Y-52431476D01*
X76869809Y-52431476D01*
X76774571Y-52383857D01*
X76726952Y-52336238D01*
X76679333Y-52241000D01*
X76679333Y-52050523D01*
X76726952Y-51955285D01*
X76774571Y-51907666D01*
X76869809Y-51860047D01*
X74758380Y-46098142D02*
X73758380Y-46098142D01*
X73758380Y-46336238D01*
X73806000Y-46479095D01*
X73901238Y-46574333D01*
X73996476Y-46621952D01*
X74186952Y-46669571D01*
X74329809Y-46669571D01*
X74520285Y-46621952D01*
X74615523Y-46574333D01*
X74710761Y-46479095D01*
X74758380Y-46336238D01*
X74758380Y-46098142D01*
X73758380Y-47288619D02*
X73758380Y-47479095D01*
X73806000Y-47574333D01*
X73901238Y-47669571D01*
X74091714Y-47717190D01*
X74425047Y-47717190D01*
X74615523Y-47669571D01*
X74710761Y-47574333D01*
X74758380Y-47479095D01*
X74758380Y-47288619D01*
X74710761Y-47193380D01*
X74615523Y-47098142D01*
X74425047Y-47050523D01*
X74091714Y-47050523D01*
X73901238Y-47098142D01*
X73806000Y-47193380D01*
X73758380Y-47288619D01*
X73758380Y-48621952D02*
X73758380Y-48145761D01*
X74234571Y-48098142D01*
X74186952Y-48145761D01*
X74139333Y-48241000D01*
X74139333Y-48479095D01*
X74186952Y-48574333D01*
X74234571Y-48621952D01*
X74329809Y-48669571D01*
X74567904Y-48669571D01*
X74663142Y-48621952D01*
X74710761Y-48574333D01*
X74758380Y-48479095D01*
X74758380Y-48241000D01*
X74710761Y-48145761D01*
X74663142Y-48098142D01*
X74758380Y-49860047D02*
X73758380Y-49860047D01*
X73758380Y-50098142D01*
X73806000Y-50241000D01*
X73901238Y-50336238D01*
X73996476Y-50383857D01*
X74186952Y-50431476D01*
X74329809Y-50431476D01*
X74520285Y-50383857D01*
X74615523Y-50336238D01*
X74710761Y-50241000D01*
X74758380Y-50098142D01*
X74758380Y-49860047D01*
X73758380Y-51050523D02*
X73758380Y-51241000D01*
X73806000Y-51336238D01*
X73901238Y-51431476D01*
X74091714Y-51479095D01*
X74425047Y-51479095D01*
X74615523Y-51431476D01*
X74710761Y-51336238D01*
X74758380Y-51241000D01*
X74758380Y-51050523D01*
X74710761Y-50955285D01*
X74615523Y-50860047D01*
X74425047Y-50812428D01*
X74091714Y-50812428D01*
X73901238Y-50860047D01*
X73806000Y-50955285D01*
X73758380Y-51050523D01*
X74091714Y-52336238D02*
X74758380Y-52336238D01*
X73710761Y-52098142D02*
X74425047Y-51860047D01*
X74425047Y-52479095D01*
X72218380Y-46098142D02*
X71218380Y-46098142D01*
X71218380Y-46336238D01*
X71266000Y-46479095D01*
X71361238Y-46574333D01*
X71456476Y-46621952D01*
X71646952Y-46669571D01*
X71789809Y-46669571D01*
X71980285Y-46621952D01*
X72075523Y-46574333D01*
X72170761Y-46479095D01*
X72218380Y-46336238D01*
X72218380Y-46098142D01*
X71218380Y-47288619D02*
X71218380Y-47479095D01*
X71266000Y-47574333D01*
X71361238Y-47669571D01*
X71551714Y-47717190D01*
X71885047Y-47717190D01*
X72075523Y-47669571D01*
X72170761Y-47574333D01*
X72218380Y-47479095D01*
X72218380Y-47288619D01*
X72170761Y-47193380D01*
X72075523Y-47098142D01*
X71885047Y-47050523D01*
X71551714Y-47050523D01*
X71361238Y-47098142D01*
X71266000Y-47193380D01*
X71218380Y-47288619D01*
X71218380Y-48050523D02*
X71218380Y-48669571D01*
X71599333Y-48336238D01*
X71599333Y-48479095D01*
X71646952Y-48574333D01*
X71694571Y-48621952D01*
X71789809Y-48669571D01*
X72027904Y-48669571D01*
X72123142Y-48621952D01*
X72170761Y-48574333D01*
X72218380Y-48479095D01*
X72218380Y-48193380D01*
X72170761Y-48098142D01*
X72123142Y-48050523D01*
X72218380Y-49860047D02*
X71218380Y-49860047D01*
X71218380Y-50098142D01*
X71266000Y-50241000D01*
X71361238Y-50336238D01*
X71456476Y-50383857D01*
X71646952Y-50431476D01*
X71789809Y-50431476D01*
X71980285Y-50383857D01*
X72075523Y-50336238D01*
X72170761Y-50241000D01*
X72218380Y-50098142D01*
X72218380Y-49860047D01*
X71218380Y-51050523D02*
X71218380Y-51241000D01*
X71266000Y-51336238D01*
X71361238Y-51431476D01*
X71551714Y-51479095D01*
X71885047Y-51479095D01*
X72075523Y-51431476D01*
X72170761Y-51336238D01*
X72218380Y-51241000D01*
X72218380Y-51050523D01*
X72170761Y-50955285D01*
X72075523Y-50860047D01*
X71885047Y-50812428D01*
X71551714Y-50812428D01*
X71361238Y-50860047D01*
X71266000Y-50955285D01*
X71218380Y-51050523D01*
X71313619Y-51860047D02*
X71266000Y-51907666D01*
X71218380Y-52002904D01*
X71218380Y-52241000D01*
X71266000Y-52336238D01*
X71313619Y-52383857D01*
X71408857Y-52431476D01*
X71504095Y-52431476D01*
X71646952Y-52383857D01*
X72218380Y-51812428D01*
X72218380Y-52431476D01*
X69678380Y-46479095D02*
X68678380Y-46479095D01*
X68678380Y-46717190D01*
X68726000Y-46860047D01*
X68821238Y-46955285D01*
X68916476Y-47002904D01*
X69106952Y-47050523D01*
X69249809Y-47050523D01*
X69440285Y-47002904D01*
X69535523Y-46955285D01*
X69630761Y-46860047D01*
X69678380Y-46717190D01*
X69678380Y-46479095D01*
X68678380Y-47669571D02*
X68678380Y-47860047D01*
X68726000Y-47955285D01*
X68821238Y-48050523D01*
X69011714Y-48098142D01*
X69345047Y-48098142D01*
X69535523Y-48050523D01*
X69630761Y-47955285D01*
X69678380Y-47860047D01*
X69678380Y-47669571D01*
X69630761Y-47574333D01*
X69535523Y-47479095D01*
X69345047Y-47431476D01*
X69011714Y-47431476D01*
X68821238Y-47479095D01*
X68726000Y-47574333D01*
X68678380Y-47669571D01*
X69678380Y-49050523D02*
X69678380Y-48479095D01*
X69678380Y-48764809D02*
X68678380Y-48764809D01*
X68821238Y-48669571D01*
X68916476Y-48574333D01*
X68964095Y-48479095D01*
X69678380Y-50241000D02*
X68678380Y-50241000D01*
X68678380Y-50479095D01*
X68726000Y-50621952D01*
X68821238Y-50717190D01*
X68916476Y-50764809D01*
X69106952Y-50812428D01*
X69249809Y-50812428D01*
X69440285Y-50764809D01*
X69535523Y-50717190D01*
X69630761Y-50621952D01*
X69678380Y-50479095D01*
X69678380Y-50241000D01*
X68678380Y-51431476D02*
X68678380Y-51621952D01*
X68726000Y-51717190D01*
X68821238Y-51812428D01*
X69011714Y-51860047D01*
X69345047Y-51860047D01*
X69535523Y-51812428D01*
X69630761Y-51717190D01*
X69678380Y-51621952D01*
X69678380Y-51431476D01*
X69630761Y-51336238D01*
X69535523Y-51241000D01*
X69345047Y-51193380D01*
X69011714Y-51193380D01*
X68821238Y-51241000D01*
X68726000Y-51336238D01*
X68678380Y-51431476D01*
X69106952Y-52431476D02*
X69059333Y-52336238D01*
X69011714Y-52288619D01*
X68916476Y-52241000D01*
X68868857Y-52241000D01*
X68773619Y-52288619D01*
X68726000Y-52336238D01*
X68678380Y-52431476D01*
X68678380Y-52621952D01*
X68726000Y-52717190D01*
X68773619Y-52764809D01*
X68868857Y-52812428D01*
X68916476Y-52812428D01*
X69011714Y-52764809D01*
X69059333Y-52717190D01*
X69106952Y-52621952D01*
X69106952Y-52431476D01*
X69154571Y-52336238D01*
X69202190Y-52288619D01*
X69297428Y-52241000D01*
X69487904Y-52241000D01*
X69583142Y-52288619D01*
X69630761Y-52336238D01*
X69678380Y-52431476D01*
X69678380Y-52621952D01*
X69630761Y-52717190D01*
X69583142Y-52764809D01*
X69487904Y-52812428D01*
X69297428Y-52812428D01*
X69202190Y-52764809D01*
X69154571Y-52717190D01*
X69106952Y-52621952D01*
X66852666Y-46574333D02*
X66852666Y-47050523D01*
X67138380Y-46479095D02*
X66138380Y-46812428D01*
X67138380Y-47145761D01*
X66138380Y-47669571D02*
X66138380Y-47860047D01*
X66186000Y-47955285D01*
X66281238Y-48050523D01*
X66471714Y-48098142D01*
X66805047Y-48098142D01*
X66995523Y-48050523D01*
X67090761Y-47955285D01*
X67138380Y-47860047D01*
X67138380Y-47669571D01*
X67090761Y-47574333D01*
X66995523Y-47479095D01*
X66805047Y-47431476D01*
X66471714Y-47431476D01*
X66281238Y-47479095D01*
X66186000Y-47574333D01*
X66138380Y-47669571D01*
X66233619Y-48479095D02*
X66186000Y-48526714D01*
X66138380Y-48621952D01*
X66138380Y-48860047D01*
X66186000Y-48955285D01*
X66233619Y-49002904D01*
X66328857Y-49050523D01*
X66424095Y-49050523D01*
X66566952Y-49002904D01*
X67138380Y-48431476D01*
X67138380Y-49050523D01*
X66852666Y-50193380D02*
X66852666Y-50669571D01*
X67138380Y-50098142D02*
X66138380Y-50431476D01*
X67138380Y-50764809D01*
X66138380Y-51288619D02*
X66138380Y-51479095D01*
X66186000Y-51574333D01*
X66281238Y-51669571D01*
X66471714Y-51717190D01*
X66805047Y-51717190D01*
X66995523Y-51669571D01*
X67090761Y-51574333D01*
X67138380Y-51479095D01*
X67138380Y-51288619D01*
X67090761Y-51193380D01*
X66995523Y-51098142D01*
X66805047Y-51050523D01*
X66471714Y-51050523D01*
X66281238Y-51098142D01*
X66186000Y-51193380D01*
X66138380Y-51288619D01*
X67138380Y-52669571D02*
X67138380Y-52098142D01*
X67138380Y-52383857D02*
X66138380Y-52383857D01*
X66281238Y-52288619D01*
X66376476Y-52193380D01*
X66424095Y-52098142D01*
X64598380Y-45526714D02*
X63598380Y-45526714D01*
X63598380Y-45764809D01*
X63646000Y-45907666D01*
X63741238Y-46002904D01*
X63836476Y-46050523D01*
X64026952Y-46098142D01*
X64169809Y-46098142D01*
X64360285Y-46050523D01*
X64455523Y-46002904D01*
X64550761Y-45907666D01*
X64598380Y-45764809D01*
X64598380Y-45526714D01*
X63598380Y-46717190D02*
X63598380Y-46907666D01*
X63646000Y-47002904D01*
X63741238Y-47098142D01*
X63931714Y-47145761D01*
X64265047Y-47145761D01*
X64455523Y-47098142D01*
X64550761Y-47002904D01*
X64598380Y-46907666D01*
X64598380Y-46717190D01*
X64550761Y-46621952D01*
X64455523Y-46526714D01*
X64265047Y-46479095D01*
X63931714Y-46479095D01*
X63741238Y-46526714D01*
X63646000Y-46621952D01*
X63598380Y-46717190D01*
X64598380Y-48098142D02*
X64598380Y-47526714D01*
X64598380Y-47812428D02*
X63598380Y-47812428D01*
X63741238Y-47717190D01*
X63836476Y-47621952D01*
X63884095Y-47526714D01*
X63598380Y-49002904D02*
X63598380Y-48526714D01*
X64074571Y-48479095D01*
X64026952Y-48526714D01*
X63979333Y-48621952D01*
X63979333Y-48860047D01*
X64026952Y-48955285D01*
X64074571Y-49002904D01*
X64169809Y-49050523D01*
X64407904Y-49050523D01*
X64503142Y-49002904D01*
X64550761Y-48955285D01*
X64598380Y-48860047D01*
X64598380Y-48621952D01*
X64550761Y-48526714D01*
X64503142Y-48479095D01*
X64598380Y-50241000D02*
X63598380Y-50241000D01*
X63598380Y-50479095D01*
X63646000Y-50621952D01*
X63741238Y-50717190D01*
X63836476Y-50764809D01*
X64026952Y-50812428D01*
X64169809Y-50812428D01*
X64360285Y-50764809D01*
X64455523Y-50717190D01*
X64550761Y-50621952D01*
X64598380Y-50479095D01*
X64598380Y-50241000D01*
X63598380Y-51431476D02*
X63598380Y-51621952D01*
X63646000Y-51717190D01*
X63741238Y-51812428D01*
X63931714Y-51860047D01*
X64265047Y-51860047D01*
X64455523Y-51812428D01*
X64550761Y-51717190D01*
X64598380Y-51621952D01*
X64598380Y-51431476D01*
X64550761Y-51336238D01*
X64455523Y-51241000D01*
X64265047Y-51193380D01*
X63931714Y-51193380D01*
X63741238Y-51241000D01*
X63646000Y-51336238D01*
X63598380Y-51431476D01*
X64598380Y-52812428D02*
X64598380Y-52241000D01*
X64598380Y-52526714D02*
X63598380Y-52526714D01*
X63741238Y-52431476D01*
X63836476Y-52336238D01*
X63884095Y-52241000D01*
X63598380Y-53669571D02*
X63598380Y-53479095D01*
X63646000Y-53383857D01*
X63693619Y-53336238D01*
X63836476Y-53241000D01*
X64026952Y-53193380D01*
X64407904Y-53193380D01*
X64503142Y-53241000D01*
X64550761Y-53288619D01*
X64598380Y-53383857D01*
X64598380Y-53574333D01*
X64550761Y-53669571D01*
X64503142Y-53717190D01*
X64407904Y-53764809D01*
X64169809Y-53764809D01*
X64074571Y-53717190D01*
X64026952Y-53669571D01*
X63979333Y-53574333D01*
X63979333Y-53383857D01*
X64026952Y-53288619D01*
X64074571Y-53241000D01*
X64169809Y-53193380D01*
X62058380Y-45526714D02*
X61058380Y-45526714D01*
X61058380Y-45764809D01*
X61106000Y-45907666D01*
X61201238Y-46002904D01*
X61296476Y-46050523D01*
X61486952Y-46098142D01*
X61629809Y-46098142D01*
X61820285Y-46050523D01*
X61915523Y-46002904D01*
X62010761Y-45907666D01*
X62058380Y-45764809D01*
X62058380Y-45526714D01*
X61058380Y-46717190D02*
X61058380Y-46907666D01*
X61106000Y-47002904D01*
X61201238Y-47098142D01*
X61391714Y-47145761D01*
X61725047Y-47145761D01*
X61915523Y-47098142D01*
X62010761Y-47002904D01*
X62058380Y-46907666D01*
X62058380Y-46717190D01*
X62010761Y-46621952D01*
X61915523Y-46526714D01*
X61725047Y-46479095D01*
X61391714Y-46479095D01*
X61201238Y-46526714D01*
X61106000Y-46621952D01*
X61058380Y-46717190D01*
X62058380Y-48098142D02*
X62058380Y-47526714D01*
X62058380Y-47812428D02*
X61058380Y-47812428D01*
X61201238Y-47717190D01*
X61296476Y-47621952D01*
X61344095Y-47526714D01*
X61058380Y-48431476D02*
X61058380Y-49050523D01*
X61439333Y-48717190D01*
X61439333Y-48860047D01*
X61486952Y-48955285D01*
X61534571Y-49002904D01*
X61629809Y-49050523D01*
X61867904Y-49050523D01*
X61963142Y-49002904D01*
X62010761Y-48955285D01*
X62058380Y-48860047D01*
X62058380Y-48574333D01*
X62010761Y-48479095D01*
X61963142Y-48431476D01*
X62058380Y-50241000D02*
X61058380Y-50241000D01*
X61058380Y-50479095D01*
X61106000Y-50621952D01*
X61201238Y-50717190D01*
X61296476Y-50764809D01*
X61486952Y-50812428D01*
X61629809Y-50812428D01*
X61820285Y-50764809D01*
X61915523Y-50717190D01*
X62010761Y-50621952D01*
X62058380Y-50479095D01*
X62058380Y-50241000D01*
X61058380Y-51431476D02*
X61058380Y-51621952D01*
X61106000Y-51717190D01*
X61201238Y-51812428D01*
X61391714Y-51860047D01*
X61725047Y-51860047D01*
X61915523Y-51812428D01*
X62010761Y-51717190D01*
X62058380Y-51621952D01*
X62058380Y-51431476D01*
X62010761Y-51336238D01*
X61915523Y-51241000D01*
X61725047Y-51193380D01*
X61391714Y-51193380D01*
X61201238Y-51241000D01*
X61106000Y-51336238D01*
X61058380Y-51431476D01*
X62058380Y-52812428D02*
X62058380Y-52241000D01*
X62058380Y-52526714D02*
X61058380Y-52526714D01*
X61201238Y-52431476D01*
X61296476Y-52336238D01*
X61344095Y-52241000D01*
X61391714Y-53669571D02*
X62058380Y-53669571D01*
X61010761Y-53431476D02*
X61725047Y-53193380D01*
X61725047Y-53812428D01*
X59518380Y-45526714D02*
X58518380Y-45526714D01*
X58518380Y-45764809D01*
X58566000Y-45907666D01*
X58661238Y-46002904D01*
X58756476Y-46050523D01*
X58946952Y-46098142D01*
X59089809Y-46098142D01*
X59280285Y-46050523D01*
X59375523Y-46002904D01*
X59470761Y-45907666D01*
X59518380Y-45764809D01*
X59518380Y-45526714D01*
X58518380Y-46717190D02*
X58518380Y-46907666D01*
X58566000Y-47002904D01*
X58661238Y-47098142D01*
X58851714Y-47145761D01*
X59185047Y-47145761D01*
X59375523Y-47098142D01*
X59470761Y-47002904D01*
X59518380Y-46907666D01*
X59518380Y-46717190D01*
X59470761Y-46621952D01*
X59375523Y-46526714D01*
X59185047Y-46479095D01*
X58851714Y-46479095D01*
X58661238Y-46526714D01*
X58566000Y-46621952D01*
X58518380Y-46717190D01*
X59518380Y-48098142D02*
X59518380Y-47526714D01*
X59518380Y-47812428D02*
X58518380Y-47812428D01*
X58661238Y-47717190D01*
X58756476Y-47621952D01*
X58804095Y-47526714D01*
X59518380Y-49050523D02*
X59518380Y-48479095D01*
X59518380Y-48764809D02*
X58518380Y-48764809D01*
X58661238Y-48669571D01*
X58756476Y-48574333D01*
X58804095Y-48479095D01*
X59518380Y-50241000D02*
X58518380Y-50241000D01*
X58518380Y-50479095D01*
X58566000Y-50621952D01*
X58661238Y-50717190D01*
X58756476Y-50764809D01*
X58946952Y-50812428D01*
X59089809Y-50812428D01*
X59280285Y-50764809D01*
X59375523Y-50717190D01*
X59470761Y-50621952D01*
X59518380Y-50479095D01*
X59518380Y-50241000D01*
X58518380Y-51431476D02*
X58518380Y-51621952D01*
X58566000Y-51717190D01*
X58661238Y-51812428D01*
X58851714Y-51860047D01*
X59185047Y-51860047D01*
X59375523Y-51812428D01*
X59470761Y-51717190D01*
X59518380Y-51621952D01*
X59518380Y-51431476D01*
X59470761Y-51336238D01*
X59375523Y-51241000D01*
X59185047Y-51193380D01*
X58851714Y-51193380D01*
X58661238Y-51241000D01*
X58566000Y-51336238D01*
X58518380Y-51431476D01*
X59518380Y-52812428D02*
X59518380Y-52241000D01*
X59518380Y-52526714D02*
X58518380Y-52526714D01*
X58661238Y-52431476D01*
X58756476Y-52336238D01*
X58804095Y-52241000D01*
X58613619Y-53193380D02*
X58566000Y-53241000D01*
X58518380Y-53336238D01*
X58518380Y-53574333D01*
X58566000Y-53669571D01*
X58613619Y-53717190D01*
X58708857Y-53764809D01*
X58804095Y-53764809D01*
X58946952Y-53717190D01*
X59518380Y-53145761D01*
X59518380Y-53764809D01*
X56978380Y-46002904D02*
X55978380Y-46002904D01*
X55978380Y-46241000D01*
X56026000Y-46383857D01*
X56121238Y-46479095D01*
X56216476Y-46526714D01*
X56406952Y-46574333D01*
X56549809Y-46574333D01*
X56740285Y-46526714D01*
X56835523Y-46479095D01*
X56930761Y-46383857D01*
X56978380Y-46241000D01*
X56978380Y-46002904D01*
X55978380Y-47193380D02*
X55978380Y-47383857D01*
X56026000Y-47479095D01*
X56121238Y-47574333D01*
X56311714Y-47621952D01*
X56645047Y-47621952D01*
X56835523Y-47574333D01*
X56930761Y-47479095D01*
X56978380Y-47383857D01*
X56978380Y-47193380D01*
X56930761Y-47098142D01*
X56835523Y-47002904D01*
X56645047Y-46955285D01*
X56311714Y-46955285D01*
X56121238Y-47002904D01*
X56026000Y-47098142D01*
X55978380Y-47193380D01*
X56978380Y-48098142D02*
X56978380Y-48288619D01*
X56930761Y-48383857D01*
X56883142Y-48431476D01*
X56740285Y-48526714D01*
X56549809Y-48574333D01*
X56168857Y-48574333D01*
X56073619Y-48526714D01*
X56026000Y-48479095D01*
X55978380Y-48383857D01*
X55978380Y-48193380D01*
X56026000Y-48098142D01*
X56073619Y-48050523D01*
X56168857Y-48002904D01*
X56406952Y-48002904D01*
X56502190Y-48050523D01*
X56549809Y-48098142D01*
X56597428Y-48193380D01*
X56597428Y-48383857D01*
X56549809Y-48479095D01*
X56502190Y-48526714D01*
X56406952Y-48574333D01*
X56978380Y-49764809D02*
X55978380Y-49764809D01*
X55978380Y-50002904D01*
X56026000Y-50145761D01*
X56121238Y-50241000D01*
X56216476Y-50288619D01*
X56406952Y-50336238D01*
X56549809Y-50336238D01*
X56740285Y-50288619D01*
X56835523Y-50241000D01*
X56930761Y-50145761D01*
X56978380Y-50002904D01*
X56978380Y-49764809D01*
X55978380Y-50955285D02*
X55978380Y-51145761D01*
X56026000Y-51241000D01*
X56121238Y-51336238D01*
X56311714Y-51383857D01*
X56645047Y-51383857D01*
X56835523Y-51336238D01*
X56930761Y-51241000D01*
X56978380Y-51145761D01*
X56978380Y-50955285D01*
X56930761Y-50860047D01*
X56835523Y-50764809D01*
X56645047Y-50717190D01*
X56311714Y-50717190D01*
X56121238Y-50764809D01*
X56026000Y-50860047D01*
X55978380Y-50955285D01*
X56978380Y-52336238D02*
X56978380Y-51764809D01*
X56978380Y-52050523D02*
X55978380Y-52050523D01*
X56121238Y-51955285D01*
X56216476Y-51860047D01*
X56264095Y-51764809D01*
X55978380Y-52955285D02*
X55978380Y-53050523D01*
X56026000Y-53145761D01*
X56073619Y-53193380D01*
X56168857Y-53241000D01*
X56359333Y-53288619D01*
X56597428Y-53288619D01*
X56787904Y-53241000D01*
X56883142Y-53193380D01*
X56930761Y-53145761D01*
X56978380Y-53050523D01*
X56978380Y-52955285D01*
X56930761Y-52860047D01*
X56883142Y-52812428D01*
X56787904Y-52764809D01*
X56597428Y-52717190D01*
X56359333Y-52717190D01*
X56168857Y-52764809D01*
X56073619Y-52812428D01*
X56026000Y-52860047D01*
X55978380Y-52955285D01*
X54152666Y-46193380D02*
X54152666Y-46669571D01*
X54438380Y-46098142D02*
X53438380Y-46431476D01*
X54438380Y-46764809D01*
X54438380Y-47098142D02*
X53438380Y-47098142D01*
X54438380Y-48098142D02*
X54438380Y-47526714D01*
X54438380Y-47812428D02*
X53438380Y-47812428D01*
X53581238Y-47717190D01*
X53676476Y-47621952D01*
X53724095Y-47526714D01*
X53438380Y-48955285D02*
X53438380Y-48764809D01*
X53486000Y-48669571D01*
X53533619Y-48621952D01*
X53676476Y-48526714D01*
X53866952Y-48479095D01*
X54247904Y-48479095D01*
X54343142Y-48526714D01*
X54390761Y-48574333D01*
X54438380Y-48669571D01*
X54438380Y-48860047D01*
X54390761Y-48955285D01*
X54343142Y-49002904D01*
X54247904Y-49050523D01*
X54009809Y-49050523D01*
X53914571Y-49002904D01*
X53866952Y-48955285D01*
X53819333Y-48860047D01*
X53819333Y-48669571D01*
X53866952Y-48574333D01*
X53914571Y-48526714D01*
X54009809Y-48479095D01*
X54152666Y-50193380D02*
X54152666Y-50669571D01*
X54438380Y-50098142D02*
X53438380Y-50431476D01*
X54438380Y-50764809D01*
X54438380Y-51098142D02*
X53438380Y-51098142D01*
X54438380Y-52098142D02*
X54438380Y-51526714D01*
X54438380Y-51812428D02*
X53438380Y-51812428D01*
X53581238Y-51717190D01*
X53676476Y-51621952D01*
X53724095Y-51526714D01*
X53438380Y-53002904D02*
X53438380Y-52526714D01*
X53914571Y-52479095D01*
X53866952Y-52526714D01*
X53819333Y-52621952D01*
X53819333Y-52860047D01*
X53866952Y-52955285D01*
X53914571Y-53002904D01*
X54009809Y-53050523D01*
X54247904Y-53050523D01*
X54343142Y-53002904D01*
X54390761Y-52955285D01*
X54438380Y-52860047D01*
X54438380Y-52621952D01*
X54390761Y-52526714D01*
X54343142Y-52479095D01*
X51612666Y-46193380D02*
X51612666Y-46669571D01*
X51898380Y-46098142D02*
X50898380Y-46431476D01*
X51898380Y-46764809D01*
X51898380Y-47098142D02*
X50898380Y-47098142D01*
X51898380Y-48098142D02*
X51898380Y-47526714D01*
X51898380Y-47812428D02*
X50898380Y-47812428D01*
X51041238Y-47717190D01*
X51136476Y-47621952D01*
X51184095Y-47526714D01*
X51231714Y-48955285D02*
X51898380Y-48955285D01*
X50850761Y-48717190D02*
X51565047Y-48479095D01*
X51565047Y-49098142D01*
X51612666Y-50193380D02*
X51612666Y-50669571D01*
X51898380Y-50098142D02*
X50898380Y-50431476D01*
X51898380Y-50764809D01*
X51898380Y-51098142D02*
X50898380Y-51098142D01*
X51898380Y-52098142D02*
X51898380Y-51526714D01*
X51898380Y-51812428D02*
X50898380Y-51812428D01*
X51041238Y-51717190D01*
X51136476Y-51621952D01*
X51184095Y-51526714D01*
X50898380Y-52431476D02*
X50898380Y-53050523D01*
X51279333Y-52717190D01*
X51279333Y-52860047D01*
X51326952Y-52955285D01*
X51374571Y-53002904D01*
X51469809Y-53050523D01*
X51707904Y-53050523D01*
X51803142Y-53002904D01*
X51850761Y-52955285D01*
X51898380Y-52860047D01*
X51898380Y-52574333D01*
X51850761Y-52479095D01*
X51803142Y-52431476D01*
X49072666Y-46193380D02*
X49072666Y-46669571D01*
X49358380Y-46098142D02*
X48358380Y-46431476D01*
X49358380Y-46764809D01*
X49358380Y-47098142D02*
X48358380Y-47098142D01*
X49358380Y-48098142D02*
X49358380Y-47526714D01*
X49358380Y-47812428D02*
X48358380Y-47812428D01*
X48501238Y-47717190D01*
X48596476Y-47621952D01*
X48644095Y-47526714D01*
X48453619Y-48479095D02*
X48406000Y-48526714D01*
X48358380Y-48621952D01*
X48358380Y-48860047D01*
X48406000Y-48955285D01*
X48453619Y-49002904D01*
X48548857Y-49050523D01*
X48644095Y-49050523D01*
X48786952Y-49002904D01*
X49358380Y-48431476D01*
X49358380Y-49050523D01*
X49072666Y-50193380D02*
X49072666Y-50669571D01*
X49358380Y-50098142D02*
X48358380Y-50431476D01*
X49358380Y-50764809D01*
X49358380Y-51098142D02*
X48358380Y-51098142D01*
X49358380Y-52098142D02*
X49358380Y-51526714D01*
X49358380Y-51812428D02*
X48358380Y-51812428D01*
X48501238Y-51717190D01*
X48596476Y-51621952D01*
X48644095Y-51526714D01*
X49358380Y-53050523D02*
X49358380Y-52479095D01*
X49358380Y-52764809D02*
X48358380Y-52764809D01*
X48501238Y-52669571D01*
X48596476Y-52574333D01*
X48644095Y-52479095D01*
X46532666Y-46669571D02*
X46532666Y-47145761D01*
X46818380Y-46574333D02*
X45818380Y-46907666D01*
X46818380Y-47241000D01*
X46818380Y-47574333D02*
X45818380Y-47574333D01*
X46818380Y-48574333D02*
X46818380Y-48002904D01*
X46818380Y-48288619D02*
X45818380Y-48288619D01*
X45961238Y-48193380D01*
X46056476Y-48098142D01*
X46104095Y-48002904D01*
X45818380Y-49193380D02*
X45818380Y-49288619D01*
X45866000Y-49383857D01*
X45913619Y-49431476D01*
X46008857Y-49479095D01*
X46199333Y-49526714D01*
X46437428Y-49526714D01*
X46627904Y-49479095D01*
X46723142Y-49431476D01*
X46770761Y-49383857D01*
X46818380Y-49288619D01*
X46818380Y-49193380D01*
X46770761Y-49098142D01*
X46723142Y-49050523D01*
X46627904Y-49002904D01*
X46437428Y-48955285D01*
X46199333Y-48955285D01*
X46008857Y-49002904D01*
X45913619Y-49050523D01*
X45866000Y-49098142D01*
X45818380Y-49193380D01*
X46532666Y-50669571D02*
X46532666Y-51145761D01*
X46818380Y-50574333D02*
X45818380Y-50907666D01*
X46818380Y-51241000D01*
X46818380Y-51574333D02*
X45818380Y-51574333D01*
X46818380Y-52098142D02*
X46818380Y-52288619D01*
X46770761Y-52383857D01*
X46723142Y-52431476D01*
X46580285Y-52526714D01*
X46389809Y-52574333D01*
X46008857Y-52574333D01*
X45913619Y-52526714D01*
X45866000Y-52479095D01*
X45818380Y-52383857D01*
X45818380Y-52193380D01*
X45866000Y-52098142D01*
X45913619Y-52050523D01*
X46008857Y-52002904D01*
X46246952Y-52002904D01*
X46342190Y-52050523D01*
X46389809Y-52098142D01*
X46437428Y-52193380D01*
X46437428Y-52383857D01*
X46389809Y-52479095D01*
X46342190Y-52526714D01*
X46246952Y-52574333D01*
X43992666Y-46764809D02*
X43992666Y-47241000D01*
X44278380Y-46669571D02*
X43278380Y-47002904D01*
X44278380Y-47336238D01*
X44278380Y-47669571D02*
X43278380Y-47669571D01*
X43706952Y-48288619D02*
X43659333Y-48193380D01*
X43611714Y-48145761D01*
X43516476Y-48098142D01*
X43468857Y-48098142D01*
X43373619Y-48145761D01*
X43326000Y-48193380D01*
X43278380Y-48288619D01*
X43278380Y-48479095D01*
X43326000Y-48574333D01*
X43373619Y-48621952D01*
X43468857Y-48669571D01*
X43516476Y-48669571D01*
X43611714Y-48621952D01*
X43659333Y-48574333D01*
X43706952Y-48479095D01*
X43706952Y-48288619D01*
X43754571Y-48193380D01*
X43802190Y-48145761D01*
X43897428Y-48098142D01*
X44087904Y-48098142D01*
X44183142Y-48145761D01*
X44230761Y-48193380D01*
X44278380Y-48288619D01*
X44278380Y-48479095D01*
X44230761Y-48574333D01*
X44183142Y-48621952D01*
X44087904Y-48669571D01*
X43897428Y-48669571D01*
X43802190Y-48621952D01*
X43754571Y-48574333D01*
X43706952Y-48479095D01*
X43992666Y-50574333D02*
X43992666Y-51050523D01*
X44278380Y-50479095D02*
X43278380Y-50812428D01*
X44278380Y-51145761D01*
X44278380Y-51479095D02*
X43278380Y-51479095D01*
X43278380Y-51860047D02*
X43278380Y-52526714D01*
X44278380Y-52098142D01*
X41452666Y-46764809D02*
X41452666Y-47241000D01*
X41738380Y-46669571D02*
X40738380Y-47002904D01*
X41738380Y-47336238D01*
X41738380Y-47669571D02*
X40738380Y-47669571D01*
X40738380Y-48574333D02*
X40738380Y-48383857D01*
X40786000Y-48288619D01*
X40833619Y-48241000D01*
X40976476Y-48145761D01*
X41166952Y-48098142D01*
X41547904Y-48098142D01*
X41643142Y-48145761D01*
X41690761Y-48193380D01*
X41738380Y-48288619D01*
X41738380Y-48479095D01*
X41690761Y-48574333D01*
X41643142Y-48621952D01*
X41547904Y-48669571D01*
X41309809Y-48669571D01*
X41214571Y-48621952D01*
X41166952Y-48574333D01*
X41119333Y-48479095D01*
X41119333Y-48288619D01*
X41166952Y-48193380D01*
X41214571Y-48145761D01*
X41309809Y-48098142D01*
X41452666Y-50574333D02*
X41452666Y-51050523D01*
X41738380Y-50479095D02*
X40738380Y-50812428D01*
X41738380Y-51145761D01*
X41738380Y-51479095D02*
X40738380Y-51479095D01*
X40738380Y-52431476D02*
X40738380Y-51955285D01*
X41214571Y-51907666D01*
X41166952Y-51955285D01*
X41119333Y-52050523D01*
X41119333Y-52288619D01*
X41166952Y-52383857D01*
X41214571Y-52431476D01*
X41309809Y-52479095D01*
X41547904Y-52479095D01*
X41643142Y-52431476D01*
X41690761Y-52383857D01*
X41738380Y-52288619D01*
X41738380Y-52050523D01*
X41690761Y-51955285D01*
X41643142Y-51907666D01*
X38912666Y-46764809D02*
X38912666Y-47241000D01*
X39198380Y-46669571D02*
X38198380Y-47002904D01*
X39198380Y-47336238D01*
X39198380Y-47669571D02*
X38198380Y-47669571D01*
X38531714Y-48574333D02*
X39198380Y-48574333D01*
X38150761Y-48336238D02*
X38865047Y-48098142D01*
X38865047Y-48717190D01*
X38912666Y-50574333D02*
X38912666Y-51050523D01*
X39198380Y-50479095D02*
X38198380Y-50812428D01*
X39198380Y-51145761D01*
X39198380Y-51479095D02*
X38198380Y-51479095D01*
X38198380Y-51860047D02*
X38198380Y-52479095D01*
X38579333Y-52145761D01*
X38579333Y-52288619D01*
X38626952Y-52383857D01*
X38674571Y-52431476D01*
X38769809Y-52479095D01*
X39007904Y-52479095D01*
X39103142Y-52431476D01*
X39150761Y-52383857D01*
X39198380Y-52288619D01*
X39198380Y-52002904D01*
X39150761Y-51907666D01*
X39103142Y-51860047D01*
X36207566Y-46764809D02*
X36207566Y-47241000D01*
X36493280Y-46669571D02*
X35493280Y-47002904D01*
X36493280Y-47336238D01*
X36493280Y-47669571D02*
X35493280Y-47669571D01*
X35588519Y-48098142D02*
X35540900Y-48145761D01*
X35493280Y-48241000D01*
X35493280Y-48479095D01*
X35540900Y-48574333D01*
X35588519Y-48621952D01*
X35683757Y-48669571D01*
X35778995Y-48669571D01*
X35921852Y-48621952D01*
X36493280Y-48050523D01*
X36493280Y-48669571D01*
X36207566Y-50574333D02*
X36207566Y-51050523D01*
X36493280Y-50479095D02*
X35493280Y-50812428D01*
X36493280Y-51145761D01*
X36493280Y-51479095D02*
X35493280Y-51479095D01*
X36493280Y-52479095D02*
X36493280Y-51907666D01*
X36493280Y-52193380D02*
X35493280Y-52193380D01*
X35636138Y-52098142D01*
X35731376Y-52002904D01*
X35778995Y-51907666D01*
G36*
X76440189Y-35175793D02*
G01*
X76502830Y-35208818D01*
X76546193Y-35258245D01*
X76551839Y-35274822D01*
X76564923Y-35320572D01*
X76584416Y-35392426D01*
X76609664Y-35487856D01*
X76640014Y-35604335D01*
X76674810Y-35739334D01*
X76713400Y-35890328D01*
X76755128Y-36054789D01*
X76799340Y-36230189D01*
X76845382Y-36414000D01*
X77124850Y-37533188D01*
X77378331Y-37704829D01*
X77382056Y-37707351D01*
X77462389Y-37761570D01*
X77534816Y-37810145D01*
X77594747Y-37850025D01*
X77637598Y-37878155D01*
X77658782Y-37891484D01*
X77666456Y-37894500D01*
X77681270Y-37890917D01*
X77699114Y-37871419D01*
X77723416Y-37831704D01*
X77757605Y-37767468D01*
X77803932Y-37683624D01*
X77911908Y-37524069D01*
X78031853Y-37389351D01*
X78161823Y-37280308D01*
X78299877Y-37197780D01*
X78444071Y-37142604D01*
X78592463Y-37115621D01*
X78743109Y-37117669D01*
X78894067Y-37149587D01*
X79043394Y-37212214D01*
X79058744Y-37220612D01*
X79171407Y-37297785D01*
X79284019Y-37400325D01*
X79391919Y-37523011D01*
X79490450Y-37660620D01*
X79574951Y-37807932D01*
X79598861Y-37851960D01*
X79625937Y-37889215D01*
X79644503Y-37896003D01*
X79645142Y-37895616D01*
X79665947Y-37882183D01*
X79708360Y-37854290D01*
X79767968Y-37814857D01*
X79840356Y-37766804D01*
X79921111Y-37713050D01*
X80001391Y-37659252D01*
X80070480Y-37611779D01*
X80119857Y-37575641D01*
X80153222Y-37547705D01*
X80174270Y-37524842D01*
X80186698Y-37503920D01*
X80194206Y-37481810D01*
X80196839Y-37471596D01*
X80207230Y-37430571D01*
X80224270Y-37362898D01*
X80247285Y-37271263D01*
X80275601Y-37158352D01*
X80308547Y-37026851D01*
X80345448Y-36879444D01*
X80385633Y-36718817D01*
X80428427Y-36547656D01*
X80473159Y-36368646D01*
X80498362Y-36267985D01*
X80542296Y-36093605D01*
X80584138Y-35928888D01*
X80623197Y-35776479D01*
X80658782Y-35639022D01*
X80690203Y-35519162D01*
X80716769Y-35419546D01*
X80737789Y-35342816D01*
X80752572Y-35291619D01*
X80760428Y-35268600D01*
X80788384Y-35229778D01*
X80847162Y-35186998D01*
X80919188Y-35163376D01*
X80995716Y-35161336D01*
X81068005Y-35183303D01*
X81081992Y-35191609D01*
X81131498Y-35240076D01*
X81166562Y-35304379D01*
X81179874Y-35372174D01*
X81179874Y-35372256D01*
X81176020Y-35396992D01*
X81164994Y-35449949D01*
X81147400Y-35528586D01*
X81123843Y-35630363D01*
X81094928Y-35752740D01*
X81061260Y-35893178D01*
X81023444Y-36049136D01*
X80982083Y-36218074D01*
X80937784Y-36397454D01*
X80891150Y-36584734D01*
X80885364Y-36607872D01*
X80828802Y-36833420D01*
X80779143Y-37030089D01*
X80735897Y-37199696D01*
X80698571Y-37344052D01*
X80666673Y-37464974D01*
X80639711Y-37564275D01*
X80617195Y-37643768D01*
X80598632Y-37705269D01*
X80583530Y-37750592D01*
X80571398Y-37781550D01*
X80561744Y-37799958D01*
X80541991Y-37823280D01*
X80496739Y-37864000D01*
X80428169Y-37917320D01*
X80334879Y-37984316D01*
X80215468Y-38066065D01*
X80163276Y-38101283D01*
X80081841Y-38156603D01*
X80012112Y-38204433D01*
X79957760Y-38242233D01*
X79922458Y-38267461D01*
X79909875Y-38277578D01*
X79910841Y-38277719D01*
X79932741Y-38273691D01*
X79980629Y-38263012D01*
X80050673Y-38246589D01*
X80139045Y-38225332D01*
X80241916Y-38200147D01*
X80355456Y-38171942D01*
X80801038Y-38060499D01*
X81075926Y-37511094D01*
X81087049Y-37488892D01*
X81148728Y-37366787D01*
X81206804Y-37253463D01*
X81259536Y-37152201D01*
X81305184Y-37066284D01*
X81342008Y-36998994D01*
X81368267Y-36953614D01*
X81382220Y-36933426D01*
X81415225Y-36910212D01*
X81485065Y-36887372D01*
X81561372Y-36887621D01*
X81635028Y-36910337D01*
X81696911Y-36954897D01*
X81716193Y-36977914D01*
X81737637Y-37022785D01*
X81747763Y-37085035D01*
X81747932Y-37087099D01*
X81749187Y-37108093D01*
X81748521Y-37128723D01*
X81744698Y-37151864D01*
X81736484Y-37180386D01*
X81722641Y-37217161D01*
X81701934Y-37265063D01*
X81673129Y-37326962D01*
X81634987Y-37405731D01*
X81586275Y-37504243D01*
X81525756Y-37625368D01*
X81452195Y-37771980D01*
X81414778Y-37846456D01*
X81346851Y-37981223D01*
X81290713Y-38091629D01*
X81244789Y-38180428D01*
X81207508Y-38250370D01*
X81177298Y-38304208D01*
X81152585Y-38344693D01*
X81131797Y-38374578D01*
X81113363Y-38396614D01*
X81095709Y-38413553D01*
X81077263Y-38428147D01*
X81065109Y-38436756D01*
X81042480Y-38450483D01*
X81014531Y-38463963D01*
X80978072Y-38478161D01*
X80929909Y-38494044D01*
X80866851Y-38512577D01*
X80785706Y-38534727D01*
X80683280Y-38561459D01*
X80556383Y-38593740D01*
X80401822Y-38632535D01*
X80269234Y-38665874D01*
X80130238Y-38701487D01*
X80018472Y-38731173D01*
X79931888Y-38755646D01*
X79868437Y-38775619D01*
X79826074Y-38791806D01*
X79802749Y-38804920D01*
X79796415Y-38815673D01*
X79805025Y-38824781D01*
X79826531Y-38832955D01*
X79834981Y-38834919D01*
X79872381Y-38842801D01*
X79936268Y-38855899D01*
X80023709Y-38873623D01*
X80131771Y-38895382D01*
X80257520Y-38920587D01*
X80398023Y-38948648D01*
X80550349Y-38978975D01*
X80711562Y-39010977D01*
X81568812Y-39180904D01*
X81736592Y-39305104D01*
X82325070Y-40482608D01*
X82421130Y-40674882D01*
X82514256Y-40861525D01*
X82594833Y-41023424D01*
X82663746Y-41162485D01*
X82721883Y-41280613D01*
X82770130Y-41379712D01*
X82809376Y-41461688D01*
X82840507Y-41528446D01*
X82864409Y-41581892D01*
X82881970Y-41623930D01*
X82894078Y-41656465D01*
X82901618Y-41681402D01*
X82905478Y-41700648D01*
X82906546Y-41716106D01*
X82905707Y-41729682D01*
X82899649Y-41763373D01*
X82866798Y-41837990D01*
X82812837Y-41894020D01*
X82742787Y-41927269D01*
X82661668Y-41933542D01*
X82656569Y-41933036D01*
X82633488Y-41930620D01*
X82612581Y-41926968D01*
X82592752Y-41920272D01*
X82572906Y-41908722D01*
X82551948Y-41890510D01*
X82528780Y-41863827D01*
X82502309Y-41826864D01*
X82471438Y-41777813D01*
X82435073Y-41714864D01*
X82392116Y-41636209D01*
X82341474Y-41540039D01*
X82282050Y-41424545D01*
X82212748Y-41287918D01*
X82132474Y-41128350D01*
X82040132Y-40944032D01*
X81934626Y-40733155D01*
X81372688Y-39610012D01*
X80851625Y-39505743D01*
X80761879Y-39487883D01*
X80644730Y-39464889D01*
X80540437Y-39444788D01*
X80452654Y-39428264D01*
X80385031Y-39416001D01*
X80341221Y-39408684D01*
X80324874Y-39406998D01*
X80335431Y-39414390D01*
X80370856Y-39434146D01*
X80427643Y-39464285D01*
X80502134Y-39502893D01*
X80590673Y-39548058D01*
X80689605Y-39597867D01*
X80779399Y-39643267D01*
X80872420Y-39691372D01*
X80953000Y-39734185D01*
X81017123Y-39769532D01*
X81060773Y-39795241D01*
X81079935Y-39809137D01*
X81084303Y-39814783D01*
X81099332Y-39833801D01*
X81112760Y-39851127D01*
X81124971Y-39868592D01*
X81136348Y-39888032D01*
X81147275Y-39911277D01*
X81158136Y-39940163D01*
X81169315Y-39976522D01*
X81181194Y-40022186D01*
X81194157Y-40078990D01*
X81208588Y-40148766D01*
X81224870Y-40233348D01*
X81243387Y-40334569D01*
X81264523Y-40454261D01*
X81288660Y-40594258D01*
X81316183Y-40756394D01*
X81347475Y-40942501D01*
X81382919Y-41154412D01*
X81422899Y-41393961D01*
X81467799Y-41662981D01*
X81512509Y-41931324D01*
X81557098Y-42200481D01*
X81596534Y-42440403D01*
X81630983Y-42652162D01*
X81660612Y-42836831D01*
X81685588Y-42995484D01*
X81706078Y-43129194D01*
X81722247Y-43239033D01*
X81734264Y-43326075D01*
X81742293Y-43391393D01*
X81746503Y-43436059D01*
X81747060Y-43461147D01*
X81745927Y-43474512D01*
X81737420Y-43525379D01*
X81719301Y-43561711D01*
X81685100Y-43597777D01*
X81659042Y-43619435D01*
X81588980Y-43655407D01*
X81515757Y-43660179D01*
X81436668Y-43634146D01*
X81416228Y-43622809D01*
X81368074Y-43586826D01*
X81336563Y-43549813D01*
X81332230Y-43536905D01*
X81321736Y-43492015D01*
X81306482Y-43416990D01*
X81286600Y-43312559D01*
X81262218Y-43179451D01*
X81233466Y-43018396D01*
X81200474Y-42830123D01*
X81163371Y-42615362D01*
X81122288Y-42374841D01*
X81077354Y-42109290D01*
X81028698Y-41819438D01*
X81027030Y-41809464D01*
X80989146Y-41583060D01*
X80952745Y-41365691D01*
X80918168Y-41159380D01*
X80885756Y-40966155D01*
X80855849Y-40788041D01*
X80828788Y-40627063D01*
X80804915Y-40485246D01*
X80784569Y-40364618D01*
X80768091Y-40267203D01*
X80755823Y-40195027D01*
X80748104Y-40150116D01*
X80745276Y-40134495D01*
X80734081Y-40128314D01*
X80698679Y-40110146D01*
X80643764Y-40082427D01*
X80574128Y-40047535D01*
X80494560Y-40007846D01*
X80409851Y-39965738D01*
X80324790Y-39923586D01*
X80244167Y-39883769D01*
X80172773Y-39848662D01*
X80115397Y-39820643D01*
X80076830Y-39802088D01*
X80061861Y-39795375D01*
X80062102Y-39799655D01*
X80071814Y-39826180D01*
X80091215Y-39871577D01*
X80117704Y-39929589D01*
X80209427Y-40152416D01*
X80290803Y-40423579D01*
X80344984Y-40704084D01*
X80371995Y-40990212D01*
X80371863Y-41278245D01*
X80344615Y-41564465D01*
X80290276Y-41845153D01*
X80208873Y-42116592D01*
X80100432Y-42375063D01*
X80098297Y-42379444D01*
X80011076Y-42544077D01*
X79918728Y-42687901D01*
X79813746Y-42821496D01*
X79688624Y-42955440D01*
X79607451Y-43032520D01*
X79435495Y-43169745D01*
X79258134Y-43276480D01*
X79074060Y-43353447D01*
X78881968Y-43401368D01*
X78766875Y-43421067D01*
X78766875Y-44557875D01*
X78544625Y-44557875D01*
X78544625Y-43414875D01*
X78507959Y-43414875D01*
X78467432Y-43410583D01*
X78402076Y-43397212D01*
X78323954Y-43377178D01*
X78241955Y-43352955D01*
X78164969Y-43327018D01*
X78101884Y-43301842D01*
X77991616Y-43244634D01*
X77849801Y-43152078D01*
X77709136Y-43041096D01*
X77577089Y-42917678D01*
X77461124Y-42787813D01*
X77347813Y-42630411D01*
X77229154Y-42422207D01*
X77128552Y-42194618D01*
X77047246Y-41952074D01*
X76986472Y-41699005D01*
X76947468Y-41439840D01*
X76931470Y-41179008D01*
X76939715Y-40920940D01*
X76974519Y-40634721D01*
X77031172Y-40368563D01*
X77110389Y-40120309D01*
X77212953Y-39887003D01*
X77234695Y-39841772D01*
X77248648Y-39808203D01*
X77250896Y-39795375D01*
X77239863Y-39800043D01*
X77204491Y-39816796D01*
X77149513Y-39843468D01*
X77079719Y-39877680D01*
X76999899Y-39917051D01*
X76914845Y-39959202D01*
X76829345Y-40001752D01*
X76748190Y-40042323D01*
X76676170Y-40078535D01*
X76618075Y-40108007D01*
X76578696Y-40128360D01*
X76562822Y-40137214D01*
X76559707Y-40152376D01*
X76551732Y-40196884D01*
X76539260Y-40268688D01*
X76522634Y-40365747D01*
X76502200Y-40486017D01*
X76478301Y-40627456D01*
X76451282Y-40788023D01*
X76421487Y-40965675D01*
X76389261Y-41158369D01*
X76354947Y-41364063D01*
X76318891Y-41580715D01*
X76281436Y-41806282D01*
X76245843Y-42020732D01*
X76209530Y-42239209D01*
X76174889Y-42447325D01*
X76142270Y-42642982D01*
X76112024Y-42824084D01*
X76084504Y-42988535D01*
X76060059Y-43134240D01*
X76039042Y-43259101D01*
X76021803Y-43361023D01*
X76008693Y-43437909D01*
X76000065Y-43487664D01*
X75996269Y-43508191D01*
X75995321Y-43511843D01*
X75965214Y-43567172D01*
X75913091Y-43613607D01*
X75847872Y-43646556D01*
X75778479Y-43661426D01*
X75713833Y-43653622D01*
X75712628Y-43653197D01*
X75646241Y-43615827D01*
X75592286Y-43559772D01*
X75560410Y-43495007D01*
X75559284Y-43488528D01*
X75558744Y-43469700D01*
X75560356Y-43440413D01*
X75564367Y-43399066D01*
X75571020Y-43344055D01*
X75580563Y-43273777D01*
X75593241Y-43186629D01*
X75609299Y-43081008D01*
X75628982Y-42955311D01*
X75652538Y-42807935D01*
X75680210Y-42637277D01*
X75712245Y-42441735D01*
X75748888Y-42219704D01*
X75790385Y-41969583D01*
X75836981Y-41689768D01*
X76128635Y-39940847D01*
X76192668Y-39856205D01*
X76198945Y-39847974D01*
X76219594Y-39822651D01*
X76241736Y-39800129D01*
X76269232Y-39778011D01*
X76305940Y-39753901D01*
X76355720Y-39725403D01*
X76422432Y-39690122D01*
X76509935Y-39645661D01*
X76622089Y-39589625D01*
X76710473Y-39545472D01*
X76799846Y-39500498D01*
X76875620Y-39462014D01*
X76934080Y-39431919D01*
X76971514Y-39412112D01*
X76984207Y-39404492D01*
X76975387Y-39405592D01*
X76938994Y-39412079D01*
X76877778Y-39423674D01*
X76795358Y-39439674D01*
X76695353Y-39459373D01*
X76581381Y-39482068D01*
X76457062Y-39507055D01*
X75933187Y-39612813D01*
X75368475Y-40738080D01*
X75322629Y-40829370D01*
X75215441Y-41042200D01*
X75121276Y-41228181D01*
X75039496Y-41388525D01*
X74969463Y-41524447D01*
X74910540Y-41637160D01*
X74862088Y-41727876D01*
X74823470Y-41797810D01*
X74794048Y-41848175D01*
X74773184Y-41880184D01*
X74760239Y-41895050D01*
X74714548Y-41920072D01*
X74639473Y-41934740D01*
X74563187Y-41923418D01*
X74493266Y-41887653D01*
X74437285Y-41828997D01*
X74430260Y-41818546D01*
X74418986Y-41800889D01*
X74410251Y-41783278D01*
X74404830Y-41763814D01*
X74403497Y-41740600D01*
X74407026Y-41711738D01*
X74416193Y-41675330D01*
X74431771Y-41629480D01*
X74454534Y-41572288D01*
X74485258Y-41501858D01*
X74524715Y-41416291D01*
X74573682Y-41313691D01*
X74632931Y-41192158D01*
X74703238Y-41049797D01*
X74785376Y-40884708D01*
X74880121Y-40694995D01*
X74988245Y-40478759D01*
X75575241Y-39304852D01*
X75742687Y-39180904D01*
X76599937Y-39010977D01*
X76695827Y-38991953D01*
X76852158Y-38960867D01*
X76997874Y-38931804D01*
X77130040Y-38905354D01*
X77245723Y-38882108D01*
X77341990Y-38862655D01*
X77415909Y-38847585D01*
X77464546Y-38837488D01*
X77484968Y-38832955D01*
X77501373Y-38827270D01*
X77514197Y-38818432D01*
X77512489Y-38808164D01*
X77494197Y-38795750D01*
X77457272Y-38780476D01*
X77399665Y-38761624D01*
X77319324Y-38738479D01*
X77214201Y-38710325D01*
X77082245Y-38676446D01*
X76921406Y-38636126D01*
X76900604Y-38630945D01*
X76768542Y-38597817D01*
X76645861Y-38566642D01*
X76536137Y-38538357D01*
X76442944Y-38513900D01*
X76369859Y-38494207D01*
X76320457Y-38480216D01*
X76298312Y-38472861D01*
X76293776Y-38470542D01*
X76265229Y-38454806D01*
X76239262Y-38437113D01*
X76214218Y-38414809D01*
X76188439Y-38385240D01*
X76160269Y-38345750D01*
X76128051Y-38293686D01*
X76090127Y-38226392D01*
X76044841Y-38141215D01*
X75990536Y-38035500D01*
X75925555Y-37906593D01*
X75848240Y-37751838D01*
X75795879Y-37646726D01*
X75730808Y-37515627D01*
X75677989Y-37408259D01*
X75636228Y-37321875D01*
X75604328Y-37253728D01*
X75581092Y-37201072D01*
X75565324Y-37161160D01*
X75555829Y-37131245D01*
X75551408Y-37108582D01*
X75550867Y-37090422D01*
X75553008Y-37074019D01*
X75570403Y-37020914D01*
X75613132Y-36960203D01*
X75671807Y-36915517D01*
X75739959Y-36889088D01*
X75811120Y-36883148D01*
X75878818Y-36899930D01*
X75936586Y-36941666D01*
X75937535Y-36942778D01*
X75953399Y-36967767D01*
X75981334Y-37017483D01*
X76019568Y-37088558D01*
X76066330Y-37177620D01*
X76119847Y-37281300D01*
X76178350Y-37396227D01*
X76240066Y-37519031D01*
X76510464Y-38060500D01*
X76956044Y-38171942D01*
X76985436Y-38179281D01*
X77096649Y-38206810D01*
X77196229Y-38231092D01*
X77280346Y-38251217D01*
X77345170Y-38266278D01*
X77386873Y-38275368D01*
X77401625Y-38277578D01*
X77397153Y-38273583D01*
X77370705Y-38254261D01*
X77323695Y-38221344D01*
X77259797Y-38177369D01*
X77182685Y-38124875D01*
X77096031Y-38066401D01*
X76993274Y-37996387D01*
X76897387Y-37928310D01*
X76825922Y-37873780D01*
X76777229Y-37831532D01*
X76749660Y-37800297D01*
X76749362Y-37799848D01*
X76739553Y-37780827D01*
X76727189Y-37749005D01*
X76711777Y-37702577D01*
X76692826Y-37639736D01*
X76669845Y-37558678D01*
X76642342Y-37457595D01*
X76609825Y-37334683D01*
X76571803Y-37188136D01*
X76527783Y-37016148D01*
X76477276Y-36816913D01*
X76419788Y-36588625D01*
X76373447Y-36403334D01*
X76329011Y-36224071D01*
X76287536Y-36055174D01*
X76249629Y-35899192D01*
X76215898Y-35758676D01*
X76186951Y-35636177D01*
X76163395Y-35534246D01*
X76145839Y-35455434D01*
X76134891Y-35402291D01*
X76131158Y-35377368D01*
X76139506Y-35315476D01*
X76173771Y-35243981D01*
X76231614Y-35190983D01*
X76292972Y-35166625D01*
X76367244Y-35161089D01*
X76440189Y-35175793D01*
G37*
D11*
X76440189Y-35175793D02*
X76502830Y-35208818D01*
X76546193Y-35258245D01*
X76551839Y-35274822D01*
X76564923Y-35320572D01*
X76584416Y-35392426D01*
X76609664Y-35487856D01*
X76640014Y-35604335D01*
X76674810Y-35739334D01*
X76713400Y-35890328D01*
X76755128Y-36054789D01*
X76799340Y-36230189D01*
X76845382Y-36414000D01*
X77124850Y-37533188D01*
X77378331Y-37704829D01*
X77382056Y-37707351D01*
X77462389Y-37761570D01*
X77534816Y-37810145D01*
X77594747Y-37850025D01*
X77637598Y-37878155D01*
X77658782Y-37891484D01*
X77666456Y-37894500D01*
X77681270Y-37890917D01*
X77699114Y-37871419D01*
X77723416Y-37831704D01*
X77757605Y-37767468D01*
X77803932Y-37683624D01*
X77911908Y-37524069D01*
X78031853Y-37389351D01*
X78161823Y-37280308D01*
X78299877Y-37197780D01*
X78444071Y-37142604D01*
X78592463Y-37115621D01*
X78743109Y-37117669D01*
X78894067Y-37149587D01*
X79043394Y-37212214D01*
X79058744Y-37220612D01*
X79171407Y-37297785D01*
X79284019Y-37400325D01*
X79391919Y-37523011D01*
X79490450Y-37660620D01*
X79574951Y-37807932D01*
X79598861Y-37851960D01*
X79625937Y-37889215D01*
X79644503Y-37896003D01*
X79645142Y-37895616D01*
X79665947Y-37882183D01*
X79708360Y-37854290D01*
X79767968Y-37814857D01*
X79840356Y-37766804D01*
X79921111Y-37713050D01*
X80001391Y-37659252D01*
X80070480Y-37611779D01*
X80119857Y-37575641D01*
X80153222Y-37547705D01*
X80174270Y-37524842D01*
X80186698Y-37503920D01*
X80194206Y-37481810D01*
X80196839Y-37471596D01*
X80207230Y-37430571D01*
X80224270Y-37362898D01*
X80247285Y-37271263D01*
X80275601Y-37158352D01*
X80308547Y-37026851D01*
X80345448Y-36879444D01*
X80385633Y-36718817D01*
X80428427Y-36547656D01*
X80473159Y-36368646D01*
X80498362Y-36267985D01*
X80542296Y-36093605D01*
X80584138Y-35928888D01*
X80623197Y-35776479D01*
X80658782Y-35639022D01*
X80690203Y-35519162D01*
X80716769Y-35419546D01*
X80737789Y-35342816D01*
X80752572Y-35291619D01*
X80760428Y-35268600D01*
X80788384Y-35229778D01*
X80847162Y-35186998D01*
X80919188Y-35163376D01*
X80995716Y-35161336D01*
X81068005Y-35183303D01*
X81081992Y-35191609D01*
X81131498Y-35240076D01*
X81166562Y-35304379D01*
X81179874Y-35372174D01*
X81179874Y-35372256D01*
X81176020Y-35396992D01*
X81164994Y-35449949D01*
X81147400Y-35528586D01*
X81123843Y-35630363D01*
X81094928Y-35752740D01*
X81061260Y-35893178D01*
X81023444Y-36049136D01*
X80982083Y-36218074D01*
X80937784Y-36397454D01*
X80891150Y-36584734D01*
X80885364Y-36607872D01*
X80828802Y-36833420D01*
X80779143Y-37030089D01*
X80735897Y-37199696D01*
X80698571Y-37344052D01*
X80666673Y-37464974D01*
X80639711Y-37564275D01*
X80617195Y-37643768D01*
X80598632Y-37705269D01*
X80583530Y-37750592D01*
X80571398Y-37781550D01*
X80561744Y-37799958D01*
X80541991Y-37823280D01*
X80496739Y-37864000D01*
X80428169Y-37917320D01*
X80334879Y-37984316D01*
X80215468Y-38066065D01*
X80163276Y-38101283D01*
X80081841Y-38156603D01*
X80012112Y-38204433D01*
X79957760Y-38242233D01*
X79922458Y-38267461D01*
X79909875Y-38277578D01*
X79910841Y-38277719D01*
X79932741Y-38273691D01*
X79980629Y-38263012D01*
X80050673Y-38246589D01*
X80139045Y-38225332D01*
X80241916Y-38200147D01*
X80355456Y-38171942D01*
X80801038Y-38060499D01*
X81075926Y-37511094D01*
X81087049Y-37488892D01*
X81148728Y-37366787D01*
X81206804Y-37253463D01*
X81259536Y-37152201D01*
X81305184Y-37066284D01*
X81342008Y-36998994D01*
X81368267Y-36953614D01*
X81382220Y-36933426D01*
X81415225Y-36910212D01*
X81485065Y-36887372D01*
X81561372Y-36887621D01*
X81635028Y-36910337D01*
X81696911Y-36954897D01*
X81716193Y-36977914D01*
X81737637Y-37022785D01*
X81747763Y-37085035D01*
X81747932Y-37087099D01*
X81749187Y-37108093D01*
X81748521Y-37128723D01*
X81744698Y-37151864D01*
X81736484Y-37180386D01*
X81722641Y-37217161D01*
X81701934Y-37265063D01*
X81673129Y-37326962D01*
X81634987Y-37405731D01*
X81586275Y-37504243D01*
X81525756Y-37625368D01*
X81452195Y-37771980D01*
X81414778Y-37846456D01*
X81346851Y-37981223D01*
X81290713Y-38091629D01*
X81244789Y-38180428D01*
X81207508Y-38250370D01*
X81177298Y-38304208D01*
X81152585Y-38344693D01*
X81131797Y-38374578D01*
X81113363Y-38396614D01*
X81095709Y-38413553D01*
X81077263Y-38428147D01*
X81065109Y-38436756D01*
X81042480Y-38450483D01*
X81014531Y-38463963D01*
X80978072Y-38478161D01*
X80929909Y-38494044D01*
X80866851Y-38512577D01*
X80785706Y-38534727D01*
X80683280Y-38561459D01*
X80556383Y-38593740D01*
X80401822Y-38632535D01*
X80269234Y-38665874D01*
X80130238Y-38701487D01*
X80018472Y-38731173D01*
X79931888Y-38755646D01*
X79868437Y-38775619D01*
X79826074Y-38791806D01*
X79802749Y-38804920D01*
X79796415Y-38815673D01*
X79805025Y-38824781D01*
X79826531Y-38832955D01*
X79834981Y-38834919D01*
X79872381Y-38842801D01*
X79936268Y-38855899D01*
X80023709Y-38873623D01*
X80131771Y-38895382D01*
X80257520Y-38920587D01*
X80398023Y-38948648D01*
X80550349Y-38978975D01*
X80711562Y-39010977D01*
X81568812Y-39180904D01*
X81736592Y-39305104D01*
X82325070Y-40482608D01*
X82421130Y-40674882D01*
X82514256Y-40861525D01*
X82594833Y-41023424D01*
X82663746Y-41162485D01*
X82721883Y-41280613D01*
X82770130Y-41379712D01*
X82809376Y-41461688D01*
X82840507Y-41528446D01*
X82864409Y-41581892D01*
X82881970Y-41623930D01*
X82894078Y-41656465D01*
X82901618Y-41681402D01*
X82905478Y-41700648D01*
X82906546Y-41716106D01*
X82905707Y-41729682D01*
X82899649Y-41763373D01*
X82866798Y-41837990D01*
X82812837Y-41894020D01*
X82742787Y-41927269D01*
X82661668Y-41933542D01*
X82656569Y-41933036D01*
X82633488Y-41930620D01*
X82612581Y-41926968D01*
X82592752Y-41920272D01*
X82572906Y-41908722D01*
X82551948Y-41890510D01*
X82528780Y-41863827D01*
X82502309Y-41826864D01*
X82471438Y-41777813D01*
X82435073Y-41714864D01*
X82392116Y-41636209D01*
X82341474Y-41540039D01*
X82282050Y-41424545D01*
X82212748Y-41287918D01*
X82132474Y-41128350D01*
X82040132Y-40944032D01*
X81934626Y-40733155D01*
X81372688Y-39610012D01*
X80851625Y-39505743D01*
X80761879Y-39487883D01*
X80644730Y-39464889D01*
X80540437Y-39444788D01*
X80452654Y-39428264D01*
X80385031Y-39416001D01*
X80341221Y-39408684D01*
X80324874Y-39406998D01*
X80335431Y-39414390D01*
X80370856Y-39434146D01*
X80427643Y-39464285D01*
X80502134Y-39502893D01*
X80590673Y-39548058D01*
X80689605Y-39597867D01*
X80779399Y-39643267D01*
X80872420Y-39691372D01*
X80953000Y-39734185D01*
X81017123Y-39769532D01*
X81060773Y-39795241D01*
X81079935Y-39809137D01*
X81084303Y-39814783D01*
X81099332Y-39833801D01*
X81112760Y-39851127D01*
X81124971Y-39868592D01*
X81136348Y-39888032D01*
X81147275Y-39911277D01*
X81158136Y-39940163D01*
X81169315Y-39976522D01*
X81181194Y-40022186D01*
X81194157Y-40078990D01*
X81208588Y-40148766D01*
X81224870Y-40233348D01*
X81243387Y-40334569D01*
X81264523Y-40454261D01*
X81288660Y-40594258D01*
X81316183Y-40756394D01*
X81347475Y-40942501D01*
X81382919Y-41154412D01*
X81422899Y-41393961D01*
X81467799Y-41662981D01*
X81512509Y-41931324D01*
X81557098Y-42200481D01*
X81596534Y-42440403D01*
X81630983Y-42652162D01*
X81660612Y-42836831D01*
X81685588Y-42995484D01*
X81706078Y-43129194D01*
X81722247Y-43239033D01*
X81734264Y-43326075D01*
X81742293Y-43391393D01*
X81746503Y-43436059D01*
X81747060Y-43461147D01*
X81745927Y-43474512D01*
X81737420Y-43525379D01*
X81719301Y-43561711D01*
X81685100Y-43597777D01*
X81659042Y-43619435D01*
X81588980Y-43655407D01*
X81515757Y-43660179D01*
X81436668Y-43634146D01*
X81416228Y-43622809D01*
X81368074Y-43586826D01*
X81336563Y-43549813D01*
X81332230Y-43536905D01*
X81321736Y-43492015D01*
X81306482Y-43416990D01*
X81286600Y-43312559D01*
X81262218Y-43179451D01*
X81233466Y-43018396D01*
X81200474Y-42830123D01*
X81163371Y-42615362D01*
X81122288Y-42374841D01*
X81077354Y-42109290D01*
X81028698Y-41819438D01*
X81027030Y-41809464D01*
X80989146Y-41583060D01*
X80952745Y-41365691D01*
X80918168Y-41159380D01*
X80885756Y-40966155D01*
X80855849Y-40788041D01*
X80828788Y-40627063D01*
X80804915Y-40485246D01*
X80784569Y-40364618D01*
X80768091Y-40267203D01*
X80755823Y-40195027D01*
X80748104Y-40150116D01*
X80745276Y-40134495D01*
X80734081Y-40128314D01*
X80698679Y-40110146D01*
X80643764Y-40082427D01*
X80574128Y-40047535D01*
X80494560Y-40007846D01*
X80409851Y-39965738D01*
X80324790Y-39923586D01*
X80244167Y-39883769D01*
X80172773Y-39848662D01*
X80115397Y-39820643D01*
X80076830Y-39802088D01*
X80061861Y-39795375D01*
X80062102Y-39799655D01*
X80071814Y-39826180D01*
X80091215Y-39871577D01*
X80117704Y-39929589D01*
X80209427Y-40152416D01*
X80290803Y-40423579D01*
X80344984Y-40704084D01*
X80371995Y-40990212D01*
X80371863Y-41278245D01*
X80344615Y-41564465D01*
X80290276Y-41845153D01*
X80208873Y-42116592D01*
X80100432Y-42375063D01*
X80098297Y-42379444D01*
X80011076Y-42544077D01*
X79918728Y-42687901D01*
X79813746Y-42821496D01*
X79688624Y-42955440D01*
X79607451Y-43032520D01*
X79435495Y-43169745D01*
X79258134Y-43276480D01*
X79074060Y-43353447D01*
X78881968Y-43401368D01*
X78766875Y-43421067D01*
X78766875Y-44557875D01*
X78544625Y-44557875D01*
X78544625Y-43414875D01*
X78507959Y-43414875D01*
X78467432Y-43410583D01*
X78402076Y-43397212D01*
X78323954Y-43377178D01*
X78241955Y-43352955D01*
X78164969Y-43327018D01*
X78101884Y-43301842D01*
X77991616Y-43244634D01*
X77849801Y-43152078D01*
X77709136Y-43041096D01*
X77577089Y-42917678D01*
X77461124Y-42787813D01*
X77347813Y-42630411D01*
X77229154Y-42422207D01*
X77128552Y-42194618D01*
X77047246Y-41952074D01*
X76986472Y-41699005D01*
X76947468Y-41439840D01*
X76931470Y-41179008D01*
X76939715Y-40920940D01*
X76974519Y-40634721D01*
X77031172Y-40368563D01*
X77110389Y-40120309D01*
X77212953Y-39887003D01*
X77234695Y-39841772D01*
X77248648Y-39808203D01*
X77250896Y-39795375D01*
X77239863Y-39800043D01*
X77204491Y-39816796D01*
X77149513Y-39843468D01*
X77079719Y-39877680D01*
X76999899Y-39917051D01*
X76914845Y-39959202D01*
X76829345Y-40001752D01*
X76748190Y-40042323D01*
X76676170Y-40078535D01*
X76618075Y-40108007D01*
X76578696Y-40128360D01*
X76562822Y-40137214D01*
X76559707Y-40152376D01*
X76551732Y-40196884D01*
X76539260Y-40268688D01*
X76522634Y-40365747D01*
X76502200Y-40486017D01*
X76478301Y-40627456D01*
X76451282Y-40788023D01*
X76421487Y-40965675D01*
X76389261Y-41158369D01*
X76354947Y-41364063D01*
X76318891Y-41580715D01*
X76281436Y-41806282D01*
X76245843Y-42020732D01*
X76209530Y-42239209D01*
X76174889Y-42447325D01*
X76142270Y-42642982D01*
X76112024Y-42824084D01*
X76084504Y-42988535D01*
X76060059Y-43134240D01*
X76039042Y-43259101D01*
X76021803Y-43361023D01*
X76008693Y-43437909D01*
X76000065Y-43487664D01*
X75996269Y-43508191D01*
X75995321Y-43511843D01*
X75965214Y-43567172D01*
X75913091Y-43613607D01*
X75847872Y-43646556D01*
X75778479Y-43661426D01*
X75713833Y-43653622D01*
X75712628Y-43653197D01*
X75646241Y-43615827D01*
X75592286Y-43559772D01*
X75560410Y-43495007D01*
X75559284Y-43488528D01*
X75558744Y-43469700D01*
X75560356Y-43440413D01*
X75564367Y-43399066D01*
X75571020Y-43344055D01*
X75580563Y-43273777D01*
X75593241Y-43186629D01*
X75609299Y-43081008D01*
X75628982Y-42955311D01*
X75652538Y-42807935D01*
X75680210Y-42637277D01*
X75712245Y-42441735D01*
X75748888Y-42219704D01*
X75790385Y-41969583D01*
X75836981Y-41689768D01*
X76128635Y-39940847D01*
X76192668Y-39856205D01*
X76198945Y-39847974D01*
X76219594Y-39822651D01*
X76241736Y-39800129D01*
X76269232Y-39778011D01*
X76305940Y-39753901D01*
X76355720Y-39725403D01*
X76422432Y-39690122D01*
X76509935Y-39645661D01*
X76622089Y-39589625D01*
X76710473Y-39545472D01*
X76799846Y-39500498D01*
X76875620Y-39462014D01*
X76934080Y-39431919D01*
X76971514Y-39412112D01*
X76984207Y-39404492D01*
X76975387Y-39405592D01*
X76938994Y-39412079D01*
X76877778Y-39423674D01*
X76795358Y-39439674D01*
X76695353Y-39459373D01*
X76581381Y-39482068D01*
X76457062Y-39507055D01*
X75933187Y-39612813D01*
X75368475Y-40738080D01*
X75322629Y-40829370D01*
X75215441Y-41042200D01*
X75121276Y-41228181D01*
X75039496Y-41388525D01*
X74969463Y-41524447D01*
X74910540Y-41637160D01*
X74862088Y-41727876D01*
X74823470Y-41797810D01*
X74794048Y-41848175D01*
X74773184Y-41880184D01*
X74760239Y-41895050D01*
X74714548Y-41920072D01*
X74639473Y-41934740D01*
X74563187Y-41923418D01*
X74493266Y-41887653D01*
X74437285Y-41828997D01*
X74430260Y-41818546D01*
X74418986Y-41800889D01*
X74410251Y-41783278D01*
X74404830Y-41763814D01*
X74403497Y-41740600D01*
X74407026Y-41711738D01*
X74416193Y-41675330D01*
X74431771Y-41629480D01*
X74454534Y-41572288D01*
X74485258Y-41501858D01*
X74524715Y-41416291D01*
X74573682Y-41313691D01*
X74632931Y-41192158D01*
X74703238Y-41049797D01*
X74785376Y-40884708D01*
X74880121Y-40694995D01*
X74988245Y-40478759D01*
X75575241Y-39304852D01*
X75742687Y-39180904D01*
X76599937Y-39010977D01*
X76695827Y-38991953D01*
X76852158Y-38960867D01*
X76997874Y-38931804D01*
X77130040Y-38905354D01*
X77245723Y-38882108D01*
X77341990Y-38862655D01*
X77415909Y-38847585D01*
X77464546Y-38837488D01*
X77484968Y-38832955D01*
X77501373Y-38827270D01*
X77514197Y-38818432D01*
X77512489Y-38808164D01*
X77494197Y-38795750D01*
X77457272Y-38780476D01*
X77399665Y-38761624D01*
X77319324Y-38738479D01*
X77214201Y-38710325D01*
X77082245Y-38676446D01*
X76921406Y-38636126D01*
X76900604Y-38630945D01*
X76768542Y-38597817D01*
X76645861Y-38566642D01*
X76536137Y-38538357D01*
X76442944Y-38513900D01*
X76369859Y-38494207D01*
X76320457Y-38480216D01*
X76298312Y-38472861D01*
X76293776Y-38470542D01*
X76265229Y-38454806D01*
X76239262Y-38437113D01*
X76214218Y-38414809D01*
X76188439Y-38385240D01*
X76160269Y-38345750D01*
X76128051Y-38293686D01*
X76090127Y-38226392D01*
X76044841Y-38141215D01*
X75990536Y-38035500D01*
X75925555Y-37906593D01*
X75848240Y-37751838D01*
X75795879Y-37646726D01*
X75730808Y-37515627D01*
X75677989Y-37408259D01*
X75636228Y-37321875D01*
X75604328Y-37253728D01*
X75581092Y-37201072D01*
X75565324Y-37161160D01*
X75555829Y-37131245D01*
X75551408Y-37108582D01*
X75550867Y-37090422D01*
X75553008Y-37074019D01*
X75570403Y-37020914D01*
X75613132Y-36960203D01*
X75671807Y-36915517D01*
X75739959Y-36889088D01*
X75811120Y-36883148D01*
X75878818Y-36899930D01*
X75936586Y-36941666D01*
X75937535Y-36942778D01*
X75953399Y-36967767D01*
X75981334Y-37017483D01*
X76019568Y-37088558D01*
X76066330Y-37177620D01*
X76119847Y-37281300D01*
X76178350Y-37396227D01*
X76240066Y-37519031D01*
X76510464Y-38060500D01*
X76956044Y-38171942D01*
X76985436Y-38179281D01*
X77096649Y-38206810D01*
X77196229Y-38231092D01*
X77280346Y-38251217D01*
X77345170Y-38266278D01*
X77386873Y-38275368D01*
X77401625Y-38277578D01*
X77397153Y-38273583D01*
X77370705Y-38254261D01*
X77323695Y-38221344D01*
X77259797Y-38177369D01*
X77182685Y-38124875D01*
X77096031Y-38066401D01*
X76993274Y-37996387D01*
X76897387Y-37928310D01*
X76825922Y-37873780D01*
X76777229Y-37831532D01*
X76749660Y-37800297D01*
X76749362Y-37799848D01*
X76739553Y-37780827D01*
X76727189Y-37749005D01*
X76711777Y-37702577D01*
X76692826Y-37639736D01*
X76669845Y-37558678D01*
X76642342Y-37457595D01*
X76609825Y-37334683D01*
X76571803Y-37188136D01*
X76527783Y-37016148D01*
X76477276Y-36816913D01*
X76419788Y-36588625D01*
X76373447Y-36403334D01*
X76329011Y-36224071D01*
X76287536Y-36055174D01*
X76249629Y-35899192D01*
X76215898Y-35758676D01*
X76186951Y-35636177D01*
X76163395Y-35534246D01*
X76145839Y-35455434D01*
X76134891Y-35402291D01*
X76131158Y-35377368D01*
X76139506Y-35315476D01*
X76173771Y-35243981D01*
X76231614Y-35190983D01*
X76292972Y-35166625D01*
X76367244Y-35161089D01*
X76440189Y-35175793D01*
M02*
