G04 #@! TF.GenerationSoftware,KiCad,Pcbnew,6.0.11*
G04 #@! TF.CreationDate,2024-12-01T17:45:42+01:00*
G04 #@! TF.ProjectId,CCS_analog_mux-16in-18out,4343535f-616e-4616-9c6f-675f6d75782d,rev?*
G04 #@! TF.SameCoordinates,Original*
G04 #@! TF.FileFunction,Legend,Top*
G04 #@! TF.FilePolarity,Positive*
%FSLAX46Y46*%
G04 Gerber Fmt 4.6, Leading zero omitted, Abs format (unit mm)*
G04 Created by KiCad (PCBNEW 6.0.11) date 2024-12-01 17:45:42*
%MOMM*%
%LPD*%
G01*
G04 APERTURE LIST*
%ADD10C,0.150000*%
%ADD11C,0.120000*%
G04 APERTURE END LIST*
D10*
X67353333Y-40722380D02*
X67020000Y-40246190D01*
X66781904Y-40722380D02*
X66781904Y-39722380D01*
X67162857Y-39722380D01*
X67258095Y-39770000D01*
X67305714Y-39817619D01*
X67353333Y-39912857D01*
X67353333Y-40055714D01*
X67305714Y-40150952D01*
X67258095Y-40198571D01*
X67162857Y-40246190D01*
X66781904Y-40246190D01*
X67924761Y-40150952D02*
X67829523Y-40103333D01*
X67781904Y-40055714D01*
X67734285Y-39960476D01*
X67734285Y-39912857D01*
X67781904Y-39817619D01*
X67829523Y-39770000D01*
X67924761Y-39722380D01*
X68115238Y-39722380D01*
X68210476Y-39770000D01*
X68258095Y-39817619D01*
X68305714Y-39912857D01*
X68305714Y-39960476D01*
X68258095Y-40055714D01*
X68210476Y-40103333D01*
X68115238Y-40150952D01*
X67924761Y-40150952D01*
X67829523Y-40198571D01*
X67781904Y-40246190D01*
X67734285Y-40341428D01*
X67734285Y-40531904D01*
X67781904Y-40627142D01*
X67829523Y-40674761D01*
X67924761Y-40722380D01*
X68115238Y-40722380D01*
X68210476Y-40674761D01*
X68258095Y-40627142D01*
X68305714Y-40531904D01*
X68305714Y-40341428D01*
X68258095Y-40246190D01*
X68210476Y-40198571D01*
X68115238Y-40150952D01*
X69643333Y-42262380D02*
X69310000Y-41786190D01*
X69071904Y-42262380D02*
X69071904Y-41262380D01*
X69452857Y-41262380D01*
X69548095Y-41310000D01*
X69595714Y-41357619D01*
X69643333Y-41452857D01*
X69643333Y-41595714D01*
X69595714Y-41690952D01*
X69548095Y-41738571D01*
X69452857Y-41786190D01*
X69071904Y-41786190D01*
X69976666Y-41262380D02*
X70643333Y-41262380D01*
X70214761Y-42262380D01*
X55783333Y-40162380D02*
X55450000Y-39686190D01*
X55211904Y-40162380D02*
X55211904Y-39162380D01*
X55592857Y-39162380D01*
X55688095Y-39210000D01*
X55735714Y-39257619D01*
X55783333Y-39352857D01*
X55783333Y-39495714D01*
X55735714Y-39590952D01*
X55688095Y-39638571D01*
X55592857Y-39686190D01*
X55211904Y-39686190D01*
X56640476Y-39162380D02*
X56450000Y-39162380D01*
X56354761Y-39210000D01*
X56307142Y-39257619D01*
X56211904Y-39400476D01*
X56164285Y-39590952D01*
X56164285Y-39971904D01*
X56211904Y-40067142D01*
X56259523Y-40114761D01*
X56354761Y-40162380D01*
X56545238Y-40162380D01*
X56640476Y-40114761D01*
X56688095Y-40067142D01*
X56735714Y-39971904D01*
X56735714Y-39733809D01*
X56688095Y-39638571D01*
X56640476Y-39590952D01*
X56545238Y-39543333D01*
X56354761Y-39543333D01*
X56259523Y-39590952D01*
X56211904Y-39638571D01*
X56164285Y-39733809D01*
X55763333Y-38692380D02*
X55430000Y-38216190D01*
X55191904Y-38692380D02*
X55191904Y-37692380D01*
X55572857Y-37692380D01*
X55668095Y-37740000D01*
X55715714Y-37787619D01*
X55763333Y-37882857D01*
X55763333Y-38025714D01*
X55715714Y-38120952D01*
X55668095Y-38168571D01*
X55572857Y-38216190D01*
X55191904Y-38216190D01*
X56668095Y-37692380D02*
X56191904Y-37692380D01*
X56144285Y-38168571D01*
X56191904Y-38120952D01*
X56287142Y-38073333D01*
X56525238Y-38073333D01*
X56620476Y-38120952D01*
X56668095Y-38168571D01*
X56715714Y-38263809D01*
X56715714Y-38501904D01*
X56668095Y-38597142D01*
X56620476Y-38644761D01*
X56525238Y-38692380D01*
X56287142Y-38692380D01*
X56191904Y-38644761D01*
X56144285Y-38597142D01*
X66331904Y-34482380D02*
X66331904Y-33482380D01*
X66570000Y-33482380D01*
X66712857Y-33530000D01*
X66808095Y-33625238D01*
X66855714Y-33720476D01*
X66903333Y-33910952D01*
X66903333Y-34053809D01*
X66855714Y-34244285D01*
X66808095Y-34339523D01*
X66712857Y-34434761D01*
X66570000Y-34482380D01*
X66331904Y-34482380D01*
X67284285Y-33577619D02*
X67331904Y-33530000D01*
X67427142Y-33482380D01*
X67665238Y-33482380D01*
X67760476Y-33530000D01*
X67808095Y-33577619D01*
X67855714Y-33672857D01*
X67855714Y-33768095D01*
X67808095Y-33910952D01*
X67236666Y-34482380D01*
X67855714Y-34482380D01*
X60301904Y-34532380D02*
X60301904Y-33532380D01*
X60540000Y-33532380D01*
X60682857Y-33580000D01*
X60778095Y-33675238D01*
X60825714Y-33770476D01*
X60873333Y-33960952D01*
X60873333Y-34103809D01*
X60825714Y-34294285D01*
X60778095Y-34389523D01*
X60682857Y-34484761D01*
X60540000Y-34532380D01*
X60301904Y-34532380D01*
X61825714Y-34532380D02*
X61254285Y-34532380D01*
X61540000Y-34532380D02*
X61540000Y-33532380D01*
X61444761Y-33675238D01*
X61349523Y-33770476D01*
X61254285Y-33818095D01*
X63376666Y-37372380D02*
X63376666Y-38086666D01*
X63329047Y-38229523D01*
X63233809Y-38324761D01*
X63090952Y-38372380D01*
X62995714Y-38372380D01*
X64329047Y-37372380D02*
X63852857Y-37372380D01*
X63805238Y-37848571D01*
X63852857Y-37800952D01*
X63948095Y-37753333D01*
X64186190Y-37753333D01*
X64281428Y-37800952D01*
X64329047Y-37848571D01*
X64376666Y-37943809D01*
X64376666Y-38181904D01*
X64329047Y-38277142D01*
X64281428Y-38324761D01*
X64186190Y-38372380D01*
X63948095Y-38372380D01*
X63852857Y-38324761D01*
X63805238Y-38277142D01*
X55326666Y-35482380D02*
X55326666Y-36196666D01*
X55279047Y-36339523D01*
X55183809Y-36434761D01*
X55040952Y-36482380D01*
X54945714Y-36482380D01*
X56231428Y-35815714D02*
X56231428Y-36482380D01*
X55993333Y-35434761D02*
X55755238Y-36149047D01*
X56374285Y-36149047D01*
X63388095Y-51222380D02*
X63388095Y-52031904D01*
X63435714Y-52127142D01*
X63483333Y-52174761D01*
X63578571Y-52222380D01*
X63769047Y-52222380D01*
X63864285Y-52174761D01*
X63911904Y-52127142D01*
X63959523Y-52031904D01*
X63959523Y-51222380D01*
X64911904Y-51222380D02*
X64435714Y-51222380D01*
X64388095Y-51698571D01*
X64435714Y-51650952D01*
X64530952Y-51603333D01*
X64769047Y-51603333D01*
X64864285Y-51650952D01*
X64911904Y-51698571D01*
X64959523Y-51793809D01*
X64959523Y-52031904D01*
X64911904Y-52127142D01*
X64864285Y-52174761D01*
X64769047Y-52222380D01*
X64530952Y-52222380D01*
X64435714Y-52174761D01*
X64388095Y-52127142D01*
X70652380Y-40991904D02*
X71461904Y-40991904D01*
X71557142Y-40944285D01*
X71604761Y-40896666D01*
X71652380Y-40801428D01*
X71652380Y-40610952D01*
X71604761Y-40515714D01*
X71557142Y-40468095D01*
X71461904Y-40420476D01*
X70652380Y-40420476D01*
X71652380Y-39420476D02*
X71652380Y-39991904D01*
X71652380Y-39706190D02*
X70652380Y-39706190D01*
X70795238Y-39801428D01*
X70890476Y-39896666D01*
X70938095Y-39991904D01*
X69347142Y-37086666D02*
X69394761Y-37134285D01*
X69442380Y-37277142D01*
X69442380Y-37372380D01*
X69394761Y-37515238D01*
X69299523Y-37610476D01*
X69204285Y-37658095D01*
X69013809Y-37705714D01*
X68870952Y-37705714D01*
X68680476Y-37658095D01*
X68585238Y-37610476D01*
X68490000Y-37515238D01*
X68442380Y-37372380D01*
X68442380Y-37277142D01*
X68490000Y-37134285D01*
X68537619Y-37086666D01*
X68775714Y-36229523D02*
X69442380Y-36229523D01*
X68394761Y-36467619D02*
X69109047Y-36705714D01*
X69109047Y-36086666D01*
X34912380Y-52923333D02*
X35626666Y-52923333D01*
X35769523Y-52970952D01*
X35864761Y-53066190D01*
X35912380Y-53209047D01*
X35912380Y-53304285D01*
X35912380Y-51923333D02*
X35912380Y-52494761D01*
X35912380Y-52209047D02*
X34912380Y-52209047D01*
X35055238Y-52304285D01*
X35150476Y-52399523D01*
X35198095Y-52494761D01*
X50708095Y-51322380D02*
X50708095Y-52131904D01*
X50755714Y-52227142D01*
X50803333Y-52274761D01*
X50898571Y-52322380D01*
X51089047Y-52322380D01*
X51184285Y-52274761D01*
X51231904Y-52227142D01*
X51279523Y-52131904D01*
X51279523Y-51322380D01*
X52184285Y-51655714D02*
X52184285Y-52322380D01*
X51946190Y-51274761D02*
X51708095Y-51989047D01*
X52327142Y-51989047D01*
X39278095Y-51322380D02*
X39278095Y-52131904D01*
X39325714Y-52227142D01*
X39373333Y-52274761D01*
X39468571Y-52322380D01*
X39659047Y-52322380D01*
X39754285Y-52274761D01*
X39801904Y-52227142D01*
X39849523Y-52131904D01*
X39849523Y-51322380D01*
X40230476Y-51322380D02*
X40849523Y-51322380D01*
X40516190Y-51703333D01*
X40659047Y-51703333D01*
X40754285Y-51750952D01*
X40801904Y-51798571D01*
X40849523Y-51893809D01*
X40849523Y-52131904D01*
X40801904Y-52227142D01*
X40754285Y-52274761D01*
X40659047Y-52322380D01*
X40373333Y-52322380D01*
X40278095Y-52274761D01*
X40230476Y-52227142D01*
X82672380Y-47992404D02*
X83481904Y-47992404D01*
X83577142Y-47944785D01*
X83624761Y-47897166D01*
X83672380Y-47801928D01*
X83672380Y-47611452D01*
X83624761Y-47516214D01*
X83577142Y-47468595D01*
X83481904Y-47420976D01*
X82672380Y-47420976D01*
X82767619Y-46992404D02*
X82720000Y-46944785D01*
X82672380Y-46849547D01*
X82672380Y-46611452D01*
X82720000Y-46516214D01*
X82767619Y-46468595D01*
X82862857Y-46420976D01*
X82958095Y-46420976D01*
X83100952Y-46468595D01*
X83672380Y-47040023D01*
X83672380Y-46420976D01*
X53665533Y-37784480D02*
X53332200Y-37308290D01*
X53094104Y-37784480D02*
X53094104Y-36784480D01*
X53475057Y-36784480D01*
X53570295Y-36832100D01*
X53617914Y-36879719D01*
X53665533Y-36974957D01*
X53665533Y-37117814D01*
X53617914Y-37213052D01*
X53570295Y-37260671D01*
X53475057Y-37308290D01*
X53094104Y-37308290D01*
X54522676Y-37117814D02*
X54522676Y-37784480D01*
X54284580Y-36736861D02*
X54046485Y-37451147D01*
X54665533Y-37451147D01*
X42343333Y-37832380D02*
X42010000Y-37356190D01*
X41771904Y-37832380D02*
X41771904Y-36832380D01*
X42152857Y-36832380D01*
X42248095Y-36880000D01*
X42295714Y-36927619D01*
X42343333Y-37022857D01*
X42343333Y-37165714D01*
X42295714Y-37260952D01*
X42248095Y-37308571D01*
X42152857Y-37356190D01*
X41771904Y-37356190D01*
X42676666Y-36832380D02*
X43295714Y-36832380D01*
X42962380Y-37213333D01*
X43105238Y-37213333D01*
X43200476Y-37260952D01*
X43248095Y-37308571D01*
X43295714Y-37403809D01*
X43295714Y-37641904D01*
X43248095Y-37737142D01*
X43200476Y-37784761D01*
X43105238Y-37832380D01*
X42819523Y-37832380D01*
X42724285Y-37784761D01*
X42676666Y-37737142D01*
X86063333Y-45102380D02*
X85730000Y-44626190D01*
X85491904Y-45102380D02*
X85491904Y-44102380D01*
X85872857Y-44102380D01*
X85968095Y-44150000D01*
X86015714Y-44197619D01*
X86063333Y-44292857D01*
X86063333Y-44435714D01*
X86015714Y-44530952D01*
X85968095Y-44578571D01*
X85872857Y-44626190D01*
X85491904Y-44626190D01*
X86444285Y-44197619D02*
X86491904Y-44150000D01*
X86587142Y-44102380D01*
X86825238Y-44102380D01*
X86920476Y-44150000D01*
X86968095Y-44197619D01*
X87015714Y-44292857D01*
X87015714Y-44388095D01*
X86968095Y-44530952D01*
X86396666Y-45102380D01*
X87015714Y-45102380D01*
X83797553Y-50936620D02*
X83464220Y-50460430D01*
X83226124Y-50936620D02*
X83226124Y-49936620D01*
X83607077Y-49936620D01*
X83702315Y-49984240D01*
X83749934Y-50031859D01*
X83797553Y-50127097D01*
X83797553Y-50269954D01*
X83749934Y-50365192D01*
X83702315Y-50412811D01*
X83607077Y-50460430D01*
X83226124Y-50460430D01*
X84749934Y-50936620D02*
X84178505Y-50936620D01*
X84464220Y-50936620D02*
X84464220Y-49936620D01*
X84368981Y-50079478D01*
X84273743Y-50174716D01*
X84178505Y-50222335D01*
X49023386Y-37698900D02*
X49023386Y-38413186D01*
X48975767Y-38556043D01*
X48880529Y-38651281D01*
X48737672Y-38698900D01*
X48642434Y-38698900D01*
X49404339Y-37698900D02*
X50023386Y-37698900D01*
X49690053Y-38079853D01*
X49832910Y-38079853D01*
X49928148Y-38127472D01*
X49975767Y-38175091D01*
X50023386Y-38270329D01*
X50023386Y-38508424D01*
X49975767Y-38603662D01*
X49928148Y-38651281D01*
X49832910Y-38698900D01*
X49547196Y-38698900D01*
X49451958Y-38651281D01*
X49404339Y-38603662D01*
X37903266Y-38026560D02*
X37903266Y-38740846D01*
X37855647Y-38883703D01*
X37760409Y-38978941D01*
X37617552Y-39026560D01*
X37522314Y-39026560D01*
X38331838Y-38121799D02*
X38379457Y-38074180D01*
X38474695Y-38026560D01*
X38712790Y-38026560D01*
X38808028Y-38074180D01*
X38855647Y-38121799D01*
X38903266Y-38217037D01*
X38903266Y-38312275D01*
X38855647Y-38455132D01*
X38284219Y-39026560D01*
X38903266Y-39026560D01*
X69002762Y-47760226D02*
X69050381Y-47807845D01*
X69098000Y-47950702D01*
X69098000Y-48045940D01*
X69050381Y-48188798D01*
X68955143Y-48284036D01*
X68859905Y-48331655D01*
X68669429Y-48379274D01*
X68526572Y-48379274D01*
X68336096Y-48331655D01*
X68240858Y-48284036D01*
X68145620Y-48188798D01*
X68098000Y-48045940D01*
X68098000Y-47950702D01*
X68145620Y-47807845D01*
X68193239Y-47760226D01*
X68098000Y-47426893D02*
X68098000Y-46807845D01*
X68478953Y-47141179D01*
X68478953Y-46998321D01*
X68526572Y-46903083D01*
X68574191Y-46855464D01*
X68669429Y-46807845D01*
X68907524Y-46807845D01*
X69002762Y-46855464D01*
X69050381Y-46903083D01*
X69098000Y-46998321D01*
X69098000Y-47284036D01*
X69050381Y-47379274D01*
X69002762Y-47426893D01*
X61037142Y-39546666D02*
X61084761Y-39594285D01*
X61132380Y-39737142D01*
X61132380Y-39832380D01*
X61084761Y-39975238D01*
X60989523Y-40070476D01*
X60894285Y-40118095D01*
X60703809Y-40165714D01*
X60560952Y-40165714D01*
X60370476Y-40118095D01*
X60275238Y-40070476D01*
X60180000Y-39975238D01*
X60132380Y-39832380D01*
X60132380Y-39737142D01*
X60180000Y-39594285D01*
X60227619Y-39546666D01*
X60227619Y-39165714D02*
X60180000Y-39118095D01*
X60132380Y-39022857D01*
X60132380Y-38784761D01*
X60180000Y-38689523D01*
X60227619Y-38641904D01*
X60322857Y-38594285D01*
X60418095Y-38594285D01*
X60560952Y-38641904D01*
X61132380Y-39213333D01*
X61132380Y-38594285D01*
X46094362Y-46175426D02*
X46141981Y-46223045D01*
X46189600Y-46365902D01*
X46189600Y-46461140D01*
X46141981Y-46603998D01*
X46046743Y-46699236D01*
X45951505Y-46746855D01*
X45761029Y-46794474D01*
X45618172Y-46794474D01*
X45427696Y-46746855D01*
X45332458Y-46699236D01*
X45237220Y-46603998D01*
X45189600Y-46461140D01*
X45189600Y-46365902D01*
X45237220Y-46223045D01*
X45284839Y-46175426D01*
X46189600Y-45223045D02*
X46189600Y-45794474D01*
X46189600Y-45508760D02*
X45189600Y-45508760D01*
X45332458Y-45603998D01*
X45427696Y-45699236D01*
X45475315Y-45794474D01*
X57423342Y-46402506D02*
X57470961Y-46450125D01*
X57518580Y-46592982D01*
X57518580Y-46688220D01*
X57470961Y-46831078D01*
X57375723Y-46926316D01*
X57280485Y-46973935D01*
X57090009Y-47021554D01*
X56947152Y-47021554D01*
X56756676Y-46973935D01*
X56661438Y-46926316D01*
X56566200Y-46831078D01*
X56518580Y-46688220D01*
X56518580Y-46592982D01*
X56566200Y-46450125D01*
X56613819Y-46402506D01*
X56518580Y-45783459D02*
X56518580Y-45688220D01*
X56566200Y-45592982D01*
X56613819Y-45545363D01*
X56709057Y-45497744D01*
X56899533Y-45450125D01*
X57137628Y-45450125D01*
X57328104Y-45497744D01*
X57423342Y-45545363D01*
X57470961Y-45592982D01*
X57518580Y-45688220D01*
X57518580Y-45783459D01*
X57470961Y-45878697D01*
X57423342Y-45926316D01*
X57328104Y-45973935D01*
X57137628Y-46021554D01*
X56899533Y-46021554D01*
X56709057Y-45973935D01*
X56613819Y-45926316D01*
X56566200Y-45878697D01*
X56518580Y-45783459D01*
D11*
X67757258Y-38317500D02*
X67282742Y-38317500D01*
X67757258Y-39362500D02*
X67282742Y-39362500D01*
X70047258Y-39857500D02*
X69572742Y-39857500D01*
X70047258Y-40902500D02*
X69572742Y-40902500D01*
X58042742Y-40262500D02*
X58517258Y-40262500D01*
X58042742Y-39217500D02*
X58517258Y-39217500D01*
X58042742Y-38722500D02*
X58517258Y-38722500D01*
X58042742Y-37677500D02*
X58517258Y-37677500D01*
X66070000Y-35320000D02*
X66070000Y-38005000D01*
X66070000Y-38005000D02*
X67990000Y-38005000D01*
X67990000Y-38005000D02*
X67990000Y-35320000D01*
X61800000Y-38025000D02*
X61800000Y-35340000D01*
X59880000Y-38025000D02*
X61800000Y-38025000D01*
X59880000Y-35340000D02*
X59880000Y-38025000D01*
X64890000Y-37170000D02*
X64890000Y-34970000D01*
X62290000Y-37170000D02*
X64890000Y-37170000D01*
X62290000Y-36670000D02*
X62290000Y-37170000D01*
X62290000Y-34970000D02*
X62290000Y-36670000D01*
X64890000Y-34970000D02*
X62290000Y-34970000D01*
X59180000Y-34900000D02*
X56580000Y-34900000D01*
X56580000Y-34900000D02*
X56580000Y-36600000D01*
X56580000Y-36600000D02*
X56580000Y-37100000D01*
X56580000Y-37100000D02*
X59180000Y-37100000D01*
X59180000Y-37100000D02*
X59180000Y-34900000D01*
X64420000Y-50840000D02*
X62470000Y-50840000D01*
X64420000Y-40720000D02*
X66370000Y-40720000D01*
X64420000Y-50840000D02*
X66370000Y-50840000D01*
X64420000Y-40720000D02*
X60970000Y-40720000D01*
X72000500Y-38594500D02*
X72000500Y-42044500D01*
X72000500Y-38594500D02*
X72000500Y-36644500D01*
X82120500Y-38594500D02*
X82120500Y-40544500D01*
X82120500Y-38594500D02*
X82120500Y-36644500D01*
X69630000Y-36347936D02*
X69630000Y-37552064D01*
X71450000Y-36347936D02*
X71450000Y-37552064D01*
X34900000Y-58784000D02*
X34900000Y-57454000D01*
X36230000Y-58784000D02*
X34900000Y-58784000D01*
X34900000Y-56184000D02*
X34900000Y-53584000D01*
X37500000Y-56184000D02*
X34900000Y-56184000D01*
X37500000Y-58784000D02*
X37500000Y-56184000D01*
X34900000Y-53584000D02*
X88360000Y-53584000D01*
X37500000Y-58784000D02*
X88360000Y-58784000D01*
X88360000Y-58784000D02*
X88360000Y-53584000D01*
X53855000Y-50775000D02*
X55520000Y-50775000D01*
X53855000Y-51030000D02*
X53855000Y-50775000D01*
X51470000Y-51030000D02*
X53855000Y-51030000D01*
X49085000Y-51030000D02*
X49085000Y-50775000D01*
X51470000Y-51030000D02*
X49085000Y-51030000D01*
X53855000Y-40510000D02*
X53855000Y-40765000D01*
X51470000Y-40510000D02*
X53855000Y-40510000D01*
X49085000Y-40510000D02*
X49085000Y-40765000D01*
X51470000Y-40510000D02*
X49085000Y-40510000D01*
X42425000Y-50775000D02*
X44090000Y-50775000D01*
X42425000Y-51030000D02*
X42425000Y-50775000D01*
X40040000Y-51030000D02*
X42425000Y-51030000D01*
X37655000Y-51030000D02*
X37655000Y-50775000D01*
X40040000Y-51030000D02*
X37655000Y-51030000D01*
X42425000Y-40510000D02*
X42425000Y-40765000D01*
X40040000Y-40510000D02*
X42425000Y-40510000D01*
X37655000Y-40510000D02*
X37655000Y-40765000D01*
X40040000Y-40510000D02*
X37655000Y-40510000D01*
X72000500Y-48691000D02*
X72000500Y-52141000D01*
X72000500Y-48691000D02*
X72000500Y-46741000D01*
X82120500Y-48691000D02*
X82120500Y-50641000D01*
X82120500Y-48691000D02*
X82120500Y-46741000D01*
X53994979Y-35392100D02*
X53669421Y-35392100D01*
X53994979Y-36412100D02*
X53669421Y-36412100D01*
X42768079Y-35290500D02*
X42442521Y-35290500D01*
X42768079Y-36310500D02*
X42442521Y-36310500D01*
X86392779Y-42710000D02*
X86067221Y-42710000D01*
X86392779Y-43730000D02*
X86067221Y-43730000D01*
X84132079Y-51584600D02*
X83806521Y-51584600D01*
X84132079Y-52604600D02*
X83806521Y-52604600D01*
X50623700Y-35043400D02*
X48023700Y-35043400D01*
X50623700Y-37243400D02*
X50623700Y-35043400D01*
X48023700Y-37243400D02*
X50623700Y-37243400D01*
X48023700Y-36743400D02*
X48023700Y-37243400D01*
X48023700Y-35043400D02*
X48023700Y-36743400D01*
X39676300Y-35043400D02*
X37076300Y-35043400D01*
X39676300Y-37243400D02*
X39676300Y-35043400D01*
X37076300Y-37243400D02*
X39676300Y-37243400D01*
X37076300Y-36743400D02*
X37076300Y-37243400D01*
X37076300Y-35043400D02*
X37076300Y-36743400D01*
X69760000Y-47847936D02*
X69760000Y-49052064D01*
X71580000Y-47847936D02*
X71580000Y-49052064D01*
X64142064Y-38380000D02*
X62937936Y-38380000D01*
X64142064Y-40200000D02*
X62937936Y-40200000D01*
X46665000Y-43324064D02*
X46665000Y-42119936D01*
X44845000Y-43324064D02*
X44845000Y-42119936D01*
X57900000Y-43422064D02*
X57900000Y-42217936D01*
X56080000Y-43422064D02*
X56080000Y-42217936D01*
M02*
