G04 #@! TF.GenerationSoftware,KiCad,Pcbnew,6.0.11*
G04 #@! TF.CreationDate,2024-12-01T17:45:41+01:00*
G04 #@! TF.ProjectId,CCS_analog_mux-16in-18out,4343535f-616e-4616-9c6f-675f6d75782d,rev?*
G04 #@! TF.SameCoordinates,Original*
G04 #@! TF.FileFunction,Copper,L1,Top*
G04 #@! TF.FilePolarity,Positive*
%FSLAX46Y46*%
G04 Gerber Fmt 4.6, Leading zero omitted, Abs format (unit mm)*
G04 Created by KiCad (PCBNEW 6.0.11) date 2024-12-01 17:45:41*
%MOMM*%
%LPD*%
G01*
G04 APERTURE LIST*
G04 Aperture macros list*
%AMRoundRect*
0 Rectangle with rounded corners*
0 $1 Rounding radius*
0 $2 $3 $4 $5 $6 $7 $8 $9 X,Y pos of 4 corners*
0 Add a 4 corners polygon primitive as box body*
4,1,4,$2,$3,$4,$5,$6,$7,$8,$9,$2,$3,0*
0 Add four circle primitives for the rounded corners*
1,1,$1+$1,$2,$3*
1,1,$1+$1,$4,$5*
1,1,$1+$1,$6,$7*
1,1,$1+$1,$8,$9*
0 Add four rect primitives between the rounded corners*
20,1,$1+$1,$2,$3,$4,$5,0*
20,1,$1+$1,$4,$5,$6,$7,0*
20,1,$1+$1,$6,$7,$8,$9,0*
20,1,$1+$1,$8,$9,$2,$3,0*%
G04 Aperture macros list end*
G04 #@! TA.AperFunction,SMDPad,CuDef*
%ADD10RoundRect,0.200000X0.200000X0.275000X-0.200000X0.275000X-0.200000X-0.275000X0.200000X-0.275000X0*%
G04 #@! TD*
G04 #@! TA.AperFunction,SMDPad,CuDef*
%ADD11RoundRect,0.200000X-0.200000X-0.275000X0.200000X-0.275000X0.200000X0.275000X-0.200000X0.275000X0*%
G04 #@! TD*
G04 #@! TA.AperFunction,SMDPad,CuDef*
%ADD12RoundRect,0.243750X0.456250X-0.243750X0.456250X0.243750X-0.456250X0.243750X-0.456250X-0.243750X0*%
G04 #@! TD*
G04 #@! TA.AperFunction,ComponentPad*
%ADD13C,1.800000*%
G04 #@! TD*
G04 #@! TA.AperFunction,SMDPad,CuDef*
%ADD14RoundRect,0.150000X-0.825000X-0.150000X0.825000X-0.150000X0.825000X0.150000X-0.825000X0.150000X0*%
G04 #@! TD*
G04 #@! TA.AperFunction,SMDPad,CuDef*
%ADD15RoundRect,0.150000X0.150000X-0.825000X0.150000X0.825000X-0.150000X0.825000X-0.150000X-0.825000X0*%
G04 #@! TD*
G04 #@! TA.AperFunction,SMDPad,CuDef*
%ADD16RoundRect,0.250000X-0.625000X0.375000X-0.625000X-0.375000X0.625000X-0.375000X0.625000X0.375000X0*%
G04 #@! TD*
G04 #@! TA.AperFunction,ComponentPad*
%ADD17O,1.700000X1.700000*%
G04 #@! TD*
G04 #@! TA.AperFunction,ComponentPad*
%ADD18R,1.700000X1.700000*%
G04 #@! TD*
G04 #@! TA.AperFunction,SMDPad,CuDef*
%ADD19RoundRect,0.150000X0.650000X0.150000X-0.650000X0.150000X-0.650000X-0.150000X0.650000X-0.150000X0*%
G04 #@! TD*
G04 #@! TA.AperFunction,SMDPad,CuDef*
%ADD20RoundRect,0.218750X0.218750X0.256250X-0.218750X0.256250X-0.218750X-0.256250X0.218750X-0.256250X0*%
G04 #@! TD*
G04 #@! TA.AperFunction,SMDPad,CuDef*
%ADD21RoundRect,0.250000X0.375000X0.625000X-0.375000X0.625000X-0.375000X-0.625000X0.375000X-0.625000X0*%
G04 #@! TD*
G04 #@! TA.AperFunction,SMDPad,CuDef*
%ADD22RoundRect,0.250000X0.625000X-0.375000X0.625000X0.375000X-0.625000X0.375000X-0.625000X-0.375000X0*%
G04 #@! TD*
G04 #@! TA.AperFunction,ViaPad*
%ADD23C,0.800000*%
G04 #@! TD*
G04 #@! TA.AperFunction,ViaPad*
%ADD24C,0.700000*%
G04 #@! TD*
G04 #@! TA.AperFunction,Conductor*
%ADD25C,0.250000*%
G04 #@! TD*
G04 #@! TA.AperFunction,Conductor*
%ADD26C,0.400000*%
G04 #@! TD*
G04 #@! TA.AperFunction,Conductor*
%ADD27C,0.200000*%
G04 #@! TD*
G04 APERTURE END LIST*
D10*
X68345000Y-38840000D03*
X66695000Y-38840000D03*
X70635000Y-40380000D03*
X68985000Y-40380000D03*
D11*
X57455000Y-39740000D03*
X59105000Y-39740000D03*
X57455000Y-38200000D03*
X59105000Y-38200000D03*
D12*
X67030000Y-37257500D03*
X67030000Y-35382500D03*
X60840000Y-35402500D03*
X60840000Y-37277500D03*
D13*
X63590000Y-36070000D03*
X57880000Y-36000000D03*
D14*
X61945000Y-41335000D03*
X61945000Y-42605000D03*
X61945000Y-43875000D03*
X61945000Y-45145000D03*
X61945000Y-46415000D03*
X61945000Y-47685000D03*
X61945000Y-48955000D03*
X61945000Y-50225000D03*
X66895000Y-50225000D03*
X66895000Y-48955000D03*
X66895000Y-47685000D03*
X66895000Y-46415000D03*
X66895000Y-45145000D03*
X66895000Y-43875000D03*
X66895000Y-42605000D03*
X66895000Y-41335000D03*
D15*
X72615500Y-36119500D03*
X73885500Y-36119500D03*
X75155500Y-36119500D03*
X76425500Y-36119500D03*
X77695500Y-36119500D03*
X78965500Y-36119500D03*
X80235500Y-36119500D03*
X81505500Y-36119500D03*
X81505500Y-41069500D03*
X80235500Y-41069500D03*
X78965500Y-41069500D03*
X77695500Y-41069500D03*
X76425500Y-41069500D03*
X75155500Y-41069500D03*
X73885500Y-41069500D03*
X72615500Y-41069500D03*
D16*
X70540000Y-38350000D03*
X70540000Y-35550000D03*
D17*
X87030000Y-54914000D03*
X87030000Y-57454000D03*
X84490000Y-54914000D03*
X84490000Y-57454000D03*
X81950000Y-54914000D03*
X81950000Y-57454000D03*
X79410000Y-54914000D03*
X79410000Y-57454000D03*
X76870000Y-54914000D03*
X76870000Y-57454000D03*
X74330000Y-54914000D03*
X74330000Y-57454000D03*
X71790000Y-54914000D03*
X71790000Y-57454000D03*
X69250000Y-54914000D03*
X69250000Y-57454000D03*
X66710000Y-54914000D03*
X66710000Y-57454000D03*
X64170000Y-54914000D03*
X64170000Y-57454000D03*
X61630000Y-54914000D03*
X61630000Y-57454000D03*
X59090000Y-54914000D03*
X59090000Y-57454000D03*
X56550000Y-54914000D03*
X56550000Y-57454000D03*
X54010000Y-54914000D03*
X54010000Y-57454000D03*
X51470000Y-54914000D03*
X51470000Y-57454000D03*
X48930000Y-54914000D03*
X48930000Y-57454000D03*
X46390000Y-54914000D03*
X46390000Y-57454000D03*
X43850000Y-54914000D03*
X43850000Y-57454000D03*
X41310000Y-54914000D03*
X41310000Y-57454000D03*
X38770000Y-54914000D03*
X38770000Y-57454000D03*
X36230000Y-54914000D03*
D18*
X36230000Y-57454000D03*
D19*
X48220000Y-50215000D03*
X48220000Y-48945000D03*
X48220000Y-47675000D03*
X48220000Y-46405000D03*
X48220000Y-45135000D03*
X48220000Y-43865000D03*
X48220000Y-42595000D03*
X48220000Y-41325000D03*
X54720000Y-41325000D03*
X54720000Y-42595000D03*
X54720000Y-43865000D03*
X54720000Y-45135000D03*
X54720000Y-46405000D03*
X54720000Y-47675000D03*
X54720000Y-48945000D03*
X54720000Y-50215000D03*
X36790000Y-50215000D03*
X36790000Y-48945000D03*
X36790000Y-47675000D03*
X36790000Y-46405000D03*
X36790000Y-45135000D03*
X36790000Y-43865000D03*
X36790000Y-42595000D03*
X36790000Y-41325000D03*
X43290000Y-41325000D03*
X43290000Y-42595000D03*
X43290000Y-43865000D03*
X43290000Y-45135000D03*
X43290000Y-46405000D03*
X43290000Y-47675000D03*
X43290000Y-48945000D03*
X43290000Y-50215000D03*
D15*
X72615500Y-46216000D03*
X73885500Y-46216000D03*
X75155500Y-46216000D03*
X76425500Y-46216000D03*
X77695500Y-46216000D03*
X78965500Y-46216000D03*
X80235500Y-46216000D03*
X81505500Y-46216000D03*
X81505500Y-51166000D03*
X80235500Y-51166000D03*
X78965500Y-51166000D03*
X77695500Y-51166000D03*
X76425500Y-51166000D03*
X75155500Y-51166000D03*
X73885500Y-51166000D03*
X72615500Y-51166000D03*
D20*
X53044700Y-35902100D03*
X54619700Y-35902100D03*
X41817800Y-35800500D03*
X43392800Y-35800500D03*
X85442500Y-43220000D03*
X87017500Y-43220000D03*
X83181800Y-52094600D03*
X84756800Y-52094600D03*
D13*
X49323700Y-36143400D03*
X38376300Y-36143400D03*
D16*
X70670000Y-49850000D03*
X70670000Y-47050000D03*
D21*
X62140000Y-39290000D03*
X64940000Y-39290000D03*
D22*
X45755000Y-41322000D03*
X45755000Y-44122000D03*
X56990000Y-41420000D03*
X56990000Y-44220000D03*
D23*
X65390000Y-36950000D03*
X81505500Y-41069500D03*
X59340000Y-42690000D03*
X51120000Y-51040000D03*
X51930000Y-48320000D03*
X70820000Y-49860000D03*
X77370000Y-48840000D03*
X62840000Y-51580000D03*
X64400000Y-51860000D03*
X40480000Y-50320000D03*
X78690000Y-39170000D03*
X52737299Y-52077299D03*
X65120000Y-44600000D03*
X64140000Y-43060000D03*
X70270000Y-42530000D03*
X57160000Y-48810000D03*
X61928690Y-49044500D03*
X56435500Y-47610000D03*
X61928690Y-47595500D03*
X78510103Y-42975500D03*
X73110000Y-43120000D03*
X66920000Y-46440000D03*
X77695500Y-46216000D03*
X78965500Y-46216000D03*
X66980000Y-47700000D03*
X80235500Y-46744500D03*
X67030000Y-48960000D03*
X66895000Y-45145000D03*
X76410000Y-45530000D03*
X81505500Y-46216000D03*
X68860000Y-52030000D03*
X64912400Y-53664500D03*
X65350000Y-56250000D03*
X70423009Y-52123229D03*
X80379234Y-42916153D03*
X70096845Y-53075383D03*
X67914148Y-51245852D03*
X82750000Y-56190000D03*
X66912000Y-43865000D03*
X51724000Y-43865000D03*
X40294000Y-43865000D03*
X35341000Y-37642000D03*
X43590000Y-37724200D03*
X54720000Y-37729700D03*
X86265999Y-51104000D03*
X86354997Y-41009403D03*
X87366200Y-35241700D03*
X36611000Y-52247000D03*
X43596000Y-51993000D03*
X76108000Y-38531000D03*
X68881700Y-48541700D03*
X45780400Y-45770000D03*
X56295480Y-46360001D03*
X48220000Y-50215000D03*
X36790000Y-50215000D03*
X87170000Y-38750000D03*
X87424500Y-47460000D03*
X83504001Y-49298426D03*
D24*
X83054900Y-38848500D03*
D23*
X84529200Y-39535401D03*
X84360000Y-48200000D03*
D24*
X83905800Y-38277000D03*
D23*
X54720000Y-50215000D03*
X43290000Y-48945000D03*
X38205500Y-53136000D03*
X73822000Y-38860100D03*
X36750700Y-43877700D03*
X82751376Y-43628006D03*
X81505500Y-36119500D03*
X78965500Y-41185300D03*
X77695500Y-41069500D03*
X48155300Y-41286900D03*
X76425500Y-41069500D03*
X48220000Y-42595000D03*
X75155500Y-41271089D03*
X48256900Y-43826900D03*
X74682433Y-39369667D03*
X36776100Y-41325000D03*
X72679000Y-38921069D03*
X36790000Y-42595000D03*
X73920000Y-48820000D03*
X43290000Y-47675000D03*
X54720000Y-47675000D03*
X87238673Y-37031101D03*
X86805500Y-44485298D03*
D25*
X60840000Y-35402500D02*
X60172500Y-36070000D01*
X60172500Y-36070000D02*
X57880000Y-36070000D01*
X58290000Y-41933173D02*
X58140000Y-42083173D01*
X57880000Y-36070000D02*
X58290000Y-36480000D01*
X58290000Y-36480000D02*
X58290000Y-41933173D01*
X58140000Y-42083173D02*
X58140000Y-43356827D01*
X58140000Y-43356827D02*
X58270000Y-43486827D01*
X58270000Y-43486827D02*
X58270000Y-45581550D01*
X58270000Y-45581550D02*
X56435500Y-47416050D01*
X56435500Y-47416050D02*
X56435500Y-47610000D01*
X58739501Y-41322961D02*
X58739501Y-42119362D01*
X58719501Y-42219362D02*
X58609501Y-42329362D01*
X58739501Y-45747739D02*
X57749501Y-46737739D01*
X61570000Y-38090000D02*
X61350000Y-38090000D01*
X57749501Y-46776189D02*
X57510474Y-47015216D01*
X58719501Y-42139362D02*
X58719501Y-42219362D01*
X63590000Y-36070000D02*
X61570000Y-38090000D01*
X59830000Y-39610000D02*
X59830000Y-40232462D01*
X58739501Y-43320638D02*
X58739501Y-45747739D01*
X58739501Y-42119362D02*
X58719501Y-42139362D01*
X57510474Y-47015216D02*
X57510474Y-47170716D01*
X61350000Y-38090000D02*
X59830000Y-39610000D01*
X59830000Y-40232462D02*
X58739501Y-41322961D01*
X57749501Y-46737739D02*
X57749501Y-46776189D01*
X58609501Y-42329362D02*
X58609501Y-43190638D01*
X58609501Y-43190638D02*
X58739501Y-43320638D01*
X57510474Y-47170716D02*
X57160000Y-47521190D01*
X57160000Y-47521190D02*
X57160000Y-48810000D01*
X80235500Y-47191000D02*
X80580000Y-47535500D01*
X83939902Y-47535500D02*
X84059902Y-47415500D01*
X80235500Y-46744500D02*
X80235500Y-47191000D01*
X80580000Y-47535500D02*
X83939902Y-47535500D01*
X84059902Y-47415500D02*
X87380000Y-47415500D01*
X87380000Y-47415500D02*
X87424500Y-47460000D01*
X54720000Y-43865000D02*
X54405000Y-43865000D01*
X54405000Y-43865000D02*
X53044700Y-42504700D01*
X53044700Y-42504700D02*
X53044700Y-35902100D01*
D26*
X59340000Y-42690000D02*
X59340000Y-41550000D01*
X59340000Y-41550000D02*
X61600000Y-39290000D01*
X61600000Y-39290000D02*
X62140000Y-39290000D01*
D25*
X57891497Y-47425383D02*
X57891497Y-56255497D01*
X57891497Y-56255497D02*
X59090000Y-57454000D01*
X57959975Y-47356905D02*
X57891497Y-47425383D01*
X57959975Y-47201405D02*
X57959975Y-47356905D01*
X58199002Y-46932378D02*
X58199002Y-46962378D01*
X59189002Y-45933928D02*
X58219002Y-46903928D01*
X58219002Y-46903928D02*
X58219002Y-46912378D01*
X58199002Y-46962378D02*
X57959975Y-47201405D01*
X60100000Y-41980000D02*
X60100000Y-43170000D01*
X60745000Y-41335000D02*
X60100000Y-41980000D01*
X58219002Y-46912378D02*
X58199002Y-46932378D01*
X59189002Y-44080998D02*
X59189002Y-45933928D01*
X60100000Y-43170000D02*
X59189002Y-44080998D01*
X61945000Y-41335000D02*
X60745000Y-41335000D01*
X59638503Y-44267187D02*
X60549501Y-43356189D01*
X59638503Y-46158567D02*
X59638503Y-44267187D01*
X60549501Y-43356189D02*
X60549501Y-43350499D01*
X59090000Y-54914000D02*
X59090000Y-53711919D01*
X58409476Y-53031395D02*
X58409476Y-47387594D01*
X58409476Y-47387594D02*
X59638503Y-46158567D01*
X59090000Y-53711919D02*
X58409476Y-53031395D01*
X60550000Y-43350000D02*
X60550000Y-42180000D01*
X60549501Y-43350499D02*
X60550000Y-43350000D01*
D26*
X66895000Y-41335000D02*
X66895000Y-41245000D01*
X66895000Y-41245000D02*
X64940000Y-39290000D01*
D25*
X66695000Y-38840000D02*
X66695000Y-37592500D01*
X66695000Y-37592500D02*
X67030000Y-37257500D01*
X70635000Y-40380000D02*
X69095000Y-38840000D01*
X69095000Y-38840000D02*
X68345000Y-38840000D01*
X68985000Y-40380000D02*
X67770000Y-40380000D01*
X66695000Y-39305000D02*
X66695000Y-38840000D01*
X67770000Y-40380000D02*
X66695000Y-39305000D01*
X63590000Y-36070000D02*
X64710000Y-36070000D01*
X64710000Y-36070000D02*
X65397500Y-35382500D01*
X65397500Y-35382500D02*
X67030000Y-35382500D01*
X60840000Y-37277500D02*
X60077500Y-37277500D01*
X60077500Y-37277500D02*
X59115000Y-38240000D01*
D26*
X59115000Y-39690000D02*
X59115000Y-38240000D01*
X69504000Y-44119000D02*
X70379000Y-44119000D01*
X70379000Y-44119000D02*
X71840000Y-42658000D01*
X71840000Y-42658000D02*
X71840000Y-36895000D01*
X71840000Y-36895000D02*
X72615500Y-36119500D01*
D25*
X87238673Y-37031101D02*
X86797572Y-36590000D01*
X86797572Y-36590000D02*
X83622768Y-36590000D01*
X83622768Y-36590000D02*
X81829968Y-34797200D01*
X81829968Y-34797200D02*
X77371032Y-34797200D01*
X77371032Y-34797200D02*
X76439700Y-35728532D01*
X76439700Y-35728532D02*
X76439700Y-36119500D01*
X76439700Y-36119500D02*
X76425500Y-36119500D01*
X87170000Y-38750000D02*
X85998500Y-37578500D01*
X85998500Y-37578500D02*
X80719500Y-37578500D01*
X80719500Y-37578500D02*
X80235500Y-37094500D01*
X80235500Y-37094500D02*
X80235500Y-36119500D01*
X68860000Y-52030000D02*
X68700000Y-52190000D01*
X67136609Y-52190000D02*
X65662109Y-53664500D01*
X65662109Y-53664500D02*
X64912400Y-53664500D01*
X68700000Y-52190000D02*
X67136609Y-52190000D01*
X37590000Y-48945000D02*
X36790000Y-48945000D01*
X37590000Y-46405000D02*
X38365021Y-47180021D01*
X37481000Y-56165000D02*
X37481000Y-50995768D01*
X37915010Y-50561758D02*
X37915010Y-49270010D01*
X36790000Y-46405000D02*
X37590000Y-46405000D01*
X38365021Y-47180021D02*
X38365021Y-52976479D01*
X38930000Y-45676000D02*
X38389000Y-45135000D01*
X38365021Y-52976479D02*
X38205500Y-53136000D01*
X38770000Y-57454000D02*
X37481000Y-56165000D01*
X38389000Y-45135000D02*
X36790000Y-45135000D01*
X37915010Y-49270010D02*
X37590000Y-48945000D01*
X37481000Y-50995768D02*
X37915010Y-50561758D01*
X38770000Y-53711919D02*
X38930000Y-53551919D01*
X38770000Y-54914000D02*
X38770000Y-53711919D01*
X38930000Y-53551919D02*
X38930000Y-45676000D01*
X41310000Y-54914000D02*
X42020000Y-54204000D01*
X42020000Y-54204000D02*
X42020000Y-45605000D01*
X42020000Y-45605000D02*
X42490000Y-45135000D01*
X42490000Y-45135000D02*
X43290000Y-45135000D01*
D26*
X81567500Y-51104000D02*
X86265999Y-51104000D01*
X81505500Y-51166000D02*
X81567500Y-51104000D01*
D25*
X86581796Y-44709002D02*
X86805500Y-44485298D01*
X87017500Y-44273298D02*
X86805500Y-44485298D01*
X77230998Y-44709002D02*
X86581796Y-44709002D01*
X87017500Y-43220000D02*
X87017500Y-44273298D01*
X76410000Y-45530000D02*
X77230998Y-44709002D01*
X53070000Y-46583249D02*
X53070000Y-50720000D01*
X54720000Y-45135000D02*
X54420000Y-45435000D01*
X51470000Y-52320000D02*
X51470000Y-54914000D01*
X54420000Y-45435000D02*
X54218249Y-45435000D01*
X53070000Y-50720000D02*
X51470000Y-52320000D01*
X54218249Y-45435000D02*
X53070000Y-46583249D01*
D26*
X57237587Y-45417894D02*
X56295480Y-46360001D01*
X57237587Y-44180713D02*
X57237587Y-45417894D01*
D25*
X59308478Y-51238478D02*
X59308478Y-47759972D01*
X60537505Y-44762495D02*
X60710000Y-44590000D01*
X61630000Y-54914000D02*
X61630000Y-53560000D01*
X58858977Y-52678977D02*
X60310000Y-54130000D01*
X60537505Y-46530945D02*
X60537505Y-44762495D01*
X60310000Y-56134000D02*
X61630000Y-57454000D01*
X58858977Y-47573783D02*
X58858977Y-52678977D01*
X60789310Y-43875000D02*
X60088004Y-44576306D01*
X60088004Y-46344756D02*
X58858977Y-47573783D01*
X60310000Y-54130000D02*
X60310000Y-56134000D01*
X60088004Y-44576306D02*
X60088004Y-46344756D01*
X61630000Y-53560000D02*
X59308478Y-51238478D01*
X59308478Y-47759972D02*
X60537505Y-46530945D01*
X61945000Y-43875000D02*
X60789310Y-43875000D01*
D26*
X70820000Y-47060000D02*
X71771500Y-47060000D01*
X71771500Y-47060000D02*
X72615500Y-46216000D01*
X81505500Y-51166000D02*
X81505500Y-50191000D01*
X81505500Y-50191000D02*
X81105500Y-49791000D01*
X81105500Y-49791000D02*
X74777683Y-49791000D01*
X74777683Y-49791000D02*
X74758683Y-49810000D01*
X74758683Y-49810000D02*
X74282317Y-49810000D01*
X74263317Y-49791000D02*
X73541000Y-49791000D01*
X73180000Y-49430000D02*
X71250000Y-49430000D01*
X74282317Y-49810000D02*
X74263317Y-49791000D01*
X73541000Y-49791000D02*
X73180000Y-49430000D01*
X71250000Y-49430000D02*
X70820000Y-49860000D01*
X68881700Y-45366300D02*
X68881700Y-48541700D01*
X69504000Y-44744000D02*
X68881700Y-45366300D01*
X70240000Y-35540000D02*
X72036000Y-35540000D01*
X72036000Y-35540000D02*
X72615500Y-36119500D01*
D25*
X73200000Y-44200000D02*
X69585000Y-44200000D01*
X73700000Y-43700000D02*
X73200000Y-44200000D01*
X80235500Y-41069500D02*
X80235500Y-42772419D01*
X82119881Y-44259501D02*
X82751376Y-43628006D01*
X75155500Y-46216000D02*
X75155500Y-45241000D01*
X80235500Y-42772419D02*
X80379234Y-42916153D01*
X76136999Y-44259501D02*
X82119881Y-44259501D01*
X75155500Y-45241000D02*
X76136999Y-44259501D01*
X85442500Y-43220000D02*
X85002500Y-42780000D01*
X85002500Y-42780000D02*
X82060000Y-42780000D01*
X82060000Y-42780000D02*
X81140000Y-43700000D01*
X81140000Y-43700000D02*
X73700000Y-43700000D01*
X69585000Y-44200000D02*
X69504000Y-44119000D01*
D27*
X60725000Y-42005000D02*
X60550000Y-42180000D01*
X66295000Y-42005000D02*
X60725000Y-42005000D01*
X66895000Y-42605000D02*
X66295000Y-42005000D01*
D25*
X52520000Y-51980000D02*
X52232000Y-52268000D01*
X52645001Y-54349999D02*
X52645001Y-56278999D01*
X52232000Y-52268000D02*
X52232000Y-53936998D01*
X52645001Y-56278999D02*
X51470000Y-57454000D01*
X52232000Y-53936998D02*
X52645001Y-54349999D01*
X54010000Y-54914000D02*
X54010000Y-53711919D01*
X54010000Y-53711919D02*
X53520000Y-53221919D01*
X53520000Y-53221919D02*
X53520000Y-46805000D01*
X53520000Y-46805000D02*
X53920000Y-46405000D01*
X53920000Y-46405000D02*
X54720000Y-46405000D01*
X80346915Y-38478001D02*
X79737915Y-37869001D01*
X79265500Y-36796268D02*
X79265517Y-36796268D01*
X79265517Y-36796268D02*
X79888749Y-37419500D01*
X78466189Y-37510499D02*
X77695500Y-36739810D01*
X79888749Y-37419500D02*
X79924104Y-37419500D01*
X79924104Y-37419500D02*
X80533104Y-38028500D01*
X83746200Y-38028500D02*
X83905800Y-38188100D01*
X83054900Y-38810400D02*
X82722501Y-38478001D01*
X82722501Y-38478001D02*
X80346915Y-38478001D01*
X80533104Y-38028500D02*
X83746200Y-38028500D01*
X79737915Y-37869001D02*
X79702560Y-37869001D01*
X79344058Y-37510499D02*
X78466189Y-37510499D01*
X77695500Y-36739810D02*
X77695500Y-36119500D01*
X79702560Y-37869001D02*
X79344058Y-37510499D01*
X80768625Y-39535401D02*
X84529200Y-39535401D01*
X75155500Y-36119500D02*
X75155500Y-36496268D01*
X75155500Y-36496268D02*
X76619232Y-37960000D01*
X76619232Y-37960000D02*
X79157869Y-37960000D01*
X79157869Y-37960000D02*
X79516371Y-38318502D01*
X79516371Y-38318502D02*
X79551726Y-38318502D01*
X79551726Y-38318502D02*
X80768625Y-39535401D01*
X61945000Y-45145000D02*
X62795000Y-45145000D01*
X62795000Y-45145000D02*
X63400000Y-45750000D01*
X63400000Y-45750000D02*
X63400000Y-47876751D01*
X63400000Y-47876751D02*
X62956751Y-48320000D01*
X60500000Y-48620000D02*
X60500000Y-51000000D01*
X63440000Y-53400000D02*
X64170000Y-54130000D01*
X62956751Y-48320000D02*
X60800000Y-48320000D01*
X60800000Y-48320000D02*
X60500000Y-48620000D01*
X60500000Y-51000000D02*
X62900000Y-53400000D01*
X62900000Y-53400000D02*
X63440000Y-53400000D01*
X64170000Y-54130000D02*
X64170000Y-54914000D01*
X61945000Y-46415000D02*
X61305000Y-46415000D01*
X62995000Y-54215000D02*
X62995000Y-56279000D01*
X61305000Y-46415000D02*
X59810000Y-47910000D01*
X59810000Y-47910000D02*
X59810000Y-51030000D01*
X59810000Y-51030000D02*
X62995000Y-54215000D01*
X62995000Y-56279000D02*
X64170000Y-57454000D01*
D27*
X61945000Y-42605000D02*
X62286396Y-42605000D01*
X62286396Y-42605000D02*
X63220000Y-43538604D01*
X63220000Y-43538604D02*
X63220000Y-44211396D01*
X63220000Y-44211396D02*
X62956396Y-44475000D01*
X62956396Y-44475000D02*
X60825000Y-44475000D01*
X60825000Y-44475000D02*
X60710000Y-44590000D01*
D25*
X73920000Y-48820000D02*
X73920000Y-46250500D01*
X73920000Y-46250500D02*
X73885500Y-46216000D01*
X83056428Y-48850853D02*
X83504001Y-49298426D01*
X77695500Y-46216000D02*
X77695500Y-47191000D01*
X79355353Y-48850853D02*
X83056428Y-48850853D01*
X77695500Y-47191000D02*
X79355353Y-48850853D01*
X78965500Y-46216000D02*
X79055900Y-46216000D01*
X79055900Y-46683168D02*
X80499085Y-48126353D01*
X84286353Y-48126353D02*
X84360000Y-48200000D01*
X79055900Y-46216000D02*
X79055900Y-46683168D01*
X80499085Y-48126353D02*
X84286353Y-48126353D01*
X80235500Y-46216000D02*
X80235500Y-46744500D01*
X66895000Y-50226704D02*
X67914148Y-51245852D01*
X66895000Y-50225000D02*
X66895000Y-50226704D01*
D26*
X72615500Y-46216000D02*
X71719500Y-45320000D01*
X71719500Y-45320000D02*
X70080000Y-45320000D01*
X70080000Y-45320000D02*
X69504000Y-44744000D01*
D25*
X69126189Y-53019501D02*
X69166189Y-53019501D01*
X69250000Y-57454000D02*
X68075000Y-56279000D01*
X68075000Y-56279000D02*
X68075000Y-54420690D01*
X69842461Y-52123229D02*
X70423009Y-52123229D01*
X69479501Y-52486189D02*
X69842461Y-52123229D01*
X69459501Y-52716189D02*
X69479501Y-52696189D01*
X65350000Y-56250000D02*
X65350000Y-54612299D01*
X69483226Y-53689002D02*
X70096845Y-53075383D01*
X68806688Y-53689002D02*
X69483226Y-53689002D01*
X66862798Y-53099501D02*
X69046189Y-53099501D01*
X68075000Y-54420690D02*
X68806688Y-53689002D01*
X69046189Y-53099501D02*
X69126189Y-53019501D01*
X69166189Y-53019501D02*
X69459501Y-52726189D01*
X69459501Y-52726189D02*
X69459501Y-52716189D01*
X69479501Y-52696189D02*
X69479501Y-52486189D01*
X65350000Y-54612299D02*
X66862798Y-53099501D01*
X72576289Y-52466010D02*
X73560490Y-52466010D01*
X73560490Y-52466010D02*
X73885500Y-52141000D01*
X70614999Y-56278999D02*
X70614999Y-54427300D01*
X70614999Y-54427300D02*
X72576289Y-52466010D01*
X72615500Y-51791109D02*
X72615500Y-51166000D01*
X69492609Y-54914000D02*
X72615500Y-51791109D01*
X71790000Y-57454000D02*
X70614999Y-56278999D01*
X73885500Y-52141000D02*
X73885500Y-51166000D01*
X69250000Y-54914000D02*
X69492609Y-54914000D01*
X82750000Y-56190000D02*
X83226000Y-56190000D01*
X83226000Y-56190000D02*
X84490000Y-57454000D01*
D26*
X69504000Y-44119000D02*
X69504000Y-43461183D01*
X69504000Y-43461183D02*
X67377817Y-41335000D01*
X67377817Y-41335000D02*
X66895000Y-41335000D01*
X81505500Y-52818500D02*
X81505500Y-51166000D01*
X79410000Y-54914000D02*
X81505500Y-52818500D01*
X54720000Y-41325000D02*
X54911700Y-41325000D01*
X57439000Y-41325000D02*
X54911700Y-41325000D01*
X45755000Y-41322000D02*
X43293000Y-41322000D01*
X43290000Y-41325000D02*
X43293000Y-41322000D01*
X43290000Y-42595000D02*
X43290000Y-41325000D01*
X54720000Y-42595000D02*
X54720000Y-41325000D01*
X43590000Y-41025000D02*
X43590000Y-37724200D01*
X43290000Y-41325000D02*
X43590000Y-41025000D01*
X54720000Y-42595000D02*
X54720000Y-37729700D01*
X66912000Y-42595000D02*
X67091000Y-42595000D01*
X67091000Y-42595000D02*
X67027500Y-42531500D01*
D25*
X43590000Y-35997700D02*
X43392800Y-35800500D01*
X43590000Y-37724200D02*
X43590000Y-35997700D01*
X54720000Y-36002400D02*
X54619700Y-35902100D01*
X54720000Y-37729700D02*
X54720000Y-36002400D01*
D26*
X86294900Y-41069500D02*
X86354997Y-41009403D01*
X81505500Y-41069500D02*
X86294900Y-41069500D01*
X69504000Y-44744000D02*
X69504000Y-44119000D01*
X45755000Y-44122000D02*
X45834200Y-44122000D01*
X45780400Y-44175800D02*
X45780400Y-45770000D01*
X45834200Y-44122000D02*
X45780400Y-44175800D01*
D25*
X80259999Y-56604001D02*
X79410000Y-57454000D01*
X80585001Y-56278999D02*
X80259999Y-56604001D01*
X80585001Y-54481475D02*
X80585001Y-56278999D01*
X82971876Y-52094600D02*
X80585001Y-54481475D01*
X83181800Y-52094600D02*
X82971876Y-52094600D01*
X87030000Y-53711919D02*
X87030000Y-54914000D01*
X85767180Y-52449099D02*
X87030000Y-53711919D01*
X84992899Y-52449099D02*
X85767180Y-52449099D01*
X84756800Y-52213000D02*
X84992899Y-52449099D01*
X84756800Y-52094600D02*
X84756800Y-52213000D01*
X80235500Y-51548500D02*
X80235500Y-51166000D01*
X76870000Y-54914000D02*
X80235500Y-51548500D01*
X78965500Y-52141000D02*
X78965500Y-51166000D01*
X78640490Y-52466010D02*
X78965500Y-52141000D01*
X77578988Y-52466010D02*
X78640490Y-52466010D01*
X75694999Y-54349999D02*
X77578988Y-52466010D01*
X75694999Y-56278999D02*
X75694999Y-54349999D01*
X76870000Y-57454000D02*
X75694999Y-56278999D01*
X77695500Y-51548500D02*
X77695500Y-51166000D01*
X74330000Y-54914000D02*
X77695500Y-51548500D01*
X76425500Y-52141000D02*
X76425500Y-51166000D01*
X76100490Y-52466010D02*
X76425500Y-52141000D01*
X74874400Y-52466010D02*
X76100490Y-52466010D01*
X72965001Y-54375409D02*
X74874400Y-52466010D01*
X72965001Y-56089001D02*
X72965001Y-54375409D01*
X74330000Y-57454000D02*
X72965001Y-56089001D01*
X75155500Y-51548500D02*
X75155500Y-51166000D01*
X71790000Y-54914000D02*
X75155500Y-51548500D01*
X55845010Y-50561758D02*
X55845010Y-49270010D01*
X55185001Y-51221767D02*
X55845010Y-50561758D01*
X55845010Y-49270010D02*
X55520000Y-48945000D01*
X55185001Y-56278999D02*
X55185001Y-51221767D01*
X55520000Y-48945000D02*
X54720000Y-48945000D01*
X54010000Y-57454000D02*
X55185001Y-56278999D01*
X49020000Y-45135000D02*
X48220000Y-45135000D01*
X49795020Y-45873020D02*
X49692000Y-45770000D01*
X49795020Y-54048980D02*
X49795020Y-45873020D01*
X48930000Y-54914000D02*
X49795020Y-54048980D01*
X49692000Y-45770000D02*
X49020000Y-45135000D01*
X49779999Y-45894999D02*
X49692000Y-45770000D01*
X49345010Y-49270010D02*
X49020000Y-48945000D01*
X49345010Y-50561758D02*
X49345010Y-49270010D01*
X49184000Y-50722768D02*
X49345010Y-50561758D01*
X49184000Y-52501000D02*
X49184000Y-50722768D01*
X47754999Y-53930001D02*
X49184000Y-52501000D01*
X49020000Y-48945000D02*
X48220000Y-48945000D01*
X47754999Y-56278999D02*
X47754999Y-53930001D01*
X48930000Y-57454000D02*
X47754999Y-56278999D01*
X46390000Y-54914000D02*
X46390000Y-53390000D01*
X46390000Y-53390000D02*
X46898000Y-52882000D01*
X47420000Y-47675000D02*
X48220000Y-47675000D01*
X46898000Y-48197000D02*
X47420000Y-47675000D01*
X46898000Y-52882000D02*
X46898000Y-48197000D01*
X47420000Y-46405000D02*
X48220000Y-46405000D01*
X46447990Y-47377010D02*
X47420000Y-46405000D01*
X46447990Y-51808010D02*
X46447990Y-47377010D01*
X45214999Y-53041001D02*
X46447990Y-51808010D01*
X45214999Y-56278999D02*
X45214999Y-53041001D01*
X46390000Y-57454000D02*
X45214999Y-56278999D01*
X44090000Y-46405000D02*
X43290000Y-46405000D01*
X45882000Y-48197000D02*
X44090000Y-46405000D01*
X45882000Y-51679919D02*
X45882000Y-48197000D01*
X43850000Y-53711919D02*
X45882000Y-51679919D01*
X43850000Y-54914000D02*
X43850000Y-53711919D01*
X42990000Y-50515000D02*
X43290000Y-50215000D01*
X42485001Y-51019999D02*
X42990000Y-50515000D01*
X42485001Y-56278999D02*
X42485001Y-51019999D01*
X41310000Y-57454000D02*
X42485001Y-56278999D01*
X35990000Y-47675000D02*
X36790000Y-47675000D01*
X35380001Y-48284999D02*
X35990000Y-47675000D01*
X35380001Y-54064001D02*
X35380001Y-48284999D01*
X36230000Y-54914000D02*
X35380001Y-54064001D01*
X41817800Y-36275500D02*
X41817800Y-35800500D01*
X41817800Y-44004500D02*
X41817800Y-36275500D01*
X41978300Y-44165000D02*
X41817800Y-44004500D01*
X42990000Y-44165000D02*
X41978300Y-44165000D01*
X43290000Y-43865000D02*
X42990000Y-44165000D01*
X38719200Y-35800500D02*
X38376300Y-36143400D01*
X41817800Y-35800500D02*
X38719200Y-35800500D01*
X49565000Y-35902100D02*
X49323700Y-36143400D01*
X53044700Y-35902100D02*
X49565000Y-35902100D01*
X36790000Y-43865000D02*
X36790000Y-43800300D01*
X36790000Y-43800300D02*
X36816600Y-43826900D01*
X73822000Y-36183000D02*
X73885500Y-36119500D01*
X73822000Y-38860100D02*
X73822000Y-36183000D01*
X78990900Y-41094900D02*
X78965500Y-41069500D01*
X36790000Y-41325000D02*
X36790000Y-41313500D01*
X36790000Y-41313500D02*
X36801500Y-41325000D01*
X73885500Y-40166600D02*
X73885500Y-41069500D01*
X74682433Y-39369667D02*
X73885500Y-40166600D01*
X72679000Y-41006000D02*
X72615500Y-41069500D01*
X72679000Y-38921069D02*
X72679000Y-41006000D01*
G04 #@! TA.AperFunction,Conductor*
G36*
X88733621Y-33678502D02*
G01*
X88780114Y-33732158D01*
X88791500Y-33784500D01*
X88791500Y-59015500D01*
X88771498Y-59083621D01*
X88717842Y-59130114D01*
X88665500Y-59141500D01*
X34434500Y-59141500D01*
X34366379Y-59121498D01*
X34319886Y-59067842D01*
X34308500Y-59015500D01*
X34308500Y-48264942D01*
X34741781Y-48264942D01*
X34742527Y-48272834D01*
X34745942Y-48308960D01*
X34746501Y-48320818D01*
X34746501Y-53985234D01*
X34745974Y-53996417D01*
X34744299Y-54003910D01*
X34744548Y-54011836D01*
X34744548Y-54011837D01*
X34746439Y-54071987D01*
X34746501Y-54075946D01*
X34746501Y-54103857D01*
X34746998Y-54107791D01*
X34746998Y-54107792D01*
X34747006Y-54107857D01*
X34747939Y-54119694D01*
X34749328Y-54163890D01*
X34754979Y-54183340D01*
X34758988Y-54202701D01*
X34761527Y-54222798D01*
X34764446Y-54230169D01*
X34764446Y-54230171D01*
X34777805Y-54263913D01*
X34781650Y-54275143D01*
X34793983Y-54317594D01*
X34798016Y-54324413D01*
X34798018Y-54324418D01*
X34804294Y-54335029D01*
X34812989Y-54352777D01*
X34820449Y-54371618D01*
X34825111Y-54378034D01*
X34825111Y-54378035D01*
X34846437Y-54407388D01*
X34852953Y-54417308D01*
X34875459Y-54455363D01*
X34881069Y-54460973D01*
X34885922Y-54467229D01*
X34884501Y-54468332D01*
X34913803Y-54521993D01*
X34912100Y-54582446D01*
X34890989Y-54658570D01*
X34867251Y-54880695D01*
X34867548Y-54885848D01*
X34867548Y-54885851D01*
X34873011Y-54980590D01*
X34880110Y-55103715D01*
X34881247Y-55108761D01*
X34881248Y-55108767D01*
X34892031Y-55156614D01*
X34929222Y-55321639D01*
X35013266Y-55528616D01*
X35064019Y-55611438D01*
X35127291Y-55714688D01*
X35129987Y-55719088D01*
X35276250Y-55887938D01*
X35280230Y-55891242D01*
X35284981Y-55895187D01*
X35324616Y-55954090D01*
X35326113Y-56025071D01*
X35288997Y-56085593D01*
X35248725Y-56110112D01*
X35201129Y-56127955D01*
X35133295Y-56153385D01*
X35016739Y-56240739D01*
X34929385Y-56357295D01*
X34878255Y-56493684D01*
X34871500Y-56555866D01*
X34871500Y-58352134D01*
X34878255Y-58414316D01*
X34929385Y-58550705D01*
X35016739Y-58667261D01*
X35133295Y-58754615D01*
X35269684Y-58805745D01*
X35331866Y-58812500D01*
X37128134Y-58812500D01*
X37190316Y-58805745D01*
X37326705Y-58754615D01*
X37443261Y-58667261D01*
X37530615Y-58550705D01*
X37552799Y-58491529D01*
X37574598Y-58433382D01*
X37617240Y-58376618D01*
X37683802Y-58351918D01*
X37753150Y-58367126D01*
X37787817Y-58395114D01*
X37816250Y-58427938D01*
X37988126Y-58570632D01*
X38181000Y-58683338D01*
X38389692Y-58763030D01*
X38394760Y-58764061D01*
X38394763Y-58764062D01*
X38502017Y-58785883D01*
X38608597Y-58807567D01*
X38613772Y-58807757D01*
X38613774Y-58807757D01*
X38826673Y-58815564D01*
X38826677Y-58815564D01*
X38831837Y-58815753D01*
X38836957Y-58815097D01*
X38836959Y-58815097D01*
X39048288Y-58788025D01*
X39048289Y-58788025D01*
X39053416Y-58787368D01*
X39058366Y-58785883D01*
X39262429Y-58724661D01*
X39262434Y-58724659D01*
X39267384Y-58723174D01*
X39467994Y-58624896D01*
X39649860Y-58495173D01*
X39808096Y-58337489D01*
X39938453Y-58156077D01*
X39939776Y-58157028D01*
X39986645Y-58113857D01*
X40056580Y-58101625D01*
X40122026Y-58129144D01*
X40149875Y-58160994D01*
X40209987Y-58259088D01*
X40356250Y-58427938D01*
X40528126Y-58570632D01*
X40721000Y-58683338D01*
X40929692Y-58763030D01*
X40934760Y-58764061D01*
X40934763Y-58764062D01*
X41042017Y-58785883D01*
X41148597Y-58807567D01*
X41153772Y-58807757D01*
X41153774Y-58807757D01*
X41366673Y-58815564D01*
X41366677Y-58815564D01*
X41371837Y-58815753D01*
X41376957Y-58815097D01*
X41376959Y-58815097D01*
X41588288Y-58788025D01*
X41588289Y-58788025D01*
X41593416Y-58787368D01*
X41598366Y-58785883D01*
X41802429Y-58724661D01*
X41802434Y-58724659D01*
X41807384Y-58723174D01*
X42007994Y-58624896D01*
X42189860Y-58495173D01*
X42348096Y-58337489D01*
X42478453Y-58156077D01*
X42479776Y-58157028D01*
X42526645Y-58113857D01*
X42596580Y-58101625D01*
X42662026Y-58129144D01*
X42689875Y-58160994D01*
X42749987Y-58259088D01*
X42896250Y-58427938D01*
X43068126Y-58570632D01*
X43261000Y-58683338D01*
X43469692Y-58763030D01*
X43474760Y-58764061D01*
X43474763Y-58764062D01*
X43582017Y-58785883D01*
X43688597Y-58807567D01*
X43693772Y-58807757D01*
X43693774Y-58807757D01*
X43906673Y-58815564D01*
X43906677Y-58815564D01*
X43911837Y-58815753D01*
X43916957Y-58815097D01*
X43916959Y-58815097D01*
X44128288Y-58788025D01*
X44128289Y-58788025D01*
X44133416Y-58787368D01*
X44138366Y-58785883D01*
X44342429Y-58724661D01*
X44342434Y-58724659D01*
X44347384Y-58723174D01*
X44547994Y-58624896D01*
X44729860Y-58495173D01*
X44888096Y-58337489D01*
X45018453Y-58156077D01*
X45019776Y-58157028D01*
X45066645Y-58113857D01*
X45136580Y-58101625D01*
X45202026Y-58129144D01*
X45229875Y-58160994D01*
X45289987Y-58259088D01*
X45436250Y-58427938D01*
X45608126Y-58570632D01*
X45801000Y-58683338D01*
X46009692Y-58763030D01*
X46014760Y-58764061D01*
X46014763Y-58764062D01*
X46122017Y-58785883D01*
X46228597Y-58807567D01*
X46233772Y-58807757D01*
X46233774Y-58807757D01*
X46446673Y-58815564D01*
X46446677Y-58815564D01*
X46451837Y-58815753D01*
X46456957Y-58815097D01*
X46456959Y-58815097D01*
X46668288Y-58788025D01*
X46668289Y-58788025D01*
X46673416Y-58787368D01*
X46678366Y-58785883D01*
X46882429Y-58724661D01*
X46882434Y-58724659D01*
X46887384Y-58723174D01*
X47087994Y-58624896D01*
X47269860Y-58495173D01*
X47428096Y-58337489D01*
X47558453Y-58156077D01*
X47559776Y-58157028D01*
X47606645Y-58113857D01*
X47676580Y-58101625D01*
X47742026Y-58129144D01*
X47769875Y-58160994D01*
X47829987Y-58259088D01*
X47976250Y-58427938D01*
X48148126Y-58570632D01*
X48341000Y-58683338D01*
X48549692Y-58763030D01*
X48554760Y-58764061D01*
X48554763Y-58764062D01*
X48662017Y-58785883D01*
X48768597Y-58807567D01*
X48773772Y-58807757D01*
X48773774Y-58807757D01*
X48986673Y-58815564D01*
X48986677Y-58815564D01*
X48991837Y-58815753D01*
X48996957Y-58815097D01*
X48996959Y-58815097D01*
X49208288Y-58788025D01*
X49208289Y-58788025D01*
X49213416Y-58787368D01*
X49218366Y-58785883D01*
X49422429Y-58724661D01*
X49422434Y-58724659D01*
X49427384Y-58723174D01*
X49627994Y-58624896D01*
X49809860Y-58495173D01*
X49968096Y-58337489D01*
X50098453Y-58156077D01*
X50099776Y-58157028D01*
X50146645Y-58113857D01*
X50216580Y-58101625D01*
X50282026Y-58129144D01*
X50309875Y-58160994D01*
X50369987Y-58259088D01*
X50516250Y-58427938D01*
X50688126Y-58570632D01*
X50881000Y-58683338D01*
X51089692Y-58763030D01*
X51094760Y-58764061D01*
X51094763Y-58764062D01*
X51202017Y-58785883D01*
X51308597Y-58807567D01*
X51313772Y-58807757D01*
X51313774Y-58807757D01*
X51526673Y-58815564D01*
X51526677Y-58815564D01*
X51531837Y-58815753D01*
X51536957Y-58815097D01*
X51536959Y-58815097D01*
X51748288Y-58788025D01*
X51748289Y-58788025D01*
X51753416Y-58787368D01*
X51758366Y-58785883D01*
X51962429Y-58724661D01*
X51962434Y-58724659D01*
X51967384Y-58723174D01*
X52167994Y-58624896D01*
X52349860Y-58495173D01*
X52508096Y-58337489D01*
X52638453Y-58156077D01*
X52639776Y-58157028D01*
X52686645Y-58113857D01*
X52756580Y-58101625D01*
X52822026Y-58129144D01*
X52849875Y-58160994D01*
X52909987Y-58259088D01*
X53056250Y-58427938D01*
X53228126Y-58570632D01*
X53421000Y-58683338D01*
X53629692Y-58763030D01*
X53634760Y-58764061D01*
X53634763Y-58764062D01*
X53742017Y-58785883D01*
X53848597Y-58807567D01*
X53853772Y-58807757D01*
X53853774Y-58807757D01*
X54066673Y-58815564D01*
X54066677Y-58815564D01*
X54071837Y-58815753D01*
X54076957Y-58815097D01*
X54076959Y-58815097D01*
X54288288Y-58788025D01*
X54288289Y-58788025D01*
X54293416Y-58787368D01*
X54298366Y-58785883D01*
X54502429Y-58724661D01*
X54502434Y-58724659D01*
X54507384Y-58723174D01*
X54707994Y-58624896D01*
X54889860Y-58495173D01*
X55048096Y-58337489D01*
X55178453Y-58156077D01*
X55179776Y-58157028D01*
X55226645Y-58113857D01*
X55296580Y-58101625D01*
X55362026Y-58129144D01*
X55389875Y-58160994D01*
X55449987Y-58259088D01*
X55596250Y-58427938D01*
X55768126Y-58570632D01*
X55961000Y-58683338D01*
X56169692Y-58763030D01*
X56174760Y-58764061D01*
X56174763Y-58764062D01*
X56282017Y-58785883D01*
X56388597Y-58807567D01*
X56393772Y-58807757D01*
X56393774Y-58807757D01*
X56606673Y-58815564D01*
X56606677Y-58815564D01*
X56611837Y-58815753D01*
X56616957Y-58815097D01*
X56616959Y-58815097D01*
X56828288Y-58788025D01*
X56828289Y-58788025D01*
X56833416Y-58787368D01*
X56838366Y-58785883D01*
X57042429Y-58724661D01*
X57042434Y-58724659D01*
X57047384Y-58723174D01*
X57247994Y-58624896D01*
X57429860Y-58495173D01*
X57588096Y-58337489D01*
X57718453Y-58156077D01*
X57719776Y-58157028D01*
X57766645Y-58113857D01*
X57836580Y-58101625D01*
X57902026Y-58129144D01*
X57929875Y-58160994D01*
X57989987Y-58259088D01*
X58136250Y-58427938D01*
X58308126Y-58570632D01*
X58501000Y-58683338D01*
X58709692Y-58763030D01*
X58714760Y-58764061D01*
X58714763Y-58764062D01*
X58822017Y-58785883D01*
X58928597Y-58807567D01*
X58933772Y-58807757D01*
X58933774Y-58807757D01*
X59146673Y-58815564D01*
X59146677Y-58815564D01*
X59151837Y-58815753D01*
X59156957Y-58815097D01*
X59156959Y-58815097D01*
X59368288Y-58788025D01*
X59368289Y-58788025D01*
X59373416Y-58787368D01*
X59378366Y-58785883D01*
X59582429Y-58724661D01*
X59582434Y-58724659D01*
X59587384Y-58723174D01*
X59787994Y-58624896D01*
X59969860Y-58495173D01*
X60128096Y-58337489D01*
X60258453Y-58156077D01*
X60259776Y-58157028D01*
X60306645Y-58113857D01*
X60376580Y-58101625D01*
X60442026Y-58129144D01*
X60469875Y-58160994D01*
X60529987Y-58259088D01*
X60676250Y-58427938D01*
X60848126Y-58570632D01*
X61041000Y-58683338D01*
X61249692Y-58763030D01*
X61254760Y-58764061D01*
X61254763Y-58764062D01*
X61362017Y-58785883D01*
X61468597Y-58807567D01*
X61473772Y-58807757D01*
X61473774Y-58807757D01*
X61686673Y-58815564D01*
X61686677Y-58815564D01*
X61691837Y-58815753D01*
X61696957Y-58815097D01*
X61696959Y-58815097D01*
X61908288Y-58788025D01*
X61908289Y-58788025D01*
X61913416Y-58787368D01*
X61918366Y-58785883D01*
X62122429Y-58724661D01*
X62122434Y-58724659D01*
X62127384Y-58723174D01*
X62327994Y-58624896D01*
X62509860Y-58495173D01*
X62668096Y-58337489D01*
X62798453Y-58156077D01*
X62799776Y-58157028D01*
X62846645Y-58113857D01*
X62916580Y-58101625D01*
X62982026Y-58129144D01*
X63009875Y-58160994D01*
X63069987Y-58259088D01*
X63216250Y-58427938D01*
X63388126Y-58570632D01*
X63581000Y-58683338D01*
X63789692Y-58763030D01*
X63794760Y-58764061D01*
X63794763Y-58764062D01*
X63902017Y-58785883D01*
X64008597Y-58807567D01*
X64013772Y-58807757D01*
X64013774Y-58807757D01*
X64226673Y-58815564D01*
X64226677Y-58815564D01*
X64231837Y-58815753D01*
X64236957Y-58815097D01*
X64236959Y-58815097D01*
X64448288Y-58788025D01*
X64448289Y-58788025D01*
X64453416Y-58787368D01*
X64458366Y-58785883D01*
X64662429Y-58724661D01*
X64662434Y-58724659D01*
X64667384Y-58723174D01*
X64867994Y-58624896D01*
X65049860Y-58495173D01*
X65208096Y-58337489D01*
X65338453Y-58156077D01*
X65339776Y-58157028D01*
X65386645Y-58113857D01*
X65456580Y-58101625D01*
X65522026Y-58129144D01*
X65549875Y-58160994D01*
X65609987Y-58259088D01*
X65756250Y-58427938D01*
X65928126Y-58570632D01*
X66121000Y-58683338D01*
X66329692Y-58763030D01*
X66334760Y-58764061D01*
X66334763Y-58764062D01*
X66442017Y-58785883D01*
X66548597Y-58807567D01*
X66553772Y-58807757D01*
X66553774Y-58807757D01*
X66766673Y-58815564D01*
X66766677Y-58815564D01*
X66771837Y-58815753D01*
X66776957Y-58815097D01*
X66776959Y-58815097D01*
X66988288Y-58788025D01*
X66988289Y-58788025D01*
X66993416Y-58787368D01*
X66998366Y-58785883D01*
X67202429Y-58724661D01*
X67202434Y-58724659D01*
X67207384Y-58723174D01*
X67407994Y-58624896D01*
X67589860Y-58495173D01*
X67748096Y-58337489D01*
X67878453Y-58156077D01*
X67879776Y-58157028D01*
X67926645Y-58113857D01*
X67996580Y-58101625D01*
X68062026Y-58129144D01*
X68089875Y-58160994D01*
X68149987Y-58259088D01*
X68296250Y-58427938D01*
X68468126Y-58570632D01*
X68661000Y-58683338D01*
X68869692Y-58763030D01*
X68874760Y-58764061D01*
X68874763Y-58764062D01*
X68982017Y-58785883D01*
X69088597Y-58807567D01*
X69093772Y-58807757D01*
X69093774Y-58807757D01*
X69306673Y-58815564D01*
X69306677Y-58815564D01*
X69311837Y-58815753D01*
X69316957Y-58815097D01*
X69316959Y-58815097D01*
X69528288Y-58788025D01*
X69528289Y-58788025D01*
X69533416Y-58787368D01*
X69538366Y-58785883D01*
X69742429Y-58724661D01*
X69742434Y-58724659D01*
X69747384Y-58723174D01*
X69947994Y-58624896D01*
X70129860Y-58495173D01*
X70288096Y-58337489D01*
X70418453Y-58156077D01*
X70419776Y-58157028D01*
X70466645Y-58113857D01*
X70536580Y-58101625D01*
X70602026Y-58129144D01*
X70629875Y-58160994D01*
X70689987Y-58259088D01*
X70836250Y-58427938D01*
X71008126Y-58570632D01*
X71201000Y-58683338D01*
X71409692Y-58763030D01*
X71414760Y-58764061D01*
X71414763Y-58764062D01*
X71522017Y-58785883D01*
X71628597Y-58807567D01*
X71633772Y-58807757D01*
X71633774Y-58807757D01*
X71846673Y-58815564D01*
X71846677Y-58815564D01*
X71851837Y-58815753D01*
X71856957Y-58815097D01*
X71856959Y-58815097D01*
X72068288Y-58788025D01*
X72068289Y-58788025D01*
X72073416Y-58787368D01*
X72078366Y-58785883D01*
X72282429Y-58724661D01*
X72282434Y-58724659D01*
X72287384Y-58723174D01*
X72487994Y-58624896D01*
X72669860Y-58495173D01*
X72828096Y-58337489D01*
X72958453Y-58156077D01*
X72959776Y-58157028D01*
X73006645Y-58113857D01*
X73076580Y-58101625D01*
X73142026Y-58129144D01*
X73169875Y-58160994D01*
X73229987Y-58259088D01*
X73376250Y-58427938D01*
X73548126Y-58570632D01*
X73741000Y-58683338D01*
X73949692Y-58763030D01*
X73954760Y-58764061D01*
X73954763Y-58764062D01*
X74062017Y-58785883D01*
X74168597Y-58807567D01*
X74173772Y-58807757D01*
X74173774Y-58807757D01*
X74386673Y-58815564D01*
X74386677Y-58815564D01*
X74391837Y-58815753D01*
X74396957Y-58815097D01*
X74396959Y-58815097D01*
X74608288Y-58788025D01*
X74608289Y-58788025D01*
X74613416Y-58787368D01*
X74618366Y-58785883D01*
X74822429Y-58724661D01*
X74822434Y-58724659D01*
X74827384Y-58723174D01*
X75027994Y-58624896D01*
X75209860Y-58495173D01*
X75368096Y-58337489D01*
X75498453Y-58156077D01*
X75499776Y-58157028D01*
X75546645Y-58113857D01*
X75616580Y-58101625D01*
X75682026Y-58129144D01*
X75709875Y-58160994D01*
X75769987Y-58259088D01*
X75916250Y-58427938D01*
X76088126Y-58570632D01*
X76281000Y-58683338D01*
X76489692Y-58763030D01*
X76494760Y-58764061D01*
X76494763Y-58764062D01*
X76602017Y-58785883D01*
X76708597Y-58807567D01*
X76713772Y-58807757D01*
X76713774Y-58807757D01*
X76926673Y-58815564D01*
X76926677Y-58815564D01*
X76931837Y-58815753D01*
X76936957Y-58815097D01*
X76936959Y-58815097D01*
X77148288Y-58788025D01*
X77148289Y-58788025D01*
X77153416Y-58787368D01*
X77158366Y-58785883D01*
X77362429Y-58724661D01*
X77362434Y-58724659D01*
X77367384Y-58723174D01*
X77567994Y-58624896D01*
X77749860Y-58495173D01*
X77908096Y-58337489D01*
X78038453Y-58156077D01*
X78039776Y-58157028D01*
X78086645Y-58113857D01*
X78156580Y-58101625D01*
X78222026Y-58129144D01*
X78249875Y-58160994D01*
X78309987Y-58259088D01*
X78456250Y-58427938D01*
X78628126Y-58570632D01*
X78821000Y-58683338D01*
X79029692Y-58763030D01*
X79034760Y-58764061D01*
X79034763Y-58764062D01*
X79142017Y-58785883D01*
X79248597Y-58807567D01*
X79253772Y-58807757D01*
X79253774Y-58807757D01*
X79466673Y-58815564D01*
X79466677Y-58815564D01*
X79471837Y-58815753D01*
X79476957Y-58815097D01*
X79476959Y-58815097D01*
X79688288Y-58788025D01*
X79688289Y-58788025D01*
X79693416Y-58787368D01*
X79698366Y-58785883D01*
X79902429Y-58724661D01*
X79902434Y-58724659D01*
X79907384Y-58723174D01*
X80107994Y-58624896D01*
X80289860Y-58495173D01*
X80448096Y-58337489D01*
X80578453Y-58156077D01*
X80579776Y-58157028D01*
X80626645Y-58113857D01*
X80696580Y-58101625D01*
X80762026Y-58129144D01*
X80789875Y-58160994D01*
X80849987Y-58259088D01*
X80996250Y-58427938D01*
X81168126Y-58570632D01*
X81361000Y-58683338D01*
X81569692Y-58763030D01*
X81574760Y-58764061D01*
X81574763Y-58764062D01*
X81682017Y-58785883D01*
X81788597Y-58807567D01*
X81793772Y-58807757D01*
X81793774Y-58807757D01*
X82006673Y-58815564D01*
X82006677Y-58815564D01*
X82011837Y-58815753D01*
X82016957Y-58815097D01*
X82016959Y-58815097D01*
X82228288Y-58788025D01*
X82228289Y-58788025D01*
X82233416Y-58787368D01*
X82238366Y-58785883D01*
X82442429Y-58724661D01*
X82442434Y-58724659D01*
X82447384Y-58723174D01*
X82647994Y-58624896D01*
X82829860Y-58495173D01*
X82988096Y-58337489D01*
X83118453Y-58156077D01*
X83119776Y-58157028D01*
X83166645Y-58113857D01*
X83236580Y-58101625D01*
X83302026Y-58129144D01*
X83329875Y-58160994D01*
X83389987Y-58259088D01*
X83536250Y-58427938D01*
X83708126Y-58570632D01*
X83901000Y-58683338D01*
X84109692Y-58763030D01*
X84114760Y-58764061D01*
X84114763Y-58764062D01*
X84222017Y-58785883D01*
X84328597Y-58807567D01*
X84333772Y-58807757D01*
X84333774Y-58807757D01*
X84546673Y-58815564D01*
X84546677Y-58815564D01*
X84551837Y-58815753D01*
X84556957Y-58815097D01*
X84556959Y-58815097D01*
X84768288Y-58788025D01*
X84768289Y-58788025D01*
X84773416Y-58787368D01*
X84778366Y-58785883D01*
X84982429Y-58724661D01*
X84982434Y-58724659D01*
X84987384Y-58723174D01*
X85187994Y-58624896D01*
X85369860Y-58495173D01*
X85528096Y-58337489D01*
X85658453Y-58156077D01*
X85659776Y-58157028D01*
X85706645Y-58113857D01*
X85776580Y-58101625D01*
X85842026Y-58129144D01*
X85869875Y-58160994D01*
X85929987Y-58259088D01*
X86076250Y-58427938D01*
X86248126Y-58570632D01*
X86441000Y-58683338D01*
X86649692Y-58763030D01*
X86654760Y-58764061D01*
X86654763Y-58764062D01*
X86762017Y-58785883D01*
X86868597Y-58807567D01*
X86873772Y-58807757D01*
X86873774Y-58807757D01*
X87086673Y-58815564D01*
X87086677Y-58815564D01*
X87091837Y-58815753D01*
X87096957Y-58815097D01*
X87096959Y-58815097D01*
X87308288Y-58788025D01*
X87308289Y-58788025D01*
X87313416Y-58787368D01*
X87318366Y-58785883D01*
X87522429Y-58724661D01*
X87522434Y-58724659D01*
X87527384Y-58723174D01*
X87727994Y-58624896D01*
X87909860Y-58495173D01*
X88068096Y-58337489D01*
X88198453Y-58156077D01*
X88219320Y-58113857D01*
X88295136Y-57960453D01*
X88295137Y-57960451D01*
X88297430Y-57955811D01*
X88362370Y-57742069D01*
X88391529Y-57520590D01*
X88393156Y-57454000D01*
X88374852Y-57231361D01*
X88320431Y-57014702D01*
X88231354Y-56809840D01*
X88110014Y-56622277D01*
X87959670Y-56457051D01*
X87955619Y-56453852D01*
X87955615Y-56453848D01*
X87788414Y-56321800D01*
X87788410Y-56321798D01*
X87784359Y-56318598D01*
X87743053Y-56295796D01*
X87693084Y-56245364D01*
X87678312Y-56175921D01*
X87703428Y-56109516D01*
X87730780Y-56082909D01*
X87774603Y-56051650D01*
X87909860Y-55955173D01*
X88068096Y-55797489D01*
X88127594Y-55714689D01*
X88195435Y-55620277D01*
X88198453Y-55616077D01*
X88211995Y-55588678D01*
X88295136Y-55420453D01*
X88295137Y-55420451D01*
X88297430Y-55415811D01*
X88362370Y-55202069D01*
X88391529Y-54980590D01*
X88393156Y-54914000D01*
X88374852Y-54691361D01*
X88320431Y-54474702D01*
X88231354Y-54269840D01*
X88187920Y-54202701D01*
X88112822Y-54086617D01*
X88112820Y-54086614D01*
X88110014Y-54082277D01*
X87959670Y-53917051D01*
X87955616Y-53913849D01*
X87955615Y-53913848D01*
X87788414Y-53781800D01*
X87788410Y-53781798D01*
X87784359Y-53778598D01*
X87778128Y-53775158D01*
X87746596Y-53757752D01*
X87726608Y-53746718D01*
X87676638Y-53696287D01*
X87661564Y-53640369D01*
X87660922Y-53619949D01*
X87660673Y-53612029D01*
X87655022Y-53592577D01*
X87651014Y-53573225D01*
X87649467Y-53560982D01*
X87648474Y-53553122D01*
X87640814Y-53533774D01*
X87632200Y-53512016D01*
X87628355Y-53500789D01*
X87624539Y-53487656D01*
X87616018Y-53458326D01*
X87611984Y-53451504D01*
X87611981Y-53451498D01*
X87605706Y-53440887D01*
X87597010Y-53423137D01*
X87592472Y-53411675D01*
X87592469Y-53411670D01*
X87589552Y-53404302D01*
X87571501Y-53379457D01*
X87563573Y-53368544D01*
X87557057Y-53358626D01*
X87538575Y-53327376D01*
X87534542Y-53320556D01*
X87520218Y-53306232D01*
X87507376Y-53291197D01*
X87495472Y-53274812D01*
X87461406Y-53246630D01*
X87452627Y-53238641D01*
X86270832Y-52056846D01*
X86263292Y-52048560D01*
X86259180Y-52042081D01*
X86209528Y-51995455D01*
X86206687Y-51992701D01*
X86186950Y-51972964D01*
X86183753Y-51970484D01*
X86174731Y-51962779D01*
X86174364Y-51962434D01*
X86142501Y-51932513D01*
X86135555Y-51928694D01*
X86135552Y-51928692D01*
X86124746Y-51922751D01*
X86108227Y-51911900D01*
X86107763Y-51911540D01*
X86092221Y-51899485D01*
X86084952Y-51896340D01*
X86084948Y-51896337D01*
X86051643Y-51881925D01*
X86040993Y-51876708D01*
X86002240Y-51855404D01*
X85982617Y-51850366D01*
X85963914Y-51843962D01*
X85952600Y-51839066D01*
X85952599Y-51839066D01*
X85945325Y-51835918D01*
X85937502Y-51834679D01*
X85937492Y-51834676D01*
X85901656Y-51829000D01*
X85890036Y-51826594D01*
X85854891Y-51817571D01*
X85854890Y-51817571D01*
X85847210Y-51815599D01*
X85826956Y-51815599D01*
X85807247Y-51814048D01*
X85799215Y-51812776D01*
X85735062Y-51782365D01*
X85697534Y-51722097D01*
X85693597Y-51701330D01*
X85692990Y-51695475D01*
X85692989Y-51695470D01*
X85692278Y-51688618D01*
X85638608Y-51527751D01*
X85549371Y-51383545D01*
X85429353Y-51263736D01*
X85400139Y-51245728D01*
X85352074Y-51216101D01*
X85284992Y-51174751D01*
X85276424Y-51171909D01*
X85130562Y-51123528D01*
X85130560Y-51123528D01*
X85124031Y-51121362D01*
X85023872Y-51111100D01*
X84489728Y-51111100D01*
X84486482Y-51111437D01*
X84486478Y-51111437D01*
X84452697Y-51114942D01*
X84388318Y-51121622D01*
X84227451Y-51175292D01*
X84083245Y-51264529D01*
X84058413Y-51289405D01*
X83996132Y-51323484D01*
X83925312Y-51318482D01*
X83880222Y-51289560D01*
X83859533Y-51268907D01*
X83854353Y-51263736D01*
X83825139Y-51245728D01*
X83777074Y-51216101D01*
X83709992Y-51174751D01*
X83701424Y-51171909D01*
X83555562Y-51123528D01*
X83555560Y-51123528D01*
X83549031Y-51121362D01*
X83448872Y-51111100D01*
X82914728Y-51111100D01*
X82911482Y-51111437D01*
X82911478Y-51111437D01*
X82877697Y-51114942D01*
X82813318Y-51121622D01*
X82652451Y-51175292D01*
X82508245Y-51264529D01*
X82503077Y-51269706D01*
X82503076Y-51269707D01*
X82389962Y-51383018D01*
X82327679Y-51417097D01*
X82300789Y-51420000D01*
X81377500Y-51420000D01*
X81309379Y-51399998D01*
X81262886Y-51346342D01*
X81251500Y-51294000D01*
X81251500Y-51038000D01*
X81271502Y-50969879D01*
X81325158Y-50923386D01*
X81377500Y-50912000D01*
X82295384Y-50912000D01*
X82310623Y-50907525D01*
X82311828Y-50906135D01*
X82313499Y-50898452D01*
X82313499Y-50277017D01*
X82313305Y-50272080D01*
X82311070Y-50243664D01*
X82308770Y-50231069D01*
X82266393Y-50085210D01*
X82260148Y-50070779D01*
X82183589Y-49941322D01*
X82173949Y-49928896D01*
X82067604Y-49822551D01*
X82055178Y-49812911D01*
X81925721Y-49736352D01*
X81904013Y-49726958D01*
X81905026Y-49724617D01*
X81855734Y-49693138D01*
X81826056Y-49628642D01*
X81835959Y-49558339D01*
X81882298Y-49504551D01*
X81950722Y-49484353D01*
X82517615Y-49484353D01*
X82585736Y-49504355D01*
X82632229Y-49558011D01*
X82637448Y-49571417D01*
X82669474Y-49669982D01*
X82672777Y-49675704D01*
X82672778Y-49675705D01*
X82682841Y-49693134D01*
X82764961Y-49835370D01*
X82769379Y-49840277D01*
X82769380Y-49840278D01*
X82870875Y-49953000D01*
X82892748Y-49977292D01*
X83047249Y-50089544D01*
X83053277Y-50092228D01*
X83053279Y-50092229D01*
X83215682Y-50164535D01*
X83221713Y-50167220D01*
X83315114Y-50187073D01*
X83402057Y-50205554D01*
X83402062Y-50205554D01*
X83408514Y-50206926D01*
X83599488Y-50206926D01*
X83605940Y-50205554D01*
X83605945Y-50205554D01*
X83692888Y-50187073D01*
X83786289Y-50167220D01*
X83792320Y-50164535D01*
X83954723Y-50092229D01*
X83954725Y-50092228D01*
X83960753Y-50089544D01*
X84115254Y-49977292D01*
X84137127Y-49953000D01*
X84238622Y-49840278D01*
X84238623Y-49840277D01*
X84243041Y-49835370D01*
X84325161Y-49693134D01*
X84335224Y-49675705D01*
X84335225Y-49675704D01*
X84338528Y-49669982D01*
X84397543Y-49488354D01*
X84399275Y-49471880D01*
X84416815Y-49304991D01*
X84417505Y-49298426D01*
X84410668Y-49233377D01*
X84423440Y-49163538D01*
X84471942Y-49111692D01*
X84509779Y-49096960D01*
X84642288Y-49068794D01*
X84648319Y-49066109D01*
X84810722Y-48993803D01*
X84810724Y-48993802D01*
X84816752Y-48991118D01*
X84971253Y-48878866D01*
X85099040Y-48736944D01*
X85194527Y-48571556D01*
X85253542Y-48389928D01*
X85255200Y-48374158D01*
X85272814Y-48206565D01*
X85273504Y-48200000D01*
X85272814Y-48193431D01*
X85272261Y-48188168D01*
X85285034Y-48118330D01*
X85333538Y-48066484D01*
X85397571Y-48049000D01*
X86676232Y-48049000D01*
X86744353Y-48069002D01*
X86769868Y-48090689D01*
X86795241Y-48118868D01*
X86813247Y-48138866D01*
X86829291Y-48150523D01*
X86959497Y-48245123D01*
X86967748Y-48251118D01*
X86973776Y-48253802D01*
X86973778Y-48253803D01*
X87136181Y-48326109D01*
X87142212Y-48328794D01*
X87220793Y-48345497D01*
X87322556Y-48367128D01*
X87322561Y-48367128D01*
X87329013Y-48368500D01*
X87519987Y-48368500D01*
X87526439Y-48367128D01*
X87526444Y-48367128D01*
X87628207Y-48345497D01*
X87706788Y-48328794D01*
X87712819Y-48326109D01*
X87875222Y-48253803D01*
X87875224Y-48253802D01*
X87881252Y-48251118D01*
X87889504Y-48245123D01*
X87955342Y-48197288D01*
X88035753Y-48138866D01*
X88055338Y-48117115D01*
X88159121Y-48001852D01*
X88159122Y-48001851D01*
X88163540Y-47996944D01*
X88250981Y-47845492D01*
X88255723Y-47837279D01*
X88255724Y-47837278D01*
X88259027Y-47831556D01*
X88318042Y-47649928D01*
X88320336Y-47628107D01*
X88337314Y-47466565D01*
X88338004Y-47460000D01*
X88337314Y-47453435D01*
X88318732Y-47276635D01*
X88318732Y-47276633D01*
X88318042Y-47270072D01*
X88259027Y-47088444D01*
X88232825Y-47043060D01*
X88171881Y-46937503D01*
X88163540Y-46923056D01*
X88134489Y-46890791D01*
X88040175Y-46786045D01*
X88040174Y-46786044D01*
X88035753Y-46781134D01*
X87881252Y-46668882D01*
X87875224Y-46666198D01*
X87875222Y-46666197D01*
X87712819Y-46593891D01*
X87712818Y-46593891D01*
X87706788Y-46591206D01*
X87612122Y-46571084D01*
X87526444Y-46552872D01*
X87526439Y-46552872D01*
X87519987Y-46551500D01*
X87329013Y-46551500D01*
X87322561Y-46552872D01*
X87322556Y-46552872D01*
X87236878Y-46571084D01*
X87142212Y-46591206D01*
X87136182Y-46593891D01*
X87136181Y-46593891D01*
X86973778Y-46666197D01*
X86973776Y-46666198D01*
X86967748Y-46668882D01*
X86962407Y-46672762D01*
X86962406Y-46672763D01*
X86845176Y-46757936D01*
X86778308Y-46781794D01*
X86771115Y-46782000D01*
X84138670Y-46782000D01*
X84127487Y-46781473D01*
X84119994Y-46779798D01*
X84112068Y-46780047D01*
X84112067Y-46780047D01*
X84051904Y-46781938D01*
X84047946Y-46782000D01*
X84020046Y-46782000D01*
X84016056Y-46782504D01*
X84004222Y-46783436D01*
X83960013Y-46784826D01*
X83952397Y-46787039D01*
X83952395Y-46787039D01*
X83940554Y-46790479D01*
X83921195Y-46794488D01*
X83919885Y-46794654D01*
X83901105Y-46797026D01*
X83893739Y-46799942D01*
X83893733Y-46799944D01*
X83860000Y-46813300D01*
X83848770Y-46817145D01*
X83820263Y-46825427D01*
X83806309Y-46829481D01*
X83799486Y-46833516D01*
X83788868Y-46839795D01*
X83771115Y-46848492D01*
X83763470Y-46851519D01*
X83752285Y-46855948D01*
X83745872Y-46860607D01*
X83745869Y-46860609D01*
X83722021Y-46877936D01*
X83647960Y-46902000D01*
X82440000Y-46902000D01*
X82371879Y-46881998D01*
X82325386Y-46828342D01*
X82314000Y-46776000D01*
X82314000Y-46666397D01*
X82330880Y-46603398D01*
X82340027Y-46587556D01*
X82399042Y-46405928D01*
X82401083Y-46386515D01*
X82418314Y-46222565D01*
X82419004Y-46216000D01*
X82417424Y-46200968D01*
X82399732Y-46032635D01*
X82399732Y-46032633D01*
X82399042Y-46026072D01*
X82340027Y-45844444D01*
X82330880Y-45828602D01*
X82314000Y-45765603D01*
X82314000Y-45468502D01*
X82334002Y-45400381D01*
X82387658Y-45353888D01*
X82440000Y-45342502D01*
X86470398Y-45342502D01*
X86510372Y-45350996D01*
X86510902Y-45349366D01*
X86517176Y-45351405D01*
X86523212Y-45354092D01*
X86564840Y-45362940D01*
X86703556Y-45392426D01*
X86703561Y-45392426D01*
X86710013Y-45393798D01*
X86900987Y-45393798D01*
X86907439Y-45392426D01*
X86907444Y-45392426D01*
X87013229Y-45369940D01*
X87087788Y-45354092D01*
X87099151Y-45349033D01*
X87256222Y-45279101D01*
X87256224Y-45279100D01*
X87262252Y-45276416D01*
X87280301Y-45263303D01*
X87357899Y-45206924D01*
X87416753Y-45164164D01*
X87462821Y-45113000D01*
X87540121Y-45027150D01*
X87540122Y-45027149D01*
X87544540Y-45022242D01*
X87622288Y-44887579D01*
X87636723Y-44862577D01*
X87636724Y-44862576D01*
X87640027Y-44856854D01*
X87699042Y-44675226D01*
X87701017Y-44656441D01*
X87718314Y-44491863D01*
X87719004Y-44485298D01*
X87710194Y-44401473D01*
X87699732Y-44301933D01*
X87699732Y-44301931D01*
X87699042Y-44295370D01*
X87684457Y-44250483D01*
X87660787Y-44177633D01*
X87658760Y-44106665D01*
X87691447Y-44049679D01*
X87805693Y-43935234D01*
X87805697Y-43935229D01*
X87810864Y-43930053D01*
X87899849Y-43785692D01*
X87942038Y-43658498D01*
X87951072Y-43631262D01*
X87951072Y-43631260D01*
X87953238Y-43624731D01*
X87963500Y-43524572D01*
X87963500Y-42915428D01*
X87962688Y-42907596D01*
X87958413Y-42866396D01*
X87952978Y-42814018D01*
X87899308Y-42653151D01*
X87810071Y-42508945D01*
X87690053Y-42389136D01*
X87675980Y-42380461D01*
X87652486Y-42365980D01*
X87545692Y-42300151D01*
X87471246Y-42275458D01*
X87391262Y-42248928D01*
X87391260Y-42248928D01*
X87384731Y-42246762D01*
X87284572Y-42236500D01*
X86750428Y-42236500D01*
X86747182Y-42236837D01*
X86747178Y-42236837D01*
X86713397Y-42240342D01*
X86649018Y-42247022D01*
X86488151Y-42300692D01*
X86343945Y-42389929D01*
X86319113Y-42414805D01*
X86256832Y-42448884D01*
X86186012Y-42443882D01*
X86140922Y-42414960D01*
X86120233Y-42394307D01*
X86115053Y-42389136D01*
X86100980Y-42380461D01*
X86077486Y-42365980D01*
X85970692Y-42300151D01*
X85896246Y-42275458D01*
X85816262Y-42248928D01*
X85816260Y-42248928D01*
X85809731Y-42246762D01*
X85709572Y-42236500D01*
X85367763Y-42236500D01*
X85317722Y-42226137D01*
X85286960Y-42212825D01*
X85276313Y-42207609D01*
X85237560Y-42186305D01*
X85217937Y-42181267D01*
X85199234Y-42174863D01*
X85187920Y-42169967D01*
X85187919Y-42169967D01*
X85180645Y-42166819D01*
X85172822Y-42165580D01*
X85172812Y-42165577D01*
X85136976Y-42159901D01*
X85125356Y-42157495D01*
X85090211Y-42148472D01*
X85090210Y-42148472D01*
X85082530Y-42146500D01*
X85062276Y-42146500D01*
X85042565Y-42144949D01*
X85030386Y-42143020D01*
X85022557Y-42141780D01*
X85014665Y-42142526D01*
X84978539Y-42145941D01*
X84966681Y-42146500D01*
X82433919Y-42146500D01*
X82365798Y-42126498D01*
X82319305Y-42072842D01*
X82309969Y-41997862D01*
X82311070Y-41991833D01*
X82313307Y-41963416D01*
X82313500Y-41958486D01*
X82313500Y-41341615D01*
X82309025Y-41326376D01*
X82307635Y-41325171D01*
X82299952Y-41323500D01*
X81377500Y-41323500D01*
X81309379Y-41303498D01*
X81262886Y-41249842D01*
X81251500Y-41197500D01*
X81251500Y-40941500D01*
X81271502Y-40873379D01*
X81325158Y-40826886D01*
X81377500Y-40815500D01*
X82295384Y-40815500D01*
X82310623Y-40811025D01*
X82311828Y-40809635D01*
X82313499Y-40801952D01*
X82313499Y-40294901D01*
X82333501Y-40226780D01*
X82387157Y-40180287D01*
X82439499Y-40168901D01*
X83821000Y-40168901D01*
X83889121Y-40188903D01*
X83908347Y-40205244D01*
X83908620Y-40204941D01*
X83913532Y-40209364D01*
X83917947Y-40214267D01*
X83935170Y-40226780D01*
X84063714Y-40320173D01*
X84072448Y-40326519D01*
X84078476Y-40329203D01*
X84078478Y-40329204D01*
X84240881Y-40401510D01*
X84246912Y-40404195D01*
X84312358Y-40418106D01*
X84427256Y-40442529D01*
X84427261Y-40442529D01*
X84433713Y-40443901D01*
X84624687Y-40443901D01*
X84631139Y-40442529D01*
X84631144Y-40442529D01*
X84746042Y-40418106D01*
X84811488Y-40404195D01*
X84817519Y-40401510D01*
X84979922Y-40329204D01*
X84979924Y-40329203D01*
X84985952Y-40326519D01*
X84994687Y-40320173D01*
X85060275Y-40272520D01*
X85140453Y-40214267D01*
X85144875Y-40209356D01*
X85263821Y-40077253D01*
X85263822Y-40077252D01*
X85268240Y-40072345D01*
X85331864Y-39962146D01*
X85360423Y-39912680D01*
X85360424Y-39912679D01*
X85363727Y-39906957D01*
X85422742Y-39725329D01*
X85433389Y-39624034D01*
X85442014Y-39541966D01*
X85442704Y-39535401D01*
X85437210Y-39483124D01*
X85423432Y-39352036D01*
X85423432Y-39352034D01*
X85422742Y-39345473D01*
X85363727Y-39163845D01*
X85268240Y-38998457D01*
X85262776Y-38992388D01*
X85144875Y-38861446D01*
X85144874Y-38861445D01*
X85140453Y-38856535D01*
X85024321Y-38772160D01*
X84991294Y-38748164D01*
X84991293Y-38748163D01*
X84985952Y-38744283D01*
X84979924Y-38741599D01*
X84979922Y-38741598D01*
X84817519Y-38669292D01*
X84817518Y-38669292D01*
X84811488Y-38666607D01*
X84811534Y-38666504D01*
X84755278Y-38628037D01*
X84727642Y-38562640D01*
X84732988Y-38509343D01*
X84748124Y-38462758D01*
X84748125Y-38462754D01*
X84750165Y-38456475D01*
X84752429Y-38434938D01*
X84764002Y-38324829D01*
X84791016Y-38259172D01*
X84849237Y-38218543D01*
X84889312Y-38212000D01*
X85683906Y-38212000D01*
X85752027Y-38232002D01*
X85773001Y-38248905D01*
X86222878Y-38698782D01*
X86256904Y-38761094D01*
X86259092Y-38774703D01*
X86276458Y-38939928D01*
X86335473Y-39121556D01*
X86430960Y-39286944D01*
X86435378Y-39291851D01*
X86435379Y-39291852D01*
X86548963Y-39418000D01*
X86558747Y-39428866D01*
X86635085Y-39484329D01*
X86693507Y-39526775D01*
X86713248Y-39541118D01*
X86719276Y-39543802D01*
X86719278Y-39543803D01*
X86848671Y-39601412D01*
X86887712Y-39618794D01*
X86965625Y-39635355D01*
X87068056Y-39657128D01*
X87068061Y-39657128D01*
X87074513Y-39658500D01*
X87265487Y-39658500D01*
X87271939Y-39657128D01*
X87271944Y-39657128D01*
X87374375Y-39635355D01*
X87452288Y-39618794D01*
X87491329Y-39601412D01*
X87620722Y-39543803D01*
X87620724Y-39543802D01*
X87626752Y-39541118D01*
X87646494Y-39526775D01*
X87704915Y-39484329D01*
X87781253Y-39428866D01*
X87791037Y-39418000D01*
X87904621Y-39291852D01*
X87904622Y-39291851D01*
X87909040Y-39286944D01*
X88004527Y-39121556D01*
X88063542Y-38939928D01*
X88075132Y-38829660D01*
X88082814Y-38756565D01*
X88083504Y-38750000D01*
X88079379Y-38710749D01*
X88064232Y-38566635D01*
X88064232Y-38566633D01*
X88063542Y-38560072D01*
X88004527Y-38378444D01*
X87993010Y-38358495D01*
X87929737Y-38248905D01*
X87909040Y-38213056D01*
X87904183Y-38207661D01*
X87785675Y-38076045D01*
X87785674Y-38076044D01*
X87781253Y-38071134D01*
X87774906Y-38066522D01*
X87743133Y-38043438D01*
X87707340Y-38017433D01*
X87663987Y-37961212D01*
X87657912Y-37890476D01*
X87691043Y-37827684D01*
X87707341Y-37813562D01*
X87823729Y-37729000D01*
X87849926Y-37709967D01*
X87892517Y-37662665D01*
X87973294Y-37572953D01*
X87973295Y-37572952D01*
X87977713Y-37568045D01*
X88057569Y-37429730D01*
X88069896Y-37408380D01*
X88069897Y-37408379D01*
X88073200Y-37402657D01*
X88132215Y-37221029D01*
X88139419Y-37152492D01*
X88151487Y-37037666D01*
X88152177Y-37031101D01*
X88140463Y-36919646D01*
X88132905Y-36847736D01*
X88132905Y-36847734D01*
X88132215Y-36841173D01*
X88073200Y-36659545D01*
X88060321Y-36637237D01*
X88015855Y-36560221D01*
X87977713Y-36494157D01*
X87923548Y-36434000D01*
X87854348Y-36357146D01*
X87854347Y-36357145D01*
X87849926Y-36352235D01*
X87716336Y-36255176D01*
X87700767Y-36243864D01*
X87700766Y-36243863D01*
X87695425Y-36239983D01*
X87689397Y-36237299D01*
X87689395Y-36237298D01*
X87526992Y-36164992D01*
X87526991Y-36164992D01*
X87520961Y-36162307D01*
X87427560Y-36142454D01*
X87340617Y-36123973D01*
X87340612Y-36123973D01*
X87334160Y-36122601D01*
X87275159Y-36122601D01*
X87207038Y-36102599D01*
X87188907Y-36088452D01*
X87186256Y-36085963D01*
X87172893Y-36073414D01*
X87165947Y-36069595D01*
X87165944Y-36069593D01*
X87155138Y-36063652D01*
X87138619Y-36052801D01*
X87138155Y-36052441D01*
X87122613Y-36040386D01*
X87115344Y-36037241D01*
X87115340Y-36037238D01*
X87082035Y-36022826D01*
X87071385Y-36017609D01*
X87032632Y-35996305D01*
X87013009Y-35991267D01*
X86994306Y-35984863D01*
X86982992Y-35979967D01*
X86982991Y-35979967D01*
X86975717Y-35976819D01*
X86967894Y-35975580D01*
X86967884Y-35975577D01*
X86932048Y-35969901D01*
X86920428Y-35967495D01*
X86885283Y-35958472D01*
X86885282Y-35958472D01*
X86877602Y-35956500D01*
X86857348Y-35956500D01*
X86837637Y-35954949D01*
X86825458Y-35953020D01*
X86817629Y-35951780D01*
X86809737Y-35952526D01*
X86773611Y-35955941D01*
X86761753Y-35956500D01*
X83937362Y-35956500D01*
X83869241Y-35936498D01*
X83848267Y-35919595D01*
X83105500Y-35176827D01*
X82333620Y-34404947D01*
X82326080Y-34396661D01*
X82321968Y-34390182D01*
X82272316Y-34343556D01*
X82269475Y-34340802D01*
X82249738Y-34321065D01*
X82246541Y-34318585D01*
X82237519Y-34310880D01*
X82224084Y-34298264D01*
X82205289Y-34280614D01*
X82198343Y-34276795D01*
X82198340Y-34276793D01*
X82187534Y-34270852D01*
X82171015Y-34260001D01*
X82170551Y-34259641D01*
X82155009Y-34247586D01*
X82147740Y-34244441D01*
X82147736Y-34244438D01*
X82114431Y-34230026D01*
X82103781Y-34224809D01*
X82065028Y-34203505D01*
X82045405Y-34198467D01*
X82026702Y-34192063D01*
X82015388Y-34187167D01*
X82015387Y-34187167D01*
X82008113Y-34184019D01*
X82000290Y-34182780D01*
X82000280Y-34182777D01*
X81964444Y-34177101D01*
X81952824Y-34174695D01*
X81917679Y-34165672D01*
X81917678Y-34165672D01*
X81909998Y-34163700D01*
X81889744Y-34163700D01*
X81870033Y-34162149D01*
X81867502Y-34161748D01*
X81850025Y-34158980D01*
X81842133Y-34159726D01*
X81806007Y-34163141D01*
X81794149Y-34163700D01*
X77449795Y-34163700D01*
X77438611Y-34163173D01*
X77431123Y-34161499D01*
X77423200Y-34161748D01*
X77363065Y-34163638D01*
X77359107Y-34163700D01*
X77331176Y-34163700D01*
X77327261Y-34164195D01*
X77327257Y-34164195D01*
X77327199Y-34164203D01*
X77327170Y-34164206D01*
X77315328Y-34165139D01*
X77271142Y-34166527D01*
X77253776Y-34171572D01*
X77251690Y-34172178D01*
X77232338Y-34176186D01*
X77225267Y-34177080D01*
X77212235Y-34178726D01*
X77204866Y-34181643D01*
X77204864Y-34181644D01*
X77171129Y-34195000D01*
X77159901Y-34198845D01*
X77117439Y-34211182D01*
X77110617Y-34215216D01*
X77110611Y-34215219D01*
X77100000Y-34221494D01*
X77082250Y-34230190D01*
X77070788Y-34234728D01*
X77070783Y-34234731D01*
X77063415Y-34237648D01*
X77046002Y-34250299D01*
X77027657Y-34263627D01*
X77017739Y-34270143D01*
X77006495Y-34276793D01*
X76979669Y-34292658D01*
X76965345Y-34306982D01*
X76950313Y-34319821D01*
X76933925Y-34331728D01*
X76905744Y-34365793D01*
X76897754Y-34374573D01*
X76673232Y-34599095D01*
X76610920Y-34633121D01*
X76584137Y-34636000D01*
X76208998Y-34636000D01*
X76206550Y-34636193D01*
X76206542Y-34636193D01*
X76178079Y-34638433D01*
X76178074Y-34638434D01*
X76171669Y-34638938D01*
X76089036Y-34662945D01*
X76019512Y-34683143D01*
X76019510Y-34683144D01*
X76011899Y-34685355D01*
X75868693Y-34770047D01*
X75866011Y-34772729D01*
X75801639Y-34798002D01*
X75732016Y-34784100D01*
X75716188Y-34773928D01*
X75712307Y-34770047D01*
X75569101Y-34685355D01*
X75561490Y-34683144D01*
X75561488Y-34683143D01*
X75491964Y-34662945D01*
X75409331Y-34638938D01*
X75402926Y-34638434D01*
X75402921Y-34638433D01*
X75374458Y-34636193D01*
X75374450Y-34636193D01*
X75372002Y-34636000D01*
X74938998Y-34636000D01*
X74936550Y-34636193D01*
X74936542Y-34636193D01*
X74908079Y-34638433D01*
X74908074Y-34638434D01*
X74901669Y-34638938D01*
X74819036Y-34662945D01*
X74749512Y-34683143D01*
X74749510Y-34683144D01*
X74741899Y-34685355D01*
X74598693Y-34770047D01*
X74596011Y-34772729D01*
X74531639Y-34798002D01*
X74462016Y-34784100D01*
X74446188Y-34773928D01*
X74442307Y-34770047D01*
X74299101Y-34685355D01*
X74291490Y-34683144D01*
X74291488Y-34683143D01*
X74221964Y-34662945D01*
X74139331Y-34638938D01*
X74132926Y-34638434D01*
X74132921Y-34638433D01*
X74104458Y-34636193D01*
X74104450Y-34636193D01*
X74102002Y-34636000D01*
X73668998Y-34636000D01*
X73666550Y-34636193D01*
X73666542Y-34636193D01*
X73638079Y-34638433D01*
X73638074Y-34638434D01*
X73631669Y-34638938D01*
X73549036Y-34662945D01*
X73479512Y-34683143D01*
X73479510Y-34683144D01*
X73471899Y-34685355D01*
X73328693Y-34770047D01*
X73326011Y-34772729D01*
X73261639Y-34798002D01*
X73192016Y-34784100D01*
X73176188Y-34773928D01*
X73172307Y-34770047D01*
X73029101Y-34685355D01*
X73021490Y-34683144D01*
X73021488Y-34683143D01*
X72951964Y-34662945D01*
X72869331Y-34638938D01*
X72862926Y-34638434D01*
X72862921Y-34638433D01*
X72834458Y-34636193D01*
X72834450Y-34636193D01*
X72832002Y-34636000D01*
X72398998Y-34636000D01*
X72396550Y-34636193D01*
X72396542Y-34636193D01*
X72368079Y-34638433D01*
X72368074Y-34638434D01*
X72361669Y-34638938D01*
X72279036Y-34662945D01*
X72209512Y-34683143D01*
X72209510Y-34683144D01*
X72201899Y-34685355D01*
X72184613Y-34695578D01*
X72065520Y-34766009D01*
X72065517Y-34766011D01*
X72058693Y-34770047D01*
X72034145Y-34794595D01*
X71971833Y-34828621D01*
X71945050Y-34831500D01*
X71914652Y-34831500D01*
X71846531Y-34811498D01*
X71807508Y-34771803D01*
X71793709Y-34749504D01*
X71763478Y-34700652D01*
X71638303Y-34575695D01*
X71629689Y-34570385D01*
X71493968Y-34486725D01*
X71493966Y-34486724D01*
X71487738Y-34482885D01*
X71407227Y-34456181D01*
X71326389Y-34429368D01*
X71326387Y-34429368D01*
X71319861Y-34427203D01*
X71313025Y-34426503D01*
X71313022Y-34426502D01*
X71269969Y-34422091D01*
X71215400Y-34416500D01*
X69864600Y-34416500D01*
X69861354Y-34416837D01*
X69861350Y-34416837D01*
X69765692Y-34426762D01*
X69765688Y-34426763D01*
X69758834Y-34427474D01*
X69752298Y-34429655D01*
X69752296Y-34429655D01*
X69629630Y-34470580D01*
X69591054Y-34483450D01*
X69440652Y-34576522D01*
X69315695Y-34701697D01*
X69311855Y-34707927D01*
X69311854Y-34707928D01*
X69227718Y-34844422D01*
X69222885Y-34852262D01*
X69209612Y-34892279D01*
X69172170Y-35005165D01*
X69167203Y-35020139D01*
X69166503Y-35026975D01*
X69166502Y-35026978D01*
X69162361Y-35067395D01*
X69156500Y-35124600D01*
X69156500Y-35975400D01*
X69156837Y-35978646D01*
X69156837Y-35978650D01*
X69166670Y-36073414D01*
X69167474Y-36081166D01*
X69169655Y-36087702D01*
X69169655Y-36087704D01*
X69193967Y-36160575D01*
X69223450Y-36248946D01*
X69316522Y-36399348D01*
X69441697Y-36524305D01*
X69447927Y-36528145D01*
X69447928Y-36528146D01*
X69585838Y-36613155D01*
X69592262Y-36617115D01*
X69645611Y-36634810D01*
X69753611Y-36670632D01*
X69753613Y-36670632D01*
X69760139Y-36672797D01*
X69766975Y-36673497D01*
X69766978Y-36673498D01*
X69800506Y-36676933D01*
X69864600Y-36683500D01*
X71007099Y-36683500D01*
X71075220Y-36703502D01*
X71121713Y-36757158D01*
X71130989Y-36832462D01*
X71127704Y-36850186D01*
X71128141Y-36857766D01*
X71128141Y-36857767D01*
X71131291Y-36912392D01*
X71131500Y-36919646D01*
X71131500Y-37091000D01*
X71111498Y-37159121D01*
X71057842Y-37205614D01*
X71005500Y-37217000D01*
X70812115Y-37217000D01*
X70796876Y-37221475D01*
X70795671Y-37222865D01*
X70794000Y-37230548D01*
X70794000Y-39338885D01*
X70798475Y-39354124D01*
X70810203Y-39364286D01*
X70852097Y-39387163D01*
X70886121Y-39449476D01*
X70889000Y-39476257D01*
X70889000Y-41344884D01*
X70893475Y-41360123D01*
X70894865Y-41361328D01*
X70899294Y-41362291D01*
X70958315Y-41356868D01*
X70977903Y-41352945D01*
X70978349Y-41355169D01*
X71038823Y-41354084D01*
X71099229Y-41391390D01*
X71129876Y-41455431D01*
X71131500Y-41475598D01*
X71131500Y-42312340D01*
X71111498Y-42380461D01*
X71094595Y-42401435D01*
X70335723Y-43160307D01*
X70273411Y-43194333D01*
X70202596Y-43189268D01*
X70145760Y-43146721D01*
X70137879Y-43134211D01*
X70136487Y-43130527D01*
X70132188Y-43124272D01*
X70130965Y-43121933D01*
X70122720Y-43107120D01*
X70121369Y-43104835D01*
X70118315Y-43097878D01*
X70113695Y-43091858D01*
X70113692Y-43091852D01*
X70088818Y-43059438D01*
X70079413Y-43047181D01*
X70075541Y-43041851D01*
X70043661Y-42995463D01*
X70043656Y-42995458D01*
X70039357Y-42989202D01*
X70022045Y-42973777D01*
X69992830Y-42947748D01*
X69987554Y-42942767D01*
X68622358Y-41577571D01*
X68588332Y-41515259D01*
X68593397Y-41444444D01*
X68635944Y-41387608D01*
X68702464Y-41362797D01*
X68722976Y-41363005D01*
X68728365Y-41363500D01*
X68731263Y-41363500D01*
X68985665Y-41363499D01*
X69241634Y-41363499D01*
X69244492Y-41363236D01*
X69244501Y-41363236D01*
X69280004Y-41359974D01*
X69315062Y-41356753D01*
X69323579Y-41354084D01*
X69471450Y-41307744D01*
X69471452Y-41307743D01*
X69478699Y-41305472D01*
X69625381Y-41216639D01*
X69721259Y-41120761D01*
X69783571Y-41086735D01*
X69854386Y-41091800D01*
X69899449Y-41120761D01*
X69989557Y-41210869D01*
X70001426Y-41220176D01*
X70135012Y-41301079D01*
X70148757Y-41307285D01*
X70298644Y-41354256D01*
X70311694Y-41356869D01*
X70366586Y-41361913D01*
X70378124Y-41358525D01*
X70379329Y-41357135D01*
X70381000Y-41349452D01*
X70381000Y-39541115D01*
X70376525Y-39525876D01*
X70364797Y-39515714D01*
X70322903Y-39492837D01*
X70288879Y-39430524D01*
X70286000Y-39403743D01*
X70286000Y-37235116D01*
X70281525Y-37219877D01*
X70280135Y-37218672D01*
X70272452Y-37217001D01*
X69867905Y-37217001D01*
X69861386Y-37217338D01*
X69765794Y-37227257D01*
X69752400Y-37230149D01*
X69598216Y-37281588D01*
X69585038Y-37287761D01*
X69447193Y-37373063D01*
X69435792Y-37382099D01*
X69321261Y-37496829D01*
X69312249Y-37508240D01*
X69227184Y-37646243D01*
X69221037Y-37659424D01*
X69169862Y-37813710D01*
X69166995Y-37827086D01*
X69159617Y-37899093D01*
X69132776Y-37964820D01*
X69074661Y-38005602D01*
X69003723Y-38008490D01*
X68969002Y-37994026D01*
X68844992Y-37918923D01*
X68831243Y-37912715D01*
X68681356Y-37865744D01*
X68668306Y-37863131D01*
X68613414Y-37858087D01*
X68601876Y-37861475D01*
X68600671Y-37862865D01*
X68599000Y-37870548D01*
X68599000Y-38968000D01*
X68578998Y-39036121D01*
X68525342Y-39082614D01*
X68473000Y-39094000D01*
X68217000Y-39094000D01*
X68148879Y-39073998D01*
X68102386Y-39020342D01*
X68091000Y-38968000D01*
X68091000Y-37989522D01*
X68109740Y-37923407D01*
X68168084Y-37828754D01*
X68172661Y-37821329D01*
X68191127Y-37765656D01*
X68225719Y-37661366D01*
X68225719Y-37661364D01*
X68227885Y-37654835D01*
X68238500Y-37551231D01*
X68238499Y-36963770D01*
X68227616Y-36858871D01*
X68225437Y-36852340D01*
X68225436Y-36852335D01*
X68174420Y-36699422D01*
X68172102Y-36692474D01*
X68079797Y-36543311D01*
X68072610Y-36536136D01*
X67960837Y-36424558D01*
X67955653Y-36419383D01*
X67952730Y-36417581D01*
X67912592Y-36360971D01*
X67909358Y-36290048D01*
X67944982Y-36228636D01*
X67951378Y-36223084D01*
X67956689Y-36219797D01*
X67973043Y-36203415D01*
X68075446Y-36100833D01*
X68080617Y-36095653D01*
X68103226Y-36058975D01*
X68117715Y-36035469D01*
X68172661Y-35946329D01*
X68227885Y-35779835D01*
X68238500Y-35676231D01*
X68238499Y-35088770D01*
X68227616Y-34983871D01*
X68225437Y-34977340D01*
X68225436Y-34977335D01*
X68174420Y-34824422D01*
X68172102Y-34817474D01*
X68079797Y-34668311D01*
X67955653Y-34544383D01*
X67806329Y-34452339D01*
X67799380Y-34450034D01*
X67646366Y-34399281D01*
X67646364Y-34399281D01*
X67639835Y-34397115D01*
X67536231Y-34386500D01*
X67033904Y-34386500D01*
X66523770Y-34386501D01*
X66418871Y-34397384D01*
X66412340Y-34399563D01*
X66412335Y-34399564D01*
X66322142Y-34429655D01*
X66252474Y-34452898D01*
X66103311Y-34545203D01*
X66098138Y-34550385D01*
X66058476Y-34590116D01*
X65979383Y-34669347D01*
X65975543Y-34675577D01*
X65975542Y-34675578D01*
X65967198Y-34689115D01*
X65914426Y-34736609D01*
X65859938Y-34749000D01*
X65476267Y-34749000D01*
X65465084Y-34748473D01*
X65457591Y-34746798D01*
X65449665Y-34747047D01*
X65449664Y-34747047D01*
X65389501Y-34748938D01*
X65385543Y-34749000D01*
X65357644Y-34749000D01*
X65353654Y-34749504D01*
X65341820Y-34750436D01*
X65297611Y-34751826D01*
X65289997Y-34754038D01*
X65289992Y-34754039D01*
X65278159Y-34757477D01*
X65258796Y-34761488D01*
X65238703Y-34764026D01*
X65231336Y-34766943D01*
X65231331Y-34766944D01*
X65197592Y-34780302D01*
X65186365Y-34784146D01*
X65143907Y-34796482D01*
X65137081Y-34800519D01*
X65126472Y-34806793D01*
X65108724Y-34815488D01*
X65089883Y-34822948D01*
X65083467Y-34827610D01*
X65083466Y-34827610D01*
X65054113Y-34848936D01*
X65044193Y-34855452D01*
X65012965Y-34873920D01*
X65012962Y-34873922D01*
X65006138Y-34877958D01*
X64991817Y-34892279D01*
X64976784Y-34905119D01*
X64960393Y-34917028D01*
X64937201Y-34945063D01*
X64932212Y-34951093D01*
X64924222Y-34959874D01*
X64787279Y-35096816D01*
X64724967Y-35130841D01*
X64654151Y-35125776D01*
X64604991Y-35092520D01*
X64557366Y-35040181D01*
X64557364Y-35040179D01*
X64553887Y-35036358D01*
X64549836Y-35033159D01*
X64549832Y-35033155D01*
X64376177Y-34896011D01*
X64376172Y-34896008D01*
X64372123Y-34892810D01*
X64367607Y-34890317D01*
X64367604Y-34890315D01*
X64173879Y-34783373D01*
X64173875Y-34783371D01*
X64169355Y-34780876D01*
X64164486Y-34779152D01*
X64164482Y-34779150D01*
X63955903Y-34705288D01*
X63955899Y-34705287D01*
X63951028Y-34703562D01*
X63945935Y-34702655D01*
X63945932Y-34702654D01*
X63728095Y-34663851D01*
X63728089Y-34663850D01*
X63723006Y-34662945D01*
X63650096Y-34662054D01*
X63496581Y-34660179D01*
X63496579Y-34660179D01*
X63491411Y-34660116D01*
X63262464Y-34695150D01*
X63042314Y-34767106D01*
X63037726Y-34769494D01*
X63037722Y-34769496D01*
X62865385Y-34859209D01*
X62836872Y-34874052D01*
X62832739Y-34877155D01*
X62832736Y-34877157D01*
X62662246Y-35005165D01*
X62651655Y-35013117D01*
X62648083Y-35016855D01*
X62558533Y-35110564D01*
X62491639Y-35180564D01*
X62488725Y-35184836D01*
X62488724Y-35184837D01*
X62484489Y-35191045D01*
X62361119Y-35371899D01*
X62358943Y-35376586D01*
X62358940Y-35376592D01*
X62288788Y-35527722D01*
X62241964Y-35581089D01*
X62173720Y-35600670D01*
X62105725Y-35580246D01*
X62059565Y-35526304D01*
X62048500Y-35474672D01*
X62048499Y-35112038D01*
X62048499Y-35108770D01*
X62037616Y-35003871D01*
X62035437Y-34997340D01*
X62035436Y-34997335D01*
X61984420Y-34844422D01*
X61982102Y-34837474D01*
X61889797Y-34688311D01*
X61765653Y-34564383D01*
X61616329Y-34472339D01*
X61569342Y-34456754D01*
X61456366Y-34419281D01*
X61456364Y-34419281D01*
X61449835Y-34417115D01*
X61346231Y-34406500D01*
X60843904Y-34406500D01*
X60333770Y-34406501D01*
X60228871Y-34417384D01*
X60222340Y-34419563D01*
X60222335Y-34419564D01*
X60074189Y-34468990D01*
X60062474Y-34472898D01*
X59913311Y-34565203D01*
X59789383Y-34689347D01*
X59785543Y-34695577D01*
X59785542Y-34695578D01*
X59777176Y-34709150D01*
X59697339Y-34838671D01*
X59695034Y-34845619D01*
X59695034Y-34845620D01*
X59645217Y-34995814D01*
X59642115Y-35005165D01*
X59631500Y-35108769D01*
X59631501Y-35268600D01*
X59631501Y-35310499D01*
X59611499Y-35378620D01*
X59557844Y-35425113D01*
X59505501Y-35436500D01*
X59253560Y-35436500D01*
X59185439Y-35416498D01*
X59138010Y-35360741D01*
X59127632Y-35336871D01*
X59127627Y-35336861D01*
X59125570Y-35332131D01*
X58999764Y-35137665D01*
X58977849Y-35113580D01*
X58939318Y-35071236D01*
X58843887Y-34966358D01*
X58839836Y-34963159D01*
X58839832Y-34963155D01*
X58666177Y-34826011D01*
X58666172Y-34826008D01*
X58662123Y-34822810D01*
X58657607Y-34820317D01*
X58657604Y-34820315D01*
X58463879Y-34713373D01*
X58463875Y-34713371D01*
X58459355Y-34710876D01*
X58454486Y-34709152D01*
X58454482Y-34709150D01*
X58245903Y-34635288D01*
X58245899Y-34635287D01*
X58241028Y-34633562D01*
X58235935Y-34632655D01*
X58235932Y-34632654D01*
X58018095Y-34593851D01*
X58018089Y-34593850D01*
X58013006Y-34592945D01*
X57940096Y-34592054D01*
X57786581Y-34590179D01*
X57786579Y-34590179D01*
X57781411Y-34590116D01*
X57552464Y-34625150D01*
X57332314Y-34697106D01*
X57327726Y-34699494D01*
X57327722Y-34699496D01*
X57165111Y-34784146D01*
X57126872Y-34804052D01*
X57122739Y-34807155D01*
X57122736Y-34807157D01*
X56945790Y-34940012D01*
X56941655Y-34943117D01*
X56938083Y-34946855D01*
X56794355Y-35097258D01*
X56781639Y-35110564D01*
X56778725Y-35114836D01*
X56778724Y-35114837D01*
X56714684Y-35208716D01*
X56651119Y-35301899D01*
X56553602Y-35511981D01*
X56491707Y-35735169D01*
X56467095Y-35965469D01*
X56467392Y-35970622D01*
X56467392Y-35970625D01*
X56475067Y-36103736D01*
X56480427Y-36196697D01*
X56481564Y-36201743D01*
X56481565Y-36201749D01*
X56509994Y-36327898D01*
X56531346Y-36422642D01*
X56533288Y-36427424D01*
X56533289Y-36427428D01*
X56615363Y-36629552D01*
X56618484Y-36637237D01*
X56739501Y-36834719D01*
X56891147Y-37009784D01*
X56895122Y-37013084D01*
X56895125Y-37013087D01*
X56969365Y-37074722D01*
X57009000Y-37133625D01*
X57010498Y-37204606D01*
X56973383Y-37265128D01*
X56954151Y-37279442D01*
X56821429Y-37359821D01*
X56809557Y-37369131D01*
X56699131Y-37479557D01*
X56689824Y-37491426D01*
X56608921Y-37625012D01*
X56602715Y-37638757D01*
X56555744Y-37788644D01*
X56553131Y-37801694D01*
X56547266Y-37865521D01*
X56547000Y-37871309D01*
X56547000Y-37927885D01*
X56551475Y-37943124D01*
X56552865Y-37944329D01*
X56560548Y-37946000D01*
X57530500Y-37946000D01*
X57598621Y-37966002D01*
X57645114Y-38019658D01*
X57656500Y-38072000D01*
X57656500Y-39868000D01*
X57636498Y-39936121D01*
X57582842Y-39982614D01*
X57530500Y-39994000D01*
X56565116Y-39994000D01*
X56549877Y-39998475D01*
X56548672Y-39999865D01*
X56547001Y-40007548D01*
X56547001Y-40068705D01*
X56547264Y-40074454D01*
X56553743Y-40144970D01*
X56551936Y-40145136D01*
X56546486Y-40206976D01*
X56503007Y-40263102D01*
X56429173Y-40287001D01*
X56317905Y-40287001D01*
X56311386Y-40287338D01*
X56215794Y-40297257D01*
X56202400Y-40300149D01*
X56048216Y-40351588D01*
X56035038Y-40357761D01*
X55897193Y-40443063D01*
X55885792Y-40452099D01*
X55789517Y-40548541D01*
X55727234Y-40582620D01*
X55656414Y-40577617D01*
X55647545Y-40573387D01*
X55647496Y-40573500D01*
X55625793Y-40564108D01*
X55479935Y-40521731D01*
X55467333Y-40519430D01*
X55438916Y-40517193D01*
X55433986Y-40517000D01*
X54992115Y-40517000D01*
X54976876Y-40521475D01*
X54975671Y-40522865D01*
X54974000Y-40530548D01*
X54974000Y-41052885D01*
X54978475Y-41068124D01*
X54979865Y-41069329D01*
X54987548Y-41071000D01*
X55951102Y-41071000D01*
X56019223Y-41091002D01*
X56065716Y-41144658D01*
X56071998Y-41161501D01*
X56072475Y-41163124D01*
X56073865Y-41164329D01*
X56081548Y-41166000D01*
X57118000Y-41166000D01*
X57186121Y-41186002D01*
X57232614Y-41239658D01*
X57244000Y-41292000D01*
X57244000Y-42534884D01*
X57248475Y-42550123D01*
X57249865Y-42551328D01*
X57257548Y-42552999D01*
X57380500Y-42552999D01*
X57448621Y-42573001D01*
X57495114Y-42626657D01*
X57506500Y-42678999D01*
X57506500Y-42960500D01*
X57486498Y-43028621D01*
X57432842Y-43075114D01*
X57380500Y-43086500D01*
X56314600Y-43086500D01*
X56311354Y-43086837D01*
X56311350Y-43086837D01*
X56215692Y-43096762D01*
X56215688Y-43096763D01*
X56208834Y-43097474D01*
X56202301Y-43099654D01*
X56202290Y-43099656D01*
X56153226Y-43116026D01*
X56082276Y-43118612D01*
X56021192Y-43082428D01*
X55989367Y-43018964D01*
X55992352Y-42961350D01*
X56019939Y-42866396D01*
X56019899Y-42852294D01*
X56012630Y-42849000D01*
X54592000Y-42849000D01*
X54523879Y-42828998D01*
X54477386Y-42775342D01*
X54466000Y-42723000D01*
X54466000Y-42322885D01*
X54974000Y-42322885D01*
X54978475Y-42338124D01*
X54979865Y-42339329D01*
X54987548Y-42341000D01*
X55942000Y-42341000D01*
X56010121Y-42361002D01*
X56056614Y-42414658D01*
X56068000Y-42467000D01*
X56068000Y-42477009D01*
X56072475Y-42492248D01*
X56080628Y-42499312D01*
X56203710Y-42540138D01*
X56217086Y-42543005D01*
X56311438Y-42552672D01*
X56317854Y-42553000D01*
X56717885Y-42553000D01*
X56733124Y-42548525D01*
X56734329Y-42547135D01*
X56736000Y-42539452D01*
X56736000Y-41692115D01*
X56731525Y-41676876D01*
X56730135Y-41675671D01*
X56722452Y-41674000D01*
X55683898Y-41674000D01*
X55615777Y-41653998D01*
X55569284Y-41600342D01*
X55563002Y-41583499D01*
X55562525Y-41581876D01*
X55561135Y-41580671D01*
X55553452Y-41579000D01*
X54992115Y-41579000D01*
X54976876Y-41583475D01*
X54975671Y-41584865D01*
X54974000Y-41592548D01*
X54974000Y-42322885D01*
X54466000Y-42322885D01*
X54466000Y-40535116D01*
X54461525Y-40519877D01*
X54460135Y-40518672D01*
X54452452Y-40517001D01*
X54006017Y-40517001D01*
X54001080Y-40517195D01*
X53972664Y-40519430D01*
X53960069Y-40521730D01*
X53839354Y-40556802D01*
X53768357Y-40556599D01*
X53708741Y-40518046D01*
X53679432Y-40453381D01*
X53678200Y-40435805D01*
X53678200Y-39467885D01*
X56547000Y-39467885D01*
X56551475Y-39483124D01*
X56552865Y-39484329D01*
X56560548Y-39486000D01*
X57182885Y-39486000D01*
X57198124Y-39481525D01*
X57199329Y-39480135D01*
X57201000Y-39472452D01*
X57201000Y-38472115D01*
X57196525Y-38456876D01*
X57195135Y-38455671D01*
X57187452Y-38454000D01*
X56565116Y-38454000D01*
X56549877Y-38458475D01*
X56548672Y-38459865D01*
X56547001Y-38467548D01*
X56547001Y-38528705D01*
X56547264Y-38534454D01*
X56553132Y-38598315D01*
X56555743Y-38611351D01*
X56602715Y-38761243D01*
X56608921Y-38774988D01*
X56687495Y-38904728D01*
X56705674Y-38973358D01*
X56687495Y-39035272D01*
X56608921Y-39165012D01*
X56602715Y-39178757D01*
X56555744Y-39328644D01*
X56553131Y-39341694D01*
X56547266Y-39405521D01*
X56547000Y-39411309D01*
X56547000Y-39467885D01*
X53678200Y-39467885D01*
X53678200Y-36823747D01*
X53698202Y-36755626D01*
X53718880Y-36732794D01*
X53718255Y-36732171D01*
X53743441Y-36706941D01*
X53805723Y-36672862D01*
X53876543Y-36677865D01*
X53921632Y-36706786D01*
X53942280Y-36727398D01*
X53953691Y-36736410D01*
X54085491Y-36817653D01*
X54098668Y-36823797D01*
X54246043Y-36872679D01*
X54259410Y-36875545D01*
X54348900Y-36884714D01*
X54362824Y-36880625D01*
X54364029Y-36879235D01*
X54365700Y-36871552D01*
X54365700Y-36866985D01*
X54873700Y-36866985D01*
X54878175Y-36882224D01*
X54879565Y-36883429D01*
X54886521Y-36884942D01*
X54889982Y-36884763D01*
X54981221Y-36875296D01*
X54994617Y-36872403D01*
X55141887Y-36823270D01*
X55155066Y-36817096D01*
X55286714Y-36735630D01*
X55298115Y-36726594D01*
X55407498Y-36617020D01*
X55416510Y-36605609D01*
X55497753Y-36473809D01*
X55503897Y-36460632D01*
X55552779Y-36313257D01*
X55555645Y-36299890D01*
X55564872Y-36209830D01*
X55565200Y-36203415D01*
X55565200Y-36174215D01*
X55560725Y-36158976D01*
X55559335Y-36157771D01*
X55551652Y-36156100D01*
X54891815Y-36156100D01*
X54876576Y-36160575D01*
X54875371Y-36161965D01*
X54873700Y-36169648D01*
X54873700Y-36866985D01*
X54365700Y-36866985D01*
X54365700Y-35629985D01*
X54873700Y-35629985D01*
X54878175Y-35645224D01*
X54879565Y-35646429D01*
X54887248Y-35648100D01*
X55547085Y-35648100D01*
X55562324Y-35643625D01*
X55563529Y-35642235D01*
X55565200Y-35634552D01*
X55565200Y-35600834D01*
X55564863Y-35594318D01*
X55555396Y-35503079D01*
X55552503Y-35489683D01*
X55503370Y-35342413D01*
X55497196Y-35329234D01*
X55415730Y-35197586D01*
X55406694Y-35186185D01*
X55297120Y-35076802D01*
X55285709Y-35067790D01*
X55153909Y-34986547D01*
X55140732Y-34980403D01*
X54993357Y-34931521D01*
X54979990Y-34928655D01*
X54890500Y-34919486D01*
X54876576Y-34923575D01*
X54875371Y-34924965D01*
X54873700Y-34932648D01*
X54873700Y-35629985D01*
X54365700Y-35629985D01*
X54365700Y-34937215D01*
X54361225Y-34921976D01*
X54359835Y-34920771D01*
X54352879Y-34919258D01*
X54349418Y-34919437D01*
X54258179Y-34928904D01*
X54244783Y-34931797D01*
X54097513Y-34980930D01*
X54084334Y-34987104D01*
X53952686Y-35068570D01*
X53941285Y-35077606D01*
X53921667Y-35097258D01*
X53859384Y-35131337D01*
X53788564Y-35126334D01*
X53743477Y-35097414D01*
X53722434Y-35076408D01*
X53717253Y-35071236D01*
X53572892Y-34982251D01*
X53554064Y-34976006D01*
X53418462Y-34931028D01*
X53418460Y-34931028D01*
X53411931Y-34928862D01*
X53311772Y-34918600D01*
X52777628Y-34918600D01*
X52774382Y-34918937D01*
X52774378Y-34918937D01*
X52745090Y-34921976D01*
X52676218Y-34929122D01*
X52515351Y-34982792D01*
X52371145Y-35072029D01*
X52251336Y-35192047D01*
X52247496Y-35198277D01*
X52247495Y-35198278D01*
X52241061Y-35208716D01*
X52188288Y-35256210D01*
X52133801Y-35268600D01*
X50487827Y-35268600D01*
X50419706Y-35248598D01*
X50394633Y-35227400D01*
X50291062Y-35113577D01*
X50287587Y-35109758D01*
X50194646Y-35036358D01*
X50109877Y-34969411D01*
X50109872Y-34969408D01*
X50105823Y-34966210D01*
X50101307Y-34963717D01*
X50101304Y-34963715D01*
X49907579Y-34856773D01*
X49907575Y-34856771D01*
X49903055Y-34854276D01*
X49898186Y-34852552D01*
X49898182Y-34852550D01*
X49689603Y-34778688D01*
X49689599Y-34778687D01*
X49684728Y-34776962D01*
X49679635Y-34776055D01*
X49679632Y-34776054D01*
X49461795Y-34737251D01*
X49461789Y-34737250D01*
X49456706Y-34736345D01*
X49383796Y-34735454D01*
X49230281Y-34733579D01*
X49230279Y-34733579D01*
X49225111Y-34733516D01*
X48996164Y-34768550D01*
X48776014Y-34840506D01*
X48771426Y-34842894D01*
X48771422Y-34842896D01*
X48602122Y-34931028D01*
X48570572Y-34947452D01*
X48566439Y-34950555D01*
X48566436Y-34950557D01*
X48397223Y-35077606D01*
X48385355Y-35086517D01*
X48376306Y-35095986D01*
X48244751Y-35233651D01*
X48225339Y-35253964D01*
X48094819Y-35445299D01*
X47997302Y-35655381D01*
X47935407Y-35878569D01*
X47910795Y-36108869D01*
X47911092Y-36114022D01*
X47911092Y-36114025D01*
X47919895Y-36266697D01*
X47924127Y-36340097D01*
X47925264Y-36345143D01*
X47925265Y-36345149D01*
X47949797Y-36454002D01*
X47975046Y-36566042D01*
X47976988Y-36570824D01*
X47976989Y-36570828D01*
X48060240Y-36775850D01*
X48062184Y-36780637D01*
X48183201Y-36978119D01*
X48334847Y-37153184D01*
X48513049Y-37301130D01*
X48713022Y-37417984D01*
X48717847Y-37419826D01*
X48717848Y-37419827D01*
X48792365Y-37448283D01*
X48929394Y-37500609D01*
X48934460Y-37501640D01*
X48934461Y-37501640D01*
X48987546Y-37512440D01*
X49156356Y-37546785D01*
X49287024Y-37551576D01*
X49382649Y-37555083D01*
X49382653Y-37555083D01*
X49387813Y-37555272D01*
X49392933Y-37554616D01*
X49392935Y-37554616D01*
X49465970Y-37545260D01*
X49617547Y-37525842D01*
X49622495Y-37524357D01*
X49622502Y-37524356D01*
X49834447Y-37460769D01*
X49839390Y-37459286D01*
X49844024Y-37457016D01*
X50042749Y-37359662D01*
X50042752Y-37359660D01*
X50047384Y-37357391D01*
X50235943Y-37222894D01*
X50400003Y-37059405D01*
X50420342Y-37031101D01*
X50466413Y-36966986D01*
X50535158Y-36871317D01*
X50543898Y-36853634D01*
X50613071Y-36713671D01*
X50637778Y-36663680D01*
X50645882Y-36637006D01*
X50649539Y-36624971D01*
X50688480Y-36565607D01*
X50753335Y-36536720D01*
X50770097Y-36535600D01*
X52133934Y-36535600D01*
X52202055Y-36555602D01*
X52241079Y-36595298D01*
X52252129Y-36613155D01*
X52257310Y-36618327D01*
X52372147Y-36732964D01*
X52370318Y-36734796D01*
X52404360Y-36782823D01*
X52411200Y-36823773D01*
X52411200Y-42425933D01*
X52410673Y-42437116D01*
X52408998Y-42444609D01*
X52409247Y-42452535D01*
X52409247Y-42452536D01*
X52411138Y-42512686D01*
X52411200Y-42516645D01*
X52411200Y-42544556D01*
X52411697Y-42548490D01*
X52411697Y-42548491D01*
X52411705Y-42548556D01*
X52412638Y-42560393D01*
X52414027Y-42604589D01*
X52419678Y-42624039D01*
X52423687Y-42643400D01*
X52426226Y-42663497D01*
X52429145Y-42670868D01*
X52429145Y-42670870D01*
X52442504Y-42704612D01*
X52446349Y-42715842D01*
X52451272Y-42732788D01*
X52458682Y-42758293D01*
X52462715Y-42765112D01*
X52462717Y-42765117D01*
X52468993Y-42775728D01*
X52477688Y-42793476D01*
X52485148Y-42812317D01*
X52489810Y-42818733D01*
X52489810Y-42818734D01*
X52511136Y-42848087D01*
X52517652Y-42858007D01*
X52525589Y-42871427D01*
X52540158Y-42896062D01*
X52554479Y-42910383D01*
X52567319Y-42925416D01*
X52579228Y-42941807D01*
X52613305Y-42969998D01*
X52622084Y-42977988D01*
X53374595Y-43730499D01*
X53408621Y-43792811D01*
X53411500Y-43819594D01*
X53411500Y-44081502D01*
X53411693Y-44083950D01*
X53411693Y-44083958D01*
X53413814Y-44110898D01*
X53414438Y-44118831D01*
X53460855Y-44278601D01*
X53545547Y-44421807D01*
X53548229Y-44424489D01*
X53573502Y-44488861D01*
X53559600Y-44558484D01*
X53549428Y-44574312D01*
X53545547Y-44578193D01*
X53460855Y-44721399D01*
X53458644Y-44729010D01*
X53458643Y-44729012D01*
X53447572Y-44767120D01*
X53414438Y-44881169D01*
X53413934Y-44887574D01*
X53413933Y-44887579D01*
X53413146Y-44897579D01*
X53411500Y-44918498D01*
X53411500Y-45293654D01*
X53391498Y-45361775D01*
X53374595Y-45382749D01*
X52677747Y-46079597D01*
X52669461Y-46087137D01*
X52662982Y-46091249D01*
X52657557Y-46097026D01*
X52616357Y-46140900D01*
X52613602Y-46143742D01*
X52593865Y-46163479D01*
X52591385Y-46166676D01*
X52583682Y-46175696D01*
X52553414Y-46207928D01*
X52549595Y-46214874D01*
X52549593Y-46214877D01*
X52543652Y-46225683D01*
X52532801Y-46242202D01*
X52520386Y-46258208D01*
X52517241Y-46265477D01*
X52517238Y-46265481D01*
X52502826Y-46298786D01*
X52497609Y-46309436D01*
X52476305Y-46348189D01*
X52474334Y-46355864D01*
X52474334Y-46355865D01*
X52471267Y-46367811D01*
X52464863Y-46386515D01*
X52456819Y-46405104D01*
X52455580Y-46412927D01*
X52455577Y-46412937D01*
X52449901Y-46448773D01*
X52447495Y-46460393D01*
X52436500Y-46503219D01*
X52436500Y-46523473D01*
X52434949Y-46543183D01*
X52431780Y-46563192D01*
X52432526Y-46571084D01*
X52435941Y-46607210D01*
X52436500Y-46619068D01*
X52436500Y-50405406D01*
X52416498Y-50473527D01*
X52399595Y-50494501D01*
X51734261Y-51159834D01*
X51077747Y-51816348D01*
X51069461Y-51823888D01*
X51062982Y-51828000D01*
X51057557Y-51833777D01*
X51016357Y-51877651D01*
X51013602Y-51880493D01*
X50993865Y-51900230D01*
X50991385Y-51903427D01*
X50983682Y-51912447D01*
X50953414Y-51944679D01*
X50949595Y-51951625D01*
X50949593Y-51951628D01*
X50943652Y-51962434D01*
X50932801Y-51978953D01*
X50920386Y-51994959D01*
X50917241Y-52002228D01*
X50917238Y-52002232D01*
X50902826Y-52035537D01*
X50897609Y-52046187D01*
X50876305Y-52084940D01*
X50874334Y-52092615D01*
X50874334Y-52092616D01*
X50871267Y-52104562D01*
X50864863Y-52123266D01*
X50856819Y-52141855D01*
X50855580Y-52149678D01*
X50855577Y-52149688D01*
X50849901Y-52185524D01*
X50847495Y-52197144D01*
X50836500Y-52239970D01*
X50836500Y-52260224D01*
X50834949Y-52279934D01*
X50831780Y-52299943D01*
X50832526Y-52307835D01*
X50835941Y-52343961D01*
X50836500Y-52355819D01*
X50836500Y-53635692D01*
X50816498Y-53703813D01*
X50768683Y-53747453D01*
X50743607Y-53760507D01*
X50739474Y-53763610D01*
X50739471Y-53763612D01*
X50715247Y-53781800D01*
X50630172Y-53845676D01*
X50563688Y-53870582D01*
X50494293Y-53855590D01*
X50444019Y-53805459D01*
X50428520Y-53744916D01*
X50428520Y-45951787D01*
X50429047Y-45940604D01*
X50430722Y-45933111D01*
X50429962Y-45908914D01*
X50428582Y-45865034D01*
X50428520Y-45861075D01*
X50428520Y-45833164D01*
X50428015Y-45829164D01*
X50427082Y-45817321D01*
X50425942Y-45781049D01*
X50425693Y-45773130D01*
X50420042Y-45753678D01*
X50416034Y-45734326D01*
X50414487Y-45722083D01*
X50413494Y-45714223D01*
X50410321Y-45706209D01*
X50397220Y-45673117D01*
X50393375Y-45661890D01*
X50387047Y-45640110D01*
X50381038Y-45619427D01*
X50377004Y-45612605D01*
X50377001Y-45612599D01*
X50370726Y-45601988D01*
X50362030Y-45584238D01*
X50357492Y-45572776D01*
X50357489Y-45572771D01*
X50354572Y-45565403D01*
X50328593Y-45529645D01*
X50322077Y-45519727D01*
X50303595Y-45488477D01*
X50299562Y-45481657D01*
X50285238Y-45467333D01*
X50272396Y-45452298D01*
X50271817Y-45451501D01*
X50260492Y-45435913D01*
X50226426Y-45407731D01*
X50217647Y-45399742D01*
X50195515Y-45377610D01*
X50188970Y-45370395D01*
X50185265Y-45364517D01*
X50179462Y-45359033D01*
X50147702Y-45329021D01*
X50141117Y-45322316D01*
X50111649Y-45289984D01*
X50106310Y-45284126D01*
X50095647Y-45277133D01*
X50078206Y-45263353D01*
X49512996Y-44729263D01*
X49512428Y-44728656D01*
X49512000Y-44727982D01*
X49510320Y-44726405D01*
X49510315Y-44726399D01*
X49459939Y-44679093D01*
X49437738Y-44651383D01*
X49400367Y-44588193D01*
X49394453Y-44578193D01*
X49391774Y-44575514D01*
X49366499Y-44511143D01*
X49380398Y-44441520D01*
X49390572Y-44425688D01*
X49394453Y-44421807D01*
X49479145Y-44278601D01*
X49525562Y-44118831D01*
X49526187Y-44110898D01*
X49528307Y-44083958D01*
X49528307Y-44083950D01*
X49528500Y-44081502D01*
X49528500Y-43648498D01*
X49527243Y-43632522D01*
X49526067Y-43617579D01*
X49526066Y-43617574D01*
X49525562Y-43611169D01*
X49479145Y-43451399D01*
X49394453Y-43308193D01*
X49391771Y-43305511D01*
X49366498Y-43241139D01*
X49380400Y-43171516D01*
X49390572Y-43155688D01*
X49394453Y-43151807D01*
X49479145Y-43008601D01*
X49481876Y-42999203D01*
X49502191Y-42929276D01*
X49525562Y-42848831D01*
X49527763Y-42820874D01*
X49528307Y-42813958D01*
X49528307Y-42813950D01*
X49528500Y-42811502D01*
X49528500Y-42378498D01*
X49527123Y-42361002D01*
X49526067Y-42347579D01*
X49526066Y-42347574D01*
X49525562Y-42341169D01*
X49493377Y-42230386D01*
X49481357Y-42189012D01*
X49481356Y-42189010D01*
X49479145Y-42181399D01*
X49394453Y-42038193D01*
X49391771Y-42035511D01*
X49366498Y-41971139D01*
X49380400Y-41901516D01*
X49390572Y-41885688D01*
X49394453Y-41881807D01*
X49479145Y-41738601D01*
X49525562Y-41578831D01*
X49528500Y-41541502D01*
X49528500Y-41108498D01*
X49526854Y-41087579D01*
X49526067Y-41077579D01*
X49526066Y-41077574D01*
X49525562Y-41071169D01*
X49479145Y-40911399D01*
X49456660Y-40873379D01*
X49398491Y-40775020D01*
X49398489Y-40775017D01*
X49394453Y-40768193D01*
X49276807Y-40650547D01*
X49269983Y-40646511D01*
X49269980Y-40646509D01*
X49140427Y-40569892D01*
X49140428Y-40569892D01*
X49133601Y-40565855D01*
X49125990Y-40563644D01*
X49125988Y-40563643D01*
X49073769Y-40548472D01*
X48973831Y-40519438D01*
X48967426Y-40518934D01*
X48967421Y-40518933D01*
X48938958Y-40516693D01*
X48938950Y-40516693D01*
X48936502Y-40516500D01*
X48680318Y-40516500D01*
X48617343Y-40499626D01*
X48612052Y-40495782D01*
X48566626Y-40475557D01*
X48443619Y-40420791D01*
X48443618Y-40420791D01*
X48437588Y-40418106D01*
X48320279Y-40393171D01*
X48257244Y-40379772D01*
X48257239Y-40379772D01*
X48250787Y-40378400D01*
X48059813Y-40378400D01*
X48053361Y-40379772D01*
X48053356Y-40379772D01*
X47990321Y-40393171D01*
X47873012Y-40418106D01*
X47866982Y-40420791D01*
X47866981Y-40420791D01*
X47743974Y-40475557D01*
X47698548Y-40495782D01*
X47693257Y-40499626D01*
X47630282Y-40516500D01*
X47503498Y-40516500D01*
X47501050Y-40516693D01*
X47501042Y-40516693D01*
X47472579Y-40518933D01*
X47472574Y-40518934D01*
X47466169Y-40519438D01*
X47366231Y-40548472D01*
X47314012Y-40563643D01*
X47314010Y-40563644D01*
X47306399Y-40565855D01*
X47214423Y-40620249D01*
X47145609Y-40637708D01*
X47078277Y-40615191D01*
X47043142Y-40578098D01*
X46981937Y-40479193D01*
X46972901Y-40467792D01*
X46858171Y-40353261D01*
X46846760Y-40344249D01*
X46708757Y-40259184D01*
X46695576Y-40253037D01*
X46541290Y-40201862D01*
X46527914Y-40198995D01*
X46433562Y-40189328D01*
X46427145Y-40189000D01*
X46027115Y-40189000D01*
X46011876Y-40193475D01*
X46010671Y-40194865D01*
X46009000Y-40202548D01*
X46009000Y-42436884D01*
X46013475Y-42452123D01*
X46014865Y-42453328D01*
X46022548Y-42454999D01*
X46427095Y-42454999D01*
X46433614Y-42454662D01*
X46529206Y-42444743D01*
X46542600Y-42441851D01*
X46696784Y-42390412D01*
X46709963Y-42384238D01*
X46719197Y-42378524D01*
X46787649Y-42359686D01*
X46855419Y-42380847D01*
X46900990Y-42435288D01*
X46911500Y-42485668D01*
X46911500Y-42811502D01*
X46911693Y-42813950D01*
X46911693Y-42813958D01*
X46912238Y-42820874D01*
X46914438Y-42848831D01*
X46916232Y-42855007D01*
X46916233Y-42855011D01*
X46942324Y-42944818D01*
X46942121Y-43015814D01*
X46903567Y-43075430D01*
X46838902Y-43104738D01*
X46768657Y-43094433D01*
X46755211Y-43087230D01*
X46754574Y-43086837D01*
X46735333Y-43074977D01*
X46708968Y-43058725D01*
X46708966Y-43058724D01*
X46702738Y-43054885D01*
X46594439Y-43018964D01*
X46541389Y-43001368D01*
X46541387Y-43001368D01*
X46534861Y-42999203D01*
X46528025Y-42998503D01*
X46528022Y-42998502D01*
X46484969Y-42994091D01*
X46430400Y-42988500D01*
X45079600Y-42988500D01*
X45076354Y-42988837D01*
X45076350Y-42988837D01*
X44980692Y-42998762D01*
X44980688Y-42998763D01*
X44973834Y-42999474D01*
X44967298Y-43001655D01*
X44967296Y-43001655D01*
X44886470Y-43028621D01*
X44806054Y-43055450D01*
X44754359Y-43087440D01*
X44685910Y-43106277D01*
X44618140Y-43085116D01*
X44572569Y-43030675D01*
X44563664Y-42960239D01*
X44567061Y-42945142D01*
X44589939Y-42866396D01*
X44589899Y-42852294D01*
X44582630Y-42849000D01*
X43162000Y-42849000D01*
X43093879Y-42828998D01*
X43047386Y-42775342D01*
X43036000Y-42723000D01*
X43036000Y-42322885D01*
X43544000Y-42322885D01*
X43548475Y-42338124D01*
X43549865Y-42339329D01*
X43557548Y-42341000D01*
X44576876Y-42341000D01*
X44626857Y-42326324D01*
X44697854Y-42326324D01*
X44728472Y-42339960D01*
X44801243Y-42384816D01*
X44814424Y-42390963D01*
X44968710Y-42442138D01*
X44982086Y-42445005D01*
X45076438Y-42454672D01*
X45082854Y-42455000D01*
X45482885Y-42455000D01*
X45498124Y-42450525D01*
X45499329Y-42449135D01*
X45501000Y-42441452D01*
X45501000Y-41594115D01*
X45496525Y-41578876D01*
X45495135Y-41577671D01*
X45487452Y-41576000D01*
X44648648Y-41576000D01*
X44627783Y-41579000D01*
X43562115Y-41579000D01*
X43546876Y-41583475D01*
X43545671Y-41584865D01*
X43544000Y-41592548D01*
X43544000Y-42322885D01*
X43036000Y-42322885D01*
X43036000Y-41052885D01*
X43544000Y-41052885D01*
X43548475Y-41068124D01*
X43549865Y-41069329D01*
X43557548Y-41071000D01*
X44321352Y-41071000D01*
X44342217Y-41068000D01*
X45482885Y-41068000D01*
X45498124Y-41063525D01*
X45499329Y-41062135D01*
X45501000Y-41054452D01*
X45501000Y-40207116D01*
X45496525Y-40191877D01*
X45495135Y-40190672D01*
X45487452Y-40189001D01*
X45082905Y-40189001D01*
X45076386Y-40189338D01*
X44980794Y-40199257D01*
X44967400Y-40202149D01*
X44813216Y-40253588D01*
X44800038Y-40259761D01*
X44662193Y-40345063D01*
X44650792Y-40354099D01*
X44536261Y-40468829D01*
X44527249Y-40480240D01*
X44466763Y-40578367D01*
X44413991Y-40625860D01*
X44343919Y-40637284D01*
X44295364Y-40620705D01*
X44210221Y-40570352D01*
X44195790Y-40564107D01*
X44049935Y-40521731D01*
X44037333Y-40519430D01*
X44008916Y-40517193D01*
X44003986Y-40517000D01*
X43562115Y-40517000D01*
X43546876Y-40521475D01*
X43545671Y-40522865D01*
X43544000Y-40530548D01*
X43544000Y-41052885D01*
X43036000Y-41052885D01*
X43036000Y-40535116D01*
X43031525Y-40519877D01*
X43030135Y-40518672D01*
X43022452Y-40517001D01*
X42577300Y-40517001D01*
X42509179Y-40496999D01*
X42462686Y-40443343D01*
X42451300Y-40391001D01*
X42451300Y-36722147D01*
X42471302Y-36654026D01*
X42491980Y-36631194D01*
X42491355Y-36630571D01*
X42514955Y-36606930D01*
X42516541Y-36605341D01*
X42578823Y-36571262D01*
X42649643Y-36576265D01*
X42694732Y-36605186D01*
X42715380Y-36625798D01*
X42726791Y-36634810D01*
X42858591Y-36716053D01*
X42871768Y-36722197D01*
X43019143Y-36771079D01*
X43032510Y-36773945D01*
X43122000Y-36783114D01*
X43135924Y-36779025D01*
X43137129Y-36777635D01*
X43138800Y-36769952D01*
X43138800Y-36765385D01*
X43646800Y-36765385D01*
X43651275Y-36780624D01*
X43652665Y-36781829D01*
X43659621Y-36783342D01*
X43663082Y-36783163D01*
X43754321Y-36773696D01*
X43767717Y-36770803D01*
X43914987Y-36721670D01*
X43928166Y-36715496D01*
X44059814Y-36634030D01*
X44071215Y-36624994D01*
X44180598Y-36515420D01*
X44189610Y-36504009D01*
X44270853Y-36372209D01*
X44276997Y-36359032D01*
X44325879Y-36211657D01*
X44328745Y-36198290D01*
X44337972Y-36108230D01*
X44338300Y-36101815D01*
X44338300Y-36072615D01*
X44333825Y-36057376D01*
X44332435Y-36056171D01*
X44324752Y-36054500D01*
X43664915Y-36054500D01*
X43649676Y-36058975D01*
X43648471Y-36060365D01*
X43646800Y-36068048D01*
X43646800Y-36765385D01*
X43138800Y-36765385D01*
X43138800Y-35528385D01*
X43646800Y-35528385D01*
X43651275Y-35543624D01*
X43652665Y-35544829D01*
X43660348Y-35546500D01*
X44320185Y-35546500D01*
X44335424Y-35542025D01*
X44336629Y-35540635D01*
X44338300Y-35532952D01*
X44338300Y-35499234D01*
X44337963Y-35492718D01*
X44328496Y-35401479D01*
X44325603Y-35388083D01*
X44276470Y-35240813D01*
X44270296Y-35227634D01*
X44188830Y-35095986D01*
X44179794Y-35084585D01*
X44070220Y-34975202D01*
X44058809Y-34966190D01*
X43927009Y-34884947D01*
X43913832Y-34878803D01*
X43766457Y-34829921D01*
X43753090Y-34827055D01*
X43663600Y-34817886D01*
X43649676Y-34821975D01*
X43648471Y-34823365D01*
X43646800Y-34831048D01*
X43646800Y-35528385D01*
X43138800Y-35528385D01*
X43138800Y-34835615D01*
X43134325Y-34820376D01*
X43132935Y-34819171D01*
X43125979Y-34817658D01*
X43122518Y-34817837D01*
X43031279Y-34827304D01*
X43017883Y-34830197D01*
X42870613Y-34879330D01*
X42857434Y-34885504D01*
X42725786Y-34966970D01*
X42714385Y-34976006D01*
X42694767Y-34995658D01*
X42632484Y-35029737D01*
X42561664Y-35024734D01*
X42516577Y-34995814D01*
X42495534Y-34974808D01*
X42490353Y-34969636D01*
X42480748Y-34963715D01*
X42430347Y-34932648D01*
X42345992Y-34880651D01*
X42325699Y-34873920D01*
X42191562Y-34829428D01*
X42191560Y-34829428D01*
X42185031Y-34827262D01*
X42084872Y-34817000D01*
X41550728Y-34817000D01*
X41547482Y-34817337D01*
X41547478Y-34817337D01*
X41518778Y-34820315D01*
X41449318Y-34827522D01*
X41288451Y-34881192D01*
X41144245Y-34970429D01*
X41024436Y-35090447D01*
X41020596Y-35096677D01*
X41020595Y-35096678D01*
X41014161Y-35107116D01*
X40961388Y-35154610D01*
X40906901Y-35167000D01*
X39447977Y-35167000D01*
X39379856Y-35146998D01*
X39354783Y-35125799D01*
X39343665Y-35113580D01*
X39343662Y-35113577D01*
X39340187Y-35109758D01*
X39336133Y-35106556D01*
X39336132Y-35106555D01*
X39162477Y-34969411D01*
X39162472Y-34969408D01*
X39158423Y-34966210D01*
X39153907Y-34963717D01*
X39153904Y-34963715D01*
X38960179Y-34856773D01*
X38960175Y-34856771D01*
X38955655Y-34854276D01*
X38950786Y-34852552D01*
X38950782Y-34852550D01*
X38742203Y-34778688D01*
X38742199Y-34778687D01*
X38737328Y-34776962D01*
X38732235Y-34776055D01*
X38732232Y-34776054D01*
X38514395Y-34737251D01*
X38514389Y-34737250D01*
X38509306Y-34736345D01*
X38436396Y-34735454D01*
X38282881Y-34733579D01*
X38282879Y-34733579D01*
X38277711Y-34733516D01*
X38048764Y-34768550D01*
X37828614Y-34840506D01*
X37824026Y-34842894D01*
X37824022Y-34842896D01*
X37654722Y-34931028D01*
X37623172Y-34947452D01*
X37619039Y-34950555D01*
X37619036Y-34950557D01*
X37449823Y-35077606D01*
X37437955Y-35086517D01*
X37428906Y-35095986D01*
X37297351Y-35233651D01*
X37277939Y-35253964D01*
X37147419Y-35445299D01*
X37049902Y-35655381D01*
X36988007Y-35878569D01*
X36963395Y-36108869D01*
X36963692Y-36114022D01*
X36963692Y-36114025D01*
X36972495Y-36266697D01*
X36976727Y-36340097D01*
X36977864Y-36345143D01*
X36977865Y-36345149D01*
X37002397Y-36454002D01*
X37027646Y-36566042D01*
X37029588Y-36570824D01*
X37029589Y-36570828D01*
X37112840Y-36775850D01*
X37114784Y-36780637D01*
X37235801Y-36978119D01*
X37387447Y-37153184D01*
X37565649Y-37301130D01*
X37765622Y-37417984D01*
X37770447Y-37419826D01*
X37770448Y-37419827D01*
X37844965Y-37448283D01*
X37981994Y-37500609D01*
X37987060Y-37501640D01*
X37987061Y-37501640D01*
X38040146Y-37512440D01*
X38208956Y-37546785D01*
X38339624Y-37551576D01*
X38435249Y-37555083D01*
X38435253Y-37555083D01*
X38440413Y-37555272D01*
X38445533Y-37554616D01*
X38445535Y-37554616D01*
X38518570Y-37545260D01*
X38670147Y-37525842D01*
X38675095Y-37524357D01*
X38675102Y-37524356D01*
X38887047Y-37460769D01*
X38891990Y-37459286D01*
X38896624Y-37457016D01*
X39095349Y-37359662D01*
X39095352Y-37359660D01*
X39099984Y-37357391D01*
X39288543Y-37222894D01*
X39452603Y-37059405D01*
X39472942Y-37031101D01*
X39519013Y-36966986D01*
X39587758Y-36871317D01*
X39596498Y-36853634D01*
X39688084Y-36668322D01*
X39688085Y-36668320D01*
X39690378Y-36663680D01*
X39692706Y-36656018D01*
X39733008Y-36523371D01*
X39771949Y-36464007D01*
X39836803Y-36435120D01*
X39853566Y-36434000D01*
X40907034Y-36434000D01*
X40975155Y-36454002D01*
X41014179Y-36493698D01*
X41025229Y-36511555D01*
X41030410Y-36516727D01*
X41145247Y-36631364D01*
X41143418Y-36633196D01*
X41177460Y-36681223D01*
X41184300Y-36722173D01*
X41184300Y-43925733D01*
X41183773Y-43936916D01*
X41182098Y-43944409D01*
X41182347Y-43952335D01*
X41182347Y-43952336D01*
X41184238Y-44012486D01*
X41184300Y-44016445D01*
X41184300Y-44044356D01*
X41184797Y-44048290D01*
X41184797Y-44048291D01*
X41184805Y-44048356D01*
X41185738Y-44060193D01*
X41187127Y-44104389D01*
X41191323Y-44118831D01*
X41192778Y-44123839D01*
X41196787Y-44143200D01*
X41199326Y-44163297D01*
X41202245Y-44170668D01*
X41202245Y-44170670D01*
X41215604Y-44204412D01*
X41219449Y-44215642D01*
X41231782Y-44258093D01*
X41235815Y-44264912D01*
X41235817Y-44264917D01*
X41242093Y-44275528D01*
X41250788Y-44293276D01*
X41258248Y-44312117D01*
X41262910Y-44318533D01*
X41262910Y-44318534D01*
X41284236Y-44347887D01*
X41290752Y-44357807D01*
X41298109Y-44370246D01*
X41313258Y-44395862D01*
X41327579Y-44410183D01*
X41340419Y-44425216D01*
X41352328Y-44441607D01*
X41358434Y-44446658D01*
X41386405Y-44469798D01*
X41395184Y-44477788D01*
X41474643Y-44557247D01*
X41482187Y-44565537D01*
X41486300Y-44572018D01*
X41492077Y-44577443D01*
X41535967Y-44618658D01*
X41538809Y-44621413D01*
X41558530Y-44641134D01*
X41561725Y-44643612D01*
X41570747Y-44651318D01*
X41602979Y-44681586D01*
X41609928Y-44685406D01*
X41620732Y-44691346D01*
X41637256Y-44702199D01*
X41653259Y-44714613D01*
X41693843Y-44732176D01*
X41704487Y-44737391D01*
X41742760Y-44758432D01*
X41792819Y-44808777D01*
X41807712Y-44878194D01*
X41782711Y-44944643D01*
X41771154Y-44957941D01*
X41627747Y-45101348D01*
X41619461Y-45108888D01*
X41612982Y-45113000D01*
X41567536Y-45161396D01*
X41566357Y-45162651D01*
X41563602Y-45165493D01*
X41543865Y-45185230D01*
X41541385Y-45188427D01*
X41533682Y-45197447D01*
X41503414Y-45229679D01*
X41499595Y-45236625D01*
X41499593Y-45236628D01*
X41493652Y-45247434D01*
X41482801Y-45263953D01*
X41470386Y-45279959D01*
X41467241Y-45287228D01*
X41467238Y-45287232D01*
X41452826Y-45320537D01*
X41447609Y-45331187D01*
X41426305Y-45369940D01*
X41424336Y-45377610D01*
X41424334Y-45377616D01*
X41421267Y-45389562D01*
X41414863Y-45408266D01*
X41406819Y-45426855D01*
X41405580Y-45434678D01*
X41405577Y-45434688D01*
X41399901Y-45470524D01*
X41397495Y-45482144D01*
X41391880Y-45504016D01*
X41386500Y-45524970D01*
X41386500Y-45545224D01*
X41384949Y-45564934D01*
X41381780Y-45584943D01*
X41382526Y-45592835D01*
X41385941Y-45628961D01*
X41386500Y-45640819D01*
X41386500Y-53428712D01*
X41366498Y-53496833D01*
X41312842Y-53543326D01*
X41258961Y-53554703D01*
X41220081Y-53554228D01*
X41220079Y-53554228D01*
X41214911Y-53554165D01*
X40994091Y-53587955D01*
X40781756Y-53657357D01*
X40749028Y-53674394D01*
X40603991Y-53749896D01*
X40583607Y-53760507D01*
X40579474Y-53763610D01*
X40579471Y-53763612D01*
X40409100Y-53891530D01*
X40404965Y-53894635D01*
X40401393Y-53898373D01*
X40286019Y-54019105D01*
X40250629Y-54056138D01*
X40143201Y-54213621D01*
X40088293Y-54258621D01*
X40017768Y-54266792D01*
X39954021Y-54235538D01*
X39933324Y-54211054D01*
X39852822Y-54086617D01*
X39852820Y-54086614D01*
X39850014Y-54082277D01*
X39699670Y-53917051D01*
X39592153Y-53832139D01*
X39551091Y-53774223D01*
X39545798Y-53713543D01*
X39550099Y-53686393D01*
X39552505Y-53674775D01*
X39561528Y-53639630D01*
X39561528Y-53639629D01*
X39563500Y-53631949D01*
X39563500Y-53611695D01*
X39565051Y-53591984D01*
X39566980Y-53579805D01*
X39568220Y-53571976D01*
X39564059Y-53527957D01*
X39563500Y-53516100D01*
X39563500Y-45754768D01*
X39564027Y-45743585D01*
X39565702Y-45736092D01*
X39564887Y-45710144D01*
X39563562Y-45668002D01*
X39563500Y-45664044D01*
X39563500Y-45636144D01*
X39562996Y-45632153D01*
X39562063Y-45620311D01*
X39562036Y-45619427D01*
X39560674Y-45576111D01*
X39557427Y-45564935D01*
X39555021Y-45556652D01*
X39551012Y-45537293D01*
X39550457Y-45532899D01*
X39548474Y-45517203D01*
X39545558Y-45509837D01*
X39545556Y-45509831D01*
X39532200Y-45476098D01*
X39528355Y-45464868D01*
X39518230Y-45430017D01*
X39518230Y-45430016D01*
X39516019Y-45422407D01*
X39505705Y-45404966D01*
X39497008Y-45387213D01*
X39492472Y-45375758D01*
X39489552Y-45368383D01*
X39463563Y-45332612D01*
X39457047Y-45322692D01*
X39450743Y-45312033D01*
X39434542Y-45284638D01*
X39420221Y-45270317D01*
X39407380Y-45255283D01*
X39400132Y-45245307D01*
X39395472Y-45238893D01*
X39361407Y-45210712D01*
X39352626Y-45202722D01*
X38892647Y-44742742D01*
X38885113Y-44734463D01*
X38881000Y-44727982D01*
X38831348Y-44681356D01*
X38828507Y-44678602D01*
X38808770Y-44658865D01*
X38805573Y-44656385D01*
X38796551Y-44648680D01*
X38791149Y-44643607D01*
X38764321Y-44618414D01*
X38757375Y-44614595D01*
X38757372Y-44614593D01*
X38746566Y-44608652D01*
X38730047Y-44597801D01*
X38726456Y-44595016D01*
X38714041Y-44585386D01*
X38706772Y-44582241D01*
X38706768Y-44582238D01*
X38673463Y-44567826D01*
X38662813Y-44562609D01*
X38624060Y-44541305D01*
X38604437Y-44536267D01*
X38585734Y-44529863D01*
X38574420Y-44524967D01*
X38574419Y-44524967D01*
X38567145Y-44521819D01*
X38559322Y-44520580D01*
X38559312Y-44520577D01*
X38523476Y-44514901D01*
X38511856Y-44512495D01*
X38476711Y-44503472D01*
X38476710Y-44503472D01*
X38469030Y-44501500D01*
X38448776Y-44501500D01*
X38429065Y-44499949D01*
X38416886Y-44498020D01*
X38409057Y-44496780D01*
X38387043Y-44498861D01*
X38365039Y-44500941D01*
X38353181Y-44501500D01*
X38138224Y-44501500D01*
X38070103Y-44481498D01*
X38023610Y-44427842D01*
X38013506Y-44357568D01*
X38029769Y-44311364D01*
X38049145Y-44278601D01*
X38095562Y-44118831D01*
X38096187Y-44110898D01*
X38098307Y-44083958D01*
X38098307Y-44083950D01*
X38098500Y-44081502D01*
X38098500Y-43648498D01*
X38097243Y-43632522D01*
X38096067Y-43617579D01*
X38096066Y-43617574D01*
X38095562Y-43611169D01*
X38049145Y-43451399D01*
X37964453Y-43308193D01*
X37961771Y-43305511D01*
X37936498Y-43241139D01*
X37950400Y-43171516D01*
X37960572Y-43155688D01*
X37964453Y-43151807D01*
X38049145Y-43008601D01*
X38051876Y-42999203D01*
X38072191Y-42929276D01*
X38095562Y-42848831D01*
X38097763Y-42820874D01*
X38098307Y-42813958D01*
X38098307Y-42813950D01*
X38098500Y-42811502D01*
X38098500Y-42378498D01*
X38097123Y-42361002D01*
X38096067Y-42347579D01*
X38096066Y-42347574D01*
X38095562Y-42341169D01*
X38063377Y-42230386D01*
X38051357Y-42189012D01*
X38051356Y-42189010D01*
X38049145Y-42181399D01*
X37964453Y-42038193D01*
X37961771Y-42035511D01*
X37936498Y-41971139D01*
X37950400Y-41901516D01*
X37960572Y-41885688D01*
X37964453Y-41881807D01*
X38049145Y-41738601D01*
X38095562Y-41578831D01*
X38098500Y-41541502D01*
X38098500Y-41108498D01*
X38096854Y-41087579D01*
X38096067Y-41077579D01*
X38096066Y-41077574D01*
X38095562Y-41071169D01*
X38049145Y-40911399D01*
X38026660Y-40873379D01*
X37968491Y-40775020D01*
X37968489Y-40775017D01*
X37964453Y-40768193D01*
X37846807Y-40650547D01*
X37839983Y-40646511D01*
X37839980Y-40646509D01*
X37710427Y-40569892D01*
X37710428Y-40569892D01*
X37703601Y-40565855D01*
X37695990Y-40563644D01*
X37695988Y-40563643D01*
X37643769Y-40548472D01*
X37543831Y-40519438D01*
X37537426Y-40518934D01*
X37537421Y-40518933D01*
X37508958Y-40516693D01*
X37508950Y-40516693D01*
X37506502Y-40516500D01*
X37220594Y-40516500D01*
X37169345Y-40505607D01*
X37064419Y-40458891D01*
X37064418Y-40458891D01*
X37058388Y-40456206D01*
X36940839Y-40431220D01*
X36878044Y-40417872D01*
X36878039Y-40417872D01*
X36871587Y-40416500D01*
X36680613Y-40416500D01*
X36674161Y-40417872D01*
X36674156Y-40417872D01*
X36611361Y-40431220D01*
X36493812Y-40456206D01*
X36487782Y-40458891D01*
X36487781Y-40458891D01*
X36382855Y-40505607D01*
X36331606Y-40516500D01*
X36073498Y-40516500D01*
X36071050Y-40516693D01*
X36071042Y-40516693D01*
X36042579Y-40518933D01*
X36042574Y-40518934D01*
X36036169Y-40519438D01*
X35936231Y-40548472D01*
X35884012Y-40563643D01*
X35884010Y-40563644D01*
X35876399Y-40565855D01*
X35869572Y-40569892D01*
X35869573Y-40569892D01*
X35740020Y-40646509D01*
X35740017Y-40646511D01*
X35733193Y-40650547D01*
X35615547Y-40768193D01*
X35611511Y-40775017D01*
X35611509Y-40775020D01*
X35553340Y-40873379D01*
X35530855Y-40911399D01*
X35484438Y-41071169D01*
X35483934Y-41077574D01*
X35483933Y-41077579D01*
X35483146Y-41087579D01*
X35481500Y-41108498D01*
X35481500Y-41541502D01*
X35484438Y-41578831D01*
X35530855Y-41738601D01*
X35615547Y-41881807D01*
X35618229Y-41884489D01*
X35643502Y-41948861D01*
X35629600Y-42018484D01*
X35619428Y-42034312D01*
X35615547Y-42038193D01*
X35530855Y-42181399D01*
X35528644Y-42189010D01*
X35528643Y-42189012D01*
X35516623Y-42230386D01*
X35484438Y-42341169D01*
X35483934Y-42347574D01*
X35483933Y-42347579D01*
X35482877Y-42361002D01*
X35481500Y-42378498D01*
X35481500Y-42811502D01*
X35481693Y-42813950D01*
X35481693Y-42813958D01*
X35482238Y-42820874D01*
X35484438Y-42848831D01*
X35507809Y-42929276D01*
X35528125Y-42999203D01*
X35530855Y-43008601D01*
X35615547Y-43151807D01*
X35618229Y-43154489D01*
X35643502Y-43218861D01*
X35629600Y-43288484D01*
X35619428Y-43304312D01*
X35615547Y-43308193D01*
X35530855Y-43451399D01*
X35484438Y-43611169D01*
X35483934Y-43617574D01*
X35483933Y-43617579D01*
X35482757Y-43632522D01*
X35481500Y-43648498D01*
X35481500Y-44081502D01*
X35481693Y-44083950D01*
X35481693Y-44083958D01*
X35483814Y-44110898D01*
X35484438Y-44118831D01*
X35530855Y-44278601D01*
X35615547Y-44421807D01*
X35618229Y-44424489D01*
X35643502Y-44488861D01*
X35629600Y-44558484D01*
X35619428Y-44574312D01*
X35615547Y-44578193D01*
X35530855Y-44721399D01*
X35528644Y-44729010D01*
X35528643Y-44729012D01*
X35517572Y-44767120D01*
X35484438Y-44881169D01*
X35483934Y-44887574D01*
X35483933Y-44887579D01*
X35483146Y-44897579D01*
X35481500Y-44918498D01*
X35481500Y-45351502D01*
X35481693Y-45353950D01*
X35481693Y-45353958D01*
X35483824Y-45381028D01*
X35484438Y-45388831D01*
X35509791Y-45476098D01*
X35523990Y-45524970D01*
X35530855Y-45548601D01*
X35615547Y-45691807D01*
X35618229Y-45694489D01*
X35643502Y-45758861D01*
X35629600Y-45828484D01*
X35619428Y-45844312D01*
X35615547Y-45848193D01*
X35530855Y-45991399D01*
X35528644Y-45999010D01*
X35528643Y-45999012D01*
X35521197Y-46024643D01*
X35484438Y-46151169D01*
X35483934Y-46157574D01*
X35483933Y-46157579D01*
X35483469Y-46163479D01*
X35481500Y-46188498D01*
X35481500Y-46621502D01*
X35481693Y-46623950D01*
X35481693Y-46623958D01*
X35483907Y-46652081D01*
X35484438Y-46658831D01*
X35500552Y-46714296D01*
X35523850Y-46794488D01*
X35530855Y-46818601D01*
X35615547Y-46961807D01*
X35618229Y-46964489D01*
X35643502Y-47028861D01*
X35629600Y-47098484D01*
X35619425Y-47114315D01*
X35615547Y-47118193D01*
X35611516Y-47125009D01*
X35611513Y-47125013D01*
X35579637Y-47178914D01*
X35558198Y-47205673D01*
X35552893Y-47209528D01*
X35547840Y-47215636D01*
X35547839Y-47215637D01*
X35524712Y-47243593D01*
X35516722Y-47252374D01*
X34987743Y-47781352D01*
X34979464Y-47788886D01*
X34972983Y-47792999D01*
X34957578Y-47809404D01*
X34926358Y-47842650D01*
X34923603Y-47845492D01*
X34903866Y-47865229D01*
X34901386Y-47868426D01*
X34893683Y-47877446D01*
X34863415Y-47909678D01*
X34859596Y-47916624D01*
X34859594Y-47916627D01*
X34853653Y-47927433D01*
X34842802Y-47943952D01*
X34830387Y-47959958D01*
X34827242Y-47967227D01*
X34827239Y-47967231D01*
X34812827Y-48000536D01*
X34807610Y-48011186D01*
X34786306Y-48049939D01*
X34781412Y-48069002D01*
X34781268Y-48069561D01*
X34774864Y-48088265D01*
X34766820Y-48106854D01*
X34765581Y-48114677D01*
X34765578Y-48114687D01*
X34759902Y-48150523D01*
X34757496Y-48162143D01*
X34749463Y-48193431D01*
X34746501Y-48204969D01*
X34746501Y-48225223D01*
X34744950Y-48244933D01*
X34741781Y-48264942D01*
X34308500Y-48264942D01*
X34308500Y-33784500D01*
X34328502Y-33716379D01*
X34382158Y-33669886D01*
X34434500Y-33658500D01*
X88665500Y-33658500D01*
X88733621Y-33678502D01*
G37*
G04 #@! TD.AperFunction*
G04 #@! TA.AperFunction,Conductor*
G36*
X80929394Y-52501080D02*
G01*
X80948140Y-52513129D01*
X80955823Y-52519089D01*
X81085279Y-52595648D01*
X81099710Y-52601893D01*
X81245565Y-52644269D01*
X81246602Y-52644458D01*
X81247128Y-52644723D01*
X81251748Y-52646065D01*
X81251499Y-52646922D01*
X81310022Y-52676369D01*
X81346123Y-52737503D01*
X81343441Y-52808448D01*
X81313067Y-52857504D01*
X80370421Y-53800150D01*
X80308109Y-53834176D01*
X80237294Y-53829111D01*
X80203236Y-53809938D01*
X80168145Y-53782226D01*
X80159552Y-53776517D01*
X79973117Y-53673599D01*
X79963705Y-53669369D01*
X79762959Y-53598280D01*
X79752988Y-53595646D01*
X79681837Y-53582972D01*
X79668540Y-53584432D01*
X79664000Y-53598989D01*
X79664000Y-55042000D01*
X79643998Y-55110121D01*
X79590342Y-55156614D01*
X79538000Y-55168000D01*
X79282000Y-55168000D01*
X79213879Y-55147998D01*
X79167386Y-55094342D01*
X79156000Y-55042000D01*
X79156000Y-53578987D01*
X79160447Y-53578987D01*
X79160456Y-53541225D01*
X79192249Y-53487656D01*
X79993500Y-52686405D01*
X80055812Y-52652379D01*
X80082595Y-52649500D01*
X80452002Y-52649500D01*
X80454450Y-52649307D01*
X80454458Y-52649307D01*
X80482921Y-52647067D01*
X80482926Y-52647066D01*
X80489331Y-52646562D01*
X80589269Y-52617528D01*
X80641488Y-52602357D01*
X80641490Y-52602356D01*
X80649101Y-52600145D01*
X80792307Y-52515453D01*
X80795247Y-52512513D01*
X80859771Y-52487179D01*
X80929394Y-52501080D01*
G37*
G04 #@! TD.AperFunction*
G04 #@! TA.AperFunction,Conductor*
G36*
X36396755Y-51034393D02*
G01*
X36477640Y-51070405D01*
X36507712Y-51083794D01*
X36601113Y-51103647D01*
X36688056Y-51122128D01*
X36688061Y-51122128D01*
X36694513Y-51123500D01*
X36721500Y-51123500D01*
X36789621Y-51143502D01*
X36836114Y-51197158D01*
X36847500Y-51249500D01*
X36847500Y-53513143D01*
X36827498Y-53581264D01*
X36773842Y-53627757D01*
X36703568Y-53637861D01*
X36679444Y-53631917D01*
X36622339Y-53611695D01*
X36583087Y-53597795D01*
X36583083Y-53597794D01*
X36578212Y-53596069D01*
X36573119Y-53595162D01*
X36573116Y-53595161D01*
X36363373Y-53557800D01*
X36363367Y-53557799D01*
X36358284Y-53556894D01*
X36300128Y-53556183D01*
X36137962Y-53554202D01*
X36070090Y-53533369D01*
X36024256Y-53479149D01*
X36013501Y-53428211D01*
X36013501Y-51149500D01*
X36033503Y-51081379D01*
X36087159Y-51034886D01*
X36139501Y-51023500D01*
X36345506Y-51023500D01*
X36396755Y-51034393D01*
G37*
G04 #@! TD.AperFunction*
G04 #@! TA.AperFunction,Conductor*
G36*
X44736679Y-47958997D02*
G01*
X44773761Y-47984665D01*
X45211595Y-48422499D01*
X45245621Y-48484811D01*
X45248500Y-48511594D01*
X45248500Y-51365325D01*
X45228498Y-51433446D01*
X45211595Y-51454420D01*
X44322053Y-52343961D01*
X43457747Y-53208267D01*
X43449461Y-53215807D01*
X43442982Y-53219919D01*
X43437557Y-53225696D01*
X43396357Y-53269570D01*
X43393602Y-53272412D01*
X43373865Y-53292149D01*
X43371385Y-53295346D01*
X43363680Y-53304368D01*
X43357798Y-53310632D01*
X43336350Y-53333471D01*
X43275137Y-53369436D01*
X43204198Y-53366597D01*
X43146054Y-53325856D01*
X43119166Y-53260148D01*
X43118501Y-53247217D01*
X43118501Y-51334593D01*
X43138503Y-51266472D01*
X43155406Y-51245498D01*
X43340499Y-51060405D01*
X43402811Y-51026379D01*
X43429594Y-51023500D01*
X44006502Y-51023500D01*
X44008950Y-51023307D01*
X44008958Y-51023307D01*
X44037421Y-51021067D01*
X44037426Y-51021066D01*
X44043831Y-51020562D01*
X44168544Y-50984330D01*
X44195988Y-50976357D01*
X44195990Y-50976356D01*
X44203601Y-50974145D01*
X44296295Y-50919326D01*
X44339980Y-50893491D01*
X44339983Y-50893489D01*
X44346807Y-50889453D01*
X44464453Y-50771807D01*
X44468489Y-50764983D01*
X44468491Y-50764980D01*
X44545108Y-50635427D01*
X44549145Y-50628601D01*
X44562738Y-50581815D01*
X44588104Y-50494501D01*
X44595562Y-50468831D01*
X44596447Y-50457596D01*
X44598307Y-50433958D01*
X44598307Y-50433950D01*
X44598500Y-50431502D01*
X44598500Y-49998498D01*
X44596831Y-49977292D01*
X44596067Y-49967579D01*
X44596066Y-49967574D01*
X44595562Y-49961169D01*
X44561760Y-49844821D01*
X44551357Y-49809012D01*
X44551356Y-49809010D01*
X44549145Y-49801399D01*
X44464453Y-49658193D01*
X44461771Y-49655511D01*
X44436498Y-49591139D01*
X44450400Y-49521516D01*
X44460572Y-49505688D01*
X44464453Y-49501807D01*
X44549145Y-49358601D01*
X44556553Y-49333104D01*
X44580150Y-49251879D01*
X44595562Y-49198831D01*
X44596630Y-49185271D01*
X44598307Y-49163958D01*
X44598307Y-49163950D01*
X44598500Y-49161502D01*
X44598500Y-48728498D01*
X44598057Y-48722865D01*
X44596067Y-48697579D01*
X44596066Y-48697574D01*
X44595562Y-48691169D01*
X44549145Y-48531399D01*
X44464453Y-48388193D01*
X44461771Y-48385511D01*
X44436498Y-48321139D01*
X44450400Y-48251516D01*
X44460572Y-48235688D01*
X44464453Y-48231807D01*
X44549145Y-48088601D01*
X44563669Y-48038608D01*
X44601881Y-47978773D01*
X44666377Y-47949094D01*
X44736679Y-47958997D01*
G37*
G04 #@! TD.AperFunction*
G04 #@! TA.AperFunction,Conductor*
G36*
X65353621Y-42633502D02*
G01*
X65400114Y-42687158D01*
X65411500Y-42739500D01*
X65411500Y-42821502D01*
X65411693Y-42823950D01*
X65411693Y-42823958D01*
X65413924Y-42852294D01*
X65414438Y-42858831D01*
X65431453Y-42917397D01*
X65447833Y-42973777D01*
X65460855Y-43018601D01*
X65545547Y-43161807D01*
X65548229Y-43164489D01*
X65573502Y-43228861D01*
X65559600Y-43298484D01*
X65549428Y-43314312D01*
X65545547Y-43318193D01*
X65460855Y-43461399D01*
X65414438Y-43621169D01*
X65413934Y-43627574D01*
X65413933Y-43627579D01*
X65411694Y-43656027D01*
X65411500Y-43658498D01*
X65411500Y-44091502D01*
X65411693Y-44093950D01*
X65411693Y-44093958D01*
X65413651Y-44118831D01*
X65414438Y-44128831D01*
X65460855Y-44288601D01*
X65545547Y-44431807D01*
X65548229Y-44434489D01*
X65573502Y-44498861D01*
X65559600Y-44568484D01*
X65549428Y-44584312D01*
X65545547Y-44588193D01*
X65460855Y-44731399D01*
X65458644Y-44739010D01*
X65458643Y-44739012D01*
X65455741Y-44749000D01*
X65414438Y-44891169D01*
X65413934Y-44897574D01*
X65413933Y-44897579D01*
X65411693Y-44926042D01*
X65411500Y-44928498D01*
X65411500Y-45361502D01*
X65411693Y-45363950D01*
X65411693Y-45363958D01*
X65413872Y-45391635D01*
X65414438Y-45398831D01*
X65441275Y-45491207D01*
X65456969Y-45545224D01*
X65460855Y-45558601D01*
X65545547Y-45701807D01*
X65548229Y-45704489D01*
X65573502Y-45768861D01*
X65559600Y-45838484D01*
X65549428Y-45854312D01*
X65545547Y-45858193D01*
X65460855Y-46001399D01*
X65458644Y-46009010D01*
X65458643Y-46009012D01*
X65443472Y-46061231D01*
X65414438Y-46161169D01*
X65413934Y-46167574D01*
X65413933Y-46167579D01*
X65411693Y-46196042D01*
X65411500Y-46198498D01*
X65411500Y-46631502D01*
X65411693Y-46633950D01*
X65411693Y-46633958D01*
X65413651Y-46658831D01*
X65414438Y-46668831D01*
X65417247Y-46678500D01*
X65456410Y-46813300D01*
X65460855Y-46828601D01*
X65545547Y-46971807D01*
X65548229Y-46974489D01*
X65573502Y-47038861D01*
X65559600Y-47108484D01*
X65549428Y-47124312D01*
X65545547Y-47128193D01*
X65460855Y-47271399D01*
X65414438Y-47431169D01*
X65413934Y-47437574D01*
X65413933Y-47437579D01*
X65411693Y-47466042D01*
X65411500Y-47468498D01*
X65411500Y-47901502D01*
X65411693Y-47903950D01*
X65411693Y-47903958D01*
X65413651Y-47928831D01*
X65414438Y-47938831D01*
X65439030Y-48023478D01*
X65456044Y-48082040D01*
X65460855Y-48098601D01*
X65545547Y-48241807D01*
X65548229Y-48244489D01*
X65573502Y-48308861D01*
X65559600Y-48378484D01*
X65549428Y-48394312D01*
X65545547Y-48398193D01*
X65460855Y-48541399D01*
X65458644Y-48549010D01*
X65458643Y-48549012D01*
X65452094Y-48571556D01*
X65414438Y-48701169D01*
X65413934Y-48707574D01*
X65413933Y-48707579D01*
X65411766Y-48735116D01*
X65411500Y-48738498D01*
X65411500Y-49171502D01*
X65411693Y-49173950D01*
X65411693Y-49173958D01*
X65413651Y-49198831D01*
X65414438Y-49208831D01*
X65442235Y-49304511D01*
X65451724Y-49337170D01*
X65460855Y-49368601D01*
X65545547Y-49511807D01*
X65548229Y-49514489D01*
X65573502Y-49578861D01*
X65559600Y-49648484D01*
X65549428Y-49664312D01*
X65545547Y-49668193D01*
X65460855Y-49811399D01*
X65458644Y-49819010D01*
X65458643Y-49819012D01*
X65453891Y-49835370D01*
X65414438Y-49971169D01*
X65413934Y-49977574D01*
X65413933Y-49977579D01*
X65411693Y-50006042D01*
X65411500Y-50008498D01*
X65411500Y-50441502D01*
X65411693Y-50443950D01*
X65411693Y-50443958D01*
X65413651Y-50468831D01*
X65414438Y-50478831D01*
X65443472Y-50578769D01*
X65458586Y-50630790D01*
X65460855Y-50638601D01*
X65464892Y-50645427D01*
X65541509Y-50774980D01*
X65541511Y-50774983D01*
X65545547Y-50781807D01*
X65663193Y-50899453D01*
X65670017Y-50903489D01*
X65670020Y-50903491D01*
X65777589Y-50967107D01*
X65806399Y-50984145D01*
X65814010Y-50986356D01*
X65814012Y-50986357D01*
X65865272Y-51001249D01*
X65966169Y-51030562D01*
X65972574Y-51031066D01*
X65972579Y-51031067D01*
X66001042Y-51033307D01*
X66001050Y-51033307D01*
X66003498Y-51033500D01*
X66753702Y-51033500D01*
X66821823Y-51053502D01*
X66842797Y-51070405D01*
X66967026Y-51194634D01*
X67001052Y-51256946D01*
X67003240Y-51270555D01*
X67020606Y-51435780D01*
X67022387Y-51441262D01*
X67017008Y-51511743D01*
X66974191Y-51568375D01*
X66945549Y-51584300D01*
X66936698Y-51587804D01*
X66925474Y-51591646D01*
X66918170Y-51593768D01*
X66883016Y-51603982D01*
X66876190Y-51608019D01*
X66865581Y-51614293D01*
X66847833Y-51622988D01*
X66828992Y-51630448D01*
X66822576Y-51635110D01*
X66822575Y-51635110D01*
X66793222Y-51656436D01*
X66783302Y-51662952D01*
X66752074Y-51681420D01*
X66752071Y-51681422D01*
X66745247Y-51685458D01*
X66730926Y-51699779D01*
X66715893Y-51712619D01*
X66699502Y-51724528D01*
X66694451Y-51730634D01*
X66671311Y-51758605D01*
X66663321Y-51767384D01*
X65554234Y-52876471D01*
X65491922Y-52910497D01*
X65421107Y-52905432D01*
X65391079Y-52889313D01*
X65382960Y-52883414D01*
X65369152Y-52873382D01*
X65363124Y-52870698D01*
X65363122Y-52870697D01*
X65200719Y-52798391D01*
X65200718Y-52798391D01*
X65194688Y-52795706D01*
X65101288Y-52775853D01*
X65014344Y-52757372D01*
X65014339Y-52757372D01*
X65007887Y-52756000D01*
X64816913Y-52756000D01*
X64810461Y-52757372D01*
X64810456Y-52757372D01*
X64723513Y-52775853D01*
X64630112Y-52795706D01*
X64624082Y-52798391D01*
X64624081Y-52798391D01*
X64461678Y-52870697D01*
X64461676Y-52870698D01*
X64455648Y-52873382D01*
X64450307Y-52877262D01*
X64450306Y-52877263D01*
X64433721Y-52889313D01*
X64301147Y-52985634D01*
X64210132Y-53086716D01*
X64149690Y-53123954D01*
X64078706Y-53122603D01*
X64027404Y-53091499D01*
X63943652Y-53007747D01*
X63936112Y-52999461D01*
X63932000Y-52992982D01*
X63882348Y-52946356D01*
X63879507Y-52943602D01*
X63859770Y-52923865D01*
X63856573Y-52921385D01*
X63847551Y-52913680D01*
X63815321Y-52883414D01*
X63808375Y-52879595D01*
X63808372Y-52879593D01*
X63797566Y-52873652D01*
X63781047Y-52862801D01*
X63780583Y-52862441D01*
X63765041Y-52850386D01*
X63757772Y-52847241D01*
X63757768Y-52847238D01*
X63724463Y-52832826D01*
X63713813Y-52827609D01*
X63675060Y-52806305D01*
X63655437Y-52801267D01*
X63636734Y-52794863D01*
X63625420Y-52789967D01*
X63625419Y-52789967D01*
X63618145Y-52786819D01*
X63610322Y-52785580D01*
X63610312Y-52785577D01*
X63574476Y-52779901D01*
X63562856Y-52777495D01*
X63527711Y-52768472D01*
X63527710Y-52768472D01*
X63520030Y-52766500D01*
X63499776Y-52766500D01*
X63480065Y-52764949D01*
X63467886Y-52763020D01*
X63460057Y-52761780D01*
X63452165Y-52762526D01*
X63416039Y-52765941D01*
X63404181Y-52766500D01*
X63214594Y-52766500D01*
X63146473Y-52746498D01*
X63125499Y-52729595D01*
X61634445Y-51238540D01*
X61600419Y-51176228D01*
X61605484Y-51105412D01*
X61648031Y-51048577D01*
X61688043Y-51028548D01*
X61688125Y-51028524D01*
X61689329Y-51027135D01*
X61691000Y-51019452D01*
X61691000Y-51014884D01*
X62199000Y-51014884D01*
X62203475Y-51030123D01*
X62204865Y-51031328D01*
X62212548Y-51032999D01*
X62833984Y-51032999D01*
X62838920Y-51032805D01*
X62867336Y-51030570D01*
X62879931Y-51028270D01*
X63025790Y-50985893D01*
X63040221Y-50979648D01*
X63169678Y-50903089D01*
X63182104Y-50893449D01*
X63288449Y-50787104D01*
X63298089Y-50774678D01*
X63374648Y-50645221D01*
X63380893Y-50630790D01*
X63419939Y-50496395D01*
X63419899Y-50482294D01*
X63412630Y-50479000D01*
X62217115Y-50479000D01*
X62201876Y-50483475D01*
X62200671Y-50484865D01*
X62199000Y-50492548D01*
X62199000Y-51014884D01*
X61691000Y-51014884D01*
X61691000Y-50097000D01*
X61711002Y-50028879D01*
X61764658Y-49982386D01*
X61817000Y-49971000D01*
X63406878Y-49971000D01*
X63420409Y-49967027D01*
X63421544Y-49959129D01*
X63380893Y-49819210D01*
X63374648Y-49804779D01*
X63298089Y-49675323D01*
X63292129Y-49667640D01*
X63266180Y-49601556D01*
X63280078Y-49531933D01*
X63290421Y-49515839D01*
X63294453Y-49511807D01*
X63379145Y-49368601D01*
X63388277Y-49337170D01*
X63397765Y-49304511D01*
X63425562Y-49208831D01*
X63426350Y-49198831D01*
X63428307Y-49173958D01*
X63428307Y-49173950D01*
X63428500Y-49171502D01*
X63428500Y-48796346D01*
X63448502Y-48728225D01*
X63465405Y-48707250D01*
X63623644Y-48549012D01*
X63792259Y-48380397D01*
X63800537Y-48372864D01*
X63807018Y-48368751D01*
X63828855Y-48345497D01*
X63853627Y-48319116D01*
X63856385Y-48316270D01*
X63873334Y-48299322D01*
X63876135Y-48296521D01*
X63878615Y-48293324D01*
X63886320Y-48284302D01*
X63911159Y-48257851D01*
X63916586Y-48252072D01*
X63920405Y-48245126D01*
X63920407Y-48245123D01*
X63926348Y-48234317D01*
X63937199Y-48217798D01*
X63937559Y-48217334D01*
X63949614Y-48201792D01*
X63952759Y-48194523D01*
X63952762Y-48194519D01*
X63967174Y-48161214D01*
X63972391Y-48150564D01*
X63993695Y-48111811D01*
X63998733Y-48092188D01*
X64005137Y-48073485D01*
X64010033Y-48062171D01*
X64010033Y-48062170D01*
X64013181Y-48054896D01*
X64014420Y-48047073D01*
X64014423Y-48047063D01*
X64020099Y-48011227D01*
X64022505Y-47999607D01*
X64031528Y-47964462D01*
X64031528Y-47964461D01*
X64033500Y-47956781D01*
X64033500Y-47936527D01*
X64035051Y-47916816D01*
X64036980Y-47904637D01*
X64038220Y-47896808D01*
X64034059Y-47852789D01*
X64033500Y-47840932D01*
X64033500Y-45828767D01*
X64034027Y-45817584D01*
X64035702Y-45810091D01*
X64033686Y-45745943D01*
X64033562Y-45742014D01*
X64033500Y-45738055D01*
X64033500Y-45710144D01*
X64032995Y-45706144D01*
X64032062Y-45694301D01*
X64031223Y-45667590D01*
X64030673Y-45650110D01*
X64025022Y-45630658D01*
X64021014Y-45611306D01*
X64019467Y-45599063D01*
X64018474Y-45591203D01*
X64012499Y-45576111D01*
X64002200Y-45550097D01*
X63998355Y-45538870D01*
X63994345Y-45525068D01*
X63986018Y-45496407D01*
X63981984Y-45489585D01*
X63981981Y-45489579D01*
X63975706Y-45478968D01*
X63967010Y-45461218D01*
X63962472Y-45449756D01*
X63962469Y-45449751D01*
X63959552Y-45442383D01*
X63933573Y-45406625D01*
X63927057Y-45396707D01*
X63912567Y-45372206D01*
X63904542Y-45358637D01*
X63890218Y-45344313D01*
X63877376Y-45329278D01*
X63865472Y-45312893D01*
X63831406Y-45284711D01*
X63822627Y-45276722D01*
X63508020Y-44962115D01*
X63473994Y-44899803D01*
X63479059Y-44828988D01*
X63508020Y-44783925D01*
X63616234Y-44675711D01*
X63628625Y-44664844D01*
X63647437Y-44650409D01*
X63653987Y-44645383D01*
X63678474Y-44613471D01*
X63678477Y-44613468D01*
X63732063Y-44543633D01*
X63751524Y-44518271D01*
X63812838Y-44370246D01*
X63828500Y-44251281D01*
X63828500Y-44251274D01*
X63833750Y-44211396D01*
X63829578Y-44179703D01*
X63828500Y-44163260D01*
X63828500Y-43586740D01*
X63829578Y-43570294D01*
X63832672Y-43546792D01*
X63833750Y-43538604D01*
X63828500Y-43498726D01*
X63828500Y-43498719D01*
X63812838Y-43379754D01*
X63751524Y-43231729D01*
X63719089Y-43189459D01*
X63678477Y-43136532D01*
X63678474Y-43136529D01*
X63653987Y-43104617D01*
X63644678Y-43097474D01*
X63628621Y-43085152D01*
X63616230Y-43074285D01*
X63464828Y-42922883D01*
X63430802Y-42860571D01*
X63428486Y-42826458D01*
X63428209Y-42826447D01*
X63428307Y-42823958D01*
X63428500Y-42821502D01*
X63428500Y-42739500D01*
X63448502Y-42671379D01*
X63502158Y-42624886D01*
X63554500Y-42613500D01*
X65285500Y-42613500D01*
X65353621Y-42633502D01*
G37*
G04 #@! TD.AperFunction*
G04 #@! TA.AperFunction,Conductor*
G36*
X73232508Y-47615423D02*
G01*
X73276977Y-47670767D01*
X73286500Y-47718820D01*
X73286500Y-48117476D01*
X73266498Y-48185597D01*
X73254142Y-48201779D01*
X73180960Y-48283056D01*
X73085473Y-48448444D01*
X73026458Y-48630072D01*
X73025768Y-48636633D01*
X73025768Y-48636635D01*
X73010591Y-48781037D01*
X73006496Y-48820000D01*
X73007186Y-48826565D01*
X73011988Y-48872249D01*
X73026458Y-49009928D01*
X73085473Y-49191556D01*
X73088776Y-49197278D01*
X73088777Y-49197279D01*
X73095447Y-49208831D01*
X73180960Y-49356944D01*
X73185378Y-49361851D01*
X73185379Y-49361852D01*
X73294482Y-49483023D01*
X73308747Y-49498866D01*
X73326559Y-49511807D01*
X73403558Y-49567751D01*
X73446912Y-49623974D01*
X73452987Y-49694710D01*
X73419855Y-49757502D01*
X73393643Y-49778136D01*
X73328693Y-49816547D01*
X73326011Y-49819229D01*
X73261639Y-49844502D01*
X73192016Y-49830600D01*
X73176188Y-49820428D01*
X73172307Y-49816547D01*
X73029101Y-49731855D01*
X73021490Y-49729644D01*
X73021488Y-49729643D01*
X72968142Y-49714145D01*
X72869331Y-49685438D01*
X72862926Y-49684934D01*
X72862921Y-49684933D01*
X72834458Y-49682693D01*
X72834450Y-49682693D01*
X72832002Y-49682500D01*
X72398998Y-49682500D01*
X72396550Y-49682693D01*
X72396542Y-49682693D01*
X72368079Y-49684933D01*
X72368074Y-49684934D01*
X72361669Y-49685438D01*
X72355493Y-49687232D01*
X72355489Y-49687233D01*
X72214151Y-49728295D01*
X72143155Y-49728092D01*
X72083539Y-49689538D01*
X72054231Y-49624873D01*
X72052999Y-49607298D01*
X72052999Y-49427905D01*
X72052662Y-49421386D01*
X72042743Y-49325794D01*
X72039851Y-49312400D01*
X71988412Y-49158216D01*
X71982239Y-49145038D01*
X71896937Y-49007193D01*
X71887901Y-48995792D01*
X71773171Y-48881261D01*
X71761760Y-48872249D01*
X71623757Y-48787184D01*
X71610576Y-48781037D01*
X71456290Y-48729862D01*
X71442914Y-48726995D01*
X71348562Y-48717328D01*
X71342145Y-48717000D01*
X70942115Y-48717000D01*
X70926876Y-48721475D01*
X70925671Y-48722865D01*
X70924000Y-48730548D01*
X70924000Y-50964884D01*
X70928475Y-50980123D01*
X70929865Y-50981328D01*
X70937548Y-50982999D01*
X71342095Y-50982999D01*
X71348614Y-50982662D01*
X71444206Y-50972743D01*
X71457600Y-50969851D01*
X71611788Y-50918411D01*
X71627547Y-50911028D01*
X71697720Y-50900242D01*
X71762584Y-50929107D01*
X71801546Y-50988458D01*
X71807000Y-51025128D01*
X71807000Y-51651515D01*
X71786998Y-51719636D01*
X71770095Y-51740610D01*
X71525789Y-51984916D01*
X71463477Y-52018942D01*
X71392662Y-52013877D01*
X71335826Y-51971330D01*
X71318301Y-51932732D01*
X71316551Y-51933301D01*
X71292480Y-51859220D01*
X71257536Y-51751673D01*
X71231625Y-51706793D01*
X71190238Y-51635110D01*
X71162049Y-51586285D01*
X71109874Y-51528338D01*
X71038684Y-51449274D01*
X71038680Y-51449270D01*
X71034262Y-51444363D01*
X70905944Y-51351134D01*
X70885103Y-51335992D01*
X70885102Y-51335991D01*
X70879761Y-51332111D01*
X70873733Y-51329427D01*
X70873731Y-51329426D01*
X70711328Y-51257120D01*
X70711327Y-51257120D01*
X70705297Y-51254435D01*
X70611896Y-51234582D01*
X70524953Y-51216101D01*
X70524948Y-51216101D01*
X70518496Y-51214729D01*
X70484354Y-51214729D01*
X70416233Y-51194727D01*
X70369740Y-51141071D01*
X70359636Y-51070797D01*
X70389129Y-51006217D01*
X70414329Y-50977135D01*
X70416000Y-50969452D01*
X70416000Y-50122115D01*
X70411525Y-50106876D01*
X70410135Y-50105671D01*
X70402452Y-50104000D01*
X69305116Y-50104000D01*
X69289877Y-50108475D01*
X69288672Y-50109865D01*
X69287001Y-50117548D01*
X69287001Y-50272095D01*
X69287338Y-50278614D01*
X69297257Y-50374206D01*
X69300149Y-50387600D01*
X69351588Y-50541784D01*
X69357761Y-50554962D01*
X69443063Y-50692807D01*
X69452099Y-50704208D01*
X69566829Y-50818739D01*
X69578240Y-50827751D01*
X69716243Y-50912816D01*
X69729424Y-50918963D01*
X69883710Y-50970138D01*
X69897086Y-50973005D01*
X69991438Y-50982672D01*
X69997854Y-50983000D01*
X70218910Y-50983000D01*
X70287031Y-51003002D01*
X70333524Y-51056658D01*
X70343628Y-51126932D01*
X70314134Y-51191512D01*
X70254408Y-51229896D01*
X70245108Y-51232247D01*
X70140721Y-51254435D01*
X70134691Y-51257120D01*
X70134690Y-51257120D01*
X69972287Y-51329426D01*
X69972285Y-51329427D01*
X69966257Y-51332111D01*
X69960916Y-51335991D01*
X69960915Y-51335992D01*
X69826782Y-51433446D01*
X69811756Y-51444363D01*
X69807338Y-51449270D01*
X69801455Y-51455804D01*
X69742456Y-51492153D01*
X69742573Y-51492554D01*
X69741120Y-51492976D01*
X69741117Y-51492978D01*
X69740543Y-51493144D01*
X69740536Y-51493146D01*
X69723120Y-51498206D01*
X69703757Y-51502217D01*
X69683664Y-51504755D01*
X69683258Y-51501541D01*
X69627254Y-51499650D01*
X69573176Y-51464331D01*
X69475675Y-51356045D01*
X69475674Y-51356044D01*
X69471253Y-51351134D01*
X69372157Y-51279136D01*
X69322094Y-51242763D01*
X69322093Y-51242762D01*
X69316752Y-51238882D01*
X69310724Y-51236198D01*
X69310722Y-51236197D01*
X69148319Y-51163891D01*
X69148318Y-51163891D01*
X69142288Y-51161206D01*
X69047561Y-51141071D01*
X68961944Y-51122872D01*
X68961939Y-51122872D01*
X68955487Y-51121500D01*
X68920541Y-51121500D01*
X68852420Y-51101498D01*
X68805927Y-51047842D01*
X68800708Y-51034436D01*
X68784935Y-50985893D01*
X68748675Y-50874296D01*
X68726317Y-50835570D01*
X68669750Y-50737595D01*
X68653188Y-50708908D01*
X68636496Y-50690369D01*
X68529823Y-50571897D01*
X68529822Y-50571896D01*
X68525401Y-50566986D01*
X68430438Y-50497990D01*
X68387085Y-50441768D01*
X68378500Y-50396055D01*
X68378500Y-50008498D01*
X68378307Y-50006042D01*
X68376067Y-49977579D01*
X68376066Y-49977574D01*
X68375562Y-49971169D01*
X68336109Y-49835370D01*
X68331357Y-49819012D01*
X68331356Y-49819010D01*
X68329145Y-49811399D01*
X68244453Y-49668193D01*
X68241771Y-49665511D01*
X68216498Y-49601139D01*
X68230400Y-49531516D01*
X68240572Y-49515688D01*
X68244453Y-49511807D01*
X68308718Y-49403141D01*
X68360610Y-49354688D01*
X68430461Y-49341983D01*
X68468420Y-49352173D01*
X68583955Y-49403612D01*
X68599412Y-49410494D01*
X68681324Y-49427905D01*
X68779756Y-49448828D01*
X68779761Y-49448828D01*
X68786213Y-49450200D01*
X68977187Y-49450200D01*
X68983640Y-49448828D01*
X68983653Y-49448827D01*
X69134803Y-49416698D01*
X69205593Y-49422099D01*
X69262226Y-49464916D01*
X69286720Y-49531553D01*
X69287000Y-49539944D01*
X69287000Y-49577885D01*
X69291475Y-49593124D01*
X69292865Y-49594329D01*
X69300548Y-49596000D01*
X70397885Y-49596000D01*
X70413124Y-49591525D01*
X70414329Y-49590135D01*
X70416000Y-49582452D01*
X70416000Y-48735116D01*
X70411525Y-48719877D01*
X70410135Y-48718672D01*
X70402452Y-48717001D01*
X69997905Y-48717001D01*
X69991386Y-48717338D01*
X69928932Y-48723818D01*
X69859111Y-48710953D01*
X69807329Y-48662382D01*
X69790027Y-48593525D01*
X69790619Y-48585320D01*
X69791465Y-48577279D01*
X69795204Y-48541700D01*
X69788164Y-48474720D01*
X69775932Y-48358335D01*
X69775932Y-48358333D01*
X69775242Y-48351772D01*
X69770915Y-48338455D01*
X69768887Y-48267488D01*
X69805550Y-48206690D01*
X69869262Y-48175364D01*
X69903589Y-48174175D01*
X69994600Y-48183500D01*
X71345400Y-48183500D01*
X71348646Y-48183163D01*
X71348650Y-48183163D01*
X71444308Y-48173238D01*
X71444312Y-48173237D01*
X71451166Y-48172526D01*
X71457702Y-48170345D01*
X71457704Y-48170345D01*
X71611998Y-48118868D01*
X71618946Y-48116550D01*
X71769348Y-48023478D01*
X71894305Y-47898303D01*
X71912727Y-47868418D01*
X71955652Y-47798780D01*
X71973751Y-47769418D01*
X72030366Y-47720161D01*
X72036306Y-47717553D01*
X72042404Y-47715065D01*
X72095048Y-47695173D01*
X72095049Y-47695172D01*
X72102156Y-47692487D01*
X72108419Y-47688183D01*
X72110785Y-47686946D01*
X72125587Y-47678707D01*
X72127852Y-47677367D01*
X72134805Y-47674315D01*
X72137770Y-47672040D01*
X72204993Y-47654983D01*
X72235471Y-47659899D01*
X72355489Y-47694767D01*
X72355493Y-47694768D01*
X72361669Y-47696562D01*
X72368074Y-47697066D01*
X72368079Y-47697067D01*
X72396542Y-47699307D01*
X72396550Y-47699307D01*
X72398998Y-47699500D01*
X72832002Y-47699500D01*
X72834450Y-47699307D01*
X72834458Y-47699307D01*
X72862921Y-47697067D01*
X72862926Y-47697066D01*
X72869331Y-47696562D01*
X72980420Y-47664288D01*
X73021488Y-47652357D01*
X73021490Y-47652356D01*
X73029101Y-47650145D01*
X73096363Y-47610366D01*
X73165176Y-47592907D01*
X73232508Y-47615423D01*
G37*
G04 #@! TD.AperFunction*
G04 #@! TA.AperFunction,Conductor*
G36*
X81128399Y-49504355D02*
G01*
X81174892Y-49558011D01*
X81184996Y-49628285D01*
X81155502Y-49692865D01*
X81105967Y-49724600D01*
X81106987Y-49726958D01*
X81085279Y-49736352D01*
X80955824Y-49812910D01*
X80948136Y-49818874D01*
X80882051Y-49844821D01*
X80812428Y-49830920D01*
X80796342Y-49820582D01*
X80792307Y-49816547D01*
X80772409Y-49804779D01*
X80692468Y-49757502D01*
X80649101Y-49731855D01*
X80641488Y-49729643D01*
X80634211Y-49726494D01*
X80635412Y-49723719D01*
X80587525Y-49693134D01*
X80557850Y-49628637D01*
X80567755Y-49558334D01*
X80614096Y-49504548D01*
X80682516Y-49484353D01*
X81060278Y-49484353D01*
X81128399Y-49504355D01*
G37*
G04 #@! TD.AperFunction*
G04 #@! TA.AperFunction,Conductor*
G36*
X77118984Y-47551400D02*
G01*
X77134815Y-47561575D01*
X77138693Y-47565453D01*
X77145509Y-47569484D01*
X77145513Y-47569487D01*
X77199414Y-47601363D01*
X77226176Y-47622805D01*
X77230028Y-47628107D01*
X77236130Y-47633155D01*
X77236131Y-47633156D01*
X77264105Y-47656298D01*
X77272884Y-47664288D01*
X78851696Y-49243100D01*
X78859240Y-49251390D01*
X78863353Y-49257871D01*
X78869130Y-49263296D01*
X78913020Y-49304511D01*
X78915862Y-49307266D01*
X78935584Y-49326988D01*
X78938708Y-49329411D01*
X78938712Y-49329415D01*
X78938777Y-49329465D01*
X78947798Y-49337170D01*
X78980032Y-49367439D01*
X78986980Y-49371258D01*
X78986982Y-49371260D01*
X78997785Y-49377199D01*
X79014312Y-49388055D01*
X79024051Y-49395610D01*
X79024053Y-49395611D01*
X79030313Y-49400467D01*
X79070893Y-49418027D01*
X79081541Y-49423244D01*
X79120294Y-49444549D01*
X79119162Y-49446608D01*
X79165832Y-49483023D01*
X79189308Y-49550026D01*
X79172832Y-49619084D01*
X79121636Y-49668273D01*
X79063474Y-49682500D01*
X78748998Y-49682500D01*
X78746550Y-49682693D01*
X78746542Y-49682693D01*
X78718079Y-49684933D01*
X78718074Y-49684934D01*
X78711669Y-49685438D01*
X78612858Y-49714145D01*
X78559512Y-49729643D01*
X78559510Y-49729644D01*
X78551899Y-49731855D01*
X78408693Y-49816547D01*
X78406011Y-49819229D01*
X78341639Y-49844502D01*
X78272016Y-49830600D01*
X78256188Y-49820428D01*
X78252307Y-49816547D01*
X78109101Y-49731855D01*
X78101490Y-49729644D01*
X78101488Y-49729643D01*
X78048142Y-49714145D01*
X77949331Y-49685438D01*
X77942926Y-49684934D01*
X77942921Y-49684933D01*
X77914458Y-49682693D01*
X77914450Y-49682693D01*
X77912002Y-49682500D01*
X77478998Y-49682500D01*
X77476550Y-49682693D01*
X77476542Y-49682693D01*
X77448079Y-49684933D01*
X77448074Y-49684934D01*
X77441669Y-49685438D01*
X77342858Y-49714145D01*
X77289512Y-49729643D01*
X77289510Y-49729644D01*
X77281899Y-49731855D01*
X77138693Y-49816547D01*
X77136011Y-49819229D01*
X77071639Y-49844502D01*
X77002016Y-49830600D01*
X76986188Y-49820428D01*
X76982307Y-49816547D01*
X76839101Y-49731855D01*
X76831490Y-49729644D01*
X76831488Y-49729643D01*
X76778142Y-49714145D01*
X76679331Y-49685438D01*
X76672926Y-49684934D01*
X76672921Y-49684933D01*
X76644458Y-49682693D01*
X76644450Y-49682693D01*
X76642002Y-49682500D01*
X76208998Y-49682500D01*
X76206550Y-49682693D01*
X76206542Y-49682693D01*
X76178079Y-49684933D01*
X76178074Y-49684934D01*
X76171669Y-49685438D01*
X76072858Y-49714145D01*
X76019512Y-49729643D01*
X76019510Y-49729644D01*
X76011899Y-49731855D01*
X75868693Y-49816547D01*
X75866011Y-49819229D01*
X75801639Y-49844502D01*
X75732016Y-49830600D01*
X75716188Y-49820428D01*
X75712307Y-49816547D01*
X75569101Y-49731855D01*
X75561490Y-49729644D01*
X75561488Y-49729643D01*
X75508142Y-49714145D01*
X75409331Y-49685438D01*
X75402926Y-49684934D01*
X75402921Y-49684933D01*
X75374458Y-49682693D01*
X75374450Y-49682693D01*
X75372002Y-49682500D01*
X74938998Y-49682500D01*
X74936550Y-49682693D01*
X74936542Y-49682693D01*
X74908079Y-49684933D01*
X74908074Y-49684934D01*
X74901669Y-49685438D01*
X74802858Y-49714145D01*
X74749512Y-49729643D01*
X74749510Y-49729644D01*
X74741899Y-49731855D01*
X74598693Y-49816547D01*
X74596011Y-49819229D01*
X74531639Y-49844502D01*
X74462016Y-49830600D01*
X74446188Y-49820428D01*
X74442307Y-49816547D01*
X74415401Y-49800635D01*
X74366949Y-49748741D01*
X74354244Y-49678891D01*
X74381320Y-49613260D01*
X74405480Y-49590246D01*
X74449847Y-49558011D01*
X74531253Y-49498866D01*
X74545518Y-49483023D01*
X74654621Y-49361852D01*
X74654622Y-49361851D01*
X74659040Y-49356944D01*
X74744553Y-49208831D01*
X74751223Y-49197279D01*
X74751224Y-49197278D01*
X74754527Y-49191556D01*
X74813542Y-49009928D01*
X74828013Y-48872249D01*
X74832814Y-48826565D01*
X74833504Y-48820000D01*
X74829409Y-48781037D01*
X74814232Y-48636635D01*
X74814232Y-48636633D01*
X74813542Y-48630072D01*
X74754527Y-48448444D01*
X74659040Y-48283056D01*
X74585863Y-48201785D01*
X74555147Y-48137779D01*
X74553500Y-48117476D01*
X74553500Y-47759351D01*
X74573502Y-47691230D01*
X74627158Y-47644737D01*
X74697432Y-47634633D01*
X74729543Y-47643715D01*
X74735074Y-47646109D01*
X74741899Y-47650145D01*
X74749510Y-47652356D01*
X74749512Y-47652357D01*
X74790580Y-47664288D01*
X74901669Y-47696562D01*
X74908074Y-47697066D01*
X74908079Y-47697067D01*
X74936542Y-47699307D01*
X74936550Y-47699307D01*
X74938998Y-47699500D01*
X75372002Y-47699500D01*
X75374450Y-47699307D01*
X75374458Y-47699307D01*
X75402921Y-47697067D01*
X75402926Y-47697066D01*
X75409331Y-47696562D01*
X75520420Y-47664288D01*
X75561488Y-47652357D01*
X75561490Y-47652356D01*
X75569101Y-47650145D01*
X75712307Y-47565453D01*
X75714989Y-47562771D01*
X75779361Y-47537498D01*
X75848984Y-47551400D01*
X75864812Y-47561572D01*
X75868693Y-47565453D01*
X76011899Y-47650145D01*
X76019510Y-47652356D01*
X76019512Y-47652357D01*
X76060580Y-47664288D01*
X76171669Y-47696562D01*
X76178074Y-47697066D01*
X76178079Y-47697067D01*
X76206542Y-47699307D01*
X76206550Y-47699307D01*
X76208998Y-47699500D01*
X76642002Y-47699500D01*
X76644450Y-47699307D01*
X76644458Y-47699307D01*
X76672921Y-47697067D01*
X76672926Y-47697066D01*
X76679331Y-47696562D01*
X76790420Y-47664288D01*
X76831488Y-47652357D01*
X76831490Y-47652356D01*
X76839101Y-47650145D01*
X76982307Y-47565453D01*
X76984989Y-47562771D01*
X77049361Y-47537498D01*
X77118984Y-47551400D01*
G37*
G04 #@! TD.AperFunction*
G04 #@! TA.AperFunction,Conductor*
G36*
X78388984Y-42404900D02*
G01*
X78404812Y-42415072D01*
X78408693Y-42418953D01*
X78551899Y-42503645D01*
X78559510Y-42505856D01*
X78559512Y-42505857D01*
X78596646Y-42516645D01*
X78711669Y-42550062D01*
X78718074Y-42550566D01*
X78718079Y-42550567D01*
X78746542Y-42552807D01*
X78746550Y-42552807D01*
X78748998Y-42553000D01*
X79182002Y-42553000D01*
X79184450Y-42552807D01*
X79184458Y-42552807D01*
X79212921Y-42550567D01*
X79212926Y-42550566D01*
X79219331Y-42550062D01*
X79348140Y-42512640D01*
X79419136Y-42512843D01*
X79478752Y-42551397D01*
X79508060Y-42616062D01*
X79503125Y-42672572D01*
X79485692Y-42726225D01*
X79485002Y-42732786D01*
X79485002Y-42732788D01*
X79472156Y-42855011D01*
X79465730Y-42916153D01*
X79466420Y-42922718D01*
X79466420Y-42922723D01*
X79466904Y-42927327D01*
X79454134Y-42997165D01*
X79405633Y-43049013D01*
X79341595Y-43066500D01*
X73778768Y-43066500D01*
X73767585Y-43065973D01*
X73760092Y-43064298D01*
X73752166Y-43064547D01*
X73752165Y-43064547D01*
X73692002Y-43066438D01*
X73688044Y-43066500D01*
X73660144Y-43066500D01*
X73656154Y-43067004D01*
X73644320Y-43067936D01*
X73600111Y-43069326D01*
X73592497Y-43071538D01*
X73592492Y-43071539D01*
X73580659Y-43074977D01*
X73561296Y-43078988D01*
X73541203Y-43081526D01*
X73533836Y-43084443D01*
X73533831Y-43084444D01*
X73500092Y-43097802D01*
X73488865Y-43101646D01*
X73446407Y-43113982D01*
X73439581Y-43118019D01*
X73428972Y-43124293D01*
X73411224Y-43132988D01*
X73392383Y-43140448D01*
X73385967Y-43145110D01*
X73385966Y-43145110D01*
X73356613Y-43166436D01*
X73346693Y-43172952D01*
X73315465Y-43191420D01*
X73315462Y-43191422D01*
X73308638Y-43195458D01*
X73294317Y-43209779D01*
X73279284Y-43222619D01*
X73262893Y-43234528D01*
X73252971Y-43246522D01*
X73234712Y-43268593D01*
X73226722Y-43277374D01*
X72974499Y-43529596D01*
X72912187Y-43563621D01*
X72885404Y-43566500D01*
X72237660Y-43566500D01*
X72169539Y-43546498D01*
X72123046Y-43492842D01*
X72112942Y-43422568D01*
X72142436Y-43357988D01*
X72148565Y-43351405D01*
X72320520Y-43179450D01*
X72326785Y-43173596D01*
X72330991Y-43169927D01*
X72370385Y-43135561D01*
X72407129Y-43083280D01*
X72411061Y-43077986D01*
X72425604Y-43059438D01*
X72450476Y-43027718D01*
X72453599Y-43020802D01*
X72454983Y-43018516D01*
X72463357Y-43003835D01*
X72464622Y-43001475D01*
X72468990Y-42995261D01*
X72473323Y-42984149D01*
X72488657Y-42944818D01*
X72492203Y-42935723D01*
X72494759Y-42929642D01*
X72494925Y-42929276D01*
X72521045Y-42871427D01*
X72522429Y-42863960D01*
X72523230Y-42861405D01*
X72527859Y-42845152D01*
X72528522Y-42842572D01*
X72531282Y-42835491D01*
X72532801Y-42823958D01*
X72539621Y-42772148D01*
X72540653Y-42765632D01*
X72540749Y-42765117D01*
X72552296Y-42702814D01*
X72551341Y-42686254D01*
X72567388Y-42617095D01*
X72618278Y-42567590D01*
X72677132Y-42553000D01*
X72832002Y-42553000D01*
X72834450Y-42552807D01*
X72834458Y-42552807D01*
X72862921Y-42550567D01*
X72862926Y-42550566D01*
X72869331Y-42550062D01*
X72984354Y-42516645D01*
X73021488Y-42505857D01*
X73021490Y-42505856D01*
X73029101Y-42503645D01*
X73172307Y-42418953D01*
X73174989Y-42416271D01*
X73239361Y-42390998D01*
X73308984Y-42404900D01*
X73324812Y-42415072D01*
X73328693Y-42418953D01*
X73471899Y-42503645D01*
X73479510Y-42505856D01*
X73479512Y-42505857D01*
X73516646Y-42516645D01*
X73631669Y-42550062D01*
X73638074Y-42550566D01*
X73638079Y-42550567D01*
X73666542Y-42552807D01*
X73666550Y-42552807D01*
X73668998Y-42553000D01*
X74102002Y-42553000D01*
X74104450Y-42552807D01*
X74104458Y-42552807D01*
X74132921Y-42550567D01*
X74132926Y-42550566D01*
X74139331Y-42550062D01*
X74254354Y-42516645D01*
X74291488Y-42505857D01*
X74291490Y-42505856D01*
X74299101Y-42503645D01*
X74442307Y-42418953D01*
X74444989Y-42416271D01*
X74509361Y-42390998D01*
X74578984Y-42404900D01*
X74594812Y-42415072D01*
X74598693Y-42418953D01*
X74741899Y-42503645D01*
X74749510Y-42505856D01*
X74749512Y-42505857D01*
X74786646Y-42516645D01*
X74901669Y-42550062D01*
X74908074Y-42550566D01*
X74908079Y-42550567D01*
X74936542Y-42552807D01*
X74936550Y-42552807D01*
X74938998Y-42553000D01*
X75372002Y-42553000D01*
X75374450Y-42552807D01*
X75374458Y-42552807D01*
X75402921Y-42550567D01*
X75402926Y-42550566D01*
X75409331Y-42550062D01*
X75524354Y-42516645D01*
X75561488Y-42505857D01*
X75561490Y-42505856D01*
X75569101Y-42503645D01*
X75712307Y-42418953D01*
X75714989Y-42416271D01*
X75779361Y-42390998D01*
X75848984Y-42404900D01*
X75864812Y-42415072D01*
X75868693Y-42418953D01*
X76011899Y-42503645D01*
X76019510Y-42505856D01*
X76019512Y-42505857D01*
X76056646Y-42516645D01*
X76171669Y-42550062D01*
X76178074Y-42550566D01*
X76178079Y-42550567D01*
X76206542Y-42552807D01*
X76206550Y-42552807D01*
X76208998Y-42553000D01*
X76642002Y-42553000D01*
X76644450Y-42552807D01*
X76644458Y-42552807D01*
X76672921Y-42550567D01*
X76672926Y-42550566D01*
X76679331Y-42550062D01*
X76794354Y-42516645D01*
X76831488Y-42505857D01*
X76831490Y-42505856D01*
X76839101Y-42503645D01*
X76982307Y-42418953D01*
X76984989Y-42416271D01*
X77049361Y-42390998D01*
X77118984Y-42404900D01*
X77134812Y-42415072D01*
X77138693Y-42418953D01*
X77281899Y-42503645D01*
X77289510Y-42505856D01*
X77289512Y-42505857D01*
X77326646Y-42516645D01*
X77441669Y-42550062D01*
X77448074Y-42550566D01*
X77448079Y-42550567D01*
X77476542Y-42552807D01*
X77476550Y-42552807D01*
X77478998Y-42553000D01*
X77912002Y-42553000D01*
X77914450Y-42552807D01*
X77914458Y-42552807D01*
X77942921Y-42550567D01*
X77942926Y-42550566D01*
X77949331Y-42550062D01*
X78064354Y-42516645D01*
X78101488Y-42505857D01*
X78101490Y-42505856D01*
X78109101Y-42503645D01*
X78252307Y-42418953D01*
X78254989Y-42416271D01*
X78319361Y-42390998D01*
X78388984Y-42404900D01*
G37*
G04 #@! TD.AperFunction*
G04 #@! TA.AperFunction,Conductor*
G36*
X65928190Y-36036002D02*
G01*
X65967212Y-36075696D01*
X65980203Y-36096689D01*
X66104347Y-36220617D01*
X66107270Y-36222419D01*
X66147408Y-36279029D01*
X66150642Y-36349952D01*
X66115018Y-36411364D01*
X66108622Y-36416916D01*
X66103311Y-36420203D01*
X66098139Y-36425384D01*
X66084164Y-36439383D01*
X65979383Y-36544347D01*
X65975543Y-36550577D01*
X65975542Y-36550578D01*
X65966278Y-36565607D01*
X65887339Y-36693671D01*
X65885034Y-36700619D01*
X65885034Y-36700620D01*
X65836238Y-36847736D01*
X65832115Y-36860165D01*
X65821500Y-36963769D01*
X65821501Y-37551230D01*
X65832384Y-37656129D01*
X65834563Y-37662660D01*
X65834564Y-37662665D01*
X65868925Y-37765656D01*
X65887898Y-37822526D01*
X65912107Y-37861647D01*
X65930945Y-37930096D01*
X65909785Y-37997866D01*
X65855345Y-38043438D01*
X65784909Y-38052343D01*
X65738847Y-38035209D01*
X65643968Y-37976725D01*
X65643966Y-37976724D01*
X65637738Y-37972885D01*
X65535309Y-37938911D01*
X65476389Y-37919368D01*
X65476387Y-37919368D01*
X65469861Y-37917203D01*
X65463025Y-37916503D01*
X65463022Y-37916502D01*
X65419969Y-37912091D01*
X65365400Y-37906500D01*
X64514600Y-37906500D01*
X64511354Y-37906837D01*
X64511350Y-37906837D01*
X64415692Y-37916762D01*
X64415688Y-37916763D01*
X64408834Y-37917474D01*
X64402298Y-37919655D01*
X64402296Y-37919655D01*
X64328340Y-37944329D01*
X64241054Y-37973450D01*
X64090652Y-38066522D01*
X63965695Y-38191697D01*
X63961855Y-38197927D01*
X63961854Y-38197928D01*
X63881138Y-38328874D01*
X63872885Y-38342262D01*
X63854342Y-38398167D01*
X63823511Y-38491122D01*
X63817203Y-38510139D01*
X63806500Y-38614600D01*
X63806500Y-39965400D01*
X63806837Y-39968646D01*
X63806837Y-39968650D01*
X63816752Y-40064206D01*
X63817474Y-40071166D01*
X63819655Y-40077702D01*
X63819655Y-40077704D01*
X63861307Y-40202548D01*
X63873450Y-40238946D01*
X63966522Y-40389348D01*
X64091697Y-40514305D01*
X64097927Y-40518145D01*
X64097928Y-40518146D01*
X64194408Y-40577617D01*
X64242262Y-40607115D01*
X64281860Y-40620249D01*
X64403611Y-40660632D01*
X64403613Y-40660632D01*
X64410139Y-40662797D01*
X64416975Y-40663497D01*
X64416978Y-40663498D01*
X64460031Y-40667909D01*
X64514600Y-40673500D01*
X65269340Y-40673500D01*
X65337461Y-40693502D01*
X65358435Y-40710405D01*
X65433854Y-40785824D01*
X65467880Y-40848136D01*
X65460747Y-40921368D01*
X65460855Y-40921399D01*
X65460688Y-40921972D01*
X65460688Y-40921975D01*
X65458647Y-40929000D01*
X65458645Y-40929004D01*
X65434642Y-41011627D01*
X65414438Y-41081169D01*
X65413934Y-41087574D01*
X65413933Y-41087579D01*
X65411693Y-41116042D01*
X65411500Y-41118498D01*
X65411500Y-41270500D01*
X65391498Y-41338621D01*
X65337842Y-41385114D01*
X65285500Y-41396500D01*
X63554500Y-41396500D01*
X63486379Y-41376498D01*
X63439886Y-41322842D01*
X63428500Y-41270500D01*
X63428500Y-41118498D01*
X63428307Y-41116042D01*
X63426067Y-41087579D01*
X63426066Y-41087574D01*
X63425562Y-41081169D01*
X63379145Y-40921399D01*
X63323250Y-40826886D01*
X63298491Y-40785020D01*
X63298489Y-40785017D01*
X63294453Y-40778193D01*
X63176807Y-40660547D01*
X63105867Y-40618593D01*
X63057416Y-40566701D01*
X63044711Y-40496851D01*
X63071787Y-40431220D01*
X63080836Y-40421122D01*
X63108739Y-40393171D01*
X63117751Y-40381760D01*
X63202816Y-40243757D01*
X63208963Y-40230576D01*
X63260138Y-40076290D01*
X63263005Y-40062914D01*
X63272672Y-39968562D01*
X63273000Y-39962146D01*
X63273000Y-39562115D01*
X63268525Y-39546876D01*
X63267135Y-39545671D01*
X63259452Y-39544000D01*
X62012000Y-39544000D01*
X61943879Y-39523998D01*
X61897386Y-39470342D01*
X61886000Y-39418000D01*
X61886000Y-39162000D01*
X61906002Y-39093879D01*
X61959658Y-39047386D01*
X62012000Y-39036000D01*
X63254884Y-39036000D01*
X63270123Y-39031525D01*
X63271328Y-39030135D01*
X63272999Y-39022452D01*
X63272999Y-38617903D01*
X63272662Y-38611386D01*
X63262743Y-38515794D01*
X63259851Y-38502400D01*
X63208412Y-38348216D01*
X63202239Y-38335038D01*
X63116937Y-38197193D01*
X63107901Y-38185792D01*
X62993171Y-38071261D01*
X62981760Y-38062249D01*
X62843756Y-37977183D01*
X62826091Y-37968945D01*
X62772806Y-37922026D01*
X62753347Y-37853749D01*
X62773890Y-37785789D01*
X62790248Y-37765656D01*
X63092148Y-37463756D01*
X63154460Y-37429730D01*
X63206363Y-37429380D01*
X63312414Y-37450956D01*
X63422656Y-37473385D01*
X63553324Y-37478176D01*
X63648949Y-37481683D01*
X63648953Y-37481683D01*
X63654113Y-37481872D01*
X63659233Y-37481216D01*
X63659235Y-37481216D01*
X63754960Y-37468953D01*
X63883847Y-37452442D01*
X63888795Y-37450957D01*
X63888802Y-37450956D01*
X64100747Y-37387369D01*
X64105690Y-37385886D01*
X64110324Y-37383616D01*
X64309049Y-37286262D01*
X64309052Y-37286260D01*
X64313684Y-37283991D01*
X64502243Y-37149494D01*
X64666303Y-36986005D01*
X64682281Y-36963770D01*
X64798440Y-36802117D01*
X64801458Y-36797917D01*
X64830838Y-36738470D01*
X64878952Y-36686263D01*
X64897418Y-36677142D01*
X64909917Y-36672194D01*
X64921142Y-36668351D01*
X64955983Y-36658229D01*
X64955984Y-36658229D01*
X64963593Y-36656018D01*
X64970412Y-36651985D01*
X64970417Y-36651983D01*
X64981028Y-36645707D01*
X64998776Y-36637012D01*
X65017617Y-36629552D01*
X65053387Y-36603564D01*
X65063307Y-36597048D01*
X65094535Y-36578580D01*
X65094538Y-36578578D01*
X65101362Y-36574542D01*
X65115683Y-36560221D01*
X65130717Y-36547380D01*
X65136318Y-36543311D01*
X65147107Y-36535472D01*
X65175288Y-36501407D01*
X65183278Y-36492626D01*
X65623001Y-36052904D01*
X65685313Y-36018879D01*
X65712096Y-36016000D01*
X65860069Y-36016000D01*
X65928190Y-36036002D01*
G37*
G04 #@! TD.AperFunction*
G04 #@! TA.AperFunction,Conductor*
G36*
X74645639Y-37496717D02*
G01*
X74692374Y-37524356D01*
X74741899Y-37553645D01*
X74749510Y-37555856D01*
X74749512Y-37555857D01*
X74801731Y-37571028D01*
X74901669Y-37600062D01*
X74908074Y-37600566D01*
X74908079Y-37600567D01*
X74936542Y-37602807D01*
X74936550Y-37602807D01*
X74938998Y-37603000D01*
X75314138Y-37603000D01*
X75382259Y-37623002D01*
X75403233Y-37639905D01*
X76115575Y-38352247D01*
X76123119Y-38360537D01*
X76127232Y-38367018D01*
X76133009Y-38372443D01*
X76176899Y-38413658D01*
X76179741Y-38416413D01*
X76199463Y-38436135D01*
X76202587Y-38438558D01*
X76202591Y-38438562D01*
X76202656Y-38438612D01*
X76211677Y-38446317D01*
X76243911Y-38476586D01*
X76250859Y-38480405D01*
X76250861Y-38480407D01*
X76261664Y-38486346D01*
X76278191Y-38497202D01*
X76287930Y-38504757D01*
X76287932Y-38504758D01*
X76294192Y-38509614D01*
X76334772Y-38527174D01*
X76345420Y-38532391D01*
X76384172Y-38553695D01*
X76391848Y-38555666D01*
X76391851Y-38555667D01*
X76403794Y-38558733D01*
X76422499Y-38565137D01*
X76441087Y-38573181D01*
X76448910Y-38574420D01*
X76448920Y-38574423D01*
X76484756Y-38580099D01*
X76496376Y-38582505D01*
X76531521Y-38591528D01*
X76539202Y-38593500D01*
X76559456Y-38593500D01*
X76579166Y-38595051D01*
X76599175Y-38598220D01*
X76607067Y-38597474D01*
X76643193Y-38594059D01*
X76655051Y-38593500D01*
X78843275Y-38593500D01*
X78911396Y-38613502D01*
X78932370Y-38630405D01*
X79012714Y-38710749D01*
X79020258Y-38719039D01*
X79024371Y-38725520D01*
X79030148Y-38730945D01*
X79074038Y-38772160D01*
X79076880Y-38774915D01*
X79096601Y-38794636D01*
X79099796Y-38797114D01*
X79108818Y-38804820D01*
X79141050Y-38835088D01*
X79147999Y-38838908D01*
X79158803Y-38844848D01*
X79175327Y-38855701D01*
X79191330Y-38868115D01*
X79198607Y-38871264D01*
X79205428Y-38875298D01*
X79204708Y-38876515D01*
X79233191Y-38895871D01*
X79801783Y-39464463D01*
X79835809Y-39526775D01*
X79830744Y-39597590D01*
X79788197Y-39654426D01*
X79776846Y-39661999D01*
X79678693Y-39720047D01*
X79676011Y-39722729D01*
X79611639Y-39748002D01*
X79542016Y-39734100D01*
X79526188Y-39723928D01*
X79522307Y-39720047D01*
X79379101Y-39635355D01*
X79371490Y-39633144D01*
X79371488Y-39633143D01*
X79301789Y-39612894D01*
X79219331Y-39588938D01*
X79212926Y-39588434D01*
X79212921Y-39588433D01*
X79184458Y-39586193D01*
X79184450Y-39586193D01*
X79182002Y-39586000D01*
X78748998Y-39586000D01*
X78746550Y-39586193D01*
X78746542Y-39586193D01*
X78718079Y-39588433D01*
X78718074Y-39588434D01*
X78711669Y-39588938D01*
X78629211Y-39612894D01*
X78559512Y-39633143D01*
X78559510Y-39633144D01*
X78551899Y-39635355D01*
X78408693Y-39720047D01*
X78406011Y-39722729D01*
X78341639Y-39748002D01*
X78272016Y-39734100D01*
X78256188Y-39723928D01*
X78252307Y-39720047D01*
X78109101Y-39635355D01*
X78101490Y-39633144D01*
X78101488Y-39633143D01*
X78031789Y-39612894D01*
X77949331Y-39588938D01*
X77942926Y-39588434D01*
X77942921Y-39588433D01*
X77914458Y-39586193D01*
X77914450Y-39586193D01*
X77912002Y-39586000D01*
X77478998Y-39586000D01*
X77476550Y-39586193D01*
X77476542Y-39586193D01*
X77448079Y-39588433D01*
X77448074Y-39588434D01*
X77441669Y-39588938D01*
X77359211Y-39612894D01*
X77289512Y-39633143D01*
X77289510Y-39633144D01*
X77281899Y-39635355D01*
X77138693Y-39720047D01*
X77136011Y-39722729D01*
X77071639Y-39748002D01*
X77002016Y-39734100D01*
X76986188Y-39723928D01*
X76982307Y-39720047D01*
X76839101Y-39635355D01*
X76831490Y-39633144D01*
X76831488Y-39633143D01*
X76761789Y-39612894D01*
X76679331Y-39588938D01*
X76672926Y-39588434D01*
X76672921Y-39588433D01*
X76644458Y-39586193D01*
X76644450Y-39586193D01*
X76642002Y-39586000D01*
X76208998Y-39586000D01*
X76206550Y-39586193D01*
X76206542Y-39586193D01*
X76178079Y-39588433D01*
X76178074Y-39588434D01*
X76171669Y-39588938D01*
X76089211Y-39612894D01*
X76019512Y-39633143D01*
X76019510Y-39633144D01*
X76011899Y-39635355D01*
X75868693Y-39720047D01*
X75866011Y-39722729D01*
X75801639Y-39748002D01*
X75732016Y-39734100D01*
X75716188Y-39723928D01*
X75712307Y-39720047D01*
X75637699Y-39675924D01*
X75589249Y-39624034D01*
X75576531Y-39554302D01*
X75577635Y-39543803D01*
X75595937Y-39369667D01*
X75575975Y-39179739D01*
X75516960Y-38998111D01*
X75421473Y-38832723D01*
X75387180Y-38794636D01*
X75298108Y-38695712D01*
X75298107Y-38695711D01*
X75293686Y-38690801D01*
X75188805Y-38614600D01*
X75144527Y-38582430D01*
X75144526Y-38582429D01*
X75139185Y-38578549D01*
X75133157Y-38575865D01*
X75133155Y-38575864D01*
X74970752Y-38503558D01*
X74970751Y-38503558D01*
X74964721Y-38500873D01*
X74868437Y-38480407D01*
X74784377Y-38462539D01*
X74784372Y-38462539D01*
X74777920Y-38461167D01*
X74713467Y-38461167D01*
X74645346Y-38441165D01*
X74604348Y-38398167D01*
X74564342Y-38328874D01*
X74564339Y-38328869D01*
X74561040Y-38323156D01*
X74487863Y-38241885D01*
X74457147Y-38177879D01*
X74455500Y-38157576D01*
X74455500Y-37605170D01*
X74475502Y-37537049D01*
X74529158Y-37490556D01*
X74599432Y-37480452D01*
X74645639Y-37496717D01*
G37*
G04 #@! TD.AperFunction*
M02*
