G04 #@! TF.GenerationSoftware,KiCad,Pcbnew,6.0.11*
G04 #@! TF.CreationDate,2024-12-01T17:45:41+01:00*
G04 #@! TF.ProjectId,CCS_analog_mux-16in-18out,4343535f-616e-4616-9c6f-675f6d75782d,rev?*
G04 #@! TF.SameCoordinates,Original*
G04 #@! TF.FileFunction,Copper,L2,Bot*
G04 #@! TF.FilePolarity,Positive*
%FSLAX46Y46*%
G04 Gerber Fmt 4.6, Leading zero omitted, Abs format (unit mm)*
G04 Created by KiCad (PCBNEW 6.0.11) date 2024-12-01 17:45:41*
%MOMM*%
%LPD*%
G01*
G04 APERTURE LIST*
G04 #@! TA.AperFunction,ComponentPad*
%ADD10C,1.800000*%
G04 #@! TD*
G04 #@! TA.AperFunction,ComponentPad*
%ADD11O,1.700000X1.700000*%
G04 #@! TD*
G04 #@! TA.AperFunction,ComponentPad*
%ADD12R,1.700000X1.700000*%
G04 #@! TD*
G04 #@! TA.AperFunction,ViaPad*
%ADD13C,0.800000*%
G04 #@! TD*
G04 #@! TA.AperFunction,ViaPad*
%ADD14C,0.700000*%
G04 #@! TD*
G04 #@! TA.AperFunction,Conductor*
%ADD15C,0.250000*%
G04 #@! TD*
G04 #@! TA.AperFunction,Conductor*
%ADD16C,0.400000*%
G04 #@! TD*
G04 APERTURE END LIST*
D10*
X63590000Y-36070000D03*
X57880000Y-36000000D03*
D11*
X87030000Y-54914000D03*
X87030000Y-57454000D03*
X84490000Y-54914000D03*
X84490000Y-57454000D03*
X81950000Y-54914000D03*
X81950000Y-57454000D03*
X79410000Y-54914000D03*
X79410000Y-57454000D03*
X76870000Y-54914000D03*
X76870000Y-57454000D03*
X74330000Y-54914000D03*
X74330000Y-57454000D03*
X71790000Y-54914000D03*
X71790000Y-57454000D03*
X69250000Y-54914000D03*
X69250000Y-57454000D03*
X66710000Y-54914000D03*
X66710000Y-57454000D03*
X64170000Y-54914000D03*
X64170000Y-57454000D03*
X61630000Y-54914000D03*
X61630000Y-57454000D03*
X59090000Y-54914000D03*
X59090000Y-57454000D03*
X56550000Y-54914000D03*
X56550000Y-57454000D03*
X54010000Y-54914000D03*
X54010000Y-57454000D03*
X51470000Y-54914000D03*
X51470000Y-57454000D03*
X48930000Y-54914000D03*
X48930000Y-57454000D03*
X46390000Y-54914000D03*
X46390000Y-57454000D03*
X43850000Y-54914000D03*
X43850000Y-57454000D03*
X41310000Y-54914000D03*
X41310000Y-57454000D03*
X38770000Y-54914000D03*
X38770000Y-57454000D03*
X36230000Y-54914000D03*
D12*
X36230000Y-57454000D03*
D10*
X49323700Y-36143400D03*
X38376300Y-36143400D03*
D13*
X65390000Y-36950000D03*
X81505500Y-41069500D03*
X59340000Y-42690000D03*
X51120000Y-51040000D03*
X51930000Y-48320000D03*
X70820000Y-49860000D03*
X77370000Y-48840000D03*
X62840000Y-51580000D03*
X64400000Y-51860000D03*
X40480000Y-50320000D03*
X78690000Y-39170000D03*
X52737299Y-52077299D03*
X65120000Y-44600000D03*
X64140000Y-43060000D03*
X70270000Y-42530000D03*
X57160000Y-48810000D03*
X61928690Y-49044500D03*
X56435500Y-47610000D03*
X61928690Y-47595500D03*
X78510103Y-42975500D03*
X73110000Y-43120000D03*
X66920000Y-46440000D03*
X77695500Y-46216000D03*
X78965500Y-46216000D03*
X66980000Y-47700000D03*
X80235500Y-46744500D03*
X67030000Y-48960000D03*
X66895000Y-45145000D03*
X76410000Y-45530000D03*
X81505500Y-46216000D03*
X68860000Y-52030000D03*
X64912400Y-53664500D03*
X65350000Y-56250000D03*
X70423009Y-52123229D03*
X80379234Y-42916153D03*
X70096845Y-53075383D03*
X67914148Y-51245852D03*
X82750000Y-56190000D03*
X66912000Y-43865000D03*
X51724000Y-43865000D03*
X40294000Y-43865000D03*
X35341000Y-37642000D03*
X43590000Y-37724200D03*
X54720000Y-37729700D03*
X86265999Y-51104000D03*
X86354997Y-41009403D03*
X87366200Y-35241700D03*
X36611000Y-52247000D03*
X43596000Y-51993000D03*
X76108000Y-38531000D03*
X68881700Y-48541700D03*
X45780400Y-45770000D03*
X56295480Y-46360001D03*
X48220000Y-50215000D03*
X36790000Y-50215000D03*
X87170000Y-38750000D03*
X87424500Y-47460000D03*
X83504001Y-49298426D03*
D14*
X83054900Y-38848500D03*
D13*
X84529200Y-39535401D03*
X84360000Y-48200000D03*
D14*
X83905800Y-38277000D03*
D13*
X54720000Y-50215000D03*
X43290000Y-48945000D03*
X38205500Y-53136000D03*
X73822000Y-38860100D03*
X36750700Y-43877700D03*
X82751376Y-43628006D03*
X81505500Y-36119500D03*
X78965500Y-41185300D03*
X77695500Y-41069500D03*
X48155300Y-41286900D03*
X76425500Y-41069500D03*
X48220000Y-42595000D03*
X75155500Y-41271089D03*
X48256900Y-43826900D03*
X74682433Y-39369667D03*
X36776100Y-41325000D03*
X72679000Y-38921069D03*
X36790000Y-42595000D03*
X73920000Y-48820000D03*
X43290000Y-47675000D03*
X54720000Y-47675000D03*
X87238673Y-37031101D03*
X86805500Y-44485298D03*
D15*
X87030000Y-57454000D02*
X85854999Y-56278999D01*
X86990499Y-48430499D02*
X86630000Y-48070000D01*
X86630000Y-47020000D02*
X87080499Y-46569501D01*
X85854999Y-56278999D02*
X85854999Y-54285601D01*
X85854999Y-54285601D02*
X86990499Y-53150101D01*
X86990499Y-53150101D02*
X86990499Y-48430499D01*
X86630000Y-48070000D02*
X86630000Y-47020000D01*
X87080499Y-46569501D02*
X87080499Y-44760297D01*
X87080499Y-44760297D02*
X86805500Y-44485298D01*
X87530000Y-47354500D02*
X87424500Y-47460000D01*
X87030000Y-54914000D02*
X87880000Y-54064000D01*
X87880000Y-54064000D02*
X87880000Y-47915500D01*
X87880000Y-47915500D02*
X87424500Y-47460000D01*
X87170000Y-38750000D02*
X87530000Y-39110000D01*
X87530000Y-39110000D02*
X87530000Y-47354500D01*
X36776100Y-41325000D02*
X38604900Y-41325000D01*
X74660200Y-38625298D02*
X74660200Y-39347434D01*
X38604900Y-41325000D02*
X41469900Y-38460000D01*
X41469900Y-38460000D02*
X72090000Y-38460000D01*
X72090000Y-38460000D02*
X72414901Y-38135099D01*
X72414901Y-38135099D02*
X74170001Y-38135099D01*
X74170001Y-38135099D02*
X74660200Y-38625298D01*
X74660200Y-39347434D02*
X74682433Y-39369667D01*
X66710000Y-54914000D02*
X66710000Y-53074310D01*
X66710000Y-53074310D02*
X63405690Y-49770000D01*
X63405690Y-49770000D02*
X56815000Y-49770000D01*
X56815000Y-49770000D02*
X54720000Y-47675000D01*
X82750000Y-56190000D02*
X82690000Y-56250000D01*
X80585000Y-54365000D02*
X79820000Y-53600000D01*
X82690000Y-56250000D02*
X81624299Y-56250000D01*
X81624299Y-56250000D02*
X80585000Y-55210701D01*
X80585000Y-55210701D02*
X80585000Y-54365000D01*
X70596826Y-53600000D02*
X70316826Y-53880000D01*
X79820000Y-53600000D02*
X70596826Y-53600000D01*
X70316826Y-53880000D02*
X69877701Y-53880000D01*
X69877701Y-53880000D02*
X69736701Y-53739000D01*
X69736701Y-53739000D02*
X69199000Y-53739000D01*
X69199000Y-53739000D02*
X67914148Y-52454148D01*
X67914148Y-52454148D02*
X67914148Y-51245852D01*
X68860000Y-52030000D02*
X69230000Y-51660000D01*
X69230000Y-51660000D02*
X69230000Y-49490000D01*
X69230000Y-49490000D02*
X70230000Y-48490000D01*
X70230000Y-48490000D02*
X72470000Y-48490000D01*
X72470000Y-48490000D02*
X73120000Y-49140000D01*
X73120000Y-49140000D02*
X73600000Y-49140000D01*
X73600000Y-49140000D02*
X73920000Y-48820000D01*
X81505500Y-46216000D02*
X81505500Y-45405500D01*
X81505500Y-45405500D02*
X80810000Y-44710000D01*
X67425000Y-43865000D02*
X66912000Y-43865000D01*
X80810000Y-44710000D02*
X76130000Y-44710000D01*
X75390000Y-45450000D02*
X69010000Y-45450000D01*
X76130000Y-44710000D02*
X75390000Y-45450000D01*
X69010000Y-45450000D02*
X67425000Y-43865000D01*
X76400768Y-45539232D02*
X76010000Y-45930000D01*
X76010000Y-45930000D02*
X68780000Y-45930000D01*
X68780000Y-45930000D02*
X68020000Y-45170000D01*
X68020000Y-45170000D02*
X66920000Y-45170000D01*
X66920000Y-45170000D02*
X66895000Y-45145000D01*
X81505500Y-36119500D02*
X82242100Y-36856100D01*
X82242100Y-36856100D02*
X82242100Y-43118730D01*
X82242100Y-43118730D02*
X82751376Y-43628006D01*
X87238673Y-37031101D02*
X87238673Y-37591327D01*
X87080499Y-44210299D02*
X86805500Y-44485298D01*
X87238673Y-37591327D02*
X86380000Y-38450000D01*
X86380000Y-38450000D02*
X86380000Y-39500000D01*
X87080499Y-40200499D02*
X87080499Y-44210299D01*
X86380000Y-39500000D02*
X87080499Y-40200499D01*
D16*
X85855499Y-39717255D02*
X85855499Y-36752401D01*
X86354997Y-40216753D02*
X85855499Y-39717255D01*
X85855499Y-36752401D02*
X87366200Y-35241700D01*
X86354997Y-41009403D02*
X86354997Y-40216753D01*
X45780400Y-45770000D02*
X44840400Y-44830000D01*
X36790000Y-48840000D02*
X36790000Y-50215000D01*
X44840400Y-44830000D02*
X40800000Y-44830000D01*
X40800000Y-44830000D02*
X36790000Y-48840000D01*
D15*
X62000000Y-48970000D02*
X61720000Y-49250000D01*
X61720000Y-49250000D02*
X57600000Y-49250000D01*
X57600000Y-49250000D02*
X57160000Y-48810000D01*
X65535000Y-54427299D02*
X65535000Y-55400701D01*
X65760000Y-54202299D02*
X65535000Y-54427299D01*
X55776609Y-53390000D02*
X56226609Y-52940000D01*
X65250000Y-52940000D02*
X65760000Y-53450000D01*
X56226609Y-52940000D02*
X65250000Y-52940000D01*
X46898000Y-53390000D02*
X55776609Y-53390000D01*
X65535000Y-55400701D02*
X66160000Y-56025701D01*
X65760000Y-53450000D02*
X65760000Y-54202299D01*
X45540000Y-52032000D02*
X46898000Y-53390000D01*
X45540000Y-49125000D02*
X45540000Y-52032000D01*
X44102700Y-47687700D02*
X45540000Y-49125000D01*
X66160000Y-56904000D02*
X66710000Y-57454000D01*
X43302700Y-47687700D02*
X44102700Y-47687700D01*
X43290000Y-47675000D02*
X43302700Y-47687700D01*
X66160000Y-56025701D02*
X66160000Y-56904000D01*
X56322299Y-53480000D02*
X64727900Y-53480000D01*
X64727900Y-53480000D02*
X64912400Y-53664500D01*
X56550000Y-57454000D02*
X55330000Y-56234000D01*
X55330000Y-56234000D02*
X55330000Y-54472299D01*
X55330000Y-54472299D02*
X56322299Y-53480000D01*
X37594999Y-57189001D02*
X37594999Y-53803001D01*
X38205500Y-53192500D02*
X38205500Y-53136000D01*
X37330000Y-57454000D02*
X37594999Y-57189001D01*
X37594999Y-53803001D02*
X38205500Y-53192500D01*
X36230000Y-57454000D02*
X37330000Y-57454000D01*
D16*
X86354997Y-41009403D02*
X86006000Y-41358400D01*
X86006000Y-41358400D02*
X86006000Y-50844001D01*
X86006000Y-50844001D02*
X86265999Y-51104000D01*
D15*
X54670400Y-50264600D02*
X54670400Y-50900800D01*
X54670400Y-50900800D02*
X53959200Y-51612000D01*
X53202598Y-51612000D02*
X52737299Y-52077299D01*
X53959200Y-51612000D02*
X53202598Y-51612000D01*
X54720000Y-50215000D02*
X54670400Y-50264600D01*
D16*
X66510000Y-51240000D02*
X66030000Y-50760000D01*
X66030000Y-50760000D02*
X65440000Y-50170000D01*
X45780400Y-45770000D02*
X55700000Y-45770000D01*
X66150000Y-47260000D02*
X66150000Y-50640000D01*
X55700000Y-45770000D02*
X55980000Y-45490000D01*
X55980000Y-45490000D02*
X64380000Y-45490000D01*
X64380000Y-45490000D02*
X66150000Y-47260000D01*
X66150000Y-50640000D02*
X66030000Y-50760000D01*
X50835000Y-49580000D02*
X50835000Y-46950000D01*
X50835000Y-46950000D02*
X51425000Y-46360000D01*
X65440000Y-47484500D02*
X64315501Y-46360001D01*
X65440000Y-50170000D02*
X65440000Y-47484500D01*
X51425000Y-46360000D02*
X56295480Y-46360001D01*
X64315501Y-46360001D02*
X56295480Y-46360001D01*
D15*
X61820000Y-47680000D02*
X56505500Y-47680000D01*
X56505500Y-47680000D02*
X56435500Y-47610000D01*
X79162800Y-47817200D02*
X80235500Y-46744500D01*
X67438802Y-48960000D02*
X68581602Y-47817200D01*
X67030000Y-48960000D02*
X67438802Y-48960000D01*
D16*
X68881700Y-48868300D02*
X68881700Y-48541700D01*
D15*
X68581602Y-47817200D02*
X79162800Y-47817200D01*
D16*
X66510000Y-51240000D02*
X68881700Y-48868300D01*
D15*
X79609898Y-41185300D02*
X80616251Y-42191653D01*
X84360000Y-43576342D02*
X83804200Y-43020542D01*
X83969501Y-53034199D02*
X84360000Y-52643700D01*
X81950000Y-57454000D02*
X82828299Y-57454000D01*
X81103734Y-42642275D02*
X81104898Y-42643439D01*
X81104898Y-42663999D02*
X81113158Y-42672259D01*
X82280000Y-50355690D02*
X82280000Y-52370000D01*
X82779501Y-44680730D02*
X82779501Y-49856189D01*
X82828299Y-57454000D02*
X83660000Y-56622299D01*
X81103734Y-42616055D02*
X81103734Y-42642275D01*
X83461574Y-43942406D02*
X83461574Y-49255999D01*
X83969501Y-53530189D02*
X83969501Y-53034199D01*
X83461574Y-49255999D02*
X83504001Y-49298426D01*
X83804200Y-38289700D02*
X83905800Y-38188100D01*
X83475876Y-43928104D02*
X83461574Y-43942406D01*
X83475876Y-43327908D02*
X83475876Y-43928104D01*
X83804200Y-43020542D02*
X83804200Y-38289700D01*
X81113158Y-42672259D02*
X81113158Y-42673852D01*
X80616251Y-42191653D02*
X80679332Y-42191653D01*
X79876771Y-52123229D02*
X82330000Y-49670000D01*
X80679332Y-42191653D02*
X81103734Y-42616055D01*
X81114319Y-42681166D02*
X81120774Y-42687621D01*
X82330000Y-49670000D02*
X82330000Y-44866919D01*
X81113158Y-42673852D02*
X81114319Y-42675013D01*
X81120774Y-42687621D02*
X81120774Y-42696176D01*
X83315000Y-55400701D02*
X83314999Y-54184691D01*
X70423009Y-52123229D02*
X79876771Y-52123229D01*
X81120774Y-42696176D02*
X81509501Y-43084903D01*
X78965500Y-41185300D02*
X79609898Y-41185300D01*
X82779501Y-49856189D02*
X82280000Y-50355690D01*
X83660000Y-56622299D02*
X83660000Y-55745701D01*
X83054900Y-42906932D02*
X83475876Y-43327908D01*
X81509501Y-43410730D02*
X82779501Y-44680730D01*
X83054900Y-38810400D02*
X83054900Y-42906932D01*
X82280000Y-52370000D02*
X81624547Y-53025453D01*
X70146775Y-53025453D02*
X70096845Y-53075383D01*
X83314999Y-54184691D02*
X83969501Y-53530189D01*
X81509501Y-43084903D02*
X81509501Y-43410730D01*
X84360000Y-52643700D02*
X84360000Y-43576342D01*
X81104898Y-42643439D02*
X81104898Y-42663999D01*
X82330000Y-44866919D02*
X80379234Y-42916153D01*
X81114319Y-42675013D02*
X81114319Y-42681166D01*
X81624547Y-53025453D02*
X70146775Y-53025453D01*
X83660000Y-55745701D02*
X83315000Y-55400701D01*
D16*
X87366200Y-35241700D02*
X87366200Y-35106200D01*
X87366200Y-35106200D02*
X86219000Y-33959000D01*
X86219000Y-33959000D02*
X83550200Y-33959000D01*
D15*
X66980000Y-47700000D02*
X67950000Y-47700000D01*
X68680000Y-46970000D02*
X78100000Y-46970000D01*
X67950000Y-47700000D02*
X68680000Y-46970000D01*
X78100000Y-46970000D02*
X78160000Y-47030000D01*
X78160000Y-47030000D02*
X78965500Y-46224500D01*
X78965500Y-46224500D02*
X78965500Y-46216000D01*
X66920000Y-46440000D02*
X77471500Y-46440000D01*
X77471500Y-46440000D02*
X77695500Y-46216000D01*
D16*
X67960000Y-53582554D02*
X67960000Y-55391767D01*
X66510000Y-51240000D02*
X66510000Y-52132554D01*
X66510000Y-52132554D02*
X67960000Y-53582554D01*
X67960000Y-55391767D02*
X68772232Y-56203999D01*
X68772232Y-56203999D02*
X78159999Y-56203999D01*
X78159999Y-56203999D02*
X79410000Y-57454000D01*
D15*
X83504001Y-53359999D02*
X83504001Y-49298426D01*
X81950000Y-54914000D02*
X83504001Y-53359999D01*
X85084500Y-47839902D02*
X85084500Y-48500098D01*
X84490000Y-53149390D02*
X84490000Y-54914000D01*
X84809501Y-39815702D02*
X84809501Y-47564903D01*
X84809501Y-47564903D02*
X85084500Y-47839902D01*
X85084500Y-48500098D02*
X84809501Y-48775097D01*
X84809501Y-48775097D02*
X84809501Y-52829889D01*
X84809501Y-52829889D02*
X84490000Y-53149390D01*
X84529200Y-39535401D02*
X84809501Y-39815702D01*
X65350000Y-56250000D02*
X57886000Y-56250000D01*
X57886000Y-56250000D02*
X56550000Y-54914000D01*
D16*
X54714500Y-37724200D02*
X54720000Y-37729700D01*
X43590000Y-37724200D02*
X54714500Y-37724200D01*
X66988200Y-37729700D02*
X67027500Y-37769000D01*
X54720000Y-37729700D02*
X66988200Y-37729700D01*
X67027500Y-37769000D02*
X70799400Y-33997100D01*
X70799400Y-33997100D02*
X83550200Y-33959000D01*
X50835000Y-49580000D02*
X50200000Y-50215000D01*
X50200000Y-50215000D02*
X48220000Y-50215000D01*
D15*
X44408800Y-48945000D02*
X43290000Y-48945000D01*
X45025001Y-49561201D02*
X44408800Y-48945000D01*
X45025001Y-56278999D02*
X45025001Y-49561201D01*
X43850000Y-57454000D02*
X45025001Y-56278999D01*
X38541400Y-43826900D02*
X42722231Y-39646069D01*
X73036031Y-39646069D02*
X73822000Y-38860100D01*
X42722231Y-39646069D02*
X73036031Y-39646069D01*
X38541400Y-43826900D02*
X38541400Y-43877700D01*
X38541400Y-43877700D02*
X36750700Y-43877700D01*
X77695500Y-40683258D02*
X77695500Y-41069500D01*
X77108321Y-40096079D02*
X77695500Y-40683258D01*
X51047921Y-40096079D02*
X77108321Y-40096079D01*
X49857100Y-41286900D02*
X51047921Y-40096079D01*
X49857100Y-41286900D02*
X48155300Y-41286900D01*
X49984100Y-42531500D02*
X51969511Y-40546089D01*
X73851611Y-40546089D02*
X76027589Y-40546089D01*
X51969511Y-40546089D02*
X73851611Y-40546089D01*
X76425500Y-40944000D02*
X76425500Y-41069500D01*
X76027589Y-40546089D02*
X76425500Y-40944000D01*
X49984100Y-42531500D02*
X48269600Y-42531500D01*
X48220000Y-42581100D02*
X48220000Y-42595000D01*
X48269600Y-42531500D02*
X48220000Y-42581100D01*
X75030510Y-41146099D02*
X75155500Y-41271089D01*
X52664901Y-41146099D02*
X75030510Y-41146099D01*
X49984100Y-43826900D02*
X52664901Y-41146099D01*
X49984100Y-43826900D02*
X48256900Y-43826900D01*
X38465200Y-42531500D02*
X41856100Y-39140600D01*
X72459469Y-39140600D02*
X72679000Y-38921069D01*
X41856100Y-39140600D02*
X72459469Y-39140600D01*
X38465200Y-42531500D02*
X36776100Y-42531500D01*
X36790000Y-42545400D02*
X36790000Y-42595000D01*
X36776100Y-42531500D02*
X36790000Y-42545400D01*
G04 #@! TA.AperFunction,Conductor*
G36*
X88733621Y-33678502D02*
G01*
X88780114Y-33732158D01*
X88791500Y-33784500D01*
X88791500Y-59015500D01*
X88771498Y-59083621D01*
X88717842Y-59130114D01*
X88665500Y-59141500D01*
X34434500Y-59141500D01*
X34366379Y-59121498D01*
X34319886Y-59067842D01*
X34308500Y-59015500D01*
X34308500Y-54880695D01*
X34867251Y-54880695D01*
X34867548Y-54885848D01*
X34867548Y-54885851D01*
X34873011Y-54980590D01*
X34880110Y-55103715D01*
X34881247Y-55108761D01*
X34881248Y-55108767D01*
X34888458Y-55140759D01*
X34929222Y-55321639D01*
X35013266Y-55528616D01*
X35053041Y-55593523D01*
X35127291Y-55714688D01*
X35129987Y-55719088D01*
X35276250Y-55887938D01*
X35280230Y-55891242D01*
X35284981Y-55895187D01*
X35324616Y-55954090D01*
X35326113Y-56025071D01*
X35288997Y-56085593D01*
X35248725Y-56110112D01*
X35201129Y-56127955D01*
X35133295Y-56153385D01*
X35016739Y-56240739D01*
X34929385Y-56357295D01*
X34878255Y-56493684D01*
X34871500Y-56555866D01*
X34871500Y-58352134D01*
X34878255Y-58414316D01*
X34929385Y-58550705D01*
X35016739Y-58667261D01*
X35133295Y-58754615D01*
X35269684Y-58805745D01*
X35331866Y-58812500D01*
X37128134Y-58812500D01*
X37190316Y-58805745D01*
X37326705Y-58754615D01*
X37443261Y-58667261D01*
X37530615Y-58550705D01*
X37552799Y-58491529D01*
X37574598Y-58433382D01*
X37617240Y-58376618D01*
X37683802Y-58351918D01*
X37753150Y-58367126D01*
X37787817Y-58395114D01*
X37816250Y-58427938D01*
X37988126Y-58570632D01*
X38181000Y-58683338D01*
X38389692Y-58763030D01*
X38394760Y-58764061D01*
X38394763Y-58764062D01*
X38502017Y-58785883D01*
X38608597Y-58807567D01*
X38613772Y-58807757D01*
X38613774Y-58807757D01*
X38826673Y-58815564D01*
X38826677Y-58815564D01*
X38831837Y-58815753D01*
X38836957Y-58815097D01*
X38836959Y-58815097D01*
X39048288Y-58788025D01*
X39048289Y-58788025D01*
X39053416Y-58787368D01*
X39058366Y-58785883D01*
X39262429Y-58724661D01*
X39262434Y-58724659D01*
X39267384Y-58723174D01*
X39467994Y-58624896D01*
X39649860Y-58495173D01*
X39808096Y-58337489D01*
X39938453Y-58156077D01*
X39939776Y-58157028D01*
X39986645Y-58113857D01*
X40056580Y-58101625D01*
X40122026Y-58129144D01*
X40149875Y-58160994D01*
X40209987Y-58259088D01*
X40356250Y-58427938D01*
X40528126Y-58570632D01*
X40721000Y-58683338D01*
X40929692Y-58763030D01*
X40934760Y-58764061D01*
X40934763Y-58764062D01*
X41042017Y-58785883D01*
X41148597Y-58807567D01*
X41153772Y-58807757D01*
X41153774Y-58807757D01*
X41366673Y-58815564D01*
X41366677Y-58815564D01*
X41371837Y-58815753D01*
X41376957Y-58815097D01*
X41376959Y-58815097D01*
X41588288Y-58788025D01*
X41588289Y-58788025D01*
X41593416Y-58787368D01*
X41598366Y-58785883D01*
X41802429Y-58724661D01*
X41802434Y-58724659D01*
X41807384Y-58723174D01*
X42007994Y-58624896D01*
X42189860Y-58495173D01*
X42348096Y-58337489D01*
X42478453Y-58156077D01*
X42479776Y-58157028D01*
X42526645Y-58113857D01*
X42596580Y-58101625D01*
X42662026Y-58129144D01*
X42689875Y-58160994D01*
X42749987Y-58259088D01*
X42896250Y-58427938D01*
X43068126Y-58570632D01*
X43261000Y-58683338D01*
X43469692Y-58763030D01*
X43474760Y-58764061D01*
X43474763Y-58764062D01*
X43582017Y-58785883D01*
X43688597Y-58807567D01*
X43693772Y-58807757D01*
X43693774Y-58807757D01*
X43906673Y-58815564D01*
X43906677Y-58815564D01*
X43911837Y-58815753D01*
X43916957Y-58815097D01*
X43916959Y-58815097D01*
X44128288Y-58788025D01*
X44128289Y-58788025D01*
X44133416Y-58787368D01*
X44138366Y-58785883D01*
X44342429Y-58724661D01*
X44342434Y-58724659D01*
X44347384Y-58723174D01*
X44547994Y-58624896D01*
X44729860Y-58495173D01*
X44888096Y-58337489D01*
X45018453Y-58156077D01*
X45019776Y-58157028D01*
X45066645Y-58113857D01*
X45136580Y-58101625D01*
X45202026Y-58129144D01*
X45229875Y-58160994D01*
X45289987Y-58259088D01*
X45436250Y-58427938D01*
X45608126Y-58570632D01*
X45801000Y-58683338D01*
X46009692Y-58763030D01*
X46014760Y-58764061D01*
X46014763Y-58764062D01*
X46122017Y-58785883D01*
X46228597Y-58807567D01*
X46233772Y-58807757D01*
X46233774Y-58807757D01*
X46446673Y-58815564D01*
X46446677Y-58815564D01*
X46451837Y-58815753D01*
X46456957Y-58815097D01*
X46456959Y-58815097D01*
X46668288Y-58788025D01*
X46668289Y-58788025D01*
X46673416Y-58787368D01*
X46678366Y-58785883D01*
X46882429Y-58724661D01*
X46882434Y-58724659D01*
X46887384Y-58723174D01*
X47087994Y-58624896D01*
X47269860Y-58495173D01*
X47428096Y-58337489D01*
X47558453Y-58156077D01*
X47559776Y-58157028D01*
X47606645Y-58113857D01*
X47676580Y-58101625D01*
X47742026Y-58129144D01*
X47769875Y-58160994D01*
X47829987Y-58259088D01*
X47976250Y-58427938D01*
X48148126Y-58570632D01*
X48341000Y-58683338D01*
X48549692Y-58763030D01*
X48554760Y-58764061D01*
X48554763Y-58764062D01*
X48662017Y-58785883D01*
X48768597Y-58807567D01*
X48773772Y-58807757D01*
X48773774Y-58807757D01*
X48986673Y-58815564D01*
X48986677Y-58815564D01*
X48991837Y-58815753D01*
X48996957Y-58815097D01*
X48996959Y-58815097D01*
X49208288Y-58788025D01*
X49208289Y-58788025D01*
X49213416Y-58787368D01*
X49218366Y-58785883D01*
X49422429Y-58724661D01*
X49422434Y-58724659D01*
X49427384Y-58723174D01*
X49627994Y-58624896D01*
X49809860Y-58495173D01*
X49968096Y-58337489D01*
X50098453Y-58156077D01*
X50099776Y-58157028D01*
X50146645Y-58113857D01*
X50216580Y-58101625D01*
X50282026Y-58129144D01*
X50309875Y-58160994D01*
X50369987Y-58259088D01*
X50516250Y-58427938D01*
X50688126Y-58570632D01*
X50881000Y-58683338D01*
X51089692Y-58763030D01*
X51094760Y-58764061D01*
X51094763Y-58764062D01*
X51202017Y-58785883D01*
X51308597Y-58807567D01*
X51313772Y-58807757D01*
X51313774Y-58807757D01*
X51526673Y-58815564D01*
X51526677Y-58815564D01*
X51531837Y-58815753D01*
X51536957Y-58815097D01*
X51536959Y-58815097D01*
X51748288Y-58788025D01*
X51748289Y-58788025D01*
X51753416Y-58787368D01*
X51758366Y-58785883D01*
X51962429Y-58724661D01*
X51962434Y-58724659D01*
X51967384Y-58723174D01*
X52167994Y-58624896D01*
X52349860Y-58495173D01*
X52508096Y-58337489D01*
X52638453Y-58156077D01*
X52639776Y-58157028D01*
X52686645Y-58113857D01*
X52756580Y-58101625D01*
X52822026Y-58129144D01*
X52849875Y-58160994D01*
X52909987Y-58259088D01*
X53056250Y-58427938D01*
X53228126Y-58570632D01*
X53421000Y-58683338D01*
X53629692Y-58763030D01*
X53634760Y-58764061D01*
X53634763Y-58764062D01*
X53742017Y-58785883D01*
X53848597Y-58807567D01*
X53853772Y-58807757D01*
X53853774Y-58807757D01*
X54066673Y-58815564D01*
X54066677Y-58815564D01*
X54071837Y-58815753D01*
X54076957Y-58815097D01*
X54076959Y-58815097D01*
X54288288Y-58788025D01*
X54288289Y-58788025D01*
X54293416Y-58787368D01*
X54298366Y-58785883D01*
X54502429Y-58724661D01*
X54502434Y-58724659D01*
X54507384Y-58723174D01*
X54707994Y-58624896D01*
X54889860Y-58495173D01*
X55048096Y-58337489D01*
X55178453Y-58156077D01*
X55179776Y-58157028D01*
X55226645Y-58113857D01*
X55296580Y-58101625D01*
X55362026Y-58129144D01*
X55389875Y-58160994D01*
X55449987Y-58259088D01*
X55596250Y-58427938D01*
X55768126Y-58570632D01*
X55961000Y-58683338D01*
X56169692Y-58763030D01*
X56174760Y-58764061D01*
X56174763Y-58764062D01*
X56282017Y-58785883D01*
X56388597Y-58807567D01*
X56393772Y-58807757D01*
X56393774Y-58807757D01*
X56606673Y-58815564D01*
X56606677Y-58815564D01*
X56611837Y-58815753D01*
X56616957Y-58815097D01*
X56616959Y-58815097D01*
X56828288Y-58788025D01*
X56828289Y-58788025D01*
X56833416Y-58787368D01*
X56838366Y-58785883D01*
X57042429Y-58724661D01*
X57042434Y-58724659D01*
X57047384Y-58723174D01*
X57247994Y-58624896D01*
X57429860Y-58495173D01*
X57588096Y-58337489D01*
X57718453Y-58156077D01*
X57719776Y-58157028D01*
X57766645Y-58113857D01*
X57836580Y-58101625D01*
X57902026Y-58129144D01*
X57929875Y-58160994D01*
X57989987Y-58259088D01*
X58136250Y-58427938D01*
X58308126Y-58570632D01*
X58501000Y-58683338D01*
X58709692Y-58763030D01*
X58714760Y-58764061D01*
X58714763Y-58764062D01*
X58822017Y-58785883D01*
X58928597Y-58807567D01*
X58933772Y-58807757D01*
X58933774Y-58807757D01*
X59146673Y-58815564D01*
X59146677Y-58815564D01*
X59151837Y-58815753D01*
X59156957Y-58815097D01*
X59156959Y-58815097D01*
X59368288Y-58788025D01*
X59368289Y-58788025D01*
X59373416Y-58787368D01*
X59378366Y-58785883D01*
X59582429Y-58724661D01*
X59582434Y-58724659D01*
X59587384Y-58723174D01*
X59787994Y-58624896D01*
X59969860Y-58495173D01*
X60128096Y-58337489D01*
X60258453Y-58156077D01*
X60259776Y-58157028D01*
X60306645Y-58113857D01*
X60376580Y-58101625D01*
X60442026Y-58129144D01*
X60469875Y-58160994D01*
X60529987Y-58259088D01*
X60676250Y-58427938D01*
X60848126Y-58570632D01*
X61041000Y-58683338D01*
X61249692Y-58763030D01*
X61254760Y-58764061D01*
X61254763Y-58764062D01*
X61362017Y-58785883D01*
X61468597Y-58807567D01*
X61473772Y-58807757D01*
X61473774Y-58807757D01*
X61686673Y-58815564D01*
X61686677Y-58815564D01*
X61691837Y-58815753D01*
X61696957Y-58815097D01*
X61696959Y-58815097D01*
X61908288Y-58788025D01*
X61908289Y-58788025D01*
X61913416Y-58787368D01*
X61918366Y-58785883D01*
X62122429Y-58724661D01*
X62122434Y-58724659D01*
X62127384Y-58723174D01*
X62327994Y-58624896D01*
X62509860Y-58495173D01*
X62668096Y-58337489D01*
X62798453Y-58156077D01*
X62799776Y-58157028D01*
X62846645Y-58113857D01*
X62916580Y-58101625D01*
X62982026Y-58129144D01*
X63009875Y-58160994D01*
X63069987Y-58259088D01*
X63216250Y-58427938D01*
X63388126Y-58570632D01*
X63581000Y-58683338D01*
X63789692Y-58763030D01*
X63794760Y-58764061D01*
X63794763Y-58764062D01*
X63902017Y-58785883D01*
X64008597Y-58807567D01*
X64013772Y-58807757D01*
X64013774Y-58807757D01*
X64226673Y-58815564D01*
X64226677Y-58815564D01*
X64231837Y-58815753D01*
X64236957Y-58815097D01*
X64236959Y-58815097D01*
X64448288Y-58788025D01*
X64448289Y-58788025D01*
X64453416Y-58787368D01*
X64458366Y-58785883D01*
X64662429Y-58724661D01*
X64662434Y-58724659D01*
X64667384Y-58723174D01*
X64867994Y-58624896D01*
X65049860Y-58495173D01*
X65208096Y-58337489D01*
X65338453Y-58156077D01*
X65339776Y-58157028D01*
X65386645Y-58113857D01*
X65456580Y-58101625D01*
X65522026Y-58129144D01*
X65549875Y-58160994D01*
X65609987Y-58259088D01*
X65756250Y-58427938D01*
X65928126Y-58570632D01*
X66121000Y-58683338D01*
X66329692Y-58763030D01*
X66334760Y-58764061D01*
X66334763Y-58764062D01*
X66442017Y-58785883D01*
X66548597Y-58807567D01*
X66553772Y-58807757D01*
X66553774Y-58807757D01*
X66766673Y-58815564D01*
X66766677Y-58815564D01*
X66771837Y-58815753D01*
X66776957Y-58815097D01*
X66776959Y-58815097D01*
X66988288Y-58788025D01*
X66988289Y-58788025D01*
X66993416Y-58787368D01*
X66998366Y-58785883D01*
X67202429Y-58724661D01*
X67202434Y-58724659D01*
X67207384Y-58723174D01*
X67407994Y-58624896D01*
X67589860Y-58495173D01*
X67748096Y-58337489D01*
X67878453Y-58156077D01*
X67879776Y-58157028D01*
X67926645Y-58113857D01*
X67996580Y-58101625D01*
X68062026Y-58129144D01*
X68089875Y-58160994D01*
X68149987Y-58259088D01*
X68296250Y-58427938D01*
X68468126Y-58570632D01*
X68661000Y-58683338D01*
X68869692Y-58763030D01*
X68874760Y-58764061D01*
X68874763Y-58764062D01*
X68982017Y-58785883D01*
X69088597Y-58807567D01*
X69093772Y-58807757D01*
X69093774Y-58807757D01*
X69306673Y-58815564D01*
X69306677Y-58815564D01*
X69311837Y-58815753D01*
X69316957Y-58815097D01*
X69316959Y-58815097D01*
X69528288Y-58788025D01*
X69528289Y-58788025D01*
X69533416Y-58787368D01*
X69538366Y-58785883D01*
X69742429Y-58724661D01*
X69742434Y-58724659D01*
X69747384Y-58723174D01*
X69947994Y-58624896D01*
X70129860Y-58495173D01*
X70288096Y-58337489D01*
X70418453Y-58156077D01*
X70419776Y-58157028D01*
X70466645Y-58113857D01*
X70536580Y-58101625D01*
X70602026Y-58129144D01*
X70629875Y-58160994D01*
X70689987Y-58259088D01*
X70836250Y-58427938D01*
X71008126Y-58570632D01*
X71201000Y-58683338D01*
X71409692Y-58763030D01*
X71414760Y-58764061D01*
X71414763Y-58764062D01*
X71522017Y-58785883D01*
X71628597Y-58807567D01*
X71633772Y-58807757D01*
X71633774Y-58807757D01*
X71846673Y-58815564D01*
X71846677Y-58815564D01*
X71851837Y-58815753D01*
X71856957Y-58815097D01*
X71856959Y-58815097D01*
X72068288Y-58788025D01*
X72068289Y-58788025D01*
X72073416Y-58787368D01*
X72078366Y-58785883D01*
X72282429Y-58724661D01*
X72282434Y-58724659D01*
X72287384Y-58723174D01*
X72487994Y-58624896D01*
X72669860Y-58495173D01*
X72828096Y-58337489D01*
X72958453Y-58156077D01*
X72959776Y-58157028D01*
X73006645Y-58113857D01*
X73076580Y-58101625D01*
X73142026Y-58129144D01*
X73169875Y-58160994D01*
X73229987Y-58259088D01*
X73376250Y-58427938D01*
X73548126Y-58570632D01*
X73741000Y-58683338D01*
X73949692Y-58763030D01*
X73954760Y-58764061D01*
X73954763Y-58764062D01*
X74062017Y-58785883D01*
X74168597Y-58807567D01*
X74173772Y-58807757D01*
X74173774Y-58807757D01*
X74386673Y-58815564D01*
X74386677Y-58815564D01*
X74391837Y-58815753D01*
X74396957Y-58815097D01*
X74396959Y-58815097D01*
X74608288Y-58788025D01*
X74608289Y-58788025D01*
X74613416Y-58787368D01*
X74618366Y-58785883D01*
X74822429Y-58724661D01*
X74822434Y-58724659D01*
X74827384Y-58723174D01*
X75027994Y-58624896D01*
X75209860Y-58495173D01*
X75368096Y-58337489D01*
X75498453Y-58156077D01*
X75499776Y-58157028D01*
X75546645Y-58113857D01*
X75616580Y-58101625D01*
X75682026Y-58129144D01*
X75709875Y-58160994D01*
X75769987Y-58259088D01*
X75916250Y-58427938D01*
X76088126Y-58570632D01*
X76281000Y-58683338D01*
X76489692Y-58763030D01*
X76494760Y-58764061D01*
X76494763Y-58764062D01*
X76602017Y-58785883D01*
X76708597Y-58807567D01*
X76713772Y-58807757D01*
X76713774Y-58807757D01*
X76926673Y-58815564D01*
X76926677Y-58815564D01*
X76931837Y-58815753D01*
X76936957Y-58815097D01*
X76936959Y-58815097D01*
X77148288Y-58788025D01*
X77148289Y-58788025D01*
X77153416Y-58787368D01*
X77158366Y-58785883D01*
X77362429Y-58724661D01*
X77362434Y-58724659D01*
X77367384Y-58723174D01*
X77567994Y-58624896D01*
X77749860Y-58495173D01*
X77908096Y-58337489D01*
X78038453Y-58156077D01*
X78039776Y-58157028D01*
X78086645Y-58113857D01*
X78156580Y-58101625D01*
X78222026Y-58129144D01*
X78249875Y-58160994D01*
X78309987Y-58259088D01*
X78456250Y-58427938D01*
X78628126Y-58570632D01*
X78821000Y-58683338D01*
X79029692Y-58763030D01*
X79034760Y-58764061D01*
X79034763Y-58764062D01*
X79142017Y-58785883D01*
X79248597Y-58807567D01*
X79253772Y-58807757D01*
X79253774Y-58807757D01*
X79466673Y-58815564D01*
X79466677Y-58815564D01*
X79471837Y-58815753D01*
X79476957Y-58815097D01*
X79476959Y-58815097D01*
X79688288Y-58788025D01*
X79688289Y-58788025D01*
X79693416Y-58787368D01*
X79698366Y-58785883D01*
X79902429Y-58724661D01*
X79902434Y-58724659D01*
X79907384Y-58723174D01*
X80107994Y-58624896D01*
X80289860Y-58495173D01*
X80448096Y-58337489D01*
X80578453Y-58156077D01*
X80579776Y-58157028D01*
X80626645Y-58113857D01*
X80696580Y-58101625D01*
X80762026Y-58129144D01*
X80789875Y-58160994D01*
X80849987Y-58259088D01*
X80996250Y-58427938D01*
X81168126Y-58570632D01*
X81361000Y-58683338D01*
X81569692Y-58763030D01*
X81574760Y-58764061D01*
X81574763Y-58764062D01*
X81682017Y-58785883D01*
X81788597Y-58807567D01*
X81793772Y-58807757D01*
X81793774Y-58807757D01*
X82006673Y-58815564D01*
X82006677Y-58815564D01*
X82011837Y-58815753D01*
X82016957Y-58815097D01*
X82016959Y-58815097D01*
X82228288Y-58788025D01*
X82228289Y-58788025D01*
X82233416Y-58787368D01*
X82238366Y-58785883D01*
X82442429Y-58724661D01*
X82442434Y-58724659D01*
X82447384Y-58723174D01*
X82647994Y-58624896D01*
X82829860Y-58495173D01*
X82988096Y-58337489D01*
X83118453Y-58156077D01*
X83119774Y-58157026D01*
X83166663Y-58113849D01*
X83236600Y-58101628D01*
X83302042Y-58129158D01*
X83329874Y-58160995D01*
X83387285Y-58254680D01*
X83387290Y-58254687D01*
X83389987Y-58259088D01*
X83536250Y-58427938D01*
X83708126Y-58570632D01*
X83901000Y-58683338D01*
X84109692Y-58763030D01*
X84114760Y-58764061D01*
X84114763Y-58764062D01*
X84222017Y-58785883D01*
X84328597Y-58807567D01*
X84333772Y-58807757D01*
X84333774Y-58807757D01*
X84546673Y-58815564D01*
X84546677Y-58815564D01*
X84551837Y-58815753D01*
X84556957Y-58815097D01*
X84556959Y-58815097D01*
X84768288Y-58788025D01*
X84768289Y-58788025D01*
X84773416Y-58787368D01*
X84778366Y-58785883D01*
X84982429Y-58724661D01*
X84982434Y-58724659D01*
X84987384Y-58723174D01*
X85187994Y-58624896D01*
X85369860Y-58495173D01*
X85528096Y-58337489D01*
X85658453Y-58156077D01*
X85659776Y-58157028D01*
X85706645Y-58113857D01*
X85776580Y-58101625D01*
X85842026Y-58129144D01*
X85869875Y-58160994D01*
X85929987Y-58259088D01*
X86076250Y-58427938D01*
X86248126Y-58570632D01*
X86441000Y-58683338D01*
X86649692Y-58763030D01*
X86654760Y-58764061D01*
X86654763Y-58764062D01*
X86762017Y-58785883D01*
X86868597Y-58807567D01*
X86873772Y-58807757D01*
X86873774Y-58807757D01*
X87086673Y-58815564D01*
X87086677Y-58815564D01*
X87091837Y-58815753D01*
X87096957Y-58815097D01*
X87096959Y-58815097D01*
X87308288Y-58788025D01*
X87308289Y-58788025D01*
X87313416Y-58787368D01*
X87318366Y-58785883D01*
X87522429Y-58724661D01*
X87522434Y-58724659D01*
X87527384Y-58723174D01*
X87727994Y-58624896D01*
X87909860Y-58495173D01*
X88068096Y-58337489D01*
X88198453Y-58156077D01*
X88219320Y-58113857D01*
X88295136Y-57960453D01*
X88295137Y-57960451D01*
X88297430Y-57955811D01*
X88362370Y-57742069D01*
X88391529Y-57520590D01*
X88393156Y-57454000D01*
X88374852Y-57231361D01*
X88320431Y-57014702D01*
X88231354Y-56809840D01*
X88191906Y-56748862D01*
X88112822Y-56626617D01*
X88112820Y-56626614D01*
X88110014Y-56622277D01*
X87959670Y-56457051D01*
X87955619Y-56453852D01*
X87955615Y-56453848D01*
X87788414Y-56321800D01*
X87788410Y-56321798D01*
X87784359Y-56318598D01*
X87743053Y-56295796D01*
X87693084Y-56245364D01*
X87678312Y-56175921D01*
X87703428Y-56109516D01*
X87730780Y-56082909D01*
X87792323Y-56039011D01*
X87909860Y-55955173D01*
X87931457Y-55933652D01*
X88064435Y-55801137D01*
X88068096Y-55797489D01*
X88127594Y-55714689D01*
X88195435Y-55620277D01*
X88198453Y-55616077D01*
X88219320Y-55573857D01*
X88295136Y-55420453D01*
X88295137Y-55420451D01*
X88297430Y-55415811D01*
X88362370Y-55202069D01*
X88391529Y-54980590D01*
X88393156Y-54914000D01*
X88374852Y-54691361D01*
X88346261Y-54577536D01*
X88349065Y-54506595D01*
X88376615Y-54460588D01*
X88391159Y-54445100D01*
X88396586Y-54439321D01*
X88404236Y-54425406D01*
X88406346Y-54421568D01*
X88417202Y-54405041D01*
X88424757Y-54395302D01*
X88424758Y-54395300D01*
X88429614Y-54389040D01*
X88447174Y-54348460D01*
X88452391Y-54337812D01*
X88469875Y-54306009D01*
X88469876Y-54306007D01*
X88473695Y-54299060D01*
X88478733Y-54279437D01*
X88485137Y-54260734D01*
X88490033Y-54249420D01*
X88490033Y-54249419D01*
X88493181Y-54242145D01*
X88494420Y-54234322D01*
X88494423Y-54234312D01*
X88500099Y-54198476D01*
X88502505Y-54186856D01*
X88511528Y-54151711D01*
X88511528Y-54151710D01*
X88513500Y-54144030D01*
X88513500Y-54123776D01*
X88515051Y-54104065D01*
X88516980Y-54091886D01*
X88518220Y-54084057D01*
X88514059Y-54040038D01*
X88513500Y-54028181D01*
X88513500Y-47994267D01*
X88514027Y-47983084D01*
X88515702Y-47975591D01*
X88513562Y-47907514D01*
X88513500Y-47903555D01*
X88513500Y-47875644D01*
X88512995Y-47871644D01*
X88512062Y-47859801D01*
X88510922Y-47823529D01*
X88510673Y-47815610D01*
X88505022Y-47796158D01*
X88501014Y-47776806D01*
X88499467Y-47764563D01*
X88498474Y-47756703D01*
X88488853Y-47732402D01*
X88482200Y-47715597D01*
X88478355Y-47704370D01*
X88471729Y-47681565D01*
X88466018Y-47661907D01*
X88461984Y-47655085D01*
X88461981Y-47655079D01*
X88455706Y-47644468D01*
X88447010Y-47626718D01*
X88442472Y-47615256D01*
X88442469Y-47615251D01*
X88439552Y-47607883D01*
X88413573Y-47572125D01*
X88407057Y-47562207D01*
X88391332Y-47535618D01*
X88384542Y-47524137D01*
X88371622Y-47511217D01*
X88337596Y-47448905D01*
X88335407Y-47435292D01*
X88332666Y-47409207D01*
X88322210Y-47309729D01*
X88318732Y-47276635D01*
X88318732Y-47276633D01*
X88318042Y-47270072D01*
X88259027Y-47088444D01*
X88252805Y-47077667D01*
X88180381Y-46952225D01*
X88163500Y-46889225D01*
X88163500Y-39188767D01*
X88164027Y-39177584D01*
X88165702Y-39170091D01*
X88163562Y-39102000D01*
X88163500Y-39098043D01*
X88163500Y-39070144D01*
X88162996Y-39066153D01*
X88162063Y-39054311D01*
X88160923Y-39018036D01*
X88160674Y-39010111D01*
X88158462Y-39002497D01*
X88158461Y-39002492D01*
X88155023Y-38990659D01*
X88151012Y-38971295D01*
X88149467Y-38959064D01*
X88148474Y-38951203D01*
X88145557Y-38943836D01*
X88145556Y-38943831D01*
X88132198Y-38910092D01*
X88128354Y-38898865D01*
X88118230Y-38864022D01*
X88116018Y-38856407D01*
X88105707Y-38838972D01*
X88097010Y-38821219D01*
X88091661Y-38807709D01*
X88082814Y-38761330D01*
X88082814Y-38756566D01*
X88083504Y-38750000D01*
X88066625Y-38589406D01*
X88064232Y-38566635D01*
X88064232Y-38566633D01*
X88063542Y-38560072D01*
X88004527Y-38378444D01*
X87996697Y-38364881D01*
X87949748Y-38283565D01*
X87909040Y-38213056D01*
X87886652Y-38188191D01*
X87791035Y-38081998D01*
X87760317Y-38017991D01*
X87769082Y-37947537D01*
X87779686Y-37929625D01*
X87779395Y-37929453D01*
X87783431Y-37922628D01*
X87788287Y-37916368D01*
X87791432Y-37909099D01*
X87791435Y-37909095D01*
X87805847Y-37875790D01*
X87811064Y-37865140D01*
X87832368Y-37826387D01*
X87837406Y-37806764D01*
X87843810Y-37788061D01*
X87848706Y-37776747D01*
X87848706Y-37776746D01*
X87851854Y-37769472D01*
X87857864Y-37731527D01*
X87888677Y-37666930D01*
X87973294Y-37572953D01*
X87973295Y-37572952D01*
X87977713Y-37568045D01*
X88067989Y-37411683D01*
X88069896Y-37408380D01*
X88069897Y-37408379D01*
X88073200Y-37402657D01*
X88132215Y-37221029D01*
X88137506Y-37170694D01*
X88151487Y-37037666D01*
X88152177Y-37031101D01*
X88140816Y-36923008D01*
X88132905Y-36847736D01*
X88132905Y-36847734D01*
X88132215Y-36841173D01*
X88073200Y-36659545D01*
X88068109Y-36650726D01*
X87992795Y-36520280D01*
X87977713Y-36494157D01*
X87938330Y-36450417D01*
X87854348Y-36357146D01*
X87854347Y-36357145D01*
X87849926Y-36352235D01*
X87732194Y-36266697D01*
X87700767Y-36243864D01*
X87700766Y-36243863D01*
X87695425Y-36239983D01*
X87689397Y-36237299D01*
X87689395Y-36237298D01*
X87526992Y-36164992D01*
X87526991Y-36164992D01*
X87520961Y-36162307D01*
X87411504Y-36139041D01*
X87340617Y-36123973D01*
X87340612Y-36123973D01*
X87334160Y-36122601D01*
X87143186Y-36122601D01*
X87136734Y-36123973D01*
X87136729Y-36123973D01*
X87065842Y-36139041D01*
X86956385Y-36162307D01*
X86950355Y-36164992D01*
X86950354Y-36164992D01*
X86787951Y-36237298D01*
X86787949Y-36237299D01*
X86781921Y-36239983D01*
X86776580Y-36243863D01*
X86776579Y-36243864D01*
X86745152Y-36266697D01*
X86627420Y-36352235D01*
X86622999Y-36357145D01*
X86622998Y-36357146D01*
X86539017Y-36450417D01*
X86499633Y-36494157D01*
X86484551Y-36520280D01*
X86409238Y-36650726D01*
X86404146Y-36659545D01*
X86345131Y-36841173D01*
X86344441Y-36847734D01*
X86344441Y-36847736D01*
X86336530Y-36923008D01*
X86325169Y-37031101D01*
X86325859Y-37037666D01*
X86339841Y-37170694D01*
X86345131Y-37221029D01*
X86404146Y-37402657D01*
X86407450Y-37408380D01*
X86408661Y-37411099D01*
X86418096Y-37481466D01*
X86387991Y-37545764D01*
X86382650Y-37551445D01*
X85987747Y-37946348D01*
X85979461Y-37953888D01*
X85972982Y-37958000D01*
X85967557Y-37963777D01*
X85926357Y-38007651D01*
X85923602Y-38010493D01*
X85903865Y-38030230D01*
X85901385Y-38033427D01*
X85893682Y-38042447D01*
X85863414Y-38074679D01*
X85859595Y-38081625D01*
X85859593Y-38081628D01*
X85853652Y-38092434D01*
X85842801Y-38108953D01*
X85830386Y-38124959D01*
X85827241Y-38132228D01*
X85827238Y-38132232D01*
X85812826Y-38165537D01*
X85807609Y-38176187D01*
X85786305Y-38214940D01*
X85784334Y-38222615D01*
X85784334Y-38222616D01*
X85781267Y-38234562D01*
X85774863Y-38253266D01*
X85766819Y-38271855D01*
X85765580Y-38279678D01*
X85765577Y-38279688D01*
X85759901Y-38315524D01*
X85757495Y-38327144D01*
X85746500Y-38369970D01*
X85746500Y-38390224D01*
X85744949Y-38409934D01*
X85741780Y-38429943D01*
X85742526Y-38437835D01*
X85745941Y-38473961D01*
X85746500Y-38485819D01*
X85746500Y-39421233D01*
X85745973Y-39432416D01*
X85744298Y-39439909D01*
X85744547Y-39447835D01*
X85744547Y-39447836D01*
X85746438Y-39507986D01*
X85746500Y-39511945D01*
X85746500Y-39539856D01*
X85746997Y-39543790D01*
X85746997Y-39543791D01*
X85747005Y-39543856D01*
X85747938Y-39555693D01*
X85749327Y-39599889D01*
X85754978Y-39619339D01*
X85758987Y-39638700D01*
X85761526Y-39658797D01*
X85764445Y-39666168D01*
X85764445Y-39666170D01*
X85777804Y-39699912D01*
X85781649Y-39711142D01*
X85793982Y-39753593D01*
X85798015Y-39760412D01*
X85798017Y-39760417D01*
X85804293Y-39771028D01*
X85812988Y-39788776D01*
X85820448Y-39807617D01*
X85825110Y-39814033D01*
X85825110Y-39814034D01*
X85846436Y-39843387D01*
X85852952Y-39853307D01*
X85870281Y-39882608D01*
X85875458Y-39891362D01*
X85889779Y-39905683D01*
X85902619Y-39920716D01*
X85914528Y-39937107D01*
X85920634Y-39942158D01*
X85948605Y-39965298D01*
X85957384Y-39973288D01*
X86410094Y-40425998D01*
X86444120Y-40488310D01*
X86446999Y-40515093D01*
X86446999Y-43568610D01*
X86426997Y-43636731D01*
X86372248Y-43683716D01*
X86354786Y-43691491D01*
X86354781Y-43691494D01*
X86348748Y-43694180D01*
X86343407Y-43698060D01*
X86343406Y-43698061D01*
X86330730Y-43707271D01*
X86194247Y-43806432D01*
X86189826Y-43811342D01*
X86189825Y-43811343D01*
X86153036Y-43852202D01*
X86066460Y-43948354D01*
X86023302Y-44023106D01*
X85990843Y-44079327D01*
X85970973Y-44113742D01*
X85911958Y-44295370D01*
X85911268Y-44301931D01*
X85911268Y-44301933D01*
X85901358Y-44396226D01*
X85891996Y-44485298D01*
X85892686Y-44491863D01*
X85910877Y-44664937D01*
X85911958Y-44675226D01*
X85970973Y-44856854D01*
X85974276Y-44862576D01*
X85974277Y-44862577D01*
X85996580Y-44901206D01*
X86066460Y-45022242D01*
X86070878Y-45027149D01*
X86070879Y-45027150D01*
X86176992Y-45145000D01*
X86194247Y-45164164D01*
X86348748Y-45276416D01*
X86354781Y-45279102D01*
X86354786Y-45279105D01*
X86372248Y-45286880D01*
X86426344Y-45332860D01*
X86446999Y-45401986D01*
X86446999Y-46254906D01*
X86426997Y-46323027D01*
X86410094Y-46344002D01*
X86237741Y-46516354D01*
X86229463Y-46523887D01*
X86222982Y-46528000D01*
X86217555Y-46533779D01*
X86217553Y-46533781D01*
X86176373Y-46577635D01*
X86173617Y-46580479D01*
X86153865Y-46600230D01*
X86151385Y-46603427D01*
X86143682Y-46612447D01*
X86113414Y-46644679D01*
X86109595Y-46651625D01*
X86109593Y-46651628D01*
X86103652Y-46662434D01*
X86092801Y-46678953D01*
X86080386Y-46694959D01*
X86077241Y-46702228D01*
X86077238Y-46702232D01*
X86062826Y-46735537D01*
X86057609Y-46746187D01*
X86036305Y-46784940D01*
X86034334Y-46792615D01*
X86034334Y-46792616D01*
X86031267Y-46804562D01*
X86024863Y-46823266D01*
X86016819Y-46841855D01*
X86015580Y-46849678D01*
X86015577Y-46849688D01*
X86009901Y-46885524D01*
X86007495Y-46897144D01*
X85998472Y-46932289D01*
X85996500Y-46939970D01*
X85996500Y-46960224D01*
X85994949Y-46979934D01*
X85991780Y-46999943D01*
X85992526Y-47007835D01*
X85995941Y-47043961D01*
X85996500Y-47055819D01*
X85996500Y-47991233D01*
X85995973Y-48002416D01*
X85994298Y-48009909D01*
X85994547Y-48017835D01*
X85994547Y-48017836D01*
X85996438Y-48077986D01*
X85996500Y-48081945D01*
X85996500Y-48109856D01*
X85996997Y-48113790D01*
X85996997Y-48113791D01*
X85997005Y-48113856D01*
X85997938Y-48125693D01*
X85999327Y-48169889D01*
X86004978Y-48189339D01*
X86008987Y-48208700D01*
X86011526Y-48228797D01*
X86014445Y-48236168D01*
X86014445Y-48236170D01*
X86027804Y-48269912D01*
X86031649Y-48281142D01*
X86035553Y-48294580D01*
X86043982Y-48323593D01*
X86048015Y-48330412D01*
X86048017Y-48330417D01*
X86054293Y-48341028D01*
X86062988Y-48358776D01*
X86070448Y-48377617D01*
X86075110Y-48384033D01*
X86075110Y-48384034D01*
X86096436Y-48413387D01*
X86102952Y-48423307D01*
X86120455Y-48452902D01*
X86125458Y-48461362D01*
X86139779Y-48475683D01*
X86152619Y-48490716D01*
X86164528Y-48507107D01*
X86189764Y-48527984D01*
X86198605Y-48535298D01*
X86207384Y-48543288D01*
X86320094Y-48655998D01*
X86354120Y-48718310D01*
X86356999Y-48745093D01*
X86356999Y-52835506D01*
X86336997Y-52903627D01*
X86320094Y-52924602D01*
X85884043Y-53360652D01*
X85462741Y-53781954D01*
X85454459Y-53789490D01*
X85447981Y-53793601D01*
X85442556Y-53799378D01*
X85437085Y-53803904D01*
X85371848Y-53831914D01*
X85301823Y-53820207D01*
X85278677Y-53805700D01*
X85248423Y-53781807D01*
X85248418Y-53781804D01*
X85244359Y-53778598D01*
X85218533Y-53764341D01*
X85188608Y-53747822D01*
X85138636Y-53697390D01*
X85123500Y-53637513D01*
X85123500Y-53463984D01*
X85143502Y-53395863D01*
X85160405Y-53374889D01*
X85201748Y-53333546D01*
X85210038Y-53326002D01*
X85216519Y-53321889D01*
X85263160Y-53272221D01*
X85265914Y-53269380D01*
X85285636Y-53249658D01*
X85288113Y-53246465D01*
X85295818Y-53237444D01*
X85320660Y-53210989D01*
X85326087Y-53205210D01*
X85329908Y-53198260D01*
X85335847Y-53187457D01*
X85346703Y-53170930D01*
X85354258Y-53161191D01*
X85354259Y-53161189D01*
X85359115Y-53154929D01*
X85376675Y-53114349D01*
X85381892Y-53103701D01*
X85399376Y-53071898D01*
X85399377Y-53071896D01*
X85403196Y-53064949D01*
X85408234Y-53045326D01*
X85414638Y-53026623D01*
X85419534Y-53015309D01*
X85419534Y-53015308D01*
X85422682Y-53008034D01*
X85423921Y-53000211D01*
X85423924Y-53000201D01*
X85429600Y-52964365D01*
X85432006Y-52952745D01*
X85441029Y-52917600D01*
X85441029Y-52917599D01*
X85443001Y-52909919D01*
X85443001Y-52889665D01*
X85444552Y-52869954D01*
X85446481Y-52857775D01*
X85447721Y-52849946D01*
X85443560Y-52805927D01*
X85443001Y-52794070D01*
X85443001Y-49090237D01*
X85463003Y-49022116D01*
X85487176Y-48994854D01*
X85491518Y-48992098D01*
X85538159Y-48942430D01*
X85540913Y-48939589D01*
X85560634Y-48919868D01*
X85563112Y-48916673D01*
X85570818Y-48907651D01*
X85595658Y-48881199D01*
X85601086Y-48875419D01*
X85610846Y-48857666D01*
X85621699Y-48841143D01*
X85629253Y-48831404D01*
X85634113Y-48825139D01*
X85651676Y-48784555D01*
X85656883Y-48773925D01*
X85678195Y-48735158D01*
X85680166Y-48727481D01*
X85680168Y-48727476D01*
X85683232Y-48715540D01*
X85689638Y-48696828D01*
X85690730Y-48694306D01*
X85697681Y-48678243D01*
X85698921Y-48670415D01*
X85698923Y-48670408D01*
X85704599Y-48634574D01*
X85707005Y-48622954D01*
X85716028Y-48587809D01*
X85716028Y-48587808D01*
X85718000Y-48580128D01*
X85718000Y-48559874D01*
X85719551Y-48540163D01*
X85721480Y-48527984D01*
X85722720Y-48520155D01*
X85718559Y-48476136D01*
X85718000Y-48464279D01*
X85718000Y-47918669D01*
X85718527Y-47907486D01*
X85720202Y-47899993D01*
X85718894Y-47858365D01*
X85718062Y-47831916D01*
X85718000Y-47827957D01*
X85718000Y-47800046D01*
X85717495Y-47796046D01*
X85716562Y-47784203D01*
X85715422Y-47747931D01*
X85715173Y-47740012D01*
X85709522Y-47720560D01*
X85705514Y-47701208D01*
X85703967Y-47688965D01*
X85702974Y-47681105D01*
X85697958Y-47668435D01*
X85686700Y-47639999D01*
X85682855Y-47628772D01*
X85678928Y-47615256D01*
X85670518Y-47586309D01*
X85666484Y-47579487D01*
X85666481Y-47579481D01*
X85660206Y-47568870D01*
X85651510Y-47551120D01*
X85646972Y-47539658D01*
X85646969Y-47539653D01*
X85644052Y-47532285D01*
X85628745Y-47511217D01*
X85618073Y-47496527D01*
X85611557Y-47486609D01*
X85593075Y-47455359D01*
X85589042Y-47448539D01*
X85574718Y-47434215D01*
X85561876Y-47419180D01*
X85549972Y-47402795D01*
X85515906Y-47374613D01*
X85507127Y-47366624D01*
X85479906Y-47339403D01*
X85445880Y-47277091D01*
X85443001Y-47250308D01*
X85443001Y-39894465D01*
X85443528Y-39883281D01*
X85445202Y-39875793D01*
X85443063Y-39807734D01*
X85443001Y-39803777D01*
X85443001Y-39775846D01*
X85442495Y-39771840D01*
X85441562Y-39759994D01*
X85440423Y-39723739D01*
X85440174Y-39715812D01*
X85435004Y-39698014D01*
X85430691Y-39649695D01*
X85433524Y-39622748D01*
X85442704Y-39535401D01*
X85436206Y-39473574D01*
X85423432Y-39352036D01*
X85423432Y-39352034D01*
X85422742Y-39345473D01*
X85363727Y-39163845D01*
X85268240Y-38998457D01*
X85262776Y-38992388D01*
X85144875Y-38861446D01*
X85144874Y-38861445D01*
X85140453Y-38856535D01*
X84985952Y-38744283D01*
X84979924Y-38741599D01*
X84979922Y-38741598D01*
X84817519Y-38669292D01*
X84817518Y-38669292D01*
X84811488Y-38666607D01*
X84811534Y-38666504D01*
X84755278Y-38628037D01*
X84727642Y-38562640D01*
X84732988Y-38509343D01*
X84748124Y-38462758D01*
X84748125Y-38462754D01*
X84750165Y-38456475D01*
X84769029Y-38277000D01*
X84765220Y-38240763D01*
X84750855Y-38104089D01*
X84750855Y-38104088D01*
X84750165Y-38097525D01*
X84729316Y-38033356D01*
X84715186Y-37989869D01*
X84694399Y-37925893D01*
X84604167Y-37769607D01*
X84561890Y-37722653D01*
X84487835Y-37640407D01*
X84487834Y-37640406D01*
X84483413Y-37635496D01*
X84476616Y-37630557D01*
X84342757Y-37533303D01*
X84342756Y-37533302D01*
X84337415Y-37529422D01*
X84331387Y-37526738D01*
X84331385Y-37526737D01*
X84178583Y-37458705D01*
X84178581Y-37458705D01*
X84172552Y-37456020D01*
X84084292Y-37437260D01*
X84002489Y-37419872D01*
X84002485Y-37419872D01*
X83996032Y-37418500D01*
X83815568Y-37418500D01*
X83809115Y-37419872D01*
X83809111Y-37419872D01*
X83727308Y-37437260D01*
X83639048Y-37456020D01*
X83633019Y-37458704D01*
X83633017Y-37458705D01*
X83480216Y-37526737D01*
X83480214Y-37526738D01*
X83474186Y-37529422D01*
X83468845Y-37533302D01*
X83468844Y-37533303D01*
X83333531Y-37631613D01*
X83333529Y-37631615D01*
X83328187Y-37635496D01*
X83323766Y-37640406D01*
X83323765Y-37640407D01*
X83249711Y-37722653D01*
X83207433Y-37769607D01*
X83117201Y-37925893D01*
X83114820Y-37924518D01*
X83076705Y-37969352D01*
X83007589Y-37990000D01*
X83001600Y-37990000D01*
X82933479Y-37969998D01*
X82886986Y-37916342D01*
X82875600Y-37864000D01*
X82875600Y-36934868D01*
X82876127Y-36923685D01*
X82877802Y-36916192D01*
X82877442Y-36904719D01*
X82875662Y-36848102D01*
X82875600Y-36844144D01*
X82875600Y-36816244D01*
X82875096Y-36812253D01*
X82874163Y-36800411D01*
X82873945Y-36793455D01*
X82872774Y-36756211D01*
X82870562Y-36748597D01*
X82870561Y-36748592D01*
X82867123Y-36736759D01*
X82863112Y-36717395D01*
X82861567Y-36705164D01*
X82860574Y-36697303D01*
X82857657Y-36689936D01*
X82857656Y-36689931D01*
X82844298Y-36656192D01*
X82840454Y-36644965D01*
X82830330Y-36610122D01*
X82828118Y-36602507D01*
X82817807Y-36585072D01*
X82809112Y-36567324D01*
X82801652Y-36548483D01*
X82775664Y-36512713D01*
X82769148Y-36502793D01*
X82750680Y-36471565D01*
X82750678Y-36471562D01*
X82746642Y-36464738D01*
X82732321Y-36450417D01*
X82719480Y-36435383D01*
X82712232Y-36425407D01*
X82707572Y-36418993D01*
X82673501Y-36390807D01*
X82664722Y-36382818D01*
X82452622Y-36170718D01*
X82418596Y-36108406D01*
X82416407Y-36094793D01*
X82413701Y-36069041D01*
X82402815Y-35965469D01*
X82399732Y-35936135D01*
X82399732Y-35936133D01*
X82399042Y-35929572D01*
X82340027Y-35747944D01*
X82244540Y-35582556D01*
X82239809Y-35577301D01*
X82121175Y-35445545D01*
X82121174Y-35445544D01*
X82116753Y-35440634D01*
X81962252Y-35328382D01*
X81956224Y-35325698D01*
X81956222Y-35325697D01*
X81793819Y-35253391D01*
X81793818Y-35253391D01*
X81787788Y-35250706D01*
X81694388Y-35230853D01*
X81607444Y-35212372D01*
X81607439Y-35212372D01*
X81600987Y-35211000D01*
X81410013Y-35211000D01*
X81403561Y-35212372D01*
X81403556Y-35212372D01*
X81316612Y-35230853D01*
X81223212Y-35250706D01*
X81217182Y-35253391D01*
X81217181Y-35253391D01*
X81054778Y-35325697D01*
X81054776Y-35325698D01*
X81048748Y-35328382D01*
X80894247Y-35440634D01*
X80889826Y-35445544D01*
X80889825Y-35445545D01*
X80771192Y-35577301D01*
X80766460Y-35582556D01*
X80670973Y-35747944D01*
X80611958Y-35929572D01*
X80611268Y-35936133D01*
X80611268Y-35936135D01*
X80608185Y-35965469D01*
X80591996Y-36119500D01*
X80592686Y-36126065D01*
X80610289Y-36293544D01*
X80611958Y-36309428D01*
X80670973Y-36491056D01*
X80674276Y-36496778D01*
X80674277Y-36496779D01*
X80700424Y-36542066D01*
X80766460Y-36656444D01*
X80770878Y-36661351D01*
X80770879Y-36661352D01*
X80878284Y-36780637D01*
X80894247Y-36798366D01*
X80988270Y-36866678D01*
X81040629Y-36904719D01*
X81048748Y-36910618D01*
X81054776Y-36913302D01*
X81054778Y-36913303D01*
X81217181Y-36985609D01*
X81223212Y-36988294D01*
X81305933Y-37005877D01*
X81403556Y-37026628D01*
X81403561Y-37026628D01*
X81410013Y-37028000D01*
X81465906Y-37028000D01*
X81534027Y-37048002D01*
X81555001Y-37064905D01*
X81571695Y-37081599D01*
X81605721Y-37143911D01*
X81608600Y-37170694D01*
X81608600Y-41920826D01*
X81588598Y-41988947D01*
X81534942Y-42035440D01*
X81464668Y-42045544D01*
X81400088Y-42016050D01*
X81393504Y-42009921D01*
X81351303Y-41967719D01*
X81182978Y-41799394D01*
X81175445Y-41791116D01*
X81171332Y-41784635D01*
X81159264Y-41773302D01*
X81121697Y-41738026D01*
X81118851Y-41735268D01*
X81101903Y-41718319D01*
X81099102Y-41715518D01*
X81095905Y-41713038D01*
X81086883Y-41705333D01*
X81083631Y-41702279D01*
X81054653Y-41675067D01*
X81047707Y-41671248D01*
X81047704Y-41671246D01*
X81036898Y-41665305D01*
X81020379Y-41654454D01*
X81019915Y-41654094D01*
X81004373Y-41642039D01*
X80997104Y-41638894D01*
X80997100Y-41638891D01*
X80963795Y-41624479D01*
X80953135Y-41619257D01*
X80939143Y-41611565D01*
X80910747Y-41590245D01*
X80113545Y-40793042D01*
X80106011Y-40784763D01*
X80101898Y-40778282D01*
X80052246Y-40731656D01*
X80049405Y-40728902D01*
X80029668Y-40709165D01*
X80026471Y-40706685D01*
X80017449Y-40698980D01*
X79990998Y-40674141D01*
X79985219Y-40668714D01*
X79978273Y-40664895D01*
X79978270Y-40664893D01*
X79967464Y-40658952D01*
X79950945Y-40648101D01*
X79943408Y-40642255D01*
X79934939Y-40635686D01*
X79927670Y-40632541D01*
X79927666Y-40632538D01*
X79894361Y-40618126D01*
X79883711Y-40612909D01*
X79844958Y-40591605D01*
X79825335Y-40586567D01*
X79806632Y-40580163D01*
X79795318Y-40575267D01*
X79795317Y-40575267D01*
X79788043Y-40572119D01*
X79780220Y-40570880D01*
X79780210Y-40570877D01*
X79744374Y-40565201D01*
X79732754Y-40562795D01*
X79697609Y-40553772D01*
X79697608Y-40553772D01*
X79689928Y-40551800D01*
X79673700Y-40551800D01*
X79605579Y-40531798D01*
X79586353Y-40515457D01*
X79586080Y-40515760D01*
X79581168Y-40511337D01*
X79576753Y-40506434D01*
X79505732Y-40454834D01*
X79427594Y-40398063D01*
X79427593Y-40398062D01*
X79422252Y-40394182D01*
X79416224Y-40391498D01*
X79416222Y-40391497D01*
X79253819Y-40319191D01*
X79253818Y-40319191D01*
X79247788Y-40316506D01*
X79132008Y-40291896D01*
X79067444Y-40278172D01*
X79067439Y-40278172D01*
X79060987Y-40276800D01*
X78870013Y-40276800D01*
X78863561Y-40278172D01*
X78863556Y-40278172D01*
X78798992Y-40291896D01*
X78683212Y-40316506D01*
X78677182Y-40319191D01*
X78677181Y-40319191D01*
X78514778Y-40391497D01*
X78514776Y-40391498D01*
X78508748Y-40394182D01*
X78503407Y-40398062D01*
X78503406Y-40398063D01*
X78480352Y-40414813D01*
X78413484Y-40438671D01*
X78344333Y-40422591D01*
X78316093Y-40399946D01*
X78316080Y-40399960D01*
X78315831Y-40399735D01*
X78312660Y-40397193D01*
X78311173Y-40395542D01*
X78311169Y-40395538D01*
X78306753Y-40390634D01*
X78243144Y-40344419D01*
X78208753Y-40306625D01*
X78204080Y-40298723D01*
X78204078Y-40298720D01*
X78200042Y-40291896D01*
X78185721Y-40277575D01*
X78172880Y-40262541D01*
X78165632Y-40252565D01*
X78160972Y-40246151D01*
X78126907Y-40217970D01*
X78118126Y-40209980D01*
X77611968Y-39703821D01*
X77604434Y-39695542D01*
X77600321Y-39689061D01*
X77550669Y-39642435D01*
X77547828Y-39639681D01*
X77528091Y-39619944D01*
X77524894Y-39617464D01*
X77515872Y-39609759D01*
X77513463Y-39607497D01*
X77483642Y-39579493D01*
X77476696Y-39575674D01*
X77476693Y-39575672D01*
X77465887Y-39569731D01*
X77449368Y-39558880D01*
X77445267Y-39555699D01*
X77433362Y-39546465D01*
X77426093Y-39543320D01*
X77426089Y-39543317D01*
X77392784Y-39528905D01*
X77382134Y-39523688D01*
X77343381Y-39502384D01*
X77323758Y-39497346D01*
X77305055Y-39490942D01*
X77293741Y-39486046D01*
X77293740Y-39486046D01*
X77286466Y-39482898D01*
X77278643Y-39481659D01*
X77278633Y-39481656D01*
X77242797Y-39475980D01*
X77231177Y-39473574D01*
X77196032Y-39464551D01*
X77196031Y-39464551D01*
X77188351Y-39462579D01*
X77168097Y-39462579D01*
X77148386Y-39461028D01*
X77136207Y-39459099D01*
X77128378Y-39457859D01*
X77120486Y-39458605D01*
X77084360Y-39462020D01*
X77072502Y-39462579D01*
X75719154Y-39462579D01*
X75651033Y-39442577D01*
X75604540Y-39388921D01*
X75593844Y-39349750D01*
X75576665Y-39186302D01*
X75576665Y-39186300D01*
X75575975Y-39179739D01*
X75516960Y-38998111D01*
X75421473Y-38832723D01*
X75417054Y-38827815D01*
X75327012Y-38727813D01*
X75296294Y-38663806D01*
X75294710Y-38647463D01*
X75293762Y-38617313D01*
X75293700Y-38613353D01*
X75293700Y-38585442D01*
X75293195Y-38581442D01*
X75292262Y-38569599D01*
X75292044Y-38562640D01*
X75290873Y-38525409D01*
X75285221Y-38505955D01*
X75281213Y-38486598D01*
X75279668Y-38474368D01*
X75279668Y-38474367D01*
X75278674Y-38466501D01*
X75275755Y-38459128D01*
X75262396Y-38425386D01*
X75258551Y-38414156D01*
X75248429Y-38379315D01*
X75248429Y-38379314D01*
X75246218Y-38371705D01*
X75242185Y-38364886D01*
X75242183Y-38364881D01*
X75235907Y-38354270D01*
X75227212Y-38336522D01*
X75219752Y-38317681D01*
X75193764Y-38281911D01*
X75187248Y-38271991D01*
X75168780Y-38240763D01*
X75168778Y-38240760D01*
X75164742Y-38233936D01*
X75150421Y-38219615D01*
X75137580Y-38204581D01*
X75130332Y-38194605D01*
X75125672Y-38188191D01*
X75091607Y-38160010D01*
X75082826Y-38152020D01*
X74673648Y-37742841D01*
X74666114Y-37734562D01*
X74662001Y-37728081D01*
X74612349Y-37681455D01*
X74609508Y-37678701D01*
X74589771Y-37658964D01*
X74586574Y-37656484D01*
X74577552Y-37648779D01*
X74559272Y-37631613D01*
X74545322Y-37618513D01*
X74538376Y-37614694D01*
X74538373Y-37614692D01*
X74527567Y-37608751D01*
X74511048Y-37597900D01*
X74510584Y-37597540D01*
X74495042Y-37585485D01*
X74487773Y-37582340D01*
X74487769Y-37582337D01*
X74454464Y-37567925D01*
X74443814Y-37562708D01*
X74405061Y-37541404D01*
X74385438Y-37536366D01*
X74366735Y-37529962D01*
X74355421Y-37525066D01*
X74355420Y-37525066D01*
X74348146Y-37521918D01*
X74340323Y-37520679D01*
X74340313Y-37520676D01*
X74304477Y-37515000D01*
X74292857Y-37512594D01*
X74257712Y-37503571D01*
X74257711Y-37503571D01*
X74250031Y-37501599D01*
X74229777Y-37501599D01*
X74210066Y-37500048D01*
X74207535Y-37499647D01*
X74190058Y-37496879D01*
X74182166Y-37497625D01*
X74146040Y-37501040D01*
X74134182Y-37501599D01*
X72493664Y-37501599D01*
X72482480Y-37501072D01*
X72474992Y-37499398D01*
X72467069Y-37499647D01*
X72406934Y-37501537D01*
X72402976Y-37501599D01*
X72375045Y-37501599D01*
X72371130Y-37502094D01*
X72371126Y-37502094D01*
X72371068Y-37502102D01*
X72371039Y-37502105D01*
X72359197Y-37503038D01*
X72315011Y-37504426D01*
X72297645Y-37509471D01*
X72295559Y-37510077D01*
X72276207Y-37514085D01*
X72263969Y-37515631D01*
X72263967Y-37515632D01*
X72256104Y-37516625D01*
X72214987Y-37532905D01*
X72203786Y-37536740D01*
X72161307Y-37549081D01*
X72154488Y-37553114D01*
X72154483Y-37553116D01*
X72143872Y-37559392D01*
X72126122Y-37568089D01*
X72107284Y-37575547D01*
X72100868Y-37580208D01*
X72100867Y-37580209D01*
X72071526Y-37601527D01*
X72061602Y-37608046D01*
X72030361Y-37626521D01*
X72030356Y-37626525D01*
X72023538Y-37630557D01*
X72009214Y-37644881D01*
X71994182Y-37657720D01*
X71977794Y-37669627D01*
X71960274Y-37690805D01*
X71949613Y-37703692D01*
X71941623Y-37712472D01*
X71864500Y-37789595D01*
X71802188Y-37823621D01*
X71775405Y-37826500D01*
X41548667Y-37826500D01*
X41537484Y-37825973D01*
X41529991Y-37824298D01*
X41522065Y-37824547D01*
X41522064Y-37824547D01*
X41465673Y-37826319D01*
X41463524Y-37826387D01*
X41461901Y-37826438D01*
X41457943Y-37826500D01*
X41430044Y-37826500D01*
X41426054Y-37827004D01*
X41414220Y-37827936D01*
X41370011Y-37829326D01*
X41362397Y-37831538D01*
X41362392Y-37831539D01*
X41350559Y-37834977D01*
X41331196Y-37838988D01*
X41311103Y-37841526D01*
X41303736Y-37844443D01*
X41303731Y-37844444D01*
X41269992Y-37857802D01*
X41258765Y-37861646D01*
X41216307Y-37873982D01*
X41209481Y-37878019D01*
X41198872Y-37884293D01*
X41181124Y-37892988D01*
X41162283Y-37900448D01*
X41155867Y-37905110D01*
X41155866Y-37905110D01*
X41126513Y-37926436D01*
X41116593Y-37932952D01*
X41085365Y-37951420D01*
X41085362Y-37951422D01*
X41078538Y-37955458D01*
X41064217Y-37969779D01*
X41049184Y-37982619D01*
X41032793Y-37994528D01*
X41019586Y-38010493D01*
X41004602Y-38028605D01*
X40996612Y-38037384D01*
X38379400Y-40654595D01*
X38317088Y-40688621D01*
X38290305Y-40691500D01*
X37484300Y-40691500D01*
X37416179Y-40671498D01*
X37396953Y-40655157D01*
X37396680Y-40655460D01*
X37391768Y-40651037D01*
X37387353Y-40646134D01*
X37309588Y-40589634D01*
X37238194Y-40537763D01*
X37238193Y-40537762D01*
X37232852Y-40533882D01*
X37226824Y-40531198D01*
X37226822Y-40531197D01*
X37064419Y-40458891D01*
X37064418Y-40458891D01*
X37058388Y-40456206D01*
X36964987Y-40436353D01*
X36878044Y-40417872D01*
X36878039Y-40417872D01*
X36871587Y-40416500D01*
X36680613Y-40416500D01*
X36674161Y-40417872D01*
X36674156Y-40417872D01*
X36587213Y-40436353D01*
X36493812Y-40456206D01*
X36487782Y-40458891D01*
X36487781Y-40458891D01*
X36325378Y-40531197D01*
X36325376Y-40531198D01*
X36319348Y-40533882D01*
X36314007Y-40537762D01*
X36314006Y-40537763D01*
X36276241Y-40565201D01*
X36164847Y-40646134D01*
X36160426Y-40651044D01*
X36160425Y-40651045D01*
X36045861Y-40778282D01*
X36037060Y-40788056D01*
X35941573Y-40953444D01*
X35882558Y-41135072D01*
X35862596Y-41325000D01*
X35863286Y-41331565D01*
X35878554Y-41476828D01*
X35882558Y-41514928D01*
X35941573Y-41696556D01*
X35944876Y-41702278D01*
X35944877Y-41702279D01*
X35963923Y-41735268D01*
X36037060Y-41861944D01*
X36056388Y-41883410D01*
X36087104Y-41947416D01*
X36078339Y-42017870D01*
X36059153Y-42047726D01*
X36059261Y-42047805D01*
X36057884Y-42049701D01*
X36056392Y-42052022D01*
X36055383Y-42053143D01*
X36055380Y-42053147D01*
X36050960Y-42058056D01*
X35955473Y-42223444D01*
X35896458Y-42405072D01*
X35895768Y-42411633D01*
X35895768Y-42411635D01*
X35881133Y-42550882D01*
X35876496Y-42595000D01*
X35896458Y-42784928D01*
X35955473Y-42966556D01*
X36050960Y-43131944D01*
X36055384Y-43136858D01*
X36057870Y-43140279D01*
X36081728Y-43207147D01*
X36065649Y-43276298D01*
X36049571Y-43298651D01*
X36011660Y-43340756D01*
X36008358Y-43346475D01*
X36008356Y-43346478D01*
X35923505Y-43493444D01*
X35916173Y-43506144D01*
X35857158Y-43687772D01*
X35856468Y-43694333D01*
X35856468Y-43694335D01*
X35854826Y-43709956D01*
X35837196Y-43877700D01*
X35837886Y-43884265D01*
X35852479Y-44023106D01*
X35857158Y-44067628D01*
X35916173Y-44249256D01*
X35919476Y-44254978D01*
X35919477Y-44254979D01*
X35942797Y-44295370D01*
X36011660Y-44414644D01*
X36016078Y-44419551D01*
X36016079Y-44419552D01*
X36100609Y-44513432D01*
X36139447Y-44556566D01*
X36293948Y-44668818D01*
X36299976Y-44671502D01*
X36299978Y-44671503D01*
X36443494Y-44735400D01*
X36468412Y-44746494D01*
X36561813Y-44766347D01*
X36648756Y-44784828D01*
X36648761Y-44784828D01*
X36655213Y-44786200D01*
X36846187Y-44786200D01*
X36852639Y-44784828D01*
X36852644Y-44784828D01*
X36939587Y-44766347D01*
X37032988Y-44746494D01*
X37057906Y-44735400D01*
X37201422Y-44671503D01*
X37201424Y-44671502D01*
X37207452Y-44668818D01*
X37361953Y-44556566D01*
X37366368Y-44551663D01*
X37371280Y-44547240D01*
X37372405Y-44548489D01*
X37425714Y-44515649D01*
X37458900Y-44511200D01*
X38469607Y-44511200D01*
X38493216Y-44513432D01*
X38493519Y-44513490D01*
X38493523Y-44513490D01*
X38501306Y-44514975D01*
X38557351Y-44511449D01*
X38565262Y-44511200D01*
X38581256Y-44511200D01*
X38597130Y-44509194D01*
X38604990Y-44508452D01*
X38632449Y-44506724D01*
X38653137Y-44505423D01*
X38653138Y-44505423D01*
X38661050Y-44504925D01*
X38668591Y-44502475D01*
X38668887Y-44502379D01*
X38692031Y-44497206D01*
X38692335Y-44497168D01*
X38692340Y-44497167D01*
X38700197Y-44496174D01*
X38707562Y-44493258D01*
X38707566Y-44493257D01*
X38752411Y-44475501D01*
X38759830Y-44472829D01*
X38813275Y-44455464D01*
X38819972Y-44451214D01*
X38820231Y-44451050D01*
X38841358Y-44440285D01*
X38841646Y-44440171D01*
X38841651Y-44440168D01*
X38849017Y-44437252D01*
X38855425Y-44432596D01*
X38855431Y-44432593D01*
X38894452Y-44404242D01*
X38900989Y-44399799D01*
X38948418Y-44369700D01*
X38954059Y-44363693D01*
X38971846Y-44348012D01*
X38972091Y-44347834D01*
X38972093Y-44347832D01*
X38978507Y-44343172D01*
X39000059Y-44317121D01*
X39014303Y-44299904D01*
X39019534Y-44293970D01*
X39052558Y-44258802D01*
X39052560Y-44258799D01*
X39057986Y-44253021D01*
X39061958Y-44245797D01*
X39075281Y-44226194D01*
X39075480Y-44225954D01*
X39075484Y-44225947D01*
X39080533Y-44219844D01*
X39100318Y-44177798D01*
X39103321Y-44171417D01*
X39128234Y-44135970D01*
X42947731Y-40316474D01*
X43010043Y-40282448D01*
X43036826Y-40279569D01*
X47608352Y-40279569D01*
X47676473Y-40299571D01*
X47722966Y-40353227D01*
X47733070Y-40423501D01*
X47703576Y-40488081D01*
X47682414Y-40507504D01*
X47646108Y-40533882D01*
X47573594Y-40586567D01*
X47544047Y-40608034D01*
X47539626Y-40612944D01*
X47539625Y-40612945D01*
X47450464Y-40711969D01*
X47416260Y-40749956D01*
X47320773Y-40915344D01*
X47261758Y-41096972D01*
X47261068Y-41103533D01*
X47261068Y-41103535D01*
X47257064Y-41141635D01*
X47241796Y-41286900D01*
X47261758Y-41476828D01*
X47320773Y-41658456D01*
X47324076Y-41664178D01*
X47324077Y-41664179D01*
X47350184Y-41709398D01*
X47416260Y-41823844D01*
X47420678Y-41828751D01*
X47420679Y-41828752D01*
X47478441Y-41892903D01*
X47509158Y-41956910D01*
X47500394Y-42027364D01*
X47486740Y-42051275D01*
X47485379Y-42053148D01*
X47480960Y-42058056D01*
X47385473Y-42223444D01*
X47326458Y-42405072D01*
X47325768Y-42411633D01*
X47325768Y-42411635D01*
X47311133Y-42550882D01*
X47306496Y-42595000D01*
X47326458Y-42784928D01*
X47385473Y-42966556D01*
X47480960Y-43131944D01*
X47497776Y-43150620D01*
X47528492Y-43214626D01*
X47519727Y-43285079D01*
X47513257Y-43297928D01*
X47425677Y-43449621D01*
X47422373Y-43455344D01*
X47363358Y-43636972D01*
X47362668Y-43643533D01*
X47362668Y-43643535D01*
X47358664Y-43681635D01*
X47343396Y-43826900D01*
X47344086Y-43833465D01*
X47352175Y-43910423D01*
X47363358Y-44016828D01*
X47422373Y-44198456D01*
X47425676Y-44204178D01*
X47425677Y-44204179D01*
X47438733Y-44226793D01*
X47517860Y-44363844D01*
X47522278Y-44368751D01*
X47522279Y-44368752D01*
X47638374Y-44497689D01*
X47645647Y-44505766D01*
X47744743Y-44577764D01*
X47786437Y-44608056D01*
X47800148Y-44618018D01*
X47806176Y-44620702D01*
X47806178Y-44620703D01*
X47968581Y-44693009D01*
X47974612Y-44695694D01*
X48068013Y-44715547D01*
X48154956Y-44734028D01*
X48154961Y-44734028D01*
X48161413Y-44735400D01*
X48352387Y-44735400D01*
X48358839Y-44734028D01*
X48358844Y-44734028D01*
X48445787Y-44715547D01*
X48539188Y-44695694D01*
X48545219Y-44693009D01*
X48707622Y-44620703D01*
X48707624Y-44620702D01*
X48713652Y-44618018D01*
X48727364Y-44608056D01*
X48861356Y-44510704D01*
X48868153Y-44505766D01*
X48872568Y-44500863D01*
X48877480Y-44496440D01*
X48878605Y-44497689D01*
X48931914Y-44464849D01*
X48965100Y-44460400D01*
X49905333Y-44460400D01*
X49916516Y-44460927D01*
X49924009Y-44462602D01*
X49931935Y-44462353D01*
X49931936Y-44462353D01*
X49992086Y-44460462D01*
X49996045Y-44460400D01*
X50023956Y-44460400D01*
X50027891Y-44459903D01*
X50027956Y-44459895D01*
X50039793Y-44458962D01*
X50072051Y-44457948D01*
X50076070Y-44457822D01*
X50083989Y-44457573D01*
X50103443Y-44451921D01*
X50122800Y-44447913D01*
X50135030Y-44446368D01*
X50135031Y-44446368D01*
X50142897Y-44445374D01*
X50150268Y-44442455D01*
X50150270Y-44442455D01*
X50184012Y-44429096D01*
X50195242Y-44425251D01*
X50230083Y-44415129D01*
X50230084Y-44415129D01*
X50237693Y-44412918D01*
X50244512Y-44408885D01*
X50244517Y-44408883D01*
X50255128Y-44402607D01*
X50272876Y-44393912D01*
X50291717Y-44386452D01*
X50327487Y-44360464D01*
X50337407Y-44353948D01*
X50368635Y-44335480D01*
X50368638Y-44335478D01*
X50375462Y-44331442D01*
X50389783Y-44317121D01*
X50404817Y-44304280D01*
X50414794Y-44297031D01*
X50421207Y-44292372D01*
X50449398Y-44258295D01*
X50457388Y-44249516D01*
X52890401Y-41816504D01*
X52952713Y-41782478D01*
X52979496Y-41779599D01*
X74334760Y-41779599D01*
X74402881Y-41799601D01*
X74428395Y-41821288D01*
X74544247Y-41949955D01*
X74597915Y-41988947D01*
X74693035Y-42058056D01*
X74698748Y-42062207D01*
X74704776Y-42064891D01*
X74704778Y-42064892D01*
X74769707Y-42093800D01*
X74873212Y-42139883D01*
X74966613Y-42159736D01*
X75053556Y-42178217D01*
X75053561Y-42178217D01*
X75060013Y-42179589D01*
X75250987Y-42179589D01*
X75257439Y-42178217D01*
X75257444Y-42178217D01*
X75344388Y-42159736D01*
X75437788Y-42139883D01*
X75541293Y-42093800D01*
X75606222Y-42064892D01*
X75606224Y-42064891D01*
X75612252Y-42062207D01*
X75617966Y-42058056D01*
X75713085Y-41988947D01*
X75766753Y-41949955D01*
X75820968Y-41889743D01*
X75881414Y-41852503D01*
X75952397Y-41853855D01*
X75968590Y-41860973D01*
X75968748Y-41860618D01*
X76041262Y-41892903D01*
X76143212Y-41938294D01*
X76230793Y-41956910D01*
X76323556Y-41976628D01*
X76323561Y-41976628D01*
X76330013Y-41978000D01*
X76520987Y-41978000D01*
X76527439Y-41976628D01*
X76527444Y-41976628D01*
X76620207Y-41956910D01*
X76707788Y-41938294D01*
X76747022Y-41920826D01*
X76876222Y-41863303D01*
X76876224Y-41863302D01*
X76882252Y-41860618D01*
X76890186Y-41854854D01*
X76932867Y-41823844D01*
X76986440Y-41784921D01*
X77053306Y-41761063D01*
X77122458Y-41777143D01*
X77134556Y-41784918D01*
X77188133Y-41823844D01*
X77230815Y-41854854D01*
X77238748Y-41860618D01*
X77244776Y-41863302D01*
X77244778Y-41863303D01*
X77373978Y-41920826D01*
X77413212Y-41938294D01*
X77500793Y-41956910D01*
X77593556Y-41976628D01*
X77593561Y-41976628D01*
X77600013Y-41978000D01*
X77790987Y-41978000D01*
X77797439Y-41976628D01*
X77797444Y-41976628D01*
X77890207Y-41956910D01*
X77977788Y-41938294D01*
X78017022Y-41920826D01*
X78146222Y-41863303D01*
X78146224Y-41863302D01*
X78152252Y-41860618D01*
X78160186Y-41854854D01*
X78180648Y-41839987D01*
X78247516Y-41816129D01*
X78316667Y-41832209D01*
X78344907Y-41854854D01*
X78344920Y-41854840D01*
X78345169Y-41855065D01*
X78348340Y-41857607D01*
X78349827Y-41859258D01*
X78349831Y-41859262D01*
X78354247Y-41864166D01*
X78359586Y-41868045D01*
X78481898Y-41956910D01*
X78508748Y-41976418D01*
X78514776Y-41979102D01*
X78514778Y-41979103D01*
X78673345Y-42049701D01*
X78683212Y-42054094D01*
X78776612Y-42073947D01*
X78863556Y-42092428D01*
X78863561Y-42092428D01*
X78870013Y-42093800D01*
X79060987Y-42093800D01*
X79067439Y-42092428D01*
X79067444Y-42092428D01*
X79154388Y-42073947D01*
X79247788Y-42054094D01*
X79253815Y-42051411D01*
X79253823Y-42051408D01*
X79400476Y-41986114D01*
X79470843Y-41976680D01*
X79535140Y-42006787D01*
X79540819Y-42012126D01*
X79682485Y-42153792D01*
X79716511Y-42216104D01*
X79711446Y-42286919D01*
X79687028Y-42327194D01*
X79640194Y-42379209D01*
X79544707Y-42544597D01*
X79485692Y-42726225D01*
X79465730Y-42916153D01*
X79466420Y-42922718D01*
X79482026Y-43071197D01*
X79485692Y-43106081D01*
X79544707Y-43287709D01*
X79548010Y-43293431D01*
X79548011Y-43293432D01*
X79574119Y-43338652D01*
X79640194Y-43453097D01*
X79644612Y-43458004D01*
X79644613Y-43458005D01*
X79682805Y-43500421D01*
X79767981Y-43595019D01*
X79825724Y-43636972D01*
X79909806Y-43698061D01*
X79922482Y-43707271D01*
X79928510Y-43709955D01*
X79928512Y-43709956D01*
X80090915Y-43782262D01*
X80096946Y-43784947D01*
X80190347Y-43804800D01*
X80277290Y-43823281D01*
X80277295Y-43823281D01*
X80283747Y-43824653D01*
X80290349Y-43824653D01*
X80295460Y-43825190D01*
X80361117Y-43852202D01*
X80401747Y-43910423D01*
X80404451Y-43981368D01*
X80368370Y-44042513D01*
X80304960Y-44074444D01*
X80282291Y-44076500D01*
X76208767Y-44076500D01*
X76197584Y-44075973D01*
X76190091Y-44074298D01*
X76182165Y-44074547D01*
X76182164Y-44074547D01*
X76122014Y-44076438D01*
X76118055Y-44076500D01*
X76090144Y-44076500D01*
X76086210Y-44076997D01*
X76086209Y-44076997D01*
X76086144Y-44077005D01*
X76074307Y-44077938D01*
X76042049Y-44078952D01*
X76038030Y-44079078D01*
X76030111Y-44079327D01*
X76010657Y-44084979D01*
X75991300Y-44088987D01*
X75979070Y-44090532D01*
X75979069Y-44090532D01*
X75971203Y-44091526D01*
X75963832Y-44094445D01*
X75963830Y-44094445D01*
X75930088Y-44107804D01*
X75918858Y-44111649D01*
X75884017Y-44121771D01*
X75884016Y-44121771D01*
X75876407Y-44123982D01*
X75869588Y-44128015D01*
X75869583Y-44128017D01*
X75858972Y-44134293D01*
X75841224Y-44142988D01*
X75822383Y-44150448D01*
X75815967Y-44155110D01*
X75815966Y-44155110D01*
X75786613Y-44176436D01*
X75776693Y-44182952D01*
X75745465Y-44201420D01*
X75745462Y-44201422D01*
X75738638Y-44205458D01*
X75724317Y-44219779D01*
X75709284Y-44232619D01*
X75692893Y-44244528D01*
X75679283Y-44260980D01*
X75664712Y-44278593D01*
X75656722Y-44287374D01*
X75164499Y-44779596D01*
X75102187Y-44813621D01*
X75075404Y-44816500D01*
X69324595Y-44816500D01*
X69256474Y-44796498D01*
X69235500Y-44779595D01*
X67928652Y-43472747D01*
X67921112Y-43464461D01*
X67917000Y-43457982D01*
X67867348Y-43411356D01*
X67864507Y-43408602D01*
X67844770Y-43388865D01*
X67841573Y-43386385D01*
X67832551Y-43378680D01*
X67806100Y-43353841D01*
X67800321Y-43348414D01*
X67793375Y-43344595D01*
X67793372Y-43344593D01*
X67782566Y-43338652D01*
X67766047Y-43327801D01*
X67760048Y-43323148D01*
X67750041Y-43315386D01*
X67742772Y-43312241D01*
X67742768Y-43312238D01*
X67709463Y-43297826D01*
X67698813Y-43292609D01*
X67660060Y-43271305D01*
X67640437Y-43266267D01*
X67621734Y-43259863D01*
X67603145Y-43251819D01*
X67603667Y-43250613D01*
X67552291Y-43218383D01*
X67527673Y-43191041D01*
X67527664Y-43191033D01*
X67523253Y-43186134D01*
X67440797Y-43126226D01*
X67374094Y-43077763D01*
X67374093Y-43077762D01*
X67368752Y-43073882D01*
X67362724Y-43071198D01*
X67362722Y-43071197D01*
X67200319Y-42998891D01*
X67200318Y-42998891D01*
X67194288Y-42996206D01*
X67081721Y-42972279D01*
X67013944Y-42957872D01*
X67013939Y-42957872D01*
X67007487Y-42956500D01*
X66816513Y-42956500D01*
X66810061Y-42957872D01*
X66810056Y-42957872D01*
X66742279Y-42972279D01*
X66629712Y-42996206D01*
X66623682Y-42998891D01*
X66623681Y-42998891D01*
X66461278Y-43071197D01*
X66461276Y-43071198D01*
X66455248Y-43073882D01*
X66300747Y-43186134D01*
X66296329Y-43191041D01*
X66296325Y-43191045D01*
X66187203Y-43312238D01*
X66172960Y-43328056D01*
X66077473Y-43493444D01*
X66018458Y-43675072D01*
X66017768Y-43681633D01*
X66017768Y-43681635D01*
X66003190Y-43820335D01*
X65998496Y-43865000D01*
X65999186Y-43871565D01*
X66014454Y-44016828D01*
X66018458Y-44054928D01*
X66077473Y-44236556D01*
X66080776Y-44242278D01*
X66080777Y-44242279D01*
X66101743Y-44278593D01*
X66172960Y-44401944D01*
X66181339Y-44411249D01*
X66212056Y-44475251D01*
X66203295Y-44545705D01*
X66181339Y-44579869D01*
X66155960Y-44608056D01*
X66152657Y-44613777D01*
X66076033Y-44746494D01*
X66060473Y-44773444D01*
X66001458Y-44955072D01*
X66000768Y-44961633D01*
X66000768Y-44961635D01*
X65994999Y-45016524D01*
X65981496Y-45145000D01*
X66001458Y-45334928D01*
X66060473Y-45516556D01*
X66063776Y-45522278D01*
X66063777Y-45522279D01*
X66081982Y-45553810D01*
X66155960Y-45681944D01*
X66192094Y-45722075D01*
X66222809Y-45786078D01*
X66214046Y-45856532D01*
X66192091Y-45890693D01*
X66180960Y-45903056D01*
X66177657Y-45908777D01*
X66121801Y-46005522D01*
X66070418Y-46054515D01*
X66000705Y-46067951D01*
X65934794Y-46041565D01*
X65923587Y-46031617D01*
X64901450Y-45009480D01*
X64895596Y-45003215D01*
X64877754Y-44982763D01*
X64857561Y-44959615D01*
X64805280Y-44922871D01*
X64799986Y-44918939D01*
X64794425Y-44914579D01*
X64749718Y-44879524D01*
X64742802Y-44876401D01*
X64740516Y-44875017D01*
X64725835Y-44866643D01*
X64723475Y-44865378D01*
X64717261Y-44861010D01*
X64710182Y-44858250D01*
X64710180Y-44858249D01*
X64657725Y-44837798D01*
X64651656Y-44835247D01*
X64593427Y-44808955D01*
X64585960Y-44807571D01*
X64583405Y-44806770D01*
X64567152Y-44802141D01*
X64564572Y-44801478D01*
X64557491Y-44798718D01*
X64549960Y-44797727D01*
X64549958Y-44797726D01*
X64520339Y-44793827D01*
X64494139Y-44790378D01*
X64487641Y-44789348D01*
X64424814Y-44777704D01*
X64417234Y-44778141D01*
X64417233Y-44778141D01*
X64362608Y-44781291D01*
X64355354Y-44781500D01*
X56008927Y-44781500D01*
X56000358Y-44781208D01*
X55950225Y-44777790D01*
X55950221Y-44777790D01*
X55942648Y-44777274D01*
X55879681Y-44788264D01*
X55873169Y-44789224D01*
X55809758Y-44796898D01*
X55802657Y-44799581D01*
X55800048Y-44800222D01*
X55783715Y-44804691D01*
X55781195Y-44805452D01*
X55773717Y-44806757D01*
X55766765Y-44809809D01*
X55766764Y-44809809D01*
X55715204Y-44832441D01*
X55709099Y-44834932D01*
X55656456Y-44854825D01*
X55656452Y-44854827D01*
X55649344Y-44857513D01*
X55643083Y-44861816D01*
X55640717Y-44863053D01*
X55625937Y-44871280D01*
X55623652Y-44872631D01*
X55616695Y-44875685D01*
X55610675Y-44880305D01*
X55610669Y-44880308D01*
X55585224Y-44899834D01*
X55565998Y-44914587D01*
X55560668Y-44918459D01*
X55514280Y-44950339D01*
X55514275Y-44950344D01*
X55508019Y-44954643D01*
X55502968Y-44960313D01*
X55502966Y-44960314D01*
X55466565Y-45001170D01*
X55461584Y-45006446D01*
X55443435Y-45024595D01*
X55381123Y-45058621D01*
X55354340Y-45061500D01*
X46391805Y-45061500D01*
X46323684Y-45041498D01*
X46317744Y-45037436D01*
X46242494Y-44982763D01*
X46242493Y-44982762D01*
X46237152Y-44978882D01*
X46231124Y-44976198D01*
X46231122Y-44976197D01*
X46068719Y-44903891D01*
X46068718Y-44903891D01*
X46062688Y-44901206D01*
X45909831Y-44868715D01*
X45846933Y-44834563D01*
X45361850Y-44349480D01*
X45355996Y-44343215D01*
X45340831Y-44325831D01*
X45317961Y-44299615D01*
X45265680Y-44262871D01*
X45260386Y-44258939D01*
X45218625Y-44226194D01*
X45210118Y-44219524D01*
X45203202Y-44216401D01*
X45200916Y-44215017D01*
X45186235Y-44206643D01*
X45183875Y-44205378D01*
X45177661Y-44201010D01*
X45170582Y-44198250D01*
X45170580Y-44198249D01*
X45118125Y-44177798D01*
X45112056Y-44175247D01*
X45053827Y-44148955D01*
X45046360Y-44147571D01*
X45043805Y-44146770D01*
X45027552Y-44142141D01*
X45024972Y-44141478D01*
X45017891Y-44138718D01*
X45010360Y-44137727D01*
X45010358Y-44137726D01*
X44980739Y-44133827D01*
X44954539Y-44130378D01*
X44948041Y-44129348D01*
X44885214Y-44117704D01*
X44877634Y-44118141D01*
X44877633Y-44118141D01*
X44823008Y-44121291D01*
X44815754Y-44121500D01*
X40828912Y-44121500D01*
X40820342Y-44121208D01*
X40770224Y-44117791D01*
X40770220Y-44117791D01*
X40762648Y-44117275D01*
X40755171Y-44118580D01*
X40755170Y-44118580D01*
X40738440Y-44121500D01*
X40699703Y-44128261D01*
X40693186Y-44129222D01*
X40629758Y-44136898D01*
X40622650Y-44139584D01*
X40620056Y-44140221D01*
X40603750Y-44144682D01*
X40601199Y-44145452D01*
X40593716Y-44146758D01*
X40586764Y-44149810D01*
X40586763Y-44149810D01*
X40535212Y-44172439D01*
X40529105Y-44174931D01*
X40483481Y-44192171D01*
X40469344Y-44197513D01*
X40463083Y-44201816D01*
X40460717Y-44203053D01*
X40445937Y-44211280D01*
X40443652Y-44212631D01*
X40436695Y-44215685D01*
X40430675Y-44220305D01*
X40430669Y-44220308D01*
X40414625Y-44232620D01*
X40385998Y-44254587D01*
X40380668Y-44258459D01*
X40334280Y-44290339D01*
X40334275Y-44290344D01*
X40328019Y-44294643D01*
X40322968Y-44300313D01*
X40322966Y-44300314D01*
X40286565Y-44341170D01*
X40281584Y-44346446D01*
X36309480Y-48318550D01*
X36303215Y-48324404D01*
X36259615Y-48362439D01*
X36255248Y-48368653D01*
X36222872Y-48414719D01*
X36218939Y-48420014D01*
X36179524Y-48470282D01*
X36176401Y-48477198D01*
X36175017Y-48479484D01*
X36166643Y-48494165D01*
X36165378Y-48496525D01*
X36161010Y-48502739D01*
X36158250Y-48509818D01*
X36158249Y-48509820D01*
X36137798Y-48562275D01*
X36135247Y-48568344D01*
X36108955Y-48626573D01*
X36107571Y-48634040D01*
X36106770Y-48636595D01*
X36102141Y-48652848D01*
X36101478Y-48655428D01*
X36098718Y-48662509D01*
X36097727Y-48670040D01*
X36097726Y-48670042D01*
X36096517Y-48679229D01*
X36091737Y-48715540D01*
X36090379Y-48725852D01*
X36089348Y-48732359D01*
X36077704Y-48795186D01*
X36078141Y-48802766D01*
X36078141Y-48802767D01*
X36081291Y-48857392D01*
X36081500Y-48864646D01*
X36081500Y-49596256D01*
X36061498Y-49664377D01*
X36057436Y-49670317D01*
X36055379Y-49673148D01*
X36050960Y-49678056D01*
X36047659Y-49683774D01*
X36047658Y-49683775D01*
X35974142Y-49811109D01*
X35955473Y-49843444D01*
X35896458Y-50025072D01*
X35876496Y-50215000D01*
X35877186Y-50221565D01*
X35894303Y-50384421D01*
X35896458Y-50404928D01*
X35955473Y-50586556D01*
X36050960Y-50751944D01*
X36055378Y-50756851D01*
X36055379Y-50756852D01*
X36158367Y-50871232D01*
X36178747Y-50893866D01*
X36252656Y-50947564D01*
X36315917Y-50993526D01*
X36333248Y-51006118D01*
X36339276Y-51008802D01*
X36339278Y-51008803D01*
X36495657Y-51078427D01*
X36507712Y-51083794D01*
X36600068Y-51103425D01*
X36688056Y-51122128D01*
X36688061Y-51122128D01*
X36694513Y-51123500D01*
X36885487Y-51123500D01*
X36891939Y-51122128D01*
X36891944Y-51122128D01*
X36979932Y-51103425D01*
X37072288Y-51083794D01*
X37084343Y-51078427D01*
X37240722Y-51008803D01*
X37240724Y-51008802D01*
X37246752Y-51006118D01*
X37264084Y-50993526D01*
X37327344Y-50947564D01*
X37401253Y-50893866D01*
X37421633Y-50871232D01*
X37524621Y-50756852D01*
X37524622Y-50756851D01*
X37529040Y-50751944D01*
X37624527Y-50586556D01*
X37683542Y-50404928D01*
X37685698Y-50384421D01*
X37702814Y-50221565D01*
X37703504Y-50215000D01*
X37683542Y-50025072D01*
X37624527Y-49843444D01*
X37605859Y-49811109D01*
X37532342Y-49683775D01*
X37532341Y-49683774D01*
X37529040Y-49678056D01*
X37524621Y-49673148D01*
X37522564Y-49670317D01*
X37498705Y-49603449D01*
X37498500Y-49596256D01*
X37498500Y-49185660D01*
X37518502Y-49117539D01*
X37535405Y-49096565D01*
X41056566Y-45575405D01*
X41118878Y-45541379D01*
X41145661Y-45538500D01*
X44494740Y-45538500D01*
X44562861Y-45558502D01*
X44583835Y-45575405D01*
X44845735Y-45837305D01*
X44879761Y-45899617D01*
X44881950Y-45913228D01*
X44886858Y-45959928D01*
X44888898Y-45966205D01*
X44888898Y-45966207D01*
X44910151Y-46031617D01*
X44945873Y-46141556D01*
X45041360Y-46306944D01*
X45169147Y-46448866D01*
X45209935Y-46478500D01*
X45311316Y-46552158D01*
X45323648Y-46561118D01*
X45329676Y-46563802D01*
X45329678Y-46563803D01*
X45439591Y-46612739D01*
X45498112Y-46638794D01*
X45591513Y-46658647D01*
X45678456Y-46677128D01*
X45678461Y-46677128D01*
X45684913Y-46678500D01*
X45875887Y-46678500D01*
X45882339Y-46677128D01*
X45882344Y-46677128D01*
X45969287Y-46658647D01*
X46062688Y-46638794D01*
X46121209Y-46612739D01*
X46231122Y-46563803D01*
X46231124Y-46563802D01*
X46237152Y-46561118D01*
X46249485Y-46552158D01*
X46317744Y-46502564D01*
X46384611Y-46478706D01*
X46391805Y-46478500D01*
X50073984Y-46478500D01*
X50142105Y-46498502D01*
X50188598Y-46552158D01*
X50198702Y-46622432D01*
X50191379Y-46650265D01*
X50182788Y-46672301D01*
X50180247Y-46678344D01*
X50153955Y-46736573D01*
X50152571Y-46744040D01*
X50151770Y-46746595D01*
X50147141Y-46762848D01*
X50146478Y-46765428D01*
X50143718Y-46772509D01*
X50142727Y-46780040D01*
X50142726Y-46780042D01*
X50135379Y-46835852D01*
X50134348Y-46842359D01*
X50122704Y-46905186D01*
X50123141Y-46912766D01*
X50123141Y-46912767D01*
X50126291Y-46967392D01*
X50126500Y-46974646D01*
X50126500Y-49234338D01*
X50106498Y-49302459D01*
X50089596Y-49323433D01*
X49943435Y-49469595D01*
X49881123Y-49503620D01*
X49854339Y-49506500D01*
X48831405Y-49506500D01*
X48763284Y-49486498D01*
X48757344Y-49482436D01*
X48682094Y-49427763D01*
X48682093Y-49427762D01*
X48676752Y-49423882D01*
X48670724Y-49421198D01*
X48670722Y-49421197D01*
X48508319Y-49348891D01*
X48508318Y-49348891D01*
X48502288Y-49346206D01*
X48389721Y-49322279D01*
X48321944Y-49307872D01*
X48321939Y-49307872D01*
X48315487Y-49306500D01*
X48124513Y-49306500D01*
X48118061Y-49307872D01*
X48118056Y-49307872D01*
X48050279Y-49322279D01*
X47937712Y-49346206D01*
X47931682Y-49348891D01*
X47931681Y-49348891D01*
X47769278Y-49421197D01*
X47769276Y-49421198D01*
X47763248Y-49423882D01*
X47608747Y-49536134D01*
X47604326Y-49541044D01*
X47604325Y-49541045D01*
X47493277Y-49664377D01*
X47480960Y-49678056D01*
X47385473Y-49843444D01*
X47326458Y-50025072D01*
X47306496Y-50215000D01*
X47307186Y-50221565D01*
X47324303Y-50384421D01*
X47326458Y-50404928D01*
X47385473Y-50586556D01*
X47480960Y-50751944D01*
X47485378Y-50756851D01*
X47485379Y-50756852D01*
X47588367Y-50871232D01*
X47608747Y-50893866D01*
X47682656Y-50947564D01*
X47745917Y-50993526D01*
X47763248Y-51006118D01*
X47769276Y-51008802D01*
X47769278Y-51008803D01*
X47925657Y-51078427D01*
X47937712Y-51083794D01*
X48030068Y-51103425D01*
X48118056Y-51122128D01*
X48118061Y-51122128D01*
X48124513Y-51123500D01*
X48315487Y-51123500D01*
X48321939Y-51122128D01*
X48321944Y-51122128D01*
X48409932Y-51103425D01*
X48502288Y-51083794D01*
X48514343Y-51078427D01*
X48670722Y-51008803D01*
X48670724Y-51008802D01*
X48676752Y-51006118D01*
X48694084Y-50993526D01*
X48757344Y-50947564D01*
X48824211Y-50923706D01*
X48831405Y-50923500D01*
X50171088Y-50923500D01*
X50179658Y-50923792D01*
X50229776Y-50927209D01*
X50229780Y-50927209D01*
X50237352Y-50927725D01*
X50244829Y-50926420D01*
X50244830Y-50926420D01*
X50276704Y-50920857D01*
X50300303Y-50916738D01*
X50306821Y-50915777D01*
X50370242Y-50908102D01*
X50377343Y-50905419D01*
X50379952Y-50904778D01*
X50396262Y-50900315D01*
X50398798Y-50899550D01*
X50406284Y-50898243D01*
X50464800Y-50872556D01*
X50470904Y-50870065D01*
X50523548Y-50850173D01*
X50523549Y-50850172D01*
X50530656Y-50847487D01*
X50536919Y-50843183D01*
X50539285Y-50841946D01*
X50554097Y-50833701D01*
X50556351Y-50832368D01*
X50563305Y-50829315D01*
X50614002Y-50790413D01*
X50619332Y-50786541D01*
X50665720Y-50754661D01*
X50665725Y-50754656D01*
X50671981Y-50750357D01*
X50713436Y-50703829D01*
X50718416Y-50698554D01*
X51315520Y-50101450D01*
X51321785Y-50095596D01*
X51359660Y-50062555D01*
X51365385Y-50057561D01*
X51402114Y-50005300D01*
X51406046Y-50000005D01*
X51440791Y-49955694D01*
X51445477Y-49949718D01*
X51448602Y-49942796D01*
X51449964Y-49940548D01*
X51458368Y-49925815D01*
X51459622Y-49923476D01*
X51463990Y-49917261D01*
X51466749Y-49910185D01*
X51466751Y-49910181D01*
X51487202Y-49857726D01*
X51489758Y-49851646D01*
X51506229Y-49815166D01*
X51516045Y-49793426D01*
X51517429Y-49785955D01*
X51518230Y-49783401D01*
X51522867Y-49767122D01*
X51523523Y-49764567D01*
X51526282Y-49757491D01*
X51532219Y-49712396D01*
X51534621Y-49694149D01*
X51535653Y-49687633D01*
X51545912Y-49632280D01*
X51547296Y-49624813D01*
X51545650Y-49596256D01*
X51543709Y-49562602D01*
X51543500Y-49555349D01*
X51543500Y-47295660D01*
X51563502Y-47227539D01*
X51580405Y-47206565D01*
X51681565Y-47105405D01*
X51743877Y-47071379D01*
X51770660Y-47068500D01*
X52132769Y-47068500D01*
X53802879Y-47068501D01*
X53871000Y-47088503D01*
X53917493Y-47142159D01*
X53927596Y-47212433D01*
X53911998Y-47257501D01*
X53890090Y-47295447D01*
X53885473Y-47303444D01*
X53826458Y-47485072D01*
X53825768Y-47491633D01*
X53825768Y-47491635D01*
X53817308Y-47572125D01*
X53806496Y-47675000D01*
X53807186Y-47681565D01*
X53821275Y-47815610D01*
X53826458Y-47864928D01*
X53885473Y-48046556D01*
X53980960Y-48211944D01*
X53985375Y-48216847D01*
X53985379Y-48216852D01*
X54102811Y-48347273D01*
X54108747Y-48353866D01*
X54263248Y-48466118D01*
X54269276Y-48468802D01*
X54269278Y-48468803D01*
X54431681Y-48541109D01*
X54437712Y-48543794D01*
X54513362Y-48559874D01*
X54618056Y-48582128D01*
X54618061Y-48582128D01*
X54624513Y-48583500D01*
X54680406Y-48583500D01*
X54748527Y-48603502D01*
X54769501Y-48620405D01*
X55493641Y-49344545D01*
X55504600Y-49364615D01*
X55510497Y-49366225D01*
X55533502Y-49384406D01*
X56311343Y-50162247D01*
X56318887Y-50170537D01*
X56323000Y-50177018D01*
X56328777Y-50182443D01*
X56372667Y-50223658D01*
X56375509Y-50226413D01*
X56395230Y-50246134D01*
X56398425Y-50248612D01*
X56407447Y-50256318D01*
X56439679Y-50286586D01*
X56446628Y-50290406D01*
X56457432Y-50296346D01*
X56473956Y-50307199D01*
X56489959Y-50319613D01*
X56530543Y-50337176D01*
X56541173Y-50342383D01*
X56579940Y-50363695D01*
X56587617Y-50365666D01*
X56587622Y-50365668D01*
X56599558Y-50368732D01*
X56618266Y-50375137D01*
X56636855Y-50383181D01*
X56644680Y-50384420D01*
X56644682Y-50384421D01*
X56680519Y-50390097D01*
X56692140Y-50392504D01*
X56727289Y-50401528D01*
X56734970Y-50403500D01*
X56755231Y-50403500D01*
X56774940Y-50405051D01*
X56794943Y-50408219D01*
X56802835Y-50407473D01*
X56808062Y-50406979D01*
X56838954Y-50404059D01*
X56850811Y-50403500D01*
X63091096Y-50403500D01*
X63159217Y-50423502D01*
X63180191Y-50440405D01*
X64831190Y-52091405D01*
X64865216Y-52153717D01*
X64860151Y-52224533D01*
X64817604Y-52281368D01*
X64751084Y-52306179D01*
X64742095Y-52306500D01*
X56305376Y-52306500D01*
X56294193Y-52305973D01*
X56286700Y-52304298D01*
X56278774Y-52304547D01*
X56278773Y-52304547D01*
X56218623Y-52306438D01*
X56214664Y-52306500D01*
X56186753Y-52306500D01*
X56182819Y-52306997D01*
X56182818Y-52306997D01*
X56182753Y-52307005D01*
X56170916Y-52307938D01*
X56139099Y-52308938D01*
X56134638Y-52309078D01*
X56126719Y-52309327D01*
X56109063Y-52314456D01*
X56107267Y-52314978D01*
X56087915Y-52318986D01*
X56080844Y-52319880D01*
X56067812Y-52321526D01*
X56060443Y-52324443D01*
X56060441Y-52324444D01*
X56026706Y-52337800D01*
X56015478Y-52341645D01*
X55973016Y-52353982D01*
X55966193Y-52358017D01*
X55966191Y-52358018D01*
X55955581Y-52364293D01*
X55937833Y-52372988D01*
X55918992Y-52380448D01*
X55912576Y-52385110D01*
X55912575Y-52385110D01*
X55883222Y-52406436D01*
X55873302Y-52412952D01*
X55842074Y-52431420D01*
X55842071Y-52431422D01*
X55835247Y-52435458D01*
X55820926Y-52449779D01*
X55805893Y-52462619D01*
X55789502Y-52474528D01*
X55763125Y-52506413D01*
X55761321Y-52508593D01*
X55753331Y-52517374D01*
X55551108Y-52719596D01*
X55488796Y-52753621D01*
X55462013Y-52756500D01*
X53612445Y-52756500D01*
X53544324Y-52736498D01*
X53497831Y-52682842D01*
X53487727Y-52612568D01*
X53503326Y-52567500D01*
X53568522Y-52454578D01*
X53568523Y-52454577D01*
X53571826Y-52448855D01*
X53602652Y-52353982D01*
X53609612Y-52332563D01*
X53649686Y-52273958D01*
X53715083Y-52246321D01*
X53729445Y-52245500D01*
X53880433Y-52245500D01*
X53891616Y-52246027D01*
X53899109Y-52247702D01*
X53907035Y-52247453D01*
X53907036Y-52247453D01*
X53967186Y-52245562D01*
X53971145Y-52245500D01*
X53999056Y-52245500D01*
X54002991Y-52245003D01*
X54003056Y-52244995D01*
X54014893Y-52244062D01*
X54047151Y-52243048D01*
X54051170Y-52242922D01*
X54059089Y-52242673D01*
X54078543Y-52237021D01*
X54097900Y-52233013D01*
X54110130Y-52231468D01*
X54110131Y-52231468D01*
X54117997Y-52230474D01*
X54125368Y-52227555D01*
X54125370Y-52227555D01*
X54159112Y-52214196D01*
X54170342Y-52210351D01*
X54205183Y-52200229D01*
X54205184Y-52200229D01*
X54212793Y-52198018D01*
X54219612Y-52193985D01*
X54219617Y-52193983D01*
X54230228Y-52187707D01*
X54247976Y-52179012D01*
X54266817Y-52171552D01*
X54302587Y-52145564D01*
X54312507Y-52139048D01*
X54343735Y-52120580D01*
X54343738Y-52120578D01*
X54350562Y-52116542D01*
X54364883Y-52102221D01*
X54379917Y-52089380D01*
X54389894Y-52082131D01*
X54396307Y-52077472D01*
X54424498Y-52043395D01*
X54432488Y-52034616D01*
X55062647Y-51404457D01*
X55070937Y-51396913D01*
X55077418Y-51392800D01*
X55124059Y-51343132D01*
X55126813Y-51340291D01*
X55146535Y-51320569D01*
X55149019Y-51317367D01*
X55156717Y-51308355D01*
X55181561Y-51281898D01*
X55186986Y-51276121D01*
X55196747Y-51258366D01*
X55207598Y-51241847D01*
X55220014Y-51225841D01*
X55237574Y-51185263D01*
X55242791Y-51174613D01*
X55264095Y-51135860D01*
X55269133Y-51116237D01*
X55275537Y-51097534D01*
X55280433Y-51086220D01*
X55280433Y-51086219D01*
X55283581Y-51078945D01*
X55284820Y-51071122D01*
X55284823Y-51071112D01*
X55290499Y-51035276D01*
X55292905Y-51023656D01*
X55301928Y-50988511D01*
X55301928Y-50988510D01*
X55303900Y-50980830D01*
X55303900Y-50972611D01*
X55303964Y-50972392D01*
X55304893Y-50965040D01*
X55306079Y-50965190D01*
X55323902Y-50904490D01*
X55336264Y-50888301D01*
X55454621Y-50756852D01*
X55454622Y-50756851D01*
X55459040Y-50751944D01*
X55554527Y-50586556D01*
X55613542Y-50404928D01*
X55615698Y-50384421D01*
X55632814Y-50221565D01*
X55633504Y-50215000D01*
X55613542Y-50025072D01*
X55554527Y-49843444D01*
X55459040Y-49678056D01*
X55446724Y-49664377D01*
X55350771Y-49557811D01*
X55344263Y-49544250D01*
X55344161Y-49544228D01*
X55330485Y-49535576D01*
X55182094Y-49427763D01*
X55182093Y-49427762D01*
X55176752Y-49423882D01*
X55170724Y-49421198D01*
X55170722Y-49421197D01*
X55008319Y-49348891D01*
X55008318Y-49348891D01*
X55002288Y-49346206D01*
X54889721Y-49322279D01*
X54821944Y-49307872D01*
X54821939Y-49307872D01*
X54815487Y-49306500D01*
X54624513Y-49306500D01*
X54618061Y-49307872D01*
X54618056Y-49307872D01*
X54550279Y-49322279D01*
X54437712Y-49346206D01*
X54431682Y-49348891D01*
X54431681Y-49348891D01*
X54269278Y-49421197D01*
X54269276Y-49421198D01*
X54263248Y-49423882D01*
X54108747Y-49536134D01*
X54104326Y-49541044D01*
X54104325Y-49541045D01*
X53993277Y-49664377D01*
X53980960Y-49678056D01*
X53885473Y-49843444D01*
X53826458Y-50025072D01*
X53806496Y-50215000D01*
X53807186Y-50221565D01*
X53824303Y-50384421D01*
X53826458Y-50404928D01*
X53885473Y-50586556D01*
X53888775Y-50592276D01*
X53888779Y-50592284D01*
X53911532Y-50631693D01*
X53928270Y-50700688D01*
X53905049Y-50767780D01*
X53891509Y-50783786D01*
X53733699Y-50941596D01*
X53671387Y-50975621D01*
X53644604Y-50978500D01*
X53281365Y-50978500D01*
X53270182Y-50977973D01*
X53262689Y-50976298D01*
X53254763Y-50976547D01*
X53254762Y-50976547D01*
X53194612Y-50978438D01*
X53190653Y-50978500D01*
X53162742Y-50978500D01*
X53158808Y-50978997D01*
X53158807Y-50978997D01*
X53158742Y-50979005D01*
X53146905Y-50979938D01*
X53115088Y-50980938D01*
X53110627Y-50981078D01*
X53102708Y-50981327D01*
X53085052Y-50986456D01*
X53083256Y-50986978D01*
X53063904Y-50990986D01*
X53056833Y-50991880D01*
X53043801Y-50993526D01*
X53036432Y-50996443D01*
X53036430Y-50996444D01*
X53002695Y-51009800D01*
X52991467Y-51013645D01*
X52949005Y-51025982D01*
X52942183Y-51030016D01*
X52942177Y-51030019D01*
X52931566Y-51036294D01*
X52913816Y-51044990D01*
X52902354Y-51049528D01*
X52902349Y-51049531D01*
X52894981Y-51052448D01*
X52888566Y-51057109D01*
X52859223Y-51078427D01*
X52849305Y-51084943D01*
X52830617Y-51095995D01*
X52811235Y-51107458D01*
X52796911Y-51121782D01*
X52781877Y-51134623D01*
X52767959Y-51144735D01*
X52693898Y-51168799D01*
X52641812Y-51168799D01*
X52635360Y-51170171D01*
X52635355Y-51170171D01*
X52571059Y-51183838D01*
X52455011Y-51208505D01*
X52448981Y-51211190D01*
X52448980Y-51211190D01*
X52286577Y-51283496D01*
X52286575Y-51283497D01*
X52280547Y-51286181D01*
X52126046Y-51398433D01*
X51998259Y-51540355D01*
X51902772Y-51705743D01*
X51843757Y-51887371D01*
X51843067Y-51893932D01*
X51843067Y-51893934D01*
X51827358Y-52043395D01*
X51823795Y-52077299D01*
X51824485Y-52083864D01*
X51841679Y-52247453D01*
X51843757Y-52267227D01*
X51902772Y-52448855D01*
X51906075Y-52454577D01*
X51906076Y-52454578D01*
X51971272Y-52567500D01*
X51988010Y-52636495D01*
X51964790Y-52703587D01*
X51908983Y-52747474D01*
X51862153Y-52756500D01*
X47212594Y-52756500D01*
X47144473Y-52736498D01*
X47123503Y-52719599D01*
X46210403Y-51806498D01*
X46176379Y-51744188D01*
X46173500Y-51717405D01*
X46173500Y-49203767D01*
X46174027Y-49192584D01*
X46175702Y-49185091D01*
X46175268Y-49171267D01*
X46173562Y-49117014D01*
X46173500Y-49113055D01*
X46173500Y-49085144D01*
X46172995Y-49081144D01*
X46172062Y-49069301D01*
X46170922Y-49033029D01*
X46170673Y-49025110D01*
X46165022Y-49005658D01*
X46161014Y-48986306D01*
X46159467Y-48974063D01*
X46158474Y-48966203D01*
X46152679Y-48951565D01*
X46142200Y-48925097D01*
X46138355Y-48913870D01*
X46136548Y-48907651D01*
X46126018Y-48871407D01*
X46119943Y-48861134D01*
X46115707Y-48853972D01*
X46107012Y-48836224D01*
X46099552Y-48817383D01*
X46073564Y-48781613D01*
X46067048Y-48771693D01*
X46048580Y-48740465D01*
X46048578Y-48740462D01*
X46044542Y-48733638D01*
X46030221Y-48719317D01*
X46017380Y-48704283D01*
X46005472Y-48687893D01*
X45971395Y-48659702D01*
X45962616Y-48651712D01*
X44606352Y-47295447D01*
X44598812Y-47287161D01*
X44594700Y-47280682D01*
X44545048Y-47234056D01*
X44542207Y-47231302D01*
X44522470Y-47211565D01*
X44519273Y-47209085D01*
X44510251Y-47201380D01*
X44483800Y-47176541D01*
X44478021Y-47171114D01*
X44471075Y-47167295D01*
X44471072Y-47167293D01*
X44460266Y-47161352D01*
X44443747Y-47150501D01*
X44443283Y-47150141D01*
X44427741Y-47138086D01*
X44420472Y-47134941D01*
X44420468Y-47134938D01*
X44387163Y-47120526D01*
X44376513Y-47115309D01*
X44337760Y-47094005D01*
X44318137Y-47088967D01*
X44299434Y-47082563D01*
X44288120Y-47077667D01*
X44288119Y-47077667D01*
X44280845Y-47074519D01*
X44273022Y-47073280D01*
X44273012Y-47073277D01*
X44237176Y-47067601D01*
X44225556Y-47065195D01*
X44190411Y-47056172D01*
X44190410Y-47056172D01*
X44182730Y-47054200D01*
X44162476Y-47054200D01*
X44142765Y-47052649D01*
X44130586Y-47050720D01*
X44122757Y-47049480D01*
X44114865Y-47050226D01*
X44078739Y-47053641D01*
X44066881Y-47054200D01*
X44009635Y-47054200D01*
X43941514Y-47034198D01*
X43915999Y-47012511D01*
X43905668Y-47001037D01*
X43905666Y-47001036D01*
X43901253Y-46996134D01*
X43840818Y-46952225D01*
X43752094Y-46887763D01*
X43752093Y-46887762D01*
X43746752Y-46883882D01*
X43740724Y-46881198D01*
X43740722Y-46881197D01*
X43578319Y-46808891D01*
X43578318Y-46808891D01*
X43572288Y-46806206D01*
X43472240Y-46784940D01*
X43391944Y-46767872D01*
X43391939Y-46767872D01*
X43385487Y-46766500D01*
X43194513Y-46766500D01*
X43188061Y-46767872D01*
X43188056Y-46767872D01*
X43107760Y-46784940D01*
X43007712Y-46806206D01*
X43001682Y-46808891D01*
X43001681Y-46808891D01*
X42839278Y-46881197D01*
X42839276Y-46881198D01*
X42833248Y-46883882D01*
X42827907Y-46887762D01*
X42827906Y-46887763D01*
X42803926Y-46905186D01*
X42678747Y-46996134D01*
X42674326Y-47001044D01*
X42674325Y-47001045D01*
X42590624Y-47094005D01*
X42550960Y-47138056D01*
X42508018Y-47212433D01*
X42463696Y-47289202D01*
X42455473Y-47303444D01*
X42396458Y-47485072D01*
X42395768Y-47491633D01*
X42395768Y-47491635D01*
X42387308Y-47572125D01*
X42376496Y-47675000D01*
X42377186Y-47681565D01*
X42391275Y-47815610D01*
X42396458Y-47864928D01*
X42455473Y-48046556D01*
X42550960Y-48211944D01*
X42563338Y-48225691D01*
X42594054Y-48289697D01*
X42585290Y-48360150D01*
X42563339Y-48394307D01*
X42550960Y-48408056D01*
X42503236Y-48490717D01*
X42472085Y-48544672D01*
X42455473Y-48573444D01*
X42396458Y-48755072D01*
X42395768Y-48761633D01*
X42395768Y-48761635D01*
X42384231Y-48871407D01*
X42376496Y-48945000D01*
X42377186Y-48951565D01*
X42391226Y-49085144D01*
X42396458Y-49134928D01*
X42455473Y-49316556D01*
X42550960Y-49481944D01*
X42555378Y-49486851D01*
X42555379Y-49486852D01*
X42674013Y-49618608D01*
X42678747Y-49623866D01*
X42737218Y-49666348D01*
X42800598Y-49712396D01*
X42833248Y-49736118D01*
X42839276Y-49738802D01*
X42839278Y-49738803D01*
X42977518Y-49800351D01*
X43007712Y-49813794D01*
X43101113Y-49833647D01*
X43188056Y-49852128D01*
X43188061Y-49852128D01*
X43194513Y-49853500D01*
X43385487Y-49853500D01*
X43391939Y-49852128D01*
X43391944Y-49852128D01*
X43478888Y-49833647D01*
X43572288Y-49813794D01*
X43602482Y-49800351D01*
X43740722Y-49738803D01*
X43740724Y-49738802D01*
X43746752Y-49736118D01*
X43757238Y-49728500D01*
X43889672Y-49632280D01*
X43901253Y-49623866D01*
X43905668Y-49618963D01*
X43910580Y-49614540D01*
X43911705Y-49615789D01*
X43965014Y-49582949D01*
X43998200Y-49578500D01*
X44094205Y-49578500D01*
X44162326Y-49598502D01*
X44183301Y-49615405D01*
X44354597Y-49786702D01*
X44388622Y-49849014D01*
X44391501Y-49875797D01*
X44391501Y-53486230D01*
X44371499Y-53554351D01*
X44317843Y-53600844D01*
X44247569Y-53610948D01*
X44223442Y-53605003D01*
X44203091Y-53597796D01*
X44203083Y-53597794D01*
X44198212Y-53596069D01*
X44193119Y-53595162D01*
X44193116Y-53595161D01*
X43983373Y-53557800D01*
X43983367Y-53557799D01*
X43978284Y-53556894D01*
X43904452Y-53555992D01*
X43760081Y-53554228D01*
X43760079Y-53554228D01*
X43754911Y-53554165D01*
X43534091Y-53587955D01*
X43321756Y-53657357D01*
X43291443Y-53673137D01*
X43147975Y-53747822D01*
X43123607Y-53760507D01*
X43119474Y-53763610D01*
X43119471Y-53763612D01*
X42968025Y-53877321D01*
X42944965Y-53894635D01*
X42941393Y-53898373D01*
X42806014Y-54040039D01*
X42790629Y-54056138D01*
X42683201Y-54213621D01*
X42628293Y-54258621D01*
X42557768Y-54266792D01*
X42494021Y-54235538D01*
X42473324Y-54211054D01*
X42392822Y-54086617D01*
X42392820Y-54086614D01*
X42390014Y-54082277D01*
X42239670Y-53917051D01*
X42235619Y-53913852D01*
X42235615Y-53913848D01*
X42068414Y-53781800D01*
X42068410Y-53781798D01*
X42064359Y-53778598D01*
X42038533Y-53764341D01*
X41963590Y-53722971D01*
X41868789Y-53670638D01*
X41863920Y-53668914D01*
X41863916Y-53668912D01*
X41663087Y-53597795D01*
X41663083Y-53597794D01*
X41658212Y-53596069D01*
X41653119Y-53595162D01*
X41653116Y-53595161D01*
X41443373Y-53557800D01*
X41443367Y-53557799D01*
X41438284Y-53556894D01*
X41364452Y-53555992D01*
X41220081Y-53554228D01*
X41220079Y-53554228D01*
X41214911Y-53554165D01*
X40994091Y-53587955D01*
X40781756Y-53657357D01*
X40751443Y-53673137D01*
X40607975Y-53747822D01*
X40583607Y-53760507D01*
X40579474Y-53763610D01*
X40579471Y-53763612D01*
X40428025Y-53877321D01*
X40404965Y-53894635D01*
X40401393Y-53898373D01*
X40266014Y-54040039D01*
X40250629Y-54056138D01*
X40143201Y-54213621D01*
X40088293Y-54258621D01*
X40017768Y-54266792D01*
X39954021Y-54235538D01*
X39933324Y-54211054D01*
X39852822Y-54086617D01*
X39852820Y-54086614D01*
X39850014Y-54082277D01*
X39699670Y-53917051D01*
X39695619Y-53913852D01*
X39695615Y-53913848D01*
X39528414Y-53781800D01*
X39528410Y-53781798D01*
X39524359Y-53778598D01*
X39498533Y-53764341D01*
X39423590Y-53722971D01*
X39328789Y-53670638D01*
X39323920Y-53668914D01*
X39323916Y-53668912D01*
X39138006Y-53603078D01*
X39080470Y-53561484D01*
X39054554Y-53495386D01*
X39060233Y-53445369D01*
X39097002Y-53332206D01*
X39099042Y-53325928D01*
X39104986Y-53269380D01*
X39118314Y-53142565D01*
X39119004Y-53136000D01*
X39106319Y-53015309D01*
X39099732Y-52952635D01*
X39099732Y-52952633D01*
X39099042Y-52946072D01*
X39040027Y-52764444D01*
X38944540Y-52599056D01*
X38816753Y-52457134D01*
X38662252Y-52344882D01*
X38656224Y-52342198D01*
X38656222Y-52342197D01*
X38493819Y-52269891D01*
X38493818Y-52269891D01*
X38487788Y-52267206D01*
X38383294Y-52244995D01*
X38307444Y-52228872D01*
X38307439Y-52228872D01*
X38300987Y-52227500D01*
X38110013Y-52227500D01*
X38103561Y-52228872D01*
X38103556Y-52228872D01*
X38027706Y-52244995D01*
X37923212Y-52267206D01*
X37917182Y-52269891D01*
X37917181Y-52269891D01*
X37754778Y-52342197D01*
X37754776Y-52342198D01*
X37748748Y-52344882D01*
X37594247Y-52457134D01*
X37466460Y-52599056D01*
X37370973Y-52764444D01*
X37311958Y-52946072D01*
X37311268Y-52952633D01*
X37311268Y-52952635D01*
X37304681Y-53015309D01*
X37291996Y-53136000D01*
X37292686Y-53142565D01*
X37292686Y-53142569D01*
X37292762Y-53143293D01*
X37292686Y-53143708D01*
X37292686Y-53149170D01*
X37291687Y-53149170D01*
X37279984Y-53213131D01*
X37256546Y-53245549D01*
X37202746Y-53299349D01*
X37194460Y-53306889D01*
X37187981Y-53311001D01*
X37182556Y-53316778D01*
X37141356Y-53360652D01*
X37138601Y-53363494D01*
X37118864Y-53383231D01*
X37116384Y-53386428D01*
X37108681Y-53395448D01*
X37078413Y-53427680D01*
X37074594Y-53434626D01*
X37074592Y-53434629D01*
X37068651Y-53445435D01*
X37057800Y-53461954D01*
X37045385Y-53477960D01*
X37042240Y-53485229D01*
X37042237Y-53485233D01*
X37027825Y-53518538D01*
X37022608Y-53529188D01*
X37001304Y-53567941D01*
X36999333Y-53575616D01*
X36999333Y-53575617D01*
X36996266Y-53587563D01*
X36989865Y-53606261D01*
X36983697Y-53620515D01*
X36938288Y-53675088D01*
X36870581Y-53696449D01*
X36807167Y-53680783D01*
X36793316Y-53673137D01*
X36788789Y-53670638D01*
X36783920Y-53668914D01*
X36783916Y-53668912D01*
X36583087Y-53597795D01*
X36583083Y-53597794D01*
X36578212Y-53596069D01*
X36573119Y-53595162D01*
X36573116Y-53595161D01*
X36363373Y-53557800D01*
X36363367Y-53557799D01*
X36358284Y-53556894D01*
X36284452Y-53555992D01*
X36140081Y-53554228D01*
X36140079Y-53554228D01*
X36134911Y-53554165D01*
X35914091Y-53587955D01*
X35701756Y-53657357D01*
X35671443Y-53673137D01*
X35527975Y-53747822D01*
X35503607Y-53760507D01*
X35499474Y-53763610D01*
X35499471Y-53763612D01*
X35348025Y-53877321D01*
X35324965Y-53894635D01*
X35321393Y-53898373D01*
X35186014Y-54040039D01*
X35170629Y-54056138D01*
X35167720Y-54060403D01*
X35167714Y-54060411D01*
X35082556Y-54185249D01*
X35044743Y-54240680D01*
X34950688Y-54443305D01*
X34890989Y-54658570D01*
X34867251Y-54880695D01*
X34308500Y-54880695D01*
X34308500Y-36108869D01*
X36963395Y-36108869D01*
X36963692Y-36114022D01*
X36963692Y-36114025D01*
X36969367Y-36212441D01*
X36976727Y-36340097D01*
X36977864Y-36345143D01*
X36977865Y-36345149D01*
X37001589Y-36450417D01*
X37027646Y-36566042D01*
X37029588Y-36570824D01*
X37029589Y-36570828D01*
X37112840Y-36775850D01*
X37114784Y-36780637D01*
X37235801Y-36978119D01*
X37387447Y-37153184D01*
X37565649Y-37301130D01*
X37765622Y-37417984D01*
X37770447Y-37419826D01*
X37770448Y-37419827D01*
X37844965Y-37448283D01*
X37981994Y-37500609D01*
X37987060Y-37501640D01*
X37987061Y-37501640D01*
X37999531Y-37504177D01*
X38208956Y-37546785D01*
X38339624Y-37551576D01*
X38435249Y-37555083D01*
X38435253Y-37555083D01*
X38440413Y-37555272D01*
X38445533Y-37554616D01*
X38445535Y-37554616D01*
X38548668Y-37541404D01*
X38670147Y-37525842D01*
X38675095Y-37524357D01*
X38675102Y-37524356D01*
X38887047Y-37460769D01*
X38891990Y-37459286D01*
X38898657Y-37456020D01*
X39095349Y-37359662D01*
X39095352Y-37359660D01*
X39099984Y-37357391D01*
X39288543Y-37222894D01*
X39452603Y-37059405D01*
X39472942Y-37031101D01*
X39491067Y-37005877D01*
X39587758Y-36871317D01*
X39599413Y-36847736D01*
X39688084Y-36668322D01*
X39688085Y-36668320D01*
X39690378Y-36663680D01*
X39757708Y-36442071D01*
X39787940Y-36212441D01*
X39788451Y-36191529D01*
X39789545Y-36146765D01*
X39789545Y-36146761D01*
X39789627Y-36143400D01*
X39786788Y-36108869D01*
X47910795Y-36108869D01*
X47911092Y-36114022D01*
X47911092Y-36114025D01*
X47916767Y-36212441D01*
X47924127Y-36340097D01*
X47925264Y-36345143D01*
X47925265Y-36345149D01*
X47948989Y-36450417D01*
X47975046Y-36566042D01*
X47976988Y-36570824D01*
X47976989Y-36570828D01*
X48060240Y-36775850D01*
X48062184Y-36780637D01*
X48183201Y-36978119D01*
X48334847Y-37153184D01*
X48513049Y-37301130D01*
X48713022Y-37417984D01*
X48717847Y-37419826D01*
X48717848Y-37419827D01*
X48792365Y-37448283D01*
X48929394Y-37500609D01*
X48934460Y-37501640D01*
X48934461Y-37501640D01*
X48946931Y-37504177D01*
X49156356Y-37546785D01*
X49287024Y-37551576D01*
X49382649Y-37555083D01*
X49382653Y-37555083D01*
X49387813Y-37555272D01*
X49392933Y-37554616D01*
X49392935Y-37554616D01*
X49496068Y-37541404D01*
X49617547Y-37525842D01*
X49622495Y-37524357D01*
X49622502Y-37524356D01*
X49834447Y-37460769D01*
X49839390Y-37459286D01*
X49846057Y-37456020D01*
X50042749Y-37359662D01*
X50042752Y-37359660D01*
X50047384Y-37357391D01*
X50235943Y-37222894D01*
X50400003Y-37059405D01*
X50420342Y-37031101D01*
X50438467Y-37005877D01*
X50535158Y-36871317D01*
X50546813Y-36847736D01*
X50635484Y-36668322D01*
X50635485Y-36668320D01*
X50637778Y-36663680D01*
X50705108Y-36442071D01*
X50735340Y-36212441D01*
X50735851Y-36191529D01*
X50736945Y-36146765D01*
X50736945Y-36146761D01*
X50737027Y-36143400D01*
X50728577Y-36040625D01*
X50722399Y-35965469D01*
X56467095Y-35965469D01*
X56467392Y-35970622D01*
X56467392Y-35970625D01*
X56477103Y-36139041D01*
X56480427Y-36196697D01*
X56481564Y-36201743D01*
X56481565Y-36201749D01*
X56505832Y-36309428D01*
X56531346Y-36422642D01*
X56533288Y-36427424D01*
X56533289Y-36427428D01*
X56607474Y-36610122D01*
X56618484Y-36637237D01*
X56658447Y-36702450D01*
X56728180Y-36816244D01*
X56739501Y-36834719D01*
X56891147Y-37009784D01*
X57069349Y-37157730D01*
X57269322Y-37274584D01*
X57485694Y-37357209D01*
X57490760Y-37358240D01*
X57490761Y-37358240D01*
X57543846Y-37369040D01*
X57712656Y-37403385D01*
X57843324Y-37408176D01*
X57938949Y-37411683D01*
X57938953Y-37411683D01*
X57944113Y-37411872D01*
X57949233Y-37411216D01*
X57949235Y-37411216D01*
X58022270Y-37401860D01*
X58173847Y-37382442D01*
X58178795Y-37380957D01*
X58178802Y-37380956D01*
X58390747Y-37317369D01*
X58395690Y-37315886D01*
X58400324Y-37313616D01*
X58599049Y-37216262D01*
X58599052Y-37216260D01*
X58603684Y-37213991D01*
X58792243Y-37079494D01*
X58956303Y-36916005D01*
X59091458Y-36727917D01*
X59096659Y-36717395D01*
X59191784Y-36524922D01*
X59191785Y-36524920D01*
X59194078Y-36520280D01*
X59261408Y-36298671D01*
X59291640Y-36069041D01*
X59291722Y-36065691D01*
X59292461Y-36035469D01*
X62177095Y-36035469D01*
X62177392Y-36040622D01*
X62177392Y-36040625D01*
X62190129Y-36261529D01*
X62190427Y-36266697D01*
X62191564Y-36271743D01*
X62191565Y-36271749D01*
X62216596Y-36382818D01*
X62241346Y-36492642D01*
X62243288Y-36497424D01*
X62243289Y-36497428D01*
X62298116Y-36632450D01*
X62328484Y-36707237D01*
X62449501Y-36904719D01*
X62601147Y-37079784D01*
X62779349Y-37227730D01*
X62979322Y-37344584D01*
X63195694Y-37427209D01*
X63200760Y-37428240D01*
X63200761Y-37428240D01*
X63253846Y-37439040D01*
X63422656Y-37473385D01*
X63553324Y-37478176D01*
X63648949Y-37481683D01*
X63648953Y-37481683D01*
X63654113Y-37481872D01*
X63659233Y-37481216D01*
X63659235Y-37481216D01*
X63732270Y-37471860D01*
X63883847Y-37452442D01*
X63888795Y-37450957D01*
X63888802Y-37450956D01*
X64100747Y-37387369D01*
X64105690Y-37385886D01*
X64112720Y-37382442D01*
X64309049Y-37286262D01*
X64309052Y-37286260D01*
X64313684Y-37283991D01*
X64502243Y-37149494D01*
X64666303Y-36986005D01*
X64801458Y-36797917D01*
X64809999Y-36780637D01*
X64901784Y-36594922D01*
X64901785Y-36594920D01*
X64904078Y-36590280D01*
X64971408Y-36368671D01*
X65001640Y-36139041D01*
X65002042Y-36122601D01*
X65003245Y-36073365D01*
X65003245Y-36073361D01*
X65003327Y-36070000D01*
X64989972Y-35907556D01*
X64984773Y-35844318D01*
X64984772Y-35844312D01*
X64984349Y-35839167D01*
X64956137Y-35726850D01*
X64929184Y-35619544D01*
X64929183Y-35619540D01*
X64927925Y-35614533D01*
X64925866Y-35609797D01*
X64837630Y-35406868D01*
X64837628Y-35406865D01*
X64835570Y-35402131D01*
X64709764Y-35207665D01*
X64553887Y-35036358D01*
X64549836Y-35033159D01*
X64549832Y-35033155D01*
X64376177Y-34896011D01*
X64376172Y-34896008D01*
X64372123Y-34892810D01*
X64367607Y-34890317D01*
X64367604Y-34890315D01*
X64173879Y-34783373D01*
X64173875Y-34783371D01*
X64169355Y-34780876D01*
X64164486Y-34779152D01*
X64164482Y-34779150D01*
X63955903Y-34705288D01*
X63955899Y-34705287D01*
X63951028Y-34703562D01*
X63945935Y-34702655D01*
X63945932Y-34702654D01*
X63728095Y-34663851D01*
X63728089Y-34663850D01*
X63723006Y-34662945D01*
X63650096Y-34662054D01*
X63496581Y-34660179D01*
X63496579Y-34660179D01*
X63491411Y-34660116D01*
X63262464Y-34695150D01*
X63042314Y-34767106D01*
X63037726Y-34769494D01*
X63037722Y-34769496D01*
X62841461Y-34871663D01*
X62836872Y-34874052D01*
X62832739Y-34877155D01*
X62832736Y-34877157D01*
X62708840Y-34970181D01*
X62651655Y-35013117D01*
X62648083Y-35016855D01*
X62558533Y-35110564D01*
X62491639Y-35180564D01*
X62488725Y-35184836D01*
X62488724Y-35184837D01*
X62473152Y-35207665D01*
X62361119Y-35371899D01*
X62263602Y-35581981D01*
X62201707Y-35805169D01*
X62177095Y-36035469D01*
X59292461Y-36035469D01*
X59293245Y-36003365D01*
X59293245Y-36003361D01*
X59293327Y-36000000D01*
X59285727Y-35907556D01*
X59274773Y-35774318D01*
X59274772Y-35774312D01*
X59274349Y-35769167D01*
X59245768Y-35655381D01*
X59219184Y-35549544D01*
X59219183Y-35549540D01*
X59217925Y-35544533D01*
X59215866Y-35539797D01*
X59127630Y-35336868D01*
X59127628Y-35336865D01*
X59125570Y-35332131D01*
X58999764Y-35137665D01*
X58843887Y-34966358D01*
X58839836Y-34963159D01*
X58839832Y-34963155D01*
X58666177Y-34826011D01*
X58666172Y-34826008D01*
X58662123Y-34822810D01*
X58657607Y-34820317D01*
X58657604Y-34820315D01*
X58463879Y-34713373D01*
X58463875Y-34713371D01*
X58459355Y-34710876D01*
X58454486Y-34709152D01*
X58454482Y-34709150D01*
X58245903Y-34635288D01*
X58245899Y-34635287D01*
X58241028Y-34633562D01*
X58235935Y-34632655D01*
X58235932Y-34632654D01*
X58018095Y-34593851D01*
X58018089Y-34593850D01*
X58013006Y-34592945D01*
X57940096Y-34592054D01*
X57786581Y-34590179D01*
X57786579Y-34590179D01*
X57781411Y-34590116D01*
X57552464Y-34625150D01*
X57332314Y-34697106D01*
X57327726Y-34699494D01*
X57327722Y-34699496D01*
X57166596Y-34783373D01*
X57126872Y-34804052D01*
X57122739Y-34807155D01*
X57122736Y-34807157D01*
X57004394Y-34896011D01*
X56941655Y-34943117D01*
X56938083Y-34946855D01*
X56848899Y-35040181D01*
X56781639Y-35110564D01*
X56778725Y-35114836D01*
X56778724Y-35114837D01*
X56763152Y-35137665D01*
X56651119Y-35301899D01*
X56553602Y-35511981D01*
X56491707Y-35735169D01*
X56467095Y-35965469D01*
X50722399Y-35965469D01*
X50718473Y-35917718D01*
X50718472Y-35917712D01*
X50718049Y-35912567D01*
X50661625Y-35687933D01*
X50659566Y-35683197D01*
X50571330Y-35480268D01*
X50571328Y-35480265D01*
X50569270Y-35475531D01*
X50443464Y-35281065D01*
X50287587Y-35109758D01*
X50283536Y-35106559D01*
X50283532Y-35106555D01*
X50109877Y-34969411D01*
X50109872Y-34969408D01*
X50105823Y-34966210D01*
X50101307Y-34963717D01*
X50101304Y-34963715D01*
X49907579Y-34856773D01*
X49907575Y-34856771D01*
X49903055Y-34854276D01*
X49898186Y-34852552D01*
X49898182Y-34852550D01*
X49689603Y-34778688D01*
X49689599Y-34778687D01*
X49684728Y-34776962D01*
X49679635Y-34776055D01*
X49679632Y-34776054D01*
X49461795Y-34737251D01*
X49461789Y-34737250D01*
X49456706Y-34736345D01*
X49383796Y-34735454D01*
X49230281Y-34733579D01*
X49230279Y-34733579D01*
X49225111Y-34733516D01*
X48996164Y-34768550D01*
X48776014Y-34840506D01*
X48771426Y-34842894D01*
X48771422Y-34842896D01*
X48584864Y-34940012D01*
X48570572Y-34947452D01*
X48566439Y-34950555D01*
X48566436Y-34950557D01*
X48389490Y-35083412D01*
X48385355Y-35086517D01*
X48381783Y-35090255D01*
X48229764Y-35249334D01*
X48225339Y-35253964D01*
X48222425Y-35258236D01*
X48222424Y-35258237D01*
X48206852Y-35281065D01*
X48094819Y-35445299D01*
X47997302Y-35655381D01*
X47935407Y-35878569D01*
X47910795Y-36108869D01*
X39786788Y-36108869D01*
X39781177Y-36040625D01*
X39771073Y-35917718D01*
X39771072Y-35917712D01*
X39770649Y-35912567D01*
X39714225Y-35687933D01*
X39712166Y-35683197D01*
X39623930Y-35480268D01*
X39623928Y-35480265D01*
X39621870Y-35475531D01*
X39496064Y-35281065D01*
X39340187Y-35109758D01*
X39336136Y-35106559D01*
X39336132Y-35106555D01*
X39162477Y-34969411D01*
X39162472Y-34969408D01*
X39158423Y-34966210D01*
X39153907Y-34963717D01*
X39153904Y-34963715D01*
X38960179Y-34856773D01*
X38960175Y-34856771D01*
X38955655Y-34854276D01*
X38950786Y-34852552D01*
X38950782Y-34852550D01*
X38742203Y-34778688D01*
X38742199Y-34778687D01*
X38737328Y-34776962D01*
X38732235Y-34776055D01*
X38732232Y-34776054D01*
X38514395Y-34737251D01*
X38514389Y-34737250D01*
X38509306Y-34736345D01*
X38436396Y-34735454D01*
X38282881Y-34733579D01*
X38282879Y-34733579D01*
X38277711Y-34733516D01*
X38048764Y-34768550D01*
X37828614Y-34840506D01*
X37824026Y-34842894D01*
X37824022Y-34842896D01*
X37637464Y-34940012D01*
X37623172Y-34947452D01*
X37619039Y-34950555D01*
X37619036Y-34950557D01*
X37442090Y-35083412D01*
X37437955Y-35086517D01*
X37434383Y-35090255D01*
X37282364Y-35249334D01*
X37277939Y-35253964D01*
X37275025Y-35258236D01*
X37275024Y-35258237D01*
X37259452Y-35281065D01*
X37147419Y-35445299D01*
X37049902Y-35655381D01*
X36988007Y-35878569D01*
X36963395Y-36108869D01*
X34308500Y-36108869D01*
X34308500Y-33784500D01*
X34328502Y-33716379D01*
X34382158Y-33669886D01*
X34434500Y-33658500D01*
X88665500Y-33658500D01*
X88733621Y-33678502D01*
G37*
G04 #@! TD.AperFunction*
G04 #@! TA.AperFunction,Conductor*
G36*
X81210665Y-47080791D02*
G01*
X81210900Y-47080068D01*
X81217180Y-47082108D01*
X81223212Y-47084794D01*
X81314500Y-47104198D01*
X81403556Y-47123128D01*
X81403561Y-47123128D01*
X81410013Y-47124500D01*
X81570500Y-47124500D01*
X81638621Y-47144502D01*
X81685114Y-47198158D01*
X81696500Y-47250500D01*
X81696500Y-49355406D01*
X81676498Y-49423527D01*
X81659595Y-49444501D01*
X79651271Y-51452824D01*
X79588959Y-51486850D01*
X79562176Y-51489729D01*
X71131209Y-51489729D01*
X71063088Y-51469727D01*
X71043862Y-51453386D01*
X71043589Y-51453689D01*
X71038677Y-51449266D01*
X71034262Y-51444363D01*
X70970737Y-51398209D01*
X70885103Y-51335992D01*
X70885102Y-51335991D01*
X70879761Y-51332111D01*
X70873733Y-51329427D01*
X70873731Y-51329426D01*
X70711328Y-51257120D01*
X70711327Y-51257120D01*
X70705297Y-51254435D01*
X70611896Y-51234582D01*
X70524953Y-51216101D01*
X70524948Y-51216101D01*
X70518496Y-51214729D01*
X70327522Y-51214729D01*
X70321070Y-51216101D01*
X70321065Y-51216101D01*
X70234122Y-51234582D01*
X70140721Y-51254435D01*
X70134694Y-51257118D01*
X70134686Y-51257121D01*
X70040748Y-51298945D01*
X69970381Y-51308379D01*
X69906084Y-51278272D01*
X69868271Y-51218183D01*
X69863500Y-51183838D01*
X69863500Y-49804594D01*
X69883502Y-49736473D01*
X69900405Y-49715499D01*
X70455499Y-49160405D01*
X70517811Y-49126379D01*
X70544594Y-49123500D01*
X72155405Y-49123500D01*
X72223526Y-49143502D01*
X72244501Y-49160405D01*
X72432986Y-49348891D01*
X72616353Y-49532258D01*
X72623887Y-49540537D01*
X72628000Y-49547018D01*
X72661525Y-49578500D01*
X72677651Y-49593643D01*
X72680493Y-49596398D01*
X72700230Y-49616135D01*
X72703427Y-49618615D01*
X72712447Y-49626318D01*
X72744679Y-49656586D01*
X72751625Y-49660405D01*
X72751628Y-49660407D01*
X72762434Y-49666348D01*
X72778953Y-49677199D01*
X72794959Y-49689614D01*
X72802228Y-49692759D01*
X72802232Y-49692762D01*
X72835537Y-49707174D01*
X72846187Y-49712391D01*
X72884940Y-49733695D01*
X72892615Y-49735666D01*
X72892616Y-49735666D01*
X72904562Y-49738733D01*
X72923267Y-49745137D01*
X72941855Y-49753181D01*
X72949678Y-49754420D01*
X72949688Y-49754423D01*
X72985524Y-49760099D01*
X72997144Y-49762505D01*
X73028959Y-49770673D01*
X73039970Y-49773500D01*
X73060224Y-49773500D01*
X73079934Y-49775051D01*
X73099943Y-49778220D01*
X73107835Y-49777474D01*
X73126580Y-49775702D01*
X73143962Y-49774059D01*
X73155819Y-49773500D01*
X73521233Y-49773500D01*
X73532416Y-49774027D01*
X73539909Y-49775702D01*
X73547835Y-49775453D01*
X73547836Y-49775453D01*
X73607986Y-49773562D01*
X73611945Y-49773500D01*
X73639856Y-49773500D01*
X73643791Y-49773003D01*
X73643856Y-49772995D01*
X73655693Y-49772062D01*
X73687951Y-49771048D01*
X73691970Y-49770922D01*
X73699889Y-49770673D01*
X73719343Y-49765021D01*
X73738700Y-49761013D01*
X73750930Y-49759468D01*
X73750931Y-49759468D01*
X73758797Y-49758474D01*
X73766168Y-49755555D01*
X73766170Y-49755555D01*
X73799912Y-49742196D01*
X73811140Y-49738352D01*
X73827826Y-49733504D01*
X73862981Y-49728500D01*
X74015487Y-49728500D01*
X74021939Y-49727128D01*
X74021944Y-49727128D01*
X74115817Y-49707174D01*
X74202288Y-49688794D01*
X74213561Y-49683775D01*
X74370722Y-49613803D01*
X74370724Y-49613802D01*
X74376752Y-49611118D01*
X74387308Y-49603449D01*
X74464978Y-49547018D01*
X74531253Y-49498866D01*
X74535675Y-49493955D01*
X74654621Y-49361852D01*
X74654622Y-49361851D01*
X74659040Y-49356944D01*
X74737882Y-49220386D01*
X74751223Y-49197279D01*
X74751224Y-49197278D01*
X74754527Y-49191556D01*
X74813542Y-49009928D01*
X74814848Y-48997507D01*
X74832814Y-48826565D01*
X74833504Y-48820000D01*
X74832814Y-48813435D01*
X74814232Y-48636635D01*
X74814232Y-48636633D01*
X74813542Y-48630072D01*
X74808852Y-48615638D01*
X74806823Y-48544672D01*
X74843483Y-48483873D01*
X74907195Y-48452546D01*
X74928684Y-48450700D01*
X79084033Y-48450700D01*
X79095216Y-48451227D01*
X79102709Y-48452902D01*
X79110635Y-48452653D01*
X79110636Y-48452653D01*
X79170786Y-48450762D01*
X79174745Y-48450700D01*
X79202656Y-48450700D01*
X79206591Y-48450203D01*
X79206656Y-48450195D01*
X79218493Y-48449262D01*
X79250751Y-48448248D01*
X79254770Y-48448122D01*
X79262689Y-48447873D01*
X79282143Y-48442221D01*
X79301500Y-48438213D01*
X79313730Y-48436668D01*
X79313731Y-48436668D01*
X79321597Y-48435674D01*
X79328968Y-48432755D01*
X79328970Y-48432755D01*
X79362712Y-48419396D01*
X79373942Y-48415551D01*
X79408783Y-48405429D01*
X79408784Y-48405429D01*
X79416393Y-48403218D01*
X79423212Y-48399185D01*
X79423217Y-48399183D01*
X79433828Y-48392907D01*
X79451576Y-48384212D01*
X79470417Y-48376752D01*
X79481565Y-48368653D01*
X79506187Y-48350764D01*
X79516107Y-48344248D01*
X79547335Y-48325780D01*
X79547338Y-48325778D01*
X79554162Y-48321742D01*
X79568483Y-48307421D01*
X79583517Y-48294580D01*
X79593494Y-48287331D01*
X79599907Y-48282672D01*
X79604957Y-48276568D01*
X79604962Y-48276563D01*
X79628093Y-48248602D01*
X79636083Y-48239821D01*
X80186001Y-47689904D01*
X80248313Y-47655879D01*
X80275096Y-47653000D01*
X80330987Y-47653000D01*
X80337439Y-47651628D01*
X80337444Y-47651628D01*
X80454633Y-47626718D01*
X80517788Y-47613294D01*
X80523819Y-47610609D01*
X80686222Y-47538303D01*
X80686224Y-47538302D01*
X80692252Y-47535618D01*
X80698668Y-47530957D01*
X80796331Y-47460000D01*
X80846753Y-47423366D01*
X80851175Y-47418455D01*
X80970121Y-47286352D01*
X80970122Y-47286351D01*
X80974540Y-47281444D01*
X81058984Y-47135183D01*
X81110367Y-47086190D01*
X81180080Y-47072754D01*
X81210665Y-47080791D01*
G37*
G04 #@! TD.AperFunction*
M02*
