%TF.GenerationSoftware,KiCad,Pcbnew,9.0.1*%
%TF.CreationDate,2026-01-24T20:50:59+01:00*%
%TF.ProjectId,front-back,66726f6e-742d-4626-9163-6b2e6b696361,rev?*%
%TF.SameCoordinates,Original*%
%TF.FileFunction,Profile,NP*%
%FSLAX46Y46*%
G04 Gerber Fmt 4.6, Leading zero omitted, Abs format (unit mm)*
G04 Created by KiCad (PCBNEW 9.0.1) date 2026-01-24 20:50:59*
%MOMM*%
%LPD*%
G01*
G04 APERTURE LIST*
%TA.AperFunction,Profile*%
%ADD10C,0.050000*%
%TD*%
G04 APERTURE END LIST*
D10*
X69900000Y-54600000D02*
G75*
G02*
X73700000Y-54600000I1900000J0D01*
G01*
X127100000Y-75100000D02*
X141000000Y-75100000D01*
X64900000Y-76700000D02*
X64900000Y-75100000D01*
X69900000Y-54600000D02*
X64900000Y-54600000D01*
X127100000Y-76700000D02*
X127100000Y-75100000D01*
X78700000Y-76700000D02*
X78700000Y-75100000D01*
X127100000Y-54600000D02*
X122100000Y-54600000D01*
X78700000Y-54600000D02*
X73700000Y-54600000D01*
X127100000Y-54600000D02*
X127100000Y-56200000D01*
X147000000Y-62200000D02*
G75*
G02*
X141000000Y-56200000I0J6000000D01*
G01*
X113300000Y-56200000D02*
X78700000Y-56200000D01*
X113300000Y-76700000D02*
X113300000Y-75100000D01*
X118200000Y-76700000D02*
G75*
G02*
X122200000Y-76700000I2000000J0D01*
G01*
X45000000Y-62200000D02*
X45000000Y-69100000D01*
X64900000Y-76700000D02*
X69800000Y-76700000D01*
X73800000Y-76700000D02*
X78700000Y-76700000D01*
X147000000Y-62200000D02*
X147000000Y-69100000D01*
X51000000Y-75100000D02*
X64900000Y-75100000D01*
X69800000Y-76700000D02*
G75*
G02*
X73800000Y-76700000I2000000J0D01*
G01*
X64900000Y-54600000D02*
X64900000Y-56200000D01*
X113300000Y-75100000D02*
X78700000Y-75100000D01*
X113300000Y-76700000D02*
X118200000Y-76700000D01*
X45000000Y-69100000D02*
G75*
G02*
X51000000Y-75100000I0J-6000000D01*
G01*
X127100000Y-56200000D02*
X141000000Y-56200000D01*
X51000000Y-56200000D02*
X64900000Y-56200000D01*
X141000000Y-75100000D02*
G75*
G02*
X147000000Y-69100000I6000000J0D01*
G01*
X78700000Y-54600000D02*
X78700000Y-56200000D01*
X113300000Y-54600000D02*
X113300000Y-56200000D01*
X122200000Y-76700000D02*
X127100000Y-76700000D01*
X51000000Y-56200000D02*
G75*
G02*
X45000000Y-62200000I-6000000J0D01*
G01*
X118300000Y-54600000D02*
X113300000Y-54600000D01*
X118300000Y-54600000D02*
G75*
G02*
X122100000Y-54600000I1900000J0D01*
G01*
M02*
