%TF.GenerationSoftware,KiCad,Pcbnew,9.0.1*%
%TF.CreationDate,2026-03-03T22:48:56+01:00*%
%TF.ProjectId,bottom,626f7474-6f6d-42e6-9b69-6361645f7063,rev?*%
%TF.SameCoordinates,Original*%
%TF.FileFunction,Soldermask,Top*%
%TF.FilePolarity,Negative*%
%FSLAX46Y46*%
G04 Gerber Fmt 4.6, Leading zero omitted, Abs format (unit mm)*
G04 Created by KiCad (PCBNEW 9.0.1) date 2026-03-03 22:48:56*
%MOMM*%
%LPD*%
G01*
G04 APERTURE LIST*
G04 Aperture macros list*
%AMRoundRect*
0 Rectangle with rounded corners*
0 $1 Rounding radius*
0 $2 $3 $4 $5 $6 $7 $8 $9 X,Y pos of 4 corners*
0 Add a 4 corners polygon primitive as box body*
4,1,4,$2,$3,$4,$5,$6,$7,$8,$9,$2,$3,0*
0 Add four circle primitives for the rounded corners*
1,1,$1+$1,$2,$3*
1,1,$1+$1,$4,$5*
1,1,$1+$1,$6,$7*
1,1,$1+$1,$8,$9*
0 Add four rect primitives between the rounded corners*
20,1,$1+$1,$2,$3,$4,$5,0*
20,1,$1+$1,$4,$5,$6,$7,0*
20,1,$1+$1,$6,$7,$8,$9,0*
20,1,$1+$1,$8,$9,$2,$3,0*%
G04 Aperture macros list end*
%ADD10C,8.400000*%
%ADD11RoundRect,0.225000X0.775000X0.525000X-0.775000X0.525000X-0.775000X-0.525000X0.775000X-0.525000X0*%
%ADD12RoundRect,0.225000X0.525000X-0.775000X0.525000X0.775000X-0.525000X0.775000X-0.525000X-0.775000X0*%
%ADD13C,5.000000*%
G04 APERTURE END LIST*
D10*
%TO.C,*%
X78300000Y-39900000D03*
%TD*%
%TO.C,*%
X139600000Y-114455000D03*
%TD*%
D11*
%TO.C,REF\u002A\u002A*%
X162400000Y-60600000D03*
X162400000Y-59200000D03*
X162400000Y-57800000D03*
%TD*%
D12*
%TO.C,REF\u002A\u002A*%
X47800000Y-132800000D03*
X49200000Y-132800000D03*
X50600000Y-132800000D03*
%TD*%
%TO.C,REF\u002A\u002A*%
X77000000Y-34300000D03*
X78400000Y-34300000D03*
X79800000Y-34300000D03*
%TD*%
D10*
%TO.C,*%
X139600000Y-52735000D03*
%TD*%
D13*
%TO.C,*%
X156700000Y-68300000D03*
%TD*%
D12*
%TO.C,REF\u002A\u002A*%
X138200000Y-34300000D03*
X139600000Y-34300000D03*
X141000000Y-34300000D03*
%TD*%
D10*
%TO.C,*%
X139700000Y-127300000D03*
%TD*%
D12*
%TO.C,REF\u002A\u002A*%
X109500000Y-34300000D03*
X110900000Y-34300000D03*
X112300000Y-34300000D03*
%TD*%
D11*
%TO.C,REF\u002A\u002A*%
X49300000Y-60900000D03*
X49300000Y-59500000D03*
X49300000Y-58100000D03*
%TD*%
D12*
%TO.C,REF\u002A\u002A*%
X109600000Y-132800000D03*
X111000000Y-132800000D03*
X112400000Y-132800000D03*
%TD*%
D11*
%TO.C,REF\u002A\u002A*%
X49300000Y-109300000D03*
X49300000Y-107900000D03*
X49300000Y-106500000D03*
%TD*%
D10*
%TO.C,REF\u002A\u002A*%
X63300000Y-52790000D03*
%TD*%
D12*
%TO.C,REF\u002A\u002A*%
X77000000Y-133100000D03*
X78400000Y-133100000D03*
X79800000Y-133100000D03*
%TD*%
D10*
%TO.C,*%
X63300000Y-114455000D03*
%TD*%
D11*
%TO.C,REF\u002A\u002A*%
X49200000Y-85200000D03*
X49200000Y-83800000D03*
X49200000Y-82400000D03*
%TD*%
D13*
%TO.C,*%
X156600000Y-108700000D03*
%TD*%
D10*
%TO.C,*%
X78300000Y-127300000D03*
%TD*%
D11*
%TO.C,REF\u002A\u002A*%
X162600000Y-109300000D03*
X162600000Y-107900000D03*
X162600000Y-106500000D03*
%TD*%
D10*
%TO.C,*%
X139700000Y-39900000D03*
%TD*%
%TO.C,*%
X157900000Y-83600000D03*
%TD*%
D12*
%TO.C,REF\u002A\u002A*%
X138100000Y-132600000D03*
X139500000Y-132600000D03*
X140900000Y-132600000D03*
%TD*%
%TO.C,REF\u002A\u002A*%
X47900000Y-34700000D03*
X49300000Y-34700000D03*
X50700000Y-34700000D03*
%TD*%
M02*
