%TF.GenerationSoftware,KiCad,Pcbnew,9.0.1*%
%TF.CreationDate,2026-03-03T22:48:56+01:00*%
%TF.ProjectId,bottom,626f7474-6f6d-42e6-9b69-6361645f7063,rev?*%
%TF.SameCoordinates,Original*%
%TF.FileFunction,Profile,NP*%
%FSLAX46Y46*%
G04 Gerber Fmt 4.6, Leading zero omitted, Abs format (unit mm)*
G04 Created by KiCad (PCBNEW 9.0.1) date 2026-03-03 22:48:56*
%MOMM*%
%LPD*%
G01*
G04 APERTURE LIST*
%TA.AperFunction,Profile*%
%ADD10C,0.050000*%
%TD*%
%ADD11C,0.050000*%
G04 APERTURE END LIST*
D10*
X58100000Y-32500000D02*
X58400000Y-32800000D01*
X56100000Y-32500000D02*
X58100000Y-32500000D01*
X119100000Y-32500000D02*
X121100000Y-32500000D01*
X86600000Y-32500000D02*
X86600000Y-30900000D01*
X131100000Y-32500000D02*
X130800000Y-32800000D01*
D11*
X166100000Y-40500000D02*
X166099960Y-40490949D01*
X166099840Y-40481879D01*
X166099639Y-40472792D01*
X166099359Y-40463686D01*
X166098997Y-40454561D01*
X166098555Y-40445417D01*
X166098031Y-40436253D01*
X166097427Y-40427070D01*
X166096740Y-40417865D01*
X166095972Y-40408641D01*
X166095122Y-40399395D01*
X166094189Y-40390127D01*
X166093174Y-40380838D01*
X166092076Y-40371526D01*
X166090894Y-40362192D01*
X166089629Y-40352835D01*
X166088280Y-40343455D01*
X166086847Y-40334051D01*
X166085329Y-40324623D01*
X166083726Y-40315171D01*
X166082038Y-40305693D01*
X166080264Y-40296191D01*
X166078404Y-40286663D01*
X166076457Y-40277110D01*
X166074423Y-40267530D01*
X166072301Y-40257923D01*
X166070092Y-40248290D01*
X166067794Y-40238629D01*
X166065407Y-40228941D01*
X166062931Y-40219225D01*
X166060365Y-40209480D01*
X166057709Y-40199707D01*
X166054962Y-40189905D01*
X166052123Y-40180073D01*
X166049193Y-40170211D01*
X166046170Y-40160319D01*
X166043054Y-40150397D01*
X166039844Y-40140444D01*
X166036541Y-40130460D01*
X166033142Y-40120444D01*
X166029648Y-40110397D01*
X166026058Y-40100317D01*
X166022372Y-40090205D01*
X166018588Y-40080060D01*
X166014706Y-40069881D01*
X166010726Y-40059670D01*
X166006647Y-40049424D01*
X166002468Y-40039144D01*
X165998188Y-40028829D01*
X165993807Y-40018480D01*
X165989324Y-40008095D01*
X165984739Y-39997675D01*
X165980051Y-39987219D01*
X165975258Y-39976727D01*
X165970361Y-39966198D01*
X165965358Y-39955632D01*
X165960249Y-39945030D01*
X165955033Y-39934390D01*
X165949709Y-39923712D01*
X165944277Y-39912995D01*
X165938736Y-39902241D01*
X165933084Y-39891448D01*
X165927322Y-39880615D01*
X165921448Y-39869744D01*
X165915461Y-39858832D01*
X165909362Y-39847881D01*
X165903148Y-39836889D01*
X165896819Y-39825857D01*
X165890374Y-39814784D01*
X165883813Y-39803670D01*
X165877134Y-39792514D01*
X165870337Y-39781317D01*
X165863420Y-39770077D01*
X165856384Y-39758796D01*
X165849226Y-39747471D01*
X165841947Y-39736103D01*
X165834545Y-39724693D01*
X165827018Y-39713239D01*
X165819368Y-39701740D01*
X165811592Y-39690198D01*
X165803689Y-39678612D01*
X165795659Y-39666981D01*
X165787500Y-39655304D01*
X165779212Y-39643583D01*
X165770794Y-39631816D01*
X165762245Y-39620004D01*
X165753563Y-39608145D01*
X165744749Y-39596240D01*
X165735800Y-39584289D01*
X165726716Y-39572290D01*
X165717495Y-39560245D01*
X165708138Y-39548152D01*
X165698642Y-39536011D01*
X165689007Y-39523823D01*
X165679232Y-39511586D01*
X165669316Y-39499301D01*
X165659258Y-39486967D01*
X165649056Y-39474584D01*
X165638710Y-39462152D01*
X165628218Y-39449670D01*
X165617580Y-39437139D01*
X165606794Y-39424558D01*
X165595860Y-39411926D01*
X165584776Y-39399244D01*
X165573542Y-39386511D01*
X165562155Y-39373728D01*
X165550616Y-39360893D01*
X165538922Y-39348006D01*
X165527074Y-39335068D01*
X165515069Y-39322078D01*
X165502907Y-39309035D01*
X165490586Y-39295940D01*
X165478106Y-39282793D01*
X165465465Y-39269592D01*
X165452663Y-39256339D01*
X165439697Y-39243031D01*
X165426567Y-39229671D01*
X165413272Y-39216256D01*
X165399810Y-39202787D01*
X165386181Y-39189264D01*
X165372383Y-39175686D01*
X165358415Y-39162054D01*
X165344276Y-39148366D01*
X165329965Y-39134623D01*
X165315480Y-39120825D01*
X165300821Y-39106970D01*
X165285985Y-39093060D01*
X165270973Y-39079094D01*
X165255782Y-39065071D01*
X165240412Y-39050992D01*
X165224862Y-39036856D01*
X165209129Y-39022663D01*
X165193213Y-39008412D01*
X165177113Y-38994104D01*
X165160828Y-38979738D01*
X165144355Y-38965315D01*
X165127695Y-38950833D01*
X165110845Y-38936293D01*
X165093805Y-38921694D01*
X165076573Y-38907036D01*
X165059148Y-38892320D01*
X165041529Y-38877544D01*
X165023714Y-38862708D01*
X165005702Y-38847814D01*
X164987492Y-38832859D01*
X164969083Y-38817844D01*
X164950473Y-38802769D01*
X164931662Y-38787633D01*
X164912647Y-38772437D01*
X164893427Y-38757180D01*
X164874002Y-38741862D01*
X164854369Y-38726482D01*
X164834529Y-38711041D01*
X164814478Y-38695538D01*
X164794217Y-38679974D01*
X164773743Y-38664347D01*
X164753055Y-38648658D01*
X164732153Y-38632907D01*
X164711034Y-38617093D01*
X164689697Y-38601216D01*
X164668142Y-38585275D01*
X164646366Y-38569272D01*
X164624369Y-38553205D01*
X164602148Y-38537075D01*
X164579704Y-38520880D01*
X164557033Y-38504622D01*
X164534136Y-38488299D01*
X164511010Y-38471912D01*
X164487654Y-38455460D01*
X164464067Y-38438944D01*
X164440248Y-38422362D01*
X164416195Y-38405716D01*
X164391907Y-38389004D01*
X164367382Y-38372226D01*
X164342619Y-38355383D01*
X164317617Y-38338473D01*
X164292374Y-38321498D01*
X164266888Y-38304456D01*
X164241160Y-38287348D01*
X164215186Y-38270173D01*
X164188966Y-38252932D01*
X164162498Y-38235623D01*
X164135781Y-38218247D01*
X164108814Y-38200804D01*
X164081595Y-38183293D01*
X164054122Y-38165714D01*
X164026394Y-38148068D01*
X163998411Y-38130353D01*
X163970170Y-38112571D01*
X163941669Y-38094719D01*
X163912908Y-38076800D01*
X163883886Y-38058811D01*
X163854600Y-38040753D01*
X163825049Y-38022627D01*
X163795232Y-38004431D01*
X163765148Y-37986165D01*
X163734794Y-37967830D01*
X163704170Y-37949425D01*
X163673274Y-37930950D01*
X163642104Y-37912405D01*
X163610660Y-37893790D01*
X163578939Y-37875104D01*
X163546941Y-37856347D01*
X163514663Y-37837520D01*
X163482105Y-37818622D01*
X163449264Y-37799652D01*
X163416140Y-37780612D01*
X163382731Y-37761499D01*
X163349035Y-37742316D01*
X163315052Y-37723060D01*
X163280778Y-37703732D01*
X163246214Y-37684333D01*
X163211358Y-37664861D01*
X163176207Y-37645317D01*
X163140761Y-37625700D01*
X163105019Y-37606010D01*
X163068977Y-37586247D01*
X163032637Y-37566412D01*
X162995994Y-37546503D01*
X162959049Y-37526521D01*
X162921800Y-37506465D01*
X162884245Y-37486336D01*
X162846382Y-37466132D01*
X162808211Y-37445855D01*
X162769729Y-37425504D01*
X162730936Y-37405078D01*
X162691829Y-37384578D01*
X162652408Y-37364004D01*
X162612670Y-37343354D01*
X162572614Y-37322630D01*
X162532239Y-37301831D01*
X162491544Y-37280957D01*
X162450526Y-37260007D01*
X162409184Y-37238982D01*
X162367516Y-37217882D01*
X162325522Y-37196705D01*
X162283200Y-37175453D01*
X162240548Y-37154125D01*
X162197564Y-37132720D01*
X162154247Y-37111239D01*
X162110596Y-37089682D01*
X162066609Y-37068049D01*
X162022284Y-37046338D01*
X161977621Y-37024551D01*
X161932617Y-37002687D01*
X161887271Y-36980745D01*
X161841581Y-36958726D01*
X161795546Y-36936630D01*
X161749164Y-36914457D01*
X161702435Y-36892206D01*
X161655355Y-36869877D01*
X161607925Y-36847470D01*
X161560142Y-36824985D01*
X161512004Y-36802422D01*
X161463511Y-36779780D01*
X161414660Y-36757060D01*
X161365450Y-36734262D01*
X161315880Y-36711385D01*
X161265948Y-36688429D01*
X161215653Y-36665394D01*
X161164993Y-36642280D01*
X161113966Y-36619086D01*
X161062571Y-36595814D01*
X161010806Y-36572462D01*
X160958670Y-36549031D01*
X160906162Y-36525519D01*
X160853279Y-36501929D01*
X160800021Y-36478258D01*
X160746385Y-36454507D01*
X160692371Y-36430676D01*
X160637976Y-36406765D01*
X160583199Y-36382773D01*
X160528039Y-36358701D01*
X160472494Y-36334548D01*
X160416562Y-36310315D01*
X160360242Y-36286000D01*
X160303533Y-36261605D01*
X160246432Y-36237129D01*
X160188939Y-36212571D01*
X160131052Y-36187933D01*
X160072769Y-36163212D01*
X160014089Y-36138411D01*
X159955010Y-36113528D01*
X159895530Y-36088563D01*
X159835649Y-36063516D01*
X159775364Y-36038388D01*
X159714675Y-36013177D01*
X159653579Y-35987884D01*
X159592075Y-35962509D01*
X159530161Y-35937052D01*
X159467836Y-35911512D01*
X159405099Y-35885890D01*
X159341948Y-35860186D01*
X159278381Y-35834398D01*
X159214396Y-35808528D01*
X159149993Y-35782575D01*
X159085170Y-35756538D01*
X159019925Y-35730419D01*
X158954257Y-35704217D01*
X158888164Y-35677931D01*
X158821644Y-35651562D01*
X158754697Y-35625109D01*
X158687320Y-35598573D01*
X158619513Y-35571954D01*
X158551273Y-35545250D01*
X158482599Y-35518463D01*
X158413489Y-35491592D01*
X158343943Y-35464637D01*
X158273958Y-35437598D01*
X158203533Y-35410475D01*
X158132666Y-35383267D01*
X158061357Y-35355975D01*
X157989603Y-35328599D01*
X157917402Y-35301139D01*
X157844754Y-35273594D01*
X157771658Y-35245964D01*
X157698110Y-35218249D01*
X157624111Y-35190450D01*
X157549657Y-35162566D01*
X157474749Y-35134597D01*
X157399384Y-35106543D01*
X157323561Y-35078404D01*
X157247279Y-35050180D01*
X157170535Y-35021871D01*
X157093329Y-34993476D01*
X157015658Y-34964996D01*
X156937522Y-34936431D01*
X156858920Y-34907780D01*
X156779848Y-34879044D01*
X156700306Y-34850222D01*
X156620293Y-34821314D01*
X156539807Y-34792321D01*
X156458847Y-34763242D01*
X156377410Y-34734077D01*
X156295497Y-34704826D01*
X156213104Y-34675489D01*
X156130231Y-34646067D01*
X156046876Y-34616558D01*
X156000000Y-34600000D01*
D10*
X164500000Y-102800000D02*
X164200000Y-103100000D01*
X88600000Y-32500000D02*
X88900000Y-32800000D01*
X47700000Y-114800000D02*
X46100000Y-114800000D01*
X164500000Y-64400000D02*
X164200000Y-64100000D01*
X88600000Y-134700000D02*
X88900000Y-134400000D01*
X46100000Y-114800000D02*
X46100000Y-136300000D01*
X86600000Y-136300000D02*
X70100000Y-136300000D01*
D11*
X143100000Y-136300000D02*
X143123121Y-136298823D01*
X143146299Y-136297722D01*
X143169550Y-136296697D01*
X143192892Y-136295748D01*
X143216343Y-136294873D01*
X143239926Y-136294073D01*
X143263663Y-136293346D01*
X143287581Y-136292694D01*
X143311710Y-136292114D01*
X143336082Y-136291608D01*
X143360734Y-136291175D01*
X143385711Y-136290815D01*
X143411063Y-136290529D01*
X143436847Y-136290317D01*
X143463135Y-136290179D01*
X143490011Y-136290117D01*
X143517579Y-136290132D01*
X143545970Y-136290225D01*
X143575351Y-136290400D01*
X143605948Y-136290660D01*
X143638068Y-136291011D01*
X143672166Y-136291461D01*
X143708950Y-136292022D01*
X143749667Y-136292718D01*
X143796928Y-136293600D01*
X143862988Y-136294902D01*
X143928720Y-136296199D01*
X143961664Y-136296821D01*
X143994690Y-136297410D01*
X144027821Y-136297957D01*
X144061079Y-136298450D01*
X144094485Y-136298878D01*
X144111252Y-136299064D01*
X144128064Y-136299231D01*
X144144924Y-136299375D01*
X144161836Y-136299497D01*
X144178802Y-136299595D01*
X144195824Y-136299667D01*
X144212906Y-136299711D01*
X144230051Y-136299728D01*
X144247261Y-136299715D01*
X144264539Y-136299671D01*
X144281888Y-136299595D01*
X144299310Y-136299484D01*
X144316809Y-136299339D01*
X144334387Y-136299157D01*
X144352047Y-136298938D01*
X144369791Y-136298679D01*
X144387623Y-136298380D01*
X144405546Y-136298039D01*
X144423562Y-136297655D01*
X144441673Y-136297226D01*
X144459884Y-136296752D01*
X144478196Y-136296230D01*
X144496612Y-136295659D01*
X144515136Y-136295039D01*
X144533769Y-136294367D01*
X144552515Y-136293643D01*
X144571377Y-136292864D01*
X144590356Y-136292030D01*
X144609457Y-136291140D01*
X144628682Y-136290191D01*
X144648034Y-136289183D01*
X144667515Y-136288114D01*
X144687128Y-136286983D01*
X144706876Y-136285789D01*
X144726762Y-136284530D01*
X144746789Y-136283204D01*
X144766959Y-136281811D01*
X144787276Y-136280349D01*
X144807741Y-136278817D01*
X144828358Y-136277214D01*
X144849130Y-136275537D01*
X144870059Y-136273786D01*
X144891149Y-136271959D01*
X144912401Y-136270056D01*
X144933820Y-136268074D01*
X144955406Y-136266012D01*
X144977165Y-136263869D01*
X144999097Y-136261644D01*
X145021206Y-136259335D01*
X145043495Y-136256941D01*
X145065967Y-136254461D01*
X145088624Y-136251893D01*
X145111469Y-136249235D01*
X145134505Y-136246487D01*
X145157734Y-136243647D01*
X145181160Y-136240714D01*
X145204786Y-136237686D01*
X145228613Y-136234563D01*
X145252646Y-136231342D01*
X145276886Y-136228022D01*
X145301336Y-136224603D01*
X145326000Y-136221082D01*
X145350880Y-136217458D01*
X145375979Y-136213730D01*
X145401299Y-136209897D01*
X145426844Y-136205957D01*
X145452616Y-136201909D01*
X145478618Y-136197752D01*
X145504853Y-136193484D01*
X145531324Y-136189103D01*
X145558033Y-136184610D01*
X145584983Y-136180001D01*
X145612177Y-136175276D01*
X145639618Y-136170433D01*
X145667308Y-136165472D01*
X145695251Y-136160390D01*
X145723449Y-136155187D01*
X145751905Y-136149860D01*
X145780622Y-136144410D01*
X145809602Y-136138833D01*
X145838849Y-136133130D01*
X145868364Y-136127298D01*
X145898152Y-136121337D01*
X145928214Y-136115244D01*
X145958554Y-136109019D01*
X145989174Y-136102660D01*
X146020077Y-136096166D01*
X146051267Y-136089535D01*
X146082744Y-136082767D01*
X146114514Y-136075859D01*
X146146577Y-136068811D01*
X146178938Y-136061621D01*
X146211598Y-136054288D01*
X146244561Y-136046810D01*
X146277830Y-136039186D01*
X146311407Y-136031414D01*
X146345295Y-136023494D01*
X146379496Y-136015425D01*
X146414015Y-136007203D01*
X146448852Y-135998829D01*
X146484012Y-135990301D01*
X146519497Y-135981617D01*
X146555310Y-135972777D01*
X146591453Y-135963778D01*
X146627929Y-135954620D01*
X146664742Y-135945301D01*
X146701894Y-135935820D01*
X146739387Y-135926176D01*
X146777225Y-135916366D01*
X146815411Y-135906391D01*
X146853946Y-135896247D01*
X146892835Y-135885935D01*
X146932079Y-135875452D01*
X146971681Y-135864798D01*
X147011645Y-135853970D01*
X147051973Y-135842969D01*
X147092668Y-135831791D01*
X147133733Y-135820437D01*
X147175170Y-135808904D01*
X147216983Y-135797191D01*
X147259173Y-135785297D01*
X147301744Y-135773221D01*
X147344699Y-135760961D01*
X147388041Y-135748516D01*
X147431771Y-135735884D01*
X147475894Y-135723064D01*
X147520411Y-135710055D01*
X147565327Y-135696855D01*
X147610642Y-135683464D01*
X147656361Y-135669879D01*
X147702486Y-135656100D01*
X147749019Y-135642124D01*
X147795964Y-135627951D01*
X147843324Y-135613580D01*
X147891100Y-135599008D01*
X147939297Y-135584235D01*
X147987916Y-135569259D01*
X148036961Y-135554079D01*
X148086434Y-135538694D01*
X148136339Y-135523102D01*
X148186677Y-135507301D01*
X148237452Y-135491291D01*
X148288667Y-135475070D01*
X148340323Y-135458637D01*
X148392425Y-135441991D01*
X148444975Y-135425129D01*
X148497976Y-135408051D01*
X148551430Y-135390756D01*
X148605340Y-135373241D01*
X148659710Y-135355507D01*
X148714541Y-135337550D01*
X148769837Y-135319370D01*
X148825600Y-135300967D01*
X148881834Y-135282337D01*
X148938540Y-135263480D01*
X148995723Y-135244395D01*
X149053384Y-135225080D01*
X149111526Y-135205533D01*
X149170153Y-135185754D01*
X149229267Y-135165742D01*
X149288870Y-135145494D01*
X149348966Y-135125010D01*
X149409557Y-135104287D01*
X149470647Y-135083325D01*
X149532238Y-135062123D01*
X149594332Y-135040679D01*
X149656933Y-135018991D01*
X149720043Y-134997059D01*
X149783666Y-134974881D01*
X149847803Y-134952455D01*
X149912458Y-134929781D01*
X149977633Y-134906856D01*
X150043332Y-134883680D01*
X150109557Y-134860251D01*
X150176311Y-134836568D01*
X150243597Y-134812630D01*
X150311417Y-134788434D01*
X150379774Y-134763981D01*
X150448671Y-134739268D01*
X150518112Y-134714294D01*
X150588098Y-134689058D01*
X150658632Y-134663558D01*
X150729718Y-134637793D01*
X150801357Y-134611762D01*
X150873554Y-134585463D01*
X150946310Y-134558895D01*
X151019628Y-134532057D01*
X151093512Y-134504947D01*
X151167964Y-134477564D01*
X151242986Y-134449906D01*
X151318583Y-134421973D01*
X151394755Y-134393762D01*
X151471507Y-134365273D01*
X151548840Y-134336505D01*
X151626759Y-134307455D01*
X151705265Y-134278122D01*
X151784361Y-134248506D01*
X151864051Y-134218604D01*
X151944336Y-134188416D01*
X152025220Y-134157939D01*
X152106706Y-134127174D01*
X152188796Y-134096118D01*
X152271493Y-134064769D01*
X152354800Y-134033128D01*
X152438720Y-134001191D01*
X152523255Y-133968959D01*
X152608408Y-133936429D01*
X152694183Y-133903601D01*
X152780581Y-133870472D01*
X152867606Y-133837042D01*
X152955261Y-133803309D01*
X153043547Y-133769271D01*
X153132469Y-133734929D01*
X153222029Y-133700279D01*
X153312229Y-133665321D01*
X153403073Y-133630053D01*
X153494563Y-133594475D01*
X153586702Y-133558584D01*
X153679492Y-133522380D01*
X153772938Y-133485860D01*
X153867040Y-133449025D01*
X153961803Y-133411871D01*
X154057229Y-133374399D01*
X154153321Y-133336606D01*
X154250081Y-133298491D01*
X154347512Y-133260053D01*
X154445618Y-133221291D01*
X154544401Y-133182203D01*
X154643863Y-133142787D01*
X154744008Y-133103043D01*
X154844838Y-133062970D01*
X154946356Y-133022565D01*
X155048566Y-132981827D01*
X155151468Y-132940756D01*
X155255068Y-132899349D01*
X155359367Y-132857606D01*
X155464367Y-132815524D01*
X155570073Y-132773103D01*
X155676486Y-132730342D01*
X155783610Y-132687239D01*
X155891447Y-132643792D01*
X156000000Y-132600000D01*
D10*
X143100000Y-136300000D02*
X133100000Y-136300000D01*
X121100000Y-134700000D02*
X121400000Y-134400000D01*
X47700000Y-100800000D02*
X47700000Y-102800000D01*
X133100000Y-120500000D02*
X133100000Y-134700000D01*
X86600000Y-136300000D02*
X86600000Y-134700000D01*
X119100000Y-30900000D02*
X102600000Y-30900000D01*
X127400000Y-120600000D02*
X128589594Y-118455761D01*
X56100000Y-30900000D02*
X46100000Y-30900000D01*
X143100000Y-30900000D02*
X133100000Y-30900000D01*
X166100000Y-52400000D02*
X164500000Y-52400000D01*
X58400000Y-134400000D02*
X67800000Y-134400000D01*
X86600000Y-30900000D02*
X70100000Y-30900000D01*
X131500000Y-118455761D02*
X133100000Y-120500000D01*
X86600000Y-32500000D02*
X88600000Y-32500000D01*
X164500000Y-66400000D02*
X164500000Y-64400000D01*
X100300000Y-32800000D02*
X88900000Y-32800000D01*
X133100000Y-134700000D02*
X133100000Y-136300000D01*
X164500000Y-66400000D02*
X166100000Y-66400000D01*
X121800000Y-122000000D02*
X123300000Y-120600000D01*
X56100000Y-136300000D02*
X46100000Y-136300000D01*
X102600000Y-134700000D02*
X100600000Y-134700000D01*
X56100000Y-134700000D02*
X58100000Y-134700000D01*
X133100000Y-32500000D02*
X131100000Y-32500000D01*
X47700000Y-64400000D02*
X48000000Y-64100000D01*
X128589594Y-118455761D02*
X131500000Y-118455761D01*
X130800000Y-32800000D02*
X121400000Y-32800000D01*
X164200000Y-54700000D02*
X164200000Y-64100000D01*
X166100000Y-100800000D02*
X166100000Y-66400000D01*
X70100000Y-134700000D02*
X70100000Y-136300000D01*
X48000000Y-54700000D02*
X48000000Y-64100000D01*
X46100000Y-100800000D02*
X46100000Y-66400000D01*
X56100000Y-136300000D02*
X56100000Y-134700000D01*
D11*
X166100000Y-126700000D02*
X166099960Y-126709051D01*
X166099840Y-126718121D01*
X166099639Y-126727208D01*
X166099359Y-126736314D01*
X166098997Y-126745439D01*
X166098555Y-126754583D01*
X166098031Y-126763747D01*
X166097427Y-126772930D01*
X166096740Y-126782135D01*
X166095972Y-126791359D01*
X166095122Y-126800605D01*
X166094189Y-126809873D01*
X166093174Y-126819162D01*
X166092076Y-126828474D01*
X166090894Y-126837808D01*
X166089629Y-126847165D01*
X166088280Y-126856545D01*
X166086847Y-126865949D01*
X166085329Y-126875377D01*
X166083726Y-126884829D01*
X166082038Y-126894307D01*
X166080264Y-126903809D01*
X166078404Y-126913337D01*
X166076457Y-126922890D01*
X166074423Y-126932470D01*
X166072301Y-126942077D01*
X166070092Y-126951710D01*
X166067794Y-126961371D01*
X166065407Y-126971059D01*
X166062931Y-126980775D01*
X166060365Y-126990520D01*
X166057709Y-127000293D01*
X166054962Y-127010095D01*
X166052123Y-127019927D01*
X166049193Y-127029789D01*
X166046170Y-127039681D01*
X166043054Y-127049603D01*
X166039844Y-127059556D01*
X166036541Y-127069540D01*
X166033142Y-127079556D01*
X166029648Y-127089603D01*
X166026058Y-127099683D01*
X166022372Y-127109795D01*
X166018588Y-127119940D01*
X166014706Y-127130119D01*
X166010726Y-127140330D01*
X166006647Y-127150576D01*
X166002468Y-127160856D01*
X165998188Y-127171171D01*
X165993807Y-127181520D01*
X165989324Y-127191905D01*
X165984739Y-127202325D01*
X165980051Y-127212781D01*
X165975258Y-127223273D01*
X165970361Y-127233802D01*
X165965358Y-127244368D01*
X165960249Y-127254970D01*
X165955033Y-127265610D01*
X165949709Y-127276288D01*
X165944277Y-127287005D01*
X165938736Y-127297759D01*
X165933084Y-127308552D01*
X165927322Y-127319385D01*
X165921448Y-127330256D01*
X165915461Y-127341168D01*
X165909362Y-127352119D01*
X165903148Y-127363111D01*
X165896819Y-127374143D01*
X165890374Y-127385216D01*
X165883813Y-127396330D01*
X165877134Y-127407486D01*
X165870337Y-127418683D01*
X165863420Y-127429923D01*
X165856384Y-127441204D01*
X165849226Y-127452529D01*
X165841947Y-127463897D01*
X165834545Y-127475307D01*
X165827018Y-127486761D01*
X165819368Y-127498260D01*
X165811592Y-127509802D01*
X165803689Y-127521388D01*
X165795659Y-127533019D01*
X165787500Y-127544696D01*
X165779212Y-127556417D01*
X165770794Y-127568184D01*
X165762245Y-127579996D01*
X165753563Y-127591855D01*
X165744749Y-127603760D01*
X165735800Y-127615711D01*
X165726716Y-127627710D01*
X165717495Y-127639755D01*
X165708138Y-127651848D01*
X165698642Y-127663989D01*
X165689007Y-127676177D01*
X165679232Y-127688414D01*
X165669316Y-127700699D01*
X165659258Y-127713033D01*
X165649056Y-127725416D01*
X165638710Y-127737848D01*
X165628218Y-127750330D01*
X165617580Y-127762861D01*
X165606794Y-127775442D01*
X165595860Y-127788074D01*
X165584776Y-127800756D01*
X165573542Y-127813489D01*
X165562155Y-127826272D01*
X165550616Y-127839107D01*
X165538922Y-127851994D01*
X165527074Y-127864932D01*
X165515069Y-127877922D01*
X165502907Y-127890965D01*
X165490586Y-127904060D01*
X165478106Y-127917207D01*
X165465465Y-127930408D01*
X165452663Y-127943661D01*
X165439697Y-127956969D01*
X165426567Y-127970329D01*
X165413272Y-127983744D01*
X165399810Y-127997213D01*
X165386181Y-128010736D01*
X165372383Y-128024314D01*
X165358415Y-128037946D01*
X165344276Y-128051634D01*
X165329965Y-128065377D01*
X165315480Y-128079175D01*
X165300821Y-128093030D01*
X165285985Y-128106940D01*
X165270973Y-128120906D01*
X165255782Y-128134929D01*
X165240412Y-128149008D01*
X165224862Y-128163144D01*
X165209129Y-128177337D01*
X165193213Y-128191588D01*
X165177113Y-128205896D01*
X165160828Y-128220262D01*
X165144355Y-128234685D01*
X165127695Y-128249167D01*
X165110845Y-128263707D01*
X165093805Y-128278306D01*
X165076573Y-128292964D01*
X165059148Y-128307680D01*
X165041529Y-128322456D01*
X165023714Y-128337292D01*
X165005702Y-128352186D01*
X164987492Y-128367141D01*
X164969083Y-128382156D01*
X164950473Y-128397231D01*
X164931662Y-128412367D01*
X164912647Y-128427563D01*
X164893427Y-128442820D01*
X164874002Y-128458138D01*
X164854369Y-128473518D01*
X164834529Y-128488959D01*
X164814478Y-128504462D01*
X164794217Y-128520026D01*
X164773743Y-128535653D01*
X164753055Y-128551342D01*
X164732153Y-128567093D01*
X164711034Y-128582907D01*
X164689697Y-128598784D01*
X164668142Y-128614725D01*
X164646366Y-128630728D01*
X164624369Y-128646795D01*
X164602148Y-128662925D01*
X164579704Y-128679120D01*
X164557033Y-128695378D01*
X164534136Y-128711701D01*
X164511010Y-128728088D01*
X164487654Y-128744540D01*
X164464067Y-128761056D01*
X164440248Y-128777638D01*
X164416195Y-128794284D01*
X164391907Y-128810996D01*
X164367382Y-128827774D01*
X164342619Y-128844617D01*
X164317617Y-128861527D01*
X164292374Y-128878502D01*
X164266888Y-128895544D01*
X164241160Y-128912652D01*
X164215186Y-128929827D01*
X164188966Y-128947068D01*
X164162498Y-128964377D01*
X164135781Y-128981753D01*
X164108814Y-128999196D01*
X164081595Y-129016707D01*
X164054122Y-129034286D01*
X164026394Y-129051932D01*
X163998411Y-129069647D01*
X163970170Y-129087429D01*
X163941669Y-129105281D01*
X163912908Y-129123200D01*
X163883886Y-129141189D01*
X163854600Y-129159247D01*
X163825049Y-129177373D01*
X163795232Y-129195569D01*
X163765148Y-129213835D01*
X163734794Y-129232170D01*
X163704170Y-129250575D01*
X163673274Y-129269050D01*
X163642104Y-129287595D01*
X163610660Y-129306210D01*
X163578939Y-129324896D01*
X163546941Y-129343653D01*
X163514663Y-129362480D01*
X163482105Y-129381378D01*
X163449264Y-129400348D01*
X163416140Y-129419388D01*
X163382731Y-129438501D01*
X163349035Y-129457684D01*
X163315052Y-129476940D01*
X163280778Y-129496268D01*
X163246214Y-129515667D01*
X163211358Y-129535139D01*
X163176207Y-129554683D01*
X163140761Y-129574300D01*
X163105019Y-129593990D01*
X163068977Y-129613753D01*
X163032637Y-129633588D01*
X162995994Y-129653497D01*
X162959049Y-129673479D01*
X162921800Y-129693535D01*
X162884245Y-129713664D01*
X162846382Y-129733868D01*
X162808211Y-129754145D01*
X162769729Y-129774496D01*
X162730936Y-129794922D01*
X162691829Y-129815422D01*
X162652408Y-129835996D01*
X162612670Y-129856646D01*
X162572614Y-129877370D01*
X162532239Y-129898169D01*
X162491544Y-129919043D01*
X162450526Y-129939993D01*
X162409184Y-129961018D01*
X162367516Y-129982118D01*
X162325522Y-130003295D01*
X162283200Y-130024547D01*
X162240548Y-130045875D01*
X162197564Y-130067280D01*
X162154247Y-130088761D01*
X162110596Y-130110318D01*
X162066609Y-130131951D01*
X162022284Y-130153662D01*
X161977621Y-130175449D01*
X161932617Y-130197313D01*
X161887271Y-130219255D01*
X161841581Y-130241274D01*
X161795546Y-130263370D01*
X161749164Y-130285543D01*
X161702435Y-130307794D01*
X161655355Y-130330123D01*
X161607925Y-130352530D01*
X161560142Y-130375015D01*
X161512004Y-130397578D01*
X161463511Y-130420220D01*
X161414660Y-130442940D01*
X161365450Y-130465738D01*
X161315880Y-130488615D01*
X161265948Y-130511571D01*
X161215653Y-130534606D01*
X161164993Y-130557720D01*
X161113966Y-130580914D01*
X161062571Y-130604186D01*
X161010806Y-130627538D01*
X160958670Y-130650969D01*
X160906162Y-130674481D01*
X160853279Y-130698071D01*
X160800021Y-130721742D01*
X160746385Y-130745493D01*
X160692371Y-130769324D01*
X160637976Y-130793235D01*
X160583199Y-130817227D01*
X160528039Y-130841299D01*
X160472494Y-130865452D01*
X160416562Y-130889685D01*
X160360242Y-130914000D01*
X160303533Y-130938395D01*
X160246432Y-130962871D01*
X160188939Y-130987429D01*
X160131052Y-131012067D01*
X160072769Y-131036788D01*
X160014089Y-131061589D01*
X159955010Y-131086472D01*
X159895530Y-131111437D01*
X159835649Y-131136484D01*
X159775364Y-131161612D01*
X159714675Y-131186823D01*
X159653579Y-131212116D01*
X159592075Y-131237491D01*
X159530161Y-131262948D01*
X159467836Y-131288488D01*
X159405099Y-131314110D01*
X159341948Y-131339814D01*
X159278381Y-131365602D01*
X159214396Y-131391472D01*
X159149993Y-131417425D01*
X159085170Y-131443462D01*
X159019925Y-131469581D01*
X158954257Y-131495783D01*
X158888164Y-131522069D01*
X158821644Y-131548438D01*
X158754697Y-131574891D01*
X158687320Y-131601427D01*
X158619513Y-131628046D01*
X158551273Y-131654750D01*
X158482599Y-131681537D01*
X158413489Y-131708408D01*
X158343943Y-131735363D01*
X158273958Y-131762402D01*
X158203533Y-131789525D01*
X158132666Y-131816733D01*
X158061357Y-131844025D01*
X157989603Y-131871401D01*
X157917402Y-131898861D01*
X157844754Y-131926406D01*
X157771658Y-131954036D01*
X157698110Y-131981751D01*
X157624111Y-132009550D01*
X157549657Y-132037434D01*
X157474749Y-132065403D01*
X157399384Y-132093457D01*
X157323561Y-132121596D01*
X157247279Y-132149820D01*
X157170535Y-132178129D01*
X157093329Y-132206524D01*
X157015658Y-132235004D01*
X156937522Y-132263569D01*
X156858920Y-132292220D01*
X156779848Y-132320956D01*
X156700306Y-132349778D01*
X156620293Y-132378686D01*
X156539807Y-132407679D01*
X156458847Y-132436758D01*
X156377410Y-132465923D01*
X156295497Y-132495174D01*
X156213104Y-132524511D01*
X156130231Y-132553933D01*
X156046876Y-132583442D01*
X156000000Y-132600000D01*
D10*
X86600000Y-134700000D02*
X88600000Y-134700000D01*
X47700000Y-114800000D02*
X47700000Y-112800000D01*
X47700000Y-66400000D02*
X46100000Y-66400000D01*
X164500000Y-52400000D02*
X164500000Y-54400000D01*
X70100000Y-32500000D02*
X68100000Y-32500000D01*
X166100000Y-100800000D02*
X164500000Y-100800000D01*
X166100000Y-114800000D02*
X166100000Y-126700000D01*
X47700000Y-102800000D02*
X48000000Y-103100000D01*
X58100000Y-134700000D02*
X58400000Y-134400000D01*
X164500000Y-54400000D02*
X164200000Y-54700000D01*
X47700000Y-52400000D02*
X47700000Y-54400000D01*
X119100000Y-134700000D02*
X121100000Y-134700000D01*
X119100000Y-32500000D02*
X119100000Y-30900000D01*
X47700000Y-112800000D02*
X48000000Y-112500000D01*
X102600000Y-134700000D02*
X102600000Y-136300000D01*
X70100000Y-134700000D02*
X68100000Y-134700000D01*
X123300000Y-120600000D02*
X127400000Y-120600000D01*
X56100000Y-32500000D02*
X56100000Y-30900000D01*
X68100000Y-134700000D02*
X67800000Y-134400000D01*
X88900000Y-134400000D02*
X100300000Y-134400000D01*
X100600000Y-32500000D02*
X100300000Y-32800000D01*
X102600000Y-30900000D02*
X102600000Y-32500000D01*
X46100000Y-52400000D02*
X46100000Y-30900000D01*
X119100000Y-136300000D02*
X119100000Y-134700000D01*
X46100000Y-52400000D02*
X47700000Y-52400000D01*
X102600000Y-32500000D02*
X100600000Y-32500000D01*
X68100000Y-32500000D02*
X67800000Y-32800000D01*
D11*
X143100000Y-30900000D02*
X143123121Y-30901177D01*
X143146299Y-30902278D01*
X143169550Y-30903303D01*
X143192892Y-30904252D01*
X143216343Y-30905127D01*
X143239926Y-30905927D01*
X143263663Y-30906654D01*
X143287581Y-30907306D01*
X143311710Y-30907886D01*
X143336082Y-30908392D01*
X143360734Y-30908825D01*
X143385711Y-30909185D01*
X143411063Y-30909471D01*
X143436847Y-30909683D01*
X143463135Y-30909821D01*
X143490011Y-30909883D01*
X143517579Y-30909868D01*
X143545970Y-30909775D01*
X143575351Y-30909600D01*
X143605948Y-30909340D01*
X143638068Y-30908989D01*
X143672166Y-30908539D01*
X143708950Y-30907978D01*
X143749667Y-30907282D01*
X143796928Y-30906400D01*
X143862988Y-30905098D01*
X143928720Y-30903801D01*
X143961664Y-30903179D01*
X143994690Y-30902590D01*
X144027821Y-30902043D01*
X144061079Y-30901550D01*
X144094485Y-30901122D01*
X144111252Y-30900936D01*
X144128064Y-30900769D01*
X144144924Y-30900625D01*
X144161836Y-30900503D01*
X144178802Y-30900405D01*
X144195824Y-30900333D01*
X144212906Y-30900289D01*
X144230051Y-30900272D01*
X144247261Y-30900285D01*
X144264539Y-30900329D01*
X144281888Y-30900405D01*
X144299310Y-30900516D01*
X144316809Y-30900661D01*
X144334387Y-30900843D01*
X144352047Y-30901062D01*
X144369791Y-30901321D01*
X144387623Y-30901620D01*
X144405546Y-30901961D01*
X144423562Y-30902345D01*
X144441673Y-30902774D01*
X144459884Y-30903248D01*
X144478196Y-30903770D01*
X144496612Y-30904341D01*
X144515136Y-30904961D01*
X144533769Y-30905633D01*
X144552515Y-30906357D01*
X144571377Y-30907136D01*
X144590356Y-30907970D01*
X144609457Y-30908860D01*
X144628682Y-30909809D01*
X144648034Y-30910817D01*
X144667515Y-30911886D01*
X144687128Y-30913017D01*
X144706876Y-30914211D01*
X144726762Y-30915470D01*
X144746789Y-30916796D01*
X144766959Y-30918189D01*
X144787276Y-30919651D01*
X144807741Y-30921183D01*
X144828358Y-30922786D01*
X144849130Y-30924463D01*
X144870059Y-30926214D01*
X144891149Y-30928041D01*
X144912401Y-30929944D01*
X144933820Y-30931926D01*
X144955406Y-30933988D01*
X144977165Y-30936131D01*
X144999097Y-30938356D01*
X145021206Y-30940665D01*
X145043495Y-30943059D01*
X145065967Y-30945539D01*
X145088624Y-30948107D01*
X145111469Y-30950765D01*
X145134505Y-30953513D01*
X145157734Y-30956353D01*
X145181160Y-30959286D01*
X145204786Y-30962314D01*
X145228613Y-30965437D01*
X145252646Y-30968658D01*
X145276886Y-30971978D01*
X145301336Y-30975397D01*
X145326000Y-30978918D01*
X145350880Y-30982542D01*
X145375979Y-30986270D01*
X145401299Y-30990103D01*
X145426844Y-30994043D01*
X145452616Y-30998091D01*
X145478618Y-31002248D01*
X145504853Y-31006516D01*
X145531324Y-31010897D01*
X145558033Y-31015390D01*
X145584983Y-31019999D01*
X145612177Y-31024724D01*
X145639618Y-31029567D01*
X145667308Y-31034528D01*
X145695251Y-31039610D01*
X145723449Y-31044813D01*
X145751905Y-31050140D01*
X145780622Y-31055590D01*
X145809602Y-31061167D01*
X145838849Y-31066870D01*
X145868364Y-31072702D01*
X145898152Y-31078663D01*
X145928214Y-31084756D01*
X145958554Y-31090981D01*
X145989174Y-31097340D01*
X146020077Y-31103834D01*
X146051267Y-31110465D01*
X146082744Y-31117233D01*
X146114514Y-31124141D01*
X146146577Y-31131189D01*
X146178938Y-31138379D01*
X146211598Y-31145712D01*
X146244561Y-31153190D01*
X146277830Y-31160814D01*
X146311407Y-31168586D01*
X146345295Y-31176506D01*
X146379496Y-31184575D01*
X146414015Y-31192797D01*
X146448852Y-31201171D01*
X146484012Y-31209699D01*
X146519497Y-31218383D01*
X146555310Y-31227223D01*
X146591453Y-31236222D01*
X146627929Y-31245380D01*
X146664742Y-31254699D01*
X146701894Y-31264180D01*
X146739387Y-31273824D01*
X146777225Y-31283634D01*
X146815411Y-31293609D01*
X146853946Y-31303753D01*
X146892835Y-31314065D01*
X146932079Y-31324548D01*
X146971681Y-31335202D01*
X147011645Y-31346030D01*
X147051973Y-31357031D01*
X147092668Y-31368209D01*
X147133733Y-31379563D01*
X147175170Y-31391096D01*
X147216983Y-31402809D01*
X147259173Y-31414703D01*
X147301744Y-31426779D01*
X147344699Y-31439039D01*
X147388041Y-31451484D01*
X147431771Y-31464116D01*
X147475894Y-31476936D01*
X147520411Y-31489945D01*
X147565327Y-31503145D01*
X147610642Y-31516536D01*
X147656361Y-31530121D01*
X147702486Y-31543900D01*
X147749019Y-31557876D01*
X147795964Y-31572049D01*
X147843324Y-31586420D01*
X147891100Y-31600992D01*
X147939297Y-31615765D01*
X147987916Y-31630741D01*
X148036961Y-31645921D01*
X148086434Y-31661306D01*
X148136339Y-31676898D01*
X148186677Y-31692699D01*
X148237452Y-31708709D01*
X148288667Y-31724930D01*
X148340323Y-31741363D01*
X148392425Y-31758009D01*
X148444975Y-31774871D01*
X148497976Y-31791949D01*
X148551430Y-31809244D01*
X148605340Y-31826759D01*
X148659710Y-31844493D01*
X148714541Y-31862450D01*
X148769837Y-31880630D01*
X148825600Y-31899033D01*
X148881834Y-31917663D01*
X148938540Y-31936520D01*
X148995723Y-31955605D01*
X149053384Y-31974920D01*
X149111526Y-31994467D01*
X149170153Y-32014246D01*
X149229267Y-32034258D01*
X149288870Y-32054506D01*
X149348966Y-32074990D01*
X149409557Y-32095713D01*
X149470647Y-32116675D01*
X149532238Y-32137877D01*
X149594332Y-32159321D01*
X149656933Y-32181009D01*
X149720043Y-32202941D01*
X149783666Y-32225119D01*
X149847803Y-32247545D01*
X149912458Y-32270219D01*
X149977633Y-32293144D01*
X150043332Y-32316320D01*
X150109557Y-32339749D01*
X150176311Y-32363432D01*
X150243597Y-32387370D01*
X150311417Y-32411566D01*
X150379774Y-32436019D01*
X150448671Y-32460732D01*
X150518112Y-32485706D01*
X150588098Y-32510942D01*
X150658632Y-32536442D01*
X150729718Y-32562207D01*
X150801357Y-32588238D01*
X150873554Y-32614537D01*
X150946310Y-32641105D01*
X151019628Y-32667943D01*
X151093512Y-32695053D01*
X151167964Y-32722436D01*
X151242986Y-32750094D01*
X151318583Y-32778027D01*
X151394755Y-32806238D01*
X151471507Y-32834727D01*
X151548840Y-32863495D01*
X151626759Y-32892545D01*
X151705265Y-32921878D01*
X151784361Y-32951494D01*
X151864051Y-32981396D01*
X151944336Y-33011584D01*
X152025220Y-33042061D01*
X152106706Y-33072826D01*
X152188796Y-33103882D01*
X152271493Y-33135231D01*
X152354800Y-33166872D01*
X152438720Y-33198809D01*
X152523255Y-33231041D01*
X152608408Y-33263571D01*
X152694183Y-33296399D01*
X152780581Y-33329528D01*
X152867606Y-33362958D01*
X152955261Y-33396691D01*
X153043547Y-33430729D01*
X153132469Y-33465071D01*
X153222029Y-33499721D01*
X153312229Y-33534679D01*
X153403073Y-33569947D01*
X153494563Y-33605525D01*
X153586702Y-33641416D01*
X153679492Y-33677620D01*
X153772938Y-33714140D01*
X153867040Y-33750975D01*
X153961803Y-33788129D01*
X154057229Y-33825601D01*
X154153321Y-33863394D01*
X154250081Y-33901509D01*
X154347512Y-33939947D01*
X154445618Y-33978709D01*
X154544401Y-34017797D01*
X154643863Y-34057213D01*
X154744008Y-34096957D01*
X154844838Y-34137030D01*
X154946356Y-34177435D01*
X155048566Y-34218173D01*
X155151468Y-34259244D01*
X155255068Y-34300651D01*
X155359367Y-34342394D01*
X155464367Y-34384476D01*
X155570073Y-34426897D01*
X155676486Y-34469658D01*
X155783610Y-34512761D01*
X155891447Y-34556208D01*
X156000000Y-34600000D01*
D10*
X164500000Y-114800000D02*
X164500000Y-112800000D01*
X100600000Y-134700000D02*
X100300000Y-134400000D01*
X121800000Y-134400000D02*
X121800000Y-122000000D01*
X121400000Y-134400000D02*
X121800000Y-134400000D01*
X48000000Y-103100000D02*
X48000000Y-112500000D01*
X67800000Y-32800000D02*
X58400000Y-32800000D01*
X164500000Y-114800000D02*
X166100000Y-114800000D01*
X70100000Y-30900000D02*
X70100000Y-32500000D01*
X46100000Y-100800000D02*
X47700000Y-100800000D01*
X47700000Y-54400000D02*
X48000000Y-54700000D01*
X166100000Y-52400000D02*
X166100000Y-40500000D01*
X164500000Y-100800000D02*
X164500000Y-102800000D01*
X164200000Y-103100000D02*
X164200000Y-112500000D01*
X47700000Y-66400000D02*
X47700000Y-64400000D01*
X121100000Y-32500000D02*
X121400000Y-32800000D01*
X119100000Y-136300000D02*
X102600000Y-136300000D01*
X133100000Y-30900000D02*
X133100000Y-32500000D01*
X164500000Y-112800000D02*
X164200000Y-112500000D01*
M02*
