%TF.GenerationSoftware,KiCad,Pcbnew,9.0.1*%
%TF.CreationDate,2026-03-03T22:48:56+01:00*%
%TF.ProjectId,bottom,626f7474-6f6d-42e6-9b69-6361645f7063,rev?*%
%TF.SameCoordinates,Original*%
%TF.FileFunction,Legend,Bot*%
%TF.FilePolarity,Positive*%
%FSLAX46Y46*%
G04 Gerber Fmt 4.6, Leading zero omitted, Abs format (unit mm)*
G04 Created by KiCad (PCBNEW 9.0.1) date 2026-03-03 22:48:56*
%MOMM*%
%LPD*%
G01*
G04 APERTURE LIST*
%ADD10C,0.000000*%
%ADD11C,0.100000*%
%ADD12C,0.300000*%
G04 APERTURE END LIST*
D10*
G36*
X116345794Y-122176165D02*
G01*
X116370036Y-122205603D01*
X116392584Y-122235610D01*
X116413441Y-122266170D01*
X116432610Y-122297265D01*
X116450096Y-122328879D01*
X116465900Y-122360994D01*
X116480027Y-122393593D01*
X116492479Y-122426659D01*
X116503261Y-122460174D01*
X116512375Y-122494121D01*
X116519824Y-122528483D01*
X116525612Y-122563243D01*
X116529743Y-122598383D01*
X116532218Y-122633887D01*
X116533043Y-122669736D01*
X116531487Y-122720814D01*
X116526854Y-122770237D01*
X116519195Y-122817780D01*
X116508562Y-122863215D01*
X116495005Y-122906317D01*
X116478575Y-122946859D01*
X116459325Y-122984615D01*
X116448658Y-123002377D01*
X116437305Y-123019358D01*
X116425273Y-123035528D01*
X116412567Y-123050861D01*
X116399194Y-123065327D01*
X116385162Y-123078899D01*
X116370475Y-123091547D01*
X116355140Y-123103244D01*
X116339164Y-123113961D01*
X116322554Y-123123671D01*
X116305315Y-123132344D01*
X116287455Y-123139952D01*
X116268978Y-123146468D01*
X116249893Y-123151862D01*
X116230205Y-123156107D01*
X116209920Y-123159174D01*
X116189046Y-123161035D01*
X116167588Y-123161662D01*
X116132518Y-123160498D01*
X116098514Y-123156958D01*
X116065714Y-123150969D01*
X116049808Y-123147034D01*
X116034255Y-123142459D01*
X116019072Y-123137236D01*
X116004277Y-123131355D01*
X115989885Y-123124808D01*
X115975915Y-123117586D01*
X115962383Y-123109678D01*
X115949308Y-123101077D01*
X115936705Y-123091773D01*
X115924593Y-123081758D01*
X115912988Y-123071021D01*
X115901908Y-123059555D01*
X115891371Y-123047349D01*
X115881392Y-123034396D01*
X115871989Y-123020685D01*
X115863180Y-123006208D01*
X115854982Y-122990956D01*
X115847412Y-122974920D01*
X115840488Y-122958090D01*
X115834225Y-122940458D01*
X115828642Y-122922014D01*
X115823756Y-122902750D01*
X115819585Y-122882656D01*
X115816144Y-122861724D01*
X115813452Y-122839944D01*
X115811525Y-122817307D01*
X115797568Y-122620523D01*
X115795312Y-122599075D01*
X115792131Y-122579483D01*
X115788088Y-122561684D01*
X115783243Y-122545611D01*
X115777659Y-122531199D01*
X115774609Y-122524595D01*
X115771398Y-122518383D01*
X115768032Y-122512553D01*
X115764519Y-122507097D01*
X115760869Y-122502008D01*
X115757087Y-122497277D01*
X115753182Y-122492895D01*
X115749161Y-122488856D01*
X115740804Y-122481770D01*
X115732077Y-122475954D01*
X115723042Y-122471341D01*
X115713761Y-122467867D01*
X115704295Y-122465467D01*
X115694705Y-122464074D01*
X115685054Y-122463625D01*
X115677439Y-122463777D01*
X115669955Y-122464241D01*
X115662607Y-122465024D01*
X115655404Y-122466136D01*
X115648353Y-122467586D01*
X115641460Y-122469383D01*
X115634735Y-122471536D01*
X115628183Y-122474054D01*
X115621813Y-122476946D01*
X115615630Y-122480221D01*
X115609644Y-122483887D01*
X115603861Y-122487955D01*
X115598289Y-122492432D01*
X115592934Y-122497328D01*
X115587805Y-122502653D01*
X115582908Y-122508414D01*
X115578252Y-122514621D01*
X115573842Y-122521283D01*
X115569687Y-122528409D01*
X115565794Y-122536007D01*
X115562170Y-122544088D01*
X115558823Y-122552660D01*
X115555760Y-122561731D01*
X115552988Y-122571311D01*
X115550514Y-122581410D01*
X115548347Y-122592035D01*
X115546493Y-122603196D01*
X115544960Y-122614902D01*
X115543754Y-122627162D01*
X115542884Y-122639984D01*
X115542357Y-122653379D01*
X115542179Y-122667354D01*
X115542696Y-122691149D01*
X115544223Y-122714220D01*
X115546725Y-122736611D01*
X115550168Y-122758366D01*
X115554517Y-122779530D01*
X115559738Y-122800147D01*
X115565796Y-122820263D01*
X115572655Y-122839920D01*
X115580282Y-122859165D01*
X115588642Y-122878041D01*
X115597700Y-122896593D01*
X115607421Y-122914865D01*
X115617771Y-122932901D01*
X115628715Y-122950747D01*
X115640218Y-122968447D01*
X115652246Y-122986045D01*
X115479010Y-123133550D01*
X115460973Y-123111301D01*
X115443801Y-123088439D01*
X115427535Y-123064899D01*
X115412216Y-123040614D01*
X115397886Y-123015520D01*
X115384585Y-122989551D01*
X115372354Y-122962641D01*
X115361236Y-122934724D01*
X115351272Y-122905736D01*
X115342502Y-122875609D01*
X115334968Y-122844280D01*
X115328711Y-122811682D01*
X115323773Y-122777749D01*
X115320195Y-122742416D01*
X115318018Y-122705618D01*
X115317283Y-122667289D01*
X115318736Y-122621015D01*
X115323089Y-122576309D01*
X115330331Y-122533366D01*
X115340452Y-122492381D01*
X115353442Y-122453552D01*
X115361010Y-122435006D01*
X115369291Y-122417072D01*
X115378284Y-122399775D01*
X115387988Y-122383139D01*
X115398401Y-122367188D01*
X115409523Y-122351947D01*
X115421351Y-122337440D01*
X115433885Y-122323691D01*
X115447124Y-122310726D01*
X115461065Y-122298569D01*
X115475709Y-122287243D01*
X115491053Y-122276775D01*
X115507096Y-122267187D01*
X115523837Y-122258504D01*
X115541275Y-122250752D01*
X115559408Y-122243953D01*
X115578235Y-122238134D01*
X115597755Y-122233318D01*
X115617966Y-122229529D01*
X115638868Y-122226793D01*
X115660459Y-122225133D01*
X115682737Y-122224574D01*
X115701583Y-122224997D01*
X115719919Y-122226254D01*
X115737743Y-122228327D01*
X115755052Y-122231200D01*
X115771844Y-122234856D01*
X115788116Y-122239276D01*
X115803865Y-122244445D01*
X115819089Y-122250344D01*
X115833785Y-122256958D01*
X115847950Y-122264268D01*
X115861583Y-122272257D01*
X115874679Y-122280908D01*
X115887238Y-122290205D01*
X115899255Y-122300129D01*
X115910729Y-122310664D01*
X115921656Y-122321792D01*
X115932035Y-122333497D01*
X115941863Y-122345761D01*
X115951136Y-122358567D01*
X115959853Y-122371898D01*
X115968010Y-122385736D01*
X115975606Y-122400065D01*
X115982637Y-122414867D01*
X115989100Y-122430125D01*
X115994995Y-122445822D01*
X116000316Y-122461941D01*
X116005063Y-122478464D01*
X116009233Y-122495375D01*
X116015828Y-122530290D01*
X116020082Y-122566548D01*
X116038801Y-122777421D01*
X116040335Y-122792580D01*
X116042370Y-122807231D01*
X116044964Y-122821308D01*
X116048176Y-122834748D01*
X116052062Y-122847485D01*
X116056682Y-122859455D01*
X116062093Y-122870592D01*
X116065113Y-122875828D01*
X116068352Y-122880832D01*
X116071819Y-122885596D01*
X116075519Y-122890110D01*
X116079460Y-122894369D01*
X116083650Y-122898362D01*
X116088096Y-122902082D01*
X116092805Y-122905522D01*
X116097783Y-122908672D01*
X116103040Y-122911525D01*
X116108581Y-122914073D01*
X116114413Y-122916307D01*
X116120545Y-122918220D01*
X116126984Y-122919803D01*
X116133736Y-122921049D01*
X116140808Y-122921948D01*
X116148209Y-122922494D01*
X116155946Y-122922678D01*
X116165246Y-122922391D01*
X116174256Y-122921539D01*
X116182978Y-122920131D01*
X116191409Y-122918181D01*
X116199550Y-122915698D01*
X116207400Y-122912693D01*
X116214959Y-122909179D01*
X116222227Y-122905167D01*
X116229202Y-122900667D01*
X116235885Y-122895690D01*
X116242276Y-122890249D01*
X116248373Y-122884353D01*
X116254177Y-122878015D01*
X116259687Y-122871246D01*
X116264903Y-122864056D01*
X116269823Y-122856458D01*
X116274449Y-122848461D01*
X116278779Y-122840078D01*
X116282814Y-122831319D01*
X116286551Y-122822196D01*
X116289993Y-122812720D01*
X116293137Y-122802903D01*
X116295983Y-122792754D01*
X116298532Y-122782286D01*
X116300782Y-122771510D01*
X116302733Y-122760437D01*
X116304386Y-122749078D01*
X116305738Y-122737445D01*
X116306791Y-122725548D01*
X116307544Y-122713399D01*
X116307996Y-122701009D01*
X116308146Y-122688389D01*
X116307545Y-122659064D01*
X116305741Y-122630782D01*
X116302739Y-122603487D01*
X116298541Y-122577126D01*
X116293150Y-122551643D01*
X116286569Y-122526983D01*
X116278801Y-122503092D01*
X116269848Y-122479914D01*
X116259715Y-122457396D01*
X116248403Y-122435481D01*
X116235915Y-122414116D01*
X116222255Y-122393245D01*
X116207425Y-122372813D01*
X116191428Y-122352766D01*
X116174267Y-122333049D01*
X116155946Y-122313607D01*
X116319855Y-122147316D01*
X116345794Y-122176165D01*
G37*
G36*
X116518888Y-120791458D02*
G01*
X115811591Y-120791458D01*
X115796629Y-120791751D01*
X115782071Y-120792623D01*
X115767921Y-120794060D01*
X115754184Y-120796052D01*
X115740864Y-120798586D01*
X115727967Y-120801651D01*
X115715496Y-120805233D01*
X115703458Y-120809322D01*
X115691855Y-120813905D01*
X115680694Y-120818969D01*
X115669978Y-120824504D01*
X115659713Y-120830498D01*
X115649902Y-120836937D01*
X115640552Y-120843810D01*
X115631666Y-120851106D01*
X115623249Y-120858811D01*
X115615305Y-120866915D01*
X115607841Y-120875404D01*
X115600859Y-120884268D01*
X115594366Y-120893493D01*
X115588365Y-120903069D01*
X115582861Y-120912982D01*
X115577859Y-120923222D01*
X115573364Y-120933775D01*
X115569380Y-120944630D01*
X115565912Y-120955776D01*
X115562964Y-120967199D01*
X115560542Y-120978888D01*
X115558650Y-120990830D01*
X115557293Y-121003015D01*
X115556476Y-121015430D01*
X115556202Y-121028062D01*
X115556476Y-121040484D01*
X115557293Y-121052701D01*
X115558650Y-121064701D01*
X115560542Y-121076472D01*
X115562964Y-121088001D01*
X115565912Y-121099275D01*
X115569380Y-121110282D01*
X115573364Y-121121010D01*
X115577859Y-121131447D01*
X115582861Y-121141579D01*
X115588365Y-121151394D01*
X115594366Y-121160881D01*
X115600860Y-121170026D01*
X115607841Y-121178816D01*
X115615306Y-121187241D01*
X115623249Y-121195287D01*
X115631666Y-121202941D01*
X115640552Y-121210192D01*
X115649903Y-121217027D01*
X115659713Y-121223433D01*
X115669979Y-121229398D01*
X115680695Y-121234910D01*
X115691856Y-121239956D01*
X115703458Y-121244523D01*
X115715497Y-121248600D01*
X115727968Y-121252173D01*
X115740865Y-121255231D01*
X115754184Y-121257761D01*
X115767921Y-121259750D01*
X115782071Y-121261186D01*
X115796630Y-121262057D01*
X115811591Y-121262350D01*
X116518888Y-121262350D01*
X116518888Y-121501269D01*
X115729503Y-121501269D01*
X115704611Y-121500659D01*
X115680463Y-121498857D01*
X115657064Y-121495906D01*
X115634415Y-121491850D01*
X115612520Y-121486732D01*
X115591381Y-121480595D01*
X115571003Y-121473483D01*
X115551387Y-121465439D01*
X115532536Y-121456506D01*
X115514455Y-121446728D01*
X115497144Y-121436148D01*
X115480609Y-121424809D01*
X115464851Y-121412754D01*
X115449873Y-121400028D01*
X115435680Y-121386672D01*
X115422272Y-121372731D01*
X115409654Y-121358248D01*
X115397829Y-121343266D01*
X115386799Y-121327828D01*
X115376567Y-121311978D01*
X115367137Y-121295759D01*
X115358511Y-121279215D01*
X115350693Y-121262388D01*
X115343685Y-121245322D01*
X115332112Y-121210646D01*
X115323816Y-121175534D01*
X115318820Y-121140332D01*
X115317568Y-121122805D01*
X115317150Y-121105386D01*
X115317700Y-121081895D01*
X115319348Y-121058862D01*
X115322096Y-121036308D01*
X115325941Y-121014254D01*
X115330886Y-120992721D01*
X115336928Y-120971729D01*
X115344069Y-120951301D01*
X115352307Y-120931456D01*
X115361643Y-120912215D01*
X115372076Y-120893601D01*
X115383606Y-120875632D01*
X115396234Y-120858332D01*
X115409958Y-120841719D01*
X115424779Y-120825816D01*
X115440697Y-120810643D01*
X115457710Y-120796221D01*
X115457710Y-120791458D01*
X115331239Y-120791458D01*
X115331239Y-120552539D01*
X116518888Y-120552539D01*
X116518888Y-120791458D01*
G37*
G36*
X118394916Y-122856068D02*
G01*
X118394916Y-123066875D01*
X117563263Y-123315186D01*
X117563263Y-123319883D01*
X118394916Y-123568194D01*
X118394916Y-123779133D01*
X117207267Y-124158546D01*
X117207267Y-123905472D01*
X118038852Y-123678393D01*
X118038852Y-123673564D01*
X117207267Y-123404219D01*
X117207267Y-123230851D01*
X118038852Y-122961505D01*
X118038852Y-122956808D01*
X117207267Y-122729531D01*
X117207267Y-122476590D01*
X118394916Y-122856068D01*
G37*
G36*
X115973197Y-119370276D02*
G01*
X116015671Y-119372698D01*
X116056070Y-119376662D01*
X116094440Y-119382110D01*
X116130827Y-119388982D01*
X116165279Y-119397218D01*
X116197840Y-119406760D01*
X116228557Y-119417549D01*
X116257477Y-119429524D01*
X116284646Y-119442628D01*
X116310110Y-119456801D01*
X116333915Y-119471983D01*
X116356108Y-119488116D01*
X116376735Y-119505140D01*
X116395841Y-119522996D01*
X116413475Y-119541625D01*
X116429681Y-119560967D01*
X116444506Y-119580965D01*
X116457997Y-119601557D01*
X116470199Y-119622686D01*
X116481159Y-119644292D01*
X116490923Y-119666315D01*
X116507049Y-119711379D01*
X116518947Y-119757403D01*
X116526987Y-119803914D01*
X116531540Y-119850440D01*
X116532975Y-119896505D01*
X116532311Y-119926292D01*
X116530294Y-119955870D01*
X116526891Y-119985200D01*
X116522067Y-120014239D01*
X116515789Y-120042947D01*
X116508021Y-120071283D01*
X116498730Y-120099206D01*
X116487880Y-120126676D01*
X116475439Y-120153651D01*
X116461371Y-120180091D01*
X116445643Y-120205955D01*
X116428219Y-120231201D01*
X116409066Y-120255789D01*
X116388149Y-120279678D01*
X116365435Y-120302828D01*
X116340888Y-120325196D01*
X116193382Y-120151828D01*
X116206641Y-120138336D01*
X116219169Y-120124236D01*
X116230949Y-120109581D01*
X116241965Y-120094421D01*
X116252198Y-120078808D01*
X116261632Y-120062793D01*
X116270249Y-120046428D01*
X116278033Y-120029764D01*
X116284965Y-120012853D01*
X116291029Y-119995747D01*
X116296207Y-119978496D01*
X116300483Y-119961152D01*
X116303838Y-119943766D01*
X116306256Y-119926390D01*
X116307720Y-119909076D01*
X116308211Y-119891875D01*
X116307923Y-119876629D01*
X116307058Y-119861658D01*
X116305618Y-119846976D01*
X116303602Y-119832596D01*
X116301011Y-119818531D01*
X116297846Y-119804797D01*
X116294107Y-119791407D01*
X116289794Y-119778373D01*
X116284907Y-119765710D01*
X116279448Y-119753432D01*
X116273417Y-119741553D01*
X116266814Y-119730085D01*
X116259639Y-119719043D01*
X116251893Y-119708441D01*
X116243577Y-119698291D01*
X116234690Y-119688609D01*
X116225234Y-119679407D01*
X116215208Y-119670700D01*
X116204614Y-119662500D01*
X116193451Y-119654822D01*
X116181720Y-119647680D01*
X116169421Y-119641087D01*
X116156556Y-119635056D01*
X116143124Y-119629603D01*
X116129125Y-119624739D01*
X116114561Y-119620480D01*
X116099431Y-119616838D01*
X116083737Y-119613827D01*
X116067478Y-119611462D01*
X116050655Y-119609756D01*
X116033268Y-119608722D01*
X116015318Y-119608374D01*
X116015318Y-120348612D01*
X115818535Y-120348612D01*
X115790088Y-120347952D01*
X115762315Y-120345996D01*
X115735232Y-120342780D01*
X115708853Y-120338337D01*
X115683194Y-120332703D01*
X115658270Y-120325915D01*
X115634095Y-120318006D01*
X115610685Y-120309011D01*
X115588054Y-120298967D01*
X115566218Y-120287908D01*
X115545191Y-120275870D01*
X115524989Y-120262887D01*
X115505626Y-120248995D01*
X115487117Y-120234229D01*
X115469478Y-120218624D01*
X115452723Y-120202215D01*
X115436868Y-120185037D01*
X115421927Y-120167127D01*
X115407915Y-120148518D01*
X115394848Y-120129246D01*
X115382740Y-120109346D01*
X115371606Y-120088853D01*
X115361462Y-120067803D01*
X115352321Y-120046231D01*
X115344200Y-120024171D01*
X115337113Y-120001659D01*
X115331076Y-119978731D01*
X115326102Y-119955421D01*
X115322208Y-119931764D01*
X115319407Y-119907796D01*
X115317716Y-119883552D01*
X115317149Y-119859067D01*
X115542112Y-119859067D01*
X115542393Y-119872133D01*
X115543234Y-119884968D01*
X115544634Y-119897562D01*
X115546589Y-119909904D01*
X115549098Y-119921984D01*
X115552160Y-119933790D01*
X115555771Y-119945312D01*
X115559929Y-119956540D01*
X115564634Y-119967462D01*
X115569882Y-119978068D01*
X115575671Y-119988346D01*
X115581999Y-119998287D01*
X115588865Y-120007880D01*
X115596266Y-120017114D01*
X115604200Y-120025977D01*
X115612665Y-120034461D01*
X115621659Y-120042553D01*
X115631179Y-120050243D01*
X115641225Y-120057520D01*
X115651792Y-120064374D01*
X115662881Y-120070794D01*
X115674487Y-120076769D01*
X115686610Y-120082288D01*
X115699247Y-120087341D01*
X115712396Y-120091917D01*
X115726055Y-120096006D01*
X115740222Y-120099596D01*
X115754895Y-120102676D01*
X115770071Y-120105237D01*
X115785749Y-120107267D01*
X115801927Y-120108756D01*
X115818602Y-120109693D01*
X115818602Y-119608374D01*
X115801927Y-119609107D01*
X115785749Y-119610419D01*
X115770071Y-119612297D01*
X115754894Y-119614729D01*
X115740222Y-119617704D01*
X115726055Y-119621208D01*
X115712396Y-119625231D01*
X115699246Y-119629760D01*
X115686609Y-119634783D01*
X115674487Y-119640288D01*
X115662880Y-119646263D01*
X115651792Y-119652697D01*
X115641224Y-119659576D01*
X115631179Y-119666890D01*
X115621659Y-119674626D01*
X115612665Y-119682772D01*
X115604200Y-119691315D01*
X115596266Y-119700245D01*
X115588865Y-119709549D01*
X115581999Y-119719215D01*
X115575671Y-119729231D01*
X115569881Y-119739584D01*
X115564634Y-119750264D01*
X115559929Y-119761258D01*
X115555771Y-119772553D01*
X115552159Y-119784139D01*
X115549098Y-119796002D01*
X115546589Y-119808131D01*
X115544634Y-119820515D01*
X115543234Y-119833139D01*
X115542393Y-119845994D01*
X115542112Y-119859067D01*
X115317149Y-119859067D01*
X115318947Y-119815722D01*
X115324497Y-119772092D01*
X115328753Y-119750303D01*
X115334035Y-119728602D01*
X115340375Y-119707043D01*
X115347800Y-119685678D01*
X115356340Y-119664561D01*
X115366026Y-119643744D01*
X115376886Y-119623282D01*
X115388950Y-119603227D01*
X115402247Y-119583632D01*
X115416808Y-119564550D01*
X115432662Y-119546035D01*
X115449838Y-119528139D01*
X115468366Y-119510917D01*
X115488275Y-119494420D01*
X115509595Y-119478702D01*
X115532356Y-119463817D01*
X115556587Y-119449817D01*
X115582317Y-119436756D01*
X115609577Y-119424686D01*
X115638395Y-119413661D01*
X115668802Y-119403735D01*
X115700826Y-119394959D01*
X115734498Y-119387388D01*
X115769846Y-119381074D01*
X115806901Y-119376071D01*
X115818602Y-119374973D01*
X115845693Y-119372431D01*
X115886249Y-119370208D01*
X115928601Y-119369455D01*
X115973197Y-119370276D01*
G37*
G36*
X115970453Y-117076887D02*
G01*
X116013439Y-117078231D01*
X116053166Y-117080501D01*
X116089872Y-117083721D01*
X116123793Y-117087915D01*
X116155165Y-117093107D01*
X116184225Y-117099321D01*
X116211210Y-117106582D01*
X116236357Y-117114913D01*
X116259901Y-117124338D01*
X116282080Y-117134883D01*
X116303130Y-117146570D01*
X116323288Y-117159424D01*
X116342791Y-117173469D01*
X116361874Y-117188730D01*
X116380775Y-117205230D01*
X116394453Y-117218062D01*
X116408168Y-117231982D01*
X116421791Y-117247035D01*
X116435197Y-117263265D01*
X116448258Y-117280716D01*
X116460849Y-117299433D01*
X116472843Y-117319462D01*
X116484111Y-117340845D01*
X116489434Y-117352059D01*
X116494529Y-117363629D01*
X116499379Y-117375560D01*
X116503969Y-117387857D01*
X116508282Y-117400527D01*
X116512304Y-117413574D01*
X116516018Y-117427005D01*
X116519408Y-117440825D01*
X116522459Y-117455039D01*
X116525154Y-117469654D01*
X116527478Y-117484674D01*
X116529415Y-117500105D01*
X116530949Y-117515954D01*
X116532065Y-117532224D01*
X116532746Y-117548923D01*
X116532976Y-117566055D01*
X116532065Y-117599875D01*
X116529415Y-117631984D01*
X116525154Y-117662426D01*
X116519408Y-117691248D01*
X116512304Y-117718492D01*
X116503969Y-117744204D01*
X116494529Y-117768428D01*
X116484111Y-117791208D01*
X116472842Y-117812588D01*
X116460849Y-117832615D01*
X116448258Y-117851331D01*
X116435196Y-117868781D01*
X116421791Y-117885010D01*
X116408167Y-117900063D01*
X116394453Y-117913983D01*
X116380775Y-117926815D01*
X116361874Y-117943315D01*
X116342788Y-117958578D01*
X116323283Y-117972627D01*
X116303122Y-117985485D01*
X116282067Y-117997177D01*
X116259884Y-118007727D01*
X116236336Y-118017159D01*
X116211186Y-118025496D01*
X116184198Y-118032763D01*
X116155136Y-118038983D01*
X116123764Y-118044181D01*
X116089844Y-118048379D01*
X116053142Y-118051604D01*
X116013420Y-118053877D01*
X115970442Y-118055223D01*
X115923972Y-118055667D01*
X115877888Y-118055223D01*
X115835250Y-118053877D01*
X115795826Y-118051604D01*
X115759382Y-118048379D01*
X115725684Y-118044181D01*
X115694499Y-118038983D01*
X115665594Y-118032763D01*
X115638734Y-118025496D01*
X115613687Y-118017159D01*
X115590218Y-118007727D01*
X115568095Y-117997177D01*
X115547083Y-117985485D01*
X115526949Y-117972627D01*
X115507461Y-117958578D01*
X115488383Y-117943315D01*
X115469483Y-117926815D01*
X115455804Y-117913983D01*
X115442086Y-117900063D01*
X115428456Y-117885010D01*
X115415041Y-117868781D01*
X115401970Y-117851331D01*
X115389368Y-117832615D01*
X115377362Y-117812588D01*
X115366081Y-117791208D01*
X115360752Y-117779995D01*
X115355651Y-117768428D01*
X115350795Y-117756499D01*
X115346199Y-117744204D01*
X115341880Y-117731537D01*
X115337853Y-117718492D01*
X115334134Y-117705064D01*
X115330739Y-117691248D01*
X115327684Y-117677037D01*
X115324984Y-117662426D01*
X115322657Y-117647410D01*
X115320717Y-117631984D01*
X115319180Y-117616140D01*
X115318063Y-117599875D01*
X115317381Y-117583182D01*
X115317150Y-117566055D01*
X115556134Y-117566055D01*
X115556567Y-117581332D01*
X115557839Y-117596396D01*
X115559914Y-117611200D01*
X115562754Y-117625695D01*
X115566321Y-117639835D01*
X115570579Y-117653570D01*
X115575489Y-117666853D01*
X115581013Y-117679636D01*
X115587116Y-117691871D01*
X115593758Y-117703510D01*
X115600903Y-117714505D01*
X115608513Y-117724808D01*
X115616550Y-117734372D01*
X115624977Y-117743147D01*
X115633757Y-117751087D01*
X115642852Y-117758143D01*
X115654540Y-117766136D01*
X115666056Y-117773439D01*
X115677609Y-117780076D01*
X115689408Y-117786070D01*
X115701662Y-117791446D01*
X115714580Y-117796228D01*
X115728372Y-117800440D01*
X115743245Y-117804106D01*
X115759410Y-117807251D01*
X115777075Y-117809897D01*
X115796451Y-117812071D01*
X115817744Y-117813795D01*
X115841166Y-117815094D01*
X115866924Y-117815992D01*
X115895228Y-117816514D01*
X115926288Y-117816682D01*
X115984882Y-117815992D01*
X116010325Y-117815094D01*
X116033474Y-117813795D01*
X116054535Y-117812071D01*
X116073714Y-117809897D01*
X116091219Y-117807251D01*
X116107254Y-117804106D01*
X116122026Y-117800440D01*
X116135743Y-117796228D01*
X116148609Y-117791446D01*
X116160831Y-117786070D01*
X116172616Y-117780076D01*
X116184169Y-117773439D01*
X116195697Y-117766136D01*
X116207407Y-117758143D01*
X116211986Y-117754728D01*
X116216491Y-117751087D01*
X116225263Y-117743147D01*
X116233684Y-117734372D01*
X116241718Y-117724809D01*
X116249327Y-117714505D01*
X116256472Y-117703510D01*
X116263115Y-117691871D01*
X116269220Y-117679636D01*
X116274749Y-117666853D01*
X116279663Y-117653570D01*
X116283924Y-117639835D01*
X116287495Y-117625695D01*
X116290339Y-117611200D01*
X116292417Y-117596396D01*
X116293691Y-117581332D01*
X116294125Y-117566055D01*
X116293692Y-117550767D01*
X116292420Y-117535693D01*
X116290345Y-117520881D01*
X116287505Y-117506378D01*
X116283938Y-117492234D01*
X116279680Y-117478494D01*
X116274770Y-117465209D01*
X116269246Y-117452425D01*
X116263143Y-117440191D01*
X116256501Y-117428554D01*
X116249356Y-117417563D01*
X116241746Y-117407265D01*
X116233709Y-117397709D01*
X116225282Y-117388942D01*
X116216502Y-117381012D01*
X116207407Y-117373968D01*
X116195697Y-117365974D01*
X116184164Y-117358669D01*
X116172600Y-117352029D01*
X116160795Y-117346031D01*
X116148538Y-117340650D01*
X116135621Y-117335862D01*
X116121833Y-117331644D01*
X116106964Y-117327972D01*
X116090807Y-117324821D01*
X116073149Y-117322168D01*
X116053782Y-117319989D01*
X116032497Y-117318260D01*
X116009083Y-117316956D01*
X115983330Y-117316055D01*
X115955030Y-117315532D01*
X115923972Y-117315363D01*
X115865373Y-117316055D01*
X115839924Y-117316956D01*
X115816767Y-117318260D01*
X115795698Y-117319989D01*
X115776510Y-117322168D01*
X115758998Y-117324821D01*
X115742956Y-117327972D01*
X115728178Y-117331644D01*
X115714458Y-117335862D01*
X115701592Y-117340650D01*
X115689372Y-117346031D01*
X115677594Y-117352029D01*
X115666052Y-117358669D01*
X115654540Y-117365974D01*
X115642852Y-117373968D01*
X115638273Y-117377376D01*
X115633768Y-117381012D01*
X115624996Y-117388942D01*
X115616575Y-117397709D01*
X115608541Y-117407265D01*
X115600932Y-117417563D01*
X115593787Y-117428554D01*
X115587143Y-117440191D01*
X115581038Y-117452425D01*
X115575510Y-117465209D01*
X115570596Y-117478494D01*
X115566335Y-117492234D01*
X115562763Y-117506378D01*
X115559920Y-117520881D01*
X115557842Y-117535693D01*
X115556567Y-117550767D01*
X115556134Y-117566055D01*
X115317150Y-117566055D01*
X115318063Y-117532224D01*
X115320717Y-117500105D01*
X115324985Y-117469654D01*
X115330739Y-117440825D01*
X115337853Y-117413574D01*
X115346200Y-117387857D01*
X115355651Y-117363629D01*
X115366082Y-117340845D01*
X115377363Y-117319462D01*
X115389368Y-117299433D01*
X115401970Y-117280716D01*
X115415042Y-117263265D01*
X115428456Y-117247035D01*
X115442086Y-117231982D01*
X115455804Y-117218062D01*
X115469483Y-117205230D01*
X115488394Y-117188730D01*
X115507480Y-117173469D01*
X115526974Y-117159424D01*
X115547111Y-117146570D01*
X115568124Y-117134883D01*
X115590247Y-117124338D01*
X115613714Y-117114913D01*
X115638759Y-117106582D01*
X115665615Y-117099321D01*
X115694517Y-117093107D01*
X115725698Y-117087915D01*
X115759391Y-117083721D01*
X115795832Y-117080501D01*
X115835253Y-117078231D01*
X115877888Y-117076887D01*
X115923972Y-117076444D01*
X115970453Y-117076887D01*
G37*
G36*
X118394916Y-120832866D02*
G01*
X117680343Y-120832866D01*
X117664389Y-120833199D01*
X117649006Y-120834184D01*
X117634189Y-120835801D01*
X117619935Y-120838029D01*
X117606240Y-120840847D01*
X117593098Y-120844235D01*
X117580506Y-120848172D01*
X117568460Y-120852638D01*
X117556955Y-120857612D01*
X117545988Y-120863073D01*
X117535553Y-120869002D01*
X117525646Y-120875376D01*
X117516265Y-120882176D01*
X117507403Y-120889381D01*
X117499058Y-120896970D01*
X117491224Y-120904923D01*
X117483897Y-120913220D01*
X117477074Y-120921839D01*
X117470750Y-120930760D01*
X117464921Y-120939962D01*
X117459583Y-120949425D01*
X117454731Y-120959128D01*
X117450361Y-120969051D01*
X117446469Y-120979173D01*
X117440102Y-120999931D01*
X117435596Y-121021238D01*
X117432917Y-121042929D01*
X117432032Y-121064839D01*
X117432226Y-121076024D01*
X117432819Y-121086768D01*
X117433824Y-121097129D01*
X117435255Y-121107159D01*
X117437126Y-121116915D01*
X117439451Y-121126451D01*
X117442243Y-121135821D01*
X117445517Y-121145082D01*
X117449286Y-121154288D01*
X117453564Y-121163494D01*
X117458366Y-121172755D01*
X117463704Y-121182125D01*
X117469593Y-121191660D01*
X117476046Y-121201415D01*
X117483078Y-121211445D01*
X117490703Y-121221804D01*
X117284526Y-121395105D01*
X117274234Y-121381404D01*
X117264458Y-121367525D01*
X117255217Y-121353456D01*
X117246533Y-121339182D01*
X117238425Y-121324689D01*
X117230915Y-121309963D01*
X117224022Y-121294990D01*
X117217768Y-121279755D01*
X117212172Y-121264246D01*
X117207256Y-121248447D01*
X117203040Y-121232345D01*
X117199545Y-121215926D01*
X117196790Y-121199175D01*
X117194797Y-121182079D01*
X117193586Y-121164623D01*
X117193178Y-121146794D01*
X117193728Y-121123302D01*
X117195376Y-121100269D01*
X117198124Y-121077715D01*
X117201969Y-121055660D01*
X117206914Y-121034126D01*
X117212956Y-121013133D01*
X117220097Y-120992703D01*
X117228335Y-120972855D01*
X117237671Y-120953611D01*
X117248104Y-120934992D01*
X117259635Y-120917018D01*
X117272262Y-120899711D01*
X117285986Y-120883091D01*
X117300807Y-120867179D01*
X117316725Y-120851996D01*
X117333738Y-120837562D01*
X117333738Y-120832866D01*
X117207267Y-120832866D01*
X117207267Y-120593947D01*
X118394916Y-120593947D01*
X118394916Y-120832866D01*
G37*
G36*
X115973197Y-127490868D02*
G01*
X116015671Y-127493290D01*
X116056070Y-127497255D01*
X116094440Y-127502703D01*
X116130827Y-127509574D01*
X116165279Y-127517811D01*
X116197840Y-127527353D01*
X116228557Y-127538142D01*
X116257477Y-127550118D01*
X116284646Y-127563222D01*
X116310110Y-127577396D01*
X116333915Y-127592579D01*
X116356108Y-127608712D01*
X116376735Y-127625737D01*
X116395841Y-127643595D01*
X116413475Y-127662225D01*
X116429681Y-127681570D01*
X116444506Y-127701569D01*
X116457997Y-127722163D01*
X116470199Y-127743295D01*
X116481159Y-127764903D01*
X116490923Y-127786929D01*
X116507049Y-127831999D01*
X116518947Y-127878031D01*
X116526987Y-127924551D01*
X116531540Y-127971086D01*
X116532975Y-128017164D01*
X116532311Y-128046940D01*
X116530294Y-128076512D01*
X116526891Y-128105839D01*
X116522067Y-128134878D01*
X116515789Y-128163587D01*
X116508021Y-128191927D01*
X116498730Y-128219853D01*
X116487880Y-128247327D01*
X116475439Y-128274304D01*
X116461371Y-128300745D01*
X116445643Y-128326608D01*
X116428219Y-128351850D01*
X116409066Y-128376431D01*
X116388149Y-128400309D01*
X116365435Y-128423442D01*
X116340888Y-128445789D01*
X116193382Y-128272420D01*
X116206641Y-128258917D01*
X116219169Y-128244809D01*
X116230949Y-128230148D01*
X116241965Y-128214985D01*
X116252198Y-128199370D01*
X116261632Y-128183356D01*
X116270249Y-128166992D01*
X116278033Y-128150331D01*
X116284965Y-128133424D01*
X116291029Y-128116321D01*
X116296207Y-128099074D01*
X116300483Y-128081734D01*
X116303838Y-128064353D01*
X116306256Y-128046980D01*
X116307720Y-128029668D01*
X116308211Y-128012468D01*
X116307923Y-127997222D01*
X116307058Y-127982251D01*
X116305618Y-127967570D01*
X116303602Y-127953191D01*
X116301011Y-127939128D01*
X116297846Y-127925396D01*
X116294107Y-127912007D01*
X116289794Y-127898976D01*
X116284907Y-127886316D01*
X116279448Y-127874040D01*
X116273417Y-127862163D01*
X116266814Y-127850698D01*
X116259639Y-127839659D01*
X116251893Y-127829060D01*
X116243577Y-127818914D01*
X116234690Y-127809234D01*
X116225234Y-127800035D01*
X116215208Y-127791331D01*
X116204614Y-127783134D01*
X116193451Y-127775460D01*
X116181720Y-127768320D01*
X116169421Y-127761730D01*
X116156556Y-127755702D01*
X116143124Y-127750250D01*
X116129125Y-127745389D01*
X116114561Y-127741132D01*
X116099431Y-127737491D01*
X116083737Y-127734483D01*
X116067478Y-127732118D01*
X116050655Y-127730413D01*
X116033268Y-127729379D01*
X116015318Y-127729032D01*
X116015318Y-128469270D01*
X115818535Y-128469270D01*
X115790088Y-128468610D01*
X115762315Y-128466652D01*
X115735232Y-128463433D01*
X115708853Y-128458986D01*
X115683194Y-128453349D01*
X115658270Y-128446555D01*
X115634095Y-128438641D01*
X115610685Y-128429640D01*
X115588054Y-128419590D01*
X115566218Y-128408524D01*
X115545191Y-128396479D01*
X115524989Y-128383489D01*
X115505626Y-128369590D01*
X115487117Y-128354817D01*
X115469478Y-128339205D01*
X115452723Y-128322790D01*
X115436868Y-128305607D01*
X115421927Y-128287690D01*
X115407915Y-128269077D01*
X115394848Y-128249800D01*
X115382740Y-128229897D01*
X115371606Y-128209402D01*
X115361462Y-128188350D01*
X115352321Y-128166777D01*
X115344200Y-128144718D01*
X115337113Y-128122208D01*
X115331076Y-128099283D01*
X115326102Y-128075977D01*
X115322208Y-128052327D01*
X115319407Y-128028367D01*
X115317716Y-128004132D01*
X115317149Y-127979658D01*
X115542112Y-127979658D01*
X115542393Y-127992723D01*
X115543234Y-128005558D01*
X115544634Y-128018151D01*
X115546589Y-128030492D01*
X115549098Y-128042571D01*
X115552160Y-128054375D01*
X115555771Y-128065896D01*
X115559929Y-128077121D01*
X115564634Y-128088041D01*
X115569882Y-128098645D01*
X115575671Y-128108922D01*
X115581999Y-128118861D01*
X115588865Y-128128452D01*
X115596266Y-128137683D01*
X115604200Y-128146545D01*
X115612665Y-128155027D01*
X115621659Y-128163118D01*
X115631179Y-128170806D01*
X115641225Y-128178083D01*
X115651792Y-128184936D01*
X115662881Y-128191356D01*
X115674487Y-128197331D01*
X115686610Y-128202851D01*
X115699247Y-128207905D01*
X115712396Y-128212482D01*
X115726055Y-128216572D01*
X115740222Y-128220165D01*
X115754895Y-128223249D01*
X115770071Y-128225813D01*
X115785749Y-128227848D01*
X115801927Y-128229342D01*
X115818602Y-128230285D01*
X115818602Y-127729031D01*
X115801927Y-127729758D01*
X115785749Y-127731065D01*
X115770071Y-127732937D01*
X115754894Y-127735365D01*
X115740222Y-127738334D01*
X115726055Y-127741835D01*
X115712396Y-127745854D01*
X115699246Y-127750379D01*
X115686609Y-127755399D01*
X115674487Y-127760901D01*
X115662880Y-127766873D01*
X115651792Y-127773304D01*
X115641224Y-127780182D01*
X115631179Y-127787493D01*
X115621659Y-127795227D01*
X115612665Y-127803371D01*
X115604200Y-127811913D01*
X115596266Y-127820842D01*
X115588865Y-127830145D01*
X115581999Y-127839810D01*
X115575671Y-127849825D01*
X115569881Y-127860178D01*
X115564634Y-127870857D01*
X115559929Y-127881850D01*
X115555771Y-127893145D01*
X115552159Y-127904730D01*
X115549098Y-127916593D01*
X115546589Y-127928722D01*
X115544634Y-127941105D01*
X115543234Y-127953730D01*
X115542393Y-127966585D01*
X115542112Y-127979658D01*
X115317149Y-127979658D01*
X115318947Y-127936302D01*
X115324497Y-127892664D01*
X115328753Y-127870872D01*
X115334035Y-127849169D01*
X115340375Y-127827608D01*
X115347800Y-127806242D01*
X115356340Y-127785124D01*
X115366026Y-127764307D01*
X115376886Y-127743844D01*
X115388950Y-127723789D01*
X115402247Y-127704195D01*
X115416808Y-127685114D01*
X115432662Y-127666600D01*
X115449838Y-127648706D01*
X115468366Y-127631485D01*
X115488275Y-127614990D01*
X115509595Y-127599275D01*
X115532356Y-127584392D01*
X115556587Y-127570394D01*
X115582317Y-127557335D01*
X115609577Y-127545267D01*
X115638395Y-127534244D01*
X115668802Y-127524320D01*
X115700826Y-127515546D01*
X115734498Y-127507976D01*
X115769846Y-127501663D01*
X115806901Y-127496661D01*
X115818602Y-127495564D01*
X115845693Y-127493023D01*
X115886249Y-127490800D01*
X115928601Y-127490048D01*
X115973197Y-127490868D01*
G37*
G36*
X115966043Y-126464958D02*
G01*
X116004422Y-126467230D01*
X116041307Y-126470959D01*
X116076715Y-126476100D01*
X116110661Y-126482604D01*
X116143161Y-126490426D01*
X116174232Y-126499518D01*
X116203889Y-126509834D01*
X116232148Y-126521326D01*
X116259025Y-126533950D01*
X116284536Y-126547656D01*
X116308696Y-126562399D01*
X116331523Y-126578132D01*
X116353032Y-126594808D01*
X116373239Y-126612381D01*
X116392159Y-126630803D01*
X116409809Y-126650028D01*
X116426205Y-126670009D01*
X116441362Y-126690700D01*
X116455297Y-126712053D01*
X116468026Y-126734022D01*
X116479564Y-126756560D01*
X116489927Y-126779620D01*
X116499132Y-126803156D01*
X116514130Y-126851467D01*
X116524685Y-126901118D01*
X116530924Y-126951737D01*
X116532975Y-127002948D01*
X116531972Y-127036331D01*
X116529016Y-127068833D01*
X116524186Y-127100452D01*
X116517561Y-127131183D01*
X116509221Y-127161022D01*
X116499245Y-127189966D01*
X116487711Y-127218009D01*
X116474701Y-127245149D01*
X116460291Y-127271381D01*
X116444563Y-127296702D01*
X116427595Y-127321107D01*
X116409466Y-127344592D01*
X116390256Y-127367154D01*
X116370044Y-127388788D01*
X116348909Y-127409491D01*
X116326931Y-127429259D01*
X116169968Y-127253575D01*
X116183331Y-127242299D01*
X116196155Y-127230437D01*
X116208395Y-127218004D01*
X116220007Y-127205019D01*
X116230947Y-127191498D01*
X116241168Y-127177460D01*
X116250628Y-127162921D01*
X116259282Y-127147899D01*
X116267084Y-127132411D01*
X116273990Y-127116474D01*
X116279956Y-127100107D01*
X116284938Y-127083325D01*
X116288890Y-127066147D01*
X116291768Y-127048590D01*
X116292790Y-127039675D01*
X116293527Y-127030671D01*
X116293974Y-127021581D01*
X116294124Y-127012408D01*
X116293800Y-126994416D01*
X116292823Y-126976897D01*
X116291187Y-126959857D01*
X116288885Y-126943303D01*
X116285910Y-126927240D01*
X116282255Y-126911675D01*
X116277913Y-126896615D01*
X116272877Y-126882066D01*
X116267141Y-126868035D01*
X116260698Y-126854528D01*
X116253541Y-126841552D01*
X116245663Y-126829113D01*
X116237057Y-126817218D01*
X116227716Y-126805872D01*
X116217633Y-126795084D01*
X116206803Y-126784858D01*
X116195217Y-126775202D01*
X116182869Y-126766122D01*
X116169752Y-126757624D01*
X116155860Y-126749715D01*
X116141185Y-126742402D01*
X116125721Y-126735691D01*
X116109460Y-126729588D01*
X116092396Y-126724100D01*
X116074523Y-126719233D01*
X116055832Y-126714995D01*
X116036318Y-126711390D01*
X116015974Y-126708427D01*
X115994792Y-126706110D01*
X115972766Y-126704448D01*
X115949889Y-126703446D01*
X115926154Y-126703110D01*
X115879160Y-126704447D01*
X115835620Y-126708424D01*
X115815127Y-126711386D01*
X115795477Y-126714989D01*
X115776660Y-126719226D01*
X115758671Y-126724091D01*
X115741502Y-126729577D01*
X115725145Y-126735677D01*
X115709594Y-126742386D01*
X115694841Y-126749698D01*
X115680878Y-126757604D01*
X115667699Y-126766100D01*
X115655296Y-126775178D01*
X115643662Y-126784833D01*
X115632790Y-126795057D01*
X115622671Y-126805845D01*
X115613300Y-126817189D01*
X115604669Y-126829084D01*
X115596770Y-126841522D01*
X115589596Y-126854499D01*
X115583140Y-126868006D01*
X115577394Y-126882038D01*
X115572352Y-126896588D01*
X115568005Y-126911650D01*
X115564348Y-126927217D01*
X115561371Y-126943283D01*
X115557434Y-126976886D01*
X115556134Y-127012408D01*
X115556731Y-127030672D01*
X115558490Y-127048593D01*
X115561368Y-127066153D01*
X115565320Y-127083334D01*
X115570302Y-127100120D01*
X115576268Y-127116492D01*
X115583175Y-127132432D01*
X115590977Y-127147924D01*
X115599630Y-127162948D01*
X115609090Y-127177489D01*
X115619312Y-127191527D01*
X115630251Y-127205047D01*
X115641863Y-127218028D01*
X115654103Y-127230456D01*
X115666927Y-127242310D01*
X115680290Y-127253575D01*
X115523326Y-127429259D01*
X115501313Y-127409480D01*
X115480150Y-127388767D01*
X115459914Y-127367124D01*
X115440686Y-127344556D01*
X115422543Y-127321065D01*
X115405564Y-127296656D01*
X115389829Y-127271333D01*
X115375415Y-127245100D01*
X115362403Y-127217961D01*
X115350869Y-127189920D01*
X115340894Y-127160980D01*
X115332556Y-127131146D01*
X115325934Y-127100422D01*
X115321106Y-127068812D01*
X115319390Y-127052676D01*
X115318151Y-127036319D01*
X115317401Y-127019743D01*
X115317149Y-127002948D01*
X115319203Y-126951737D01*
X115321794Y-126926330D01*
X115325449Y-126901118D01*
X115330186Y-126876148D01*
X115336020Y-126851467D01*
X115342968Y-126827120D01*
X115351045Y-126803156D01*
X115360268Y-126779620D01*
X115370654Y-126756560D01*
X115382218Y-126734022D01*
X115394977Y-126712053D01*
X115408947Y-126690700D01*
X115424145Y-126670009D01*
X115440587Y-126650028D01*
X115458288Y-126630803D01*
X115477266Y-126612381D01*
X115497536Y-126594808D01*
X115519115Y-126578132D01*
X115542019Y-126562399D01*
X115566265Y-126547656D01*
X115591868Y-126533950D01*
X115618845Y-126521326D01*
X115647213Y-126509834D01*
X115676987Y-126499518D01*
X115708184Y-126490426D01*
X115740819Y-126482604D01*
X115774911Y-126476100D01*
X115810473Y-126470959D01*
X115847524Y-126467230D01*
X115886079Y-126464958D01*
X115926154Y-126464190D01*
X115966043Y-126464958D01*
G37*
G36*
X118065047Y-119376125D02*
G01*
X118083920Y-119377474D01*
X118102466Y-119379712D01*
X118120664Y-119382832D01*
X118138495Y-119386826D01*
X118155939Y-119391684D01*
X118172976Y-119397399D01*
X118189587Y-119403963D01*
X118205751Y-119411367D01*
X118221450Y-119419605D01*
X118236662Y-119428666D01*
X118251370Y-119438544D01*
X118265552Y-119449229D01*
X118279190Y-119460715D01*
X118292263Y-119472993D01*
X118304751Y-119486054D01*
X118316636Y-119499891D01*
X118327897Y-119514495D01*
X118338514Y-119529858D01*
X118348468Y-119545973D01*
X118357740Y-119562830D01*
X118366308Y-119580423D01*
X118374154Y-119598742D01*
X118381258Y-119617779D01*
X118387600Y-119637527D01*
X118393161Y-119657978D01*
X118397920Y-119679122D01*
X118401858Y-119700952D01*
X118404955Y-119723461D01*
X118407192Y-119746639D01*
X118408549Y-119770478D01*
X118409005Y-119794972D01*
X118408565Y-119824361D01*
X118407236Y-119851952D01*
X118405009Y-119877814D01*
X118401873Y-119902015D01*
X118397817Y-119924623D01*
X118392831Y-119945708D01*
X118386904Y-119965336D01*
X118380025Y-119983578D01*
X118372185Y-120000501D01*
X118363372Y-120016175D01*
X118353576Y-120030666D01*
X118342786Y-120044045D01*
X118330992Y-120056379D01*
X118318184Y-120067737D01*
X118304349Y-120078188D01*
X118289479Y-120087799D01*
X118289479Y-120092496D01*
X118394916Y-120092496D01*
X118394916Y-120331480D01*
X117584365Y-120331480D01*
X117557485Y-120330893D01*
X117531726Y-120329146D01*
X117507071Y-120326258D01*
X117483502Y-120322251D01*
X117461001Y-120317143D01*
X117439551Y-120310956D01*
X117419134Y-120303710D01*
X117399733Y-120295423D01*
X117381331Y-120286118D01*
X117363909Y-120275814D01*
X117347450Y-120264530D01*
X117331936Y-120252288D01*
X117317351Y-120239108D01*
X117303676Y-120225009D01*
X117290893Y-120210012D01*
X117278986Y-120194137D01*
X117267937Y-120177403D01*
X117257728Y-120159833D01*
X117248341Y-120141444D01*
X117239759Y-120122258D01*
X117231965Y-120102295D01*
X117224941Y-120081575D01*
X117218669Y-120060118D01*
X117213132Y-120037945D01*
X117208312Y-120015074D01*
X117204191Y-119991528D01*
X117197979Y-119942486D01*
X117194355Y-119890980D01*
X117193178Y-119837172D01*
X117193734Y-119804333D01*
X117195435Y-119772583D01*
X117198328Y-119741911D01*
X117202463Y-119712307D01*
X117207888Y-119683760D01*
X117214651Y-119656261D01*
X117222801Y-119629799D01*
X117232386Y-119604364D01*
X117243455Y-119579945D01*
X117256056Y-119556531D01*
X117270237Y-119534113D01*
X117286047Y-119512681D01*
X117303535Y-119492223D01*
X117322748Y-119472729D01*
X117343736Y-119454189D01*
X117366547Y-119436593D01*
X117509422Y-119623984D01*
X117503183Y-119627984D01*
X117497200Y-119632090D01*
X117491470Y-119636310D01*
X117485988Y-119640653D01*
X117480750Y-119645129D01*
X117475754Y-119649746D01*
X117470995Y-119654514D01*
X117466470Y-119659441D01*
X117462174Y-119664536D01*
X117458103Y-119669809D01*
X117454255Y-119675268D01*
X117450624Y-119680923D01*
X117447208Y-119686782D01*
X117444003Y-119692854D01*
X117441004Y-119699149D01*
X117438208Y-119705675D01*
X117435611Y-119712441D01*
X117433209Y-119719456D01*
X117430998Y-119726730D01*
X117428975Y-119734271D01*
X117427136Y-119742088D01*
X117425477Y-119750191D01*
X117423994Y-119758588D01*
X117422683Y-119767287D01*
X117420563Y-119785633D01*
X117419087Y-119805299D01*
X117418223Y-119826357D01*
X117417942Y-119848880D01*
X117418418Y-119879794D01*
X117419878Y-119908440D01*
X117422370Y-119934856D01*
X117425941Y-119959080D01*
X117430638Y-119981150D01*
X117436510Y-120001102D01*
X117443603Y-120018976D01*
X117447623Y-120027145D01*
X117451966Y-120034808D01*
X117456639Y-120041970D01*
X117461646Y-120048636D01*
X117466995Y-120054811D01*
X117472691Y-120060499D01*
X117478739Y-120065704D01*
X117485147Y-120070432D01*
X117491920Y-120074688D01*
X117499063Y-120078476D01*
X117506584Y-120081800D01*
X117514487Y-120084666D01*
X117522779Y-120087078D01*
X117531465Y-120089041D01*
X117540552Y-120090559D01*
X117550046Y-120091638D01*
X117570276Y-120092496D01*
X117694431Y-120092496D01*
X117694431Y-119806745D01*
X117891149Y-119806745D01*
X117891149Y-120092496D01*
X117977865Y-120092496D01*
X117994746Y-120092295D01*
X118010691Y-120091684D01*
X118025727Y-120090652D01*
X118039881Y-120089188D01*
X118053177Y-120087279D01*
X118065643Y-120084914D01*
X118077304Y-120082082D01*
X118088187Y-120078770D01*
X118098319Y-120074968D01*
X118107724Y-120070664D01*
X118116430Y-120065846D01*
X118124463Y-120060502D01*
X118131848Y-120054622D01*
X118138612Y-120048192D01*
X118144782Y-120041203D01*
X118150383Y-120033642D01*
X118155441Y-120025498D01*
X118159983Y-120016759D01*
X118164035Y-120007413D01*
X118167624Y-119997450D01*
X118170775Y-119986856D01*
X118173514Y-119975622D01*
X118175868Y-119963735D01*
X118177863Y-119951183D01*
X118180881Y-119924041D01*
X118182777Y-119894102D01*
X118183761Y-119861274D01*
X118184043Y-119825465D01*
X118183234Y-119796298D01*
X118180866Y-119769384D01*
X118177030Y-119744674D01*
X118171813Y-119722114D01*
X118168715Y-119711625D01*
X118165306Y-119701654D01*
X118161597Y-119692196D01*
X118157599Y-119683243D01*
X118153323Y-119674790D01*
X118148780Y-119666829D01*
X118143982Y-119659355D01*
X118138940Y-119652361D01*
X118133664Y-119645841D01*
X118128166Y-119639787D01*
X118122458Y-119634195D01*
X118116550Y-119629057D01*
X118110454Y-119624367D01*
X118104180Y-119620118D01*
X118097740Y-119616305D01*
X118091146Y-119612920D01*
X118077537Y-119607410D01*
X118063443Y-119603539D01*
X118048952Y-119601253D01*
X118034156Y-119600503D01*
X118026116Y-119600695D01*
X118018259Y-119601274D01*
X118010590Y-119602241D01*
X118003114Y-119603597D01*
X117995834Y-119605345D01*
X117988757Y-119607485D01*
X117981886Y-119610021D01*
X117975227Y-119612953D01*
X117968784Y-119616283D01*
X117962562Y-119620013D01*
X117956565Y-119624145D01*
X117950799Y-119628680D01*
X117945268Y-119633620D01*
X117939977Y-119638968D01*
X117934930Y-119644723D01*
X117930133Y-119650889D01*
X117925590Y-119657467D01*
X117921305Y-119664459D01*
X117917285Y-119671866D01*
X117913532Y-119679690D01*
X117910052Y-119687934D01*
X117906850Y-119696597D01*
X117903931Y-119705683D01*
X117901299Y-119715193D01*
X117898959Y-119725129D01*
X117896915Y-119735493D01*
X117895173Y-119746285D01*
X117893737Y-119757508D01*
X117892611Y-119769164D01*
X117891802Y-119781255D01*
X117891313Y-119793781D01*
X117891149Y-119806745D01*
X117694431Y-119806745D01*
X117694431Y-119762163D01*
X117694901Y-119738591D01*
X117696294Y-119715747D01*
X117698585Y-119693633D01*
X117701751Y-119672251D01*
X117705766Y-119651601D01*
X117710607Y-119631685D01*
X117716248Y-119612504D01*
X117722665Y-119594060D01*
X117729834Y-119576353D01*
X117737731Y-119559386D01*
X117746330Y-119543159D01*
X117755607Y-119527673D01*
X117765538Y-119512930D01*
X117776098Y-119498932D01*
X117787263Y-119485678D01*
X117799008Y-119473172D01*
X117811309Y-119461414D01*
X117824141Y-119450405D01*
X117837481Y-119440146D01*
X117851302Y-119430640D01*
X117865581Y-119421886D01*
X117880294Y-119413887D01*
X117895415Y-119406644D01*
X117910921Y-119400157D01*
X117926787Y-119394429D01*
X117942988Y-119389461D01*
X117959500Y-119385253D01*
X117976298Y-119381808D01*
X117993358Y-119379126D01*
X118010656Y-119377209D01*
X118028166Y-119376057D01*
X118034156Y-119375927D01*
X118045865Y-119375673D01*
X118065047Y-119376125D01*
G37*
G36*
X118065047Y-124177452D02*
G01*
X118083920Y-124178801D01*
X118102466Y-124181041D01*
X118120664Y-124184162D01*
X118138495Y-124188157D01*
X118155939Y-124193017D01*
X118172976Y-124198734D01*
X118189587Y-124205300D01*
X118205751Y-124212707D01*
X118221450Y-124220947D01*
X118236662Y-124230011D01*
X118251370Y-124239891D01*
X118265552Y-124250580D01*
X118279190Y-124262069D01*
X118292263Y-124274349D01*
X118304751Y-124287414D01*
X118316636Y-124301254D01*
X118327897Y-124315861D01*
X118338514Y-124331227D01*
X118348468Y-124347345D01*
X118357740Y-124364205D01*
X118366308Y-124381800D01*
X118374154Y-124400122D01*
X118381258Y-124419162D01*
X118387600Y-124438912D01*
X118393161Y-124459365D01*
X118397920Y-124480511D01*
X118401858Y-124502343D01*
X118404955Y-124524852D01*
X118407192Y-124548031D01*
X118408549Y-124571872D01*
X118409005Y-124596365D01*
X118408565Y-124625743D01*
X118407236Y-124653327D01*
X118405009Y-124679183D01*
X118401873Y-124703382D01*
X118397817Y-124725989D01*
X118392831Y-124747075D01*
X118386904Y-124766708D01*
X118380025Y-124784955D01*
X118372185Y-124801885D01*
X118363372Y-124817566D01*
X118353576Y-124832067D01*
X118342786Y-124845457D01*
X118330992Y-124857802D01*
X118318184Y-124869172D01*
X118304349Y-124879635D01*
X118289479Y-124889259D01*
X118289479Y-124893889D01*
X118394916Y-124893889D01*
X118394916Y-124893955D01*
X118394916Y-125132940D01*
X117584365Y-125132940D01*
X117557485Y-125132353D01*
X117531726Y-125130605D01*
X117507071Y-125127716D01*
X117483502Y-125123708D01*
X117461001Y-125118599D01*
X117439551Y-125112410D01*
X117419134Y-125105162D01*
X117399733Y-125096874D01*
X117381331Y-125087566D01*
X117363909Y-125077260D01*
X117347450Y-125065975D01*
X117331936Y-125053731D01*
X117317351Y-125040548D01*
X117303676Y-125026447D01*
X117290893Y-125011448D01*
X117278986Y-124995571D01*
X117267937Y-124978837D01*
X117257728Y-124961265D01*
X117248341Y-124942875D01*
X117239759Y-124923689D01*
X117231965Y-124903726D01*
X117224941Y-124883006D01*
X117218669Y-124861549D01*
X117213132Y-124839376D01*
X117208312Y-124816507D01*
X117204191Y-124792963D01*
X117197979Y-124743926D01*
X117194355Y-124692429D01*
X117193178Y-124638632D01*
X117193734Y-124605803D01*
X117195435Y-124574058D01*
X117198328Y-124543388D01*
X117202463Y-124513783D01*
X117207888Y-124485234D01*
X117214651Y-124457729D01*
X117222801Y-124431259D01*
X117232386Y-124405815D01*
X117243455Y-124381386D01*
X117256056Y-124357963D01*
X117270237Y-124335535D01*
X117286047Y-124314093D01*
X117303535Y-124293628D01*
X117322748Y-124274128D01*
X117343736Y-124255584D01*
X117366547Y-124237987D01*
X117509422Y-124425444D01*
X117503183Y-124429443D01*
X117497200Y-124433548D01*
X117491470Y-124437766D01*
X117485988Y-124442107D01*
X117480750Y-124446580D01*
X117475754Y-124451193D01*
X117470995Y-124455957D01*
X117466470Y-124460879D01*
X117462174Y-124465970D01*
X117458103Y-124471238D01*
X117454255Y-124476692D01*
X117450624Y-124482340D01*
X117447208Y-124488194D01*
X117444003Y-124494260D01*
X117441004Y-124500548D01*
X117438208Y-124507068D01*
X117435611Y-124513828D01*
X117433209Y-124520837D01*
X117430998Y-124528105D01*
X117428975Y-124535640D01*
X117427136Y-124543452D01*
X117425477Y-124551549D01*
X117423994Y-124559940D01*
X117422683Y-124568635D01*
X117420563Y-124586972D01*
X117419087Y-124606632D01*
X117418223Y-124627686D01*
X117417942Y-124650208D01*
X117418418Y-124681133D01*
X117419878Y-124709789D01*
X117422370Y-124736214D01*
X117425941Y-124760446D01*
X117430638Y-124782522D01*
X117436510Y-124802480D01*
X117443603Y-124820358D01*
X117447623Y-124828528D01*
X117451966Y-124836193D01*
X117456639Y-124843357D01*
X117461646Y-124850024D01*
X117466995Y-124856200D01*
X117472691Y-124861888D01*
X117478739Y-124867095D01*
X117485147Y-124871824D01*
X117491920Y-124876080D01*
X117499063Y-124879868D01*
X117506584Y-124883193D01*
X117514487Y-124886059D01*
X117522779Y-124888471D01*
X117531465Y-124890434D01*
X117540552Y-124891953D01*
X117550046Y-124893031D01*
X117570276Y-124893889D01*
X117694431Y-124893889D01*
X117694431Y-124608204D01*
X117891149Y-124608204D01*
X117891149Y-124893954D01*
X117977865Y-124893954D01*
X117977865Y-124893955D01*
X117994746Y-124893754D01*
X118010691Y-124893144D01*
X118025727Y-124892112D01*
X118039881Y-124890647D01*
X118053177Y-124888738D01*
X118065643Y-124886374D01*
X118077304Y-124883541D01*
X118088187Y-124880230D01*
X118098319Y-124876428D01*
X118107724Y-124872123D01*
X118116430Y-124867305D01*
X118124463Y-124861962D01*
X118131848Y-124856081D01*
X118138612Y-124849652D01*
X118144782Y-124842663D01*
X118150383Y-124835102D01*
X118155441Y-124826957D01*
X118159983Y-124818218D01*
X118164035Y-124808873D01*
X118167624Y-124798909D01*
X118170775Y-124788316D01*
X118173514Y-124777081D01*
X118175868Y-124765194D01*
X118177863Y-124752642D01*
X118180881Y-124725500D01*
X118182777Y-124695561D01*
X118183761Y-124662733D01*
X118184043Y-124626924D01*
X118183234Y-124597768D01*
X118180866Y-124570865D01*
X118177030Y-124546163D01*
X118171813Y-124523611D01*
X118168715Y-124513126D01*
X118165306Y-124503158D01*
X118161597Y-124493702D01*
X118157599Y-124484752D01*
X118153323Y-124476301D01*
X118148780Y-124468343D01*
X118143982Y-124460870D01*
X118138940Y-124453878D01*
X118133664Y-124447359D01*
X118128166Y-124441307D01*
X118122458Y-124435716D01*
X118116550Y-124430579D01*
X118110454Y-124425889D01*
X118104180Y-124421641D01*
X118097740Y-124417828D01*
X118091146Y-124414444D01*
X118077537Y-124408935D01*
X118063443Y-124405064D01*
X118048952Y-124402778D01*
X118034156Y-124402028D01*
X118026116Y-124402220D01*
X118018259Y-124402799D01*
X118010590Y-124403766D01*
X118003114Y-124405122D01*
X117995834Y-124406869D01*
X117988757Y-124409010D01*
X117981886Y-124411545D01*
X117975227Y-124414477D01*
X117968784Y-124417807D01*
X117962562Y-124421536D01*
X117956565Y-124425667D01*
X117950799Y-124430202D01*
X117945268Y-124435141D01*
X117939977Y-124440487D01*
X117934930Y-124446242D01*
X117930133Y-124452406D01*
X117925590Y-124458983D01*
X117921305Y-124465972D01*
X117917285Y-124473377D01*
X117913532Y-124481199D01*
X117910052Y-124489440D01*
X117906850Y-124498101D01*
X117903931Y-124507184D01*
X117901299Y-124516691D01*
X117898959Y-124526623D01*
X117896915Y-124536982D01*
X117895173Y-124547770D01*
X117893737Y-124558989D01*
X117892611Y-124570640D01*
X117891802Y-124582725D01*
X117891313Y-124595246D01*
X117891149Y-124608204D01*
X117694431Y-124608204D01*
X117694431Y-124563556D01*
X117694901Y-124539989D01*
X117696294Y-124517150D01*
X117698585Y-124495040D01*
X117701751Y-124473660D01*
X117705766Y-124453011D01*
X117710607Y-124433096D01*
X117716248Y-124413915D01*
X117722665Y-124395470D01*
X117729834Y-124377762D01*
X117737731Y-124360793D01*
X117746330Y-124344563D01*
X117755607Y-124329074D01*
X117765538Y-124314328D01*
X117776098Y-124300325D01*
X117787263Y-124287068D01*
X117799008Y-124274557D01*
X117811309Y-124262794D01*
X117824141Y-124251780D01*
X117837481Y-124241516D01*
X117851302Y-124232005D01*
X117865581Y-124223246D01*
X117880294Y-124215242D01*
X117895415Y-124207995D01*
X117910921Y-124201504D01*
X117926787Y-124195772D01*
X117942988Y-124190799D01*
X117959500Y-124186589D01*
X117976298Y-124183140D01*
X117993358Y-124180456D01*
X118010656Y-124178537D01*
X118028166Y-124177384D01*
X118034156Y-124177254D01*
X118045865Y-124177000D01*
X118065047Y-124177452D01*
G37*
G36*
X115970453Y-123297970D02*
G01*
X116013439Y-123299319D01*
X116053166Y-123301595D01*
X116089872Y-123304823D01*
X116123793Y-123309027D01*
X116155165Y-123314231D01*
X116184225Y-123320457D01*
X116211210Y-123327730D01*
X116236357Y-123336073D01*
X116259901Y-123345510D01*
X116282080Y-123356066D01*
X116303130Y-123367763D01*
X116323288Y-123380626D01*
X116342791Y-123394677D01*
X116361874Y-123409942D01*
X116380775Y-123426443D01*
X116394453Y-123439275D01*
X116408168Y-123453193D01*
X116421791Y-123468242D01*
X116435197Y-123484467D01*
X116448258Y-123501912D01*
X116460849Y-123520623D01*
X116472843Y-123540643D01*
X116484111Y-123562018D01*
X116489434Y-123573227D01*
X116494529Y-123584792D01*
X116499379Y-123596717D01*
X116503969Y-123609009D01*
X116508282Y-123621674D01*
X116512304Y-123634715D01*
X116516018Y-123648141D01*
X116519408Y-123661955D01*
X116522459Y-123676163D01*
X116525154Y-123690772D01*
X116527478Y-123705786D01*
X116529415Y-123721212D01*
X116530949Y-123737054D01*
X116532065Y-123753318D01*
X116532746Y-123770011D01*
X116532976Y-123787137D01*
X116532065Y-123820979D01*
X116529415Y-123853106D01*
X116525154Y-123883563D01*
X116519408Y-123912396D01*
X116512304Y-123939648D01*
X116503969Y-123965365D01*
X116494529Y-123989591D01*
X116484111Y-124012372D01*
X116472842Y-124033752D01*
X116460849Y-124053777D01*
X116448258Y-124072490D01*
X116435196Y-124089937D01*
X116421791Y-124106163D01*
X116408167Y-124121213D01*
X116394453Y-124135131D01*
X116380775Y-124147963D01*
X116361874Y-124164463D01*
X116342788Y-124179723D01*
X116323283Y-124193768D01*
X116303122Y-124206623D01*
X116282067Y-124218310D01*
X116259884Y-124228854D01*
X116236336Y-124238280D01*
X116211186Y-124246611D01*
X116184198Y-124253871D01*
X116155136Y-124260086D01*
X116123764Y-124265277D01*
X116089844Y-124269471D01*
X116053142Y-124272691D01*
X116013420Y-124274961D01*
X115970442Y-124276306D01*
X115923972Y-124276749D01*
X115877888Y-124276306D01*
X115835250Y-124274961D01*
X115795826Y-124272691D01*
X115759382Y-124269471D01*
X115725684Y-124265277D01*
X115694499Y-124260086D01*
X115665594Y-124253871D01*
X115638734Y-124246611D01*
X115613687Y-124238280D01*
X115590218Y-124228854D01*
X115568095Y-124218310D01*
X115547083Y-124206623D01*
X115526949Y-124193768D01*
X115507461Y-124179723D01*
X115488383Y-124164463D01*
X115469483Y-124147963D01*
X115455804Y-124135131D01*
X115442086Y-124121213D01*
X115428456Y-124106164D01*
X115415041Y-124089937D01*
X115401970Y-124072490D01*
X115389368Y-124053777D01*
X115377362Y-124033752D01*
X115366081Y-124012372D01*
X115360752Y-124001160D01*
X115355651Y-123989591D01*
X115350795Y-123977661D01*
X115346199Y-123965365D01*
X115341880Y-123952695D01*
X115337853Y-123939648D01*
X115334134Y-123926216D01*
X115330739Y-123912396D01*
X115327684Y-123898180D01*
X115324984Y-123883563D01*
X115322657Y-123868541D01*
X115320717Y-123853106D01*
X115319180Y-123837254D01*
X115318063Y-123820979D01*
X115317381Y-123804275D01*
X115317150Y-123787137D01*
X115317150Y-123787136D01*
X115556134Y-123787136D01*
X115556567Y-123802424D01*
X115557839Y-123817498D01*
X115559914Y-123832311D01*
X115562754Y-123846813D01*
X115566321Y-123860958D01*
X115570579Y-123874697D01*
X115575489Y-123887983D01*
X115581013Y-123900767D01*
X115587116Y-123913001D01*
X115593758Y-123924638D01*
X115600903Y-123935629D01*
X115608513Y-123945927D01*
X115616550Y-123955483D01*
X115624977Y-123964250D01*
X115633757Y-123972180D01*
X115642852Y-123979224D01*
X115654540Y-123987228D01*
X115666056Y-123994539D01*
X115677609Y-124001181D01*
X115689408Y-124007179D01*
X115701662Y-124012556D01*
X115714580Y-124017338D01*
X115728372Y-124021549D01*
X115743245Y-124025212D01*
X115759410Y-124028353D01*
X115777075Y-124030996D01*
X115796451Y-124033166D01*
X115817744Y-124034886D01*
X115841166Y-124036182D01*
X115866924Y-124037077D01*
X115895228Y-124037596D01*
X115926288Y-124037763D01*
X115984882Y-124037077D01*
X116010325Y-124036182D01*
X116033474Y-124034886D01*
X116054535Y-124033166D01*
X116073714Y-124030996D01*
X116091219Y-124028353D01*
X116107254Y-124025212D01*
X116122026Y-124021549D01*
X116135743Y-124017338D01*
X116148609Y-124012556D01*
X116160831Y-124007179D01*
X116172616Y-124001181D01*
X116184169Y-123994539D01*
X116195697Y-123987228D01*
X116207407Y-123979224D01*
X116211986Y-123975816D01*
X116216491Y-123972180D01*
X116225263Y-123964250D01*
X116233684Y-123955483D01*
X116241718Y-123945927D01*
X116249327Y-123935629D01*
X116256472Y-123924638D01*
X116263115Y-123913001D01*
X116269220Y-123900767D01*
X116274749Y-123887983D01*
X116279663Y-123874697D01*
X116283924Y-123860958D01*
X116287495Y-123846813D01*
X116290339Y-123832311D01*
X116292417Y-123817498D01*
X116293691Y-123802424D01*
X116294125Y-123787136D01*
X116293692Y-123771870D01*
X116292420Y-123756813D01*
X116290345Y-123742012D01*
X116287505Y-123727517D01*
X116283938Y-123713377D01*
X116279680Y-123699641D01*
X116274770Y-123686356D01*
X116269246Y-123673573D01*
X116263143Y-123661338D01*
X116256501Y-123649703D01*
X116249356Y-123638714D01*
X116241746Y-123628421D01*
X116233709Y-123618872D01*
X116225282Y-123610117D01*
X116216502Y-123602204D01*
X116207407Y-123595181D01*
X116195697Y-123587175D01*
X116184164Y-123579860D01*
X116172600Y-123573212D01*
X116160795Y-123567206D01*
X116148538Y-123561818D01*
X116135621Y-123557025D01*
X116121833Y-123552803D01*
X116106964Y-123549127D01*
X116090807Y-123545974D01*
X116073149Y-123543319D01*
X116053782Y-123541138D01*
X116032497Y-123539408D01*
X116009083Y-123538104D01*
X115983330Y-123537202D01*
X115955030Y-123536679D01*
X115923972Y-123536510D01*
X115865373Y-123537202D01*
X115839924Y-123538104D01*
X115816767Y-123539408D01*
X115795698Y-123541138D01*
X115776510Y-123543319D01*
X115758998Y-123545974D01*
X115742956Y-123549127D01*
X115728178Y-123552803D01*
X115714458Y-123557025D01*
X115701592Y-123561818D01*
X115689372Y-123567206D01*
X115677594Y-123573212D01*
X115666052Y-123579860D01*
X115654540Y-123587175D01*
X115642852Y-123595181D01*
X115638273Y-123598578D01*
X115633768Y-123602204D01*
X115624996Y-123610117D01*
X115616575Y-123618872D01*
X115608541Y-123628421D01*
X115600932Y-123638714D01*
X115593787Y-123649703D01*
X115587143Y-123661338D01*
X115581038Y-123673573D01*
X115575510Y-123686356D01*
X115570596Y-123699641D01*
X115566335Y-123713377D01*
X115562763Y-123727517D01*
X115559920Y-123742012D01*
X115557842Y-123756813D01*
X115556567Y-123771870D01*
X115556134Y-123787136D01*
X115317150Y-123787136D01*
X115318063Y-123753318D01*
X115320717Y-123721212D01*
X115324985Y-123690772D01*
X115330739Y-123661955D01*
X115337853Y-123634716D01*
X115346200Y-123609010D01*
X115355651Y-123584792D01*
X115366082Y-123562018D01*
X115377363Y-123540643D01*
X115389368Y-123520623D01*
X115401970Y-123501912D01*
X115415042Y-123484467D01*
X115428456Y-123468242D01*
X115442086Y-123453193D01*
X115455804Y-123439275D01*
X115469483Y-123426443D01*
X115488394Y-123409942D01*
X115507480Y-123394677D01*
X115526974Y-123380626D01*
X115547111Y-123367763D01*
X115568124Y-123356066D01*
X115590247Y-123345510D01*
X115613714Y-123336073D01*
X115638759Y-123327730D01*
X115665615Y-123320457D01*
X115694517Y-123314231D01*
X115725698Y-123309027D01*
X115759391Y-123304823D01*
X115795832Y-123301595D01*
X115835253Y-123299319D01*
X115877888Y-123297970D01*
X115923972Y-123297526D01*
X115970453Y-123297970D01*
G37*
G36*
X111424468Y-118344856D02*
G01*
X111426995Y-118344919D01*
X111429514Y-118345106D01*
X111432022Y-118345415D01*
X111434513Y-118345840D01*
X111436986Y-118346381D01*
X111439435Y-118347033D01*
X111441857Y-118347794D01*
X111444248Y-118348661D01*
X111448923Y-118350698D01*
X111453430Y-118353120D01*
X111457737Y-118355902D01*
X111461815Y-118359020D01*
X111465634Y-118362448D01*
X111469162Y-118366163D01*
X111472370Y-118370139D01*
X111473844Y-118372218D01*
X111475227Y-118374352D01*
X111476515Y-118376540D01*
X111477704Y-118378777D01*
X111478790Y-118381061D01*
X111479769Y-118383389D01*
X111480638Y-118385758D01*
X111481392Y-118388164D01*
X111482029Y-118390605D01*
X111482544Y-118393077D01*
X111679923Y-119453725D01*
X111680435Y-119456216D01*
X111681062Y-119458715D01*
X111682650Y-119463715D01*
X111684657Y-119468694D01*
X111687054Y-119473619D01*
X111689813Y-119478458D01*
X111692904Y-119483178D01*
X111696297Y-119487746D01*
X111699965Y-119492131D01*
X111703878Y-119496299D01*
X111708007Y-119500219D01*
X111712322Y-119503858D01*
X111716795Y-119507182D01*
X111721397Y-119510161D01*
X111726098Y-119512761D01*
X111730870Y-119514950D01*
X111733274Y-119515880D01*
X111735684Y-119516696D01*
X112562838Y-119847822D01*
X112567542Y-119849871D01*
X112572525Y-119851581D01*
X112577743Y-119852954D01*
X112583151Y-119853993D01*
X112588709Y-119854702D01*
X112594372Y-119855083D01*
X112600096Y-119855140D01*
X112605840Y-119854875D01*
X112611560Y-119854291D01*
X112617213Y-119853392D01*
X112622756Y-119852180D01*
X112628145Y-119850659D01*
X112633338Y-119848831D01*
X112638291Y-119846700D01*
X112642961Y-119844268D01*
X112647305Y-119841538D01*
X113525259Y-119239082D01*
X113527376Y-119237709D01*
X113529557Y-119236444D01*
X113531795Y-119235284D01*
X113534088Y-119234231D01*
X113536429Y-119233284D01*
X113538815Y-119232441D01*
X113543699Y-119231070D01*
X113548701Y-119230114D01*
X113553782Y-119229571D01*
X113558905Y-119229436D01*
X113564029Y-119229706D01*
X113569117Y-119230377D01*
X113574131Y-119231447D01*
X113579030Y-119232911D01*
X113583777Y-119234766D01*
X113588333Y-119237009D01*
X113590527Y-119238274D01*
X113592659Y-119239635D01*
X113594724Y-119241092D01*
X113596717Y-119242643D01*
X113598633Y-119244288D01*
X113600467Y-119246027D01*
X114391770Y-120037462D01*
X114393503Y-120039290D01*
X114395143Y-120041200D01*
X114396689Y-120043187D01*
X114398140Y-120045246D01*
X114399497Y-120047372D01*
X114400758Y-120049560D01*
X114401924Y-120051806D01*
X114402994Y-120054105D01*
X114403967Y-120056452D01*
X114404844Y-120058841D01*
X114406304Y-120063731D01*
X114407371Y-120068736D01*
X114408042Y-120073817D01*
X114408312Y-120078937D01*
X114408180Y-120084055D01*
X114407640Y-120089135D01*
X114407216Y-120091649D01*
X114406690Y-120094138D01*
X114406060Y-120096598D01*
X114405326Y-120099024D01*
X114404488Y-120101412D01*
X114403544Y-120103756D01*
X114402496Y-120106053D01*
X114401342Y-120108296D01*
X114400082Y-120110481D01*
X114398715Y-120112604D01*
X113806777Y-120975013D01*
X113804088Y-120979349D01*
X113801730Y-120983995D01*
X113799703Y-120988907D01*
X113798007Y-120994044D01*
X113796644Y-120999362D01*
X113795615Y-121004820D01*
X113794922Y-121010374D01*
X113794564Y-121015982D01*
X113794544Y-121021602D01*
X113794862Y-121027192D01*
X113795519Y-121032707D01*
X113796517Y-121038107D01*
X113797856Y-121043348D01*
X113799537Y-121048388D01*
X113801562Y-121053185D01*
X113803932Y-121057695D01*
X114007000Y-121438034D01*
X114008087Y-121440302D01*
X114009043Y-121442590D01*
X114009869Y-121444894D01*
X114010566Y-121447209D01*
X114011136Y-121449532D01*
X114011581Y-121451859D01*
X114011902Y-121454185D01*
X114012100Y-121456507D01*
X114012178Y-121458821D01*
X114012135Y-121461122D01*
X114011975Y-121463407D01*
X114011698Y-121465672D01*
X114011307Y-121467912D01*
X114010801Y-121470124D01*
X114010184Y-121472304D01*
X114009456Y-121474447D01*
X114008618Y-121476550D01*
X114007674Y-121478609D01*
X114006623Y-121480620D01*
X114005467Y-121482578D01*
X114004208Y-121484480D01*
X114002848Y-121486321D01*
X114001387Y-121488099D01*
X113999828Y-121489808D01*
X113998172Y-121491444D01*
X113996420Y-121493005D01*
X113994574Y-121494485D01*
X113992635Y-121495881D01*
X113990604Y-121497189D01*
X113988484Y-121498404D01*
X113986276Y-121499523D01*
X113983981Y-121500542D01*
X112089101Y-122284767D01*
X112086744Y-122285679D01*
X112084351Y-122286472D01*
X112081926Y-122287146D01*
X112079475Y-122287703D01*
X112077002Y-122288144D01*
X112074511Y-122288471D01*
X112069493Y-122288788D01*
X112064458Y-122288666D01*
X112059442Y-122288116D01*
X112054482Y-122287151D01*
X112049612Y-122285783D01*
X112044869Y-122284024D01*
X112040290Y-122281885D01*
X112035910Y-122279378D01*
X112031765Y-122276516D01*
X112027891Y-122273310D01*
X112026067Y-122271581D01*
X112024325Y-122269772D01*
X112022668Y-122267882D01*
X112021102Y-122265914D01*
X112019631Y-122263868D01*
X112018259Y-122261748D01*
X111959984Y-122166564D01*
X111955621Y-122159694D01*
X111950641Y-122152368D01*
X111945153Y-122144722D01*
X111939264Y-122136889D01*
X111933084Y-122129003D01*
X111926721Y-122121199D01*
X111920284Y-122113610D01*
X111913881Y-122106371D01*
X111870752Y-122043372D01*
X111823924Y-121983246D01*
X111773561Y-121926157D01*
X111719826Y-121872269D01*
X111662881Y-121821748D01*
X111602891Y-121774757D01*
X111540017Y-121731461D01*
X111474425Y-121692025D01*
X111406275Y-121656612D01*
X111371293Y-121640466D01*
X111335733Y-121625388D01*
X111299615Y-121611397D01*
X111262960Y-121598516D01*
X111225789Y-121586764D01*
X111188121Y-121576161D01*
X111149977Y-121566729D01*
X111111377Y-121558488D01*
X111072343Y-121551458D01*
X111032893Y-121545661D01*
X110993050Y-121541116D01*
X110952832Y-121537844D01*
X110912261Y-121535865D01*
X110871356Y-121535201D01*
X110807666Y-121536812D01*
X110744811Y-121541592D01*
X110682871Y-121549463D01*
X110621922Y-121560348D01*
X110562043Y-121574169D01*
X110503311Y-121590848D01*
X110445804Y-121610308D01*
X110389600Y-121632470D01*
X110334776Y-121657257D01*
X110281411Y-121684590D01*
X110229582Y-121714393D01*
X110179366Y-121746587D01*
X110130842Y-121781095D01*
X110084088Y-121817839D01*
X110039180Y-121856740D01*
X109996197Y-121897722D01*
X109955217Y-121940706D01*
X109916318Y-121985615D01*
X109879576Y-122032370D01*
X109845070Y-122080895D01*
X109812878Y-122131111D01*
X109783077Y-122182940D01*
X109755746Y-122236305D01*
X109730961Y-122291127D01*
X109708801Y-122347330D01*
X109689343Y-122404835D01*
X109672666Y-122463565D01*
X109658846Y-122523441D01*
X109647962Y-122584386D01*
X109640092Y-122646322D01*
X109635312Y-122709171D01*
X109633702Y-122772856D01*
X109635312Y-122836541D01*
X109640092Y-122899390D01*
X109647962Y-122961325D01*
X109658846Y-123022269D01*
X109672666Y-123082143D01*
X109689343Y-123140871D01*
X109708801Y-123198374D01*
X109730961Y-123254574D01*
X109755746Y-123309395D01*
X109783077Y-123362757D01*
X109812878Y-123414583D01*
X109845070Y-123464796D01*
X109879576Y-123513318D01*
X109916318Y-123560070D01*
X109955217Y-123604976D01*
X109996197Y-123647957D01*
X110039180Y-123688936D01*
X110084088Y-123727834D01*
X110130842Y-123764575D01*
X110179366Y-123799079D01*
X110229582Y-123831271D01*
X110281411Y-123861071D01*
X110334776Y-123888402D01*
X110389600Y-123913186D01*
X110445804Y-123935346D01*
X110503311Y-123954804D01*
X110562043Y-123971481D01*
X110621922Y-123985300D01*
X110682871Y-123996184D01*
X110744811Y-124004055D01*
X110807666Y-124008834D01*
X110871356Y-124010444D01*
X110952832Y-124007803D01*
X111032893Y-123999988D01*
X111111377Y-123987164D01*
X111188121Y-123969494D01*
X111262960Y-123947143D01*
X111335733Y-123920276D01*
X111406275Y-123889055D01*
X111474424Y-123853646D01*
X111540017Y-123814212D01*
X111602890Y-123770918D01*
X111662881Y-123723927D01*
X111719825Y-123673404D01*
X111773561Y-123619514D01*
X111823924Y-123562419D01*
X111870752Y-123502285D01*
X111913881Y-123439275D01*
X111920284Y-123432077D01*
X111926721Y-123424514D01*
X111933084Y-123416725D01*
X111939264Y-123408848D01*
X111945153Y-123401020D01*
X111950641Y-123393380D01*
X111955621Y-123386066D01*
X111959984Y-123379215D01*
X112018259Y-123284031D01*
X112019631Y-123281922D01*
X112021102Y-123279887D01*
X112022668Y-123277929D01*
X112024325Y-123276047D01*
X112026067Y-123274245D01*
X112027891Y-123272524D01*
X112029792Y-123270884D01*
X112031765Y-123269328D01*
X112033806Y-123267857D01*
X112035910Y-123266472D01*
X112038073Y-123265176D01*
X112040290Y-123263969D01*
X112042557Y-123262854D01*
X112044869Y-123261831D01*
X112047222Y-123260902D01*
X112049612Y-123260069D01*
X112052033Y-123259334D01*
X112054482Y-123258697D01*
X112056953Y-123258161D01*
X112059442Y-123257726D01*
X112061946Y-123257395D01*
X112064458Y-123257169D01*
X112066975Y-123257049D01*
X112069493Y-123257037D01*
X112072006Y-123257135D01*
X112074511Y-123257343D01*
X112077002Y-123257664D01*
X112079475Y-123258100D01*
X112081926Y-123258651D01*
X112084351Y-123259319D01*
X112086744Y-123260105D01*
X112089101Y-123261012D01*
X113984047Y-124045171D01*
X113986342Y-124046190D01*
X113988549Y-124047308D01*
X113990668Y-124048523D01*
X113992697Y-124049829D01*
X113994635Y-124051224D01*
X113996480Y-124052702D01*
X113998230Y-124054261D01*
X113999885Y-124055896D01*
X114001442Y-124057603D01*
X114002900Y-124059378D01*
X114004259Y-124061218D01*
X114005515Y-124063118D01*
X114006669Y-124065074D01*
X114007718Y-124067082D01*
X114008661Y-124069139D01*
X114009496Y-124071241D01*
X114010223Y-124073383D01*
X114010839Y-124075561D01*
X114011344Y-124077772D01*
X114011735Y-124080012D01*
X114012011Y-124082276D01*
X114012172Y-124084561D01*
X114012214Y-124086863D01*
X114012138Y-124089178D01*
X114011941Y-124091501D01*
X114011622Y-124093829D01*
X114011180Y-124096158D01*
X114010612Y-124098484D01*
X114009919Y-124100803D01*
X114009097Y-124103111D01*
X114008147Y-124105405D01*
X114007065Y-124107679D01*
X113803998Y-124488017D01*
X113801627Y-124492539D01*
X113799600Y-124497343D01*
X113797916Y-124502389D01*
X113796573Y-124507634D01*
X113795571Y-124513035D01*
X113794910Y-124518550D01*
X113794588Y-124524138D01*
X113794605Y-124529755D01*
X113794960Y-124535360D01*
X113795652Y-124540911D01*
X113796680Y-124546364D01*
X113798044Y-124551678D01*
X113799743Y-124556811D01*
X113801777Y-124561721D01*
X113804143Y-124566364D01*
X113806842Y-124570700D01*
X114398781Y-125433175D01*
X114400147Y-125435292D01*
X114401408Y-125437472D01*
X114402562Y-125439711D01*
X114403610Y-125442004D01*
X114404553Y-125444345D01*
X114405391Y-125446730D01*
X114406755Y-125451612D01*
X114407706Y-125456612D01*
X114408245Y-125461691D01*
X114408378Y-125466809D01*
X114408107Y-125471928D01*
X114407437Y-125477009D01*
X114406369Y-125482014D01*
X114404909Y-125486902D01*
X114403060Y-125491637D01*
X114400824Y-125496177D01*
X114399562Y-125498363D01*
X114398206Y-125500486D01*
X114396754Y-125502541D01*
X114395208Y-125504523D01*
X114393568Y-125506428D01*
X114391835Y-125508251D01*
X113600533Y-126299686D01*
X113598698Y-126301431D01*
X113596782Y-126303082D01*
X113594789Y-126304638D01*
X113592725Y-126306099D01*
X113590593Y-126307465D01*
X113588398Y-126308734D01*
X113586147Y-126309908D01*
X113583842Y-126310984D01*
X113581490Y-126311963D01*
X113579095Y-126312844D01*
X113574196Y-126314312D01*
X113569183Y-126315384D01*
X113564095Y-126316056D01*
X113558970Y-126316325D01*
X113553848Y-126316188D01*
X113548766Y-126315641D01*
X113546253Y-126315212D01*
X113543764Y-126314680D01*
X113541305Y-126314043D01*
X113538881Y-126313302D01*
X113536495Y-126312455D01*
X113534154Y-126311503D01*
X113531861Y-126310445D01*
X113529622Y-126309281D01*
X113527442Y-126308009D01*
X113525325Y-126306630D01*
X112647371Y-125704109D01*
X112643027Y-125701402D01*
X112638356Y-125698988D01*
X112633403Y-125696871D01*
X112628211Y-125695054D01*
X112622821Y-125693541D01*
X112617279Y-125692334D01*
X112611626Y-125691438D01*
X112605906Y-125690855D01*
X112600162Y-125690589D01*
X112594437Y-125690644D01*
X112588774Y-125691023D01*
X112583217Y-125691728D01*
X112577808Y-125692765D01*
X112572591Y-125694135D01*
X112567608Y-125695843D01*
X112562903Y-125697892D01*
X111735750Y-126029017D01*
X111733340Y-126029838D01*
X111730936Y-126030772D01*
X111726164Y-126032965D01*
X111721463Y-126035564D01*
X111716861Y-126038539D01*
X111712388Y-126041856D01*
X111708072Y-126045484D01*
X111703944Y-126049393D01*
X111700031Y-126053549D01*
X111696363Y-126057921D01*
X111692969Y-126062478D01*
X111689879Y-126067188D01*
X111687120Y-126072019D01*
X111684723Y-126076940D01*
X111682716Y-126081918D01*
X111681867Y-126084419D01*
X111681128Y-126086923D01*
X111680500Y-126089425D01*
X111679988Y-126091922D01*
X111482609Y-127152571D01*
X111482094Y-127155037D01*
X111481458Y-127157473D01*
X111480703Y-127159874D01*
X111479834Y-127162239D01*
X111478855Y-127164564D01*
X111477769Y-127166846D01*
X111476581Y-127169081D01*
X111475293Y-127171267D01*
X111473910Y-127173401D01*
X111472436Y-127175479D01*
X111470874Y-127177498D01*
X111469228Y-127179455D01*
X111467502Y-127181347D01*
X111465699Y-127183171D01*
X111463825Y-127184924D01*
X111461881Y-127186603D01*
X111459873Y-127188203D01*
X111457803Y-127189724D01*
X111455676Y-127191160D01*
X111453496Y-127192510D01*
X111451265Y-127193770D01*
X111448989Y-127194936D01*
X111446671Y-127196006D01*
X111444314Y-127196977D01*
X111441923Y-127197845D01*
X111439501Y-127198608D01*
X111437052Y-127199262D01*
X111434579Y-127199804D01*
X111432087Y-127200231D01*
X111429580Y-127200540D01*
X111427061Y-127200728D01*
X111424533Y-127200791D01*
X110305412Y-127200923D01*
X110302879Y-127200866D01*
X110300356Y-127200685D01*
X110297846Y-127200382D01*
X110295353Y-127199961D01*
X110292880Y-127199425D01*
X110290431Y-127198777D01*
X110288011Y-127198020D01*
X110285621Y-127197158D01*
X110283267Y-127196193D01*
X110280952Y-127195128D01*
X110276453Y-127192713D01*
X110272153Y-127189937D01*
X110268081Y-127186826D01*
X110264268Y-127183403D01*
X110260743Y-127179695D01*
X110257534Y-127175726D01*
X110254671Y-127171520D01*
X110253379Y-127169337D01*
X110252184Y-127167103D01*
X110251091Y-127164824D01*
X110250102Y-127162500D01*
X110249222Y-127160137D01*
X110248455Y-127157736D01*
X110247803Y-127155301D01*
X110247270Y-127152835D01*
X110045063Y-126065464D01*
X110043904Y-126060480D01*
X110042307Y-126055469D01*
X110040299Y-126050465D01*
X110037910Y-126045502D01*
X110035166Y-126040612D01*
X110032097Y-126035828D01*
X110028731Y-126031183D01*
X110025095Y-126026711D01*
X110021218Y-126022444D01*
X110017128Y-126018416D01*
X110012854Y-126014659D01*
X110008423Y-126011207D01*
X110003864Y-126008092D01*
X109999204Y-126005348D01*
X109994473Y-126003008D01*
X109989698Y-126001104D01*
X109212088Y-125667795D01*
X109207433Y-125665636D01*
X109202499Y-125663822D01*
X109197329Y-125662350D01*
X109191966Y-125661217D01*
X109186453Y-125660421D01*
X109180831Y-125659958D01*
X109175143Y-125659826D01*
X109169432Y-125660022D01*
X109163741Y-125660545D01*
X109158111Y-125661389D01*
X109152586Y-125662554D01*
X109147208Y-125664037D01*
X109142020Y-125665834D01*
X109137063Y-125667943D01*
X109132381Y-125670362D01*
X109128017Y-125673086D01*
X108204621Y-126306631D01*
X108202504Y-126307999D01*
X108200325Y-126309260D01*
X108198087Y-126310416D01*
X108195795Y-126311466D01*
X108193455Y-126312412D01*
X108191072Y-126313254D01*
X108186192Y-126314625D01*
X108181195Y-126315583D01*
X108176119Y-126316131D01*
X108171003Y-126316272D01*
X108165884Y-126316008D01*
X108160802Y-126315343D01*
X108155795Y-126314279D01*
X108150901Y-126312819D01*
X108146159Y-126310967D01*
X108141608Y-126308724D01*
X108139415Y-126307458D01*
X108137285Y-126306095D01*
X108135221Y-126304636D01*
X108133229Y-126303081D01*
X108131314Y-126301432D01*
X108129479Y-126299687D01*
X107338177Y-125508384D01*
X107336432Y-125506550D01*
X107334781Y-125504635D01*
X107333224Y-125502644D01*
X107331763Y-125500581D01*
X107330398Y-125498452D01*
X107329128Y-125496262D01*
X107327955Y-125494014D01*
X107326878Y-125491714D01*
X107325899Y-125489367D01*
X107325018Y-125486977D01*
X107323550Y-125482089D01*
X107322478Y-125477088D01*
X107321806Y-125472012D01*
X107321536Y-125466900D01*
X107321674Y-125461789D01*
X107322221Y-125456719D01*
X107322650Y-125454211D01*
X107323182Y-125451727D01*
X107323819Y-125449272D01*
X107324560Y-125446851D01*
X107325407Y-125444469D01*
X107326359Y-125442131D01*
X107327417Y-125439841D01*
X107328581Y-125437604D01*
X107329853Y-125435425D01*
X107331231Y-125433308D01*
X107976021Y-124493707D01*
X107978738Y-124489361D01*
X107981158Y-124484686D01*
X107983277Y-124479727D01*
X107985092Y-124474527D01*
X107986601Y-124469130D01*
X107987801Y-124463579D01*
X107988687Y-124457919D01*
X107989259Y-124452192D01*
X107989511Y-124446442D01*
X107989442Y-124440714D01*
X107989048Y-124435051D01*
X107988327Y-124429497D01*
X107987275Y-124424094D01*
X107985890Y-124418888D01*
X107984168Y-124413922D01*
X107982106Y-124409239D01*
X107673536Y-123655441D01*
X107672684Y-123653044D01*
X107671718Y-123650654D01*
X107670641Y-123648275D01*
X107669459Y-123645910D01*
X107666793Y-123641239D01*
X107663752Y-123636667D01*
X107660368Y-123632224D01*
X107656676Y-123627937D01*
X107652706Y-123623835D01*
X107648492Y-123619945D01*
X107644066Y-123616297D01*
X107639461Y-123612918D01*
X107634710Y-123609837D01*
X107629846Y-123607081D01*
X107624900Y-123604679D01*
X107619906Y-123602659D01*
X107614897Y-123601050D01*
X107612396Y-123600408D01*
X107609904Y-123599879D01*
X106485226Y-123390527D01*
X106482754Y-123390006D01*
X106480314Y-123389365D01*
X106477908Y-123388607D01*
X106475539Y-123387736D01*
X106473211Y-123386755D01*
X106470927Y-123385668D01*
X106468689Y-123384480D01*
X106466502Y-123383193D01*
X106464367Y-123381811D01*
X106462289Y-123380339D01*
X106460270Y-123378780D01*
X106458313Y-123377137D01*
X106456421Y-123375414D01*
X106454598Y-123373616D01*
X106452846Y-123371745D01*
X106451169Y-123369806D01*
X106449570Y-123367803D01*
X106448052Y-123365738D01*
X106446617Y-123363616D01*
X106445269Y-123361440D01*
X106444012Y-123359215D01*
X106442847Y-123356944D01*
X106441779Y-123354630D01*
X106440810Y-123352278D01*
X106439944Y-123349890D01*
X106439183Y-123347472D01*
X106438531Y-123345026D01*
X106437990Y-123342557D01*
X106437564Y-123340067D01*
X106437256Y-123337562D01*
X106437069Y-123335043D01*
X106437006Y-123332517D01*
X106437006Y-122213329D01*
X106437069Y-122210808D01*
X106437256Y-122208296D01*
X106437564Y-122205795D01*
X106437990Y-122203311D01*
X106438531Y-122200846D01*
X106439183Y-122198405D01*
X106439944Y-122195990D01*
X106440810Y-122193607D01*
X106441779Y-122191258D01*
X106442847Y-122188947D01*
X106445269Y-122184456D01*
X106448052Y-122180162D01*
X106451169Y-122176098D01*
X106454598Y-122172291D01*
X106458313Y-122168772D01*
X106462289Y-122165571D01*
X106464367Y-122164100D01*
X106466502Y-122162718D01*
X106468689Y-122161432D01*
X106470927Y-122160244D01*
X106473211Y-122159157D01*
X106475539Y-122158177D01*
X106477908Y-122157305D01*
X106480314Y-122156547D01*
X106482754Y-122155906D01*
X106485226Y-122155386D01*
X107609904Y-121946100D01*
X107614897Y-121944930D01*
X107619906Y-121943322D01*
X107624900Y-121941305D01*
X107629846Y-121938907D01*
X107634710Y-121936155D01*
X107639461Y-121933078D01*
X107644066Y-121929703D01*
X107648492Y-121926058D01*
X107652706Y-121922171D01*
X107656676Y-121918071D01*
X107660368Y-121913784D01*
X107663752Y-121909340D01*
X107666793Y-121904765D01*
X107669459Y-121900088D01*
X107671718Y-121895336D01*
X107673536Y-121890538D01*
X107982107Y-121136674D01*
X107984168Y-121131979D01*
X107985890Y-121127002D01*
X107987276Y-121121788D01*
X107988327Y-121116378D01*
X107989049Y-121110818D01*
X107989442Y-121105151D01*
X107989511Y-121099421D01*
X107989259Y-121093671D01*
X107988687Y-121087945D01*
X107987801Y-121082286D01*
X107986601Y-121076739D01*
X107985092Y-121071348D01*
X107983277Y-121066155D01*
X107981158Y-121061204D01*
X107978738Y-121056540D01*
X107976021Y-121052206D01*
X107331232Y-120112671D01*
X107329853Y-120110548D01*
X107328582Y-120108362D01*
X107327417Y-120106119D01*
X107326359Y-120103823D01*
X107325407Y-120101479D01*
X107324561Y-120099091D01*
X107323182Y-120094204D01*
X107322222Y-120089202D01*
X107321674Y-120084122D01*
X107321537Y-120079003D01*
X107321806Y-120073884D01*
X107322478Y-120068803D01*
X107323550Y-120063798D01*
X107325018Y-120058908D01*
X107326878Y-120054172D01*
X107329128Y-120049627D01*
X107330398Y-120047439D01*
X107331763Y-120045313D01*
X107333225Y-120043254D01*
X107334781Y-120041267D01*
X107336432Y-120039357D01*
X107338177Y-120037529D01*
X108129479Y-119246159D01*
X108131314Y-119244420D01*
X108133229Y-119242774D01*
X108135221Y-119241222D01*
X108137285Y-119239765D01*
X108139415Y-119238402D01*
X108141608Y-119237135D01*
X108143857Y-119235964D01*
X108146159Y-119234889D01*
X108148509Y-119233911D01*
X108150901Y-119233030D01*
X108155795Y-119231562D01*
X108160802Y-119230488D01*
X108165884Y-119229813D01*
X108171003Y-119229541D01*
X108176119Y-119229674D01*
X108181195Y-119230217D01*
X108183706Y-119230644D01*
X108186192Y-119231174D01*
X108188649Y-119231809D01*
X108191072Y-119232549D01*
X108193455Y-119233394D01*
X108195795Y-119234344D01*
X108198087Y-119235401D01*
X108200325Y-119236565D01*
X108202504Y-119237836D01*
X108204621Y-119239214D01*
X109128017Y-119872825D01*
X109132381Y-119875527D01*
X109137063Y-119877925D01*
X109142020Y-119880017D01*
X109147208Y-119881799D01*
X109152586Y-119883270D01*
X109158111Y-119884426D01*
X109163741Y-119885264D01*
X109169432Y-119885781D01*
X109175143Y-119885976D01*
X109180831Y-119885844D01*
X109186453Y-119885384D01*
X109191966Y-119884592D01*
X109197329Y-119883465D01*
X109202499Y-119882001D01*
X109207433Y-119880197D01*
X109212088Y-119878051D01*
X109989698Y-119544675D01*
X109992090Y-119543786D01*
X109994473Y-119542784D01*
X109999204Y-119540456D01*
X110003864Y-119537723D01*
X110008423Y-119534619D01*
X110012854Y-119531177D01*
X110017128Y-119527428D01*
X110021218Y-119523406D01*
X110025095Y-119519143D01*
X110028731Y-119514673D01*
X110032097Y-119510028D01*
X110035166Y-119505240D01*
X110037910Y-119500343D01*
X110040299Y-119495370D01*
X110042307Y-119490352D01*
X110043904Y-119485323D01*
X110044540Y-119482815D01*
X110045063Y-119480316D01*
X110247270Y-118393011D01*
X110247803Y-118390533D01*
X110248455Y-118388087D01*
X110249222Y-118385676D01*
X110250102Y-118383304D01*
X110251091Y-118380973D01*
X110252184Y-118378686D01*
X110253378Y-118376447D01*
X110254670Y-118374258D01*
X110256056Y-118372123D01*
X110257532Y-118370044D01*
X110259094Y-118368025D01*
X110260739Y-118366068D01*
X110262463Y-118364177D01*
X110264263Y-118362355D01*
X110266134Y-118360604D01*
X110268073Y-118358929D01*
X110270077Y-118357331D01*
X110272141Y-118355815D01*
X110274262Y-118354382D01*
X110276437Y-118353036D01*
X110278661Y-118351781D01*
X110280931Y-118350618D01*
X110283243Y-118349552D01*
X110285594Y-118348585D01*
X110287979Y-118347721D01*
X110290396Y-118346962D01*
X110292840Y-118346311D01*
X110295309Y-118345772D01*
X110297797Y-118345347D01*
X110300302Y-118345040D01*
X110302820Y-118344853D01*
X110305346Y-118344790D01*
X111424468Y-118344856D01*
G37*
G36*
X117849039Y-126201818D02*
G01*
X117891525Y-126204240D01*
X117931934Y-126208205D01*
X117970314Y-126213652D01*
X118006711Y-126220524D01*
X118041170Y-126228761D01*
X118073740Y-126238303D01*
X118104464Y-126249092D01*
X118133391Y-126261068D01*
X118160566Y-126274172D01*
X118186035Y-126288346D01*
X118209846Y-126303529D01*
X118232043Y-126319662D01*
X118252674Y-126336687D01*
X118271785Y-126354545D01*
X118289422Y-126373175D01*
X118305631Y-126392520D01*
X118320459Y-126412519D01*
X118333952Y-126433113D01*
X118346156Y-126454244D01*
X118357117Y-126475853D01*
X118366883Y-126497879D01*
X118383011Y-126542949D01*
X118394910Y-126588981D01*
X118402951Y-126635501D01*
X118407504Y-126682036D01*
X118408939Y-126728114D01*
X118408275Y-126757889D01*
X118406258Y-126787457D01*
X118402855Y-126816777D01*
X118398031Y-126845808D01*
X118391753Y-126874510D01*
X118383985Y-126902841D01*
X118374693Y-126930760D01*
X118363844Y-126958226D01*
X118351403Y-126985199D01*
X118337335Y-127011637D01*
X118321606Y-127037499D01*
X118304182Y-127062744D01*
X118285029Y-127087331D01*
X118264113Y-127111220D01*
X118241398Y-127134369D01*
X118216851Y-127156738D01*
X118069214Y-126983369D01*
X118082494Y-126969865D01*
X118095038Y-126955753D01*
X118106830Y-126941086D01*
X118117852Y-126925916D01*
X118128088Y-126910293D01*
X118137521Y-126894270D01*
X118146135Y-126877899D01*
X118153914Y-126861231D01*
X118160839Y-126844319D01*
X118166895Y-126827213D01*
X118172065Y-126809965D01*
X118176333Y-126792628D01*
X118179681Y-126775253D01*
X118182093Y-126757891D01*
X118183553Y-126740595D01*
X118184043Y-126723417D01*
X118183755Y-126708171D01*
X118182890Y-126693200D01*
X118181450Y-126678519D01*
X118179434Y-126664140D01*
X118176844Y-126650078D01*
X118173679Y-126636345D01*
X118169940Y-126622957D01*
X118165627Y-126609925D01*
X118160742Y-126597265D01*
X118155284Y-126584990D01*
X118149254Y-126573113D01*
X118142652Y-126561648D01*
X118135479Y-126550609D01*
X118127736Y-126540010D01*
X118119422Y-126529863D01*
X118110538Y-126520184D01*
X118101085Y-126510985D01*
X118091063Y-126502281D01*
X118080473Y-126494084D01*
X118069314Y-126486409D01*
X118057589Y-126479270D01*
X118045296Y-126472679D01*
X118032436Y-126466652D01*
X118019011Y-126461200D01*
X118005019Y-126456339D01*
X117990463Y-126452081D01*
X117975342Y-126448441D01*
X117959656Y-126445432D01*
X117943407Y-126443068D01*
X117926595Y-126441363D01*
X117909219Y-126440329D01*
X117891281Y-126439982D01*
X117891281Y-127180087D01*
X117694365Y-127180087D01*
X117665929Y-127179428D01*
X117638168Y-127177472D01*
X117611095Y-127174256D01*
X117584727Y-127169815D01*
X117559077Y-127164183D01*
X117534161Y-127157396D01*
X117509994Y-127149489D01*
X117486591Y-127140497D01*
X117463967Y-127130455D01*
X117442137Y-127119399D01*
X117421116Y-127107363D01*
X117400919Y-127094383D01*
X117381560Y-127080494D01*
X117363056Y-127065731D01*
X117345420Y-127050129D01*
X117328669Y-127033723D01*
X117312817Y-127016549D01*
X117297878Y-126998641D01*
X117283869Y-126980035D01*
X117270803Y-126960766D01*
X117258697Y-126940869D01*
X117247564Y-126920379D01*
X117237421Y-126899332D01*
X117228281Y-126877762D01*
X117220161Y-126855704D01*
X117213075Y-126833195D01*
X117207037Y-126810268D01*
X117202064Y-126786959D01*
X117198170Y-126763304D01*
X117195370Y-126739337D01*
X117193678Y-126715093D01*
X117193111Y-126690608D01*
X117417941Y-126690608D01*
X117418222Y-126703674D01*
X117419064Y-126716510D01*
X117420465Y-126729105D01*
X117422423Y-126741449D01*
X117424935Y-126753530D01*
X117428000Y-126765338D01*
X117431614Y-126776862D01*
X117435777Y-126788091D01*
X117440485Y-126799015D01*
X117445737Y-126809623D01*
X117451530Y-126819903D01*
X117457863Y-126829847D01*
X117464733Y-126839441D01*
X117472138Y-126848677D01*
X117480075Y-126857543D01*
X117488544Y-126866027D01*
X117497540Y-126874121D01*
X117507063Y-126881812D01*
X117517110Y-126889090D01*
X117527679Y-126895945D01*
X117538768Y-126902365D01*
X117550375Y-126908340D01*
X117562496Y-126913859D01*
X117575132Y-126918911D01*
X117588278Y-126923486D01*
X117601933Y-126927572D01*
X117616095Y-126931159D01*
X117630761Y-126934237D01*
X117645930Y-126936794D01*
X117661600Y-126938820D01*
X117677767Y-126940304D01*
X117694430Y-126941235D01*
X117694430Y-126439982D01*
X117677767Y-126440709D01*
X117661600Y-126442015D01*
X117645930Y-126443888D01*
X117630761Y-126446315D01*
X117616095Y-126449285D01*
X117601933Y-126452786D01*
X117588277Y-126456804D01*
X117575131Y-126461330D01*
X117562496Y-126466349D01*
X117550374Y-126471852D01*
X117538768Y-126477824D01*
X117527679Y-126484255D01*
X117517110Y-126491132D01*
X117507063Y-126498444D01*
X117497540Y-126506178D01*
X117488543Y-126514322D01*
X117480075Y-126522864D01*
X117472138Y-126531792D01*
X117464733Y-126541095D01*
X117457863Y-126550760D01*
X117451530Y-126560775D01*
X117445737Y-126571128D01*
X117440485Y-126581807D01*
X117435777Y-126592800D01*
X117431614Y-126604096D01*
X117428000Y-126615681D01*
X117424935Y-126627544D01*
X117422423Y-126639673D01*
X117420465Y-126652056D01*
X117419064Y-126664681D01*
X117418222Y-126677536D01*
X117417941Y-126690608D01*
X117193111Y-126690608D01*
X117194907Y-126647274D01*
X117200453Y-126603653D01*
X117204706Y-126581867D01*
X117209985Y-126560169D01*
X117216321Y-126538611D01*
X117223741Y-126517248D01*
X117232277Y-126496132D01*
X117241957Y-126475316D01*
X117252812Y-126454853D01*
X117264870Y-126434798D01*
X117278162Y-126415202D01*
X117292717Y-126396120D01*
X117308564Y-126377603D01*
X117325734Y-126359706D01*
X117344256Y-126342482D01*
X117364159Y-126325984D01*
X117385473Y-126310264D01*
X117408228Y-126295377D01*
X117432453Y-126281375D01*
X117458178Y-126268311D01*
X117485432Y-126256240D01*
X117514246Y-126245213D01*
X117544648Y-126235284D01*
X117576668Y-126226507D01*
X117610337Y-126218934D01*
X117645682Y-126212619D01*
X117682735Y-126207614D01*
X117694430Y-126206517D01*
X117721525Y-126203974D01*
X117762080Y-126201751D01*
X117804432Y-126200998D01*
X117849039Y-126201818D01*
G37*
G36*
X116518888Y-125930395D02*
G01*
X115804447Y-125930395D01*
X115788482Y-125930727D01*
X115773088Y-125931711D01*
X115758263Y-125933326D01*
X115744002Y-125935552D01*
X115730300Y-125938367D01*
X115717153Y-125941752D01*
X115704558Y-125945685D01*
X115692509Y-125950147D01*
X115681002Y-125955117D01*
X115670033Y-125960573D01*
X115659598Y-125966497D01*
X115649692Y-125972866D01*
X115640312Y-125979661D01*
X115631452Y-125986861D01*
X115623109Y-125994446D01*
X115615278Y-126002394D01*
X115607955Y-126010686D01*
X115601136Y-126019300D01*
X115594815Y-126028217D01*
X115588990Y-126037416D01*
X115583656Y-126046876D01*
X115578808Y-126056577D01*
X115574442Y-126066497D01*
X115570554Y-126076618D01*
X115564194Y-126097375D01*
X115559694Y-126118684D01*
X115557019Y-126140381D01*
X115556135Y-126162301D01*
X115556330Y-126173497D01*
X115556922Y-126184250D01*
X115557927Y-126194615D01*
X115559357Y-126204649D01*
X115561226Y-126214406D01*
X115563548Y-126223942D01*
X115566336Y-126233311D01*
X115569605Y-126242570D01*
X115573367Y-126251772D01*
X115577636Y-126260974D01*
X115582427Y-126270230D01*
X115587752Y-126279597D01*
X115593626Y-126289128D01*
X115600062Y-126298880D01*
X115607074Y-126308908D01*
X115614675Y-126319266D01*
X115408498Y-126492634D01*
X115398206Y-126478911D01*
X115388430Y-126465016D01*
X115379189Y-126450936D01*
X115370505Y-126436655D01*
X115362397Y-126422159D01*
X115354887Y-126407434D01*
X115347994Y-126392464D01*
X115341740Y-126377235D01*
X115336144Y-126361732D01*
X115331228Y-126345941D01*
X115327012Y-126329848D01*
X115323517Y-126313436D01*
X115320762Y-126296693D01*
X115318769Y-126279603D01*
X115317558Y-126262151D01*
X115317150Y-126244323D01*
X115317700Y-126220831D01*
X115319348Y-126197796D01*
X115322096Y-126175238D01*
X115325941Y-126153179D01*
X115330886Y-126131640D01*
X115336928Y-126110641D01*
X115344069Y-126090205D01*
X115352307Y-126070351D01*
X115361643Y-126051101D01*
X115372076Y-126032476D01*
X115383606Y-126014497D01*
X115396234Y-125997185D01*
X115409958Y-125980560D01*
X115424779Y-125964645D01*
X115440697Y-125949460D01*
X115457710Y-125935026D01*
X115457710Y-125930395D01*
X115331239Y-125930395D01*
X115331239Y-125691409D01*
X116518888Y-125691409D01*
X116518888Y-125930395D01*
G37*
G36*
X115926286Y-118258668D02*
G01*
X118394916Y-118258668D01*
X118394916Y-118497653D01*
X117687486Y-118497653D01*
X117672524Y-118497946D01*
X117657966Y-118498817D01*
X117643816Y-118500254D01*
X117630079Y-118502244D01*
X117616759Y-118504777D01*
X117603862Y-118507839D01*
X117591392Y-118511420D01*
X117579353Y-118515506D01*
X117567751Y-118520087D01*
X117556589Y-118525149D01*
X117545874Y-118530681D01*
X117535608Y-118536672D01*
X117525798Y-118543108D01*
X117516447Y-118549978D01*
X117507561Y-118557271D01*
X117499144Y-118564973D01*
X117491201Y-118573073D01*
X117483736Y-118581560D01*
X117476755Y-118590420D01*
X117470261Y-118599643D01*
X117464260Y-118609216D01*
X117458756Y-118619126D01*
X117453754Y-118629363D01*
X117449259Y-118639914D01*
X117445275Y-118650767D01*
X117441807Y-118661910D01*
X117438860Y-118673332D01*
X117436438Y-118685019D01*
X117434546Y-118696961D01*
X117433189Y-118709145D01*
X117432371Y-118721558D01*
X117432097Y-118734191D01*
X117432371Y-118746613D01*
X117433189Y-118758830D01*
X117434546Y-118770830D01*
X117436438Y-118782601D01*
X117438860Y-118794129D01*
X117441807Y-118805403D01*
X117445275Y-118816411D01*
X117449259Y-118827139D01*
X117453754Y-118837575D01*
X117458756Y-118847707D01*
X117464260Y-118857523D01*
X117470261Y-118867009D01*
X117476755Y-118876154D01*
X117483736Y-118884945D01*
X117491201Y-118893370D01*
X117499144Y-118901415D01*
X117507561Y-118909070D01*
X117516447Y-118916321D01*
X117525798Y-118923156D01*
X117535608Y-118929562D01*
X117545873Y-118935527D01*
X117556589Y-118941039D01*
X117567750Y-118946084D01*
X117579353Y-118950652D01*
X117591391Y-118954728D01*
X117603862Y-118958302D01*
X117616759Y-118961360D01*
X117630079Y-118963890D01*
X117643816Y-118965879D01*
X117657966Y-118967315D01*
X117672524Y-118968186D01*
X117687486Y-118968479D01*
X118394915Y-118968479D01*
X118394915Y-119207398D01*
X117605398Y-119207398D01*
X117580518Y-119206787D01*
X117556382Y-119204985D01*
X117532993Y-119202034D01*
X117510354Y-119197978D01*
X117488468Y-119192860D01*
X117467338Y-119186723D01*
X117446967Y-119179611D01*
X117427359Y-119171567D01*
X117408515Y-119162635D01*
X117390439Y-119152857D01*
X117373135Y-119142276D01*
X117356604Y-119130937D01*
X117340851Y-119118883D01*
X117325878Y-119106156D01*
X117311687Y-119092801D01*
X117298283Y-119078860D01*
X117285668Y-119064377D01*
X117273845Y-119049395D01*
X117262817Y-119033957D01*
X117252588Y-119018107D01*
X117243159Y-119001888D01*
X117234535Y-118985343D01*
X117226717Y-118968517D01*
X117219710Y-118951451D01*
X117213516Y-118934189D01*
X117208138Y-118916775D01*
X117203579Y-118899252D01*
X117199842Y-118881663D01*
X117196931Y-118864051D01*
X117194848Y-118846460D01*
X117193595Y-118828934D01*
X117193177Y-118811515D01*
X117193727Y-118788023D01*
X117195375Y-118764984D01*
X117198123Y-118742411D01*
X117201968Y-118720319D01*
X117206913Y-118698719D01*
X117212955Y-118677628D01*
X117220095Y-118657058D01*
X117228334Y-118637022D01*
X117237669Y-118617536D01*
X117248103Y-118598612D01*
X117259633Y-118580264D01*
X117272261Y-118562507D01*
X117285985Y-118545353D01*
X117300806Y-118528817D01*
X117316724Y-118512913D01*
X117333737Y-118497653D01*
X116392482Y-118498513D01*
X116407959Y-118515293D01*
X116422735Y-118532265D01*
X116436771Y-118549457D01*
X116450024Y-118566895D01*
X116462453Y-118584608D01*
X116474018Y-118602623D01*
X116484676Y-118620967D01*
X116494388Y-118639668D01*
X116503111Y-118658754D01*
X116510805Y-118678251D01*
X116517428Y-118698188D01*
X116522939Y-118718593D01*
X116527297Y-118739491D01*
X116530461Y-118760912D01*
X116532390Y-118782882D01*
X116533042Y-118805430D01*
X116532851Y-118818925D01*
X116532283Y-118832188D01*
X116531347Y-118845220D01*
X116530049Y-118858020D01*
X116528397Y-118870589D01*
X116526400Y-118882927D01*
X116524064Y-118895035D01*
X116521398Y-118906914D01*
X116518410Y-118918563D01*
X116515106Y-118929983D01*
X116511496Y-118941174D01*
X116507585Y-118952137D01*
X116503384Y-118962872D01*
X116498898Y-118973380D01*
X116489105Y-118993714D01*
X116478268Y-119013142D01*
X116466450Y-119031669D01*
X116453713Y-119049296D01*
X116440117Y-119066028D01*
X116425726Y-119081866D01*
X116410600Y-119096814D01*
X116394802Y-119110876D01*
X116378393Y-119124054D01*
X116362631Y-119135803D01*
X116346707Y-119146495D01*
X116330298Y-119156172D01*
X116313083Y-119164875D01*
X116294739Y-119172645D01*
X116274944Y-119179524D01*
X116253377Y-119185552D01*
X116229715Y-119190770D01*
X116203635Y-119195221D01*
X116174817Y-119198944D01*
X116142938Y-119201982D01*
X116107675Y-119204375D01*
X116025713Y-119207391D01*
X115926353Y-119208324D01*
X115873907Y-119208098D01*
X115826190Y-119207391D01*
X115782874Y-119206164D01*
X115743634Y-119204375D01*
X115708142Y-119201982D01*
X115676073Y-119198944D01*
X115647101Y-119195221D01*
X115620899Y-119190770D01*
X115597141Y-119185552D01*
X115586077Y-119182642D01*
X115575501Y-119179524D01*
X115565373Y-119176194D01*
X115555652Y-119172645D01*
X115546298Y-119168874D01*
X115537269Y-119164875D01*
X115520025Y-119156172D01*
X115503594Y-119146495D01*
X115487649Y-119135803D01*
X115471865Y-119124054D01*
X115455456Y-119110876D01*
X115439658Y-119096814D01*
X115424532Y-119081866D01*
X115410140Y-119066028D01*
X115396545Y-119049296D01*
X115383807Y-119031669D01*
X115371990Y-119013143D01*
X115361153Y-118993714D01*
X115351360Y-118973380D01*
X115342672Y-118952137D01*
X115335152Y-118929983D01*
X115328860Y-118906914D01*
X115323858Y-118882927D01*
X115320209Y-118858020D01*
X115317975Y-118832188D01*
X115317216Y-118805430D01*
X115317867Y-118782728D01*
X115319792Y-118760337D01*
X115322945Y-118738290D01*
X115324043Y-118732802D01*
X115556134Y-118732802D01*
X115556671Y-118753267D01*
X115558257Y-118772521D01*
X115560860Y-118790599D01*
X115564445Y-118807538D01*
X115568980Y-118823376D01*
X115574428Y-118838149D01*
X115580758Y-118851895D01*
X115587935Y-118864649D01*
X115595925Y-118876449D01*
X115604694Y-118887333D01*
X115614209Y-118897336D01*
X115624436Y-118906496D01*
X115635340Y-118914849D01*
X115646889Y-118922433D01*
X115659047Y-118929284D01*
X115671782Y-118935440D01*
X115685059Y-118940936D01*
X115698845Y-118945811D01*
X115727806Y-118953841D01*
X115758396Y-118959827D01*
X115790343Y-118964062D01*
X115823376Y-118966842D01*
X115857225Y-118968463D01*
X115926286Y-118969405D01*
X115960524Y-118969219D01*
X115994545Y-118968463D01*
X116028073Y-118966842D01*
X116060835Y-118964062D01*
X116092555Y-118959827D01*
X116107938Y-118957071D01*
X116122958Y-118953841D01*
X116137580Y-118950100D01*
X116151770Y-118945811D01*
X116165493Y-118940936D01*
X116178715Y-118935440D01*
X116191403Y-118929284D01*
X116203520Y-118922433D01*
X116215034Y-118914849D01*
X116225909Y-118906496D01*
X116236112Y-118897336D01*
X116245607Y-118887333D01*
X116254362Y-118876449D01*
X116262341Y-118864649D01*
X116269509Y-118851895D01*
X116275833Y-118838149D01*
X116281279Y-118823376D01*
X116285811Y-118807538D01*
X116289397Y-118790599D01*
X116292000Y-118772521D01*
X116293587Y-118753267D01*
X116294124Y-118732802D01*
X116293554Y-118712547D01*
X116291872Y-118693490D01*
X116289118Y-118675597D01*
X116285334Y-118658830D01*
X116280560Y-118643152D01*
X116274836Y-118628528D01*
X116268204Y-118614920D01*
X116260704Y-118602293D01*
X116252376Y-118590610D01*
X116243263Y-118579833D01*
X116233404Y-118569928D01*
X116222840Y-118560858D01*
X116211612Y-118552585D01*
X116199760Y-118545074D01*
X116187326Y-118538287D01*
X116174350Y-118532190D01*
X116160873Y-118526744D01*
X116146936Y-118521914D01*
X116117843Y-118513955D01*
X116087397Y-118508021D01*
X116055924Y-118503820D01*
X116023751Y-118501061D01*
X115991203Y-118499451D01*
X115926286Y-118498513D01*
X115893559Y-118498700D01*
X115860606Y-118499454D01*
X115827749Y-118501067D01*
X115795311Y-118503830D01*
X115763614Y-118508035D01*
X115748144Y-118510769D01*
X115732981Y-118513973D01*
X115718164Y-118517683D01*
X115703735Y-118521936D01*
X115689732Y-118526767D01*
X115676198Y-118532214D01*
X115663171Y-118538314D01*
X115650692Y-118545101D01*
X115638802Y-118552613D01*
X115627541Y-118560887D01*
X115616949Y-118569958D01*
X115607066Y-118579863D01*
X115597933Y-118590638D01*
X115589591Y-118602321D01*
X115582079Y-118614947D01*
X115575437Y-118628552D01*
X115569707Y-118643174D01*
X115564928Y-118658849D01*
X115561141Y-118675612D01*
X115558387Y-118693501D01*
X115556704Y-118712552D01*
X115556134Y-118732802D01*
X115324043Y-118732802D01*
X115327282Y-118716621D01*
X115332759Y-118695364D01*
X115339331Y-118674554D01*
X115346952Y-118654225D01*
X115355580Y-118634410D01*
X115365169Y-118615144D01*
X115375674Y-118596461D01*
X115387052Y-118578395D01*
X115399257Y-118560980D01*
X115412245Y-118544250D01*
X115425971Y-118528239D01*
X115440391Y-118512982D01*
X115455461Y-118498513D01*
X115331305Y-118498513D01*
X115331305Y-118258668D01*
X115926286Y-118258668D01*
G37*
G36*
X118394916Y-125634325D02*
G01*
X117680343Y-125634325D01*
X117664389Y-125634658D01*
X117649006Y-125635642D01*
X117634189Y-125637257D01*
X117619935Y-125639483D01*
X117606240Y-125642298D01*
X117593098Y-125645683D01*
X117580506Y-125649616D01*
X117568460Y-125654078D01*
X117556955Y-125659048D01*
X117545988Y-125664504D01*
X117535553Y-125670428D01*
X117525646Y-125676797D01*
X117516265Y-125683592D01*
X117507403Y-125690792D01*
X117499058Y-125698377D01*
X117491224Y-125706325D01*
X117483897Y-125714617D01*
X117477074Y-125723231D01*
X117470750Y-125732148D01*
X117464921Y-125741347D01*
X117459583Y-125750807D01*
X117454731Y-125760508D01*
X117450361Y-125770428D01*
X117446469Y-125780549D01*
X117440102Y-125801306D01*
X117435596Y-125822615D01*
X117432917Y-125844312D01*
X117432032Y-125866232D01*
X117432226Y-125877428D01*
X117432819Y-125888181D01*
X117433824Y-125898546D01*
X117435255Y-125908580D01*
X117437126Y-125918337D01*
X117439451Y-125927873D01*
X117442243Y-125937242D01*
X117445517Y-125946500D01*
X117449286Y-125955702D01*
X117453564Y-125964904D01*
X117458366Y-125974161D01*
X117463704Y-125983527D01*
X117469593Y-125993059D01*
X117476046Y-126002811D01*
X117483078Y-126012838D01*
X117490703Y-126023197D01*
X117284526Y-126196565D01*
X117274234Y-126182862D01*
X117264458Y-126168980D01*
X117255217Y-126154904D01*
X117246533Y-126140623D01*
X117238425Y-126126122D01*
X117230915Y-126111387D01*
X117224022Y-126096406D01*
X117217768Y-126081165D01*
X117212172Y-126065650D01*
X117207256Y-126049848D01*
X117203040Y-126033746D01*
X117199545Y-126017329D01*
X117196790Y-126000585D01*
X117194797Y-125983500D01*
X117193586Y-125966061D01*
X117193178Y-125948253D01*
X117193728Y-125924763D01*
X117195376Y-125901732D01*
X117198124Y-125879180D01*
X117201969Y-125857130D01*
X117206914Y-125835601D01*
X117212956Y-125814614D01*
X117220097Y-125794189D01*
X117228335Y-125774348D01*
X117237671Y-125755110D01*
X117248104Y-125736497D01*
X117259635Y-125718529D01*
X117272262Y-125701227D01*
X117285986Y-125684611D01*
X117300807Y-125668702D01*
X117316725Y-125653521D01*
X117333738Y-125639088D01*
X117333738Y-125634325D01*
X117207267Y-125634325D01*
X117207267Y-125395473D01*
X118394916Y-125395473D01*
X118394916Y-125634325D01*
G37*
G36*
X116145635Y-124481353D02*
G01*
X116169772Y-124483156D01*
X116193161Y-124486109D01*
X116215800Y-124490169D01*
X116237686Y-124495293D01*
X116258815Y-124501438D01*
X116279186Y-124508561D01*
X116298795Y-124516619D01*
X116317639Y-124525570D01*
X116335714Y-124535370D01*
X116353019Y-124545976D01*
X116369549Y-124557346D01*
X116385303Y-124569436D01*
X116400276Y-124582205D01*
X116414466Y-124595608D01*
X116427870Y-124609603D01*
X116440485Y-124624147D01*
X116452308Y-124639197D01*
X116463336Y-124654710D01*
X116473565Y-124670644D01*
X116482994Y-124686955D01*
X116491618Y-124703600D01*
X116499435Y-124720537D01*
X116506443Y-124737722D01*
X116512637Y-124755113D01*
X116518015Y-124772667D01*
X116526310Y-124808092D01*
X116531305Y-124843653D01*
X116532557Y-124861377D01*
X116532975Y-124879007D01*
X116532426Y-124902068D01*
X116530777Y-124924726D01*
X116528030Y-124946957D01*
X116524184Y-124968736D01*
X116519240Y-124990037D01*
X116513197Y-125010838D01*
X116506057Y-125031113D01*
X116497819Y-125050837D01*
X116488483Y-125069986D01*
X116478050Y-125088535D01*
X116466520Y-125106460D01*
X116453892Y-125123736D01*
X116440168Y-125140338D01*
X116425347Y-125156242D01*
X116409430Y-125171423D01*
X116392416Y-125185857D01*
X116392416Y-125190487D01*
X116519019Y-125190487D01*
X116519019Y-125429340D01*
X115331238Y-125429340D01*
X115331238Y-125190487D01*
X116038669Y-125190487D01*
X116053619Y-125190194D01*
X116068167Y-125189323D01*
X116082308Y-125187887D01*
X116096037Y-125185898D01*
X116109351Y-125183368D01*
X116122243Y-125180310D01*
X116134709Y-125176736D01*
X116146745Y-125172659D01*
X116158346Y-125168091D01*
X116169506Y-125163045D01*
X116180222Y-125157532D01*
X116190488Y-125151566D01*
X116200299Y-125145159D01*
X116209652Y-125138323D01*
X116218540Y-125131071D01*
X116226960Y-125123415D01*
X116234907Y-125115368D01*
X116242375Y-125106941D01*
X116249360Y-125098148D01*
X116255858Y-125089001D01*
X116261863Y-125079512D01*
X116267371Y-125069694D01*
X116272377Y-125059559D01*
X116276877Y-125049119D01*
X116280864Y-125038387D01*
X116284336Y-125027376D01*
X116287286Y-125016098D01*
X116289711Y-125004565D01*
X116291605Y-124992789D01*
X116292964Y-124980784D01*
X116293783Y-124968561D01*
X116294057Y-124956133D01*
X116293783Y-124943506D01*
X116292964Y-124931098D01*
X116291605Y-124918918D01*
X116289711Y-124906980D01*
X116287286Y-124895296D01*
X116284336Y-124883877D01*
X116280864Y-124872736D01*
X116276877Y-124861884D01*
X116272377Y-124851334D01*
X116267371Y-124841098D01*
X116261863Y-124831187D01*
X116255858Y-124821614D01*
X116249360Y-124812391D01*
X116242375Y-124803529D01*
X116234907Y-124795042D01*
X116226960Y-124786940D01*
X116218540Y-124779236D01*
X116209652Y-124771942D01*
X116200299Y-124765070D01*
X116190488Y-124758631D01*
X116180222Y-124752639D01*
X116169506Y-124747104D01*
X116158346Y-124742040D01*
X116146745Y-124737458D01*
X116134709Y-124733369D01*
X116122243Y-124729787D01*
X116109351Y-124726723D01*
X116096037Y-124724189D01*
X116082308Y-124722197D01*
X116068167Y-124720760D01*
X116053619Y-124719888D01*
X116038669Y-124719595D01*
X115331238Y-124719595D01*
X115331238Y-124480743D01*
X116120755Y-124480743D01*
X116120755Y-124480742D01*
X116145635Y-124481353D01*
G37*
G36*
X117900119Y-121400932D02*
G01*
X117982642Y-121403950D01*
X118018121Y-121406344D01*
X118050179Y-121409383D01*
X118079142Y-121413109D01*
X118105337Y-121417562D01*
X118129090Y-121422784D01*
X118150726Y-121428816D01*
X118170571Y-121435700D01*
X118188953Y-121443476D01*
X118206196Y-121452187D01*
X118222626Y-121461873D01*
X118238571Y-121472575D01*
X118254355Y-121484336D01*
X118270764Y-121497512D01*
X118286562Y-121511570D01*
X118301688Y-121526512D01*
X118316080Y-121542343D01*
X118329675Y-121559065D01*
X118342413Y-121576683D01*
X118354231Y-121595199D01*
X118365067Y-121614619D01*
X118374860Y-121634944D01*
X118379346Y-121645448D01*
X118383548Y-121656179D01*
X118387458Y-121667139D01*
X118391068Y-121678327D01*
X118394372Y-121689745D01*
X118397360Y-121701393D01*
X118400026Y-121713270D01*
X118402362Y-121725378D01*
X118404359Y-121737718D01*
X118406011Y-121750288D01*
X118407309Y-121763091D01*
X118408246Y-121776126D01*
X118408813Y-121789393D01*
X118409004Y-121802894D01*
X118408351Y-121825597D01*
X118406423Y-121847990D01*
X118403264Y-121870040D01*
X118398919Y-121891713D01*
X118393434Y-121912974D01*
X118386854Y-121933788D01*
X118379225Y-121954121D01*
X118370590Y-121973940D01*
X118360996Y-121993208D01*
X118350487Y-122011893D01*
X118339109Y-122029959D01*
X118326907Y-122047373D01*
X118313926Y-122064099D01*
X118300211Y-122080104D01*
X118285807Y-122095353D01*
X118270760Y-122109811D01*
X118394916Y-122109811D01*
X118394916Y-122348730D01*
X116726916Y-122348730D01*
X116726916Y-122109811D01*
X117333738Y-122109811D01*
X117318262Y-122093031D01*
X117303485Y-122076059D01*
X117289450Y-122058867D01*
X117276197Y-122041429D01*
X117263767Y-122023716D01*
X117252203Y-122005701D01*
X117241544Y-121987357D01*
X117231833Y-121968656D01*
X117223109Y-121949570D01*
X117215415Y-121930073D01*
X117208792Y-121910136D01*
X117203281Y-121889732D01*
X117200318Y-121875522D01*
X117432031Y-121875522D01*
X117432601Y-121895778D01*
X117434284Y-121914834D01*
X117437039Y-121932727D01*
X117440826Y-121949494D01*
X117445603Y-121965172D01*
X117451331Y-121979796D01*
X117457967Y-121993404D01*
X117465472Y-122006031D01*
X117473804Y-122017715D01*
X117482922Y-122028491D01*
X117492787Y-122038396D01*
X117503357Y-122047467D01*
X117514591Y-122055739D01*
X117526448Y-122063251D01*
X117538888Y-122070037D01*
X117551871Y-122076134D01*
X117565354Y-122081580D01*
X117579297Y-122086410D01*
X117593661Y-122090661D01*
X117608403Y-122094369D01*
X117623482Y-122097571D01*
X117638860Y-122100303D01*
X117670342Y-122104504D01*
X117702524Y-122107263D01*
X117735078Y-122108873D01*
X117767679Y-122109625D01*
X117800000Y-122109811D01*
X117865675Y-122108873D01*
X117898526Y-122107263D01*
X117930955Y-122104504D01*
X117962642Y-122100303D01*
X117993264Y-122094369D01*
X118022498Y-122086410D01*
X118036494Y-122081580D01*
X118050023Y-122076134D01*
X118063043Y-122070037D01*
X118075516Y-122063251D01*
X118087400Y-122055739D01*
X118098655Y-122047467D01*
X118109242Y-122038396D01*
X118119119Y-122028491D01*
X118128246Y-122017715D01*
X118136584Y-122006031D01*
X118144091Y-121993404D01*
X118150728Y-121979796D01*
X118156455Y-121965172D01*
X118161231Y-121949494D01*
X118165015Y-121932727D01*
X118167768Y-121914834D01*
X118169450Y-121895778D01*
X118170019Y-121875522D01*
X118169483Y-121855057D01*
X118167896Y-121835804D01*
X118165293Y-121817726D01*
X118161708Y-121800786D01*
X118157174Y-121784948D01*
X118151726Y-121770175D01*
X118145397Y-121756430D01*
X118138221Y-121743675D01*
X118130231Y-121731875D01*
X118121463Y-121720991D01*
X118111950Y-121710988D01*
X118101725Y-121701828D01*
X118090822Y-121693475D01*
X118079276Y-121685891D01*
X118067120Y-121679040D01*
X118054388Y-121672885D01*
X118041114Y-121667388D01*
X118027332Y-121662514D01*
X118013076Y-121658224D01*
X117998379Y-121654483D01*
X117983276Y-121651253D01*
X117967800Y-121648497D01*
X117935866Y-121644262D01*
X117902848Y-121641482D01*
X117869017Y-121639861D01*
X117834644Y-121639105D01*
X117800000Y-121638919D01*
X117731697Y-121639861D01*
X117698151Y-121641482D01*
X117665374Y-121644262D01*
X117633642Y-121648497D01*
X117603228Y-121654483D01*
X117574408Y-121662514D01*
X117560681Y-121667388D01*
X117547455Y-121672885D01*
X117534765Y-121679040D01*
X117522645Y-121685891D01*
X117511129Y-121693475D01*
X117500252Y-121701828D01*
X117490048Y-121710988D01*
X117480551Y-121720991D01*
X117471795Y-121731875D01*
X117463816Y-121743675D01*
X117456646Y-121756430D01*
X117450322Y-121770175D01*
X117444876Y-121784948D01*
X117440343Y-121800786D01*
X117436758Y-121817726D01*
X117434155Y-121835804D01*
X117432567Y-121855057D01*
X117432031Y-121875522D01*
X117200318Y-121875522D01*
X117198923Y-121868833D01*
X117195759Y-121847412D01*
X117193830Y-121825442D01*
X117193178Y-121802894D01*
X117193935Y-121776126D01*
X117196166Y-121750288D01*
X117199809Y-121725378D01*
X117204803Y-121701393D01*
X117211087Y-121678327D01*
X117218600Y-121656179D01*
X117227280Y-121634944D01*
X117237066Y-121614619D01*
X117247897Y-121595199D01*
X117259712Y-121576683D01*
X117272449Y-121559065D01*
X117286047Y-121542343D01*
X117300445Y-121526512D01*
X117315582Y-121511570D01*
X117331396Y-121497512D01*
X117347827Y-121484336D01*
X117363588Y-121472575D01*
X117379508Y-121461873D01*
X117395912Y-121452187D01*
X117413121Y-121443476D01*
X117422129Y-121439474D01*
X117431459Y-121435700D01*
X117441152Y-121432149D01*
X117451249Y-121428816D01*
X117461788Y-121425696D01*
X117472812Y-121422784D01*
X117496473Y-121417562D01*
X117522554Y-121413109D01*
X117551378Y-121409383D01*
X117583267Y-121406344D01*
X117618545Y-121403950D01*
X117657535Y-121402160D01*
X117700559Y-121400932D01*
X117747939Y-121400226D01*
X117800000Y-121400000D01*
X117900119Y-121400932D01*
G37*
D11*
X102272419Y-53350838D02*
X101272419Y-53350838D01*
X102272419Y-53779409D02*
X101748609Y-53779409D01*
X101748609Y-53779409D02*
X101653371Y-53731790D01*
X101653371Y-53731790D02*
X101605752Y-53636552D01*
X101605752Y-53636552D02*
X101605752Y-53493695D01*
X101605752Y-53493695D02*
X101653371Y-53398457D01*
X101653371Y-53398457D02*
X101700990Y-53350838D01*
X101605752Y-54112743D02*
X101605752Y-54493695D01*
X101272419Y-54255600D02*
X102129561Y-54255600D01*
X102129561Y-54255600D02*
X102224800Y-54303219D01*
X102224800Y-54303219D02*
X102272419Y-54398457D01*
X102272419Y-54398457D02*
X102272419Y-54493695D01*
X101605752Y-54684172D02*
X101605752Y-55065124D01*
X101272419Y-54827029D02*
X102129561Y-54827029D01*
X102129561Y-54827029D02*
X102224800Y-54874648D01*
X102224800Y-54874648D02*
X102272419Y-54969886D01*
X102272419Y-54969886D02*
X102272419Y-55065124D01*
X101605752Y-55398458D02*
X102605752Y-55398458D01*
X101653371Y-55398458D02*
X101605752Y-55493696D01*
X101605752Y-55493696D02*
X101605752Y-55684172D01*
X101605752Y-55684172D02*
X101653371Y-55779410D01*
X101653371Y-55779410D02*
X101700990Y-55827029D01*
X101700990Y-55827029D02*
X101796228Y-55874648D01*
X101796228Y-55874648D02*
X102081942Y-55874648D01*
X102081942Y-55874648D02*
X102177180Y-55827029D01*
X102177180Y-55827029D02*
X102224800Y-55779410D01*
X102224800Y-55779410D02*
X102272419Y-55684172D01*
X102272419Y-55684172D02*
X102272419Y-55493696D01*
X102272419Y-55493696D02*
X102224800Y-55398458D01*
X102224800Y-56255601D02*
X102272419Y-56350839D01*
X102272419Y-56350839D02*
X102272419Y-56541315D01*
X102272419Y-56541315D02*
X102224800Y-56636553D01*
X102224800Y-56636553D02*
X102129561Y-56684172D01*
X102129561Y-56684172D02*
X102081942Y-56684172D01*
X102081942Y-56684172D02*
X101986704Y-56636553D01*
X101986704Y-56636553D02*
X101939085Y-56541315D01*
X101939085Y-56541315D02*
X101939085Y-56398458D01*
X101939085Y-56398458D02*
X101891466Y-56303220D01*
X101891466Y-56303220D02*
X101796228Y-56255601D01*
X101796228Y-56255601D02*
X101748609Y-56255601D01*
X101748609Y-56255601D02*
X101653371Y-56303220D01*
X101653371Y-56303220D02*
X101605752Y-56398458D01*
X101605752Y-56398458D02*
X101605752Y-56541315D01*
X101605752Y-56541315D02*
X101653371Y-56636553D01*
X102177180Y-57112744D02*
X102224800Y-57160363D01*
X102224800Y-57160363D02*
X102272419Y-57112744D01*
X102272419Y-57112744D02*
X102224800Y-57065125D01*
X102224800Y-57065125D02*
X102177180Y-57112744D01*
X102177180Y-57112744D02*
X102272419Y-57112744D01*
X101653371Y-57112744D02*
X101700990Y-57160363D01*
X101700990Y-57160363D02*
X101748609Y-57112744D01*
X101748609Y-57112744D02*
X101700990Y-57065125D01*
X101700990Y-57065125D02*
X101653371Y-57112744D01*
X101653371Y-57112744D02*
X101748609Y-57112744D01*
X101224800Y-58303219D02*
X102510514Y-57446077D01*
X101224800Y-59350838D02*
X102510514Y-58493696D01*
X101605752Y-60112743D02*
X102415276Y-60112743D01*
X102415276Y-60112743D02*
X102510514Y-60065124D01*
X102510514Y-60065124D02*
X102558133Y-60017505D01*
X102558133Y-60017505D02*
X102605752Y-59922267D01*
X102605752Y-59922267D02*
X102605752Y-59779410D01*
X102605752Y-59779410D02*
X102558133Y-59684172D01*
X102224800Y-60112743D02*
X102272419Y-60017505D01*
X102272419Y-60017505D02*
X102272419Y-59827029D01*
X102272419Y-59827029D02*
X102224800Y-59731791D01*
X102224800Y-59731791D02*
X102177180Y-59684172D01*
X102177180Y-59684172D02*
X102081942Y-59636553D01*
X102081942Y-59636553D02*
X101796228Y-59636553D01*
X101796228Y-59636553D02*
X101700990Y-59684172D01*
X101700990Y-59684172D02*
X101653371Y-59731791D01*
X101653371Y-59731791D02*
X101605752Y-59827029D01*
X101605752Y-59827029D02*
X101605752Y-60017505D01*
X101605752Y-60017505D02*
X101653371Y-60112743D01*
X102272419Y-60588934D02*
X101605752Y-60588934D01*
X101272419Y-60588934D02*
X101320038Y-60541315D01*
X101320038Y-60541315D02*
X101367657Y-60588934D01*
X101367657Y-60588934D02*
X101320038Y-60636553D01*
X101320038Y-60636553D02*
X101272419Y-60588934D01*
X101272419Y-60588934D02*
X101367657Y-60588934D01*
X101605752Y-60922267D02*
X101605752Y-61303219D01*
X101272419Y-61065124D02*
X102129561Y-61065124D01*
X102129561Y-61065124D02*
X102224800Y-61112743D01*
X102224800Y-61112743D02*
X102272419Y-61207981D01*
X102272419Y-61207981D02*
X102272419Y-61303219D01*
X102272419Y-61636553D02*
X101272419Y-61636553D01*
X102272419Y-62065124D02*
X101748609Y-62065124D01*
X101748609Y-62065124D02*
X101653371Y-62017505D01*
X101653371Y-62017505D02*
X101605752Y-61922267D01*
X101605752Y-61922267D02*
X101605752Y-61779410D01*
X101605752Y-61779410D02*
X101653371Y-61684172D01*
X101653371Y-61684172D02*
X101700990Y-61636553D01*
X101605752Y-62969886D02*
X102272419Y-62969886D01*
X101605752Y-62541315D02*
X102129561Y-62541315D01*
X102129561Y-62541315D02*
X102224800Y-62588934D01*
X102224800Y-62588934D02*
X102272419Y-62684172D01*
X102272419Y-62684172D02*
X102272419Y-62827029D01*
X102272419Y-62827029D02*
X102224800Y-62922267D01*
X102224800Y-62922267D02*
X102177180Y-62969886D01*
X102272419Y-63446077D02*
X101272419Y-63446077D01*
X101653371Y-63446077D02*
X101605752Y-63541315D01*
X101605752Y-63541315D02*
X101605752Y-63731791D01*
X101605752Y-63731791D02*
X101653371Y-63827029D01*
X101653371Y-63827029D02*
X101700990Y-63874648D01*
X101700990Y-63874648D02*
X101796228Y-63922267D01*
X101796228Y-63922267D02*
X102081942Y-63922267D01*
X102081942Y-63922267D02*
X102177180Y-63874648D01*
X102177180Y-63874648D02*
X102224800Y-63827029D01*
X102224800Y-63827029D02*
X102272419Y-63731791D01*
X102272419Y-63731791D02*
X102272419Y-63541315D01*
X102272419Y-63541315D02*
X102224800Y-63446077D01*
X102177180Y-64350839D02*
X102224800Y-64398458D01*
X102224800Y-64398458D02*
X102272419Y-64350839D01*
X102272419Y-64350839D02*
X102224800Y-64303220D01*
X102224800Y-64303220D02*
X102177180Y-64350839D01*
X102177180Y-64350839D02*
X102272419Y-64350839D01*
X102224800Y-65255600D02*
X102272419Y-65160362D01*
X102272419Y-65160362D02*
X102272419Y-64969886D01*
X102272419Y-64969886D02*
X102224800Y-64874648D01*
X102224800Y-64874648D02*
X102177180Y-64827029D01*
X102177180Y-64827029D02*
X102081942Y-64779410D01*
X102081942Y-64779410D02*
X101796228Y-64779410D01*
X101796228Y-64779410D02*
X101700990Y-64827029D01*
X101700990Y-64827029D02*
X101653371Y-64874648D01*
X101653371Y-64874648D02*
X101605752Y-64969886D01*
X101605752Y-64969886D02*
X101605752Y-65160362D01*
X101605752Y-65160362D02*
X101653371Y-65255600D01*
X102272419Y-65827029D02*
X102224800Y-65731791D01*
X102224800Y-65731791D02*
X102177180Y-65684172D01*
X102177180Y-65684172D02*
X102081942Y-65636553D01*
X102081942Y-65636553D02*
X101796228Y-65636553D01*
X101796228Y-65636553D02*
X101700990Y-65684172D01*
X101700990Y-65684172D02*
X101653371Y-65731791D01*
X101653371Y-65731791D02*
X101605752Y-65827029D01*
X101605752Y-65827029D02*
X101605752Y-65969886D01*
X101605752Y-65969886D02*
X101653371Y-66065124D01*
X101653371Y-66065124D02*
X101700990Y-66112743D01*
X101700990Y-66112743D02*
X101796228Y-66160362D01*
X101796228Y-66160362D02*
X102081942Y-66160362D01*
X102081942Y-66160362D02*
X102177180Y-66112743D01*
X102177180Y-66112743D02*
X102224800Y-66065124D01*
X102224800Y-66065124D02*
X102272419Y-65969886D01*
X102272419Y-65969886D02*
X102272419Y-65827029D01*
X102272419Y-66588934D02*
X101605752Y-66588934D01*
X101700990Y-66588934D02*
X101653371Y-66636553D01*
X101653371Y-66636553D02*
X101605752Y-66731791D01*
X101605752Y-66731791D02*
X101605752Y-66874648D01*
X101605752Y-66874648D02*
X101653371Y-66969886D01*
X101653371Y-66969886D02*
X101748609Y-67017505D01*
X101748609Y-67017505D02*
X102272419Y-67017505D01*
X101748609Y-67017505D02*
X101653371Y-67065124D01*
X101653371Y-67065124D02*
X101605752Y-67160362D01*
X101605752Y-67160362D02*
X101605752Y-67303219D01*
X101605752Y-67303219D02*
X101653371Y-67398458D01*
X101653371Y-67398458D02*
X101748609Y-67446077D01*
X101748609Y-67446077D02*
X102272419Y-67446077D01*
X101224800Y-68636552D02*
X102510514Y-67779410D01*
X102224800Y-68922267D02*
X102272419Y-69017505D01*
X102272419Y-69017505D02*
X102272419Y-69207981D01*
X102272419Y-69207981D02*
X102224800Y-69303219D01*
X102224800Y-69303219D02*
X102129561Y-69350838D01*
X102129561Y-69350838D02*
X102081942Y-69350838D01*
X102081942Y-69350838D02*
X101986704Y-69303219D01*
X101986704Y-69303219D02*
X101939085Y-69207981D01*
X101939085Y-69207981D02*
X101939085Y-69065124D01*
X101939085Y-69065124D02*
X101891466Y-68969886D01*
X101891466Y-68969886D02*
X101796228Y-68922267D01*
X101796228Y-68922267D02*
X101748609Y-68922267D01*
X101748609Y-68922267D02*
X101653371Y-68969886D01*
X101653371Y-68969886D02*
X101605752Y-69065124D01*
X101605752Y-69065124D02*
X101605752Y-69207981D01*
X101605752Y-69207981D02*
X101653371Y-69303219D01*
X102272419Y-70207981D02*
X101748609Y-70207981D01*
X101748609Y-70207981D02*
X101653371Y-70160362D01*
X101653371Y-70160362D02*
X101605752Y-70065124D01*
X101605752Y-70065124D02*
X101605752Y-69874648D01*
X101605752Y-69874648D02*
X101653371Y-69779410D01*
X102224800Y-70207981D02*
X102272419Y-70112743D01*
X102272419Y-70112743D02*
X102272419Y-69874648D01*
X102272419Y-69874648D02*
X102224800Y-69779410D01*
X102224800Y-69779410D02*
X102129561Y-69731791D01*
X102129561Y-69731791D02*
X102034323Y-69731791D01*
X102034323Y-69731791D02*
X101939085Y-69779410D01*
X101939085Y-69779410D02*
X101891466Y-69874648D01*
X101891466Y-69874648D02*
X101891466Y-70112743D01*
X101891466Y-70112743D02*
X101843847Y-70207981D01*
X102272419Y-70684172D02*
X101605752Y-70684172D01*
X101272419Y-70684172D02*
X101320038Y-70636553D01*
X101320038Y-70636553D02*
X101367657Y-70684172D01*
X101367657Y-70684172D02*
X101320038Y-70731791D01*
X101320038Y-70731791D02*
X101272419Y-70684172D01*
X101272419Y-70684172D02*
X101367657Y-70684172D01*
X101605752Y-71017505D02*
X101605752Y-71398457D01*
X101272419Y-71160362D02*
X102129561Y-71160362D01*
X102129561Y-71160362D02*
X102224800Y-71207981D01*
X102224800Y-71207981D02*
X102272419Y-71303219D01*
X102272419Y-71303219D02*
X102272419Y-71398457D01*
X102272419Y-71731791D02*
X101605752Y-71731791D01*
X101272419Y-71731791D02*
X101320038Y-71684172D01*
X101320038Y-71684172D02*
X101367657Y-71731791D01*
X101367657Y-71731791D02*
X101320038Y-71779410D01*
X101320038Y-71779410D02*
X101272419Y-71731791D01*
X101272419Y-71731791D02*
X101367657Y-71731791D01*
X102224800Y-72160362D02*
X102272419Y-72255600D01*
X102272419Y-72255600D02*
X102272419Y-72446076D01*
X102272419Y-72446076D02*
X102224800Y-72541314D01*
X102224800Y-72541314D02*
X102129561Y-72588933D01*
X102129561Y-72588933D02*
X102081942Y-72588933D01*
X102081942Y-72588933D02*
X101986704Y-72541314D01*
X101986704Y-72541314D02*
X101939085Y-72446076D01*
X101939085Y-72446076D02*
X101939085Y-72303219D01*
X101939085Y-72303219D02*
X101891466Y-72207981D01*
X101891466Y-72207981D02*
X101796228Y-72160362D01*
X101796228Y-72160362D02*
X101748609Y-72160362D01*
X101748609Y-72160362D02*
X101653371Y-72207981D01*
X101653371Y-72207981D02*
X101605752Y-72303219D01*
X101605752Y-72303219D02*
X101605752Y-72446076D01*
X101605752Y-72446076D02*
X101653371Y-72541314D01*
X101891466Y-73017505D02*
X101891466Y-73779410D01*
X101605752Y-74255600D02*
X102272419Y-74255600D01*
X101700990Y-74255600D02*
X101653371Y-74303219D01*
X101653371Y-74303219D02*
X101605752Y-74398457D01*
X101605752Y-74398457D02*
X101605752Y-74541314D01*
X101605752Y-74541314D02*
X101653371Y-74636552D01*
X101653371Y-74636552D02*
X101748609Y-74684171D01*
X101748609Y-74684171D02*
X102272419Y-74684171D01*
X102224800Y-75541314D02*
X102272419Y-75446076D01*
X102272419Y-75446076D02*
X102272419Y-75255600D01*
X102272419Y-75255600D02*
X102224800Y-75160362D01*
X102224800Y-75160362D02*
X102129561Y-75112743D01*
X102129561Y-75112743D02*
X101748609Y-75112743D01*
X101748609Y-75112743D02*
X101653371Y-75160362D01*
X101653371Y-75160362D02*
X101605752Y-75255600D01*
X101605752Y-75255600D02*
X101605752Y-75446076D01*
X101605752Y-75446076D02*
X101653371Y-75541314D01*
X101653371Y-75541314D02*
X101748609Y-75588933D01*
X101748609Y-75588933D02*
X101843847Y-75588933D01*
X101843847Y-75588933D02*
X101939085Y-75112743D01*
X101605752Y-75874648D02*
X101605752Y-76255600D01*
X101272419Y-76017505D02*
X102129561Y-76017505D01*
X102129561Y-76017505D02*
X102224800Y-76065124D01*
X102224800Y-76065124D02*
X102272419Y-76160362D01*
X102272419Y-76160362D02*
X102272419Y-76255600D01*
X101224800Y-77303219D02*
X102510514Y-76446077D01*
X102224800Y-77588934D02*
X102272419Y-77684172D01*
X102272419Y-77684172D02*
X102272419Y-77874648D01*
X102272419Y-77874648D02*
X102224800Y-77969886D01*
X102224800Y-77969886D02*
X102129561Y-78017505D01*
X102129561Y-78017505D02*
X102081942Y-78017505D01*
X102081942Y-78017505D02*
X101986704Y-77969886D01*
X101986704Y-77969886D02*
X101939085Y-77874648D01*
X101939085Y-77874648D02*
X101939085Y-77731791D01*
X101939085Y-77731791D02*
X101891466Y-77636553D01*
X101891466Y-77636553D02*
X101796228Y-77588934D01*
X101796228Y-77588934D02*
X101748609Y-77588934D01*
X101748609Y-77588934D02*
X101653371Y-77636553D01*
X101653371Y-77636553D02*
X101605752Y-77731791D01*
X101605752Y-77731791D02*
X101605752Y-77874648D01*
X101605752Y-77874648D02*
X101653371Y-77969886D01*
X102272419Y-78588934D02*
X102224800Y-78493696D01*
X102224800Y-78493696D02*
X102129561Y-78446077D01*
X102129561Y-78446077D02*
X101272419Y-78446077D01*
X101700990Y-79112744D02*
X101653371Y-79017506D01*
X101653371Y-79017506D02*
X101605752Y-78969887D01*
X101605752Y-78969887D02*
X101510514Y-78922268D01*
X101510514Y-78922268D02*
X101462895Y-78922268D01*
X101462895Y-78922268D02*
X101367657Y-78969887D01*
X101367657Y-78969887D02*
X101320038Y-79017506D01*
X101320038Y-79017506D02*
X101272419Y-79112744D01*
X101272419Y-79112744D02*
X101272419Y-79303220D01*
X101272419Y-79303220D02*
X101320038Y-79398458D01*
X101320038Y-79398458D02*
X101367657Y-79446077D01*
X101367657Y-79446077D02*
X101462895Y-79493696D01*
X101462895Y-79493696D02*
X101510514Y-79493696D01*
X101510514Y-79493696D02*
X101605752Y-79446077D01*
X101605752Y-79446077D02*
X101653371Y-79398458D01*
X101653371Y-79398458D02*
X101700990Y-79303220D01*
X101700990Y-79303220D02*
X101700990Y-79112744D01*
X101700990Y-79112744D02*
X101748609Y-79017506D01*
X101748609Y-79017506D02*
X101796228Y-78969887D01*
X101796228Y-78969887D02*
X101891466Y-78922268D01*
X101891466Y-78922268D02*
X102081942Y-78922268D01*
X102081942Y-78922268D02*
X102177180Y-78969887D01*
X102177180Y-78969887D02*
X102224800Y-79017506D01*
X102224800Y-79017506D02*
X102272419Y-79112744D01*
X102272419Y-79112744D02*
X102272419Y-79303220D01*
X102272419Y-79303220D02*
X102224800Y-79398458D01*
X102224800Y-79398458D02*
X102177180Y-79446077D01*
X102177180Y-79446077D02*
X102081942Y-79493696D01*
X102081942Y-79493696D02*
X101891466Y-79493696D01*
X101891466Y-79493696D02*
X101796228Y-79446077D01*
X101796228Y-79446077D02*
X101748609Y-79398458D01*
X101748609Y-79398458D02*
X101700990Y-79303220D01*
X101272419Y-80398458D02*
X101272419Y-79922268D01*
X101272419Y-79922268D02*
X101748609Y-79874649D01*
X101748609Y-79874649D02*
X101700990Y-79922268D01*
X101700990Y-79922268D02*
X101653371Y-80017506D01*
X101653371Y-80017506D02*
X101653371Y-80255601D01*
X101653371Y-80255601D02*
X101700990Y-80350839D01*
X101700990Y-80350839D02*
X101748609Y-80398458D01*
X101748609Y-80398458D02*
X101843847Y-80446077D01*
X101843847Y-80446077D02*
X102081942Y-80446077D01*
X102081942Y-80446077D02*
X102177180Y-80398458D01*
X102177180Y-80398458D02*
X102224800Y-80350839D01*
X102224800Y-80350839D02*
X102272419Y-80255601D01*
X102272419Y-80255601D02*
X102272419Y-80017506D01*
X102272419Y-80017506D02*
X102224800Y-79922268D01*
X102224800Y-79922268D02*
X102177180Y-79874649D01*
X101272419Y-81065125D02*
X101272419Y-81160363D01*
X101272419Y-81160363D02*
X101320038Y-81255601D01*
X101320038Y-81255601D02*
X101367657Y-81303220D01*
X101367657Y-81303220D02*
X101462895Y-81350839D01*
X101462895Y-81350839D02*
X101653371Y-81398458D01*
X101653371Y-81398458D02*
X101891466Y-81398458D01*
X101891466Y-81398458D02*
X102081942Y-81350839D01*
X102081942Y-81350839D02*
X102177180Y-81303220D01*
X102177180Y-81303220D02*
X102224800Y-81255601D01*
X102224800Y-81255601D02*
X102272419Y-81160363D01*
X102272419Y-81160363D02*
X102272419Y-81065125D01*
X102272419Y-81065125D02*
X102224800Y-80969887D01*
X102224800Y-80969887D02*
X102177180Y-80922268D01*
X102177180Y-80922268D02*
X102081942Y-80874649D01*
X102081942Y-80874649D02*
X101891466Y-80827030D01*
X101891466Y-80827030D02*
X101653371Y-80827030D01*
X101653371Y-80827030D02*
X101462895Y-80874649D01*
X101462895Y-80874649D02*
X101367657Y-80922268D01*
X101367657Y-80922268D02*
X101320038Y-80969887D01*
X101320038Y-80969887D02*
X101272419Y-81065125D01*
X101272419Y-82017506D02*
X101272419Y-82112744D01*
X101272419Y-82112744D02*
X101320038Y-82207982D01*
X101320038Y-82207982D02*
X101367657Y-82255601D01*
X101367657Y-82255601D02*
X101462895Y-82303220D01*
X101462895Y-82303220D02*
X101653371Y-82350839D01*
X101653371Y-82350839D02*
X101891466Y-82350839D01*
X101891466Y-82350839D02*
X102081942Y-82303220D01*
X102081942Y-82303220D02*
X102177180Y-82255601D01*
X102177180Y-82255601D02*
X102224800Y-82207982D01*
X102224800Y-82207982D02*
X102272419Y-82112744D01*
X102272419Y-82112744D02*
X102272419Y-82017506D01*
X102272419Y-82017506D02*
X102224800Y-81922268D01*
X102224800Y-81922268D02*
X102177180Y-81874649D01*
X102177180Y-81874649D02*
X102081942Y-81827030D01*
X102081942Y-81827030D02*
X101891466Y-81779411D01*
X101891466Y-81779411D02*
X101653371Y-81779411D01*
X101653371Y-81779411D02*
X101462895Y-81827030D01*
X101462895Y-81827030D02*
X101367657Y-81874649D01*
X101367657Y-81874649D02*
X101320038Y-81922268D01*
X101320038Y-81922268D02*
X101272419Y-82017506D01*
X102367657Y-82541316D02*
X102367657Y-83303220D01*
X102272419Y-83541316D02*
X101605752Y-83541316D01*
X101796228Y-83541316D02*
X101700990Y-83588935D01*
X101700990Y-83588935D02*
X101653371Y-83636554D01*
X101653371Y-83636554D02*
X101605752Y-83731792D01*
X101605752Y-83731792D02*
X101605752Y-83827030D01*
X102224800Y-84541316D02*
X102272419Y-84446078D01*
X102272419Y-84446078D02*
X102272419Y-84255602D01*
X102272419Y-84255602D02*
X102224800Y-84160364D01*
X102224800Y-84160364D02*
X102129561Y-84112745D01*
X102129561Y-84112745D02*
X101748609Y-84112745D01*
X101748609Y-84112745D02*
X101653371Y-84160364D01*
X101653371Y-84160364D02*
X101605752Y-84255602D01*
X101605752Y-84255602D02*
X101605752Y-84446078D01*
X101605752Y-84446078D02*
X101653371Y-84541316D01*
X101653371Y-84541316D02*
X101748609Y-84588935D01*
X101748609Y-84588935D02*
X101843847Y-84588935D01*
X101843847Y-84588935D02*
X101939085Y-84112745D01*
X101605752Y-84874650D02*
X101605752Y-85255602D01*
X101272419Y-85017507D02*
X102129561Y-85017507D01*
X102129561Y-85017507D02*
X102224800Y-85065126D01*
X102224800Y-85065126D02*
X102272419Y-85160364D01*
X102272419Y-85160364D02*
X102272419Y-85255602D01*
X102272419Y-85588936D02*
X101605752Y-85588936D01*
X101796228Y-85588936D02*
X101700990Y-85636555D01*
X101700990Y-85636555D02*
X101653371Y-85684174D01*
X101653371Y-85684174D02*
X101605752Y-85779412D01*
X101605752Y-85779412D02*
X101605752Y-85874650D01*
X102272419Y-86350841D02*
X102224800Y-86255603D01*
X102224800Y-86255603D02*
X102177180Y-86207984D01*
X102177180Y-86207984D02*
X102081942Y-86160365D01*
X102081942Y-86160365D02*
X101796228Y-86160365D01*
X101796228Y-86160365D02*
X101700990Y-86207984D01*
X101700990Y-86207984D02*
X101653371Y-86255603D01*
X101653371Y-86255603D02*
X101605752Y-86350841D01*
X101605752Y-86350841D02*
X101605752Y-86493698D01*
X101605752Y-86493698D02*
X101653371Y-86588936D01*
X101653371Y-86588936D02*
X101700990Y-86636555D01*
X101700990Y-86636555D02*
X101796228Y-86684174D01*
X101796228Y-86684174D02*
X102081942Y-86684174D01*
X102081942Y-86684174D02*
X102177180Y-86636555D01*
X102177180Y-86636555D02*
X102224800Y-86588936D01*
X102224800Y-86588936D02*
X102272419Y-86493698D01*
X102272419Y-86493698D02*
X102272419Y-86350841D01*
X101605752Y-86969889D02*
X101605752Y-87350841D01*
X102272419Y-87112746D02*
X101415276Y-87112746D01*
X101415276Y-87112746D02*
X101320038Y-87160365D01*
X101320038Y-87160365D02*
X101272419Y-87255603D01*
X101272419Y-87255603D02*
X101272419Y-87350841D01*
X102272419Y-87684175D02*
X101605752Y-87684175D01*
X101272419Y-87684175D02*
X101320038Y-87636556D01*
X101320038Y-87636556D02*
X101367657Y-87684175D01*
X101367657Y-87684175D02*
X101320038Y-87731794D01*
X101320038Y-87731794D02*
X101272419Y-87684175D01*
X101272419Y-87684175D02*
X101367657Y-87684175D01*
X101605752Y-88017508D02*
X101605752Y-88398460D01*
X101272419Y-88160365D02*
X102129561Y-88160365D01*
X102129561Y-88160365D02*
X102224800Y-88207984D01*
X102224800Y-88207984D02*
X102272419Y-88303222D01*
X102272419Y-88303222D02*
X102272419Y-88398460D01*
X102367657Y-88493699D02*
X102367657Y-89255603D01*
X102224800Y-89874651D02*
X102272419Y-89779413D01*
X102272419Y-89779413D02*
X102272419Y-89588937D01*
X102272419Y-89588937D02*
X102224800Y-89493699D01*
X102224800Y-89493699D02*
X102129561Y-89446080D01*
X102129561Y-89446080D02*
X101748609Y-89446080D01*
X101748609Y-89446080D02*
X101653371Y-89493699D01*
X101653371Y-89493699D02*
X101605752Y-89588937D01*
X101605752Y-89588937D02*
X101605752Y-89779413D01*
X101605752Y-89779413D02*
X101653371Y-89874651D01*
X101653371Y-89874651D02*
X101748609Y-89922270D01*
X101748609Y-89922270D02*
X101843847Y-89922270D01*
X101843847Y-89922270D02*
X101939085Y-89446080D01*
X102272419Y-90493699D02*
X102224800Y-90398461D01*
X102224800Y-90398461D02*
X102129561Y-90350842D01*
X102129561Y-90350842D02*
X101272419Y-90350842D01*
X102224800Y-91255604D02*
X102272419Y-91160366D01*
X102272419Y-91160366D02*
X102272419Y-90969890D01*
X102272419Y-90969890D02*
X102224800Y-90874652D01*
X102224800Y-90874652D02*
X102129561Y-90827033D01*
X102129561Y-90827033D02*
X101748609Y-90827033D01*
X101748609Y-90827033D02*
X101653371Y-90874652D01*
X101653371Y-90874652D02*
X101605752Y-90969890D01*
X101605752Y-90969890D02*
X101605752Y-91160366D01*
X101605752Y-91160366D02*
X101653371Y-91255604D01*
X101653371Y-91255604D02*
X101748609Y-91303223D01*
X101748609Y-91303223D02*
X101843847Y-91303223D01*
X101843847Y-91303223D02*
X101939085Y-90827033D01*
X102224800Y-92160366D02*
X102272419Y-92065128D01*
X102272419Y-92065128D02*
X102272419Y-91874652D01*
X102272419Y-91874652D02*
X102224800Y-91779414D01*
X102224800Y-91779414D02*
X102177180Y-91731795D01*
X102177180Y-91731795D02*
X102081942Y-91684176D01*
X102081942Y-91684176D02*
X101796228Y-91684176D01*
X101796228Y-91684176D02*
X101700990Y-91731795D01*
X101700990Y-91731795D02*
X101653371Y-91779414D01*
X101653371Y-91779414D02*
X101605752Y-91874652D01*
X101605752Y-91874652D02*
X101605752Y-92065128D01*
X101605752Y-92065128D02*
X101653371Y-92160366D01*
X101605752Y-92446081D02*
X101605752Y-92827033D01*
X101272419Y-92588938D02*
X102129561Y-92588938D01*
X102129561Y-92588938D02*
X102224800Y-92636557D01*
X102224800Y-92636557D02*
X102272419Y-92731795D01*
X102272419Y-92731795D02*
X102272419Y-92827033D01*
X102272419Y-93160367D02*
X101605752Y-93160367D01*
X101796228Y-93160367D02*
X101700990Y-93207986D01*
X101700990Y-93207986D02*
X101653371Y-93255605D01*
X101653371Y-93255605D02*
X101605752Y-93350843D01*
X101605752Y-93350843D02*
X101605752Y-93446081D01*
X102272419Y-93922272D02*
X102224800Y-93827034D01*
X102224800Y-93827034D02*
X102177180Y-93779415D01*
X102177180Y-93779415D02*
X102081942Y-93731796D01*
X102081942Y-93731796D02*
X101796228Y-93731796D01*
X101796228Y-93731796D02*
X101700990Y-93779415D01*
X101700990Y-93779415D02*
X101653371Y-93827034D01*
X101653371Y-93827034D02*
X101605752Y-93922272D01*
X101605752Y-93922272D02*
X101605752Y-94065129D01*
X101605752Y-94065129D02*
X101653371Y-94160367D01*
X101653371Y-94160367D02*
X101700990Y-94207986D01*
X101700990Y-94207986D02*
X101796228Y-94255605D01*
X101796228Y-94255605D02*
X102081942Y-94255605D01*
X102081942Y-94255605D02*
X102177180Y-94207986D01*
X102177180Y-94207986D02*
X102224800Y-94160367D01*
X102224800Y-94160367D02*
X102272419Y-94065129D01*
X102272419Y-94065129D02*
X102272419Y-93922272D01*
X101605752Y-94684177D02*
X102272419Y-94684177D01*
X101700990Y-94684177D02*
X101653371Y-94731796D01*
X101653371Y-94731796D02*
X101605752Y-94827034D01*
X101605752Y-94827034D02*
X101605752Y-94969891D01*
X101605752Y-94969891D02*
X101653371Y-95065129D01*
X101653371Y-95065129D02*
X101748609Y-95112748D01*
X101748609Y-95112748D02*
X102272419Y-95112748D01*
X102272419Y-95588939D02*
X101605752Y-95588939D01*
X101272419Y-95588939D02*
X101320038Y-95541320D01*
X101320038Y-95541320D02*
X101367657Y-95588939D01*
X101367657Y-95588939D02*
X101320038Y-95636558D01*
X101320038Y-95636558D02*
X101272419Y-95588939D01*
X101272419Y-95588939D02*
X101367657Y-95588939D01*
X102224800Y-96493700D02*
X102272419Y-96398462D01*
X102272419Y-96398462D02*
X102272419Y-96207986D01*
X102272419Y-96207986D02*
X102224800Y-96112748D01*
X102224800Y-96112748D02*
X102177180Y-96065129D01*
X102177180Y-96065129D02*
X102081942Y-96017510D01*
X102081942Y-96017510D02*
X101796228Y-96017510D01*
X101796228Y-96017510D02*
X101700990Y-96065129D01*
X101700990Y-96065129D02*
X101653371Y-96112748D01*
X101653371Y-96112748D02*
X101605752Y-96207986D01*
X101605752Y-96207986D02*
X101605752Y-96398462D01*
X101605752Y-96398462D02*
X101653371Y-96493700D01*
X102224800Y-96874653D02*
X102272419Y-96969891D01*
X102272419Y-96969891D02*
X102272419Y-97160367D01*
X102272419Y-97160367D02*
X102224800Y-97255605D01*
X102224800Y-97255605D02*
X102129561Y-97303224D01*
X102129561Y-97303224D02*
X102081942Y-97303224D01*
X102081942Y-97303224D02*
X101986704Y-97255605D01*
X101986704Y-97255605D02*
X101939085Y-97160367D01*
X101939085Y-97160367D02*
X101939085Y-97017510D01*
X101939085Y-97017510D02*
X101891466Y-96922272D01*
X101891466Y-96922272D02*
X101796228Y-96874653D01*
X101796228Y-96874653D02*
X101748609Y-96874653D01*
X101748609Y-96874653D02*
X101653371Y-96922272D01*
X101653371Y-96922272D02*
X101605752Y-97017510D01*
X101605752Y-97017510D02*
X101605752Y-97160367D01*
X101605752Y-97160367D02*
X101653371Y-97255605D01*
X101224800Y-98446081D02*
X102510514Y-97588939D01*
X101605752Y-98636558D02*
X101605752Y-99017510D01*
X101272419Y-98779415D02*
X102129561Y-98779415D01*
X102129561Y-98779415D02*
X102224800Y-98827034D01*
X102224800Y-98827034D02*
X102272419Y-98922272D01*
X102272419Y-98922272D02*
X102272419Y-99017510D01*
X102272419Y-99350844D02*
X101605752Y-99350844D01*
X101796228Y-99350844D02*
X101700990Y-99398463D01*
X101700990Y-99398463D02*
X101653371Y-99446082D01*
X101653371Y-99446082D02*
X101605752Y-99541320D01*
X101605752Y-99541320D02*
X101605752Y-99636558D01*
X102224800Y-100350844D02*
X102272419Y-100255606D01*
X102272419Y-100255606D02*
X102272419Y-100065130D01*
X102272419Y-100065130D02*
X102224800Y-99969892D01*
X102224800Y-99969892D02*
X102129561Y-99922273D01*
X102129561Y-99922273D02*
X101748609Y-99922273D01*
X101748609Y-99922273D02*
X101653371Y-99969892D01*
X101653371Y-99969892D02*
X101605752Y-100065130D01*
X101605752Y-100065130D02*
X101605752Y-100255606D01*
X101605752Y-100255606D02*
X101653371Y-100350844D01*
X101653371Y-100350844D02*
X101748609Y-100398463D01*
X101748609Y-100398463D02*
X101843847Y-100398463D01*
X101843847Y-100398463D02*
X101939085Y-99922273D01*
X102224800Y-101207987D02*
X102272419Y-101112749D01*
X102272419Y-101112749D02*
X102272419Y-100922273D01*
X102272419Y-100922273D02*
X102224800Y-100827035D01*
X102224800Y-100827035D02*
X102129561Y-100779416D01*
X102129561Y-100779416D02*
X101748609Y-100779416D01*
X101748609Y-100779416D02*
X101653371Y-100827035D01*
X101653371Y-100827035D02*
X101605752Y-100922273D01*
X101605752Y-100922273D02*
X101605752Y-101112749D01*
X101605752Y-101112749D02*
X101653371Y-101207987D01*
X101653371Y-101207987D02*
X101748609Y-101255606D01*
X101748609Y-101255606D02*
X101843847Y-101255606D01*
X101843847Y-101255606D02*
X101939085Y-100779416D01*
X101224800Y-102398463D02*
X102510514Y-101541321D01*
X102272419Y-102731797D02*
X101605752Y-102731797D01*
X101700990Y-102731797D02*
X101653371Y-102779416D01*
X101653371Y-102779416D02*
X101605752Y-102874654D01*
X101605752Y-102874654D02*
X101605752Y-103017511D01*
X101605752Y-103017511D02*
X101653371Y-103112749D01*
X101653371Y-103112749D02*
X101748609Y-103160368D01*
X101748609Y-103160368D02*
X102272419Y-103160368D01*
X101748609Y-103160368D02*
X101653371Y-103207987D01*
X101653371Y-103207987D02*
X101605752Y-103303225D01*
X101605752Y-103303225D02*
X101605752Y-103446082D01*
X101605752Y-103446082D02*
X101653371Y-103541321D01*
X101653371Y-103541321D02*
X101748609Y-103588940D01*
X101748609Y-103588940D02*
X102272419Y-103588940D01*
X102272419Y-104493701D02*
X101748609Y-104493701D01*
X101748609Y-104493701D02*
X101653371Y-104446082D01*
X101653371Y-104446082D02*
X101605752Y-104350844D01*
X101605752Y-104350844D02*
X101605752Y-104160368D01*
X101605752Y-104160368D02*
X101653371Y-104065130D01*
X102224800Y-104493701D02*
X102272419Y-104398463D01*
X102272419Y-104398463D02*
X102272419Y-104160368D01*
X102272419Y-104160368D02*
X102224800Y-104065130D01*
X102224800Y-104065130D02*
X102129561Y-104017511D01*
X102129561Y-104017511D02*
X102034323Y-104017511D01*
X102034323Y-104017511D02*
X101939085Y-104065130D01*
X101939085Y-104065130D02*
X101891466Y-104160368D01*
X101891466Y-104160368D02*
X101891466Y-104398463D01*
X101891466Y-104398463D02*
X101843847Y-104493701D01*
X102272419Y-104969892D02*
X101605752Y-104969892D01*
X101272419Y-104969892D02*
X101320038Y-104922273D01*
X101320038Y-104922273D02*
X101367657Y-104969892D01*
X101367657Y-104969892D02*
X101320038Y-105017511D01*
X101320038Y-105017511D02*
X101272419Y-104969892D01*
X101272419Y-104969892D02*
X101367657Y-104969892D01*
X101605752Y-105446082D02*
X102272419Y-105446082D01*
X101700990Y-105446082D02*
X101653371Y-105493701D01*
X101653371Y-105493701D02*
X101605752Y-105588939D01*
X101605752Y-105588939D02*
X101605752Y-105731796D01*
X101605752Y-105731796D02*
X101653371Y-105827034D01*
X101653371Y-105827034D02*
X101748609Y-105874653D01*
X101748609Y-105874653D02*
X102272419Y-105874653D01*
X101224800Y-107065129D02*
X102510514Y-106207987D01*
X101367657Y-107350844D02*
X101320038Y-107398463D01*
X101320038Y-107398463D02*
X101272419Y-107493701D01*
X101272419Y-107493701D02*
X101272419Y-107731796D01*
X101272419Y-107731796D02*
X101320038Y-107827034D01*
X101320038Y-107827034D02*
X101367657Y-107874653D01*
X101367657Y-107874653D02*
X101462895Y-107922272D01*
X101462895Y-107922272D02*
X101558133Y-107922272D01*
X101558133Y-107922272D02*
X101700990Y-107874653D01*
X101700990Y-107874653D02*
X102272419Y-107303225D01*
X102272419Y-107303225D02*
X102272419Y-107922272D01*
X102177180Y-108350844D02*
X102224800Y-108398463D01*
X102224800Y-108398463D02*
X102272419Y-108350844D01*
X102272419Y-108350844D02*
X102224800Y-108303225D01*
X102224800Y-108303225D02*
X102177180Y-108350844D01*
X102177180Y-108350844D02*
X102272419Y-108350844D01*
X101272419Y-109303224D02*
X101272419Y-108827034D01*
X101272419Y-108827034D02*
X101748609Y-108779415D01*
X101748609Y-108779415D02*
X101700990Y-108827034D01*
X101700990Y-108827034D02*
X101653371Y-108922272D01*
X101653371Y-108922272D02*
X101653371Y-109160367D01*
X101653371Y-109160367D02*
X101700990Y-109255605D01*
X101700990Y-109255605D02*
X101748609Y-109303224D01*
X101748609Y-109303224D02*
X101843847Y-109350843D01*
X101843847Y-109350843D02*
X102081942Y-109350843D01*
X102081942Y-109350843D02*
X102177180Y-109303224D01*
X102177180Y-109303224D02*
X102224800Y-109255605D01*
X102224800Y-109255605D02*
X102272419Y-109160367D01*
X102272419Y-109160367D02*
X102272419Y-108922272D01*
X102272419Y-108922272D02*
X102224800Y-108827034D01*
X102224800Y-108827034D02*
X102177180Y-108779415D01*
X101891466Y-109779415D02*
X101891466Y-110541320D01*
X102272419Y-111017510D02*
X101272419Y-111017510D01*
X102272419Y-111446081D02*
X101748609Y-111446081D01*
X101748609Y-111446081D02*
X101653371Y-111398462D01*
X101653371Y-111398462D02*
X101605752Y-111303224D01*
X101605752Y-111303224D02*
X101605752Y-111160367D01*
X101605752Y-111160367D02*
X101653371Y-111065129D01*
X101653371Y-111065129D02*
X101700990Y-111017510D01*
X102272419Y-112350843D02*
X101272419Y-112350843D01*
X102224800Y-112350843D02*
X102272419Y-112255605D01*
X102272419Y-112255605D02*
X102272419Y-112065129D01*
X102272419Y-112065129D02*
X102224800Y-111969891D01*
X102224800Y-111969891D02*
X102177180Y-111922272D01*
X102177180Y-111922272D02*
X102081942Y-111874653D01*
X102081942Y-111874653D02*
X101796228Y-111874653D01*
X101796228Y-111874653D02*
X101700990Y-111922272D01*
X101700990Y-111922272D02*
X101653371Y-111969891D01*
X101653371Y-111969891D02*
X101605752Y-112065129D01*
X101605752Y-112065129D02*
X101605752Y-112255605D01*
X101605752Y-112255605D02*
X101653371Y-112350843D01*
X102272419Y-113255605D02*
X101272419Y-113255605D01*
X102224800Y-113255605D02*
X102272419Y-113160367D01*
X102272419Y-113160367D02*
X102272419Y-112969891D01*
X102272419Y-112969891D02*
X102224800Y-112874653D01*
X102224800Y-112874653D02*
X102177180Y-112827034D01*
X102177180Y-112827034D02*
X102081942Y-112779415D01*
X102081942Y-112779415D02*
X101796228Y-112779415D01*
X101796228Y-112779415D02*
X101700990Y-112827034D01*
X101700990Y-112827034D02*
X101653371Y-112874653D01*
X101653371Y-112874653D02*
X101605752Y-112969891D01*
X101605752Y-112969891D02*
X101605752Y-113160367D01*
X101605752Y-113160367D02*
X101653371Y-113255605D01*
X102367657Y-113493701D02*
X102367657Y-114255605D01*
X102272419Y-114493701D02*
X101272419Y-114493701D01*
X101653371Y-114493701D02*
X101605752Y-114588939D01*
X101605752Y-114588939D02*
X101605752Y-114779415D01*
X101605752Y-114779415D02*
X101653371Y-114874653D01*
X101653371Y-114874653D02*
X101700990Y-114922272D01*
X101700990Y-114922272D02*
X101796228Y-114969891D01*
X101796228Y-114969891D02*
X102081942Y-114969891D01*
X102081942Y-114969891D02*
X102177180Y-114922272D01*
X102177180Y-114922272D02*
X102224800Y-114874653D01*
X102224800Y-114874653D02*
X102272419Y-114779415D01*
X102272419Y-114779415D02*
X102272419Y-114588939D01*
X102272419Y-114588939D02*
X102224800Y-114493701D01*
X102272419Y-115541320D02*
X102224800Y-115446082D01*
X102224800Y-115446082D02*
X102177180Y-115398463D01*
X102177180Y-115398463D02*
X102081942Y-115350844D01*
X102081942Y-115350844D02*
X101796228Y-115350844D01*
X101796228Y-115350844D02*
X101700990Y-115398463D01*
X101700990Y-115398463D02*
X101653371Y-115446082D01*
X101653371Y-115446082D02*
X101605752Y-115541320D01*
X101605752Y-115541320D02*
X101605752Y-115684177D01*
X101605752Y-115684177D02*
X101653371Y-115779415D01*
X101653371Y-115779415D02*
X101700990Y-115827034D01*
X101700990Y-115827034D02*
X101796228Y-115874653D01*
X101796228Y-115874653D02*
X102081942Y-115874653D01*
X102081942Y-115874653D02*
X102177180Y-115827034D01*
X102177180Y-115827034D02*
X102224800Y-115779415D01*
X102224800Y-115779415D02*
X102272419Y-115684177D01*
X102272419Y-115684177D02*
X102272419Y-115541320D01*
X102272419Y-116207987D02*
X101605752Y-116731796D01*
X101605752Y-116207987D02*
X102272419Y-116731796D01*
D12*
X85928727Y-41835463D02*
X85928727Y-43264034D01*
X88428727Y-42549748D02*
X85928727Y-42549748D01*
X88428727Y-45406891D02*
X88428727Y-43978320D01*
X88428727Y-44692606D02*
X85928727Y-44692606D01*
X85928727Y-44692606D02*
X86285870Y-44454510D01*
X86285870Y-44454510D02*
X86523965Y-44216415D01*
X86523965Y-44216415D02*
X86643013Y-43978320D01*
X85928727Y-46954510D02*
X85928727Y-47192605D01*
X85928727Y-47192605D02*
X86047775Y-47430701D01*
X86047775Y-47430701D02*
X86166822Y-47549748D01*
X86166822Y-47549748D02*
X86404918Y-47668796D01*
X86404918Y-47668796D02*
X86881108Y-47787843D01*
X86881108Y-47787843D02*
X87476346Y-47787843D01*
X87476346Y-47787843D02*
X87952537Y-47668796D01*
X87952537Y-47668796D02*
X88190632Y-47549748D01*
X88190632Y-47549748D02*
X88309680Y-47430701D01*
X88309680Y-47430701D02*
X88428727Y-47192605D01*
X88428727Y-47192605D02*
X88428727Y-46954510D01*
X88428727Y-46954510D02*
X88309680Y-46716415D01*
X88309680Y-46716415D02*
X88190632Y-46597367D01*
X88190632Y-46597367D02*
X87952537Y-46478320D01*
X87952537Y-46478320D02*
X87476346Y-46359272D01*
X87476346Y-46359272D02*
X86881108Y-46359272D01*
X86881108Y-46359272D02*
X86404918Y-46478320D01*
X86404918Y-46478320D02*
X86166822Y-46597367D01*
X86166822Y-46597367D02*
X86047775Y-46716415D01*
X86047775Y-46716415D02*
X85928727Y-46954510D01*
X85928727Y-49335462D02*
X85928727Y-49573557D01*
X85928727Y-49573557D02*
X86047775Y-49811653D01*
X86047775Y-49811653D02*
X86166822Y-49930700D01*
X86166822Y-49930700D02*
X86404918Y-50049748D01*
X86404918Y-50049748D02*
X86881108Y-50168795D01*
X86881108Y-50168795D02*
X87476346Y-50168795D01*
X87476346Y-50168795D02*
X87952537Y-50049748D01*
X87952537Y-50049748D02*
X88190632Y-49930700D01*
X88190632Y-49930700D02*
X88309680Y-49811653D01*
X88309680Y-49811653D02*
X88428727Y-49573557D01*
X88428727Y-49573557D02*
X88428727Y-49335462D01*
X88428727Y-49335462D02*
X88309680Y-49097367D01*
X88309680Y-49097367D02*
X88190632Y-48978319D01*
X88190632Y-48978319D02*
X87952537Y-48859272D01*
X87952537Y-48859272D02*
X87476346Y-48740224D01*
X87476346Y-48740224D02*
X86881108Y-48740224D01*
X86881108Y-48740224D02*
X86404918Y-48859272D01*
X86404918Y-48859272D02*
X86166822Y-48978319D01*
X86166822Y-48978319D02*
X86047775Y-49097367D01*
X86047775Y-49097367D02*
X85928727Y-49335462D01*
X85928727Y-51716414D02*
X85928727Y-51954509D01*
X85928727Y-51954509D02*
X86047775Y-52192605D01*
X86047775Y-52192605D02*
X86166822Y-52311652D01*
X86166822Y-52311652D02*
X86404918Y-52430700D01*
X86404918Y-52430700D02*
X86881108Y-52549747D01*
X86881108Y-52549747D02*
X87476346Y-52549747D01*
X87476346Y-52549747D02*
X87952537Y-52430700D01*
X87952537Y-52430700D02*
X88190632Y-52311652D01*
X88190632Y-52311652D02*
X88309680Y-52192605D01*
X88309680Y-52192605D02*
X88428727Y-51954509D01*
X88428727Y-51954509D02*
X88428727Y-51716414D01*
X88428727Y-51716414D02*
X88309680Y-51478319D01*
X88309680Y-51478319D02*
X88190632Y-51359271D01*
X88190632Y-51359271D02*
X87952537Y-51240224D01*
X87952537Y-51240224D02*
X87476346Y-51121176D01*
X87476346Y-51121176D02*
X86881108Y-51121176D01*
X86881108Y-51121176D02*
X86404918Y-51240224D01*
X86404918Y-51240224D02*
X86166822Y-51359271D01*
X86166822Y-51359271D02*
X86047775Y-51478319D01*
X86047775Y-51478319D02*
X85928727Y-51716414D01*
X85928727Y-54097366D02*
X85928727Y-54335461D01*
X85928727Y-54335461D02*
X86047775Y-54573557D01*
X86047775Y-54573557D02*
X86166822Y-54692604D01*
X86166822Y-54692604D02*
X86404918Y-54811652D01*
X86404918Y-54811652D02*
X86881108Y-54930699D01*
X86881108Y-54930699D02*
X87476346Y-54930699D01*
X87476346Y-54930699D02*
X87952537Y-54811652D01*
X87952537Y-54811652D02*
X88190632Y-54692604D01*
X88190632Y-54692604D02*
X88309680Y-54573557D01*
X88309680Y-54573557D02*
X88428727Y-54335461D01*
X88428727Y-54335461D02*
X88428727Y-54097366D01*
X88428727Y-54097366D02*
X88309680Y-53859271D01*
X88309680Y-53859271D02*
X88190632Y-53740223D01*
X88190632Y-53740223D02*
X87952537Y-53621176D01*
X87952537Y-53621176D02*
X87476346Y-53502128D01*
X87476346Y-53502128D02*
X86881108Y-53502128D01*
X86881108Y-53502128D02*
X86404918Y-53621176D01*
X86404918Y-53621176D02*
X86166822Y-53740223D01*
X86166822Y-53740223D02*
X86047775Y-53859271D01*
X86047775Y-53859271D02*
X85928727Y-54097366D01*
X85809680Y-57787842D02*
X89023965Y-55644985D01*
X85928727Y-58264033D02*
X85928727Y-59692604D01*
X88428727Y-58978318D02*
X85928727Y-58978318D01*
X88428727Y-61835461D02*
X88428727Y-60406890D01*
X88428727Y-61121176D02*
X85928727Y-61121176D01*
X85928727Y-61121176D02*
X86285870Y-60883080D01*
X86285870Y-60883080D02*
X86523965Y-60644985D01*
X86523965Y-60644985D02*
X86643013Y-60406890D01*
X85928727Y-63383080D02*
X85928727Y-63621175D01*
X85928727Y-63621175D02*
X86047775Y-63859271D01*
X86047775Y-63859271D02*
X86166822Y-63978318D01*
X86166822Y-63978318D02*
X86404918Y-64097366D01*
X86404918Y-64097366D02*
X86881108Y-64216413D01*
X86881108Y-64216413D02*
X87476346Y-64216413D01*
X87476346Y-64216413D02*
X87952537Y-64097366D01*
X87952537Y-64097366D02*
X88190632Y-63978318D01*
X88190632Y-63978318D02*
X88309680Y-63859271D01*
X88309680Y-63859271D02*
X88428727Y-63621175D01*
X88428727Y-63621175D02*
X88428727Y-63383080D01*
X88428727Y-63383080D02*
X88309680Y-63144985D01*
X88309680Y-63144985D02*
X88190632Y-63025937D01*
X88190632Y-63025937D02*
X87952537Y-62906890D01*
X87952537Y-62906890D02*
X87476346Y-62787842D01*
X87476346Y-62787842D02*
X86881108Y-62787842D01*
X86881108Y-62787842D02*
X86404918Y-62906890D01*
X86404918Y-62906890D02*
X86166822Y-63025937D01*
X86166822Y-63025937D02*
X86047775Y-63144985D01*
X86047775Y-63144985D02*
X85928727Y-63383080D01*
X88428727Y-65287842D02*
X85928727Y-65287842D01*
X88428727Y-66716413D02*
X87000156Y-65644984D01*
X85928727Y-66716413D02*
X87357299Y-65287842D01*
X88309680Y-69573556D02*
X88428727Y-69811651D01*
X88428727Y-69811651D02*
X88428727Y-70287842D01*
X88428727Y-70287842D02*
X88309680Y-70525937D01*
X88309680Y-70525937D02*
X88071584Y-70644985D01*
X88071584Y-70644985D02*
X87952537Y-70644985D01*
X87952537Y-70644985D02*
X87714441Y-70525937D01*
X87714441Y-70525937D02*
X87595394Y-70287842D01*
X87595394Y-70287842D02*
X87595394Y-69930699D01*
X87595394Y-69930699D02*
X87476346Y-69692604D01*
X87476346Y-69692604D02*
X87238251Y-69573556D01*
X87238251Y-69573556D02*
X87119203Y-69573556D01*
X87119203Y-69573556D02*
X86881108Y-69692604D01*
X86881108Y-69692604D02*
X86762060Y-69930699D01*
X86762060Y-69930699D02*
X86762060Y-70287842D01*
X86762060Y-70287842D02*
X86881108Y-70525937D01*
X88428727Y-71716414D02*
X86762060Y-71716414D01*
X85928727Y-71716414D02*
X86047775Y-71597366D01*
X86047775Y-71597366D02*
X86166822Y-71716414D01*
X86166822Y-71716414D02*
X86047775Y-71835461D01*
X86047775Y-71835461D02*
X85928727Y-71716414D01*
X85928727Y-71716414D02*
X86166822Y-71716414D01*
X86762060Y-72668794D02*
X86762060Y-73978318D01*
X86762060Y-73978318D02*
X88428727Y-72668794D01*
X88428727Y-72668794D02*
X88428727Y-73978318D01*
X88309680Y-75883081D02*
X88428727Y-75644985D01*
X88428727Y-75644985D02*
X88428727Y-75168795D01*
X88428727Y-75168795D02*
X88309680Y-74930700D01*
X88309680Y-74930700D02*
X88071584Y-74811652D01*
X88071584Y-74811652D02*
X87119203Y-74811652D01*
X87119203Y-74811652D02*
X86881108Y-74930700D01*
X86881108Y-74930700D02*
X86762060Y-75168795D01*
X86762060Y-75168795D02*
X86762060Y-75644985D01*
X86762060Y-75644985D02*
X86881108Y-75883081D01*
X86881108Y-75883081D02*
X87119203Y-76002128D01*
X87119203Y-76002128D02*
X87357299Y-76002128D01*
X87357299Y-76002128D02*
X87595394Y-74811652D01*
X88428727Y-78978319D02*
X85928727Y-78978319D01*
X86881108Y-78978319D02*
X86762060Y-79216414D01*
X86762060Y-79216414D02*
X86762060Y-79692604D01*
X86762060Y-79692604D02*
X86881108Y-79930700D01*
X86881108Y-79930700D02*
X87000156Y-80049747D01*
X87000156Y-80049747D02*
X87238251Y-80168795D01*
X87238251Y-80168795D02*
X87952537Y-80168795D01*
X87952537Y-80168795D02*
X88190632Y-80049747D01*
X88190632Y-80049747D02*
X88309680Y-79930700D01*
X88309680Y-79930700D02*
X88428727Y-79692604D01*
X88428727Y-79692604D02*
X88428727Y-79216414D01*
X88428727Y-79216414D02*
X88309680Y-78978319D01*
X88428727Y-81597366D02*
X88309680Y-81359271D01*
X88309680Y-81359271D02*
X88190632Y-81240224D01*
X88190632Y-81240224D02*
X87952537Y-81121176D01*
X87952537Y-81121176D02*
X87238251Y-81121176D01*
X87238251Y-81121176D02*
X87000156Y-81240224D01*
X87000156Y-81240224D02*
X86881108Y-81359271D01*
X86881108Y-81359271D02*
X86762060Y-81597366D01*
X86762060Y-81597366D02*
X86762060Y-81954509D01*
X86762060Y-81954509D02*
X86881108Y-82192605D01*
X86881108Y-82192605D02*
X87000156Y-82311652D01*
X87000156Y-82311652D02*
X87238251Y-82430700D01*
X87238251Y-82430700D02*
X87952537Y-82430700D01*
X87952537Y-82430700D02*
X88190632Y-82311652D01*
X88190632Y-82311652D02*
X88309680Y-82192605D01*
X88309680Y-82192605D02*
X88428727Y-81954509D01*
X88428727Y-81954509D02*
X88428727Y-81597366D01*
X88428727Y-83264033D02*
X86762060Y-84573557D01*
X86762060Y-83264033D02*
X88428727Y-84573557D01*
X86762060Y-87073558D02*
X86762060Y-88025939D01*
X88428727Y-87430701D02*
X86285870Y-87430701D01*
X86285870Y-87430701D02*
X86047775Y-87549748D01*
X86047775Y-87549748D02*
X85928727Y-87787843D01*
X85928727Y-87787843D02*
X85928727Y-88025939D01*
X88428727Y-89216414D02*
X88309680Y-88978319D01*
X88309680Y-88978319D02*
X88190632Y-88859272D01*
X88190632Y-88859272D02*
X87952537Y-88740224D01*
X87952537Y-88740224D02*
X87238251Y-88740224D01*
X87238251Y-88740224D02*
X87000156Y-88859272D01*
X87000156Y-88859272D02*
X86881108Y-88978319D01*
X86881108Y-88978319D02*
X86762060Y-89216414D01*
X86762060Y-89216414D02*
X86762060Y-89573557D01*
X86762060Y-89573557D02*
X86881108Y-89811653D01*
X86881108Y-89811653D02*
X87000156Y-89930700D01*
X87000156Y-89930700D02*
X87238251Y-90049748D01*
X87238251Y-90049748D02*
X87952537Y-90049748D01*
X87952537Y-90049748D02*
X88190632Y-89930700D01*
X88190632Y-89930700D02*
X88309680Y-89811653D01*
X88309680Y-89811653D02*
X88428727Y-89573557D01*
X88428727Y-89573557D02*
X88428727Y-89216414D01*
X88428727Y-91121177D02*
X86762060Y-91121177D01*
X87238251Y-91121177D02*
X87000156Y-91240224D01*
X87000156Y-91240224D02*
X86881108Y-91359272D01*
X86881108Y-91359272D02*
X86762060Y-91597367D01*
X86762060Y-91597367D02*
X86762060Y-91835462D01*
X86166822Y-94454510D02*
X86047775Y-94573558D01*
X86047775Y-94573558D02*
X85928727Y-94811653D01*
X85928727Y-94811653D02*
X85928727Y-95406891D01*
X85928727Y-95406891D02*
X86047775Y-95644986D01*
X86047775Y-95644986D02*
X86166822Y-95764034D01*
X86166822Y-95764034D02*
X86404918Y-95883081D01*
X86404918Y-95883081D02*
X86643013Y-95883081D01*
X86643013Y-95883081D02*
X87000156Y-95764034D01*
X87000156Y-95764034D02*
X88428727Y-94335462D01*
X88428727Y-94335462D02*
X88428727Y-95883081D01*
X88190632Y-96954510D02*
X88309680Y-97073557D01*
X88309680Y-97073557D02*
X88428727Y-96954510D01*
X88428727Y-96954510D02*
X88309680Y-96835462D01*
X88309680Y-96835462D02*
X88190632Y-96954510D01*
X88190632Y-96954510D02*
X88428727Y-96954510D01*
X85928727Y-99335462D02*
X85928727Y-98144986D01*
X85928727Y-98144986D02*
X87119203Y-98025938D01*
X87119203Y-98025938D02*
X87000156Y-98144986D01*
X87000156Y-98144986D02*
X86881108Y-98383081D01*
X86881108Y-98383081D02*
X86881108Y-98978319D01*
X86881108Y-98978319D02*
X87000156Y-99216414D01*
X87000156Y-99216414D02*
X87119203Y-99335462D01*
X87119203Y-99335462D02*
X87357299Y-99454509D01*
X87357299Y-99454509D02*
X87952537Y-99454509D01*
X87952537Y-99454509D02*
X88190632Y-99335462D01*
X88190632Y-99335462D02*
X88309680Y-99216414D01*
X88309680Y-99216414D02*
X88428727Y-98978319D01*
X88428727Y-98978319D02*
X88428727Y-98383081D01*
X88428727Y-98383081D02*
X88309680Y-98144986D01*
X88309680Y-98144986D02*
X88190632Y-98025938D01*
X85928727Y-100644985D02*
X86404918Y-100406890D01*
X85928727Y-101835461D02*
X86404918Y-101597366D01*
X88428727Y-104811652D02*
X85928727Y-104811652D01*
X87119203Y-104811652D02*
X87119203Y-106240223D01*
X88428727Y-106240223D02*
X85928727Y-106240223D01*
X88428727Y-107430700D02*
X85928727Y-107430700D01*
X85928727Y-107430700D02*
X85928727Y-108025938D01*
X85928727Y-108025938D02*
X86047775Y-108383081D01*
X86047775Y-108383081D02*
X86285870Y-108621176D01*
X86285870Y-108621176D02*
X86523965Y-108740223D01*
X86523965Y-108740223D02*
X87000156Y-108859271D01*
X87000156Y-108859271D02*
X87357299Y-108859271D01*
X87357299Y-108859271D02*
X87833489Y-108740223D01*
X87833489Y-108740223D02*
X88071584Y-108621176D01*
X88071584Y-108621176D02*
X88309680Y-108383081D01*
X88309680Y-108383081D02*
X88428727Y-108025938D01*
X88428727Y-108025938D02*
X88428727Y-107430700D01*
X88428727Y-109930700D02*
X85928727Y-109930700D01*
X85928727Y-109930700D02*
X85928727Y-110525938D01*
X85928727Y-110525938D02*
X86047775Y-110883081D01*
X86047775Y-110883081D02*
X86285870Y-111121176D01*
X86285870Y-111121176D02*
X86523965Y-111240223D01*
X86523965Y-111240223D02*
X87000156Y-111359271D01*
X87000156Y-111359271D02*
X87357299Y-111359271D01*
X87357299Y-111359271D02*
X87833489Y-111240223D01*
X87833489Y-111240223D02*
X88071584Y-111121176D01*
X88071584Y-111121176D02*
X88309680Y-110883081D01*
X88309680Y-110883081D02*
X88428727Y-110525938D01*
X88428727Y-110525938D02*
X88428727Y-109930700D01*
X92334540Y-42073558D02*
X92453587Y-42311653D01*
X92453587Y-42311653D02*
X92453587Y-42787844D01*
X92453587Y-42787844D02*
X92334540Y-43025939D01*
X92334540Y-43025939D02*
X92096444Y-43144987D01*
X92096444Y-43144987D02*
X91977397Y-43144987D01*
X91977397Y-43144987D02*
X91739301Y-43025939D01*
X91739301Y-43025939D02*
X91620254Y-42787844D01*
X91620254Y-42787844D02*
X91620254Y-42430701D01*
X91620254Y-42430701D02*
X91501206Y-42192606D01*
X91501206Y-42192606D02*
X91263111Y-42073558D01*
X91263111Y-42073558D02*
X91144063Y-42073558D01*
X91144063Y-42073558D02*
X90905968Y-42192606D01*
X90905968Y-42192606D02*
X90786920Y-42430701D01*
X90786920Y-42430701D02*
X90786920Y-42787844D01*
X90786920Y-42787844D02*
X90905968Y-43025939D01*
X92453587Y-44216416D02*
X90786920Y-44216416D01*
X89953587Y-44216416D02*
X90072635Y-44097368D01*
X90072635Y-44097368D02*
X90191682Y-44216416D01*
X90191682Y-44216416D02*
X90072635Y-44335463D01*
X90072635Y-44335463D02*
X89953587Y-44216416D01*
X89953587Y-44216416D02*
X90191682Y-44216416D01*
X90786920Y-45168796D02*
X90786920Y-46478320D01*
X90786920Y-46478320D02*
X92453587Y-45168796D01*
X92453587Y-45168796D02*
X92453587Y-46478320D01*
X92334540Y-48383083D02*
X92453587Y-48144987D01*
X92453587Y-48144987D02*
X92453587Y-47668797D01*
X92453587Y-47668797D02*
X92334540Y-47430702D01*
X92334540Y-47430702D02*
X92096444Y-47311654D01*
X92096444Y-47311654D02*
X91144063Y-47311654D01*
X91144063Y-47311654D02*
X90905968Y-47430702D01*
X90905968Y-47430702D02*
X90786920Y-47668797D01*
X90786920Y-47668797D02*
X90786920Y-48144987D01*
X90786920Y-48144987D02*
X90905968Y-48383083D01*
X90905968Y-48383083D02*
X91144063Y-48502130D01*
X91144063Y-48502130D02*
X91382159Y-48502130D01*
X91382159Y-48502130D02*
X91620254Y-47311654D01*
X92453587Y-51478321D02*
X90786920Y-51478321D01*
X89953587Y-51478321D02*
X90072635Y-51359273D01*
X90072635Y-51359273D02*
X90191682Y-51478321D01*
X90191682Y-51478321D02*
X90072635Y-51597368D01*
X90072635Y-51597368D02*
X89953587Y-51478321D01*
X89953587Y-51478321D02*
X90191682Y-51478321D01*
X92334540Y-52549749D02*
X92453587Y-52787844D01*
X92453587Y-52787844D02*
X92453587Y-53264035D01*
X92453587Y-53264035D02*
X92334540Y-53502130D01*
X92334540Y-53502130D02*
X92096444Y-53621178D01*
X92096444Y-53621178D02*
X91977397Y-53621178D01*
X91977397Y-53621178D02*
X91739301Y-53502130D01*
X91739301Y-53502130D02*
X91620254Y-53264035D01*
X91620254Y-53264035D02*
X91620254Y-52906892D01*
X91620254Y-52906892D02*
X91501206Y-52668797D01*
X91501206Y-52668797D02*
X91263111Y-52549749D01*
X91263111Y-52549749D02*
X91144063Y-52549749D01*
X91144063Y-52549749D02*
X90905968Y-52668797D01*
X90905968Y-52668797D02*
X90786920Y-52906892D01*
X90786920Y-52906892D02*
X90786920Y-53264035D01*
X90786920Y-53264035D02*
X90905968Y-53502130D01*
X90786920Y-56597369D02*
X92453587Y-56597369D01*
X91025016Y-56597369D02*
X90905968Y-56716416D01*
X90905968Y-56716416D02*
X90786920Y-56954511D01*
X90786920Y-56954511D02*
X90786920Y-57311654D01*
X90786920Y-57311654D02*
X90905968Y-57549750D01*
X90905968Y-57549750D02*
X91144063Y-57668797D01*
X91144063Y-57668797D02*
X92453587Y-57668797D01*
X92453587Y-59216416D02*
X92334540Y-58978321D01*
X92334540Y-58978321D02*
X92215492Y-58859274D01*
X92215492Y-58859274D02*
X91977397Y-58740226D01*
X91977397Y-58740226D02*
X91263111Y-58740226D01*
X91263111Y-58740226D02*
X91025016Y-58859274D01*
X91025016Y-58859274D02*
X90905968Y-58978321D01*
X90905968Y-58978321D02*
X90786920Y-59216416D01*
X90786920Y-59216416D02*
X90786920Y-59573559D01*
X90786920Y-59573559D02*
X90905968Y-59811655D01*
X90905968Y-59811655D02*
X91025016Y-59930702D01*
X91025016Y-59930702D02*
X91263111Y-60049750D01*
X91263111Y-60049750D02*
X91977397Y-60049750D01*
X91977397Y-60049750D02*
X92215492Y-59930702D01*
X92215492Y-59930702D02*
X92334540Y-59811655D01*
X92334540Y-59811655D02*
X92453587Y-59573559D01*
X92453587Y-59573559D02*
X92453587Y-59216416D01*
X90786920Y-60764036D02*
X90786920Y-61716417D01*
X89953587Y-61121179D02*
X92096444Y-61121179D01*
X92096444Y-61121179D02*
X92334540Y-61240226D01*
X92334540Y-61240226D02*
X92453587Y-61478321D01*
X92453587Y-61478321D02*
X92453587Y-61716417D01*
X90786920Y-64097369D02*
X90786920Y-65049750D01*
X89953587Y-64454512D02*
X92096444Y-64454512D01*
X92096444Y-64454512D02*
X92334540Y-64573559D01*
X92334540Y-64573559D02*
X92453587Y-64811654D01*
X92453587Y-64811654D02*
X92453587Y-65049750D01*
X92453587Y-66240225D02*
X92334540Y-66002130D01*
X92334540Y-66002130D02*
X92215492Y-65883083D01*
X92215492Y-65883083D02*
X91977397Y-65764035D01*
X91977397Y-65764035D02*
X91263111Y-65764035D01*
X91263111Y-65764035D02*
X91025016Y-65883083D01*
X91025016Y-65883083D02*
X90905968Y-66002130D01*
X90905968Y-66002130D02*
X90786920Y-66240225D01*
X90786920Y-66240225D02*
X90786920Y-66597368D01*
X90786920Y-66597368D02*
X90905968Y-66835464D01*
X90905968Y-66835464D02*
X91025016Y-66954511D01*
X91025016Y-66954511D02*
X91263111Y-67073559D01*
X91263111Y-67073559D02*
X91977397Y-67073559D01*
X91977397Y-67073559D02*
X92215492Y-66954511D01*
X92215492Y-66954511D02*
X92334540Y-66835464D01*
X92334540Y-66835464D02*
X92453587Y-66597368D01*
X92453587Y-66597368D02*
X92453587Y-66240225D01*
X92453587Y-68502130D02*
X92334540Y-68264035D01*
X92334540Y-68264035D02*
X92215492Y-68144988D01*
X92215492Y-68144988D02*
X91977397Y-68025940D01*
X91977397Y-68025940D02*
X91263111Y-68025940D01*
X91263111Y-68025940D02*
X91025016Y-68144988D01*
X91025016Y-68144988D02*
X90905968Y-68264035D01*
X90905968Y-68264035D02*
X90786920Y-68502130D01*
X90786920Y-68502130D02*
X90786920Y-68859273D01*
X90786920Y-68859273D02*
X90905968Y-69097369D01*
X90905968Y-69097369D02*
X91025016Y-69216416D01*
X91025016Y-69216416D02*
X91263111Y-69335464D01*
X91263111Y-69335464D02*
X91977397Y-69335464D01*
X91977397Y-69335464D02*
X92215492Y-69216416D01*
X92215492Y-69216416D02*
X92334540Y-69097369D01*
X92334540Y-69097369D02*
X92453587Y-68859273D01*
X92453587Y-68859273D02*
X92453587Y-68502130D01*
X90786920Y-71954512D02*
X90786920Y-72906893D01*
X92453587Y-72311655D02*
X90310730Y-72311655D01*
X90310730Y-72311655D02*
X90072635Y-72430702D01*
X90072635Y-72430702D02*
X89953587Y-72668797D01*
X89953587Y-72668797D02*
X89953587Y-72906893D01*
X92453587Y-74811654D02*
X91144063Y-74811654D01*
X91144063Y-74811654D02*
X90905968Y-74692607D01*
X90905968Y-74692607D02*
X90786920Y-74454511D01*
X90786920Y-74454511D02*
X90786920Y-73978321D01*
X90786920Y-73978321D02*
X90905968Y-73740226D01*
X92334540Y-74811654D02*
X92453587Y-74573559D01*
X92453587Y-74573559D02*
X92453587Y-73978321D01*
X92453587Y-73978321D02*
X92334540Y-73740226D01*
X92334540Y-73740226D02*
X92096444Y-73621178D01*
X92096444Y-73621178D02*
X91858349Y-73621178D01*
X91858349Y-73621178D02*
X91620254Y-73740226D01*
X91620254Y-73740226D02*
X91501206Y-73978321D01*
X91501206Y-73978321D02*
X91501206Y-74573559D01*
X91501206Y-74573559D02*
X91382159Y-74811654D01*
X92453587Y-76002131D02*
X90786920Y-76002131D01*
X91263111Y-76002131D02*
X91025016Y-76121178D01*
X91025016Y-76121178D02*
X90905968Y-76240226D01*
X90905968Y-76240226D02*
X90786920Y-76478321D01*
X90786920Y-76478321D02*
X90786920Y-76716416D01*
X90786920Y-79097369D02*
X90786920Y-80049750D01*
X92453587Y-79454512D02*
X90310730Y-79454512D01*
X90310730Y-79454512D02*
X90072635Y-79573559D01*
X90072635Y-79573559D02*
X89953587Y-79811654D01*
X89953587Y-79811654D02*
X89953587Y-80049750D01*
X92453587Y-80883083D02*
X90786920Y-80883083D01*
X91263111Y-80883083D02*
X91025016Y-81002130D01*
X91025016Y-81002130D02*
X90905968Y-81121178D01*
X90905968Y-81121178D02*
X90786920Y-81359273D01*
X90786920Y-81359273D02*
X90786920Y-81597368D01*
X92453587Y-82787844D02*
X92334540Y-82549749D01*
X92334540Y-82549749D02*
X92215492Y-82430702D01*
X92215492Y-82430702D02*
X91977397Y-82311654D01*
X91977397Y-82311654D02*
X91263111Y-82311654D01*
X91263111Y-82311654D02*
X91025016Y-82430702D01*
X91025016Y-82430702D02*
X90905968Y-82549749D01*
X90905968Y-82549749D02*
X90786920Y-82787844D01*
X90786920Y-82787844D02*
X90786920Y-83144987D01*
X90786920Y-83144987D02*
X90905968Y-83383083D01*
X90905968Y-83383083D02*
X91025016Y-83502130D01*
X91025016Y-83502130D02*
X91263111Y-83621178D01*
X91263111Y-83621178D02*
X91977397Y-83621178D01*
X91977397Y-83621178D02*
X92215492Y-83502130D01*
X92215492Y-83502130D02*
X92334540Y-83383083D01*
X92334540Y-83383083D02*
X92453587Y-83144987D01*
X92453587Y-83144987D02*
X92453587Y-82787844D01*
X92453587Y-84692607D02*
X90786920Y-84692607D01*
X91025016Y-84692607D02*
X90905968Y-84811654D01*
X90905968Y-84811654D02*
X90786920Y-85049749D01*
X90786920Y-85049749D02*
X90786920Y-85406892D01*
X90786920Y-85406892D02*
X90905968Y-85644988D01*
X90905968Y-85644988D02*
X91144063Y-85764035D01*
X91144063Y-85764035D02*
X92453587Y-85764035D01*
X91144063Y-85764035D02*
X90905968Y-85883083D01*
X90905968Y-85883083D02*
X90786920Y-86121178D01*
X90786920Y-86121178D02*
X90786920Y-86478321D01*
X90786920Y-86478321D02*
X90905968Y-86716416D01*
X90905968Y-86716416D02*
X91144063Y-86835464D01*
X91144063Y-86835464D02*
X92453587Y-86835464D01*
X90786920Y-89573559D02*
X90786920Y-90525940D01*
X89953587Y-89930702D02*
X92096444Y-89930702D01*
X92096444Y-89930702D02*
X92334540Y-90049749D01*
X92334540Y-90049749D02*
X92453587Y-90287844D01*
X92453587Y-90287844D02*
X92453587Y-90525940D01*
X92453587Y-91359273D02*
X89953587Y-91359273D01*
X92453587Y-92430701D02*
X91144063Y-92430701D01*
X91144063Y-92430701D02*
X90905968Y-92311654D01*
X90905968Y-92311654D02*
X90786920Y-92073558D01*
X90786920Y-92073558D02*
X90786920Y-91716415D01*
X90786920Y-91716415D02*
X90905968Y-91478320D01*
X90905968Y-91478320D02*
X91025016Y-91359273D01*
X92334540Y-94573559D02*
X92453587Y-94335463D01*
X92453587Y-94335463D02*
X92453587Y-93859273D01*
X92453587Y-93859273D02*
X92334540Y-93621178D01*
X92334540Y-93621178D02*
X92096444Y-93502130D01*
X92096444Y-93502130D02*
X91144063Y-93502130D01*
X91144063Y-93502130D02*
X90905968Y-93621178D01*
X90905968Y-93621178D02*
X90786920Y-93859273D01*
X90786920Y-93859273D02*
X90786920Y-94335463D01*
X90786920Y-94335463D02*
X90905968Y-94573559D01*
X90905968Y-94573559D02*
X91144063Y-94692606D01*
X91144063Y-94692606D02*
X91382159Y-94692606D01*
X91382159Y-94692606D02*
X91620254Y-93502130D01*
X92453587Y-97668797D02*
X89953587Y-97668797D01*
X91144063Y-99692606D02*
X91263111Y-100049749D01*
X91263111Y-100049749D02*
X91382159Y-100168796D01*
X91382159Y-100168796D02*
X91620254Y-100287844D01*
X91620254Y-100287844D02*
X91977397Y-100287844D01*
X91977397Y-100287844D02*
X92215492Y-100168796D01*
X92215492Y-100168796D02*
X92334540Y-100049749D01*
X92334540Y-100049749D02*
X92453587Y-99811654D01*
X92453587Y-99811654D02*
X92453587Y-98859273D01*
X92453587Y-98859273D02*
X89953587Y-98859273D01*
X89953587Y-98859273D02*
X89953587Y-99692606D01*
X89953587Y-99692606D02*
X90072635Y-99930701D01*
X90072635Y-99930701D02*
X90191682Y-100049749D01*
X90191682Y-100049749D02*
X90429778Y-100168796D01*
X90429778Y-100168796D02*
X90667873Y-100168796D01*
X90667873Y-100168796D02*
X90905968Y-100049749D01*
X90905968Y-100049749D02*
X91025016Y-99930701D01*
X91025016Y-99930701D02*
X91144063Y-99692606D01*
X91144063Y-99692606D02*
X91144063Y-98859273D01*
X92453587Y-101359273D02*
X89953587Y-101359273D01*
X89953587Y-101359273D02*
X91739301Y-102192606D01*
X91739301Y-102192606D02*
X89953587Y-103025939D01*
X89953587Y-103025939D02*
X92453587Y-103025939D01*
X89953587Y-106835463D02*
X91739301Y-106835463D01*
X91739301Y-106835463D02*
X92096444Y-106716416D01*
X92096444Y-106716416D02*
X92334540Y-106478320D01*
X92334540Y-106478320D02*
X92453587Y-106121178D01*
X92453587Y-106121178D02*
X92453587Y-105883082D01*
X92453587Y-109097368D02*
X91144063Y-109097368D01*
X91144063Y-109097368D02*
X90905968Y-108978321D01*
X90905968Y-108978321D02*
X90786920Y-108740225D01*
X90786920Y-108740225D02*
X90786920Y-108264035D01*
X90786920Y-108264035D02*
X90905968Y-108025940D01*
X92334540Y-109097368D02*
X92453587Y-108859273D01*
X92453587Y-108859273D02*
X92453587Y-108264035D01*
X92453587Y-108264035D02*
X92334540Y-108025940D01*
X92334540Y-108025940D02*
X92096444Y-107906892D01*
X92096444Y-107906892D02*
X91858349Y-107906892D01*
X91858349Y-107906892D02*
X91620254Y-108025940D01*
X91620254Y-108025940D02*
X91501206Y-108264035D01*
X91501206Y-108264035D02*
X91501206Y-108859273D01*
X91501206Y-108859273D02*
X91382159Y-109097368D01*
X90786920Y-111359273D02*
X92810730Y-111359273D01*
X92810730Y-111359273D02*
X93048825Y-111240226D01*
X93048825Y-111240226D02*
X93167873Y-111121178D01*
X93167873Y-111121178D02*
X93286920Y-110883083D01*
X93286920Y-110883083D02*
X93286920Y-110525940D01*
X93286920Y-110525940D02*
X93167873Y-110287845D01*
X92334540Y-111359273D02*
X92453587Y-111121178D01*
X92453587Y-111121178D02*
X92453587Y-110644987D01*
X92453587Y-110644987D02*
X92334540Y-110406892D01*
X92334540Y-110406892D02*
X92215492Y-110287845D01*
X92215492Y-110287845D02*
X91977397Y-110168797D01*
X91977397Y-110168797D02*
X91263111Y-110168797D01*
X91263111Y-110168797D02*
X91025016Y-110287845D01*
X91025016Y-110287845D02*
X90905968Y-110406892D01*
X90905968Y-110406892D02*
X90786920Y-110644987D01*
X90786920Y-110644987D02*
X90786920Y-111121178D01*
X90786920Y-111121178D02*
X90905968Y-111359273D01*
X90786920Y-113621178D02*
X92453587Y-113621178D01*
X90786920Y-112549750D02*
X92096444Y-112549750D01*
X92096444Y-112549750D02*
X92334540Y-112668797D01*
X92334540Y-112668797D02*
X92453587Y-112906892D01*
X92453587Y-112906892D02*
X92453587Y-113264035D01*
X92453587Y-113264035D02*
X92334540Y-113502131D01*
X92334540Y-113502131D02*
X92215492Y-113621178D01*
X92453587Y-115883083D02*
X91144063Y-115883083D01*
X91144063Y-115883083D02*
X90905968Y-115764036D01*
X90905968Y-115764036D02*
X90786920Y-115525940D01*
X90786920Y-115525940D02*
X90786920Y-115049750D01*
X90786920Y-115049750D02*
X90905968Y-114811655D01*
X92334540Y-115883083D02*
X92453587Y-115644988D01*
X92453587Y-115644988D02*
X92453587Y-115049750D01*
X92453587Y-115049750D02*
X92334540Y-114811655D01*
X92334540Y-114811655D02*
X92096444Y-114692607D01*
X92096444Y-114692607D02*
X91858349Y-114692607D01*
X91858349Y-114692607D02*
X91620254Y-114811655D01*
X91620254Y-114811655D02*
X91501206Y-115049750D01*
X91501206Y-115049750D02*
X91501206Y-115644988D01*
X91501206Y-115644988D02*
X91382159Y-115883083D01*
X92453587Y-117073560D02*
X90786920Y-117073560D01*
X91263111Y-117073560D02*
X91025016Y-117192607D01*
X91025016Y-117192607D02*
X90905968Y-117311655D01*
X90905968Y-117311655D02*
X90786920Y-117549750D01*
X90786920Y-117549750D02*
X90786920Y-117787845D01*
X89953587Y-120287845D02*
X89953587Y-121835464D01*
X89953587Y-121835464D02*
X90905968Y-121002131D01*
X90905968Y-121002131D02*
X90905968Y-121359274D01*
X90905968Y-121359274D02*
X91025016Y-121597369D01*
X91025016Y-121597369D02*
X91144063Y-121716417D01*
X91144063Y-121716417D02*
X91382159Y-121835464D01*
X91382159Y-121835464D02*
X91977397Y-121835464D01*
X91977397Y-121835464D02*
X92215492Y-121716417D01*
X92215492Y-121716417D02*
X92334540Y-121597369D01*
X92334540Y-121597369D02*
X92453587Y-121359274D01*
X92453587Y-121359274D02*
X92453587Y-120644988D01*
X92453587Y-120644988D02*
X92334540Y-120406893D01*
X92334540Y-120406893D02*
X92215492Y-120287845D01*
X89953587Y-124097369D02*
X89953587Y-122906893D01*
X89953587Y-122906893D02*
X91144063Y-122787845D01*
X91144063Y-122787845D02*
X91025016Y-122906893D01*
X91025016Y-122906893D02*
X90905968Y-123144988D01*
X90905968Y-123144988D02*
X90905968Y-123740226D01*
X90905968Y-123740226D02*
X91025016Y-123978321D01*
X91025016Y-123978321D02*
X91144063Y-124097369D01*
X91144063Y-124097369D02*
X91382159Y-124216416D01*
X91382159Y-124216416D02*
X91977397Y-124216416D01*
X91977397Y-124216416D02*
X92215492Y-124097369D01*
X92215492Y-124097369D02*
X92334540Y-123978321D01*
X92334540Y-123978321D02*
X92453587Y-123740226D01*
X92453587Y-123740226D02*
X92453587Y-123144988D01*
X92453587Y-123144988D02*
X92334540Y-122906893D01*
X92334540Y-122906893D02*
X92215492Y-122787845D01*
X92453587Y-125406892D02*
X92453587Y-125883083D01*
X92453587Y-125883083D02*
X92334540Y-126121178D01*
X92334540Y-126121178D02*
X92215492Y-126240226D01*
X92215492Y-126240226D02*
X91858349Y-126478321D01*
X91858349Y-126478321D02*
X91382159Y-126597368D01*
X91382159Y-126597368D02*
X90429778Y-126597368D01*
X90429778Y-126597368D02*
X90191682Y-126478321D01*
X90191682Y-126478321D02*
X90072635Y-126359273D01*
X90072635Y-126359273D02*
X89953587Y-126121178D01*
X89953587Y-126121178D02*
X89953587Y-125644987D01*
X89953587Y-125644987D02*
X90072635Y-125406892D01*
X90072635Y-125406892D02*
X90191682Y-125287845D01*
X90191682Y-125287845D02*
X90429778Y-125168797D01*
X90429778Y-125168797D02*
X91025016Y-125168797D01*
X91025016Y-125168797D02*
X91263111Y-125287845D01*
X91263111Y-125287845D02*
X91382159Y-125406892D01*
X91382159Y-125406892D02*
X91501206Y-125644987D01*
X91501206Y-125644987D02*
X91501206Y-126121178D01*
X91501206Y-126121178D02*
X91382159Y-126359273D01*
X91382159Y-126359273D02*
X91263111Y-126478321D01*
X91263111Y-126478321D02*
X91025016Y-126597368D01*
X90191682Y-127549749D02*
X90072635Y-127668797D01*
X90072635Y-127668797D02*
X89953587Y-127906892D01*
X89953587Y-127906892D02*
X89953587Y-128502130D01*
X89953587Y-128502130D02*
X90072635Y-128740225D01*
X90072635Y-128740225D02*
X90191682Y-128859273D01*
X90191682Y-128859273D02*
X90429778Y-128978320D01*
X90429778Y-128978320D02*
X90667873Y-128978320D01*
X90667873Y-128978320D02*
X91025016Y-128859273D01*
X91025016Y-128859273D02*
X92453587Y-127430701D01*
X92453587Y-127430701D02*
X92453587Y-128978320D01*
X94811780Y-41954510D02*
X96478447Y-42549748D01*
X96478447Y-42549748D02*
X94811780Y-43144987D01*
X93978447Y-44573558D02*
X93978447Y-44811653D01*
X93978447Y-44811653D02*
X94097495Y-45049749D01*
X94097495Y-45049749D02*
X94216542Y-45168796D01*
X94216542Y-45168796D02*
X94454638Y-45287844D01*
X94454638Y-45287844D02*
X94930828Y-45406891D01*
X94930828Y-45406891D02*
X95526066Y-45406891D01*
X95526066Y-45406891D02*
X96002257Y-45287844D01*
X96002257Y-45287844D02*
X96240352Y-45168796D01*
X96240352Y-45168796D02*
X96359400Y-45049749D01*
X96359400Y-45049749D02*
X96478447Y-44811653D01*
X96478447Y-44811653D02*
X96478447Y-44573558D01*
X96478447Y-44573558D02*
X96359400Y-44335463D01*
X96359400Y-44335463D02*
X96240352Y-44216415D01*
X96240352Y-44216415D02*
X96002257Y-44097368D01*
X96002257Y-44097368D02*
X95526066Y-43978320D01*
X95526066Y-43978320D02*
X94930828Y-43978320D01*
X94930828Y-43978320D02*
X94454638Y-44097368D01*
X94454638Y-44097368D02*
X94216542Y-44216415D01*
X94216542Y-44216415D02*
X94097495Y-44335463D01*
X94097495Y-44335463D02*
X93978447Y-44573558D01*
X96240352Y-46478320D02*
X96359400Y-46597367D01*
X96359400Y-46597367D02*
X96478447Y-46478320D01*
X96478447Y-46478320D02*
X96359400Y-46359272D01*
X96359400Y-46359272D02*
X96240352Y-46478320D01*
X96240352Y-46478320D02*
X96478447Y-46478320D01*
X94216542Y-47549748D02*
X94097495Y-47668796D01*
X94097495Y-47668796D02*
X93978447Y-47906891D01*
X93978447Y-47906891D02*
X93978447Y-48502129D01*
X93978447Y-48502129D02*
X94097495Y-48740224D01*
X94097495Y-48740224D02*
X94216542Y-48859272D01*
X94216542Y-48859272D02*
X94454638Y-48978319D01*
X94454638Y-48978319D02*
X94692733Y-48978319D01*
X94692733Y-48978319D02*
X95049876Y-48859272D01*
X95049876Y-48859272D02*
X96478447Y-47430700D01*
X96478447Y-47430700D02*
X96478447Y-48978319D01*
M02*
