M48
; DRILL file {KiCad 9.0.1} date 2026-03-03T22:48:55+0100
; FORMAT={-:-/ absolute / metric / decimal}
; #@! TF.CreationDate,2026-03-03T22:48:55+01:00
; #@! TF.GenerationSoftware,Kicad,Pcbnew,9.0.1
; #@! TF.FileFunction,Plated,1,2,PTH
FMAT,2
METRIC
; #@! TA.AperFunction,Plated,PTH,ComponentDrill
T1C0.400
%
G90
G05
T1
X47.8Y-132.8
X47.9Y-34.7
X49.2Y-82.4
X49.2Y-83.8
X49.2Y-85.2
X49.2Y-132.8
X49.3Y-34.7
X49.3Y-58.1
X49.3Y-59.5
X49.3Y-60.9
X49.3Y-106.5
X49.3Y-107.9
X49.3Y-109.3
X50.6Y-132.8
X50.7Y-34.7
X77.0Y-34.3
X77.0Y-133.1
X78.4Y-34.3
X78.4Y-133.1
X79.8Y-34.3
X79.8Y-133.1
X109.5Y-34.3
X109.6Y-132.8
X110.9Y-34.3
X111.0Y-132.8
X112.3Y-34.3
X112.4Y-132.8
X138.1Y-132.6
X138.2Y-34.3
X139.5Y-132.6
X139.6Y-34.3
X140.9Y-132.6
X141.0Y-34.3
X162.4Y-57.8
X162.4Y-59.2
X162.4Y-60.6
X162.6Y-106.5
X162.6Y-107.9
X162.6Y-109.3
M30
