%TF.GenerationSoftware,KiCad,Pcbnew,9.0.1*%
%TF.CreationDate,2025-12-06T19:44:15+01:00*%
%TF.ProjectId,calibration_marker,63616c69-6272-4617-9469-6f6e5f6d6172,rev?*%
%TF.SameCoordinates,Original*%
%TF.FileFunction,Copper,L2,Bot*%
%TF.FilePolarity,Positive*%
%FSLAX46Y46*%
G04 Gerber Fmt 4.6, Leading zero omitted, Abs format (unit mm)*
G04 Created by KiCad (PCBNEW 9.0.1) date 2025-12-06 19:44:15*
%MOMM*%
%LPD*%
G01*
G04 APERTURE LIST*
%TA.AperFunction,SMDPad,CuDef*%
%ADD10O,2.000000X4.000000*%
%TD*%
G04 APERTURE END LIST*
D10*
%TO.P,REF\u002A\u002A47,1*%
%TO.N,N/C*%
X149440000Y-52500000D03*
%TD*%
%TO.P,REF\u002A\u002A46,1*%
%TO.N,N/C*%
X146900000Y-52500000D03*
%TD*%
%TO.P,REF\u002A\u002A45,1*%
%TO.N,N/C*%
X144360000Y-52500000D03*
%TD*%
%TO.P,REF\u002A\u002A44,1*%
%TO.N,N/C*%
X141820000Y-52500000D03*
%TD*%
%TO.P,REF\u002A\u002A43,1*%
%TO.N,N/C*%
X139280000Y-52500000D03*
%TD*%
%TO.P,REF\u002A\u002A42,1*%
%TO.N,N/C*%
X136740000Y-52500000D03*
%TD*%
%TO.P,REF\u002A\u002A41,1*%
%TO.N,N/C*%
X134200000Y-52500000D03*
%TD*%
%TO.P,REF\u002A\u002A40,1*%
%TO.N,N/C*%
X131660000Y-52500000D03*
%TD*%
%TO.P,REF\u002A\u002A39,1*%
%TO.N,N/C*%
X129120000Y-52500000D03*
%TD*%
%TO.P,REF\u002A\u002A38,1*%
%TO.N,N/C*%
X126580000Y-52500000D03*
%TD*%
%TO.P,REF\u002A\u002A37,1*%
%TO.N,N/C*%
X124040000Y-52500000D03*
%TD*%
%TO.P,REF\u002A\u002A36,1*%
%TO.N,N/C*%
X121500000Y-52500000D03*
%TD*%
%TO.P,REF\u002A\u002A35,1*%
%TO.N,N/C*%
X118960000Y-52500000D03*
%TD*%
%TO.P,REF\u002A\u002A34,1*%
%TO.N,N/C*%
X116420000Y-52500000D03*
%TD*%
%TO.P,REF\u002A\u002A33,1*%
%TO.N,N/C*%
X113880000Y-52500000D03*
%TD*%
%TO.P,REF\u002A\u002A32,1*%
%TO.N,N/C*%
X111340000Y-52500000D03*
%TD*%
%TO.P,REF\u002A\u002A31,1*%
%TO.N,N/C*%
X108800000Y-52500000D03*
%TD*%
%TO.P,REF\u002A\u002A30,1*%
%TO.N,N/C*%
X106260000Y-52500000D03*
%TD*%
%TO.P,REF\u002A\u002A29,1*%
%TO.N,N/C*%
X103720000Y-52500000D03*
%TD*%
%TO.P,REF\u002A\u002A28,1*%
%TO.N,N/C*%
X101180000Y-52500000D03*
%TD*%
%TO.P,REF\u002A\u002A27,1*%
%TO.N,N/C*%
X98640000Y-52500000D03*
%TD*%
%TO.P,REF\u002A\u002A26,1*%
%TO.N,N/C*%
X96100000Y-52500000D03*
%TD*%
%TO.P,REF\u002A\u002A25,1*%
%TO.N,N/C*%
X93560000Y-52500000D03*
%TD*%
%TO.P,REF\u002A\u002A24,1*%
%TO.N,N/C*%
X91020000Y-52500000D03*
%TD*%
%TO.P,REF\u002A\u002A23,1*%
%TO.N,N/C*%
X88480000Y-52500000D03*
%TD*%
%TO.P,REF\u002A\u002A22,1*%
%TO.N,N/C*%
X85940000Y-52500000D03*
%TD*%
%TO.P,REF\u002A\u002A21,1*%
%TO.N,N/C*%
X83400000Y-52500000D03*
%TD*%
%TO.P,REF\u002A\u002A20,1*%
%TO.N,N/C*%
X80860000Y-52500000D03*
%TD*%
%TO.P,REF\u002A\u002A19,1*%
%TO.N,N/C*%
X78320000Y-52500000D03*
%TD*%
%TO.P,REF\u002A\u002A18,1*%
%TO.N,N/C*%
X75780000Y-52500000D03*
%TD*%
%TO.P,REF\u002A\u002A17,1*%
%TO.N,N/C*%
X73240000Y-52500000D03*
%TD*%
%TO.P,REF\u002A\u002A16,1*%
%TO.N,N/C*%
X70700000Y-52500000D03*
%TD*%
%TO.P,REF\u002A\u002A15,1*%
%TO.N,N/C*%
X68160000Y-52500000D03*
%TD*%
%TO.P,REF\u002A\u002A14,1*%
%TO.N,N/C*%
X65620000Y-52500000D03*
%TD*%
%TO.P,REF\u002A\u002A13,1*%
%TO.N,N/C*%
X63080000Y-52500000D03*
%TD*%
%TO.P,REF\u002A\u002A12,1*%
%TO.N,N/C*%
X60540000Y-52500000D03*
%TD*%
%TO.P,REF\u002A\u002A11,1*%
%TO.N,N/C*%
X58000000Y-52500000D03*
%TD*%
%TO.P,REF\u002A\u002A10,1*%
%TO.N,N/C*%
X55460000Y-52500000D03*
%TD*%
%TO.P,REF\u002A\u002A9,1*%
%TO.N,N/C*%
X52920000Y-52500000D03*
%TD*%
%TO.P,REF\u002A\u002A8,1*%
%TO.N,N/C*%
X50380000Y-52500000D03*
%TD*%
%TO.P,REF\u002A\u002A7,1*%
%TO.N,N/C*%
X47840000Y-52500000D03*
%TD*%
%TO.P,REF\u002A\u002A6,1*%
%TO.N,N/C*%
X45300000Y-52500000D03*
%TD*%
%TO.P,REF\u002A\u002A5,1*%
%TO.N,N/C*%
X42760000Y-52500000D03*
%TD*%
%TO.P,REF\u002A\u002A4,1*%
%TO.N,N/C*%
X40220000Y-52500000D03*
%TD*%
%TO.P,REF\u002A\u002A3,1*%
%TO.N,N/C*%
X37680000Y-52500000D03*
%TD*%
%TO.P,REF\u002A\u002A2,1*%
%TO.N,N/C*%
X35140000Y-52500000D03*
%TD*%
%TO.P,REF\u002A\u002A1,1*%
%TO.N,N/C*%
X32600000Y-52500000D03*
%TD*%
M02*
