M48
; DRILL file {KiCad 9.0.1} date 2026-03-03T22:56:41+0100
; FORMAT={-:-/ absolute / metric / decimal}
; #@! TF.CreationDate,2026-03-03T22:56:41+01:00
; #@! TF.GenerationSoftware,Kicad,Pcbnew,9.0.1
; #@! TF.FileFunction,Plated,1,2,PTH
FMAT,2
METRIC
; #@! TA.AperFunction,Plated,PTH,ComponentDrill
T1C0.400
; #@! TA.AperFunction,Plated,PTH,ComponentDrill
T2C4.300
%
G90
G05
T1
X51.2Y-37.8
X51.2Y-136.0
X52.6Y-37.8
X52.6Y-136.0
X54.0Y-37.8
X54.0Y-136.0
X64.9Y-37.2
X64.9Y-136.1
X66.3Y-37.2
X66.3Y-136.1
X67.7Y-37.2
X67.7Y-136.1
X96.7Y-136.1
X96.8Y-37.5
X98.1Y-136.1
X98.2Y-37.5
X99.5Y-136.1
X99.6Y-37.5
X127.6Y-37.5
X128.3Y-135.9
X129.0Y-37.5
X129.7Y-135.9
X130.4Y-37.5
X131.1Y-135.9
X141.5Y-37.5
X141.5Y-135.7
X142.9Y-37.5
X142.9Y-135.7
X144.3Y-37.5
X144.3Y-135.7
X165.4Y-109.3
X165.4Y-110.7
X165.4Y-112.1
X165.5Y-60.9
X165.5Y-62.3
X165.5Y-63.7
T2
X81.5Y-43.1
X81.5Y-130.5
X142.9Y-43.1
X142.9Y-130.5
X161.1Y-86.8
M30
